<?xml version="1.0" encoding="UTF-8" standalone="no"?>
<!DOCTYPE svg PUBLIC "-//W3C//DTD SVG 1.1//EN"
 "http://www.w3.org/Graphics/SVG/1.1/DTD/svg11.dtd">
<!-- Generated by graphviz version 2.36.0 (20140111.2315)
 -->
<!-- Title: SecondaryCommunity.h Pages: 1 -->
<svg width="770pt" height="84pt"
 viewBox="0.00 0.00 770.00 84.00" xmlns="http://www.w3.org/2000/svg" xmlns:xlink="http://www.w3.org/1999/xlink">
<g id="graph0" class="graph" transform="scale(1 1) rotate(0) translate(4 80)">
<title>SecondaryCommunity.h</title>
<polygon fill="white" stroke="none" points="-4,4 -4,-80 766,-80 766,4 -4,4"/>
<!-- Node1 -->
<g id="node1" class="node"><title>Node1</title>
<polygon fill="#bfbfbf" stroke="black" points="296,-56.5 296,-75.5 418,-75.5 418,-56.5 296,-56.5"/>
<text text-anchor="middle" x="357" y="-63.5" font-family="Helvetica,sans-Serif" font-size="10.00">SecondaryCommunity.h</text>
</g>
<!-- Node2 -->
<g id="node2" class="node"><title>Node2</title>
<g id="a_node2"><a xlink:href="../../dc/d9a/a00218.html" target="_top" xlink:title="CommunityGenerator.cpp">
<polygon fill="white" stroke="black" points="0,-0.5 0,-19.5 128,-19.5 128,-0.5 0,-0.5"/>
<text text-anchor="middle" x="64" y="-7.5" font-family="Helvetica,sans-Serif" font-size="10.00">CommunityGenerator.cpp</text>
</a>
</g>
</g>
<!-- Node1&#45;&gt;Node2 -->
<g id="edge1" class="edge"><title>Node1&#45;&gt;Node2</title>
<path fill="none" stroke="midnightblue" d="M300.574,-54.6007C245.201,-44.3953 161.769,-29.0189 110.21,-19.5164"/>
<polygon fill="midnightblue" stroke="midnightblue" points="300.105,-58.073 310.573,-56.4435 301.373,-51.1889 300.105,-58.073"/>
</g>
<!-- Node3 -->
<g id="node3" class="node"><title>Node3</title>
<g id="a_node3"><a xlink:href="../../dc/d28/a00276.html" target="_top" xlink:title="GeoGridJSONReader.cpp">
<polygon fill="white" stroke="black" points="146,-0.5 146,-19.5 276,-19.5 276,-0.5 146,-0.5"/>
<text text-anchor="middle" x="211" y="-7.5" font-family="Helvetica,sans-Serif" font-size="10.00">GeoGridJSONReader.cpp</text>
</a>
</g>
</g>
<!-- Node1&#45;&gt;Node3 -->
<g id="edge2" class="edge"><title>Node1&#45;&gt;Node3</title>
<path fill="none" stroke="midnightblue" d="M324.301,-52.9058C296.852,-42.7536 258.332,-28.5063 234.026,-19.5164"/>
<polygon fill="midnightblue" stroke="midnightblue" points="323.273,-56.2572 333.866,-56.4435 325.701,-49.6919 323.273,-56.2572"/>
</g>
<!-- Node4 -->
<g id="node4" class="node"><title>Node4</title>
<g id="a_node4"><a xlink:href="../../dc/dc9/a00282.html" target="_top" xlink:title="GeoGridProtoReader.cpp">
<polygon fill="white" stroke="black" points="294,-0.5 294,-19.5 420,-19.5 420,-0.5 294,-0.5"/>
<text text-anchor="middle" x="357" y="-7.5" font-family="Helvetica,sans-Serif" font-size="10.00">GeoGridProtoReader.cpp</text>
</a>
</g>
</g>
<!-- Node1&#45;&gt;Node4 -->
<g id="edge3" class="edge"><title>Node1&#45;&gt;Node4</title>
<path fill="none" stroke="midnightblue" d="M357,-45.8045C357,-36.9102 357,-26.7798 357,-19.7511"/>
<polygon fill="midnightblue" stroke="midnightblue" points="353.5,-46.083 357,-56.083 360.5,-46.083 353.5,-46.083"/>
</g>
<!-- Node5 -->
<g id="node5" class="node"><title>Node5</title>
<g id="a_node5"><a xlink:href="../../d4/d27/a00392.html" target="_top" xlink:title="SecondaryCommunityPopulator.cpp">
<polygon fill="white" stroke="black" points="438.5,-0.5 438.5,-19.5 611.5,-19.5 611.5,-0.5 438.5,-0.5"/>
<text text-anchor="middle" x="525" y="-7.5" font-family="Helvetica,sans-Serif" font-size="10.00">SecondaryCommunityPopulator.cpp</text>
</a>
</g>
</g>
<!-- Node1&#45;&gt;Node5 -->
<g id="edge4" class="edge"><title>Node1&#45;&gt;Node5</title>
<path fill="none" stroke="midnightblue" d="M393.386,-53.3044C425.042,-43.1294 470.168,-28.6246 498.504,-19.5164"/>
<polygon fill="midnightblue" stroke="midnightblue" points="392.069,-50.0513 383.62,-56.4435 394.211,-56.7155 392.069,-50.0513"/>
</g>
<!-- Node6 -->
<g id="node6" class="node"><title>Node6</title>
<g id="a_node6"><a xlink:href="../../d9/d0a/a00390.html" target="_top" xlink:title="SecondaryCommunity.cpp">
<polygon fill="white" stroke="black" points="630,-0.5 630,-19.5 762,-19.5 762,-0.5 630,-0.5"/>
<text text-anchor="middle" x="696" y="-7.5" font-family="Helvetica,sans-Serif" font-size="10.00">SecondaryCommunity.cpp</text>
</a>
</g>
</g>
<!-- Node1&#45;&gt;Node6 -->
<g id="edge5" class="edge"><title>Node1&#45;&gt;Node6</title>
<path fill="none" stroke="midnightblue" d="M420.696,-54.8537C484.747,-44.6509 582.386,-29.0977 642.536,-19.5164"/>
<polygon fill="midnightblue" stroke="midnightblue" points="420.04,-51.4139 410.716,-56.4435 421.142,-58.3268 420.04,-51.4139"/>
</g>
</g>
</svg>
