<?xml version="1.0" encoding="UTF-8" standalone="no"?>
<!DOCTYPE svg PUBLIC "-//W3C//DTD SVG 1.1//EN"
 "http://www.w3.org/Graphics/SVG/1.1/DTD/svg11.dtd">
<!-- Generated by graphviz version 2.36.0 (20140111.2315)
 -->
<!-- Title: gengeopop::CommutesCSVReader Pages: 1 -->
<svg width="471pt" height="940pt"
 viewBox="0.00 0.00 471.00 940.00" xmlns="http://www.w3.org/2000/svg" xmlns:xlink="http://www.w3.org/1999/xlink">
<g id="graph0" class="graph" transform="scale(1 1) rotate(0) translate(4 936)">
<title>gengeopop::CommutesCSVReader</title>
<polygon fill="white" stroke="none" points="-4,4 -4,-936 467,-936 467,4 -4,4"/>
<!-- Node1 -->
<g id="node1" class="node"><title>Node1</title>
<polygon fill="#bfbfbf" stroke="black" points="154,-1 154,-113 324,-113 324,-1 154,-1"/>
<text text-anchor="middle" x="239" y="-101" font-family="Helvetica,sans-Serif" font-size="10.00">gengeopop::CommutesCSVReader</text>
<polyline fill="none" stroke="black" points="154,-94 324,-94 "/>
<text text-anchor="middle" x="239" y="-82" font-family="Helvetica,sans-Serif" font-size="10.00"> </text>
<polyline fill="none" stroke="black" points="154,-75 324,-75 "/>
<text text-anchor="start" x="162" y="-63" font-family="Helvetica,sans-Serif" font-size="10.00">+ CommutesCSVReader()</text>
<text text-anchor="start" x="162" y="-52" font-family="Helvetica,sans-Serif" font-size="10.00">+ FillGeoGrid()</text>
<text text-anchor="start" x="162" y="-41" font-family="Helvetica,sans-Serif" font-size="10.00">&#45; MunicipalityTotal()</text>
<text text-anchor="start" x="162" y="-30" font-family="Helvetica,sans-Serif" font-size="10.00">&#45; AddCommute()</text>
<text text-anchor="start" x="162" y="-19" font-family="Helvetica,sans-Serif" font-size="10.00">&#45; AddCommuteFrom()</text>
<text text-anchor="start" x="162" y="-8" font-family="Helvetica,sans-Serif" font-size="10.00">&#45; AddCommuteTo()</text>
</g>
<!-- Node2 -->
<g id="node2" class="node"><title>Node2</title>
<g id="a_node2"><a xlink:href="../../d3/dfe/a00025.html" target="_top" xlink:title="Create an abstract Reader which fills a GeoGrid with the Commutes found in a given file...">
<polygon fill="white" stroke="black" points="73.5,-217.5 73.5,-296.5 222.5,-296.5 222.5,-217.5 73.5,-217.5"/>
<text text-anchor="middle" x="148" y="-284.5" font-family="Helvetica,sans-Serif" font-size="10.00">gengeopop::CommutesReader</text>
<polyline fill="none" stroke="black" points="73.5,-277.5 222.5,-277.5 "/>
<text text-anchor="middle" x="148" y="-265.5" font-family="Helvetica,sans-Serif" font-size="10.00"> </text>
<polyline fill="none" stroke="black" points="73.5,-258.5 222.5,-258.5 "/>
<text text-anchor="start" x="81.5" y="-246.5" font-family="Helvetica,sans-Serif" font-size="10.00">+ CommutesReader()</text>
<text text-anchor="start" x="81.5" y="-235.5" font-family="Helvetica,sans-Serif" font-size="10.00">+ FillGeoGrid()</text>
<text text-anchor="start" x="81.5" y="-224.5" font-family="Helvetica,sans-Serif" font-size="10.00">+ ~CommutesReader()</text>
</a>
</g>
</g>
<!-- Node2&#45;&gt;Node1 -->
<g id="edge1" class="edge"><title>Node2&#45;&gt;Node1</title>
<path fill="none" stroke="midnightblue" d="M170.079,-207.959C183.246,-179.31 200.01,-142.835 213.708,-113.031"/>
<polygon fill="none" stroke="midnightblue" points="166.758,-206.806 165.762,-217.354 173.118,-209.729 166.758,-206.806"/>
</g>
<!-- Node3 -->
<g id="node3" class="node"><title>Node3</title>
<polygon fill="white" stroke="#bfbfbf" points="52,-401 52,-469 156,-469 156,-401 52,-401"/>
<text text-anchor="start" x="60" y="-457" font-family="Helvetica,sans-Serif" font-size="10.00">std::unique_ptr&lt; std</text>
<text text-anchor="middle" x="104" y="-446" font-family="Helvetica,sans-Serif" font-size="10.00">::istream &gt;</text>
<polyline fill="none" stroke="#bfbfbf" points="52,-439 156,-439 "/>
<text text-anchor="middle" x="104" y="-427" font-family="Helvetica,sans-Serif" font-size="10.00"> </text>
<polyline fill="none" stroke="#bfbfbf" points="52,-420 156,-420 "/>
<text text-anchor="start" x="60" y="-408" font-family="Helvetica,sans-Serif" font-size="10.00">+ operator&#45;&gt;()</text>
</g>
<!-- Node3&#45;&gt;Node2 -->
<g id="edge2" class="edge"><title>Node3&#45;&gt;Node2</title>
<path fill="none" stroke="#404040" d="M112.276,-400.896C118.774,-374.903 127.932,-338.271 135.349,-308.605"/>
<polygon fill="none" stroke="#404040" points="135.393,-308.427 132.968,-301.636 138.304,-296.786 140.729,-303.577 135.393,-308.427"/>
<text text-anchor="middle" x="157.5" y="-373.5" font-family="Helvetica,sans-Serif" font-size="10.00"> #m_inputStream</text>
</g>
<!-- Node4 -->
<g id="node4" class="node"><title>Node4</title>
<g id="a_node4"><a xlink:title="STL class. ">
<polygon fill="white" stroke="#bfbfbf" points="24,-564.5 24,-621.5 92,-621.5 92,-564.5 24,-564.5"/>
<text text-anchor="middle" x="58" y="-609.5" font-family="Helvetica,sans-Serif" font-size="10.00">std::istream</text>
<polyline fill="none" stroke="#bfbfbf" points="24,-602.5 92,-602.5 "/>
<text text-anchor="middle" x="58" y="-590.5" font-family="Helvetica,sans-Serif" font-size="10.00"> </text>
<polyline fill="none" stroke="#bfbfbf" points="24,-583.5 92,-583.5 "/>
<text text-anchor="middle" x="58" y="-571.5" font-family="Helvetica,sans-Serif" font-size="10.00"> </text>
</a>
</g>
</g>
<!-- Node4&#45;&gt;Node3 -->
<g id="edge3" class="edge"><title>Node4&#45;&gt;Node3</title>
<path fill="none" stroke="#404040" d="M54.0006,-564.124C52.0387,-542.623 51.7761,-512.513 61,-488 62.083,-485.122 63.3959,-482.287 64.8804,-479.518"/>
<polygon fill="none" stroke="#404040" points="64.9692,-479.375 64.7591,-472.167 71.3319,-469.201 71.542,-476.409 64.9692,-479.375"/>
<text text-anchor="middle" x="71.5" y="-514.5" font-family="Helvetica,sans-Serif" font-size="10.00"> +ptr</text>
</g>
<!-- Node5 -->
<g id="node5" class="node"><title>Node5</title>
<g id="a_node5"><a xlink:title="STL class. ">
<polygon fill="white" stroke="#bfbfbf" points="9.5,-671 9.5,-739 106.5,-739 106.5,-671 9.5,-671"/>
<text text-anchor="start" x="17.5" y="-727" font-family="Helvetica,sans-Serif" font-size="10.00">std::basic_istream</text>
<text text-anchor="middle" x="58" y="-716" font-family="Helvetica,sans-Serif" font-size="10.00">&lt; char &gt;</text>
<polyline fill="none" stroke="#bfbfbf" points="9.5,-709 106.5,-709 "/>
<text text-anchor="middle" x="58" y="-697" font-family="Helvetica,sans-Serif" font-size="10.00"> </text>
<polyline fill="none" stroke="#bfbfbf" points="9.5,-690 106.5,-690 "/>
<text text-anchor="middle" x="58" y="-678" font-family="Helvetica,sans-Serif" font-size="10.00"> </text>
</a>
</g>
</g>
<!-- Node5&#45;&gt;Node4 -->
<g id="edge4" class="edge"><title>Node5&#45;&gt;Node4</title>
<path fill="none" stroke="midnightblue" d="M58,-660.743C58,-647.634 58,-633.591 58,-621.784"/>
<polygon fill="none" stroke="midnightblue" points="54.5001,-660.996 58,-670.996 61.5001,-660.996 54.5001,-660.996"/>
</g>
<!-- Node6 -->
<g id="node6" class="node"><title>Node6</title>
<g id="a_node6"><a xlink:title="STL class. ">
<polygon fill="white" stroke="#bfbfbf" points="0,-778.5 0,-835.5 116,-835.5 116,-778.5 0,-778.5"/>
<text text-anchor="middle" x="58" y="-823.5" font-family="Helvetica,sans-Serif" font-size="10.00">std::basic_ios&lt; Char &gt;</text>
<polyline fill="none" stroke="#bfbfbf" points="0,-816.5 116,-816.5 "/>
<text text-anchor="middle" x="58" y="-804.5" font-family="Helvetica,sans-Serif" font-size="10.00"> </text>
<polyline fill="none" stroke="#bfbfbf" points="0,-797.5 116,-797.5 "/>
<text text-anchor="middle" x="58" y="-785.5" font-family="Helvetica,sans-Serif" font-size="10.00"> </text>
</a>
</g>
</g>
<!-- Node6&#45;&gt;Node5 -->
<g id="edge5" class="edge"><title>Node6&#45;&gt;Node5</title>
<path fill="none" stroke="midnightblue" d="M58,-768.337C58,-758.755 58,-748.528 58,-739.187"/>
<polygon fill="none" stroke="midnightblue" points="54.5001,-768.41 58,-778.41 61.5001,-768.41 54.5001,-768.41"/>
</g>
<!-- Node7 -->
<g id="node7" class="node"><title>Node7</title>
<g id="a_node7"><a xlink:title="STL class. ">
<polygon fill="white" stroke="#bfbfbf" points="20.5,-874.5 20.5,-931.5 95.5,-931.5 95.5,-874.5 20.5,-874.5"/>
<text text-anchor="middle" x="58" y="-919.5" font-family="Helvetica,sans-Serif" font-size="10.00">std::ios_base</text>
<polyline fill="none" stroke="#bfbfbf" points="20.5,-912.5 95.5,-912.5 "/>
<text text-anchor="middle" x="58" y="-900.5" font-family="Helvetica,sans-Serif" font-size="10.00"> </text>
<polyline fill="none" stroke="#bfbfbf" points="20.5,-893.5 95.5,-893.5 "/>
<text text-anchor="middle" x="58" y="-881.5" font-family="Helvetica,sans-Serif" font-size="10.00"> </text>
</a>
</g>
</g>
<!-- Node7&#45;&gt;Node6 -->
<g id="edge6" class="edge"><title>Node7&#45;&gt;Node6</title>
<path fill="none" stroke="midnightblue" d="M58,-864.277C58,-854.772 58,-844.741 58,-835.822"/>
<polygon fill="none" stroke="midnightblue" points="54.5001,-864.305 58,-874.305 61.5001,-864.305 54.5001,-864.305"/>
</g>
<!-- Node8 -->
<g id="node8" class="node"><title>Node8</title>
<g id="a_node8"><a xlink:title="STL class. ">
<polygon fill="white" stroke="#bfbfbf" points="110.5,-564.5 110.5,-621.5 215.5,-621.5 215.5,-564.5 110.5,-564.5"/>
<text text-anchor="middle" x="163" y="-609.5" font-family="Helvetica,sans-Serif" font-size="10.00">std::unique_ptr&lt; T &gt;</text>
<polyline fill="none" stroke="#bfbfbf" points="110.5,-602.5 215.5,-602.5 "/>
<text text-anchor="middle" x="163" y="-590.5" font-family="Helvetica,sans-Serif" font-size="10.00"> </text>
<polyline fill="none" stroke="#bfbfbf" points="110.5,-583.5 215.5,-583.5 "/>
<text text-anchor="start" x="118.5" y="-571.5" font-family="Helvetica,sans-Serif" font-size="10.00">+ operator&#45;&gt;()</text>
</a>
</g>
</g>
<!-- Node8&#45;&gt;Node3 -->
<g id="edge7" class="edge"><title>Node8&#45;&gt;Node3</title>
<path fill="none" stroke="orange" d="M107.232,-556.871C104.429,-553.494 101.967,-549.871 100,-546 87.9688,-522.318 90.182,-491.924 94.718,-469.088"/>
<polygon fill="orange" stroke="orange" points="104.883,-559.48 114.317,-564.302 109.95,-554.649 104.883,-559.48"/>
<text text-anchor="middle" x="136.5" y="-514.5" font-family="Helvetica,sans-Serif" font-size="10.00"> &lt; std::istream &gt;</text>
</g>
<!-- Node9 -->
<g id="node9" class="node"><title>Node9</title>
<polygon fill="white" stroke="#bfbfbf" points="229.5,-676.5 229.5,-733.5 258.5,-733.5 258.5,-676.5 229.5,-676.5"/>
<text text-anchor="middle" x="244" y="-721.5" font-family="Helvetica,sans-Serif" font-size="10.00">T</text>
<polyline fill="none" stroke="#bfbfbf" points="229.5,-714.5 258.5,-714.5 "/>
<text text-anchor="middle" x="244" y="-702.5" font-family="Helvetica,sans-Serif" font-size="10.00"> </text>
<polyline fill="none" stroke="#bfbfbf" points="229.5,-695.5 258.5,-695.5 "/>
<text text-anchor="middle" x="244" y="-683.5" font-family="Helvetica,sans-Serif" font-size="10.00"> </text>
</g>
<!-- Node9&#45;&gt;Node8 -->
<g id="edge8" class="edge"><title>Node9&#45;&gt;Node8</title>
<path fill="none" stroke="#404040" d="M229.175,-687.051C220.65,-677.068 209.9,-664.068 201,-652 196.311,-645.642 191.529,-638.732 187.009,-631.972"/>
<polygon fill="none" stroke="#404040" points="186.765,-631.6 180.127,-628.782 180.175,-621.571 186.813,-624.389 186.765,-631.6"/>
<text text-anchor="middle" x="211.5" y="-643.5" font-family="Helvetica,sans-Serif" font-size="10.00"> +ptr</text>
</g>
<!-- Node11 -->
<g id="node11" class="node"><title>Node11</title>
<g id="a_node11"><a xlink:title="STL class. ">
<polygon fill="white" stroke="#bfbfbf" points="182,-488.5 182,-545.5 304,-545.5 304,-488.5 182,-488.5"/>
<text text-anchor="middle" x="243" y="-533.5" font-family="Helvetica,sans-Serif" font-size="10.00">std::vector&lt; CSVRow &gt;</text>
<polyline fill="none" stroke="#bfbfbf" points="182,-526.5 304,-526.5 "/>
<text text-anchor="middle" x="243" y="-514.5" font-family="Helvetica,sans-Serif" font-size="10.00"> </text>
<polyline fill="none" stroke="#bfbfbf" points="182,-507.5 304,-507.5 "/>
<text text-anchor="middle" x="243" y="-495.5" font-family="Helvetica,sans-Serif" font-size="10.00"> </text>
</a>
</g>
</g>
<!-- Node9&#45;&gt;Node11 -->
<g id="edge11" class="edge"><title>Node9&#45;&gt;Node11</title>
<path fill="none" stroke="#404040" d="M243.372,-676.475C243.218,-668.573 243.076,-659.946 243,-652 242.696,-620.413 242.715,-584.637 242.799,-558.001"/>
<polygon fill="none" stroke="#404040" points="242.8,-557.718 238.822,-551.703 242.845,-545.718 246.822,-551.733 242.8,-557.718"/>
<text text-anchor="middle" x="267.5" y="-643.5" font-family="Helvetica,sans-Serif" font-size="10.00"> +elements</text>
</g>
<!-- Node16 -->
<g id="node16" class="node"><title>Node16</title>
<g id="a_node16"><a xlink:title="STL class. ">
<polygon fill="white" stroke="#bfbfbf" points="278.5,-564.5 278.5,-621.5 365.5,-621.5 365.5,-564.5 278.5,-564.5"/>
<text text-anchor="middle" x="322" y="-609.5" font-family="Helvetica,sans-Serif" font-size="10.00">std::vector&lt; T &gt;</text>
<polyline fill="none" stroke="#bfbfbf" points="278.5,-602.5 365.5,-602.5 "/>
<text text-anchor="middle" x="322" y="-590.5" font-family="Helvetica,sans-Serif" font-size="10.00"> </text>
<polyline fill="none" stroke="#bfbfbf" points="278.5,-583.5 365.5,-583.5 "/>
<text text-anchor="middle" x="322" y="-571.5" font-family="Helvetica,sans-Serif" font-size="10.00"> </text>
</a>
</g>
</g>
<!-- Node9&#45;&gt;Node16 -->
<g id="edge17" class="edge"><title>Node9&#45;&gt;Node16</title>
<path fill="none" stroke="#404040" d="M258.693,-691.95C269.997,-682.103 285.423,-667.348 296,-652 300.092,-646.063 303.789,-639.378 307.026,-632.713"/>
<polygon fill="none" stroke="#404040" points="307.083,-632.587 305.91,-625.472 312.027,-621.653 313.2,-628.768 307.083,-632.587"/>
<text text-anchor="middle" x="328.5" y="-643.5" font-family="Helvetica,sans-Serif" font-size="10.00"> +elements</text>
</g>
<!-- Node10 -->
<g id="node10" class="node"><title>Node10</title>
<g id="a_node10"><a xlink:href="../../dd/db2/a00151.html" target="_top" xlink:title="A collection of CSVRow elements. ">
<polygon fill="white" stroke="black" points="246.5,-162.5 246.5,-351.5 355.5,-351.5 355.5,-162.5 246.5,-162.5"/>
<text text-anchor="middle" x="301" y="-339.5" font-family="Helvetica,sans-Serif" font-size="10.00">stride::util::CSV</text>
<polyline fill="none" stroke="black" points="246.5,-332.5 355.5,-332.5 "/>
<text text-anchor="middle" x="301" y="-320.5" font-family="Helvetica,sans-Serif" font-size="10.00"> </text>
<polyline fill="none" stroke="black" points="246.5,-313.5 355.5,-313.5 "/>
<text text-anchor="start" x="254.5" y="-301.5" font-family="Helvetica,sans-Serif" font-size="10.00">+ CSV()</text>
<text text-anchor="start" x="254.5" y="-290.5" font-family="Helvetica,sans-Serif" font-size="10.00">+ CSV()</text>
<text text-anchor="start" x="254.5" y="-279.5" font-family="Helvetica,sans-Serif" font-size="10.00">+ CSV()</text>
<text text-anchor="start" x="254.5" y="-268.5" font-family="Helvetica,sans-Serif" font-size="10.00">+ CSV()</text>
<text text-anchor="start" x="254.5" y="-257.5" font-family="Helvetica,sans-Serif" font-size="10.00">+ GetColumnCount()</text>
<text text-anchor="start" x="254.5" y="-246.5" font-family="Helvetica,sans-Serif" font-size="10.00">+ operator==()</text>
<text text-anchor="start" x="254.5" y="-235.5" font-family="Helvetica,sans-Serif" font-size="10.00">+ AddRow()</text>
<text text-anchor="start" x="254.5" y="-224.5" font-family="Helvetica,sans-Serif" font-size="10.00">+ AddRow()</text>
<text text-anchor="start" x="254.5" y="-213.5" font-family="Helvetica,sans-Serif" font-size="10.00">+ AddRows()</text>
<text text-anchor="start" x="254.5" y="-202.5" font-family="Helvetica,sans-Serif" font-size="10.00">+ Write()</text>
<text text-anchor="start" x="254.5" y="-191.5" font-family="Helvetica,sans-Serif" font-size="10.00">+ GetIndexForLabel()</text>
<text text-anchor="start" x="254.5" y="-180.5" font-family="Helvetica,sans-Serif" font-size="10.00">+ GetLabels()</text>
<text text-anchor="start" x="254.5" y="-169.5" font-family="Helvetica,sans-Serif" font-size="10.00">&#45; ReadFromStream()</text>
</a>
</g>
</g>
<!-- Node10&#45;&gt;Node1 -->
<g id="edge9" class="edge"><title>Node10&#45;&gt;Node1</title>
<path fill="none" stroke="#404040" d="M271.634,-162.219C267.69,-149.624 263.711,-136.917 259.953,-124.915"/>
<polygon fill="none" stroke="#404040" points="259.864,-124.63 254.254,-120.1 256.278,-113.179 261.888,-117.709 259.864,-124.63"/>
<text text-anchor="middle" x="288.5" y="-135.5" font-family="Helvetica,sans-Serif" font-size="10.00"> &#45;m_reader</text>
</g>
<!-- Node11&#45;&gt;Node10 -->
<g id="edge10" class="edge"><title>Node11&#45;&gt;Node10</title>
<path fill="none" stroke="darkgreen" d="M246.296,-478.159C248.677,-455.357 252.46,-425.827 258,-400 261.377,-384.259 265.668,-367.74 270.225,-351.762"/>
<polygon fill="none" stroke="darkgreen" points="242.812,-477.826 245.299,-488.124 249.777,-478.522 242.812,-477.826"/>
</g>
<!-- Node12 -->
<g id="node12" class="node"><title>Node12</title>
<g id="a_node12"><a xlink:href="../../da/d05/a00489.html" target="_top" xlink:title="{size_t\n||}">
<polygon fill="white" stroke="black" points="410.5,-406.5 410.5,-463.5 453.5,-463.5 453.5,-406.5 410.5,-406.5"/>
<text text-anchor="middle" x="432" y="-451.5" font-family="Helvetica,sans-Serif" font-size="10.00">size_t</text>
<polyline fill="none" stroke="black" points="410.5,-444.5 453.5,-444.5 "/>
<text text-anchor="middle" x="432" y="-432.5" font-family="Helvetica,sans-Serif" font-size="10.00"> </text>
<polyline fill="none" stroke="black" points="410.5,-425.5 453.5,-425.5 "/>
<text text-anchor="middle" x="432" y="-413.5" font-family="Helvetica,sans-Serif" font-size="10.00"> </text>
</a>
</g>
</g>
<!-- Node12&#45;&gt;Node10 -->
<g id="edge12" class="edge"><title>Node12&#45;&gt;Node10</title>
<path fill="none" stroke="#404040" d="M411.243,-406.112C398.054,-388.393 380.228,-364.444 362.759,-340.974"/>
<polygon fill="none" stroke="#404040" points="362.737,-340.944 355.945,-338.519 355.572,-331.318 362.363,-333.742 362.737,-340.944"/>
<text text-anchor="middle" x="427.5" y="-373.5" font-family="Helvetica,sans-Serif" font-size="10.00"> #columnCount</text>
</g>
<!-- Node13 -->
<g id="node13" class="node"><title>Node13</title>
<polygon fill="white" stroke="#bfbfbf" points="267.5,-406.5 267.5,-463.5 392.5,-463.5 392.5,-406.5 267.5,-406.5"/>
<text text-anchor="middle" x="330" y="-451.5" font-family="Helvetica,sans-Serif" font-size="10.00">std::vector&lt; std::string &gt;</text>
<polyline fill="none" stroke="#bfbfbf" points="267.5,-444.5 392.5,-444.5 "/>
<text text-anchor="middle" x="330" y="-432.5" font-family="Helvetica,sans-Serif" font-size="10.00"> </text>
<polyline fill="none" stroke="#bfbfbf" points="267.5,-425.5 392.5,-425.5 "/>
<text text-anchor="middle" x="330" y="-413.5" font-family="Helvetica,sans-Serif" font-size="10.00"> </text>
</g>
<!-- Node13&#45;&gt;Node10 -->
<g id="edge13" class="edge"><title>Node13&#45;&gt;Node10</title>
<path fill="none" stroke="#404040" d="M325.405,-406.112C323.432,-394.14 320.991,-379.325 318.422,-363.734"/>
<polygon fill="none" stroke="#404040" points="318.39,-363.536 313.467,-358.266 316.438,-351.696 321.361,-356.965 318.39,-363.536"/>
<text text-anchor="middle" x="339" y="-373.5" font-family="Helvetica,sans-Serif" font-size="10.00"> #labels</text>
</g>
<!-- Node14 -->
<g id="node14" class="node"><title>Node14</title>
<g id="a_node14"><a xlink:title="STL class. ">
<polygon fill="white" stroke="#bfbfbf" points="385,-564.5 385,-621.5 445,-621.5 445,-564.5 385,-564.5"/>
<text text-anchor="middle" x="415" y="-609.5" font-family="Helvetica,sans-Serif" font-size="10.00">std::string</text>
<polyline fill="none" stroke="#bfbfbf" points="385,-602.5 445,-602.5 "/>
<text text-anchor="middle" x="415" y="-590.5" font-family="Helvetica,sans-Serif" font-size="10.00"> </text>
<polyline fill="none" stroke="#bfbfbf" points="385,-583.5 445,-583.5 "/>
<text text-anchor="middle" x="415" y="-571.5" font-family="Helvetica,sans-Serif" font-size="10.00"> </text>
</a>
</g>
</g>
<!-- Node14&#45;&gt;Node13 -->
<g id="edge14" class="edge"><title>Node14&#45;&gt;Node13</title>
<path fill="none" stroke="#404040" d="M414.075,-564.113C412.223,-542.051 407.055,-511.204 393,-488 389.556,-482.314 385.261,-476.967 380.542,-472.025"/>
<polygon fill="none" stroke="#404040" points="380.369,-471.861 373.266,-470.617 371.682,-463.582 378.785,-464.826 380.369,-471.861"/>
<text text-anchor="middle" x="436.5" y="-514.5" font-family="Helvetica,sans-Serif" font-size="10.00"> +elements</text>
</g>
<!-- Node15 -->
<g id="node15" class="node"><title>Node15</title>
<g id="a_node15"><a xlink:title="STL class. ">
<polygon fill="white" stroke="#bfbfbf" points="367.5,-671 367.5,-739 462.5,-739 462.5,-671 367.5,-671"/>
<text text-anchor="start" x="375.5" y="-727" font-family="Helvetica,sans-Serif" font-size="10.00">std::basic_string&lt;</text>
<text text-anchor="middle" x="415" y="-716" font-family="Helvetica,sans-Serif" font-size="10.00"> char &gt;</text>
<polyline fill="none" stroke="#bfbfbf" points="367.5,-709 462.5,-709 "/>
<text text-anchor="middle" x="415" y="-697" font-family="Helvetica,sans-Serif" font-size="10.00"> </text>
<polyline fill="none" stroke="#bfbfbf" points="367.5,-690 462.5,-690 "/>
<text text-anchor="middle" x="415" y="-678" font-family="Helvetica,sans-Serif" font-size="10.00"> </text>
</a>
</g>
</g>
<!-- Node15&#45;&gt;Node14 -->
<g id="edge15" class="edge"><title>Node15&#45;&gt;Node14</title>
<path fill="none" stroke="midnightblue" d="M415,-660.743C415,-647.634 415,-633.591 415,-621.784"/>
<polygon fill="none" stroke="midnightblue" points="411.5,-660.996 415,-670.996 418.5,-660.996 411.5,-660.996"/>
</g>
<!-- Node16&#45;&gt;Node13 -->
<g id="edge16" class="edge"><title>Node16&#45;&gt;Node13</title>
<path fill="none" stroke="orange" d="M323.936,-554.251C325.372,-526.251 327.296,-488.72 328.589,-463.517"/>
<polygon fill="orange" stroke="orange" points="320.429,-554.303 323.412,-564.469 327.419,-554.662 320.429,-554.303"/>
<text text-anchor="middle" x="360.5" y="-514.5" font-family="Helvetica,sans-Serif" font-size="10.00"> &lt; std::string &gt;</text>
</g>
</g>
</svg>
