<?xml version="1.0" encoding="UTF-8" standalone="no"?>
<!DOCTYPE svg PUBLIC "-//W3C//DTD SVG 1.1//EN"
 "http://www.w3.org/Graphics/SVG/1.1/DTD/svg11.dtd">
<!-- Generated by graphviz version 2.36.0 (20140111.2315)
 -->
<!-- Title: GeoGridWriter.h Pages: 1 -->
<svg width="585pt" height="140pt"
 viewBox="0.00 0.00 585.00 140.00" xmlns="http://www.w3.org/2000/svg" xmlns:xlink="http://www.w3.org/1999/xlink">
<g id="graph0" class="graph" transform="scale(1 1) rotate(0) translate(4 136)">
<title>GeoGridWriter.h</title>
<polygon fill="white" stroke="none" points="-4,4 -4,-136 581,-136 581,4 -4,4"/>
<!-- Node1 -->
<g id="node1" class="node"><title>Node1</title>
<polygon fill="#bfbfbf" stroke="black" points="292.5,-112.5 292.5,-131.5 379.5,-131.5 379.5,-112.5 292.5,-112.5"/>
<text text-anchor="middle" x="336" y="-119.5" font-family="Helvetica,sans-Serif" font-size="10.00">GeoGridWriter.h</text>
</g>
<!-- Node2 -->
<g id="node2" class="node"><title>Node2</title>
<g id="a_node2"><a xlink:href="../../d2/d82/a00279.html" target="_top" xlink:title="GeoGridJSONWriter.h">
<polygon fill="white" stroke="black" points="149,-56.5 149,-75.5 263,-75.5 263,-56.5 149,-56.5"/>
<text text-anchor="middle" x="206" y="-63.5" font-family="Helvetica,sans-Serif" font-size="10.00">GeoGridJSONWriter.h</text>
</a>
</g>
</g>
<!-- Node1&#45;&gt;Node2 -->
<g id="edge1" class="edge"><title>Node1&#45;&gt;Node2</title>
<path fill="none" stroke="midnightblue" d="M305.915,-108.503C281.543,-98.3795 247.86,-84.388 226.503,-75.5164"/>
<polygon fill="midnightblue" stroke="midnightblue" points="304.823,-111.84 315.401,-112.444 307.509,-105.375 304.823,-111.84"/>
</g>
<!-- Node5 -->
<g id="node5" class="node"><title>Node5</title>
<g id="a_node5"><a xlink:href="../../d3/d58/a00285.html" target="_top" xlink:title="GeoGridProtoWriter.h">
<polygon fill="white" stroke="black" points="281,-56.5 281,-75.5 391,-75.5 391,-56.5 281,-56.5"/>
<text text-anchor="middle" x="336" y="-63.5" font-family="Helvetica,sans-Serif" font-size="10.00">GeoGridProtoWriter.h</text>
</a>
</g>
</g>
<!-- Node1&#45;&gt;Node5 -->
<g id="edge4" class="edge"><title>Node1&#45;&gt;Node5</title>
<path fill="none" stroke="midnightblue" d="M336,-101.805C336,-92.9102 336,-82.7798 336,-75.7511"/>
<polygon fill="midnightblue" stroke="midnightblue" points="332.5,-102.083 336,-112.083 339.5,-102.083 332.5,-102.083"/>
</g>
<!-- Node8 -->
<g id="node8" class="node"><title>Node8</title>
<g id="a_node8"><a xlink:href="../../d8/d0a/a00292.html" target="_top" xlink:title="GeoGridWriterFactory.h">
<polygon fill="white" stroke="black" points="409,-56.5 409,-75.5 529,-75.5 529,-56.5 409,-56.5"/>
<text text-anchor="middle" x="469" y="-63.5" font-family="Helvetica,sans-Serif" font-size="10.00">GeoGridWriterFactory.h</text>
</a>
</g>
</g>
<!-- Node1&#45;&gt;Node8 -->
<g id="edge8" class="edge"><title>Node1&#45;&gt;Node8</title>
<path fill="none" stroke="midnightblue" d="M366.448,-108.638C391.407,-98.504 426.077,-84.4274 448.024,-75.5164"/>
<polygon fill="midnightblue" stroke="midnightblue" points="365.023,-105.439 357.074,-112.444 367.656,-111.924 365.023,-105.439"/>
</g>
<!-- Node3 -->
<g id="node3" class="node"><title>Node3</title>
<g id="a_node3"><a xlink:href="../../dc/d5d/a00278.html" target="_top" xlink:title="GeoGridJSONWriter.cpp">
<polygon fill="white" stroke="black" points="-0.5,-0.5 -0.5,-19.5 124.5,-19.5 124.5,-0.5 -0.5,-0.5"/>
<text text-anchor="middle" x="62" y="-7.5" font-family="Helvetica,sans-Serif" font-size="10.00">GeoGridJSONWriter.cpp</text>
</a>
</g>
</g>
<!-- Node2&#45;&gt;Node3 -->
<g id="edge2" class="edge"><title>Node2&#45;&gt;Node3</title>
<path fill="none" stroke="midnightblue" d="M173.749,-52.9058C146.676,-42.7536 108.683,-28.5063 84.7105,-19.5164"/>
<polygon fill="midnightblue" stroke="midnightblue" points="172.591,-56.2094 183.183,-56.4435 175.048,-49.6551 172.591,-56.2094"/>
</g>
<!-- Node4 -->
<g id="node4" class="node"><title>Node4</title>
<g id="a_node4"><a xlink:href="../../da/dd4/a00291.html" target="_top" xlink:title="GeoGridWriterFactory.cpp">
<polygon fill="white" stroke="black" points="281.5,-0.5 281.5,-19.5 412.5,-19.5 412.5,-0.5 281.5,-0.5"/>
<text text-anchor="middle" x="347" y="-7.5" font-family="Helvetica,sans-Serif" font-size="10.00">GeoGridWriterFactory.cpp</text>
</a>
</g>
</g>
<!-- Node2&#45;&gt;Node4 -->
<g id="edge3" class="edge"><title>Node2&#45;&gt;Node4</title>
<path fill="none" stroke="midnightblue" d="M237.929,-52.772C264.414,-42.6287 301.392,-28.4669 324.763,-19.5164"/>
<polygon fill="midnightblue" stroke="midnightblue" points="236.429,-49.5985 228.342,-56.4435 238.932,-56.1355 236.429,-49.5985"/>
</g>
<!-- Node5&#45;&gt;Node4 -->
<g id="edge6" class="edge"><title>Node5&#45;&gt;Node4</title>
<path fill="none" stroke="midnightblue" d="M339.85,-46.1005C341.676,-37.1357 343.77,-26.8579 345.217,-19.7511"/>
<polygon fill="midnightblue" stroke="midnightblue" points="336.383,-45.5856 337.816,-56.083 343.242,-46.9829 336.383,-45.5856"/>
</g>
<!-- Node6 -->
<g id="node6" class="node"><title>Node6</title>
<g id="a_node6"><a xlink:href="../../db/dc3/a00284.html" target="_top" xlink:title="GeoGridProtoWriter.cpp">
<polygon fill="white" stroke="black" points="142.5,-0.5 142.5,-19.5 263.5,-19.5 263.5,-0.5 142.5,-0.5"/>
<text text-anchor="middle" x="203" y="-7.5" font-family="Helvetica,sans-Serif" font-size="10.00">GeoGridProtoWriter.cpp</text>
</a>
</g>
</g>
<!-- Node5&#45;&gt;Node6 -->
<g id="edge5" class="edge"><title>Node5&#45;&gt;Node6</title>
<path fill="none" stroke="midnightblue" d="M305.552,-52.6377C280.593,-42.504 245.923,-28.4274 223.976,-19.5164"/>
<polygon fill="midnightblue" stroke="midnightblue" points="304.344,-55.9245 314.926,-56.4435 306.977,-49.4387 304.344,-55.9245"/>
</g>
<!-- Node7 -->
<g id="node7" class="node"><title>Node7</title>
<g id="a_node7"><a xlink:href="../../df/d03/a00348.html" target="_top" xlink:title="main.cpp">
<polygon fill="white" stroke="black" points="431,-0.5 431,-19.5 487,-19.5 487,-0.5 431,-0.5"/>
<text text-anchor="middle" x="459" y="-7.5" font-family="Helvetica,sans-Serif" font-size="10.00">main.cpp</text>
</a>
</g>
</g>
<!-- Node5&#45;&gt;Node7 -->
<g id="edge7" class="edge"><title>Node5&#45;&gt;Node7</title>
<path fill="none" stroke="midnightblue" d="M364.773,-52.3678C387.807,-42.2553 419.484,-28.3486 439.601,-19.5164"/>
<polygon fill="midnightblue" stroke="midnightblue" points="363.239,-49.2188 355.49,-56.4435 366.053,-55.6283 363.239,-49.2188"/>
</g>
<!-- Node8&#45;&gt;Node4 -->
<g id="edge9" class="edge"><title>Node8&#45;&gt;Node4</title>
<path fill="none" stroke="midnightblue" d="M440.461,-52.3678C417.614,-42.2553 386.195,-28.3486 366.241,-19.5164"/>
<polygon fill="midnightblue" stroke="midnightblue" points="439.108,-55.5965 449.669,-56.4435 441.941,-49.1955 439.108,-55.5965"/>
</g>
<!-- Node8&#45;&gt;Node7 -->
<g id="edge10" class="edge"><title>Node8&#45;&gt;Node7</title>
<path fill="none" stroke="midnightblue" d="M465.5,-46.1005C463.84,-37.1357 461.937,-26.8579 460.621,-19.7511"/>
<polygon fill="midnightblue" stroke="midnightblue" points="462.086,-46.8875 467.349,-56.083 468.969,-45.6128 462.086,-46.8875"/>
</g>
<!-- Node9 -->
<g id="node9" class="node"><title>Node9</title>
<g id="a_node9"><a xlink:href="../../d2/d94/a00184.html" target="_top" xlink:title="backend.cpp">
<polygon fill="white" stroke="black" points="505,-0.5 505,-19.5 577,-19.5 577,-0.5 505,-0.5"/>
<text text-anchor="middle" x="541" y="-7.5" font-family="Helvetica,sans-Serif" font-size="10.00">backend.cpp</text>
</a>
</g>
</g>
<!-- Node8&#45;&gt;Node9 -->
<g id="edge11" class="edge"><title>Node8&#45;&gt;Node9</title>
<path fill="none" stroke="midnightblue" d="M488.866,-50.1008C501.823,-40.3824 518.297,-28.0269 529.221,-19.8339"/>
<polygon fill="midnightblue" stroke="midnightblue" points="486.468,-47.5239 480.568,-56.324 490.668,-53.1239 486.468,-47.5239"/>
</g>
</g>
</svg>
