<?xml version="1.0" encoding="UTF-8" standalone="no"?>
<!DOCTYPE svg PUBLIC "-//W3C//DTD SVG 1.1//EN"
 "http://www.w3.org/Graphics/SVG/1.1/DTD/svg11.dtd">
<!-- Generated by graphviz version 2.36.0 (20140111.2315)
 -->
<!-- Title: ContactPoolType.h Pages: 1 -->
<svg width="316pt" height="84pt"
 viewBox="0.00 0.00 316.00 84.00" xmlns="http://www.w3.org/2000/svg" xmlns:xlink="http://www.w3.org/1999/xlink">
<g id="graph0" class="graph" transform="scale(1 1) rotate(0) translate(4 80)">
<title>ContactPoolType.h</title>
<polygon fill="white" stroke="none" points="-4,4 -4,-80 312,-80 312,4 -4,4"/>
<!-- Node1 -->
<g id="node1" class="node"><title>Node1</title>
<polygon fill="#bfbfbf" stroke="black" points="102.5,-56.5 102.5,-75.5 203.5,-75.5 203.5,-56.5 102.5,-56.5"/>
<text text-anchor="middle" x="153" y="-63.5" font-family="Helvetica,sans-Serif" font-size="10.00">ContactPoolType.h</text>
</g>
<!-- Node2 -->
<g id="node2" class="node"><title>Node2</title>
<polygon fill="white" stroke="#bfbfbf" points="-0.5,-0.5 -0.5,-19.5 48.5,-19.5 48.5,-0.5 -0.5,-0.5"/>
<text text-anchor="middle" x="24" y="-7.5" font-family="Helvetica,sans-Serif" font-size="10.00">cstddef</text>
</g>
<!-- Node1&#45;&gt;Node2 -->
<g id="edge1" class="edge"><title>Node1&#45;&gt;Node2</title>
<path fill="none" stroke="midnightblue" d="M132.56,-56.4435C111.33,-47.5566 77.901,-33.5632 53.745,-23.4514"/>
<polygon fill="midnightblue" stroke="midnightblue" points="54.9207,-20.1493 44.3448,-19.5164 52.2177,-26.6064 54.9207,-20.1493"/>
</g>
<!-- Node3 -->
<g id="node3" class="node"><title>Node3</title>
<polygon fill="white" stroke="#bfbfbf" points="66.5,-0.5 66.5,-19.5 107.5,-19.5 107.5,-0.5 66.5,-0.5"/>
<text text-anchor="middle" x="87" y="-7.5" font-family="Helvetica,sans-Serif" font-size="10.00">string</text>
</g>
<!-- Node1&#45;&gt;Node3 -->
<g id="edge2" class="edge"><title>Node1&#45;&gt;Node3</title>
<path fill="none" stroke="midnightblue" d="M142.396,-56.324C132.544,-48.2631 117.649,-36.0765 105.785,-26.3695"/>
<polygon fill="midnightblue" stroke="midnightblue" points="107.753,-23.4575 97.797,-19.8339 103.32,-28.8752 107.753,-23.4575"/>
</g>
<!-- Node4 -->
<g id="node4" class="node"><title>Node4</title>
<polygon fill="white" stroke="#bfbfbf" points="126,-0.5 126,-19.5 180,-19.5 180,-0.5 126,-0.5"/>
<text text-anchor="middle" x="153" y="-7.5" font-family="Helvetica,sans-Serif" font-size="10.00">iostream</text>
</g>
<!-- Node1&#45;&gt;Node4 -->
<g id="edge3" class="edge"><title>Node1&#45;&gt;Node4</title>
<path fill="none" stroke="midnightblue" d="M153,-56.083C153,-49.0059 153,-38.8611 153,-29.9865"/>
<polygon fill="midnightblue" stroke="midnightblue" points="156.5,-29.751 153,-19.7511 149.5,-29.7511 156.5,-29.751"/>
</g>
<!-- Node5 -->
<g id="node5" class="node"><title>Node5</title>
<polygon fill="white" stroke="#bfbfbf" points="198.5,-0.5 198.5,-19.5 245.5,-19.5 245.5,-0.5 198.5,-0.5"/>
<text text-anchor="middle" x="222" y="-7.5" font-family="Helvetica,sans-Serif" font-size="10.00">iterator</text>
</g>
<!-- Node1&#45;&gt;Node5 -->
<g id="edge4" class="edge"><title>Node1&#45;&gt;Node5</title>
<path fill="none" stroke="midnightblue" d="M164.086,-56.324C174.486,-48.1849 190.261,-35.8395 202.722,-26.0874"/>
<polygon fill="midnightblue" stroke="midnightblue" points="204.994,-28.7533 210.712,-19.8339 200.68,-23.2407 204.994,-28.7533"/>
</g>
<!-- Node6 -->
<g id="node6" class="node"><title>Node6</title>
<polygon fill="white" stroke="#bfbfbf" points="264,-0.5 264,-19.5 308,-19.5 308,-0.5 264,-0.5"/>
<text text-anchor="middle" x="286" y="-7.5" font-family="Helvetica,sans-Serif" font-size="10.00">vector</text>
</g>
<!-- Node1&#45;&gt;Node6 -->
<g id="edge5" class="edge"><title>Node1&#45;&gt;Node6</title>
<path fill="none" stroke="midnightblue" d="M174.074,-56.4435C196.06,-47.5171 230.734,-33.4387 255.664,-23.3168"/>
<polygon fill="midnightblue" stroke="midnightblue" points="257.076,-26.5213 265.024,-19.5164 254.442,-20.0355 257.076,-26.5213"/>
</g>
</g>
</svg>
