<?xml version="1.0" encoding="UTF-8" standalone="no"?>
<!DOCTYPE svg PUBLIC "-//W3C//DTD SVG 1.1//EN"
 "http://www.w3.org/Graphics/SVG/1.1/DTD/svg11.dtd">
<!-- Generated by graphviz version 2.36.0 (20140111.2315)
 -->
<!-- Title: stride::Calendar Pages: 1 -->
<svg width="260pt" height="526pt"
 viewBox="0.00 0.00 260.00 526.00" xmlns="http://www.w3.org/2000/svg" xmlns:xlink="http://www.w3.org/1999/xlink">
<g id="graph0" class="graph" transform="scale(1 1) rotate(0) translate(4 522)">
<title>stride::Calendar</title>
<polygon fill="white" stroke="none" points="-4,4 -4,-522 256,-522 256,4 -4,4"/>
<!-- Node1 -->
<g id="node1" class="node"><title>Node1</title>
<polygon fill="#bfbfbf" stroke="black" points="6,-0.5 6,-167.5 124,-167.5 124,-0.5 6,-0.5"/>
<text text-anchor="middle" x="65" y="-155.5" font-family="Helvetica,sans-Serif" font-size="10.00">stride::Calendar</text>
<polyline fill="none" stroke="black" points="6,-148.5 124,-148.5 "/>
<text text-anchor="middle" x="65" y="-136.5" font-family="Helvetica,sans-Serif" font-size="10.00"> </text>
<polyline fill="none" stroke="black" points="6,-129.5 124,-129.5 "/>
<text text-anchor="start" x="14" y="-117.5" font-family="Helvetica,sans-Serif" font-size="10.00">+ Calendar()</text>
<text text-anchor="start" x="14" y="-106.5" font-family="Helvetica,sans-Serif" font-size="10.00">+ AdvanceDay()</text>
<text text-anchor="start" x="14" y="-95.5" font-family="Helvetica,sans-Serif" font-size="10.00">+ GetDay()</text>
<text text-anchor="start" x="14" y="-84.5" font-family="Helvetica,sans-Serif" font-size="10.00">+ GetDayOfTheWeek()</text>
<text text-anchor="start" x="14" y="-73.5" font-family="Helvetica,sans-Serif" font-size="10.00">+ GetMonth()</text>
<text text-anchor="start" x="14" y="-62.5" font-family="Helvetica,sans-Serif" font-size="10.00">+ GetSimulationDay()</text>
<text text-anchor="start" x="14" y="-51.5" font-family="Helvetica,sans-Serif" font-size="10.00">+ GetYear()</text>
<text text-anchor="start" x="14" y="-40.5" font-family="Helvetica,sans-Serif" font-size="10.00">+ IsHoliday()</text>
<text text-anchor="start" x="14" y="-29.5" font-family="Helvetica,sans-Serif" font-size="10.00">+ IsSchoolHoliday()</text>
<text text-anchor="start" x="14" y="-18.5" font-family="Helvetica,sans-Serif" font-size="10.00">+ IsWeekend()</text>
<text text-anchor="start" x="14" y="-7.5" font-family="Helvetica,sans-Serif" font-size="10.00">&#45; InitializeHolidays()</text>
</g>
<!-- Node2 -->
<g id="node2" class="node"><title>Node2</title>
<polygon fill="white" stroke="#bfbfbf" points="-0.5,-232.5 -0.5,-289.5 28.5,-289.5 28.5,-232.5 -0.5,-232.5"/>
<text text-anchor="middle" x="14" y="-277.5" font-family="Helvetica,sans-Serif" font-size="10.00">int</text>
<polyline fill="none" stroke="#bfbfbf" points="-0.5,-270.5 28.5,-270.5 "/>
<text text-anchor="middle" x="14" y="-258.5" font-family="Helvetica,sans-Serif" font-size="10.00"> </text>
<polyline fill="none" stroke="#bfbfbf" points="-0.5,-251.5 28.5,-251.5 "/>
<text text-anchor="middle" x="14" y="-239.5" font-family="Helvetica,sans-Serif" font-size="10.00"> </text>
</g>
<!-- Node2&#45;&gt;Node1 -->
<g id="edge1" class="edge"><title>Node2&#45;&gt;Node1</title>
<path fill="none" stroke="#404040" d="M11.487,-232.226C10.9405,-218.185 11.3861,-200.989 15,-186 15.5503,-183.718 16.1589,-181.427 16.8191,-179.134"/>
<polygon fill="none" stroke="#404040" points="16.8305,-179.099 14.8685,-172.16 20.5192,-167.68 22.4812,-174.619 16.8305,-179.099"/>
<text text-anchor="middle" x="33" y="-194.5" font-family="Helvetica,sans-Serif" font-size="10.00"> &#45;m_day</text>
</g>
<!-- Node3 -->
<g id="node3" class="node"><title>Node3</title>
<polygon fill="white" stroke="#bfbfbf" points="60.5,-354.5 60.5,-411.5 95.5,-411.5 95.5,-354.5 60.5,-354.5"/>
<text text-anchor="middle" x="78" y="-399.5" font-family="Helvetica,sans-Serif" font-size="10.00">date</text>
<polyline fill="none" stroke="#bfbfbf" points="60.5,-392.5 95.5,-392.5 "/>
<text text-anchor="middle" x="78" y="-380.5" font-family="Helvetica,sans-Serif" font-size="10.00"> </text>
<polyline fill="none" stroke="#bfbfbf" points="60.5,-373.5 95.5,-373.5 "/>
<text text-anchor="middle" x="78" y="-361.5" font-family="Helvetica,sans-Serif" font-size="10.00"> </text>
</g>
<!-- Node3&#45;&gt;Node1 -->
<g id="edge2" class="edge"><title>Node3&#45;&gt;Node1</title>
<path fill="none" stroke="#404040" d="M76.6758,-354.115C75.8834,-337.285 74.8654,-315.411 74,-296 72.3054,-257.99 70.5059,-216.126 68.9649,-179.777"/>
<polygon fill="none" stroke="#404040" points="68.9602,-179.665 64.71,-173.839 68.4527,-167.675 72.7029,-173.501 68.9602,-179.665"/>
<text text-anchor="middle" x="93.5" y="-258.5" font-family="Helvetica,sans-Serif" font-size="10.00"> &#45;m_date</text>
</g>
<!-- Node4 -->
<g id="node4" class="node"><title>Node4</title>
<polygon fill="white" stroke="#bfbfbf" points="122,-227 122,-295 218,-295 218,-227 122,-227"/>
<text text-anchor="start" x="130" y="-283" font-family="Helvetica,sans-Serif" font-size="10.00">std::vector&lt; boost</text>
<text text-anchor="middle" x="170" y="-272" font-family="Helvetica,sans-Serif" font-size="10.00">::gregorian::date &gt;</text>
<polyline fill="none" stroke="#bfbfbf" points="122,-265 218,-265 "/>
<text text-anchor="middle" x="170" y="-253" font-family="Helvetica,sans-Serif" font-size="10.00"> </text>
<polyline fill="none" stroke="#bfbfbf" points="122,-246 218,-246 "/>
<text text-anchor="middle" x="170" y="-234" font-family="Helvetica,sans-Serif" font-size="10.00"> </text>
</g>
<!-- Node3&#45;&gt;Node4 -->
<g id="edge4" class="edge"><title>Node3&#45;&gt;Node4</title>
<path fill="none" stroke="#404040" d="M91.5742,-354.441C98.4355,-341.626 107.348,-326.493 117,-314 119.56,-310.686 122.324,-307.376 125.199,-304.123"/>
<polygon fill="none" stroke="#404040" points="125.361,-303.948 126.504,-296.828 133.516,-295.145 132.373,-302.264 125.361,-303.948"/>
<text text-anchor="middle" x="141.5" y="-322.5" font-family="Helvetica,sans-Serif" font-size="10.00"> +elements</text>
</g>
<!-- Node4&#45;&gt;Node1 -->
<g id="edge3" class="edge"><title>Node4&#45;&gt;Node1</title>
<path fill="none" stroke="#404040" d="M150.003,-226.672C141.547,-212.579 131.237,-195.395 120.753,-177.922"/>
<polygon fill="none" stroke="#404040" points="120.747,-177.912 114.23,-174.825 114.573,-167.622 121.09,-170.709 120.747,-177.912"/>
<text text-anchor="middle" x="181" y="-200" font-family="Helvetica,sans-Serif" font-size="10.00"> &#45;m_school_holidays</text>
<text text-anchor="middle" x="181" y="-189" font-family="Helvetica,sans-Serif" font-size="10.00">&#45;m_holidays</text>
</g>
<!-- Node5 -->
<g id="node5" class="node"><title>Node5</title>
<g id="a_node5"><a xlink:title="STL class. ">
<polygon fill="white" stroke="#bfbfbf" points="126.5,-354.5 126.5,-411.5 213.5,-411.5 213.5,-354.5 126.5,-354.5"/>
<text text-anchor="middle" x="170" y="-399.5" font-family="Helvetica,sans-Serif" font-size="10.00">std::vector&lt; T &gt;</text>
<polyline fill="none" stroke="#bfbfbf" points="126.5,-392.5 213.5,-392.5 "/>
<text text-anchor="middle" x="170" y="-380.5" font-family="Helvetica,sans-Serif" font-size="10.00"> </text>
<polyline fill="none" stroke="#bfbfbf" points="126.5,-373.5 213.5,-373.5 "/>
<text text-anchor="middle" x="170" y="-361.5" font-family="Helvetica,sans-Serif" font-size="10.00"> </text>
</a>
</g>
</g>
<!-- Node5&#45;&gt;Node4 -->
<g id="edge5" class="edge"><title>Node5&#45;&gt;Node4</title>
<path fill="none" stroke="orange" d="M170,-344.086C170,-328.459 170,-310.509 170,-295.388"/>
<polygon fill="orange" stroke="orange" points="166.5,-344.47 170,-354.47 173.5,-344.47 166.5,-344.47"/>
<text text-anchor="start" x="170" y="-328" font-family="Helvetica,sans-Serif" font-size="10.00"> &lt; boost::gregorian</text>
<text text-anchor="middle" x="211" y="-317" font-family="Helvetica,sans-Serif" font-size="10.00">::date &gt;</text>
</g>
<!-- Node6 -->
<g id="node6" class="node"><title>Node6</title>
<polygon fill="white" stroke="#bfbfbf" points="155.5,-460.5 155.5,-517.5 184.5,-517.5 184.5,-460.5 155.5,-460.5"/>
<text text-anchor="middle" x="170" y="-505.5" font-family="Helvetica,sans-Serif" font-size="10.00">T</text>
<polyline fill="none" stroke="#bfbfbf" points="155.5,-498.5 184.5,-498.5 "/>
<text text-anchor="middle" x="170" y="-486.5" font-family="Helvetica,sans-Serif" font-size="10.00"> </text>
<polyline fill="none" stroke="#bfbfbf" points="155.5,-479.5 184.5,-479.5 "/>
<text text-anchor="middle" x="170" y="-467.5" font-family="Helvetica,sans-Serif" font-size="10.00"> </text>
</g>
<!-- Node6&#45;&gt;Node5 -->
<g id="edge6" class="edge"><title>Node6&#45;&gt;Node5</title>
<path fill="none" stroke="#404040" d="M170,-460.403C170,-449.237 170,-436.13 170,-423.956"/>
<polygon fill="none" stroke="#404040" points="170,-423.726 166,-417.726 170,-411.726 174,-417.726 170,-423.726"/>
<text text-anchor="middle" x="194.5" y="-433.5" font-family="Helvetica,sans-Serif" font-size="10.00"> +elements</text>
</g>
</g>
</svg>
