<?xml version="1.0" encoding="UTF-8" standalone="no"?>
<!DOCTYPE svg PUBLIC "-//W3C//DTD SVG 1.1//EN"
 "http://www.w3.org/Graphics/SVG/1.1/DTD/svg11.dtd">
<!-- Generated by graphviz version 2.36.0 (20140111.2315)
 -->
<!-- Title: stride::HealthSeeder::Sample Pages: 1 -->
<svg width="386pt" height="38pt"
 viewBox="0.00 0.00 386.00 38.00" xmlns="http://www.w3.org/2000/svg" xmlns:xlink="http://www.w3.org/1999/xlink">
<g id="graph0" class="graph" transform="scale(1 1) rotate(0) translate(4 34)">
<title>stride::HealthSeeder::Sample</title>
<polygon fill="white" stroke="none" points="-4,4 -4,-34 382,-34 382,4 -4,4"/>
<!-- Node1 -->
<g id="node1" class="node"><title>Node1</title>
<polygon fill="#bfbfbf" stroke="black" points="0,-0 0,-30 106,-30 106,-0 0,-0"/>
<text text-anchor="start" x="8" y="-18" font-family="Helvetica,sans-Serif" font-size="10.00">stride::HealthSeeder</text>
<text text-anchor="middle" x="53" y="-7" font-family="Helvetica,sans-Serif" font-size="10.00">::Sample</text>
</g>
<!-- Node2 -->
<g id="node2" class="node"><title>Node2</title>
<g id="a_node2"><a xlink:href="../../d8/d17/a00114.html#ad6a9061857cee5335745fe5501bcb73d" target="_top" xlink:title="Seeds the population with Health data. ">
<polygon fill="white" stroke="black" points="142,-0 142,-30 248,-30 248,-0 142,-0"/>
<text text-anchor="start" x="150" y="-18" font-family="Helvetica,sans-Serif" font-size="10.00">stride::HealthSeeder</text>
<text text-anchor="middle" x="195" y="-7" font-family="Helvetica,sans-Serif" font-size="10.00">::Seed</text>
</a>
</g>
</g>
<!-- Node1&#45;&gt;Node2 -->
<g id="edge1" class="edge"><title>Node1&#45;&gt;Node2</title>
<path fill="none" stroke="midnightblue" d="M116.387,-15C124.885,-15 133.534,-15 141.826,-15"/>
<polygon fill="midnightblue" stroke="midnightblue" points="116.131,-11.5001 106.131,-15 116.131,-18.5001 116.131,-11.5001"/>
</g>
<!-- Node3 -->
<g id="node3" class="node"><title>Node3</title>
<g id="a_node3"><a xlink:href="../../d5/db1/a00140.html#a94ce5fb3cae915f0bdb261498f31c444" target="_top" xlink:title="Build the simulator and return it afterwards. ">
<polygon fill="white" stroke="black" points="284,-0 284,-30 378,-30 378,-0 284,-0"/>
<text text-anchor="start" x="292" y="-18" font-family="Helvetica,sans-Serif" font-size="10.00">stride::SimBuilder</text>
<text text-anchor="middle" x="331" y="-7" font-family="Helvetica,sans-Serif" font-size="10.00">::Build</text>
</a>
</g>
</g>
<!-- Node2&#45;&gt;Node3 -->
<g id="edge2" class="edge"><title>Node2&#45;&gt;Node3</title>
<path fill="none" stroke="midnightblue" d="M258.23,-15C266.852,-15 275.579,-15 283.838,-15"/>
<polygon fill="midnightblue" stroke="midnightblue" points="258.192,-11.5001 248.192,-15 258.192,-18.5001 258.192,-11.5001"/>
</g>
</g>
</svg>
