<?xml version="1.0" encoding="UTF-8" standalone="no"?>
<!DOCTYPE svg PUBLIC "-//W3C//DTD SVG 1.1//EN"
 "http://www.w3.org/Graphics/SVG/1.1/DTD/svg11.dtd">
<!-- Generated by graphviz version 2.36.0 (20140111.2315)
 -->
<!-- Title: stride::Health::Update Pages: 1 -->
<svg width="298pt" height="126pt"
 viewBox="0.00 0.00 298.00 126.00" xmlns="http://www.w3.org/2000/svg" xmlns:xlink="http://www.w3.org/1999/xlink">
<g id="graph0" class="graph" transform="scale(1 1) rotate(0) translate(4 122)">
<title>stride::Health::Update</title>
<polygon fill="white" stroke="none" points="-4,4 -4,-122 294,-122 294,4 -4,4"/>
<!-- Node1 -->
<g id="node1" class="node"><title>Node1</title>
<polygon fill="#bfbfbf" stroke="black" points="0.5,-44.5 0.5,-63.5 113.5,-63.5 113.5,-44.5 0.5,-44.5"/>
<text text-anchor="middle" x="57" y="-51.5" font-family="Helvetica,sans-Serif" font-size="10.00">stride::Health::Update</text>
</g>
<!-- Node2 -->
<g id="node2" class="node"><title>Node2</title>
<g id="a_node2"><a xlink:href="../../d8/d17/a00114.html#a0c07c78dcaca9cade5b5a762faa36dd6" target="_top" xlink:title="Get the disease counter. ">
<polygon fill="white" stroke="black" points="153.5,-88 153.5,-118 286.5,-118 286.5,-88 153.5,-88"/>
<text text-anchor="start" x="161.5" y="-106" font-family="Helvetica,sans-Serif" font-size="10.00">stride::Health::GetDisease</text>
<text text-anchor="middle" x="220" y="-95" font-family="Helvetica,sans-Serif" font-size="10.00">Counter</text>
</a>
</g>
</g>
<!-- Node1&#45;&gt;Node2 -->
<g id="edge1" class="edge"><title>Node1&#45;&gt;Node2</title>
<path fill="none" stroke="midnightblue" d="M89.4246,-63.564C109.452,-69.6592 136.032,-77.7488 159.904,-85.0143"/>
<polygon fill="midnightblue" stroke="midnightblue" points="159.007,-88.3997 169.593,-87.963 161.045,-81.703 159.007,-88.3997"/>
</g>
<!-- Node3 -->
<g id="node3" class="node"><title>Node3</title>
<g id="a_node3"><a xlink:href="../../d8/d17/a00114.html#af86e0e738953615c5d63613d2054d9e8" target="_top" xlink:title="Increment disease counter. ">
<polygon fill="white" stroke="black" points="157.5,-39 157.5,-69 282.5,-69 282.5,-39 157.5,-39"/>
<text text-anchor="start" x="165.5" y="-57" font-family="Helvetica,sans-Serif" font-size="10.00">stride::Health::Increment</text>
<text text-anchor="middle" x="220" y="-46" font-family="Helvetica,sans-Serif" font-size="10.00">DiseaseCounter</text>
</a>
</g>
</g>
<!-- Node1&#45;&gt;Node3 -->
<g id="edge2" class="edge"><title>Node1&#45;&gt;Node3</title>
<path fill="none" stroke="midnightblue" d="M113.858,-54C124.636,-54 136.066,-54 147.267,-54"/>
<polygon fill="midnightblue" stroke="midnightblue" points="147.464,-57.5001 157.464,-54 147.464,-50.5001 147.464,-57.5001"/>
</g>
<!-- Node4 -->
<g id="node4" class="node"><title>Node4</title>
<g id="a_node4"><a xlink:href="../../d8/d17/a00114.html#af6a2ca202696ba2f39744a5381918922" target="_top" xlink:title="Stop the infection. ">
<polygon fill="white" stroke="black" points="150.5,-0.5 150.5,-19.5 289.5,-19.5 289.5,-0.5 150.5,-0.5"/>
<text text-anchor="middle" x="220" y="-7.5" font-family="Helvetica,sans-Serif" font-size="10.00">stride::Health::StopInfection</text>
</a>
</g>
</g>
<!-- Node1&#45;&gt;Node4 -->
<g id="edge3" class="edge"><title>Node1&#45;&gt;Node4</title>
<path fill="none" stroke="midnightblue" d="M92.9346,-44.4527C116.775,-37.9373 148.566,-29.2492 174.258,-22.2278"/>
<polygon fill="midnightblue" stroke="midnightblue" points="175.41,-25.5412 184.134,-19.5287 173.565,-18.7888 175.41,-25.5412"/>
</g>
</g>
</svg>
