<?xml version="1.0" encoding="UTF-8" standalone="no"?>
<!DOCTYPE svg PUBLIC "-//W3C//DTD SVG 1.1//EN"
 "http://www.w3.org/Graphics/SVG/1.1/DTD/svg11.dtd">
<!-- Generated by graphviz version 2.36.0 (20140111.2315)
 -->
<!-- Title: AgeContactProfiles.h Pages: 1 -->
<!--zoomable 264 -->
<svg id="main" version="1.1" xmlns="http://www.w3.org/2000/svg" xmlns:xlink="http://www.w3.org/1999/xlink" xml:space="preserve" onload="init(evt)">
<style type="text/css"><![CDATA[
.edge:hover path { stroke: red; }
.edge:hover polygon { stroke: red; fill: red; }
]]></style>
<script type="text/javascript"><![CDATA[
var edges = document.getElementsByTagName('g');
if (edges && edges.length) {
  for (var i=0;i<edges.length;i++) {
    if (edges[i].id.substr(0,4)=='edge') {
      edges[i].setAttribute('class','edge');
    }
  }
}
]]></script>
        <defs>
                <circle id="rim" cx="0" cy="0" r="7"/>
                <circle id="rim2" cx="0" cy="0" r="3.5"/>
                <g id="zoomPlus">
                        <use xlink:href="#rim" fill="#404040">
                                <set attributeName="fill" to="#808080" begin="zoomplus.mouseover" end="zoomplus.mouseout"/>
                        </use>
                        <path d="M-4,0h8M0,-4v8" fill="none" stroke="white" stroke-width="1.5" pointer-events="none"/>
                </g>
                <g id="zoomMin">
                        <use xlink:href="#rim" fill="#404040">
                                <set attributeName="fill" to="#808080" begin="zoomminus.mouseover" end="zoomminus.mouseout"/>
                        </use>
                        <path d="M-4,0h8" fill="none" stroke="white" stroke-width="1.5" pointer-events="none"/>
                </g>
                <g id="dirArrow">
                        <path fill="none" stroke="white" stroke-width="1.5" d="M0,-3.0v7 M-2.5,-0.5L0,-3.0L2.5,-0.5"/>
                </g>
               <g id="resetDef">
                       <use xlink:href="#rim2" fill="#404040">
                               <set attributeName="fill" to="#808080" begin="reset.mouseover" end="reset.mouseout"/>
                       </use>
               </g>
        </defs>

<script type="text/javascript">
var viewWidth = 766;
var viewHeight = 264;
var sectionId = 'dynsection-0';
</script>
<script xlink:href="../../svgpan.js"/>
<svg id="graph" class="graph">
<g id="viewport">
<title>AgeContactProfiles.h</title>
<polygon fill="white" stroke="none" points="-4,4 -4,-260 762,-260 762,4 -4,4"/>
<!-- Node1 -->
<g id="node1" class="node"><title>Node1</title>
<polygon fill="#bfbfbf" stroke="black" points="463,-236.5 463,-255.5 573,-255.5 573,-236.5 463,-236.5"/>
<text text-anchor="middle" x="518" y="-243.5" font-family="Helvetica,sans-Serif" font-size="10.00">AgeContactProfiles.h</text>
</g>
<!-- Node2 -->
<g id="node2" class="node"><title>Node2</title>
<g id="a_node2"><a xlink:href="../../de/df3/a00185.html" target="_top" xlink:title="Contact profile. ">
<polygon fill="white" stroke="black" points="103,-124.5 103,-143.5 243,-143.5 243,-124.5 103,-124.5"/>
<text text-anchor="middle" x="173" y="-131.5" font-family="Helvetica,sans-Serif" font-size="10.00">contact/AgeContactProfile.h</text>
</a>
</g>
</g>
<!-- Node1&#45;&gt;Node2 -->
<g id="edge1" class="edge"><title>Node1&#45;&gt;Node2</title>
<path fill="none" stroke="midnightblue" d="M491.216,-236.46C429.951,-216.926 279.519,-168.963 209.701,-146.702"/>
<polygon fill="midnightblue" stroke="midnightblue" points="210.596,-143.314 200.005,-143.61 208.47,-149.983 210.596,-143.314"/>
</g>
<!-- Node3 -->
<g id="node3" class="node"><title>Node3</title>
<g id="a_node3"><a xlink:href="../../d0/da7/a00250.html" target="_top" xlink:title="Definition of ContactPoolType. ">
<polygon fill="white" stroke="black" points="570,-62.5 570,-81.5 692,-81.5 692,-62.5 570,-62.5"/>
<text text-anchor="middle" x="631" y="-69.5" font-family="Helvetica,sans-Serif" font-size="10.00">pool/ContactPoolType.h</text>
</a>
</g>
</g>
<!-- Node1&#45;&gt;Node3 -->
<g id="edge11" class="edge"><title>Node1&#45;&gt;Node3</title>
<path fill="none" stroke="midnightblue" d="M545.604,-236.414C582.586,-223.245 646.716,-194.168 674,-144 684.671,-124.38 666.661,-102.493 650.786,-88.2755"/>
<polygon fill="midnightblue" stroke="midnightblue" points="652.748,-85.352 642.843,-81.5923 648.242,-90.7085 652.748,-85.352"/>
</g>
<!-- Node12 -->
<g id="node12" class="node"><title>Node12</title>
<g id="a_node12"><a xlink:href="../../de/dab/a00319.html" target="_top" xlink:title="Container for the contact pools of various type (household, work, ...). ">
<polygon fill="white" stroke="black" points="458.5,-180.5 458.5,-199.5 577.5,-199.5 577.5,-180.5 458.5,-180.5"/>
<text text-anchor="middle" x="518" y="-187.5" font-family="Helvetica,sans-Serif" font-size="10.00">pool/IdSubscriptArray.h</text>
</a>
</g>
</g>
<!-- Node1&#45;&gt;Node12 -->
<g id="edge12" class="edge"><title>Node1&#45;&gt;Node12</title>
<path fill="none" stroke="midnightblue" d="M518,-236.083C518,-229.006 518,-218.861 518,-209.986"/>
<polygon fill="midnightblue" stroke="midnightblue" points="521.5,-209.751 518,-199.751 514.5,-209.751 521.5,-209.751"/>
</g>
<!-- Node2&#45;&gt;Node3 -->
<g id="edge2" class="edge"><title>Node2&#45;&gt;Node3</title>
<path fill="none" stroke="midnightblue" d="M240.778,-124.492C311.304,-115.591 424.932,-101.114 523,-88 535.14,-86.3765 548.043,-84.6155 560.547,-82.8902"/>
<polygon fill="midnightblue" stroke="midnightblue" points="561.041,-86.3552 570.467,-81.5174 560.082,-79.4212 561.041,-86.3552"/>
</g>
<!-- Node9 -->
<g id="node9" class="node"><title>Node9</title>
<g id="a_node9"><a xlink:href="../../dc/d52/a00183.html" target="_top" xlink:title="Helpers for age. ">
<polygon fill="white" stroke="black" points="118.5,-62.5 118.5,-81.5 179.5,-81.5 179.5,-62.5 118.5,-62.5"/>
<text text-anchor="middle" x="149" y="-69.5" font-family="Helvetica,sans-Serif" font-size="10.00">pop/Age.h</text>
</a>
</g>
</g>
<!-- Node2&#45;&gt;Node9 -->
<g id="edge8" class="edge"><title>Node2&#45;&gt;Node9</title>
<path fill="none" stroke="midnightblue" d="M169.561,-124.403C166.104,-115.76 160.668,-102.17 156.254,-91.1341"/>
<polygon fill="midnightblue" stroke="midnightblue" points="159.396,-89.5655 152.432,-81.5806 152.897,-92.1653 159.396,-89.5655"/>
</g>
<!-- Node10 -->
<g id="node10" class="node"><title>Node10</title>
<polygon fill="white" stroke="#bfbfbf" points="-0.5,-57 -0.5,-87 100.5,-87 100.5,-57 -0.5,-57"/>
<text text-anchor="start" x="7.5" y="-75" font-family="Helvetica,sans-Serif" font-size="10.00">boost/property_tree</text>
<text text-anchor="middle" x="50" y="-64" font-family="Helvetica,sans-Serif" font-size="10.00">/ptree.hpp</text>
</g>
<!-- Node2&#45;&gt;Node10 -->
<g id="edge9" class="edge"><title>Node2&#45;&gt;Node10</title>
<path fill="none" stroke="midnightblue" d="M155.377,-124.403C137.94,-115.898 110.684,-102.602 88.2602,-91.6635"/>
<polygon fill="midnightblue" stroke="midnightblue" points="89.5109,-88.3794 78.9887,-87.1408 86.4419,-94.6708 89.5109,-88.3794"/>
</g>
<!-- Node11 -->
<g id="node11" class="node"><title>Node11</title>
<polygon fill="white" stroke="#bfbfbf" points="198,-62.5 198,-81.5 236,-81.5 236,-62.5 198,-62.5"/>
<text text-anchor="middle" x="217" y="-69.5" font-family="Helvetica,sans-Serif" font-size="10.00">array</text>
</g>
<!-- Node2&#45;&gt;Node11 -->
<g id="edge10" class="edge"><title>Node2&#45;&gt;Node11</title>
<path fill="none" stroke="midnightblue" d="M179.304,-124.403C185.904,-115.403 196.437,-101.041 204.693,-89.7824"/>
<polygon fill="midnightblue" stroke="midnightblue" points="207.616,-91.7144 210.708,-81.5806 201.971,-87.5749 207.616,-91.7144"/>
</g>
<!-- Node4 -->
<g id="node4" class="node"><title>Node4</title>
<polygon fill="white" stroke="#bfbfbf" points="636.5,-0.5 636.5,-19.5 685.5,-19.5 685.5,-0.5 636.5,-0.5"/>
<text text-anchor="middle" x="661" y="-7.5" font-family="Helvetica,sans-Serif" font-size="10.00">cstddef</text>
</g>
<!-- Node3&#45;&gt;Node4 -->
<g id="edge3" class="edge"><title>Node3&#45;&gt;Node4</title>
<path fill="none" stroke="midnightblue" d="M635.298,-62.4035C639.665,-53.6707 646.555,-39.8893 652.103,-28.7936"/>
<polygon fill="midnightblue" stroke="midnightblue" points="655.368,-30.0901 656.71,-19.5806 649.107,-26.9596 655.368,-30.0901"/>
</g>
<!-- Node5 -->
<g id="node5" class="node"><title>Node5</title>
<polygon fill="white" stroke="#bfbfbf" points="380.5,-0.5 380.5,-19.5 421.5,-19.5 421.5,-0.5 380.5,-0.5"/>
<text text-anchor="middle" x="401" y="-7.5" font-family="Helvetica,sans-Serif" font-size="10.00">string</text>
</g>
<!-- Node3&#45;&gt;Node5 -->
<g id="edge4" class="edge"><title>Node3&#45;&gt;Node5</title>
<path fill="none" stroke="midnightblue" d="M598.047,-62.4035C553.523,-50.7886 474.763,-30.2425 431.526,-18.9633"/>
<polygon fill="midnightblue" stroke="midnightblue" points="432.154,-15.5101 421.594,-16.3724 430.387,-22.2834 432.154,-15.5101"/>
</g>
<!-- Node6 -->
<g id="node6" class="node"><title>Node6</title>
<polygon fill="white" stroke="#bfbfbf" points="704,-0.5 704,-19.5 758,-19.5 758,-0.5 704,-0.5"/>
<text text-anchor="middle" x="731" y="-7.5" font-family="Helvetica,sans-Serif" font-size="10.00">iostream</text>
</g>
<!-- Node3&#45;&gt;Node6 -->
<g id="edge5" class="edge"><title>Node3&#45;&gt;Node6</title>
<path fill="none" stroke="midnightblue" d="M645.328,-62.4035C661.664,-52.6014 688.602,-36.4385 707.912,-24.8526"/>
<polygon fill="midnightblue" stroke="midnightblue" points="709.925,-27.7268 716.699,-19.5806 706.323,-21.7244 709.925,-27.7268"/>
</g>
<!-- Node7 -->
<g id="node7" class="node"><title>Node7</title>
<polygon fill="white" stroke="#bfbfbf" points="571.5,-0.5 571.5,-19.5 618.5,-19.5 618.5,-0.5 571.5,-0.5"/>
<text text-anchor="middle" x="595" y="-7.5" font-family="Helvetica,sans-Serif" font-size="10.00">iterator</text>
</g>
<!-- Node3&#45;&gt;Node7 -->
<g id="edge6" class="edge"><title>Node3&#45;&gt;Node7</title>
<path fill="none" stroke="midnightblue" d="M625.842,-62.4035C620.549,-53.5816 612.165,-39.6075 605.473,-28.4548"/>
<polygon fill="midnightblue" stroke="midnightblue" points="608.295,-26.3548 600.148,-19.5806 602.292,-29.9563 608.295,-26.3548"/>
</g>
<!-- Node8 -->
<g id="node8" class="node"><title>Node8</title>
<polygon fill="white" stroke="#bfbfbf" points="509,-0.5 509,-19.5 553,-19.5 553,-0.5 509,-0.5"/>
<text text-anchor="middle" x="531" y="-7.5" font-family="Helvetica,sans-Serif" font-size="10.00">vector</text>
</g>
<!-- Node3&#45;&gt;Node8 -->
<g id="edge7" class="edge"><title>Node3&#45;&gt;Node8</title>
<path fill="none" stroke="midnightblue" d="M616.672,-62.4035C600.336,-52.6014 573.398,-36.4385 554.088,-24.8526"/>
<polygon fill="midnightblue" stroke="midnightblue" points="555.677,-21.7244 545.301,-19.5806 552.075,-27.7268 555.677,-21.7244"/>
</g>
<!-- Node12&#45;&gt;Node3 -->
<g id="edge21" class="edge"><title>Node12&#45;&gt;Node3</title>
<path fill="none" stroke="midnightblue" d="M531.474,-180.274C543.997,-171.82 562.799,-158.22 577,-144 593.675,-127.303 609.63,-105.328 619.816,-90.2746"/>
<polygon fill="midnightblue" stroke="midnightblue" points="622.756,-92.1731 625.366,-81.9048 616.923,-88.3042 622.756,-92.1731"/>
</g>
<!-- Node12&#45;&gt;Node6 -->
<g id="edge25" class="edge"><title>Node12&#45;&gt;Node6</title>
<path fill="none" stroke="midnightblue" d="M577.593,-183.566C609.254,-177.992 647.078,-166.731 674,-144 709.246,-114.241 723.256,-58.745 728.36,-29.7447"/>
<polygon fill="midnightblue" stroke="midnightblue" points="731.84,-30.1436 729.951,-19.7186 724.927,-29.0466 731.84,-30.1436"/>
</g>
<!-- Node12&#45;&gt;Node11 -->
<g id="edge22" class="edge"><title>Node12&#45;&gt;Node11</title>
<path fill="none" stroke="midnightblue" d="M507.89,-180.35C490.907,-166.29 455.061,-138.587 420,-124 346.686,-93.4977 319.664,-115.03 245,-88 243.396,-87.4192 241.77,-86.7598 240.152,-86.0491"/>
<polygon fill="midnightblue" stroke="midnightblue" points="241.68,-82.9003 231.164,-81.6106 238.581,-89.1767 241.68,-82.9003"/>
</g>
<!-- Node13 -->
<g id="node13" class="node"><title>Node13</title>
<g id="a_node13"><a xlink:href="../../d6/d22/a00245.html" target="_top" xlink:title="Header for the core ContactPool class. ">
<polygon fill="white" stroke="black" points="468,-124.5 468,-143.5 568,-143.5 568,-124.5 468,-124.5"/>
<text text-anchor="middle" x="518" y="-131.5" font-family="Helvetica,sans-Serif" font-size="10.00">pool/ContactPool.h</text>
</a>
</g>
</g>
<!-- Node12&#45;&gt;Node13 -->
<g id="edge13" class="edge"><title>Node12&#45;&gt;Node13</title>
<path fill="none" stroke="midnightblue" d="M518,-180.083C518,-173.006 518,-162.861 518,-153.986"/>
<polygon fill="midnightblue" stroke="midnightblue" points="521.5,-153.751 518,-143.751 514.5,-153.751 521.5,-153.751"/>
</g>
<!-- Node17 -->
<g id="node17" class="node"><title>Node17</title>
<polygon fill="white" stroke="#bfbfbf" points="624.5,-124.5 624.5,-143.5 665.5,-143.5 665.5,-124.5 624.5,-124.5"/>
<text text-anchor="middle" x="645" y="-131.5" font-family="Helvetica,sans-Serif" font-size="10.00">bitset</text>
</g>
<!-- Node12&#45;&gt;Node17 -->
<g id="edge23" class="edge"><title>Node12&#45;&gt;Node17</title>
<path fill="none" stroke="midnightblue" d="M538.124,-180.444C559.024,-171.557 591.935,-157.563 615.716,-147.451"/>
<polygon fill="midnightblue" stroke="midnightblue" points="617.138,-150.65 624.971,-143.516 614.398,-144.208 617.138,-150.65"/>
</g>
<!-- Node18 -->
<g id="node18" class="node"><title>Node18</title>
<polygon fill="white" stroke="#bfbfbf" points="261.5,-124.5 261.5,-143.5 334.5,-143.5 334.5,-124.5 261.5,-124.5"/>
<text text-anchor="middle" x="298" y="-131.5" font-family="Helvetica,sans-Serif" font-size="10.00">initializer_list</text>
</g>
<!-- Node12&#45;&gt;Node18 -->
<g id="edge24" class="edge"><title>Node12&#45;&gt;Node18</title>
<path fill="none" stroke="midnightblue" d="M483.14,-180.444C445.084,-171.102 384.042,-156.119 342.54,-145.933"/>
<polygon fill="midnightblue" stroke="midnightblue" points="343.243,-142.501 332.697,-143.516 341.574,-149.299 343.243,-142.501"/>
</g>
<!-- Node19 -->
<g id="node19" class="node"><title>Node19</title>
<polygon fill="white" stroke="#bfbfbf" points="352.5,-124.5 352.5,-143.5 411.5,-143.5 411.5,-124.5 352.5,-124.5"/>
<text text-anchor="middle" x="382" y="-131.5" font-family="Helvetica,sans-Serif" font-size="10.00">stdexcept</text>
</g>
<!-- Node12&#45;&gt;Node19 -->
<g id="edge26" class="edge"><title>Node12&#45;&gt;Node19</title>
<path fill="none" stroke="midnightblue" d="M496.45,-180.444C473.969,-171.517 438.512,-157.439 413.02,-147.317"/>
<polygon fill="midnightblue" stroke="midnightblue" points="414.035,-143.954 403.449,-143.516 411.451,-150.46 414.035,-143.954"/>
</g>
<!-- Node13&#45;&gt;Node3 -->
<g id="edge16" class="edge"><title>Node13&#45;&gt;Node3</title>
<path fill="none" stroke="midnightblue" d="M534.19,-124.403C552.902,-114.468 583.923,-97.9966 605.799,-86.3812"/>
<polygon fill="midnightblue" stroke="midnightblue" points="607.649,-89.3616 614.84,-81.5806 604.366,-83.179 607.649,-89.3616"/>
</g>
<!-- Node13&#45;&gt;Node8 -->
<g id="edge20" class="edge"><title>Node13&#45;&gt;Node8</title>
<path fill="none" stroke="midnightblue" d="M518.977,-124.375C519.998,-115.318 521.639,-100.661 523,-88 525.129,-68.1935 527.475,-45.5104 529.072,-29.9211"/>
<polygon fill="midnightblue" stroke="midnightblue" points="532.597,-29.8519 530.132,-19.5479 525.634,-29.1403 532.597,-29.8519"/>
</g>
<!-- Node13&#45;&gt;Node11 -->
<g id="edge17" class="edge"><title>Node13&#45;&gt;Node11</title>
<path fill="none" stroke="midnightblue" d="M467.942,-125.656C394.947,-114.81 265.694,-95.0324 245,-88 243.349,-87.4388 241.678,-86.7874 240.018,-86.0766"/>
<polygon fill="midnightblue" stroke="midnightblue" points="241.355,-82.8341 230.836,-81.5707 238.272,-89.1183 241.355,-82.8341"/>
</g>
<!-- Node14 -->
<g id="node14" class="node"><title>Node14</title>
<g id="a_node14"><a xlink:href="../../d6/d82/a00243.html" target="_top" xlink:title="Header for the ContactLogMode class. ">
<polygon fill="white" stroke="black" points="254,-62.5 254,-81.5 388,-81.5 388,-62.5 254,-62.5"/>
<text text-anchor="middle" x="321" y="-69.5" font-family="Helvetica,sans-Serif" font-size="10.00">contact/ContactLogMode.h</text>
</a>
</g>
</g>
<!-- Node13&#45;&gt;Node14 -->
<g id="edge14" class="edge"><title>Node13&#45;&gt;Node14</title>
<path fill="none" stroke="midnightblue" d="M489.775,-124.403C455.397,-113.933 397.19,-96.2049 358.923,-84.5501"/>
<polygon fill="midnightblue" stroke="midnightblue" points="359.759,-81.1461 349.173,-81.5806 357.719,-87.8424 359.759,-81.1461"/>
</g>
<!-- Node15 -->
<g id="node15" class="node"><title>Node15</title>
<polygon fill="white" stroke="#bfbfbf" points="406,-62.5 406,-81.5 458,-81.5 458,-62.5 406,-62.5"/>
<text text-anchor="middle" x="432" y="-69.5" font-family="Helvetica,sans-Serif" font-size="10.00">memory</text>
</g>
<!-- Node13&#45;&gt;Node15 -->
<g id="edge18" class="edge"><title>Node13&#45;&gt;Node15</title>
<path fill="none" stroke="midnightblue" d="M505.678,-124.403C491.884,-114.78 469.301,-99.0242 452.768,-87.4891"/>
<polygon fill="midnightblue" stroke="midnightblue" points="454.503,-84.432 444.299,-81.5806 450.497,-90.1729 454.503,-84.432"/>
</g>
<!-- Node16 -->
<g id="node16" class="node"><title>Node16</title>
<polygon fill="white" stroke="#bfbfbf" points="476,-62.5 476,-81.5 514,-81.5 514,-62.5 476,-62.5"/>
<text text-anchor="middle" x="495" y="-69.5" font-family="Helvetica,sans-Serif" font-size="10.00">tuple</text>
</g>
<!-- Node13&#45;&gt;Node16 -->
<g id="edge19" class="edge"><title>Node13&#45;&gt;Node16</title>
<path fill="none" stroke="midnightblue" d="M514.705,-124.403C511.391,-115.76 506.182,-102.17 501.951,-91.1341"/>
<polygon fill="midnightblue" stroke="midnightblue" points="505.137,-89.6653 498.289,-81.5806 498.601,-92.1709 505.137,-89.6653"/>
</g>
<!-- Node14&#45;&gt;Node5 -->
<g id="edge15" class="edge"><title>Node14&#45;&gt;Node5</title>
<path fill="none" stroke="midnightblue" d="M332.462,-62.4035C345.175,-52.8688 365.913,-37.3154 381.253,-25.8106"/>
<polygon fill="midnightblue" stroke="midnightblue" points="383.659,-28.3806 389.559,-19.5806 379.459,-22.7806 383.659,-28.3806"/>
</g>
</g>
</svg>
        <g id="navigator" transform="translate(0 0)" fill="#404254">
                <rect fill="#f2f5e9" fill-opacity="0.5" stroke="#606060" stroke-width=".5" x="0" y="0" width="60" height="60"/>
                <use id="zoomplus" xlink:href="#zoomPlus" x="17" y="9" onmousedown="handleZoom(evt,'in')"/>
                <use id="zoomminus" xlink:href="#zoomMin" x="42" y="9" onmousedown="handleZoom(evt,'out')"/>
                <use id="reset" xlink:href="#resetDef" x="30" y="36" onmousedown="handleReset()"/>
                <g id="arrowUp" xlink:href="#dirArrow" transform="translate(30 24)" onmousedown="handlePan(0,-1)">
                  <use xlink:href="#rim" fill="#404040">
                        <set attributeName="fill" to="#808080" begin="arrowUp.mouseover" end="arrowUp.mouseout"/>
                  </use>
                  <path fill="none" stroke="white" stroke-width="1.5" d="M0,-3.0v7 M-2.5,-0.5L0,-3.0L2.5,-0.5"/>
                </g>
                <g id="arrowRight" xlink:href="#dirArrow" transform="rotate(90) translate(36 -43)" onmousedown="handlePan(1,0)">
                  <use xlink:href="#rim" fill="#404040">
                        <set attributeName="fill" to="#808080" begin="arrowRight.mouseover" end="arrowRight.mouseout"/>
                  </use>
                  <path fill="none" stroke="white" stroke-width="1.5" d="M0,-3.0v7 M-2.5,-0.5L0,-3.0L2.5,-0.5"/>
                </g>
                <g id="arrowDown" xlink:href="#dirArrow" transform="rotate(180) translate(-30 -48)" onmousedown="handlePan(0,1)">
                  <use xlink:href="#rim" fill="#404040">
                        <set attributeName="fill" to="#808080" begin="arrowDown.mouseover" end="arrowDown.mouseout"/>
                  </use>
                  <path fill="none" stroke="white" stroke-width="1.5" d="M0,-3.0v7 M-2.5,-0.5L0,-3.0L2.5,-0.5"/>
                </g>
                <g id="arrowLeft" xlink:href="#dirArrow" transform="rotate(270) translate(-36 17)" onmousedown="handlePan(-1,0)">
                  <use xlink:href="#rim" fill="#404040">
                        <set attributeName="fill" to="#808080" begin="arrowLeft.mouseover" end="arrowLeft.mouseout"/>
                  </use>
                  <path fill="none" stroke="white" stroke-width="1.5" d="M0,-3.0v7 M-2.5,-0.5L0,-3.0L2.5,-0.5"/>
                </g>
        </g>
        <svg viewBox="0 0 15 15" width="100%" height="30px" preserveAspectRatio="xMaxYMin meet">
         <g id="arrow_out" transform="scale(0.3 0.3)">
          <a xlink:href="a00503_org.svg" target="_base">
           <rect id="button" ry="5" rx="5" y="6" x="6" height="38" width="38"
                fill="#f2f5e9" fill-opacity="0.5" stroke="#606060" stroke-width="1.0"/>
           <path id="arrow"
             d="M 11.500037,31.436501 C 11.940474,20.09759 22.043105,11.32322 32.158766,21.979434 L 37.068811,17.246167 C 37.068811,17.246167 37.088388,32 37.088388,32 L 22.160133,31.978069 C 22.160133,31.978069 26.997745,27.140456 26.997745,27.140456 C 18.528582,18.264221 13.291696,25.230495 11.500037,31.436501 z"
             style="fill:#404040;"/>
          </a>
         </g>
        </svg>
</svg>
