<?xml version="1.0" encoding="UTF-8" standalone="no"?>
<!DOCTYPE svg PUBLIC "-//W3C//DTD SVG 1.1//EN"
 "http://www.w3.org/Graphics/SVG/1.1/DTD/svg11.dtd">
<!-- Generated by graphviz version 2.36.0 (20140111.2315)
 -->
<!-- Title: LogUtils.h Pages: 1 -->
<svg width="1280pt" height="252pt"
 viewBox="0.00 0.00 1280.00 252.00" xmlns="http://www.w3.org/2000/svg" xmlns:xlink="http://www.w3.org/1999/xlink">
<g id="graph0" class="graph" transform="scale(1 1) rotate(0) translate(4 248)">
<title>LogUtils.h</title>
<polygon fill="white" stroke="none" points="-4,4 -4,-248 1276,-248 1276,4 -4,4"/>
<!-- Node1 -->
<g id="node1" class="node"><title>Node1</title>
<polygon fill="#bfbfbf" stroke="black" points="648.5,-224.5 648.5,-243.5 709.5,-243.5 709.5,-224.5 648.5,-224.5"/>
<text text-anchor="middle" x="679" y="-231.5" font-family="Helvetica,sans-Serif" font-size="10.00">LogUtils.h</text>
</g>
<!-- Node2 -->
<g id="node2" class="node"><title>Node2</title>
<g id="a_node2"><a xlink:href="../../d7/ded/a00196.html" target="_top" xlink:title="Boxplot.h">
<polygon fill="white" stroke="black" points="12,-112.5 12,-131.5 70,-131.5 70,-112.5 12,-112.5"/>
<text text-anchor="middle" x="41" y="-119.5" font-family="Helvetica,sans-Serif" font-size="10.00">Boxplot.h</text>
</a>
</g>
</g>
<!-- Node1&#45;&gt;Node2 -->
<g id="edge1" class="edge"><title>Node1&#45;&gt;Node2</title>
<path fill="none" stroke="midnightblue" d="M637.941,-232.783C525.703,-231.703 215.885,-225.328 122,-188 90.501,-175.476 61.5823,-146.292 48.4417,-131.671"/>
<polygon fill="midnightblue" stroke="midnightblue" points="638.143,-236.285 648.173,-232.872 638.203,-229.285 638.143,-236.285"/>
</g>
<!-- Node7 -->
<g id="node7" class="node"><title>Node7</title>
<g id="a_node7"><a xlink:href="../../d8/d72/a00199.html" target="_top" xlink:title="BoxplotGenerator.h">
<polygon fill="white" stroke="black" points="131.5,-168.5 131.5,-187.5 232.5,-187.5 232.5,-168.5 131.5,-168.5"/>
<text text-anchor="middle" x="182" y="-175.5" font-family="Helvetica,sans-Serif" font-size="10.00">BoxplotGenerator.h</text>
</a>
</g>
</g>
<!-- Node1&#45;&gt;Node7 -->
<g id="edge6" class="edge"><title>Node1&#45;&gt;Node7</title>
<path fill="none" stroke="midnightblue" d="M638.171,-228.564C547.904,-218.756 331.572,-195.251 232.77,-184.516"/>
<polygon fill="midnightblue" stroke="midnightblue" points="637.966,-232.062 648.285,-229.663 638.722,-225.103 637.966,-232.062"/>
</g>
<!-- Node9 -->
<g id="node9" class="node"><title>Node9</title>
<g id="a_node9"><a xlink:href="../../d5/d13/a00205.html" target="_top" xlink:title="Calibrator.h">
<polygon fill="white" stroke="black" points="348.5,-168.5 348.5,-187.5 415.5,-187.5 415.5,-168.5 348.5,-168.5"/>
<text text-anchor="middle" x="382" y="-175.5" font-family="Helvetica,sans-Serif" font-size="10.00">Calibrator.h</text>
</a>
</g>
</g>
<!-- Node1&#45;&gt;Node9 -->
<g id="edge9" class="edge"><title>Node1&#45;&gt;Node9</title>
<path fill="none" stroke="midnightblue" d="M638.322,-226.193C588.104,-217.697 500.123,-202.513 425,-188 422.005,-187.421 418.895,-186.804 415.781,-186.174"/>
<polygon fill="midnightblue" stroke="midnightblue" points="638.004,-229.688 648.447,-227.902 639.169,-222.786 638.004,-229.688"/>
</g>
<!-- Node15 -->
<g id="node15" class="node"><title>Node15</title>
<g id="a_node15"><a xlink:href="../../d9/d8d/a00262.html" target="_top" xlink:title="Implementation for the DiseaseSeeder class. ">
<polygon fill="white" stroke="black" points="434,-168.5 434,-187.5 536,-187.5 536,-168.5 434,-168.5"/>
<text text-anchor="middle" x="485" y="-175.5" font-family="Helvetica,sans-Serif" font-size="10.00">DiseaseSeeder.cpp</text>
</a>
</g>
</g>
<!-- Node1&#45;&gt;Node15 -->
<g id="edge25" class="edge"><title>Node1&#45;&gt;Node15</title>
<path fill="none" stroke="midnightblue" d="M638.399,-221.699C601.785,-211.507 548.743,-196.743 515.596,-187.516"/>
<polygon fill="midnightblue" stroke="midnightblue" points="637.688,-225.134 648.26,-224.444 639.565,-218.39 637.688,-225.134"/>
</g>
<!-- Node16 -->
<g id="node16" class="node"><title>Node16</title>
<g id="a_node16"><a xlink:href="../../d3/dc9/a00355.html" target="_top" xlink:title="main.cpp">
<polygon fill="white" stroke="black" points="554,-168.5 554,-187.5 610,-187.5 610,-168.5 554,-168.5"/>
<text text-anchor="middle" x="582" y="-175.5" font-family="Helvetica,sans-Serif" font-size="10.00">main.cpp</text>
</a>
</g>
</g>
<!-- Node1&#45;&gt;Node16 -->
<g id="edge26" class="edge"><title>Node1&#45;&gt;Node16</title>
<path fill="none" stroke="midnightblue" d="M654.665,-219.453C636.757,-209.483 612.946,-196.228 597.546,-187.655"/>
<polygon fill="midnightblue" stroke="midnightblue" points="652.975,-222.518 663.415,-224.324 656.38,-216.402 652.975,-222.518"/>
</g>
<!-- Node17 -->
<g id="node17" class="node"><title>Node17</title>
<g id="a_node17"><a xlink:href="../../dd/d86/a00271.html" target="_top" xlink:title="Initialize populations: implementation. ">
<polygon fill="white" stroke="black" points="628.5,-168.5 628.5,-187.5 729.5,-187.5 729.5,-168.5 628.5,-168.5"/>
<text text-anchor="middle" x="679" y="-175.5" font-family="Helvetica,sans-Serif" font-size="10.00">GenPopBuilder.cpp</text>
</a>
</g>
</g>
<!-- Node1&#45;&gt;Node17 -->
<g id="edge27" class="edge"><title>Node1&#45;&gt;Node17</title>
<path fill="none" stroke="midnightblue" d="M679,-213.805C679,-204.91 679,-194.78 679,-187.751"/>
<polygon fill="midnightblue" stroke="midnightblue" points="675.5,-214.083 679,-224.083 682.5,-214.083 675.5,-214.083"/>
</g>
<!-- Node18 -->
<g id="node18" class="node"><title>Node18</title>
<g id="a_node18"><a xlink:href="../../d4/d8f/a00324.html" target="_top" xlink:title="Initialize populations: implementation. ">
<polygon fill="white" stroke="black" points="748,-168.5 748,-187.5 858,-187.5 858,-168.5 748,-168.5"/>
<text text-anchor="middle" x="803" y="-175.5" font-family="Helvetica,sans-Serif" font-size="10.00">ImportPopBuilder.cpp</text>
</a>
</g>
</g>
<!-- Node1&#45;&gt;Node18 -->
<g id="edge28" class="edge"><title>Node1&#45;&gt;Node18</title>
<path fill="none" stroke="midnightblue" d="M708.007,-220.368C731.229,-210.255 763.163,-196.349 783.444,-187.516"/>
<polygon fill="midnightblue" stroke="midnightblue" points="706.419,-217.242 698.648,-224.444 709.214,-223.66 706.419,-217.242"/>
</g>
<!-- Node19 -->
<g id="node19" class="node"><title>Node19</title>
<g id="a_node19"><a xlink:href="../../da/dee/a00383.html" target="_top" xlink:title="Core Population class. ">
<polygon fill="white" stroke="black" points="876.5,-168.5 876.5,-187.5 957.5,-187.5 957.5,-168.5 876.5,-168.5"/>
<text text-anchor="middle" x="917" y="-175.5" font-family="Helvetica,sans-Serif" font-size="10.00">Population.cpp</text>
</a>
</g>
</g>
<!-- Node1&#45;&gt;Node19 -->
<g id="edge29" class="edge"><title>Node1&#45;&gt;Node19</title>
<path fill="none" stroke="midnightblue" d="M719.583,-223.792C764.377,-213.629 835.89,-197.403 879.438,-187.522"/>
<polygon fill="midnightblue" stroke="midnightblue" points="718.605,-220.425 709.627,-226.051 720.154,-227.251 718.605,-220.425"/>
</g>
<!-- Node20 -->
<g id="node20" class="node"><title>Node20</title>
<g id="a_node20"><a xlink:href="../../d7/d6e/a00190.html" target="_top" xlink:title="Header for the command line controller. ">
<polygon fill="white" stroke="black" points="976,-168.5 976,-187.5 1076,-187.5 1076,-168.5 976,-168.5"/>
<text text-anchor="middle" x="1026" y="-175.5" font-family="Helvetica,sans-Serif" font-size="10.00">BaseController.cpp</text>
</a>
</g>
</g>
<!-- Node1&#45;&gt;Node20 -->
<g id="edge30" class="edge"><title>Node1&#45;&gt;Node20</title>
<path fill="none" stroke="midnightblue" d="M719.884,-226.638C783.719,-216.704 906.889,-197.536 975.943,-186.79"/>
<polygon fill="midnightblue" stroke="midnightblue" points="719.137,-223.212 709.794,-228.208 720.213,-230.128 719.137,-223.212"/>
</g>
<!-- Node21 -->
<g id="node21" class="node"><title>Node21</title>
<g id="a_node21"><a xlink:href="../../da/de7/a00210.html" target="_top" xlink:title="Header for the command line controller. ">
<polygon fill="white" stroke="black" points="1094.5,-168.5 1094.5,-187.5 1183.5,-187.5 1183.5,-168.5 1094.5,-168.5"/>
<text text-anchor="middle" x="1139" y="-175.5" font-family="Helvetica,sans-Serif" font-size="10.00">CliController.cpp</text>
</a>
</g>
</g>
<!-- Node1&#45;&gt;Node21 -->
<g id="edge31" class="edge"><title>Node1&#45;&gt;Node21</title>
<path fill="none" stroke="midnightblue" d="M719.809,-229.223C793.088,-222.275 951.763,-206.473 1085,-188 1088.01,-187.582 1091.12,-187.128 1094.24,-186.654"/>
<polygon fill="midnightblue" stroke="midnightblue" points="719.257,-225.759 709.63,-230.183 719.914,-232.729 719.257,-225.759"/>
</g>
<!-- Node22 -->
<g id="node22" class="node"><title>Node22</title>
<g id="a_node22"><a xlink:href="../../d0/d48/a00351.html" target="_top" xlink:title="Implementation of file utils. ">
<polygon fill="white" stroke="black" points="1201.5,-168.5 1201.5,-187.5 1272.5,-187.5 1272.5,-168.5 1201.5,-168.5"/>
<text text-anchor="middle" x="1237" y="-175.5" font-family="Helvetica,sans-Serif" font-size="10.00">LogUtils.cpp</text>
</a>
</g>
</g>
<!-- Node1&#45;&gt;Node22 -->
<g id="edge32" class="edge"><title>Node1&#45;&gt;Node22</title>
<path fill="none" stroke="midnightblue" d="M719.777,-230.949C806.844,-226.236 1017.24,-213.064 1192,-188 1195,-187.57 1198.1,-187.07 1201.2,-186.529"/>
<polygon fill="midnightblue" stroke="midnightblue" points="719.581,-227.455 709.781,-231.482 719.953,-234.445 719.581,-227.455"/>
</g>
<!-- Node3 -->
<g id="node3" class="node"><title>Node3</title>
<g id="a_node3"><a xlink:href="../../d3/d2a/a00195.html" target="_top" xlink:title="Boxplot.cpp">
<polygon fill="white" stroke="black" points="0,-56.5 0,-75.5 68,-75.5 68,-56.5 0,-56.5"/>
<text text-anchor="middle" x="34" y="-63.5" font-family="Helvetica,sans-Serif" font-size="10.00">Boxplot.cpp</text>
</a>
</g>
</g>
<!-- Node2&#45;&gt;Node3 -->
<g id="edge2" class="edge"><title>Node2&#45;&gt;Node3</title>
<path fill="none" stroke="midnightblue" d="M38.5501,-102.101C37.388,-93.1357 36.0557,-82.8579 35.1344,-75.7511"/>
<polygon fill="midnightblue" stroke="midnightblue" points="35.0875,-102.616 39.8441,-112.083 42.0294,-101.716 35.0875,-102.616"/>
</g>
<!-- Node4 -->
<g id="node4" class="node"><title>Node4</title>
<g id="a_node4"><a xlink:href="../../db/d53/a00202.html" target="_top" xlink:title="CalibrationRunner.cpp">
<polygon fill="white" stroke="black" points="162.5,-56.5 162.5,-75.5 275.5,-75.5 275.5,-56.5 162.5,-56.5"/>
<text text-anchor="middle" x="219" y="-63.5" font-family="Helvetica,sans-Serif" font-size="10.00">CalibrationRunner.cpp</text>
</a>
</g>
</g>
<!-- Node2&#45;&gt;Node4 -->
<g id="edge3" class="edge"><title>Node2&#45;&gt;Node4</title>
<path fill="none" stroke="midnightblue" d="M79.1173,-109.436C112.678,-99.2551 160.774,-84.664 190.927,-75.5164"/>
<polygon fill="midnightblue" stroke="midnightblue" points="77.7579,-106.191 69.2046,-112.444 79.7901,-112.89 77.7579,-106.191"/>
</g>
<!-- Node5 -->
<g id="node5" class="node"><title>Node5</title>
<g id="a_node5"><a xlink:href="../../df/d17/a00231.html" target="_top" xlink:title="ConfigFileCalibrationRunner.cpp">
<polygon fill="white" stroke="black" points="162,-0.5 162,-19.5 320,-19.5 320,-0.5 162,-0.5"/>
<text text-anchor="middle" x="241" y="-7.5" font-family="Helvetica,sans-Serif" font-size="10.00">ConfigFileCalibrationRunner.cpp</text>
</a>
</g>
</g>
<!-- Node2&#45;&gt;Node5 -->
<g id="edge4" class="edge"><title>Node2&#45;&gt;Node5</title>
<path fill="none" stroke="midnightblue" d="M56.9724,-105.113C72.1353,-90.7322 96.1019,-69.7551 120,-56 148.652,-39.5089 184.456,-27.0823 209.658,-19.5112"/>
<polygon fill="midnightblue" stroke="midnightblue" points="54.2615,-102.866 49.5106,-112.336 59.1301,-107.896 54.2615,-102.866"/>
</g>
<!-- Node6 -->
<g id="node6" class="node"><title>Node6</title>
<g id="a_node6"><a xlink:href="../../dc/d0c/a00430.html" target="_top" xlink:title="TestCalibrationRunner.cpp">
<polygon fill="white" stroke="black" points="338.5,-0.5 338.5,-19.5 471.5,-19.5 471.5,-0.5 338.5,-0.5"/>
<text text-anchor="middle" x="405" y="-7.5" font-family="Helvetica,sans-Serif" font-size="10.00">TestCalibrationRunner.cpp</text>
</a>
</g>
</g>
<!-- Node2&#45;&gt;Node6 -->
<g id="edge5" class="edge"><title>Node2&#45;&gt;Node6</title>
<path fill="none" stroke="midnightblue" d="M65.2457,-107.413C80.9263,-98.5713 101.744,-86.7291 120,-76 134.786,-67.3105 136.954,-62.0541 153,-56 186.784,-43.2531 279.216,-28.5571 342.228,-19.5224"/>
<polygon fill="midnightblue" stroke="midnightblue" points="63.214,-104.541 56.215,-112.494 66.6465,-110.641 63.214,-104.541"/>
</g>
<!-- Node7&#45;&gt;Node4 -->
<g id="edge8" class="edge"><title>Node7&#45;&gt;Node4</title>
<path fill="none" stroke="midnightblue" d="M152.394,-163.818C129.465,-151.66 103.673,-132.446 117,-112 129.419,-92.9477 151.925,-81.9049 172.643,-75.5327"/>
<polygon fill="midnightblue" stroke="midnightblue" points="151.089,-167.079 161.598,-168.426 154.223,-160.819 151.089,-167.079"/>
</g>
<!-- Node8 -->
<g id="node8" class="node"><title>Node8</title>
<g id="a_node8"><a xlink:href="../../d7/da0/a00198.html" target="_top" xlink:title="BoxplotGenerator.cpp">
<polygon fill="white" stroke="black" points="126.5,-112.5 126.5,-131.5 237.5,-131.5 237.5,-112.5 126.5,-112.5"/>
<text text-anchor="middle" x="182" y="-119.5" font-family="Helvetica,sans-Serif" font-size="10.00">BoxplotGenerator.cpp</text>
</a>
</g>
</g>
<!-- Node7&#45;&gt;Node8 -->
<g id="edge7" class="edge"><title>Node7&#45;&gt;Node8</title>
<path fill="none" stroke="midnightblue" d="M182,-157.805C182,-148.91 182,-138.78 182,-131.751"/>
<polygon fill="midnightblue" stroke="midnightblue" points="178.5,-158.083 182,-168.083 185.5,-158.083 178.5,-158.083"/>
</g>
<!-- Node9&#45;&gt;Node4 -->
<g id="edge18" class="edge"><title>Node9&#45;&gt;Node4</title>
<path fill="none" stroke="midnightblue" d="M350.829,-164.429C332.417,-156.362 309.057,-144.985 290,-132 264.865,-114.874 239.583,-89.2457 227.067,-75.8606"/>
<polygon fill="midnightblue" stroke="midnightblue" points="349.652,-167.732 360.223,-168.447 352.406,-161.296 349.652,-167.732"/>
</g>
<!-- Node9&#45;&gt;Node5 -->
<g id="edge21" class="edge"><title>Node9&#45;&gt;Node5</title>
<path fill="none" stroke="midnightblue" d="M369.176,-160.298C350.842,-136.625 315.832,-92.1677 284,-56 272.577,-43.0214 258.636,-28.6879 249.787,-19.7629"/>
<polygon fill="midnightblue" stroke="midnightblue" points="366.464,-162.514 375.344,-168.293 372.006,-158.237 366.464,-162.514"/>
</g>
<!-- Node9&#45;&gt;Node6 -->
<g id="edge24" class="edge"><title>Node9&#45;&gt;Node6</title>
<path fill="none" stroke="midnightblue" d="M371.721,-159.626C367.507,-151.524 363.124,-141.574 361,-132 353.684,-99.024 348.249,-87.2787 361,-56 367.269,-40.6205 381.606,-27.6399 392.219,-19.6314"/>
<polygon fill="midnightblue" stroke="midnightblue" points="368.702,-161.399 376.616,-168.443 374.822,-158.001 368.702,-161.399"/>
</g>
<!-- Node10 -->
<g id="node10" class="node"><title>Node10</title>
<g id="a_node10"><a xlink:href="../../de/d79/a00203.html" target="_top" xlink:title="CalibrationRunner.h">
<polygon fill="white" stroke="black" points="370.5,-112.5 370.5,-131.5 473.5,-131.5 473.5,-112.5 370.5,-112.5"/>
<text text-anchor="middle" x="422" y="-119.5" font-family="Helvetica,sans-Serif" font-size="10.00">CalibrationRunner.h</text>
</a>
</g>
</g>
<!-- Node9&#45;&gt;Node10 -->
<g id="edge10" class="edge"><title>Node9&#45;&gt;Node10</title>
<path fill="none" stroke="midnightblue" d="M394.7,-159.855C401.626,-150.505 409.906,-139.327 415.518,-131.751"/>
<polygon fill="midnightblue" stroke="midnightblue" points="391.745,-157.964 388.605,-168.083 397.37,-162.131 391.745,-157.964"/>
</g>
<!-- Node11 -->
<g id="node11" class="node"><title>Node11</title>
<g id="a_node11"><a xlink:href="../../d0/d53/a00232.html" target="_top" xlink:title="ConfigFileCalibrationRunner.h">
<polygon fill="white" stroke="black" points="370.5,-56.5 370.5,-75.5 517.5,-75.5 517.5,-56.5 370.5,-56.5"/>
<text text-anchor="middle" x="444" y="-63.5" font-family="Helvetica,sans-Serif" font-size="10.00">ConfigFileCalibrationRunner.h</text>
</a>
</g>
</g>
<!-- Node9&#45;&gt;Node11 -->
<g id="edge20" class="edge"><title>Node9&#45;&gt;Node11</title>
<path fill="none" stroke="midnightblue" d="M418.923,-165.121C444.266,-156.135 474.608,-143.432 482,-132 494.776,-112.242 470.799,-88.1334 455.437,-75.5606"/>
<polygon fill="midnightblue" stroke="midnightblue" points="417.47,-161.92 409.16,-168.492 419.755,-168.537 417.47,-161.92"/>
</g>
<!-- Node12 -->
<g id="node12" class="node"><title>Node12</title>
<g id="a_node12"><a xlink:href="../../d0/dc3/a00354.html" target="_top" xlink:title="main.cpp">
<polygon fill="white" stroke="black" points="569,-0.5 569,-19.5 625,-19.5 625,-0.5 569,-0.5"/>
<text text-anchor="middle" x="597" y="-7.5" font-family="Helvetica,sans-Serif" font-size="10.00">main.cpp</text>
</a>
</g>
</g>
<!-- Node9&#45;&gt;Node12 -->
<g id="edge22" class="edge"><title>Node9&#45;&gt;Node12</title>
<path fill="none" stroke="midnightblue" d="M422.244,-165.613C497.402,-143.942 652.823,-97.053 667,-76 683.025,-52.2022 645.424,-30.8844 619.357,-19.5627"/>
<polygon fill="midnightblue" stroke="midnightblue" points="420.84,-162.375 412.194,-168.499 422.772,-169.103 420.84,-162.375"/>
</g>
<!-- Node13 -->
<g id="node13" class="node"><title>Node13</title>
<g id="a_node13"><a xlink:href="../../df/d70/a00431.html" target="_top" xlink:title="TestCalibrationRunner.h">
<polygon fill="white" stroke="black" points="536,-56.5 536,-75.5 658,-75.5 658,-56.5 536,-56.5"/>
<text text-anchor="middle" x="597" y="-63.5" font-family="Helvetica,sans-Serif" font-size="10.00">TestCalibrationRunner.h</text>
</a>
</g>
</g>
<!-- Node9&#45;&gt;Node13 -->
<g id="edge23" class="edge"><title>Node9&#45;&gt;Node13</title>
<path fill="none" stroke="midnightblue" d="M418.456,-165.087C441.747,-156.938 472.29,-145.239 498,-132 531.452,-114.775 567.667,-88.961 585.601,-75.6399"/>
<polygon fill="midnightblue" stroke="midnightblue" points="417.272,-161.793 408.954,-168.356 419.549,-168.412 417.272,-161.793"/>
</g>
<!-- Node14 -->
<g id="node14" class="node"><title>Node14</title>
<g id="a_node14"><a xlink:href="../../d1/d72/a00204.html" target="_top" xlink:title="Calibrator.cpp">
<polygon fill="white" stroke="black" points="714.5,-112.5 714.5,-131.5 791.5,-131.5 791.5,-112.5 714.5,-112.5"/>
<text text-anchor="middle" x="753" y="-119.5" font-family="Helvetica,sans-Serif" font-size="10.00">Calibrator.cpp</text>
</a>
</g>
</g>
<!-- Node9&#45;&gt;Node14 -->
<g id="edge19" class="edge"><title>Node9&#45;&gt;Node14</title>
<path fill="none" stroke="midnightblue" d="M425.896,-167.968C548.253,-147.5 581.318,-149.838 700,-132 704.615,-131.306 709.449,-130.54 714.24,-129.757"/>
<polygon fill="midnightblue" stroke="midnightblue" points="425.032,-164.564 415.755,-169.682 426.198,-171.466 425.032,-164.564"/>
</g>
<!-- Node10&#45;&gt;Node4 -->
<g id="edge11" class="edge"><title>Node10&#45;&gt;Node4</title>
<path fill="none" stroke="midnightblue" d="M380.006,-109.829C341.677,-99.6333 285.848,-84.7823 251.015,-75.5164"/>
<polygon fill="midnightblue" stroke="midnightblue" points="379.27,-113.255 389.834,-112.444 381.07,-106.49 379.27,-113.255"/>
</g>
<!-- Node10&#45;&gt;Node11 -->
<g id="edge12" class="edge"><title>Node10&#45;&gt;Node11</title>
<path fill="none" stroke="midnightblue" d="M429.46,-102.69C433.167,-93.589 437.476,-83.0141 440.435,-75.7511"/>
<polygon fill="midnightblue" stroke="midnightblue" points="426.165,-101.502 425.633,-112.083 432.647,-104.143 426.165,-101.502"/>
</g>
<!-- Node10&#45;&gt;Node13 -->
<g id="edge15" class="edge"><title>Node10&#45;&gt;Node13</title>
<path fill="none" stroke="midnightblue" d="M459.475,-109.436C492.47,-99.2551 539.756,-84.664 569.4,-75.5164"/>
<polygon fill="midnightblue" stroke="midnightblue" points="458.253,-106.151 449.729,-112.444 460.317,-112.839 458.253,-106.151"/>
</g>
<!-- Node11&#45;&gt;Node5 -->
<g id="edge13" class="edge"><title>Node11&#45;&gt;Node5</title>
<path fill="none" stroke="midnightblue" d="M402.006,-53.8291C363.677,-43.6333 307.848,-28.7823 273.015,-19.5164"/>
<polygon fill="midnightblue" stroke="midnightblue" points="401.27,-57.2551 411.834,-56.4435 403.07,-50.4904 401.27,-57.2551"/>
</g>
<!-- Node11&#45;&gt;Node12 -->
<g id="edge14" class="edge"><title>Node11&#45;&gt;Node12</title>
<path fill="none" stroke="midnightblue" d="M477.889,-53.0392C506.677,-42.8786 547.287,-28.5457 572.87,-19.5164"/>
<polygon fill="midnightblue" stroke="midnightblue" points="476.508,-49.8148 468.243,-56.4435 478.838,-56.4157 476.508,-49.8148"/>
</g>
<!-- Node13&#45;&gt;Node6 -->
<g id="edge17" class="edge"><title>Node13&#45;&gt;Node6</title>
<path fill="none" stroke="midnightblue" d="M556.817,-53.6986C520.581,-43.507 468.086,-28.7429 435.281,-19.5164"/>
<polygon fill="midnightblue" stroke="midnightblue" points="556.003,-57.1053 566.577,-56.4435 557.898,-50.3667 556.003,-57.1053"/>
</g>
<!-- Node13&#45;&gt;Node12 -->
<g id="edge16" class="edge"><title>Node13&#45;&gt;Node12</title>
<path fill="none" stroke="midnightblue" d="M597,-45.8045C597,-36.9102 597,-26.7798 597,-19.7511"/>
<polygon fill="midnightblue" stroke="midnightblue" points="593.5,-46.083 597,-56.083 600.5,-46.083 593.5,-46.083"/>
</g>
</g>
</svg>
