<?xml version="1.0" encoding="UTF-8" standalone="no"?>
<!DOCTYPE svg PUBLIC "-//W3C//DTD SVG 1.1//EN"
 "http://www.w3.org/Graphics/SVG/1.1/DTD/svg11.dtd">
<!-- Generated by graphviz version 2.36.0 (20140111.2315)
 -->
<!-- Title: stride::viewers::SummaryViewer Pages: 1 -->
<!--zoomable 742 -->
<svg id="main" version="1.1" xmlns="http://www.w3.org/2000/svg" xmlns:xlink="http://www.w3.org/1999/xlink" xml:space="preserve" onload="init(evt)">
<style type="text/css"><![CDATA[
.edge:hover path { stroke: red; }
.edge:hover polygon { stroke: red; fill: red; }
]]></style>
<script type="text/javascript"><![CDATA[
var edges = document.getElementsByTagName('g');
if (edges && edges.length) {
  for (var i=0;i<edges.length;i++) {
    if (edges[i].id.substr(0,4)=='edge') {
      edges[i].setAttribute('class','edge');
    }
  }
}
]]></script>
        <defs>
                <circle id="rim" cx="0" cy="0" r="7"/>
                <circle id="rim2" cx="0" cy="0" r="3.5"/>
                <g id="zoomPlus">
                        <use xlink:href="#rim" fill="#404040">
                                <set attributeName="fill" to="#808080" begin="zoomplus.mouseover" end="zoomplus.mouseout"/>
                        </use>
                        <path d="M-4,0h8M0,-4v8" fill="none" stroke="white" stroke-width="1.5" pointer-events="none"/>
                </g>
                <g id="zoomMin">
                        <use xlink:href="#rim" fill="#404040">
                                <set attributeName="fill" to="#808080" begin="zoomminus.mouseover" end="zoomminus.mouseout"/>
                        </use>
                        <path d="M-4,0h8" fill="none" stroke="white" stroke-width="1.5" pointer-events="none"/>
                </g>
                <g id="dirArrow">
                        <path fill="none" stroke="white" stroke-width="1.5" d="M0,-3.0v7 M-2.5,-0.5L0,-3.0L2.5,-0.5"/>
                </g>
               <g id="resetDef">
                       <use xlink:href="#rim2" fill="#404040">
                               <set attributeName="fill" to="#808080" begin="reset.mouseover" end="reset.mouseout"/>
                       </use>
               </g>
        </defs>

<script type="text/javascript">
var viewWidth = 257;
var viewHeight = 742;
var sectionId = 'dynsection-0';
</script>
<script xlink:href="../../svgpan.js"/>
<svg id="graph" class="graph">
<g id="viewport">
<title>stride::viewers::SummaryViewer</title>
<polygon fill="white" stroke="none" points="-4,4 -4,-738 253,-738 253,4 -4,4"/>
<!-- Node1 -->
<g id="node1" class="node"><title>Node1</title>
<polygon fill="#bfbfbf" stroke="black" points="87,-0.5 87,-79.5 215,-79.5 215,-0.5 87,-0.5"/>
<text text-anchor="start" x="95" y="-67.5" font-family="Helvetica,sans-Serif" font-size="10.00">stride::viewers::Summary</text>
<text text-anchor="middle" x="151" y="-56.5" font-family="Helvetica,sans-Serif" font-size="10.00">Viewer</text>
<polyline fill="none" stroke="black" points="87,-49.5 215,-49.5 "/>
<text text-anchor="middle" x="151" y="-37.5" font-family="Helvetica,sans-Serif" font-size="10.00"> </text>
<polyline fill="none" stroke="black" points="87,-30.5 215,-30.5 "/>
<text text-anchor="start" x="95" y="-18.5" font-family="Helvetica,sans-Serif" font-size="10.00">+ SummaryViewer()</text>
<text text-anchor="start" x="95" y="-7.5" font-family="Helvetica,sans-Serif" font-size="10.00">+ Update()</text>
</g>
<!-- Node2 -->
<g id="node2" class="node"><title>Node2</title>
<g id="a_node2"><a xlink:href="../../d0/d5e/a00136.html" target="_top" xlink:title="Produces a file with simulation summary output. ">
<polygon fill="white" stroke="black" points="-0.5,-129 -0.5,-219 136.5,-219 136.5,-129 -0.5,-129"/>
<text text-anchor="middle" x="68" y="-207" font-family="Helvetica,sans-Serif" font-size="10.00">stride::output::SummaryFile</text>
<polyline fill="none" stroke="black" points="-0.5,-200 136.5,-200 "/>
<text text-anchor="middle" x="68" y="-188" font-family="Helvetica,sans-Serif" font-size="10.00"> </text>
<polyline fill="none" stroke="black" points="-0.5,-181 136.5,-181 "/>
<text text-anchor="start" x="7.5" y="-169" font-family="Helvetica,sans-Serif" font-size="10.00">+ SummaryFile()</text>
<text text-anchor="start" x="7.5" y="-158" font-family="Helvetica,sans-Serif" font-size="10.00">+ ~SummaryFile()</text>
<text text-anchor="start" x="7.5" y="-147" font-family="Helvetica,sans-Serif" font-size="10.00">+ Print()</text>
<text text-anchor="start" x="7.5" y="-136" font-family="Helvetica,sans-Serif" font-size="10.00">&#45; Initialize()</text>
</a>
</g>
</g>
<!-- Node2&#45;&gt;Node1 -->
<g id="edge1" class="edge"><title>Node2&#45;&gt;Node1</title>
<path fill="none" stroke="#404040" d="M76.7021,-128.892C79.9135,-118.301 84.2334,-107.357 90,-98 91.9154,-94.8921 94.0443,-91.8439 96.3263,-88.8739"/>
<polygon fill="none" stroke="#404040" points="96.3374,-88.8607 97.1379,-81.6941 104.061,-79.6767 103.261,-86.8432 96.3374,-88.8607"/>
<text text-anchor="middle" x="129.5" y="-101.5" font-family="Helvetica,sans-Serif" font-size="10.00"> &#45;m_summary_file</text>
</g>
<!-- Node3 -->
<g id="node3" class="node"><title>Node3</title>
<g id="a_node3"><a xlink:title="STL class. ">
<polygon fill="white" stroke="#bfbfbf" points="31,-268.5 31,-325.5 105,-325.5 105,-268.5 31,-268.5"/>
<text text-anchor="middle" x="68" y="-313.5" font-family="Helvetica,sans-Serif" font-size="10.00">std::ofstream</text>
<polyline fill="none" stroke="#bfbfbf" points="31,-306.5 105,-306.5 "/>
<text text-anchor="middle" x="68" y="-294.5" font-family="Helvetica,sans-Serif" font-size="10.00"> </text>
<polyline fill="none" stroke="#bfbfbf" points="31,-287.5 105,-287.5 "/>
<text text-anchor="middle" x="68" y="-275.5" font-family="Helvetica,sans-Serif" font-size="10.00"> </text>
</a>
</g>
</g>
<!-- Node3&#45;&gt;Node2 -->
<g id="edge2" class="edge"><title>Node3&#45;&gt;Node2</title>
<path fill="none" stroke="#404040" d="M68,-268.24C68,-257.242 68,-244.179 68,-231.364"/>
<polygon fill="none" stroke="#404040" points="68.0001,-231.23 64,-225.23 68,-219.23 72,-225.23 68.0001,-231.23"/>
<text text-anchor="middle" x="94.5" y="-241.5" font-family="Helvetica,sans-Serif" font-size="10.00"> &#45;m_fstream</text>
</g>
<!-- Node4 -->
<g id="node4" class="node"><title>Node4</title>
<g id="a_node4"><a xlink:title="STL class. ">
<polygon fill="white" stroke="#bfbfbf" points="16.5,-365 16.5,-433 119.5,-433 119.5,-365 16.5,-365"/>
<text text-anchor="start" x="24.5" y="-421" font-family="Helvetica,sans-Serif" font-size="10.00">std::basic_ofstream</text>
<text text-anchor="middle" x="68" y="-410" font-family="Helvetica,sans-Serif" font-size="10.00">&lt; char &gt;</text>
<polyline fill="none" stroke="#bfbfbf" points="16.5,-403 119.5,-403 "/>
<text text-anchor="middle" x="68" y="-391" font-family="Helvetica,sans-Serif" font-size="10.00"> </text>
<polyline fill="none" stroke="#bfbfbf" points="16.5,-384 119.5,-384 "/>
<text text-anchor="middle" x="68" y="-372" font-family="Helvetica,sans-Serif" font-size="10.00"> </text>
</a>
</g>
</g>
<!-- Node4&#45;&gt;Node3 -->
<g id="edge3" class="edge"><title>Node4&#45;&gt;Node3</title>
<path fill="none" stroke="midnightblue" d="M68,-354.857C68,-344.952 68,-334.682 68,-325.64"/>
<polygon fill="none" stroke="midnightblue" points="64.5001,-354.979 68,-364.979 71.5001,-354.979 64.5001,-354.979"/>
</g>
<!-- Node5 -->
<g id="node5" class="node"><title>Node5</title>
<g id="a_node5"><a xlink:title="STL class. ">
<polygon fill="white" stroke="#bfbfbf" points="18,-473 18,-541 118,-541 118,-473 18,-473"/>
<text text-anchor="start" x="26" y="-529" font-family="Helvetica,sans-Serif" font-size="10.00">std::basic_ostream</text>
<text text-anchor="middle" x="68" y="-518" font-family="Helvetica,sans-Serif" font-size="10.00">&lt; Char &gt;</text>
<polyline fill="none" stroke="#bfbfbf" points="18,-511 118,-511 "/>
<text text-anchor="middle" x="68" y="-499" font-family="Helvetica,sans-Serif" font-size="10.00"> </text>
<polyline fill="none" stroke="#bfbfbf" points="18,-492 118,-492 "/>
<text text-anchor="middle" x="68" y="-480" font-family="Helvetica,sans-Serif" font-size="10.00"> </text>
</a>
</g>
</g>
<!-- Node5&#45;&gt;Node4 -->
<g id="edge4" class="edge"><title>Node5&#45;&gt;Node4</title>
<path fill="none" stroke="midnightblue" d="M68,-462.696C68,-452.828 68,-442.495 68,-433.13"/>
<polygon fill="none" stroke="midnightblue" points="64.5001,-462.752 68,-472.752 71.5001,-462.752 64.5001,-462.752"/>
</g>
<!-- Node6 -->
<g id="node6" class="node"><title>Node6</title>
<g id="a_node6"><a xlink:title="STL class. ">
<polygon fill="white" stroke="#bfbfbf" points="10,-580.5 10,-637.5 126,-637.5 126,-580.5 10,-580.5"/>
<text text-anchor="middle" x="68" y="-625.5" font-family="Helvetica,sans-Serif" font-size="10.00">std::basic_ios&lt; Char &gt;</text>
<polyline fill="none" stroke="#bfbfbf" points="10,-618.5 126,-618.5 "/>
<text text-anchor="middle" x="68" y="-606.5" font-family="Helvetica,sans-Serif" font-size="10.00"> </text>
<polyline fill="none" stroke="#bfbfbf" points="10,-599.5 126,-599.5 "/>
<text text-anchor="middle" x="68" y="-587.5" font-family="Helvetica,sans-Serif" font-size="10.00"> </text>
</a>
</g>
</g>
<!-- Node6&#45;&gt;Node5 -->
<g id="edge5" class="edge"><title>Node6&#45;&gt;Node5</title>
<path fill="none" stroke="midnightblue" d="M68,-570.337C68,-560.755 68,-550.528 68,-541.187"/>
<polygon fill="none" stroke="midnightblue" points="64.5001,-570.41 68,-580.41 71.5001,-570.41 64.5001,-570.41"/>
</g>
<!-- Node7 -->
<g id="node7" class="node"><title>Node7</title>
<g id="a_node7"><a xlink:title="STL class. ">
<polygon fill="white" stroke="#bfbfbf" points="30.5,-676.5 30.5,-733.5 105.5,-733.5 105.5,-676.5 30.5,-676.5"/>
<text text-anchor="middle" x="68" y="-721.5" font-family="Helvetica,sans-Serif" font-size="10.00">std::ios_base</text>
<polyline fill="none" stroke="#bfbfbf" points="30.5,-714.5 105.5,-714.5 "/>
<text text-anchor="middle" x="68" y="-702.5" font-family="Helvetica,sans-Serif" font-size="10.00"> </text>
<polyline fill="none" stroke="#bfbfbf" points="30.5,-695.5 105.5,-695.5 "/>
<text text-anchor="middle" x="68" y="-683.5" font-family="Helvetica,sans-Serif" font-size="10.00"> </text>
</a>
</g>
</g>
<!-- Node7&#45;&gt;Node6 -->
<g id="edge6" class="edge"><title>Node7&#45;&gt;Node6</title>
<path fill="none" stroke="midnightblue" d="M68,-666.277C68,-656.772 68,-646.741 68,-637.822"/>
<polygon fill="none" stroke="midnightblue" points="64.5001,-666.305 68,-676.305 71.5001,-666.305 64.5001,-666.305"/>
</g>
<!-- Node8 -->
<g id="node8" class="node"><title>Node8</title>
<polygon fill="white" stroke="#bfbfbf" points="154.5,-140 154.5,-208 249.5,-208 249.5,-140 154.5,-140"/>
<text text-anchor="start" x="162.5" y="-196" font-family="Helvetica,sans-Serif" font-size="10.00">shared_ptr&lt; stride</text>
<text text-anchor="middle" x="202" y="-185" font-family="Helvetica,sans-Serif" font-size="10.00">::SimRunner &gt;</text>
<polyline fill="none" stroke="#bfbfbf" points="154.5,-178 249.5,-178 "/>
<text text-anchor="middle" x="202" y="-166" font-family="Helvetica,sans-Serif" font-size="10.00"> </text>
<polyline fill="none" stroke="#bfbfbf" points="154.5,-159 249.5,-159 "/>
<text text-anchor="middle" x="202" y="-147" font-family="Helvetica,sans-Serif" font-size="10.00"> </text>
</g>
<!-- Node8&#45;&gt;Node1 -->
<g id="edge7" class="edge"><title>Node8&#45;&gt;Node1</title>
<path fill="none" stroke="#404040" d="M189.131,-139.691C183.479,-125.064 176.721,-107.571 170.474,-91.4027"/>
<polygon fill="none" stroke="#404040" points="170.364,-91.1174 164.47,-86.9622 166.039,-79.9238 171.932,-84.079 170.364,-91.1174"/>
<text text-anchor="middle" x="199.5" y="-101.5" font-family="Helvetica,sans-Serif" font-size="10.00"> &#45;m_runner</text>
</g>
</g>
</svg>
        <g id="navigator" transform="translate(0 0)" fill="#404254">
                <rect fill="#f2f5e9" fill-opacity="0.5" stroke="#606060" stroke-width=".5" x="0" y="0" width="60" height="60"/>
                <use id="zoomplus" xlink:href="#zoomPlus" x="17" y="9" onmousedown="handleZoom(evt,'in')"/>
                <use id="zoomminus" xlink:href="#zoomMin" x="42" y="9" onmousedown="handleZoom(evt,'out')"/>
                <use id="reset" xlink:href="#resetDef" x="30" y="36" onmousedown="handleReset()"/>
                <g id="arrowUp" xlink:href="#dirArrow" transform="translate(30 24)" onmousedown="handlePan(0,-1)">
                  <use xlink:href="#rim" fill="#404040">
                        <set attributeName="fill" to="#808080" begin="arrowUp.mouseover" end="arrowUp.mouseout"/>
                  </use>
                  <path fill="none" stroke="white" stroke-width="1.5" d="M0,-3.0v7 M-2.5,-0.5L0,-3.0L2.5,-0.5"/>
                </g>
                <g id="arrowRight" xlink:href="#dirArrow" transform="rotate(90) translate(36 -43)" onmousedown="handlePan(1,0)">
                  <use xlink:href="#rim" fill="#404040">
                        <set attributeName="fill" to="#808080" begin="arrowRight.mouseover" end="arrowRight.mouseout"/>
                  </use>
                  <path fill="none" stroke="white" stroke-width="1.5" d="M0,-3.0v7 M-2.5,-0.5L0,-3.0L2.5,-0.5"/>
                </g>
                <g id="arrowDown" xlink:href="#dirArrow" transform="rotate(180) translate(-30 -48)" onmousedown="handlePan(0,1)">
                  <use xlink:href="#rim" fill="#404040">
                        <set attributeName="fill" to="#808080" begin="arrowDown.mouseover" end="arrowDown.mouseout"/>
                  </use>
                  <path fill="none" stroke="white" stroke-width="1.5" d="M0,-3.0v7 M-2.5,-0.5L0,-3.0L2.5,-0.5"/>
                </g>
                <g id="arrowLeft" xlink:href="#dirArrow" transform="rotate(270) translate(-36 17)" onmousedown="handlePan(-1,0)">
                  <use xlink:href="#rim" fill="#404040">
                        <set attributeName="fill" to="#808080" begin="arrowLeft.mouseover" end="arrowLeft.mouseout"/>
                  </use>
                  <path fill="none" stroke="white" stroke-width="1.5" d="M0,-3.0v7 M-2.5,-0.5L0,-3.0L2.5,-0.5"/>
                </g>
        </g>
        <svg viewBox="0 0 15 15" width="100%" height="30px" preserveAspectRatio="xMaxYMin meet">
         <g id="arrow_out" transform="scale(0.3 0.3)">
          <a xlink:href="a01355_org.svg" target="_base">
           <rect id="button" ry="5" rx="5" y="6" x="6" height="38" width="38"
                fill="#f2f5e9" fill-opacity="0.5" stroke="#606060" stroke-width="1.0"/>
           <path id="arrow"
             d="M 11.500037,31.436501 C 11.940474,20.09759 22.043105,11.32322 32.158766,21.979434 L 37.068811,17.246167 C 37.068811,17.246167 37.088388,32 37.088388,32 L 22.160133,31.978069 C 22.160133,31.978069 26.997745,27.140456 26.997745,27.140456 C 18.528582,18.264221 13.291696,25.230495 11.500037,31.436501 z"
             style="fill:#404040;"/>
          </a>
         </g>
        </svg>
</svg>
