<?xml version="1.0" encoding="UTF-8" standalone="no"?>
<!DOCTYPE svg PUBLIC "-//W3C//DTD SVG 1.1//EN"
 "http://www.w3.org/Graphics/SVG/1.1/DTD/svg11.dtd">
<!-- Generated by graphviz version 2.36.0 (20140111.2315)
 -->
<!-- Title: FileSys.cpp Pages: 1 -->
<svg width="1074pt" height="164pt"
 viewBox="0.00 0.00 1074.00 164.00" xmlns="http://www.w3.org/2000/svg" xmlns:xlink="http://www.w3.org/1999/xlink">
<g id="graph0" class="graph" transform="scale(1 1) rotate(0) translate(4 160)">
<title>FileSys.cpp</title>
<polygon fill="white" stroke="none" points="-4,4 -4,-160 1070,-160 1070,4 -4,4"/>
<!-- Node1 -->
<g id="node1" class="node"><title>Node1</title>
<polygon fill="#bfbfbf" stroke="black" points="737,-136.5 737,-155.5 805,-155.5 805,-136.5 737,-136.5"/>
<text text-anchor="middle" x="771" y="-143.5" font-family="Helvetica,sans-Serif" font-size="10.00">FileSys.cpp</text>
</g>
<!-- Node2 -->
<g id="node2" class="node"><title>Node2</title>
<g id="a_node2"><a xlink:href="../../df/da9/a00263.html" target="_top" xlink:title="Interface for install directory queries. ">
<polygon fill="white" stroke="black" points="342,-74.5 342,-93.5 400,-93.5 400,-74.5 342,-74.5"/>
<text text-anchor="middle" x="371" y="-81.5" font-family="Helvetica,sans-Serif" font-size="10.00">FileSys.h</text>
</a>
</g>
</g>
<!-- Node1&#45;&gt;Node2 -->
<g id="edge1" class="edge"><title>Node1&#45;&gt;Node2</title>
<path fill="none" stroke="midnightblue" d="M736.896,-139.884C662.945,-128.792 488.212,-102.582 410.015,-90.8523"/>
<polygon fill="midnightblue" stroke="midnightblue" points="410.493,-87.3848 400.084,-89.3626 409.454,-94.3074 410.493,-87.3848"/>
</g>
<!-- Node7 -->
<g id="node7" class="node"><title>Node7</title>
<polygon fill="white" stroke="#bfbfbf" points="467.5,-6.5 467.5,-25.5 508.5,-25.5 508.5,-6.5 467.5,-6.5"/>
<text text-anchor="middle" x="488" y="-13.5" font-family="Helvetica,sans-Serif" font-size="10.00">string</text>
</g>
<!-- Node1&#45;&gt;Node7 -->
<g id="edge18" class="edge"><title>Node1&#45;&gt;Node7</title>
<path fill="none" stroke="midnightblue" d="M750.73,-136.462C707.444,-118.126 602.916,-73.2872 517,-32 515.822,-31.4338 514.62,-30.8478 513.41,-30.2503"/>
<polygon fill="midnightblue" stroke="midnightblue" points="514.677,-26.9691 504.174,-25.5787 511.517,-33.2155 514.677,-26.9691"/>
</g>
<!-- Node8 -->
<g id="node8" class="node"><title>Node8</title>
<g id="a_node8"><a xlink:href="../../de/de8/a00405.html" target="_top" xlink:title="Miscellaneous string utilities. ">
<polygon fill="white" stroke="black" points="728,-74.5 728,-93.5 814,-93.5 814,-74.5 728,-74.5"/>
<text text-anchor="middle" x="771" y="-81.5" font-family="Helvetica,sans-Serif" font-size="10.00">util/StringUtils.h</text>
</a>
</g>
</g>
<!-- Node1&#45;&gt;Node8 -->
<g id="edge7" class="edge"><title>Node1&#45;&gt;Node8</title>
<path fill="none" stroke="midnightblue" d="M771,-136.403C771,-127.938 771,-114.728 771,-103.82"/>
<polygon fill="midnightblue" stroke="midnightblue" points="774.5,-103.581 771,-93.5806 767.5,-103.581 774.5,-103.581"/>
</g>
<!-- Node13 -->
<g id="node13" class="node"><title>Node13</title>
<polygon fill="white" stroke="#bfbfbf" points="1012,-6.5 1012,-25.5 1066,-25.5 1066,-6.5 1012,-6.5"/>
<text text-anchor="middle" x="1039" y="-13.5" font-family="Helvetica,sans-Serif" font-size="10.00">iostream</text>
</g>
<!-- Node1&#45;&gt;Node13 -->
<g id="edge17" class="edge"><title>Node1&#45;&gt;Node13</title>
<path fill="none" stroke="midnightblue" d="M780.819,-136.487C803.383,-116.954 857.358,-70.399 862,-68 919.076,-38.5049 940.983,-52.1136 1002,-32 1004.57,-31.1544 1007.21,-30.2186 1009.84,-29.2398"/>
<polygon fill="midnightblue" stroke="midnightblue" points="1011.16,-32.4813 1019.21,-25.59 1008.62,-25.9588 1011.16,-32.4813"/>
</g>
<!-- Node16 -->
<g id="node16" class="node"><title>Node16</title>
<polygon fill="white" stroke="#bfbfbf" points="870.5,-69 870.5,-99 971.5,-99 971.5,-69 870.5,-69"/>
<text text-anchor="start" x="878.5" y="-87" font-family="Helvetica,sans-Serif" font-size="10.00">boost/property_tree</text>
<text text-anchor="middle" x="921" y="-76" font-family="Helvetica,sans-Serif" font-size="10.00">/xml_parser.hpp</text>
</g>
<!-- Node1&#45;&gt;Node16 -->
<g id="edge16" class="edge"><title>Node1&#45;&gt;Node16</title>
<path fill="none" stroke="midnightblue" d="M792.491,-136.403C814.303,-127.679 848.714,-113.914 876.44,-102.824"/>
<polygon fill="midnightblue" stroke="midnightblue" points="877.952,-105.989 885.937,-99.0253 875.352,-99.4896 877.952,-105.989"/>
</g>
<!-- Node3 -->
<g id="node3" class="node"><title>Node3</title>
<polygon fill="white" stroke="#bfbfbf" points="-0.5,-6.5 -0.5,-25.5 106.5,-25.5 106.5,-6.5 -0.5,-6.5"/>
<text text-anchor="middle" x="53" y="-13.5" font-family="Helvetica,sans-Serif" font-size="10.00">boost/filesystem.hpp</text>
</g>
<!-- Node2&#45;&gt;Node3 -->
<g id="edge2" class="edge"><title>Node2&#45;&gt;Node3</title>
<path fill="none" stroke="midnightblue" d="M341.741,-77.5727C294.105,-68.6466 196.872,-50.0512 115,-32 109.18,-30.7169 103.068,-29.3104 97.0426,-27.8891"/>
<polygon fill="midnightblue" stroke="midnightblue" points="97.5919,-24.4219 87.0523,-25.5024 95.9653,-31.2303 97.5919,-24.4219"/>
</g>
<!-- Node4 -->
<g id="node4" class="node"><title>Node4</title>
<polygon fill="white" stroke="#bfbfbf" points="124.5,-6.5 124.5,-25.5 253.5,-25.5 253.5,-6.5 124.5,-6.5"/>
<text text-anchor="middle" x="189" y="-13.5" font-family="Helvetica,sans-Serif" font-size="10.00">boost/filesystem/path.hpp</text>
</g>
<!-- Node2&#45;&gt;Node4 -->
<g id="edge3" class="edge"><title>Node2&#45;&gt;Node4</title>
<path fill="none" stroke="midnightblue" d="M347.207,-74.3717C315.236,-62.7779 258.26,-42.1162 222.115,-29.0087"/>
<polygon fill="midnightblue" stroke="midnightblue" points="223.105,-25.6447 212.511,-25.5259 220.718,-32.2254 223.105,-25.6447"/>
</g>
<!-- Node5 -->
<g id="node5" class="node"><title>Node5</title>
<polygon fill="white" stroke="#bfbfbf" points="271.5,-1 271.5,-31 372.5,-31 372.5,-1 271.5,-1"/>
<text text-anchor="start" x="279.5" y="-19" font-family="Helvetica,sans-Serif" font-size="10.00">boost/property_tree</text>
<text text-anchor="middle" x="322" y="-8" font-family="Helvetica,sans-Serif" font-size="10.00">/ptree.hpp</text>
</g>
<!-- Node2&#45;&gt;Node5 -->
<g id="edge4" class="edge"><title>Node2&#45;&gt;Node5</title>
<path fill="none" stroke="midnightblue" d="M364.594,-74.3717C358.039,-65.5429 347.581,-51.4557 338.668,-39.4503"/>
<polygon fill="midnightblue" stroke="midnightblue" points="341.3,-37.1242 332.529,-31.1815 335.68,-41.2969 341.3,-37.1242"/>
</g>
<!-- Node6 -->
<g id="node6" class="node"><title>Node6</title>
<polygon fill="white" stroke="#bfbfbf" points="390.5,-6.5 390.5,-25.5 449.5,-25.5 449.5,-6.5 390.5,-6.5"/>
<text text-anchor="middle" x="420" y="-13.5" font-family="Helvetica,sans-Serif" font-size="10.00">functional</text>
</g>
<!-- Node2&#45;&gt;Node6 -->
<g id="edge5" class="edge"><title>Node2&#45;&gt;Node6</title>
<path fill="none" stroke="midnightblue" d="M377.406,-74.3717C384.994,-64.1512 397.813,-46.884 407.411,-33.9571"/>
<polygon fill="midnightblue" stroke="midnightblue" points="410.285,-35.9566 413.436,-25.8411 404.665,-31.7839 410.285,-35.9566"/>
</g>
<!-- Node2&#45;&gt;Node7 -->
<g id="edge6" class="edge"><title>Node2&#45;&gt;Node7</title>
<path fill="none" stroke="midnightblue" d="M386.296,-74.3717C406.003,-63.2545 440.491,-43.7997 463.78,-30.6624"/>
<polygon fill="midnightblue" stroke="midnightblue" points="465.71,-33.5922 472.701,-25.6305 462.271,-27.4953 465.71,-33.5922"/>
</g>
<!-- Node8&#45;&gt;Node7 -->
<g id="edge14" class="edge"><title>Node8&#45;&gt;Node7</title>
<path fill="none" stroke="midnightblue" d="M727.781,-78.06C676.44,-71.3458 588.717,-57.1875 517,-32 515.345,-31.4189 513.667,-30.7592 511.995,-30.0483"/>
<polygon fill="midnightblue" stroke="midnightblue" points="513.228,-26.7586 502.696,-25.6094 510.213,-33.0758 513.228,-26.7586"/>
</g>
<!-- Node9 -->
<g id="node9" class="node"><title>Node9</title>
<polygon fill="white" stroke="#bfbfbf" points="526.5,-6.5 526.5,-25.5 655.5,-25.5 655.5,-6.5 526.5,-6.5"/>
<text text-anchor="middle" x="591" y="-13.5" font-family="Helvetica,sans-Serif" font-size="10.00">boost/algorithm/string.hpp</text>
</g>
<!-- Node8&#45;&gt;Node9 -->
<g id="edge8" class="edge"><title>Node8&#45;&gt;Node9</title>
<path fill="none" stroke="midnightblue" d="M747.468,-74.3717C715.849,-62.7779 659.499,-42.1162 623.751,-29.0087"/>
<polygon fill="midnightblue" stroke="midnightblue" points="624.846,-25.6824 614.252,-25.5259 622.436,-32.2546 624.846,-25.6824"/>
</g>
<!-- Node10 -->
<g id="node10" class="node"><title>Node10</title>
<polygon fill="white" stroke="#bfbfbf" points="674,-6.5 674,-25.5 730,-25.5 730,-6.5 674,-6.5"/>
<text text-anchor="middle" x="702" y="-13.5" font-family="Helvetica,sans-Serif" font-size="10.00">algorithm</text>
</g>
<!-- Node8&#45;&gt;Node10 -->
<g id="edge9" class="edge"><title>Node8&#45;&gt;Node10</title>
<path fill="none" stroke="midnightblue" d="M761.979,-74.3717C750.986,-63.8564 732.195,-45.8819 718.57,-32.8496"/>
<polygon fill="midnightblue" stroke="midnightblue" points="720.889,-30.2241 711.243,-25.8411 716.05,-35.2826 720.889,-30.2241"/>
</g>
<!-- Node11 -->
<g id="node11" class="node"><title>Node11</title>
<polygon fill="white" stroke="#bfbfbf" points="748,-6.5 748,-25.5 794,-25.5 794,-6.5 748,-6.5"/>
<text text-anchor="middle" x="771" y="-13.5" font-family="Helvetica,sans-Serif" font-size="10.00">cctype</text>
</g>
<!-- Node8&#45;&gt;Node11 -->
<g id="edge10" class="edge"><title>Node8&#45;&gt;Node11</title>
<path fill="none" stroke="midnightblue" d="M771,-74.3717C771,-64.6426 771,-48.528 771,-35.8504"/>
<polygon fill="midnightblue" stroke="midnightblue" points="774.5,-35.8411 771,-25.8411 767.5,-35.8412 774.5,-35.8411"/>
</g>
<!-- Node12 -->
<g id="node12" class="node"><title>Node12</title>
<polygon fill="white" stroke="#bfbfbf" points="812,-6.5 812,-25.5 862,-25.5 862,-6.5 812,-6.5"/>
<text text-anchor="middle" x="837" y="-13.5" font-family="Helvetica,sans-Serif" font-size="10.00">iomanip</text>
</g>
<!-- Node8&#45;&gt;Node12 -->
<g id="edge11" class="edge"><title>Node8&#45;&gt;Node12</title>
<path fill="none" stroke="midnightblue" d="M779.628,-74.3717C790.045,-63.9547 807.783,-46.2173 820.784,-33.2162"/>
<polygon fill="midnightblue" stroke="midnightblue" points="823.563,-35.3871 828.159,-25.8411 818.613,-30.4373 823.563,-35.3871"/>
</g>
<!-- Node8&#45;&gt;Node13 -->
<g id="edge12" class="edge"><title>Node8&#45;&gt;Node13</title>
<path fill="none" stroke="midnightblue" d="M802.284,-74.4465C810.619,-72.2557 819.632,-69.9652 828,-68 904.879,-49.9448 926.431,-54.9289 1002,-32 1004.64,-31.1975 1007.36,-30.2811 1010.07,-29.3057"/>
<polygon fill="midnightblue" stroke="midnightblue" points="1011.58,-32.4747 1019.65,-25.6131 1009.06,-25.9428 1011.58,-32.4747"/>
</g>
<!-- Node14 -->
<g id="node14" class="node"><title>Node14</title>
<polygon fill="white" stroke="#bfbfbf" points="880,-6.5 880,-25.5 932,-25.5 932,-6.5 880,-6.5"/>
<text text-anchor="middle" x="906" y="-13.5" font-family="Helvetica,sans-Serif" font-size="10.00">sstream</text>
</g>
<!-- Node8&#45;&gt;Node14 -->
<g id="edge13" class="edge"><title>Node8&#45;&gt;Node14</title>
<path fill="none" stroke="midnightblue" d="M788.649,-74.3717C811.692,-63.1063 852.247,-43.2794 879.122,-30.1403"/>
<polygon fill="midnightblue" stroke="midnightblue" points="880.9,-33.167 888.347,-25.6305 877.826,-26.8783 880.9,-33.167"/>
</g>
<!-- Node15 -->
<g id="node15" class="node"><title>Node15</title>
<polygon fill="white" stroke="#bfbfbf" points="950,-6.5 950,-25.5 994,-25.5 994,-6.5 950,-6.5"/>
<text text-anchor="middle" x="972" y="-13.5" font-family="Helvetica,sans-Serif" font-size="10.00">vector</text>
</g>
<!-- Node8&#45;&gt;Node15 -->
<g id="edge15" class="edge"><title>Node8&#45;&gt;Node15</title>
<path fill="none" stroke="midnightblue" d="M801.611,-74.4509C843.238,-62.7161 915.442,-41.944 941,-32 942.647,-31.3591 944.327,-30.6662 946.011,-29.9418"/>
<polygon fill="midnightblue" stroke="midnightblue" points="947.857,-32.9457 955.484,-25.5924 944.936,-26.5842 947.857,-32.9457"/>
</g>
</g>
</svg>
