<?xml version="1.0" encoding="UTF-8" standalone="no"?>
<!DOCTYPE svg PUBLIC "-//W3C//DTD SVG 1.1//EN"
 "http://www.w3.org/Graphics/SVG/1.1/DTD/svg11.dtd">
<!-- Generated by graphviz version 2.36.0 (20140111.2315)
 -->
<!-- Title: FileSys.h Pages: 1 -->
<!--zoomable 84 -->
<svg id="main" version="1.1" xmlns="http://www.w3.org/2000/svg" xmlns:xlink="http://www.w3.org/1999/xlink" xml:space="preserve" onload="init(evt)">
<style type="text/css"><![CDATA[
.edge:hover path { stroke: red; }
.edge:hover polygon { stroke: red; fill: red; }
]]></style>
<script type="text/javascript"><![CDATA[
var edges = document.getElementsByTagName('g');
if (edges && edges.length) {
  for (var i=0;i<edges.length;i++) {
    if (edges[i].id.substr(0,4)=='edge') {
      edges[i].setAttribute('class','edge');
    }
  }
}
]]></script>
        <defs>
                <circle id="rim" cx="0" cy="0" r="7"/>
                <circle id="rim2" cx="0" cy="0" r="3.5"/>
                <g id="zoomPlus">
                        <use xlink:href="#rim" fill="#404040">
                                <set attributeName="fill" to="#808080" begin="zoomplus.mouseover" end="zoomplus.mouseout"/>
                        </use>
                        <path d="M-4,0h8M0,-4v8" fill="none" stroke="white" stroke-width="1.5" pointer-events="none"/>
                </g>
                <g id="zoomMin">
                        <use xlink:href="#rim" fill="#404040">
                                <set attributeName="fill" to="#808080" begin="zoomminus.mouseover" end="zoomminus.mouseout"/>
                        </use>
                        <path d="M-4,0h8" fill="none" stroke="white" stroke-width="1.5" pointer-events="none"/>
                </g>
                <g id="dirArrow">
                        <path fill="none" stroke="white" stroke-width="1.5" d="M0,-3.0v7 M-2.5,-0.5L0,-3.0L2.5,-0.5"/>
                </g>
               <g id="resetDef">
                       <use xlink:href="#rim2" fill="#404040">
                               <set attributeName="fill" to="#808080" begin="reset.mouseover" end="reset.mouseout"/>
                       </use>
               </g>
        </defs>

<script type="text/javascript">
var viewWidth = 2535;
var viewHeight = 84;
var sectionId = 'dynsection-1';
</script>
<script xlink:href="../../svgpan.js"/>
<svg id="graph" class="graph">
<g id="viewport">
<title>FileSys.h</title>
<polygon fill="white" stroke="none" points="-4,4 -4,-80 2531,-80 2531,4 -4,4"/>
<!-- Node1 -->
<g id="node1" class="node"><title>Node1</title>
<polygon fill="#bfbfbf" stroke="black" points="1272,-56.5 1272,-75.5 1330,-75.5 1330,-56.5 1272,-56.5"/>
<text text-anchor="middle" x="1301" y="-63.5" font-family="Helvetica,sans-Serif" font-size="10.00">FileSys.h</text>
</g>
<!-- Node2 -->
<g id="node2" class="node"><title>Node2</title>
<g id="a_node2"><a xlink:href="../../d7/ded/a00196.html" target="_top" xlink:title="Implementation file for the Calendar class. ">
<polygon fill="white" stroke="black" points="0,-0.5 0,-19.5 74,-19.5 74,-0.5 0,-0.5"/>
<text text-anchor="middle" x="37" y="-7.5" font-family="Helvetica,sans-Serif" font-size="10.00">Calendar.cpp</text>
</a>
</g>
</g>
<!-- Node1&#45;&gt;Node2 -->
<g id="edge1" class="edge"><title>Node1&#45;&gt;Node2</title>
<path fill="none" stroke="midnightblue" d="M1261.6,-64.3735C1079.61,-61.3526 319.239,-47.3048 83,-20 80.0899,-19.6636 77.0885,-19.2439 74.0792,-18.7709"/>
<polygon fill="midnightblue" stroke="midnightblue" points="1261.72,-67.8758 1271.78,-64.5409 1261.83,-60.8768 1261.72,-67.8758"/>
</g>
<!-- Node3 -->
<g id="node3" class="node"><title>Node3</title>
<g id="a_node3"><a xlink:href="../../dc/d55/a00226.html" target="_top" xlink:title="ConfigFileCalibrationRunner.cpp">
<polygon fill="white" stroke="black" points="92,-0.5 92,-19.5 250,-19.5 250,-0.5 92,-0.5"/>
<text text-anchor="middle" x="171" y="-7.5" font-family="Helvetica,sans-Serif" font-size="10.00">ConfigFileCalibrationRunner.cpp</text>
</a>
</g>
</g>
<!-- Node1&#45;&gt;Node3 -->
<g id="edge2" class="edge"><title>Node1&#45;&gt;Node3</title>
<path fill="none" stroke="midnightblue" d="M1261.9,-64.1398C1124.31,-60.9365 649.742,-48.3938 259,-20 256.09,-19.7885 253.127,-19.5589 250.135,-19.3149"/>
<polygon fill="midnightblue" stroke="midnightblue" points="1261.88,-67.6402 1271.96,-64.3712 1262.04,-60.642 1261.88,-67.6402"/>
</g>
<!-- Node4 -->
<g id="node4" class="node"><title>Node4</title>
<g id="a_node4"><a xlink:href="../../d9/d39/a00257.html" target="_top" xlink:title="Implementation for the DiseaseSeeder class. ">
<polygon fill="white" stroke="black" points="268,-0.5 268,-19.5 370,-19.5 370,-0.5 268,-0.5"/>
<text text-anchor="middle" x="319" y="-7.5" font-family="Helvetica,sans-Serif" font-size="10.00">DiseaseSeeder.cpp</text>
</a>
</g>
</g>
<!-- Node1&#45;&gt;Node4 -->
<g id="edge3" class="edge"><title>Node1&#45;&gt;Node4</title>
<path fill="none" stroke="midnightblue" d="M1261.79,-64.4891C1134.27,-62.5279 719.87,-53.798 379,-20 376.065,-19.709 373.054,-19.374 370.02,-19.0081"/>
<polygon fill="midnightblue" stroke="midnightblue" points="1261.8,-67.9896 1271.86,-64.6389 1261.91,-60.9904 1261.8,-67.9896"/>
</g>
<!-- Node5 -->
<g id="node5" class="node"><title>Node5</title>
<g id="a_node5"><a xlink:href="../../d8/ddd/a00380.html" target="_top" xlink:title="ReaderFactory.cpp">
<polygon fill="white" stroke="black" points="388,-0.5 388,-19.5 488,-19.5 488,-0.5 388,-0.5"/>
<text text-anchor="middle" x="438" y="-7.5" font-family="Helvetica,sans-Serif" font-size="10.00">ReaderFactory.cpp</text>
</a>
</g>
</g>
<!-- Node1&#45;&gt;Node5 -->
<g id="edge4" class="edge"><title>Node1&#45;&gt;Node5</title>
<path fill="none" stroke="midnightblue" d="M1261.46,-64.1232C1144.41,-61.2409 789.607,-50.4359 497,-20 494.114,-19.6998 491.154,-19.3577 488.17,-18.9863"/>
<polygon fill="midnightblue" stroke="midnightblue" points="1261.63,-67.6284 1271.72,-64.3703 1261.8,-60.6304 1261.63,-67.6284"/>
</g>
<!-- Node6 -->
<g id="node6" class="node"><title>Node6</title>
<g id="a_node6"><a xlink:href="../../d4/dce/a00337.html" target="_top" xlink:title="Launcher.cpp">
<polygon fill="white" stroke="black" points="506.5,-0.5 506.5,-19.5 581.5,-19.5 581.5,-0.5 506.5,-0.5"/>
<text text-anchor="middle" x="544" y="-7.5" font-family="Helvetica,sans-Serif" font-size="10.00">Launcher.cpp</text>
</a>
</g>
</g>
<!-- Node1&#45;&gt;Node6 -->
<g id="edge5" class="edge"><title>Node1&#45;&gt;Node6</title>
<path fill="none" stroke="midnightblue" d="M1261.66,-64.3028C1153.82,-62.0056 844.646,-52.828 590,-20 587.256,-19.6462 584.429,-19.2277 581.591,-18.7678"/>
<polygon fill="midnightblue" stroke="midnightblue" points="1261.68,-67.8039 1271.75,-64.51 1261.82,-60.8054 1261.68,-67.8039"/>
</g>
<!-- Node7 -->
<g id="node7" class="node"><title>Node7</title>
<g id="a_node7"><a xlink:href="../../de/d45/a00175.html" target="_top" xlink:title="AdoptedFile.cpp">
<polygon fill="white" stroke="black" points="599.5,-0.5 599.5,-19.5 686.5,-19.5 686.5,-0.5 599.5,-0.5"/>
<text text-anchor="middle" x="643" y="-7.5" font-family="Helvetica,sans-Serif" font-size="10.00">AdoptedFile.cpp</text>
</a>
</g>
</g>
<!-- Node1&#45;&gt;Node7 -->
<g id="edge6" class="edge"><title>Node1&#45;&gt;Node7</title>
<path fill="none" stroke="midnightblue" d="M1261.77,-63.3609C1165.25,-59.0505 908.633,-45.9035 696,-20 692.943,-19.6275 689.793,-19.2016 686.625,-18.7421"/>
<polygon fill="midnightblue" stroke="midnightblue" points="1261.8,-66.8653 1271.94,-63.8087 1262.1,-59.8721 1261.8,-66.8653"/>
</g>
<!-- Node8 -->
<g id="node8" class="node"><title>Node8</title>
<g id="a_node8"><a xlink:href="../../db/d53/a00321.html" target="_top" xlink:title="Implementation of the CasesFile class. ">
<polygon fill="white" stroke="black" points="705,-0.5 705,-19.5 791,-19.5 791,-0.5 705,-0.5"/>
<text text-anchor="middle" x="748" y="-7.5" font-family="Helvetica,sans-Serif" font-size="10.00">InfectedFile.cpp</text>
</a>
</g>
</g>
<!-- Node1&#45;&gt;Node8 -->
<g id="edge7" class="edge"><title>Node1&#45;&gt;Node8</title>
<path fill="none" stroke="midnightblue" d="M1261.64,-62.5641C1176.95,-57.0825 971.261,-42.4737 800,-20 797.093,-19.6185 794.1,-19.1918 791.089,-18.7371"/>
<polygon fill="midnightblue" stroke="midnightblue" points="1261.62,-66.0703 1271.82,-63.2172 1262.07,-59.0846 1261.62,-66.0703"/>
</g>
<!-- Node9 -->
<g id="node9" class="node"><title>Node9</title>
<g id="a_node9"><a xlink:href="../../d8/d21/a00368.html" target="_top" xlink:title="Implementation of the CasesFile class. ">
<polygon fill="white" stroke="black" points="809.5,-0.5 809.5,-19.5 896.5,-19.5 896.5,-0.5 809.5,-0.5"/>
<text text-anchor="middle" x="853" y="-7.5" font-family="Helvetica,sans-Serif" font-size="10.00">PersonsFile.cpp</text>
</a>
</g>
</g>
<!-- Node1&#45;&gt;Node9 -->
<g id="edge8" class="edge"><title>Node1&#45;&gt;Node9</title>
<path fill="none" stroke="midnightblue" d="M1261.29,-61.2597C1189.84,-54.3591 1034.97,-38.6163 905,-20 902.279,-19.6103 899.482,-19.1883 896.664,-18.747"/>
<polygon fill="midnightblue" stroke="midnightblue" points="1261.33,-64.7796 1271.61,-62.2517 1262,-57.8116 1261.33,-64.7796"/>
</g>
<!-- Node10 -->
<g id="node10" class="node"><title>Node10</title>
<g id="a_node10"><a xlink:href="../../d9/d72/a00412.html" target="_top" xlink:title="Implementation of the SummaryFile class. ">
<polygon fill="white" stroke="black" points="914.5,-0.5 914.5,-19.5 1007.5,-19.5 1007.5,-0.5 914.5,-0.5"/>
<text text-anchor="middle" x="961" y="-7.5" font-family="Helvetica,sans-Serif" font-size="10.00">SummaryFile.cpp</text>
</a>
</g>
</g>
<!-- Node1&#45;&gt;Node10 -->
<g id="edge9" class="edge"><title>Node1&#45;&gt;Node10</title>
<path fill="none" stroke="midnightblue" d="M1261.86,-58.8904C1206.92,-50.2991 1103.81,-34.1174 1016,-20 1013.23,-19.5546 1010.38,-19.0947 1007.51,-18.6291"/>
<polygon fill="midnightblue" stroke="midnightblue" points="1261.44,-62.3679 1271.86,-60.4543 1262.52,-55.4519 1261.44,-62.3679"/>
</g>
<!-- Node11 -->
<g id="node11" class="node"><title>Node11</title>
<g id="a_node11"><a xlink:href="../../d4/d53/a00429.html" target="_top" xlink:title="TravellerProfileBuilder.cpp">
<polygon fill="white" stroke="black" points="1025.5,-0.5 1025.5,-19.5 1156.5,-19.5 1156.5,-0.5 1025.5,-0.5"/>
<text text-anchor="middle" x="1091" y="-7.5" font-family="Helvetica,sans-Serif" font-size="10.00">TravellerProfileBuilder.cpp</text>
</a>
</g>
</g>
<!-- Node1&#45;&gt;Node11 -->
<g id="edge10" class="edge"><title>Node1&#45;&gt;Node11</title>
<path fill="none" stroke="midnightblue" d="M1261.95,-54.9581C1222.27,-44.7557 1161.49,-29.1254 1124.1,-19.5118"/>
<polygon fill="midnightblue" stroke="midnightblue" points="1261.24,-58.3908 1271.8,-57.4915 1262.99,-51.6113 1261.24,-58.3908"/>
</g>
<!-- Node12 -->
<g id="node12" class="node"><title>Node12</title>
<g id="a_node12"><a xlink:href="../../d7/d3f/a00173.html" target="_top" xlink:title="Base Class for PopBuilders: Implementation. ">
<polygon fill="white" stroke="black" points="1174.5,-0.5 1174.5,-19.5 1293.5,-19.5 1293.5,-0.5 1174.5,-0.5"/>
<text text-anchor="middle" x="1234" y="-7.5" font-family="Helvetica,sans-Serif" font-size="10.00">AbstractPopBuilder.cpp</text>
</a>
</g>
</g>
<!-- Node1&#45;&gt;Node12 -->
<g id="edge11" class="edge"><title>Node1&#45;&gt;Node12</title>
<path fill="none" stroke="midnightblue" d="M1282.17,-49.8197C1270.16,-40.1452 1255.03,-27.9481 1244.96,-19.8339"/>
<polygon fill="midnightblue" stroke="midnightblue" points="1280.25,-52.7738 1290.24,-56.324 1284.65,-47.3236 1280.25,-52.7738"/>
</g>
<!-- Node13 -->
<g id="node13" class="node"><title>Node13</title>
<g id="a_node13"><a xlink:href="../../d4/d04/a00255.html" target="_top" xlink:title="Initialize populations: implementation. ">
<polygon fill="white" stroke="black" points="1312,-0.5 1312,-19.5 1426,-19.5 1426,-0.5 1312,-0.5"/>
<text text-anchor="middle" x="1369" y="-7.5" font-family="Helvetica,sans-Serif" font-size="10.00">DefaultPopBuilder.cpp</text>
</a>
</g>
</g>
<!-- Node1&#45;&gt;Node13 -->
<g id="edge12" class="edge"><title>Node1&#45;&gt;Node13</title>
<path fill="none" stroke="midnightblue" d="M1319.76,-50.1008C1332,-40.3824 1347.56,-28.0269 1357.88,-19.8339"/>
<polygon fill="midnightblue" stroke="midnightblue" points="1317.58,-47.3642 1311.93,-56.324 1321.93,-52.846 1317.58,-47.3642"/>
</g>
<!-- Node14 -->
<g id="node14" class="node"><title>Node14</title>
<g id="a_node14"><a xlink:href="../../d5/d35/a00266.html" target="_top" xlink:title="Initialize populations: implementation. ">
<polygon fill="white" stroke="black" points="1444.5,-0.5 1444.5,-19.5 1545.5,-19.5 1545.5,-0.5 1444.5,-0.5"/>
<text text-anchor="middle" x="1495" y="-7.5" font-family="Helvetica,sans-Serif" font-size="10.00">GenPopBuilder.cpp</text>
</a>
</g>
</g>
<!-- Node1&#45;&gt;Node14 -->
<g id="edge13" class="edge"><title>Node1&#45;&gt;Node14</title>
<path fill="none" stroke="midnightblue" d="M1339.86,-54.1826C1376.43,-44.0047 1430.46,-28.9651 1464.15,-19.5865"/>
<polygon fill="midnightblue" stroke="midnightblue" points="1338.74,-50.8622 1330.04,-56.9157 1340.62,-57.6058 1338.74,-50.8622"/>
</g>
<!-- Node15 -->
<g id="node15" class="node"><title>Node15</title>
<g id="a_node15"><a xlink:href="../../de/dab/a00319.html" target="_top" xlink:title="Initialize populations: implementation. ">
<polygon fill="white" stroke="black" points="1564,-0.5 1564,-19.5 1674,-19.5 1674,-0.5 1564,-0.5"/>
<text text-anchor="middle" x="1619" y="-7.5" font-family="Helvetica,sans-Serif" font-size="10.00">ImportPopBuilder.cpp</text>
</a>
</g>
</g>
<!-- Node1&#45;&gt;Node15 -->
<g id="edge14" class="edge"><title>Node1&#45;&gt;Node15</title>
<path fill="none" stroke="midnightblue" d="M1340.23,-58.3381C1397.92,-48.5419 1505.63,-30.252 1568.94,-19.5004"/>
<polygon fill="midnightblue" stroke="midnightblue" points="1339.34,-54.9399 1330.06,-60.0647 1340.51,-61.8411 1339.34,-54.9399"/>
</g>
<!-- Node16 -->
<g id="node16" class="node"><title>Node16</title>
<g id="a_node16"><a xlink:href="../../db/d7e/a00372.html" target="_top" xlink:title="Core Population class. ">
<polygon fill="white" stroke="black" points="1692.5,-0.5 1692.5,-19.5 1773.5,-19.5 1773.5,-0.5 1692.5,-0.5"/>
<text text-anchor="middle" x="1733" y="-7.5" font-family="Helvetica,sans-Serif" font-size="10.00">Population.cpp</text>
</a>
</g>
</g>
<!-- Node1&#45;&gt;Node16 -->
<g id="edge15" class="edge"><title>Node1&#45;&gt;Node16</title>
<path fill="none" stroke="midnightblue" d="M1340.36,-61.1613C1409.75,-54.2163 1558.29,-38.5518 1683,-20 1686.05,-19.5458 1689.21,-19.0475 1692.37,-18.5258"/>
<polygon fill="midnightblue" stroke="midnightblue" points="1339.92,-57.6878 1330.31,-62.1611 1340.61,-64.6534 1339.92,-57.6878"/>
</g>
<!-- Node17 -->
<g id="node17" class="node"><title>Node17</title>
<g id="a_node17"><a xlink:href="../../d5/db5/a00374.html" target="_top" xlink:title="Initialize populations: implementation. ">
<polygon fill="white" stroke="black" points="1791.5,-0.5 1791.5,-19.5 1902.5,-19.5 1902.5,-0.5 1791.5,-0.5"/>
<text text-anchor="middle" x="1847" y="-7.5" font-family="Helvetica,sans-Serif" font-size="10.00">PopulationBuilder.cpp</text>
</a>
</g>
</g>
<!-- Node1&#45;&gt;Node17 -->
<g id="edge16" class="edge"><title>Node1&#45;&gt;Node17</title>
<path fill="none" stroke="midnightblue" d="M1340.18,-61.9267C1422.25,-55.3586 1618.18,-38.995 1782,-20 1785.06,-19.6457 1788.19,-19.2661 1791.35,-18.8703"/>
<polygon fill="midnightblue" stroke="midnightblue" points="1339.74,-58.45 1330.05,-62.7334 1340.3,-65.4279 1339.74,-58.45"/>
</g>
<!-- Node18 -->
<g id="node18" class="node"><title>Node18</title>
<g id="a_node18"><a xlink:href="../../d8/d00/a00186.html" target="_top" xlink:title="Header for the command line controller. ">
<polygon fill="white" stroke="black" points="1921,-0.5 1921,-19.5 2021,-19.5 2021,-0.5 1921,-0.5"/>
<text text-anchor="middle" x="1971" y="-7.5" font-family="Helvetica,sans-Serif" font-size="10.00">BaseController.cpp</text>
</a>
</g>
</g>
<!-- Node1&#45;&gt;Node18 -->
<g id="edge17" class="edge"><title>Node1&#45;&gt;Node18</title>
<path fill="none" stroke="midnightblue" d="M1340.52,-63.117C1437.77,-58.2595 1696.37,-43.9796 1911,-20 1914.25,-19.6374 1917.58,-19.2307 1920.95,-18.7958"/>
<polygon fill="midnightblue" stroke="midnightblue" points="1340.09,-59.634 1330.28,-63.6236 1340.44,-66.6254 1340.09,-59.634"/>
</g>
<!-- Node19 -->
<g id="node19" class="node"><title>Node19</title>
<g id="a_node19"><a xlink:href="../../d5/df1/a00206.html" target="_top" xlink:title="Header for the command line controller. ">
<polygon fill="white" stroke="black" points="2039.5,-0.5 2039.5,-19.5 2128.5,-19.5 2128.5,-0.5 2039.5,-0.5"/>
<text text-anchor="middle" x="2084" y="-7.5" font-family="Helvetica,sans-Serif" font-size="10.00">CliController.cpp</text>
</a>
</g>
</g>
<!-- Node1&#45;&gt;Node19 -->
<g id="edge18" class="edge"><title>Node1&#45;&gt;Node19</title>
<path fill="none" stroke="midnightblue" d="M1340.52,-63.9981C1450.26,-60.9065 1767.85,-49.8554 2030,-20 2033.02,-19.6558 2036.13,-19.2571 2039.26,-18.8228"/>
<polygon fill="midnightblue" stroke="midnightblue" points="1340.16,-60.5066 1330.26,-64.2808 1340.36,-67.504 1340.16,-60.5066"/>
</g>
<!-- Node20 -->
<g id="node20" class="node"><title>Node20</title>
<g id="a_node20"><a xlink:href="../../d0/d48/a00351.html" target="_top" xlink:title="Main program: command line handling. ">
<polygon fill="white" stroke="black" points="2146,-0.5 2146,-19.5 2202,-19.5 2202,-0.5 2146,-0.5"/>
<text text-anchor="middle" x="2174" y="-7.5" font-family="Helvetica,sans-Serif" font-size="10.00">main.cpp</text>
</a>
</g>
</g>
<!-- Node1&#45;&gt;Node20 -->
<g id="edge19" class="edge"><title>Node1&#45;&gt;Node20</title>
<path fill="none" stroke="midnightblue" d="M1340.24,-65.4516C1460.25,-66.2854 1832.7,-64.8056 2137,-20 2139.88,-19.5763 2142.86,-19.0323 2145.82,-18.422"/>
<polygon fill="midnightblue" stroke="midnightblue" points="1340.1,-61.9505 1330.07,-65.3709 1340.04,-68.9502 1340.1,-61.9505"/>
</g>
<!-- Node21 -->
<g id="node21" class="node"><title>Node21</title>
<g id="a_node21"><a xlink:href="../../db/dbc/a00395.html" target="_top" xlink:title="Implementation for the SimBuilder class. ">
<polygon fill="white" stroke="black" points="2220.5,-0.5 2220.5,-19.5 2303.5,-19.5 2303.5,-0.5 2220.5,-0.5"/>
<text text-anchor="middle" x="2262" y="-7.5" font-family="Helvetica,sans-Serif" font-size="10.00">SimBuilder.cpp</text>
</a>
</g>
</g>
<!-- Node1&#45;&gt;Node21 -->
<g id="edge20" class="edge"><title>Node1&#45;&gt;Node21</title>
<path fill="none" stroke="midnightblue" d="M1340.5,-64.7613C1467.26,-63.6287 1875.05,-57.1366 2210,-20 2213.37,-19.6264 2216.85,-19.1729 2220.34,-18.6702"/>
<polygon fill="midnightblue" stroke="midnightblue" points="1340.11,-61.2643 1330.14,-64.8473 1340.17,-68.2641 1340.11,-61.2643"/>
</g>
<!-- Node22 -->
<g id="node22" class="node"><title>Node22</title>
<g id="a_node22"><a xlink:href="../../d9/d8d/a00262.html" target="_top" xlink:title="Utilities for interaction with filesystem. ">
<polygon fill="white" stroke="black" points="2322,-0.5 2322,-19.5 2390,-19.5 2390,-0.5 2322,-0.5"/>
<text text-anchor="middle" x="2356" y="-7.5" font-family="Helvetica,sans-Serif" font-size="10.00">FileSys.cpp</text>
</a>
</g>
</g>
<!-- Node1&#45;&gt;Node22 -->
<g id="edge21" class="edge"><title>Node1&#45;&gt;Node22</title>
<path fill="none" stroke="midnightblue" d="M1340.39,-65.4664C1476.01,-66.6007 1935.97,-66.5333 2312,-20 2315.25,-19.5978 2318.62,-19.0854 2321.98,-18.5096"/>
<polygon fill="midnightblue" stroke="midnightblue" points="1340.12,-61.9639 1330.09,-65.3725 1340.06,-68.9636 1340.12,-61.9639"/>
</g>
<!-- Node23 -->
<g id="node23" class="node"><title>Node23</title>
<g id="a_node23"><a xlink:href="../../dd/df5/a00386.html" target="_top" xlink:title="Implementation of ptree utils. ">
<polygon fill="white" stroke="black" points="2408.5,-0.5 2408.5,-19.5 2527.5,-19.5 2527.5,-0.5 2408.5,-0.5"/>
<text text-anchor="middle" x="2468" y="-7.5" font-family="Helvetica,sans-Serif" font-size="10.00">RunConfigManager.cpp</text>
</a>
</g>
</g>
<!-- Node1&#45;&gt;Node23 -->
<g id="edge22" class="edge"><title>Node1&#45;&gt;Node23</title>
<path fill="none" stroke="midnightblue" d="M1340.35,-64.6485C1482.94,-63.1066 1985.91,-55.3354 2399,-20 2402.01,-19.7426 2405.09,-19.4496 2408.2,-19.1305"/>
<polygon fill="midnightblue" stroke="midnightblue" points="1340.29,-61.1488 1330.33,-64.7528 1340.36,-68.1484 1340.29,-61.1488"/>
</g>
</g>
</svg>
        <g id="navigator" transform="translate(0 0)" fill="#404254">
                <rect fill="#f2f5e9" fill-opacity="0.5" stroke="#606060" stroke-width=".5" x="0" y="0" width="60" height="60"/>
                <use id="zoomplus" xlink:href="#zoomPlus" x="17" y="9" onmousedown="handleZoom(evt,'in')"/>
                <use id="zoomminus" xlink:href="#zoomMin" x="42" y="9" onmousedown="handleZoom(evt,'out')"/>
                <use id="reset" xlink:href="#resetDef" x="30" y="36" onmousedown="handleReset()"/>
                <g id="arrowUp" xlink:href="#dirArrow" transform="translate(30 24)" onmousedown="handlePan(0,-1)">
                  <use xlink:href="#rim" fill="#404040">
                        <set attributeName="fill" to="#808080" begin="arrowUp.mouseover" end="arrowUp.mouseout"/>
                  </use>
                  <path fill="none" stroke="white" stroke-width="1.5" d="M0,-3.0v7 M-2.5,-0.5L0,-3.0L2.5,-0.5"/>
                </g>
                <g id="arrowRight" xlink:href="#dirArrow" transform="rotate(90) translate(36 -43)" onmousedown="handlePan(1,0)">
                  <use xlink:href="#rim" fill="#404040">
                        <set attributeName="fill" to="#808080" begin="arrowRight.mouseover" end="arrowRight.mouseout"/>
                  </use>
                  <path fill="none" stroke="white" stroke-width="1.5" d="M0,-3.0v7 M-2.5,-0.5L0,-3.0L2.5,-0.5"/>
                </g>
                <g id="arrowDown" xlink:href="#dirArrow" transform="rotate(180) translate(-30 -48)" onmousedown="handlePan(0,1)">
                  <use xlink:href="#rim" fill="#404040">
                        <set attributeName="fill" to="#808080" begin="arrowDown.mouseover" end="arrowDown.mouseout"/>
                  </use>
                  <path fill="none" stroke="white" stroke-width="1.5" d="M0,-3.0v7 M-2.5,-0.5L0,-3.0L2.5,-0.5"/>
                </g>
                <g id="arrowLeft" xlink:href="#dirArrow" transform="rotate(270) translate(-36 17)" onmousedown="handlePan(-1,0)">
                  <use xlink:href="#rim" fill="#404040">
                        <set attributeName="fill" to="#808080" begin="arrowLeft.mouseover" end="arrowLeft.mouseout"/>
                  </use>
                  <path fill="none" stroke="white" stroke-width="1.5" d="M0,-3.0v7 M-2.5,-0.5L0,-3.0L2.5,-0.5"/>
                </g>
        </g>
        <svg viewBox="0 0 15 15" width="100%" height="30px" preserveAspectRatio="xMaxYMin meet">
         <g id="arrow_out" transform="scale(0.3 0.3)">
          <a xlink:href="a00613_org.svg" target="_base">
           <rect id="button" ry="5" rx="5" y="6" x="6" height="38" width="38"
                fill="#f2f5e9" fill-opacity="0.5" stroke="#606060" stroke-width="1.0"/>
           <path id="arrow"
             d="M 11.500037,31.436501 C 11.940474,20.09759 22.043105,11.32322 32.158766,21.979434 L 37.068811,17.246167 C 37.068811,17.246167 37.088388,32 37.088388,32 L 22.160133,31.978069 C 22.160133,31.978069 26.997745,27.140456 26.997745,27.140456 C 18.528582,18.264221 13.291696,25.230495 11.500037,31.436501 z"
             style="fill:#404040;"/>
          </a>
         </g>
        </svg>
</svg>
