<?xml version="1.0" encoding="UTF-8" standalone="no"?>
<!DOCTYPE svg PUBLIC "-//W3C//DTD SVG 1.1//EN"
 "http://www.w3.org/Graphics/SVG/1.1/DTD/svg11.dtd">
<!-- Generated by graphviz version 2.36.0 (20140111.2315)
 -->
<!-- Title: stride::HealthSeeder Pages: 1 -->
<svg width="205pt" height="450pt"
 viewBox="0.00 0.00 205.00 450.00" xmlns="http://www.w3.org/2000/svg" xmlns:xlink="http://www.w3.org/1999/xlink">
<g id="graph0" class="graph" transform="scale(1 1) rotate(0) translate(4 446)">
<title>stride::HealthSeeder</title>
<polygon fill="white" stroke="none" points="-4,4 -4,-446 201,-446 201,4 -4,4"/>
<!-- Node1 -->
<g id="node1" class="node"><title>Node1</title>
<polygon fill="#bfbfbf" stroke="black" points="8,-1 8,-91 114,-91 114,-1 8,-1"/>
<text text-anchor="middle" x="61" y="-79" font-family="Helvetica,sans-Serif" font-size="10.00">stride::HealthSeeder</text>
<polyline fill="none" stroke="black" points="8,-72 114,-72 "/>
<text text-anchor="middle" x="61" y="-60" font-family="Helvetica,sans-Serif" font-size="10.00"> </text>
<polyline fill="none" stroke="black" points="8,-53 114,-53 "/>
<text text-anchor="start" x="16" y="-41" font-family="Helvetica,sans-Serif" font-size="10.00">+ HealthSeeder()</text>
<text text-anchor="start" x="16" y="-30" font-family="Helvetica,sans-Serif" font-size="10.00">+ Seed()</text>
<text text-anchor="start" x="16" y="-19" font-family="Helvetica,sans-Serif" font-size="10.00">&#45; GetDistribution()</text>
<text text-anchor="start" x="16" y="-8" font-family="Helvetica,sans-Serif" font-size="10.00">&#45; Sample()</text>
</g>
<!-- Node2 -->
<g id="node2" class="node"><title>Node2</title>
<polygon fill="white" stroke="#bfbfbf" points="6,-172.5 6,-229.5 116,-229.5 116,-172.5 6,-172.5"/>
<text text-anchor="middle" x="61" y="-217.5" font-family="Helvetica,sans-Serif" font-size="10.00">std::vector&lt; double &gt;</text>
<polyline fill="none" stroke="#bfbfbf" points="6,-210.5 116,-210.5 "/>
<text text-anchor="middle" x="61" y="-198.5" font-family="Helvetica,sans-Serif" font-size="10.00"> </text>
<polyline fill="none" stroke="#bfbfbf" points="6,-191.5 116,-191.5 "/>
<text text-anchor="middle" x="61" y="-179.5" font-family="Helvetica,sans-Serif" font-size="10.00"> </text>
</g>
<!-- Node2&#45;&gt;Node1 -->
<g id="edge1" class="edge"><title>Node2&#45;&gt;Node1</title>
<path fill="none" stroke="#404040" d="M61,-172.293C61,-153.007 61,-126.619 61,-103.034"/>
<polygon fill="none" stroke="#404040" points="61.0001,-103.008 57,-97.0078 61,-91.0078 65,-97.0078 61.0001,-103.008"/>
<text text-anchor="middle" x="129" y="-146" font-family="Helvetica,sans-Serif" font-size="10.00"> &#45;m_distrib_start_symptomatic</text>
<text text-anchor="middle" x="129" y="-135" font-family="Helvetica,sans-Serif" font-size="10.00">&#45;m_distrib_time_symptomatic</text>
<text text-anchor="middle" x="129" y="-124" font-family="Helvetica,sans-Serif" font-size="10.00">&#45;m_distrib_time_infectious</text>
<text text-anchor="middle" x="129" y="-113" font-family="Helvetica,sans-Serif" font-size="10.00">&#45;m_distrib_start_infectiousness</text>
</g>
<!-- Node3 -->
<g id="node3" class="node"><title>Node3</title>
<g id="a_node3"><a xlink:href="../../dd/d9c/a00487.html" target="_top" xlink:title="{double\n||}">
<polygon fill="white" stroke="black" points="-0.5,-278.5 -0.5,-335.5 44.5,-335.5 44.5,-278.5 -0.5,-278.5"/>
<text text-anchor="middle" x="22" y="-323.5" font-family="Helvetica,sans-Serif" font-size="10.00">double</text>
<polyline fill="none" stroke="black" points="-0.5,-316.5 44.5,-316.5 "/>
<text text-anchor="middle" x="22" y="-304.5" font-family="Helvetica,sans-Serif" font-size="10.00"> </text>
<polyline fill="none" stroke="black" points="-0.5,-297.5 44.5,-297.5 "/>
<text text-anchor="middle" x="22" y="-285.5" font-family="Helvetica,sans-Serif" font-size="10.00"> </text>
</a>
</g>
</g>
<!-- Node3&#45;&gt;Node2 -->
<g id="edge2" class="edge"><title>Node3&#45;&gt;Node2</title>
<path fill="none" stroke="#404040" d="M22.5806,-278.488C23.4946,-268.62 25.3534,-257.573 29,-248 30.0081,-245.354 31.2006,-242.714 32.5227,-240.115"/>
<polygon fill="none" stroke="#404040" points="32.5231,-240.114 32.0748,-232.917 38.546,-229.735 38.9943,-236.932 32.5231,-240.114"/>
<text text-anchor="middle" x="53.5" y="-251.5" font-family="Helvetica,sans-Serif" font-size="10.00"> +elements</text>
</g>
<!-- Node4 -->
<g id="node4" class="node"><title>Node4</title>
<g id="a_node4"><a xlink:title="STL class. ">
<polygon fill="white" stroke="#bfbfbf" points="62.5,-278.5 62.5,-335.5 149.5,-335.5 149.5,-278.5 62.5,-278.5"/>
<text text-anchor="middle" x="106" y="-323.5" font-family="Helvetica,sans-Serif" font-size="10.00">std::vector&lt; T &gt;</text>
<polyline fill="none" stroke="#bfbfbf" points="62.5,-316.5 149.5,-316.5 "/>
<text text-anchor="middle" x="106" y="-304.5" font-family="Helvetica,sans-Serif" font-size="10.00"> </text>
<polyline fill="none" stroke="#bfbfbf" points="62.5,-297.5 149.5,-297.5 "/>
<text text-anchor="middle" x="106" y="-285.5" font-family="Helvetica,sans-Serif" font-size="10.00"> </text>
</a>
</g>
</g>
<!-- Node4&#45;&gt;Node2 -->
<g id="edge3" class="edge"><title>Node4&#45;&gt;Node2</title>
<path fill="none" stroke="orange" d="M89.929,-268.858C84.348,-255.96 78.191,-241.73 72.9968,-229.726"/>
<polygon fill="orange" stroke="orange" points="86.8756,-270.615 94.059,-278.403 93.3,-267.835 86.8756,-270.615"/>
<text text-anchor="middle" x="109" y="-251.5" font-family="Helvetica,sans-Serif" font-size="10.00"> &lt; double &gt;</text>
</g>
<!-- Node5 -->
<g id="node5" class="node"><title>Node5</title>
<polygon fill="white" stroke="#bfbfbf" points="91.5,-384.5 91.5,-441.5 120.5,-441.5 120.5,-384.5 91.5,-384.5"/>
<text text-anchor="middle" x="106" y="-429.5" font-family="Helvetica,sans-Serif" font-size="10.00">T</text>
<polyline fill="none" stroke="#bfbfbf" points="91.5,-422.5 120.5,-422.5 "/>
<text text-anchor="middle" x="106" y="-410.5" font-family="Helvetica,sans-Serif" font-size="10.00"> </text>
<polyline fill="none" stroke="#bfbfbf" points="91.5,-403.5 120.5,-403.5 "/>
<text text-anchor="middle" x="106" y="-391.5" font-family="Helvetica,sans-Serif" font-size="10.00"> </text>
</g>
<!-- Node5&#45;&gt;Node4 -->
<g id="edge4" class="edge"><title>Node5&#45;&gt;Node4</title>
<path fill="none" stroke="#404040" d="M106,-384.403C106,-373.237 106,-360.13 106,-347.956"/>
<polygon fill="none" stroke="#404040" points="106,-347.726 102,-341.726 106,-335.726 110,-341.726 106,-347.726"/>
<text text-anchor="middle" x="130.5" y="-357.5" font-family="Helvetica,sans-Serif" font-size="10.00"> +elements</text>
</g>
</g>
</svg>
