<?xml version="1.0" encoding="UTF-8" standalone="no"?>
<!DOCTYPE svg PUBLIC "-//W3C//DTD SVG 1.1//EN"
 "http://www.w3.org/Graphics/SVG/1.1/DTD/svg11.dtd">
<!-- Generated by graphviz version 2.36.0 (20140111.2315)
 -->
<!-- Title: stride::viewers::InfectedViewer Pages: 1 -->
<svg width="380pt" height="752pt"
 viewBox="0.00 0.00 380.00 752.00" xmlns="http://www.w3.org/2000/svg" xmlns:xlink="http://www.w3.org/1999/xlink">
<g id="graph0" class="graph" transform="scale(1 1) rotate(0) translate(4 748)">
<title>stride::viewers::InfectedViewer</title>
<polygon fill="white" stroke="none" points="-4,4 -4,-748 376,-748 376,4 -4,4"/>
<!-- Node1 -->
<g id="node1" class="node"><title>Node1</title>
<polygon fill="#bfbfbf" stroke="black" points="143,-1 143,-91 265,-91 265,-1 143,-1"/>
<text text-anchor="start" x="151" y="-79" font-family="Helvetica,sans-Serif" font-size="10.00">stride::viewers::Infected</text>
<text text-anchor="middle" x="204" y="-68" font-family="Helvetica,sans-Serif" font-size="10.00">Viewer</text>
<polyline fill="none" stroke="black" points="143,-61 265,-61 "/>
<text text-anchor="middle" x="204" y="-49" font-family="Helvetica,sans-Serif" font-size="10.00"> </text>
<polyline fill="none" stroke="black" points="143,-42 265,-42 "/>
<text text-anchor="start" x="151" y="-30" font-family="Helvetica,sans-Serif" font-size="10.00">+ InfectedViewer()</text>
<text text-anchor="start" x="151" y="-19" font-family="Helvetica,sans-Serif" font-size="10.00">+ GetInfectionCounts()</text>
<text text-anchor="start" x="151" y="-8" font-family="Helvetica,sans-Serif" font-size="10.00">+ Update()</text>
</g>
<!-- Node2 -->
<g id="node2" class="node"><title>Node2</title>
<g id="a_node2"><a xlink:href="../../de/d76/a00134.html" target="_top" xlink:title="Produces a file with daily count of infected persons. ">
<polygon fill="white" stroke="black" points="-0.5,-140.5 -0.5,-219.5 130.5,-219.5 130.5,-140.5 -0.5,-140.5"/>
<text text-anchor="middle" x="65" y="-207.5" font-family="Helvetica,sans-Serif" font-size="10.00">stride::output::InfectedFile</text>
<polyline fill="none" stroke="black" points="-0.5,-200.5 130.5,-200.5 "/>
<text text-anchor="middle" x="65" y="-188.5" font-family="Helvetica,sans-Serif" font-size="10.00"> </text>
<polyline fill="none" stroke="black" points="-0.5,-181.5 130.5,-181.5 "/>
<text text-anchor="start" x="7.5" y="-169.5" font-family="Helvetica,sans-Serif" font-size="10.00">+ InfectedFile()</text>
<text text-anchor="start" x="7.5" y="-158.5" font-family="Helvetica,sans-Serif" font-size="10.00">+ ~InfectedFile()</text>
<text text-anchor="start" x="7.5" y="-147.5" font-family="Helvetica,sans-Serif" font-size="10.00">+ Print()</text>
</a>
</g>
</g>
<!-- Node2&#45;&gt;Node1 -->
<g id="edge1" class="edge"><title>Node2&#45;&gt;Node1</title>
<path fill="none" stroke="#404040" d="M97.7805,-140.423C106.938,-130.236 117.099,-119.453 127,-110 130.828,-106.345 134.842,-102.663 138.944,-99.012"/>
<polygon fill="none" stroke="#404040" points="138.981,-98.9799 140.874,-92.0215 148.025,-91.0922 146.132,-98.0505 138.981,-98.9799"/>
<text text-anchor="middle" x="163.5" y="-113.5" font-family="Helvetica,sans-Serif" font-size="10.00"> &#45;m_infected_file</text>
</g>
<!-- Node3 -->
<g id="node3" class="node"><title>Node3</title>
<g id="a_node3"><a xlink:title="STL class. ">
<polygon fill="white" stroke="#bfbfbf" points="28,-268.5 28,-325.5 102,-325.5 102,-268.5 28,-268.5"/>
<text text-anchor="middle" x="65" y="-313.5" font-family="Helvetica,sans-Serif" font-size="10.00">std::ofstream</text>
<polyline fill="none" stroke="#bfbfbf" points="28,-306.5 102,-306.5 "/>
<text text-anchor="middle" x="65" y="-294.5" font-family="Helvetica,sans-Serif" font-size="10.00"> </text>
<polyline fill="none" stroke="#bfbfbf" points="28,-287.5 102,-287.5 "/>
<text text-anchor="middle" x="65" y="-275.5" font-family="Helvetica,sans-Serif" font-size="10.00"> </text>
</a>
</g>
</g>
<!-- Node3&#45;&gt;Node2 -->
<g id="edge2" class="edge"><title>Node3&#45;&gt;Node2</title>
<path fill="none" stroke="#404040" d="M65,-268.455C65,-257.491 65,-244.511 65,-231.953"/>
<polygon fill="none" stroke="#404040" points="65.0001,-231.626 61,-225.626 65,-219.626 69,-225.626 65.0001,-231.626"/>
<text text-anchor="middle" x="91.5" y="-241.5" font-family="Helvetica,sans-Serif" font-size="10.00"> &#45;m_fstream</text>
</g>
<!-- Node4 -->
<g id="node4" class="node"><title>Node4</title>
<g id="a_node4"><a xlink:title="STL class. ">
<polygon fill="white" stroke="#bfbfbf" points="13.5,-375 13.5,-443 116.5,-443 116.5,-375 13.5,-375"/>
<text text-anchor="start" x="21.5" y="-431" font-family="Helvetica,sans-Serif" font-size="10.00">std::basic_ofstream</text>
<text text-anchor="middle" x="65" y="-420" font-family="Helvetica,sans-Serif" font-size="10.00">&lt; char &gt;</text>
<polyline fill="none" stroke="#bfbfbf" points="13.5,-413 116.5,-413 "/>
<text text-anchor="middle" x="65" y="-401" font-family="Helvetica,sans-Serif" font-size="10.00"> </text>
<polyline fill="none" stroke="#bfbfbf" points="13.5,-394 116.5,-394 "/>
<text text-anchor="middle" x="65" y="-382" font-family="Helvetica,sans-Serif" font-size="10.00"> </text>
</a>
</g>
</g>
<!-- Node4&#45;&gt;Node3 -->
<g id="edge3" class="edge"><title>Node4&#45;&gt;Node3</title>
<path fill="none" stroke="midnightblue" d="M65,-364.743C65,-351.634 65,-337.591 65,-325.784"/>
<polygon fill="none" stroke="midnightblue" points="61.5001,-364.996 65,-374.996 68.5001,-364.996 61.5001,-364.996"/>
</g>
<!-- Node5 -->
<g id="node5" class="node"><title>Node5</title>
<g id="a_node5"><a xlink:title="STL class. ">
<polygon fill="white" stroke="#bfbfbf" points="15,-483 15,-551 115,-551 115,-483 15,-483"/>
<text text-anchor="start" x="23" y="-539" font-family="Helvetica,sans-Serif" font-size="10.00">std::basic_ostream</text>
<text text-anchor="middle" x="65" y="-528" font-family="Helvetica,sans-Serif" font-size="10.00">&lt; Char &gt;</text>
<polyline fill="none" stroke="#bfbfbf" points="15,-521 115,-521 "/>
<text text-anchor="middle" x="65" y="-509" font-family="Helvetica,sans-Serif" font-size="10.00"> </text>
<polyline fill="none" stroke="#bfbfbf" points="15,-502 115,-502 "/>
<text text-anchor="middle" x="65" y="-490" font-family="Helvetica,sans-Serif" font-size="10.00"> </text>
</a>
</g>
</g>
<!-- Node5&#45;&gt;Node4 -->
<g id="edge4" class="edge"><title>Node5&#45;&gt;Node4</title>
<path fill="none" stroke="midnightblue" d="M65,-472.696C65,-462.828 65,-452.495 65,-443.13"/>
<polygon fill="none" stroke="midnightblue" points="61.5001,-472.752 65,-482.752 68.5001,-472.752 61.5001,-472.752"/>
</g>
<!-- Node6 -->
<g id="node6" class="node"><title>Node6</title>
<g id="a_node6"><a xlink:title="STL class. ">
<polygon fill="white" stroke="#bfbfbf" points="7,-590.5 7,-647.5 123,-647.5 123,-590.5 7,-590.5"/>
<text text-anchor="middle" x="65" y="-635.5" font-family="Helvetica,sans-Serif" font-size="10.00">std::basic_ios&lt; Char &gt;</text>
<polyline fill="none" stroke="#bfbfbf" points="7,-628.5 123,-628.5 "/>
<text text-anchor="middle" x="65" y="-616.5" font-family="Helvetica,sans-Serif" font-size="10.00"> </text>
<polyline fill="none" stroke="#bfbfbf" points="7,-609.5 123,-609.5 "/>
<text text-anchor="middle" x="65" y="-597.5" font-family="Helvetica,sans-Serif" font-size="10.00"> </text>
</a>
</g>
</g>
<!-- Node6&#45;&gt;Node5 -->
<g id="edge5" class="edge"><title>Node6&#45;&gt;Node5</title>
<path fill="none" stroke="midnightblue" d="M65,-580.337C65,-570.755 65,-560.528 65,-551.187"/>
<polygon fill="none" stroke="midnightblue" points="61.5001,-580.41 65,-590.41 68.5001,-580.41 61.5001,-580.41"/>
</g>
<!-- Node7 -->
<g id="node7" class="node"><title>Node7</title>
<g id="a_node7"><a xlink:title="STL class. ">
<polygon fill="white" stroke="#bfbfbf" points="27.5,-686.5 27.5,-743.5 102.5,-743.5 102.5,-686.5 27.5,-686.5"/>
<text text-anchor="middle" x="65" y="-731.5" font-family="Helvetica,sans-Serif" font-size="10.00">std::ios_base</text>
<polyline fill="none" stroke="#bfbfbf" points="27.5,-724.5 102.5,-724.5 "/>
<text text-anchor="middle" x="65" y="-712.5" font-family="Helvetica,sans-Serif" font-size="10.00"> </text>
<polyline fill="none" stroke="#bfbfbf" points="27.5,-705.5 102.5,-705.5 "/>
<text text-anchor="middle" x="65" y="-693.5" font-family="Helvetica,sans-Serif" font-size="10.00"> </text>
</a>
</g>
</g>
<!-- Node7&#45;&gt;Node6 -->
<g id="edge6" class="edge"><title>Node7&#45;&gt;Node6</title>
<path fill="none" stroke="midnightblue" d="M65,-676.277C65,-666.772 65,-656.741 65,-647.822"/>
<polygon fill="none" stroke="midnightblue" points="61.5001,-676.305 65,-686.305 68.5001,-676.305 61.5001,-676.305"/>
</g>
<!-- Node8 -->
<g id="node8" class="node"><title>Node8</title>
<polygon fill="white" stroke="#bfbfbf" points="148.5,-146 148.5,-214 259.5,-214 259.5,-146 148.5,-146"/>
<text text-anchor="start" x="156.5" y="-202" font-family="Helvetica,sans-Serif" font-size="10.00">std::vector&lt; unsigned</text>
<text text-anchor="middle" x="204" y="-191" font-family="Helvetica,sans-Serif" font-size="10.00"> int &gt;</text>
<polyline fill="none" stroke="#bfbfbf" points="148.5,-184 259.5,-184 "/>
<text text-anchor="middle" x="204" y="-172" font-family="Helvetica,sans-Serif" font-size="10.00"> </text>
<polyline fill="none" stroke="#bfbfbf" points="148.5,-165 259.5,-165 "/>
<text text-anchor="middle" x="204" y="-153" font-family="Helvetica,sans-Serif" font-size="10.00"> </text>
</g>
<!-- Node8&#45;&gt;Node1 -->
<g id="edge7" class="edge"><title>Node8&#45;&gt;Node1</title>
<path fill="none" stroke="#404040" d="M204,-145.691C204,-132.931 204,-117.991 204,-103.652"/>
<polygon fill="none" stroke="#404040" points="204,-103.275 200,-97.2754 204,-91.2754 208,-97.2753 204,-103.275"/>
<text text-anchor="middle" x="231.5" y="-113.5" font-family="Helvetica,sans-Serif" font-size="10.00"> &#45;m_infected</text>
</g>
<!-- Node9 -->
<g id="node9" class="node"><title>Node9</title>
<polygon fill="white" stroke="#bfbfbf" points="144.5,-268.5 144.5,-325.5 213.5,-325.5 213.5,-268.5 144.5,-268.5"/>
<text text-anchor="middle" x="179" y="-313.5" font-family="Helvetica,sans-Serif" font-size="10.00">unsigned int</text>
<polyline fill="none" stroke="#bfbfbf" points="144.5,-306.5 213.5,-306.5 "/>
<text text-anchor="middle" x="179" y="-294.5" font-family="Helvetica,sans-Serif" font-size="10.00"> </text>
<polyline fill="none" stroke="#bfbfbf" points="144.5,-287.5 213.5,-287.5 "/>
<text text-anchor="middle" x="179" y="-275.5" font-family="Helvetica,sans-Serif" font-size="10.00"> </text>
</g>
<!-- Node9&#45;&gt;Node8 -->
<g id="edge8" class="edge"><title>Node9&#45;&gt;Node8</title>
<path fill="none" stroke="#404040" d="M184.988,-268.455C187.764,-255.684 191.135,-240.178 194.263,-225.79"/>
<polygon fill="none" stroke="#404040" points="194.266,-225.778 191.631,-219.065 196.815,-214.052 199.449,-220.765 194.266,-225.778"/>
<text text-anchor="middle" x="216.5" y="-241.5" font-family="Helvetica,sans-Serif" font-size="10.00"> +elements</text>
</g>
<!-- Node10 -->
<g id="node10" class="node"><title>Node10</title>
<g id="a_node10"><a xlink:title="STL class. ">
<polygon fill="white" stroke="#bfbfbf" points="231.5,-268.5 231.5,-325.5 318.5,-325.5 318.5,-268.5 231.5,-268.5"/>
<text text-anchor="middle" x="275" y="-313.5" font-family="Helvetica,sans-Serif" font-size="10.00">std::vector&lt; T &gt;</text>
<polyline fill="none" stroke="#bfbfbf" points="231.5,-306.5 318.5,-306.5 "/>
<text text-anchor="middle" x="275" y="-294.5" font-family="Helvetica,sans-Serif" font-size="10.00"> </text>
<polyline fill="none" stroke="#bfbfbf" points="231.5,-287.5 318.5,-287.5 "/>
<text text-anchor="middle" x="275" y="-275.5" font-family="Helvetica,sans-Serif" font-size="10.00"> </text>
</a>
</g>
</g>
<!-- Node10&#45;&gt;Node8 -->
<g id="edge9" class="edge"><title>Node10&#45;&gt;Node8</title>
<path fill="none" stroke="orange" d="M253.961,-259.528C249.728,-252.356 245.267,-244.914 241,-238 236.229,-230.27 230.98,-222.033 225.973,-214.293"/>
<polygon fill="orange" stroke="orange" points="251.091,-261.553 259.17,-268.408 257.129,-258.012 251.091,-261.553"/>
<text text-anchor="middle" x="285" y="-241.5" font-family="Helvetica,sans-Serif" font-size="10.00"> &lt; unsigned int &gt;</text>
</g>
<!-- Node11 -->
<g id="node11" class="node"><title>Node11</title>
<polygon fill="white" stroke="#bfbfbf" points="260.5,-380.5 260.5,-437.5 289.5,-437.5 289.5,-380.5 260.5,-380.5"/>
<text text-anchor="middle" x="275" y="-425.5" font-family="Helvetica,sans-Serif" font-size="10.00">T</text>
<polyline fill="none" stroke="#bfbfbf" points="260.5,-418.5 289.5,-418.5 "/>
<text text-anchor="middle" x="275" y="-406.5" font-family="Helvetica,sans-Serif" font-size="10.00"> </text>
<polyline fill="none" stroke="#bfbfbf" points="260.5,-399.5 289.5,-399.5 "/>
<text text-anchor="middle" x="275" y="-387.5" font-family="Helvetica,sans-Serif" font-size="10.00"> </text>
</g>
<!-- Node11&#45;&gt;Node10 -->
<g id="edge10" class="edge"><title>Node11&#45;&gt;Node10</title>
<path fill="none" stroke="#404040" d="M275,-380.242C275,-367.475 275,-352.088 275,-338.094"/>
<polygon fill="none" stroke="#404040" points="275,-337.749 271,-331.749 275,-325.749 279,-331.749 275,-337.749"/>
<text text-anchor="middle" x="299.5" y="-347.5" font-family="Helvetica,sans-Serif" font-size="10.00"> +elements</text>
</g>
<!-- Node12 -->
<g id="node12" class="node"><title>Node12</title>
<polygon fill="white" stroke="#bfbfbf" points="277.5,-146 277.5,-214 372.5,-214 372.5,-146 277.5,-146"/>
<text text-anchor="start" x="285.5" y="-202" font-family="Helvetica,sans-Serif" font-size="10.00">shared_ptr&lt; stride</text>
<text text-anchor="middle" x="325" y="-191" font-family="Helvetica,sans-Serif" font-size="10.00">::SimRunner &gt;</text>
<polyline fill="none" stroke="#bfbfbf" points="277.5,-184 372.5,-184 "/>
<text text-anchor="middle" x="325" y="-172" font-family="Helvetica,sans-Serif" font-size="10.00"> </text>
<polyline fill="none" stroke="#bfbfbf" points="277.5,-165 372.5,-165 "/>
<text text-anchor="middle" x="325" y="-153" font-family="Helvetica,sans-Serif" font-size="10.00"> </text>
</g>
<!-- Node12&#45;&gt;Node1 -->
<g id="edge11" class="edge"><title>Node12&#45;&gt;Node1</title>
<path fill="none" stroke="#404040" d="M295.493,-145.884C285.255,-134.468 273.669,-121.63 263,-110 260.04,-106.774 256.987,-103.463 253.902,-100.129"/>
<polygon fill="none" stroke="#404040" points="253.862,-100.087 246.848,-98.4121 245.696,-91.2935 252.71,-92.9683 253.862,-100.087"/>
<text text-anchor="middle" x="297.5" y="-113.5" font-family="Helvetica,sans-Serif" font-size="10.00"> &#45;m_runner</text>
</g>
</g>
</svg>
