<?xml version="1.0" encoding="UTF-8" standalone="no"?>
<!DOCTYPE svg PUBLIC "-//W3C//DTD SVG 1.1//EN"
 "http://www.w3.org/Graphics/SVG/1.1/DTD/svg11.dtd">
<!-- Generated by graphviz version 2.36.0 (20140111.2315)
 -->
<!-- Title: gengeopop::K12School::Fill Pages: 1 -->
<svg width="296pt" height="87pt"
 viewBox="0.00 0.00 296.00 87.00" xmlns="http://www.w3.org/2000/svg" xmlns:xlink="http://www.w3.org/1999/xlink">
<g id="graph0" class="graph" transform="scale(1 1) rotate(0) translate(4 83)">
<title>gengeopop::K12School::Fill</title>
<polygon fill="white" stroke="none" points="-4,4 -4,-83 292,-83 292,4 -4,4"/>
<!-- Node1 -->
<g id="node1" class="node"><title>Node1</title>
<polygon fill="#bfbfbf" stroke="black" points="0.5,-24 0.5,-54 117.5,-54 117.5,-24 0.5,-24"/>
<text text-anchor="start" x="8.5" y="-42" font-family="Helvetica,sans-Serif" font-size="10.00">gengeopop::K12School</text>
<text text-anchor="middle" x="59" y="-31" font-family="Helvetica,sans-Serif" font-size="10.00">::Fill</text>
</g>
<!-- Node2 -->
<g id="node2" class="node"><title>Node2</title>
<g id="a_node2"><a xlink:href="../../d6/d5b/a00026.html#a05e2ac775c782a156ad867059f3b5e57" target="_top" xlink:title="Add a ContactPool. ">
<polygon fill="white" stroke="black" points="154,-49 154,-79 288,-79 288,-49 154,-49"/>
<text text-anchor="start" x="162" y="-67" font-family="Helvetica,sans-Serif" font-size="10.00">gengeopop::ContactCenter</text>
<text text-anchor="middle" x="221" y="-56" font-family="Helvetica,sans-Serif" font-size="10.00">::AddPool</text>
</a>
</g>
</g>
<!-- Node1&#45;&gt;Node2 -->
<g id="edge1" class="edge"><title>Node1&#45;&gt;Node2</title>
<path fill="none" stroke="midnightblue" d="M117.764,-48.0256C126.283,-49.3568 135.169,-50.7451 143.989,-52.1233"/>
<polygon fill="midnightblue" stroke="midnightblue" points="143.477,-55.5856 153.897,-53.6714 144.557,-48.6695 143.477,-55.5856"/>
</g>
<!-- Node3 -->
<g id="node3" class="node"><title>Node3</title>
<g id="a_node3"><a xlink:href="../../d5/de0/a00050.html#add262995f20f78d16c8dffc8c8ba0b3c" target="_top" xlink:title="Get the maximal number of pools for this center. ">
<polygon fill="white" stroke="black" points="162.5,-0 162.5,-30 279.5,-30 279.5,-0 162.5,-0"/>
<text text-anchor="start" x="170.5" y="-18" font-family="Helvetica,sans-Serif" font-size="10.00">gengeopop::K12School</text>
<text text-anchor="middle" x="221" y="-7" font-family="Helvetica,sans-Serif" font-size="10.00">::GetMaxPools</text>
</a>
</g>
</g>
<!-- Node1&#45;&gt;Node3 -->
<g id="edge2" class="edge"><title>Node1&#45;&gt;Node3</title>
<path fill="none" stroke="midnightblue" d="M117.764,-30.3354C128.979,-28.6531 140.828,-26.8758 152.329,-25.1507"/>
<polygon fill="midnightblue" stroke="midnightblue" points="152.951,-28.5966 162.321,-23.6518 151.913,-21.674 152.951,-28.5966"/>
</g>
</g>
</svg>
