<?xml version="1.0" encoding="UTF-8" standalone="no"?>
<!DOCTYPE svg PUBLIC "-//W3C//DTD SVG 1.1//EN"
 "http://www.w3.org/Graphics/SVG/1.1/DTD/svg11.dtd">
<!-- Generated by graphviz version 2.36.0 (20140111.2315)
 -->
<!-- Title: stride::SurveySeeder Pages: 1 -->
<!--zoomable 614 -->
<svg id="main" version="1.1" xmlns="http://www.w3.org/2000/svg" xmlns:xlink="http://www.w3.org/1999/xlink" xml:space="preserve" onload="init(evt)">
<style type="text/css"><![CDATA[
.edge:hover path { stroke: red; }
.edge:hover polygon { stroke: red; fill: red; }
]]></style>
<script type="text/javascript"><![CDATA[
var edges = document.getElementsByTagName('g');
if (edges && edges.length) {
  for (var i=0;i<edges.length;i++) {
    if (edges[i].id.substr(0,4)=='edge') {
      edges[i].setAttribute('class','edge');
    }
  }
}
]]></script>
        <defs>
                <circle id="rim" cx="0" cy="0" r="7"/>
                <circle id="rim2" cx="0" cy="0" r="3.5"/>
                <g id="zoomPlus">
                        <use xlink:href="#rim" fill="#404040">
                                <set attributeName="fill" to="#808080" begin="zoomplus.mouseover" end="zoomplus.mouseout"/>
                        </use>
                        <path d="M-4,0h8M0,-4v8" fill="none" stroke="white" stroke-width="1.5" pointer-events="none"/>
                </g>
                <g id="zoomMin">
                        <use xlink:href="#rim" fill="#404040">
                                <set attributeName="fill" to="#808080" begin="zoomminus.mouseover" end="zoomminus.mouseout"/>
                        </use>
                        <path d="M-4,0h8" fill="none" stroke="white" stroke-width="1.5" pointer-events="none"/>
                </g>
                <g id="dirArrow">
                        <path fill="none" stroke="white" stroke-width="1.5" d="M0,-3.0v7 M-2.5,-0.5L0,-3.0L2.5,-0.5"/>
                </g>
               <g id="resetDef">
                       <use xlink:href="#rim2" fill="#404040">
                               <set attributeName="fill" to="#808080" begin="reset.mouseover" end="reset.mouseout"/>
                       </use>
               </g>
        </defs>

<script type="text/javascript">
var viewWidth = 999;
var viewHeight = 614;
var sectionId = 'dynsection-0';
</script>
<script xlink:href="../../svgpan.js"/>
<svg id="graph" class="graph">
<g id="viewport">
<title>stride::SurveySeeder</title>
<polygon fill="white" stroke="none" points="-4,4 -4,-610 995,-610 995,4 -4,4"/>
<!-- Node1 -->
<g id="node1" class="node"><title>Node1</title>
<polygon fill="#bfbfbf" stroke="black" points="386,-1 386,-69 494,-69 494,-1 386,-1"/>
<text text-anchor="middle" x="440" y="-57" font-family="Helvetica,sans-Serif" font-size="10.00">stride::SurveySeeder</text>
<polyline fill="none" stroke="black" points="386,-50 494,-50 "/>
<text text-anchor="middle" x="440" y="-38" font-family="Helvetica,sans-Serif" font-size="10.00"> </text>
<polyline fill="none" stroke="black" points="386,-31 494,-31 "/>
<text text-anchor="start" x="394" y="-19" font-family="Helvetica,sans-Serif" font-size="10.00">+ SurveySeeder()</text>
<text text-anchor="start" x="394" y="-8" font-family="Helvetica,sans-Serif" font-size="10.00">+ Seed()</text>
</g>
<!-- Node2 -->
<g id="node2" class="node"><title>Node2</title>
<polygon fill="white" stroke="#bfbfbf" points="370,-168.5 370,-225.5 418,-225.5 418,-168.5 370,-168.5"/>
<text text-anchor="middle" x="394" y="-213.5" font-family="Helvetica,sans-Serif" font-size="10.00">ptree &amp;</text>
<polyline fill="none" stroke="#bfbfbf" points="370,-206.5 418,-206.5 "/>
<text text-anchor="middle" x="394" y="-194.5" font-family="Helvetica,sans-Serif" font-size="10.00"> </text>
<polyline fill="none" stroke="#bfbfbf" points="370,-187.5 418,-187.5 "/>
<text text-anchor="middle" x="394" y="-175.5" font-family="Helvetica,sans-Serif" font-size="10.00"> </text>
</g>
<!-- Node2&#45;&gt;Node1 -->
<g id="edge1" class="edge"><title>Node2&#45;&gt;Node1</title>
<path fill="none" stroke="#404040" d="M392.748,-168.082C392.644,-145.762 394.536,-114.012 404,-88 405.035,-85.156 406.264,-82.3216 407.634,-79.5277"/>
<polygon fill="none" stroke="#404040" points="407.651,-79.4961 407.083,-72.3074 413.5,-69.018 414.069,-76.2067 407.651,-79.4961"/>
<text text-anchor="middle" x="434" y="-91.5" font-family="Helvetica,sans-Serif" font-size="10.00"> &#45;m_config_pt</text>
</g>
<!-- Node3 -->
<g id="node3" class="node"><title>Node3</title>
<g id="a_node3"><a xlink:href="../../d1/db7/a00157.html" target="_top" xlink:title="Manages random number generation in parallel (OpenMP) calculations. ">
<polygon fill="white" stroke="black" points="436,-119 436,-275 554,-275 554,-119 436,-119"/>
<text text-anchor="middle" x="495" y="-263" font-family="Helvetica,sans-Serif" font-size="10.00">stride::util::RNManager</text>
<polyline fill="none" stroke="black" points="436,-256 554,-256 "/>
<text text-anchor="middle" x="495" y="-244" font-family="Helvetica,sans-Serif" font-size="10.00"> </text>
<polyline fill="none" stroke="black" points="436,-237 554,-237 "/>
<text text-anchor="start" x="444" y="-225" font-family="Helvetica,sans-Serif" font-size="10.00">+ RNManager()</text>
<text text-anchor="start" x="444" y="-214" font-family="Helvetica,sans-Serif" font-size="10.00">+ RNManager()</text>
<text text-anchor="start" x="444" y="-203" font-family="Helvetica,sans-Serif" font-size="10.00">+ RNManager()</text>
<text text-anchor="start" x="444" y="-192" font-family="Helvetica,sans-Serif" font-size="10.00">+ operator=()</text>
<text text-anchor="start" x="444" y="-181" font-family="Helvetica,sans-Serif" font-size="10.00">+ operator=()</text>
<text text-anchor="start" x="444" y="-170" font-family="Helvetica,sans-Serif" font-size="10.00">+ GetInfo()</text>
<text text-anchor="start" x="444" y="-159" font-family="Helvetica,sans-Serif" font-size="10.00">+ GetGenerator()</text>
<text text-anchor="start" x="444" y="-148" font-family="Helvetica,sans-Serif" font-size="10.00">+ RandomShuffle()</text>
<text text-anchor="start" x="444" y="-137" font-family="Helvetica,sans-Serif" font-size="10.00">+ Initialize()</text>
<text text-anchor="start" x="444" y="-126" font-family="Helvetica,sans-Serif" font-size="10.00">+ Initialize()</text>
</a>
</g>
</g>
<!-- Node3&#45;&gt;Node1 -->
<g id="edge2" class="edge"><title>Node3&#45;&gt;Node1</title>
<path fill="none" stroke="#404040" d="M474.413,-118.831C471.173,-108.387 467.671,-97.8735 464,-88 463.071,-85.5012 462.073,-82.9554 461.031,-80.3998"/>
<polygon fill="none" stroke="#404040" points="460.98,-80.2803 454.942,-76.3387 456.258,-69.2487 462.296,-73.1903 460.98,-80.2803"/>
<text text-anchor="middle" x="504.5" y="-91.5" font-family="Helvetica,sans-Serif" font-size="10.00"> &#45;m_rn_manager</text>
</g>
<!-- Node4 -->
<g id="node4" class="node"><title>Node4</title>
<polygon fill="white" stroke="#bfbfbf" points="254.5,-325 254.5,-393 349.5,-393 349.5,-325 254.5,-325"/>
<text text-anchor="start" x="262.5" y="-381" font-family="Helvetica,sans-Serif" font-size="10.00">std::vector&lt; trng::</text>
<text text-anchor="middle" x="302" y="-370" font-family="Helvetica,sans-Serif" font-size="10.00">mrg3 &gt;</text>
<polyline fill="none" stroke="#bfbfbf" points="254.5,-363 349.5,-363 "/>
<text text-anchor="middle" x="302" y="-351" font-family="Helvetica,sans-Serif" font-size="10.00"> </text>
<polyline fill="none" stroke="#bfbfbf" points="254.5,-344 349.5,-344 "/>
<text text-anchor="middle" x="302" y="-332" font-family="Helvetica,sans-Serif" font-size="10.00"> </text>
</g>
<!-- Node4&#45;&gt;Node3 -->
<g id="edge3" class="edge"><title>Node4&#45;&gt;Node3</title>
<path fill="none" stroke="#404040" d="M349.653,-325.79C365.016,-315.524 382.166,-304.188 398,-294 410.757,-285.792 415.443,-285.826 427,-276 427.094,-275.92 427.188,-275.84 427.282,-275.76"/>
<polygon fill="none" stroke="#404040" points="427.042,-275.975 428.831,-268.989 435.968,-267.954 434.179,-274.939 427.042,-275.975"/>
<text text-anchor="middle" x="419" y="-297.5" font-family="Helvetica,sans-Serif" font-size="10.00"> &#45;m_mrg3</text>
</g>
<!-- Node5 -->
<g id="node5" class="node"><title>Node5</title>
<polygon fill="white" stroke="#bfbfbf" points="85,-442.5 85,-499.5 123,-499.5 123,-442.5 85,-442.5"/>
<text text-anchor="middle" x="104" y="-487.5" font-family="Helvetica,sans-Serif" font-size="10.00">mrg3</text>
<polyline fill="none" stroke="#bfbfbf" points="85,-480.5 123,-480.5 "/>
<text text-anchor="middle" x="104" y="-468.5" font-family="Helvetica,sans-Serif" font-size="10.00"> </text>
<polyline fill="none" stroke="#bfbfbf" points="85,-461.5 123,-461.5 "/>
<text text-anchor="middle" x="104" y="-449.5" font-family="Helvetica,sans-Serif" font-size="10.00"> </text>
</g>
<!-- Node5&#45;&gt;Node4 -->
<g id="edge4" class="edge"><title>Node5&#45;&gt;Node4</title>
<path fill="none" stroke="#404040" d="M97.3428,-442.385C96.4346,-431.693 97.746,-420.104 105,-412 124.04,-390.728 199.837,-401.757 242.801,-393.329"/>
<polygon fill="none" stroke="#404040" points="242.883,-393.307 247.65,-387.896 254.478,-390.215 249.712,-395.626 242.883,-393.307"/>
<text text-anchor="middle" x="129.5" y="-415.5" font-family="Helvetica,sans-Serif" font-size="10.00"> +elements</text>
</g>
<!-- Node6 -->
<g id="node6" class="node"><title>Node6</title>
<g id="a_node6"><a xlink:title="STL class. ">
<polygon fill="white" stroke="#bfbfbf" points="451.5,-442.5 451.5,-499.5 538.5,-499.5 538.5,-442.5 451.5,-442.5"/>
<text text-anchor="middle" x="495" y="-487.5" font-family="Helvetica,sans-Serif" font-size="10.00">std::vector&lt; T &gt;</text>
<polyline fill="none" stroke="#bfbfbf" points="451.5,-480.5 538.5,-480.5 "/>
<text text-anchor="middle" x="495" y="-468.5" font-family="Helvetica,sans-Serif" font-size="10.00"> </text>
<polyline fill="none" stroke="#bfbfbf" points="451.5,-461.5 538.5,-461.5 "/>
<text text-anchor="middle" x="495" y="-449.5" font-family="Helvetica,sans-Serif" font-size="10.00"> </text>
</a>
</g>
</g>
<!-- Node6&#45;&gt;Node4 -->
<g id="edge5" class="edge"><title>Node6&#45;&gt;Node4</title>
<path fill="none" stroke="orange" d="M441.487,-454.352C419.717,-446.81 394.832,-436.629 374,-424 359.841,-415.417 345.866,-403.901 334.049,-393.004"/>
<polygon fill="orange" stroke="orange" points="440.651,-457.764 451.245,-457.632 442.881,-451.128 440.651,-457.764"/>
<text text-anchor="middle" x="407" y="-415.5" font-family="Helvetica,sans-Serif" font-size="10.00"> &lt; trng::mrg3 &gt;</text>
</g>
<!-- Node9 -->
<g id="node9" class="node"><title>Node9</title>
<polygon fill="white" stroke="#bfbfbf" points="367.5,-325 367.5,-393 462.5,-393 462.5,-325 367.5,-325"/>
<text text-anchor="start" x="375.5" y="-381" font-family="Helvetica,sans-Serif" font-size="10.00">std::vector&lt; trng::</text>
<text text-anchor="middle" x="415" y="-370" font-family="Helvetica,sans-Serif" font-size="10.00">mrg2 &gt;</text>
<polyline fill="none" stroke="#bfbfbf" points="367.5,-363 462.5,-363 "/>
<text text-anchor="middle" x="415" y="-351" font-family="Helvetica,sans-Serif" font-size="10.00"> </text>
<polyline fill="none" stroke="#bfbfbf" points="367.5,-344 462.5,-344 "/>
<text text-anchor="middle" x="415" y="-332" font-family="Helvetica,sans-Serif" font-size="10.00"> </text>
</g>
<!-- Node6&#45;&gt;Node9 -->
<g id="edge10" class="edge"><title>Node6&#45;&gt;Node9</title>
<path fill="none" stroke="orange" d="M460.487,-434.643C457.511,-431.134 454.635,-427.554 452,-424 444.892,-414.412 438.065,-403.343 432.253,-393.136"/>
<polygon fill="orange" stroke="orange" points="457.874,-436.972 467.104,-442.173 463.132,-432.351 457.874,-436.972"/>
<text text-anchor="middle" x="485" y="-415.5" font-family="Helvetica,sans-Serif" font-size="10.00"> &lt; trng::mrg2 &gt;</text>
</g>
<!-- Node11 -->
<g id="node11" class="node"><title>Node11</title>
<polygon fill="white" stroke="#bfbfbf" points="46.5,-325 46.5,-393 141.5,-393 141.5,-325 46.5,-325"/>
<text text-anchor="start" x="54.5" y="-381" font-family="Helvetica,sans-Serif" font-size="10.00">std::vector&lt; trng::</text>
<text text-anchor="middle" x="94" y="-370" font-family="Helvetica,sans-Serif" font-size="10.00">lcg64_shift &gt;</text>
<polyline fill="none" stroke="#bfbfbf" points="46.5,-363 141.5,-363 "/>
<text text-anchor="middle" x="94" y="-351" font-family="Helvetica,sans-Serif" font-size="10.00"> </text>
<polyline fill="none" stroke="#bfbfbf" points="46.5,-344 141.5,-344 "/>
<text text-anchor="middle" x="94" y="-332" font-family="Helvetica,sans-Serif" font-size="10.00"> </text>
</g>
<!-- Node6&#45;&gt;Node11 -->
<g id="edge13" class="edge"><title>Node6&#45;&gt;Node11</title>
<path fill="none" stroke="orange" d="M441.359,-461.284C406.28,-455.642 359.445,-448.215 318,-442 261.622,-433.546 244.314,-444.19 191,-424 171.377,-416.569 151.689,-404.613 135.228,-393.035"/>
<polygon fill="orange" stroke="orange" points="440.957,-464.765 451.386,-462.9 442.071,-457.854 440.957,-464.765"/>
<text text-anchor="middle" x="236.5" y="-415.5" font-family="Helvetica,sans-Serif" font-size="10.00"> &lt; trng::lcg64_shift &gt;</text>
</g>
<!-- Node14 -->
<g id="node14" class="node"><title>Node14</title>
<polygon fill="white" stroke="#bfbfbf" points="811.5,-325 811.5,-393 906.5,-393 906.5,-325 811.5,-325"/>
<text text-anchor="start" x="819.5" y="-381" font-family="Helvetica,sans-Serif" font-size="10.00">std::vector&lt; trng::</text>
<text text-anchor="middle" x="859" y="-370" font-family="Helvetica,sans-Serif" font-size="10.00">lcg64 &gt;</text>
<polyline fill="none" stroke="#bfbfbf" points="811.5,-363 906.5,-363 "/>
<text text-anchor="middle" x="859" y="-351" font-family="Helvetica,sans-Serif" font-size="10.00"> </text>
<polyline fill="none" stroke="#bfbfbf" points="811.5,-344 906.5,-344 "/>
<text text-anchor="middle" x="859" y="-332" font-family="Helvetica,sans-Serif" font-size="10.00"> </text>
</g>
<!-- Node6&#45;&gt;Node14 -->
<g id="edge17" class="edge"><title>Node6&#45;&gt;Node14</title>
<path fill="none" stroke="orange" d="M549.015,-463.428C615.717,-454.846 725.012,-439.129 763,-424 782.168,-416.367 801.452,-404.515 817.656,-393.076"/>
<polygon fill="orange" stroke="orange" points="548.17,-460.007 538.693,-464.743 549.055,-466.951 548.17,-460.007"/>
<text text-anchor="middle" x="819.5" y="-415.5" font-family="Helvetica,sans-Serif" font-size="10.00"> &lt; trng::lcg64 &gt;</text>
</g>
<!-- Node16 -->
<g id="node16" class="node"><title>Node16</title>
<polygon fill="white" stroke="#bfbfbf" points="640.5,-325 640.5,-393 735.5,-393 735.5,-325 640.5,-325"/>
<text text-anchor="start" x="648.5" y="-381" font-family="Helvetica,sans-Serif" font-size="10.00">std::vector&lt; trng::</text>
<text text-anchor="middle" x="688" y="-370" font-family="Helvetica,sans-Serif" font-size="10.00">yarn2 &gt;</text>
<polyline fill="none" stroke="#bfbfbf" points="640.5,-363 735.5,-363 "/>
<text text-anchor="middle" x="688" y="-351" font-family="Helvetica,sans-Serif" font-size="10.00"> </text>
<polyline fill="none" stroke="#bfbfbf" points="640.5,-344 735.5,-344 "/>
<text text-anchor="middle" x="688" y="-332" font-family="Helvetica,sans-Serif" font-size="10.00"> </text>
</g>
<!-- Node6&#45;&gt;Node16 -->
<g id="edge20" class="edge"><title>Node6&#45;&gt;Node16</title>
<path fill="none" stroke="orange" d="M548.089,-451.701C567.217,-444.209 588.606,-434.758 607,-424 622.007,-415.223 637.27,-403.909 650.442,-393.241"/>
<polygon fill="orange" stroke="orange" points="546.702,-448.484 538.614,-455.328 549.204,-455.022 546.702,-448.484"/>
<text text-anchor="middle" x="658" y="-415.5" font-family="Helvetica,sans-Serif" font-size="10.00"> &lt; trng::yarn2 &gt;</text>
</g>
<!-- Node19 -->
<g id="node19" class="node"><title>Node19</title>
<polygon fill="white" stroke="#bfbfbf" points="527.5,-325 527.5,-393 622.5,-393 622.5,-325 527.5,-325"/>
<text text-anchor="start" x="535.5" y="-381" font-family="Helvetica,sans-Serif" font-size="10.00">std::vector&lt; trng::</text>
<text text-anchor="middle" x="575" y="-370" font-family="Helvetica,sans-Serif" font-size="10.00">yarn3 &gt;</text>
<polyline fill="none" stroke="#bfbfbf" points="527.5,-363 622.5,-363 "/>
<text text-anchor="middle" x="575" y="-351" font-family="Helvetica,sans-Serif" font-size="10.00"> </text>
<polyline fill="none" stroke="#bfbfbf" points="527.5,-344 622.5,-344 "/>
<text text-anchor="middle" x="575" y="-332" font-family="Helvetica,sans-Serif" font-size="10.00"> </text>
</g>
<!-- Node6&#45;&gt;Node19 -->
<g id="edge24" class="edge"><title>Node6&#45;&gt;Node19</title>
<path fill="none" stroke="orange" d="M521.25,-433.906C530.777,-420.806 541.489,-406.078 550.828,-393.237"/>
<polygon fill="orange" stroke="orange" points="518.239,-432.096 515.187,-442.242 523.9,-436.214 518.239,-432.096"/>
<text text-anchor="middle" x="569" y="-415.5" font-family="Helvetica,sans-Serif" font-size="10.00"> &lt; trng::yarn3 &gt;</text>
</g>
<!-- Node7 -->
<g id="node7" class="node"><title>Node7</title>
<polygon fill="white" stroke="#bfbfbf" points="480.5,-548.5 480.5,-605.5 509.5,-605.5 509.5,-548.5 480.5,-548.5"/>
<text text-anchor="middle" x="495" y="-593.5" font-family="Helvetica,sans-Serif" font-size="10.00">T</text>
<polyline fill="none" stroke="#bfbfbf" points="480.5,-586.5 509.5,-586.5 "/>
<text text-anchor="middle" x="495" y="-574.5" font-family="Helvetica,sans-Serif" font-size="10.00"> </text>
<polyline fill="none" stroke="#bfbfbf" points="480.5,-567.5 509.5,-567.5 "/>
<text text-anchor="middle" x="495" y="-555.5" font-family="Helvetica,sans-Serif" font-size="10.00"> </text>
</g>
<!-- Node7&#45;&gt;Node6 -->
<g id="edge6" class="edge"><title>Node7&#45;&gt;Node6</title>
<path fill="none" stroke="#404040" d="M495,-548.403C495,-537.237 495,-524.13 495,-511.956"/>
<polygon fill="none" stroke="#404040" points="495,-511.726 491,-505.726 495,-499.726 499,-505.726 495,-511.726"/>
<text text-anchor="middle" x="519.5" y="-521.5" font-family="Helvetica,sans-Serif" font-size="10.00"> +elements</text>
</g>
<!-- Node8 -->
<g id="node8" class="node"><title>Node8</title>
<polygon fill="white" stroke="#bfbfbf" points="159.5,-330.5 159.5,-387.5 236.5,-387.5 236.5,-330.5 159.5,-330.5"/>
<text text-anchor="middle" x="198" y="-375.5" font-family="Helvetica,sans-Serif" font-size="10.00">unsigned long</text>
<polyline fill="none" stroke="#bfbfbf" points="159.5,-368.5 236.5,-368.5 "/>
<text text-anchor="middle" x="198" y="-356.5" font-family="Helvetica,sans-Serif" font-size="10.00"> </text>
<polyline fill="none" stroke="#bfbfbf" points="159.5,-349.5 236.5,-349.5 "/>
<text text-anchor="middle" x="198" y="-337.5" font-family="Helvetica,sans-Serif" font-size="10.00"> </text>
</g>
<!-- Node8&#45;&gt;Node3 -->
<g id="edge7" class="edge"><title>Node8&#45;&gt;Node3</title>
<path fill="none" stroke="#404040" d="M233.711,-330.454C237.427,-328.112 241.227,-325.912 245,-324 283.738,-304.364 295.983,-304.989 338,-294 373.688,-284.667 389.345,-294.305 425.027,-276.234"/>
<polygon fill="none" stroke="#404040" points="425.151,-276.165 428.469,-269.763 435.655,-270.363 432.337,-276.766 425.151,-276.165"/>
<text text-anchor="middle" x="358.5" y="-297.5" font-family="Helvetica,sans-Serif" font-size="10.00"> &#45;m_seed</text>
</g>
<!-- Node9&#45;&gt;Node3 -->
<g id="edge8" class="edge"><title>Node9&#45;&gt;Node3</title>
<path fill="none" stroke="#404040" d="M431.576,-324.848C437.282,-313.436 443.969,-300.061 450.822,-286.355"/>
<polygon fill="none" stroke="#404040" points="450.972,-286.057 450.077,-278.901 456.338,-275.323 457.233,-282.479 450.972,-286.057"/>
<text text-anchor="middle" x="467" y="-297.5" font-family="Helvetica,sans-Serif" font-size="10.00"> &#45;m_mrg2</text>
</g>
<!-- Node10 -->
<g id="node10" class="node"><title>Node10</title>
<polygon fill="white" stroke="#bfbfbf" points="271,-442.5 271,-499.5 309,-499.5 309,-442.5 271,-442.5"/>
<text text-anchor="middle" x="290" y="-487.5" font-family="Helvetica,sans-Serif" font-size="10.00">mrg2</text>
<polyline fill="none" stroke="#bfbfbf" points="271,-480.5 309,-480.5 "/>
<text text-anchor="middle" x="290" y="-468.5" font-family="Helvetica,sans-Serif" font-size="10.00"> </text>
<polyline fill="none" stroke="#bfbfbf" points="271,-461.5 309,-461.5 "/>
<text text-anchor="middle" x="290" y="-449.5" font-family="Helvetica,sans-Serif" font-size="10.00"> </text>
</g>
<!-- Node10&#45;&gt;Node9 -->
<g id="edge9" class="edge"><title>Node10&#45;&gt;Node9</title>
<path fill="none" stroke="#404040" d="M283.862,-442.264C283.131,-431.805 284.431,-420.415 291,-412 307.971,-390.258 325.469,-402.622 355.946,-393.81"/>
<polygon fill="none" stroke="#404040" points="356,-393.791 360.287,-387.992 367.288,-389.719 363.001,-395.518 356,-393.791"/>
<text text-anchor="middle" x="315.5" y="-415.5" font-family="Helvetica,sans-Serif" font-size="10.00"> +elements</text>
</g>
<!-- Node11&#45;&gt;Node3 -->
<g id="edge11" class="edge"><title>Node11&#45;&gt;Node3</title>
<path fill="none" stroke="#404040" d="M141.658,-327.39C164.427,-314.479 192.633,-300.866 220,-294 261.724,-283.532 369.645,-295.105 424.679,-275.612"/>
<polygon fill="none" stroke="#404040" points="424.865,-275.532 428.801,-269.489 435.892,-270.798 431.956,-276.841 424.865,-275.532"/>
<text text-anchor="middle" x="253.5" y="-297.5" font-family="Helvetica,sans-Serif" font-size="10.00"> &#45;m_lcg64_shift</text>
</g>
<!-- Node12 -->
<g id="node12" class="node"><title>Node12</title>
<polygon fill="white" stroke="#bfbfbf" points="0,-442.5 0,-499.5 64,-499.5 64,-442.5 0,-442.5"/>
<text text-anchor="middle" x="32" y="-487.5" font-family="Helvetica,sans-Serif" font-size="10.00">lcg64_shift</text>
<polyline fill="none" stroke="#bfbfbf" points="0,-480.5 64,-480.5 "/>
<text text-anchor="middle" x="32" y="-468.5" font-family="Helvetica,sans-Serif" font-size="10.00"> </text>
<polyline fill="none" stroke="#bfbfbf" points="0,-461.5 64,-461.5 "/>
<text text-anchor="middle" x="32" y="-449.5" font-family="Helvetica,sans-Serif" font-size="10.00"> </text>
</g>
<!-- Node12&#45;&gt;Node11 -->
<g id="edge12" class="edge"><title>Node12&#45;&gt;Node11</title>
<path fill="none" stroke="#404040" d="M27.8895,-442.37C27.5653,-432.384 28.6148,-421.289 33,-412 34.5826,-408.647 36.4965,-405.43 38.6555,-402.355"/>
<polygon fill="none" stroke="#404040" points="38.6836,-402.32 39.3851,-395.143 46.2798,-393.03 45.5783,-400.207 38.6836,-402.32"/>
<text text-anchor="middle" x="57.5" y="-415.5" font-family="Helvetica,sans-Serif" font-size="10.00"> +elements</text>
</g>
<!-- Node13 -->
<g id="node13" class="node"><title>Node13</title>
<polygon fill="white" stroke="#bfbfbf" points="480.5,-330.5 480.5,-387.5 509.5,-387.5 509.5,-330.5 480.5,-330.5"/>
<text text-anchor="middle" x="495" y="-375.5" font-family="Helvetica,sans-Serif" font-size="10.00">Id</text>
<polyline fill="none" stroke="#bfbfbf" points="480.5,-368.5 509.5,-368.5 "/>
<text text-anchor="middle" x="495" y="-356.5" font-family="Helvetica,sans-Serif" font-size="10.00"> </text>
<polyline fill="none" stroke="#bfbfbf" points="480.5,-349.5 509.5,-349.5 "/>
<text text-anchor="middle" x="495" y="-337.5" font-family="Helvetica,sans-Serif" font-size="10.00"> </text>
</g>
<!-- Node13&#45;&gt;Node3 -->
<g id="edge14" class="edge"><title>Node13&#45;&gt;Node3</title>
<path fill="none" stroke="#404040" d="M495,-330.495C495,-318.178 495,-302.887 495,-287.118"/>
<polygon fill="none" stroke="#404040" points="495,-287.008 491,-281.008 495,-275.008 499,-281.008 495,-287.008"/>
<text text-anchor="middle" x="521" y="-297.5" font-family="Helvetica,sans-Serif" font-size="10.00"> &#45;m_type_id</text>
</g>
<!-- Node14&#45;&gt;Node3 -->
<g id="edge15" class="edge"><title>Node14&#45;&gt;Node3</title>
<path fill="none" stroke="#404040" d="M836.53,-324.958C827.538,-313.797 816.368,-302.122 804,-294 730.731,-245.886 631.981,-220.759 566.033,-208.473"/>
<polygon fill="none" stroke="#404040" points="565.924,-208.453 559.31,-211.326 554.115,-206.325 560.729,-203.453 565.924,-208.453"/>
<text text-anchor="middle" x="840.5" y="-297.5" font-family="Helvetica,sans-Serif" font-size="10.00"> &#45;m_lcg64</text>
</g>
<!-- Node15 -->
<g id="node15" class="node"><title>Node15</title>
<polygon fill="white" stroke="#bfbfbf" points="936,-442.5 936,-499.5 976,-499.5 976,-442.5 936,-442.5"/>
<text text-anchor="middle" x="956" y="-487.5" font-family="Helvetica,sans-Serif" font-size="10.00">lcg64</text>
<polyline fill="none" stroke="#bfbfbf" points="936,-480.5 976,-480.5 "/>
<text text-anchor="middle" x="956" y="-468.5" font-family="Helvetica,sans-Serif" font-size="10.00"> </text>
<polyline fill="none" stroke="#bfbfbf" points="936,-461.5 976,-461.5 "/>
<text text-anchor="middle" x="956" y="-449.5" font-family="Helvetica,sans-Serif" font-size="10.00"> </text>
</g>
<!-- Node15&#45;&gt;Node14 -->
<g id="edge16" class="edge"><title>Node15&#45;&gt;Node14</title>
<path fill="none" stroke="#404040" d="M949.238,-442.271C945.823,-432.05 940.898,-420.824 934,-412 928.951,-405.542 922.88,-399.571 916.406,-394.153"/>
<polygon fill="none" stroke="#404040" points="916.183,-393.98 908.99,-393.459 906.705,-386.62 913.897,-387.14 916.183,-393.98"/>
<text text-anchor="middle" x="966.5" y="-415.5" font-family="Helvetica,sans-Serif" font-size="10.00"> +elements</text>
</g>
<!-- Node16&#45;&gt;Node3 -->
<g id="edge18" class="edge"><title>Node16&#45;&gt;Node3</title>
<path fill="none" stroke="#404040" d="M648.01,-324.848C623.707,-304.7 592.02,-278.431 563.789,-255.028"/>
<polygon fill="none" stroke="#404040" points="563.602,-254.872 556.43,-254.122 554.364,-247.214 561.536,-247.964 563.602,-254.872"/>
<text text-anchor="middle" x="643" y="-297.5" font-family="Helvetica,sans-Serif" font-size="10.00"> &#45;m_yarn2</text>
</g>
<!-- Node17 -->
<g id="node17" class="node"><title>Node17</title>
<polygon fill="white" stroke="#bfbfbf" points="863.5,-442.5 863.5,-499.5 904.5,-499.5 904.5,-442.5 863.5,-442.5"/>
<text text-anchor="middle" x="884" y="-487.5" font-family="Helvetica,sans-Serif" font-size="10.00">yarn2</text>
<polyline fill="none" stroke="#bfbfbf" points="863.5,-480.5 904.5,-480.5 "/>
<text text-anchor="middle" x="884" y="-468.5" font-family="Helvetica,sans-Serif" font-size="10.00"> </text>
<polyline fill="none" stroke="#bfbfbf" points="863.5,-461.5 904.5,-461.5 "/>
<text text-anchor="middle" x="884" y="-449.5" font-family="Helvetica,sans-Serif" font-size="10.00"> </text>
</g>
<!-- Node17&#45;&gt;Node16 -->
<g id="edge19" class="edge"><title>Node17&#45;&gt;Node16</title>
<path fill="none" stroke="#404040" d="M879.769,-442.489C876.667,-431.417 871.297,-419.515 862,-412 823.563,-380.929 797.604,-407.854 747.166,-394.259"/>
<polygon fill="none" stroke="#404040" points="747.082,-394.233 740.148,-396.213 735.654,-390.574 742.588,-388.594 747.082,-394.233"/>
<text text-anchor="middle" x="896.5" y="-415.5" font-family="Helvetica,sans-Serif" font-size="10.00"> +elements</text>
</g>
<!-- Node18 -->
<g id="node18" class="node"><title>Node18</title>
<polygon fill="white" stroke="#bfbfbf" points="753.5,-330.5 753.5,-387.5 782.5,-387.5 782.5,-330.5 753.5,-330.5"/>
<text text-anchor="middle" x="768" y="-375.5" font-family="Helvetica,sans-Serif" font-size="10.00">int</text>
<polyline fill="none" stroke="#bfbfbf" points="753.5,-368.5 782.5,-368.5 "/>
<text text-anchor="middle" x="768" y="-356.5" font-family="Helvetica,sans-Serif" font-size="10.00"> </text>
<polyline fill="none" stroke="#bfbfbf" points="753.5,-349.5 782.5,-349.5 "/>
<text text-anchor="middle" x="768" y="-337.5" font-family="Helvetica,sans-Serif" font-size="10.00"> </text>
</g>
<!-- Node18&#45;&gt;Node3 -->
<g id="edge21" class="edge"><title>Node18&#45;&gt;Node3</title>
<path fill="none" stroke="#404040" d="M753.383,-334.061C750.546,-330.432 747.39,-326.928 744,-324 691.048,-278.275 618.606,-244.044 565.511,-222.888"/>
<polygon fill="none" stroke="#404040" points="565.326,-222.816 558.281,-224.355 554.151,-218.443 561.196,-216.905 565.326,-222.816"/>
<text text-anchor="middle" x="760.5" y="-297.5" font-family="Helvetica,sans-Serif" font-size="10.00"> &#45;m_stream_count</text>
</g>
<!-- Node19&#45;&gt;Node3 -->
<g id="edge22" class="edge"><title>Node19&#45;&gt;Node3</title>
<path fill="none" stroke="#404040" d="M563.071,-324.715C559.199,-314.709 554.686,-303.792 550,-294 548.694,-291.271 547.341,-288.515 545.951,-285.744"/>
<polygon fill="none" stroke="#404040" points="545.922,-285.688 539.619,-282.184 540.43,-275.019 546.732,-278.523 545.922,-285.688"/>
<text text-anchor="middle" x="578" y="-297.5" font-family="Helvetica,sans-Serif" font-size="10.00"> &#45;m_yarn3</text>
</g>
<!-- Node20 -->
<g id="node20" class="node"><title>Node20</title>
<polygon fill="white" stroke="#bfbfbf" points="701.5,-442.5 701.5,-499.5 742.5,-499.5 742.5,-442.5 701.5,-442.5"/>
<text text-anchor="middle" x="722" y="-487.5" font-family="Helvetica,sans-Serif" font-size="10.00">yarn3</text>
<polyline fill="none" stroke="#bfbfbf" points="701.5,-480.5 742.5,-480.5 "/>
<text text-anchor="middle" x="722" y="-468.5" font-family="Helvetica,sans-Serif" font-size="10.00"> </text>
<polyline fill="none" stroke="#bfbfbf" points="701.5,-461.5 742.5,-461.5 "/>
<text text-anchor="middle" x="722" y="-449.5" font-family="Helvetica,sans-Serif" font-size="10.00"> </text>
</g>
<!-- Node20&#45;&gt;Node19 -->
<g id="edge23" class="edge"><title>Node20&#45;&gt;Node19</title>
<path fill="none" stroke="#404040" d="M717.208,-442.349C714.019,-431.522 708.734,-419.843 700,-412 678.999,-393.14 663.825,-403.396 634.338,-394.473"/>
<polygon fill="none" stroke="#404040" points="634.053,-394.368 627.041,-396.052 622.79,-390.228 629.801,-388.543 634.053,-394.368"/>
<text text-anchor="middle" x="734.5" y="-415.5" font-family="Helvetica,sans-Serif" font-size="10.00"> +elements</text>
</g>
</g>
</svg>
        <g id="navigator" transform="translate(0 0)" fill="#404254">
                <rect fill="#f2f5e9" fill-opacity="0.5" stroke="#606060" stroke-width=".5" x="0" y="0" width="60" height="60"/>
                <use id="zoomplus" xlink:href="#zoomPlus" x="17" y="9" onmousedown="handleZoom(evt,'in')"/>
                <use id="zoomminus" xlink:href="#zoomMin" x="42" y="9" onmousedown="handleZoom(evt,'out')"/>
                <use id="reset" xlink:href="#resetDef" x="30" y="36" onmousedown="handleReset()"/>
                <g id="arrowUp" xlink:href="#dirArrow" transform="translate(30 24)" onmousedown="handlePan(0,-1)">
                  <use xlink:href="#rim" fill="#404040">
                        <set attributeName="fill" to="#808080" begin="arrowUp.mouseover" end="arrowUp.mouseout"/>
                  </use>
                  <path fill="none" stroke="white" stroke-width="1.5" d="M0,-3.0v7 M-2.5,-0.5L0,-3.0L2.5,-0.5"/>
                </g>
                <g id="arrowRight" xlink:href="#dirArrow" transform="rotate(90) translate(36 -43)" onmousedown="handlePan(1,0)">
                  <use xlink:href="#rim" fill="#404040">
                        <set attributeName="fill" to="#808080" begin="arrowRight.mouseover" end="arrowRight.mouseout"/>
                  </use>
                  <path fill="none" stroke="white" stroke-width="1.5" d="M0,-3.0v7 M-2.5,-0.5L0,-3.0L2.5,-0.5"/>
                </g>
                <g id="arrowDown" xlink:href="#dirArrow" transform="rotate(180) translate(-30 -48)" onmousedown="handlePan(0,1)">
                  <use xlink:href="#rim" fill="#404040">
                        <set attributeName="fill" to="#808080" begin="arrowDown.mouseover" end="arrowDown.mouseout"/>
                  </use>
                  <path fill="none" stroke="white" stroke-width="1.5" d="M0,-3.0v7 M-2.5,-0.5L0,-3.0L2.5,-0.5"/>
                </g>
                <g id="arrowLeft" xlink:href="#dirArrow" transform="rotate(270) translate(-36 17)" onmousedown="handlePan(-1,0)">
                  <use xlink:href="#rim" fill="#404040">
                        <set attributeName="fill" to="#808080" begin="arrowLeft.mouseover" end="arrowLeft.mouseout"/>
                  </use>
                  <path fill="none" stroke="white" stroke-width="1.5" d="M0,-3.0v7 M-2.5,-0.5L0,-3.0L2.5,-0.5"/>
                </g>
        </g>
        <svg viewBox="0 0 15 15" width="100%" height="30px" preserveAspectRatio="xMaxYMin meet">
         <g id="arrow_out" transform="scale(0.3 0.3)">
          <a xlink:href="a01239_org.svg" target="_base">
           <rect id="button" ry="5" rx="5" y="6" x="6" height="38" width="38"
                fill="#f2f5e9" fill-opacity="0.5" stroke="#606060" stroke-width="1.0"/>
           <path id="arrow"
             d="M 11.500037,31.436501 C 11.940474,20.09759 22.043105,11.32322 32.158766,21.979434 L 37.068811,17.246167 C 37.068811,17.246167 37.088388,32 37.088388,32 L 22.160133,31.978069 C 22.160133,31.978069 26.997745,27.140456 26.997745,27.140456 C 18.528582,18.264221 13.291696,25.230495 11.500037,31.436501 z"
             style="fill:#404040;"/>
          </a>
         </g>
        </svg>
</svg>
