<?xml version="1.0" encoding="UTF-8" standalone="no"?>
<!DOCTYPE svg PUBLIC "-//W3C//DTD SVG 1.1//EN"
 "http://www.w3.org/Graphics/SVG/1.1/DTD/svg11.dtd">
<!-- Generated by graphviz version 2.36.0 (20140111.2315)
 -->
<!-- Title: ConfigFileCalibrationRunner.cpp Pages: 1 -->
<svg width="1635pt" height="388pt"
 viewBox="0.00 0.00 1634.64 388.00" xmlns="http://www.w3.org/2000/svg" xmlns:xlink="http://www.w3.org/1999/xlink">
<g id="graph0" class="graph" transform="scale(1 1) rotate(0) translate(4 384)">
<title>ConfigFileCalibrationRunner.cpp</title>
<polygon fill="white" stroke="none" points="-4,4 -4,-384 1630.64,-384 1630.64,4 -4,4"/>
<!-- Node1 -->
<g id="node1" class="node"><title>Node1</title>
<polygon fill="#bfbfbf" stroke="black" points="1110.64,-360.5 1110.64,-379.5 1268.64,-379.5 1268.64,-360.5 1110.64,-360.5"/>
<text text-anchor="middle" x="1189.64" y="-367.5" font-family="Helvetica,sans-Serif" font-size="10.00">ConfigFileCalibrationRunner.cpp</text>
</g>
<!-- Node2 -->
<g id="node2" class="node"><title>Node2</title>
<g id="a_node2"><a xlink:href="../../d9/d01/a00227.html" target="_top" xlink:title="ConfigFileCalibrationRunner.h">
<polygon fill="white" stroke="black" points="660.138,-298.5 660.138,-317.5 807.138,-317.5 807.138,-298.5 660.138,-298.5"/>
<text text-anchor="middle" x="733.638" y="-305.5" font-family="Helvetica,sans-Serif" font-size="10.00">ConfigFileCalibrationRunner.h</text>
</a>
</g>
</g>
<!-- Node1&#45;&gt;Node2 -->
<g id="edge1" class="edge"><title>Node1&#45;&gt;Node2</title>
<path fill="none" stroke="midnightblue" d="M1111.25,-360.498C1036.65,-352.151 921.308,-338.58 821.638,-324 811.747,-322.553 801.254,-320.883 791.09,-319.194"/>
<polygon fill="midnightblue" stroke="midnightblue" points="791.513,-315.716 781.07,-317.507 790.35,-322.619 791.513,-315.716"/>
</g>
<!-- Node7 -->
<g id="node7" class="node"><title>Node7</title>
<g id="a_node7"><a xlink:href="../../dd/de3/a00201.html" target="_top" xlink:title="Calibrator.h">
<polygon fill="white" stroke="black" points="762.138,-180.5 762.138,-199.5 829.138,-199.5 829.138,-180.5 762.138,-180.5"/>
<text text-anchor="middle" x="795.638" y="-187.5" font-family="Helvetica,sans-Serif" font-size="10.00">Calibrator.h</text>
</a>
</g>
</g>
<!-- Node1&#45;&gt;Node7 -->
<g id="edge38" class="edge"><title>Node1&#45;&gt;Node7</title>
<path fill="none" stroke="midnightblue" d="M1132.1,-360.475C1060.19,-347.597 935.854,-317.805 847.638,-256 829.774,-243.484 814.898,-223.131 805.698,-208.533"/>
<polygon fill="midnightblue" stroke="midnightblue" points="808.659,-206.666 800.496,-199.912 802.665,-210.282 808.659,-206.666"/>
</g>
<!-- Node21 -->
<g id="node21" class="node"><title>Node21</title>
<polygon fill="white" stroke="#bfbfbf" points="1058.14,-293 1058.14,-323 1161.14,-323 1161.14,-293 1058.14,-293"/>
<text text-anchor="start" x="1066.14" y="-311" font-family="Helvetica,sans-Serif" font-size="10.00">../../test/cpp/gtester</text>
<text text-anchor="middle" x="1109.64" y="-300" font-family="Helvetica,sans-Serif" font-size="10.00">/ScenarioData.h</text>
</g>
<!-- Node1&#45;&gt;Node21 -->
<g id="edge30" class="edge"><title>Node1&#45;&gt;Node21</title>
<path fill="none" stroke="midnightblue" d="M1178.18,-360.403C1167.34,-352.277 1150.68,-339.779 1136.49,-329.142"/>
<polygon fill="midnightblue" stroke="midnightblue" points="1138.59,-326.341 1128.49,-323.141 1134.39,-331.941 1138.59,-326.341"/>
</g>
<!-- Node22 -->
<g id="node22" class="node"><title>Node22</title>
<g id="a_node22"><a xlink:href="../../dd/da2/a00192.html" target="_top" xlink:title="Boxplot.h">
<polygon fill="white" stroke="black" points="1076.64,-118.5 1076.64,-137.5 1134.64,-137.5 1134.64,-118.5 1076.64,-118.5"/>
<text text-anchor="middle" x="1105.64" y="-125.5" font-family="Helvetica,sans-Serif" font-size="10.00">Boxplot.h</text>
</a>
</g>
</g>
<!-- Node1&#45;&gt;Node22 -->
<g id="edge31" class="edge"><title>Node1&#45;&gt;Node22</title>
<path fill="none" stroke="midnightblue" d="M1187.75,-360.357C1184.54,-346.009 1177.58,-316.432 1169.64,-292 1152.24,-238.437 1126.51,-177.04 1113.61,-147.195"/>
<polygon fill="midnightblue" stroke="midnightblue" points="1116.68,-145.474 1109.48,-137.699 1110.26,-148.266 1116.68,-145.474"/>
</g>
<!-- Node24 -->
<g id="node24" class="node"><title>Node24</title>
<g id="a_node24"><a xlink:href="../../df/da9/a00263.html" target="_top" xlink:title="Interface for install directory queries. ">
<polygon fill="white" stroke="black" points="1217.64,-180.5 1217.64,-199.5 1291.64,-199.5 1291.64,-180.5 1217.64,-180.5"/>
<text text-anchor="middle" x="1254.64" y="-187.5" font-family="Helvetica,sans-Serif" font-size="10.00">util/FileSys.h</text>
</a>
</g>
</g>
<!-- Node1&#45;&gt;Node24 -->
<g id="edge39" class="edge"><title>Node1&#45;&gt;Node24</title>
<path fill="none" stroke="midnightblue" d="M1192.77,-360.415C1202.74,-333.11 1233.89,-247.832 1247.8,-209.724"/>
<polygon fill="midnightblue" stroke="midnightblue" points="1251.24,-210.512 1251.38,-199.918 1244.66,-208.111 1251.24,-210.512"/>
</g>
<!-- Node27 -->
<g id="node27" class="node"><title>Node27</title>
<g id="a_node27"><a xlink:href="../../dc/dc9/a00389.html" target="_top" xlink:title="Produce run config ptree. ">
<polygon fill="white" stroke="black" points="1357.14,-180.5 1357.14,-199.5 1482.14,-199.5 1482.14,-180.5 1357.14,-180.5"/>
<text text-anchor="middle" x="1419.64" y="-187.5" font-family="Helvetica,sans-Serif" font-size="10.00">util/RunConfigManager.h</text>
</a>
</g>
</g>
<!-- Node1&#45;&gt;Node27 -->
<g id="edge45" class="edge"><title>Node1&#45;&gt;Node27</title>
<path fill="none" stroke="midnightblue" d="M1200.07,-360.32C1217.45,-345.917 1253.48,-316.265 1284.64,-292 1324.89,-260.651 1372.91,-225.171 1399.46,-205.717"/>
<polygon fill="midnightblue" stroke="midnightblue" points="1401.6,-208.492 1407.6,-199.763 1397.46,-202.842 1401.6,-208.492"/>
</g>
<!-- Node29 -->
<g id="node29" class="node"><title>Node29</title>
<polygon fill="white" stroke="#bfbfbf" points="1294.14,-298.5 1294.14,-317.5 1335.14,-317.5 1335.14,-298.5 1294.14,-298.5"/>
<text text-anchor="middle" x="1314.64" y="-305.5" font-family="Helvetica,sans-Serif" font-size="10.00">regex</text>
</g>
<!-- Node1&#45;&gt;Node29 -->
<g id="edge51" class="edge"><title>Node1&#45;&gt;Node29</title>
<path fill="none" stroke="midnightblue" d="M1207.55,-360.403C1228.53,-350.334 1263.49,-333.552 1287.73,-321.915"/>
<polygon fill="midnightblue" stroke="midnightblue" points="1289.26,-325.063 1296.76,-317.581 1286.23,-318.753 1289.26,-325.063"/>
</g>
<!-- Node3 -->
<g id="node3" class="node"><title>Node3</title>
<polygon fill="white" stroke="#bfbfbf" points="919.138,-113 919.138,-143 1020.14,-143 1020.14,-113 919.138,-113"/>
<text text-anchor="start" x="927.138" y="-131" font-family="Helvetica,sans-Serif" font-size="10.00">boost/property_tree</text>
<text text-anchor="middle" x="969.638" y="-120" font-family="Helvetica,sans-Serif" font-size="10.00">/ptree.hpp</text>
</g>
<!-- Node2&#45;&gt;Node3 -->
<g id="edge2" class="edge"><title>Node2&#45;&gt;Node3</title>
<path fill="none" stroke="midnightblue" d="M807.37,-300.912C868.489,-294.16 948.495,-280.784 968.638,-256 992.192,-227.021 985.018,-180.8 977.465,-152.834"/>
<polygon fill="midnightblue" stroke="midnightblue" points="980.78,-151.7 974.615,-143.084 974.061,-153.664 980.78,-151.7"/>
</g>
<!-- Node4 -->
<g id="node4" class="node"><title>Node4</title>
<polygon fill="white" stroke="#bfbfbf" points="1092.14,-0.5 1092.14,-19.5 1133.14,-19.5 1133.14,-0.5 1092.14,-0.5"/>
<text text-anchor="middle" x="1112.64" y="-7.5" font-family="Helvetica,sans-Serif" font-size="10.00">string</text>
</g>
<!-- Node2&#45;&gt;Node4 -->
<g id="edge3" class="edge"><title>Node2&#45;&gt;Node4</title>
<path fill="none" stroke="midnightblue" d="M660.1,-302.996C474.475,-291.913 1.63832,-257.184 1.63832,-191 1.63832,-191 1.63832,-191 1.63832,-127 1.63832,-94.3341 -4.91497,-76.3492 20.6383,-56 64.4729,-21.0926 972.745,-23.9873 1028.64,-20 1046.23,-18.745 1065.83,-16.6832 1081.67,-14.8495"/>
<polygon fill="midnightblue" stroke="midnightblue" points="1082.44,-18.2822 1091.96,-13.6292 1081.62,-11.3309 1082.44,-18.2822"/>
</g>
<!-- Node5 -->
<g id="node5" class="node"><title>Node5</title>
<polygon fill="white" stroke="#bfbfbf" points="857.638,-56.5 857.638,-75.5 901.638,-75.5 901.638,-56.5 857.638,-56.5"/>
<text text-anchor="middle" x="879.638" y="-63.5" font-family="Helvetica,sans-Serif" font-size="10.00">vector</text>
</g>
<!-- Node2&#45;&gt;Node5 -->
<g id="edge4" class="edge"><title>Node2&#45;&gt;Node5</title>
<path fill="none" stroke="midnightblue" d="M733.212,-298.095C732.258,-267.418 733.44,-165.102 787.638,-112 804.51,-95.4694 828.645,-83.9774 847.962,-76.7461"/>
<polygon fill="midnightblue" stroke="midnightblue" points="849.302,-79.9849 857.561,-73.3488 846.966,-73.386 849.302,-79.9849"/>
</g>
<!-- Node6 -->
<g id="node6" class="node"><title>Node6</title>
<g id="a_node6"><a xlink:href="../../d8/d72/a00199.html" target="_top" xlink:title="CalibrationRunner.h">
<polygon fill="white" stroke="black" points="857.138,-236.5 857.138,-255.5 960.138,-255.5 960.138,-236.5 857.138,-236.5"/>
<text text-anchor="middle" x="908.638" y="-243.5" font-family="Helvetica,sans-Serif" font-size="10.00">CalibrationRunner.h</text>
</a>
</g>
</g>
<!-- Node2&#45;&gt;Node6 -->
<g id="edge5" class="edge"><title>Node2&#45;&gt;Node6</title>
<path fill="none" stroke="midnightblue" d="M758.712,-298.403C788.99,-288.022 840.079,-270.506 874.079,-258.849"/>
<polygon fill="midnightblue" stroke="midnightblue" points="875.287,-262.135 883.612,-255.581 873.017,-255.513 875.287,-262.135"/>
</g>
<!-- Node2&#45;&gt;Node7 -->
<g id="edge29" class="edge"><title>Node2&#45;&gt;Node7</title>
<path fill="none" stroke="midnightblue" d="M738.298,-298.281C748.492,-279.21 772.929,-233.488 786.377,-208.327"/>
<polygon fill="midnightblue" stroke="midnightblue" points="789.466,-209.974 791.093,-199.505 783.292,-206.674 789.466,-209.974"/>
</g>
<!-- Node6&#45;&gt;Node3 -->
<g id="edge6" class="edge"><title>Node6&#45;&gt;Node3</title>
<path fill="none" stroke="midnightblue" d="M913.223,-236.281C922.51,-218.621 943.815,-178.106 957.423,-152.229"/>
<polygon fill="midnightblue" stroke="midnightblue" points="960.664,-153.586 962.22,-143.106 954.468,-150.328 960.664,-153.586"/>
</g>
<!-- Node6&#45;&gt;Node4 -->
<g id="edge7" class="edge"><title>Node6&#45;&gt;Node4</title>
<path fill="none" stroke="midnightblue" d="M942.064,-236.424C990.173,-222.861 1080.03,-192.866 1142.64,-144 1172.63,-120.592 1182.44,-112.037 1194.64,-76 1197.49,-67.5805 1199.17,-63.6493 1194.64,-56 1183.49,-37.1657 1161.35,-25.69 1142.89,-19.0452"/>
<polygon fill="midnightblue" stroke="midnightblue" points="1143.96,-15.7152 1133.37,-15.9159 1141.78,-22.3648 1143.96,-15.7152"/>
</g>
<!-- Node6&#45;&gt;Node5 -->
<g id="edge8" class="edge"><title>Node6&#45;&gt;Node5</title>
<path fill="none" stroke="midnightblue" d="M907.24,-236.415C902.81,-209.227 889.017,-124.563 882.769,-86.2169"/>
<polygon fill="midnightblue" stroke="midnightblue" points="886.154,-85.2255 881.091,-75.9185 879.245,-86.3512 886.154,-85.2255"/>
</g>
<!-- Node6&#45;&gt;Node7 -->
<g id="edge9" class="edge"><title>Node6&#45;&gt;Node7</title>
<path fill="none" stroke="midnightblue" d="M890.733,-236.444C872.384,-227.675 843.633,-213.935 822.545,-203.858"/>
<polygon fill="midnightblue" stroke="midnightblue" points="823.992,-200.67 813.46,-199.516 820.973,-206.986 823.992,-200.67"/>
</g>
<!-- Node7&#45;&gt;Node3 -->
<g id="edge10" class="edge"><title>Node7&#45;&gt;Node3</title>
<path fill="none" stroke="midnightblue" d="M820.568,-180.403C846.201,-171.564 886.835,-157.553 919.209,-146.39"/>
<polygon fill="midnightblue" stroke="midnightblue" points="920.652,-149.594 928.965,-143.025 918.37,-142.976 920.652,-149.594"/>
</g>
<!-- Node7&#45;&gt;Node5 -->
<g id="edge28" class="edge"><title>Node7&#45;&gt;Node5</title>
<path fill="none" stroke="midnightblue" d="M793.682,-180.107C790.847,-164.87 787.283,-133.352 800.638,-112 811.274,-94.9961 830.813,-83.7858 847.798,-76.8068"/>
<polygon fill="midnightblue" stroke="midnightblue" points="849.298,-79.9818 857.417,-73.1748 846.825,-73.4331 849.298,-79.9818"/>
</g>
<!-- Node8 -->
<g id="node8" class="node"><title>Node8</title>
<polygon fill="white" stroke="#bfbfbf" points="1015.14,-56.5 1015.14,-75.5 1050.14,-75.5 1050.14,-56.5 1015.14,-56.5"/>
<text text-anchor="middle" x="1032.64" y="-63.5" font-family="Helvetica,sans-Serif" font-size="10.00">map</text>
</g>
<!-- Node7&#45;&gt;Node8 -->
<g id="edge11" class="edge"><title>Node7&#45;&gt;Node8</title>
<path fill="none" stroke="midnightblue" d="M812.408,-180.361C828.386,-171.864 852.867,-158.144 872.638,-144 890.321,-131.35 890.9,-123.027 909.638,-112 918.141,-106.997 971.643,-88.0962 1005.22,-76.4403"/>
<polygon fill="midnightblue" stroke="midnightblue" points="1006.63,-79.6576 1014.94,-73.079 1004.34,-73.0427 1006.63,-79.6576"/>
</g>
<!-- Node9 -->
<g id="node9" class="node"><title>Node9</title>
<g id="a_node9"><a xlink:href="../../d2/daf/a00346.html" target="_top" xlink:title="Logging (spdlog) utilities. ">
<polygon fill="white" stroke="black" points="920.138,-56.5 920.138,-75.5 997.138,-75.5 997.138,-56.5 920.138,-56.5"/>
<text text-anchor="middle" x="958.638" y="-63.5" font-family="Helvetica,sans-Serif" font-size="10.00">util/LogUtils.h</text>
</a>
</g>
</g>
<!-- Node7&#45;&gt;Node9 -->
<g id="edge12" class="edge"><title>Node7&#45;&gt;Node9</title>
<path fill="none" stroke="midnightblue" d="M803.513,-180.143C817.308,-164.959 847.186,-133.519 876.638,-112 893.628,-99.587 914.425,-88.2115 930.824,-80.0032"/>
<polygon fill="midnightblue" stroke="midnightblue" points="932.469,-83.095 939.909,-75.5524 929.389,-76.8089 932.469,-83.095"/>
</g>
<!-- Node12 -->
<g id="node12" class="node"><title>Node12</title>
<g id="a_node12"><a xlink:href="../../db/db9/a00387.html" target="_top" xlink:title="Interface of RNManager. ">
<polygon fill="white" stroke="black" points="527.138,-118.5 527.138,-137.5 620.138,-137.5 620.138,-118.5 527.138,-118.5"/>
<text text-anchor="middle" x="573.638" y="-125.5" font-family="Helvetica,sans-Serif" font-size="10.00">util/RNManager.h</text>
</a>
</g>
</g>
<!-- Node7&#45;&gt;Node12 -->
<g id="edge16" class="edge"><title>Node7&#45;&gt;Node12</title>
<path fill="none" stroke="midnightblue" d="M763.831,-180.403C724.761,-169.844 658.378,-151.903 615.278,-140.254"/>
<polygon fill="midnightblue" stroke="midnightblue" points="615.953,-136.811 605.387,-137.581 614.127,-143.569 615.953,-136.811"/>
</g>
<!-- Node9&#45;&gt;Node4 -->
<g id="edge15" class="edge"><title>Node9&#45;&gt;Node4</title>
<path fill="none" stroke="midnightblue" d="M983.04,-56.4435C1009.9,-47.0262 1053.11,-31.8746 1082.17,-21.6842"/>
<polygon fill="midnightblue" stroke="midnightblue" points="1083.53,-24.916 1091.81,-18.3042 1081.21,-18.3104 1083.53,-24.916"/>
</g>
<!-- Node10 -->
<g id="node10" class="node"><title>Node10</title>
<polygon fill="white" stroke="#bfbfbf" points="864.638,-0.5 864.638,-19.5 916.638,-19.5 916.638,-0.5 864.638,-0.5"/>
<text text-anchor="middle" x="890.638" y="-7.5" font-family="Helvetica,sans-Serif" font-size="10.00">memory</text>
</g>
<!-- Node9&#45;&gt;Node10 -->
<g id="edge13" class="edge"><title>Node9&#45;&gt;Node10</title>
<path fill="none" stroke="midnightblue" d="M947.713,-56.324C937.464,-48.1849 921.918,-35.8395 909.637,-26.0874"/>
<polygon fill="midnightblue" stroke="midnightblue" points="911.77,-23.3119 901.762,-19.8339 907.417,-28.7937 911.77,-23.3119"/>
</g>
<!-- Node11 -->
<g id="node11" class="node"><title>Node11</title>
<polygon fill="white" stroke="#bfbfbf" points="935.138,-0.5 935.138,-19.5 1020.14,-19.5 1020.14,-0.5 935.138,-0.5"/>
<text text-anchor="middle" x="977.638" y="-7.5" font-family="Helvetica,sans-Serif" font-size="10.00">spdlog/spdlog.h</text>
</g>
<!-- Node9&#45;&gt;Node11 -->
<g id="edge14" class="edge"><title>Node9&#45;&gt;Node11</title>
<path fill="none" stroke="midnightblue" d="M961.776,-56.083C964.321,-48.8486 967.995,-38.4087 971.165,-29.3968"/>
<polygon fill="midnightblue" stroke="midnightblue" points="974.542,-30.3459 974.559,-19.7511 967.939,-28.0225 974.542,-30.3459"/>
</g>
<!-- Node12&#45;&gt;Node4 -->
<g id="edge26" class="edge"><title>Node12&#45;&gt;Node4</title>
<path fill="none" stroke="midnightblue" d="M605.904,-118.437C638.453,-109.386 689.87,-93.9527 732.638,-76 750.236,-68.613 752.449,-61.7794 770.638,-56 800.006,-46.6686 1003.22,-23.2544 1081.75,-14.4337"/>
<polygon fill="midnightblue" stroke="midnightblue" points="1082.43,-17.88 1091.98,-13.2889 1081.65,-10.9235 1082.43,-17.88"/>
</g>
<!-- Node12&#45;&gt;Node5 -->
<g id="edge27" class="edge"><title>Node12&#45;&gt;Node5</title>
<path fill="none" stroke="midnightblue" d="M620.447,-119.608C673.178,-110.988 761.604,-95.6526 847.417,-75.8606"/>
<polygon fill="midnightblue" stroke="midnightblue" points="848.38,-79.2301 857.325,-73.5525 846.792,-72.4127 848.38,-79.2301"/>
</g>
<!-- Node13 -->
<g id="node13" class="node"><title>Node13</title>
<g id="a_node13"><a xlink:href="../../d5/d05/a00385.html" target="_top" xlink:title="Interface of Random Engine Type. ">
<polygon fill="white" stroke="black" points="631.638,-56.5 631.638,-75.5 723.638,-75.5 723.638,-56.5 631.638,-56.5"/>
<text text-anchor="middle" x="677.638" y="-63.5" font-family="Helvetica,sans-Serif" font-size="10.00">RNEngineType.h</text>
</a>
</g>
</g>
<!-- Node12&#45;&gt;Node13 -->
<g id="edge17" class="edge"><title>Node12&#45;&gt;Node13</title>
<path fill="none" stroke="midnightblue" d="M588.539,-118.403C605.606,-108.557 633.8,-92.2915 653.9,-80.6949"/>
<polygon fill="midnightblue" stroke="midnightblue" points="655.852,-83.6095 662.765,-75.5806 652.354,-77.5462 655.852,-83.6095"/>
</g>
<!-- Node14 -->
<g id="node14" class="node"><title>Node14</title>
<polygon fill="white" stroke="#bfbfbf" points="127.638,-56.5 127.638,-75.5 205.638,-75.5 205.638,-56.5 127.638,-56.5"/>
<text text-anchor="middle" x="166.638" y="-63.5" font-family="Helvetica,sans-Serif" font-size="10.00">trng/lcg64.hpp</text>
</g>
<!-- Node12&#45;&gt;Node14 -->
<g id="edge19" class="edge"><title>Node12&#45;&gt;Node14</title>
<path fill="none" stroke="midnightblue" d="M527.066,-121.053C460.383,-112.391 333.621,-95.3776 215.579,-76.0947"/>
<polygon fill="midnightblue" stroke="midnightblue" points="216.081,-72.6303 205.646,-74.4631 214.946,-79.5377 216.081,-72.6303"/>
</g>
<!-- Node15 -->
<g id="node15" class="node"><title>Node15</title>
<polygon fill="white" stroke="#bfbfbf" points="223.638,-56.5 223.638,-75.5 325.638,-75.5 325.638,-56.5 223.638,-56.5"/>
<text text-anchor="middle" x="274.638" y="-63.5" font-family="Helvetica,sans-Serif" font-size="10.00">trng/lcg64_shift.hpp</text>
</g>
<!-- Node12&#45;&gt;Node15 -->
<g id="edge20" class="edge"><title>Node12&#45;&gt;Node15</title>
<path fill="none" stroke="midnightblue" d="M531.116,-118.467C477.427,-107.693 385.081,-89.1623 327.075,-77.5223"/>
<polygon fill="midnightblue" stroke="midnightblue" points="327.507,-74.0393 317.014,-75.5034 326.129,-80.9025 327.507,-74.0393"/>
</g>
<!-- Node16 -->
<g id="node16" class="node"><title>Node16</title>
<polygon fill="white" stroke="#bfbfbf" points="344.138,-56.5 344.138,-75.5 421.138,-75.5 421.138,-56.5 344.138,-56.5"/>
<text text-anchor="middle" x="382.638" y="-63.5" font-family="Helvetica,sans-Serif" font-size="10.00">trng/mrg2.hpp</text>
</g>
<!-- Node12&#45;&gt;Node16 -->
<g id="edge21" class="edge"><title>Node12&#45;&gt;Node16</title>
<path fill="none" stroke="midnightblue" d="M546.273,-118.403C513.084,-107.978 456.987,-90.3557 419.881,-78.6992"/>
<polygon fill="midnightblue" stroke="midnightblue" points="420.543,-75.2385 409.953,-75.5806 418.445,-81.9167 420.543,-75.2385"/>
</g>
<!-- Node17 -->
<g id="node17" class="node"><title>Node17</title>
<polygon fill="white" stroke="#bfbfbf" points="439.138,-56.5 439.138,-75.5 516.138,-75.5 516.138,-56.5 439.138,-56.5"/>
<text text-anchor="middle" x="477.638" y="-63.5" font-family="Helvetica,sans-Serif" font-size="10.00">trng/mrg3.hpp</text>
</g>
<!-- Node12&#45;&gt;Node17 -->
<g id="edge22" class="edge"><title>Node12&#45;&gt;Node17</title>
<path fill="none" stroke="midnightblue" d="M559.884,-118.403C544.272,-108.646 518.575,-92.5854 500.056,-81.0109"/>
<polygon fill="midnightblue" stroke="midnightblue" points="501.702,-77.9126 491.367,-75.5806 497.992,-83.8486 501.702,-77.9126"/>
</g>
<!-- Node18 -->
<g id="node18" class="node"><title>Node18</title>
<polygon fill="white" stroke="#bfbfbf" points="534.138,-56.5 534.138,-75.5 613.138,-75.5 613.138,-56.5 534.138,-56.5"/>
<text text-anchor="middle" x="573.638" y="-63.5" font-family="Helvetica,sans-Serif" font-size="10.00">trng/yarn2.hpp</text>
</g>
<!-- Node12&#45;&gt;Node18 -->
<g id="edge23" class="edge"><title>Node12&#45;&gt;Node18</title>
<path fill="none" stroke="midnightblue" d="M573.638,-118.403C573.638,-109.938 573.638,-96.7283 573.638,-85.8199"/>
<polygon fill="midnightblue" stroke="midnightblue" points="577.138,-85.5806 573.638,-75.5806 570.138,-85.5806 577.138,-85.5806"/>
</g>
<!-- Node19 -->
<g id="node19" class="node"><title>Node19</title>
<polygon fill="white" stroke="#bfbfbf" points="30.1383,-56.5 30.1383,-75.5 109.138,-75.5 109.138,-56.5 30.1383,-56.5"/>
<text text-anchor="middle" x="69.6383" y="-63.5" font-family="Helvetica,sans-Serif" font-size="10.00">trng/yarn3.hpp</text>
</g>
<!-- Node12&#45;&gt;Node19 -->
<g id="edge24" class="edge"><title>Node12&#45;&gt;Node19</title>
<path fill="none" stroke="midnightblue" d="M526.994,-122.859C446.207,-115.45 274.827,-98.6909 119.393,-76.0106"/>
<polygon fill="midnightblue" stroke="midnightblue" points="119.582,-72.5008 109.179,-74.5081 118.563,-79.4263 119.582,-72.5008"/>
</g>
<!-- Node20 -->
<g id="node20" class="node"><title>Node20</title>
<polygon fill="white" stroke="#bfbfbf" points="780.138,-56.5 780.138,-75.5 839.138,-75.5 839.138,-56.5 780.138,-56.5"/>
<text text-anchor="middle" x="809.638" y="-63.5" font-family="Helvetica,sans-Serif" font-size="10.00">functional</text>
</g>
<!-- Node12&#45;&gt;Node20 -->
<g id="edge25" class="edge"><title>Node12&#45;&gt;Node20</title>
<path fill="none" stroke="midnightblue" d="M607.201,-118.467C650.147,-107.549 724.429,-88.6634 770.08,-77.0573"/>
<polygon fill="midnightblue" stroke="midnightblue" points="771.091,-80.4116 779.92,-74.5555 769.366,-73.6274 771.091,-80.4116"/>
</g>
<!-- Node13&#45;&gt;Node4 -->
<g id="edge18" class="edge"><title>Node13&#45;&gt;Node4</title>
<path fill="none" stroke="midnightblue" d="M723.807,-57.9347C728.476,-57.2621 733.15,-56.6058 737.638,-56 865.102,-38.7962 1017.4,-21.537 1081.64,-14.4075"/>
<polygon fill="midnightblue" stroke="midnightblue" points="1082.32,-17.8527 1091.88,-13.2739 1081.55,-10.8952 1082.32,-17.8527"/>
</g>
<!-- Node22&#45;&gt;Node4 -->
<g id="edge33" class="edge"><title>Node22&#45;&gt;Node4</title>
<path fill="none" stroke="midnightblue" d="M1103.11,-118.218C1099.59,-104.769 1094.02,-78.2845 1097.64,-56 1099.11,-46.9568 1102.13,-37.275 1105.08,-29.2176"/>
<polygon fill="midnightblue" stroke="midnightblue" points="1108.4,-30.3393 1108.78,-19.7514 1101.88,-27.7907 1108.4,-30.3393"/>
</g>
<!-- Node22&#45;&gt;Node5 -->
<g id="edge35" class="edge"><title>Node22&#45;&gt;Node5</title>
<path fill="none" stroke="midnightblue" d="M1082.57,-118.462C1076.16,-116.224 1069.17,-113.906 1062.64,-112 998.99,-93.4151 979.508,-93.6226 911.831,-76.2017"/>
<polygon fill="midnightblue" stroke="midnightblue" points="912.512,-72.7622 901.952,-73.6228 910.744,-79.5352 912.512,-72.7622"/>
</g>
<!-- Node22&#45;&gt;Node8 -->
<g id="edge32" class="edge"><title>Node22&#45;&gt;Node8</title>
<path fill="none" stroke="midnightblue" d="M1095.18,-118.403C1083.69,-108.958 1065.01,-93.6056 1051.05,-82.1342"/>
<polygon fill="midnightblue" stroke="midnightblue" points="1053.03,-79.2264 1043.08,-75.5806 1048.58,-84.6342 1053.03,-79.2264"/>
</g>
<!-- Node22&#45;&gt;Node9 -->
<g id="edge34" class="edge"><title>Node22&#45;&gt;Node9</title>
<path fill="none" stroke="midnightblue" d="M1084.58,-118.403C1059.58,-108.2 1017.7,-91.1055 989.152,-79.4544"/>
<polygon fill="midnightblue" stroke="midnightblue" points="990.242,-76.1192 979.661,-75.5806 987.597,-82.6001 990.242,-76.1192"/>
</g>
<!-- Node23 -->
<g id="node23" class="node"><title>Node23</title>
<g id="a_node23"><a xlink:href="../../dd/df4/a00193.html" target="_top" xlink:title="BoxplotData.h">
<polygon fill="white" stroke="black" points="1107.14,-56.5 1107.14,-75.5 1186.14,-75.5 1186.14,-56.5 1107.14,-56.5"/>
<text text-anchor="middle" x="1146.64" y="-63.5" font-family="Helvetica,sans-Serif" font-size="10.00">BoxplotData.h</text>
</a>
</g>
</g>
<!-- Node22&#45;&gt;Node23 -->
<g id="edge36" class="edge"><title>Node22&#45;&gt;Node23</title>
<path fill="none" stroke="midnightblue" d="M1111.51,-118.403C1117.6,-109.493 1127.28,-95.3247 1134.94,-84.1177"/>
<polygon fill="midnightblue" stroke="midnightblue" points="1138.02,-85.8117 1140.77,-75.5806 1132.24,-81.8624 1138.02,-85.8117"/>
</g>
<!-- Node23&#45;&gt;Node4 -->
<g id="edge37" class="edge"><title>Node23&#45;&gt;Node4</title>
<path fill="none" stroke="midnightblue" d="M1141.02,-56.083C1136.27,-48.5341 1129.32,-37.4948 1123.49,-28.2298"/>
<polygon fill="midnightblue" stroke="midnightblue" points="1126.44,-26.3486 1118.15,-19.7511 1120.51,-30.0783 1126.44,-26.3486"/>
</g>
<!-- Node24&#45;&gt;Node3 -->
<g id="edge42" class="edge"><title>Node24&#45;&gt;Node3</title>
<path fill="none" stroke="midnightblue" d="M1217.6,-181.718C1173.83,-173.044 1098.83,-157.969 1034.64,-144 1033.19,-143.684 1031.72,-143.363 1030.24,-143.037"/>
<polygon fill="midnightblue" stroke="midnightblue" points="1030.87,-139.592 1020.35,-140.832 1029.35,-146.425 1030.87,-139.592"/>
</g>
<!-- Node24&#45;&gt;Node4 -->
<g id="edge44" class="edge"><title>Node24&#45;&gt;Node4</title>
<path fill="none" stroke="midnightblue" d="M1270.42,-180.467C1282.84,-172.769 1299.24,-160.179 1306.64,-144 1312.55,-131.065 1313.13,-124.654 1306.64,-112 1274.96,-50.2548 1189.63,-25.194 1143.41,-15.9086"/>
<polygon fill="midnightblue" stroke="midnightblue" points="1143.84,-12.4278 1133.36,-14.016 1142.54,-19.3068 1143.84,-12.4278"/>
</g>
<!-- Node24&#45;&gt;Node20 -->
<g id="edge43" class="edge"><title>Node24&#45;&gt;Node20</title>
<path fill="none" stroke="midnightblue" d="M1217.47,-185.049C1178.47,-179.787 1116.22,-168.169 1067.64,-144 1047.56,-134.013 1048.9,-121.596 1028.64,-112 957.784,-78.4472 930.538,-91.9951 849.575,-76.0637"/>
<polygon fill="midnightblue" stroke="midnightblue" points="849.93,-72.5633 839.429,-73.9696 848.515,-79.4188 849.93,-72.5633"/>
</g>
<!-- Node25 -->
<g id="node25" class="node"><title>Node25</title>
<polygon fill="white" stroke="#bfbfbf" points="1191.14,-118.5 1191.14,-137.5 1298.14,-137.5 1298.14,-118.5 1191.14,-118.5"/>
<text text-anchor="middle" x="1244.64" y="-125.5" font-family="Helvetica,sans-Serif" font-size="10.00">boost/filesystem.hpp</text>
</g>
<!-- Node24&#45;&gt;Node25 -->
<g id="edge40" class="edge"><title>Node24&#45;&gt;Node25</title>
<path fill="none" stroke="midnightblue" d="M1253.21,-180.403C1251.78,-171.849 1249.55,-158.45 1247.72,-147.476"/>
<polygon fill="midnightblue" stroke="midnightblue" points="1251.16,-146.869 1246.07,-137.581 1244.26,-148.02 1251.16,-146.869"/>
</g>
<!-- Node26 -->
<g id="node26" class="node"><title>Node26</title>
<polygon fill="white" stroke="#bfbfbf" points="1355.14,-118.5 1355.14,-137.5 1484.14,-137.5 1484.14,-118.5 1355.14,-118.5"/>
<text text-anchor="middle" x="1419.64" y="-125.5" font-family="Helvetica,sans-Serif" font-size="10.00">boost/filesystem/path.hpp</text>
</g>
<!-- Node24&#45;&gt;Node26 -->
<g id="edge41" class="edge"><title>Node24&#45;&gt;Node26</title>
<path fill="none" stroke="midnightblue" d="M1278.28,-180.403C1306.7,-170.067 1354.58,-152.656 1386.64,-140.999"/>
<polygon fill="midnightblue" stroke="midnightblue" points="1387.84,-144.287 1396.04,-137.581 1385.45,-137.709 1387.84,-144.287"/>
</g>
<!-- Node27&#45;&gt;Node3 -->
<g id="edge49" class="edge"><title>Node27&#45;&gt;Node3</title>
<path fill="none" stroke="midnightblue" d="M1356.94,-181.46C1286.5,-172.877 1168.76,-158.201 1067.64,-144 1055.59,-142.308 1042.72,-140.406 1030.4,-138.54"/>
<polygon fill="midnightblue" stroke="midnightblue" points="1030.63,-135.034 1020.21,-136.986 1029.57,-141.954 1030.63,-135.034"/>
</g>
<!-- Node27&#45;&gt;Node4 -->
<g id="edge50" class="edge"><title>Node27&#45;&gt;Node4</title>
<path fill="none" stroke="midnightblue" d="M1445.85,-180.414C1462.49,-173.445 1482.7,-161.809 1492.64,-144 1499.57,-131.582 1501.31,-123.275 1492.64,-112 1449.39,-55.7513 1225.79,-24.2536 1143.28,-14.4011"/>
<polygon fill="midnightblue" stroke="midnightblue" points="1143.6,-10.9157 1133.27,-13.23 1142.79,-17.8683 1143.6,-10.9157"/>
</g>
<!-- Node27&#45;&gt;Node26 -->
<g id="edge48" class="edge"><title>Node27&#45;&gt;Node26</title>
<path fill="none" stroke="midnightblue" d="M1419.64,-180.403C1419.64,-171.938 1419.64,-158.728 1419.64,-147.82"/>
<polygon fill="midnightblue" stroke="midnightblue" points="1423.14,-147.581 1419.64,-137.581 1416.14,-147.581 1423.14,-147.581"/>
</g>
<!-- Node28 -->
<g id="node28" class="node"><title>Node28</title>
<g id="a_node28"><a xlink:href="../../dd/d2d/a00229.html" target="_top" xlink:title="Info on configuration. ">
<polygon fill="white" stroke="black" points="1540.64,-118.5 1540.64,-137.5 1626.64,-137.5 1626.64,-118.5 1540.64,-118.5"/>
<text text-anchor="middle" x="1583.64" y="-125.5" font-family="Helvetica,sans-Serif" font-size="10.00">util/ConfigInfo.h</text>
</a>
</g>
</g>
<!-- Node27&#45;&gt;Node28 -->
<g id="edge46" class="edge"><title>Node27&#45;&gt;Node28</title>
<path fill="none" stroke="midnightblue" d="M1443.14,-180.403C1471.27,-170.111 1518.57,-152.806 1550.43,-141.15"/>
<polygon fill="midnightblue" stroke="midnightblue" points="1552,-144.303 1560.18,-137.581 1549.59,-137.73 1552,-144.303"/>
</g>
<!-- Node28&#45;&gt;Node4 -->
<g id="edge47" class="edge"><title>Node28&#45;&gt;Node4</title>
<path fill="none" stroke="midnightblue" d="M1579.48,-118.154C1571.62,-102.552 1552.98,-70.4333 1526.64,-56 1460.58,-19.8021 1227.79,-12.7176 1143.44,-11.3344"/>
<polygon fill="midnightblue" stroke="midnightblue" points="1143.28,-7.83182 1133.23,-11.1834 1143.18,-14.831 1143.28,-7.83182"/>
</g>
</g>
</svg>
