<?xml version="1.0" encoding="UTF-8" standalone="no"?>
<!DOCTYPE svg PUBLIC "-//W3C//DTD SVG 1.1//EN"
 "http://www.w3.org/Graphics/SVG/1.1/DTD/svg11.dtd">
<!-- Generated by graphviz version 2.36.0 (20140111.2315)
 -->
<!-- Title: stride::util::TimeStamp Pages: 1 -->
<svg width="122pt" height="206pt"
 viewBox="0.00 0.00 122.00 206.00" xmlns="http://www.w3.org/2000/svg" xmlns:xlink="http://www.w3.org/1999/xlink">
<g id="graph0" class="graph" transform="scale(1 1) rotate(0) translate(4 202)">
<title>stride::util::TimeStamp</title>
<polygon fill="white" stroke="none" points="-4,4 -4,-202 118,-202 118,4 -4,4"/>
<!-- Node1 -->
<g id="node1" class="node"><title>Node1</title>
<polygon fill="#bfbfbf" stroke="black" points="-1,-1 -1,-91 115,-91 115,-1 -1,-1"/>
<text text-anchor="middle" x="57" y="-79" font-family="Helvetica,sans-Serif" font-size="10.00">stride::util::TimeStamp</text>
<polyline fill="none" stroke="black" points="-1,-72 115,-72 "/>
<text text-anchor="middle" x="57" y="-60" font-family="Helvetica,sans-Serif" font-size="10.00"> </text>
<polyline fill="none" stroke="black" points="-1,-53 115,-53 "/>
<text text-anchor="start" x="7" y="-41" font-family="Helvetica,sans-Serif" font-size="10.00">+ TimeStamp()</text>
<text text-anchor="start" x="7" y="-30" font-family="Helvetica,sans-Serif" font-size="10.00">+ ToString()</text>
<text text-anchor="start" x="7" y="-19" font-family="Helvetica,sans-Serif" font-size="10.00">+ ToTag()</text>
<text text-anchor="start" x="7" y="-8" font-family="Helvetica,sans-Serif" font-size="10.00">+ ToTimeT()</text>
</g>
<!-- Node2 -->
<g id="node2" class="node"><title>Node2</title>
<polygon fill="white" stroke="#bfbfbf" points="26,-140.5 26,-197.5 88,-197.5 88,-140.5 26,-140.5"/>
<text text-anchor="middle" x="57" y="-185.5" font-family="Helvetica,sans-Serif" font-size="10.00">time_point</text>
<polyline fill="none" stroke="#bfbfbf" points="26,-178.5 88,-178.5 "/>
<text text-anchor="middle" x="57" y="-166.5" font-family="Helvetica,sans-Serif" font-size="10.00"> </text>
<polyline fill="none" stroke="#bfbfbf" points="26,-159.5 88,-159.5 "/>
<text text-anchor="middle" x="57" y="-147.5" font-family="Helvetica,sans-Serif" font-size="10.00"> </text>
</g>
<!-- Node2&#45;&gt;Node1 -->
<g id="edge1" class="edge"><title>Node2&#45;&gt;Node1</title>
<path fill="none" stroke="#404040" d="M57,-140.24C57,-129.242 57,-116.179 57,-103.364"/>
<polygon fill="none" stroke="#404040" points="57.0001,-103.23 53,-97.2296 57,-91.2295 61,-97.2295 57.0001,-103.23"/>
<text text-anchor="middle" x="71" y="-113.5" font-family="Helvetica,sans-Serif" font-size="10.00"> &#45;m_tp</text>
</g>
</g>
</svg>
