<?xml version="1.0" encoding="UTF-8" standalone="no"?>
<!DOCTYPE svg PUBLIC "-//W3C//DTD SVG 1.1//EN"
 "http://www.w3.org/Graphics/SVG/1.1/DTD/svg11.dtd">
<!-- Generated by graphviz version 2.36.0 (20140111.2315)
 -->
<!-- Title: gengeopop::K12SchoolPopulator Pages: 1 -->
<svg width="999pt" height="754pt"
 viewBox="0.00 0.00 999.00 754.00" xmlns="http://www.w3.org/2000/svg" xmlns:xlink="http://www.w3.org/1999/xlink">
<g id="graph0" class="graph" transform="scale(1 1) rotate(0) translate(4 750)">
<title>gengeopop::K12SchoolPopulator</title>
<polygon fill="white" stroke="none" points="-4,4 -4,-750 995,-750 995,4 -4,4"/>
<!-- Node1 -->
<g id="node1" class="node"><title>Node1</title>
<polygon fill="#bfbfbf" stroke="black" points="338,-0.5 338,-57.5 496,-57.5 496,-0.5 338,-0.5"/>
<text text-anchor="middle" x="417" y="-45.5" font-family="Helvetica,sans-Serif" font-size="10.00">gengeopop::K12SchoolPopulator</text>
<polyline fill="none" stroke="black" points="338,-38.5 496,-38.5 "/>
<text text-anchor="middle" x="417" y="-26.5" font-family="Helvetica,sans-Serif" font-size="10.00"> </text>
<polyline fill="none" stroke="black" points="338,-19.5 496,-19.5 "/>
<text text-anchor="start" x="346" y="-7.5" font-family="Helvetica,sans-Serif" font-size="10.00">+ Apply()</text>
</g>
<!-- Node2 -->
<g id="node2" class="node"><title>Node2</title>
<g id="a_node2"><a xlink:href="../../d1/d22/a00057.html" target="_top" xlink:title="An interface for populators that provide a partial solution. ">
<polygon fill="white" stroke="black" points="343,-97 343,-209 491,-209 491,-97 343,-97"/>
<text text-anchor="middle" x="417" y="-197" font-family="Helvetica,sans-Serif" font-size="10.00">gengeopop::PartialPopulator</text>
<polyline fill="none" stroke="black" points="343,-190 491,-190 "/>
<text text-anchor="middle" x="417" y="-178" font-family="Helvetica,sans-Serif" font-size="10.00"> </text>
<polyline fill="none" stroke="black" points="343,-171 491,-171 "/>
<text text-anchor="start" x="351" y="-159" font-family="Helvetica,sans-Serif" font-size="10.00">+ PartialPopulator()</text>
<text text-anchor="start" x="351" y="-148" font-family="Helvetica,sans-Serif" font-size="10.00">+ Apply()</text>
<text text-anchor="start" x="351" y="-137" font-family="Helvetica,sans-Serif" font-size="10.00">+ ~PartialPopulator()</text>
<text text-anchor="start" x="351" y="-126" font-family="Helvetica,sans-Serif" font-size="10.00"># GetContactPoolInIncreasing</text>
<text text-anchor="start" x="351" y="-115" font-family="Helvetica,sans-Serif" font-size="10.00">Radius()</text>
<text text-anchor="start" x="351" y="-104" font-family="Helvetica,sans-Serif" font-size="10.00"># MakeChoice()</text>
</a>
</g>
</g>
<!-- Node2&#45;&gt;Node1 -->
<g id="edge1" class="edge"><title>Node2&#45;&gt;Node1</title>
<path fill="none" stroke="midnightblue" d="M417,-86.5636C417,-76.429 417,-66.4584 417,-57.7791"/>
<polygon fill="none" stroke="midnightblue" points="413.5,-86.7113 417,-96.7113 420.5,-86.7113 413.5,-86.7113"/>
</g>
<!-- Node3 -->
<g id="node3" class="node"><title>Node3</title>
<polygon fill="white" stroke="#bfbfbf" points="318,-303 318,-371 418,-371 418,-303 318,-303"/>
<text text-anchor="start" x="326" y="-359" font-family="Helvetica,sans-Serif" font-size="10.00">shared_ptr&lt; spdlog</text>
<text text-anchor="middle" x="368" y="-348" font-family="Helvetica,sans-Serif" font-size="10.00">::logger &gt;</text>
<polyline fill="none" stroke="#bfbfbf" points="318,-341 418,-341 "/>
<text text-anchor="middle" x="368" y="-329" font-family="Helvetica,sans-Serif" font-size="10.00"> </text>
<polyline fill="none" stroke="#bfbfbf" points="318,-322 418,-322 "/>
<text text-anchor="middle" x="368" y="-310" font-family="Helvetica,sans-Serif" font-size="10.00"> </text>
</g>
<!-- Node3&#45;&gt;Node2 -->
<g id="edge2" class="edge"><title>Node3&#45;&gt;Node2</title>
<path fill="none" stroke="#404040" d="M376.383,-302.861C381.847,-281.465 389.2,-253.049 396,-228 396.617,-225.728 397.248,-223.419 397.889,-221.088"/>
<polygon fill="none" stroke="#404040" points="397.945,-220.885 395.694,-214.034 401.152,-209.321 403.403,-216.172 397.945,-220.885"/>
<text text-anchor="middle" x="420.5" y="-231.5" font-family="Helvetica,sans-Serif" font-size="10.00"> #m_logger</text>
</g>
<!-- Node4 -->
<g id="node4" class="node"><title>Node4</title>
<g id="a_node4"><a xlink:href="../../d6/d7d/a00161.html" target="_top" xlink:title="Manages random number generation in parallel (OpenMP) calculations. ">
<polygon fill="white" stroke="black" points="436,-259 436,-415 554,-415 554,-259 436,-259"/>
<text text-anchor="middle" x="495" y="-403" font-family="Helvetica,sans-Serif" font-size="10.00">stride::util::RNManager</text>
<polyline fill="none" stroke="black" points="436,-396 554,-396 "/>
<text text-anchor="middle" x="495" y="-384" font-family="Helvetica,sans-Serif" font-size="10.00"> </text>
<polyline fill="none" stroke="black" points="436,-377 554,-377 "/>
<text text-anchor="start" x="444" y="-365" font-family="Helvetica,sans-Serif" font-size="10.00">+ RNManager()</text>
<text text-anchor="start" x="444" y="-354" font-family="Helvetica,sans-Serif" font-size="10.00">+ RNManager()</text>
<text text-anchor="start" x="444" y="-343" font-family="Helvetica,sans-Serif" font-size="10.00">+ RNManager()</text>
<text text-anchor="start" x="444" y="-332" font-family="Helvetica,sans-Serif" font-size="10.00">+ operator=()</text>
<text text-anchor="start" x="444" y="-321" font-family="Helvetica,sans-Serif" font-size="10.00">+ operator=()</text>
<text text-anchor="start" x="444" y="-310" font-family="Helvetica,sans-Serif" font-size="10.00">+ GetInfo()</text>
<text text-anchor="start" x="444" y="-299" font-family="Helvetica,sans-Serif" font-size="10.00">+ GetGenerator()</text>
<text text-anchor="start" x="444" y="-288" font-family="Helvetica,sans-Serif" font-size="10.00">+ RandomShuffle()</text>
<text text-anchor="start" x="444" y="-277" font-family="Helvetica,sans-Serif" font-size="10.00">+ Initialize()</text>
<text text-anchor="start" x="444" y="-266" font-family="Helvetica,sans-Serif" font-size="10.00">+ Initialize()</text>
</a>
</g>
</g>
<!-- Node4&#45;&gt;Node2 -->
<g id="edge3" class="edge"><title>Node4&#45;&gt;Node2</title>
<path fill="none" stroke="#404040" d="M461.921,-258.816C456.453,-246.057 450.826,-232.928 445.484,-220.463"/>
<polygon fill="none" stroke="#404040" points="445.398,-220.261 439.358,-216.322 440.671,-209.231 446.711,-213.17 445.398,-220.261"/>
<text text-anchor="middle" x="488" y="-231.5" font-family="Helvetica,sans-Serif" font-size="10.00"> #m_rnManager</text>
</g>
<!-- Node5 -->
<g id="node5" class="node"><title>Node5</title>
<polygon fill="white" stroke="#bfbfbf" points="254.5,-465 254.5,-533 349.5,-533 349.5,-465 254.5,-465"/>
<text text-anchor="start" x="262.5" y="-521" font-family="Helvetica,sans-Serif" font-size="10.00">std::vector&lt; trng::</text>
<text text-anchor="middle" x="302" y="-510" font-family="Helvetica,sans-Serif" font-size="10.00">mrg3 &gt;</text>
<polyline fill="none" stroke="#bfbfbf" points="254.5,-503 349.5,-503 "/>
<text text-anchor="middle" x="302" y="-491" font-family="Helvetica,sans-Serif" font-size="10.00"> </text>
<polyline fill="none" stroke="#bfbfbf" points="254.5,-484 349.5,-484 "/>
<text text-anchor="middle" x="302" y="-472" font-family="Helvetica,sans-Serif" font-size="10.00"> </text>
</g>
<!-- Node5&#45;&gt;Node4 -->
<g id="edge4" class="edge"><title>Node5&#45;&gt;Node4</title>
<path fill="none" stroke="#404040" d="M349.653,-465.79C365.016,-455.524 382.166,-444.188 398,-434 410.757,-425.792 415.443,-425.826 427,-416 427.094,-415.92 427.188,-415.84 427.282,-415.76"/>
<polygon fill="none" stroke="#404040" points="427.042,-415.975 428.831,-408.989 435.968,-407.954 434.179,-414.939 427.042,-415.975"/>
<text text-anchor="middle" x="419" y="-437.5" font-family="Helvetica,sans-Serif" font-size="10.00"> &#45;m_mrg3</text>
</g>
<!-- Node6 -->
<g id="node6" class="node"><title>Node6</title>
<polygon fill="white" stroke="#bfbfbf" points="85,-582.5 85,-639.5 123,-639.5 123,-582.5 85,-582.5"/>
<text text-anchor="middle" x="104" y="-627.5" font-family="Helvetica,sans-Serif" font-size="10.00">mrg3</text>
<polyline fill="none" stroke="#bfbfbf" points="85,-620.5 123,-620.5 "/>
<text text-anchor="middle" x="104" y="-608.5" font-family="Helvetica,sans-Serif" font-size="10.00"> </text>
<polyline fill="none" stroke="#bfbfbf" points="85,-601.5 123,-601.5 "/>
<text text-anchor="middle" x="104" y="-589.5" font-family="Helvetica,sans-Serif" font-size="10.00"> </text>
</g>
<!-- Node6&#45;&gt;Node5 -->
<g id="edge5" class="edge"><title>Node6&#45;&gt;Node5</title>
<path fill="none" stroke="#404040" d="M97.3428,-582.385C96.4346,-571.693 97.746,-560.104 105,-552 124.04,-530.728 199.837,-541.757 242.801,-533.329"/>
<polygon fill="none" stroke="#404040" points="242.883,-533.307 247.65,-527.896 254.478,-530.215 249.712,-535.626 242.883,-533.307"/>
<text text-anchor="middle" x="129.5" y="-555.5" font-family="Helvetica,sans-Serif" font-size="10.00"> +elements</text>
</g>
<!-- Node7 -->
<g id="node7" class="node"><title>Node7</title>
<g id="a_node7"><a xlink:title="STL class. ">
<polygon fill="white" stroke="#bfbfbf" points="451.5,-582.5 451.5,-639.5 538.5,-639.5 538.5,-582.5 451.5,-582.5"/>
<text text-anchor="middle" x="495" y="-627.5" font-family="Helvetica,sans-Serif" font-size="10.00">std::vector&lt; T &gt;</text>
<polyline fill="none" stroke="#bfbfbf" points="451.5,-620.5 538.5,-620.5 "/>
<text text-anchor="middle" x="495" y="-608.5" font-family="Helvetica,sans-Serif" font-size="10.00"> </text>
<polyline fill="none" stroke="#bfbfbf" points="451.5,-601.5 538.5,-601.5 "/>
<text text-anchor="middle" x="495" y="-589.5" font-family="Helvetica,sans-Serif" font-size="10.00"> </text>
</a>
</g>
</g>
<!-- Node7&#45;&gt;Node5 -->
<g id="edge6" class="edge"><title>Node7&#45;&gt;Node5</title>
<path fill="none" stroke="orange" d="M441.487,-594.352C419.717,-586.81 394.832,-576.629 374,-564 359.841,-555.417 345.866,-543.901 334.049,-533.004"/>
<polygon fill="orange" stroke="orange" points="440.651,-597.764 451.245,-597.632 442.881,-591.128 440.651,-597.764"/>
<text text-anchor="middle" x="407" y="-555.5" font-family="Helvetica,sans-Serif" font-size="10.00"> &lt; trng::mrg3 &gt;</text>
</g>
<!-- Node10 -->
<g id="node10" class="node"><title>Node10</title>
<polygon fill="white" stroke="#bfbfbf" points="367.5,-465 367.5,-533 462.5,-533 462.5,-465 367.5,-465"/>
<text text-anchor="start" x="375.5" y="-521" font-family="Helvetica,sans-Serif" font-size="10.00">std::vector&lt; trng::</text>
<text text-anchor="middle" x="415" y="-510" font-family="Helvetica,sans-Serif" font-size="10.00">mrg2 &gt;</text>
<polyline fill="none" stroke="#bfbfbf" points="367.5,-503 462.5,-503 "/>
<text text-anchor="middle" x="415" y="-491" font-family="Helvetica,sans-Serif" font-size="10.00"> </text>
<polyline fill="none" stroke="#bfbfbf" points="367.5,-484 462.5,-484 "/>
<text text-anchor="middle" x="415" y="-472" font-family="Helvetica,sans-Serif" font-size="10.00"> </text>
</g>
<!-- Node7&#45;&gt;Node10 -->
<g id="edge11" class="edge"><title>Node7&#45;&gt;Node10</title>
<path fill="none" stroke="orange" d="M460.487,-574.643C457.511,-571.134 454.635,-567.554 452,-564 444.892,-554.412 438.065,-543.343 432.253,-533.136"/>
<polygon fill="orange" stroke="orange" points="457.874,-576.972 467.104,-582.173 463.132,-572.351 457.874,-576.972"/>
<text text-anchor="middle" x="485" y="-555.5" font-family="Helvetica,sans-Serif" font-size="10.00"> &lt; trng::mrg2 &gt;</text>
</g>
<!-- Node12 -->
<g id="node12" class="node"><title>Node12</title>
<polygon fill="white" stroke="#bfbfbf" points="46.5,-465 46.5,-533 141.5,-533 141.5,-465 46.5,-465"/>
<text text-anchor="start" x="54.5" y="-521" font-family="Helvetica,sans-Serif" font-size="10.00">std::vector&lt; trng::</text>
<text text-anchor="middle" x="94" y="-510" font-family="Helvetica,sans-Serif" font-size="10.00">lcg64_shift &gt;</text>
<polyline fill="none" stroke="#bfbfbf" points="46.5,-503 141.5,-503 "/>
<text text-anchor="middle" x="94" y="-491" font-family="Helvetica,sans-Serif" font-size="10.00"> </text>
<polyline fill="none" stroke="#bfbfbf" points="46.5,-484 141.5,-484 "/>
<text text-anchor="middle" x="94" y="-472" font-family="Helvetica,sans-Serif" font-size="10.00"> </text>
</g>
<!-- Node7&#45;&gt;Node12 -->
<g id="edge14" class="edge"><title>Node7&#45;&gt;Node12</title>
<path fill="none" stroke="orange" d="M441.359,-601.284C406.28,-595.642 359.445,-588.215 318,-582 261.622,-573.546 244.314,-584.19 191,-564 171.377,-556.569 151.689,-544.613 135.228,-533.035"/>
<polygon fill="orange" stroke="orange" points="440.957,-604.765 451.386,-602.9 442.071,-597.854 440.957,-604.765"/>
<text text-anchor="middle" x="236.5" y="-555.5" font-family="Helvetica,sans-Serif" font-size="10.00"> &lt; trng::lcg64_shift &gt;</text>
</g>
<!-- Node15 -->
<g id="node15" class="node"><title>Node15</title>
<polygon fill="white" stroke="#bfbfbf" points="811.5,-465 811.5,-533 906.5,-533 906.5,-465 811.5,-465"/>
<text text-anchor="start" x="819.5" y="-521" font-family="Helvetica,sans-Serif" font-size="10.00">std::vector&lt; trng::</text>
<text text-anchor="middle" x="859" y="-510" font-family="Helvetica,sans-Serif" font-size="10.00">lcg64 &gt;</text>
<polyline fill="none" stroke="#bfbfbf" points="811.5,-503 906.5,-503 "/>
<text text-anchor="middle" x="859" y="-491" font-family="Helvetica,sans-Serif" font-size="10.00"> </text>
<polyline fill="none" stroke="#bfbfbf" points="811.5,-484 906.5,-484 "/>
<text text-anchor="middle" x="859" y="-472" font-family="Helvetica,sans-Serif" font-size="10.00"> </text>
</g>
<!-- Node7&#45;&gt;Node15 -->
<g id="edge18" class="edge"><title>Node7&#45;&gt;Node15</title>
<path fill="none" stroke="orange" d="M549.015,-603.428C615.717,-594.846 725.012,-579.129 763,-564 782.168,-556.367 801.452,-544.515 817.656,-533.076"/>
<polygon fill="orange" stroke="orange" points="548.17,-600.007 538.693,-604.743 549.055,-606.951 548.17,-600.007"/>
<text text-anchor="middle" x="819.5" y="-555.5" font-family="Helvetica,sans-Serif" font-size="10.00"> &lt; trng::lcg64 &gt;</text>
</g>
<!-- Node17 -->
<g id="node17" class="node"><title>Node17</title>
<polygon fill="white" stroke="#bfbfbf" points="640.5,-465 640.5,-533 735.5,-533 735.5,-465 640.5,-465"/>
<text text-anchor="start" x="648.5" y="-521" font-family="Helvetica,sans-Serif" font-size="10.00">std::vector&lt; trng::</text>
<text text-anchor="middle" x="688" y="-510" font-family="Helvetica,sans-Serif" font-size="10.00">yarn2 &gt;</text>
<polyline fill="none" stroke="#bfbfbf" points="640.5,-503 735.5,-503 "/>
<text text-anchor="middle" x="688" y="-491" font-family="Helvetica,sans-Serif" font-size="10.00"> </text>
<polyline fill="none" stroke="#bfbfbf" points="640.5,-484 735.5,-484 "/>
<text text-anchor="middle" x="688" y="-472" font-family="Helvetica,sans-Serif" font-size="10.00"> </text>
</g>
<!-- Node7&#45;&gt;Node17 -->
<g id="edge21" class="edge"><title>Node7&#45;&gt;Node17</title>
<path fill="none" stroke="orange" d="M548.089,-591.701C567.217,-584.209 588.606,-574.758 607,-564 622.007,-555.223 637.27,-543.909 650.442,-533.241"/>
<polygon fill="orange" stroke="orange" points="546.702,-588.484 538.614,-595.328 549.204,-595.022 546.702,-588.484"/>
<text text-anchor="middle" x="658" y="-555.5" font-family="Helvetica,sans-Serif" font-size="10.00"> &lt; trng::yarn2 &gt;</text>
</g>
<!-- Node20 -->
<g id="node20" class="node"><title>Node20</title>
<polygon fill="white" stroke="#bfbfbf" points="527.5,-465 527.5,-533 622.5,-533 622.5,-465 527.5,-465"/>
<text text-anchor="start" x="535.5" y="-521" font-family="Helvetica,sans-Serif" font-size="10.00">std::vector&lt; trng::</text>
<text text-anchor="middle" x="575" y="-510" font-family="Helvetica,sans-Serif" font-size="10.00">yarn3 &gt;</text>
<polyline fill="none" stroke="#bfbfbf" points="527.5,-503 622.5,-503 "/>
<text text-anchor="middle" x="575" y="-491" font-family="Helvetica,sans-Serif" font-size="10.00"> </text>
<polyline fill="none" stroke="#bfbfbf" points="527.5,-484 622.5,-484 "/>
<text text-anchor="middle" x="575" y="-472" font-family="Helvetica,sans-Serif" font-size="10.00"> </text>
</g>
<!-- Node7&#45;&gt;Node20 -->
<g id="edge25" class="edge"><title>Node7&#45;&gt;Node20</title>
<path fill="none" stroke="orange" d="M521.25,-573.906C530.777,-560.806 541.489,-546.078 550.828,-533.237"/>
<polygon fill="orange" stroke="orange" points="518.239,-572.096 515.187,-582.242 523.9,-576.214 518.239,-572.096"/>
<text text-anchor="middle" x="569" y="-555.5" font-family="Helvetica,sans-Serif" font-size="10.00"> &lt; trng::yarn3 &gt;</text>
</g>
<!-- Node8 -->
<g id="node8" class="node"><title>Node8</title>
<polygon fill="white" stroke="#bfbfbf" points="480.5,-688.5 480.5,-745.5 509.5,-745.5 509.5,-688.5 480.5,-688.5"/>
<text text-anchor="middle" x="495" y="-733.5" font-family="Helvetica,sans-Serif" font-size="10.00">T</text>
<polyline fill="none" stroke="#bfbfbf" points="480.5,-726.5 509.5,-726.5 "/>
<text text-anchor="middle" x="495" y="-714.5" font-family="Helvetica,sans-Serif" font-size="10.00"> </text>
<polyline fill="none" stroke="#bfbfbf" points="480.5,-707.5 509.5,-707.5 "/>
<text text-anchor="middle" x="495" y="-695.5" font-family="Helvetica,sans-Serif" font-size="10.00"> </text>
</g>
<!-- Node8&#45;&gt;Node7 -->
<g id="edge7" class="edge"><title>Node8&#45;&gt;Node7</title>
<path fill="none" stroke="#404040" d="M495,-688.403C495,-677.237 495,-664.13 495,-651.956"/>
<polygon fill="none" stroke="#404040" points="495,-651.726 491,-645.726 495,-639.726 499,-645.726 495,-651.726"/>
<text text-anchor="middle" x="519.5" y="-661.5" font-family="Helvetica,sans-Serif" font-size="10.00"> +elements</text>
</g>
<!-- Node9 -->
<g id="node9" class="node"><title>Node9</title>
<polygon fill="white" stroke="#bfbfbf" points="159.5,-470.5 159.5,-527.5 236.5,-527.5 236.5,-470.5 159.5,-470.5"/>
<text text-anchor="middle" x="198" y="-515.5" font-family="Helvetica,sans-Serif" font-size="10.00">unsigned long</text>
<polyline fill="none" stroke="#bfbfbf" points="159.5,-508.5 236.5,-508.5 "/>
<text text-anchor="middle" x="198" y="-496.5" font-family="Helvetica,sans-Serif" font-size="10.00"> </text>
<polyline fill="none" stroke="#bfbfbf" points="159.5,-489.5 236.5,-489.5 "/>
<text text-anchor="middle" x="198" y="-477.5" font-family="Helvetica,sans-Serif" font-size="10.00"> </text>
</g>
<!-- Node9&#45;&gt;Node4 -->
<g id="edge8" class="edge"><title>Node9&#45;&gt;Node4</title>
<path fill="none" stroke="#404040" d="M233.711,-470.454C237.427,-468.112 241.227,-465.912 245,-464 283.738,-444.364 295.983,-444.989 338,-434 373.688,-424.667 389.345,-434.305 425.027,-416.234"/>
<polygon fill="none" stroke="#404040" points="425.151,-416.165 428.469,-409.763 435.655,-410.363 432.337,-416.766 425.151,-416.165"/>
<text text-anchor="middle" x="358.5" y="-437.5" font-family="Helvetica,sans-Serif" font-size="10.00"> &#45;m_seed</text>
</g>
<!-- Node10&#45;&gt;Node4 -->
<g id="edge9" class="edge"><title>Node10&#45;&gt;Node4</title>
<path fill="none" stroke="#404040" d="M431.576,-464.848C437.282,-453.436 443.969,-440.061 450.822,-426.355"/>
<polygon fill="none" stroke="#404040" points="450.972,-426.057 450.077,-418.901 456.338,-415.323 457.233,-422.479 450.972,-426.057"/>
<text text-anchor="middle" x="467" y="-437.5" font-family="Helvetica,sans-Serif" font-size="10.00"> &#45;m_mrg2</text>
</g>
<!-- Node11 -->
<g id="node11" class="node"><title>Node11</title>
<polygon fill="white" stroke="#bfbfbf" points="271,-582.5 271,-639.5 309,-639.5 309,-582.5 271,-582.5"/>
<text text-anchor="middle" x="290" y="-627.5" font-family="Helvetica,sans-Serif" font-size="10.00">mrg2</text>
<polyline fill="none" stroke="#bfbfbf" points="271,-620.5 309,-620.5 "/>
<text text-anchor="middle" x="290" y="-608.5" font-family="Helvetica,sans-Serif" font-size="10.00"> </text>
<polyline fill="none" stroke="#bfbfbf" points="271,-601.5 309,-601.5 "/>
<text text-anchor="middle" x="290" y="-589.5" font-family="Helvetica,sans-Serif" font-size="10.00"> </text>
</g>
<!-- Node11&#45;&gt;Node10 -->
<g id="edge10" class="edge"><title>Node11&#45;&gt;Node10</title>
<path fill="none" stroke="#404040" d="M283.862,-582.264C283.131,-571.805 284.431,-560.415 291,-552 307.971,-530.258 325.469,-542.622 355.946,-533.81"/>
<polygon fill="none" stroke="#404040" points="356,-533.791 360.287,-527.992 367.288,-529.719 363.001,-535.518 356,-533.791"/>
<text text-anchor="middle" x="315.5" y="-555.5" font-family="Helvetica,sans-Serif" font-size="10.00"> +elements</text>
</g>
<!-- Node12&#45;&gt;Node4 -->
<g id="edge12" class="edge"><title>Node12&#45;&gt;Node4</title>
<path fill="none" stroke="#404040" d="M141.658,-467.39C164.427,-454.479 192.633,-440.866 220,-434 261.724,-423.532 369.645,-435.105 424.679,-415.612"/>
<polygon fill="none" stroke="#404040" points="424.865,-415.532 428.801,-409.489 435.892,-410.798 431.956,-416.841 424.865,-415.532"/>
<text text-anchor="middle" x="253.5" y="-437.5" font-family="Helvetica,sans-Serif" font-size="10.00"> &#45;m_lcg64_shift</text>
</g>
<!-- Node13 -->
<g id="node13" class="node"><title>Node13</title>
<polygon fill="white" stroke="#bfbfbf" points="0,-582.5 0,-639.5 64,-639.5 64,-582.5 0,-582.5"/>
<text text-anchor="middle" x="32" y="-627.5" font-family="Helvetica,sans-Serif" font-size="10.00">lcg64_shift</text>
<polyline fill="none" stroke="#bfbfbf" points="0,-620.5 64,-620.5 "/>
<text text-anchor="middle" x="32" y="-608.5" font-family="Helvetica,sans-Serif" font-size="10.00"> </text>
<polyline fill="none" stroke="#bfbfbf" points="0,-601.5 64,-601.5 "/>
<text text-anchor="middle" x="32" y="-589.5" font-family="Helvetica,sans-Serif" font-size="10.00"> </text>
</g>
<!-- Node13&#45;&gt;Node12 -->
<g id="edge13" class="edge"><title>Node13&#45;&gt;Node12</title>
<path fill="none" stroke="#404040" d="M27.8895,-582.37C27.5653,-572.384 28.6148,-561.289 33,-552 34.5826,-548.647 36.4965,-545.43 38.6555,-542.355"/>
<polygon fill="none" stroke="#404040" points="38.6836,-542.32 39.3851,-535.143 46.2798,-533.03 45.5783,-540.207 38.6836,-542.32"/>
<text text-anchor="middle" x="57.5" y="-555.5" font-family="Helvetica,sans-Serif" font-size="10.00"> +elements</text>
</g>
<!-- Node14 -->
<g id="node14" class="node"><title>Node14</title>
<polygon fill="white" stroke="#bfbfbf" points="480.5,-470.5 480.5,-527.5 509.5,-527.5 509.5,-470.5 480.5,-470.5"/>
<text text-anchor="middle" x="495" y="-515.5" font-family="Helvetica,sans-Serif" font-size="10.00">Id</text>
<polyline fill="none" stroke="#bfbfbf" points="480.5,-508.5 509.5,-508.5 "/>
<text text-anchor="middle" x="495" y="-496.5" font-family="Helvetica,sans-Serif" font-size="10.00"> </text>
<polyline fill="none" stroke="#bfbfbf" points="480.5,-489.5 509.5,-489.5 "/>
<text text-anchor="middle" x="495" y="-477.5" font-family="Helvetica,sans-Serif" font-size="10.00"> </text>
</g>
<!-- Node14&#45;&gt;Node4 -->
<g id="edge15" class="edge"><title>Node14&#45;&gt;Node4</title>
<path fill="none" stroke="#404040" d="M495,-470.495C495,-458.178 495,-442.887 495,-427.118"/>
<polygon fill="none" stroke="#404040" points="495,-427.008 491,-421.008 495,-415.008 499,-421.008 495,-427.008"/>
<text text-anchor="middle" x="521" y="-437.5" font-family="Helvetica,sans-Serif" font-size="10.00"> &#45;m_type_id</text>
</g>
<!-- Node15&#45;&gt;Node4 -->
<g id="edge16" class="edge"><title>Node15&#45;&gt;Node4</title>
<path fill="none" stroke="#404040" d="M836.53,-464.958C827.538,-453.797 816.368,-442.122 804,-434 730.731,-385.886 631.981,-360.759 566.033,-348.473"/>
<polygon fill="none" stroke="#404040" points="565.924,-348.453 559.31,-351.326 554.115,-346.325 560.729,-343.453 565.924,-348.453"/>
<text text-anchor="middle" x="840.5" y="-437.5" font-family="Helvetica,sans-Serif" font-size="10.00"> &#45;m_lcg64</text>
</g>
<!-- Node16 -->
<g id="node16" class="node"><title>Node16</title>
<polygon fill="white" stroke="#bfbfbf" points="936,-582.5 936,-639.5 976,-639.5 976,-582.5 936,-582.5"/>
<text text-anchor="middle" x="956" y="-627.5" font-family="Helvetica,sans-Serif" font-size="10.00">lcg64</text>
<polyline fill="none" stroke="#bfbfbf" points="936,-620.5 976,-620.5 "/>
<text text-anchor="middle" x="956" y="-608.5" font-family="Helvetica,sans-Serif" font-size="10.00"> </text>
<polyline fill="none" stroke="#bfbfbf" points="936,-601.5 976,-601.5 "/>
<text text-anchor="middle" x="956" y="-589.5" font-family="Helvetica,sans-Serif" font-size="10.00"> </text>
</g>
<!-- Node16&#45;&gt;Node15 -->
<g id="edge17" class="edge"><title>Node16&#45;&gt;Node15</title>
<path fill="none" stroke="#404040" d="M949.238,-582.271C945.823,-572.05 940.898,-560.824 934,-552 928.951,-545.542 922.88,-539.571 916.406,-534.153"/>
<polygon fill="none" stroke="#404040" points="916.183,-533.98 908.99,-533.459 906.705,-526.62 913.897,-527.14 916.183,-533.98"/>
<text text-anchor="middle" x="966.5" y="-555.5" font-family="Helvetica,sans-Serif" font-size="10.00"> +elements</text>
</g>
<!-- Node17&#45;&gt;Node4 -->
<g id="edge19" class="edge"><title>Node17&#45;&gt;Node4</title>
<path fill="none" stroke="#404040" d="M648.01,-464.848C623.707,-444.7 592.02,-418.431 563.789,-395.028"/>
<polygon fill="none" stroke="#404040" points="563.602,-394.872 556.43,-394.122 554.364,-387.214 561.536,-387.964 563.602,-394.872"/>
<text text-anchor="middle" x="643" y="-437.5" font-family="Helvetica,sans-Serif" font-size="10.00"> &#45;m_yarn2</text>
</g>
<!-- Node18 -->
<g id="node18" class="node"><title>Node18</title>
<polygon fill="white" stroke="#bfbfbf" points="863.5,-582.5 863.5,-639.5 904.5,-639.5 904.5,-582.5 863.5,-582.5"/>
<text text-anchor="middle" x="884" y="-627.5" font-family="Helvetica,sans-Serif" font-size="10.00">yarn2</text>
<polyline fill="none" stroke="#bfbfbf" points="863.5,-620.5 904.5,-620.5 "/>
<text text-anchor="middle" x="884" y="-608.5" font-family="Helvetica,sans-Serif" font-size="10.00"> </text>
<polyline fill="none" stroke="#bfbfbf" points="863.5,-601.5 904.5,-601.5 "/>
<text text-anchor="middle" x="884" y="-589.5" font-family="Helvetica,sans-Serif" font-size="10.00"> </text>
</g>
<!-- Node18&#45;&gt;Node17 -->
<g id="edge20" class="edge"><title>Node18&#45;&gt;Node17</title>
<path fill="none" stroke="#404040" d="M879.769,-582.489C876.667,-571.417 871.297,-559.515 862,-552 823.563,-520.929 797.604,-547.854 747.166,-534.259"/>
<polygon fill="none" stroke="#404040" points="747.082,-534.233 740.148,-536.213 735.654,-530.574 742.588,-528.594 747.082,-534.233"/>
<text text-anchor="middle" x="896.5" y="-555.5" font-family="Helvetica,sans-Serif" font-size="10.00"> +elements</text>
</g>
<!-- Node19 -->
<g id="node19" class="node"><title>Node19</title>
<polygon fill="white" stroke="#bfbfbf" points="753.5,-470.5 753.5,-527.5 782.5,-527.5 782.5,-470.5 753.5,-470.5"/>
<text text-anchor="middle" x="768" y="-515.5" font-family="Helvetica,sans-Serif" font-size="10.00">int</text>
<polyline fill="none" stroke="#bfbfbf" points="753.5,-508.5 782.5,-508.5 "/>
<text text-anchor="middle" x="768" y="-496.5" font-family="Helvetica,sans-Serif" font-size="10.00"> </text>
<polyline fill="none" stroke="#bfbfbf" points="753.5,-489.5 782.5,-489.5 "/>
<text text-anchor="middle" x="768" y="-477.5" font-family="Helvetica,sans-Serif" font-size="10.00"> </text>
</g>
<!-- Node19&#45;&gt;Node4 -->
<g id="edge22" class="edge"><title>Node19&#45;&gt;Node4</title>
<path fill="none" stroke="#404040" d="M753.383,-474.061C750.546,-470.432 747.39,-466.928 744,-464 691.048,-418.275 618.606,-384.044 565.511,-362.888"/>
<polygon fill="none" stroke="#404040" points="565.326,-362.816 558.281,-364.355 554.151,-358.443 561.196,-356.905 565.326,-362.816"/>
<text text-anchor="middle" x="760.5" y="-437.5" font-family="Helvetica,sans-Serif" font-size="10.00"> &#45;m_stream_count</text>
</g>
<!-- Node20&#45;&gt;Node4 -->
<g id="edge23" class="edge"><title>Node20&#45;&gt;Node4</title>
<path fill="none" stroke="#404040" d="M563.071,-464.715C559.199,-454.709 554.686,-443.792 550,-434 548.694,-431.271 547.341,-428.515 545.951,-425.744"/>
<polygon fill="none" stroke="#404040" points="545.922,-425.688 539.619,-422.184 540.43,-415.019 546.732,-418.523 545.922,-425.688"/>
<text text-anchor="middle" x="578" y="-437.5" font-family="Helvetica,sans-Serif" font-size="10.00"> &#45;m_yarn3</text>
</g>
<!-- Node21 -->
<g id="node21" class="node"><title>Node21</title>
<polygon fill="white" stroke="#bfbfbf" points="701.5,-582.5 701.5,-639.5 742.5,-639.5 742.5,-582.5 701.5,-582.5"/>
<text text-anchor="middle" x="722" y="-627.5" font-family="Helvetica,sans-Serif" font-size="10.00">yarn3</text>
<polyline fill="none" stroke="#bfbfbf" points="701.5,-620.5 742.5,-620.5 "/>
<text text-anchor="middle" x="722" y="-608.5" font-family="Helvetica,sans-Serif" font-size="10.00"> </text>
<polyline fill="none" stroke="#bfbfbf" points="701.5,-601.5 742.5,-601.5 "/>
<text text-anchor="middle" x="722" y="-589.5" font-family="Helvetica,sans-Serif" font-size="10.00"> </text>
</g>
<!-- Node21&#45;&gt;Node20 -->
<g id="edge24" class="edge"><title>Node21&#45;&gt;Node20</title>
<path fill="none" stroke="#404040" d="M717.208,-582.349C714.019,-571.522 708.734,-559.843 700,-552 678.999,-533.14 663.825,-543.396 634.338,-534.473"/>
<polygon fill="none" stroke="#404040" points="634.053,-534.368 627.041,-536.052 622.79,-530.228 629.801,-528.543 634.053,-534.368"/>
<text text-anchor="middle" x="734.5" y="-555.5" font-family="Helvetica,sans-Serif" font-size="10.00"> +elements</text>
</g>
</g>
</svg>
