<?xml version="1.0" encoding="UTF-8" standalone="no"?>
<!DOCTYPE svg PUBLIC "-//W3C//DTD SVG 1.1//EN"
 "http://www.w3.org/Graphics/SVG/1.1/DTD/svg11.dtd">
<!-- Generated by graphviz version 2.36.0 (20140111.2315)
 -->
<!-- Title: gengeopop::SubMunicipalitiesCSVReader Pages: 1 -->
<svg width="471pt" height="906pt"
 viewBox="0.00 0.00 471.00 906.00" xmlns="http://www.w3.org/2000/svg" xmlns:xlink="http://www.w3.org/1999/xlink">
<g id="graph0" class="graph" transform="scale(1 1) rotate(0) translate(4 902)">
<title>gengeopop::SubMunicipalitiesCSVReader</title>
<polygon fill="white" stroke="none" points="-4,4 -4,-902 467,-902 467,4 -4,4"/>
<!-- Node1 -->
<g id="node1" class="node"><title>Node1</title>
<polygon fill="#bfbfbf" stroke="black" points="158.5,-0.5 158.5,-79.5 319.5,-79.5 319.5,-0.5 158.5,-0.5"/>
<text text-anchor="start" x="166.5" y="-67.5" font-family="Helvetica,sans-Serif" font-size="10.00">gengeopop::SubMunicipalities</text>
<text text-anchor="middle" x="239" y="-56.5" font-family="Helvetica,sans-Serif" font-size="10.00">CSVReader</text>
<polyline fill="none" stroke="black" points="158.5,-49.5 319.5,-49.5 "/>
<text text-anchor="middle" x="239" y="-37.5" font-family="Helvetica,sans-Serif" font-size="10.00"> </text>
<polyline fill="none" stroke="black" points="158.5,-30.5 319.5,-30.5 "/>
<text text-anchor="start" x="166.5" y="-18.5" font-family="Helvetica,sans-Serif" font-size="10.00">+ SubMunicipalitiesCSVReader()</text>
<text text-anchor="start" x="166.5" y="-7.5" font-family="Helvetica,sans-Serif" font-size="10.00">+ FillGeoGrid()</text>
</g>
<!-- Node2 -->
<g id="node2" class="node"><title>Node2</title>
<g id="a_node2"><a xlink:href="../../d9/db3/a00066.html" target="_top" xlink:title="Create an abstract Reader which fills a GeoGrid with the SubMunicipalities found in a given file...">
<polygon fill="white" stroke="black" points="76,-178 76,-268 222,-268 222,-178 76,-178"/>
<text text-anchor="start" x="84" y="-256" font-family="Helvetica,sans-Serif" font-size="10.00">gengeopop::SubMunicipalities</text>
<text text-anchor="middle" x="149" y="-245" font-family="Helvetica,sans-Serif" font-size="10.00">Reader</text>
<polyline fill="none" stroke="black" points="76,-238 222,-238 "/>
<text text-anchor="middle" x="149" y="-226" font-family="Helvetica,sans-Serif" font-size="10.00"> </text>
<polyline fill="none" stroke="black" points="76,-219 222,-219 "/>
<text text-anchor="start" x="84" y="-207" font-family="Helvetica,sans-Serif" font-size="10.00">+ SubMunicipalitiesReader()</text>
<text text-anchor="start" x="84" y="-196" font-family="Helvetica,sans-Serif" font-size="10.00">+ FillGeoGrid()</text>
<text text-anchor="start" x="84" y="-185" font-family="Helvetica,sans-Serif" font-size="10.00">+ ~SubMunicipalitiesReader()</text>
</a>
</g>
</g>
<!-- Node2&#45;&gt;Node1 -->
<g id="edge1" class="edge"><title>Node2&#45;&gt;Node1</title>
<path fill="none" stroke="midnightblue" d="M175.515,-168.675C189.721,-140.106 206.901,-105.554 219.805,-79.6027"/>
<polygon fill="none" stroke="midnightblue" points="172.335,-167.21 171.016,-177.722 178.603,-170.327 172.335,-167.21"/>
</g>
<!-- Node3 -->
<g id="node3" class="node"><title>Node3</title>
<polygon fill="white" stroke="#bfbfbf" points="52,-367 52,-435 156,-435 156,-367 52,-367"/>
<text text-anchor="start" x="60" y="-423" font-family="Helvetica,sans-Serif" font-size="10.00">std::unique_ptr&lt; std</text>
<text text-anchor="middle" x="104" y="-412" font-family="Helvetica,sans-Serif" font-size="10.00">::istream &gt;</text>
<polyline fill="none" stroke="#bfbfbf" points="52,-405 156,-405 "/>
<text text-anchor="middle" x="104" y="-393" font-family="Helvetica,sans-Serif" font-size="10.00"> </text>
<polyline fill="none" stroke="#bfbfbf" points="52,-386 156,-386 "/>
<text text-anchor="start" x="60" y="-374" font-family="Helvetica,sans-Serif" font-size="10.00">+ operator&#45;&gt;()</text>
</g>
<!-- Node3&#45;&gt;Node2 -->
<g id="edge2" class="edge"><title>Node3&#45;&gt;Node2</title>
<path fill="none" stroke="#404040" d="M112.464,-366.896C118.702,-342.5 127.336,-308.731 134.644,-280.147"/>
<polygon fill="none" stroke="#404040" points="134.712,-279.882 132.323,-273.078 137.685,-268.256 140.074,-275.06 134.712,-279.882"/>
<text text-anchor="middle" x="157.5" y="-339.5" font-family="Helvetica,sans-Serif" font-size="10.00"> #m_inputStream</text>
</g>
<!-- Node4 -->
<g id="node4" class="node"><title>Node4</title>
<g id="a_node4"><a xlink:title="STL class. ">
<polygon fill="white" stroke="#bfbfbf" points="24,-530.5 24,-587.5 92,-587.5 92,-530.5 24,-530.5"/>
<text text-anchor="middle" x="58" y="-575.5" font-family="Helvetica,sans-Serif" font-size="10.00">std::istream</text>
<polyline fill="none" stroke="#bfbfbf" points="24,-568.5 92,-568.5 "/>
<text text-anchor="middle" x="58" y="-556.5" font-family="Helvetica,sans-Serif" font-size="10.00"> </text>
<polyline fill="none" stroke="#bfbfbf" points="24,-549.5 92,-549.5 "/>
<text text-anchor="middle" x="58" y="-537.5" font-family="Helvetica,sans-Serif" font-size="10.00"> </text>
</a>
</g>
</g>
<!-- Node4&#45;&gt;Node3 -->
<g id="edge3" class="edge"><title>Node4&#45;&gt;Node3</title>
<path fill="none" stroke="#404040" d="M54.0006,-530.124C52.0387,-508.623 51.7761,-478.513 61,-454 62.083,-451.122 63.3959,-448.287 64.8804,-445.518"/>
<polygon fill="none" stroke="#404040" points="64.9692,-445.375 64.7591,-438.167 71.3319,-435.201 71.542,-442.409 64.9692,-445.375"/>
<text text-anchor="middle" x="71.5" y="-480.5" font-family="Helvetica,sans-Serif" font-size="10.00"> +ptr</text>
</g>
<!-- Node5 -->
<g id="node5" class="node"><title>Node5</title>
<g id="a_node5"><a xlink:title="STL class. ">
<polygon fill="white" stroke="#bfbfbf" points="9.5,-637 9.5,-705 106.5,-705 106.5,-637 9.5,-637"/>
<text text-anchor="start" x="17.5" y="-693" font-family="Helvetica,sans-Serif" font-size="10.00">std::basic_istream</text>
<text text-anchor="middle" x="58" y="-682" font-family="Helvetica,sans-Serif" font-size="10.00">&lt; char &gt;</text>
<polyline fill="none" stroke="#bfbfbf" points="9.5,-675 106.5,-675 "/>
<text text-anchor="middle" x="58" y="-663" font-family="Helvetica,sans-Serif" font-size="10.00"> </text>
<polyline fill="none" stroke="#bfbfbf" points="9.5,-656 106.5,-656 "/>
<text text-anchor="middle" x="58" y="-644" font-family="Helvetica,sans-Serif" font-size="10.00"> </text>
</a>
</g>
</g>
<!-- Node5&#45;&gt;Node4 -->
<g id="edge4" class="edge"><title>Node5&#45;&gt;Node4</title>
<path fill="none" stroke="midnightblue" d="M58,-626.743C58,-613.634 58,-599.591 58,-587.784"/>
<polygon fill="none" stroke="midnightblue" points="54.5001,-626.996 58,-636.996 61.5001,-626.996 54.5001,-626.996"/>
</g>
<!-- Node6 -->
<g id="node6" class="node"><title>Node6</title>
<g id="a_node6"><a xlink:title="STL class. ">
<polygon fill="white" stroke="#bfbfbf" points="0,-744.5 0,-801.5 116,-801.5 116,-744.5 0,-744.5"/>
<text text-anchor="middle" x="58" y="-789.5" font-family="Helvetica,sans-Serif" font-size="10.00">std::basic_ios&lt; Char &gt;</text>
<polyline fill="none" stroke="#bfbfbf" points="0,-782.5 116,-782.5 "/>
<text text-anchor="middle" x="58" y="-770.5" font-family="Helvetica,sans-Serif" font-size="10.00"> </text>
<polyline fill="none" stroke="#bfbfbf" points="0,-763.5 116,-763.5 "/>
<text text-anchor="middle" x="58" y="-751.5" font-family="Helvetica,sans-Serif" font-size="10.00"> </text>
</a>
</g>
</g>
<!-- Node6&#45;&gt;Node5 -->
<g id="edge5" class="edge"><title>Node6&#45;&gt;Node5</title>
<path fill="none" stroke="midnightblue" d="M58,-734.337C58,-724.755 58,-714.528 58,-705.187"/>
<polygon fill="none" stroke="midnightblue" points="54.5001,-734.41 58,-744.41 61.5001,-734.41 54.5001,-734.41"/>
</g>
<!-- Node7 -->
<g id="node7" class="node"><title>Node7</title>
<g id="a_node7"><a xlink:title="STL class. ">
<polygon fill="white" stroke="#bfbfbf" points="20.5,-840.5 20.5,-897.5 95.5,-897.5 95.5,-840.5 20.5,-840.5"/>
<text text-anchor="middle" x="58" y="-885.5" font-family="Helvetica,sans-Serif" font-size="10.00">std::ios_base</text>
<polyline fill="none" stroke="#bfbfbf" points="20.5,-878.5 95.5,-878.5 "/>
<text text-anchor="middle" x="58" y="-866.5" font-family="Helvetica,sans-Serif" font-size="10.00"> </text>
<polyline fill="none" stroke="#bfbfbf" points="20.5,-859.5 95.5,-859.5 "/>
<text text-anchor="middle" x="58" y="-847.5" font-family="Helvetica,sans-Serif" font-size="10.00"> </text>
</a>
</g>
</g>
<!-- Node7&#45;&gt;Node6 -->
<g id="edge6" class="edge"><title>Node7&#45;&gt;Node6</title>
<path fill="none" stroke="midnightblue" d="M58,-830.277C58,-820.772 58,-810.741 58,-801.822"/>
<polygon fill="none" stroke="midnightblue" points="54.5001,-830.305 58,-840.305 61.5001,-830.305 54.5001,-830.305"/>
</g>
<!-- Node8 -->
<g id="node8" class="node"><title>Node8</title>
<g id="a_node8"><a xlink:title="STL class. ">
<polygon fill="white" stroke="#bfbfbf" points="110.5,-530.5 110.5,-587.5 215.5,-587.5 215.5,-530.5 110.5,-530.5"/>
<text text-anchor="middle" x="163" y="-575.5" font-family="Helvetica,sans-Serif" font-size="10.00">std::unique_ptr&lt; T &gt;</text>
<polyline fill="none" stroke="#bfbfbf" points="110.5,-568.5 215.5,-568.5 "/>
<text text-anchor="middle" x="163" y="-556.5" font-family="Helvetica,sans-Serif" font-size="10.00"> </text>
<polyline fill="none" stroke="#bfbfbf" points="110.5,-549.5 215.5,-549.5 "/>
<text text-anchor="start" x="118.5" y="-537.5" font-family="Helvetica,sans-Serif" font-size="10.00">+ operator&#45;&gt;()</text>
</a>
</g>
</g>
<!-- Node8&#45;&gt;Node3 -->
<g id="edge7" class="edge"><title>Node8&#45;&gt;Node3</title>
<path fill="none" stroke="orange" d="M107.232,-522.871C104.429,-519.494 101.967,-515.871 100,-512 87.9688,-488.318 90.182,-457.924 94.718,-435.088"/>
<polygon fill="orange" stroke="orange" points="104.883,-525.48 114.317,-530.302 109.95,-520.649 104.883,-525.48"/>
<text text-anchor="middle" x="136.5" y="-480.5" font-family="Helvetica,sans-Serif" font-size="10.00"> &lt; std::istream &gt;</text>
</g>
<!-- Node9 -->
<g id="node9" class="node"><title>Node9</title>
<polygon fill="white" stroke="#bfbfbf" points="229.5,-642.5 229.5,-699.5 258.5,-699.5 258.5,-642.5 229.5,-642.5"/>
<text text-anchor="middle" x="244" y="-687.5" font-family="Helvetica,sans-Serif" font-size="10.00">T</text>
<polyline fill="none" stroke="#bfbfbf" points="229.5,-680.5 258.5,-680.5 "/>
<text text-anchor="middle" x="244" y="-668.5" font-family="Helvetica,sans-Serif" font-size="10.00"> </text>
<polyline fill="none" stroke="#bfbfbf" points="229.5,-661.5 258.5,-661.5 "/>
<text text-anchor="middle" x="244" y="-649.5" font-family="Helvetica,sans-Serif" font-size="10.00"> </text>
</g>
<!-- Node9&#45;&gt;Node8 -->
<g id="edge8" class="edge"><title>Node9&#45;&gt;Node8</title>
<path fill="none" stroke="#404040" d="M229.175,-653.051C220.65,-643.068 209.9,-630.068 201,-618 196.311,-611.642 191.529,-604.732 187.009,-597.972"/>
<polygon fill="none" stroke="#404040" points="186.765,-597.6 180.127,-594.782 180.175,-587.571 186.813,-590.389 186.765,-597.6"/>
<text text-anchor="middle" x="211.5" y="-609.5" font-family="Helvetica,sans-Serif" font-size="10.00"> +ptr</text>
</g>
<!-- Node11 -->
<g id="node11" class="node"><title>Node11</title>
<g id="a_node11"><a xlink:title="STL class. ">
<polygon fill="white" stroke="#bfbfbf" points="182,-454.5 182,-511.5 304,-511.5 304,-454.5 182,-454.5"/>
<text text-anchor="middle" x="243" y="-499.5" font-family="Helvetica,sans-Serif" font-size="10.00">std::vector&lt; CSVRow &gt;</text>
<polyline fill="none" stroke="#bfbfbf" points="182,-492.5 304,-492.5 "/>
<text text-anchor="middle" x="243" y="-480.5" font-family="Helvetica,sans-Serif" font-size="10.00"> </text>
<polyline fill="none" stroke="#bfbfbf" points="182,-473.5 304,-473.5 "/>
<text text-anchor="middle" x="243" y="-461.5" font-family="Helvetica,sans-Serif" font-size="10.00"> </text>
</a>
</g>
</g>
<!-- Node9&#45;&gt;Node11 -->
<g id="edge11" class="edge"><title>Node9&#45;&gt;Node11</title>
<path fill="none" stroke="#404040" d="M243.372,-642.475C243.218,-634.573 243.076,-625.946 243,-618 242.696,-586.413 242.715,-550.637 242.799,-524.001"/>
<polygon fill="none" stroke="#404040" points="242.8,-523.718 238.822,-517.703 242.845,-511.718 246.822,-517.733 242.8,-523.718"/>
<text text-anchor="middle" x="267.5" y="-609.5" font-family="Helvetica,sans-Serif" font-size="10.00"> +elements</text>
</g>
<!-- Node16 -->
<g id="node16" class="node"><title>Node16</title>
<g id="a_node16"><a xlink:title="STL class. ">
<polygon fill="white" stroke="#bfbfbf" points="278.5,-530.5 278.5,-587.5 365.5,-587.5 365.5,-530.5 278.5,-530.5"/>
<text text-anchor="middle" x="322" y="-575.5" font-family="Helvetica,sans-Serif" font-size="10.00">std::vector&lt; T &gt;</text>
<polyline fill="none" stroke="#bfbfbf" points="278.5,-568.5 365.5,-568.5 "/>
<text text-anchor="middle" x="322" y="-556.5" font-family="Helvetica,sans-Serif" font-size="10.00"> </text>
<polyline fill="none" stroke="#bfbfbf" points="278.5,-549.5 365.5,-549.5 "/>
<text text-anchor="middle" x="322" y="-537.5" font-family="Helvetica,sans-Serif" font-size="10.00"> </text>
</a>
</g>
</g>
<!-- Node9&#45;&gt;Node16 -->
<g id="edge17" class="edge"><title>Node9&#45;&gt;Node16</title>
<path fill="none" stroke="#404040" d="M258.693,-657.95C269.997,-648.103 285.423,-633.348 296,-618 300.092,-612.063 303.789,-605.378 307.026,-598.713"/>
<polygon fill="none" stroke="#404040" points="307.083,-598.587 305.91,-591.472 312.027,-587.653 313.2,-594.768 307.083,-598.587"/>
<text text-anchor="middle" x="328.5" y="-609.5" font-family="Helvetica,sans-Serif" font-size="10.00"> +elements</text>
</g>
<!-- Node10 -->
<g id="node10" class="node"><title>Node10</title>
<g id="a_node10"><a xlink:href="../../d3/d65/a00154.html" target="_top" xlink:title="A collection of CSVRow elements. ">
<polygon fill="white" stroke="black" points="246.5,-128.5 246.5,-317.5 355.5,-317.5 355.5,-128.5 246.5,-128.5"/>
<text text-anchor="middle" x="301" y="-305.5" font-family="Helvetica,sans-Serif" font-size="10.00">stride::util::CSV</text>
<polyline fill="none" stroke="black" points="246.5,-298.5 355.5,-298.5 "/>
<text text-anchor="middle" x="301" y="-286.5" font-family="Helvetica,sans-Serif" font-size="10.00"> </text>
<polyline fill="none" stroke="black" points="246.5,-279.5 355.5,-279.5 "/>
<text text-anchor="start" x="254.5" y="-267.5" font-family="Helvetica,sans-Serif" font-size="10.00">+ CSV()</text>
<text text-anchor="start" x="254.5" y="-256.5" font-family="Helvetica,sans-Serif" font-size="10.00">+ CSV()</text>
<text text-anchor="start" x="254.5" y="-245.5" font-family="Helvetica,sans-Serif" font-size="10.00">+ CSV()</text>
<text text-anchor="start" x="254.5" y="-234.5" font-family="Helvetica,sans-Serif" font-size="10.00">+ CSV()</text>
<text text-anchor="start" x="254.5" y="-223.5" font-family="Helvetica,sans-Serif" font-size="10.00">+ GetColumnCount()</text>
<text text-anchor="start" x="254.5" y="-212.5" font-family="Helvetica,sans-Serif" font-size="10.00">+ operator==()</text>
<text text-anchor="start" x="254.5" y="-201.5" font-family="Helvetica,sans-Serif" font-size="10.00">+ AddRow()</text>
<text text-anchor="start" x="254.5" y="-190.5" font-family="Helvetica,sans-Serif" font-size="10.00">+ AddRow()</text>
<text text-anchor="start" x="254.5" y="-179.5" font-family="Helvetica,sans-Serif" font-size="10.00">+ AddRows()</text>
<text text-anchor="start" x="254.5" y="-168.5" font-family="Helvetica,sans-Serif" font-size="10.00">+ Write()</text>
<text text-anchor="start" x="254.5" y="-157.5" font-family="Helvetica,sans-Serif" font-size="10.00">+ GetIndexForLabel()</text>
<text text-anchor="start" x="254.5" y="-146.5" font-family="Helvetica,sans-Serif" font-size="10.00">+ GetLabels()</text>
<text text-anchor="start" x="254.5" y="-135.5" font-family="Helvetica,sans-Serif" font-size="10.00">&#45; ReadFromStream()</text>
</a>
</g>
</g>
<!-- Node10&#45;&gt;Node1 -->
<g id="edge9" class="edge"><title>Node10&#45;&gt;Node1</title>
<path fill="none" stroke="#404040" d="M268.91,-128.319C264.524,-115.515 260.168,-102.795 256.192,-91.1882"/>
<polygon fill="none" stroke="#404040" points="256.09,-90.8902 250.361,-86.5102 252.201,-79.5377 257.929,-83.9177 256.09,-90.8902"/>
<text text-anchor="middle" x="286.5" y="-101.5" font-family="Helvetica,sans-Serif" font-size="10.00"> &#45;m_reader</text>
</g>
<!-- Node11&#45;&gt;Node10 -->
<g id="edge10" class="edge"><title>Node11&#45;&gt;Node10</title>
<path fill="none" stroke="darkgreen" d="M246.296,-444.159C248.677,-421.357 252.46,-391.827 258,-366 261.377,-350.259 265.668,-333.74 270.225,-317.762"/>
<polygon fill="none" stroke="darkgreen" points="242.812,-443.826 245.299,-454.124 249.777,-444.522 242.812,-443.826"/>
</g>
<!-- Node12 -->
<g id="node12" class="node"><title>Node12</title>
<g id="a_node12"><a xlink:href="../../d8/d89/a00484.html" target="_top" xlink:title="{size_t\n||}">
<polygon fill="white" stroke="black" points="410.5,-372.5 410.5,-429.5 453.5,-429.5 453.5,-372.5 410.5,-372.5"/>
<text text-anchor="middle" x="432" y="-417.5" font-family="Helvetica,sans-Serif" font-size="10.00">size_t</text>
<polyline fill="none" stroke="black" points="410.5,-410.5 453.5,-410.5 "/>
<text text-anchor="middle" x="432" y="-398.5" font-family="Helvetica,sans-Serif" font-size="10.00"> </text>
<polyline fill="none" stroke="black" points="410.5,-391.5 453.5,-391.5 "/>
<text text-anchor="middle" x="432" y="-379.5" font-family="Helvetica,sans-Serif" font-size="10.00"> </text>
</a>
</g>
</g>
<!-- Node12&#45;&gt;Node10 -->
<g id="edge12" class="edge"><title>Node12&#45;&gt;Node10</title>
<path fill="none" stroke="#404040" d="M411.243,-372.112C398.054,-354.393 380.228,-330.444 362.759,-306.974"/>
<polygon fill="none" stroke="#404040" points="362.737,-306.944 355.945,-304.519 355.572,-297.318 362.363,-299.742 362.737,-306.944"/>
<text text-anchor="middle" x="427.5" y="-339.5" font-family="Helvetica,sans-Serif" font-size="10.00"> #columnCount</text>
</g>
<!-- Node13 -->
<g id="node13" class="node"><title>Node13</title>
<polygon fill="white" stroke="#bfbfbf" points="267.5,-372.5 267.5,-429.5 392.5,-429.5 392.5,-372.5 267.5,-372.5"/>
<text text-anchor="middle" x="330" y="-417.5" font-family="Helvetica,sans-Serif" font-size="10.00">std::vector&lt; std::string &gt;</text>
<polyline fill="none" stroke="#bfbfbf" points="267.5,-410.5 392.5,-410.5 "/>
<text text-anchor="middle" x="330" y="-398.5" font-family="Helvetica,sans-Serif" font-size="10.00"> </text>
<polyline fill="none" stroke="#bfbfbf" points="267.5,-391.5 392.5,-391.5 "/>
<text text-anchor="middle" x="330" y="-379.5" font-family="Helvetica,sans-Serif" font-size="10.00"> </text>
</g>
<!-- Node13&#45;&gt;Node10 -->
<g id="edge13" class="edge"><title>Node13&#45;&gt;Node10</title>
<path fill="none" stroke="#404040" d="M325.405,-372.112C323.432,-360.14 320.991,-345.325 318.422,-329.734"/>
<polygon fill="none" stroke="#404040" points="318.39,-329.536 313.467,-324.266 316.438,-317.696 321.361,-322.965 318.39,-329.536"/>
<text text-anchor="middle" x="339" y="-339.5" font-family="Helvetica,sans-Serif" font-size="10.00"> #labels</text>
</g>
<!-- Node14 -->
<g id="node14" class="node"><title>Node14</title>
<g id="a_node14"><a xlink:title="STL class. ">
<polygon fill="white" stroke="#bfbfbf" points="385,-530.5 385,-587.5 445,-587.5 445,-530.5 385,-530.5"/>
<text text-anchor="middle" x="415" y="-575.5" font-family="Helvetica,sans-Serif" font-size="10.00">std::string</text>
<polyline fill="none" stroke="#bfbfbf" points="385,-568.5 445,-568.5 "/>
<text text-anchor="middle" x="415" y="-556.5" font-family="Helvetica,sans-Serif" font-size="10.00"> </text>
<polyline fill="none" stroke="#bfbfbf" points="385,-549.5 445,-549.5 "/>
<text text-anchor="middle" x="415" y="-537.5" font-family="Helvetica,sans-Serif" font-size="10.00"> </text>
</a>
</g>
</g>
<!-- Node14&#45;&gt;Node13 -->
<g id="edge14" class="edge"><title>Node14&#45;&gt;Node13</title>
<path fill="none" stroke="#404040" d="M414.075,-530.113C412.223,-508.051 407.055,-477.204 393,-454 389.556,-448.314 385.261,-442.967 380.542,-438.025"/>
<polygon fill="none" stroke="#404040" points="380.369,-437.861 373.266,-436.617 371.682,-429.582 378.785,-430.826 380.369,-437.861"/>
<text text-anchor="middle" x="436.5" y="-480.5" font-family="Helvetica,sans-Serif" font-size="10.00"> +elements</text>
</g>
<!-- Node15 -->
<g id="node15" class="node"><title>Node15</title>
<g id="a_node15"><a xlink:title="STL class. ">
<polygon fill="white" stroke="#bfbfbf" points="367.5,-637 367.5,-705 462.5,-705 462.5,-637 367.5,-637"/>
<text text-anchor="start" x="375.5" y="-693" font-family="Helvetica,sans-Serif" font-size="10.00">std::basic_string&lt;</text>
<text text-anchor="middle" x="415" y="-682" font-family="Helvetica,sans-Serif" font-size="10.00"> char &gt;</text>
<polyline fill="none" stroke="#bfbfbf" points="367.5,-675 462.5,-675 "/>
<text text-anchor="middle" x="415" y="-663" font-family="Helvetica,sans-Serif" font-size="10.00"> </text>
<polyline fill="none" stroke="#bfbfbf" points="367.5,-656 462.5,-656 "/>
<text text-anchor="middle" x="415" y="-644" font-family="Helvetica,sans-Serif" font-size="10.00"> </text>
</a>
</g>
</g>
<!-- Node15&#45;&gt;Node14 -->
<g id="edge15" class="edge"><title>Node15&#45;&gt;Node14</title>
<path fill="none" stroke="midnightblue" d="M415,-626.743C415,-613.634 415,-599.591 415,-587.784"/>
<polygon fill="none" stroke="midnightblue" points="411.5,-626.996 415,-636.996 418.5,-626.996 411.5,-626.996"/>
</g>
<!-- Node16&#45;&gt;Node13 -->
<g id="edge16" class="edge"><title>Node16&#45;&gt;Node13</title>
<path fill="none" stroke="orange" d="M323.936,-520.251C325.372,-492.251 327.296,-454.72 328.589,-429.517"/>
<polygon fill="orange" stroke="orange" points="320.429,-520.303 323.412,-530.469 327.419,-520.662 320.429,-520.303"/>
<text text-anchor="middle" x="360.5" y="-480.5" font-family="Helvetica,sans-Serif" font-size="10.00"> &lt; std::string &gt;</text>
</g>
</g>
</svg>
