<?xml version="1.0" encoding="UTF-8" standalone="no"?>
<!DOCTYPE svg PUBLIC "-//W3C//DTD SVG 1.1//EN"
 "http://www.w3.org/Graphics/SVG/1.1/DTD/svg11.dtd">
<!-- Generated by graphviz version 2.36.0 (20140111.2315)
 -->
<!-- Title: calibration::CalibrationRunner Pages: 1 -->
<!--zoomable 884 -->
<svg id="main" version="1.1" xmlns="http://www.w3.org/2000/svg" xmlns:xlink="http://www.w3.org/1999/xlink" xml:space="preserve" onload="init(evt)">
<style type="text/css"><![CDATA[
.edge:hover path { stroke: red; }
.edge:hover polygon { stroke: red; fill: red; }
]]></style>
<script type="text/javascript"><![CDATA[
var edges = document.getElementsByTagName('g');
if (edges && edges.length) {
  for (var i=0;i<edges.length;i++) {
    if (edges[i].id.substr(0,4)=='edge') {
      edges[i].setAttribute('class','edge');
    }
  }
}
]]></script>
        <defs>
                <circle id="rim" cx="0" cy="0" r="7"/>
                <circle id="rim2" cx="0" cy="0" r="3.5"/>
                <g id="zoomPlus">
                        <use xlink:href="#rim" fill="#404040">
                                <set attributeName="fill" to="#808080" begin="zoomplus.mouseover" end="zoomplus.mouseout"/>
                        </use>
                        <path d="M-4,0h8M0,-4v8" fill="none" stroke="white" stroke-width="1.5" pointer-events="none"/>
                </g>
                <g id="zoomMin">
                        <use xlink:href="#rim" fill="#404040">
                                <set attributeName="fill" to="#808080" begin="zoomminus.mouseover" end="zoomminus.mouseout"/>
                        </use>
                        <path d="M-4,0h8" fill="none" stroke="white" stroke-width="1.5" pointer-events="none"/>
                </g>
                <g id="dirArrow">
                        <path fill="none" stroke="white" stroke-width="1.5" d="M0,-3.0v7 M-2.5,-0.5L0,-3.0L2.5,-0.5"/>
                </g>
               <g id="resetDef">
                       <use xlink:href="#rim2" fill="#404040">
                               <set attributeName="fill" to="#808080" begin="reset.mouseover" end="reset.mouseout"/>
                       </use>
               </g>
        </defs>

<script type="text/javascript">
var viewWidth = 740;
var viewHeight = 884;
var sectionId = 'dynsection-1';
</script>
<script xlink:href="../../svgpan.js"/>
<svg id="graph" class="graph">
<g id="viewport">
<title>calibration::CalibrationRunner</title>
<polygon fill="white" stroke="none" points="-4,4 -4,-880 736,-880 736,4 -4,4"/>
<!-- Node1 -->
<g id="node1" class="node"><title>Node1</title>
<polygon fill="#bfbfbf" stroke="black" points="199.5,-0.5 199.5,-123.5 312.5,-123.5 312.5,-0.5 199.5,-0.5"/>
<text text-anchor="start" x="207.5" y="-111.5" font-family="Helvetica,sans-Serif" font-size="10.00">calibration::Calibration</text>
<text text-anchor="middle" x="256" y="-100.5" font-family="Helvetica,sans-Serif" font-size="10.00">Runner</text>
<polyline fill="none" stroke="black" points="199.5,-93.5 312.5,-93.5 "/>
<text text-anchor="middle" x="256" y="-81.5" font-family="Helvetica,sans-Serif" font-size="10.00"> </text>
<polyline fill="none" stroke="black" points="199.5,-74.5 312.5,-74.5 "/>
<text text-anchor="start" x="207.5" y="-62.5" font-family="Helvetica,sans-Serif" font-size="10.00">+ CalibrationRunner()</text>
<text text-anchor="start" x="207.5" y="-51.5" font-family="Helvetica,sans-Serif" font-size="10.00">+ Run()</text>
<text text-anchor="start" x="207.5" y="-40.5" font-family="Helvetica,sans-Serif" font-size="10.00">+ WriteResults()</text>
<text text-anchor="start" x="207.5" y="-29.5" font-family="Helvetica,sans-Serif" font-size="10.00">+ WriteBoxplots()</text>
<text text-anchor="start" x="207.5" y="-18.5" font-family="Helvetica,sans-Serif" font-size="10.00">+ DisplayBoxplots()</text>
<text text-anchor="start" x="207.5" y="-7.5" font-family="Helvetica,sans-Serif" font-size="10.00">+ DisplayBoxplots()</text>
</g>
<!-- Node2 -->
<g id="node2" class="node"><title>Node2</title>
<polygon fill="white" stroke="#bfbfbf" points="20.5,-550.5 20.5,-629.5 133.5,-629.5 133.5,-550.5 20.5,-550.5"/>
<text text-anchor="start" x="28.5" y="-617.5" font-family="Helvetica,sans-Serif" font-size="10.00">std::vector&lt; std::pair</text>
<text text-anchor="start" x="28.5" y="-606.5" font-family="Helvetica,sans-Serif" font-size="10.00">&lt; boost::property_tree</text>
<text text-anchor="middle" x="77" y="-595.5" font-family="Helvetica,sans-Serif" font-size="10.00">::ptree, std::string &gt; &gt;</text>
<polyline fill="none" stroke="#bfbfbf" points="20.5,-588.5 133.5,-588.5 "/>
<text text-anchor="middle" x="77" y="-576.5" font-family="Helvetica,sans-Serif" font-size="10.00"> </text>
<polyline fill="none" stroke="#bfbfbf" points="20.5,-569.5 133.5,-569.5 "/>
<text text-anchor="middle" x="77" y="-557.5" font-family="Helvetica,sans-Serif" font-size="10.00"> </text>
</g>
<!-- Node2&#45;&gt;Node1 -->
<g id="edge1" class="edge"><title>Node2&#45;&gt;Node1</title>
<path fill="none" stroke="#404040" d="M67.9891,-550.272C52.1487,-472.755 27.1166,-295.393 96,-172 116.327,-135.587 154.534,-108.867 188.514,-90.9966"/>
<polygon fill="none" stroke="#404040" points="188.663,-90.9216 192.211,-84.6438 199.37,-85.5045 195.822,-91.7823 188.663,-90.9216"/>
<text text-anchor="middle" x="71" y="-394.5" font-family="Helvetica,sans-Serif" font-size="10.00"> #configs</text>
</g>
<!-- Node3 -->
<g id="node3" class="node"><title>Node3</title>
<polygon fill="white" stroke="#bfbfbf" points="-0.5,-701 -0.5,-769 124.5,-769 124.5,-701 -0.5,-701"/>
<text text-anchor="start" x="7.5" y="-757" font-family="Helvetica,sans-Serif" font-size="10.00">pair&lt; boost::property</text>
<text text-anchor="middle" x="62" y="-746" font-family="Helvetica,sans-Serif" font-size="10.00">_tree::ptree, std::string &gt;</text>
<polyline fill="none" stroke="#bfbfbf" points="-0.5,-739 124.5,-739 "/>
<text text-anchor="middle" x="62" y="-727" font-family="Helvetica,sans-Serif" font-size="10.00"> </text>
<polyline fill="none" stroke="#bfbfbf" points="-0.5,-720 124.5,-720 "/>
<text text-anchor="middle" x="62" y="-708" font-family="Helvetica,sans-Serif" font-size="10.00"> </text>
</g>
<!-- Node3&#45;&gt;Node2 -->
<g id="edge2" class="edge"><title>Node3&#45;&gt;Node2</title>
<path fill="none" stroke="#404040" d="M60.619,-700.799C60.4026,-684.784 60.8005,-665.331 63,-648 63.2602,-645.95 63.567,-643.867 63.9115,-641.769"/>
<polygon fill="none" stroke="#404040" points="63.9631,-641.5 61.1701,-634.852 66.2328,-629.717 69.0258,-636.365 63.9631,-641.5"/>
<text text-anchor="middle" x="87.5" y="-662.5" font-family="Helvetica,sans-Serif" font-size="10.00"> +elements</text>
</g>
<!-- Node4 -->
<g id="node4" class="node"><title>Node4</title>
<g id="a_node4"><a xlink:title="STL class. ">
<polygon fill="white" stroke="#bfbfbf" points="257.5,-706.5 257.5,-763.5 344.5,-763.5 344.5,-706.5 257.5,-706.5"/>
<text text-anchor="middle" x="301" y="-751.5" font-family="Helvetica,sans-Serif" font-size="10.00">std::vector&lt; T &gt;</text>
<polyline fill="none" stroke="#bfbfbf" points="257.5,-744.5 344.5,-744.5 "/>
<text text-anchor="middle" x="301" y="-732.5" font-family="Helvetica,sans-Serif" font-size="10.00"> </text>
<polyline fill="none" stroke="#bfbfbf" points="257.5,-725.5 344.5,-725.5 "/>
<text text-anchor="middle" x="301" y="-713.5" font-family="Helvetica,sans-Serif" font-size="10.00"> </text>
</a>
</g>
</g>
<!-- Node4&#45;&gt;Node2 -->
<g id="edge3" class="edge"><title>Node4&#45;&gt;Node2</title>
<path fill="none" stroke="orange" d="M247.32,-726.904C212.467,-720.098 167.627,-706.982 135,-682 132.425,-680.028 115.66,-653.554 100.812,-629.668"/>
<polygon fill="orange" stroke="orange" points="246.86,-730.378 257.328,-728.74 248.124,-723.493 246.86,-730.378"/>
<text text-anchor="start" x="135" y="-673.5" font-family="Helvetica,sans-Serif" font-size="10.00"> &lt; std::pair&lt; boost</text>
<text text-anchor="start" x="135" y="-662.5" font-family="Helvetica,sans-Serif" font-size="10.00">::property_tree::ptree,</text>
<text text-anchor="middle" x="182" y="-651.5" font-family="Helvetica,sans-Serif" font-size="10.00"> std::string &gt; &gt;</text>
</g>
<!-- Node11 -->
<g id="node11" class="node"><title>Node11</title>
<polygon fill="white" stroke="#bfbfbf" points="481.5,-556 481.5,-624 592.5,-624 592.5,-556 481.5,-556"/>
<text text-anchor="start" x="489.5" y="-612" font-family="Helvetica,sans-Serif" font-size="10.00">std::vector&lt; unsigned</text>
<text text-anchor="middle" x="537" y="-601" font-family="Helvetica,sans-Serif" font-size="10.00"> int &gt;</text>
<polyline fill="none" stroke="#bfbfbf" points="481.5,-594 592.5,-594 "/>
<text text-anchor="middle" x="537" y="-582" font-family="Helvetica,sans-Serif" font-size="10.00"> </text>
<polyline fill="none" stroke="#bfbfbf" points="481.5,-575 592.5,-575 "/>
<text text-anchor="middle" x="537" y="-563" font-family="Helvetica,sans-Serif" font-size="10.00"> </text>
</g>
<!-- Node4&#45;&gt;Node11 -->
<g id="edge12" class="edge"><title>Node4&#45;&gt;Node11</title>
<path fill="none" stroke="orange" d="M353.508,-702.184C391.847,-678.953 443.685,-647.543 482.484,-624.033"/>
<polygon fill="orange" stroke="orange" points="351.3,-699.429 344.561,-707.605 354.927,-705.416 351.3,-699.429"/>
<text text-anchor="middle" x="478" y="-662.5" font-family="Helvetica,sans-Serif" font-size="10.00"> &lt; unsigned int &gt;</text>
</g>
<!-- Node16 -->
<g id="node16" class="node"><title>Node16</title>
<polygon fill="white" stroke="#bfbfbf" points="223.5,-433 223.5,-501 342.5,-501 342.5,-433 223.5,-433"/>
<text text-anchor="start" x="231.5" y="-489" font-family="Helvetica,sans-Serif" font-size="10.00">std::vector&lt; std::vector</text>
<text text-anchor="middle" x="283" y="-478" font-family="Helvetica,sans-Serif" font-size="10.00">&lt; unsigned int &gt; &gt;</text>
<polyline fill="none" stroke="#bfbfbf" points="223.5,-471 342.5,-471 "/>
<text text-anchor="middle" x="283" y="-459" font-family="Helvetica,sans-Serif" font-size="10.00"> </text>
<polyline fill="none" stroke="#bfbfbf" points="223.5,-452 342.5,-452 "/>
<text text-anchor="middle" x="283" y="-440" font-family="Helvetica,sans-Serif" font-size="10.00"> </text>
</g>
<!-- Node4&#45;&gt;Node16 -->
<g id="edge19" class="edge"><title>Node4&#45;&gt;Node16</title>
<path fill="none" stroke="orange" d="M278.856,-697.333C268.483,-678.034 257.268,-653.54 252,-630 244.235,-595.303 245.609,-584.977 252,-550 255.036,-533.382 261.268,-515.758 267.353,-501.126"/>
<polygon fill="orange" stroke="orange" points="275.794,-699.028 283.694,-706.088 281.92,-695.642 275.794,-699.028"/>
<text text-anchor="start" x="252" y="-593" font-family="Helvetica,sans-Serif" font-size="10.00"> &lt; std::vector&lt; unsigned</text>
<text text-anchor="middle" x="305.5" y="-582" font-family="Helvetica,sans-Serif" font-size="10.00"> int &gt; &gt;</text>
</g>
<!-- Node5 -->
<g id="node5" class="node"><title>Node5</title>
<polygon fill="white" stroke="#bfbfbf" points="547.5,-818.5 547.5,-875.5 576.5,-875.5 576.5,-818.5 547.5,-818.5"/>
<text text-anchor="middle" x="562" y="-863.5" font-family="Helvetica,sans-Serif" font-size="10.00">T</text>
<polyline fill="none" stroke="#bfbfbf" points="547.5,-856.5 576.5,-856.5 "/>
<text text-anchor="middle" x="562" y="-844.5" font-family="Helvetica,sans-Serif" font-size="10.00"> </text>
<polyline fill="none" stroke="#bfbfbf" points="547.5,-837.5 576.5,-837.5 "/>
<text text-anchor="middle" x="562" y="-825.5" font-family="Helvetica,sans-Serif" font-size="10.00"> </text>
</g>
<!-- Node5&#45;&gt;Node4 -->
<g id="edge4" class="edge"><title>Node5&#45;&gt;Node4</title>
<path fill="none" stroke="#404040" d="M547.22,-839.771C511.103,-824.549 416.882,-784.839 356.027,-759.191"/>
<polygon fill="none" stroke="#404040" points="355.759,-759.078 348.676,-760.434 344.7,-754.418 351.783,-753.062 355.759,-759.078"/>
<text text-anchor="middle" x="472.5" y="-791.5" font-family="Helvetica,sans-Serif" font-size="10.00"> +elements</text>
</g>
<!-- Node13 -->
<g id="node13" class="node"><title>Node13</title>
<g id="a_node13"><a xlink:title="STL class. ">
<polygon fill="white" stroke="#bfbfbf" points="614,-438.5 614,-495.5 706,-495.5 706,-438.5 614,-438.5"/>
<text text-anchor="middle" x="660" y="-483.5" font-family="Helvetica,sans-Serif" font-size="10.00">std::map&lt; K, T &gt;</text>
<polyline fill="none" stroke="#bfbfbf" points="614,-476.5 706,-476.5 "/>
<text text-anchor="middle" x="660" y="-464.5" font-family="Helvetica,sans-Serif" font-size="10.00"> </text>
<polyline fill="none" stroke="#bfbfbf" points="614,-457.5 706,-457.5 "/>
<text text-anchor="middle" x="660" y="-445.5" font-family="Helvetica,sans-Serif" font-size="10.00"> </text>
</a>
</g>
</g>
<!-- Node5&#45;&gt;Node13 -->
<g id="edge15" class="edge"><title>Node5&#45;&gt;Node13</title>
<path fill="none" stroke="#404040" d="M576.09,-818.2C595.824,-777.87 631.16,-700.26 648,-630 658.195,-587.466 653.975,-575.634 657,-532 657.54,-524.208 658.01,-515.876 658.407,-507.885"/>
<polygon fill="none" stroke="#404040" points="658.414,-507.725 654.697,-501.546 658.971,-495.738 662.688,-501.917 658.414,-507.725"/>
<text text-anchor="middle" x="667.5" y="-662.5" font-family="Helvetica,sans-Serif" font-size="10.00"> +elements</text>
</g>
<!-- Node6 -->
<g id="node6" class="node"><title>Node6</title>
<g id="a_node6"><a xlink:href="../../de/d5e/a00007.html" target="_top" xlink:title="A calibration tool used to calibrate the Stride scenario tests. ">
<polygon fill="white" stroke="black" points="105.5,-172.5 105.5,-361.5 254.5,-361.5 254.5,-172.5 105.5,-172.5"/>
<text text-anchor="middle" x="180" y="-349.5" font-family="Helvetica,sans-Serif" font-size="10.00">calibration::Calibrator</text>
<polyline fill="none" stroke="black" points="105.5,-342.5 254.5,-342.5 "/>
<text text-anchor="middle" x="180" y="-330.5" font-family="Helvetica,sans-Serif" font-size="10.00"> </text>
<polyline fill="none" stroke="black" points="105.5,-323.5 254.5,-323.5 "/>
<text text-anchor="start" x="113.5" y="-311.5" font-family="Helvetica,sans-Serif" font-size="10.00">+ Calibrator()</text>
<text text-anchor="start" x="113.5" y="-300.5" font-family="Helvetica,sans-Serif" font-size="10.00">+ RunSingle()</text>
<text text-anchor="start" x="113.5" y="-289.5" font-family="Helvetica,sans-Serif" font-size="10.00">+ RunMultiple()</text>
<text text-anchor="start" x="113.5" y="-278.5" font-family="Helvetica,sans-Serif" font-size="10.00">+ PrintMultipleResultsAtStep()</text>
<text text-anchor="start" x="113.5" y="-267.5" font-family="Helvetica,sans-Serif" font-size="10.00">+ PrintMultipleResults()</text>
<text text-anchor="start" x="113.5" y="-256.5" font-family="Helvetica,sans-Serif" font-size="10.00">+ PrintSingleResultsAtStep()</text>
<text text-anchor="start" x="113.5" y="-245.5" font-family="Helvetica,sans-Serif" font-size="10.00">+ PrintSingleResults()</text>
<text text-anchor="start" x="113.5" y="-234.5" font-family="Helvetica,sans-Serif" font-size="10.00">+ WriteMultipleResults()</text>
<text text-anchor="start" x="113.5" y="-223.5" font-family="Helvetica,sans-Serif" font-size="10.00">+ WriteSingleResults()</text>
<text text-anchor="start" x="113.5" y="-212.5" font-family="Helvetica,sans-Serif" font-size="10.00">+ WriteResults()</text>
<text text-anchor="start" x="113.5" y="-201.5" font-family="Helvetica,sans-Serif" font-size="10.00">&#45; PrintStep()</text>
<text text-anchor="start" x="113.5" y="-190.5" font-family="Helvetica,sans-Serif" font-size="10.00">&#45; FindMeanStdev()</text>
<text text-anchor="start" x="113.5" y="-179.5" font-family="Helvetica,sans-Serif" font-size="10.00">&#45; CreateRNManager()</text>
</a>
</g>
</g>
<!-- Node6&#45;&gt;Node1 -->
<g id="edge5" class="edge"><title>Node6&#45;&gt;Node1</title>
<path fill="none" stroke="#404040" d="M215.108,-172.225C219.794,-159.707 224.54,-147.032 229.057,-134.967"/>
<polygon fill="none" stroke="#404040" points="229.101,-134.85 227.458,-127.828 233.308,-123.611 234.95,-130.633 229.101,-134.85"/>
<text text-anchor="middle" x="249.5" y="-145.5" font-family="Helvetica,sans-Serif" font-size="10.00"> #calibrator</text>
</g>
<!-- Node7 -->
<g id="node7" class="node"><title>Node7</title>
<polygon fill="white" stroke="#bfbfbf" points="105,-433 105,-501 205,-501 205,-433 105,-433"/>
<text text-anchor="start" x="113" y="-489" font-family="Helvetica,sans-Serif" font-size="10.00">shared_ptr&lt; spdlog</text>
<text text-anchor="middle" x="155" y="-478" font-family="Helvetica,sans-Serif" font-size="10.00">::logger &gt;</text>
<polyline fill="none" stroke="#bfbfbf" points="105,-471 205,-471 "/>
<text text-anchor="middle" x="155" y="-459" font-family="Helvetica,sans-Serif" font-size="10.00"> </text>
<polyline fill="none" stroke="#bfbfbf" points="105,-452 205,-452 "/>
<text text-anchor="middle" x="155" y="-440" font-family="Helvetica,sans-Serif" font-size="10.00"> </text>
</g>
<!-- Node7&#45;&gt;Node6 -->
<g id="edge6" class="edge"><title>Node7&#45;&gt;Node6</title>
<path fill="none" stroke="#404040" d="M159.184,-432.859C161.272,-416.325 163.926,-395.306 166.634,-373.855"/>
<polygon fill="none" stroke="#404040" points="166.638,-373.825 163.421,-367.371 168.141,-361.92 171.358,-368.373 166.638,-373.825"/>
<text text-anchor="middle" x="182.5" y="-394.5" font-family="Helvetica,sans-Serif" font-size="10.00"> &#45;logger</text>
</g>
<!-- Node8 -->
<g id="node8" class="node"><title>Node8</title>
<polygon fill="white" stroke="#bfbfbf" points="451,-227.5 451,-306.5 565,-306.5 565,-227.5 451,-227.5"/>
<text text-anchor="start" x="459" y="-294.5" font-family="Helvetica,sans-Serif" font-size="10.00">std::map&lt; std::string,</text>
<text text-anchor="start" x="459" y="-283.5" font-family="Helvetica,sans-Serif" font-size="10.00"> std::vector&lt; unsigned</text>
<text text-anchor="middle" x="508" y="-272.5" font-family="Helvetica,sans-Serif" font-size="10.00"> int &gt; &gt;</text>
<polyline fill="none" stroke="#bfbfbf" points="451,-265.5 565,-265.5 "/>
<text text-anchor="middle" x="508" y="-253.5" font-family="Helvetica,sans-Serif" font-size="10.00"> </text>
<polyline fill="none" stroke="#bfbfbf" points="451,-246.5 565,-246.5 "/>
<text text-anchor="middle" x="508" y="-234.5" font-family="Helvetica,sans-Serif" font-size="10.00"> </text>
</g>
<!-- Node8&#45;&gt;Node1 -->
<g id="edge7" class="edge"><title>Node8&#45;&gt;Node1</title>
<path fill="none" stroke="#404040" d="M468.183,-227.357C441.488,-202.112 405.105,-168.952 371,-142 355.734,-129.936 338.726,-117.665 322.572,-106.504"/>
<polygon fill="none" stroke="#404040" points="322.549,-106.488 315.338,-106.4 312.647,-99.71 319.857,-99.7985 322.549,-106.488"/>
<text text-anchor="middle" x="417" y="-145.5" font-family="Helvetica,sans-Serif" font-size="10.00"> #singleResults</text>
</g>
<!-- Node9 -->
<g id="node9" class="node"><title>Node9</title>
<g id="a_node9"><a xlink:title="STL class. ">
<polygon fill="white" stroke="#bfbfbf" points="361,-438.5 361,-495.5 421,-495.5 421,-438.5 361,-438.5"/>
<text text-anchor="middle" x="391" y="-483.5" font-family="Helvetica,sans-Serif" font-size="10.00">std::string</text>
<polyline fill="none" stroke="#bfbfbf" points="361,-476.5 421,-476.5 "/>
<text text-anchor="middle" x="391" y="-464.5" font-family="Helvetica,sans-Serif" font-size="10.00"> </text>
<polyline fill="none" stroke="#bfbfbf" points="361,-457.5 421,-457.5 "/>
<text text-anchor="middle" x="391" y="-445.5" font-family="Helvetica,sans-Serif" font-size="10.00"> </text>
</a>
</g>
</g>
<!-- Node9&#45;&gt;Node8 -->
<g id="edge8" class="edge"><title>Node9&#45;&gt;Node8</title>
<path fill="none" stroke="#404040" d="M385.101,-438.155C382.738,-420.746 382.162,-398.247 390,-380 393.7,-371.386 425.3,-341.583 454.866,-314.886"/>
<polygon fill="none" stroke="#404040" points="455.018,-314.749 456.807,-307.763 463.943,-306.727 462.155,-313.713 455.018,-314.749"/>
<text text-anchor="middle" x="405.5" y="-394.5" font-family="Helvetica,sans-Serif" font-size="10.00"> +keys</text>
</g>
<!-- Node15 -->
<g id="node15" class="node"><title>Node15</title>
<polygon fill="white" stroke="#bfbfbf" points="273,-227.5 273,-306.5 395,-306.5 395,-227.5 273,-227.5"/>
<text text-anchor="start" x="281" y="-294.5" font-family="Helvetica,sans-Serif" font-size="10.00">std::map&lt; std::string,</text>
<text text-anchor="start" x="281" y="-283.5" font-family="Helvetica,sans-Serif" font-size="10.00"> std::vector&lt; std::vector</text>
<text text-anchor="middle" x="334" y="-272.5" font-family="Helvetica,sans-Serif" font-size="10.00">&lt; unsigned int &gt; &gt; &gt;</text>
<polyline fill="none" stroke="#bfbfbf" points="273,-265.5 395,-265.5 "/>
<text text-anchor="middle" x="334" y="-253.5" font-family="Helvetica,sans-Serif" font-size="10.00"> </text>
<polyline fill="none" stroke="#bfbfbf" points="273,-246.5 395,-246.5 "/>
<text text-anchor="middle" x="334" y="-234.5" font-family="Helvetica,sans-Serif" font-size="10.00"> </text>
</g>
<!-- Node9&#45;&gt;Node15 -->
<g id="edge20" class="edge"><title>Node9&#45;&gt;Node15</title>
<path fill="none" stroke="#404040" d="M360.707,-439.201C348.771,-428.304 337.518,-417.459 336,-414 322.941,-384.244 322.459,-347.681 325.232,-318.588"/>
<polygon fill="none" stroke="#404040" points="325.237,-318.542 321.941,-312.129 326.593,-306.619 329.89,-313.032 325.237,-318.542"/>
<text text-anchor="middle" x="351.5" y="-394.5" font-family="Helvetica,sans-Serif" font-size="10.00"> +keys</text>
</g>
<!-- Node10 -->
<g id="node10" class="node"><title>Node10</title>
<g id="a_node10"><a xlink:title="STL class. ">
<polygon fill="white" stroke="#bfbfbf" points="368.5,-556 368.5,-624 463.5,-624 463.5,-556 368.5,-556"/>
<text text-anchor="start" x="376.5" y="-612" font-family="Helvetica,sans-Serif" font-size="10.00">std::basic_string&lt;</text>
<text text-anchor="middle" x="416" y="-601" font-family="Helvetica,sans-Serif" font-size="10.00"> char &gt;</text>
<polyline fill="none" stroke="#bfbfbf" points="368.5,-594 463.5,-594 "/>
<text text-anchor="middle" x="416" y="-582" font-family="Helvetica,sans-Serif" font-size="10.00"> </text>
<polyline fill="none" stroke="#bfbfbf" points="368.5,-575 463.5,-575 "/>
<text text-anchor="middle" x="416" y="-563" font-family="Helvetica,sans-Serif" font-size="10.00"> </text>
</a>
</g>
</g>
<!-- Node10&#45;&gt;Node9 -->
<g id="edge9" class="edge"><title>Node10&#45;&gt;Node9</title>
<path fill="none" stroke="midnightblue" d="M407.084,-545.844C403.635,-529.155 399.79,-510.543 396.724,-495.703"/>
<polygon fill="none" stroke="midnightblue" points="403.718,-546.851 409.169,-555.936 410.573,-545.435 403.718,-546.851"/>
</g>
<!-- Node11&#45;&gt;Node8 -->
<g id="edge10" class="edge"><title>Node11&#45;&gt;Node8</title>
<path fill="none" stroke="#404040" d="M538.403,-555.918C539.688,-514.594 540.412,-441.797 533,-380 530.556,-359.62 526.029,-337.504 521.493,-318.349"/>
<polygon fill="none" stroke="#404040" points="521.457,-318.201 516.148,-313.322 518.61,-306.544 523.919,-311.424 521.457,-318.201"/>
<text text-anchor="middle" x="563.5" y="-464.5" font-family="Helvetica,sans-Serif" font-size="10.00"> +elements</text>
</g>
<!-- Node11&#45;&gt;Node16 -->
<g id="edge18" class="edge"><title>Node11&#45;&gt;Node16</title>
<path fill="none" stroke="#404040" d="M483.458,-555.974C479.618,-553.884 475.773,-551.871 472,-550 423.757,-526.07 406.616,-525.369 353.77,-502.627"/>
<polygon fill="none" stroke="#404040" points="353.694,-502.594 346.592,-503.845 342.705,-497.771 349.807,-496.52 353.694,-502.594"/>
<text text-anchor="middle" x="456.5" y="-523.5" font-family="Helvetica,sans-Serif" font-size="10.00"> +elements</text>
</g>
<!-- Node12 -->
<g id="node12" class="node"><title>Node12</title>
<polygon fill="white" stroke="#bfbfbf" points="502.5,-706.5 502.5,-763.5 571.5,-763.5 571.5,-706.5 502.5,-706.5"/>
<text text-anchor="middle" x="537" y="-751.5" font-family="Helvetica,sans-Serif" font-size="10.00">unsigned int</text>
<polyline fill="none" stroke="#bfbfbf" points="502.5,-744.5 571.5,-744.5 "/>
<text text-anchor="middle" x="537" y="-732.5" font-family="Helvetica,sans-Serif" font-size="10.00"> </text>
<polyline fill="none" stroke="#bfbfbf" points="502.5,-725.5 571.5,-725.5 "/>
<text text-anchor="middle" x="537" y="-713.5" font-family="Helvetica,sans-Serif" font-size="10.00"> </text>
</g>
<!-- Node12&#45;&gt;Node11 -->
<g id="edge11" class="edge"><title>Node12&#45;&gt;Node11</title>
<path fill="none" stroke="#404040" d="M537,-706.428C537,-686.569 537,-659.329 537,-636.297"/>
<polygon fill="none" stroke="#404040" points="537,-636.009 533,-630.009 537,-624.009 541,-630.009 537,-636.009"/>
<text text-anchor="middle" x="561.5" y="-662.5" font-family="Helvetica,sans-Serif" font-size="10.00"> +elements</text>
</g>
<!-- Node13&#45;&gt;Node8 -->
<g id="edge13" class="edge"><title>Node13&#45;&gt;Node8</title>
<path fill="none" stroke="orange" d="M632.701,-430.44C605.895,-395.52 565.121,-342.408 537.561,-306.507"/>
<polygon fill="orange" stroke="orange" points="629.999,-432.668 638.865,-438.469 635.552,-428.405 629.999,-432.668"/>
<text text-anchor="start" x="619" y="-400" font-family="Helvetica,sans-Serif" font-size="10.00"> &lt; std::string, std</text>
<text text-anchor="middle" x="675.5" y="-389" font-family="Helvetica,sans-Serif" font-size="10.00">::vector&lt; unsigned int &gt; &gt;</text>
</g>
<!-- Node13&#45;&gt;Node15 -->
<g id="edge21" class="edge"><title>Node13&#45;&gt;Node15</title>
<path fill="none" stroke="orange" d="M605.588,-434.186C603.721,-433.41 601.855,-432.678 600,-432 559.228,-417.096 543.245,-432.554 504,-414 449.66,-388.31 398.99,-340.451 367.354,-306.538"/>
<polygon fill="orange" stroke="orange" points="604.334,-437.46 614.888,-438.389 607.216,-431.082 604.334,-437.46"/>
<text text-anchor="start" x="504" y="-405.5" font-family="Helvetica,sans-Serif" font-size="10.00"> &lt; std::string, std</text>
<text text-anchor="start" x="504" y="-394.5" font-family="Helvetica,sans-Serif" font-size="10.00">::vector&lt; std::vector</text>
<text text-anchor="middle" x="548.5" y="-383.5" font-family="Helvetica,sans-Serif" font-size="10.00">&lt; unsigned int &gt; &gt; &gt;</text>
</g>
<!-- Node14 -->
<g id="node14" class="node"><title>Node14</title>
<polygon fill="white" stroke="#bfbfbf" points="610.5,-561.5 610.5,-618.5 639.5,-618.5 639.5,-561.5 610.5,-561.5"/>
<text text-anchor="middle" x="625" y="-606.5" font-family="Helvetica,sans-Serif" font-size="10.00">K</text>
<polyline fill="none" stroke="#bfbfbf" points="610.5,-599.5 639.5,-599.5 "/>
<text text-anchor="middle" x="625" y="-587.5" font-family="Helvetica,sans-Serif" font-size="10.00"> </text>
<polyline fill="none" stroke="#bfbfbf" points="610.5,-580.5 639.5,-580.5 "/>
<text text-anchor="middle" x="625" y="-568.5" font-family="Helvetica,sans-Serif" font-size="10.00"> </text>
</g>
<!-- Node14&#45;&gt;Node13 -->
<g id="edge14" class="edge"><title>Node14&#45;&gt;Node13</title>
<path fill="none" stroke="#404040" d="M621.909,-561.253C621.36,-548.437 621.971,-533.175 626,-520 627.415,-515.374 629.377,-510.774 631.651,-506.331"/>
<polygon fill="none" stroke="#404040" points="631.801,-506.074 631.347,-498.877 637.815,-495.69 638.269,-502.887 631.801,-506.074"/>
<text text-anchor="middle" x="641.5" y="-523.5" font-family="Helvetica,sans-Serif" font-size="10.00"> +keys</text>
</g>
<!-- Node15&#45;&gt;Node1 -->
<g id="edge16" class="edge"><title>Node15&#45;&gt;Node1</title>
<path fill="none" stroke="#404040" d="M319.145,-227.339C309.146,-201.316 295.656,-166.207 283.711,-135.121"/>
<polygon fill="none" stroke="#404040" points="283.694,-135.076 277.808,-130.91 279.39,-123.874 285.276,-128.041 283.694,-135.076"/>
<text text-anchor="middle" x="329" y="-145.5" font-family="Helvetica,sans-Serif" font-size="10.00"> #multipleResults</text>
</g>
<!-- Node16&#45;&gt;Node15 -->
<g id="edge17" class="edge"><title>Node16&#45;&gt;Node15</title>
<path fill="none" stroke="#404040" d="M267.916,-432.68C262.613,-416.638 259.068,-397.197 264,-380 270.427,-357.59 282.79,-335.315 295.361,-316.602"/>
<polygon fill="none" stroke="#404040" points="295.472,-316.442 295.618,-309.232 302.329,-306.594 302.183,-313.803 295.472,-316.442"/>
<text text-anchor="middle" x="288.5" y="-394.5" font-family="Helvetica,sans-Serif" font-size="10.00"> +elements</text>
</g>
</g>
</svg>
        <g id="navigator" transform="translate(0 0)" fill="#404254">
                <rect fill="#f2f5e9" fill-opacity="0.5" stroke="#606060" stroke-width=".5" x="0" y="0" width="60" height="60"/>
                <use id="zoomplus" xlink:href="#zoomPlus" x="17" y="9" onmousedown="handleZoom(evt,'in')"/>
                <use id="zoomminus" xlink:href="#zoomMin" x="42" y="9" onmousedown="handleZoom(evt,'out')"/>
                <use id="reset" xlink:href="#resetDef" x="30" y="36" onmousedown="handleReset()"/>
                <g id="arrowUp" xlink:href="#dirArrow" transform="translate(30 24)" onmousedown="handlePan(0,-1)">
                  <use xlink:href="#rim" fill="#404040">
                        <set attributeName="fill" to="#808080" begin="arrowUp.mouseover" end="arrowUp.mouseout"/>
                  </use>
                  <path fill="none" stroke="white" stroke-width="1.5" d="M0,-3.0v7 M-2.5,-0.5L0,-3.0L2.5,-0.5"/>
                </g>
                <g id="arrowRight" xlink:href="#dirArrow" transform="rotate(90) translate(36 -43)" onmousedown="handlePan(1,0)">
                  <use xlink:href="#rim" fill="#404040">
                        <set attributeName="fill" to="#808080" begin="arrowRight.mouseover" end="arrowRight.mouseout"/>
                  </use>
                  <path fill="none" stroke="white" stroke-width="1.5" d="M0,-3.0v7 M-2.5,-0.5L0,-3.0L2.5,-0.5"/>
                </g>
                <g id="arrowDown" xlink:href="#dirArrow" transform="rotate(180) translate(-30 -48)" onmousedown="handlePan(0,1)">
                  <use xlink:href="#rim" fill="#404040">
                        <set attributeName="fill" to="#808080" begin="arrowDown.mouseover" end="arrowDown.mouseout"/>
                  </use>
                  <path fill="none" stroke="white" stroke-width="1.5" d="M0,-3.0v7 M-2.5,-0.5L0,-3.0L2.5,-0.5"/>
                </g>
                <g id="arrowLeft" xlink:href="#dirArrow" transform="rotate(270) translate(-36 17)" onmousedown="handlePan(-1,0)">
                  <use xlink:href="#rim" fill="#404040">
                        <set attributeName="fill" to="#808080" begin="arrowLeft.mouseover" end="arrowLeft.mouseout"/>
                  </use>
                  <path fill="none" stroke="white" stroke-width="1.5" d="M0,-3.0v7 M-2.5,-0.5L0,-3.0L2.5,-0.5"/>
                </g>
        </g>
        <svg viewBox="0 0 15 15" width="100%" height="30px" preserveAspectRatio="xMaxYMin meet">
         <g id="arrow_out" transform="scale(0.3 0.3)">
          <a xlink:href="a00930_org.svg" target="_base">
           <rect id="button" ry="5" rx="5" y="6" x="6" height="38" width="38"
                fill="#f2f5e9" fill-opacity="0.5" stroke="#606060" stroke-width="1.0"/>
           <path id="arrow"
             d="M 11.500037,31.436501 C 11.940474,20.09759 22.043105,11.32322 32.158766,21.979434 L 37.068811,17.246167 C 37.068811,17.246167 37.088388,32 37.088388,32 L 22.160133,31.978069 C 22.160133,31.978069 26.997745,27.140456 26.997745,27.140456 C 18.528582,18.264221 13.291696,25.230495 11.500037,31.436501 z"
             style="fill:#404040;"/>
          </a>
         </g>
        </svg>
</svg>
