<?xml version="1.0" encoding="UTF-8" standalone="no"?>
<!DOCTYPE svg PUBLIC "-//W3C//DTD SVG 1.1//EN"
 "http://www.w3.org/Graphics/SVG/1.1/DTD/svg11.dtd">
<!-- Generated by graphviz version 2.36.0 (20140111.2315)
 -->
<!-- Title: calibration::BoxplotData Pages: 1 -->
<svg width="167pt" height="324pt"
 viewBox="0.00 0.00 167.00 324.00" xmlns="http://www.w3.org/2000/svg" xmlns:xlink="http://www.w3.org/1999/xlink">
<g id="graph0" class="graph" transform="scale(1 1) rotate(0) translate(4 320)">
<title>calibration::BoxplotData</title>
<polygon fill="white" stroke="none" points="-4,4 -4,-320 163,-320 163,4 -4,4"/>
<!-- Node1 -->
<g id="node1" class="node"><title>Node1</title>
<polygon fill="#bfbfbf" stroke="black" points="6.5,-0.5 6.5,-57.5 127.5,-57.5 127.5,-0.5 6.5,-0.5"/>
<text text-anchor="middle" x="67" y="-45.5" font-family="Helvetica,sans-Serif" font-size="10.00">calibration::BoxplotData</text>
<polyline fill="none" stroke="black" points="6.5,-38.5 127.5,-38.5 "/>
<text text-anchor="middle" x="67" y="-26.5" font-family="Helvetica,sans-Serif" font-size="10.00"> </text>
<polyline fill="none" stroke="black" points="6.5,-19.5 127.5,-19.5 "/>
<text text-anchor="start" x="14.5" y="-7.5" font-family="Helvetica,sans-Serif" font-size="10.00">+ BoxplotData()</text>
</g>
<!-- Node2 -->
<g id="node2" class="node"><title>Node2</title>
<g id="a_node2"><a xlink:href="../../d9/d34/a00476.html" target="_top" xlink:title="{double\n||}">
<polygon fill="white" stroke="black" points="-0.5,-150.5 -0.5,-207.5 44.5,-207.5 44.5,-150.5 -0.5,-150.5"/>
<text text-anchor="middle" x="22" y="-195.5" font-family="Helvetica,sans-Serif" font-size="10.00">double</text>
<polyline fill="none" stroke="black" points="-0.5,-188.5 44.5,-188.5 "/>
<text text-anchor="middle" x="22" y="-176.5" font-family="Helvetica,sans-Serif" font-size="10.00"> </text>
<polyline fill="none" stroke="black" points="-0.5,-169.5 44.5,-169.5 "/>
<text text-anchor="middle" x="22" y="-157.5" font-family="Helvetica,sans-Serif" font-size="10.00"> </text>
</a>
</g>
</g>
<!-- Node2&#45;&gt;Node1 -->
<g id="edge1" class="edge"><title>Node2&#45;&gt;Node1</title>
<path fill="none" stroke="#404040" d="M16.8871,-150.076C14.2727,-128.941 13.3875,-99.6202 23,-76 24.1664,-73.1339 25.604,-70.3445 27.2395,-67.6492"/>
<polygon fill="none" stroke="#404040" points="27.3542,-67.4902 27.6199,-60.2839 34.3739,-57.7575 34.1083,-64.9637 27.3542,-67.4902"/>
<text text-anchor="middle" x="56.5" y="-123.5" font-family="Helvetica,sans-Serif" font-size="10.00"> +max_value</text>
<text text-anchor="middle" x="56.5" y="-112.5" font-family="Helvetica,sans-Serif" font-size="10.00">+lower_quartile</text>
<text text-anchor="middle" x="56.5" y="-101.5" font-family="Helvetica,sans-Serif" font-size="10.00">+median</text>
<text text-anchor="middle" x="56.5" y="-90.5" font-family="Helvetica,sans-Serif" font-size="10.00">+min_value</text>
<text text-anchor="middle" x="56.5" y="-79.5" font-family="Helvetica,sans-Serif" font-size="10.00">+upper_quartile</text>
</g>
<!-- Node3 -->
<g id="node3" class="node"><title>Node3</title>
<g id="a_node3"><a xlink:title="STL class. ">
<polygon fill="white" stroke="#bfbfbf" points="82,-150.5 82,-207.5 142,-207.5 142,-150.5 82,-150.5"/>
<text text-anchor="middle" x="112" y="-195.5" font-family="Helvetica,sans-Serif" font-size="10.00">std::string</text>
<polyline fill="none" stroke="#bfbfbf" points="82,-188.5 142,-188.5 "/>
<text text-anchor="middle" x="112" y="-176.5" font-family="Helvetica,sans-Serif" font-size="10.00"> </text>
<polyline fill="none" stroke="#bfbfbf" points="82,-169.5 142,-169.5 "/>
<text text-anchor="middle" x="112" y="-157.5" font-family="Helvetica,sans-Serif" font-size="10.00"> </text>
</a>
</g>
</g>
<!-- Node3&#45;&gt;Node1 -->
<g id="edge2" class="edge"><title>Node3&#45;&gt;Node1</title>
<path fill="none" stroke="#404040" d="M107.946,-150.209C104.449,-129.402 98.5912,-100.439 90,-76 89.1672,-73.6309 88.2398,-71.2272 87.2485,-68.8249"/>
<polygon fill="none" stroke="#404040" points="87.1817,-68.6762 81.0732,-64.844 82.2612,-57.7314 88.3697,-61.5636 87.1817,-68.6762"/>
<text text-anchor="middle" x="122" y="-101.5" font-family="Helvetica,sans-Serif" font-size="10.00"> +name</text>
</g>
<!-- Node4 -->
<g id="node4" class="node"><title>Node4</title>
<g id="a_node4"><a xlink:title="STL class. ">
<polygon fill="white" stroke="#bfbfbf" points="64.5,-247 64.5,-315 159.5,-315 159.5,-247 64.5,-247"/>
<text text-anchor="start" x="72.5" y="-303" font-family="Helvetica,sans-Serif" font-size="10.00">std::basic_string&lt;</text>
<text text-anchor="middle" x="112" y="-292" font-family="Helvetica,sans-Serif" font-size="10.00"> char &gt;</text>
<polyline fill="none" stroke="#bfbfbf" points="64.5,-285 159.5,-285 "/>
<text text-anchor="middle" x="112" y="-273" font-family="Helvetica,sans-Serif" font-size="10.00"> </text>
<polyline fill="none" stroke="#bfbfbf" points="64.5,-266 159.5,-266 "/>
<text text-anchor="middle" x="112" y="-254" font-family="Helvetica,sans-Serif" font-size="10.00"> </text>
</a>
</g>
</g>
<!-- Node4&#45;&gt;Node3 -->
<g id="edge3" class="edge"><title>Node4&#45;&gt;Node3</title>
<path fill="none" stroke="midnightblue" d="M112,-236.857C112,-226.952 112,-216.682 112,-207.64"/>
<polygon fill="none" stroke="midnightblue" points="108.5,-236.979 112,-246.979 115.5,-236.979 108.5,-236.979"/>
</g>
</g>
</svg>
