<?xml version="1.0" encoding="UTF-8" standalone="no"?>
<!DOCTYPE svg PUBLIC "-//W3C//DTD SVG 1.1//EN"
 "http://www.w3.org/Graphics/SVG/1.1/DTD/svg11.dtd">
<!-- Generated by graphviz version 2.36.0 (20140111.2315)
 -->
<!-- Title: stride::Threshold Pages: 1 -->
<svg width="144pt" height="238pt"
 viewBox="0.00 0.00 144.00 238.00" xmlns="http://www.w3.org/2000/svg" xmlns:xlink="http://www.w3.org/1999/xlink">
<g id="graph0" class="graph" transform="scale(1 1) rotate(0) translate(4 234)">
<title>stride::Threshold</title>
<polygon fill="white" stroke="none" points="-4,4 -4,-234 140,-234 140,4 -4,4"/>
<!-- Node1 -->
<g id="node1" class="node"><title>Node1</title>
<polygon fill="#bfbfbf" stroke="black" points="-0.5,-1 -0.5,-113 136.5,-113 136.5,-1 -0.5,-1"/>
<text text-anchor="middle" x="68" y="-101" font-family="Helvetica,sans-Serif" font-size="10.00">stride::Threshold</text>
<polyline fill="none" stroke="black" points="-0.5,-94 136.5,-94 "/>
<text text-anchor="start" x="7.5" y="-82" font-family="Helvetica,sans-Serif" font-size="10.00">&#45; m_is_aware</text>
<text text-anchor="start" x="7.5" y="-71" font-family="Helvetica,sans-Serif" font-size="10.00">&#45; m_num_contacts</text>
<text text-anchor="start" x="7.5" y="-60" font-family="Helvetica,sans-Serif" font-size="10.00">&#45; m_num_contacts_infected</text>
<text text-anchor="start" x="7.5" y="-49" font-family="Helvetica,sans-Serif" font-size="10.00">&#45; m_num_contacts_adopted</text>
<text text-anchor="start" x="7.5" y="-38" font-family="Helvetica,sans-Serif" font-size="10.00">&#45; m_threshold_infected</text>
<text text-anchor="start" x="7.5" y="-27" font-family="Helvetica,sans-Serif" font-size="10.00">&#45; m_threshold_adopted</text>
<polyline fill="none" stroke="black" points="-0.5,-20 136.5,-20 "/>
<text text-anchor="start" x="7.5" y="-8" font-family="Helvetica,sans-Serif" font-size="10.00">+ Threshold()</text>
</g>
<!-- Node2 -->
<g id="node2" class="node"><title>Node2</title>
<g id="a_node2"><a xlink:href="../../d9/df8/a00096.html" target="_top" xlink:title="Base class for all belief policies. ">
<polygon fill="white" stroke="black" points="25,-150.5 25,-229.5 111,-229.5 111,-150.5 25,-150.5"/>
<text text-anchor="middle" x="68" y="-217.5" font-family="Helvetica,sans-Serif" font-size="10.00">stride::Belief</text>
<polyline fill="none" stroke="black" points="25,-210.5 111,-210.5 "/>
<text text-anchor="middle" x="68" y="-198.5" font-family="Helvetica,sans-Serif" font-size="10.00"> </text>
<polyline fill="none" stroke="black" points="25,-191.5 111,-191.5 "/>
<text text-anchor="start" x="33" y="-179.5" font-family="Helvetica,sans-Serif" font-size="10.00">+ Belief()</text>
<text text-anchor="start" x="33" y="-168.5" font-family="Helvetica,sans-Serif" font-size="10.00">+ ~Belief()</text>
<text text-anchor="start" x="33" y="-157.5" font-family="Helvetica,sans-Serif" font-size="10.00">+ HasAdopted()</text>
</a>
</g>
</g>
<!-- Node2&#45;&gt;Node1 -->
<g id="edge1" class="edge"><title>Node2&#45;&gt;Node1</title>
<path fill="none" stroke="midnightblue" d="M68,-140.315C68,-131.514 68,-122.28 68,-113.307"/>
<polygon fill="none" stroke="midnightblue" points="64.5001,-140.404 68,-150.404 71.5001,-140.404 64.5001,-140.404"/>
</g>
</g>
</svg>
