<?xml version="1.0" encoding="UTF-8" standalone="no"?>
<!DOCTYPE svg PUBLIC "-//W3C//DTD SVG 1.1//EN"
 "http://www.w3.org/Graphics/SVG/1.1/DTD/svg11.dtd">
<!-- Generated by graphviz version 2.36.0 (20140111.2315)
 -->
<!-- Title: google::protobuf::GetEnumDescriptor&lt; ::proto::GeoGrid_Location_ContactCenter_Type &gt; Pages: 1 -->
<svg width="370pt" height="48pt"
 viewBox="0.00 0.00 370.00 48.00" xmlns="http://www.w3.org/2000/svg" xmlns:xlink="http://www.w3.org/1999/xlink">
<g id="graph0" class="graph" transform="scale(1 1) rotate(0) translate(4 44)">
<title>google::protobuf::GetEnumDescriptor&lt; ::proto::GeoGrid_Location_ContactCenter_Type &gt;</title>
<polygon fill="white" stroke="none" points="-4,4 -4,-44 366,-44 366,4 -4,4"/>
<!-- Node1 -->
<g id="node1" class="node"><title>Node1</title>
<polygon fill="#bfbfbf" stroke="black" points="0,0.5 0,-40.5 164,-40.5 164,0.5 0,0.5"/>
<text text-anchor="start" x="8" y="-28.5" font-family="Helvetica,sans-Serif" font-size="10.00">google::protobuf::GetEnum</text>
<text text-anchor="start" x="8" y="-17.5" font-family="Helvetica,sans-Serif" font-size="10.00">Descriptor&lt; ::proto::GeoGrid</text>
<text text-anchor="middle" x="82" y="-6.5" font-family="Helvetica,sans-Serif" font-size="10.00">_Location_ContactCenter_Type &gt;</text>
</g>
<!-- Node2 -->
<g id="node2" class="node"><title>Node2</title>
<g id="a_node2"><a xlink:href="../../d2/d9d/a00464.html#a6ff0d867dcc9cc4febf9ee62afec3053" target="_top" xlink:title="proto::GeoGrid_Location\l_ContactCenter_Type_descriptor">
<polygon fill="white" stroke="black" points="200.5,-5 200.5,-35 361.5,-35 361.5,-5 200.5,-5"/>
<text text-anchor="start" x="208.5" y="-23" font-family="Helvetica,sans-Serif" font-size="10.00">proto::GeoGrid_Location</text>
<text text-anchor="middle" x="281" y="-12" font-family="Helvetica,sans-Serif" font-size="10.00">_ContactCenter_Type_descriptor</text>
</a>
</g>
</g>
<!-- Node1&#45;&gt;Node2 -->
<g id="edge1" class="edge"><title>Node1&#45;&gt;Node2</title>
<path fill="none" stroke="midnightblue" d="M164.265,-20C172.797,-20 181.507,-20 190.128,-20"/>
<polygon fill="midnightblue" stroke="midnightblue" points="190.192,-23.5001 200.192,-20 190.192,-16.5001 190.192,-23.5001"/>
</g>
</g>
</svg>
