<?xml version="1.0" encoding="UTF-8" standalone="no"?>
<!DOCTYPE svg PUBLIC "-//W3C//DTD SVG 1.1//EN"
 "http://www.w3.org/Graphics/SVG/1.1/DTD/svg11.dtd">
<!-- Generated by graphviz version 2.36.0 (20140111.2315)
 -->
<!-- Title: stride::ContactPoolType::IdSubscriptArray&lt; bool &gt; Pages: 1 -->
<svg width="148pt" height="226pt"
 viewBox="0.00 0.00 148.00 226.00" xmlns="http://www.w3.org/2000/svg" xmlns:xlink="http://www.w3.org/1999/xlink">
<g id="graph0" class="graph" transform="scale(1 1) rotate(0) translate(4 222)">
<title>stride::ContactPoolType::IdSubscriptArray&lt; bool &gt;</title>
<polygon fill="white" stroke="none" points="-4,4 -4,-222 144,-222 144,4 -4,4"/>
<!-- Node1 -->
<g id="node1" class="node"><title>Node1</title>
<polygon fill="#bfbfbf" stroke="black" points="4.5,-0.5 4.5,-123.5 135.5,-123.5 135.5,-0.5 4.5,-0.5"/>
<text text-anchor="start" x="12.5" y="-111.5" font-family="Helvetica,sans-Serif" font-size="10.00">stride::ContactPoolType</text>
<text text-anchor="middle" x="70" y="-100.5" font-family="Helvetica,sans-Serif" font-size="10.00">::IdSubscriptArray&lt; bool &gt;</text>
<polyline fill="none" stroke="black" points="4.5,-93.5 135.5,-93.5 "/>
<text text-anchor="middle" x="70" y="-81.5" font-family="Helvetica,sans-Serif" font-size="10.00"> </text>
<polyline fill="none" stroke="black" points="4.5,-74.5 135.5,-74.5 "/>
<text text-anchor="start" x="12.5" y="-62.5" font-family="Helvetica,sans-Serif" font-size="10.00">+ IdSubscriptArray()</text>
<text text-anchor="start" x="12.5" y="-51.5" font-family="Helvetica,sans-Serif" font-size="10.00">+ IdSubscriptArray()</text>
<text text-anchor="start" x="12.5" y="-40.5" font-family="Helvetica,sans-Serif" font-size="10.00">+ operator[]()</text>
<text text-anchor="start" x="12.5" y="-29.5" font-family="Helvetica,sans-Serif" font-size="10.00">+ operator[]()</text>
<text text-anchor="start" x="12.5" y="-18.5" font-family="Helvetica,sans-Serif" font-size="10.00">+ at()</text>
<text text-anchor="start" x="12.5" y="-7.5" font-family="Helvetica,sans-Serif" font-size="10.00">+ at()</text>
</g>
<!-- Node2 -->
<g id="node2" class="node"><title>Node2</title>
<g id="a_node2"><a xlink:title="STL class. ">
<polygon fill="white" stroke="#bfbfbf" points="0,-160.5 0,-217.5 140,-217.5 140,-160.5 0,-160.5"/>
<text text-anchor="middle" x="70" y="-205.5" font-family="Helvetica,sans-Serif" font-size="10.00">std::bitset&lt; NumOfTypes()&gt;</text>
<polyline fill="none" stroke="#bfbfbf" points="0,-198.5 140,-198.5 "/>
<text text-anchor="middle" x="70" y="-186.5" font-family="Helvetica,sans-Serif" font-size="10.00"> </text>
<polyline fill="none" stroke="#bfbfbf" points="0,-179.5 140,-179.5 "/>
<text text-anchor="middle" x="70" y="-167.5" font-family="Helvetica,sans-Serif" font-size="10.00"> </text>
</a>
</g>
</g>
<!-- Node2&#45;&gt;Node1 -->
<g id="edge1" class="edge"><title>Node2&#45;&gt;Node1</title>
<path fill="none" stroke="midnightblue" d="M70,-150.099C70,-141.739 70,-132.68 70,-123.672"/>
<polygon fill="none" stroke="midnightblue" points="66.5001,-150.258 70,-160.258 73.5001,-150.258 66.5001,-150.258"/>
</g>
</g>
</svg>
