<?xml version="1.0" encoding="UTF-8" standalone="no"?>
<!DOCTYPE svg PUBLIC "-//W3C//DTD SVG 1.1//EN"
 "http://www.w3.org/Graphics/SVG/1.1/DTD/svg11.dtd">
<!-- Generated by graphviz version 2.36.0 (20140111.2315)
 -->
<!-- Title: stride::TransmissionProfile Pages: 1 -->
<svg width="171pt" height="194pt"
 viewBox="0.00 0.00 171.00 194.00" xmlns="http://www.w3.org/2000/svg" xmlns:xlink="http://www.w3.org/1999/xlink">
<g id="graph0" class="graph" transform="scale(1 1) rotate(0) translate(4 190)">
<title>stride::TransmissionProfile</title>
<polygon fill="white" stroke="none" points="-4,4 -4,-190 167,-190 167,4 -4,4"/>
<!-- Node1 -->
<g id="node1" class="node"><title>Node1</title>
<polygon fill="#bfbfbf" stroke="black" points="-0.5,-0.5 -0.5,-79.5 132.5,-79.5 132.5,-0.5 -0.5,-0.5"/>
<text text-anchor="middle" x="66" y="-67.5" font-family="Helvetica,sans-Serif" font-size="10.00">stride::TransmissionProfile</text>
<polyline fill="none" stroke="black" points="-0.5,-60.5 132.5,-60.5 "/>
<text text-anchor="middle" x="66" y="-48.5" font-family="Helvetica,sans-Serif" font-size="10.00"> </text>
<polyline fill="none" stroke="black" points="-0.5,-41.5 132.5,-41.5 "/>
<text text-anchor="start" x="7.5" y="-29.5" font-family="Helvetica,sans-Serif" font-size="10.00">+ TransmissionProfile()</text>
<text text-anchor="start" x="7.5" y="-18.5" font-family="Helvetica,sans-Serif" font-size="10.00">+ GetRate()</text>
<text text-anchor="start" x="7.5" y="-7.5" font-family="Helvetica,sans-Serif" font-size="10.00">+ Initialize()</text>
</g>
<!-- Node2 -->
<g id="node2" class="node"><title>Node2</title>
<g id="a_node2"><a xlink:href="../../db/d8e/a00482.html" target="_top" xlink:title="{double\n||}">
<polygon fill="white" stroke="black" points="43.5,-128.5 43.5,-185.5 88.5,-185.5 88.5,-128.5 43.5,-128.5"/>
<text text-anchor="middle" x="66" y="-173.5" font-family="Helvetica,sans-Serif" font-size="10.00">double</text>
<polyline fill="none" stroke="black" points="43.5,-166.5 88.5,-166.5 "/>
<text text-anchor="middle" x="66" y="-154.5" font-family="Helvetica,sans-Serif" font-size="10.00"> </text>
<polyline fill="none" stroke="black" points="43.5,-147.5 88.5,-147.5 "/>
<text text-anchor="middle" x="66" y="-135.5" font-family="Helvetica,sans-Serif" font-size="10.00"> </text>
</a>
</g>
</g>
<!-- Node2&#45;&gt;Node1 -->
<g id="edge1" class="edge"><title>Node2&#45;&gt;Node1</title>
<path fill="none" stroke="#404040" d="M66,-128.455C66,-117.491 66,-104.511 66,-91.9527"/>
<polygon fill="none" stroke="#404040" points="66.0001,-91.6258 62,-85.6258 66,-79.6258 70,-85.6257 66.0001,-91.6258"/>
<text text-anchor="middle" x="114.5" y="-101.5" font-family="Helvetica,sans-Serif" font-size="10.00"> &#45;m_transmission_rate</text>
</g>
</g>
</svg>
