<?xml version="1.0" encoding="UTF-8" standalone="no"?>
<!DOCTYPE svg PUBLIC "-//W3C//DTD SVG 1.1//EN"
 "http://www.w3.org/Graphics/SVG/1.1/DTD/svg11.dtd">
<!-- Generated by graphviz version 2.36.0 (20140111.2315)
 -->
<!-- Title: Immunizer.h Pages: 1 -->
<svg width="209pt" height="84pt"
 viewBox="0.00 0.00 209.00 84.00" xmlns="http://www.w3.org/2000/svg" xmlns:xlink="http://www.w3.org/1999/xlink">
<g id="graph0" class="graph" transform="scale(1 1) rotate(0) translate(4 80)">
<title>Immunizer.h</title>
<polygon fill="white" stroke="none" points="-4,4 -4,-80 205,-80 205,4 -4,4"/>
<!-- Node1 -->
<g id="node1" class="node"><title>Node1</title>
<polygon fill="#bfbfbf" stroke="black" points="70.5,-56.5 70.5,-75.5 141.5,-75.5 141.5,-56.5 70.5,-56.5"/>
<text text-anchor="middle" x="106" y="-63.5" font-family="Helvetica,sans-Serif" font-size="10.00">Immunizer.h</text>
</g>
<!-- Node2 -->
<g id="node2" class="node"><title>Node2</title>
<g id="a_node2"><a xlink:href="../../d9/d8d/a00262.html" target="_top" xlink:title="Implementation for the DiseaseSeeder class. ">
<polygon fill="white" stroke="black" points="0,-0.5 0,-19.5 102,-19.5 102,-0.5 0,-0.5"/>
<text text-anchor="middle" x="51" y="-7.5" font-family="Helvetica,sans-Serif" font-size="10.00">DiseaseSeeder.cpp</text>
</a>
</g>
</g>
<!-- Node1&#45;&gt;Node2 -->
<g id="edge1" class="edge"><title>Node1&#45;&gt;Node2</title>
<path fill="none" stroke="midnightblue" d="M89.7062,-49.0024C79.9594,-39.4329 67.947,-27.6389 59.9131,-19.7511"/>
<polygon fill="midnightblue" stroke="midnightblue" points="87.3301,-51.5746 96.9179,-56.083 92.2343,-46.5796 87.3301,-51.5746"/>
</g>
<!-- Node3 -->
<g id="node3" class="node"><title>Node3</title>
<g id="a_node3"><a xlink:href="../../db/d53/a00321.html" target="_top" xlink:title="Implementation for the Immunizer class. ">
<polygon fill="white" stroke="black" points="120.5,-0.5 120.5,-19.5 201.5,-19.5 201.5,-0.5 120.5,-0.5"/>
<text text-anchor="middle" x="161" y="-7.5" font-family="Helvetica,sans-Serif" font-size="10.00">Immunizer.cpp</text>
</a>
</g>
</g>
<!-- Node1&#45;&gt;Node3 -->
<g id="edge2" class="edge"><title>Node1&#45;&gt;Node3</title>
<path fill="none" stroke="midnightblue" d="M122.294,-49.0024C132.041,-39.4329 144.053,-27.6389 152.087,-19.7511"/>
<polygon fill="midnightblue" stroke="midnightblue" points="119.766,-46.5796 115.082,-56.083 124.67,-51.5746 119.766,-46.5796"/>
</g>
</g>
</svg>
