<?xml version="1.0" encoding="UTF-8" standalone="no"?>
<!DOCTYPE svg PUBLIC "-//W3C//DTD SVG 1.1//EN"
 "http://www.w3.org/Graphics/SVG/1.1/DTD/svg11.dtd">
<!-- Generated by graphviz version 2.36.0 (20140111.2315)
 -->
<!-- Title: TravellerProfile.h Pages: 1 -->
<svg width="1537pt" height="196pt"
 viewBox="0.00 0.00 1537.00 196.00" xmlns="http://www.w3.org/2000/svg" xmlns:xlink="http://www.w3.org/1999/xlink">
<g id="graph0" class="graph" transform="scale(1 1) rotate(0) translate(4 192)">
<title>TravellerProfile.h</title>
<polygon fill="white" stroke="none" points="-4,4 -4,-192 1533,-192 1533,4 -4,4"/>
<!-- Node1 -->
<g id="node1" class="node"><title>Node1</title>
<polygon fill="#bfbfbf" stroke="black" points="963,-168.5 963,-187.5 1053,-187.5 1053,-168.5 963,-168.5"/>
<text text-anchor="middle" x="1008" y="-175.5" font-family="Helvetica,sans-Serif" font-size="10.00">TravellerProfile.h</text>
</g>
<!-- Node2 -->
<g id="node2" class="node"><title>Node2</title>
<g id="a_node2"><a xlink:href="../../d6/d08/a00244.html" target="_top" xlink:title="Header for the core ContactPool class. ">
<polygon fill="white" stroke="black" points="1103.5,-112.5 1103.5,-131.5 1182.5,-131.5 1182.5,-112.5 1103.5,-112.5"/>
<text text-anchor="middle" x="1143" y="-119.5" font-family="Helvetica,sans-Serif" font-size="10.00">ContactPool.h</text>
</a>
</g>
</g>
<!-- Node1&#45;&gt;Node2 -->
<g id="edge1" class="edge"><title>Node1&#45;&gt;Node2</title>
<path fill="none" stroke="midnightblue" d="M1029.39,-168.444C1051.71,-159.517 1086.9,-145.439 1112.21,-135.317"/>
<polygon fill="midnightblue" stroke="midnightblue" points="1113.72,-138.48 1121.71,-131.516 1111.12,-131.981 1113.72,-138.48"/>
</g>
<!-- Node9 -->
<g id="node9" class="node"><title>Node9</title>
<polygon fill="white" stroke="#bfbfbf" points="1061,-0.5 1061,-19.5 1105,-19.5 1105,-0.5 1061,-0.5"/>
<text text-anchor="middle" x="1083" y="-7.5" font-family="Helvetica,sans-Serif" font-size="10.00">vector</text>
</g>
<!-- Node1&#45;&gt;Node9 -->
<g id="edge28" class="edge"><title>Node1&#45;&gt;Node9</title>
<path fill="none" stroke="midnightblue" d="M988.115,-168.403C946.56,-149.26 857.226,-101.236 893,-56 912.296,-31.6002 1001.58,-19.0568 1050.58,-13.9107"/>
<polygon fill="midnightblue" stroke="midnightblue" points="1051.08,-17.3788 1060.68,-12.8956 1050.38,-10.414 1051.08,-17.3788"/>
</g>
<!-- Node14 -->
<g id="node14" class="node"><title>Node14</title>
<polygon fill="white" stroke="#bfbfbf" points="1201,-112.5 1201,-131.5 1311,-131.5 1311,-112.5 1201,-112.5"/>
<text text-anchor="middle" x="1256" y="-119.5" font-family="Helvetica,sans-Serif" font-size="10.00">trng/discrete_dist.hpp</text>
</g>
<!-- Node1&#45;&gt;Node14 -->
<g id="edge15" class="edge"><title>Node1&#45;&gt;Node14</title>
<path fill="none" stroke="midnightblue" d="M1047.3,-168.444C1090.56,-159.023 1160.17,-143.866 1206.97,-133.675"/>
<polygon fill="midnightblue" stroke="midnightblue" points="1207.86,-137.064 1216.89,-131.516 1206.37,-130.224 1207.86,-137.064"/>
</g>
<!-- Node15 -->
<g id="node15" class="node"><title>Node15</title>
<g id="a_node15"><a xlink:href="../../d9/d0a/a00390.html" target="_top" xlink:title="Interface of RNManager. ">
<polygon fill="white" stroke="black" points="428.5,-112.5 428.5,-131.5 521.5,-131.5 521.5,-112.5 428.5,-112.5"/>
<text text-anchor="middle" x="475" y="-119.5" font-family="Helvetica,sans-Serif" font-size="10.00">util/RNManager.h</text>
</a>
</g>
</g>
<!-- Node1&#45;&gt;Node15 -->
<g id="edge16" class="edge"><title>Node1&#45;&gt;Node15</title>
<path fill="none" stroke="midnightblue" d="M962.557,-172.396C865.59,-162.572 638.588,-139.574 532.078,-128.783"/>
<polygon fill="midnightblue" stroke="midnightblue" points="532.15,-125.272 521.848,-127.746 531.444,-132.237 532.15,-125.272"/>
</g>
<!-- Node3 -->
<g id="node3" class="node"><title>Node3</title>
<g id="a_node3"><a xlink:href="../../d2/dc8/a00242.html" target="_top" xlink:title="Header for the ContactLogMode class. ">
<polygon fill="white" stroke="black" points="902,-56.5 902,-75.5 1036,-75.5 1036,-56.5 902,-56.5"/>
<text text-anchor="middle" x="969" y="-63.5" font-family="Helvetica,sans-Serif" font-size="10.00">contact/ContactLogMode.h</text>
</a>
</g>
</g>
<!-- Node2&#45;&gt;Node3 -->
<g id="edge2" class="edge"><title>Node2&#45;&gt;Node3</title>
<path fill="none" stroke="midnightblue" d="M1115.43,-112.444C1085.9,-103.28 1038.88,-88.6876 1006.12,-78.5192"/>
<polygon fill="midnightblue" stroke="midnightblue" points="1007.03,-75.1378 996.442,-75.5164 1004.96,-81.8232 1007.03,-75.1378"/>
</g>
<!-- Node5 -->
<g id="node5" class="node"><title>Node5</title>
<g id="a_node5"><a xlink:href="../../de/dbc/a00249.html" target="_top" xlink:title="Definition of ContactPoolType. ">
<polygon fill="white" stroke="black" points="1376,-56.5 1376,-75.5 1498,-75.5 1498,-56.5 1376,-56.5"/>
<text text-anchor="middle" x="1437" y="-63.5" font-family="Helvetica,sans-Serif" font-size="10.00">pool/ContactPoolType.h</text>
</a>
</g>
</g>
<!-- Node2&#45;&gt;Node5 -->
<g id="edge4" class="edge"><title>Node2&#45;&gt;Node5</title>
<path fill="none" stroke="midnightblue" d="M1182.65,-113.717C1233.51,-104.375 1322.08,-88.1078 1380.12,-77.447"/>
<polygon fill="midnightblue" stroke="midnightblue" points="1381.03,-80.839 1390.23,-75.59 1379.76,-73.9542 1381.03,-80.839"/>
</g>
<!-- Node2&#45;&gt;Node9 -->
<g id="edge14" class="edge"><title>Node2&#45;&gt;Node9</title>
<path fill="none" stroke="midnightblue" d="M1182.75,-112.433C1216.6,-104.236 1261.39,-90.9386 1272,-76 1277.15,-68.753 1277.51,-62.9754 1272,-56 1252.81,-31.7104 1164,-19.1192 1115.25,-13.9371"/>
<polygon fill="midnightblue" stroke="midnightblue" points="1115.51,-10.4459 1105.21,-12.9144 1114.8,-17.4099 1115.51,-10.4459"/>
</g>
<!-- Node10 -->
<g id="node10" class="node"><title>Node10</title>
<polygon fill="white" stroke="#bfbfbf" points="1320,-56.5 1320,-75.5 1358,-75.5 1358,-56.5 1320,-56.5"/>
<text text-anchor="middle" x="1339" y="-63.5" font-family="Helvetica,sans-Serif" font-size="10.00">array</text>
</g>
<!-- Node2&#45;&gt;Node10 -->
<g id="edge10" class="edge"><title>Node2&#45;&gt;Node10</title>
<path fill="none" stroke="midnightblue" d="M1174.06,-112.444C1211.39,-102.158 1273.55,-85.032 1309.96,-75.0005"/>
<polygon fill="midnightblue" stroke="midnightblue" points="1311.23,-78.2811 1319.94,-72.2506 1309.37,-71.5326 1311.23,-78.2811"/>
</g>
<!-- Node11 -->
<g id="node11" class="node"><title>Node11</title>
<polygon fill="white" stroke="#bfbfbf" points="1054,-56.5 1054,-75.5 1106,-75.5 1106,-56.5 1054,-56.5"/>
<text text-anchor="middle" x="1080" y="-63.5" font-family="Helvetica,sans-Serif" font-size="10.00">memory</text>
</g>
<!-- Node2&#45;&gt;Node11 -->
<g id="edge11" class="edge"><title>Node2&#45;&gt;Node11</title>
<path fill="none" stroke="midnightblue" d="M1132.88,-112.324C1123.47,-104.263 1109.26,-92.0765 1097.93,-82.3695"/>
<polygon fill="midnightblue" stroke="midnightblue" points="1100.18,-79.6844 1090.31,-75.8339 1095.62,-84.9993 1100.18,-79.6844"/>
</g>
<!-- Node12 -->
<g id="node12" class="node"><title>Node12</title>
<polygon fill="white" stroke="#bfbfbf" points="1124,-56.5 1124,-75.5 1162,-75.5 1162,-56.5 1124,-56.5"/>
<text text-anchor="middle" x="1143" y="-63.5" font-family="Helvetica,sans-Serif" font-size="10.00">tuple</text>
</g>
<!-- Node2&#45;&gt;Node12 -->
<g id="edge12" class="edge"><title>Node2&#45;&gt;Node12</title>
<path fill="none" stroke="midnightblue" d="M1143,-112.083C1143,-105.006 1143,-94.8611 1143,-85.9865"/>
<polygon fill="midnightblue" stroke="midnightblue" points="1146.5,-85.751 1143,-75.7511 1139.5,-85.7511 1146.5,-85.751"/>
</g>
<!-- Node13 -->
<g id="node13" class="node"><title>Node13</title>
<polygon fill="white" stroke="#bfbfbf" points="1180.5,-56.5 1180.5,-75.5 1263.5,-75.5 1263.5,-56.5 1180.5,-56.5"/>
<text text-anchor="middle" x="1222" y="-63.5" font-family="Helvetica,sans-Serif" font-size="10.00">unordered_map</text>
</g>
<!-- Node2&#45;&gt;Node13 -->
<g id="edge13" class="edge"><title>Node2&#45;&gt;Node13</title>
<path fill="none" stroke="midnightblue" d="M1155.69,-112.324C1167.9,-103.979 1186.58,-91.2122 1201,-81.3524"/>
<polygon fill="midnightblue" stroke="midnightblue" points="1203.06,-84.1871 1209.34,-75.6545 1199.11,-78.4082 1203.06,-84.1871"/>
</g>
<!-- Node4 -->
<g id="node4" class="node"><title>Node4</title>
<polygon fill="white" stroke="#bfbfbf" points="523.5,-0.5 523.5,-19.5 564.5,-19.5 564.5,-0.5 523.5,-0.5"/>
<text text-anchor="middle" x="544" y="-7.5" font-family="Helvetica,sans-Serif" font-size="10.00">string</text>
</g>
<!-- Node3&#45;&gt;Node4 -->
<g id="edge3" class="edge"><title>Node3&#45;&gt;Node4</title>
<path fill="none" stroke="midnightblue" d="M901.657,-56.4435C808.122,-44.5591 642.714,-23.5425 574.609,-14.8892"/>
<polygon fill="midnightblue" stroke="midnightblue" points="574.902,-11.3983 564.54,-13.6098 574.019,-18.3424 574.902,-11.3983"/>
</g>
<!-- Node5&#45;&gt;Node4 -->
<g id="edge6" class="edge"><title>Node5&#45;&gt;Node4</title>
<path fill="none" stroke="midnightblue" d="M1375.95,-56.8827C1372.92,-56.5648 1369.93,-56.268 1367,-56 1058.74,-27.7942 683.795,-15.125 574.969,-11.8753"/>
<polygon fill="midnightblue" stroke="midnightblue" points="574.811,-8.36918 564.712,-11.5735 574.605,-15.3662 574.811,-8.36918"/>
</g>
<!-- Node6 -->
<g id="node6" class="node"><title>Node6</title>
<polygon fill="white" stroke="#bfbfbf" points="1342.5,-0.5 1342.5,-19.5 1391.5,-19.5 1391.5,-0.5 1342.5,-0.5"/>
<text text-anchor="middle" x="1367" y="-7.5" font-family="Helvetica,sans-Serif" font-size="10.00">cstddef</text>
</g>
<!-- Node5&#45;&gt;Node6 -->
<g id="edge5" class="edge"><title>Node5&#45;&gt;Node6</title>
<path fill="none" stroke="midnightblue" d="M1425.75,-56.324C1415.2,-48.1849 1399.2,-35.8395 1386.56,-26.0874"/>
<polygon fill="midnightblue" stroke="midnightblue" points="1388.51,-23.1707 1378.45,-19.8339 1384.23,-28.7132 1388.51,-23.1707"/>
</g>
<!-- Node7 -->
<g id="node7" class="node"><title>Node7</title>
<polygon fill="white" stroke="#bfbfbf" points="1410,-0.5 1410,-19.5 1464,-19.5 1464,-0.5 1410,-0.5"/>
<text text-anchor="middle" x="1437" y="-7.5" font-family="Helvetica,sans-Serif" font-size="10.00">iostream</text>
</g>
<!-- Node5&#45;&gt;Node7 -->
<g id="edge7" class="edge"><title>Node5&#45;&gt;Node7</title>
<path fill="none" stroke="midnightblue" d="M1437,-56.083C1437,-49.0059 1437,-38.8611 1437,-29.9865"/>
<polygon fill="midnightblue" stroke="midnightblue" points="1440.5,-29.751 1437,-19.7511 1433.5,-29.7511 1440.5,-29.751"/>
</g>
<!-- Node8 -->
<g id="node8" class="node"><title>Node8</title>
<polygon fill="white" stroke="#bfbfbf" points="1482.5,-0.5 1482.5,-19.5 1529.5,-19.5 1529.5,-0.5 1482.5,-0.5"/>
<text text-anchor="middle" x="1506" y="-7.5" font-family="Helvetica,sans-Serif" font-size="10.00">iterator</text>
</g>
<!-- Node5&#45;&gt;Node8 -->
<g id="edge8" class="edge"><title>Node5&#45;&gt;Node8</title>
<path fill="none" stroke="midnightblue" d="M1448.09,-56.324C1458.49,-48.1849 1474.26,-35.8395 1486.72,-26.0874"/>
<polygon fill="midnightblue" stroke="midnightblue" points="1488.99,-28.7533 1494.71,-19.8339 1484.68,-23.2407 1488.99,-28.7533"/>
</g>
<!-- Node5&#45;&gt;Node9 -->
<g id="edge9" class="edge"><title>Node5&#45;&gt;Node9</title>
<path fill="none" stroke="midnightblue" d="M1380.91,-56.4435C1305.87,-44.9972 1175.3,-25.0795 1115.09,-15.8954"/>
<polygon fill="midnightblue" stroke="midnightblue" points="1115.45,-12.4094 1105.04,-14.3614 1114.39,-19.3294 1115.45,-12.4094"/>
</g>
<!-- Node15&#45;&gt;Node4 -->
<g id="edge26" class="edge"><title>Node15&#45;&gt;Node4</title>
<path fill="none" stroke="midnightblue" d="M428.174,-121.951C344.831,-122.53 176.012,-118.299 139,-76 133.147,-69.3104 133.072,-62.6234 139,-56 163.908,-28.1714 423.289,-15.6343 513.377,-12.0966"/>
<polygon fill="midnightblue" stroke="midnightblue" points="513.638,-15.5892 523.497,-11.7093 513.37,-8.59435 513.638,-15.5892"/>
</g>
<!-- Node15&#45;&gt;Node9 -->
<g id="edge27" class="edge"><title>Node15&#45;&gt;Node9</title>
<path fill="none" stroke="midnightblue" d="M521.66,-119.193C588.17,-115.646 713.529,-105.346 816,-76 836.651,-70.086 839.562,-62.6117 860,-56 926.134,-34.6058 1006.73,-21.3599 1050.65,-15.1699"/>
<polygon fill="midnightblue" stroke="midnightblue" points="1051.3,-18.6126 1060.73,-13.7821 1050.35,-11.6779 1051.3,-18.6126"/>
</g>
<!-- Node16 -->
<g id="node16" class="node"><title>Node16</title>
<g id="a_node16"><a xlink:href="../../d9/dc1/a00388.html" target="_top" xlink:title="Interface of Random Engine Type. ">
<polygon fill="white" stroke="black" points="0,-56.5 0,-75.5 92,-75.5 92,-56.5 0,-56.5"/>
<text text-anchor="middle" x="46" y="-63.5" font-family="Helvetica,sans-Serif" font-size="10.00">RNEngineType.h</text>
</a>
</g>
</g>
<!-- Node15&#45;&gt;Node16 -->
<g id="edge17" class="edge"><title>Node15&#45;&gt;Node16</title>
<path fill="none" stroke="midnightblue" d="M428.347,-115.728C358.281,-107.715 221.747,-91.7358 106,-76 104.738,-75.8284 103.461,-75.6529 102.174,-75.4743"/>
<polygon fill="midnightblue" stroke="midnightblue" points="102.562,-71.9944 92.1695,-74.0564 101.579,-78.9252 102.562,-71.9944"/>
</g>
<!-- Node17 -->
<g id="node17" class="node"><title>Node17</title>
<polygon fill="white" stroke="#bfbfbf" points="610,-56.5 610,-75.5 688,-75.5 688,-56.5 610,-56.5"/>
<text text-anchor="middle" x="649" y="-63.5" font-family="Helvetica,sans-Serif" font-size="10.00">trng/lcg64.hpp</text>
</g>
<!-- Node15&#45;&gt;Node17 -->
<g id="edge19" class="edge"><title>Node15&#45;&gt;Node17</title>
<path fill="none" stroke="midnightblue" d="M502.571,-112.444C532.097,-103.28 579.118,-88.6876 611.883,-78.5192"/>
<polygon fill="midnightblue" stroke="midnightblue" points="613.045,-81.8232 621.558,-75.5164 610.97,-75.1378 613.045,-81.8232"/>
</g>
<!-- Node18 -->
<g id="node18" class="node"><title>Node18</title>
<polygon fill="white" stroke="#bfbfbf" points="706,-56.5 706,-75.5 808,-75.5 808,-56.5 706,-56.5"/>
<text text-anchor="middle" x="757" y="-63.5" font-family="Helvetica,sans-Serif" font-size="10.00">trng/lcg64_shift.hpp</text>
</g>
<!-- Node15&#45;&gt;Node18 -->
<g id="edge20" class="edge"><title>Node15&#45;&gt;Node18</title>
<path fill="none" stroke="midnightblue" d="M519.684,-112.444C569.29,-102.944 649.365,-87.611 702.585,-77.4198"/>
<polygon fill="midnightblue" stroke="midnightblue" points="703.362,-80.8348 712.525,-75.5164 702.045,-73.9597 703.362,-80.8348"/>
</g>
<!-- Node19 -->
<g id="node19" class="node"><title>Node19</title>
<polygon fill="white" stroke="#bfbfbf" points="148.5,-56.5 148.5,-75.5 225.5,-75.5 225.5,-56.5 148.5,-56.5"/>
<text text-anchor="middle" x="187" y="-63.5" font-family="Helvetica,sans-Serif" font-size="10.00">trng/mrg2.hpp</text>
</g>
<!-- Node15&#45;&gt;Node19 -->
<g id="edge21" class="edge"><title>Node15&#45;&gt;Node19</title>
<path fill="none" stroke="midnightblue" d="M428.787,-112.436C382.444,-103.834 308.745,-90.1141 235.984,-76.3693"/>
<polygon fill="midnightblue" stroke="midnightblue" points="236.202,-72.8487 225.726,-74.4302 234.902,-79.7269 236.202,-72.8487"/>
</g>
<!-- Node20 -->
<g id="node20" class="node"><title>Node20</title>
<polygon fill="white" stroke="#bfbfbf" points="243.5,-56.5 243.5,-75.5 320.5,-75.5 320.5,-56.5 243.5,-56.5"/>
<text text-anchor="middle" x="282" y="-63.5" font-family="Helvetica,sans-Serif" font-size="10.00">trng/mrg3.hpp</text>
</g>
<!-- Node15&#45;&gt;Node20 -->
<g id="edge22" class="edge"><title>Node15&#45;&gt;Node20</title>
<path fill="none" stroke="midnightblue" d="M444.419,-112.444C411.385,-103.201 358.612,-88.4356 322.234,-78.2572"/>
<polygon fill="midnightblue" stroke="midnightblue" points="323.012,-74.8404 312.438,-75.5164 321.125,-81.5815 323.012,-74.8404"/>
</g>
<!-- Node21 -->
<g id="node21" class="node"><title>Node21</title>
<polygon fill="white" stroke="#bfbfbf" points="338.5,-56.5 338.5,-75.5 417.5,-75.5 417.5,-56.5 338.5,-56.5"/>
<text text-anchor="middle" x="378" y="-63.5" font-family="Helvetica,sans-Serif" font-size="10.00">trng/yarn2.hpp</text>
</g>
<!-- Node15&#45;&gt;Node21 -->
<g id="edge23" class="edge"><title>Node15&#45;&gt;Node21</title>
<path fill="none" stroke="midnightblue" d="M459.415,-112.324C444.001,-103.743 420.188,-90.486 402.29,-80.5224"/>
<polygon fill="midnightblue" stroke="midnightblue" points="403.986,-77.4606 393.546,-75.6545 400.581,-83.5767 403.986,-77.4606"/>
</g>
<!-- Node22 -->
<g id="node22" class="node"><title>Node22</title>
<polygon fill="white" stroke="#bfbfbf" points="435.5,-56.5 435.5,-75.5 514.5,-75.5 514.5,-56.5 435.5,-56.5"/>
<text text-anchor="middle" x="475" y="-63.5" font-family="Helvetica,sans-Serif" font-size="10.00">trng/yarn3.hpp</text>
</g>
<!-- Node15&#45;&gt;Node22 -->
<g id="edge24" class="edge"><title>Node15&#45;&gt;Node22</title>
<path fill="none" stroke="midnightblue" d="M475,-112.083C475,-105.006 475,-94.8611 475,-85.9865"/>
<polygon fill="midnightblue" stroke="midnightblue" points="478.5,-85.751 475,-75.7511 471.5,-85.7511 478.5,-85.751"/>
</g>
<!-- Node23 -->
<g id="node23" class="node"><title>Node23</title>
<polygon fill="white" stroke="#bfbfbf" points="532.5,-56.5 532.5,-75.5 591.5,-75.5 591.5,-56.5 532.5,-56.5"/>
<text text-anchor="middle" x="562" y="-63.5" font-family="Helvetica,sans-Serif" font-size="10.00">functional</text>
</g>
<!-- Node15&#45;&gt;Node23 -->
<g id="edge25" class="edge"><title>Node15&#45;&gt;Node23</title>
<path fill="none" stroke="midnightblue" d="M488.978,-112.324C502.55,-103.9 523.38,-90.9709 539.325,-81.0741"/>
<polygon fill="midnightblue" stroke="midnightblue" points="541.406,-83.9019 548.057,-75.6545 537.714,-77.9544 541.406,-83.9019"/>
</g>
<!-- Node16&#45;&gt;Node4 -->
<g id="edge18" class="edge"><title>Node16&#45;&gt;Node4</title>
<path fill="none" stroke="midnightblue" d="M92.1579,-57.8551C96.8296,-57.1983 101.506,-56.5675 106,-56 258.568,-36.7305 441.829,-19.9573 513.329,-13.6565"/>
<polygon fill="midnightblue" stroke="midnightblue" points="513.781,-17.1304 523.437,-12.7701 513.17,-10.1571 513.781,-17.1304"/>
</g>
</g>
</svg>
