<?xml version="1.0" encoding="UTF-8" standalone="no"?>
<!DOCTYPE svg PUBLIC "-//W3C//DTD SVG 1.1//EN"
 "http://www.w3.org/Graphics/SVG/1.1/DTD/svg11.dtd">
<!-- Generated by graphviz version 2.36.0 (20140111.2315)
 -->
<!-- Title: stride::util::FileSys::GetConfigDir Pages: 1 -->
<svg width="318pt" height="87pt"
 viewBox="0.00 0.00 318.00 87.00" xmlns="http://www.w3.org/2000/svg" xmlns:xlink="http://www.w3.org/1999/xlink">
<g id="graph0" class="graph" transform="scale(1 1) rotate(0) translate(4 83)">
<title>stride::util::FileSys::GetConfigDir</title>
<polygon fill="white" stroke="none" points="-4,4 -4,-83 314,-83 314,4 -4,4"/>
<!-- Node1 -->
<g id="node1" class="node"><title>Node1</title>
<polygon fill="#bfbfbf" stroke="black" points="0,-24 0,-54 98,-54 98,-24 0,-24"/>
<text text-anchor="start" x="8" y="-42" font-family="Helvetica,sans-Serif" font-size="10.00">stride::util::FileSys</text>
<text text-anchor="middle" x="49" y="-31" font-family="Helvetica,sans-Serif" font-size="10.00">::GetConfigDir</text>
</g>
<!-- Node2 -->
<g id="node2" class="node"><title>Node2</title>
<g id="a_node2"><a xlink:href="../../d4/dee/a00008.html#a840ab2341a3e5eca99f3507e9b79da18" target="_top" xlink:title="Setup, creates a ptree based on the filenames in configFiles. ">
<polygon fill="white" stroke="black" points="134,-49 134,-79 310,-79 310,-49 134,-49"/>
<text text-anchor="start" x="142" y="-67" font-family="Helvetica,sans-Serif" font-size="10.00">calibration::ConfigFileCalibration</text>
<text text-anchor="middle" x="222" y="-56" font-family="Helvetica,sans-Serif" font-size="10.00">Runner::ConfigFileCalibrationRunner</text>
</a>
</g>
</g>
<!-- Node1&#45;&gt;Node2 -->
<g id="edge1" class="edge"><title>Node1&#45;&gt;Node2</title>
<path fill="none" stroke="midnightblue" d="M108.009,-47.4809C116.321,-48.696 125.02,-49.9679 133.744,-51.2432"/>
<polygon fill="midnightblue" stroke="midnightblue" points="108.489,-44.0139 98.0881,-46.0304 107.477,-50.9403 108.489,-44.0139"/>
</g>
<!-- Node3 -->
<g id="node3" class="node"><title>Node3</title>
<g id="a_node3"><a xlink:href="../../d9/d77/a00095.html#ad3e11456e1c2d064aa7307045761ca04" target="_top" xlink:title="Logs info on setup for cli environment to stride_logger. ">
<polygon fill="white" stroke="black" points="166.5,-0 166.5,-30 277.5,-30 277.5,-0 166.5,-0"/>
<text text-anchor="start" x="174.5" y="-18" font-family="Helvetica,sans-Serif" font-size="10.00">stride::BaseController</text>
<text text-anchor="middle" x="222" y="-7" font-family="Helvetica,sans-Serif" font-size="10.00">::LogSetup</text>
</a>
</g>
</g>
<!-- Node1&#45;&gt;Node3 -->
<g id="edge2" class="edge"><title>Node1&#45;&gt;Node3</title>
<path fill="none" stroke="midnightblue" d="M108.037,-30.8544C126.894,-28.2078 147.745,-25.2814 166.346,-22.6707"/>
<polygon fill="midnightblue" stroke="midnightblue" points="107.505,-27.3948 98.0881,-32.2508 108.478,-34.3269 107.505,-27.3948"/>
</g>
</g>
</svg>
