<?xml version="1.0" encoding="UTF-8" standalone="no"?>
<!DOCTYPE svg PUBLIC "-//W3C//DTD SVG 1.1//EN"
 "http://www.w3.org/Graphics/SVG/1.1/DTD/svg11.dtd">
<!-- Generated by graphviz version 2.36.0 (20140111.2315)
 -->
<!-- Title: stride::util::FileSys::Get Pages: 1 -->
<svg width="824pt" height="556pt"
 viewBox="0.00 0.00 824.00 556.00" xmlns="http://www.w3.org/2000/svg" xmlns:xlink="http://www.w3.org/1999/xlink">
<g id="graph0" class="graph" transform="scale(1 1) rotate(0) translate(4 552)">
<title>stride::util::FileSys::Get</title>
<polygon fill="white" stroke="none" points="-4,4 -4,-552 820,-552 820,4 -4,4"/>
<!-- Node1 -->
<g id="node1" class="node"><title>Node1</title>
<polygon fill="#bfbfbf" stroke="black" points="0,-376.5 0,-395.5 120,-395.5 120,-376.5 0,-376.5"/>
<text text-anchor="middle" x="60" y="-383.5" font-family="Helvetica,sans-Serif" font-size="10.00">stride::util::FileSys::Get</text>
</g>
<!-- Node2 -->
<g id="node2" class="node"><title>Node2</title>
<g id="a_node2"><a xlink:href="../../d1/db7/a00157.html#a0f8044e9840a5f9184b330f039c6d270" target="_top" xlink:title="Return bin dir (only relevant when use_install_dirs mode is active) ">
<polygon fill="white" stroke="black" points="156,-518 156,-548 254,-548 254,-518 156,-518"/>
<text text-anchor="start" x="164" y="-536" font-family="Helvetica,sans-Serif" font-size="10.00">stride::util::FileSys</text>
<text text-anchor="middle" x="205" y="-525" font-family="Helvetica,sans-Serif" font-size="10.00">::GetBinDir</text>
</a>
</g>
</g>
<!-- Node1&#45;&gt;Node2 -->
<g id="edge1" class="edge"><title>Node1&#45;&gt;Node2</title>
<path fill="none" stroke="midnightblue" d="M71.7982,-404.457C87.6193,-430.256 119.242,-477.372 156,-508 160.403,-511.669 165.433,-515.009 170.542,-517.968"/>
<polygon fill="midnightblue" stroke="midnightblue" points="74.6816,-402.46 66.5306,-395.691 68.6816,-406.065 74.6816,-402.46"/>
</g>
<!-- Node3 -->
<g id="node3" class="node"><title>Node3</title>
<g id="a_node3"><a xlink:href="../../d1/db7/a00157.html#aacc5928eeee467f5e0c21c7ec5aaaf5a" target="_top" xlink:title="Return config dir (only relevant when use_install_dirs mode is active) ">
<polygon fill="white" stroke="black" points="156,-469 156,-499 254,-499 254,-469 156,-469"/>
<text text-anchor="start" x="164" y="-487" font-family="Helvetica,sans-Serif" font-size="10.00">stride::util::FileSys</text>
<text text-anchor="middle" x="205" y="-476" font-family="Helvetica,sans-Serif" font-size="10.00">::GetConfigDir</text>
</a>
</g>
</g>
<!-- Node1&#45;&gt;Node3 -->
<g id="edge2" class="edge"><title>Node1&#45;&gt;Node3</title>
<path fill="none" stroke="midnightblue" d="M79.9855,-402.185C98.6622,-417.715 128.321,-441.349 156,-459 161.387,-462.435 167.299,-465.81 173.077,-468.913"/>
<polygon fill="midnightblue" stroke="midnightblue" points="82.1334,-399.418 72.2237,-395.67 77.6331,-404.78 82.1334,-399.418"/>
</g>
<!-- Node6 -->
<g id="node6" class="node"><title>Node6</title>
<g id="a_node6"><a xlink:href="../../d1/db7/a00157.html#a39efd4d2a1344ebc5d26759693d3d546" target="_top" xlink:title="Get path to the current directory. ">
<polygon fill="white" stroke="black" points="156,-420 156,-450 254,-450 254,-420 156,-420"/>
<text text-anchor="start" x="164" y="-438" font-family="Helvetica,sans-Serif" font-size="10.00">stride::util::FileSys</text>
<text text-anchor="middle" x="205" y="-427" font-family="Helvetica,sans-Serif" font-size="10.00">::GetCurrentDir</text>
</a>
</g>
</g>
<!-- Node1&#45;&gt;Node6 -->
<g id="edge5" class="edge"><title>Node1&#45;&gt;Node6</title>
<path fill="none" stroke="midnightblue" d="M98.3823,-398.809C117.295,-405.29 140.366,-413.195 160.117,-419.963"/>
<polygon fill="midnightblue" stroke="midnightblue" points="99.5059,-395.495 88.9113,-395.564 97.2368,-402.117 99.5059,-395.495"/>
</g>
<!-- Node7 -->
<g id="node7" class="node"><title>Node7</title>
<g id="a_node7"><a xlink:href="../../d1/db7/a00157.html#aafd39e698c442fd0917915d085c9aa1a" target="_top" xlink:title="/// Return data dir (only relevant when use_install_dirs mode is active) ">
<polygon fill="white" stroke="black" points="156,-259 156,-289 254,-289 254,-259 156,-259"/>
<text text-anchor="start" x="164" y="-277" font-family="Helvetica,sans-Serif" font-size="10.00">stride::util::FileSys</text>
<text text-anchor="middle" x="205" y="-266" font-family="Helvetica,sans-Serif" font-size="10.00">::GetDataDir</text>
</a>
</g>
</g>
<!-- Node1&#45;&gt;Node7 -->
<g id="edge7" class="edge"><title>Node1&#45;&gt;Node7</title>
<path fill="none" stroke="midnightblue" d="M81.3305,-370.077C108.867,-348.51 157.672,-310.285 184.677,-289.134"/>
<polygon fill="midnightblue" stroke="midnightblue" points="78.9067,-367.529 73.1921,-376.451 83.223,-373.04 78.9067,-367.529"/>
</g>
<!-- Node23 -->
<g id="node23" class="node"><title>Node23</title>
<g id="a_node23"><a xlink:href="../../d1/db7/a00157.html#ad4bcf3a836909fad40dbff80ae4157c8" target="_top" xlink:title="Get path of the executable. ">
<polygon fill="white" stroke="black" points="156,-371 156,-401 254,-401 254,-371 156,-371"/>
<text text-anchor="start" x="164" y="-389" font-family="Helvetica,sans-Serif" font-size="10.00">stride::util::FileSys</text>
<text text-anchor="middle" x="205" y="-378" font-family="Helvetica,sans-Serif" font-size="10.00">::GetExecPath</text>
</a>
</g>
</g>
<!-- Node1&#45;&gt;Node23 -->
<g id="edge28" class="edge"><title>Node1&#45;&gt;Node23</title>
<path fill="none" stroke="midnightblue" d="M130.451,-386C139.052,-386 147.693,-386 155.875,-386"/>
<polygon fill="midnightblue" stroke="midnightblue" points="130.403,-382.5 120.403,-386 130.403,-389.5 130.403,-382.5"/>
</g>
<!-- Node24 -->
<g id="node24" class="node"><title>Node24</title>
<g id="a_node24"><a xlink:href="../../d1/db7/a00157.html#a01b3eb32bba2b55a62086271185f8832" target="_top" xlink:title="Return install root dir (only relevant when use_install_dirs mode is active) ">
<polygon fill="white" stroke="black" points="156,-322 156,-352 254,-352 254,-322 156,-322"/>
<text text-anchor="start" x="164" y="-340" font-family="Helvetica,sans-Serif" font-size="10.00">stride::util::FileSys</text>
<text text-anchor="middle" x="205" y="-329" font-family="Helvetica,sans-Serif" font-size="10.00">::GetRootDir</text>
</a>
</g>
</g>
<!-- Node1&#45;&gt;Node24 -->
<g id="edge30" class="edge"><title>Node1&#45;&gt;Node24</title>
<path fill="none" stroke="midnightblue" d="M98.3823,-373.191C117.295,-366.71 140.366,-358.805 160.117,-352.037"/>
<polygon fill="midnightblue" stroke="midnightblue" points="97.2368,-369.883 88.9113,-376.436 99.5059,-376.505 97.2368,-369.883"/>
</g>
<!-- Node25 -->
<g id="node25" class="node"><title>Node25</title>
<g id="a_node25"><a xlink:href="../../d1/db7/a00157.html#a59f5c71c35d9170db7fc3d37ca8a36ba" target="_top" xlink:title="Return tests dir (only relevant when use_install_dirs mode is active) ">
<polygon fill="white" stroke="black" points="156,-210 156,-240 254,-240 254,-210 156,-210"/>
<text text-anchor="start" x="164" y="-228" font-family="Helvetica,sans-Serif" font-size="10.00">stride::util::FileSys</text>
<text text-anchor="middle" x="205" y="-217" font-family="Helvetica,sans-Serif" font-size="10.00">::GetTestsDir</text>
</a>
</g>
</g>
<!-- Node1&#45;&gt;Node25 -->
<g id="edge32" class="edge"><title>Node1&#45;&gt;Node25</title>
<path fill="none" stroke="midnightblue" d="M70.106,-367.197C84.7714,-338.537 116.065,-283.609 156,-249 159.802,-245.705 164.136,-242.732 168.608,-240.092"/>
<polygon fill="midnightblue" stroke="midnightblue" points="66.8061,-365.971 65.4701,-376.481 73.0688,-369.098 66.8061,-365.971"/>
</g>
<!-- Node4 -->
<g id="node4" class="node"><title>Node4</title>
<g id="a_node4"><a xlink:href="../../d4/dee/a00008.html#a840ab2341a3e5eca99f3507e9b79da18" target="_top" xlink:title="Setup, creates a ptree based on the filenames in configFiles. ">
<polygon fill="white" stroke="black" points="290,-469 290,-499 466,-499 466,-469 290,-469"/>
<text text-anchor="start" x="298" y="-487" font-family="Helvetica,sans-Serif" font-size="10.00">calibration::ConfigFileCalibration</text>
<text text-anchor="middle" x="378" y="-476" font-family="Helvetica,sans-Serif" font-size="10.00">Runner::ConfigFileCalibrationRunner</text>
</a>
</g>
</g>
<!-- Node3&#45;&gt;Node4 -->
<g id="edge3" class="edge"><title>Node3&#45;&gt;Node4</title>
<path fill="none" stroke="midnightblue" d="M264.284,-484C272.512,-484 281.116,-484 289.744,-484"/>
<polygon fill="midnightblue" stroke="midnightblue" points="264.088,-480.5 254.088,-484 264.088,-487.5 264.088,-480.5"/>
</g>
<!-- Node5 -->
<g id="node5" class="node"><title>Node5</title>
<g id="a_node5"><a xlink:href="../../d9/d77/a00095.html#ad3e11456e1c2d064aa7307045761ca04" target="_top" xlink:title="Logs info on setup for cli environment to stride_logger. ">
<polygon fill="white" stroke="black" points="322.5,-420 322.5,-450 433.5,-450 433.5,-420 322.5,-420"/>
<text text-anchor="start" x="330.5" y="-438" font-family="Helvetica,sans-Serif" font-size="10.00">stride::BaseController</text>
<text text-anchor="middle" x="378" y="-427" font-family="Helvetica,sans-Serif" font-size="10.00">::LogSetup</text>
</a>
</g>
</g>
<!-- Node3&#45;&gt;Node5 -->
<g id="edge4" class="edge"><title>Node3&#45;&gt;Node5</title>
<path fill="none" stroke="midnightblue" d="M264.067,-466.553C272.751,-463.991 281.605,-461.407 290,-459 300.392,-456.02 311.503,-452.903 322.19,-449.94"/>
<polygon fill="midnightblue" stroke="midnightblue" points="262.963,-463.229 254.368,-469.424 264.95,-469.941 262.963,-463.229"/>
</g>
<!-- Node6&#45;&gt;Node5 -->
<g id="edge6" class="edge"><title>Node6&#45;&gt;Node5</title>
<path fill="none" stroke="midnightblue" d="M264.298,-435C283.086,-435 303.831,-435 322.346,-435"/>
<polygon fill="midnightblue" stroke="midnightblue" points="264.088,-431.5 254.088,-435 264.088,-438.5 264.088,-431.5"/>
</g>
<!-- Node7&#45;&gt;Node5 -->
<g id="edge22" class="edge"><title>Node7&#45;&gt;Node5</title>
<path fill="none" stroke="midnightblue" d="M238.174,-295.52C243.976,-300.437 249.577,-306.001 254,-312 280.3,-347.676 258.081,-374.249 290,-405 298.975,-413.646 310.557,-419.809 322.325,-424.198"/>
<polygon fill="midnightblue" stroke="midnightblue" points="240.243,-292.694 230.228,-289.236 235.9,-298.184 240.243,-292.694"/>
</g>
<!-- Node8 -->
<g id="node8" class="node"><title>Node8</title>
<g id="a_node8"><a xlink:href="../../dd/db2/a00151.html#a2a8f6a2064d263cbcc443589a233547c" target="_top" xlink:title="Call the provided updateMethod with the traveller information found in the configParam and the given ...">
<polygon fill="white" stroke="black" points="300,-294 300,-324 456,-324 456,-294 300,-294"/>
<text text-anchor="start" x="308" y="-312" font-family="Helvetica,sans-Serif" font-size="10.00">stride::TravellerProfile</text>
<text text-anchor="middle" x="378" y="-301" font-family="Helvetica,sans-Serif" font-size="10.00">Builder::AddTravellerInformation</text>
</a>
</g>
</g>
<!-- Node7&#45;&gt;Node8 -->
<g id="edge8" class="edge"><title>Node7&#45;&gt;Node8</title>
<path fill="none" stroke="midnightblue" d="M264.019,-285.875C276.673,-288.465 290.226,-291.239 303.394,-293.934"/>
<polygon fill="midnightblue" stroke="midnightblue" points="264.587,-282.419 254.088,-283.843 263.183,-289.277 264.587,-282.419"/>
</g>
<!-- Node11 -->
<g id="node11" class="node"><title>Node11</title>
<g id="a_node11"><a xlink:href="../../df/d03/a00062.html#a76eb18fa73415d684668d13833ba13c1" target="_top" xlink:title="Create a CitiesReader based on the filename of the input file, relative to the data directory...">
<polygon fill="white" stroke="black" points="311,-245 311,-275 445,-275 445,-245 311,-245"/>
<text text-anchor="start" x="319" y="-263" font-family="Helvetica,sans-Serif" font-size="10.00">gengeopop::ReaderFactory</text>
<text text-anchor="middle" x="378" y="-252" font-family="Helvetica,sans-Serif" font-size="10.00">::CreateCitiesReader</text>
</a>
</g>
</g>
<!-- Node7&#45;&gt;Node11 -->
<g id="edge11" class="edge"><title>Node7&#45;&gt;Node11</title>
<path fill="none" stroke="midnightblue" d="M264.23,-269.233C279.205,-268.007 295.427,-266.679 310.774,-265.422"/>
<polygon fill="midnightblue" stroke="midnightblue" points="263.769,-265.759 254.088,-270.063 264.34,-272.735 263.769,-265.759"/>
</g>
<!-- Node12 -->
<g id="node12" class="node"><title>Node12</title>
<g id="a_node12"><a xlink:href="../../df/d03/a00062.html#aafc60dfb9e6337c0c57ec46cd9e02d71" target="_top" xlink:title="Create a CommutesReader based on an absolute Boost Filesystem Path pointing to the input file...">
<polygon fill="white" stroke="black" points="311,-196 311,-226 445,-226 445,-196 311,-196"/>
<text text-anchor="start" x="319" y="-214" font-family="Helvetica,sans-Serif" font-size="10.00">gengeopop::ReaderFactory</text>
<text text-anchor="middle" x="378" y="-203" font-family="Helvetica,sans-Serif" font-size="10.00">::CreateCommutesReader</text>
</a>
</g>
</g>
<!-- Node7&#45;&gt;Node12 -->
<g id="edge12" class="edge"><title>Node7&#45;&gt;Node12</title>
<path fill="none" stroke="midnightblue" d="M244.774,-254.365C258.808,-247.697 274.916,-240.539 290,-235 298.678,-231.813 307.977,-228.821 317.15,-226.102"/>
<polygon fill="midnightblue" stroke="midnightblue" points="242.911,-251.378 235.427,-258.878 245.954,-257.682 242.911,-251.378"/>
</g>
<!-- Node16 -->
<g id="node16" class="node"><title>Node16</title>
<g id="a_node16"><a xlink:href="../../df/d03/a00062.html#afd1bf47bd92f5bf43cd032da257454b5" target="_top" xlink:title="Create a HouseholdReader based on the filename of the input file, relative to the data directory...">
<polygon fill="white" stroke="black" points="311,-147 311,-177 445,-177 445,-147 311,-147"/>
<text text-anchor="start" x="319" y="-165" font-family="Helvetica,sans-Serif" font-size="10.00">gengeopop::ReaderFactory</text>
<text text-anchor="middle" x="378" y="-154" font-family="Helvetica,sans-Serif" font-size="10.00">::CreateHouseholdReader</text>
</a>
</g>
</g>
<!-- Node7&#45;&gt;Node16 -->
<g id="edge16" class="edge"><title>Node7&#45;&gt;Node16</title>
<path fill="none" stroke="midnightblue" d="M249.489,-252.935C251.066,-251.679 252.578,-250.368 254,-249 277.243,-226.645 264.532,-205.783 290,-186 296.187,-181.194 303.276,-177.35 310.679,-174.275"/>
<polygon fill="midnightblue" stroke="midnightblue" points="247.365,-250.149 241.17,-258.744 251.373,-255.888 247.365,-250.149"/>
</g>
<!-- Node17 -->
<g id="node17" class="node"><title>Node17</title>
<g id="a_node17"><a xlink:href="../../df/d03/a00062.html#ab65132d784c62a45167c2dd8e7b097d8" target="_top" xlink:title="Create a SubMunicipalitiesReader based on the filename of the input file, relative to the data direct...">
<polygon fill="white" stroke="black" points="298,-98 298,-128 458,-128 458,-98 298,-98"/>
<text text-anchor="start" x="306" y="-116" font-family="Helvetica,sans-Serif" font-size="10.00">gengeopop::ReaderFactory</text>
<text text-anchor="middle" x="378" y="-105" font-family="Helvetica,sans-Serif" font-size="10.00">::CreateSubMunicipalitiesReader</text>
</a>
</g>
</g>
<!-- Node7&#45;&gt;Node17 -->
<g id="edge18" class="edge"><title>Node7&#45;&gt;Node17</title>
<path fill="none" stroke="midnightblue" d="M250.854,-252.36C251.962,-251.287 253.015,-250.167 254,-249 287.716,-209.037 252.263,-173.19 290,-137 293.506,-133.638 297.438,-130.738 301.642,-128.238"/>
<polygon fill="midnightblue" stroke="midnightblue" points="248.459,-249.794 242.861,-258.789 252.847,-255.249 248.459,-249.794"/>
</g>
<!-- Node18 -->
<g id="node18" class="node"><title>Node18</title>
<g id="a_node18"><a xlink:href="../../d1/d44/a00098.html#acfc5f6f917fe7d81ead2fecdeb85eb70" target="_top" xlink:title="stride::Calendar::Initialize\lHolidays">
<polygon fill="white" stroke="black" points="314,-49 314,-79 442,-79 442,-49 314,-49"/>
<text text-anchor="start" x="322" y="-67" font-family="Helvetica,sans-Serif" font-size="10.00">stride::Calendar::Initialize</text>
<text text-anchor="middle" x="378" y="-56" font-family="Helvetica,sans-Serif" font-size="10.00">Holidays</text>
</a>
</g>
</g>
<!-- Node7&#45;&gt;Node18 -->
<g id="edge20" class="edge"><title>Node7&#45;&gt;Node18</title>
<path fill="none" stroke="midnightblue" d="M251.424,-252.025C252.333,-251.056 253.195,-250.048 254,-249 298.683,-190.865 239.444,-141.106 290,-88 296.59,-81.0776 304.979,-76.0914 313.936,-72.5119"/>
<polygon fill="midnightblue" stroke="midnightblue" points="248.945,-249.541 243.661,-258.724 253.518,-254.841 248.945,-249.541"/>
</g>
<!-- Node20 -->
<g id="node20" class="node"><title>Node20</title>
<g id="a_node20"><a xlink:href="../../dd/d42/a00109.html#a3738040e683004b9ecefc9ba7608eba4" target="_top" xlink:title="Generates pop&#39;s individuals and return pop. ">
<polygon fill="white" stroke="black" points="315.5,-0 315.5,-30 440.5,-30 440.5,-0 315.5,-0"/>
<text text-anchor="start" x="323.5" y="-18" font-family="Helvetica,sans-Serif" font-size="10.00">stride::DefaultPopBuilder</text>
<text text-anchor="middle" x="378" y="-7" font-family="Helvetica,sans-Serif" font-size="10.00">::MakePersons</text>
</a>
</g>
</g>
<!-- Node7&#45;&gt;Node20 -->
<g id="edge23" class="edge"><title>Node7&#45;&gt;Node20</title>
<path fill="none" stroke="midnightblue" d="M251.495,-252.078C252.383,-251.093 253.221,-250.067 254,-249 309.804,-172.495 226.449,-109.203 290,-39 296.835,-31.4497 305.808,-26.1863 315.392,-22.5352"/>
<polygon fill="midnightblue" stroke="midnightblue" points="249.005,-249.609 243.844,-258.862 253.649,-254.846 249.005,-249.609"/>
</g>
<!-- Node21 -->
<g id="node21" class="node"><title>Node21</title>
<g id="a_node21"><a xlink:href="../../d2/d82/a00142.html#ad551b02c507948570f07af10d85d29ce" target="_top" xlink:title="Get the contact configuration data. ">
<polygon fill="white" stroke="black" points="524.5,-387 524.5,-417 645.5,-417 645.5,-387 524.5,-387"/>
<text text-anchor="start" x="532.5" y="-405" font-family="Helvetica,sans-Serif" font-size="10.00">stride::SimBuilder</text>
<text text-anchor="middle" x="585" y="-394" font-family="Helvetica,sans-Serif" font-size="10.00">::ReadAgeContactPtree</text>
</a>
</g>
</g>
<!-- Node7&#45;&gt;Node21 -->
<g id="edge24" class="edge"><title>Node7&#45;&gt;Node21</title>
<path fill="none" stroke="midnightblue" d="M235.519,-295.331C241.894,-300.485 248.397,-306.191 254,-312 272.761,-331.449 266.792,-347.156 290,-361 362.142,-404.035 461.607,-408.889 524.353,-406.737"/>
<polygon fill="midnightblue" stroke="midnightblue" points="237.623,-292.534 227.588,-289.133 233.312,-298.049 237.623,-292.534"/>
</g>
<!-- Node22 -->
<g id="node22" class="node"><title>Node22</title>
<g id="a_node22"><a xlink:href="../../d2/d82/a00142.html#adffa42c6b8b171616fcdfb4805260c92" target="_top" xlink:title="Get the disease configuration data. ">
<polygon fill="white" stroke="black" points="532.5,-338 532.5,-368 637.5,-368 637.5,-338 532.5,-338"/>
<text text-anchor="start" x="540.5" y="-356" font-family="Helvetica,sans-Serif" font-size="10.00">stride::SimBuilder</text>
<text text-anchor="middle" x="585" y="-345" font-family="Helvetica,sans-Serif" font-size="10.00">::ReadDiseasePtree</text>
</a>
</g>
</g>
<!-- Node7&#45;&gt;Node22 -->
<g id="edge26" class="edge"><title>Node7&#45;&gt;Node22</title>
<path fill="none" stroke="midnightblue" d="M233.067,-295.422C252.707,-310.492 277.872,-328.708 290,-333 371.025,-361.673 472.32,-361.326 532.386,-357.699"/>
<polygon fill="midnightblue" stroke="midnightblue" points="235.091,-292.563 225.042,-289.206 230.805,-298.097 235.091,-292.563"/>
</g>
<!-- Node9 -->
<g id="node9" class="node"><title>Node9</title>
<g id="a_node9"><a xlink:href="../../dd/db2/a00151.html#a054950caec73fe87d50736d61377d182" target="_top" xlink:title="Build and return the TravellerProfile. ">
<polygon fill="white" stroke="black" points="529,-289 529,-319 641,-319 641,-289 529,-289"/>
<text text-anchor="start" x="537" y="-307" font-family="Helvetica,sans-Serif" font-size="10.00">stride::TravellerProfile</text>
<text text-anchor="middle" x="585" y="-296" font-family="Helvetica,sans-Serif" font-size="10.00">Builder::Build</text>
</a>
</g>
</g>
<!-- Node8&#45;&gt;Node9 -->
<g id="edge9" class="edge"><title>Node8&#45;&gt;Node9</title>
<path fill="none" stroke="midnightblue" d="M466.223,-306.873C487.471,-306.354 509.615,-305.814 528.892,-305.344"/>
<polygon fill="midnightblue" stroke="midnightblue" points="466.121,-303.374 456.21,-307.117 466.292,-310.372 466.121,-303.374"/>
</g>
<!-- Node10 -->
<g id="node10" class="node"><title>Node10</title>
<g id="a_node10"><a xlink:href="../../d2/d82/a00142.html#a94ce5fb3cae915f0bdb261498f31c444" target="_top" xlink:title="Build the simulator and return it afterwards. ">
<polygon fill="white" stroke="black" points="713,-338 713,-368 807,-368 807,-338 713,-338"/>
<text text-anchor="start" x="721" y="-356" font-family="Helvetica,sans-Serif" font-size="10.00">stride::SimBuilder</text>
<text text-anchor="middle" x="760" y="-345" font-family="Helvetica,sans-Serif" font-size="10.00">::Build</text>
</a>
</g>
</g>
<!-- Node9&#45;&gt;Node10 -->
<g id="edge10" class="edge"><title>Node9&#45;&gt;Node10</title>
<path fill="none" stroke="midnightblue" d="M649.163,-321.89C670.247,-327.862 693.332,-334.4 712.873,-339.935"/>
<polygon fill="midnightblue" stroke="midnightblue" points="649.893,-318.459 639.317,-319.101 647.985,-325.194 649.893,-318.459"/>
</g>
<!-- Node13 -->
<g id="node13" class="node"><title>Node13</title>
<g id="a_node13"><a xlink:href="../../d0/d33/a00027.html#a5d80eb0492fba3112f7fb0571d386e30" target="_top" xlink:title="Reads the data files. ">
<polygon fill="white" stroke="black" points="502.5,-147 502.5,-177 667.5,-177 667.5,-147 502.5,-147"/>
<text text-anchor="start" x="510.5" y="-165" font-family="Helvetica,sans-Serif" font-size="10.00">gengeopop::GenGeoPopController</text>
<text text-anchor="middle" x="585" y="-154" font-family="Helvetica,sans-Serif" font-size="10.00">::ReadDataFiles</text>
</a>
</g>
</g>
<!-- Node12&#45;&gt;Node13 -->
<g id="edge13" class="edge"><title>Node12&#45;&gt;Node13</title>
<path fill="none" stroke="midnightblue" d="M451.812,-193.596C474.49,-188.176 499.289,-182.248 521.219,-177.006"/>
<polygon fill="midnightblue" stroke="midnightblue" points="450.812,-190.236 441.9,-195.965 452.44,-197.045 450.812,-190.236"/>
</g>
<!-- Node14 -->
<g id="node14" class="node"><title>Node14</title>
<g id="a_node14"><a xlink:href="../../dd/d6d/a00111.html#a788b0ff4e222be4a8ec8b598b99e5b8a" target="_top" xlink:title="Creates a population by generating it. ">
<polygon fill="white" stroke="black" points="704,-169 704,-199 816,-199 816,-169 704,-169"/>
<text text-anchor="start" x="712" y="-187" font-family="Helvetica,sans-Serif" font-size="10.00">stride::GenPopBuilder</text>
<text text-anchor="middle" x="760" y="-176" font-family="Helvetica,sans-Serif" font-size="10.00">::Build</text>
</a>
</g>
</g>
<!-- Node13&#45;&gt;Node14 -->
<g id="edge14" class="edge"><title>Node13&#45;&gt;Node14</title>
<path fill="none" stroke="midnightblue" d="M677.743,-173.667C686.64,-174.798 695.463,-175.92 703.833,-176.984"/>
<polygon fill="midnightblue" stroke="midnightblue" points="678.049,-170.178 667.687,-172.388 677.166,-177.122 678.049,-170.178"/>
</g>
<!-- Node15 -->
<g id="node15" class="node"><title>Node15</title>
<g id="a_node15"><a xlink:href="../../d6/d9c/a00352.html#a0ddf1224851353fc92bfbff6f499fa97" target="_top" xlink:title="main">
<polygon fill="white" stroke="black" points="741,-130.5 741,-149.5 779,-149.5 779,-130.5 741,-130.5"/>
<text text-anchor="middle" x="760" y="-137.5" font-family="Helvetica,sans-Serif" font-size="10.00">main</text>
</a>
</g>
</g>
<!-- Node13&#45;&gt;Node15 -->
<g id="edge15" class="edge"><title>Node13&#45;&gt;Node15</title>
<path fill="none" stroke="midnightblue" d="M677.676,-150.342C701.815,-147.272 725.414,-144.271 740.919,-142.299"/>
<polygon fill="midnightblue" stroke="midnightblue" points="677.166,-146.878 667.687,-151.612 678.049,-153.822 677.166,-146.878"/>
</g>
<!-- Node16&#45;&gt;Node13 -->
<g id="edge17" class="edge"><title>Node16&#45;&gt;Node13</title>
<path fill="none" stroke="midnightblue" d="M455.639,-162C470.822,-162 486.816,-162 502.164,-162"/>
<polygon fill="midnightblue" stroke="midnightblue" points="455.275,-158.5 445.275,-162 455.274,-165.5 455.275,-158.5"/>
</g>
<!-- Node17&#45;&gt;Node13 -->
<g id="edge19" class="edge"><title>Node17&#45;&gt;Node13</title>
<path fill="none" stroke="midnightblue" d="M451.812,-130.404C474.49,-135.824 499.289,-141.752 521.219,-146.994"/>
<polygon fill="midnightblue" stroke="midnightblue" points="452.44,-126.955 441.9,-128.035 450.812,-133.764 452.44,-126.955"/>
</g>
<!-- Node19 -->
<g id="node19" class="node"><title>Node19</title>
<g id="a_node19"><a xlink:href="../../d1/d44/a00098.html#a2f1b3543ea350957ea793e6b2d3ae851" target="_top" xlink:title="Constructor. ">
<polygon fill="white" stroke="black" points="519.5,-54.5 519.5,-73.5 650.5,-73.5 650.5,-54.5 519.5,-54.5"/>
<text text-anchor="middle" x="585" y="-61.5" font-family="Helvetica,sans-Serif" font-size="10.00">stride::Calendar::Calendar</text>
</a>
</g>
</g>
<!-- Node18&#45;&gt;Node19 -->
<g id="edge21" class="edge"><title>Node18&#45;&gt;Node19</title>
<path fill="none" stroke="midnightblue" d="M452.396,-64C474.241,-64 498.009,-64 519.26,-64"/>
<polygon fill="midnightblue" stroke="midnightblue" points="452.18,-60.5001 442.179,-64 452.179,-67.5001 452.18,-60.5001"/>
</g>
<!-- Node21&#45;&gt;Node10 -->
<g id="edge25" class="edge"><title>Node21&#45;&gt;Node10</title>
<path fill="none" stroke="midnightblue" d="M649.163,-384.11C670.247,-378.138 693.332,-371.6 712.873,-366.065"/>
<polygon fill="midnightblue" stroke="midnightblue" points="647.985,-380.806 639.317,-386.899 649.893,-387.541 647.985,-380.806"/>
</g>
<!-- Node22&#45;&gt;Node10 -->
<g id="edge27" class="edge"><title>Node22&#45;&gt;Node10</title>
<path fill="none" stroke="midnightblue" d="M648.164,-353C669.461,-353 692.902,-353 712.719,-353"/>
<polygon fill="midnightblue" stroke="midnightblue" points="647.906,-349.5 637.906,-353 647.906,-356.5 647.906,-349.5"/>
</g>
<!-- Node23&#45;&gt;Node5 -->
<g id="edge29" class="edge"><title>Node23&#45;&gt;Node5</title>
<path fill="none" stroke="midnightblue" d="M263.83,-402.571C283.465,-408.198 305.282,-414.449 324.479,-419.95"/>
<polygon fill="midnightblue" stroke="midnightblue" points="264.665,-399.17 254.088,-399.78 262.737,-405.899 264.665,-399.17"/>
</g>
<!-- Node24&#45;&gt;Node5 -->
<g id="edge31" class="edge"><title>Node24&#45;&gt;Node5</title>
<path fill="none" stroke="midnightblue" d="M249.22,-357.454C250.871,-358.596 252.472,-359.778 254,-361 273.736,-376.777 269.269,-390.555 290,-405 299.7,-411.759 311.062,-417.117 322.314,-421.32"/>
<polygon fill="midnightblue" stroke="midnightblue" points="250.986,-354.429 240.652,-352.092 247.273,-360.364 250.986,-354.429"/>
</g>
</g>
</svg>
