<?xml version="1.0" encoding="UTF-8" standalone="no"?>
<!DOCTYPE svg PUBLIC "-//W3C//DTD SVG 1.1//EN"
 "http://www.w3.org/Graphics/SVG/1.1/DTD/svg11.dtd">
<!-- Generated by graphviz version 2.36.0 (20140111.2315)
 -->
<!-- Title: stride::util::RNManager::GetGenerator Pages: 1 -->
<!--zoomable 857 -->
<svg id="main" version="1.1" xmlns="http://www.w3.org/2000/svg" xmlns:xlink="http://www.w3.org/1999/xlink" xml:space="preserve" onload="init(evt)">
<style type="text/css"><![CDATA[
.edge:hover path { stroke: red; }
.edge:hover polygon { stroke: red; fill: red; }
]]></style>
<script type="text/javascript"><![CDATA[
var edges = document.getElementsByTagName('g');
if (edges && edges.length) {
  for (var i=0;i<edges.length;i++) {
    if (edges[i].id.substr(0,4)=='edge') {
      edges[i].setAttribute('class','edge');
    }
  }
}
]]></script>
        <defs>
                <circle id="rim" cx="0" cy="0" r="7"/>
                <circle id="rim2" cx="0" cy="0" r="3.5"/>
                <g id="zoomPlus">
                        <use xlink:href="#rim" fill="#404040">
                                <set attributeName="fill" to="#808080" begin="zoomplus.mouseover" end="zoomplus.mouseout"/>
                        </use>
                        <path d="M-4,0h8M0,-4v8" fill="none" stroke="white" stroke-width="1.5" pointer-events="none"/>
                </g>
                <g id="zoomMin">
                        <use xlink:href="#rim" fill="#404040">
                                <set attributeName="fill" to="#808080" begin="zoomminus.mouseover" end="zoomminus.mouseout"/>
                        </use>
                        <path d="M-4,0h8" fill="none" stroke="white" stroke-width="1.5" pointer-events="none"/>
                </g>
                <g id="dirArrow">
                        <path fill="none" stroke="white" stroke-width="1.5" d="M0,-3.0v7 M-2.5,-0.5L0,-3.0L2.5,-0.5"/>
                </g>
               <g id="resetDef">
                       <use xlink:href="#rim2" fill="#404040">
                               <set attributeName="fill" to="#808080" begin="reset.mouseover" end="reset.mouseout"/>
                       </use>
               </g>
        </defs>

<script type="text/javascript">
var viewWidth = 848;
var viewHeight = 857;
var sectionId = 'dynsection-4';
</script>
<script xlink:href="../../svgpan.js"/>
<svg id="graph" class="graph">
<g id="viewport">
<title>stride::util::RNManager::GetGenerator</title>
<polygon fill="white" stroke="none" points="-4,4 -4,-853 844,-853 844,4 -4,4"/>
<!-- Node1 -->
<g id="node1" class="node"><title>Node1</title>
<polygon fill="#bfbfbf" stroke="black" points="0,-420 0,-450 118,-450 118,-420 0,-420"/>
<text text-anchor="start" x="8" y="-438" font-family="Helvetica,sans-Serif" font-size="10.00">stride::util::RNManager</text>
<text text-anchor="middle" x="59" y="-427" font-family="Helvetica,sans-Serif" font-size="10.00">::GetGenerator</text>
</g>
<!-- Node2 -->
<g id="node2" class="node"><title>Node2</title>
<g id="a_node2"><a xlink:href="../../db/db2/a00020.html#a3ea831d2b6fbbb1187086e4b985daf07" target="_top" xlink:title="Apply this PartialGenerator to the given geogrid, generating ContactCenters. ">
<polygon fill="white" stroke="black" points="165,-819 165,-849 311,-849 311,-819 165,-819"/>
<text text-anchor="start" x="173" y="-837" font-family="Helvetica,sans-Serif" font-size="10.00">gengeopop::CollegeGenerator</text>
<text text-anchor="middle" x="238" y="-826" font-family="Helvetica,sans-Serif" font-size="10.00">::Apply</text>
</a>
</g>
</g>
<!-- Node1&#45;&gt;Node2 -->
<g id="edge1" class="edge"><title>Node1&#45;&gt;Node2</title>
<path fill="none" stroke="midnightblue" d="M63.3317,-460.284C73.6318,-534.922 107.116,-752.312 154,-804 159.559,-810.128 166.466,-815.006 173.904,-818.888"/>
<polygon fill="midnightblue" stroke="midnightblue" points="66.7957,-459.782 61.9814,-450.344 59.8594,-460.724 66.7957,-459.782"/>
</g>
<!-- Node3 -->
<g id="node3" class="node"><title>Node3</title>
<g id="a_node3"><a xlink:href="../../de/d11/a00021.html#abc6ecf1b07270c3a1e2152f3be6ffeae" target="_top" xlink:title="Populate the given geogrid. ">
<polygon fill="white" stroke="black" points="365,-737 365,-767 509,-767 509,-737 365,-737"/>
<text text-anchor="start" x="373" y="-755" font-family="Helvetica,sans-Serif" font-size="10.00">gengeopop::CollegePopulator</text>
<text text-anchor="middle" x="437" y="-744" font-family="Helvetica,sans-Serif" font-size="10.00">::Apply</text>
</a>
</g>
</g>
<!-- Node1&#45;&gt;Node3 -->
<g id="edge2" class="edge"><title>Node1&#45;&gt;Node3</title>
<path fill="none" stroke="midnightblue" d="M59.3301,-460.467C59.3212,-519.253 68.4089,-664.532 154,-732 213.939,-779.247 305.108,-776.476 367.453,-767.018"/>
<polygon fill="midnightblue" stroke="midnightblue" points="62.8322,-460.255 59.4271,-450.223 55.8325,-460.189 62.8322,-460.255"/>
</g>
<!-- Node4 -->
<g id="node4" class="node"><title>Node4</title>
<g id="a_node4"><a xlink:href="../../d2/d79/a00051.html#a650110aa1e45d01478a4227c73635a72" target="_top" xlink:title="Apply this PartialGenerator to the given geogrid, generating ContactCenters. ">
<polygon fill="white" stroke="black" points="158,-567 158,-597 318,-597 318,-567 158,-567"/>
<text text-anchor="start" x="166" y="-585" font-family="Helvetica,sans-Serif" font-size="10.00">gengeopop::K12SchoolGenerator</text>
<text text-anchor="middle" x="238" y="-574" font-family="Helvetica,sans-Serif" font-size="10.00">::Apply</text>
</a>
</g>
</g>
<!-- Node1&#45;&gt;Node4 -->
<g id="edge3" class="edge"><title>Node1&#45;&gt;Node4</title>
<path fill="none" stroke="midnightblue" d="M72.5267,-459.216C88.0298,-486.843 116.975,-531.483 154,-557 159.576,-560.843 165.756,-564.107 172.156,-566.878"/>
<polygon fill="midnightblue" stroke="midnightblue" points="75.4758,-457.313 67.6125,-450.213 69.3315,-460.667 75.4758,-457.313"/>
</g>
<!-- Node5 -->
<g id="node5" class="node"><title>Node5</title>
<g id="a_node5"><a xlink:href="../../d0/d89/a00071.html#a382ddb08546a893331863f64bd1e5046" target="_top" xlink:title="Apply this PartialGenerator to the given geogrid, generating ContactCenters. ">
<polygon fill="white" stroke="black" points="158.5,-518 158.5,-548 317.5,-548 317.5,-518 158.5,-518"/>
<text text-anchor="start" x="166.5" y="-536" font-family="Helvetica,sans-Serif" font-size="10.00">gengeopop::WorkplaceGenerator</text>
<text text-anchor="middle" x="238" y="-525" font-family="Helvetica,sans-Serif" font-size="10.00">::Apply</text>
</a>
</g>
</g>
<!-- Node1&#45;&gt;Node5 -->
<g id="edge4" class="edge"><title>Node1&#45;&gt;Node5</title>
<path fill="none" stroke="midnightblue" d="M83.3958,-457.164C101.458,-473.234 127.727,-494.441 154,-508 161.355,-511.796 169.381,-515.115 177.45,-517.986"/>
<polygon fill="midnightblue" stroke="midnightblue" points="85.4627,-454.313 75.704,-450.188 80.76,-459.498 85.4627,-454.313"/>
</g>
<!-- Node6 -->
<g id="node6" class="node"><title>Node6</title>
<g id="a_node6"><a xlink:href="../../d1/d84/a00052.html#a88753abc8ea1c837507c22c8b305cde2" target="_top" xlink:title="Populate the given geogrid. ">
<polygon fill="white" stroke="black" points="159,-469 159,-499 317,-499 317,-469 159,-469"/>
<text text-anchor="start" x="167" y="-487" font-family="Helvetica,sans-Serif" font-size="10.00">gengeopop::K12SchoolPopulator</text>
<text text-anchor="middle" x="238" y="-476" font-family="Helvetica,sans-Serif" font-size="10.00">::Apply</text>
</a>
</g>
</g>
<!-- Node1&#45;&gt;Node6 -->
<g id="edge5" class="edge"><title>Node1&#45;&gt;Node6</title>
<path fill="none" stroke="midnightblue" d="M124.375,-452.821C143.485,-458.112 164.221,-463.852 182.63,-468.948"/>
<polygon fill="midnightblue" stroke="midnightblue" points="125.121,-449.396 114.55,-450.101 123.254,-456.143 125.121,-449.396"/>
</g>
<!-- Node7 -->
<g id="node7" class="node"><title>Node7</title>
<g id="a_node7"><a xlink:href="../../d6/d2d/a00047.html#a7285f9c244780890b889405a99814a53" target="_top" xlink:title="Apply this PartialGenerator to the given geogrid, generating ContactCenters. ">
<polygon fill="white" stroke="black" points="158.5,-420 158.5,-450 317.5,-450 317.5,-420 158.5,-420"/>
<text text-anchor="start" x="166.5" y="-438" font-family="Helvetica,sans-Serif" font-size="10.00">gengeopop::HouseholdGenerator</text>
<text text-anchor="middle" x="238" y="-427" font-family="Helvetica,sans-Serif" font-size="10.00">::Apply</text>
</a>
</g>
</g>
<!-- Node1&#45;&gt;Node7 -->
<g id="edge6" class="edge"><title>Node1&#45;&gt;Node7</title>
<path fill="none" stroke="midnightblue" d="M128.506,-435C138.299,-435 148.436,-435 158.404,-435"/>
<polygon fill="midnightblue" stroke="midnightblue" points="128.447,-431.5 118.447,-435 128.447,-438.5 128.447,-431.5"/>
</g>
<!-- Node8 -->
<g id="node8" class="node"><title>Node8</title>
<g id="a_node8"><a xlink:href="../../d9/d73/a00060.html#a20e841fc232bb6cd3a5b4ddf166187eb" target="_top" xlink:title="Populate the given geogrid. ">
<polygon fill="white" stroke="black" points="161,-371 161,-401 315,-401 315,-371 161,-371"/>
<text text-anchor="start" x="169" y="-389" font-family="Helvetica,sans-Serif" font-size="10.00">gengeopop::PrimaryCommunity</text>
<text text-anchor="middle" x="238" y="-378" font-family="Helvetica,sans-Serif" font-size="10.00">Populator::Apply</text>
</a>
</g>
</g>
<!-- Node1&#45;&gt;Node8 -->
<g id="edge7" class="edge"><title>Node1&#45;&gt;Node8</title>
<path fill="none" stroke="midnightblue" d="M124.375,-417.179C143.485,-411.888 164.221,-406.148 182.63,-401.052"/>
<polygon fill="midnightblue" stroke="midnightblue" points="123.254,-413.857 114.55,-419.899 125.121,-420.604 123.254,-413.857"/>
</g>
<!-- Node9 -->
<g id="node9" class="node"><title>Node9</title>
<g id="a_node9"><a xlink:href="../../d3/d52/a00023.html#ab0b32a126df10112d785149cc8dcb7d5" target="_top" xlink:title="Apply this PartialGenerator to the given geogrid, generating ContactCenters. ">
<polygon fill="white" stroke="black" points="156.5,-322 156.5,-352 319.5,-352 319.5,-322 156.5,-322"/>
<text text-anchor="start" x="164.5" y="-340" font-family="Helvetica,sans-Serif" font-size="10.00">gengeopop::CommunityGenerator</text>
<text text-anchor="middle" x="238" y="-329" font-family="Helvetica,sans-Serif" font-size="10.00">::Apply</text>
</a>
</g>
</g>
<!-- Node1&#45;&gt;Node9 -->
<g id="edge8" class="edge"><title>Node1&#45;&gt;Node9</title>
<path fill="none" stroke="midnightblue" d="M82.9721,-412.727C100.993,-396.35 127.401,-374.652 154,-361 160.539,-357.644 167.616,-354.693 174.785,-352.116"/>
<polygon fill="midnightblue" stroke="midnightblue" points="80.2651,-410.464 75.3119,-419.83 85.0245,-415.597 80.2651,-410.464"/>
</g>
<!-- Node10 -->
<g id="node10" class="node"><title>Node10</title>
<g id="a_node10"><a xlink:href="../../d4/dca/a00048.html#a47168ca7f0ce73610734befed56f0ae7" target="_top" xlink:title="Populate the given geogrid. ">
<polygon fill="white" stroke="black" points="159,-273 159,-303 317,-303 317,-273 159,-273"/>
<text text-anchor="start" x="167" y="-291" font-family="Helvetica,sans-Serif" font-size="10.00">gengeopop::HouseholdPopulator</text>
<text text-anchor="middle" x="238" y="-280" font-family="Helvetica,sans-Serif" font-size="10.00">::Apply</text>
</a>
</g>
</g>
<!-- Node1&#45;&gt;Node10 -->
<g id="edge9" class="edge"><title>Node1&#45;&gt;Node10</title>
<path fill="none" stroke="midnightblue" d="M72.4271,-410.511C87.8362,-382.588 116.693,-337.516 154,-312 159.076,-308.528 164.656,-305.553 170.446,-303.004"/>
<polygon fill="midnightblue" stroke="midnightblue" points="69.1878,-409.146 67.5457,-419.613 75.3566,-412.454 69.1878,-409.146"/>
</g>
<!-- Node11 -->
<g id="node11" class="node"><title>Node11</title>
<g id="a_node11"><a xlink:href="../../df/d5f/a00064.html#a2ae716371ebfd9bf1bd7eba3dfe4b8d2" target="_top" xlink:title="Populate the given geogrid. ">
<polygon fill="white" stroke="black" points="154.5,-224 154.5,-254 321.5,-254 321.5,-224 154.5,-224"/>
<text text-anchor="start" x="162.5" y="-242" font-family="Helvetica,sans-Serif" font-size="10.00">gengeopop::SecondaryCommunity</text>
<text text-anchor="middle" x="238" y="-231" font-family="Helvetica,sans-Serif" font-size="10.00">Populator::Apply</text>
</a>
</g>
</g>
<!-- Node1&#45;&gt;Node11 -->
<g id="edge10" class="edge"><title>Node1&#45;&gt;Node11</title>
<path fill="none" stroke="midnightblue" d="M66.844,-410.127C78.4536,-372.614 105.594,-301.829 154,-263 158.329,-259.527 163.141,-256.557 168.205,-254.016"/>
<polygon fill="midnightblue" stroke="midnightblue" points="63.4718,-409.189 63.9766,-419.771 70.1815,-411.184 63.4718,-409.189"/>
</g>
<!-- Node12 -->
<g id="node12" class="node"><title>Node12</title>
<g id="a_node12"><a xlink:href="../../d6/d2c/a00072.html#a9acd5b5f1bbac318795ce674911f8dc8" target="_top" xlink:title="Calculates the workplaces to which persons from m_currentLoc may commute to. ">
<polygon fill="white" stroke="black" points="358,-786 358,-816 516,-816 516,-786 358,-786"/>
<text text-anchor="start" x="366" y="-804" font-family="Helvetica,sans-Serif" font-size="10.00">gengeopop::WorkplacePopulator</text>
<text text-anchor="middle" x="437" y="-793" font-family="Helvetica,sans-Serif" font-size="10.00">::CalculateCommutingLocations</text>
</a>
</g>
</g>
<!-- Node1&#45;&gt;Node12 -->
<g id="edge11" class="edge"><title>Node1&#45;&gt;Node12</title>
<path fill="none" stroke="midnightblue" d="M63.5754,-460.439C73.9997,-530.782 106.648,-725.4 154,-766 183.727,-791.489 285.028,-798.825 357.702,-800.72"/>
<polygon fill="midnightblue" stroke="midnightblue" points="66.9977,-459.65 62.0944,-450.258 60.0706,-460.658 66.9977,-459.65"/>
</g>
<!-- Node14 -->
<g id="node14" class="node"><title>Node14</title>
<g id="a_node14"><a xlink:href="../../d6/d2c/a00072.html#adf0b3f40814a56af4736ef1af9ffc30e" target="_top" xlink:title="Calculates the workplaces which are nearby to m_currentLoc. ">
<polygon fill="white" stroke="black" points="358,-600 358,-630 516,-630 516,-600 358,-600"/>
<text text-anchor="start" x="366" y="-618" font-family="Helvetica,sans-Serif" font-size="10.00">gengeopop::WorkplacePopulator</text>
<text text-anchor="middle" x="437" y="-607" font-family="Helvetica,sans-Serif" font-size="10.00">::CalculateNearbyWorkspaces</text>
</a>
</g>
</g>
<!-- Node1&#45;&gt;Node14 -->
<g id="edge13" class="edge"><title>Node1&#45;&gt;Node14</title>
<path fill="none" stroke="midnightblue" d="M63.5874,-460.327C71.2831,-503.953 93.8544,-592.224 154,-630 186.747,-650.568 286.216,-640.092 357.742,-629.021"/>
<polygon fill="midnightblue" stroke="midnightblue" points="67.0081,-459.558 61.9375,-450.255 60.1002,-460.689 67.0081,-459.558"/>
</g>
<!-- Node15 -->
<g id="node15" class="node"><title>Node15</title>
<g id="a_node15"><a xlink:href="../../d6/d2c/a00072.html#ae813a532362b485b1f15cf400f54ff5d" target="_top" xlink:title="Fills the m_workplacesInCity map. ">
<polygon fill="white" stroke="black" points="358,-551 358,-581 516,-581 516,-551 358,-551"/>
<text text-anchor="start" x="366" y="-569" font-family="Helvetica,sans-Serif" font-size="10.00">gengeopop::WorkplacePopulator</text>
<text text-anchor="middle" x="437" y="-558" font-family="Helvetica,sans-Serif" font-size="10.00">::CalculateWorkplacesInCity</text>
</a>
</g>
</g>
<!-- Node1&#45;&gt;Node15 -->
<g id="edge15" class="edge"><title>Node1&#45;&gt;Node15</title>
<path fill="none" stroke="midnightblue" d="M65.2996,-460.071C75.1025,-499.345 100.179,-574.169 154,-606 218.268,-644.01 248.783,-620.643 322,-606 338.997,-602.601 341.732,-596.984 358,-591 367.209,-587.613 377.12,-584.235 386.686,-581.108"/>
<polygon fill="midnightblue" stroke="midnightblue" points="68.6798,-459.155 62.9781,-450.226 61.8666,-460.762 68.6798,-459.155"/>
</g>
<!-- Node16 -->
<g id="node16" class="node"><title>Node16</title>
<g id="a_node16"><a xlink:href="../../d9/db6/a00146.html#ab9f4b79657eabfff845b4fd8eed603cb" target="_top" xlink:title="stride::TravellerProfile\l::MakeChoice">
<polygon fill="white" stroke="black" points="182,-175 182,-205 294,-205 294,-175 182,-175"/>
<text text-anchor="start" x="190" y="-193" font-family="Helvetica,sans-Serif" font-size="10.00">stride::TravellerProfile</text>
<text text-anchor="middle" x="238" y="-182" font-family="Helvetica,sans-Serif" font-size="10.00">::MakeChoice</text>
</a>
</g>
</g>
<!-- Node1&#45;&gt;Node16 -->
<g id="edge17" class="edge"><title>Node1&#45;&gt;Node16</title>
<path fill="none" stroke="midnightblue" d="M63.5535,-409.832C71.3645,-364.017 94.341,-266.861 154,-214 161.859,-207.037 171.626,-202.087 181.669,-198.57"/>
<polygon fill="midnightblue" stroke="midnightblue" points="60.0807,-409.384 61.9562,-419.812 66.9927,-410.49 60.0807,-409.384"/>
</g>
<!-- Node17 -->
<g id="node17" class="node"><title>Node17</title>
<g id="a_node17"><a xlink:href="../../d9/db6/a00146.html#a54b16967d8175cb7d331d667003b5fd5" target="_top" xlink:title="Based on the profile determines if a person will travel. ">
<polygon fill="white" stroke="black" points="381,-156 381,-186 493,-186 493,-156 381,-156"/>
<text text-anchor="start" x="389" y="-174" font-family="Helvetica,sans-Serif" font-size="10.00">stride::TravellerProfile</text>
<text text-anchor="middle" x="437" y="-163" font-family="Helvetica,sans-Serif" font-size="10.00">::PersonWillTravel</text>
</a>
</g>
</g>
<!-- Node1&#45;&gt;Node17 -->
<g id="edge24" class="edge"><title>Node1&#45;&gt;Node17</title>
<path fill="none" stroke="midnightblue" d="M59.9168,-409.889C61.264,-354.541 73.2117,-222.418 154,-165 225.448,-114.22 334.852,-137.386 394.202,-155.916"/>
<polygon fill="midnightblue" stroke="midnightblue" points="56.4172,-409.84 59.7714,-419.89 63.4165,-409.942 56.4172,-409.84"/>
</g>
<!-- Node18 -->
<g id="node18" class="node"><title>Node18</title>
<g id="a_node18"><a xlink:href="../../d1/d22/a00057.html#ad18d65985647c2afb90627fa7048be6a" target="_top" xlink:title="Convenience wrapper around m_rnManager. ">
<polygon fill="white" stroke="black" points="168.5,-693 168.5,-723 307.5,-723 307.5,-693 168.5,-693"/>
<text text-anchor="start" x="176.5" y="-711" font-family="Helvetica,sans-Serif" font-size="10.00">gengeopop::PartialPopulator</text>
<text text-anchor="middle" x="238" y="-700" font-family="Helvetica,sans-Serif" font-size="10.00">::MakeChoice</text>
</a>
</g>
</g>
<!-- Node1&#45;&gt;Node18 -->
<g id="edge19" class="edge"><title>Node1&#45;&gt;Node18</title>
<path fill="none" stroke="midnightblue" d="M62.8472,-460.18C69.6646,-508.909 91.3134,-616.694 154,-678 160.244,-684.106 167.822,-688.981 175.831,-692.869"/>
<polygon fill="midnightblue" stroke="midnightblue" points="66.3073,-459.646 61.5435,-450.182 59.3661,-460.551 66.3073,-459.646"/>
</g>
<!-- Node20 -->
<g id="node20" class="node"><title>Node20</title>
<g id="a_node20"><a xlink:href="../../d4/d3e/a00116.html#a8188dc69064103c5ac7e95193356a0c3" target="_top" xlink:title="Random immunization. ">
<polygon fill="white" stroke="black" points="189,-49 189,-79 287,-79 287,-49 189,-49"/>
<text text-anchor="start" x="197" y="-67" font-family="Helvetica,sans-Serif" font-size="10.00">stride::Immunizer::</text>
<text text-anchor="middle" x="238" y="-56" font-family="Helvetica,sans-Serif" font-size="10.00">Random</text>
</a>
</g>
</g>
<!-- Node1&#45;&gt;Node20 -->
<g id="edge25" class="edge"><title>Node1&#45;&gt;Node20</title>
<path fill="none" stroke="midnightblue" d="M59.5307,-409.676C59.7712,-347.526 69.0292,-185.858 154,-94 163.26,-83.9895 176.113,-77.3134 188.942,-72.8633"/>
<polygon fill="midnightblue" stroke="midnightblue" points="56.031,-409.772 59.5705,-419.758 63.0309,-409.744 56.031,-409.772"/>
</g>
<!-- Node22 -->
<g id="node22" class="node"><title>Node22</title>
<g id="a_node22"><a xlink:href="../../dd/d42/a00109.html#adc5b1f152367382afe3dade9421357da" target="_top" xlink:title="Build the simulator. ">
<polygon fill="white" stroke="black" points="574.5,-71 574.5,-101 687.5,-101 687.5,-71 574.5,-71"/>
<text text-anchor="start" x="582.5" y="-89" font-family="Helvetica,sans-Serif" font-size="10.00">stride::DiseaseSeeder</text>
<text text-anchor="middle" x="631" y="-78" font-family="Helvetica,sans-Serif" font-size="10.00">::Seed</text>
</a>
</g>
</g>
<!-- Node1&#45;&gt;Node22 -->
<g id="edge29" class="edge"><title>Node1&#45;&gt;Node22</title>
<path fill="none" stroke="midnightblue" d="M59.2247,-409.508C58.9456,-349.947 67.4187,-201.386 154,-131 186.044,-104.95 455.899,-92.2079 574.48,-87.825"/>
<polygon fill="midnightblue" stroke="midnightblue" points="55.73,-409.92 59.3692,-419.87 62.7293,-409.822 55.73,-409.92"/>
</g>
<!-- Node24 -->
<g id="node24" class="node"><title>Node24</title>
<g id="a_node24"><a xlink:href="../../d7/dce/a00143.html#a81b191380f9a2c93768ff0efcec47f6b" target="_top" xlink:title="Seeds the population with survey participants. ">
<polygon fill="white" stroke="black" points="184,-0 184,-30 292,-30 292,-0 184,-0"/>
<text text-anchor="start" x="192" y="-18" font-family="Helvetica,sans-Serif" font-size="10.00">stride::SurveySeeder</text>
<text text-anchor="middle" x="238" y="-7" font-family="Helvetica,sans-Serif" font-size="10.00">::Seed</text>
</a>
</g>
</g>
<!-- Node1&#45;&gt;Node24 -->
<g id="edge30" class="edge"><title>Node1&#45;&gt;Node24</title>
<path fill="none" stroke="midnightblue" d="M62.6739,-409.828C71.4931,-331.405 102.096,-93.4801 154,-39 161.967,-30.6376 172.65,-25.1344 183.695,-21.527"/>
<polygon fill="midnightblue" stroke="midnightblue" points="59.1916,-409.476 61.5741,-419.799 66.1494,-410.243 59.1916,-409.476"/>
</g>
<!-- Node13 -->
<g id="node13" class="node"><title>Node13</title>
<g id="a_node13"><a xlink:href="../../d6/d2c/a00072.html#ace51c5ac0d05c5fca400d8f93a26ec87" target="_top" xlink:title="Populates the workplaces in geogrid with persons. ">
<polygon fill="white" stroke="black" points="552,-649 552,-679 710,-679 710,-649 552,-649"/>
<text text-anchor="start" x="560" y="-667" font-family="Helvetica,sans-Serif" font-size="10.00">gengeopop::WorkplacePopulator</text>
<text text-anchor="middle" x="631" y="-656" font-family="Helvetica,sans-Serif" font-size="10.00">::Apply</text>
</a>
</g>
</g>
<!-- Node12&#45;&gt;Node13 -->
<g id="edge12" class="edge"><title>Node12&#45;&gt;Node13</title>
<path fill="none" stroke="midnightblue" d="M504.798,-781.966C508.675,-780.136 512.44,-778.15 516,-776 559.699,-749.606 599.473,-703.294 618.39,-679.331"/>
<polygon fill="midnightblue" stroke="midnightblue" points="503.376,-778.768 495.595,-785.958 506.162,-785.19 503.376,-778.768"/>
</g>
<!-- Node14&#45;&gt;Node13 -->
<g id="edge14" class="edge"><title>Node14&#45;&gt;Node13</title>
<path fill="none" stroke="midnightblue" d="M506.767,-632.55C527.851,-637.931 550.845,-643.799 571.2,-648.994"/>
<polygon fill="midnightblue" stroke="midnightblue" points="507.466,-629.116 496.911,-630.035 505.735,-635.899 507.466,-629.116"/>
</g>
<!-- Node15&#45;&gt;Node13 -->
<g id="edge16" class="edge"><title>Node15&#45;&gt;Node13</title>
<path fill="none" stroke="midnightblue" d="M501.312,-584.736C506.344,-586.695 511.296,-588.786 516,-591 550.874,-607.412 587.851,-632.755 609.925,-648.851"/>
<polygon fill="midnightblue" stroke="midnightblue" points="502.172,-581.322 491.579,-581.135 499.743,-587.887 502.172,-581.322"/>
</g>
<!-- Node16&#45;&gt;Node17 -->
<g id="edge18" class="edge"><title>Node16&#45;&gt;Node17</title>
<path fill="none" stroke="midnightblue" d="M304.2,-183.712C329.033,-181.317 357.067,-178.613 380.876,-176.317"/>
<polygon fill="midnightblue" stroke="midnightblue" points="303.755,-180.238 294.137,-184.682 304.427,-187.206 303.755,-180.238"/>
</g>
<!-- Node18&#45;&gt;Node3 -->
<g id="edge20" class="edge"><title>Node18&#45;&gt;Node3</title>
<path fill="none" stroke="midnightblue" d="M316.315,-725.268C333.628,-729.135 351.857,-733.207 368.724,-736.974"/>
<polygon fill="midnightblue" stroke="midnightblue" points="316.768,-721.783 306.245,-723.019 315.242,-728.615 316.768,-721.783"/>
</g>
<!-- Node18&#45;&gt;Node13 -->
<g id="edge21" class="edge"><title>Node18&#45;&gt;Node13</title>
<path fill="none" stroke="midnightblue" d="M317.71,-705.156C373.315,-702.456 449.478,-697.36 516,-688 532.323,-685.703 549.807,-682.436 566.059,-679.05"/>
<polygon fill="midnightblue" stroke="midnightblue" points="317.398,-701.667 307.574,-705.633 317.727,-708.659 317.398,-701.667"/>
</g>
<!-- Node19 -->
<g id="node19" class="node"><title>Node19</title>
<g id="a_node19"><a xlink:href="../../d6/d2c/a00072.html#a5ad89eccae3e00345e123b1e65ec7ebe" target="_top" xlink:title="Assign a workplace to an active person. ">
<polygon fill="white" stroke="black" points="358,-649 358,-679 516,-679 516,-649 358,-649"/>
<text text-anchor="start" x="366" y="-667" font-family="Helvetica,sans-Serif" font-size="10.00">gengeopop::WorkplacePopulator</text>
<text text-anchor="middle" x="437" y="-656" font-family="Helvetica,sans-Serif" font-size="10.00">::AssignActive</text>
</a>
</g>
</g>
<!-- Node18&#45;&gt;Node19 -->
<g id="edge22" class="edge"><title>Node18&#45;&gt;Node19</title>
<path fill="none" stroke="midnightblue" d="M316.315,-690.732C333.628,-686.865 351.857,-682.793 368.724,-679.026"/>
<polygon fill="midnightblue" stroke="midnightblue" points="315.242,-687.385 306.245,-692.981 316.768,-694.217 315.242,-687.385"/>
</g>
<!-- Node19&#45;&gt;Node13 -->
<g id="edge23" class="edge"><title>Node19&#45;&gt;Node13</title>
<path fill="none" stroke="midnightblue" d="M526.153,-664C534.769,-664 543.47,-664 551.975,-664"/>
<polygon fill="midnightblue" stroke="midnightblue" points="526.094,-660.5 516.094,-664 526.094,-667.5 526.094,-660.5"/>
</g>
<!-- Node21 -->
<g id="node21" class="node"><title>Node21</title>
<g id="a_node21"><a xlink:href="../../dd/d42/a00109.html#accb4b7832c08a4cc98973caf5aebf7f5" target="_top" xlink:title="Seed for vaccination/natural immunity. ">
<polygon fill="white" stroke="black" points="380.5,-49 380.5,-79 493.5,-79 493.5,-49 380.5,-49"/>
<text text-anchor="start" x="388.5" y="-67" font-family="Helvetica,sans-Serif" font-size="10.00">stride::DiseaseSeeder</text>
<text text-anchor="middle" x="437" y="-56" font-family="Helvetica,sans-Serif" font-size="10.00">::Vaccinate</text>
</a>
</g>
</g>
<!-- Node20&#45;&gt;Node21 -->
<g id="edge26" class="edge"><title>Node20&#45;&gt;Node21</title>
<path fill="none" stroke="midnightblue" d="M297.369,-64C323.59,-64 354.387,-64 380.285,-64"/>
<polygon fill="midnightblue" stroke="midnightblue" points="297.192,-60.5001 287.192,-64 297.192,-67.5001 297.192,-60.5001"/>
</g>
<!-- Node21&#45;&gt;Node22 -->
<g id="edge27" class="edge"><title>Node21&#45;&gt;Node22</title>
<path fill="none" stroke="midnightblue" d="M503.553,-71.5112C526.548,-74.1461 552.143,-77.0789 574.258,-79.6129"/>
<polygon fill="midnightblue" stroke="midnightblue" points="503.868,-68.0245 493.534,-70.3633 503.071,-74.979 503.868,-68.0245"/>
</g>
<!-- Node23 -->
<g id="node23" class="node"><title>Node23</title>
<g id="a_node23"><a xlink:href="../../d5/db1/a00140.html#a94ce5fb3cae915f0bdb261498f31c444" target="_top" xlink:title="Build the simulator and return it afterwards. ">
<polygon fill="white" stroke="black" points="746,-71 746,-101 840,-101 840,-71 746,-71"/>
<text text-anchor="start" x="754" y="-89" font-family="Helvetica,sans-Serif" font-size="10.00">stride::SimBuilder</text>
<text text-anchor="middle" x="793" y="-78" font-family="Helvetica,sans-Serif" font-size="10.00">::Build</text>
</a>
</g>
</g>
<!-- Node22&#45;&gt;Node23 -->
<g id="edge28" class="edge"><title>Node22&#45;&gt;Node23</title>
<path fill="none" stroke="midnightblue" d="M697.947,-86C714.043,-86 730.923,-86 745.868,-86"/>
<polygon fill="midnightblue" stroke="midnightblue" points="697.511,-82.5001 687.511,-86 697.511,-89.5001 697.511,-82.5001"/>
</g>
<!-- Node25 -->
<g id="node25" class="node"><title>Node25</title>
<g id="a_node25"><a xlink:href="../../d1/dd6/a00108.html#a98f2494729bf1d46e947b302f3e1b3b1" target="_top" xlink:title="Build Population and return it afterwards. ">
<polygon fill="white" stroke="black" points="374.5,-0 374.5,-30 499.5,-30 499.5,-0 374.5,-0"/>
<text text-anchor="start" x="382.5" y="-18" font-family="Helvetica,sans-Serif" font-size="10.00">stride::DefaultPopBuilder</text>
<text text-anchor="middle" x="437" y="-7" font-family="Helvetica,sans-Serif" font-size="10.00">::Build</text>
</a>
</g>
</g>
<!-- Node24&#45;&gt;Node25 -->
<g id="edge31" class="edge"><title>Node24&#45;&gt;Node25</title>
<path fill="none" stroke="midnightblue" d="M302.117,-15C325.281,-15 351.455,-15 374.477,-15"/>
<polygon fill="midnightblue" stroke="midnightblue" points="302.052,-11.5001 292.052,-15 302.051,-18.5001 302.052,-11.5001"/>
</g>
<!-- Node26 -->
<g id="node26" class="node"><title>Node26</title>
<g id="a_node26"><a xlink:href="../../d2/df5/a00137.html#ac9658f1a5fa801de6742a46efb85fb9c" target="_top" xlink:title="Create a Population for the given region parameters. ">
<polygon fill="white" stroke="black" points="585,-0 585,-30 677,-30 677,-0 585,-0"/>
<text text-anchor="start" x="593" y="-18" font-family="Helvetica,sans-Serif" font-size="10.00">stride::Population</text>
<text text-anchor="middle" x="631" y="-7" font-family="Helvetica,sans-Serif" font-size="10.00">::CreateRegion</text>
</a>
</g>
</g>
<!-- Node25&#45;&gt;Node26 -->
<g id="edge32" class="edge"><title>Node25&#45;&gt;Node26</title>
<path fill="none" stroke="midnightblue" d="M509.799,-15C534.988,-15 562.555,-15 584.928,-15"/>
<polygon fill="midnightblue" stroke="midnightblue" points="509.542,-11.5001 499.542,-15 509.542,-18.5001 509.542,-11.5001"/>
</g>
</g>
</svg>
        <g id="navigator" transform="translate(0 0)" fill="#404254">
                <rect fill="#f2f5e9" fill-opacity="0.5" stroke="#606060" stroke-width=".5" x="0" y="0" width="60" height="60"/>
                <use id="zoomplus" xlink:href="#zoomPlus" x="17" y="9" onmousedown="handleZoom(evt,'in')"/>
                <use id="zoomminus" xlink:href="#zoomMin" x="42" y="9" onmousedown="handleZoom(evt,'out')"/>
                <use id="reset" xlink:href="#resetDef" x="30" y="36" onmousedown="handleReset()"/>
                <g id="arrowUp" xlink:href="#dirArrow" transform="translate(30 24)" onmousedown="handlePan(0,-1)">
                  <use xlink:href="#rim" fill="#404040">
                        <set attributeName="fill" to="#808080" begin="arrowUp.mouseover" end="arrowUp.mouseout"/>
                  </use>
                  <path fill="none" stroke="white" stroke-width="1.5" d="M0,-3.0v7 M-2.5,-0.5L0,-3.0L2.5,-0.5"/>
                </g>
                <g id="arrowRight" xlink:href="#dirArrow" transform="rotate(90) translate(36 -43)" onmousedown="handlePan(1,0)">
                  <use xlink:href="#rim" fill="#404040">
                        <set attributeName="fill" to="#808080" begin="arrowRight.mouseover" end="arrowRight.mouseout"/>
                  </use>
                  <path fill="none" stroke="white" stroke-width="1.5" d="M0,-3.0v7 M-2.5,-0.5L0,-3.0L2.5,-0.5"/>
                </g>
                <g id="arrowDown" xlink:href="#dirArrow" transform="rotate(180) translate(-30 -48)" onmousedown="handlePan(0,1)">
                  <use xlink:href="#rim" fill="#404040">
                        <set attributeName="fill" to="#808080" begin="arrowDown.mouseover" end="arrowDown.mouseout"/>
                  </use>
                  <path fill="none" stroke="white" stroke-width="1.5" d="M0,-3.0v7 M-2.5,-0.5L0,-3.0L2.5,-0.5"/>
                </g>
                <g id="arrowLeft" xlink:href="#dirArrow" transform="rotate(270) translate(-36 17)" onmousedown="handlePan(-1,0)">
                  <use xlink:href="#rim" fill="#404040">
                        <set attributeName="fill" to="#808080" begin="arrowLeft.mouseover" end="arrowLeft.mouseout"/>
                  </use>
                  <path fill="none" stroke="white" stroke-width="1.5" d="M0,-3.0v7 M-2.5,-0.5L0,-3.0L2.5,-0.5"/>
                </g>
        </g>
        <svg viewBox="0 0 15 15" width="100%" height="30px" preserveAspectRatio="xMaxYMin meet">
         <g id="arrow_out" transform="scale(0.3 0.3)">
          <a xlink:href="a00157_a6508932485d419a6e7ab3cac60754ae6_icgraph_org.svg" target="_base">
           <rect id="button" ry="5" rx="5" y="6" x="6" height="38" width="38"
                fill="#f2f5e9" fill-opacity="0.5" stroke="#606060" stroke-width="1.0"/>
           <path id="arrow"
             d="M 11.500037,31.436501 C 11.940474,20.09759 22.043105,11.32322 32.158766,21.979434 L 37.068811,17.246167 C 37.068811,17.246167 37.088388,32 37.088388,32 L 22.160133,31.978069 C 22.160133,31.978069 26.997745,27.140456 26.997745,27.140456 C 18.528582,18.264221 13.291696,25.230495 11.500037,31.436501 z"
             style="fill:#404040;"/>
          </a>
         </g>
        </svg>
</svg>
