<?xml version="1.0" encoding="UTF-8" standalone="no"?>
<!DOCTYPE svg PUBLIC "-//W3C//DTD SVG 1.1//EN"
 "http://www.w3.org/Graphics/SVG/1.1/DTD/svg11.dtd">
<!-- Generated by graphviz version 2.36.0 (20140111.2315)
 -->
<!-- Title: stride::util::FileSys::BuildPath Pages: 1 -->
<svg width="454pt" height="234pt"
 viewBox="0.00 0.00 454.00 234.00" xmlns="http://www.w3.org/2000/svg" xmlns:xlink="http://www.w3.org/1999/xlink">
<g id="graph0" class="graph" transform="scale(1 1) rotate(0) translate(4 230)">
<title>stride::util::FileSys::BuildPath</title>
<polygon fill="white" stroke="none" points="-4,4 -4,-230 450,-230 450,4 -4,4"/>
<!-- Node1 -->
<g id="node1" class="node"><title>Node1</title>
<polygon fill="#bfbfbf" stroke="black" points="0,-98 0,-128 98,-128 98,-98 0,-98"/>
<text text-anchor="start" x="8" y="-116" font-family="Helvetica,sans-Serif" font-size="10.00">stride::util::FileSys</text>
<text text-anchor="middle" x="49" y="-105" font-family="Helvetica,sans-Serif" font-size="10.00">::BuildPath</text>
</g>
<!-- Node2 -->
<g id="node2" class="node"><title>Node2</title>
<g id="a_node2"><a xlink:href="../../de/d76/a00134.html#a1f9b3fab4125e26c2eebd32ee27dd977" target="_top" xlink:title="Constructor: initialize. ">
<polygon fill="white" stroke="black" points="145.5,-196 145.5,-226 260.5,-226 260.5,-196 145.5,-196"/>
<text text-anchor="start" x="153.5" y="-214" font-family="Helvetica,sans-Serif" font-size="10.00">stride::output::Infected</text>
<text text-anchor="middle" x="203" y="-203" font-family="Helvetica,sans-Serif" font-size="10.00">File::InfectedFile</text>
</a>
</g>
</g>
<!-- Node1&#45;&gt;Node2 -->
<g id="edge1" class="edge"><title>Node1&#45;&gt;Node2</title>
<path fill="none" stroke="midnightblue" d="M71.4476,-135.587C87.4687,-151.418 110.559,-172.143 134,-186 140.28,-189.712 147.205,-193.026 154.16,-195.931"/>
<polygon fill="midnightblue" stroke="midnightblue" points="73.7073,-132.895 64.1801,-128.26 68.7374,-137.825 73.7073,-132.895"/>
</g>
<!-- Node3 -->
<g id="node3" class="node"><title>Node3</title>
<g id="a_node3"><a xlink:href="../../d0/de8/a00133.html#aefdeb0e49b52e1fb5844bb311a6319cb" target="_top" xlink:title="Generate file name and open the file stream. ">
<polygon fill="white" stroke="black" points="137.5,-147 137.5,-177 268.5,-177 268.5,-147 137.5,-147"/>
<text text-anchor="start" x="145.5" y="-165" font-family="Helvetica,sans-Serif" font-size="10.00">stride::output::AdoptedFile</text>
<text text-anchor="middle" x="203" y="-154" font-family="Helvetica,sans-Serif" font-size="10.00">::Initialize</text>
</a>
</g>
</g>
<!-- Node1&#45;&gt;Node3 -->
<g id="edge2" class="edge"><title>Node1&#45;&gt;Node3</title>
<path fill="none" stroke="midnightblue" d="M106.64,-131.259C122.672,-136.427 139.936,-141.992 155.309,-146.948"/>
<polygon fill="midnightblue" stroke="midnightblue" points="107.437,-127.839 96.8453,-128.101 105.289,-134.501 107.437,-127.839"/>
</g>
<!-- Node5 -->
<g id="node5" class="node"><title>Node5</title>
<g id="a_node5"><a xlink:href="../../d0/d5e/a00136.html#a73334b641e8aeb7edff5cc8b6affc86c" target="_top" xlink:title="Generate file name and open the file stream. ">
<polygon fill="white" stroke="black" points="134.5,-98 134.5,-128 271.5,-128 271.5,-98 134.5,-98"/>
<text text-anchor="start" x="142.5" y="-116" font-family="Helvetica,sans-Serif" font-size="10.00">stride::output::SummaryFile</text>
<text text-anchor="middle" x="203" y="-105" font-family="Helvetica,sans-Serif" font-size="10.00">::Initialize</text>
</a>
</g>
</g>
<!-- Node1&#45;&gt;Node5 -->
<g id="edge4" class="edge"><title>Node1&#45;&gt;Node5</title>
<path fill="none" stroke="midnightblue" d="M108.266,-113C116.758,-113 125.563,-113 134.224,-113"/>
<polygon fill="midnightblue" stroke="midnightblue" points="108.094,-109.5 98.0938,-113 108.094,-116.5 108.094,-109.5"/>
</g>
<!-- Node7 -->
<g id="node7" class="node"><title>Node7</title>
<g id="a_node7"><a xlink:href="../../d5/d5b/a00135.html#a70798ee06674e243f7dad24ae2dca7fd" target="_top" xlink:title="Generate file name and open the file stream. ">
<polygon fill="white" stroke="black" points="137.5,-49 137.5,-79 268.5,-79 268.5,-49 137.5,-49"/>
<text text-anchor="start" x="145.5" y="-67" font-family="Helvetica,sans-Serif" font-size="10.00">stride::output::PersonsFile</text>
<text text-anchor="middle" x="203" y="-56" font-family="Helvetica,sans-Serif" font-size="10.00">::Initialize</text>
</a>
</g>
</g>
<!-- Node1&#45;&gt;Node7 -->
<g id="edge6" class="edge"><title>Node1&#45;&gt;Node7</title>
<path fill="none" stroke="midnightblue" d="M106.64,-94.7409C122.672,-89.5727 139.936,-84.0076 155.309,-79.0516"/>
<polygon fill="midnightblue" stroke="midnightblue" points="105.289,-91.4991 96.8453,-97.8986 107.437,-98.1615 105.289,-91.4991"/>
</g>
<!-- Node9 -->
<g id="node9" class="node"><title>Node9</title>
<g id="a_node9"><a xlink:href="../../d9/d77/a00095.html#a2d12c22b23e4f38dc6ce483e0edcee84" target="_top" xlink:title="Make the appropriate logger for cli environment and register as stride_logger. ">
<polygon fill="white" stroke="black" points="147.5,-0 147.5,-30 258.5,-30 258.5,-0 147.5,-0"/>
<text text-anchor="start" x="155.5" y="-18" font-family="Helvetica,sans-Serif" font-size="10.00">stride::BaseController</text>
<text text-anchor="middle" x="203" y="-7" font-family="Helvetica,sans-Serif" font-size="10.00">::MakeLogger</text>
</a>
</g>
</g>
<!-- Node1&#45;&gt;Node9 -->
<g id="edge8" class="edge"><title>Node1&#45;&gt;Node9</title>
<path fill="none" stroke="midnightblue" d="M71.4476,-90.4129C87.4687,-74.5819 110.559,-53.8568 134,-40 140.28,-36.2876 147.205,-32.9741 154.16,-30.0693"/>
<polygon fill="midnightblue" stroke="midnightblue" points="68.7374,-88.1752 64.1801,-97.7398 73.7073,-93.1048 68.7374,-88.1752"/>
</g>
<!-- Node4 -->
<g id="node4" class="node"><title>Node4</title>
<g id="a_node4"><a xlink:href="../../d0/de8/a00133.html#aa24c13053bcf131ad878b465a4125828" target="_top" xlink:title="Constructor. ">
<polygon fill="white" stroke="black" points="311.5,-147 311.5,-177 442.5,-177 442.5,-147 311.5,-147"/>
<text text-anchor="start" x="319.5" y="-165" font-family="Helvetica,sans-Serif" font-size="10.00">stride::output::AdoptedFile</text>
<text text-anchor="middle" x="377" y="-154" font-family="Helvetica,sans-Serif" font-size="10.00">::AdoptedFile</text>
</a>
</g>
</g>
<!-- Node3&#45;&gt;Node4 -->
<g id="edge3" class="edge"><title>Node3&#45;&gt;Node4</title>
<path fill="none" stroke="midnightblue" d="M278.837,-162C289.682,-162 300.768,-162 311.389,-162"/>
<polygon fill="midnightblue" stroke="midnightblue" points="278.536,-158.5 268.536,-162 278.536,-165.5 278.536,-158.5"/>
</g>
<!-- Node6 -->
<g id="node6" class="node"><title>Node6</title>
<g id="a_node6"><a xlink:href="../../d0/d5e/a00136.html#a1f848c3aa92042b2fa7d399ad31b0e33" target="_top" xlink:title="Constructor: initialize. ">
<polygon fill="white" stroke="black" points="308.5,-98 308.5,-128 445.5,-128 445.5,-98 308.5,-98"/>
<text text-anchor="start" x="316.5" y="-116" font-family="Helvetica,sans-Serif" font-size="10.00">stride::output::SummaryFile</text>
<text text-anchor="middle" x="377" y="-105" font-family="Helvetica,sans-Serif" font-size="10.00">::SummaryFile</text>
</a>
</g>
</g>
<!-- Node5&#45;&gt;Node6 -->
<g id="edge5" class="edge"><title>Node5&#45;&gt;Node6</title>
<path fill="none" stroke="midnightblue" d="M282.134,-113C290.846,-113 299.666,-113 308.233,-113"/>
<polygon fill="midnightblue" stroke="midnightblue" points="281.979,-109.5 271.979,-113 281.979,-116.5 281.979,-109.5"/>
</g>
<!-- Node8 -->
<g id="node8" class="node"><title>Node8</title>
<g id="a_node8"><a xlink:href="../../d5/d5b/a00135.html#ab2c1e70237152817647dded0f5906c6b" target="_top" xlink:title="Constructor: initialize. ">
<polygon fill="white" stroke="black" points="311.5,-49 311.5,-79 442.5,-79 442.5,-49 311.5,-49"/>
<text text-anchor="start" x="319.5" y="-67" font-family="Helvetica,sans-Serif" font-size="10.00">stride::output::PersonsFile</text>
<text text-anchor="middle" x="377" y="-56" font-family="Helvetica,sans-Serif" font-size="10.00">::PersonsFile</text>
</a>
</g>
</g>
<!-- Node7&#45;&gt;Node8 -->
<g id="edge7" class="edge"><title>Node7&#45;&gt;Node8</title>
<path fill="none" stroke="midnightblue" d="M278.837,-64C289.682,-64 300.768,-64 311.389,-64"/>
<polygon fill="midnightblue" stroke="midnightblue" points="278.536,-60.5001 268.536,-64 278.536,-67.5001 278.536,-60.5001"/>
</g>
</g>
</svg>
