<?xml version="1.0" encoding="UTF-8" standalone="no"?>
<!DOCTYPE svg PUBLIC "-//W3C//DTD SVG 1.1//EN"
 "http://www.w3.org/Graphics/SVG/1.1/DTD/svg11.dtd">
<!-- Generated by graphviz version 2.36.0 (20140111.2315)
 -->
<!-- Title: RunConfigManager.h Pages: 1 -->
<svg width="548pt" height="84pt"
 viewBox="0.00 0.00 548.00 84.00" xmlns="http://www.w3.org/2000/svg" xmlns:xlink="http://www.w3.org/1999/xlink">
<g id="graph0" class="graph" transform="scale(1 1) rotate(0) translate(4 80)">
<title>RunConfigManager.h</title>
<polygon fill="white" stroke="none" points="-4,4 -4,-80 544,-80 544,4 -4,4"/>
<!-- Node1 -->
<g id="node1" class="node"><title>Node1</title>
<polygon fill="#bfbfbf" stroke="black" points="249.5,-56.5 249.5,-75.5 358.5,-75.5 358.5,-56.5 249.5,-56.5"/>
<text text-anchor="middle" x="304" y="-63.5" font-family="Helvetica,sans-Serif" font-size="10.00">RunConfigManager.h</text>
</g>
<!-- Node2 -->
<g id="node2" class="node"><title>Node2</title>
<g id="a_node2"><a xlink:href="../../df/d17/a00231.html" target="_top" xlink:title="ConfigFileCalibrationRunner.cpp">
<polygon fill="white" stroke="black" points="0,-0.5 0,-19.5 158,-19.5 158,-0.5 0,-0.5"/>
<text text-anchor="middle" x="79" y="-7.5" font-family="Helvetica,sans-Serif" font-size="10.00">ConfigFileCalibrationRunner.cpp</text>
</a>
</g>
</g>
<!-- Node1&#45;&gt;Node2 -->
<g id="edge1" class="edge"><title>Node1&#45;&gt;Node2</title>
<path fill="none" stroke="midnightblue" d="M258.535,-54.0884C216.027,-43.8865 153.421,-28.8612 114.485,-19.5164"/>
<polygon fill="midnightblue" stroke="midnightblue" points="257.807,-57.5131 268.348,-56.4435 259.441,-50.7064 257.807,-57.5131"/>
</g>
<!-- Node3 -->
<g id="node3" class="node"><title>Node3</title>
<g id="a_node3"><a xlink:href="../../da/dee/a00383.html" target="_top" xlink:title="Core Population class. ">
<polygon fill="white" stroke="black" points="176.5,-0.5 176.5,-19.5 257.5,-19.5 257.5,-0.5 176.5,-0.5"/>
<text text-anchor="middle" x="217" y="-7.5" font-family="Helvetica,sans-Serif" font-size="10.00">Population.cpp</text>
</a>
</g>
</g>
<!-- Node1&#45;&gt;Node3 -->
<g id="edge2" class="edge"><title>Node1&#45;&gt;Node3</title>
<path fill="none" stroke="midnightblue" d="M281.284,-50.9005C265.331,-40.9986 244.503,-28.0705 230.943,-19.6545"/>
<polygon fill="midnightblue" stroke="midnightblue" points="279.68,-54.024 290.022,-56.324 283.371,-48.0765 279.68,-54.024"/>
</g>
<!-- Node4 -->
<g id="node4" class="node"><title>Node4</title>
<g id="a_node4"><a xlink:href="../../df/d73/a00358.html" target="_top" xlink:title="Main program: command line handling. ">
<polygon fill="white" stroke="black" points="276,-0.5 276,-19.5 332,-19.5 332,-0.5 276,-0.5"/>
<text text-anchor="middle" x="304" y="-7.5" font-family="Helvetica,sans-Serif" font-size="10.00">main.cpp</text>
</a>
</g>
</g>
<!-- Node1&#45;&gt;Node4 -->
<g id="edge3" class="edge"><title>Node1&#45;&gt;Node4</title>
<path fill="none" stroke="midnightblue" d="M304,-45.8045C304,-36.9102 304,-26.7798 304,-19.7511"/>
<polygon fill="midnightblue" stroke="midnightblue" points="300.5,-46.083 304,-56.083 307.5,-46.083 300.5,-46.083"/>
</g>
<!-- Node5 -->
<g id="node5" class="node"><title>Node5</title>
<g id="a_node5"><a xlink:href="../../d9/de6/a00404.html" target="_top" xlink:title="Implementation for the Simulator class. ">
<polygon fill="white" stroke="black" points="350.5,-0.5 350.5,-19.5 403.5,-19.5 403.5,-0.5 350.5,-0.5"/>
<text text-anchor="middle" x="377" y="-7.5" font-family="Helvetica,sans-Serif" font-size="10.00">Sim.cpp</text>
</a>
</g>
</g>
<!-- Node1&#45;&gt;Node5 -->
<g id="edge4" class="edge"><title>Node1&#45;&gt;Node5</title>
<path fill="none" stroke="midnightblue" d="M324.142,-50.1008C337.279,-40.3824 353.982,-28.0269 365.058,-19.8339"/>
<polygon fill="midnightblue" stroke="midnightblue" points="321.687,-47.5631 315.729,-56.324 325.85,-53.1907 321.687,-47.5631"/>
</g>
<!-- Node6 -->
<g id="node6" class="node"><title>Node6</title>
<g id="a_node6"><a xlink:href="../../d7/d93/a00397.html" target="_top" xlink:title="Implementation of ptree utils. ">
<polygon fill="white" stroke="black" points="421.5,-0.5 421.5,-19.5 540.5,-19.5 540.5,-0.5 421.5,-0.5"/>
<text text-anchor="middle" x="481" y="-7.5" font-family="Helvetica,sans-Serif" font-size="10.00">RunConfigManager.cpp</text>
</a>
</g>
</g>
<!-- Node1&#45;&gt;Node6 -->
<g id="edge5" class="edge"><title>Node1&#45;&gt;Node6</title>
<path fill="none" stroke="midnightblue" d="M341.903,-53.4363C375.275,-43.2551 423.101,-28.664 453.085,-19.5164"/>
<polygon fill="midnightblue" stroke="midnightblue" points="340.59,-50.1777 332.046,-56.4435 342.632,-56.8731 340.59,-50.1777"/>
</g>
</g>
</svg>
