<?xml version="1.0" encoding="UTF-8" standalone="no"?>
<!DOCTYPE svg PUBLIC "-//W3C//DTD SVG 1.1//EN"
 "http://www.w3.org/Graphics/SVG/1.1/DTD/svg11.dtd">
<!-- Generated by graphviz version 2.36.0 (20140111.2315)
 -->
<!-- Title: Launcher.h Pages: 1 -->
<svg width="354pt" height="96pt"
 viewBox="0.00 0.00 354.00 96.00" xmlns="http://www.w3.org/2000/svg" xmlns:xlink="http://www.w3.org/1999/xlink">
<g id="graph0" class="graph" transform="scale(1 1) rotate(0) translate(4 92)">
<title>Launcher.h</title>
<polygon fill="white" stroke="none" points="-4,4 -4,-92 350,-92 350,4 -4,4"/>
<!-- Node1 -->
<g id="node1" class="node"><title>Node1</title>
<polygon fill="#bfbfbf" stroke="black" points="129.5,-68.5 129.5,-87.5 194.5,-87.5 194.5,-68.5 129.5,-68.5"/>
<text text-anchor="middle" x="162" y="-75.5" font-family="Helvetica,sans-Serif" font-size="10.00">Launcher.h</text>
</g>
<!-- Node2 -->
<g id="node2" class="node"><title>Node2</title>
<polygon fill="white" stroke="#bfbfbf" points="-0.5,-1 -0.5,-31 100.5,-31 100.5,-1 -0.5,-1"/>
<text text-anchor="start" x="7.5" y="-19" font-family="Helvetica,sans-Serif" font-size="10.00">boost/property_tree</text>
<text text-anchor="middle" x="50" y="-8" font-family="Helvetica,sans-Serif" font-size="10.00">/ptree.hpp</text>
</g>
<!-- Node1&#45;&gt;Node2 -->
<g id="edge1" class="edge"><title>Node1&#45;&gt;Node2</title>
<path fill="none" stroke="midnightblue" d="M145.953,-68.4035C130.217,-59.9735 105.699,-46.8389 85.3865,-35.957"/>
<polygon fill="midnightblue" stroke="midnightblue" points="86.8638,-32.7779 76.3962,-31.1408 83.5582,-38.9483 86.8638,-32.7779"/>
</g>
<!-- Node3 -->
<g id="node3" class="node"><title>Node3</title>
<polygon fill="white" stroke="#bfbfbf" points="118.5,-6.5 118.5,-25.5 205.5,-25.5 205.5,-6.5 118.5,-6.5"/>
<text text-anchor="middle" x="162" y="-13.5" font-family="Helvetica,sans-Serif" font-size="10.00">QtCore/QObject</text>
</g>
<!-- Node1&#45;&gt;Node3 -->
<g id="edge2" class="edge"><title>Node1&#45;&gt;Node3</title>
<path fill="none" stroke="midnightblue" d="M162,-68.4035C162,-59.9381 162,-46.7283 162,-35.8199"/>
<polygon fill="midnightblue" stroke="midnightblue" points="165.5,-35.5806 162,-25.5806 158.5,-35.5806 165.5,-35.5806"/>
</g>
<!-- Node4 -->
<g id="node4" class="node"><title>Node4</title>
<polygon fill="white" stroke="#bfbfbf" points="224,-6.5 224,-25.5 346,-25.5 346,-6.5 224,-6.5"/>
<text text-anchor="middle" x="285" y="-13.5" font-family="Helvetica,sans-Serif" font-size="10.00">QtWidgets/QComboBox</text>
</g>
<!-- Node1&#45;&gt;Node4 -->
<g id="edge3" class="edge"><title>Node1&#45;&gt;Node4</title>
<path fill="none" stroke="midnightblue" d="M179.623,-68.4035C200.174,-58.3787 234.364,-41.7006 258.207,-30.0699"/>
<polygon fill="midnightblue" stroke="midnightblue" points="259.957,-33.1106 267.41,-25.5806 256.888,-26.8192 259.957,-33.1106"/>
</g>
</g>
</svg>
