<?xml version="1.0" encoding="UTF-8" standalone="no"?>
<!DOCTYPE svg PUBLIC "-//W3C//DTD SVG 1.1//EN"
 "http://www.w3.org/Graphics/SVG/1.1/DTD/svg11.dtd">
<!-- Generated by graphviz version 2.36.0 (20140111.2315)
 -->
<!-- Title: gengeopop::ReaderFactory::CreateCitiesReader Pages: 1 -->
<svg width="482pt" height="87pt"
 viewBox="0.00 0.00 482.00 87.00" xmlns="http://www.w3.org/2000/svg" xmlns:xlink="http://www.w3.org/1999/xlink">
<g id="graph0" class="graph" transform="scale(1 1) rotate(0) translate(4 83)">
<title>gengeopop::ReaderFactory::CreateCitiesReader</title>
<polygon fill="white" stroke="none" points="-4,4 -4,-83 478,-83 478,4 -4,4"/>
<!-- Node1 -->
<g id="node1" class="node"><title>Node1</title>
<polygon fill="#bfbfbf" stroke="black" points="0,-24 0,-54 134,-54 134,-24 0,-24"/>
<text text-anchor="start" x="8" y="-42" font-family="Helvetica,sans-Serif" font-size="10.00">gengeopop::ReaderFactory</text>
<text text-anchor="middle" x="67" y="-31" font-family="Helvetica,sans-Serif" font-size="10.00">::CreateCitiesReader</text>
</g>
<!-- Node2 -->
<g id="node2" class="node"><title>Node2</title>
<g id="a_node2"><a xlink:href="../../df/d03/a00062.html#a5bd351c7082a71cba781c129490e6755" target="_top" xlink:title="Create a CitiesReader based on an absolute Boost Filesystem Path pointing to the input file...">
<polygon fill="white" stroke="black" points="170,-49 170,-79 304,-79 304,-49 170,-49"/>
<text text-anchor="start" x="178" y="-67" font-family="Helvetica,sans-Serif" font-size="10.00">gengeopop::ReaderFactory</text>
<text text-anchor="middle" x="237" y="-56" font-family="Helvetica,sans-Serif" font-size="10.00">::CreateCitiesReader</text>
</a>
</g>
</g>
<!-- Node1&#45;&gt;Node2 -->
<g id="edge1" class="edge"><title>Node1&#45;&gt;Node2</title>
<path fill="none" stroke="midnightblue" d="M134.398,-48.8807C142.77,-50.1265 151.386,-51.4087 159.894,-52.6746"/>
<polygon fill="midnightblue" stroke="midnightblue" points="159.403,-56.1401 169.809,-54.1502 160.433,-49.2163 159.403,-56.1401"/>
</g>
<!-- Node4 -->
<g id="node4" class="node"><title>Node4</title>
<g id="a_node4"><a xlink:href="../../da/d01/a00153.html#aafd39e698c442fd0917915d085c9aa1a" target="_top" xlink:title="/// Return data dir (only relevant when use_install_dirs mode is active) ">
<polygon fill="white" stroke="black" points="188,-0 188,-30 286,-30 286,-0 188,-0"/>
<text text-anchor="start" x="196" y="-18" font-family="Helvetica,sans-Serif" font-size="10.00">stride::util::FileSys</text>
<text text-anchor="middle" x="237" y="-7" font-family="Helvetica,sans-Serif" font-size="10.00">::GetDataDir</text>
</a>
</g>
</g>
<!-- Node1&#45;&gt;Node4 -->
<g id="edge3" class="edge"><title>Node1&#45;&gt;Node4</title>
<path fill="none" stroke="midnightblue" d="M134.398,-29.5146C148.79,-27.4586 163.903,-25.2996 177.944,-23.2937"/>
<polygon fill="midnightblue" stroke="midnightblue" points="178.548,-26.743 187.953,-21.8639 177.558,-19.8134 178.548,-26.743"/>
</g>
<!-- Node3 -->
<g id="node3" class="node"><title>Node3</title>
<g id="a_node3"><a xlink:href="../../df/d03/a00062.html#a301c922d893444c635c375f4c0326568" target="_top" xlink:title="Create an istream based on the provided Boost Filesystem Path. ">
<polygon fill="white" stroke="black" points="340,-49 340,-79 474,-79 474,-49 340,-49"/>
<text text-anchor="start" x="348" y="-67" font-family="Helvetica,sans-Serif" font-size="10.00">gengeopop::ReaderFactory</text>
<text text-anchor="middle" x="407" y="-56" font-family="Helvetica,sans-Serif" font-size="10.00">::OpenFile</text>
</a>
</g>
</g>
<!-- Node2&#45;&gt;Node3 -->
<g id="edge2" class="edge"><title>Node2&#45;&gt;Node3</title>
<path fill="none" stroke="midnightblue" d="M304.398,-64C312.679,-64 321.199,-64 329.616,-64"/>
<polygon fill="midnightblue" stroke="midnightblue" points="329.809,-67.5001 339.809,-64 329.809,-60.5001 329.809,-67.5001"/>
</g>
<!-- Node5 -->
<g id="node5" class="node"><title>Node5</title>
<g id="a_node5"><a xlink:href="../../da/d01/a00153.html#a811a1d113f57785952045d9541c95db5" target="_top" xlink:title="Return paths. ">
<polygon fill="white" stroke="black" points="347,-5.5 347,-24.5 467,-24.5 467,-5.5 347,-5.5"/>
<text text-anchor="middle" x="407" y="-12.5" font-family="Helvetica,sans-Serif" font-size="10.00">stride::util::FileSys::Get</text>
</a>
</g>
</g>
<!-- Node4&#45;&gt;Node5 -->
<g id="edge4" class="edge"><title>Node4&#45;&gt;Node5</title>
<path fill="none" stroke="midnightblue" d="M286.142,-15C301.8,-15 319.504,-15 336.405,-15"/>
<polygon fill="midnightblue" stroke="midnightblue" points="336.8,-18.5001 346.8,-15 336.8,-11.5001 336.8,-18.5001"/>
</g>
</g>
</svg>
