<?xml version="1.0" encoding="UTF-8" standalone="no"?>
<!DOCTYPE svg PUBLIC "-//W3C//DTD SVG 1.1//EN"
 "http://www.w3.org/Graphics/SVG/1.1/DTD/svg11.dtd">
<!-- Generated by graphviz version 2.36.0 (20140111.2315)
 -->
<!-- Title: gengeopop::ReaderFactory::CreateSubMunicipalitiesReader Pages: 1 -->
<svg width="646pt" height="77pt"
 viewBox="0.00 0.00 646.00 77.00" xmlns="http://www.w3.org/2000/svg" xmlns:xlink="http://www.w3.org/1999/xlink">
<g id="graph0" class="graph" transform="scale(1 1) rotate(0) translate(4 73)">
<title>gengeopop::ReaderFactory::CreateSubMunicipalitiesReader</title>
<polygon fill="white" stroke="none" points="-4,4 -4,-73 642,-73 642,4 -4,4"/>
<!-- Node1 -->
<g id="node1" class="node"><title>Node1</title>
<polygon fill="#bfbfbf" stroke="black" points="0,-17 0,-47 160,-47 160,-17 0,-17"/>
<text text-anchor="start" x="8" y="-35" font-family="Helvetica,sans-Serif" font-size="10.00">gengeopop::ReaderFactory</text>
<text text-anchor="middle" x="80" y="-24" font-family="Helvetica,sans-Serif" font-size="10.00">::CreateSubMunicipalitiesReader</text>
</g>
<!-- Node2 -->
<g id="node2" class="node"><title>Node2</title>
<g id="a_node2"><a xlink:href="../../d0/d33/a00027.html#a5d80eb0492fba3112f7fb0571d386e30" target="_top" xlink:title="Reads the data files. ">
<polygon fill="white" stroke="black" points="196.5,-17 196.5,-47 361.5,-47 361.5,-17 196.5,-17"/>
<text text-anchor="start" x="204.5" y="-35" font-family="Helvetica,sans-Serif" font-size="10.00">gengeopop::GenGeoPopController</text>
<text text-anchor="middle" x="279" y="-24" font-family="Helvetica,sans-Serif" font-size="10.00">::ReadDataFiles</text>
</a>
</g>
</g>
<!-- Node1&#45;&gt;Node2 -->
<g id="edge1" class="edge"><title>Node1&#45;&gt;Node2</title>
<path fill="none" stroke="midnightblue" d="M170.365,-32C179.01,-32 187.75,-32 196.315,-32"/>
<polygon fill="midnightblue" stroke="midnightblue" points="170.276,-28.5001 160.276,-32 170.276,-35.5001 170.276,-28.5001"/>
</g>
<!-- Node3 -->
<g id="node3" class="node"><title>Node3</title>
<g id="a_node3"><a xlink:href="../../d4/d81/a00110.html#a1a9f0c9424522454bc5f99419734993c" target="_top" xlink:title="Creates a population by generating it. ">
<polygon fill="white" stroke="black" points="398,-39 398,-69 510,-69 510,-39 398,-39"/>
<text text-anchor="start" x="406" y="-57" font-family="Helvetica,sans-Serif" font-size="10.00">stride::GenPopBuilder</text>
<text text-anchor="middle" x="454" y="-46" font-family="Helvetica,sans-Serif" font-size="10.00">::Build</text>
</a>
</g>
</g>
<!-- Node2&#45;&gt;Node3 -->
<g id="edge2" class="edge"><title>Node2&#45;&gt;Node3</title>
<path fill="none" stroke="midnightblue" d="M371.743,-43.6668C380.64,-44.7982 389.463,-45.9201 397.833,-46.9845"/>
<polygon fill="midnightblue" stroke="midnightblue" points="372.049,-40.1775 361.687,-42.388 371.166,-47.1216 372.049,-40.1775"/>
</g>
<!-- Node5 -->
<g id="node5" class="node"><title>Node5</title>
<g id="a_node5"><a xlink:href="../../d3/dc9/a00355.html#a0ddf1224851353fc92bfbff6f499fa97" target="_top" xlink:title="main">
<polygon fill="white" stroke="black" points="435,-0.5 435,-19.5 473,-19.5 473,-0.5 435,-0.5"/>
<text text-anchor="middle" x="454" y="-7.5" font-family="Helvetica,sans-Serif" font-size="10.00">main</text>
</a>
</g>
</g>
<!-- Node2&#45;&gt;Node5 -->
<g id="edge4" class="edge"><title>Node2&#45;&gt;Node5</title>
<path fill="none" stroke="midnightblue" d="M371.676,-20.3418C395.815,-17.2721 419.414,-14.271 434.919,-12.2993"/>
<polygon fill="midnightblue" stroke="midnightblue" points="371.166,-16.8784 361.687,-21.612 372.049,-23.8225 371.166,-16.8784"/>
</g>
<!-- Node4 -->
<g id="node4" class="node"><title>Node4</title>
<g id="a_node4"><a xlink:href="../../d2/df5/a00137.html#ac9658f1a5fa801de6742a46efb85fb9c" target="_top" xlink:title="Create a Population for the given region parameters. ">
<polygon fill="white" stroke="black" points="546,-39 546,-69 638,-69 638,-39 546,-39"/>
<text text-anchor="start" x="554" y="-57" font-family="Helvetica,sans-Serif" font-size="10.00">stride::Population</text>
<text text-anchor="middle" x="592" y="-46" font-family="Helvetica,sans-Serif" font-size="10.00">::CreateRegion</text>
</a>
</g>
</g>
<!-- Node3&#45;&gt;Node4 -->
<g id="edge3" class="edge"><title>Node3&#45;&gt;Node4</title>
<path fill="none" stroke="midnightblue" d="M520.336,-54C528.922,-54 537.564,-54 545.714,-54"/>
<polygon fill="midnightblue" stroke="midnightblue" points="520.316,-50.5001 510.316,-54 520.316,-57.5001 520.316,-50.5001"/>
</g>
</g>
</svg>
