<?xml version="1.0" encoding="UTF-8" standalone="no"?>
<!DOCTYPE svg PUBLIC "-//W3C//DTD SVG 1.1//EN"
 "http://www.w3.org/Graphics/SVG/1.1/DTD/svg11.dtd">
<!-- Generated by graphviz version 2.36.0 (20140111.2315)
 -->
<!-- Title: gengeopop::ReaderFactory::CreateCitiesReader Pages: 1 -->
<svg width="492pt" height="104pt"
 viewBox="0.00 0.00 492.00 104.00" xmlns="http://www.w3.org/2000/svg" xmlns:xlink="http://www.w3.org/1999/xlink">
<g id="graph0" class="graph" transform="scale(1 1) rotate(0) translate(4 100)">
<title>gengeopop::ReaderFactory::CreateCitiesReader</title>
<polygon fill="white" stroke="none" points="-4,4 -4,-100 488,-100 488,4 -4,4"/>
<!-- Node1 -->
<g id="node1" class="node"><title>Node1</title>
<polygon fill="#bfbfbf" stroke="black" points="0,-41 0,-71 134,-71 134,-41 0,-41"/>
<text text-anchor="start" x="8" y="-59" font-family="Helvetica,sans-Serif" font-size="10.00">gengeopop::ReaderFactory</text>
<text text-anchor="middle" x="67" y="-48" font-family="Helvetica,sans-Serif" font-size="10.00">::CreateCitiesReader</text>
</g>
<!-- Node2 -->
<g id="node2" class="node"><title>Node2</title>
<g id="a_node2"><a xlink:href="../../df/d03/a00062.html#a76eb18fa73415d684668d13833ba13c1" target="_top" xlink:title="Create a CitiesReader based on the filename of the input file, relative to the data directory...">
<polygon fill="white" stroke="black" points="186,-66 186,-96 320,-96 320,-66 186,-66"/>
<text text-anchor="start" x="194" y="-84" font-family="Helvetica,sans-Serif" font-size="10.00">gengeopop::ReaderFactory</text>
<text text-anchor="middle" x="253" y="-73" font-family="Helvetica,sans-Serif" font-size="10.00">::CreateCitiesReader</text>
</a>
</g>
</g>
<!-- Node1&#45;&gt;Node2 -->
<g id="edge1" class="edge"><title>Node1&#45;&gt;Node2</title>
<path fill="none" stroke="midnightblue" d="M144.133,-66.3441C157.963,-68.2232 172.286,-70.1693 185.801,-72.0055"/>
<polygon fill="midnightblue" stroke="midnightblue" points="144.548,-62.8685 134.168,-64.9903 143.606,-69.8048 144.548,-62.8685"/>
</g>
<!-- Node3 -->
<g id="node3" class="node"><title>Node3</title>
<g id="a_node3"><a xlink:href="../../d0/d33/a00027.html#a5d80eb0492fba3112f7fb0571d386e30" target="_top" xlink:title="Reads the data files. ">
<polygon fill="white" stroke="black" points="170.5,-17 170.5,-47 335.5,-47 335.5,-17 170.5,-17"/>
<text text-anchor="start" x="178.5" y="-35" font-family="Helvetica,sans-Serif" font-size="10.00">gengeopop::GenGeoPopController</text>
<text text-anchor="middle" x="253" y="-24" font-family="Helvetica,sans-Serif" font-size="10.00">::ReadDataFiles</text>
</a>
</g>
</g>
<!-- Node1&#45;&gt;Node3 -->
<g id="edge2" class="edge"><title>Node1&#45;&gt;Node3</title>
<path fill="none" stroke="midnightblue" d="M144.204,-46.0603C152.845,-44.9333 161.677,-43.7812 170.384,-42.6456"/>
<polygon fill="midnightblue" stroke="midnightblue" points="143.632,-42.6053 134.168,-47.3694 144.537,-49.5465 143.632,-42.6053"/>
</g>
<!-- Node4 -->
<g id="node4" class="node"><title>Node4</title>
<g id="a_node4"><a xlink:href="../../dd/d6d/a00111.html#a788b0ff4e222be4a8ec8b598b99e5b8a" target="_top" xlink:title="Creates a population by generating it. ">
<polygon fill="white" stroke="black" points="372,-39 372,-69 484,-69 484,-39 372,-39"/>
<text text-anchor="start" x="380" y="-57" font-family="Helvetica,sans-Serif" font-size="10.00">stride::GenPopBuilder</text>
<text text-anchor="middle" x="428" y="-46" font-family="Helvetica,sans-Serif" font-size="10.00">::Build</text>
</a>
</g>
</g>
<!-- Node3&#45;&gt;Node4 -->
<g id="edge3" class="edge"><title>Node3&#45;&gt;Node4</title>
<path fill="none" stroke="midnightblue" d="M345.743,-43.6668C354.64,-44.7982 363.463,-45.9201 371.833,-46.9845"/>
<polygon fill="midnightblue" stroke="midnightblue" points="346.049,-40.1775 335.687,-42.388 345.166,-47.1216 346.049,-40.1775"/>
</g>
<!-- Node5 -->
<g id="node5" class="node"><title>Node5</title>
<g id="a_node5"><a xlink:href="../../d6/d9c/a00352.html#a0ddf1224851353fc92bfbff6f499fa97" target="_top" xlink:title="main">
<polygon fill="white" stroke="black" points="409,-0.5 409,-19.5 447,-19.5 447,-0.5 409,-0.5"/>
<text text-anchor="middle" x="428" y="-7.5" font-family="Helvetica,sans-Serif" font-size="10.00">main</text>
</a>
</g>
</g>
<!-- Node3&#45;&gt;Node5 -->
<g id="edge4" class="edge"><title>Node3&#45;&gt;Node5</title>
<path fill="none" stroke="midnightblue" d="M345.676,-20.3418C369.815,-17.2721 393.414,-14.271 408.919,-12.2993"/>
<polygon fill="midnightblue" stroke="midnightblue" points="345.166,-16.8784 335.687,-21.612 346.049,-23.8225 345.166,-16.8784"/>
</g>
</g>
</svg>
