<?xml version="1.0" encoding="UTF-8" standalone="no"?>
<!DOCTYPE svg PUBLIC "-//W3C//DTD SVG 1.1//EN"
 "http://www.w3.org/Graphics/SVG/1.1/DTD/svg11.dtd">
<!-- Generated by graphviz version 2.36.0 (20140111.2315)
 -->
<!-- Title: gengeopop::ReaderFactory::CreateSubMunicipalitiesReader Pages: 1 -->
<svg width="458pt" height="38pt"
 viewBox="0.00 0.00 458.00 38.00" xmlns="http://www.w3.org/2000/svg" xmlns:xlink="http://www.w3.org/1999/xlink">
<g id="graph0" class="graph" transform="scale(1 1) rotate(0) translate(4 34)">
<title>gengeopop::ReaderFactory::CreateSubMunicipalitiesReader</title>
<polygon fill="white" stroke="none" points="-4,4 -4,-34 454,-34 454,4 -4,4"/>
<!-- Node1 -->
<g id="node1" class="node"><title>Node1</title>
<polygon fill="#bfbfbf" stroke="black" points="0,-0 0,-30 160,-30 160,-0 0,-0"/>
<text text-anchor="start" x="8" y="-18" font-family="Helvetica,sans-Serif" font-size="10.00">gengeopop::ReaderFactory</text>
<text text-anchor="middle" x="80" y="-7" font-family="Helvetica,sans-Serif" font-size="10.00">::CreateSubMunicipalitiesReader</text>
</g>
<!-- Node2 -->
<g id="node2" class="node"><title>Node2</title>
<g id="a_node2"><a xlink:href="../../da/d01/a00153.html#aafd39e698c442fd0917915d085c9aa1a" target="_top" xlink:title="/// Return data dir (only relevant when use_install_dirs mode is active) ">
<polygon fill="white" stroke="black" points="196,-0 196,-30 294,-30 294,-0 196,-0"/>
<text text-anchor="start" x="204" y="-18" font-family="Helvetica,sans-Serif" font-size="10.00">stride::util::FileSys</text>
<text text-anchor="middle" x="245" y="-7" font-family="Helvetica,sans-Serif" font-size="10.00">::GetDataDir</text>
</a>
</g>
</g>
<!-- Node1&#45;&gt;Node2 -->
<g id="edge1" class="edge"><title>Node1&#45;&gt;Node2</title>
<path fill="none" stroke="midnightblue" d="M160.113,-15C168.668,-15 177.258,-15 185.505,-15"/>
<polygon fill="midnightblue" stroke="midnightblue" points="185.741,-18.5001 195.741,-15 185.741,-11.5001 185.741,-18.5001"/>
</g>
<!-- Node3 -->
<g id="node3" class="node"><title>Node3</title>
<g id="a_node3"><a xlink:href="../../da/d01/a00153.html#a811a1d113f57785952045d9541c95db5" target="_top" xlink:title="Return paths. ">
<polygon fill="white" stroke="black" points="330,-5.5 330,-24.5 450,-24.5 450,-5.5 330,-5.5"/>
<text text-anchor="middle" x="390" y="-12.5" font-family="Helvetica,sans-Serif" font-size="10.00">stride::util::FileSys::Get</text>
</a>
</g>
</g>
<!-- Node2&#45;&gt;Node3 -->
<g id="edge2" class="edge"><title>Node2&#45;&gt;Node3</title>
<path fill="none" stroke="midnightblue" d="M294.015,-15C302.296,-15 311.05,-15 319.759,-15"/>
<polygon fill="midnightblue" stroke="midnightblue" points="319.932,-18.5001 329.932,-15 319.932,-11.5001 319.932,-18.5001"/>
</g>
</g>
</svg>
