<?xml version="1.0" encoding="UTF-8" standalone="no"?>
<!DOCTYPE svg PUBLIC "-//W3C//DTD SVG 1.1//EN"
 "http://www.w3.org/Graphics/SVG/1.1/DTD/svg11.dtd">
<!-- Generated by graphviz version 2.36.0 (20140111.2315)
 -->
<!-- Title: stride::Belief Pages: 1 -->
<!--zoomable 248 -->
<svg id="main" version="1.1" xmlns="http://www.w3.org/2000/svg" xmlns:xlink="http://www.w3.org/1999/xlink" xml:space="preserve" onload="init(evt)">
<style type="text/css"><![CDATA[
.edge:hover path { stroke: red; }
.edge:hover polygon { stroke: red; fill: red; }
]]></style>
<script type="text/javascript"><![CDATA[
var edges = document.getElementsByTagName('g');
if (edges && edges.length) {
  for (var i=0;i<edges.length;i++) {
    if (edges[i].id.substr(0,4)=='edge') {
      edges[i].setAttribute('class','edge');
    }
  }
}
]]></script>
        <defs>
                <circle id="rim" cx="0" cy="0" r="7"/>
                <circle id="rim2" cx="0" cy="0" r="3.5"/>
                <g id="zoomPlus">
                        <use xlink:href="#rim" fill="#404040">
                                <set attributeName="fill" to="#808080" begin="zoomplus.mouseover" end="zoomplus.mouseout"/>
                        </use>
                        <path d="M-4,0h8M0,-4v8" fill="none" stroke="white" stroke-width="1.5" pointer-events="none"/>
                </g>
                <g id="zoomMin">
                        <use xlink:href="#rim" fill="#404040">
                                <set attributeName="fill" to="#808080" begin="zoomminus.mouseover" end="zoomminus.mouseout"/>
                        </use>
                        <path d="M-4,0h8" fill="none" stroke="white" stroke-width="1.5" pointer-events="none"/>
                </g>
                <g id="dirArrow">
                        <path fill="none" stroke="white" stroke-width="1.5" d="M0,-3.0v7 M-2.5,-0.5L0,-3.0L2.5,-0.5"/>
                </g>
               <g id="resetDef">
                       <use xlink:href="#rim2" fill="#404040">
                               <set attributeName="fill" to="#808080" begin="reset.mouseover" end="reset.mouseout"/>
                       </use>
               </g>
        </defs>

<script type="text/javascript">
var viewWidth = 549;
var viewHeight = 248;
var sectionId = 'dynsection-0';
</script>
<script xlink:href="../../svgpan.js"/>
<svg id="graph" class="graph">
<g id="viewport">
<title>stride::Belief</title>
<polygon fill="white" stroke="none" points="-4,4 -4,-244 545,-244 545,4 -4,4"/>
<!-- Node1 -->
<g id="node1" class="node"><title>Node1</title>
<polygon fill="#bfbfbf" stroke="black" points="239,-160.5 239,-239.5 325,-239.5 325,-160.5 239,-160.5"/>
<text text-anchor="middle" x="282" y="-227.5" font-family="Helvetica,sans-Serif" font-size="10.00">stride::Belief</text>
<polyline fill="none" stroke="black" points="239,-220.5 325,-220.5 "/>
<text text-anchor="middle" x="282" y="-208.5" font-family="Helvetica,sans-Serif" font-size="10.00"> </text>
<polyline fill="none" stroke="black" points="239,-201.5 325,-201.5 "/>
<text text-anchor="start" x="247" y="-189.5" font-family="Helvetica,sans-Serif" font-size="10.00">+ Belief()</text>
<text text-anchor="start" x="247" y="-178.5" font-family="Helvetica,sans-Serif" font-size="10.00">+ ~Belief()</text>
<text text-anchor="start" x="247" y="-167.5" font-family="Helvetica,sans-Serif" font-size="10.00">+ HasAdopted()</text>
</g>
<!-- Node2 -->
<g id="node2" class="node"><title>Node2</title>
<g id="a_node2"><a xlink:href="../../db/d57/a00112.html" target="_top" xlink:title="{stride::HBM\n|&#45; m_num_contacts\l&#45; m_num_contacts_infected\l&#45; m_num_contacts_adopted\l&#45; m_perceived_severity\l&#45; m_perceived_susceptibility\l&#45; m_perceived_benefit\l&#45; m_perceived_barriers\l|+ HBM()\l}">
<polygon fill="white" stroke="black" points="0,-0.5 0,-123.5 140,-123.5 140,-0.5 0,-0.5"/>
<text text-anchor="middle" x="70" y="-111.5" font-family="Helvetica,sans-Serif" font-size="10.00">stride::HBM</text>
<polyline fill="none" stroke="black" points="0,-104.5 140,-104.5 "/>
<text text-anchor="start" x="8" y="-92.5" font-family="Helvetica,sans-Serif" font-size="10.00">&#45; m_num_contacts</text>
<text text-anchor="start" x="8" y="-81.5" font-family="Helvetica,sans-Serif" font-size="10.00">&#45; m_num_contacts_infected</text>
<text text-anchor="start" x="8" y="-70.5" font-family="Helvetica,sans-Serif" font-size="10.00">&#45; m_num_contacts_adopted</text>
<text text-anchor="start" x="8" y="-59.5" font-family="Helvetica,sans-Serif" font-size="10.00">&#45; m_perceived_severity</text>
<text text-anchor="start" x="8" y="-48.5" font-family="Helvetica,sans-Serif" font-size="10.00">&#45; m_perceived_susceptibility</text>
<text text-anchor="start" x="8" y="-37.5" font-family="Helvetica,sans-Serif" font-size="10.00">&#45; m_perceived_benefit</text>
<text text-anchor="start" x="8" y="-26.5" font-family="Helvetica,sans-Serif" font-size="10.00">&#45; m_perceived_barriers</text>
<polyline fill="none" stroke="black" points="0,-19.5 140,-19.5 "/>
<text text-anchor="start" x="8" y="-7.5" font-family="Helvetica,sans-Serif" font-size="10.00">+ HBM()</text>
</a>
</g>
</g>
<!-- Node1&#45;&gt;Node2 -->
<g id="edge1" class="edge"><title>Node1&#45;&gt;Node2</title>
<path fill="none" stroke="midnightblue" d="M229.886,-171.877C204.911,-158.312 174.875,-141.156 149,-124 146.112,-122.085 143.192,-120.097 140.265,-118.058"/>
<polygon fill="none" stroke="midnightblue" points="228.378,-175.041 238.841,-176.706 231.7,-168.879 228.378,-175.041"/>
</g>
<!-- Node3 -->
<g id="node3" class="node"><title>Node3</title>
<g id="a_node3"><a xlink:href="../../d2/da3/a00115.html" target="_top" xlink:title="{stride::Imitation\n|&#45; m_accept\l&#45; m_accept_threshold\l&#45; m_no_accept_threshold\l|+ Imitation()\l+ Imitation()\l+ HasAdopted()\l}">
<polygon fill="white" stroke="black" points="158,-11.5 158,-112.5 284,-112.5 284,-11.5 158,-11.5"/>
<text text-anchor="middle" x="221" y="-100.5" font-family="Helvetica,sans-Serif" font-size="10.00">stride::Imitation</text>
<polyline fill="none" stroke="black" points="158,-93.5 284,-93.5 "/>
<text text-anchor="start" x="166" y="-81.5" font-family="Helvetica,sans-Serif" font-size="10.00">&#45; m_accept</text>
<text text-anchor="start" x="166" y="-70.5" font-family="Helvetica,sans-Serif" font-size="10.00">&#45; m_accept_threshold</text>
<text text-anchor="start" x="166" y="-59.5" font-family="Helvetica,sans-Serif" font-size="10.00">&#45; m_no_accept_threshold</text>
<polyline fill="none" stroke="black" points="158,-52.5 284,-52.5 "/>
<text text-anchor="start" x="166" y="-40.5" font-family="Helvetica,sans-Serif" font-size="10.00">+ Imitation()</text>
<text text-anchor="start" x="166" y="-29.5" font-family="Helvetica,sans-Serif" font-size="10.00">+ Imitation()</text>
<text text-anchor="start" x="166" y="-18.5" font-family="Helvetica,sans-Serif" font-size="10.00">+ HasAdopted()</text>
</a>
</g>
</g>
<!-- Node1&#45;&gt;Node3 -->
<g id="edge2" class="edge"><title>Node1&#45;&gt;Node3</title>
<path fill="none" stroke="midnightblue" d="M260.534,-151.142C254.979,-138.757 248.985,-125.392 243.384,-112.905"/>
<polygon fill="none" stroke="midnightblue" points="257.397,-152.7 264.683,-160.392 263.784,-149.835 257.397,-152.7"/>
</g>
<!-- Node4 -->
<g id="node4" class="node"><title>Node4</title>
<g id="a_node4"><a xlink:href="../../d9/d47/a00129.html" target="_top" xlink:title="No beliefs w.r.t vaccination. ">
<polygon fill="white" stroke="black" points="302,-33.5 302,-90.5 386,-90.5 386,-33.5 302,-33.5"/>
<text text-anchor="middle" x="344" y="-78.5" font-family="Helvetica,sans-Serif" font-size="10.00">stride::NoBelief</text>
<polyline fill="none" stroke="black" points="302,-71.5 386,-71.5 "/>
<text text-anchor="middle" x="344" y="-59.5" font-family="Helvetica,sans-Serif" font-size="10.00"> </text>
<polyline fill="none" stroke="black" points="302,-52.5 386,-52.5 "/>
<text text-anchor="start" x="310" y="-40.5" font-family="Helvetica,sans-Serif" font-size="10.00">+ NoBelief()</text>
</a>
</g>
</g>
<!-- Node1&#45;&gt;Node4 -->
<g id="edge3" class="edge"><title>Node1&#45;&gt;Node4</title>
<path fill="none" stroke="midnightblue" d="M303.859,-151.051C313.037,-130.918 323.39,-108.209 331.283,-90.8961"/>
<polygon fill="none" stroke="midnightblue" points="300.564,-149.841 299.601,-160.392 306.934,-152.744 300.564,-149.841"/>
</g>
<!-- Node5 -->
<g id="node5" class="node"><title>Node5</title>
<g id="a_node5"><a xlink:href="../../d5/da7/a00144.html" target="_top" xlink:title="{stride::Threshold\n|&#45; m_is_aware\l&#45; m_num_contacts\l&#45; m_num_contacts_infected\l&#45; m_num_contacts_adopted\l&#45; m_threshold_infected\l&#45; m_threshold_adopted\l|+ Threshold()\l}">
<polygon fill="white" stroke="black" points="404.5,-6 404.5,-118 541.5,-118 541.5,-6 404.5,-6"/>
<text text-anchor="middle" x="473" y="-106" font-family="Helvetica,sans-Serif" font-size="10.00">stride::Threshold</text>
<polyline fill="none" stroke="black" points="404.5,-99 541.5,-99 "/>
<text text-anchor="start" x="412.5" y="-87" font-family="Helvetica,sans-Serif" font-size="10.00">&#45; m_is_aware</text>
<text text-anchor="start" x="412.5" y="-76" font-family="Helvetica,sans-Serif" font-size="10.00">&#45; m_num_contacts</text>
<text text-anchor="start" x="412.5" y="-65" font-family="Helvetica,sans-Serif" font-size="10.00">&#45; m_num_contacts_infected</text>
<text text-anchor="start" x="412.5" y="-54" font-family="Helvetica,sans-Serif" font-size="10.00">&#45; m_num_contacts_adopted</text>
<text text-anchor="start" x="412.5" y="-43" font-family="Helvetica,sans-Serif" font-size="10.00">&#45; m_threshold_infected</text>
<text text-anchor="start" x="412.5" y="-32" font-family="Helvetica,sans-Serif" font-size="10.00">&#45; m_threshold_adopted</text>
<polyline fill="none" stroke="black" points="404.5,-25 541.5,-25 "/>
<text text-anchor="start" x="412.5" y="-13" font-family="Helvetica,sans-Serif" font-size="10.00">+ Threshold()</text>
</a>
</g>
</g>
<!-- Node1&#45;&gt;Node5 -->
<g id="edge4" class="edge"><title>Node1&#45;&gt;Node5</title>
<path fill="none" stroke="midnightblue" d="M333.61,-165.49C352.771,-152.776 374.564,-137.987 394,-124 397.376,-121.571 400.812,-119.061 404.27,-116.507"/>
<polygon fill="none" stroke="midnightblue" points="331.422,-162.741 325.01,-171.176 335.282,-168.581 331.422,-162.741"/>
</g>
</g>
</svg>
        <g id="navigator" transform="translate(0 0)" fill="#404254">
                <rect fill="#f2f5e9" fill-opacity="0.5" stroke="#606060" stroke-width=".5" x="0" y="0" width="60" height="60"/>
                <use id="zoomplus" xlink:href="#zoomPlus" x="17" y="9" onmousedown="handleZoom(evt,'in')"/>
                <use id="zoomminus" xlink:href="#zoomMin" x="42" y="9" onmousedown="handleZoom(evt,'out')"/>
                <use id="reset" xlink:href="#resetDef" x="30" y="36" onmousedown="handleReset()"/>
                <g id="arrowUp" xlink:href="#dirArrow" transform="translate(30 24)" onmousedown="handlePan(0,-1)">
                  <use xlink:href="#rim" fill="#404040">
                        <set attributeName="fill" to="#808080" begin="arrowUp.mouseover" end="arrowUp.mouseout"/>
                  </use>
                  <path fill="none" stroke="white" stroke-width="1.5" d="M0,-3.0v7 M-2.5,-0.5L0,-3.0L2.5,-0.5"/>
                </g>
                <g id="arrowRight" xlink:href="#dirArrow" transform="rotate(90) translate(36 -43)" onmousedown="handlePan(1,0)">
                  <use xlink:href="#rim" fill="#404040">
                        <set attributeName="fill" to="#808080" begin="arrowRight.mouseover" end="arrowRight.mouseout"/>
                  </use>
                  <path fill="none" stroke="white" stroke-width="1.5" d="M0,-3.0v7 M-2.5,-0.5L0,-3.0L2.5,-0.5"/>
                </g>
                <g id="arrowDown" xlink:href="#dirArrow" transform="rotate(180) translate(-30 -48)" onmousedown="handlePan(0,1)">
                  <use xlink:href="#rim" fill="#404040">
                        <set attributeName="fill" to="#808080" begin="arrowDown.mouseover" end="arrowDown.mouseout"/>
                  </use>
                  <path fill="none" stroke="white" stroke-width="1.5" d="M0,-3.0v7 M-2.5,-0.5L0,-3.0L2.5,-0.5"/>
                </g>
                <g id="arrowLeft" xlink:href="#dirArrow" transform="rotate(270) translate(-36 17)" onmousedown="handlePan(-1,0)">
                  <use xlink:href="#rim" fill="#404040">
                        <set attributeName="fill" to="#808080" begin="arrowLeft.mouseover" end="arrowLeft.mouseout"/>
                  </use>
                  <path fill="none" stroke="white" stroke-width="1.5" d="M0,-3.0v7 M-2.5,-0.5L0,-3.0L2.5,-0.5"/>
                </g>
        </g>
        <svg viewBox="0 0 15 15" width="100%" height="30px" preserveAspectRatio="xMaxYMin meet">
         <g id="arrow_out" transform="scale(0.3 0.3)">
          <a xlink:href="a01161_org.svg" target="_base">
           <rect id="button" ry="5" rx="5" y="6" x="6" height="38" width="38"
                fill="#f2f5e9" fill-opacity="0.5" stroke="#606060" stroke-width="1.0"/>
           <path id="arrow"
             d="M 11.500037,31.436501 C 11.940474,20.09759 22.043105,11.32322 32.158766,21.979434 L 37.068811,17.246167 C 37.068811,17.246167 37.088388,32 37.088388,32 L 22.160133,31.978069 C 22.160133,31.978069 26.997745,27.140456 26.997745,27.140456 C 18.528582,18.264221 13.291696,25.230495 11.500037,31.436501 z"
             style="fill:#404040;"/>
          </a>
         </g>
        </svg>
</svg>
