<?xml version="1.0" encoding="UTF-8" standalone="no"?>
<!DOCTYPE svg PUBLIC "-//W3C//DTD SVG 1.1//EN"
 "http://www.w3.org/Graphics/SVG/1.1/DTD/svg11.dtd">
<!-- Generated by graphviz version 2.36.0 (20140111.2315)
 -->
<!-- Title: ContactLogMode.cpp Pages: 1 -->
<svg width="306pt" height="140pt"
 viewBox="0.00 0.00 306.00 140.00" xmlns="http://www.w3.org/2000/svg" xmlns:xlink="http://www.w3.org/1999/xlink">
<g id="graph0" class="graph" transform="scale(1 1) rotate(0) translate(4 136)">
<title>ContactLogMode.cpp</title>
<polygon fill="white" stroke="none" points="-4,4 -4,-136 302,-136 302,4 -4,4"/>
<!-- Node1 -->
<g id="node1" class="node"><title>Node1</title>
<polygon fill="#bfbfbf" stroke="black" points="126,-112.5 126,-131.5 236,-131.5 236,-112.5 126,-112.5"/>
<text text-anchor="middle" x="181" y="-119.5" font-family="Helvetica,sans-Serif" font-size="10.00">ContactLogMode.cpp</text>
</g>
<!-- Node2 -->
<g id="node2" class="node"><title>Node2</title>
<g id="a_node2"><a xlink:href="../../da/d2e/a00238.html" target="_top" xlink:title="Header for the ContactLogMode class. ">
<polygon fill="white" stroke="black" points="-0.5,-56.5 -0.5,-75.5 98.5,-75.5 98.5,-56.5 -0.5,-56.5"/>
<text text-anchor="middle" x="49" y="-63.5" font-family="Helvetica,sans-Serif" font-size="10.00">ContactLogMode.h</text>
</a>
</g>
</g>
<!-- Node1&#45;&gt;Node2 -->
<g id="edge1" class="edge"><title>Node1&#45;&gt;Node2</title>
<path fill="none" stroke="midnightblue" d="M160.084,-112.444C138.264,-103.517 103.85,-89.4387 79.1078,-79.3168"/>
<polygon fill="midnightblue" stroke="midnightblue" points="80.3987,-76.0634 69.8179,-75.5164 77.7482,-82.5422 80.3987,-76.0634"/>
</g>
<!-- Node4 -->
<g id="node4" class="node"><title>Node4</title>
<polygon fill="white" stroke="#bfbfbf" points="116.5,-56.5 116.5,-75.5 245.5,-75.5 245.5,-56.5 116.5,-56.5"/>
<text text-anchor="middle" x="181" y="-63.5" font-family="Helvetica,sans-Serif" font-size="10.00">boost/algorithm/string.hpp</text>
</g>
<!-- Node1&#45;&gt;Node4 -->
<g id="edge3" class="edge"><title>Node1&#45;&gt;Node4</title>
<path fill="none" stroke="midnightblue" d="M181,-112.083C181,-105.006 181,-94.8611 181,-85.9865"/>
<polygon fill="midnightblue" stroke="midnightblue" points="184.5,-85.751 181,-75.7511 177.5,-85.7511 184.5,-85.751"/>
</g>
<!-- Node5 -->
<g id="node5" class="node"><title>Node5</title>
<polygon fill="white" stroke="#bfbfbf" points="263.5,-56.5 263.5,-75.5 298.5,-75.5 298.5,-56.5 263.5,-56.5"/>
<text text-anchor="middle" x="281" y="-63.5" font-family="Helvetica,sans-Serif" font-size="10.00">map</text>
</g>
<!-- Node1&#45;&gt;Node5 -->
<g id="edge4" class="edge"><title>Node1&#45;&gt;Node5</title>
<path fill="none" stroke="midnightblue" d="M197.067,-112.324C212.958,-103.743 237.507,-90.486 255.958,-80.5224"/>
<polygon fill="midnightblue" stroke="midnightblue" points="257.837,-83.4857 264.973,-75.6545 254.511,-77.3264 257.837,-83.4857"/>
</g>
<!-- Node3 -->
<g id="node3" class="node"><title>Node3</title>
<polygon fill="white" stroke="#bfbfbf" points="28.5,-0.5 28.5,-19.5 69.5,-19.5 69.5,-0.5 28.5,-0.5"/>
<text text-anchor="middle" x="49" y="-7.5" font-family="Helvetica,sans-Serif" font-size="10.00">string</text>
</g>
<!-- Node2&#45;&gt;Node3 -->
<g id="edge2" class="edge"><title>Node2&#45;&gt;Node3</title>
<path fill="none" stroke="midnightblue" d="M49,-56.083C49,-49.0059 49,-38.8611 49,-29.9865"/>
<polygon fill="midnightblue" stroke="midnightblue" points="52.5001,-29.751 49,-19.7511 45.5001,-29.7511 52.5001,-29.751"/>
</g>
</g>
</svg>
