<?xml version="1.0" encoding="UTF-8" standalone="no"?>
<!DOCTYPE svg PUBLIC "-//W3C//DTD SVG 1.1//EN"
 "http://www.w3.org/Graphics/SVG/1.1/DTD/svg11.dtd">
<!-- Generated by graphviz version 2.36.0 (20140111.2315)
 -->
<!-- Title: ConfigFileCalibrationRunner.h Pages: 1 -->
<svg width="240pt" height="84pt"
 viewBox="0.00 0.00 240.00 84.00" xmlns="http://www.w3.org/2000/svg" xmlns:xlink="http://www.w3.org/1999/xlink">
<g id="graph0" class="graph" transform="scale(1 1) rotate(0) translate(4 80)">
<title>ConfigFileCalibrationRunner.h</title>
<polygon fill="white" stroke="none" points="-4,4 -4,-80 236,-80 236,4 -4,4"/>
<!-- Node1 -->
<g id="node1" class="node"><title>Node1</title>
<polygon fill="#bfbfbf" stroke="black" points="67.5,-56.5 67.5,-75.5 214.5,-75.5 214.5,-56.5 67.5,-56.5"/>
<text text-anchor="middle" x="141" y="-63.5" font-family="Helvetica,sans-Serif" font-size="10.00">ConfigFileCalibrationRunner.h</text>
</g>
<!-- Node2 -->
<g id="node2" class="node"><title>Node2</title>
<g id="a_node2"><a xlink:href="../../df/d17/a00231.html" target="_top" xlink:title="ConfigFileCalibrationRunner.cpp">
<polygon fill="white" stroke="black" points="0,-0.5 0,-19.5 158,-19.5 158,-0.5 0,-0.5"/>
<text text-anchor="middle" x="79" y="-7.5" font-family="Helvetica,sans-Serif" font-size="10.00">ConfigFileCalibrationRunner.cpp</text>
</a>
</g>
</g>
<!-- Node1&#45;&gt;Node2 -->
<g id="edge1" class="edge"><title>Node1&#45;&gt;Node2</title>
<path fill="none" stroke="midnightblue" d="M123.246,-49.5372C112.192,-39.9087 98.3685,-27.8694 89.1426,-19.8339"/>
<polygon fill="midnightblue" stroke="midnightblue" points="121.199,-52.3954 131.039,-56.324 125.797,-47.1168 121.199,-52.3954"/>
</g>
<!-- Node3 -->
<g id="node3" class="node"><title>Node3</title>
<g id="a_node3"><a xlink:href="../../d0/dc3/a00354.html" target="_top" xlink:title="main.cpp">
<polygon fill="white" stroke="black" points="176,-0.5 176,-19.5 232,-19.5 232,-0.5 176,-0.5"/>
<text text-anchor="middle" x="204" y="-7.5" font-family="Helvetica,sans-Serif" font-size="10.00">main.cpp</text>
</a>
</g>
</g>
<!-- Node1&#45;&gt;Node3 -->
<g id="edge2" class="edge"><title>Node1&#45;&gt;Node3</title>
<path fill="none" stroke="midnightblue" d="M159.04,-49.5372C170.273,-39.9087 184.319,-27.8694 193.694,-19.8339"/>
<polygon fill="midnightblue" stroke="midnightblue" points="156.437,-47.1586 151.122,-56.324 160.992,-52.4734 156.437,-47.1586"/>
</g>
</g>
</svg>
