<?xml version="1.0" encoding="UTF-8" standalone="no"?>
<!DOCTYPE svg PUBLIC "-//W3C//DTD SVG 1.1//EN"
 "http://www.w3.org/Graphics/SVG/1.1/DTD/svg11.dtd">
<!-- Generated by graphviz version 2.36.0 (20140111.2315)
 -->
<!-- Title: stride::viewers::PersonsViewer Pages: 1 -->
<svg width="251pt" height="742pt"
 viewBox="0.00 0.00 251.00 742.00" xmlns="http://www.w3.org/2000/svg" xmlns:xlink="http://www.w3.org/1999/xlink">
<g id="graph0" class="graph" transform="scale(1 1) rotate(0) translate(4 738)">
<title>stride::viewers::PersonsViewer</title>
<polygon fill="white" stroke="none" points="-4,4 -4,-738 247,-738 247,4 -4,4"/>
<!-- Node1 -->
<g id="node1" class="node"><title>Node1</title>
<polygon fill="#bfbfbf" stroke="black" points="86,-0.5 86,-79.5 208,-79.5 208,-0.5 86,-0.5"/>
<text text-anchor="start" x="94" y="-67.5" font-family="Helvetica,sans-Serif" font-size="10.00">stride::viewers::Persons</text>
<text text-anchor="middle" x="147" y="-56.5" font-family="Helvetica,sans-Serif" font-size="10.00">Viewer</text>
<polyline fill="none" stroke="black" points="86,-49.5 208,-49.5 "/>
<text text-anchor="middle" x="147" y="-37.5" font-family="Helvetica,sans-Serif" font-size="10.00"> </text>
<polyline fill="none" stroke="black" points="86,-30.5 208,-30.5 "/>
<text text-anchor="start" x="94" y="-18.5" font-family="Helvetica,sans-Serif" font-size="10.00">+ PersonsViewer()</text>
<text text-anchor="start" x="94" y="-7.5" font-family="Helvetica,sans-Serif" font-size="10.00">+ Update()</text>
</g>
<!-- Node2 -->
<g id="node2" class="node"><title>Node2</title>
<g id="a_node2"><a xlink:href="../../d5/d5b/a00135.html" target="_top" xlink:title="Produces a file with daily cases count. ">
<polygon fill="white" stroke="black" points="-0.5,-129 -0.5,-219 130.5,-219 130.5,-129 -0.5,-129"/>
<text text-anchor="middle" x="65" y="-207" font-family="Helvetica,sans-Serif" font-size="10.00">stride::output::PersonsFile</text>
<polyline fill="none" stroke="black" points="-0.5,-200 130.5,-200 "/>
<text text-anchor="middle" x="65" y="-188" font-family="Helvetica,sans-Serif" font-size="10.00"> </text>
<polyline fill="none" stroke="black" points="-0.5,-181 130.5,-181 "/>
<text text-anchor="start" x="7.5" y="-169" font-family="Helvetica,sans-Serif" font-size="10.00">+ PersonsFile()</text>
<text text-anchor="start" x="7.5" y="-158" font-family="Helvetica,sans-Serif" font-size="10.00">+ ~PersonsFile()</text>
<text text-anchor="start" x="7.5" y="-147" font-family="Helvetica,sans-Serif" font-size="10.00">+ Print()</text>
<text text-anchor="start" x="7.5" y="-136" font-family="Helvetica,sans-Serif" font-size="10.00">&#45; Initialize()</text>
</a>
</g>
</g>
<!-- Node2&#45;&gt;Node1 -->
<g id="edge1" class="edge"><title>Node2&#45;&gt;Node1</title>
<path fill="none" stroke="#404040" d="M76.7304,-128.68C80.4713,-118.207 85.1894,-107.369 91,-98 92.8507,-95.0158 94.883,-92.0645 97.0427,-89.1687"/>
<polygon fill="none" stroke="#404040" points="97.2567,-88.9039 97.9164,-81.723 104.799,-79.5701 104.139,-86.7509 97.2567,-88.9039"/>
<text text-anchor="middle" x="127.5" y="-101.5" font-family="Helvetica,sans-Serif" font-size="10.00"> &#45;m_persons_file</text>
</g>
<!-- Node3 -->
<g id="node3" class="node"><title>Node3</title>
<g id="a_node3"><a xlink:title="STL class. ">
<polygon fill="white" stroke="#bfbfbf" points="28,-268.5 28,-325.5 102,-325.5 102,-268.5 28,-268.5"/>
<text text-anchor="middle" x="65" y="-313.5" font-family="Helvetica,sans-Serif" font-size="10.00">std::ofstream</text>
<polyline fill="none" stroke="#bfbfbf" points="28,-306.5 102,-306.5 "/>
<text text-anchor="middle" x="65" y="-294.5" font-family="Helvetica,sans-Serif" font-size="10.00"> </text>
<polyline fill="none" stroke="#bfbfbf" points="28,-287.5 102,-287.5 "/>
<text text-anchor="middle" x="65" y="-275.5" font-family="Helvetica,sans-Serif" font-size="10.00"> </text>
</a>
</g>
</g>
<!-- Node3&#45;&gt;Node2 -->
<g id="edge2" class="edge"><title>Node3&#45;&gt;Node2</title>
<path fill="none" stroke="#404040" d="M65,-268.24C65,-257.242 65,-244.179 65,-231.364"/>
<polygon fill="none" stroke="#404040" points="65.0001,-231.23 61,-225.23 65,-219.23 69,-225.23 65.0001,-231.23"/>
<text text-anchor="middle" x="91.5" y="-241.5" font-family="Helvetica,sans-Serif" font-size="10.00"> &#45;m_fstream</text>
</g>
<!-- Node4 -->
<g id="node4" class="node"><title>Node4</title>
<g id="a_node4"><a xlink:title="STL class. ">
<polygon fill="white" stroke="#bfbfbf" points="13.5,-365 13.5,-433 116.5,-433 116.5,-365 13.5,-365"/>
<text text-anchor="start" x="21.5" y="-421" font-family="Helvetica,sans-Serif" font-size="10.00">std::basic_ofstream</text>
<text text-anchor="middle" x="65" y="-410" font-family="Helvetica,sans-Serif" font-size="10.00">&lt; char &gt;</text>
<polyline fill="none" stroke="#bfbfbf" points="13.5,-403 116.5,-403 "/>
<text text-anchor="middle" x="65" y="-391" font-family="Helvetica,sans-Serif" font-size="10.00"> </text>
<polyline fill="none" stroke="#bfbfbf" points="13.5,-384 116.5,-384 "/>
<text text-anchor="middle" x="65" y="-372" font-family="Helvetica,sans-Serif" font-size="10.00"> </text>
</a>
</g>
</g>
<!-- Node4&#45;&gt;Node3 -->
<g id="edge3" class="edge"><title>Node4&#45;&gt;Node3</title>
<path fill="none" stroke="midnightblue" d="M65,-354.857C65,-344.952 65,-334.682 65,-325.64"/>
<polygon fill="none" stroke="midnightblue" points="61.5001,-354.979 65,-364.979 68.5001,-354.979 61.5001,-354.979"/>
</g>
<!-- Node5 -->
<g id="node5" class="node"><title>Node5</title>
<g id="a_node5"><a xlink:title="STL class. ">
<polygon fill="white" stroke="#bfbfbf" points="15,-473 15,-541 115,-541 115,-473 15,-473"/>
<text text-anchor="start" x="23" y="-529" font-family="Helvetica,sans-Serif" font-size="10.00">std::basic_ostream</text>
<text text-anchor="middle" x="65" y="-518" font-family="Helvetica,sans-Serif" font-size="10.00">&lt; Char &gt;</text>
<polyline fill="none" stroke="#bfbfbf" points="15,-511 115,-511 "/>
<text text-anchor="middle" x="65" y="-499" font-family="Helvetica,sans-Serif" font-size="10.00"> </text>
<polyline fill="none" stroke="#bfbfbf" points="15,-492 115,-492 "/>
<text text-anchor="middle" x="65" y="-480" font-family="Helvetica,sans-Serif" font-size="10.00"> </text>
</a>
</g>
</g>
<!-- Node5&#45;&gt;Node4 -->
<g id="edge4" class="edge"><title>Node5&#45;&gt;Node4</title>
<path fill="none" stroke="midnightblue" d="M65,-462.696C65,-452.828 65,-442.495 65,-433.13"/>
<polygon fill="none" stroke="midnightblue" points="61.5001,-462.752 65,-472.752 68.5001,-462.752 61.5001,-462.752"/>
</g>
<!-- Node6 -->
<g id="node6" class="node"><title>Node6</title>
<g id="a_node6"><a xlink:title="STL class. ">
<polygon fill="white" stroke="#bfbfbf" points="7,-580.5 7,-637.5 123,-637.5 123,-580.5 7,-580.5"/>
<text text-anchor="middle" x="65" y="-625.5" font-family="Helvetica,sans-Serif" font-size="10.00">std::basic_ios&lt; Char &gt;</text>
<polyline fill="none" stroke="#bfbfbf" points="7,-618.5 123,-618.5 "/>
<text text-anchor="middle" x="65" y="-606.5" font-family="Helvetica,sans-Serif" font-size="10.00"> </text>
<polyline fill="none" stroke="#bfbfbf" points="7,-599.5 123,-599.5 "/>
<text text-anchor="middle" x="65" y="-587.5" font-family="Helvetica,sans-Serif" font-size="10.00"> </text>
</a>
</g>
</g>
<!-- Node6&#45;&gt;Node5 -->
<g id="edge5" class="edge"><title>Node6&#45;&gt;Node5</title>
<path fill="none" stroke="midnightblue" d="M65,-570.337C65,-560.755 65,-550.528 65,-541.187"/>
<polygon fill="none" stroke="midnightblue" points="61.5001,-570.41 65,-580.41 68.5001,-570.41 61.5001,-570.41"/>
</g>
<!-- Node7 -->
<g id="node7" class="node"><title>Node7</title>
<g id="a_node7"><a xlink:title="STL class. ">
<polygon fill="white" stroke="#bfbfbf" points="27.5,-676.5 27.5,-733.5 102.5,-733.5 102.5,-676.5 27.5,-676.5"/>
<text text-anchor="middle" x="65" y="-721.5" font-family="Helvetica,sans-Serif" font-size="10.00">std::ios_base</text>
<polyline fill="none" stroke="#bfbfbf" points="27.5,-714.5 102.5,-714.5 "/>
<text text-anchor="middle" x="65" y="-702.5" font-family="Helvetica,sans-Serif" font-size="10.00"> </text>
<polyline fill="none" stroke="#bfbfbf" points="27.5,-695.5 102.5,-695.5 "/>
<text text-anchor="middle" x="65" y="-683.5" font-family="Helvetica,sans-Serif" font-size="10.00"> </text>
</a>
</g>
</g>
<!-- Node7&#45;&gt;Node6 -->
<g id="edge6" class="edge"><title>Node7&#45;&gt;Node6</title>
<path fill="none" stroke="midnightblue" d="M65,-666.277C65,-656.772 65,-646.741 65,-637.822"/>
<polygon fill="none" stroke="midnightblue" points="61.5001,-666.305 65,-676.305 68.5001,-666.305 61.5001,-666.305"/>
</g>
<!-- Node8 -->
<g id="node8" class="node"><title>Node8</title>
<polygon fill="white" stroke="#bfbfbf" points="148.5,-140 148.5,-208 243.5,-208 243.5,-140 148.5,-140"/>
<text text-anchor="start" x="156.5" y="-196" font-family="Helvetica,sans-Serif" font-size="10.00">shared_ptr&lt; stride</text>
<text text-anchor="middle" x="196" y="-185" font-family="Helvetica,sans-Serif" font-size="10.00">::SimRunner &gt;</text>
<polyline fill="none" stroke="#bfbfbf" points="148.5,-178 243.5,-178 "/>
<text text-anchor="middle" x="196" y="-166" font-family="Helvetica,sans-Serif" font-size="10.00"> </text>
<polyline fill="none" stroke="#bfbfbf" points="148.5,-159 243.5,-159 "/>
<text text-anchor="middle" x="196" y="-147" font-family="Helvetica,sans-Serif" font-size="10.00"> </text>
</g>
<!-- Node8&#45;&gt;Node1 -->
<g id="edge7" class="edge"><title>Node8&#45;&gt;Node1</title>
<path fill="none" stroke="#404040" d="M183.635,-139.691C178.206,-125.064 171.712,-107.571 165.71,-91.4027"/>
<polygon fill="none" stroke="#404040" points="165.625,-91.1737 159.787,-86.9408 161.449,-79.9238 167.287,-84.1567 165.625,-91.1737"/>
<text text-anchor="middle" x="194.5" y="-101.5" font-family="Helvetica,sans-Serif" font-size="10.00"> &#45;m_runner</text>
</g>
</g>
</svg>
