<?xml version="1.0" encoding="UTF-8" standalone="no"?>
<!DOCTYPE svg PUBLIC "-//W3C//DTD SVG 1.1//EN"
 "http://www.w3.org/Graphics/SVG/1.1/DTD/svg11.dtd">
<!-- Generated by graphviz version 2.36.0 (20140111.2315)
 -->
<!-- Title: stride::util::CSVRow::CSVRow Pages: 1 -->
<svg width="398pt" height="134pt"
 viewBox="0.00 0.00 398.00 134.00" xmlns="http://www.w3.org/2000/svg" xmlns:xlink="http://www.w3.org/1999/xlink">
<g id="graph0" class="graph" transform="scale(1 1) rotate(0) translate(4 130)">
<title>stride::util::CSVRow::CSVRow</title>
<polygon fill="white" stroke="none" points="-4,4 -4,-130 394,-130 394,4 -4,4"/>
<!-- Node1 -->
<g id="node1" class="node"><title>Node1</title>
<polygon fill="#bfbfbf" stroke="black" points="0.5,-52 0.5,-82 107.5,-82 107.5,-52 0.5,-52"/>
<text text-anchor="start" x="8.5" y="-70" font-family="Helvetica,sans-Serif" font-size="10.00">stride::util::CSVRow</text>
<text text-anchor="middle" x="54" y="-59" font-family="Helvetica,sans-Serif" font-size="10.00">::CSVRow</text>
</g>
<!-- Node2 -->
<g id="node2" class="node"><title>Node2</title>
<g id="a_node2"><a xlink:href="../../d9/d7d/a00150.html#a63ffba1157ea6381bbce102c430e189b" target="_top" xlink:title="Amount of columns in the CSV. ">
<polygon fill="white" stroke="black" points="149,-96 149,-126 241,-126 241,-96 149,-96"/>
<text text-anchor="start" x="157" y="-114" font-family="Helvetica,sans-Serif" font-size="10.00">stride::util::CSV::</text>
<text text-anchor="middle" x="195" y="-103" font-family="Helvetica,sans-Serif" font-size="10.00">GetColumnCount</text>
</a>
</g>
</g>
<!-- Node1&#45;&gt;Node2 -->
<g id="edge1" class="edge"><title>Node1&#45;&gt;Node2</title>
<path fill="none" stroke="midnightblue" d="M102.447,-82.0192C114.238,-85.7516 126.974,-89.783 139.09,-93.6184"/>
<polygon fill="midnightblue" stroke="midnightblue" points="138.054,-96.9616 148.644,-96.6427 140.167,-90.2879 138.054,-96.9616"/>
</g>
<!-- Node3 -->
<g id="node3" class="node"><title>Node3</title>
<g id="a_node3"><a xlink:href="../../d0/d29/a00470.html#a256d75fffdad0f4f49c6e58c69f76e20" target="_top" xlink:title="Builds a string representation of a value of type T. ">
<polygon fill="white" stroke="black" points="144,-57.5 144,-76.5 246,-76.5 246,-57.5 144,-57.5"/>
<text text-anchor="middle" x="195" y="-64.5" font-family="Helvetica,sans-Serif" font-size="10.00">stride::util::ToString</text>
</a>
</g>
</g>
<!-- Node1&#45;&gt;Node3 -->
<g id="edge2" class="edge"><title>Node1&#45;&gt;Node3</title>
<path fill="none" stroke="midnightblue" d="M107.55,-67C116.06,-67 124.93,-67 133.608,-67"/>
<polygon fill="midnightblue" stroke="midnightblue" points="133.674,-70.5001 143.673,-67 133.673,-63.5001 133.674,-70.5001"/>
</g>
<!-- Node4 -->
<g id="node4" class="node"><title>Node4</title>
<g id="a_node4"><a xlink:href="../../d0/d29/a00470.html#a01882a252a5e262d442f9a8b8f64e3ef" target="_top" xlink:title="Trim characters at both ends of string. ">
<polygon fill="white" stroke="black" points="152.5,-19.5 152.5,-38.5 237.5,-38.5 237.5,-19.5 152.5,-19.5"/>
<text text-anchor="middle" x="195" y="-26.5" font-family="Helvetica,sans-Serif" font-size="10.00">stride::util::Trim</text>
</a>
</g>
</g>
<!-- Node1&#45;&gt;Node4 -->
<g id="edge3" class="edge"><title>Node1&#45;&gt;Node4</title>
<path fill="none" stroke="midnightblue" d="M107.55,-52.6338C121.273,-48.8822 135.935,-44.8739 149.213,-41.2439"/>
<polygon fill="midnightblue" stroke="midnightblue" points="150.336,-44.5654 159.059,-38.5522 148.49,-37.8132 150.336,-44.5654"/>
</g>
<!-- Node5 -->
<g id="node5" class="node"><title>Node5</title>
<g id="a_node5"><a xlink:href="../../d0/d29/a00470.html#a2c5aacbb4d606af3e43a96e8aad692cf" target="_top" xlink:title="Trim characters at left end of string. ">
<polygon fill="white" stroke="black" points="285.5,-38.5 285.5,-57.5 386.5,-57.5 386.5,-38.5 285.5,-38.5"/>
<text text-anchor="middle" x="336" y="-45.5" font-family="Helvetica,sans-Serif" font-size="10.00">stride::util::TrimLeft</text>
</a>
</g>
</g>
<!-- Node4&#45;&gt;Node5 -->
<g id="edge4" class="edge"><title>Node4&#45;&gt;Node5</title>
<path fill="none" stroke="midnightblue" d="M237.705,-34.7006C249.567,-36.3221 262.723,-38.1205 275.428,-39.857"/>
<polygon fill="midnightblue" stroke="midnightblue" points="275.104,-43.3453 285.486,-41.2319 276.052,-36.4098 275.104,-43.3453"/>
</g>
<!-- Node6 -->
<g id="node6" class="node"><title>Node6</title>
<g id="a_node6"><a xlink:href="../../d0/d29/a00470.html#a9fa614ccd671679a0e1feff6e0f6da33" target="_top" xlink:title="Trim characters at right end of string. ">
<polygon fill="white" stroke="black" points="282,-0.5 282,-19.5 390,-19.5 390,-0.5 282,-0.5"/>
<text text-anchor="middle" x="336" y="-7.5" font-family="Helvetica,sans-Serif" font-size="10.00">stride::util::TrimRight</text>
</a>
</g>
</g>
<!-- Node4&#45;&gt;Node6 -->
<g id="edge5" class="edge"><title>Node4&#45;&gt;Node6</title>
<path fill="none" stroke="midnightblue" d="M237.705,-23.2994C248.466,-21.8283 260.293,-20.2118 271.881,-18.6278"/>
<polygon fill="midnightblue" stroke="midnightblue" points="272.536,-22.0709 281.97,-17.2487 271.588,-15.1354 272.536,-22.0709"/>
</g>
</g>
</svg>
