<?xml version="1.0" encoding="UTF-8" standalone="no"?>
<!DOCTYPE svg PUBLIC "-//W3C//DTD SVG 1.1//EN"
 "http://www.w3.org/Graphics/SVG/1.1/DTD/svg11.dtd">
<!-- Generated by graphviz version 2.36.0 (20140111.2315)
 -->
<!-- Title: stride::TravellerProfileBuilder::Build Pages: 1 -->
<svg width="602pt" height="136pt"
 viewBox="0.00 0.00 602.00 136.00" xmlns="http://www.w3.org/2000/svg" xmlns:xlink="http://www.w3.org/1999/xlink">
<g id="graph0" class="graph" transform="scale(1 1) rotate(0) translate(4 132)">
<title>stride::TravellerProfileBuilder::Build</title>
<polygon fill="white" stroke="none" points="-4,4 -4,-132 598,-132 598,4 -4,4"/>
<!-- Node1 -->
<g id="node1" class="node"><title>Node1</title>
<polygon fill="#bfbfbf" stroke="black" points="0,-49 0,-79 112,-79 112,-49 0,-49"/>
<text text-anchor="start" x="8" y="-67" font-family="Helvetica,sans-Serif" font-size="10.00">stride::TravellerProfile</text>
<text text-anchor="middle" x="56" y="-56" font-family="Helvetica,sans-Serif" font-size="10.00">Builder::Build</text>
</g>
<!-- Node2 -->
<g id="node2" class="node"><title>Node2</title>
<g id="a_node2"><a xlink:href="../../dd/db2/a00151.html#a2a8f6a2064d263cbcc443589a233547c" target="_top" xlink:title="Call the provided updateMethod with the traveller information found in the configParam and the given ...">
<polygon fill="white" stroke="black" points="148,-98 148,-128 304,-128 304,-98 148,-98"/>
<text text-anchor="start" x="156" y="-116" font-family="Helvetica,sans-Serif" font-size="10.00">stride::TravellerProfile</text>
<text text-anchor="middle" x="226" y="-105" font-family="Helvetica,sans-Serif" font-size="10.00">Builder::AddTravellerInformation</text>
</a>
</g>
</g>
<!-- Node1&#45;&gt;Node2 -->
<g id="edge1" class="edge"><title>Node1&#45;&gt;Node2</title>
<path fill="none" stroke="midnightblue" d="M108.776,-79.1014C126.103,-84.1551 145.586,-89.8376 163.577,-95.0848"/>
<polygon fill="midnightblue" stroke="midnightblue" points="162.815,-98.5084 173.395,-97.9484 164.775,-91.7884 162.815,-98.5084"/>
</g>
<!-- Node5 -->
<g id="node5" class="node"><title>Node5</title>
<g id="a_node5"><a xlink:href="../../d9/d7d/a00150.html#a810f4044c50a8341090834bd75253357" target="_top" xlink:title="Add a travel record to the recreation profile. ">
<polygon fill="white" stroke="black" points="169,-49 169,-79 283,-79 283,-49 169,-49"/>
<text text-anchor="start" x="177" y="-67" font-family="Helvetica,sans-Serif" font-size="10.00">stride::TravellerProfile</text>
<text text-anchor="middle" x="226" y="-56" font-family="Helvetica,sans-Serif" font-size="10.00">::AddTravelRecreation</text>
</a>
</g>
</g>
<!-- Node1&#45;&gt;Node5 -->
<g id="edge4" class="edge"><title>Node1&#45;&gt;Node5</title>
<path fill="none" stroke="midnightblue" d="M112.009,-64C126.924,-64 143.229,-64 158.696,-64"/>
<polygon fill="midnightblue" stroke="midnightblue" points="158.715,-67.5001 168.715,-64 158.715,-60.5001 158.715,-67.5001"/>
</g>
<!-- Node6 -->
<g id="node6" class="node"><title>Node6</title>
<g id="a_node6"><a xlink:href="../../d9/d7d/a00150.html#a5a8da1f66852e62002ada510e95e5ada" target="_top" xlink:title="Add a travel record to the work profile. ">
<polygon fill="white" stroke="black" points="170,-0 170,-30 282,-30 282,-0 170,-0"/>
<text text-anchor="start" x="178" y="-18" font-family="Helvetica,sans-Serif" font-size="10.00">stride::TravellerProfile</text>
<text text-anchor="middle" x="226" y="-7" font-family="Helvetica,sans-Serif" font-size="10.00">::AddTravelWork</text>
</a>
</g>
</g>
<!-- Node1&#45;&gt;Node6 -->
<g id="edge5" class="edge"><title>Node1&#45;&gt;Node6</title>
<path fill="none" stroke="midnightblue" d="M108.776,-48.8986C126.103,-43.8449 145.586,-38.1624 163.577,-32.9152"/>
<polygon fill="midnightblue" stroke="midnightblue" points="164.775,-36.2116 173.395,-30.0516 162.815,-29.4916 164.775,-36.2116"/>
</g>
<!-- Node3 -->
<g id="node3" class="node"><title>Node3</title>
<g id="a_node3"><a xlink:href="../../d1/db7/a00157.html#aafd39e698c442fd0917915d085c9aa1a" target="_top" xlink:title="/// Return data dir (only relevant when use_install_dirs mode is active) ">
<polygon fill="white" stroke="black" points="340,-98 340,-128 438,-128 438,-98 340,-98"/>
<text text-anchor="start" x="348" y="-116" font-family="Helvetica,sans-Serif" font-size="10.00">stride::util::FileSys</text>
<text text-anchor="middle" x="389" y="-105" font-family="Helvetica,sans-Serif" font-size="10.00">::GetDataDir</text>
</a>
</g>
</g>
<!-- Node2&#45;&gt;Node3 -->
<g id="edge2" class="edge"><title>Node2&#45;&gt;Node3</title>
<path fill="none" stroke="midnightblue" d="M304.199,-113C312.711,-113 321.272,-113 329.5,-113"/>
<polygon fill="midnightblue" stroke="midnightblue" points="329.717,-116.5 339.717,-113 329.717,-109.5 329.717,-116.5"/>
</g>
<!-- Node4 -->
<g id="node4" class="node"><title>Node4</title>
<g id="a_node4"><a xlink:href="../../d1/db7/a00157.html#a811a1d113f57785952045d9541c95db5" target="_top" xlink:title="Return paths. ">
<polygon fill="white" stroke="black" points="474,-103.5 474,-122.5 594,-122.5 594,-103.5 474,-103.5"/>
<text text-anchor="middle" x="534" y="-110.5" font-family="Helvetica,sans-Serif" font-size="10.00">stride::util::FileSys::Get</text>
</a>
</g>
</g>
<!-- Node3&#45;&gt;Node4 -->
<g id="edge3" class="edge"><title>Node3&#45;&gt;Node4</title>
<path fill="none" stroke="midnightblue" d="M438.015,-113C446.296,-113 455.05,-113 463.759,-113"/>
<polygon fill="midnightblue" stroke="midnightblue" points="463.932,-116.5 473.932,-113 463.932,-109.5 463.932,-116.5"/>
</g>
</g>
</svg>
