<?xml version="1.0" encoding="UTF-8" standalone="no"?>
<!DOCTYPE svg PUBLIC "-//W3C//DTD SVG 1.1//EN"
 "http://www.w3.org/Graphics/SVG/1.1/DTD/svg11.dtd">
<!-- Generated by graphviz version 2.36.0 (20140111.2315)
 -->
<!-- Title: gengeopop::GeoAggregator&lt; Policy &gt;::operator() Pages: 1 -->
<svg width="298pt" height="48pt"
 viewBox="0.00 0.00 298.00 48.00" xmlns="http://www.w3.org/2000/svg" xmlns:xlink="http://www.w3.org/1999/xlink">
<g id="graph0" class="graph" transform="scale(1 1) rotate(0) translate(4 44)">
<title>gengeopop::GeoAggregator&lt; Policy &gt;::operator()</title>
<polygon fill="white" stroke="none" points="-4,4 -4,-44 294,-44 294,4 -4,4"/>
<!-- Node1 -->
<g id="node1" class="node"><title>Node1</title>
<polygon fill="#bfbfbf" stroke="black" points="0.5,-5 0.5,-35 135.5,-35 135.5,-5 0.5,-5"/>
<text text-anchor="start" x="8.5" y="-23" font-family="Helvetica,sans-Serif" font-size="10.00">gengeopop::GeoAggregator</text>
<text text-anchor="middle" x="68" y="-12" font-family="Helvetica,sans-Serif" font-size="10.00">&lt; Policy &gt;::operator()</text>
</g>
<!-- Node2 -->
<g id="node2" class="node"><title>Node2</title>
<g id="a_node2"><a xlink:href="../../dc/d87/a00032.html#a0c0684fe18640f925115acb43469328b" target="_top" xlink:title="Retrieve the actual location. ">
<polygon fill="white" stroke="black" points="172,0.5 172,-40.5 290,-40.5 290,0.5 172,0.5"/>
<text text-anchor="start" x="180" y="-28.5" font-family="Helvetica,sans-Serif" font-size="10.00">gengeopop::geogrid</text>
<text text-anchor="start" x="180" y="-17.5" font-family="Helvetica,sans-Serif" font-size="10.00">_detail::KdTree2DPoint</text>
<text text-anchor="middle" x="231" y="-6.5" font-family="Helvetica,sans-Serif" font-size="10.00">::GetLocation</text>
</a>
</g>
</g>
<!-- Node1&#45;&gt;Node2 -->
<g id="edge1" class="edge"><title>Node1&#45;&gt;Node2</title>
<path fill="none" stroke="midnightblue" d="M135.88,-20C144.356,-20 153.04,-20 161.54,-20"/>
<polygon fill="midnightblue" stroke="midnightblue" points="161.792,-23.5001 171.792,-20 161.792,-16.5001 161.792,-23.5001"/>
</g>
</g>
</svg>
