<?xml version="1.0" encoding="UTF-8" standalone="no"?>
<!DOCTYPE svg PUBLIC "-//W3C//DTD SVG 1.1//EN"
 "http://www.w3.org/Graphics/SVG/1.1/DTD/svg11.dtd">
<!-- Generated by graphviz version 2.36.0 (20140111.2315)
 -->
<!-- Title: gengeopop::CommunityGenerator Pages: 1 -->
<!--zoomable 732 -->
<svg id="main" version="1.1" xmlns="http://www.w3.org/2000/svg" xmlns:xlink="http://www.w3.org/1999/xlink" xml:space="preserve" onload="init(evt)">
<style type="text/css"><![CDATA[
.edge:hover path { stroke: red; }
.edge:hover polygon { stroke: red; fill: red; }
]]></style>
<script type="text/javascript"><![CDATA[
var edges = document.getElementsByTagName('g');
if (edges && edges.length) {
  for (var i=0;i<edges.length;i++) {
    if (edges[i].id.substr(0,4)=='edge') {
      edges[i].setAttribute('class','edge');
    }
  }
}
]]></script>
        <defs>
                <circle id="rim" cx="0" cy="0" r="7"/>
                <circle id="rim2" cx="0" cy="0" r="3.5"/>
                <g id="zoomPlus">
                        <use xlink:href="#rim" fill="#404040">
                                <set attributeName="fill" to="#808080" begin="zoomplus.mouseover" end="zoomplus.mouseout"/>
                        </use>
                        <path d="M-4,0h8M0,-4v8" fill="none" stroke="white" stroke-width="1.5" pointer-events="none"/>
                </g>
                <g id="zoomMin">
                        <use xlink:href="#rim" fill="#404040">
                                <set attributeName="fill" to="#808080" begin="zoomminus.mouseover" end="zoomminus.mouseout"/>
                        </use>
                        <path d="M-4,0h8" fill="none" stroke="white" stroke-width="1.5" pointer-events="none"/>
                </g>
                <g id="dirArrow">
                        <path fill="none" stroke="white" stroke-width="1.5" d="M0,-3.0v7 M-2.5,-0.5L0,-3.0L2.5,-0.5"/>
                </g>
               <g id="resetDef">
                       <use xlink:href="#rim2" fill="#404040">
                               <set attributeName="fill" to="#808080" begin="reset.mouseover" end="reset.mouseout"/>
                       </use>
               </g>
        </defs>

<script type="text/javascript">
var viewWidth = 999;
var viewHeight = 732;
var sectionId = 'dynsection-1';
</script>
<script xlink:href="../../svgpan.js"/>
<svg id="graph" class="graph">
<g id="viewport">
<title>gengeopop::CommunityGenerator</title>
<polygon fill="white" stroke="none" points="-4,4 -4,-728 995,-728 995,4 -4,4"/>
<!-- Node1 -->
<g id="node1" class="node"><title>Node1</title>
<polygon fill="#bfbfbf" stroke="black" points="335.5,-0.5 335.5,-57.5 498.5,-57.5 498.5,-0.5 335.5,-0.5"/>
<text text-anchor="middle" x="417" y="-45.5" font-family="Helvetica,sans-Serif" font-size="10.00">gengeopop::CommunityGenerator</text>
<polyline fill="none" stroke="black" points="335.5,-38.5 498.5,-38.5 "/>
<text text-anchor="middle" x="417" y="-26.5" font-family="Helvetica,sans-Serif" font-size="10.00"> </text>
<polyline fill="none" stroke="black" points="335.5,-19.5 498.5,-19.5 "/>
<text text-anchor="start" x="343.5" y="-7.5" font-family="Helvetica,sans-Serif" font-size="10.00">+ Apply()</text>
</g>
<!-- Node2 -->
<g id="node2" class="node"><title>Node2</title>
<g id="a_node2"><a xlink:href="../../d9/d2e/a00056.html" target="_top" xlink:title="An interface for generators that provide a partial solution. ">
<polygon fill="white" stroke="black" points="347,-97 347,-187 487,-187 487,-97 347,-97"/>
<text text-anchor="middle" x="417" y="-175" font-family="Helvetica,sans-Serif" font-size="10.00">gengeopop::PartialGenerator</text>
<polyline fill="none" stroke="black" points="347,-168 487,-168 "/>
<text text-anchor="middle" x="417" y="-156" font-family="Helvetica,sans-Serif" font-size="10.00"> </text>
<polyline fill="none" stroke="black" points="347,-149 487,-149 "/>
<text text-anchor="start" x="355" y="-137" font-family="Helvetica,sans-Serif" font-size="10.00">+ PartialGenerator()</text>
<text text-anchor="start" x="355" y="-126" font-family="Helvetica,sans-Serif" font-size="10.00">+ Apply()</text>
<text text-anchor="start" x="355" y="-115" font-family="Helvetica,sans-Serif" font-size="10.00">+ ~PartialGenerator()</text>
<text text-anchor="start" x="355" y="-104" font-family="Helvetica,sans-Serif" font-size="10.00"># CheckWeight()</text>
</a>
</g>
</g>
<!-- Node2&#45;&gt;Node1 -->
<g id="edge1" class="edge"><title>Node2&#45;&gt;Node1</title>
<path fill="none" stroke="midnightblue" d="M417,-86.8086C417,-76.738 417,-66.6099 417,-57.7516"/>
<polygon fill="none" stroke="midnightblue" points="413.5,-86.8109 417,-96.8109 420.5,-86.811 413.5,-86.8109"/>
</g>
<!-- Node3 -->
<g id="node3" class="node"><title>Node3</title>
<polygon fill="white" stroke="#bfbfbf" points="318,-281 318,-349 418,-349 418,-281 318,-281"/>
<text text-anchor="start" x="326" y="-337" font-family="Helvetica,sans-Serif" font-size="10.00">shared_ptr&lt; spdlog</text>
<text text-anchor="middle" x="368" y="-326" font-family="Helvetica,sans-Serif" font-size="10.00">::logger &gt;</text>
<polyline fill="none" stroke="#bfbfbf" points="318,-319 418,-319 "/>
<text text-anchor="middle" x="368" y="-307" font-family="Helvetica,sans-Serif" font-size="10.00"> </text>
<polyline fill="none" stroke="#bfbfbf" points="318,-300 418,-300 "/>
<text text-anchor="middle" x="368" y="-288" font-family="Helvetica,sans-Serif" font-size="10.00"> </text>
</g>
<!-- Node3&#45;&gt;Node2 -->
<g id="edge2" class="edge"><title>Node3&#45;&gt;Node2</title>
<path fill="none" stroke="#404040" d="M375.998,-280.752C381.308,-259.313 388.635,-230.889 396,-206 396.703,-203.625 397.436,-201.205 398.188,-198.764"/>
<polygon fill="none" stroke="#404040" points="398.201,-198.722 396.196,-191.796 401.819,-187.281 403.824,-194.207 398.201,-198.722"/>
<text text-anchor="middle" x="420.5" y="-209.5" font-family="Helvetica,sans-Serif" font-size="10.00"> #m_logger</text>
</g>
<!-- Node4 -->
<g id="node4" class="node"><title>Node4</title>
<g id="a_node4"><a xlink:href="../../d6/d7d/a00161.html" target="_top" xlink:title="Manages random number generation in parallel (OpenMP) calculations. ">
<polygon fill="white" stroke="black" points="436,-237 436,-393 554,-393 554,-237 436,-237"/>
<text text-anchor="middle" x="495" y="-381" font-family="Helvetica,sans-Serif" font-size="10.00">stride::util::RNManager</text>
<polyline fill="none" stroke="black" points="436,-374 554,-374 "/>
<text text-anchor="middle" x="495" y="-362" font-family="Helvetica,sans-Serif" font-size="10.00"> </text>
<polyline fill="none" stroke="black" points="436,-355 554,-355 "/>
<text text-anchor="start" x="444" y="-343" font-family="Helvetica,sans-Serif" font-size="10.00">+ RNManager()</text>
<text text-anchor="start" x="444" y="-332" font-family="Helvetica,sans-Serif" font-size="10.00">+ RNManager()</text>
<text text-anchor="start" x="444" y="-321" font-family="Helvetica,sans-Serif" font-size="10.00">+ RNManager()</text>
<text text-anchor="start" x="444" y="-310" font-family="Helvetica,sans-Serif" font-size="10.00">+ operator=()</text>
<text text-anchor="start" x="444" y="-299" font-family="Helvetica,sans-Serif" font-size="10.00">+ operator=()</text>
<text text-anchor="start" x="444" y="-288" font-family="Helvetica,sans-Serif" font-size="10.00">+ GetInfo()</text>
<text text-anchor="start" x="444" y="-277" font-family="Helvetica,sans-Serif" font-size="10.00">+ GetGenerator()</text>
<text text-anchor="start" x="444" y="-266" font-family="Helvetica,sans-Serif" font-size="10.00">+ RandomShuffle()</text>
<text text-anchor="start" x="444" y="-255" font-family="Helvetica,sans-Serif" font-size="10.00">+ Initialize()</text>
<text text-anchor="start" x="444" y="-244" font-family="Helvetica,sans-Serif" font-size="10.00">+ Initialize()</text>
</a>
</g>
</g>
<!-- Node4&#45;&gt;Node2 -->
<g id="edge3" class="edge"><title>Node4&#45;&gt;Node2</title>
<path fill="none" stroke="#404040" d="M459.651,-236.505C453.726,-223.515 447.687,-210.276 442.089,-198.003"/>
<polygon fill="none" stroke="#404040" points="442.067,-197.955 435.938,-194.156 437.087,-187.037 443.216,-190.836 442.067,-197.955"/>
<text text-anchor="middle" x="484" y="-209.5" font-family="Helvetica,sans-Serif" font-size="10.00"> #m_rnManager</text>
</g>
<!-- Node5 -->
<g id="node5" class="node"><title>Node5</title>
<polygon fill="white" stroke="#bfbfbf" points="254.5,-443 254.5,-511 349.5,-511 349.5,-443 254.5,-443"/>
<text text-anchor="start" x="262.5" y="-499" font-family="Helvetica,sans-Serif" font-size="10.00">std::vector&lt; trng::</text>
<text text-anchor="middle" x="302" y="-488" font-family="Helvetica,sans-Serif" font-size="10.00">mrg3 &gt;</text>
<polyline fill="none" stroke="#bfbfbf" points="254.5,-481 349.5,-481 "/>
<text text-anchor="middle" x="302" y="-469" font-family="Helvetica,sans-Serif" font-size="10.00"> </text>
<polyline fill="none" stroke="#bfbfbf" points="254.5,-462 349.5,-462 "/>
<text text-anchor="middle" x="302" y="-450" font-family="Helvetica,sans-Serif" font-size="10.00"> </text>
</g>
<!-- Node5&#45;&gt;Node4 -->
<g id="edge4" class="edge"><title>Node5&#45;&gt;Node4</title>
<path fill="none" stroke="#404040" d="M349.653,-443.79C365.016,-433.524 382.166,-422.188 398,-412 410.757,-403.792 415.443,-403.826 427,-394 427.094,-393.92 427.188,-393.84 427.282,-393.76"/>
<polygon fill="none" stroke="#404040" points="427.042,-393.975 428.831,-386.989 435.968,-385.954 434.179,-392.939 427.042,-393.975"/>
<text text-anchor="middle" x="419" y="-415.5" font-family="Helvetica,sans-Serif" font-size="10.00"> &#45;m_mrg3</text>
</g>
<!-- Node6 -->
<g id="node6" class="node"><title>Node6</title>
<polygon fill="white" stroke="#bfbfbf" points="85,-560.5 85,-617.5 123,-617.5 123,-560.5 85,-560.5"/>
<text text-anchor="middle" x="104" y="-605.5" font-family="Helvetica,sans-Serif" font-size="10.00">mrg3</text>
<polyline fill="none" stroke="#bfbfbf" points="85,-598.5 123,-598.5 "/>
<text text-anchor="middle" x="104" y="-586.5" font-family="Helvetica,sans-Serif" font-size="10.00"> </text>
<polyline fill="none" stroke="#bfbfbf" points="85,-579.5 123,-579.5 "/>
<text text-anchor="middle" x="104" y="-567.5" font-family="Helvetica,sans-Serif" font-size="10.00"> </text>
</g>
<!-- Node6&#45;&gt;Node5 -->
<g id="edge5" class="edge"><title>Node6&#45;&gt;Node5</title>
<path fill="none" stroke="#404040" d="M97.3428,-560.385C96.4346,-549.693 97.746,-538.104 105,-530 124.04,-508.728 199.837,-519.757 242.801,-511.329"/>
<polygon fill="none" stroke="#404040" points="242.883,-511.307 247.65,-505.896 254.478,-508.215 249.712,-513.626 242.883,-511.307"/>
<text text-anchor="middle" x="129.5" y="-533.5" font-family="Helvetica,sans-Serif" font-size="10.00"> +elements</text>
</g>
<!-- Node7 -->
<g id="node7" class="node"><title>Node7</title>
<g id="a_node7"><a xlink:title="STL class. ">
<polygon fill="white" stroke="#bfbfbf" points="451.5,-560.5 451.5,-617.5 538.5,-617.5 538.5,-560.5 451.5,-560.5"/>
<text text-anchor="middle" x="495" y="-605.5" font-family="Helvetica,sans-Serif" font-size="10.00">std::vector&lt; T &gt;</text>
<polyline fill="none" stroke="#bfbfbf" points="451.5,-598.5 538.5,-598.5 "/>
<text text-anchor="middle" x="495" y="-586.5" font-family="Helvetica,sans-Serif" font-size="10.00"> </text>
<polyline fill="none" stroke="#bfbfbf" points="451.5,-579.5 538.5,-579.5 "/>
<text text-anchor="middle" x="495" y="-567.5" font-family="Helvetica,sans-Serif" font-size="10.00"> </text>
</a>
</g>
</g>
<!-- Node7&#45;&gt;Node5 -->
<g id="edge6" class="edge"><title>Node7&#45;&gt;Node5</title>
<path fill="none" stroke="orange" d="M441.487,-572.352C419.717,-564.81 394.832,-554.629 374,-542 359.841,-533.417 345.866,-521.901 334.049,-511.004"/>
<polygon fill="orange" stroke="orange" points="440.651,-575.764 451.245,-575.632 442.881,-569.128 440.651,-575.764"/>
<text text-anchor="middle" x="407" y="-533.5" font-family="Helvetica,sans-Serif" font-size="10.00"> &lt; trng::mrg3 &gt;</text>
</g>
<!-- Node10 -->
<g id="node10" class="node"><title>Node10</title>
<polygon fill="white" stroke="#bfbfbf" points="367.5,-443 367.5,-511 462.5,-511 462.5,-443 367.5,-443"/>
<text text-anchor="start" x="375.5" y="-499" font-family="Helvetica,sans-Serif" font-size="10.00">std::vector&lt; trng::</text>
<text text-anchor="middle" x="415" y="-488" font-family="Helvetica,sans-Serif" font-size="10.00">mrg2 &gt;</text>
<polyline fill="none" stroke="#bfbfbf" points="367.5,-481 462.5,-481 "/>
<text text-anchor="middle" x="415" y="-469" font-family="Helvetica,sans-Serif" font-size="10.00"> </text>
<polyline fill="none" stroke="#bfbfbf" points="367.5,-462 462.5,-462 "/>
<text text-anchor="middle" x="415" y="-450" font-family="Helvetica,sans-Serif" font-size="10.00"> </text>
</g>
<!-- Node7&#45;&gt;Node10 -->
<g id="edge11" class="edge"><title>Node7&#45;&gt;Node10</title>
<path fill="none" stroke="orange" d="M460.487,-552.643C457.511,-549.134 454.635,-545.554 452,-542 444.892,-532.412 438.065,-521.343 432.253,-511.136"/>
<polygon fill="orange" stroke="orange" points="457.874,-554.972 467.104,-560.173 463.132,-550.351 457.874,-554.972"/>
<text text-anchor="middle" x="485" y="-533.5" font-family="Helvetica,sans-Serif" font-size="10.00"> &lt; trng::mrg2 &gt;</text>
</g>
<!-- Node12 -->
<g id="node12" class="node"><title>Node12</title>
<polygon fill="white" stroke="#bfbfbf" points="46.5,-443 46.5,-511 141.5,-511 141.5,-443 46.5,-443"/>
<text text-anchor="start" x="54.5" y="-499" font-family="Helvetica,sans-Serif" font-size="10.00">std::vector&lt; trng::</text>
<text text-anchor="middle" x="94" y="-488" font-family="Helvetica,sans-Serif" font-size="10.00">lcg64_shift &gt;</text>
<polyline fill="none" stroke="#bfbfbf" points="46.5,-481 141.5,-481 "/>
<text text-anchor="middle" x="94" y="-469" font-family="Helvetica,sans-Serif" font-size="10.00"> </text>
<polyline fill="none" stroke="#bfbfbf" points="46.5,-462 141.5,-462 "/>
<text text-anchor="middle" x="94" y="-450" font-family="Helvetica,sans-Serif" font-size="10.00"> </text>
</g>
<!-- Node7&#45;&gt;Node12 -->
<g id="edge14" class="edge"><title>Node7&#45;&gt;Node12</title>
<path fill="none" stroke="orange" d="M441.359,-579.284C406.28,-573.642 359.445,-566.215 318,-560 261.622,-551.546 244.314,-562.19 191,-542 171.377,-534.569 151.689,-522.613 135.228,-511.035"/>
<polygon fill="orange" stroke="orange" points="440.957,-582.765 451.386,-580.9 442.071,-575.854 440.957,-582.765"/>
<text text-anchor="middle" x="236.5" y="-533.5" font-family="Helvetica,sans-Serif" font-size="10.00"> &lt; trng::lcg64_shift &gt;</text>
</g>
<!-- Node15 -->
<g id="node15" class="node"><title>Node15</title>
<polygon fill="white" stroke="#bfbfbf" points="811.5,-443 811.5,-511 906.5,-511 906.5,-443 811.5,-443"/>
<text text-anchor="start" x="819.5" y="-499" font-family="Helvetica,sans-Serif" font-size="10.00">std::vector&lt; trng::</text>
<text text-anchor="middle" x="859" y="-488" font-family="Helvetica,sans-Serif" font-size="10.00">lcg64 &gt;</text>
<polyline fill="none" stroke="#bfbfbf" points="811.5,-481 906.5,-481 "/>
<text text-anchor="middle" x="859" y="-469" font-family="Helvetica,sans-Serif" font-size="10.00"> </text>
<polyline fill="none" stroke="#bfbfbf" points="811.5,-462 906.5,-462 "/>
<text text-anchor="middle" x="859" y="-450" font-family="Helvetica,sans-Serif" font-size="10.00"> </text>
</g>
<!-- Node7&#45;&gt;Node15 -->
<g id="edge18" class="edge"><title>Node7&#45;&gt;Node15</title>
<path fill="none" stroke="orange" d="M549.015,-581.428C615.717,-572.846 725.012,-557.129 763,-542 782.168,-534.367 801.452,-522.515 817.656,-511.076"/>
<polygon fill="orange" stroke="orange" points="548.17,-578.007 538.693,-582.743 549.055,-584.951 548.17,-578.007"/>
<text text-anchor="middle" x="819.5" y="-533.5" font-family="Helvetica,sans-Serif" font-size="10.00"> &lt; trng::lcg64 &gt;</text>
</g>
<!-- Node17 -->
<g id="node17" class="node"><title>Node17</title>
<polygon fill="white" stroke="#bfbfbf" points="640.5,-443 640.5,-511 735.5,-511 735.5,-443 640.5,-443"/>
<text text-anchor="start" x="648.5" y="-499" font-family="Helvetica,sans-Serif" font-size="10.00">std::vector&lt; trng::</text>
<text text-anchor="middle" x="688" y="-488" font-family="Helvetica,sans-Serif" font-size="10.00">yarn2 &gt;</text>
<polyline fill="none" stroke="#bfbfbf" points="640.5,-481 735.5,-481 "/>
<text text-anchor="middle" x="688" y="-469" font-family="Helvetica,sans-Serif" font-size="10.00"> </text>
<polyline fill="none" stroke="#bfbfbf" points="640.5,-462 735.5,-462 "/>
<text text-anchor="middle" x="688" y="-450" font-family="Helvetica,sans-Serif" font-size="10.00"> </text>
</g>
<!-- Node7&#45;&gt;Node17 -->
<g id="edge21" class="edge"><title>Node7&#45;&gt;Node17</title>
<path fill="none" stroke="orange" d="M548.089,-569.701C567.217,-562.209 588.606,-552.758 607,-542 622.007,-533.223 637.27,-521.909 650.442,-511.241"/>
<polygon fill="orange" stroke="orange" points="546.702,-566.484 538.614,-573.328 549.204,-573.022 546.702,-566.484"/>
<text text-anchor="middle" x="658" y="-533.5" font-family="Helvetica,sans-Serif" font-size="10.00"> &lt; trng::yarn2 &gt;</text>
</g>
<!-- Node20 -->
<g id="node20" class="node"><title>Node20</title>
<polygon fill="white" stroke="#bfbfbf" points="527.5,-443 527.5,-511 622.5,-511 622.5,-443 527.5,-443"/>
<text text-anchor="start" x="535.5" y="-499" font-family="Helvetica,sans-Serif" font-size="10.00">std::vector&lt; trng::</text>
<text text-anchor="middle" x="575" y="-488" font-family="Helvetica,sans-Serif" font-size="10.00">yarn3 &gt;</text>
<polyline fill="none" stroke="#bfbfbf" points="527.5,-481 622.5,-481 "/>
<text text-anchor="middle" x="575" y="-469" font-family="Helvetica,sans-Serif" font-size="10.00"> </text>
<polyline fill="none" stroke="#bfbfbf" points="527.5,-462 622.5,-462 "/>
<text text-anchor="middle" x="575" y="-450" font-family="Helvetica,sans-Serif" font-size="10.00"> </text>
</g>
<!-- Node7&#45;&gt;Node20 -->
<g id="edge25" class="edge"><title>Node7&#45;&gt;Node20</title>
<path fill="none" stroke="orange" d="M521.25,-551.906C530.777,-538.806 541.489,-524.078 550.828,-511.237"/>
<polygon fill="orange" stroke="orange" points="518.239,-550.096 515.187,-560.242 523.9,-554.214 518.239,-550.096"/>
<text text-anchor="middle" x="569" y="-533.5" font-family="Helvetica,sans-Serif" font-size="10.00"> &lt; trng::yarn3 &gt;</text>
</g>
<!-- Node8 -->
<g id="node8" class="node"><title>Node8</title>
<polygon fill="white" stroke="#bfbfbf" points="480.5,-666.5 480.5,-723.5 509.5,-723.5 509.5,-666.5 480.5,-666.5"/>
<text text-anchor="middle" x="495" y="-711.5" font-family="Helvetica,sans-Serif" font-size="10.00">T</text>
<polyline fill="none" stroke="#bfbfbf" points="480.5,-704.5 509.5,-704.5 "/>
<text text-anchor="middle" x="495" y="-692.5" font-family="Helvetica,sans-Serif" font-size="10.00"> </text>
<polyline fill="none" stroke="#bfbfbf" points="480.5,-685.5 509.5,-685.5 "/>
<text text-anchor="middle" x="495" y="-673.5" font-family="Helvetica,sans-Serif" font-size="10.00"> </text>
</g>
<!-- Node8&#45;&gt;Node7 -->
<g id="edge7" class="edge"><title>Node8&#45;&gt;Node7</title>
<path fill="none" stroke="#404040" d="M495,-666.403C495,-655.237 495,-642.13 495,-629.956"/>
<polygon fill="none" stroke="#404040" points="495,-629.726 491,-623.726 495,-617.726 499,-623.726 495,-629.726"/>
<text text-anchor="middle" x="519.5" y="-639.5" font-family="Helvetica,sans-Serif" font-size="10.00"> +elements</text>
</g>
<!-- Node9 -->
<g id="node9" class="node"><title>Node9</title>
<polygon fill="white" stroke="#bfbfbf" points="159.5,-448.5 159.5,-505.5 236.5,-505.5 236.5,-448.5 159.5,-448.5"/>
<text text-anchor="middle" x="198" y="-493.5" font-family="Helvetica,sans-Serif" font-size="10.00">unsigned long</text>
<polyline fill="none" stroke="#bfbfbf" points="159.5,-486.5 236.5,-486.5 "/>
<text text-anchor="middle" x="198" y="-474.5" font-family="Helvetica,sans-Serif" font-size="10.00"> </text>
<polyline fill="none" stroke="#bfbfbf" points="159.5,-467.5 236.5,-467.5 "/>
<text text-anchor="middle" x="198" y="-455.5" font-family="Helvetica,sans-Serif" font-size="10.00"> </text>
</g>
<!-- Node9&#45;&gt;Node4 -->
<g id="edge8" class="edge"><title>Node9&#45;&gt;Node4</title>
<path fill="none" stroke="#404040" d="M233.711,-448.454C237.427,-446.112 241.227,-443.912 245,-442 283.738,-422.364 295.983,-422.989 338,-412 373.688,-402.667 389.345,-412.305 425.027,-394.234"/>
<polygon fill="none" stroke="#404040" points="425.151,-394.165 428.469,-387.763 435.655,-388.363 432.337,-394.766 425.151,-394.165"/>
<text text-anchor="middle" x="358.5" y="-415.5" font-family="Helvetica,sans-Serif" font-size="10.00"> &#45;m_seed</text>
</g>
<!-- Node10&#45;&gt;Node4 -->
<g id="edge9" class="edge"><title>Node10&#45;&gt;Node4</title>
<path fill="none" stroke="#404040" d="M431.576,-442.848C437.282,-431.436 443.969,-418.061 450.822,-404.355"/>
<polygon fill="none" stroke="#404040" points="450.972,-404.057 450.077,-396.901 456.338,-393.323 457.233,-400.479 450.972,-404.057"/>
<text text-anchor="middle" x="467" y="-415.5" font-family="Helvetica,sans-Serif" font-size="10.00"> &#45;m_mrg2</text>
</g>
<!-- Node11 -->
<g id="node11" class="node"><title>Node11</title>
<polygon fill="white" stroke="#bfbfbf" points="271,-560.5 271,-617.5 309,-617.5 309,-560.5 271,-560.5"/>
<text text-anchor="middle" x="290" y="-605.5" font-family="Helvetica,sans-Serif" font-size="10.00">mrg2</text>
<polyline fill="none" stroke="#bfbfbf" points="271,-598.5 309,-598.5 "/>
<text text-anchor="middle" x="290" y="-586.5" font-family="Helvetica,sans-Serif" font-size="10.00"> </text>
<polyline fill="none" stroke="#bfbfbf" points="271,-579.5 309,-579.5 "/>
<text text-anchor="middle" x="290" y="-567.5" font-family="Helvetica,sans-Serif" font-size="10.00"> </text>
</g>
<!-- Node11&#45;&gt;Node10 -->
<g id="edge10" class="edge"><title>Node11&#45;&gt;Node10</title>
<path fill="none" stroke="#404040" d="M283.862,-560.264C283.131,-549.805 284.431,-538.415 291,-530 307.971,-508.258 325.469,-520.622 355.946,-511.81"/>
<polygon fill="none" stroke="#404040" points="356,-511.791 360.287,-505.992 367.288,-507.719 363.001,-513.518 356,-511.791"/>
<text text-anchor="middle" x="315.5" y="-533.5" font-family="Helvetica,sans-Serif" font-size="10.00"> +elements</text>
</g>
<!-- Node12&#45;&gt;Node4 -->
<g id="edge12" class="edge"><title>Node12&#45;&gt;Node4</title>
<path fill="none" stroke="#404040" d="M141.658,-445.39C164.427,-432.479 192.633,-418.866 220,-412 261.724,-401.532 369.645,-413.105 424.679,-393.612"/>
<polygon fill="none" stroke="#404040" points="424.865,-393.532 428.801,-387.489 435.892,-388.798 431.956,-394.841 424.865,-393.532"/>
<text text-anchor="middle" x="253.5" y="-415.5" font-family="Helvetica,sans-Serif" font-size="10.00"> &#45;m_lcg64_shift</text>
</g>
<!-- Node13 -->
<g id="node13" class="node"><title>Node13</title>
<polygon fill="white" stroke="#bfbfbf" points="0,-560.5 0,-617.5 64,-617.5 64,-560.5 0,-560.5"/>
<text text-anchor="middle" x="32" y="-605.5" font-family="Helvetica,sans-Serif" font-size="10.00">lcg64_shift</text>
<polyline fill="none" stroke="#bfbfbf" points="0,-598.5 64,-598.5 "/>
<text text-anchor="middle" x="32" y="-586.5" font-family="Helvetica,sans-Serif" font-size="10.00"> </text>
<polyline fill="none" stroke="#bfbfbf" points="0,-579.5 64,-579.5 "/>
<text text-anchor="middle" x="32" y="-567.5" font-family="Helvetica,sans-Serif" font-size="10.00"> </text>
</g>
<!-- Node13&#45;&gt;Node12 -->
<g id="edge13" class="edge"><title>Node13&#45;&gt;Node12</title>
<path fill="none" stroke="#404040" d="M27.8895,-560.37C27.5653,-550.384 28.6148,-539.289 33,-530 34.5826,-526.647 36.4965,-523.43 38.6555,-520.355"/>
<polygon fill="none" stroke="#404040" points="38.6836,-520.32 39.3851,-513.143 46.2798,-511.03 45.5783,-518.207 38.6836,-520.32"/>
<text text-anchor="middle" x="57.5" y="-533.5" font-family="Helvetica,sans-Serif" font-size="10.00"> +elements</text>
</g>
<!-- Node14 -->
<g id="node14" class="node"><title>Node14</title>
<polygon fill="white" stroke="#bfbfbf" points="480.5,-448.5 480.5,-505.5 509.5,-505.5 509.5,-448.5 480.5,-448.5"/>
<text text-anchor="middle" x="495" y="-493.5" font-family="Helvetica,sans-Serif" font-size="10.00">Id</text>
<polyline fill="none" stroke="#bfbfbf" points="480.5,-486.5 509.5,-486.5 "/>
<text text-anchor="middle" x="495" y="-474.5" font-family="Helvetica,sans-Serif" font-size="10.00"> </text>
<polyline fill="none" stroke="#bfbfbf" points="480.5,-467.5 509.5,-467.5 "/>
<text text-anchor="middle" x="495" y="-455.5" font-family="Helvetica,sans-Serif" font-size="10.00"> </text>
</g>
<!-- Node14&#45;&gt;Node4 -->
<g id="edge15" class="edge"><title>Node14&#45;&gt;Node4</title>
<path fill="none" stroke="#404040" d="M495,-448.495C495,-436.178 495,-420.887 495,-405.118"/>
<polygon fill="none" stroke="#404040" points="495,-405.008 491,-399.008 495,-393.008 499,-399.008 495,-405.008"/>
<text text-anchor="middle" x="521" y="-415.5" font-family="Helvetica,sans-Serif" font-size="10.00"> &#45;m_type_id</text>
</g>
<!-- Node15&#45;&gt;Node4 -->
<g id="edge16" class="edge"><title>Node15&#45;&gt;Node4</title>
<path fill="none" stroke="#404040" d="M836.53,-442.958C827.538,-431.797 816.368,-420.122 804,-412 730.731,-363.886 631.981,-338.759 566.033,-326.473"/>
<polygon fill="none" stroke="#404040" points="565.924,-326.453 559.31,-329.326 554.115,-324.325 560.729,-321.453 565.924,-326.453"/>
<text text-anchor="middle" x="840.5" y="-415.5" font-family="Helvetica,sans-Serif" font-size="10.00"> &#45;m_lcg64</text>
</g>
<!-- Node16 -->
<g id="node16" class="node"><title>Node16</title>
<polygon fill="white" stroke="#bfbfbf" points="936,-560.5 936,-617.5 976,-617.5 976,-560.5 936,-560.5"/>
<text text-anchor="middle" x="956" y="-605.5" font-family="Helvetica,sans-Serif" font-size="10.00">lcg64</text>
<polyline fill="none" stroke="#bfbfbf" points="936,-598.5 976,-598.5 "/>
<text text-anchor="middle" x="956" y="-586.5" font-family="Helvetica,sans-Serif" font-size="10.00"> </text>
<polyline fill="none" stroke="#bfbfbf" points="936,-579.5 976,-579.5 "/>
<text text-anchor="middle" x="956" y="-567.5" font-family="Helvetica,sans-Serif" font-size="10.00"> </text>
</g>
<!-- Node16&#45;&gt;Node15 -->
<g id="edge17" class="edge"><title>Node16&#45;&gt;Node15</title>
<path fill="none" stroke="#404040" d="M949.238,-560.271C945.823,-550.05 940.898,-538.824 934,-530 928.951,-523.542 922.88,-517.571 916.406,-512.153"/>
<polygon fill="none" stroke="#404040" points="916.183,-511.98 908.99,-511.459 906.705,-504.62 913.897,-505.14 916.183,-511.98"/>
<text text-anchor="middle" x="966.5" y="-533.5" font-family="Helvetica,sans-Serif" font-size="10.00"> +elements</text>
</g>
<!-- Node17&#45;&gt;Node4 -->
<g id="edge19" class="edge"><title>Node17&#45;&gt;Node4</title>
<path fill="none" stroke="#404040" d="M648.01,-442.848C623.707,-422.7 592.02,-396.431 563.789,-373.028"/>
<polygon fill="none" stroke="#404040" points="563.602,-372.872 556.43,-372.122 554.364,-365.214 561.536,-365.964 563.602,-372.872"/>
<text text-anchor="middle" x="643" y="-415.5" font-family="Helvetica,sans-Serif" font-size="10.00"> &#45;m_yarn2</text>
</g>
<!-- Node18 -->
<g id="node18" class="node"><title>Node18</title>
<polygon fill="white" stroke="#bfbfbf" points="863.5,-560.5 863.5,-617.5 904.5,-617.5 904.5,-560.5 863.5,-560.5"/>
<text text-anchor="middle" x="884" y="-605.5" font-family="Helvetica,sans-Serif" font-size="10.00">yarn2</text>
<polyline fill="none" stroke="#bfbfbf" points="863.5,-598.5 904.5,-598.5 "/>
<text text-anchor="middle" x="884" y="-586.5" font-family="Helvetica,sans-Serif" font-size="10.00"> </text>
<polyline fill="none" stroke="#bfbfbf" points="863.5,-579.5 904.5,-579.5 "/>
<text text-anchor="middle" x="884" y="-567.5" font-family="Helvetica,sans-Serif" font-size="10.00"> </text>
</g>
<!-- Node18&#45;&gt;Node17 -->
<g id="edge20" class="edge"><title>Node18&#45;&gt;Node17</title>
<path fill="none" stroke="#404040" d="M879.769,-560.489C876.667,-549.417 871.297,-537.515 862,-530 823.563,-498.929 797.604,-525.854 747.166,-512.259"/>
<polygon fill="none" stroke="#404040" points="747.082,-512.233 740.148,-514.213 735.654,-508.574 742.588,-506.594 747.082,-512.233"/>
<text text-anchor="middle" x="896.5" y="-533.5" font-family="Helvetica,sans-Serif" font-size="10.00"> +elements</text>
</g>
<!-- Node19 -->
<g id="node19" class="node"><title>Node19</title>
<polygon fill="white" stroke="#bfbfbf" points="753.5,-448.5 753.5,-505.5 782.5,-505.5 782.5,-448.5 753.5,-448.5"/>
<text text-anchor="middle" x="768" y="-493.5" font-family="Helvetica,sans-Serif" font-size="10.00">int</text>
<polyline fill="none" stroke="#bfbfbf" points="753.5,-486.5 782.5,-486.5 "/>
<text text-anchor="middle" x="768" y="-474.5" font-family="Helvetica,sans-Serif" font-size="10.00"> </text>
<polyline fill="none" stroke="#bfbfbf" points="753.5,-467.5 782.5,-467.5 "/>
<text text-anchor="middle" x="768" y="-455.5" font-family="Helvetica,sans-Serif" font-size="10.00"> </text>
</g>
<!-- Node19&#45;&gt;Node4 -->
<g id="edge22" class="edge"><title>Node19&#45;&gt;Node4</title>
<path fill="none" stroke="#404040" d="M753.383,-452.061C750.546,-448.432 747.39,-444.928 744,-442 691.048,-396.275 618.606,-362.044 565.511,-340.888"/>
<polygon fill="none" stroke="#404040" points="565.326,-340.816 558.281,-342.355 554.151,-336.443 561.196,-334.905 565.326,-340.816"/>
<text text-anchor="middle" x="760.5" y="-415.5" font-family="Helvetica,sans-Serif" font-size="10.00"> &#45;m_stream_count</text>
</g>
<!-- Node20&#45;&gt;Node4 -->
<g id="edge23" class="edge"><title>Node20&#45;&gt;Node4</title>
<path fill="none" stroke="#404040" d="M563.071,-442.715C559.199,-432.709 554.686,-421.792 550,-412 548.694,-409.271 547.341,-406.515 545.951,-403.744"/>
<polygon fill="none" stroke="#404040" points="545.922,-403.688 539.619,-400.184 540.43,-393.019 546.732,-396.523 545.922,-403.688"/>
<text text-anchor="middle" x="578" y="-415.5" font-family="Helvetica,sans-Serif" font-size="10.00"> &#45;m_yarn3</text>
</g>
<!-- Node21 -->
<g id="node21" class="node"><title>Node21</title>
<polygon fill="white" stroke="#bfbfbf" points="701.5,-560.5 701.5,-617.5 742.5,-617.5 742.5,-560.5 701.5,-560.5"/>
<text text-anchor="middle" x="722" y="-605.5" font-family="Helvetica,sans-Serif" font-size="10.00">yarn3</text>
<polyline fill="none" stroke="#bfbfbf" points="701.5,-598.5 742.5,-598.5 "/>
<text text-anchor="middle" x="722" y="-586.5" font-family="Helvetica,sans-Serif" font-size="10.00"> </text>
<polyline fill="none" stroke="#bfbfbf" points="701.5,-579.5 742.5,-579.5 "/>
<text text-anchor="middle" x="722" y="-567.5" font-family="Helvetica,sans-Serif" font-size="10.00"> </text>
</g>
<!-- Node21&#45;&gt;Node20 -->
<g id="edge24" class="edge"><title>Node21&#45;&gt;Node20</title>
<path fill="none" stroke="#404040" d="M717.208,-560.349C714.019,-549.522 708.734,-537.843 700,-530 678.999,-511.14 663.825,-521.396 634.338,-512.473"/>
<polygon fill="none" stroke="#404040" points="634.053,-512.368 627.041,-514.052 622.79,-508.228 629.801,-506.543 634.053,-512.368"/>
<text text-anchor="middle" x="734.5" y="-533.5" font-family="Helvetica,sans-Serif" font-size="10.00"> +elements</text>
</g>
</g>
</svg>
        <g id="navigator" transform="translate(0 0)" fill="#404254">
                <rect fill="#f2f5e9" fill-opacity="0.5" stroke="#606060" stroke-width=".5" x="0" y="0" width="60" height="60"/>
                <use id="zoomplus" xlink:href="#zoomPlus" x="17" y="9" onmousedown="handleZoom(evt,'in')"/>
                <use id="zoomminus" xlink:href="#zoomMin" x="42" y="9" onmousedown="handleZoom(evt,'out')"/>
                <use id="reset" xlink:href="#resetDef" x="30" y="36" onmousedown="handleReset()"/>
                <g id="arrowUp" xlink:href="#dirArrow" transform="translate(30 24)" onmousedown="handlePan(0,-1)">
                  <use xlink:href="#rim" fill="#404040">
                        <set attributeName="fill" to="#808080" begin="arrowUp.mouseover" end="arrowUp.mouseout"/>
                  </use>
                  <path fill="none" stroke="white" stroke-width="1.5" d="M0,-3.0v7 M-2.5,-0.5L0,-3.0L2.5,-0.5"/>
                </g>
                <g id="arrowRight" xlink:href="#dirArrow" transform="rotate(90) translate(36 -43)" onmousedown="handlePan(1,0)">
                  <use xlink:href="#rim" fill="#404040">
                        <set attributeName="fill" to="#808080" begin="arrowRight.mouseover" end="arrowRight.mouseout"/>
                  </use>
                  <path fill="none" stroke="white" stroke-width="1.5" d="M0,-3.0v7 M-2.5,-0.5L0,-3.0L2.5,-0.5"/>
                </g>
                <g id="arrowDown" xlink:href="#dirArrow" transform="rotate(180) translate(-30 -48)" onmousedown="handlePan(0,1)">
                  <use xlink:href="#rim" fill="#404040">
                        <set attributeName="fill" to="#808080" begin="arrowDown.mouseover" end="arrowDown.mouseout"/>
                  </use>
                  <path fill="none" stroke="white" stroke-width="1.5" d="M0,-3.0v7 M-2.5,-0.5L0,-3.0L2.5,-0.5"/>
                </g>
                <g id="arrowLeft" xlink:href="#dirArrow" transform="rotate(270) translate(-36 17)" onmousedown="handlePan(-1,0)">
                  <use xlink:href="#rim" fill="#404040">
                        <set attributeName="fill" to="#808080" begin="arrowLeft.mouseover" end="arrowLeft.mouseout"/>
                  </use>
                  <path fill="none" stroke="white" stroke-width="1.5" d="M0,-3.0v7 M-2.5,-0.5L0,-3.0L2.5,-0.5"/>
                </g>
        </g>
        <svg viewBox="0 0 15 15" width="100%" height="30px" preserveAspectRatio="xMaxYMin meet">
         <g id="arrow_out" transform="scale(0.3 0.3)">
          <a xlink:href="a00978_org.svg" target="_base">
           <rect id="button" ry="5" rx="5" y="6" x="6" height="38" width="38"
                fill="#f2f5e9" fill-opacity="0.5" stroke="#606060" stroke-width="1.0"/>
           <path id="arrow"
             d="M 11.500037,31.436501 C 11.940474,20.09759 22.043105,11.32322 32.158766,21.979434 L 37.068811,17.246167 C 37.068811,17.246167 37.088388,32 37.088388,32 L 22.160133,31.978069 C 22.160133,31.978069 26.997745,27.140456 26.997745,27.140456 C 18.528582,18.264221 13.291696,25.230495 11.500037,31.436501 z"
             style="fill:#404040;"/>
          </a>
         </g>
        </svg>
</svg>
