<?xml version="1.0" encoding="UTF-8" standalone="no"?>
<!DOCTYPE svg PUBLIC "-//W3C//DTD SVG 1.1//EN"
 "http://www.w3.org/Graphics/SVG/1.1/DTD/svg11.dtd">
<!-- Generated by graphviz version 2.36.0 (20140111.2315)
 -->
<!-- Title: GenGeoPopController.h Pages: 1 -->
<svg width="461pt" height="84pt"
 viewBox="0.00 0.00 461.00 84.00" xmlns="http://www.w3.org/2000/svg" xmlns:xlink="http://www.w3.org/1999/xlink">
<g id="graph0" class="graph" transform="scale(1 1) rotate(0) translate(4 80)">
<title>GenGeoPopController.h</title>
<polygon fill="white" stroke="none" points="-4,4 -4,-80 457,-80 457,4 -4,4"/>
<!-- Node1 -->
<g id="node1" class="node"><title>Node1</title>
<polygon fill="#bfbfbf" stroke="black" points="165,-56.5 165,-75.5 285,-75.5 285,-56.5 165,-56.5"/>
<text text-anchor="middle" x="225" y="-63.5" font-family="Helvetica,sans-Serif" font-size="10.00">GenGeoPopController.h</text>
</g>
<!-- Node2 -->
<g id="node2" class="node"><title>Node2</title>
<g id="a_node2"><a xlink:href="../../db/d12/a00268.html" target="_top" xlink:title="GenGeoPopController.cpp">
<polygon fill="white" stroke="black" points="-0.5,-0.5 -0.5,-19.5 130.5,-19.5 130.5,-0.5 -0.5,-0.5"/>
<text text-anchor="middle" x="65" y="-7.5" font-family="Helvetica,sans-Serif" font-size="10.00">GenGeoPopController.cpp</text>
</a>
</g>
</g>
<!-- Node1&#45;&gt;Node2 -->
<g id="edge1" class="edge"><title>Node1&#45;&gt;Node2</title>
<path fill="none" stroke="midnightblue" d="M189.954,-53.172C159.826,-43.0039 117.104,-28.5852 90.2339,-19.5164"/>
<polygon fill="midnightblue" stroke="midnightblue" points="189.053,-56.5619 199.648,-56.4435 191.292,-49.9295 189.053,-56.5619"/>
</g>
<!-- Node3 -->
<g id="node3" class="node"><title>Node3</title>
<g id="a_node3"><a xlink:href="../../d6/d9c/a00352.html" target="_top" xlink:title="main.cpp">
<polygon fill="white" stroke="black" points="149,-0.5 149,-19.5 205,-19.5 205,-0.5 149,-0.5"/>
<text text-anchor="middle" x="177" y="-7.5" font-family="Helvetica,sans-Serif" font-size="10.00">main.cpp</text>
</a>
</g>
</g>
<!-- Node1&#45;&gt;Node3 -->
<g id="edge2" class="edge"><title>Node1&#45;&gt;Node3</title>
<path fill="none" stroke="midnightblue" d="M210.272,-48.4314C201.86,-38.9673 191.651,-27.4827 184.779,-19.7511"/>
<polygon fill="midnightblue" stroke="midnightblue" points="207.814,-50.9342 217.074,-56.083 213.046,-46.2836 207.814,-50.9342"/>
</g>
<!-- Node4 -->
<g id="node4" class="node"><title>Node4</title>
<g id="a_node4"><a xlink:href="../../d9/d2a/a00270.html" target="_top" xlink:title="Initialize populations: implementation. ">
<polygon fill="white" stroke="black" points="223.5,-0.5 223.5,-19.5 324.5,-19.5 324.5,-0.5 223.5,-0.5"/>
<text text-anchor="middle" x="274" y="-7.5" font-family="Helvetica,sans-Serif" font-size="10.00">GenPopBuilder.cpp</text>
</a>
</g>
</g>
<!-- Node1&#45;&gt;Node4 -->
<g id="edge3" class="edge"><title>Node1&#45;&gt;Node4</title>
<path fill="none" stroke="midnightblue" d="M240.034,-48.4314C248.622,-38.9673 259.043,-27.4827 266.059,-19.7511"/>
<polygon fill="midnightblue" stroke="midnightblue" points="237.219,-46.3254 233.091,-56.083 242.403,-51.0293 237.219,-46.3254"/>
</g>
<!-- Node5 -->
<g id="node5" class="node"><title>Node5</title>
<g id="a_node5"><a xlink:href="../../de/d55/a00323.html" target="_top" xlink:title="Initialize populations: implementation. ">
<polygon fill="white" stroke="black" points="343,-0.5 343,-19.5 453,-19.5 453,-0.5 343,-0.5"/>
<text text-anchor="middle" x="398" y="-7.5" font-family="Helvetica,sans-Serif" font-size="10.00">ImportPopBuilder.cpp</text>
</a>
</g>
</g>
<!-- Node1&#45;&gt;Node5 -->
<g id="edge4" class="edge"><title>Node1&#45;&gt;Node5</title>
<path fill="none" stroke="midnightblue" d="M262.047,-53.4363C294.664,-43.2551 341.41,-28.664 370.716,-19.5164"/>
<polygon fill="midnightblue" stroke="midnightblue" points="260.915,-50.1228 252.412,-56.4435 263.001,-56.8049 260.915,-50.1228"/>
</g>
</g>
</svg>
