<?xml version="1.0" encoding="UTF-8" standalone="no"?>
<!DOCTYPE svg PUBLIC "-//W3C//DTD SVG 1.1//EN"
 "http://www.w3.org/Graphics/SVG/1.1/DTD/svg11.dtd">
<!-- Generated by graphviz version 2.36.0 (20140111.2315)
 -->
<!-- Title: gengeopop::GeoGridPopulator Pages: 1 -->
<svg width="712pt" height="680pt"
 viewBox="0.00 0.00 712.00 680.00" xmlns="http://www.w3.org/2000/svg" xmlns:xlink="http://www.w3.org/1999/xlink">
<g id="graph0" class="graph" transform="scale(1 1) rotate(0) translate(4 676)">
<title>gengeopop::GeoGridPopulator</title>
<polygon fill="white" stroke="none" points="-4,4 -4,-676 708,-676 708,4 -4,4"/>
<!-- Node1 -->
<g id="node1" class="node"><title>Node1</title>
<polygon fill="#bfbfbf" stroke="black" points="212.5,-1 212.5,-91 359.5,-91 359.5,-1 212.5,-1"/>
<text text-anchor="middle" x="286" y="-79" font-family="Helvetica,sans-Serif" font-size="10.00">gengeopop::GeoGridPopulator</text>
<polyline fill="none" stroke="black" points="212.5,-72 359.5,-72 "/>
<text text-anchor="middle" x="286" y="-60" font-family="Helvetica,sans-Serif" font-size="10.00"> </text>
<polyline fill="none" stroke="black" points="212.5,-53 359.5,-53 "/>
<text text-anchor="start" x="220.5" y="-41" font-family="Helvetica,sans-Serif" font-size="10.00">+ GeoGridPopulator()</text>
<text text-anchor="start" x="220.5" y="-30" font-family="Helvetica,sans-Serif" font-size="10.00">+ AddPartialPopulator()</text>
<text text-anchor="start" x="220.5" y="-19" font-family="Helvetica,sans-Serif" font-size="10.00">+ PopulateGeoGrid()</text>
<text text-anchor="start" x="220.5" y="-8" font-family="Helvetica,sans-Serif" font-size="10.00">+ GetGeoGrid()</text>
</g>
<!-- Node2 -->
<g id="node2" class="node"><title>Node2</title>
<polygon fill="white" stroke="#bfbfbf" points="0,-369 0,-437 182,-437 182,-369 0,-369"/>
<text text-anchor="start" x="8" y="-425" font-family="Helvetica,sans-Serif" font-size="10.00">std::vector&lt; std::shared</text>
<text text-anchor="middle" x="91" y="-414" font-family="Helvetica,sans-Serif" font-size="10.00">_ptr&lt; gengeopop::PartialPopulator &gt; &gt;</text>
<polyline fill="none" stroke="#bfbfbf" points="0,-407 182,-407 "/>
<text text-anchor="middle" x="91" y="-395" font-family="Helvetica,sans-Serif" font-size="10.00"> </text>
<polyline fill="none" stroke="#bfbfbf" points="0,-388 182,-388 "/>
<text text-anchor="middle" x="91" y="-376" font-family="Helvetica,sans-Serif" font-size="10.00"> </text>
</g>
<!-- Node2&#45;&gt;Node1 -->
<g id="edge1" class="edge"><title>Node2&#45;&gt;Node1</title>
<path fill="none" stroke="#404040" d="M85.1179,-368.99C77.5275,-315.935 70.3171,-210.509 117,-140 136.846,-110.026 169.762,-88.8369 201.299,-74.3362"/>
<polygon fill="none" stroke="#404040" points="201.382,-74.2999 205.271,-68.2278 212.372,-69.4827 208.483,-75.5549 201.382,-74.2999"/>
<text text-anchor="middle" x="163.5" y="-172.5" font-family="Helvetica,sans-Serif" font-size="10.00"> &#45;m_partialPopulators</text>
</g>
<!-- Node3 -->
<g id="node3" class="node"><title>Node3</title>
<polygon fill="white" stroke="#bfbfbf" points="20.5,-497 20.5,-565 139.5,-565 139.5,-497 20.5,-497"/>
<text text-anchor="start" x="28.5" y="-553" font-family="Helvetica,sans-Serif" font-size="10.00">shared_ptr&lt; gengeopop</text>
<text text-anchor="middle" x="80" y="-542" font-family="Helvetica,sans-Serif" font-size="10.00">::PartialPopulator &gt;</text>
<polyline fill="none" stroke="#bfbfbf" points="20.5,-535 139.5,-535 "/>
<text text-anchor="middle" x="80" y="-523" font-family="Helvetica,sans-Serif" font-size="10.00"> </text>
<polyline fill="none" stroke="#bfbfbf" points="20.5,-516 139.5,-516 "/>
<text text-anchor="middle" x="80" y="-504" font-family="Helvetica,sans-Serif" font-size="10.00"> </text>
</g>
<!-- Node3&#45;&gt;Node2 -->
<g id="edge2" class="edge"><title>Node3&#45;&gt;Node2</title>
<path fill="none" stroke="#404040" d="M79.2035,-496.775C79.2232,-483.999 79.6427,-469.293 81,-456 81.2248,-453.798 81.4959,-451.55 81.8024,-449.284"/>
<polygon fill="none" stroke="#404040" points="81.8454,-449.012 78.8315,-442.461 83.7194,-437.159 86.7333,-443.71 81.8454,-449.012"/>
<text text-anchor="middle" x="105.5" y="-464.5" font-family="Helvetica,sans-Serif" font-size="10.00"> +elements</text>
</g>
<!-- Node4 -->
<g id="node4" class="node"><title>Node4</title>
<g id="a_node4"><a xlink:title="STL class. ">
<polygon fill="white" stroke="#bfbfbf" points="216.5,-502.5 216.5,-559.5 303.5,-559.5 303.5,-502.5 216.5,-502.5"/>
<text text-anchor="middle" x="260" y="-547.5" font-family="Helvetica,sans-Serif" font-size="10.00">std::vector&lt; T &gt;</text>
<polyline fill="none" stroke="#bfbfbf" points="216.5,-540.5 303.5,-540.5 "/>
<text text-anchor="middle" x="260" y="-528.5" font-family="Helvetica,sans-Serif" font-size="10.00"> </text>
<polyline fill="none" stroke="#bfbfbf" points="216.5,-521.5 303.5,-521.5 "/>
<text text-anchor="middle" x="260" y="-509.5" font-family="Helvetica,sans-Serif" font-size="10.00"> </text>
</a>
</g>
</g>
<!-- Node4&#45;&gt;Node2 -->
<g id="edge3" class="edge"><title>Node4&#45;&gt;Node2</title>
<path fill="none" stroke="orange" d="M207.161,-509.672C189.022,-501.347 169.22,-490.664 153,-478 144.743,-471.554 129.768,-453.759 116.603,-437.236"/>
<polygon fill="orange" stroke="orange" points="205.907,-512.945 216.467,-513.809 208.751,-506.549 205.907,-512.945"/>
<text text-anchor="start" x="153" y="-470" font-family="Helvetica,sans-Serif" font-size="10.00"> &lt; std::shared_ptr&lt;</text>
<text text-anchor="middle" x="225" y="-459" font-family="Helvetica,sans-Serif" font-size="10.00"> gengeopop::PartialPopulator &gt; &gt;</text>
</g>
<!-- Node10 -->
<g id="node10" class="node"><title>Node10</title>
<polygon fill="white" stroke="#bfbfbf" points="371,-369 371,-437 531,-437 531,-369 371,-369"/>
<text text-anchor="start" x="379" y="-425" font-family="Helvetica,sans-Serif" font-size="10.00">std::vector&lt; std::shared</text>
<text text-anchor="middle" x="451" y="-414" font-family="Helvetica,sans-Serif" font-size="10.00">_ptr&lt; gengeopop::Household &gt; &gt;</text>
<polyline fill="none" stroke="#bfbfbf" points="371,-407 531,-407 "/>
<text text-anchor="middle" x="451" y="-395" font-family="Helvetica,sans-Serif" font-size="10.00"> </text>
<polyline fill="none" stroke="#bfbfbf" points="371,-388 531,-388 "/>
<text text-anchor="middle" x="451" y="-376" font-family="Helvetica,sans-Serif" font-size="10.00"> </text>
</g>
<!-- Node4&#45;&gt;Node10 -->
<g id="edge11" class="edge"><title>Node4&#45;&gt;Node10</title>
<path fill="none" stroke="orange" d="M289.043,-494.756C301.302,-481.406 316.354,-466.832 332,-456 343.957,-447.723 357.442,-440.315 370.928,-433.865"/>
<polygon fill="orange" stroke="orange" points="286.228,-492.653 282.164,-502.437 291.443,-497.323 286.228,-492.653"/>
<text text-anchor="start" x="332" y="-470" font-family="Helvetica,sans-Serif" font-size="10.00"> &lt; std::shared_ptr&lt;</text>
<text text-anchor="middle" x="392.5" y="-459" font-family="Helvetica,sans-Serif" font-size="10.00"> gengeopop::Household &gt; &gt;</text>
</g>
<!-- Node5 -->
<g id="node5" class="node"><title>Node5</title>
<polygon fill="white" stroke="#bfbfbf" points="245.5,-614.5 245.5,-671.5 274.5,-671.5 274.5,-614.5 245.5,-614.5"/>
<text text-anchor="middle" x="260" y="-659.5" font-family="Helvetica,sans-Serif" font-size="10.00">T</text>
<polyline fill="none" stroke="#bfbfbf" points="245.5,-652.5 274.5,-652.5 "/>
<text text-anchor="middle" x="260" y="-640.5" font-family="Helvetica,sans-Serif" font-size="10.00"> </text>
<polyline fill="none" stroke="#bfbfbf" points="245.5,-633.5 274.5,-633.5 "/>
<text text-anchor="middle" x="260" y="-621.5" font-family="Helvetica,sans-Serif" font-size="10.00"> </text>
</g>
<!-- Node5&#45;&gt;Node4 -->
<g id="edge4" class="edge"><title>Node5&#45;&gt;Node4</title>
<path fill="none" stroke="#404040" d="M260,-614.242C260,-601.475 260,-586.088 260,-572.094"/>
<polygon fill="none" stroke="#404040" points="260,-571.749 256,-565.749 260,-559.749 264,-565.749 260,-571.749"/>
<text text-anchor="middle" x="284.5" y="-587.5" font-family="Helvetica,sans-Serif" font-size="10.00"> +elements</text>
</g>
<!-- Node6 -->
<g id="node6" class="node"><title>Node6</title>
<polygon fill="white" stroke="#bfbfbf" points="371.5,-141 371.5,-209 490.5,-209 490.5,-141 371.5,-141"/>
<text text-anchor="start" x="379.5" y="-197" font-family="Helvetica,sans-Serif" font-size="10.00">shared_ptr&lt; gengeopop</text>
<text text-anchor="middle" x="431" y="-186" font-family="Helvetica,sans-Serif" font-size="10.00">::GeoGrid &gt;</text>
<polyline fill="none" stroke="#bfbfbf" points="371.5,-179 490.5,-179 "/>
<text text-anchor="middle" x="431" y="-167" font-family="Helvetica,sans-Serif" font-size="10.00"> </text>
<polyline fill="none" stroke="#bfbfbf" points="371.5,-160 490.5,-160 "/>
<text text-anchor="middle" x="431" y="-148" font-family="Helvetica,sans-Serif" font-size="10.00"> </text>
</g>
<!-- Node6&#45;&gt;Node1 -->
<g id="edge5" class="edge"><title>Node6&#45;&gt;Node1</title>
<path fill="none" stroke="#404040" d="M402.749,-140.919C393.362,-130.607 382.594,-119.464 372,-110 367.738,-106.193 363.254,-102.388 358.662,-98.6395"/>
<polygon fill="none" stroke="#404040" points="358.511,-98.5187 351.325,-97.9099 349.124,-91.043 356.309,-91.6519 358.511,-98.5187"/>
<text text-anchor="middle" x="412" y="-113.5" font-family="Helvetica,sans-Serif" font-size="10.00"> &#45;m_geoGrid</text>
</g>
<!-- Node7 -->
<g id="node7" class="node"><title>Node7</title>
<g id="a_node7"><a xlink:href="../../db/df3/a00034.html" target="_top" xlink:title="Configuration data when generating a GeoGrid. ">
<polygon fill="white" stroke="black" points="219,-141 219,-209 353,-209 353,-141 219,-141"/>
<text text-anchor="middle" x="286" y="-197" font-family="Helvetica,sans-Serif" font-size="10.00">gengeopop::GeoGridConfig</text>
<polyline fill="none" stroke="black" points="219,-190 353,-190 "/>
<text text-anchor="middle" x="286" y="-178" font-family="Helvetica,sans-Serif" font-size="10.00"> </text>
<polyline fill="none" stroke="black" points="219,-171 353,-171 "/>
<text text-anchor="start" x="227" y="-159" font-family="Helvetica,sans-Serif" font-size="10.00">+ GeoGridConfig()</text>
<text text-anchor="start" x="227" y="-148" font-family="Helvetica,sans-Serif" font-size="10.00">+ Calculate()</text>
</a>
</g>
</g>
<!-- Node7&#45;&gt;Node1 -->
<g id="edge6" class="edge"><title>Node7&#45;&gt;Node1</title>
<path fill="none" stroke="#404040" d="M286,-140.964C286,-129.49 286,-116.278 286,-103.454"/>
<polygon fill="none" stroke="#404040" points="286,-103.347 282,-97.3474 286,-91.3474 290,-97.3474 286,-103.347"/>
<text text-anchor="middle" x="327" y="-113.5" font-family="Helvetica,sans-Serif" font-size="10.00"> &#45;m_geoGridConfig</text>
</g>
<!-- Node8 -->
<g id="node8" class="node"><title>Node8</title>
<g id="a_node8"><a xlink:href="../../d9/d34/a00476.html" target="_top" xlink:title="{double\n||}">
<polygon fill="white" stroke="black" points="549.5,-374.5 549.5,-431.5 594.5,-431.5 594.5,-374.5 549.5,-374.5"/>
<text text-anchor="middle" x="572" y="-419.5" font-family="Helvetica,sans-Serif" font-size="10.00">double</text>
<polyline fill="none" stroke="black" points="549.5,-412.5 594.5,-412.5 "/>
<text text-anchor="middle" x="572" y="-400.5" font-family="Helvetica,sans-Serif" font-size="10.00"> </text>
<polyline fill="none" stroke="black" points="549.5,-393.5 594.5,-393.5 "/>
<text text-anchor="middle" x="572" y="-381.5" font-family="Helvetica,sans-Serif" font-size="10.00"> </text>
</a>
</g>
</g>
<!-- Node8&#45;&gt;Node7 -->
<g id="edge7" class="edge"><title>Node8&#45;&gt;Node7</title>
<path fill="none" stroke="#404040" d="M576.932,-374.449C582.118,-335.686 584.759,-265.596 545,-228 517.513,-202.008 417.927,-217.696 364.922,-209.777"/>
<polygon fill="none" stroke="#404040" points="364.893,-209.771 358.217,-212.497 353.133,-207.383 359.809,-204.657 364.893,-209.771"/>
<text text-anchor="start" x="580" y="-325" font-family="Helvetica,sans-Serif" font-size="10.00"> +fraction_1826_years</text>
<text text-anchor="middle" x="642" y="-314" font-family="Helvetica,sans-Serif" font-size="10.00">_WhichAreStudents</text>
<text text-anchor="start" x="580" y="-303" font-family="Helvetica,sans-Serif" font-size="10.00">+fraction_1865_years</text>
<text text-anchor="middle" x="642" y="-292" font-family="Helvetica,sans-Serif" font-size="10.00">_active</text>
<text text-anchor="start" x="580" y="-281" font-family="Helvetica,sans-Serif" font-size="10.00">+fraction_student</text>
<text text-anchor="middle" x="642" y="-270" font-family="Helvetica,sans-Serif" font-size="10.00">_commutingPeople</text>
<text text-anchor="start" x="580" y="-259" font-family="Helvetica,sans-Serif" font-size="10.00">+fraction_active_commuting</text>
<text text-anchor="middle" x="642" y="-248" font-family="Helvetica,sans-Serif" font-size="10.00">People</text>
</g>
<!-- Node9 -->
<g id="node9" class="node"><title>Node9</title>
<polygon fill="white" stroke="#bfbfbf" points="200.5,-374 200.5,-432 229.5,-432 229.5,-374 200.5,-374"/>
<polyline fill="none" stroke="#bfbfbf" points="200.5,-412 229.5,-412 "/>
<text text-anchor="middle" x="215" y="-400" font-family="Helvetica,sans-Serif" font-size="10.00"> </text>
<polyline fill="none" stroke="#bfbfbf" points="200.5,-393 229.5,-393 "/>
<text text-anchor="middle" x="215" y="-381" font-family="Helvetica,sans-Serif" font-size="10.00"> </text>
</g>
<!-- Node9&#45;&gt;Node7 -->
<g id="edge8" class="edge"><title>Node9&#45;&gt;Node7</title>
<path fill="none" stroke="#404040" d="M229.623,-390.91C241.015,-381.39 256.168,-366.604 264,-350 274.426,-327.896 280.427,-265.093 283.453,-221.325"/>
<polygon fill="none" stroke="#404040" points="283.459,-221.231 279.861,-214.981 284.246,-209.257 287.844,-215.506 283.459,-221.231"/>
<text text-anchor="middle" x="298.5" y="-286.5" font-family="Helvetica,sans-Serif" font-size="10.00"> +input</text>
</g>
<!-- Node9&#45;&gt;Node7 -->
<g id="edge12" class="edge"><title>Node9&#45;&gt;Node7</title>
<path fill="none" stroke="#404040" d="M200.481,-377.241C197.668,-373.798 194.494,-370.566 191,-368 169.931,-352.523 150.4,-371.126 135,-350 103.06,-306.184 103.06,-271.816 135,-228 150.4,-206.874 166.245,-218.406 191,-210 196.368,-208.177 201.896,-206.272 207.459,-204.335"/>
<polygon fill="none" stroke="#404040" points="207.562,-204.299 211.9,-198.539 218.886,-200.328 214.547,-206.088 207.562,-204.299"/>
<text text-anchor="middle" x="162" y="-286.5" font-family="Helvetica,sans-Serif" font-size="10.00"> +calculated</text>
</g>
<!-- Node9&#45;&gt;Node7 -->
<g id="edge13" class="edge"><title>Node9&#45;&gt;Node7</title>
<path fill="none" stroke="#404040" d="M205.576,-373.844C195.263,-337.73 183.249,-274.247 208,-228 209.881,-224.484 212.117,-221.165 214.622,-218.038"/>
<polygon fill="none" stroke="#404040" points="214.667,-217.99 215.841,-210.875 222.86,-209.223 221.686,-216.338 214.667,-217.99"/>
<text text-anchor="middle" x="234" y="-286.5" font-family="Helvetica,sans-Serif" font-size="10.00"> +generated</text>
</g>
<!-- Node10&#45;&gt;Node7 -->
<g id="edge9" class="edge"><title>Node10&#45;&gt;Node7</title>
<path fill="none" stroke="#404040" d="M456.079,-368.81C460.002,-330.193 459.996,-266.787 426,-228 408.73,-208.296 393.611,-217.293 364.995,-210.296"/>
<polygon fill="none" stroke="#404040" points="364.812,-210.241 357.906,-212.315 353.334,-206.739 360.241,-204.664 364.812,-210.241"/>
<text text-anchor="middle" x="499.5" y="-286.5" font-family="Helvetica,sans-Serif" font-size="10.00"> +household_types</text>
</g>
<!-- Node11 -->
<g id="node11" class="node"><title>Node11</title>
<polygon fill="white" stroke="#bfbfbf" points="403.5,-497 403.5,-565 522.5,-565 522.5,-497 403.5,-497"/>
<text text-anchor="start" x="411.5" y="-553" font-family="Helvetica,sans-Serif" font-size="10.00">shared_ptr&lt; gengeopop</text>
<text text-anchor="middle" x="463" y="-542" font-family="Helvetica,sans-Serif" font-size="10.00">::Household &gt;</text>
<polyline fill="none" stroke="#bfbfbf" points="403.5,-535 522.5,-535 "/>
<text text-anchor="middle" x="463" y="-523" font-family="Helvetica,sans-Serif" font-size="10.00"> </text>
<polyline fill="none" stroke="#bfbfbf" points="403.5,-516 522.5,-516 "/>
<text text-anchor="middle" x="463" y="-504" font-family="Helvetica,sans-Serif" font-size="10.00"> </text>
</g>
<!-- Node11&#45;&gt;Node10 -->
<g id="edge10" class="edge"><title>Node11&#45;&gt;Node10</title>
<path fill="none" stroke="#404040" d="M459.847,-496.895C458.466,-482.397 456.824,-465.148 455.331,-449.473"/>
<polygon fill="none" stroke="#404040" points="455.311,-449.267 450.76,-443.674 454.173,-437.321 458.724,-442.915 455.311,-449.267"/>
<text text-anchor="middle" x="482.5" y="-464.5" font-family="Helvetica,sans-Serif" font-size="10.00"> +elements</text>
</g>
<!-- Node12 -->
<g id="node12" class="node"><title>Node12</title>
<polygon fill="white" stroke="#bfbfbf" points="323.5,-374.5 323.5,-431.5 352.5,-431.5 352.5,-374.5 323.5,-374.5"/>
<text text-anchor="middle" x="338" y="-419.5" font-family="Helvetica,sans-Serif" font-size="10.00">int</text>
<polyline fill="none" stroke="#bfbfbf" points="323.5,-412.5 352.5,-412.5 "/>
<text text-anchor="middle" x="338" y="-400.5" font-family="Helvetica,sans-Serif" font-size="10.00"> </text>
<polyline fill="none" stroke="#bfbfbf" points="323.5,-393.5 352.5,-393.5 "/>
<text text-anchor="middle" x="338" y="-381.5" font-family="Helvetica,sans-Serif" font-size="10.00"> </text>
</g>
<!-- Node12&#45;&gt;Node7 -->
<g id="edge14" class="edge"><title>Node12&#45;&gt;Node7</title>
<path fill="none" stroke="#404040" d="M338.478,-374.362C338.267,-339.341 335.148,-277.57 318,-228 317.064,-225.295 315.97,-222.583 314.761,-219.894"/>
<polygon fill="none" stroke="#404040" points="314.691,-219.755 308.408,-216.217 309.257,-209.056 315.541,-212.594 314.691,-219.755"/>
<text text-anchor="middle" x="380" y="-341.5" font-family="Helvetica,sans-Serif" font-size="10.00"> +contactCenters</text>
<text text-anchor="middle" x="380" y="-330.5" font-family="Helvetica,sans-Serif" font-size="10.00">+contactPools</text>
<text text-anchor="start" x="338" y="-319.5" font-family="Helvetica,sans-Serif" font-size="10.00">+_1865_and_years</text>
<text text-anchor="middle" x="380" y="-308.5" font-family="Helvetica,sans-Serif" font-size="10.00">_active</text>
<text text-anchor="start" x="338" y="-297.5" font-family="Helvetica,sans-Serif" font-size="10.00">+_1826_years_and</text>
<text text-anchor="middle" x="380" y="-286.5" font-family="Helvetica,sans-Serif" font-size="10.00">_student</text>
<text text-anchor="middle" x="380" y="-275.5" font-family="Helvetica,sans-Serif" font-size="10.00">+households</text>
<text text-anchor="middle" x="380" y="-264.5" font-family="Helvetica,sans-Serif" font-size="10.00">+_1865_years</text>
<text text-anchor="middle" x="380" y="-253.5" font-family="Helvetica,sans-Serif" font-size="10.00">+_1826_years</text>
<text text-anchor="middle" x="380" y="-242.5" font-family="Helvetica,sans-Serif" font-size="10.00">+compulsoryPupils</text>
<text text-anchor="middle" x="380" y="-231.5" font-family="Helvetica,sans-Serif" font-size="10.00">+populationSize</text>
</g>
</g>
</svg>
