<?xml version="1.0" encoding="UTF-8" standalone="no"?>
<!DOCTYPE svg PUBLIC "-//W3C//DTD SVG 1.1//EN"
 "http://www.w3.org/Graphics/SVG/1.1/DTD/svg11.dtd">
<!-- Generated by graphviz version 2.36.0 (20140111.2315)
 -->
<!-- Title: stride::Population::GetContactLogger Pages: 1 -->
<svg width="548pt" height="77pt"
 viewBox="0.00 0.00 548.00 77.00" xmlns="http://www.w3.org/2000/svg" xmlns:xlink="http://www.w3.org/1999/xlink">
<g id="graph0" class="graph" transform="scale(1 1) rotate(0) translate(4 73)">
<title>stride::Population::GetContactLogger</title>
<polygon fill="white" stroke="none" points="-4,4 -4,-73 544,-73 544,4 -4,4"/>
<!-- Node1 -->
<g id="node1" class="node"><title>Node1</title>
<polygon fill="#bfbfbf" stroke="black" points="0,-17 0,-47 102,-47 102,-17 0,-17"/>
<text text-anchor="start" x="8" y="-35" font-family="Helvetica,sans-Serif" font-size="10.00">stride::Population</text>
<text text-anchor="middle" x="51" y="-24" font-family="Helvetica,sans-Serif" font-size="10.00">::GetContactLogger</text>
</g>
<!-- Node2 -->
<g id="node2" class="node"><title>Node2</title>
<g id="a_node2"><a xlink:href="../../d7/dce/a00143.html#a81b191380f9a2c93768ff0efcec47f6b" target="_top" xlink:title="Seeds the population with survey participants. ">
<polygon fill="white" stroke="black" points="140,-39 140,-69 248,-69 248,-39 140,-39"/>
<text text-anchor="start" x="148" y="-57" font-family="Helvetica,sans-Serif" font-size="10.00">stride::SurveySeeder</text>
<text text-anchor="middle" x="194" y="-46" font-family="Helvetica,sans-Serif" font-size="10.00">::Seed</text>
</a>
</g>
</g>
<!-- Node1&#45;&gt;Node2 -->
<g id="edge1" class="edge"><title>Node1&#45;&gt;Node2</title>
<path fill="none" stroke="midnightblue" d="M112.274,-41.4045C121.395,-42.8276 130.75,-44.2872 139.71,-45.6852"/>
<polygon fill="midnightblue" stroke="midnightblue" points="112.528,-37.9019 102.108,-39.8183 111.449,-44.8182 112.528,-37.9019"/>
</g>
<!-- Node5 -->
<g id="node5" class="node"><title>Node5</title>
<g id="a_node5"><a xlink:href="../../de/d14/a00139.html#a032911d7270c91e0a6a9c55f68800096" target="_top" xlink:title="Run one time step, computing full simulation (default) or only index case. ">
<polygon fill="white" stroke="black" points="138,-0.5 138,-19.5 250,-19.5 250,-0.5 138,-0.5"/>
<text text-anchor="middle" x="194" y="-7.5" font-family="Helvetica,sans-Serif" font-size="10.00">stride::Sim::TimeStep</text>
</a>
</g>
</g>
<!-- Node1&#45;&gt;Node5 -->
<g id="edge4" class="edge"><title>Node1&#45;&gt;Node5</title>
<path fill="none" stroke="midnightblue" d="M112.018,-22.6355C120.568,-21.3014 129.329,-19.9345 137.782,-18.6156"/>
<polygon fill="midnightblue" stroke="midnightblue" points="111.449,-19.1818 102.108,-24.1817 112.528,-26.0981 111.449,-19.1818"/>
</g>
<!-- Node3 -->
<g id="node3" class="node"><title>Node3</title>
<g id="a_node3"><a xlink:href="../../d1/dd6/a00108.html#a98f2494729bf1d46e947b302f3e1b3b1" target="_top" xlink:title="Build Population and return it afterwards. ">
<polygon fill="white" stroke="black" points="286.5,-39 286.5,-69 411.5,-69 411.5,-39 286.5,-39"/>
<text text-anchor="start" x="294.5" y="-57" font-family="Helvetica,sans-Serif" font-size="10.00">stride::DefaultPopBuilder</text>
<text text-anchor="middle" x="349" y="-46" font-family="Helvetica,sans-Serif" font-size="10.00">::Build</text>
</a>
</g>
</g>
<!-- Node2&#45;&gt;Node3 -->
<g id="edge2" class="edge"><title>Node2&#45;&gt;Node3</title>
<path fill="none" stroke="midnightblue" d="M258.379,-54C267.624,-54 277.133,-54 286.343,-54"/>
<polygon fill="midnightblue" stroke="midnightblue" points="258.083,-50.5001 248.083,-54 258.083,-57.5001 258.083,-50.5001"/>
</g>
<!-- Node4 -->
<g id="node4" class="node"><title>Node4</title>
<g id="a_node4"><a xlink:href="../../d2/df5/a00137.html#ac9658f1a5fa801de6742a46efb85fb9c" target="_top" xlink:title="Create a Population for the given region parameters. ">
<polygon fill="white" stroke="black" points="448,-39 448,-69 540,-69 540,-39 448,-39"/>
<text text-anchor="start" x="456" y="-57" font-family="Helvetica,sans-Serif" font-size="10.00">stride::Population</text>
<text text-anchor="middle" x="494" y="-46" font-family="Helvetica,sans-Serif" font-size="10.00">::CreateRegion</text>
</a>
</g>
</g>
<!-- Node3&#45;&gt;Node4 -->
<g id="edge3" class="edge"><title>Node3&#45;&gt;Node4</title>
<path fill="none" stroke="midnightblue" d="M422.137,-54C430.888,-54 439.626,-54 447.828,-54"/>
<polygon fill="midnightblue" stroke="midnightblue" points="421.89,-50.5001 411.89,-54 421.89,-57.5001 421.89,-50.5001"/>
</g>
</g>
</svg>
