<?xml version="1.0" encoding="UTF-8" standalone="no"?>
<!DOCTYPE svg PUBLIC "-//W3C//DTD SVG 1.1//EN"
 "http://www.w3.org/Graphics/SVG/1.1/DTD/svg11.dtd">
<!-- Generated by graphviz version 2.36.0 (20140111.2315)
 -->
<!-- Title: stride::Person::IsTravelling Pages: 1 -->
<svg width="584pt" height="48pt"
 viewBox="0.00 0.00 584.00 48.00" xmlns="http://www.w3.org/2000/svg" xmlns:xlink="http://www.w3.org/1999/xlink">
<g id="graph0" class="graph" transform="scale(1 1) rotate(0) translate(4 44)">
<title>stride::Person::IsTravelling</title>
<polygon fill="white" stroke="none" points="-4,4 -4,-44 580,-44 580,4 -4,4"/>
<!-- Node1 -->
<g id="node1" class="node"><title>Node1</title>
<polygon fill="#bfbfbf" stroke="black" points="0,-10.5 0,-29.5 134,-29.5 134,-10.5 0,-10.5"/>
<text text-anchor="middle" x="67" y="-17.5" font-family="Helvetica,sans-Serif" font-size="10.00">stride::Person::IsTravelling</text>
</g>
<!-- Node2 -->
<g id="node2" class="node"><title>Node2</title>
<g id="a_node2"><a xlink:href="../../d4/d3a/a00101.html#a0a6552a6767ab8c31913a5907d6b1b1c" target="_top" xlink:title="Swaps persons in m_members with the given index and updates the expats data if necessary. ">
<polygon fill="white" stroke="black" points="170.5,-5 170.5,-35 271.5,-35 271.5,-5 170.5,-5"/>
<text text-anchor="start" x="178.5" y="-23" font-family="Helvetica,sans-Serif" font-size="10.00">stride::ContactPool</text>
<text text-anchor="middle" x="221" y="-12" font-family="Helvetica,sans-Serif" font-size="10.00">::Swap</text>
</a>
</g>
</g>
<!-- Node1&#45;&gt;Node2 -->
<g id="edge1" class="edge"><title>Node1&#45;&gt;Node2</title>
<path fill="none" stroke="midnightblue" d="M144.253,-20C153.153,-20 162.05,-20 170.453,-20"/>
<polygon fill="midnightblue" stroke="midnightblue" points="144.227,-16.5001 134.227,-20 144.227,-23.5001 144.227,-16.5001"/>
</g>
<!-- Node3 -->
<g id="node3" class="node"><title>Node3</title>
<g id="a_node3"><a xlink:href="../../d4/d3a/a00101.html#a6c90e9734ee7c6566bdf1f4416e99fd8" target="_top" xlink:title="Sort w.r.t. health status: order: exposed/infected/recovered, susceptible, immune. ">
<polygon fill="white" stroke="black" points="308.5,-5 308.5,-35 409.5,-35 409.5,-5 308.5,-5"/>
<text text-anchor="start" x="316.5" y="-23" font-family="Helvetica,sans-Serif" font-size="10.00">stride::ContactPool</text>
<text text-anchor="middle" x="359" y="-12" font-family="Helvetica,sans-Serif" font-size="10.00">::SortMembers</text>
</a>
</g>
</g>
<!-- Node2&#45;&gt;Node3 -->
<g id="edge2" class="edge"><title>Node2&#45;&gt;Node3</title>
<path fill="none" stroke="midnightblue" d="M282,-20C290.729,-20 299.637,-20 308.137,-20"/>
<polygon fill="midnightblue" stroke="midnightblue" points="281.869,-16.5001 271.869,-20 281.869,-23.5001 281.869,-16.5001"/>
</g>
<!-- Node4 -->
<g id="node4" class="node"><title>Node4</title>
<g id="a_node4"><a xlink:href="../../df/dc8/a00122.html#a3e10dc57119090c30ba818420bbd7b94" target="_top" xlink:title="stride::Infector\&lt; LL,\l TIC, NoLocalInformation,\l true \&gt;::Exec">
<polygon fill="white" stroke="black" points="446,0.5 446,-40.5 576,-40.5 576,0.5 446,0.5"/>
<text text-anchor="start" x="454" y="-28.5" font-family="Helvetica,sans-Serif" font-size="10.00">stride::Infector&lt; LL,</text>
<text text-anchor="start" x="454" y="-17.5" font-family="Helvetica,sans-Serif" font-size="10.00"> TIC, NoLocalInformation,</text>
<text text-anchor="middle" x="511" y="-6.5" font-family="Helvetica,sans-Serif" font-size="10.00"> true &gt;::Exec</text>
</a>
</g>
</g>
<!-- Node3&#45;&gt;Node4 -->
<g id="edge3" class="edge"><title>Node3&#45;&gt;Node4</title>
<path fill="none" stroke="midnightblue" d="M419.795,-20C428.348,-20 437.176,-20 445.809,-20"/>
<polygon fill="midnightblue" stroke="midnightblue" points="419.531,-16.5001 409.531,-20 419.531,-23.5001 419.531,-16.5001"/>
</g>
</g>
</svg>
