<?xml version="1.0" encoding="UTF-8" standalone="no"?>
<!DOCTYPE svg PUBLIC "-//W3C//DTD SVG 1.1//EN"
 "http://www.w3.org/Graphics/SVG/1.1/DTD/svg11.dtd">
<!-- Generated by graphviz version 2.36.0 (20140111.2315)
 -->
<!-- Title: stride::Population::CreateRegion Pages: 1 -->
<!--zoomable 828 -->
<svg id="main" version="1.1" xmlns="http://www.w3.org/2000/svg" xmlns:xlink="http://www.w3.org/1999/xlink" xml:space="preserve" onload="init(evt)">
<style type="text/css"><![CDATA[
.edge:hover path { stroke: red; }
.edge:hover polygon { stroke: red; fill: red; }
]]></style>
<script type="text/javascript"><![CDATA[
var edges = document.getElementsByTagName('g');
if (edges && edges.length) {
  for (var i=0;i<edges.length;i++) {
    if (edges[i].id.substr(0,4)=='edge') {
      edges[i].setAttribute('class','edge');
    }
  }
}
]]></script>
        <defs>
                <circle id="rim" cx="0" cy="0" r="7"/>
                <circle id="rim2" cx="0" cy="0" r="3.5"/>
                <g id="zoomPlus">
                        <use xlink:href="#rim" fill="#404040">
                                <set attributeName="fill" to="#808080" begin="zoomplus.mouseover" end="zoomplus.mouseout"/>
                        </use>
                        <path d="M-4,0h8M0,-4v8" fill="none" stroke="white" stroke-width="1.5" pointer-events="none"/>
                </g>
                <g id="zoomMin">
                        <use xlink:href="#rim" fill="#404040">
                                <set attributeName="fill" to="#808080" begin="zoomminus.mouseover" end="zoomminus.mouseout"/>
                        </use>
                        <path d="M-4,0h8" fill="none" stroke="white" stroke-width="1.5" pointer-events="none"/>
                </g>
                <g id="dirArrow">
                        <path fill="none" stroke="white" stroke-width="1.5" d="M0,-3.0v7 M-2.5,-0.5L0,-3.0L2.5,-0.5"/>
                </g>
               <g id="resetDef">
                       <use xlink:href="#rim2" fill="#404040">
                               <set attributeName="fill" to="#808080" begin="reset.mouseover" end="reset.mouseout"/>
                       </use>
               </g>
        </defs>

<script type="text/javascript">
var viewWidth = 986;
var viewHeight = 828;
var sectionId = 'dynsection-9';
</script>
<script xlink:href="../../svgpan.js"/>
<svg id="graph" class="graph">
<g id="viewport">
<title>stride::Population::CreateRegion</title>
<polygon fill="white" stroke="none" points="-4,4 -4,-824 982,-824 982,4 -4,4"/>
<!-- Node1 -->
<g id="node1" class="node"><title>Node1</title>
<polygon fill="#bfbfbf" stroke="black" points="0,-312 0,-342 92,-342 92,-312 0,-312"/>
<text text-anchor="start" x="8" y="-330" font-family="Helvetica,sans-Serif" font-size="10.00">stride::Population</text>
<text text-anchor="middle" x="46" y="-319" font-family="Helvetica,sans-Serif" font-size="10.00">::CreateRegion</text>
</g>
<!-- Node2 -->
<g id="node2" class="node"><title>Node2</title>
<g id="a_node2"><a xlink:href="../../d4/d81/a00110.html#a1a9f0c9424522454bc5f99419734993c" target="_top" xlink:title="Creates a population by generating it. ">
<polygon fill="white" stroke="black" points="135,-544 135,-574 247,-574 247,-544 135,-544"/>
<text text-anchor="start" x="143" y="-562" font-family="Helvetica,sans-Serif" font-size="10.00">stride::GenPopBuilder</text>
<text text-anchor="middle" x="191" y="-551" font-family="Helvetica,sans-Serif" font-size="10.00">::Build</text>
</a>
</g>
</g>
<!-- Node1&#45;&gt;Node2 -->
<g id="edge1" class="edge"><title>Node1&#45;&gt;Node2</title>
<path fill="none" stroke="midnightblue" d="M56.3826,-342.222C80.6739,-381.632 145.77,-487.242 175.196,-534.982"/>
<polygon fill="midnightblue" stroke="midnightblue" points="172.356,-537.045 180.583,-543.722 178.315,-533.372 172.356,-537.045"/>
</g>
<!-- Node20 -->
<g id="node20" class="node"><title>Node20</title>
<g id="a_node20"><a xlink:href="../../df/d6a/a00119.html#a1ebe3b9029f30d9cfb5fb1aef47360a9" target="_top" xlink:title="Creates a population by importing it. ">
<polygon fill="white" stroke="black" points="130,-312 130,-342 252,-342 252,-312 130,-312"/>
<text text-anchor="start" x="138" y="-330" font-family="Helvetica,sans-Serif" font-size="10.00">stride::ImportPopBuilder</text>
<text text-anchor="middle" x="191" y="-319" font-family="Helvetica,sans-Serif" font-size="10.00">::Build</text>
</a>
</g>
</g>
<!-- Node1&#45;&gt;Node20 -->
<g id="edge21" class="edge"><title>Node1&#45;&gt;Node20</title>
<path fill="none" stroke="midnightblue" d="M92.2461,-327C101.019,-327 110.405,-327 119.762,-327"/>
<polygon fill="midnightblue" stroke="midnightblue" points="119.873,-330.5 129.873,-327 119.873,-323.5 119.873,-330.5"/>
</g>
<!-- Node22 -->
<g id="node22" class="node"><title>Node22</title>
<g id="a_node22"><a xlink:href="../../d1/dd6/a00108.html#a98f2494729bf1d46e947b302f3e1b3b1" target="_top" xlink:title="Build Population and return it afterwards. ">
<polygon fill="white" stroke="black" points="128.5,-208 128.5,-238 253.5,-238 253.5,-208 128.5,-208"/>
<text text-anchor="start" x="136.5" y="-226" font-family="Helvetica,sans-Serif" font-size="10.00">stride::DefaultPopBuilder</text>
<text text-anchor="middle" x="191" y="-215" font-family="Helvetica,sans-Serif" font-size="10.00">::Build</text>
</a>
</g>
</g>
<!-- Node1&#45;&gt;Node22 -->
<g id="edge23" class="edge"><title>Node1&#45;&gt;Node22</title>
<path fill="none" stroke="midnightblue" d="M67.7934,-311.878C92.3635,-294.008 133.392,-264.169 161.058,-244.049"/>
<polygon fill="midnightblue" stroke="midnightblue" points="163.153,-246.853 169.181,-238.141 159.035,-241.192 163.153,-246.853"/>
</g>
<!-- Node3 -->
<g id="node3" class="node"><title>Node3</title>
<g id="a_node3"><a xlink:href="../../d0/d33/a00027.html#af4e88fa853549968f99fcc36143bdb9d" target="_top" xlink:title="Generate and store the Geo part of the GeoGrid. ">
<polygon fill="white" stroke="black" points="290.5,-741 290.5,-771 455.5,-771 455.5,-741 290.5,-741"/>
<text text-anchor="start" x="298.5" y="-759" font-family="Helvetica,sans-Serif" font-size="10.00">gengeopop::GenGeoPopController</text>
<text text-anchor="middle" x="373" y="-748" font-family="Helvetica,sans-Serif" font-size="10.00">::GenGeo</text>
</a>
</g>
</g>
<!-- Node2&#45;&gt;Node3 -->
<g id="edge2" class="edge"><title>Node2&#45;&gt;Node3</title>
<path fill="none" stroke="midnightblue" d="M202.728,-574.031C220.014,-597.872 255.584,-645.402 290,-682 307.612,-700.728 329.265,-720.135 345.898,-734.373"/>
<polygon fill="midnightblue" stroke="midnightblue" points="343.729,-737.124 353.62,-740.923 348.257,-731.785 343.729,-737.124"/>
</g>
<!-- Node6 -->
<g id="node6" class="node"><title>Node6</title>
<g id="a_node6"><a xlink:href="../../d0/d33/a00027.html#a6bde216b89db11c44c7bf05468973e96" target="_top" xlink:title="Populate and store the Pop part of the GeoGrid. ">
<polygon fill="white" stroke="black" points="290.5,-643 290.5,-673 455.5,-673 455.5,-643 290.5,-643"/>
<text text-anchor="start" x="298.5" y="-661" font-family="Helvetica,sans-Serif" font-size="10.00">gengeopop::GenGeoPopController</text>
<text text-anchor="middle" x="373" y="-650" font-family="Helvetica,sans-Serif" font-size="10.00">::GenPop</text>
</a>
</g>
</g>
<!-- Node2&#45;&gt;Node6 -->
<g id="edge5" class="edge"><title>Node2&#45;&gt;Node6</title>
<path fill="none" stroke="midnightblue" d="M219.338,-574.036C250.485,-591.167 301.51,-619.23 335.904,-638.147"/>
<polygon fill="midnightblue" stroke="midnightblue" points="334.251,-641.233 344.7,-642.985 337.625,-635.099 334.251,-641.233"/>
</g>
<!-- Node9 -->
<g id="node9" class="node"><title>Node9</title>
<g id="a_node9"><a xlink:href="../../d0/d33/a00027.html#a6604a432e13d491593bd2a996fba8ab9" target="_top" xlink:title="Get the generated GeoGrid. ">
<polygon fill="white" stroke="black" points="290.5,-569 290.5,-599 455.5,-599 455.5,-569 290.5,-569"/>
<text text-anchor="start" x="298.5" y="-587" font-family="Helvetica,sans-Serif" font-size="10.00">gengeopop::GenGeoPopController</text>
<text text-anchor="middle" x="373" y="-576" font-family="Helvetica,sans-Serif" font-size="10.00">::GetGeoGrid</text>
</a>
</g>
</g>
<!-- Node2&#45;&gt;Node9 -->
<g id="edge8" class="edge"><title>Node2&#45;&gt;Node9</title>
<path fill="none" stroke="midnightblue" d="M247.475,-566.705C257.835,-568.144 268.915,-569.683 280.035,-571.227"/>
<polygon fill="midnightblue" stroke="midnightblue" points="279.852,-574.735 290.239,-572.644 280.815,-567.802 279.852,-574.735"/>
</g>
<!-- Node10 -->
<g id="node10" class="node"><title>Node10</title>
<g id="a_node10"><a xlink:href="../../d0/d33/a00027.html#a5d80eb0492fba3112f7fb0571d386e30" target="_top" xlink:title="Reads the data files. ">
<polygon fill="white" stroke="black" points="290.5,-520 290.5,-550 455.5,-550 455.5,-520 290.5,-520"/>
<text text-anchor="start" x="298.5" y="-538" font-family="Helvetica,sans-Serif" font-size="10.00">gengeopop::GenGeoPopController</text>
<text text-anchor="middle" x="373" y="-527" font-family="Helvetica,sans-Serif" font-size="10.00">::ReadDataFiles</text>
</a>
</g>
</g>
<!-- Node2&#45;&gt;Node10 -->
<g id="edge9" class="edge"><title>Node2&#45;&gt;Node10</title>
<path fill="none" stroke="midnightblue" d="M247.475,-551.603C257.835,-550.222 268.915,-548.745 280.035,-547.262"/>
<polygon fill="midnightblue" stroke="midnightblue" points="280.789,-550.693 290.239,-545.902 279.864,-543.754 280.789,-550.693"/>
</g>
<!-- Node19 -->
<g id="node19" class="node"><title>Node19</title>
<g id="a_node19"><a xlink:href="../../d0/d33/a00027.html#a9cf6765fbb7556eca86a128311e25939" target="_top" xlink:title="Use the given Population storage during generation. ">
<polygon fill="white" stroke="black" points="290.5,-471 290.5,-501 455.5,-501 455.5,-471 290.5,-471"/>
<text text-anchor="start" x="298.5" y="-489" font-family="Helvetica,sans-Serif" font-size="10.00">gengeopop::GenGeoPopController</text>
<text text-anchor="middle" x="373" y="-478" font-family="Helvetica,sans-Serif" font-size="10.00">::UsePopulation</text>
</a>
</g>
</g>
<!-- Node2&#45;&gt;Node19 -->
<g id="edge20" class="edge"><title>Node2&#45;&gt;Node19</title>
<path fill="none" stroke="midnightblue" d="M219.768,-543.921C239.102,-533.791 265.679,-520.593 290,-511 295.906,-508.671 302.12,-506.423 308.376,-504.296"/>
<polygon fill="midnightblue" stroke="midnightblue" points="309.802,-507.511 318.203,-501.056 307.61,-500.863 309.802,-507.511"/>
</g>
<!-- Node4 -->
<g id="node4" class="node"><title>Node4</title>
<g id="a_node4"><a xlink:href="../../d4/d8c/a00035.html#a6737fcd21eb9c18d2e3f910891b88fca" target="_top" xlink:title="gengeopop::GeoGridGenerator\l::AddPartialGenerator">
<polygon fill="white" stroke="black" points="497.5,-790 497.5,-820 646.5,-820 646.5,-790 497.5,-790"/>
<text text-anchor="start" x="505.5" y="-808" font-family="Helvetica,sans-Serif" font-size="10.00">gengeopop::GeoGridGenerator</text>
<text text-anchor="middle" x="572" y="-797" font-family="Helvetica,sans-Serif" font-size="10.00">::AddPartialGenerator</text>
</a>
</g>
</g>
<!-- Node3&#45;&gt;Node4 -->
<g id="edge3" class="edge"><title>Node3&#45;&gt;Node4</title>
<path fill="none" stroke="midnightblue" d="M434.445,-771.035C455.435,-776.255 479.149,-782.154 500.854,-787.553"/>
<polygon fill="midnightblue" stroke="midnightblue" points="500.12,-790.976 510.669,-789.994 501.81,-784.183 500.12,-790.976"/>
</g>
<!-- Node5 -->
<g id="node5" class="node"><title>Node5</title>
<g id="a_node5"><a xlink:href="../../d4/d8c/a00035.html#ae69d73e903115ac2abea1d77e1bd2a93" target="_top" xlink:title="gengeopop::GeoGridGenerator\l::GenerateGeoGrid">
<polygon fill="white" stroke="black" points="497.5,-741 497.5,-771 646.5,-771 646.5,-741 497.5,-741"/>
<text text-anchor="start" x="505.5" y="-759" font-family="Helvetica,sans-Serif" font-size="10.00">gengeopop::GeoGridGenerator</text>
<text text-anchor="middle" x="572" y="-748" font-family="Helvetica,sans-Serif" font-size="10.00">::GenerateGeoGrid</text>
</a>
</g>
</g>
<!-- Node3&#45;&gt;Node5 -->
<g id="edge4" class="edge"><title>Node3&#45;&gt;Node5</title>
<path fill="none" stroke="midnightblue" d="M455.549,-756C466.058,-756 476.831,-756 487.372,-756"/>
<polygon fill="midnightblue" stroke="midnightblue" points="487.391,-759.5 497.391,-756 487.391,-752.5 487.391,-759.5"/>
</g>
<!-- Node7 -->
<g id="node7" class="node"><title>Node7</title>
<g id="a_node7"><a xlink:href="../../d8/d41/a00038.html#a68e37467896ed3bc3cddf201282585ad" target="_top" xlink:title="gengeopop::GeoGridPopulator\l::AddPartialPopulator">
<polygon fill="white" stroke="black" points="498.5,-692 498.5,-722 645.5,-722 645.5,-692 498.5,-692"/>
<text text-anchor="start" x="506.5" y="-710" font-family="Helvetica,sans-Serif" font-size="10.00">gengeopop::GeoGridPopulator</text>
<text text-anchor="middle" x="572" y="-699" font-family="Helvetica,sans-Serif" font-size="10.00">::AddPartialPopulator</text>
</a>
</g>
</g>
<!-- Node6&#45;&gt;Node7 -->
<g id="edge6" class="edge"><title>Node6&#45;&gt;Node7</title>
<path fill="none" stroke="midnightblue" d="M434.445,-673.035C455.435,-678.255 479.149,-684.154 500.854,-689.553"/>
<polygon fill="midnightblue" stroke="midnightblue" points="500.12,-692.976 510.669,-691.994 501.81,-686.183 500.12,-692.976"/>
</g>
<!-- Node8 -->
<g id="node8" class="node"><title>Node8</title>
<g id="a_node8"><a xlink:href="../../d8/d41/a00038.html#a1fa2934bb8d3335c17883c56887da917" target="_top" xlink:title="gengeopop::GeoGridPopulator\l::PopulateGeoGrid">
<polygon fill="white" stroke="black" points="498.5,-643 498.5,-673 645.5,-673 645.5,-643 498.5,-643"/>
<text text-anchor="start" x="506.5" y="-661" font-family="Helvetica,sans-Serif" font-size="10.00">gengeopop::GeoGridPopulator</text>
<text text-anchor="middle" x="572" y="-650" font-family="Helvetica,sans-Serif" font-size="10.00">::PopulateGeoGrid</text>
</a>
</g>
</g>
<!-- Node6&#45;&gt;Node8 -->
<g id="edge7" class="edge"><title>Node6&#45;&gt;Node8</title>
<path fill="none" stroke="midnightblue" d="M455.549,-658C466.298,-658 477.325,-658 488.096,-658"/>
<polygon fill="midnightblue" stroke="midnightblue" points="488.328,-661.5 498.328,-658 488.328,-654.5 488.328,-661.5"/>
</g>
<!-- Node11 -->
<g id="node11" class="node"><title>Node11</title>
<g id="a_node11"><a xlink:href="../../db/df3/a00034.html#ae840dd7732fd6c16ab759adacdd7c35a" target="_top" xlink:title="gengeopop::GeoGridConfig\l::Calculate">
<polygon fill="white" stroke="black" points="505,-594 505,-624 639,-624 639,-594 505,-594"/>
<text text-anchor="start" x="513" y="-612" font-family="Helvetica,sans-Serif" font-size="10.00">gengeopop::GeoGridConfig</text>
<text text-anchor="middle" x="572" y="-601" font-family="Helvetica,sans-Serif" font-size="10.00">::Calculate</text>
</a>
</g>
</g>
<!-- Node10&#45;&gt;Node11 -->
<g id="edge10" class="edge"><title>Node10&#45;&gt;Node11</title>
<path fill="none" stroke="midnightblue" d="M431.277,-550.106C439.721,-553.005 448.197,-556.308 456,-560 473.382,-568.225 474.662,-575.684 492,-584 496.663,-586.237 501.575,-588.338 506.573,-590.299"/>
<polygon fill="midnightblue" stroke="midnightblue" points="505.657,-593.692 516.25,-593.893 508.094,-587.13 505.657,-593.692"/>
</g>
<!-- Node12 -->
<g id="node12" class="node"><title>Node12</title>
<g id="a_node12"><a xlink:href="../../df/d03/a00062.html#a5bd351c7082a71cba781c129490e6755" target="_top" xlink:title="Create a CitiesReader based on an absolute Boost Filesystem Path pointing to the input file...">
<polygon fill="white" stroke="black" points="505,-545 505,-575 639,-575 639,-545 505,-545"/>
<text text-anchor="start" x="513" y="-563" font-family="Helvetica,sans-Serif" font-size="10.00">gengeopop::ReaderFactory</text>
<text text-anchor="middle" x="572" y="-552" font-family="Helvetica,sans-Serif" font-size="10.00">::CreateCitiesReader</text>
</a>
</g>
</g>
<!-- Node10&#45;&gt;Node12 -->
<g id="edge11" class="edge"><title>Node10&#45;&gt;Node12</title>
<path fill="none" stroke="midnightblue" d="M455.549,-545.349C468.496,-546.992 481.845,-548.686 494.665,-550.313"/>
<polygon fill="midnightblue" stroke="midnightblue" points="494.455,-553.814 504.816,-551.601 495.336,-546.87 494.455,-553.814"/>
</g>
<!-- Node14 -->
<g id="node14" class="node"><title>Node14</title>
<g id="a_node14"><a xlink:href="../../df/d03/a00062.html#aafc60dfb9e6337c0c57ec46cd9e02d71" target="_top" xlink:title="Create a CommutesReader based on an absolute Boost Filesystem Path pointing to the input file...">
<polygon fill="white" stroke="black" points="505,-496 505,-526 639,-526 639,-496 505,-496"/>
<text text-anchor="start" x="513" y="-514" font-family="Helvetica,sans-Serif" font-size="10.00">gengeopop::ReaderFactory</text>
<text text-anchor="middle" x="572" y="-503" font-family="Helvetica,sans-Serif" font-size="10.00">::CreateCommutesReader</text>
</a>
</g>
</g>
<!-- Node10&#45;&gt;Node14 -->
<g id="edge13" class="edge"><title>Node10&#45;&gt;Node14</title>
<path fill="none" stroke="midnightblue" d="M455.549,-525.065C468.496,-523.488 481.845,-521.862 494.665,-520.3"/>
<polygon fill="midnightblue" stroke="midnightblue" points="495.312,-523.747 504.816,-519.063 494.466,-516.798 495.312,-523.747"/>
</g>
<!-- Node17 -->
<g id="node17" class="node"><title>Node17</title>
<g id="a_node17"><a xlink:href="../../df/d03/a00062.html#afd1bf47bd92f5bf43cd032da257454b5" target="_top" xlink:title="Create a HouseholdReader based on the filename of the input file, relative to the data directory...">
<polygon fill="white" stroke="black" points="505,-447 505,-477 639,-477 639,-447 505,-447"/>
<text text-anchor="start" x="513" y="-465" font-family="Helvetica,sans-Serif" font-size="10.00">gengeopop::ReaderFactory</text>
<text text-anchor="middle" x="572" y="-454" font-family="Helvetica,sans-Serif" font-size="10.00">::CreateHouseholdReader</text>
</a>
</g>
</g>
<!-- Node10&#45;&gt;Node17 -->
<g id="edge16" class="edge"><title>Node10&#45;&gt;Node17</title>
<path fill="none" stroke="midnightblue" d="M430.776,-519.906C439.373,-516.989 448.027,-513.678 456,-510 473.241,-502.047 474.802,-495.044 492,-487 496.887,-484.714 502.037,-482.562 507.268,-480.553"/>
<polygon fill="midnightblue" stroke="midnightblue" points="508.543,-483.813 516.734,-477.093 506.14,-477.239 508.543,-483.813"/>
</g>
<!-- Node18 -->
<g id="node18" class="node"><title>Node18</title>
<g id="a_node18"><a xlink:href="../../df/d03/a00062.html#ab65132d784c62a45167c2dd8e7b097d8" target="_top" xlink:title="Create a SubMunicipalitiesReader based on the filename of the input file, relative to the data direct...">
<polygon fill="white" stroke="black" points="492,-398 492,-428 652,-428 652,-398 492,-398"/>
<text text-anchor="start" x="500" y="-416" font-family="Helvetica,sans-Serif" font-size="10.00">gengeopop::ReaderFactory</text>
<text text-anchor="middle" x="572" y="-405" font-family="Helvetica,sans-Serif" font-size="10.00">::CreateSubMunicipalitiesReader</text>
</a>
</g>
</g>
<!-- Node10&#45;&gt;Node18 -->
<g id="edge18" class="edge"><title>Node10&#45;&gt;Node18</title>
<path fill="none" stroke="midnightblue" d="M440.93,-519.873C446.342,-517.115 451.463,-513.855 456,-510 483.568,-486.577 464.42,-460.409 492,-437 493.516,-435.713 495.1,-434.495 496.74,-433.342"/>
<polygon fill="midnightblue" stroke="midnightblue" points="498.625,-436.292 505.351,-428.106 494.988,-430.311 498.625,-436.292"/>
</g>
<!-- Node13 -->
<g id="node13" class="node"><title>Node13</title>
<g id="a_node13"><a xlink:href="../../df/d03/a00062.html#a301c922d893444c635c375f4c0326568" target="_top" xlink:title="Create an istream based on the provided Boost Filesystem Path. ">
<polygon fill="white" stroke="black" points="688,-545 688,-575 822,-575 822,-545 688,-545"/>
<text text-anchor="start" x="696" y="-563" font-family="Helvetica,sans-Serif" font-size="10.00">gengeopop::ReaderFactory</text>
<text text-anchor="middle" x="755" y="-552" font-family="Helvetica,sans-Serif" font-size="10.00">::OpenFile</text>
</a>
</g>
</g>
<!-- Node12&#45;&gt;Node13 -->
<g id="edge12" class="edge"><title>Node12&#45;&gt;Node13</title>
<path fill="none" stroke="midnightblue" d="M639.113,-560C651.624,-560 664.806,-560 677.603,-560"/>
<polygon fill="midnightblue" stroke="midnightblue" points="677.763,-563.5 687.763,-560 677.763,-556.5 677.763,-563.5"/>
</g>
<!-- Node15 -->
<g id="node15" class="node"><title>Node15</title>
<g id="a_node15"><a xlink:href="../../d3/d65/a00154.html#aafd39e698c442fd0917915d085c9aa1a" target="_top" xlink:title="/// Return data dir (only relevant when use_install_dirs mode is active) ">
<polygon fill="white" stroke="black" points="706,-447 706,-477 804,-477 804,-447 706,-447"/>
<text text-anchor="start" x="714" y="-465" font-family="Helvetica,sans-Serif" font-size="10.00">stride::util::FileSys</text>
<text text-anchor="middle" x="755" y="-454" font-family="Helvetica,sans-Serif" font-size="10.00">::GetDataDir</text>
</a>
</g>
</g>
<!-- Node14&#45;&gt;Node15 -->
<g id="edge14" class="edge"><title>Node14&#45;&gt;Node15</title>
<path fill="none" stroke="midnightblue" d="M628.783,-495.899C650.131,-490.119 674.517,-483.518 696.062,-477.685"/>
<polygon fill="midnightblue" stroke="midnightblue" points="697.002,-481.057 705.74,-475.065 695.172,-474.3 697.002,-481.057"/>
</g>
<!-- Node16 -->
<g id="node16" class="node"><title>Node16</title>
<g id="a_node16"><a xlink:href="../../d3/d65/a00154.html#a811a1d113f57785952045d9541c95db5" target="_top" xlink:title="Return paths. ">
<polygon fill="white" stroke="black" points="858,-452.5 858,-471.5 978,-471.5 978,-452.5 858,-452.5"/>
<text text-anchor="middle" x="918" y="-459.5" font-family="Helvetica,sans-Serif" font-size="10.00">stride::util::FileSys::Get</text>
</a>
</g>
</g>
<!-- Node15&#45;&gt;Node16 -->
<g id="edge15" class="edge"><title>Node15&#45;&gt;Node16</title>
<path fill="none" stroke="midnightblue" d="M804.305,-462C818.002,-462 833.188,-462 847.86,-462"/>
<polygon fill="midnightblue" stroke="midnightblue" points="847.91,-465.5 857.91,-462 847.91,-458.5 847.91,-465.5"/>
</g>
<!-- Node17&#45;&gt;Node15 -->
<g id="edge17" class="edge"><title>Node17&#45;&gt;Node15</title>
<path fill="none" stroke="midnightblue" d="M639.113,-462C657.687,-462 677.742,-462 695.818,-462"/>
<polygon fill="midnightblue" stroke="midnightblue" points="695.918,-465.5 705.918,-462 695.918,-458.5 695.918,-465.5"/>
</g>
<!-- Node18&#45;&gt;Node15 -->
<g id="edge19" class="edge"><title>Node18&#45;&gt;Node15</title>
<path fill="none" stroke="midnightblue" d="M628.783,-428.101C650.131,-433.881 674.517,-440.482 696.062,-446.315"/>
<polygon fill="midnightblue" stroke="midnightblue" points="695.172,-449.7 705.74,-448.935 697.002,-442.943 695.172,-449.7"/>
</g>
<!-- Node21 -->
<g id="node21" class="node"><title>Node21</title>
<g id="a_node21"><a xlink:href="../../d5/db6/a00042.html#acd3fdf6ac3e67ee88dd3b2a67c1821f0" target="_top" xlink:title="Create a GeoGridReader based on the provided extension in the filename. ">
<polygon fill="white" stroke="black" points="304.5,-312 304.5,-342 441.5,-342 441.5,-312 304.5,-312"/>
<text text-anchor="start" x="312.5" y="-330" font-family="Helvetica,sans-Serif" font-size="10.00">gengeopop::GeoGridReader</text>
<text text-anchor="middle" x="373" y="-319" font-family="Helvetica,sans-Serif" font-size="10.00">Factory::CreateReader</text>
</a>
</g>
</g>
<!-- Node20&#45;&gt;Node21 -->
<g id="edge22" class="edge"><title>Node20&#45;&gt;Node21</title>
<path fill="none" stroke="midnightblue" d="M252.188,-327C265.675,-327 280.17,-327 294.256,-327"/>
<polygon fill="midnightblue" stroke="midnightblue" points="294.421,-330.5 304.42,-327 294.42,-323.5 294.421,-330.5"/>
</g>
<!-- Node23 -->
<g id="node23" class="node"><title>Node23</title>
<g id="a_node23"><a xlink:href="../../d7/dce/a00143.html#a81b191380f9a2c93768ff0efcec47f6b" target="_top" xlink:title="Seeds the population with survey participants. ">
<polygon fill="white" stroke="black" points="319,-177 319,-207 427,-207 427,-177 319,-177"/>
<text text-anchor="start" x="327" y="-195" font-family="Helvetica,sans-Serif" font-size="10.00">stride::SurveySeeder</text>
<text text-anchor="middle" x="373" y="-184" font-family="Helvetica,sans-Serif" font-size="10.00">::Seed</text>
</a>
</g>
</g>
<!-- Node22&#45;&gt;Node23 -->
<g id="edge24" class="edge"><title>Node22&#45;&gt;Node23</title>
<path fill="none" stroke="midnightblue" d="M253.694,-212.375C271.389,-209.327 290.71,-206 308.511,-202.934"/>
<polygon fill="midnightblue" stroke="midnightblue" points="309.532,-206.31 318.793,-201.163 308.344,-199.412 309.532,-206.31"/>
</g>
<!-- Node24 -->
<g id="node24" class="node"><title>Node24</title>
<g id="a_node24"><a xlink:href="../../d2/df5/a00137.html#a314f886a6abeb0e08aac8fee085e76bd" target="_top" xlink:title="stride::Population\l::GetContactLogger">
<polygon fill="white" stroke="black" points="521,-349 521,-379 623,-379 623,-349 521,-349"/>
<text text-anchor="start" x="529" y="-367" font-family="Helvetica,sans-Serif" font-size="10.00">stride::Population</text>
<text text-anchor="middle" x="572" y="-356" font-family="Helvetica,sans-Serif" font-size="10.00">::GetContactLogger</text>
</a>
</g>
</g>
<!-- Node23&#45;&gt;Node24 -->
<g id="edge25" class="edge"><title>Node23&#45;&gt;Node24</title>
<path fill="none" stroke="midnightblue" d="M385.317,-207.087C412.128,-242.681 478.297,-329.616 492,-339 497.957,-343.079 504.615,-346.52 511.469,-349.416"/>
<polygon fill="midnightblue" stroke="midnightblue" points="510.301,-352.716 520.891,-353.035 512.811,-346.182 510.301,-352.716"/>
</g>
<!-- Node25 -->
<g id="node25" class="node"><title>Node25</title>
<g id="a_node25"><a xlink:href="../../d1/dc1/a00092.html#a0e279c31f261b01f7798355e27401bfe" target="_top" xlink:title="Returns the number of elements. ">
<polygon fill="white" stroke="black" points="500.5,-300 500.5,-330 643.5,-330 643.5,-300 500.5,-300"/>
<text text-anchor="start" x="508.5" y="-318" font-family="Helvetica,sans-Serif" font-size="10.00">stride::util::SegmentedVector</text>
<text text-anchor="middle" x="572" y="-307" font-family="Helvetica,sans-Serif" font-size="10.00">::size</text>
</a>
</g>
</g>
<!-- Node23&#45;&gt;Node25 -->
<g id="edge26" class="edge"><title>Node23&#45;&gt;Node25</title>
<path fill="none" stroke="midnightblue" d="M388.249,-207.065C409.141,-228.345 450.163,-267.156 492,-290 496.015,-292.192 500.251,-294.225 504.592,-296.105"/>
<polygon fill="midnightblue" stroke="midnightblue" points="503.632,-299.492 514.216,-299.978 506.245,-292.998 503.632,-299.492"/>
</g>
<!-- Node26 -->
<g id="node26" class="node"><title>Node26</title>
<g id="a_node26"><a xlink:href="../../d6/d7d/a00161.html#a6508932485d419a6e7ab3cac60754ae6" target="_top" xlink:title="Produce a random generator out of a distribution bound to sim&#39;s random engine. ">
<polygon fill="white" stroke="black" points="513,-251 513,-281 631,-281 631,-251 513,-251"/>
<text text-anchor="start" x="521" y="-269" font-family="Helvetica,sans-Serif" font-size="10.00">stride::util::RNManager</text>
<text text-anchor="middle" x="572" y="-258" font-family="Helvetica,sans-Serif" font-size="10.00">::GetGenerator</text>
</a>
</g>
</g>
<!-- Node23&#45;&gt;Node26 -->
<g id="edge27" class="edge"><title>Node23&#45;&gt;Node26</title>
<path fill="none" stroke="midnightblue" d="M408.027,-207.054C431.434,-217.181 463.349,-230.54 492,-241 498.265,-243.287 504.851,-245.566 511.437,-247.764"/>
<polygon fill="midnightblue" stroke="midnightblue" points="510.457,-251.125 521.049,-250.918 512.639,-244.475 510.457,-251.125"/>
</g>
<!-- Node27 -->
<g id="node27" class="node"><title>Node27</title>
<g id="a_node27"><a xlink:href="../../d0/d5e/a00136.html#a5942b9a4f5226e8810dc8b63fb250f3e" target="_top" xlink:title="Does this person participates in the social contact study? ">
<polygon fill="white" stroke="black" points="511,-202 511,-232 633,-232 633,-202 511,-202"/>
<text text-anchor="start" x="519" y="-220" font-family="Helvetica,sans-Serif" font-size="10.00">stride::Person::IsSurvey</text>
<text text-anchor="middle" x="572" y="-209" font-family="Helvetica,sans-Serif" font-size="10.00">Participant</text>
</a>
</g>
</g>
<!-- Node23&#45;&gt;Node27 -->
<g id="edge28" class="edge"><title>Node23&#45;&gt;Node27</title>
<path fill="none" stroke="midnightblue" d="M427.052,-198.732C449.687,-201.605 476.424,-204.998 500.674,-208.075"/>
<polygon fill="midnightblue" stroke="midnightblue" points="500.534,-211.586 510.895,-209.372 501.415,-204.641 500.534,-211.586"/>
</g>
<!-- Node28 -->
<g id="node28" class="node"><title>Node28</title>
<g id="a_node28"><a xlink:href="../../d0/d5e/a00136.html#a6c27c93e351ca63aa6e3a055cd9110b2" target="_top" xlink:title="Participate in social contact study and log person details. ">
<polygon fill="white" stroke="black" points="507,-153 507,-183 637,-183 637,-153 507,-153"/>
<text text-anchor="start" x="515" y="-171" font-family="Helvetica,sans-Serif" font-size="10.00">stride::Person::Participate</text>
<text text-anchor="middle" x="572" y="-160" font-family="Helvetica,sans-Serif" font-size="10.00">InSurvey</text>
</a>
</g>
</g>
<!-- Node23&#45;&gt;Node28 -->
<g id="edge29" class="edge"><title>Node23&#45;&gt;Node28</title>
<path fill="none" stroke="midnightblue" d="M427.052,-185.537C448.494,-182.925 473.617,-179.864 496.82,-177.037"/>
<polygon fill="midnightblue" stroke="midnightblue" points="497.473,-180.484 506.976,-175.8 496.626,-173.535 497.473,-180.484"/>
</g>
<!-- Node29 -->
<g id="node29" class="node"><title>Node29</title>
<g id="a_node29"><a xlink:href="../../d0/d5e/a00136.html#afab3ab2a1a33004f9e25d4873c3c1921" target="_top" xlink:title="Get the id. ">
<polygon fill="white" stroke="black" points="518.5,-114.5 518.5,-133.5 625.5,-133.5 625.5,-114.5 518.5,-114.5"/>
<text text-anchor="middle" x="572" y="-121.5" font-family="Helvetica,sans-Serif" font-size="10.00">stride::Person::GetId</text>
</a>
</g>
</g>
<!-- Node23&#45;&gt;Node29 -->
<g id="edge30" class="edge"><title>Node23&#45;&gt;Node29</title>
<path fill="none" stroke="midnightblue" d="M406.539,-176.858C429.949,-166.369 462.471,-152.616 492,-143 499.724,-140.485 507.971,-138.14 516.114,-136.016"/>
<polygon fill="midnightblue" stroke="midnightblue" points="517.111,-139.374 525.953,-133.537 515.401,-132.586 517.111,-139.374"/>
</g>
<!-- Node30 -->
<g id="node30" class="node"><title>Node30</title>
<g id="a_node30"><a xlink:href="../../d0/d5e/a00136.html#ad85ecf5500764ae2c025f7e2aab8003c" target="_top" xlink:title="Get the age. ">
<polygon fill="white" stroke="black" points="514,-76.5 514,-95.5 630,-95.5 630,-76.5 514,-76.5"/>
<text text-anchor="middle" x="572" y="-83.5" font-family="Helvetica,sans-Serif" font-size="10.00">stride::Person::GetAge</text>
</a>
</g>
</g>
<!-- Node23&#45;&gt;Node30 -->
<g id="edge31" class="edge"><title>Node23&#45;&gt;Node30</title>
<path fill="none" stroke="midnightblue" d="M390.206,-176.692C411.766,-157.165 451.85,-123.69 492,-105 497.243,-102.559 502.834,-100.413 508.525,-98.5293"/>
<polygon fill="midnightblue" stroke="midnightblue" points="509.606,-101.859 518.156,-95.6019 507.57,-95.1616 509.606,-101.859"/>
</g>
<!-- Node31 -->
<g id="node31" class="node"><title>Node31</title>
<g id="a_node31"><a xlink:href="../../d0/d5e/a00136.html#ada6071b93ce9d5b5611a2151e14d0740" target="_top" xlink:title="Return person&#39;s gender. ">
<polygon fill="white" stroke="black" points="506.5,-38.5 506.5,-57.5 637.5,-57.5 637.5,-38.5 506.5,-38.5"/>
<text text-anchor="middle" x="572" y="-45.5" font-family="Helvetica,sans-Serif" font-size="10.00">stride::Person::GetGender</text>
</a>
</g>
</g>
<!-- Node23&#45;&gt;Node31 -->
<g id="edge32" class="edge"><title>Node23&#45;&gt;Node31</title>
<path fill="none" stroke="midnightblue" d="M383.988,-176.606C402.137,-149.933 443.195,-95.2759 492,-67 495.881,-64.7514 500.017,-62.7683 504.284,-61.0194"/>
<polygon fill="midnightblue" stroke="midnightblue" points="505.593,-64.2676 513.788,-57.5527 503.194,-57.6915 505.593,-64.2676"/>
</g>
<!-- Node32 -->
<g id="node32" class="node"><title>Node32</title>
<g id="a_node32"><a xlink:href="../../d0/d5e/a00136.html#ace277043dfb3a2052adf508dd0179567" target="_top" xlink:title="Get ID of contactpool_type. ">
<polygon fill="white" stroke="black" points="508.5,-0.5 508.5,-19.5 635.5,-19.5 635.5,-0.5 508.5,-0.5"/>
<text text-anchor="middle" x="572" y="-7.5" font-family="Helvetica,sans-Serif" font-size="10.00">stride::Person::GetPoolId</text>
</a>
</g>
</g>
<!-- Node23&#45;&gt;Node32 -->
<g id="edge33" class="edge"><title>Node23&#45;&gt;Node32</title>
<path fill="none" stroke="midnightblue" d="M380.576,-176.618C395.369,-143.949 434.526,-67.491 492,-29 494.961,-27.0168 498.108,-25.2399 501.373,-23.6481"/>
<polygon fill="midnightblue" stroke="midnightblue" points="503,-26.7602 510.84,-19.6339 500.267,-20.3157 503,-26.7602"/>
</g>
</g>
</svg>
        <g id="navigator" transform="translate(0 0)" fill="#404254">
                <rect fill="#f2f5e9" fill-opacity="0.5" stroke="#606060" stroke-width=".5" x="0" y="0" width="60" height="60"/>
                <use id="zoomplus" xlink:href="#zoomPlus" x="17" y="9" onmousedown="handleZoom(evt,'in')"/>
                <use id="zoomminus" xlink:href="#zoomMin" x="42" y="9" onmousedown="handleZoom(evt,'out')"/>
                <use id="reset" xlink:href="#resetDef" x="30" y="36" onmousedown="handleReset()"/>
                <g id="arrowUp" xlink:href="#dirArrow" transform="translate(30 24)" onmousedown="handlePan(0,-1)">
                  <use xlink:href="#rim" fill="#404040">
                        <set attributeName="fill" to="#808080" begin="arrowUp.mouseover" end="arrowUp.mouseout"/>
                  </use>
                  <path fill="none" stroke="white" stroke-width="1.5" d="M0,-3.0v7 M-2.5,-0.5L0,-3.0L2.5,-0.5"/>
                </g>
                <g id="arrowRight" xlink:href="#dirArrow" transform="rotate(90) translate(36 -43)" onmousedown="handlePan(1,0)">
                  <use xlink:href="#rim" fill="#404040">
                        <set attributeName="fill" to="#808080" begin="arrowRight.mouseover" end="arrowRight.mouseout"/>
                  </use>
                  <path fill="none" stroke="white" stroke-width="1.5" d="M0,-3.0v7 M-2.5,-0.5L0,-3.0L2.5,-0.5"/>
                </g>
                <g id="arrowDown" xlink:href="#dirArrow" transform="rotate(180) translate(-30 -48)" onmousedown="handlePan(0,1)">
                  <use xlink:href="#rim" fill="#404040">
                        <set attributeName="fill" to="#808080" begin="arrowDown.mouseover" end="arrowDown.mouseout"/>
                  </use>
                  <path fill="none" stroke="white" stroke-width="1.5" d="M0,-3.0v7 M-2.5,-0.5L0,-3.0L2.5,-0.5"/>
                </g>
                <g id="arrowLeft" xlink:href="#dirArrow" transform="rotate(270) translate(-36 17)" onmousedown="handlePan(-1,0)">
                  <use xlink:href="#rim" fill="#404040">
                        <set attributeName="fill" to="#808080" begin="arrowLeft.mouseover" end="arrowLeft.mouseout"/>
                  </use>
                  <path fill="none" stroke="white" stroke-width="1.5" d="M0,-3.0v7 M-2.5,-0.5L0,-3.0L2.5,-0.5"/>
                </g>
        </g>
        <svg viewBox="0 0 15 15" width="100%" height="30px" preserveAspectRatio="xMaxYMin meet">
         <g id="arrow_out" transform="scale(0.3 0.3)">
          <a xlink:href="a00137_ac9658f1a5fa801de6742a46efb85fb9c_cgraph_org.svg" target="_base">
           <rect id="button" ry="5" rx="5" y="6" x="6" height="38" width="38"
                fill="#f2f5e9" fill-opacity="0.5" stroke="#606060" stroke-width="1.0"/>
           <path id="arrow"
             d="M 11.500037,31.436501 C 11.940474,20.09759 22.043105,11.32322 32.158766,21.979434 L 37.068811,17.246167 C 37.068811,17.246167 37.088388,32 37.088388,32 L 22.160133,31.978069 C 22.160133,31.978069 26.997745,27.140456 26.997745,27.140456 C 18.528582,18.264221 13.291696,25.230495 11.500037,31.436501 z"
             style="fill:#404040;"/>
          </a>
         </g>
        </svg>
</svg>
