<?xml version="1.0" encoding="UTF-8" standalone="no"?>
<!DOCTYPE svg PUBLIC "-//W3C//DTD SVG 1.1//EN"
 "http://www.w3.org/Graphics/SVG/1.1/DTD/svg11.dtd">
<!-- Generated by graphviz version 2.36.0 (20140111.2315)
 -->
<!-- Title: stride::Person::GetPoolId Pages: 1 -->
<!--zoomable 345 -->
<svg id="main" version="1.1" xmlns="http://www.w3.org/2000/svg" xmlns:xlink="http://www.w3.org/1999/xlink" xml:space="preserve" onload="init(evt)">
<style type="text/css"><![CDATA[
.edge:hover path { stroke: red; }
.edge:hover polygon { stroke: red; fill: red; }
]]></style>
<script type="text/javascript"><![CDATA[
var edges = document.getElementsByTagName('g');
if (edges && edges.length) {
  for (var i=0;i<edges.length;i++) {
    if (edges[i].id.substr(0,4)=='edge') {
      edges[i].setAttribute('class','edge');
    }
  }
}
]]></script>
        <defs>
                <circle id="rim" cx="0" cy="0" r="7"/>
                <circle id="rim2" cx="0" cy="0" r="3.5"/>
                <g id="zoomPlus">
                        <use xlink:href="#rim" fill="#404040">
                                <set attributeName="fill" to="#808080" begin="zoomplus.mouseover" end="zoomplus.mouseout"/>
                        </use>
                        <path d="M-4,0h8M0,-4v8" fill="none" stroke="white" stroke-width="1.5" pointer-events="none"/>
                </g>
                <g id="zoomMin">
                        <use xlink:href="#rim" fill="#404040">
                                <set attributeName="fill" to="#808080" begin="zoomminus.mouseover" end="zoomminus.mouseout"/>
                        </use>
                        <path d="M-4,0h8" fill="none" stroke="white" stroke-width="1.5" pointer-events="none"/>
                </g>
                <g id="dirArrow">
                        <path fill="none" stroke="white" stroke-width="1.5" d="M0,-3.0v7 M-2.5,-0.5L0,-3.0L2.5,-0.5"/>
                </g>
               <g id="resetDef">
                       <use xlink:href="#rim2" fill="#404040">
                               <set attributeName="fill" to="#808080" begin="reset.mouseover" end="reset.mouseout"/>
                       </use>
               </g>
        </defs>

<script type="text/javascript">
var viewWidth = 720;
var viewHeight = 345;
var sectionId = 'dynsection-2';
</script>
<script xlink:href="../../svgpan.js"/>
<svg id="graph" class="graph">
<g id="viewport">
<title>stride::Person::GetPoolId</title>
<polygon fill="white" stroke="none" points="-4,4 -4,-341 716,-341 716,4 -4,4"/>
<!-- Node1 -->
<g id="node1" class="node"><title>Node1</title>
<polygon fill="#bfbfbf" stroke="black" points="0.5,-172.5 0.5,-191.5 127.5,-191.5 127.5,-172.5 0.5,-172.5"/>
<text text-anchor="middle" x="64" y="-179.5" font-family="Helvetica,sans-Serif" font-size="10.00">stride::Person::GetPoolId</text>
</g>
<!-- Node2 -->
<g id="node2" class="node"><title>Node2</title>
<g id="a_node2"><a xlink:href="../../d2/df5/a00137.html#a805778c8c80ec8523a60cae01947b02a" target="_top" xlink:title="Returns the id of the College CP. ">
<polygon fill="white" stroke="black" points="172,-317.5 172,-336.5 312,-336.5 312,-317.5 172,-317.5"/>
<text text-anchor="middle" x="242" y="-324.5" font-family="Helvetica,sans-Serif" font-size="10.00">stride::Person::GetCollegeId</text>
</a>
</g>
</g>
<!-- Node1&#45;&gt;Node2 -->
<g id="edge1" class="edge"><title>Node1&#45;&gt;Node2</title>
<path fill="none" stroke="midnightblue" d="M74.4494,-200.757C89.4823,-228.616 121.539,-280.581 164,-308 170.015,-311.884 176.763,-314.974 183.699,-317.433"/>
<polygon fill="midnightblue" stroke="midnightblue" points="77.4328,-198.909 69.6935,-191.674 71.2315,-202.156 77.4328,-198.909"/>
</g>
<!-- Node5 -->
<g id="node5" class="node"><title>Node5</title>
<g id="a_node5"><a xlink:href="../../d2/df5/a00137.html#abd8a6126416c2ba2542014e63d99b887" target="_top" xlink:title="stride::Person::GetHouseholdId">
<polygon fill="white" stroke="black" points="165,-279.5 165,-298.5 319,-298.5 319,-279.5 165,-279.5"/>
<text text-anchor="middle" x="242" y="-286.5" font-family="Helvetica,sans-Serif" font-size="10.00">stride::Person::GetHouseholdId</text>
</a>
</g>
</g>
<!-- Node1&#45;&gt;Node5 -->
<g id="edge4" class="edge"><title>Node1&#45;&gt;Node5</title>
<path fill="none" stroke="midnightblue" d="M79.6528,-199.358C97.5252,-219.399 129.631,-251.92 164,-270 171.311,-273.846 179.425,-276.933 187.564,-279.406"/>
<polygon fill="midnightblue" stroke="midnightblue" points="82.109,-196.849 72.8995,-191.611 76.8325,-201.449 82.109,-196.849"/>
</g>
<!-- Node6 -->
<g id="node6" class="node"><title>Node6</title>
<g id="a_node6"><a xlink:href="../../d2/df5/a00137.html#a137c47d3d0e8bc1221bc2123477941a1" target="_top" xlink:title="Returns the id of the K12School CP. ">
<polygon fill="white" stroke="black" points="164.5,-241.5 164.5,-260.5 319.5,-260.5 319.5,-241.5 164.5,-241.5"/>
<text text-anchor="middle" x="242" y="-248.5" font-family="Helvetica,sans-Serif" font-size="10.00">stride::Person::GetK12SchoolId</text>
</a>
</g>
</g>
<!-- Node1&#45;&gt;Node6 -->
<g id="edge6" class="edge"><title>Node1&#45;&gt;Node6</title>
<path fill="none" stroke="midnightblue" d="M90.607,-196.498C110.223,-207.151 138.211,-221.385 164,-231 174.741,-235.005 186.612,-238.515 197.75,-241.43"/>
<polygon fill="midnightblue" stroke="midnightblue" points="92.1442,-193.349 81.696,-191.593 88.7682,-199.481 92.1442,-193.349"/>
</g>
<!-- Node7 -->
<g id="node7" class="node"><title>Node7</title>
<g id="a_node7"><a xlink:href="../../d2/df5/a00137.html#ab66a63b8c275eb20a5f33147d9eee77f" target="_top" xlink:title="Returns the id of the PrimaryCommunity CP. ">
<polygon fill="white" stroke="black" points="175.5,-192 175.5,-222 308.5,-222 308.5,-192 175.5,-192"/>
<text text-anchor="start" x="183.5" y="-210" font-family="Helvetica,sans-Serif" font-size="10.00">stride::Person::GetPrimary</text>
<text text-anchor="middle" x="242" y="-199" font-family="Helvetica,sans-Serif" font-size="10.00">CommunityId</text>
</a>
</g>
</g>
<!-- Node1&#45;&gt;Node7 -->
<g id="edge8" class="edge"><title>Node1&#45;&gt;Node7</title>
<path fill="none" stroke="midnightblue" d="M137.497,-192.298C150.045,-194.08 163.028,-195.924 175.38,-197.679"/>
<polygon fill="midnightblue" stroke="midnightblue" points="137.939,-188.826 127.547,-190.884 136.955,-195.756 137.939,-188.826"/>
</g>
<!-- Node8 -->
<g id="node8" class="node"><title>Node8</title>
<g id="a_node8"><a xlink:href="../../d2/df5/a00137.html#a43a13b12121574fe063e6f8b8dbe0c4a" target="_top" xlink:title="Returns the id of the SecondaryCommunity CP. ">
<polygon fill="white" stroke="black" points="169,-143 169,-173 315,-173 315,-143 169,-143"/>
<text text-anchor="start" x="177" y="-161" font-family="Helvetica,sans-Serif" font-size="10.00">stride::Person::GetSecondary</text>
<text text-anchor="middle" x="242" y="-150" font-family="Helvetica,sans-Serif" font-size="10.00">CommunityId</text>
</a>
</g>
</g>
<!-- Node1&#45;&gt;Node8 -->
<g id="edge10" class="edge"><title>Node1&#45;&gt;Node8</title>
<path fill="none" stroke="midnightblue" d="M137.689,-172.088C147.948,-170.689 158.494,-169.251 168.745,-167.853"/>
<polygon fill="midnightblue" stroke="midnightblue" points="136.982,-168.652 127.547,-173.471 137.928,-175.588 136.982,-168.652"/>
</g>
<!-- Node9 -->
<g id="node9" class="node"><title>Node9</title>
<g id="a_node9"><a xlink:href="../../d2/df5/a00137.html#a8d484ccde416208ee213b9d9763c4367" target="_top" xlink:title="Gets the id of the Work CP. ">
<polygon fill="white" stroke="black" points="176.5,-104.5 176.5,-123.5 307.5,-123.5 307.5,-104.5 176.5,-104.5"/>
<text text-anchor="middle" x="242" y="-111.5" font-family="Helvetica,sans-Serif" font-size="10.00">stride::Person::GetWorkId</text>
</a>
</g>
</g>
<!-- Node1&#45;&gt;Node9 -->
<g id="edge12" class="edge"><title>Node1&#45;&gt;Node9</title>
<path fill="none" stroke="midnightblue" d="M90.5733,-167.41C110.172,-156.711 138.153,-142.457 164,-133 173.957,-129.357 184.89,-126.187 195.311,-123.534"/>
<polygon fill="midnightblue" stroke="midnightblue" points="88.7234,-164.434 81.6715,-172.341 92.1151,-170.557 88.7234,-164.434"/>
</g>
<!-- Node11 -->
<g id="node11" class="node"><title>Node11</title>
<g id="a_node11"><a xlink:href="../../da/ddb/a00145.html#a81b191380f9a2c93768ff0efcec47f6b" target="_top" xlink:title="Seeds the population with survey participants. ">
<polygon fill="white" stroke="black" points="188,-55 188,-85 296,-85 296,-55 188,-55"/>
<text text-anchor="start" x="196" y="-73" font-family="Helvetica,sans-Serif" font-size="10.00">stride::SurveySeeder</text>
<text text-anchor="middle" x="242" y="-62" font-family="Helvetica,sans-Serif" font-size="10.00">::Seed</text>
</a>
</g>
</g>
<!-- Node1&#45;&gt;Node11 -->
<g id="edge15" class="edge"><title>Node1&#45;&gt;Node11</title>
<path fill="none" stroke="midnightblue" d="M80.2094,-164.968C98.3964,-145.541 130.592,-114.015 164,-95 171.329,-90.8285 179.452,-87.239 187.595,-84.188"/>
<polygon fill="midnightblue" stroke="midnightblue" points="77.4958,-162.748 73.31,-172.481 82.6517,-167.483 77.4958,-162.748"/>
</g>
<!-- Node13 -->
<g id="node13" class="node"><title>Node13</title>
<g id="a_node13"><a xlink:href="../../d4/d3a/a00101.html#a0a6552a6767ab8c31913a5907d6b1b1c" target="_top" xlink:title="Swaps persons in m_members with the given index and updates the expats data if necessary. ">
<polygon fill="white" stroke="black" points="191.5,-6 191.5,-36 292.5,-36 292.5,-6 191.5,-6"/>
<text text-anchor="start" x="199.5" y="-24" font-family="Helvetica,sans-Serif" font-size="10.00">stride::ContactPool</text>
<text text-anchor="middle" x="242" y="-13" font-family="Helvetica,sans-Serif" font-size="10.00">::Swap</text>
</a>
</g>
</g>
<!-- Node1&#45;&gt;Node13 -->
<g id="edge17" class="edge"><title>Node1&#45;&gt;Node13</title>
<path fill="none" stroke="midnightblue" d="M73.6221,-163.199C88.106,-133.68 120.103,-76.5774 164,-45 172.07,-39.1945 181.587,-34.7631 191.127,-31.3903"/>
<polygon fill="midnightblue" stroke="midnightblue" points="70.3786,-161.87 69.2385,-172.403 76.6984,-164.88 70.3786,-161.87"/>
</g>
<!-- Node3 -->
<g id="node3" class="node"><title>Node3</title>
<g id="a_node3"><a xlink:href="../../d1/dc6/a00037.html#a0e11b2f67f86e812421761f61fd7274f" target="_top" xlink:title="Create a Boost Property Tree containing all the information needed to reconstruct a Person...">
<polygon fill="white" stroke="black" points="356.5,-214 356.5,-244 515.5,-244 515.5,-214 356.5,-214"/>
<text text-anchor="start" x="364.5" y="-232" font-family="Helvetica,sans-Serif" font-size="10.00">gengeopop::GeoGridJSONWriter</text>
<text text-anchor="middle" x="436" y="-221" font-family="Helvetica,sans-Serif" font-size="10.00">::WritePerson</text>
</a>
</g>
</g>
<!-- Node2&#45;&gt;Node3 -->
<g id="edge2" class="edge"><title>Node2&#45;&gt;Node3</title>
<path fill="none" stroke="midnightblue" d="M303.026,-314.453C308.86,-312.563 314.608,-310.42 320,-308 357.567,-291.137 395.953,-261.833 417.504,-244.047"/>
<polygon fill="midnightblue" stroke="midnightblue" points="301.753,-311.181 293.176,-317.401 303.76,-317.887 301.753,-311.181"/>
</g>
<!-- Node4 -->
<g id="node4" class="node"><title>Node4</title>
<g id="a_node4"><a xlink:href="../../d1/dc6/a00037.html#a06da89c72da72992bbd517973c9513eb" target="_top" xlink:title="Write the provided GeoGrid to the proved ostream in JSON format. ">
<polygon fill="white" stroke="black" points="552.5,-214 552.5,-244 711.5,-244 711.5,-214 552.5,-214"/>
<text text-anchor="start" x="560.5" y="-232" font-family="Helvetica,sans-Serif" font-size="10.00">gengeopop::GeoGridJSONWriter</text>
<text text-anchor="middle" x="632" y="-221" font-family="Helvetica,sans-Serif" font-size="10.00">::Write</text>
</a>
</g>
</g>
<!-- Node3&#45;&gt;Node4 -->
<g id="edge3" class="edge"><title>Node3&#45;&gt;Node4</title>
<path fill="none" stroke="midnightblue" d="M525.895,-229C534.691,-229 543.577,-229 552.26,-229"/>
<polygon fill="midnightblue" stroke="midnightblue" points="525.628,-225.5 515.628,-229 525.628,-232.5 525.628,-225.5"/>
</g>
<!-- Node5&#45;&gt;Node3 -->
<g id="edge5" class="edge"><title>Node5&#45;&gt;Node3</title>
<path fill="none" stroke="midnightblue" d="M294.929,-276.944C303.349,-274.772 311.945,-272.423 320,-270 345.575,-262.307 373.833,-252.254 395.938,-244.029"/>
<polygon fill="midnightblue" stroke="midnightblue" points="294.009,-273.566 285.169,-279.406 295.721,-280.353 294.009,-273.566"/>
</g>
<!-- Node6&#45;&gt;Node3 -->
<g id="edge7" class="edge"><title>Node6&#45;&gt;Node3</title>
<path fill="none" stroke="midnightblue" d="M329.928,-241.039C338.687,-240.036 347.547,-239.021 356.213,-238.028"/>
<polygon fill="midnightblue" stroke="midnightblue" points="329.248,-237.594 319.711,-242.21 330.045,-244.549 329.248,-237.594"/>
</g>
<!-- Node7&#45;&gt;Node3 -->
<g id="edge9" class="edge"><title>Node7&#45;&gt;Node3</title>
<path fill="none" stroke="midnightblue" d="M318.811,-215.687C331.194,-217.106 344.046,-218.578 356.493,-220.004"/>
<polygon fill="midnightblue" stroke="midnightblue" points="318.872,-212.171 308.539,-214.51 318.075,-219.125 318.872,-212.171"/>
</g>
<!-- Node8&#45;&gt;Node3 -->
<g id="edge11" class="edge"><title>Node8&#45;&gt;Node3</title>
<path fill="none" stroke="midnightblue" d="M300.733,-176.282C307.253,-178.484 313.784,-180.751 320,-183 346.791,-192.695 376.657,-204.677 399.237,-213.982"/>
<polygon fill="midnightblue" stroke="midnightblue" points="301.82,-172.955 291.226,-173.113 299.606,-179.596 301.82,-172.955"/>
</g>
<!-- Node9&#45;&gt;Node3 -->
<g id="edge13" class="edge"><title>Node9&#45;&gt;Node3</title>
<path fill="none" stroke="midnightblue" d="M305.347,-126.758C310.411,-128.579 315.359,-130.65 320,-133 361.532,-154.032 401.208,-192.587 421.319,-213.878"/>
<polygon fill="midnightblue" stroke="midnightblue" points="306.11,-123.325 295.517,-123.552 303.939,-129.98 306.11,-123.325"/>
</g>
<!-- Node10 -->
<g id="node10" class="node"><title>Node10</title>
<g id="a_node10"><a xlink:href="../../d9/d7d/a00150.html#a7b1219dfa5bb3b91d0603cac0a22b8ae" target="_top" xlink:title="Based on the profile determines if a person will travel and handle when it effectively travels...">
<polygon fill="white" stroke="black" points="380,-104 380,-134 492,-134 492,-104 380,-104"/>
<text text-anchor="start" x="388" y="-122" font-family="Helvetica,sans-Serif" font-size="10.00">stride::TravellerProfile</text>
<text text-anchor="middle" x="436" y="-111" font-family="Helvetica,sans-Serif" font-size="10.00">::PersonWillTravel</text>
</a>
</g>
</g>
<!-- Node9&#45;&gt;Node10 -->
<g id="edge14" class="edge"><title>Node9&#45;&gt;Node10</title>
<path fill="none" stroke="midnightblue" d="M317.756,-115.947C338.434,-116.485 360.496,-117.06 379.839,-117.564"/>
<polygon fill="midnightblue" stroke="midnightblue" points="317.823,-112.447 307.735,-115.686 317.64,-119.445 317.823,-112.447"/>
</g>
<!-- Node12 -->
<g id="node12" class="node"><title>Node12</title>
<g id="a_node12"><a xlink:href="../../dd/d42/a00109.html#ae3494b202df19d6ff1aee50fce84e2cd" target="_top" xlink:title="Build Population and return it afterwards. ">
<polygon fill="white" stroke="black" points="373.5,-55 373.5,-85 498.5,-85 498.5,-55 373.5,-55"/>
<text text-anchor="start" x="381.5" y="-73" font-family="Helvetica,sans-Serif" font-size="10.00">stride::DefaultPopBuilder</text>
<text text-anchor="middle" x="436" y="-62" font-family="Helvetica,sans-Serif" font-size="10.00">::Build</text>
</a>
</g>
</g>
<!-- Node11&#45;&gt;Node12 -->
<g id="edge16" class="edge"><title>Node11&#45;&gt;Node12</title>
<path fill="none" stroke="midnightblue" d="M306.243,-70C327.759,-70 351.77,-70 373.174,-70"/>
<polygon fill="midnightblue" stroke="midnightblue" points="306.228,-66.5001 296.228,-70 306.228,-73.5001 306.228,-66.5001"/>
</g>
<!-- Node14 -->
<g id="node14" class="node"><title>Node14</title>
<g id="a_node14"><a xlink:href="../../d4/d3a/a00101.html#a6c90e9734ee7c6566bdf1f4416e99fd8" target="_top" xlink:title="Sort w.r.t. health status: order: exposed/infected/recovered, susceptible, immune. ">
<polygon fill="white" stroke="black" points="385.5,-6 385.5,-36 486.5,-36 486.5,-6 385.5,-6"/>
<text text-anchor="start" x="393.5" y="-24" font-family="Helvetica,sans-Serif" font-size="10.00">stride::ContactPool</text>
<text text-anchor="middle" x="436" y="-13" font-family="Helvetica,sans-Serif" font-size="10.00">::SortMembers</text>
</a>
</g>
</g>
<!-- Node13&#45;&gt;Node14 -->
<g id="edge18" class="edge"><title>Node13&#45;&gt;Node14</title>
<path fill="none" stroke="midnightblue" d="M303.213,-21C329.615,-21 360.231,-21 385.306,-21"/>
<polygon fill="midnightblue" stroke="midnightblue" points="302.945,-17.5001 292.945,-21 302.944,-24.5001 302.945,-17.5001"/>
</g>
<!-- Node15 -->
<g id="node15" class="node"><title>Node15</title>
<g id="a_node15"><a xlink:href="../../df/dc8/a00122.html#a3e10dc57119090c30ba818420bbd7b94" target="_top" xlink:title="stride::Infector\&lt; LL,\l TIC, NoLocalInformation,\l true \&gt;::Exec">
<polygon fill="white" stroke="black" points="567,-0.5 567,-41.5 697,-41.5 697,-0.5 567,-0.5"/>
<text text-anchor="start" x="575" y="-29.5" font-family="Helvetica,sans-Serif" font-size="10.00">stride::Infector&lt; LL,</text>
<text text-anchor="start" x="575" y="-18.5" font-family="Helvetica,sans-Serif" font-size="10.00"> TIC, NoLocalInformation,</text>
<text text-anchor="middle" x="632" y="-7.5" font-family="Helvetica,sans-Serif" font-size="10.00"> true &gt;::Exec</text>
</a>
</g>
</g>
<!-- Node14&#45;&gt;Node15 -->
<g id="edge19" class="edge"><title>Node14&#45;&gt;Node15</title>
<path fill="none" stroke="midnightblue" d="M496.973,-21C519.105,-21 544.262,-21 566.757,-21"/>
<polygon fill="midnightblue" stroke="midnightblue" points="496.708,-17.5001 486.708,-21 496.708,-24.5001 496.708,-17.5001"/>
</g>
</g>
</svg>
        <g id="navigator" transform="translate(0 0)" fill="#404254">
                <rect fill="#f2f5e9" fill-opacity="0.5" stroke="#606060" stroke-width=".5" x="0" y="0" width="60" height="60"/>
                <use id="zoomplus" xlink:href="#zoomPlus" x="17" y="9" onmousedown="handleZoom(evt,'in')"/>
                <use id="zoomminus" xlink:href="#zoomMin" x="42" y="9" onmousedown="handleZoom(evt,'out')"/>
                <use id="reset" xlink:href="#resetDef" x="30" y="36" onmousedown="handleReset()"/>
                <g id="arrowUp" xlink:href="#dirArrow" transform="translate(30 24)" onmousedown="handlePan(0,-1)">
                  <use xlink:href="#rim" fill="#404040">
                        <set attributeName="fill" to="#808080" begin="arrowUp.mouseover" end="arrowUp.mouseout"/>
                  </use>
                  <path fill="none" stroke="white" stroke-width="1.5" d="M0,-3.0v7 M-2.5,-0.5L0,-3.0L2.5,-0.5"/>
                </g>
                <g id="arrowRight" xlink:href="#dirArrow" transform="rotate(90) translate(36 -43)" onmousedown="handlePan(1,0)">
                  <use xlink:href="#rim" fill="#404040">
                        <set attributeName="fill" to="#808080" begin="arrowRight.mouseover" end="arrowRight.mouseout"/>
                  </use>
                  <path fill="none" stroke="white" stroke-width="1.5" d="M0,-3.0v7 M-2.5,-0.5L0,-3.0L2.5,-0.5"/>
                </g>
                <g id="arrowDown" xlink:href="#dirArrow" transform="rotate(180) translate(-30 -48)" onmousedown="handlePan(0,1)">
                  <use xlink:href="#rim" fill="#404040">
                        <set attributeName="fill" to="#808080" begin="arrowDown.mouseover" end="arrowDown.mouseout"/>
                  </use>
                  <path fill="none" stroke="white" stroke-width="1.5" d="M0,-3.0v7 M-2.5,-0.5L0,-3.0L2.5,-0.5"/>
                </g>
                <g id="arrowLeft" xlink:href="#dirArrow" transform="rotate(270) translate(-36 17)" onmousedown="handlePan(-1,0)">
                  <use xlink:href="#rim" fill="#404040">
                        <set attributeName="fill" to="#808080" begin="arrowLeft.mouseover" end="arrowLeft.mouseout"/>
                  </use>
                  <path fill="none" stroke="white" stroke-width="1.5" d="M0,-3.0v7 M-2.5,-0.5L0,-3.0L2.5,-0.5"/>
                </g>
        </g>
        <svg viewBox="0 0 15 15" width="100%" height="30px" preserveAspectRatio="xMaxYMin meet">
         <g id="arrow_out" transform="scale(0.3 0.3)">
          <a xlink:href="a00137_ace277043dfb3a2052adf508dd0179567_icgraph_org.svg" target="_base">
           <rect id="button" ry="5" rx="5" y="6" x="6" height="38" width="38"
                fill="#f2f5e9" fill-opacity="0.5" stroke="#606060" stroke-width="1.0"/>
           <path id="arrow"
             d="M 11.500037,31.436501 C 11.940474,20.09759 22.043105,11.32322 32.158766,21.979434 L 37.068811,17.246167 C 37.068811,17.246167 37.088388,32 37.088388,32 L 22.160133,31.978069 C 22.160133,31.978069 26.997745,27.140456 26.997745,27.140456 C 18.528582,18.264221 13.291696,25.230495 11.500037,31.436501 z"
             style="fill:#404040;"/>
          </a>
         </g>
        </svg>
</svg>
