<?xml version="1.0" encoding="UTF-8" standalone="no"?>
<!DOCTYPE svg PUBLIC "-//W3C//DTD SVG 1.1//EN"
 "http://www.w3.org/Graphics/SVG/1.1/DTD/svg11.dtd">
<!-- Generated by graphviz version 2.36.0 (20140111.2315)
 -->
<!-- Title: stride::Person::GetAge Pages: 1 -->
<svg width="796pt" height="284pt"
 viewBox="0.00 0.00 796.00 284.00" xmlns="http://www.w3.org/2000/svg" xmlns:xlink="http://www.w3.org/1999/xlink">
<g id="graph0" class="graph" transform="scale(1 1) rotate(0) translate(4 280)">
<title>stride::Person::GetAge</title>
<polygon fill="white" stroke="none" points="-4,4 -4,-280 792,-280 792,4 -4,4"/>
<!-- Node1 -->
<g id="node1" class="node"><title>Node1</title>
<polygon fill="#bfbfbf" stroke="black" points="0,-125.5 0,-144.5 116,-144.5 116,-125.5 0,-125.5"/>
<text text-anchor="middle" x="58" y="-132.5" font-family="Helvetica,sans-Serif" font-size="10.00">stride::Person::GetAge</text>
</g>
<!-- Node2 -->
<g id="node2" class="node"><title>Node2</title>
<g id="a_node2"><a xlink:href="../../d7/d12/a00126.html#ac571c931677ef5dd82de6cc46a085dbd" target="_top" xlink:title="stride::LOG_POLICY\l\&lt; ContactLogMode::Id\l::All \&gt;::Contact">
<polygon fill="white" stroke="black" points="175,-234.5 175,-275.5 289,-275.5 289,-234.5 175,-234.5"/>
<text text-anchor="start" x="183" y="-263.5" font-family="Helvetica,sans-Serif" font-size="10.00">stride::LOG_POLICY</text>
<text text-anchor="start" x="183" y="-252.5" font-family="Helvetica,sans-Serif" font-size="10.00">&lt; ContactLogMode::Id</text>
<text text-anchor="middle" x="232" y="-241.5" font-family="Helvetica,sans-Serif" font-size="10.00">::All &gt;::Contact</text>
</a>
</g>
</g>
<!-- Node1&#45;&gt;Node2 -->
<g id="edge1" class="edge"><title>Node1&#45;&gt;Node2</title>
<path fill="none" stroke="midnightblue" d="M73.1182,-152.418C90.0438,-172.324 120.139,-204.759 152,-225 159.058,-229.484 166.89,-233.459 174.801,-236.928"/>
<polygon fill="midnightblue" stroke="midnightblue" points="75.7962,-150.164 66.7039,-144.725 70.4199,-154.647 75.7962,-150.164"/>
</g>
<!-- Node3 -->
<g id="node3" class="node"><title>Node3</title>
<g id="a_node3"><a xlink:href="../../d9/d4b/a00117.html#a8188dc69064103c5ac7e95193356a0c3" target="_top" xlink:title="Random immunization. ">
<polygon fill="white" stroke="black" points="183,-186 183,-216 281,-216 281,-186 183,-186"/>
<text text-anchor="start" x="191" y="-204" font-family="Helvetica,sans-Serif" font-size="10.00">stride::Immunizer::</text>
<text text-anchor="middle" x="232" y="-193" font-family="Helvetica,sans-Serif" font-size="10.00">Random</text>
</a>
</g>
</g>
<!-- Node1&#45;&gt;Node3 -->
<g id="edge2" class="edge"><title>Node1&#45;&gt;Node3</title>
<path fill="none" stroke="midnightblue" d="M93.2648,-148.324C110.819,-155.135 132.54,-163.539 152,-171 164.74,-175.885 178.649,-181.179 191.197,-185.942"/>
<polygon fill="midnightblue" stroke="midnightblue" points="94.0484,-144.874 83.4596,-144.517 91.515,-151.399 94.0484,-144.874"/>
</g>
<!-- Node5 -->
<g id="node5" class="node"><title>Node5</title>
<g id="a_node5"><a xlink:href="../../d4/d81/a00110.html#adc5b1f152367382afe3dade9421357da" target="_top" xlink:title="Build the simulator. ">
<polygon fill="white" stroke="black" points="544.5,-164 544.5,-194 657.5,-194 657.5,-164 544.5,-164"/>
<text text-anchor="start" x="552.5" y="-182" font-family="Helvetica,sans-Serif" font-size="10.00">stride::DiseaseSeeder</text>
<text text-anchor="middle" x="601" y="-171" font-family="Helvetica,sans-Serif" font-size="10.00">::Seed</text>
</a>
</g>
</g>
<!-- Node1&#45;&gt;Node5 -->
<g id="edge6" class="edge"><title>Node1&#45;&gt;Node5</title>
<path fill="none" stroke="midnightblue" d="M126.253,-140.47C234.229,-149.252 444.258,-166.333 544.355,-174.474"/>
<polygon fill="midnightblue" stroke="midnightblue" points="126.38,-136.969 116.129,-139.646 125.812,-143.946 126.38,-136.969"/>
</g>
<!-- Node7 -->
<g id="node7" class="node"><title>Node7</title>
<g id="a_node7"><a xlink:href="../../da/ddb/a00145.html#a81b191380f9a2c93768ff0efcec47f6b" target="_top" xlink:title="Seeds the population with survey participants. ">
<polygon fill="white" stroke="black" points="178,-98 178,-128 286,-128 286,-98 178,-98"/>
<text text-anchor="start" x="186" y="-116" font-family="Helvetica,sans-Serif" font-size="10.00">stride::SurveySeeder</text>
<text text-anchor="middle" x="232" y="-105" font-family="Helvetica,sans-Serif" font-size="10.00">::Seed</text>
</a>
</g>
</g>
<!-- Node1&#45;&gt;Node7 -->
<g id="edge7" class="edge"><title>Node1&#45;&gt;Node7</title>
<path fill="none" stroke="midnightblue" d="M126.202,-126.404C143.306,-124.217 161.453,-121.896 177.754,-119.811"/>
<polygon fill="midnightblue" stroke="midnightblue" points="125.749,-122.934 116.274,-127.674 126.637,-129.877 125.749,-122.934"/>
</g>
<!-- Node9 -->
<g id="node9" class="node"><title>Node9</title>
<g id="a_node9"><a xlink:href="../../d1/dc6/a00037.html#a0e11b2f67f86e812421761f61fd7274f" target="_top" xlink:title="Create a Boost Property Tree containing all the information needed to reconstruct a Person...">
<polygon fill="white" stroke="black" points="152.5,-49 152.5,-79 311.5,-79 311.5,-49 152.5,-49"/>
<text text-anchor="start" x="160.5" y="-67" font-family="Helvetica,sans-Serif" font-size="10.00">gengeopop::GeoGridJSONWriter</text>
<text text-anchor="middle" x="232" y="-56" font-family="Helvetica,sans-Serif" font-size="10.00">::WritePerson</text>
</a>
</g>
</g>
<!-- Node1&#45;&gt;Node9 -->
<g id="edge9" class="edge"><title>Node1&#45;&gt;Node9</title>
<path fill="none" stroke="midnightblue" d="M84.6364,-120.529C103.009,-110.536 128.551,-97.4049 152,-88 159.982,-84.7984 168.563,-81.7792 177.022,-79.0327"/>
<polygon fill="midnightblue" stroke="midnightblue" points="82.803,-117.543 75.7311,-125.432 86.1792,-123.675 82.803,-117.543"/>
</g>
<!-- Node11 -->
<g id="node11" class="node"><title>Node11</title>
<g id="a_node11"><a xlink:href="../../db/d3a/a00040.html#aeeb27df99670bf86ed6564b1affdd986" target="_top" xlink:title="Create a ProtoBuf Person containing all the information needed to reconstruct a Person. ">
<polygon fill="white" stroke="black" points="154.5,-0 154.5,-30 309.5,-30 309.5,-0 154.5,-0"/>
<text text-anchor="start" x="162.5" y="-18" font-family="Helvetica,sans-Serif" font-size="10.00">gengeopop::GeoGridProtoWriter</text>
<text text-anchor="middle" x="232" y="-7" font-family="Helvetica,sans-Serif" font-size="10.00">::WritePerson</text>
</a>
</g>
</g>
<!-- Node1&#45;&gt;Node11 -->
<g id="edge11" class="edge"><title>Node1&#45;&gt;Node11</title>
<path fill="none" stroke="midnightblue" d="M71.8558,-116.974C88.1469,-95.4065 118.207,-59.6309 152,-39 157.628,-35.5642 163.784,-32.5882 170.097,-30.0178"/>
<polygon fill="midnightblue" stroke="midnightblue" points="68.8628,-115.136 65.7462,-125.262 74.4972,-119.289 68.8628,-115.136"/>
</g>
<!-- Node4 -->
<g id="node4" class="node"><title>Node4</title>
<g id="a_node4"><a xlink:href="../../d4/d81/a00110.html#accb4b7832c08a4cc98973caf5aebf7f5" target="_top" xlink:title="Seed for vaccination/natural immunity. ">
<polygon fill="white" stroke="black" points="371.5,-186 371.5,-216 484.5,-216 484.5,-186 371.5,-186"/>
<text text-anchor="start" x="379.5" y="-204" font-family="Helvetica,sans-Serif" font-size="10.00">stride::DiseaseSeeder</text>
<text text-anchor="middle" x="428" y="-193" font-family="Helvetica,sans-Serif" font-size="10.00">::Vaccinate</text>
</a>
</g>
</g>
<!-- Node3&#45;&gt;Node4 -->
<g id="edge3" class="edge"><title>Node3&#45;&gt;Node4</title>
<path fill="none" stroke="midnightblue" d="M291.642,-201C316.916,-201 346.332,-201 371.272,-201"/>
<polygon fill="midnightblue" stroke="midnightblue" points="291.454,-197.5 281.454,-201 291.454,-204.5 291.454,-197.5"/>
</g>
<!-- Node4&#45;&gt;Node5 -->
<g id="edge4" class="edge"><title>Node4&#45;&gt;Node5</title>
<path fill="none" stroke="midnightblue" d="M494.606,-192.559C511.061,-190.442 528.557,-188.192 544.467,-186.145"/>
<polygon fill="midnightblue" stroke="midnightblue" points="493.99,-189.11 484.519,-193.857 494.884,-196.053 493.99,-189.11"/>
</g>
<!-- Node6 -->
<g id="node6" class="node"><title>Node6</title>
<g id="a_node6"><a xlink:href="../../d2/d82/a00142.html#a94ce5fb3cae915f0bdb261498f31c444" target="_top" xlink:title="Build the simulator and return it afterwards. ">
<polygon fill="white" stroke="black" points="694,-164 694,-194 788,-194 788,-164 694,-164"/>
<text text-anchor="start" x="702" y="-182" font-family="Helvetica,sans-Serif" font-size="10.00">stride::SimBuilder</text>
<text text-anchor="middle" x="741" y="-171" font-family="Helvetica,sans-Serif" font-size="10.00">::Build</text>
</a>
</g>
</g>
<!-- Node5&#45;&gt;Node6 -->
<g id="edge5" class="edge"><title>Node5&#45;&gt;Node6</title>
<path fill="none" stroke="midnightblue" d="M667.928,-179C676.669,-179 685.475,-179 693.784,-179"/>
<polygon fill="midnightblue" stroke="midnightblue" points="667.732,-175.5 657.732,-179 667.732,-182.5 667.732,-175.5"/>
</g>
<!-- Node8 -->
<g id="node8" class="node"><title>Node8</title>
<g id="a_node8"><a xlink:href="../../dd/d42/a00109.html#ae3494b202df19d6ff1aee50fce84e2cd" target="_top" xlink:title="Build Population and return it afterwards. ">
<polygon fill="white" stroke="black" points="365.5,-98 365.5,-128 490.5,-128 490.5,-98 365.5,-98"/>
<text text-anchor="start" x="373.5" y="-116" font-family="Helvetica,sans-Serif" font-size="10.00">stride::DefaultPopBuilder</text>
<text text-anchor="middle" x="428" y="-105" font-family="Helvetica,sans-Serif" font-size="10.00">::Build</text>
</a>
</g>
</g>
<!-- Node7&#45;&gt;Node8 -->
<g id="edge8" class="edge"><title>Node7&#45;&gt;Node8</title>
<path fill="none" stroke="midnightblue" d="M296.033,-113C318.308,-113 343.318,-113 365.467,-113"/>
<polygon fill="midnightblue" stroke="midnightblue" points="296.011,-109.5 286.011,-113 296.011,-116.5 296.011,-109.5"/>
</g>
<!-- Node10 -->
<g id="node10" class="node"><title>Node10</title>
<g id="a_node10"><a xlink:href="../../d1/dc6/a00037.html#a06da89c72da72992bbd517973c9513eb" target="_top" xlink:title="Write the provided GeoGrid to the proved ostream in JSON format. ">
<polygon fill="white" stroke="black" points="348.5,-49 348.5,-79 507.5,-79 507.5,-49 348.5,-49"/>
<text text-anchor="start" x="356.5" y="-67" font-family="Helvetica,sans-Serif" font-size="10.00">gengeopop::GeoGridJSONWriter</text>
<text text-anchor="middle" x="428" y="-56" font-family="Helvetica,sans-Serif" font-size="10.00">::Write</text>
</a>
</g>
</g>
<!-- Node9&#45;&gt;Node10 -->
<g id="edge10" class="edge"><title>Node9&#45;&gt;Node10</title>
<path fill="none" stroke="midnightblue" d="M321.895,-64C330.691,-64 339.577,-64 348.26,-64"/>
<polygon fill="midnightblue" stroke="midnightblue" points="321.628,-60.5001 311.628,-64 321.628,-67.5001 321.628,-60.5001"/>
</g>
<!-- Node12 -->
<g id="node12" class="node"><title>Node12</title>
<g id="a_node12"><a xlink:href="../../db/d3a/a00040.html#a3163b8464f599d204597a01dfc47f08f" target="_top" xlink:title="Write the provided GeoGrid to the proved ostream in Protobuf format. ">
<polygon fill="white" stroke="black" points="350.5,-0 350.5,-30 505.5,-30 505.5,-0 350.5,-0"/>
<text text-anchor="start" x="358.5" y="-18" font-family="Helvetica,sans-Serif" font-size="10.00">gengeopop::GeoGridProtoWriter</text>
<text text-anchor="middle" x="428" y="-7" font-family="Helvetica,sans-Serif" font-size="10.00">::Write</text>
</a>
</g>
</g>
<!-- Node11&#45;&gt;Node12 -->
<g id="edge12" class="edge"><title>Node11&#45;&gt;Node12</title>
<path fill="none" stroke="midnightblue" d="M319.767,-15C329.926,-15 340.238,-15 350.248,-15"/>
<polygon fill="midnightblue" stroke="midnightblue" points="319.674,-11.5001 309.674,-15 319.674,-18.5001 319.674,-11.5001"/>
</g>
</g>
</svg>
