<?xml version="1.0" encoding="UTF-8" standalone="no"?>
<!DOCTYPE svg PUBLIC "-//W3C//DTD SVG 1.1//EN"
 "http://www.w3.org/Graphics/SVG/1.1/DTD/svg11.dtd">
<!-- Generated by graphviz version 2.36.0 (20140111.2315)
 -->
<!-- Title: stride::AgeContactProfile Pages: 1 -->
<svg width="134pt" height="292pt"
 viewBox="0.00 0.00 134.00 292.00" xmlns="http://www.w3.org/2000/svg" xmlns:xlink="http://www.w3.org/1999/xlink">
<g id="graph0" class="graph" transform="scale(1 1) rotate(0) translate(4 288)">
<title>stride::AgeContactProfile</title>
<polygon fill="white" stroke="none" points="-4,4 -4,-288 130,-288 130,4 -4,4"/>
<!-- Node1 -->
<g id="node1" class="node"><title>Node1</title>
<polygon fill="#bfbfbf" stroke="black" points="0,-1 0,-69 126,-69 126,-1 0,-1"/>
<text text-anchor="middle" x="63" y="-57" font-family="Helvetica,sans-Serif" font-size="10.00">stride::AgeContactProfile</text>
<polyline fill="none" stroke="black" points="0,-50 126,-50 "/>
<text text-anchor="middle" x="63" y="-38" font-family="Helvetica,sans-Serif" font-size="10.00"> </text>
<polyline fill="none" stroke="black" points="0,-31 126,-31 "/>
<text text-anchor="start" x="8" y="-19" font-family="Helvetica,sans-Serif" font-size="10.00">+ AgeContactProfile()</text>
<text text-anchor="start" x="8" y="-8" font-family="Helvetica,sans-Serif" font-size="10.00">+ AgeContactProfile()</text>
</g>
<!-- Node2 -->
<g id="node2" class="node"><title>Node2</title>
<g id="a_node2"><a xlink:title="STL class. ">
<polygon fill="white" stroke="#bfbfbf" points="10,-109 10,-177 116,-177 116,-109 10,-109"/>
<text text-anchor="start" x="18" y="-165" font-family="Helvetica,sans-Serif" font-size="10.00">std::array&lt; double,</text>
<text text-anchor="middle" x="63" y="-154" font-family="Helvetica,sans-Serif" font-size="10.00"> MaximumAge()+1 &gt;</text>
<polyline fill="none" stroke="#bfbfbf" points="10,-147 116,-147 "/>
<text text-anchor="middle" x="63" y="-135" font-family="Helvetica,sans-Serif" font-size="10.00"> </text>
<polyline fill="none" stroke="#bfbfbf" points="10,-128 116,-128 "/>
<text text-anchor="middle" x="63" y="-116" font-family="Helvetica,sans-Serif" font-size="10.00"> </text>
</a>
</g>
</g>
<!-- Node2&#45;&gt;Node1 -->
<g id="edge1" class="edge"><title>Node2&#45;&gt;Node1</title>
<path fill="none" stroke="midnightblue" d="M63,-98.696C63,-88.8277 63,-78.4951 63,-69.1303"/>
<polygon fill="none" stroke="midnightblue" points="59.5001,-98.7517 63,-108.752 66.5001,-98.7518 59.5001,-98.7517"/>
</g>
<!-- Node3 -->
<g id="node3" class="node"><title>Node3</title>
<polygon fill="white" stroke="#bfbfbf" points="48.5,-226.5 48.5,-283.5 77.5,-283.5 77.5,-226.5 48.5,-226.5"/>
<text text-anchor="middle" x="63" y="-271.5" font-family="Helvetica,sans-Serif" font-size="10.00">T</text>
<polyline fill="none" stroke="#bfbfbf" points="48.5,-264.5 77.5,-264.5 "/>
<text text-anchor="middle" x="63" y="-252.5" font-family="Helvetica,sans-Serif" font-size="10.00"> </text>
<polyline fill="none" stroke="#bfbfbf" points="48.5,-245.5 77.5,-245.5 "/>
<text text-anchor="middle" x="63" y="-233.5" font-family="Helvetica,sans-Serif" font-size="10.00"> </text>
</g>
<!-- Node3&#45;&gt;Node2 -->
<g id="edge2" class="edge"><title>Node3&#45;&gt;Node2</title>
<path fill="none" stroke="#404040" d="M63,-226.242C63,-215.073 63,-201.897 63,-189.404"/>
<polygon fill="none" stroke="#404040" points="63.0001,-189.237 59,-183.237 63,-177.237 67,-183.237 63.0001,-189.237"/>
<text text-anchor="middle" x="87.5" y="-199.5" font-family="Helvetica,sans-Serif" font-size="10.00"> +elements</text>
</g>
</g>
</svg>
