<?xml version="1.0" encoding="UTF-8" standalone="no"?>
<!DOCTYPE svg PUBLIC "-//W3C//DTD SVG 1.1//EN"
 "http://www.w3.org/Graphics/SVG/1.1/DTD/svg11.dtd">
<!-- Generated by graphviz version 2.36.0 (20140111.2315)
 -->
<!-- Title: stride::util::SegmentedVector::push_back Pages: 1 -->
<svg width="358pt" height="185pt"
 viewBox="0.00 0.00 358.00 185.00" xmlns="http://www.w3.org/2000/svg" xmlns:xlink="http://www.w3.org/1999/xlink">
<g id="graph0" class="graph" transform="scale(1 1) rotate(0) translate(4 181)">
<title>stride::util::SegmentedVector::push_back</title>
<polygon fill="white" stroke="none" points="-4,4 -4,-181 354,-181 354,4 -4,4"/>
<!-- Node1 -->
<g id="node1" class="node"><title>Node1</title>
<polygon fill="#bfbfbf" stroke="black" points="0.5,-73 0.5,-103 143.5,-103 143.5,-73 0.5,-73"/>
<text text-anchor="start" x="8.5" y="-91" font-family="Helvetica,sans-Serif" font-size="10.00">stride::util::SegmentedVector</text>
<text text-anchor="middle" x="72" y="-80" font-family="Helvetica,sans-Serif" font-size="10.00">::push_back</text>
</g>
<!-- Node2 -->
<g id="node2" class="node"><title>Node2</title>
<g id="a_node2"><a xlink:href="../../d3/dea/a00046.html#a977c1f083a3ac0f06f5fa22ef9937e77" target="_top" xlink:title="Construct the HouseholdCSVReader with an istream containing the CSV data. ">
<polygon fill="white" stroke="black" points="180.5,-147 180.5,-177 349.5,-177 349.5,-147 180.5,-147"/>
<text text-anchor="start" x="188.5" y="-165" font-family="Helvetica,sans-Serif" font-size="10.00">gengeopop::HouseholdCSVReader</text>
<text text-anchor="middle" x="265" y="-154" font-family="Helvetica,sans-Serif" font-size="10.00">::HouseholdCSVReader</text>
</a>
</g>
</g>
<!-- Node1&#45;&gt;Node2 -->
<g id="edge1" class="edge"><title>Node1&#45;&gt;Node2</title>
<path fill="none" stroke="midnightblue" d="M112.078,-107.495C132.105,-117.073 157.049,-128.378 180,-137 189.401,-140.532 199.538,-143.904 209.406,-146.964"/>
<polygon fill="midnightblue" stroke="midnightblue" points="113.488,-104.289 102.961,-103.091 110.444,-110.592 113.488,-104.289"/>
</g>
<!-- Node3 -->
<g id="node3" class="node"><title>Node3</title>
<g id="a_node3"><a xlink:href="../../d1/dc1/a00092.html#a492bbd496ed8cfb17473b0c0d384648a" target="_top" xlink:title="Copy assignment. ">
<polygon fill="white" stroke="black" points="193.5,-98 193.5,-128 336.5,-128 336.5,-98 193.5,-98"/>
<text text-anchor="start" x="201.5" y="-116" font-family="Helvetica,sans-Serif" font-size="10.00">stride::util::SegmentedVector</text>
<text text-anchor="middle" x="265" y="-105" font-family="Helvetica,sans-Serif" font-size="10.00">&lt; Person &gt;::operator=</text>
</a>
</g>
</g>
<!-- Node1&#45;&gt;Node3 -->
<g id="edge2" class="edge"><title>Node1&#45;&gt;Node3</title>
<path fill="none" stroke="midnightblue" d="M153.597,-98.5494C166.821,-100.28 180.435,-102.062 193.393,-103.758"/>
<polygon fill="midnightblue" stroke="midnightblue" points="153.948,-95.0656 143.579,-97.238 153.04,-102.006 153.948,-95.0656"/>
</g>
<!-- Node4 -->
<g id="node4" class="node"><title>Node4</title>
<g id="a_node4"><a xlink:href="../../d1/dc1/a00092.html#aa9ed4e4bbfdbff03a55d378cdf7f5707" target="_top" xlink:title="Increases the number of elements (but DOES NOT INITIALIZE the additional elements) or pops elements (...">
<polygon fill="white" stroke="black" points="193.5,-49 193.5,-79 336.5,-79 336.5,-49 193.5,-49"/>
<text text-anchor="start" x="201.5" y="-67" font-family="Helvetica,sans-Serif" font-size="10.00">stride::util::SegmentedVector</text>
<text text-anchor="middle" x="265" y="-56" font-family="Helvetica,sans-Serif" font-size="10.00">&lt; Person &gt;::resize</text>
</a>
</g>
</g>
<!-- Node1&#45;&gt;Node4 -->
<g id="edge3" class="edge"><title>Node1&#45;&gt;Node4</title>
<path fill="none" stroke="midnightblue" d="M153.597,-77.8726C166.821,-76.211 180.435,-74.5003 193.393,-72.8721"/>
<polygon fill="midnightblue" stroke="midnightblue" points="153.064,-74.412 143.579,-79.1315 153.937,-81.3573 153.064,-74.412"/>
</g>
<!-- Node5 -->
<g id="node5" class="node"><title>Node5</title>
<g id="a_node5"><a xlink:href="../../d1/dc1/a00092.html#ae4f9b0a0e5d4dace47647217f084242c" target="_top" xlink:title="Copy constructor. ">
<polygon fill="white" stroke="black" points="190.5,-0 190.5,-30 339.5,-30 339.5,-0 190.5,-0"/>
<text text-anchor="start" x="198.5" y="-18" font-family="Helvetica,sans-Serif" font-size="10.00">stride::util::SegmentedVector</text>
<text text-anchor="middle" x="265" y="-7" font-family="Helvetica,sans-Serif" font-size="10.00">&lt; Person &gt;::SegmentedVector</text>
</a>
</g>
</g>
<!-- Node1&#45;&gt;Node5 -->
<g id="edge4" class="edge"><title>Node1&#45;&gt;Node5</title>
<path fill="none" stroke="midnightblue" d="M112.986,-68.546C132.872,-59.2626 157.426,-48.3807 180,-40 189.414,-36.5049 199.558,-33.1503 209.428,-30.096"/>
<polygon fill="midnightblue" stroke="midnightblue" points="111.47,-65.3914 103.916,-72.8201 114.454,-71.7236 111.47,-65.3914"/>
</g>
</g>
</svg>
