<?xml version="1.0" encoding="UTF-8" standalone="no"?>
<!DOCTYPE svg PUBLIC "-//W3C//DTD SVG 1.1//EN"
 "http://www.w3.org/Graphics/SVG/1.1/DTD/svg11.dtd">
<!-- Generated by graphviz version 2.36.0 (20140111.2315)
 -->
<!-- Title: stride::util::SegmentedVector::size Pages: 1 -->
<svg width="494pt" height="273pt"
 viewBox="0.00 0.00 494.00 273.00" xmlns="http://www.w3.org/2000/svg" xmlns:xlink="http://www.w3.org/1999/xlink">
<g id="graph0" class="graph" transform="scale(1 1) rotate(0) translate(4 269)">
<title>stride::util::SegmentedVector::size</title>
<polygon fill="white" stroke="none" points="-4,4 -4,-269 490,-269 490,4 -4,4"/>
<!-- Node1 -->
<g id="node1" class="node"><title>Node1</title>
<polygon fill="#bfbfbf" stroke="black" points="0.5,-112 0.5,-142 143.5,-142 143.5,-112 0.5,-112"/>
<text text-anchor="start" x="8.5" y="-130" font-family="Helvetica,sans-Serif" font-size="10.00">stride::util::SegmentedVector</text>
<text text-anchor="middle" x="72" y="-119" font-family="Helvetica,sans-Serif" font-size="10.00">::size</text>
</g>
<!-- Node2 -->
<g id="node2" class="node"><title>Node2</title>
<g id="a_node2"><a xlink:href="../../d1/dc1/a00092.html#a661e877760bdf6cd246e4038b677434a" target="_top" xlink:title="Returns a const_iterator to the end. ">
<polygon fill="white" stroke="black" points="180.5,-235 180.5,-265 323.5,-265 323.5,-235 180.5,-235"/>
<text text-anchor="start" x="188.5" y="-253" font-family="Helvetica,sans-Serif" font-size="10.00">stride::util::SegmentedVector</text>
<text text-anchor="middle" x="252" y="-242" font-family="Helvetica,sans-Serif" font-size="10.00">&lt; Person &gt;::cend</text>
</a>
</g>
</g>
<!-- Node1&#45;&gt;Node2 -->
<g id="edge1" class="edge"><title>Node1&#45;&gt;Node2</title>
<path fill="none" stroke="midnightblue" d="M92.826,-149.871C112.885,-171.783 145.749,-204.467 180,-225 186.277,-228.763 193.205,-232.076 200.199,-234.955"/>
<polygon fill="midnightblue" stroke="midnightblue" points="95.3279,-147.419 86.0362,-142.329 90.1252,-152.102 95.3279,-147.419"/>
</g>
<!-- Node3 -->
<g id="node3" class="node"><title>Node3</title>
<g id="a_node3"><a xlink:href="../../d1/dc1/a00092.html#ac3c204c505c4c4e2e0ef23dd7e29d5de" target="_top" xlink:title="Clears the content. ">
<polygon fill="white" stroke="black" points="180.5,-186 180.5,-216 323.5,-216 323.5,-186 180.5,-186"/>
<text text-anchor="start" x="188.5" y="-204" font-family="Helvetica,sans-Serif" font-size="10.00">stride::util::SegmentedVector</text>
<text text-anchor="middle" x="252" y="-193" font-family="Helvetica,sans-Serif" font-size="10.00">&lt; Person &gt;::clear</text>
</a>
</g>
</g>
<!-- Node1&#45;&gt;Node3 -->
<g id="edge2" class="edge"><title>Node1&#45;&gt;Node3</title>
<path fill="none" stroke="midnightblue" d="M113.133,-146.427C133.055,-155.801 157.595,-166.947 180,-176 188.36,-179.378 197.372,-182.751 206.076,-185.877"/>
<polygon fill="midnightblue" stroke="midnightblue" points="114.579,-143.239 104.043,-142.123 111.583,-149.566 114.579,-143.239"/>
</g>
<!-- Node4 -->
<g id="node4" class="node"><title>Node4</title>
<g id="a_node4"><a xlink:href="../../d1/dc1/a00092.html#a904ec0aae93c8dbd345607378f141898" target="_top" xlink:title="Returns an iterator to the end of the container. ">
<polygon fill="white" stroke="black" points="180.5,-137 180.5,-167 323.5,-167 323.5,-137 180.5,-137"/>
<text text-anchor="start" x="188.5" y="-155" font-family="Helvetica,sans-Serif" font-size="10.00">stride::util::SegmentedVector</text>
<text text-anchor="middle" x="252" y="-144" font-family="Helvetica,sans-Serif" font-size="10.00">&lt; Person &gt;::end</text>
</a>
</g>
</g>
<!-- Node1&#45;&gt;Node4 -->
<g id="edge3" class="edge"><title>Node1&#45;&gt;Node4</title>
<path fill="none" stroke="midnightblue" d="M153.646,-138.327C162.599,-139.584 171.666,-140.858 180.479,-142.095"/>
<polygon fill="midnightblue" stroke="midnightblue" points="153.996,-134.842 143.606,-136.917 153.022,-141.773 153.996,-134.842"/>
</g>
<!-- Node5 -->
<g id="node5" class="node"><title>Node5</title>
<g id="a_node5"><a xlink:href="../../d1/dc1/a00092.html#aa9ed4e4bbfdbff03a55d378cdf7f5707" target="_top" xlink:title="Increases the number of elements (but DOES NOT INITIALIZE the additional elements) or pops elements (...">
<polygon fill="white" stroke="black" points="180.5,-88 180.5,-118 323.5,-118 323.5,-88 180.5,-88"/>
<text text-anchor="start" x="188.5" y="-106" font-family="Helvetica,sans-Serif" font-size="10.00">stride::util::SegmentedVector</text>
<text text-anchor="middle" x="252" y="-95" font-family="Helvetica,sans-Serif" font-size="10.00">&lt; Person &gt;::resize</text>
</a>
</g>
</g>
<!-- Node1&#45;&gt;Node5 -->
<g id="edge4" class="edge"><title>Node1&#45;&gt;Node5</title>
<path fill="none" stroke="midnightblue" d="M153.646,-116.126C162.599,-114.919 171.666,-113.697 180.479,-112.508"/>
<polygon fill="midnightblue" stroke="midnightblue" points="153.049,-112.675 143.606,-117.48 153.984,-119.612 153.049,-112.675"/>
</g>
<!-- Node6 -->
<g id="node6" class="node"><title>Node6</title>
<g id="a_node6"><a xlink:href="../../da/ddb/a00145.html#a81b191380f9a2c93768ff0efcec47f6b" target="_top" xlink:title="Seeds the population with survey participants. ">
<polygon fill="white" stroke="black" points="198,-39 198,-69 306,-69 306,-39 198,-39"/>
<text text-anchor="start" x="206" y="-57" font-family="Helvetica,sans-Serif" font-size="10.00">stride::SurveySeeder</text>
<text text-anchor="middle" x="252" y="-46" font-family="Helvetica,sans-Serif" font-size="10.00">::Seed</text>
</a>
</g>
</g>
<!-- Node1&#45;&gt;Node6 -->
<g id="edge5" class="edge"><title>Node1&#45;&gt;Node6</title>
<path fill="none" stroke="midnightblue" d="M114.316,-107.501C134.036,-98.4428 158.065,-87.7641 180,-79 188.495,-75.6059 197.652,-72.1987 206.475,-69.0394"/>
<polygon fill="midnightblue" stroke="midnightblue" points="112.618,-104.429 105.009,-111.802 115.555,-110.784 112.618,-104.429"/>
</g>
<!-- Node8 -->
<g id="node8" class="node"><title>Node8</title>
<g id="a_node8"><a xlink:href="../../d5/d4e/a00141.html#a032911d7270c91e0a6a9c55f68800096" target="_top" xlink:title="Run one time step, computing full simulation (default) or only index case. ">
<polygon fill="white" stroke="black" points="196,-0.5 196,-19.5 308,-19.5 308,-0.5 196,-0.5"/>
<text text-anchor="middle" x="252" y="-7.5" font-family="Helvetica,sans-Serif" font-size="10.00">stride::Sim::TimeStep</text>
</a>
</g>
</g>
<!-- Node1&#45;&gt;Node8 -->
<g id="edge7" class="edge"><title>Node1&#45;&gt;Node8</title>
<path fill="none" stroke="midnightblue" d="M92.2631,-104.265C112.117,-82.222 145.027,-49.3564 180,-30 187.731,-25.7211 196.453,-22.2959 205.069,-19.575"/>
<polygon fill="midnightblue" stroke="midnightblue" points="89.5585,-102.04 85.5597,-111.851 94.804,-106.675 89.5585,-102.04"/>
</g>
<!-- Node7 -->
<g id="node7" class="node"><title>Node7</title>
<g id="a_node7"><a xlink:href="../../dd/d42/a00109.html#ae3494b202df19d6ff1aee50fce84e2cd" target="_top" xlink:title="Build Population and return it afterwards. ">
<polygon fill="white" stroke="black" points="360.5,-39 360.5,-69 485.5,-69 485.5,-39 360.5,-39"/>
<text text-anchor="start" x="368.5" y="-57" font-family="Helvetica,sans-Serif" font-size="10.00">stride::DefaultPopBuilder</text>
<text text-anchor="middle" x="423" y="-46" font-family="Helvetica,sans-Serif" font-size="10.00">::Build</text>
</a>
</g>
</g>
<!-- Node6&#45;&gt;Node7 -->
<g id="edge6" class="edge"><title>Node6&#45;&gt;Node7</title>
<path fill="none" stroke="midnightblue" d="M316.312,-54C330.711,-54 345.987,-54 360.317,-54"/>
<polygon fill="midnightblue" stroke="midnightblue" points="316.009,-50.5001 306.009,-54 316.009,-57.5001 316.009,-50.5001"/>
</g>
</g>
</svg>
