<?xml version="1.0" encoding="UTF-8" standalone="no"?>
<!DOCTYPE svg PUBLIC "-//W3C//DTD SVG 1.1//EN"
 "http://www.w3.org/Graphics/SVG/1.1/DTD/svg11.dtd">
<!-- Generated by graphviz version 2.36.0 (20140111.2315)
 -->
<!-- Title: stride::util::SegmentedVector::size Pages: 1 -->
<!--zoomable 273 -->
<svg id="main" version="1.1" xmlns="http://www.w3.org/2000/svg" xmlns:xlink="http://www.w3.org/1999/xlink" xml:space="preserve" onload="init(evt)">
<style type="text/css"><![CDATA[
.edge:hover path { stroke: red; }
.edge:hover polygon { stroke: red; fill: red; }
]]></style>
<script type="text/javascript"><![CDATA[
var edges = document.getElementsByTagName('g');
if (edges && edges.length) {
  for (var i=0;i<edges.length;i++) {
    if (edges[i].id.substr(0,4)=='edge') {
      edges[i].setAttribute('class','edge');
    }
  }
}
]]></script>
        <defs>
                <circle id="rim" cx="0" cy="0" r="7"/>
                <circle id="rim2" cx="0" cy="0" r="3.5"/>
                <g id="zoomPlus">
                        <use xlink:href="#rim" fill="#404040">
                                <set attributeName="fill" to="#808080" begin="zoomplus.mouseover" end="zoomplus.mouseout"/>
                        </use>
                        <path d="M-4,0h8M0,-4v8" fill="none" stroke="white" stroke-width="1.5" pointer-events="none"/>
                </g>
                <g id="zoomMin">
                        <use xlink:href="#rim" fill="#404040">
                                <set attributeName="fill" to="#808080" begin="zoomminus.mouseover" end="zoomminus.mouseout"/>
                        </use>
                        <path d="M-4,0h8" fill="none" stroke="white" stroke-width="1.5" pointer-events="none"/>
                </g>
                <g id="dirArrow">
                        <path fill="none" stroke="white" stroke-width="1.5" d="M0,-3.0v7 M-2.5,-0.5L0,-3.0L2.5,-0.5"/>
                </g>
               <g id="resetDef">
                       <use xlink:href="#rim2" fill="#404040">
                               <set attributeName="fill" to="#808080" begin="reset.mouseover" end="reset.mouseout"/>
                       </use>
               </g>
        </defs>

<script type="text/javascript">
var viewWidth = 622;
var viewHeight = 273;
var sectionId = 'dynsection-7';
</script>
<script xlink:href="../../svgpan.js"/>
<svg id="graph" class="graph">
<g id="viewport">
<title>stride::util::SegmentedVector::size</title>
<polygon fill="white" stroke="none" points="-4,4 -4,-269 618,-269 618,4 -4,4"/>
<!-- Node1 -->
<g id="node1" class="node"><title>Node1</title>
<polygon fill="#bfbfbf" stroke="black" points="0.5,-112 0.5,-142 143.5,-142 143.5,-112 0.5,-112"/>
<text text-anchor="start" x="8.5" y="-130" font-family="Helvetica,sans-Serif" font-size="10.00">stride::util::SegmentedVector</text>
<text text-anchor="middle" x="72" y="-119" font-family="Helvetica,sans-Serif" font-size="10.00">::size</text>
</g>
<!-- Node2 -->
<g id="node2" class="node"><title>Node2</title>
<g id="a_node2"><a xlink:href="../../d1/dc1/a00092.html#a661e877760bdf6cd246e4038b677434a" target="_top" xlink:title="Returns a const_iterator to the end. ">
<polygon fill="white" stroke="black" points="180.5,-235 180.5,-265 323.5,-265 323.5,-235 180.5,-235"/>
<text text-anchor="start" x="188.5" y="-253" font-family="Helvetica,sans-Serif" font-size="10.00">stride::util::SegmentedVector</text>
<text text-anchor="middle" x="252" y="-242" font-family="Helvetica,sans-Serif" font-size="10.00">&lt; Person &gt;::cend</text>
</a>
</g>
</g>
<!-- Node1&#45;&gt;Node2 -->
<g id="edge1" class="edge"><title>Node1&#45;&gt;Node2</title>
<path fill="none" stroke="midnightblue" d="M92.826,-149.871C112.885,-171.783 145.749,-204.467 180,-225 186.277,-228.763 193.205,-232.076 200.199,-234.955"/>
<polygon fill="midnightblue" stroke="midnightblue" points="95.3279,-147.419 86.0362,-142.329 90.1252,-152.102 95.3279,-147.419"/>
</g>
<!-- Node3 -->
<g id="node3" class="node"><title>Node3</title>
<g id="a_node3"><a xlink:href="../../d1/dc1/a00092.html#ac3c204c505c4c4e2e0ef23dd7e29d5de" target="_top" xlink:title="Clears the content. ">
<polygon fill="white" stroke="black" points="180.5,-186 180.5,-216 323.5,-216 323.5,-186 180.5,-186"/>
<text text-anchor="start" x="188.5" y="-204" font-family="Helvetica,sans-Serif" font-size="10.00">stride::util::SegmentedVector</text>
<text text-anchor="middle" x="252" y="-193" font-family="Helvetica,sans-Serif" font-size="10.00">&lt; Person &gt;::clear</text>
</a>
</g>
</g>
<!-- Node1&#45;&gt;Node3 -->
<g id="edge2" class="edge"><title>Node1&#45;&gt;Node3</title>
<path fill="none" stroke="midnightblue" d="M113.133,-146.427C133.055,-155.801 157.595,-166.947 180,-176 188.36,-179.378 197.372,-182.751 206.076,-185.877"/>
<polygon fill="midnightblue" stroke="midnightblue" points="114.579,-143.239 104.043,-142.123 111.583,-149.566 114.579,-143.239"/>
</g>
<!-- Node4 -->
<g id="node4" class="node"><title>Node4</title>
<g id="a_node4"><a xlink:href="../../d1/dc1/a00092.html#a904ec0aae93c8dbd345607378f141898" target="_top" xlink:title="Returns an iterator to the end of the container. ">
<polygon fill="white" stroke="black" points="180.5,-137 180.5,-167 323.5,-167 323.5,-137 180.5,-137"/>
<text text-anchor="start" x="188.5" y="-155" font-family="Helvetica,sans-Serif" font-size="10.00">stride::util::SegmentedVector</text>
<text text-anchor="middle" x="252" y="-144" font-family="Helvetica,sans-Serif" font-size="10.00">&lt; Person &gt;::end</text>
</a>
</g>
</g>
<!-- Node1&#45;&gt;Node4 -->
<g id="edge3" class="edge"><title>Node1&#45;&gt;Node4</title>
<path fill="none" stroke="midnightblue" d="M153.646,-138.327C162.599,-139.584 171.666,-140.858 180.479,-142.095"/>
<polygon fill="midnightblue" stroke="midnightblue" points="153.996,-134.842 143.606,-136.917 153.022,-141.773 153.996,-134.842"/>
</g>
<!-- Node5 -->
<g id="node5" class="node"><title>Node5</title>
<g id="a_node5"><a xlink:href="../../d1/dc1/a00092.html#aa9ed4e4bbfdbff03a55d378cdf7f5707" target="_top" xlink:title="Increases the number of elements (but DOES NOT INITIALIZE the additional elements) or pops elements (...">
<polygon fill="white" stroke="black" points="180.5,-88 180.5,-118 323.5,-118 323.5,-88 180.5,-88"/>
<text text-anchor="start" x="188.5" y="-106" font-family="Helvetica,sans-Serif" font-size="10.00">stride::util::SegmentedVector</text>
<text text-anchor="middle" x="252" y="-95" font-family="Helvetica,sans-Serif" font-size="10.00">&lt; Person &gt;::resize</text>
</a>
</g>
</g>
<!-- Node1&#45;&gt;Node5 -->
<g id="edge4" class="edge"><title>Node1&#45;&gt;Node5</title>
<path fill="none" stroke="midnightblue" d="M153.646,-116.126C162.599,-114.919 171.666,-113.697 180.479,-112.508"/>
<polygon fill="midnightblue" stroke="midnightblue" points="153.049,-112.675 143.606,-117.48 153.984,-119.612 153.049,-112.675"/>
</g>
<!-- Node6 -->
<g id="node6" class="node"><title>Node6</title>
<g id="a_node6"><a xlink:href="../../d7/dce/a00143.html#a81b191380f9a2c93768ff0efcec47f6b" target="_top" xlink:title="Seeds the population with survey participants. ">
<polygon fill="white" stroke="black" points="198,-39 198,-69 306,-69 306,-39 198,-39"/>
<text text-anchor="start" x="206" y="-57" font-family="Helvetica,sans-Serif" font-size="10.00">stride::SurveySeeder</text>
<text text-anchor="middle" x="252" y="-46" font-family="Helvetica,sans-Serif" font-size="10.00">::Seed</text>
</a>
</g>
</g>
<!-- Node1&#45;&gt;Node6 -->
<g id="edge5" class="edge"><title>Node1&#45;&gt;Node6</title>
<path fill="none" stroke="midnightblue" d="M114.316,-107.501C134.036,-98.4428 158.065,-87.7641 180,-79 188.495,-75.6059 197.652,-72.1987 206.475,-69.0394"/>
<polygon fill="midnightblue" stroke="midnightblue" points="112.618,-104.429 105.009,-111.802 115.555,-110.784 112.618,-104.429"/>
</g>
<!-- Node9 -->
<g id="node9" class="node"><title>Node9</title>
<g id="a_node9"><a xlink:href="../../de/d14/a00139.html#a032911d7270c91e0a6a9c55f68800096" target="_top" xlink:title="Run one time step, computing full simulation (default) or only index case. ">
<polygon fill="white" stroke="black" points="196,-0.5 196,-19.5 308,-19.5 308,-0.5 196,-0.5"/>
<text text-anchor="middle" x="252" y="-7.5" font-family="Helvetica,sans-Serif" font-size="10.00">stride::Sim::TimeStep</text>
</a>
</g>
</g>
<!-- Node1&#45;&gt;Node9 -->
<g id="edge8" class="edge"><title>Node1&#45;&gt;Node9</title>
<path fill="none" stroke="midnightblue" d="M92.2631,-104.265C112.117,-82.222 145.027,-49.3564 180,-30 187.731,-25.7211 196.453,-22.2959 205.069,-19.575"/>
<polygon fill="midnightblue" stroke="midnightblue" points="89.5585,-102.04 85.5597,-111.851 94.804,-106.675 89.5585,-102.04"/>
</g>
<!-- Node7 -->
<g id="node7" class="node"><title>Node7</title>
<g id="a_node7"><a xlink:href="../../d1/dd6/a00108.html#a98f2494729bf1d46e947b302f3e1b3b1" target="_top" xlink:title="Build Population and return it afterwards. ">
<polygon fill="white" stroke="black" points="360.5,-39 360.5,-69 485.5,-69 485.5,-39 360.5,-39"/>
<text text-anchor="start" x="368.5" y="-57" font-family="Helvetica,sans-Serif" font-size="10.00">stride::DefaultPopBuilder</text>
<text text-anchor="middle" x="423" y="-46" font-family="Helvetica,sans-Serif" font-size="10.00">::Build</text>
</a>
</g>
</g>
<!-- Node6&#45;&gt;Node7 -->
<g id="edge6" class="edge"><title>Node6&#45;&gt;Node7</title>
<path fill="none" stroke="midnightblue" d="M316.312,-54C330.711,-54 345.987,-54 360.317,-54"/>
<polygon fill="midnightblue" stroke="midnightblue" points="316.009,-50.5001 306.009,-54 316.009,-57.5001 316.009,-50.5001"/>
</g>
<!-- Node8 -->
<g id="node8" class="node"><title>Node8</title>
<g id="a_node8"><a xlink:href="../../d2/df5/a00137.html#ac9658f1a5fa801de6742a46efb85fb9c" target="_top" xlink:title="Create a Population for the given region parameters. ">
<polygon fill="white" stroke="black" points="522,-39 522,-69 614,-69 614,-39 522,-39"/>
<text text-anchor="start" x="530" y="-57" font-family="Helvetica,sans-Serif" font-size="10.00">stride::Population</text>
<text text-anchor="middle" x="568" y="-46" font-family="Helvetica,sans-Serif" font-size="10.00">::CreateRegion</text>
</a>
</g>
</g>
<!-- Node7&#45;&gt;Node8 -->
<g id="edge7" class="edge"><title>Node7&#45;&gt;Node8</title>
<path fill="none" stroke="midnightblue" d="M496.137,-54C504.888,-54 513.626,-54 521.828,-54"/>
<polygon fill="midnightblue" stroke="midnightblue" points="495.89,-50.5001 485.89,-54 495.89,-57.5001 495.89,-50.5001"/>
</g>
</g>
</svg>
        <g id="navigator" transform="translate(0 0)" fill="#404254">
                <rect fill="#f2f5e9" fill-opacity="0.5" stroke="#606060" stroke-width=".5" x="0" y="0" width="60" height="60"/>
                <use id="zoomplus" xlink:href="#zoomPlus" x="17" y="9" onmousedown="handleZoom(evt,'in')"/>
                <use id="zoomminus" xlink:href="#zoomMin" x="42" y="9" onmousedown="handleZoom(evt,'out')"/>
                <use id="reset" xlink:href="#resetDef" x="30" y="36" onmousedown="handleReset()"/>
                <g id="arrowUp" xlink:href="#dirArrow" transform="translate(30 24)" onmousedown="handlePan(0,-1)">
                  <use xlink:href="#rim" fill="#404040">
                        <set attributeName="fill" to="#808080" begin="arrowUp.mouseover" end="arrowUp.mouseout"/>
                  </use>
                  <path fill="none" stroke="white" stroke-width="1.5" d="M0,-3.0v7 M-2.5,-0.5L0,-3.0L2.5,-0.5"/>
                </g>
                <g id="arrowRight" xlink:href="#dirArrow" transform="rotate(90) translate(36 -43)" onmousedown="handlePan(1,0)">
                  <use xlink:href="#rim" fill="#404040">
                        <set attributeName="fill" to="#808080" begin="arrowRight.mouseover" end="arrowRight.mouseout"/>
                  </use>
                  <path fill="none" stroke="white" stroke-width="1.5" d="M0,-3.0v7 M-2.5,-0.5L0,-3.0L2.5,-0.5"/>
                </g>
                <g id="arrowDown" xlink:href="#dirArrow" transform="rotate(180) translate(-30 -48)" onmousedown="handlePan(0,1)">
                  <use xlink:href="#rim" fill="#404040">
                        <set attributeName="fill" to="#808080" begin="arrowDown.mouseover" end="arrowDown.mouseout"/>
                  </use>
                  <path fill="none" stroke="white" stroke-width="1.5" d="M0,-3.0v7 M-2.5,-0.5L0,-3.0L2.5,-0.5"/>
                </g>
                <g id="arrowLeft" xlink:href="#dirArrow" transform="rotate(270) translate(-36 17)" onmousedown="handlePan(-1,0)">
                  <use xlink:href="#rim" fill="#404040">
                        <set attributeName="fill" to="#808080" begin="arrowLeft.mouseover" end="arrowLeft.mouseout"/>
                  </use>
                  <path fill="none" stroke="white" stroke-width="1.5" d="M0,-3.0v7 M-2.5,-0.5L0,-3.0L2.5,-0.5"/>
                </g>
        </g>
        <svg viewBox="0 0 15 15" width="100%" height="30px" preserveAspectRatio="xMaxYMin meet">
         <g id="arrow_out" transform="scale(0.3 0.3)">
          <a xlink:href="a00092_a0e279c31f261b01f7798355e27401bfe_icgraph_org.svg" target="_base">
           <rect id="button" ry="5" rx="5" y="6" x="6" height="38" width="38"
                fill="#f2f5e9" fill-opacity="0.5" stroke="#606060" stroke-width="1.0"/>
           <path id="arrow"
             d="M 11.500037,31.436501 C 11.940474,20.09759 22.043105,11.32322 32.158766,21.979434 L 37.068811,17.246167 C 37.068811,17.246167 37.088388,32 37.088388,32 L 22.160133,31.978069 C 22.160133,31.978069 26.997745,27.140456 26.997745,27.140456 C 18.528582,18.264221 13.291696,25.230495 11.500037,31.436501 z"
             style="fill:#404040;"/>
          </a>
         </g>
        </svg>
</svg>
