<?xml version="1.0" encoding="UTF-8" standalone="no"?>
<!DOCTYPE svg PUBLIC "-//W3C//DTD SVG 1.1//EN"
 "http://www.w3.org/Graphics/SVG/1.1/DTD/svg11.dtd">
<!-- Generated by graphviz version 2.36.0 (20140111.2315)
 -->
<!-- Title: TravellerIndex.h Pages: 1 -->
<!--zoomable 252 -->
<svg id="main" version="1.1" xmlns="http://www.w3.org/2000/svg" xmlns:xlink="http://www.w3.org/1999/xlink" xml:space="preserve" onload="init(evt)">
<style type="text/css"><![CDATA[
.edge:hover path { stroke: red; }
.edge:hover polygon { stroke: red; fill: red; }
]]></style>
<script type="text/javascript"><![CDATA[
var edges = document.getElementsByTagName('g');
if (edges && edges.length) {
  for (var i=0;i<edges.length;i++) {
    if (edges[i].id.substr(0,4)=='edge') {
      edges[i].setAttribute('class','edge');
    }
  }
}
]]></script>
        <defs>
                <circle id="rim" cx="0" cy="0" r="7"/>
                <circle id="rim2" cx="0" cy="0" r="3.5"/>
                <g id="zoomPlus">
                        <use xlink:href="#rim" fill="#404040">
                                <set attributeName="fill" to="#808080" begin="zoomplus.mouseover" end="zoomplus.mouseout"/>
                        </use>
                        <path d="M-4,0h8M0,-4v8" fill="none" stroke="white" stroke-width="1.5" pointer-events="none"/>
                </g>
                <g id="zoomMin">
                        <use xlink:href="#rim" fill="#404040">
                                <set attributeName="fill" to="#808080" begin="zoomminus.mouseover" end="zoomminus.mouseout"/>
                        </use>
                        <path d="M-4,0h8" fill="none" stroke="white" stroke-width="1.5" pointer-events="none"/>
                </g>
                <g id="dirArrow">
                        <path fill="none" stroke="white" stroke-width="1.5" d="M0,-3.0v7 M-2.5,-0.5L0,-3.0L2.5,-0.5"/>
                </g>
               <g id="resetDef">
                       <use xlink:href="#rim2" fill="#404040">
                               <set attributeName="fill" to="#808080" begin="reset.mouseover" end="reset.mouseout"/>
                       </use>
               </g>
        </defs>

<script type="text/javascript">
var viewWidth = 632;
var viewHeight = 252;
var sectionId = 'dynsection-0';
</script>
<script xlink:href="../../svgpan.js"/>
<svg id="graph" class="graph">
<g id="viewport">
<title>TravellerIndex.h</title>
<polygon fill="white" stroke="none" points="-4,4 -4,-248 627.966,-248 627.966,4 -4,4"/>
<!-- Node1 -->
<g id="node1" class="node"><title>Node1</title>
<polygon fill="#bfbfbf" stroke="black" points="387.966,-224.5 387.966,-243.5 473.966,-243.5 473.966,-224.5 387.966,-224.5"/>
<text text-anchor="middle" x="430.966" y="-231.5" font-family="Helvetica,sans-Serif" font-size="10.00">TravellerIndex.h</text>
</g>
<!-- Node2 -->
<g id="node2" class="node"><title>Node2</title>
<g id="a_node2"><a xlink:href="../../d6/d08/a00244.html" target="_top" xlink:title="Header for the core ContactPool class. ">
<polygon fill="white" stroke="black" points="142.466,-112.5 142.466,-131.5 221.466,-131.5 221.466,-112.5 142.466,-112.5"/>
<text text-anchor="middle" x="181.966" y="-119.5" font-family="Helvetica,sans-Serif" font-size="10.00">ContactPool.h</text>
</a>
</g>
</g>
<!-- Node1&#45;&gt;Node2 -->
<g id="edge1" class="edge"><title>Node1&#45;&gt;Node2</title>
<path fill="none" stroke="midnightblue" d="M408.487,-224.433C385.753,-215.66 349.682,-201.442 318.966,-188 280.088,-170.986 235.849,-149.625 208.417,-136.139"/>
<polygon fill="midnightblue" stroke="midnightblue" points="209.629,-132.834 199.112,-131.549 206.532,-139.112 209.629,-132.834"/>
</g>
<!-- Node14 -->
<g id="node14" class="node"><title>Node14</title>
<g id="a_node14"><a xlink:href="../../d2/d41/a00318.html" target="_top" xlink:title="Container for the contact pools of various type (household, work, ...). ">
<polygon fill="white" stroke="black" points="327.966,-168.5 327.966,-187.5 425.966,-187.5 425.966,-168.5 327.966,-168.5"/>
<text text-anchor="middle" x="376.966" y="-175.5" font-family="Helvetica,sans-Serif" font-size="10.00">IdSubscriptArray.h</text>
</a>
</g>
</g>
<!-- Node1&#45;&gt;Node14 -->
<g id="edge15" class="edge"><title>Node1&#45;&gt;Node14</title>
<path fill="none" stroke="midnightblue" d="M422.049,-224.083C414.186,-216.22 402.535,-204.569 393.047,-195.081"/>
<polygon fill="midnightblue" stroke="midnightblue" points="395.263,-192.347 385.717,-187.751 390.313,-197.297 395.263,-192.347"/>
</g>
<!-- Node18 -->
<g id="node18" class="node"><title>Node18</title>
<polygon fill="white" stroke="#bfbfbf" points="444.466,-168.5 444.466,-187.5 527.466,-187.5 527.466,-168.5 444.466,-168.5"/>
<text text-anchor="middle" x="485.966" y="-175.5" font-family="Helvetica,sans-Serif" font-size="10.00">spdlog/logger.h</text>
</g>
<!-- Node1&#45;&gt;Node18 -->
<g id="edge23" class="edge"><title>Node1&#45;&gt;Node18</title>
<path fill="none" stroke="midnightblue" d="M440.048,-224.083C448.137,-216.141 460.161,-204.335 469.876,-194.797"/>
<polygon fill="midnightblue" stroke="midnightblue" points="472.369,-197.254 477.053,-187.751 467.465,-192.26 472.369,-197.254"/>
</g>
<!-- Node19 -->
<g id="node19" class="node"><title>Node19</title>
<polygon fill="white" stroke="#bfbfbf" points="545.466,-168.5 545.466,-187.5 588.466,-187.5 588.466,-168.5 545.466,-168.5"/>
<text text-anchor="middle" x="566.966" y="-175.5" font-family="Helvetica,sans-Serif" font-size="10.00">queue</text>
</g>
<!-- Node1&#45;&gt;Node19 -->
<g id="edge24" class="edge"><title>Node1&#45;&gt;Node19</title>
<path fill="none" stroke="midnightblue" d="M452.516,-224.444C474.997,-215.517 510.454,-201.439 535.946,-191.317"/>
<polygon fill="midnightblue" stroke="midnightblue" points="537.515,-194.46 545.517,-187.516 534.931,-187.954 537.515,-194.46"/>
</g>
<!-- Node3 -->
<g id="node3" class="node"><title>Node3</title>
<g id="a_node3"><a xlink:href="../../d2/dc8/a00242.html" target="_top" xlink:title="Header for the ContactLogMode class. ">
<polygon fill="white" stroke="black" points="243.966,-56.5 243.966,-75.5 377.966,-75.5 377.966,-56.5 243.966,-56.5"/>
<text text-anchor="middle" x="310.966" y="-63.5" font-family="Helvetica,sans-Serif" font-size="10.00">contact/ContactLogMode.h</text>
</a>
</g>
</g>
<!-- Node2&#45;&gt;Node3 -->
<g id="edge2" class="edge"><title>Node2&#45;&gt;Node3</title>
<path fill="none" stroke="midnightblue" d="M202.406,-112.444C223.636,-103.557 257.065,-89.5632 281.221,-79.4514"/>
<polygon fill="midnightblue" stroke="midnightblue" points="282.748,-82.6064 290.621,-75.5164 280.045,-76.1493 282.748,-82.6064"/>
</g>
<!-- Node5 -->
<g id="node5" class="node"><title>Node5</title>
<g id="a_node5"><a xlink:href="../../de/dbc/a00249.html" target="_top" xlink:title="Definition of ContactPoolType. ">
<polygon fill="white" stroke="black" points="451.966,-56.5 451.966,-75.5 573.966,-75.5 573.966,-56.5 451.966,-56.5"/>
<text text-anchor="middle" x="512.966" y="-63.5" font-family="Helvetica,sans-Serif" font-size="10.00">pool/ContactPoolType.h</text>
</a>
</g>
</g>
<!-- Node2&#45;&gt;Node5 -->
<g id="edge4" class="edge"><title>Node2&#45;&gt;Node5</title>
<path fill="none" stroke="midnightblue" d="M221.503,-113.497C224.365,-112.982 227.209,-112.478 229.966,-112 303.954,-99.1836 389.074,-85.8371 446.479,-77.0408"/>
<polygon fill="midnightblue" stroke="midnightblue" points="447.155,-80.4783 456.511,-75.5067 446.097,-73.5587 447.155,-80.4783"/>
</g>
<!-- Node9 -->
<g id="node9" class="node"><title>Node9</title>
<polygon fill="white" stroke="#bfbfbf" points="135.966,-0.5 135.966,-19.5 179.966,-19.5 179.966,-0.5 135.966,-0.5"/>
<text text-anchor="middle" x="157.966" y="-7.5" font-family="Helvetica,sans-Serif" font-size="10.00">vector</text>
</g>
<!-- Node2&#45;&gt;Node9 -->
<g id="edge14" class="edge"><title>Node2&#45;&gt;Node9</title>
<path fill="none" stroke="midnightblue" d="M142.335,-116.422C95.962,-110.154 23.4014,-97.1962 6.96603,-76 -26.1535,-33.2866 72.3579,-18.1977 125.877,-13.237"/>
<polygon fill="midnightblue" stroke="midnightblue" points="126.265,-16.7167 135.929,-12.3747 125.666,-9.7423 126.265,-16.7167"/>
</g>
<!-- Node10 -->
<g id="node10" class="node"><title>Node10</title>
<polygon fill="white" stroke="#bfbfbf" points="395.966,-56.5 395.966,-75.5 433.966,-75.5 433.966,-56.5 395.966,-56.5"/>
<text text-anchor="middle" x="414.966" y="-63.5" font-family="Helvetica,sans-Serif" font-size="10.00">array</text>
</g>
<!-- Node2&#45;&gt;Node10 -->
<g id="edge10" class="edge"><title>Node2&#45;&gt;Node10</title>
<path fill="none" stroke="midnightblue" d="M221.535,-113.474C260.914,-105.727 323.241,-92.7776 385.731,-76.1405"/>
<polygon fill="midnightblue" stroke="midnightblue" points="387.013,-79.42 395.758,-73.4389 385.192,-72.661 387.013,-79.42"/>
</g>
<!-- Node11 -->
<g id="node11" class="node"><title>Node11</title>
<polygon fill="white" stroke="#bfbfbf" points="15.966,-56.5 15.966,-75.5 67.966,-75.5 67.966,-56.5 15.966,-56.5"/>
<text text-anchor="middle" x="41.966" y="-63.5" font-family="Helvetica,sans-Serif" font-size="10.00">memory</text>
</g>
<!-- Node2&#45;&gt;Node11 -->
<g id="edge11" class="edge"><title>Node2&#45;&gt;Node11</title>
<path fill="none" stroke="midnightblue" d="M159.783,-112.444C136.538,-103.478 99.8172,-89.314 73.5508,-79.1827"/>
<polygon fill="midnightblue" stroke="midnightblue" points="74.6353,-75.8497 64.0457,-75.5164 72.1161,-82.3807 74.6353,-75.8497"/>
</g>
<!-- Node12 -->
<g id="node12" class="node"><title>Node12</title>
<polygon fill="white" stroke="#bfbfbf" points="85.966,-56.5 85.966,-75.5 123.966,-75.5 123.966,-56.5 85.966,-56.5"/>
<text text-anchor="middle" x="104.966" y="-63.5" font-family="Helvetica,sans-Serif" font-size="10.00">tuple</text>
</g>
<!-- Node2&#45;&gt;Node12 -->
<g id="edge12" class="edge"><title>Node2&#45;&gt;Node12</title>
<path fill="none" stroke="midnightblue" d="M169.595,-112.324C157.808,-104.058 139.834,-91.4527 125.831,-81.6322"/>
<polygon fill="midnightblue" stroke="midnightblue" points="127.504,-78.5307 117.307,-75.6545 123.484,-84.2619 127.504,-78.5307"/>
</g>
<!-- Node13 -->
<g id="node13" class="node"><title>Node13</title>
<polygon fill="white" stroke="#bfbfbf" points="142.466,-56.5 142.466,-75.5 225.466,-75.5 225.466,-56.5 142.466,-56.5"/>
<text text-anchor="middle" x="183.966" y="-63.5" font-family="Helvetica,sans-Serif" font-size="10.00">unordered_map</text>
</g>
<!-- Node2&#45;&gt;Node13 -->
<g id="edge13" class="edge"><title>Node2&#45;&gt;Node13</title>
<path fill="none" stroke="midnightblue" d="M182.296,-112.083C182.558,-105.006 182.934,-94.8611 183.263,-85.9865"/>
<polygon fill="midnightblue" stroke="midnightblue" points="186.769,-85.8738 183.642,-75.7511 179.774,-85.6147 186.769,-85.8738"/>
</g>
<!-- Node4 -->
<g id="node4" class="node"><title>Node4</title>
<polygon fill="white" stroke="#bfbfbf" points="329.466,-0.5 329.466,-19.5 370.466,-19.5 370.466,-0.5 329.466,-0.5"/>
<text text-anchor="middle" x="349.966" y="-7.5" font-family="Helvetica,sans-Serif" font-size="10.00">string</text>
</g>
<!-- Node3&#45;&gt;Node4 -->
<g id="edge3" class="edge"><title>Node3&#45;&gt;Node4</title>
<path fill="none" stroke="midnightblue" d="M317.406,-56.083C322.915,-48.4554 330.997,-37.2645 337.731,-27.9408"/>
<polygon fill="midnightblue" stroke="midnightblue" points="340.628,-29.9071 343.646,-19.7511 334.953,-25.8087 340.628,-29.9071"/>
</g>
<!-- Node5&#45;&gt;Node4 -->
<g id="edge6" class="edge"><title>Node5&#45;&gt;Node4</title>
<path fill="none" stroke="midnightblue" d="M487.138,-56.4435C458.104,-46.8247 411.012,-31.2238 380.264,-21.0372"/>
<polygon fill="midnightblue" stroke="midnightblue" points="381.105,-17.6291 370.512,-17.8067 378.904,-24.2739 381.105,-17.6291"/>
</g>
<!-- Node6 -->
<g id="node6" class="node"><title>Node6</title>
<polygon fill="white" stroke="#bfbfbf" points="493.466,-0.5 493.466,-19.5 542.466,-19.5 542.466,-0.5 493.466,-0.5"/>
<text text-anchor="middle" x="517.966" y="-7.5" font-family="Helvetica,sans-Serif" font-size="10.00">cstddef</text>
</g>
<!-- Node5&#45;&gt;Node6 -->
<g id="edge5" class="edge"><title>Node5&#45;&gt;Node6</title>
<path fill="none" stroke="midnightblue" d="M513.792,-56.083C514.447,-49.0059 515.386,-38.8611 516.208,-29.9865"/>
<polygon fill="midnightblue" stroke="midnightblue" points="519.719,-30.0312 517.156,-19.7511 512.749,-29.3858 519.719,-30.0312"/>
</g>
<!-- Node7 -->
<g id="node7" class="node"><title>Node7</title>
<polygon fill="white" stroke="#bfbfbf" points="569.966,-0.5 569.966,-19.5 623.966,-19.5 623.966,-0.5 569.966,-0.5"/>
<text text-anchor="middle" x="596.966" y="-7.5" font-family="Helvetica,sans-Serif" font-size="10.00">iostream</text>
</g>
<!-- Node5&#45;&gt;Node7 -->
<g id="edge7" class="edge"><title>Node5&#45;&gt;Node7</title>
<path fill="none" stroke="midnightblue" d="M526.462,-56.324C539.566,-47.9002 559.678,-34.9709 575.073,-25.0741"/>
<polygon fill="midnightblue" stroke="midnightblue" points="576.984,-28.0063 583.503,-19.6545 573.199,-22.118 576.984,-28.0063"/>
</g>
<!-- Node8 -->
<g id="node8" class="node"><title>Node8</title>
<polygon fill="white" stroke="#bfbfbf" points="428.466,-0.5 428.466,-19.5 475.466,-19.5 475.466,-0.5 428.466,-0.5"/>
<text text-anchor="middle" x="451.966" y="-7.5" font-family="Helvetica,sans-Serif" font-size="10.00">iterator</text>
</g>
<!-- Node5&#45;&gt;Node8 -->
<g id="edge8" class="edge"><title>Node5&#45;&gt;Node8</title>
<path fill="none" stroke="midnightblue" d="M503.165,-56.324C494.148,-48.3414 480.56,-36.3128 469.648,-26.6529"/>
<polygon fill="midnightblue" stroke="midnightblue" points="471.753,-23.8416 461.945,-19.8339 467.113,-29.083 471.753,-23.8416"/>
</g>
<!-- Node5&#45;&gt;Node9 -->
<g id="edge9" class="edge"><title>Node5&#45;&gt;Node9</title>
<path fill="none" stroke="midnightblue" d="M456.715,-56.4435C381.466,-44.9972 250.525,-25.0795 190.149,-15.8954"/>
<polygon fill="midnightblue" stroke="midnightblue" points="190.477,-12.4051 180.064,-14.3614 189.424,-19.3255 190.477,-12.4051"/>
</g>
<!-- Node14&#45;&gt;Node2 -->
<g id="edge16" class="edge"><title>Node14&#45;&gt;Node2</title>
<path fill="none" stroke="midnightblue" d="M346.068,-168.444C312.692,-159.201 259.372,-144.436 222.617,-134.257"/>
<polygon fill="midnightblue" stroke="midnightblue" points="223.291,-130.812 212.72,-131.516 221.423,-137.558 223.291,-130.812"/>
</g>
<!-- Node14&#45;&gt;Node5 -->
<g id="edge17" class="edge"><title>Node14&#45;&gt;Node5</title>
<path fill="none" stroke="midnightblue" d="M405.167,-168.403C425.464,-161.155 452.573,-149.189 471.966,-132 486.75,-118.897 498.147,-99.2074 505.131,-84.9334"/>
<polygon fill="midnightblue" stroke="midnightblue" points="508.395,-86.2136 509.421,-75.6685 502.043,-83.2723 508.395,-86.2136"/>
</g>
<!-- Node14&#45;&gt;Node7 -->
<g id="edge21" class="edge"><title>Node14&#45;&gt;Node7</title>
<path fill="none" stroke="midnightblue" d="M421.388,-168.413C469.691,-156.556 545.053,-130.17 582.966,-76 592.378,-62.553 595.653,-43.9915 596.706,-30.1452"/>
<polygon fill="midnightblue" stroke="midnightblue" points="600.216,-29.9814 597.153,-19.8391 593.223,-29.678 600.216,-29.9814"/>
</g>
<!-- Node14&#45;&gt;Node10 -->
<g id="edge18" class="edge"><title>Node14&#45;&gt;Node10</title>
<path fill="none" stroke="midnightblue" d="M407.213,-168.488C425.091,-161.726 446.266,-150.295 456.966,-132 467.153,-114.582 450.932,-95.2292 435.782,-82.207"/>
<polygon fill="midnightblue" stroke="midnightblue" points="437.638,-79.2091 427.65,-75.6762 433.255,-84.6669 437.638,-79.2091"/>
</g>
<!-- Node15 -->
<g id="node15" class="node"><title>Node15</title>
<polygon fill="white" stroke="#bfbfbf" points="239.466,-112.5 239.466,-131.5 280.466,-131.5 280.466,-112.5 239.466,-112.5"/>
<text text-anchor="middle" x="259.966" y="-119.5" font-family="Helvetica,sans-Serif" font-size="10.00">bitset</text>
</g>
<!-- Node14&#45;&gt;Node15 -->
<g id="edge19" class="edge"><title>Node14&#45;&gt;Node15</title>
<path fill="none" stroke="midnightblue" d="M358.427,-168.444C339.343,-159.636 309.391,-145.812 287.53,-135.722"/>
<polygon fill="midnightblue" stroke="midnightblue" points="288.965,-132.529 278.418,-131.516 286.031,-138.885 288.965,-132.529"/>
</g>
<!-- Node16 -->
<g id="node16" class="node"><title>Node16</title>
<polygon fill="white" stroke="#bfbfbf" points="298.466,-112.5 298.466,-131.5 371.466,-131.5 371.466,-112.5 298.466,-112.5"/>
<text text-anchor="middle" x="334.966" y="-119.5" font-family="Helvetica,sans-Serif" font-size="10.00">initializer_list</text>
</g>
<!-- Node14&#45;&gt;Node16 -->
<g id="edge20" class="edge"><title>Node14&#45;&gt;Node16</title>
<path fill="none" stroke="midnightblue" d="M370.031,-168.083C364.037,-160.377 355.214,-149.033 347.918,-139.653"/>
<polygon fill="midnightblue" stroke="midnightblue" points="350.675,-137.496 341.772,-131.751 345.149,-141.793 350.675,-137.496"/>
</g>
<!-- Node17 -->
<g id="node17" class="node"><title>Node17</title>
<polygon fill="white" stroke="#bfbfbf" points="389.466,-112.5 389.466,-131.5 448.466,-131.5 448.466,-112.5 389.466,-112.5"/>
<text text-anchor="middle" x="418.966" y="-119.5" font-family="Helvetica,sans-Serif" font-size="10.00">stdexcept</text>
</g>
<!-- Node14&#45;&gt;Node17 -->
<g id="edge22" class="edge"><title>Node14&#45;&gt;Node17</title>
<path fill="none" stroke="midnightblue" d="M383.901,-168.083C389.895,-160.377 398.718,-149.033 406.014,-139.653"/>
<polygon fill="midnightblue" stroke="midnightblue" points="408.783,-141.793 412.16,-131.751 403.257,-137.496 408.783,-141.793"/>
</g>
</g>
</svg>
        <g id="navigator" transform="translate(0 0)" fill="#404254">
                <rect fill="#f2f5e9" fill-opacity="0.5" stroke="#606060" stroke-width=".5" x="0" y="0" width="60" height="60"/>
                <use id="zoomplus" xlink:href="#zoomPlus" x="17" y="9" onmousedown="handleZoom(evt,'in')"/>
                <use id="zoomminus" xlink:href="#zoomMin" x="42" y="9" onmousedown="handleZoom(evt,'out')"/>
                <use id="reset" xlink:href="#resetDef" x="30" y="36" onmousedown="handleReset()"/>
                <g id="arrowUp" xlink:href="#dirArrow" transform="translate(30 24)" onmousedown="handlePan(0,-1)">
                  <use xlink:href="#rim" fill="#404040">
                        <set attributeName="fill" to="#808080" begin="arrowUp.mouseover" end="arrowUp.mouseout"/>
                  </use>
                  <path fill="none" stroke="white" stroke-width="1.5" d="M0,-3.0v7 M-2.5,-0.5L0,-3.0L2.5,-0.5"/>
                </g>
                <g id="arrowRight" xlink:href="#dirArrow" transform="rotate(90) translate(36 -43)" onmousedown="handlePan(1,0)">
                  <use xlink:href="#rim" fill="#404040">
                        <set attributeName="fill" to="#808080" begin="arrowRight.mouseover" end="arrowRight.mouseout"/>
                  </use>
                  <path fill="none" stroke="white" stroke-width="1.5" d="M0,-3.0v7 M-2.5,-0.5L0,-3.0L2.5,-0.5"/>
                </g>
                <g id="arrowDown" xlink:href="#dirArrow" transform="rotate(180) translate(-30 -48)" onmousedown="handlePan(0,1)">
                  <use xlink:href="#rim" fill="#404040">
                        <set attributeName="fill" to="#808080" begin="arrowDown.mouseover" end="arrowDown.mouseout"/>
                  </use>
                  <path fill="none" stroke="white" stroke-width="1.5" d="M0,-3.0v7 M-2.5,-0.5L0,-3.0L2.5,-0.5"/>
                </g>
                <g id="arrowLeft" xlink:href="#dirArrow" transform="rotate(270) translate(-36 17)" onmousedown="handlePan(-1,0)">
                  <use xlink:href="#rim" fill="#404040">
                        <set attributeName="fill" to="#808080" begin="arrowLeft.mouseover" end="arrowLeft.mouseout"/>
                  </use>
                  <path fill="none" stroke="white" stroke-width="1.5" d="M0,-3.0v7 M-2.5,-0.5L0,-3.0L2.5,-0.5"/>
                </g>
        </g>
        <svg viewBox="0 0 15 15" width="100%" height="30px" preserveAspectRatio="xMaxYMin meet">
         <g id="arrow_out" transform="scale(0.3 0.3)">
          <a xlink:href="a00864_org.svg" target="_base">
           <rect id="button" ry="5" rx="5" y="6" x="6" height="38" width="38"
                fill="#f2f5e9" fill-opacity="0.5" stroke="#606060" stroke-width="1.0"/>
           <path id="arrow"
             d="M 11.500037,31.436501 C 11.940474,20.09759 22.043105,11.32322 32.158766,21.979434 L 37.068811,17.246167 C 37.068811,17.246167 37.088388,32 37.088388,32 L 22.160133,31.978069 C 22.160133,31.978069 26.997745,27.140456 26.997745,27.140456 C 18.528582,18.264221 13.291696,25.230495 11.500037,31.436501 z"
             style="fill:#404040;"/>
          </a>
         </g>
        </svg>
</svg>
