<?xml version="1.0" encoding="UTF-8" standalone="no"?>
<!DOCTYPE svg PUBLIC "-//W3C//DTD SVG 1.1//EN"
 "http://www.w3.org/Graphics/SVG/1.1/DTD/svg11.dtd">
<!-- Generated by graphviz version 2.36.0 (20140111.2315)
 -->
<!-- Title: stride::SimBuilder Pages: 1 -->
<svg width="134pt" height="206pt"
 viewBox="0.00 0.00 134.00 206.00" xmlns="http://www.w3.org/2000/svg" xmlns:xlink="http://www.w3.org/1999/xlink">
<g id="graph0" class="graph" transform="scale(1 1) rotate(0) translate(4 202)">
<title>stride::SimBuilder</title>
<polygon fill="white" stroke="none" points="-4,4 -4,-202 130,-202 130,4 -4,4"/>
<!-- Node1 -->
<g id="node1" class="node"><title>Node1</title>
<polygon fill="#bfbfbf" stroke="black" points="-0.5,-1 -0.5,-91 126.5,-91 126.5,-1 -0.5,-1"/>
<text text-anchor="middle" x="63" y="-79" font-family="Helvetica,sans-Serif" font-size="10.00">stride::SimBuilder</text>
<polyline fill="none" stroke="black" points="-0.5,-72 126.5,-72 "/>
<text text-anchor="middle" x="63" y="-60" font-family="Helvetica,sans-Serif" font-size="10.00"> </text>
<polyline fill="none" stroke="black" points="-0.5,-53 126.5,-53 "/>
<text text-anchor="start" x="7.5" y="-41" font-family="Helvetica,sans-Serif" font-size="10.00">+ SimBuilder()</text>
<text text-anchor="start" x="7.5" y="-30" font-family="Helvetica,sans-Serif" font-size="10.00">+ Build()</text>
<text text-anchor="start" x="7.5" y="-19" font-family="Helvetica,sans-Serif" font-size="10.00">&#45; ReadAgeContactPtree()</text>
<text text-anchor="start" x="7.5" y="-8" font-family="Helvetica,sans-Serif" font-size="10.00">&#45; ReadDiseasePtree()</text>
</g>
<!-- Node2 -->
<g id="node2" class="node"><title>Node2</title>
<polygon fill="white" stroke="#bfbfbf" points="44,-140.5 44,-197.5 82,-197.5 82,-140.5 44,-140.5"/>
<text text-anchor="middle" x="63" y="-185.5" font-family="Helvetica,sans-Serif" font-size="10.00">ptree</text>
<polyline fill="none" stroke="#bfbfbf" points="44,-178.5 82,-178.5 "/>
<text text-anchor="middle" x="63" y="-166.5" font-family="Helvetica,sans-Serif" font-size="10.00"> </text>
<polyline fill="none" stroke="#bfbfbf" points="44,-159.5 82,-159.5 "/>
<text text-anchor="middle" x="63" y="-147.5" font-family="Helvetica,sans-Serif" font-size="10.00"> </text>
</g>
<!-- Node2&#45;&gt;Node1 -->
<g id="edge1" class="edge"><title>Node2&#45;&gt;Node1</title>
<path fill="none" stroke="#404040" d="M63,-140.24C63,-129.242 63,-116.179 63,-103.364"/>
<polygon fill="none" stroke="#404040" points="63.0001,-103.23 59,-97.2296 63,-91.2295 67,-97.2295 63.0001,-103.23"/>
<text text-anchor="middle" x="93" y="-113.5" font-family="Helvetica,sans-Serif" font-size="10.00"> &#45;m_config_pt</text>
</g>
</g>
</svg>
