<?xml version="1.0" encoding="UTF-8" standalone="no"?>
<!DOCTYPE svg PUBLIC "-//W3C//DTD SVG 1.1//EN"
 "http://www.w3.org/Graphics/SVG/1.1/DTD/svg11.dtd">
<!-- Generated by graphviz version 2.36.0 (20140111.2315)
 -->
<!-- Title: stride::util::TimeStamp::ToTag Pages: 1 -->
<svg width="428pt" height="38pt"
 viewBox="0.00 0.00 428.00 38.00" xmlns="http://www.w3.org/2000/svg" xmlns:xlink="http://www.w3.org/1999/xlink">
<g id="graph0" class="graph" transform="scale(1 1) rotate(0) translate(4 34)">
<title>stride::util::TimeStamp::ToTag</title>
<polygon fill="white" stroke="none" points="-4,4 -4,-34 424,-34 424,4 -4,4"/>
<!-- Node1 -->
<g id="node1" class="node"><title>Node1</title>
<polygon fill="#bfbfbf" stroke="black" points="0,-0 0,-30 116,-30 116,-0 0,-0"/>
<text text-anchor="start" x="8" y="-18" font-family="Helvetica,sans-Serif" font-size="10.00">stride::util::TimeStamp</text>
<text text-anchor="middle" x="58" y="-7" font-family="Helvetica,sans-Serif" font-size="10.00">::ToTag</text>
</g>
<!-- Node2 -->
<g id="node2" class="node"><title>Node2</title>
<g id="a_node2"><a xlink:href="../../d9/da4/a00078.html#a69589d1327149e595d3242dab0805035" target="_top" xlink:title="Launcher::Launch">
<polygon fill="white" stroke="black" points="152,-5.5 152,-24.5 246,-24.5 246,-5.5 152,-5.5"/>
<text text-anchor="middle" x="199" y="-12.5" font-family="Helvetica,sans-Serif" font-size="10.00">Launcher::Launch</text>
</a>
</g>
</g>
<!-- Node1&#45;&gt;Node2 -->
<g id="edge1" class="edge"><title>Node1&#45;&gt;Node2</title>
<path fill="none" stroke="midnightblue" d="M126.392,-15C134.999,-15 143.65,-15 151.815,-15"/>
<polygon fill="midnightblue" stroke="midnightblue" points="126.339,-11.5001 116.339,-15 126.339,-18.5001 126.339,-11.5001"/>
</g>
<!-- Node3 -->
<g id="node3" class="node"><title>Node3</title>
<g id="a_node3"><a xlink:href="../../d6/de1/a00356.html#ae0509bb7817eee297e8f3c9dbd675b00" target="_top" xlink:title="LaunchGui">
<polygon fill="white" stroke="black" points="282.5,-5.5 282.5,-24.5 345.5,-24.5 345.5,-5.5 282.5,-5.5"/>
<text text-anchor="middle" x="314" y="-12.5" font-family="Helvetica,sans-Serif" font-size="10.00">LaunchGui</text>
</a>
</g>
</g>
<!-- Node2&#45;&gt;Node3 -->
<g id="edge2" class="edge"><title>Node2&#45;&gt;Node3</title>
<path fill="none" stroke="midnightblue" d="M256.386,-15C265.374,-15 274.367,-15 282.453,-15"/>
<polygon fill="midnightblue" stroke="midnightblue" points="256.288,-11.5001 246.287,-15 256.287,-18.5001 256.288,-11.5001"/>
</g>
<!-- Node4 -->
<g id="node4" class="node"><title>Node4</title>
<g id="a_node4"><a xlink:href="../../d6/de1/a00356.html#a81ce304348a420752ee080480d2b3095" target="_top" xlink:title="main">
<polygon fill="white" stroke="black" points="382,-5.5 382,-24.5 420,-24.5 420,-5.5 382,-5.5"/>
<text text-anchor="middle" x="401" y="-12.5" font-family="Helvetica,sans-Serif" font-size="10.00">main</text>
</a>
</g>
</g>
<!-- Node3&#45;&gt;Node4 -->
<g id="edge3" class="edge"><title>Node3&#45;&gt;Node4</title>
<path fill="none" stroke="midnightblue" d="M355.897,-15C365.059,-15 374.319,-15 381.974,-15"/>
<polygon fill="midnightblue" stroke="midnightblue" points="355.687,-11.5001 345.687,-15 355.687,-18.5001 355.687,-11.5001"/>
</g>
</g>
</svg>
