<?xml version="1.0" encoding="UTF-8" standalone="no"?>
<!DOCTYPE svg PUBLIC "-//W3C//DTD SVG 1.1//EN"
 "http://www.w3.org/Graphics/SVG/1.1/DTD/svg11.dtd">
<!-- Generated by graphviz version 2.36.0 (20140111.2315)
 -->
<!-- Title: Immunizer.cpp Pages: 1 -->
<svg width="2084pt" height="376pt"
 viewBox="0.00 0.00 2084.00 376.00" xmlns="http://www.w3.org/2000/svg" xmlns:xlink="http://www.w3.org/1999/xlink">
<g id="graph0" class="graph" transform="scale(1 1) rotate(0) translate(4 372)">
<title>Immunizer.cpp</title>
<polygon fill="white" stroke="none" points="-4,4 -4,-372 2080,-372 2080,4 -4,4"/>
<!-- Node1 -->
<g id="node1" class="node"><title>Node1</title>
<polygon fill="#bfbfbf" stroke="black" points="1095.5,-348.5 1095.5,-367.5 1176.5,-367.5 1176.5,-348.5 1095.5,-348.5"/>
<text text-anchor="middle" x="1136" y="-355.5" font-family="Helvetica,sans-Serif" font-size="10.00">Immunizer.cpp</text>
</g>
<!-- Node2 -->
<g id="node2" class="node"><title>Node2</title>
<g id="a_node2"><a xlink:href="../../db/d53/a00321.html" target="_top" xlink:title="Header for the Immunizer class. ">
<polygon fill="white" stroke="black" points="413.5,-168.5 413.5,-187.5 484.5,-187.5 484.5,-168.5 413.5,-168.5"/>
<text text-anchor="middle" x="449" y="-175.5" font-family="Helvetica,sans-Serif" font-size="10.00">Immunizer.h</text>
</a>
</g>
</g>
<!-- Node1&#45;&gt;Node2 -->
<g id="edge1" class="edge"><title>Node1&#45;&gt;Node2</title>
<path fill="none" stroke="midnightblue" d="M1095.37,-355.735C999.673,-351.509 754.054,-333.344 567,-256 528.683,-240.157 489.376,-211.537 467.188,-194.006"/>
<polygon fill="midnightblue" stroke="midnightblue" points="469.287,-191.202 459.299,-187.666 464.902,-196.659 469.287,-191.202"/>
</g>
<!-- Node23 -->
<g id="node23" class="node"><title>Node23</title>
<g id="a_node23"><a xlink:href="../../d6/d80/a00371.html" target="_top" xlink:title="Header file for the Person class. ">
<polygon fill="white" stroke="black" points="844,-292.5 844,-311.5 918,-311.5 918,-292.5 844,-292.5"/>
<text text-anchor="middle" x="881" y="-299.5" font-family="Helvetica,sans-Serif" font-size="10.00">pop/Person.h</text>
</a>
</g>
</g>
<!-- Node1&#45;&gt;Node23 -->
<g id="edge32" class="edge"><title>Node1&#45;&gt;Node23</title>
<path fill="none" stroke="midnightblue" d="M1095.59,-348.444C1050.1,-338.809 976.264,-323.174 928.166,-312.988"/>
<polygon fill="midnightblue" stroke="midnightblue" points="928.821,-309.549 918.313,-310.902 927.371,-316.397 928.821,-309.549"/>
</g>
<!-- Node33 -->
<g id="node33" class="node"><title>Node33</title>
<g id="a_node33"><a xlink:href="../../d9/d0a/a00390.html" target="_top" xlink:title="Interface of RNManager. ">
<polygon fill="white" stroke="black" points="1434.5,-112.5 1434.5,-131.5 1527.5,-131.5 1527.5,-112.5 1434.5,-112.5"/>
<text text-anchor="middle" x="1481" y="-119.5" font-family="Helvetica,sans-Serif" font-size="10.00">util/RNManager.h</text>
</a>
</g>
</g>
<!-- Node1&#45;&gt;Node33 -->
<g id="edge65" class="edge"><title>Node1&#45;&gt;Node33</title>
<path fill="none" stroke="midnightblue" d="M1136.4,-348.432C1137.45,-334.976 1141.26,-308.705 1155,-292 1229.31,-201.675 1364.56,-154.013 1435.23,-134.258"/>
<polygon fill="midnightblue" stroke="midnightblue" points="1436.44,-137.554 1445.17,-131.544 1434.6,-130.801 1436.44,-137.554"/>
</g>
<!-- Node43 -->
<g id="node43" class="node"><title>Node43</title>
<polygon fill="white" stroke="#bfbfbf" points="1164.5,-292.5 1164.5,-311.5 1283.5,-311.5 1283.5,-292.5 1164.5,-292.5"/>
<text text-anchor="middle" x="1224" y="-299.5" font-family="Helvetica,sans-Serif" font-size="10.00">trng/uniform01_dist.hpp</text>
</g>
<!-- Node1&#45;&gt;Node43 -->
<g id="edge66" class="edge"><title>Node1&#45;&gt;Node43</title>
<path fill="none" stroke="midnightblue" d="M1150.14,-348.324C1163.87,-339.9 1184.94,-326.971 1201.06,-317.074"/>
<polygon fill="midnightblue" stroke="midnightblue" points="1203.2,-319.868 1209.9,-311.655 1199.54,-313.902 1203.2,-319.868"/>
</g>
<!-- Node44 -->
<g id="node44" class="node"><title>Node44</title>
<polygon fill="white" stroke="#bfbfbf" points="1302,-292.5 1302,-311.5 1426,-311.5 1426,-292.5 1302,-292.5"/>
<text text-anchor="middle" x="1364" y="-299.5" font-family="Helvetica,sans-Serif" font-size="10.00">trng/uniform_int_dist.hpp</text>
</g>
<!-- Node1&#45;&gt;Node44 -->
<g id="edge67" class="edge"><title>Node1&#45;&gt;Node44</title>
<path fill="none" stroke="midnightblue" d="M1172.13,-348.444C1211.65,-339.083 1275.1,-324.056 1318.11,-313.868"/>
<polygon fill="midnightblue" stroke="midnightblue" points="1319.12,-317.227 1328.04,-311.516 1317.5,-310.415 1319.12,-317.227"/>
</g>
<!-- Node3 -->
<g id="node3" class="node"><title>Node3</title>
<g id="a_node3"><a xlink:href="../../d6/d08/a00244.html" target="_top" xlink:title="Header for the core ContactPool class. ">
<polygon fill="white" stroke="black" points="930,-112.5 930,-131.5 1030,-131.5 1030,-112.5 930,-112.5"/>
<text text-anchor="middle" x="980" y="-119.5" font-family="Helvetica,sans-Serif" font-size="10.00">pool/ContactPool.h</text>
</a>
</g>
</g>
<!-- Node2&#45;&gt;Node3 -->
<g id="edge2" class="edge"><title>Node2&#45;&gt;Node3</title>
<path fill="none" stroke="midnightblue" d="M484.721,-170.19C489.511,-169.389 494.368,-168.632 499,-168 649.832,-147.407 828.575,-133.394 919.83,-126.983"/>
<polygon fill="midnightblue" stroke="midnightblue" points="920.252,-130.462 929.984,-126.275 919.765,-123.479 920.252,-130.462"/>
</g>
<!-- Node10 -->
<g id="node10" class="node"><title>Node10</title>
<polygon fill="white" stroke="#bfbfbf" points="750,-0.5 750,-19.5 794,-19.5 794,-0.5 750,-0.5"/>
<text text-anchor="middle" x="772" y="-7.5" font-family="Helvetica,sans-Serif" font-size="10.00">vector</text>
</g>
<!-- Node2&#45;&gt;Node10 -->
<g id="edge31" class="edge"><title>Node2&#45;&gt;Node10</title>
<path fill="none" stroke="midnightblue" d="M445.966,-168.306C438.899,-146.306 424.047,-87.9107 453,-56 494.414,-10.3551 667.214,-30.182 728,-20 731.758,-19.3704 735.686,-18.6532 739.58,-17.9048"/>
<polygon fill="midnightblue" stroke="midnightblue" points="740.553,-21.2797 749.674,-15.8893 739.182,-14.4152 740.553,-21.2797"/>
</g>
<!-- Node15 -->
<g id="node15" class="node"><title>Node15</title>
<g id="a_node15"><a xlink:href="../../d7/d93/a00397.html" target="_top" xlink:title="Interface and implementation for SegmentedVector class. ">
<polygon fill="white" stroke="black" points="220.5,-112.5 220.5,-131.5 339.5,-131.5 339.5,-112.5 220.5,-112.5"/>
<text text-anchor="middle" x="280" y="-119.5" font-family="Helvetica,sans-Serif" font-size="10.00">util/SegmentedVector.h</text>
</a>
</g>
</g>
<!-- Node2&#45;&gt;Node15 -->
<g id="edge16" class="edge"><title>Node2&#45;&gt;Node15</title>
<path fill="none" stroke="midnightblue" d="M422.221,-168.444C393.667,-159.32 348.267,-144.813 316.463,-134.651"/>
<polygon fill="midnightblue" stroke="midnightblue" points="317.244,-131.226 306.653,-131.516 315.114,-137.894 317.244,-131.226"/>
</g>
<!-- Node4 -->
<g id="node4" class="node"><title>Node4</title>
<g id="a_node4"><a xlink:href="../../d2/dc8/a00242.html" target="_top" xlink:title="Header for the ContactLogMode class. ">
<polygon fill="white" stroke="black" points="812,-56.5 812,-75.5 946,-75.5 946,-56.5 812,-56.5"/>
<text text-anchor="middle" x="879" y="-63.5" font-family="Helvetica,sans-Serif" font-size="10.00">contact/ContactLogMode.h</text>
</a>
</g>
</g>
<!-- Node3&#45;&gt;Node4 -->
<g id="edge3" class="edge"><title>Node3&#45;&gt;Node4</title>
<path fill="none" stroke="midnightblue" d="M963.773,-112.324C947.649,-103.703 922.7,-90.3643 904.036,-80.3855"/>
<polygon fill="midnightblue" stroke="midnightblue" points="905.656,-77.283 895.187,-75.6545 902.356,-83.456 905.656,-77.283"/>
</g>
<!-- Node6 -->
<g id="node6" class="node"><title>Node6</title>
<g id="a_node6"><a xlink:href="../../de/dbc/a00249.html" target="_top" xlink:title="Definition of ContactPoolType. ">
<polygon fill="white" stroke="black" points="634,-56.5 634,-75.5 756,-75.5 756,-56.5 634,-56.5"/>
<text text-anchor="middle" x="695" y="-63.5" font-family="Helvetica,sans-Serif" font-size="10.00">pool/ContactPoolType.h</text>
</a>
</g>
</g>
<!-- Node3&#45;&gt;Node6 -->
<g id="edge5" class="edge"><title>Node3&#45;&gt;Node6</title>
<path fill="none" stroke="midnightblue" d="M934.841,-112.444C884.706,-102.944 803.78,-87.611 749.994,-77.4198"/>
<polygon fill="midnightblue" stroke="midnightblue" points="750.425,-73.9393 739.948,-75.5164 749.121,-80.8169 750.425,-73.9393"/>
</g>
<!-- Node3&#45;&gt;Node10 -->
<g id="edge15" class="edge"><title>Node3&#45;&gt;Node10</title>
<path fill="none" stroke="midnightblue" d="M929.693,-113.101C884.451,-105.14 822.238,-91.7928 803,-76 788.677,-64.242 780.548,-44.3102 776.241,-29.6109"/>
<polygon fill="midnightblue" stroke="midnightblue" points="779.548,-28.4167 773.654,-19.6124 772.771,-30.1703 779.548,-28.4167"/>
</g>
<!-- Node11 -->
<g id="node11" class="node"><title>Node11</title>
<polygon fill="white" stroke="#bfbfbf" points="540,-56.5 540,-75.5 578,-75.5 578,-56.5 540,-56.5"/>
<text text-anchor="middle" x="559" y="-63.5" font-family="Helvetica,sans-Serif" font-size="10.00">array</text>
</g>
<!-- Node3&#45;&gt;Node11 -->
<g id="edge11" class="edge"><title>Node3&#45;&gt;Node11</title>
<path fill="none" stroke="midnightblue" d="M929.716,-114.778C860.908,-106.228 733.56,-90.2821 625,-76 612.886,-74.4063 599.529,-72.595 588.019,-71.0173"/>
<polygon fill="midnightblue" stroke="midnightblue" points="588.439,-67.5423 578.056,-69.6469 587.485,-74.477 588.439,-67.5423"/>
</g>
<!-- Node12 -->
<g id="node12" class="node"><title>Node12</title>
<polygon fill="white" stroke="#bfbfbf" points="964,-56.5 964,-75.5 1016,-75.5 1016,-56.5 964,-56.5"/>
<text text-anchor="middle" x="990" y="-63.5" font-family="Helvetica,sans-Serif" font-size="10.00">memory</text>
</g>
<!-- Node3&#45;&gt;Node12 -->
<g id="edge12" class="edge"><title>Node3&#45;&gt;Node12</title>
<path fill="none" stroke="midnightblue" d="M981.651,-112.083C982.976,-104.927 984.882,-94.6353 986.539,-85.6911"/>
<polygon fill="midnightblue" stroke="midnightblue" points="990,-86.2212 988.379,-75.7511 983.117,-84.9466 990,-86.2212"/>
</g>
<!-- Node13 -->
<g id="node13" class="node"><title>Node13</title>
<polygon fill="white" stroke="#bfbfbf" points="1034,-56.5 1034,-75.5 1072,-75.5 1072,-56.5 1034,-56.5"/>
<text text-anchor="middle" x="1053" y="-63.5" font-family="Helvetica,sans-Serif" font-size="10.00">tuple</text>
</g>
<!-- Node3&#45;&gt;Node13 -->
<g id="edge13" class="edge"><title>Node3&#45;&gt;Node13</title>
<path fill="none" stroke="midnightblue" d="M991.729,-112.324C1002.84,-104.107 1019.74,-91.6017 1032.98,-81.8069"/>
<polygon fill="midnightblue" stroke="midnightblue" points="1035.1,-84.5948 1041.06,-75.8339 1030.94,-78.9671 1035.1,-84.5948"/>
</g>
<!-- Node14 -->
<g id="node14" class="node"><title>Node14</title>
<polygon fill="white" stroke="#bfbfbf" points="1090.5,-56.5 1090.5,-75.5 1173.5,-75.5 1173.5,-56.5 1090.5,-56.5"/>
<text text-anchor="middle" x="1132" y="-63.5" font-family="Helvetica,sans-Serif" font-size="10.00">unordered_map</text>
</g>
<!-- Node3&#45;&gt;Node14 -->
<g id="edge14" class="edge"><title>Node3&#45;&gt;Node14</title>
<path fill="none" stroke="midnightblue" d="M1004.08,-112.444C1029.54,-103.399 1069.89,-89.064 1098.46,-78.9158"/>
<polygon fill="midnightblue" stroke="midnightblue" points="1099.78,-82.1622 1108.03,-75.5164 1097.43,-75.5661 1099.78,-82.1622"/>
</g>
<!-- Node5 -->
<g id="node5" class="node"><title>Node5</title>
<polygon fill="white" stroke="#bfbfbf" points="1096.5,-0.5 1096.5,-19.5 1137.5,-19.5 1137.5,-0.5 1096.5,-0.5"/>
<text text-anchor="middle" x="1117" y="-7.5" font-family="Helvetica,sans-Serif" font-size="10.00">string</text>
</g>
<!-- Node4&#45;&gt;Node5 -->
<g id="edge4" class="edge"><title>Node4&#45;&gt;Node5</title>
<path fill="none" stroke="midnightblue" d="M916.712,-56.4435C963.694,-45.7836 1043.06,-27.7765 1086.44,-17.9343"/>
<polygon fill="midnightblue" stroke="midnightblue" points="1087.42,-21.3009 1096.4,-15.6749 1085.87,-14.4744 1087.42,-21.3009"/>
</g>
<!-- Node6&#45;&gt;Node5 -->
<g id="edge7" class="edge"><title>Node6&#45;&gt;Node5</title>
<path fill="none" stroke="midnightblue" d="M756.362,-57.1479C847.931,-45.4307 1016.96,-23.8009 1086.2,-14.941"/>
<polygon fill="midnightblue" stroke="midnightblue" points="1086.95,-18.3733 1096.43,-13.6322 1086.07,-11.4299 1086.95,-18.3733"/>
</g>
<!-- Node7 -->
<g id="node7" class="node"><title>Node7</title>
<polygon fill="white" stroke="#bfbfbf" points="670.5,-0.5 670.5,-19.5 719.5,-19.5 719.5,-0.5 670.5,-0.5"/>
<text text-anchor="middle" x="695" y="-7.5" font-family="Helvetica,sans-Serif" font-size="10.00">cstddef</text>
</g>
<!-- Node6&#45;&gt;Node7 -->
<g id="edge6" class="edge"><title>Node6&#45;&gt;Node7</title>
<path fill="none" stroke="midnightblue" d="M695,-56.083C695,-49.0059 695,-38.8611 695,-29.9865"/>
<polygon fill="midnightblue" stroke="midnightblue" points="698.5,-29.751 695,-19.7511 691.5,-29.7511 698.5,-29.751"/>
</g>
<!-- Node8 -->
<g id="node8" class="node"><title>Node8</title>
<polygon fill="white" stroke="#bfbfbf" points="579,-0.5 579,-19.5 633,-19.5 633,-0.5 579,-0.5"/>
<text text-anchor="middle" x="606" y="-7.5" font-family="Helvetica,sans-Serif" font-size="10.00">iostream</text>
</g>
<!-- Node6&#45;&gt;Node8 -->
<g id="edge8" class="edge"><title>Node6&#45;&gt;Node8</title>
<path fill="none" stroke="midnightblue" d="M680.701,-56.324C666.817,-47.9002 645.508,-34.9709 629.196,-25.0741"/>
<polygon fill="midnightblue" stroke="midnightblue" points="630.629,-21.8495 620.264,-19.6545 626.998,-27.8341 630.629,-21.8495"/>
</g>
<!-- Node9 -->
<g id="node9" class="node"><title>Node9</title>
<polygon fill="white" stroke="#bfbfbf" points="209.5,-0.5 209.5,-19.5 256.5,-19.5 256.5,-0.5 209.5,-0.5"/>
<text text-anchor="middle" x="233" y="-7.5" font-family="Helvetica,sans-Serif" font-size="10.00">iterator</text>
</g>
<!-- Node6&#45;&gt;Node9 -->
<g id="edge9" class="edge"><title>Node6&#45;&gt;Node9</title>
<path fill="none" stroke="midnightblue" d="M633.65,-57.8292C534.955,-46.2935 344.179,-23.995 266.819,-14.9528"/>
<polygon fill="midnightblue" stroke="midnightblue" points="267.016,-11.4521 256.677,-13.7674 266.203,-18.4048 267.016,-11.4521"/>
</g>
<!-- Node6&#45;&gt;Node10 -->
<g id="edge10" class="edge"><title>Node6&#45;&gt;Node10</title>
<path fill="none" stroke="midnightblue" d="M707.371,-56.324C719.158,-48.0577 737.132,-35.4527 751.136,-25.6322"/>
<polygon fill="midnightblue" stroke="midnightblue" points="753.482,-28.2619 759.659,-19.6545 749.462,-22.5307 753.482,-28.2619"/>
</g>
<!-- Node15&#45;&gt;Node8 -->
<g id="edge24" class="edge"><title>Node15&#45;&gt;Node8</title>
<path fill="none" stroke="midnightblue" d="M273.979,-112.258C265.358,-98.5644 252.001,-71.9739 266,-56 285.734,-33.4816 484.364,-18.5682 568.578,-13.2111"/>
<polygon fill="midnightblue" stroke="midnightblue" points="568.97,-16.6935 578.733,-12.5763 568.534,-9.70715 568.97,-16.6935"/>
</g>
<!-- Node15&#45;&gt;Node9 -->
<g id="edge25" class="edge"><title>Node15&#45;&gt;Node9</title>
<path fill="none" stroke="midnightblue" d="M264.217,-112.467C251.797,-104.769 235.395,-92.179 228,-76 221.384,-61.5244 223.545,-43.3385 226.837,-29.8866"/>
<polygon fill="midnightblue" stroke="midnightblue" points="230.313,-30.4629 229.7,-19.8857 223.583,-28.536 230.313,-30.4629"/>
</g>
<!-- Node15&#45;&gt;Node10 -->
<g id="edge30" class="edge"><title>Node15&#45;&gt;Node10</title>
<path fill="none" stroke="midnightblue" d="M279.687,-112.182C279.709,-97.8798 282.066,-69.8364 299,-56 373.083,4.53169 633.305,-33.6095 728,-20 731.772,-19.4579 735.708,-18.7947 739.607,-18.0765"/>
<polygon fill="midnightblue" stroke="midnightblue" points="740.568,-21.4546 749.705,-16.092 739.218,-14.586 740.568,-21.4546"/>
</g>
<!-- Node15&#45;&gt;Node11 -->
<g id="edge22" class="edge"><title>Node15&#45;&gt;Node11</title>
<path fill="none" stroke="midnightblue" d="M339.023,-112.472C389.955,-104.615 465.309,-91.797 530,-76 530.099,-75.9758 530.199,-75.9514 530.298,-75.9269"/>
<polygon fill="midnightblue" stroke="midnightblue" points="531.03,-79.3554 539.749,-73.3362 529.18,-72.6044 531.03,-79.3554"/>
</g>
<!-- Node16 -->
<g id="node16" class="node"><title>Node16</title>
<g id="a_node16"><a xlink:href="../../d1/d05/a00423.html" target="_top" xlink:title="Interface/Implementation for SVIterator. ">
<polygon fill="white" stroke="black" points="68.5,-56.5 68.5,-75.5 137.5,-75.5 137.5,-56.5 68.5,-56.5"/>
<text text-anchor="middle" x="103" y="-63.5" font-family="Helvetica,sans-Serif" font-size="10.00">SVIterator.h</text>
</a>
</g>
</g>
<!-- Node15&#45;&gt;Node16 -->
<g id="edge17" class="edge"><title>Node15&#45;&gt;Node16</title>
<path fill="none" stroke="midnightblue" d="M251.954,-112.444C221.918,-103.28 174.087,-88.6876 140.757,-78.5192"/>
<polygon fill="midnightblue" stroke="midnightblue" points="141.501,-75.0869 130.915,-75.5164 139.458,-81.7822 141.501,-75.0869"/>
</g>
<!-- Node17 -->
<g id="node17" class="node"><title>Node17</title>
<polygon fill="white" stroke="#bfbfbf" points="142.5,-0.5 142.5,-19.5 191.5,-19.5 191.5,-0.5 142.5,-0.5"/>
<text text-anchor="middle" x="167" y="-7.5" font-family="Helvetica,sans-Serif" font-size="10.00">cassert</text>
</g>
<!-- Node15&#45;&gt;Node17 -->
<g id="edge23" class="edge"><title>Node15&#45;&gt;Node17</title>
<path fill="none" stroke="midnightblue" d="M266.394,-112.205C253.727,-103.702 234.651,-90.069 220,-76 204.469,-61.0868 189.197,-41.7142 179.066,-28.0101"/>
<polygon fill="midnightblue" stroke="midnightblue" points="181.637,-25.5941 172.934,-19.5527 175.97,-29.7031 181.637,-25.5941"/>
</g>
<!-- Node19 -->
<g id="node19" class="node"><title>Node19</title>
<polygon fill="white" stroke="#bfbfbf" points="0,-0.5 0,-19.5 62,-19.5 62,-0.5 0,-0.5"/>
<text text-anchor="middle" x="31" y="-7.5" font-family="Helvetica,sans-Serif" font-size="10.00">type_traits</text>
</g>
<!-- Node15&#45;&gt;Node19 -->
<g id="edge28" class="edge"><title>Node15&#45;&gt;Node19</title>
<path fill="none" stroke="midnightblue" d="M220.329,-115.096C163.559,-108.395 83.3084,-95.7564 59,-76 44.8671,-64.5136 37.7135,-44.5389 34.1949,-29.7554"/>
<polygon fill="midnightblue" stroke="midnightblue" points="37.5718,-28.7958 32.1575,-19.6888 30.7109,-30.1844 37.5718,-28.7958"/>
</g>
<!-- Node20 -->
<g id="node20" class="node"><title>Node20</title>
<polygon fill="white" stroke="#bfbfbf" points="308,-56.5 308,-75.5 348,-75.5 348,-56.5 308,-56.5"/>
<text text-anchor="middle" x="328" y="-63.5" font-family="Helvetica,sans-Serif" font-size="10.00">limits</text>
</g>
<!-- Node15&#45;&gt;Node20 -->
<g id="edge26" class="edge"><title>Node15&#45;&gt;Node20</title>
<path fill="none" stroke="midnightblue" d="M287.926,-112.083C294.846,-104.298 305.065,-92.8015 313.452,-83.3665"/>
<polygon fill="midnightblue" stroke="midnightblue" points="316.194,-85.5505 320.221,-75.7511 310.962,-80.8999 316.194,-85.5505"/>
</g>
<!-- Node21 -->
<g id="node21" class="node"><title>Node21</title>
<polygon fill="white" stroke="#bfbfbf" points="462.5,-56.5 462.5,-75.5 521.5,-75.5 521.5,-56.5 462.5,-56.5"/>
<text text-anchor="middle" x="492" y="-63.5" font-family="Helvetica,sans-Serif" font-size="10.00">stdexcept</text>
</g>
<!-- Node15&#45;&gt;Node21 -->
<g id="edge27" class="edge"><title>Node15&#45;&gt;Node21</title>
<path fill="none" stroke="midnightblue" d="M313.592,-112.444C351.291,-102.841 412.397,-87.2763 452.392,-77.0887"/>
<polygon fill="midnightblue" stroke="midnightblue" points="453.501,-80.4181 462.328,-74.558 451.773,-73.6347 453.501,-80.4181"/>
</g>
<!-- Node22 -->
<g id="node22" class="node"><title>Node22</title>
<polygon fill="white" stroke="#bfbfbf" points="366,-56.5 366,-75.5 406,-75.5 406,-56.5 366,-56.5"/>
<text text-anchor="middle" x="386" y="-63.5" font-family="Helvetica,sans-Serif" font-size="10.00">utility</text>
</g>
<!-- Node15&#45;&gt;Node22 -->
<g id="edge29" class="edge"><title>Node15&#45;&gt;Node22</title>
<path fill="none" stroke="midnightblue" d="M297.031,-112.324C314.03,-103.664 340.376,-90.2424 359.993,-80.249"/>
<polygon fill="midnightblue" stroke="midnightblue" points="361.69,-83.3125 369.012,-75.6545 358.512,-77.0752 361.69,-83.3125"/>
</g>
<!-- Node16&#45;&gt;Node9 -->
<g id="edge20" class="edge"><title>Node16&#45;&gt;Node9</title>
<path fill="none" stroke="midnightblue" d="M123.599,-56.4435C144.993,-47.5566 178.681,-33.5632 203.024,-23.4514"/>
<polygon fill="midnightblue" stroke="midnightblue" points="204.605,-26.5848 212.497,-19.5164 201.92,-20.1203 204.605,-26.5848"/>
</g>
<!-- Node16&#45;&gt;Node17 -->
<g id="edge18" class="edge"><title>Node16&#45;&gt;Node17</title>
<path fill="none" stroke="midnightblue" d="M113.283,-56.324C122.836,-48.2631 137.28,-36.0765 148.784,-26.3695"/>
<polygon fill="midnightblue" stroke="midnightblue" points="151.144,-28.9577 156.53,-19.8339 146.63,-23.6076 151.144,-28.9577"/>
</g>
<!-- Node18 -->
<g id="node18" class="node"><title>Node18</title>
<polygon fill="white" stroke="#bfbfbf" points="80,-0.5 80,-19.5 124,-19.5 124,-0.5 80,-0.5"/>
<text text-anchor="middle" x="102" y="-7.5" font-family="Helvetica,sans-Serif" font-size="10.00">cmath</text>
</g>
<!-- Node16&#45;&gt;Node18 -->
<g id="edge19" class="edge"><title>Node16&#45;&gt;Node18</title>
<path fill="none" stroke="midnightblue" d="M102.835,-56.083C102.704,-49.0059 102.516,-38.8611 102.352,-29.9865"/>
<polygon fill="midnightblue" stroke="midnightblue" points="105.847,-29.6845 102.162,-19.7511 98.8479,-29.8142 105.847,-29.6845"/>
</g>
<!-- Node16&#45;&gt;Node19 -->
<g id="edge21" class="edge"><title>Node16&#45;&gt;Node19</title>
<path fill="none" stroke="midnightblue" d="M91.432,-56.324C80.5798,-48.1849 64.1193,-35.8395 51.1166,-26.0874"/>
<polygon fill="midnightblue" stroke="midnightblue" points="52.8786,-23.0339 42.7785,-19.8339 48.6785,-28.6339 52.8786,-23.0339"/>
</g>
<!-- Node23&#45;&gt;Node6 -->
<g id="edge34" class="edge"><title>Node23&#45;&gt;Node6</title>
<path fill="none" stroke="midnightblue" d="M899.984,-292.398C913.886,-284.954 931.714,-272.741 940,-256 946.309,-243.254 946.824,-236.478 940,-224 896.095,-143.719 791.674,-98.4472 734.348,-78.8325"/>
<polygon fill="midnightblue" stroke="midnightblue" points="735.148,-75.4102 724.555,-75.5748 732.939,-82.0523 735.148,-75.4102"/>
</g>
<!-- Node24 -->
<g id="node24" class="node"><title>Node24</title>
<g id="a_node24"><a xlink:href="../../dc/d0f/a00303.html" target="_top" xlink:title="Header for the Health class. ">
<polygon fill="white" stroke="black" points="722,-230.5 722,-249.5 812,-249.5 812,-230.5 722,-230.5"/>
<text text-anchor="middle" x="767" y="-237.5" font-family="Helvetica,sans-Serif" font-size="10.00">disease/Health.h</text>
</a>
</g>
</g>
<!-- Node23&#45;&gt;Node24 -->
<g id="edge33" class="edge"><title>Node23&#45;&gt;Node24</title>
<path fill="none" stroke="midnightblue" d="M864.667,-292.403C845.789,-282.468 814.493,-265.997 792.424,-254.381"/>
<polygon fill="midnightblue" stroke="midnightblue" points="793.782,-251.141 783.303,-249.581 790.522,-257.335 793.782,-251.141"/>
</g>
<!-- Node25 -->
<g id="node25" class="node"><title>Node25</title>
<g id="a_node25"><a xlink:href="../../d2/d41/a00318.html" target="_top" xlink:title="Container for the contact pools of various type (household, work, ...). ">
<polygon fill="white" stroke="black" points="508.5,-168.5 508.5,-187.5 627.5,-187.5 627.5,-168.5 508.5,-168.5"/>
<text text-anchor="middle" x="568" y="-175.5" font-family="Helvetica,sans-Serif" font-size="10.00">pool/IdSubscriptArray.h</text>
</a>
</g>
</g>
<!-- Node23&#45;&gt;Node25 -->
<g id="edge35" class="edge"><title>Node23&#45;&gt;Node25</title>
<path fill="none" stroke="midnightblue" d="M843.853,-300.297C773.362,-298.186 623.927,-289.744 587,-256 570.991,-241.371 567.489,-215.597 567.164,-197.929"/>
<polygon fill="midnightblue" stroke="midnightblue" points="570.667,-197.736 567.31,-187.688 563.668,-197.637 570.667,-197.736"/>
</g>
<!-- Node28 -->
<g id="node28" class="node"><title>Node28</title>
<g id="a_node28"><a xlink:href="../../dd/d07/a00433.html" target="_top" xlink:title="pool/TravellerIndex.h">
<polygon fill="white" stroke="black" points="596.5,-230.5 596.5,-249.5 703.5,-249.5 703.5,-230.5 596.5,-230.5"/>
<text text-anchor="middle" x="650" y="-237.5" font-family="Helvetica,sans-Serif" font-size="10.00">pool/TravellerIndex.h</text>
</a>
</g>
</g>
<!-- Node23&#45;&gt;Node28 -->
<g id="edge43" class="edge"><title>Node23&#45;&gt;Node28</title>
<path fill="none" stroke="midnightblue" d="M847.903,-292.403C807.078,-281.799 737.592,-263.751 692.761,-252.107"/>
<polygon fill="midnightblue" stroke="midnightblue" points="693.594,-248.707 683.035,-249.581 691.834,-255.482 693.594,-248.707"/>
</g>
<!-- Node31 -->
<g id="node31" class="node"><title>Node31</title>
<g id="a_node31"><a xlink:href="../../d0/dc5/a00435.html" target="_top" xlink:title="pool/TravellerProfile.h">
<polygon fill="white" stroke="black" points="996.5,-168.5 996.5,-187.5 1107.5,-187.5 1107.5,-168.5 996.5,-168.5"/>
<text text-anchor="middle" x="1052" y="-175.5" font-family="Helvetica,sans-Serif" font-size="10.00">pool/TravellerProfile.h</text>
</a>
</g>
</g>
<!-- Node23&#45;&gt;Node31 -->
<g id="edge48" class="edge"><title>Node23&#45;&gt;Node31</title>
<path fill="none" stroke="midnightblue" d="M903.936,-292.383C923.495,-284.471 951.875,-271.622 974,-256 999.15,-238.242 1023.67,-212.173 1038.3,-195.392"/>
<polygon fill="midnightblue" stroke="midnightblue" points="1041.17,-197.43 1045.01,-187.557 1035.85,-192.879 1041.17,-197.43"/>
</g>
<!-- Node42 -->
<g id="node42" class="node"><title>Node42</title>
<polygon fill="white" stroke="#bfbfbf" points="830.5,-225 830.5,-255 931.5,-255 931.5,-225 830.5,-225"/>
<text text-anchor="start" x="838.5" y="-243" font-family="Helvetica,sans-Serif" font-size="10.00">boost/property_tree</text>
<text text-anchor="middle" x="881" y="-232" font-family="Helvetica,sans-Serif" font-size="10.00">/ptree.hpp</text>
</g>
<!-- Node23&#45;&gt;Node42 -->
<g id="edge64" class="edge"><title>Node23&#45;&gt;Node42</title>
<path fill="none" stroke="midnightblue" d="M881,-292.403C881,-285.341 881,-274.975 881,-265.399"/>
<polygon fill="midnightblue" stroke="midnightblue" points="884.5,-265.141 881,-255.141 877.5,-265.141 884.5,-265.141"/>
</g>
<!-- Node25&#45;&gt;Node3 -->
<g id="edge36" class="edge"><title>Node25&#45;&gt;Node3</title>
<path fill="none" stroke="midnightblue" d="M627.703,-169.093C630.508,-168.723 633.284,-168.357 636,-168 735.401,-154.921 850.974,-139.825 919.664,-130.865"/>
<polygon fill="midnightblue" stroke="midnightblue" points="920.4,-134.298 929.863,-129.534 919.495,-127.357 920.4,-134.298"/>
</g>
<!-- Node25&#45;&gt;Node6 -->
<g id="edge37" class="edge"><title>Node25&#45;&gt;Node6</title>
<path fill="none" stroke="midnightblue" d="M615.962,-168.43C653.508,-160.63 701.275,-147.916 713,-132 723.27,-118.059 715.67,-98.5357 707.417,-84.5306"/>
<polygon fill="midnightblue" stroke="midnightblue" points="710.177,-82.3533 701.811,-75.8528 704.297,-86.1517 710.177,-82.3533"/>
</g>
<!-- Node25&#45;&gt;Node8 -->
<g id="edge41" class="edge"><title>Node25&#45;&gt;Node8</title>
<path fill="none" stroke="midnightblue" d="M622.08,-168.468C643.523,-162.146 666.104,-151.143 679,-132 704.479,-94.1776 628.283,-80.469 625,-76 615.103,-62.5277 610.339,-43.969 608.058,-30.1302"/>
<polygon fill="midnightblue" stroke="midnightblue" points="611.475,-29.2734 606.669,-19.831 604.538,-30.2091 611.475,-29.2734"/>
</g>
<!-- Node25&#45;&gt;Node11 -->
<g id="edge38" class="edge"><title>Node25&#45;&gt;Node11</title>
<path fill="none" stroke="midnightblue" d="M557.01,-168.365C547.547,-160.171 534.564,-146.917 529,-132 522.657,-114.997 533.31,-96.2437 543.634,-83.2686"/>
<polygon fill="midnightblue" stroke="midnightblue" points="546.318,-85.5153 550.189,-75.6528 541.012,-80.9488 546.318,-85.5153"/>
</g>
<!-- Node25&#45;&gt;Node21 -->
<g id="edge42" class="edge"><title>Node25&#45;&gt;Node21</title>
<path fill="none" stroke="midnightblue" d="M557.977,-168.461C548.395,-159.931 533.972,-146.092 524,-132 513.681,-117.417 504.962,-99.0076 499.244,-85.5066"/>
<polygon fill="midnightblue" stroke="midnightblue" points="502.344,-83.838 495.329,-75.8982 495.861,-86.4797 502.344,-83.838"/>
</g>
<!-- Node26 -->
<g id="node26" class="node"><title>Node26</title>
<polygon fill="white" stroke="#bfbfbf" points="538.5,-112.5 538.5,-131.5 579.5,-131.5 579.5,-112.5 538.5,-112.5"/>
<text text-anchor="middle" x="559" y="-119.5" font-family="Helvetica,sans-Serif" font-size="10.00">bitset</text>
</g>
<!-- Node25&#45;&gt;Node26 -->
<g id="edge39" class="edge"><title>Node25&#45;&gt;Node26</title>
<path fill="none" stroke="midnightblue" d="M566.514,-168.083C565.321,-160.927 563.606,-150.635 562.115,-141.691"/>
<polygon fill="midnightblue" stroke="midnightblue" points="565.555,-141.04 560.459,-131.751 558.65,-142.19 565.555,-141.04"/>
</g>
<!-- Node27 -->
<g id="node27" class="node"><title>Node27</title>
<polygon fill="white" stroke="#bfbfbf" points="597.5,-112.5 597.5,-131.5 670.5,-131.5 670.5,-112.5 597.5,-112.5"/>
<text text-anchor="middle" x="634" y="-119.5" font-family="Helvetica,sans-Serif" font-size="10.00">initializer_list</text>
</g>
<!-- Node25&#45;&gt;Node27 -->
<g id="edge40" class="edge"><title>Node25&#45;&gt;Node27</title>
<path fill="none" stroke="midnightblue" d="M578.604,-168.324C588.456,-160.263 603.351,-148.077 615.215,-138.369"/>
<polygon fill="midnightblue" stroke="midnightblue" points="617.68,-140.875 623.203,-131.834 613.247,-135.457 617.68,-140.875"/>
</g>
<!-- Node28&#45;&gt;Node3 -->
<g id="edge44" class="edge"><title>Node28&#45;&gt;Node3</title>
<path fill="none" stroke="midnightblue" d="M657.553,-230.375C671.436,-215.125 702.659,-183.544 736,-168 794.622,-140.669 868.42,-129.918 919.422,-125.7"/>
<polygon fill="midnightblue" stroke="midnightblue" points="919.923,-129.172 929.627,-124.918 919.388,-122.193 919.923,-129.172"/>
</g>
<!-- Node28&#45;&gt;Node25 -->
<g id="edge45" class="edge"><title>Node28&#45;&gt;Node25</title>
<path fill="none" stroke="midnightblue" d="M638.251,-230.403C625.099,-220.78 603.566,-205.024 587.802,-193.489"/>
<polygon fill="midnightblue" stroke="midnightblue" points="589.864,-190.661 579.727,-187.581 585.73,-196.31 589.864,-190.661"/>
</g>
<!-- Node29 -->
<g id="node29" class="node"><title>Node29</title>
<polygon fill="white" stroke="#bfbfbf" points="745.5,-168.5 745.5,-187.5 828.5,-187.5 828.5,-168.5 745.5,-168.5"/>
<text text-anchor="middle" x="787" y="-175.5" font-family="Helvetica,sans-Serif" font-size="10.00">spdlog/logger.h</text>
</g>
<!-- Node28&#45;&gt;Node29 -->
<g id="edge46" class="edge"><title>Node28&#45;&gt;Node29</title>
<path fill="none" stroke="midnightblue" d="M669.629,-230.403C692.824,-220.245 731.619,-203.255 758.213,-191.607"/>
<polygon fill="midnightblue" stroke="midnightblue" points="759.652,-194.798 767.408,-187.581 756.843,-188.386 759.652,-194.798"/>
</g>
<!-- Node30 -->
<g id="node30" class="node"><title>Node30</title>
<polygon fill="white" stroke="#bfbfbf" points="645.5,-168.5 645.5,-187.5 688.5,-187.5 688.5,-168.5 645.5,-168.5"/>
<text text-anchor="middle" x="667" y="-175.5" font-family="Helvetica,sans-Serif" font-size="10.00">queue</text>
</g>
<!-- Node28&#45;&gt;Node30 -->
<g id="edge47" class="edge"><title>Node28&#45;&gt;Node30</title>
<path fill="none" stroke="midnightblue" d="M652.436,-230.403C654.859,-221.849 658.656,-208.45 661.765,-197.476"/>
<polygon fill="midnightblue" stroke="midnightblue" points="665.21,-198.156 664.569,-187.581 658.475,-196.248 665.21,-198.156"/>
</g>
<!-- Node31&#45;&gt;Node3 -->
<g id="edge49" class="edge"><title>Node31&#45;&gt;Node3</title>
<path fill="none" stroke="midnightblue" d="M1040.43,-168.324C1029.58,-160.185 1013.12,-147.839 1000.12,-138.087"/>
<polygon fill="midnightblue" stroke="midnightblue" points="1001.88,-135.034 991.779,-131.834 997.679,-140.634 1001.88,-135.034"/>
</g>
<!-- Node31&#45;&gt;Node10 -->
<g id="edge63" class="edge"><title>Node31&#45;&gt;Node10</title>
<path fill="none" stroke="midnightblue" d="M1074.56,-168.471C1121.68,-149.463 1222.95,-101.692 1182,-56 1156.89,-27.9805 896.648,-15.637 804.291,-12.116"/>
<polygon fill="midnightblue" stroke="midnightblue" points="804.258,-8.61242 794.135,-11.7388 803.998,-15.6076 804.258,-8.61242"/>
</g>
<!-- Node32 -->
<g id="node32" class="node"><title>Node32</title>
<polygon fill="white" stroke="#bfbfbf" points="1230,-112.5 1230,-131.5 1340,-131.5 1340,-112.5 1230,-112.5"/>
<text text-anchor="middle" x="1285" y="-119.5" font-family="Helvetica,sans-Serif" font-size="10.00">trng/discrete_dist.hpp</text>
</g>
<!-- Node31&#45;&gt;Node32 -->
<g id="edge50" class="edge"><title>Node31&#45;&gt;Node32</title>
<path fill="none" stroke="midnightblue" d="M1088.92,-168.444C1129.4,-159.063 1194.42,-143.993 1238.38,-133.804"/>
<polygon fill="midnightblue" stroke="midnightblue" points="1239.3,-137.184 1248.25,-131.516 1237.72,-130.365 1239.3,-137.184"/>
</g>
<!-- Node31&#45;&gt;Node33 -->
<g id="edge51" class="edge"><title>Node31&#45;&gt;Node33</title>
<path fill="none" stroke="midnightblue" d="M1107.78,-169.812C1112.59,-169.197 1117.38,-168.586 1122,-168 1228.76,-154.446 1353.41,-138.879 1424.19,-130.064"/>
<polygon fill="midnightblue" stroke="midnightblue" points="1424.75,-133.522 1434.24,-128.814 1423.88,-126.576 1424.75,-133.522"/>
</g>
<!-- Node33&#45;&gt;Node5 -->
<g id="edge61" class="edge"><title>Node33&#45;&gt;Node5</title>
<path fill="none" stroke="midnightblue" d="M1460.19,-112.411C1438.75,-103.505 1404.41,-89.0782 1375,-76 1355.74,-67.4361 1352,-62.6469 1332,-56 1267.95,-34.7132 1189.69,-21.3502 1147.49,-15.1298"/>
<polygon fill="midnightblue" stroke="midnightblue" points="1147.96,-11.6622 1137.57,-13.7017 1146.96,-18.5908 1147.96,-11.6622"/>
</g>
<!-- Node33&#45;&gt;Node10 -->
<g id="edge62" class="edge"><title>Node33&#45;&gt;Node10</title>
<path fill="none" stroke="midnightblue" d="M1444,-112.447C1413.31,-104.738 1368.89,-92.1419 1332,-76 1315.94,-68.9713 1314.7,-61.3237 1298,-56 1205.21,-26.428 904.019,-14.9434 804.354,-11.8946"/>
<polygon fill="midnightblue" stroke="midnightblue" points="804.382,-8.39398 794.282,-11.5945 804.174,-15.3909 804.382,-8.39398"/>
</g>
<!-- Node34 -->
<g id="node34" class="node"><title>Node34</title>
<g id="a_node34"><a xlink:href="../../d9/dc1/a00388.html" target="_top" xlink:title="Interface of Random Engine Type. ">
<polygon fill="white" stroke="black" points="1384,-56.5 1384,-75.5 1476,-75.5 1476,-56.5 1384,-56.5"/>
<text text-anchor="middle" x="1430" y="-63.5" font-family="Helvetica,sans-Serif" font-size="10.00">RNEngineType.h</text>
</a>
</g>
</g>
<!-- Node33&#45;&gt;Node34 -->
<g id="edge52" class="edge"><title>Node33&#45;&gt;Node34</title>
<path fill="none" stroke="midnightblue" d="M1472.58,-112.083C1465.15,-104.22 1454.15,-92.5688 1445.19,-83.0813"/>
<polygon fill="midnightblue" stroke="midnightblue" points="1447.68,-80.618 1438.26,-75.7511 1442.59,-85.4244 1447.68,-80.618"/>
</g>
<!-- Node35 -->
<g id="node35" class="node"><title>Node35</title>
<polygon fill="white" stroke="#bfbfbf" points="1494,-56.5 1494,-75.5 1572,-75.5 1572,-56.5 1494,-56.5"/>
<text text-anchor="middle" x="1533" y="-63.5" font-family="Helvetica,sans-Serif" font-size="10.00">trng/lcg64.hpp</text>
</g>
<!-- Node33&#45;&gt;Node35 -->
<g id="edge54" class="edge"><title>Node33&#45;&gt;Node35</title>
<path fill="none" stroke="midnightblue" d="M1489.59,-112.083C1497.16,-104.22 1508.38,-92.5688 1517.51,-83.0813"/>
<polygon fill="midnightblue" stroke="midnightblue" points="1520.16,-85.3821 1524.57,-75.7511 1515.12,-80.5266 1520.16,-85.3821"/>
</g>
<!-- Node36 -->
<g id="node36" class="node"><title>Node36</title>
<polygon fill="white" stroke="#bfbfbf" points="1590,-56.5 1590,-75.5 1692,-75.5 1692,-56.5 1590,-56.5"/>
<text text-anchor="middle" x="1641" y="-63.5" font-family="Helvetica,sans-Serif" font-size="10.00">trng/lcg64_shift.hpp</text>
</g>
<!-- Node33&#45;&gt;Node36 -->
<g id="edge55" class="edge"><title>Node33&#45;&gt;Node36</title>
<path fill="none" stroke="midnightblue" d="M1506.35,-112.444C1533.27,-103.359 1576,-88.9388 1606.09,-78.7831"/>
<polygon fill="midnightblue" stroke="midnightblue" points="1607.41,-82.0305 1615.77,-75.5164 1605.17,-75.3981 1607.41,-82.0305"/>
</g>
<!-- Node37 -->
<g id="node37" class="node"><title>Node37</title>
<polygon fill="white" stroke="#bfbfbf" points="1710.5,-56.5 1710.5,-75.5 1787.5,-75.5 1787.5,-56.5 1710.5,-56.5"/>
<text text-anchor="middle" x="1749" y="-63.5" font-family="Helvetica,sans-Serif" font-size="10.00">trng/mrg2.hpp</text>
</g>
<!-- Node33&#45;&gt;Node37 -->
<g id="edge56" class="edge"><title>Node33&#45;&gt;Node37</title>
<path fill="none" stroke="midnightblue" d="M1523.47,-112.444C1571.52,-102.761 1649.65,-87.0178 1700.18,-76.8364"/>
<polygon fill="midnightblue" stroke="midnightblue" points="1701.1,-80.2215 1710.21,-74.8151 1699.72,-73.3594 1701.1,-80.2215"/>
</g>
<!-- Node38 -->
<g id="node38" class="node"><title>Node38</title>
<polygon fill="white" stroke="#bfbfbf" points="1805.5,-56.5 1805.5,-75.5 1882.5,-75.5 1882.5,-56.5 1805.5,-56.5"/>
<text text-anchor="middle" x="1844" y="-63.5" font-family="Helvetica,sans-Serif" font-size="10.00">trng/mrg3.hpp</text>
</g>
<!-- Node33&#45;&gt;Node38 -->
<g id="edge57" class="edge"><title>Node33&#45;&gt;Node38</title>
<path fill="none" stroke="midnightblue" d="M1527.53,-114.996C1587.1,-107.167 1693.73,-92.6752 1795.14,-76.0793"/>
<polygon fill="midnightblue" stroke="midnightblue" points="1795.95,-79.4927 1805.25,-74.4145 1794.82,-72.5857 1795.95,-79.4927"/>
</g>
<!-- Node39 -->
<g id="node39" class="node"><title>Node39</title>
<polygon fill="white" stroke="#bfbfbf" points="1900.5,-56.5 1900.5,-75.5 1979.5,-75.5 1979.5,-56.5 1900.5,-56.5"/>
<text text-anchor="middle" x="1940" y="-63.5" font-family="Helvetica,sans-Serif" font-size="10.00">trng/yarn2.hpp</text>
</g>
<!-- Node33&#45;&gt;Node39 -->
<g id="edge58" class="edge"><title>Node33&#45;&gt;Node39</title>
<path fill="none" stroke="midnightblue" d="M1527.56,-116.995C1601.97,-110.353 1752.48,-95.9279 1890.54,-75.963"/>
<polygon fill="midnightblue" stroke="midnightblue" points="1891.07,-79.4231 1900.46,-74.516 1890.06,-72.4965 1891.07,-79.4231"/>
</g>
<!-- Node40 -->
<g id="node40" class="node"><title>Node40</title>
<polygon fill="white" stroke="#bfbfbf" points="1997.5,-56.5 1997.5,-75.5 2076.5,-75.5 2076.5,-56.5 1997.5,-56.5"/>
<text text-anchor="middle" x="2037" y="-63.5" font-family="Helvetica,sans-Serif" font-size="10.00">trng/yarn3.hpp</text>
</g>
<!-- Node33&#45;&gt;Node40 -->
<g id="edge59" class="edge"><title>Node33&#45;&gt;Node40</title>
<path fill="none" stroke="midnightblue" d="M1527.65,-118.317C1615.52,-112.947 1811.77,-99.4522 1987.52,-75.9318"/>
<polygon fill="midnightblue" stroke="midnightblue" points="1988.03,-79.3955 1997.47,-74.587 1987.09,-72.4586 1988.03,-79.3955"/>
</g>
<!-- Node41 -->
<g id="node41" class="node"><title>Node41</title>
<polygon fill="white" stroke="#bfbfbf" points="1230.5,-56.5 1230.5,-75.5 1289.5,-75.5 1289.5,-56.5 1230.5,-56.5"/>
<text text-anchor="middle" x="1260" y="-63.5" font-family="Helvetica,sans-Serif" font-size="10.00">functional</text>
</g>
<!-- Node33&#45;&gt;Node41 -->
<g id="edge60" class="edge"><title>Node33&#45;&gt;Node41</title>
<path fill="none" stroke="midnightblue" d="M1445.98,-112.444C1406.07,-102.69 1340.98,-86.7864 1299.34,-76.6132"/>
<polygon fill="midnightblue" stroke="midnightblue" points="1300.09,-73.194 1289.55,-74.2203 1298.43,-79.994 1300.09,-73.194"/>
</g>
<!-- Node34&#45;&gt;Node5 -->
<g id="edge53" class="edge"><title>Node34&#45;&gt;Node5</title>
<path fill="none" stroke="midnightblue" d="M1383.82,-57.0321C1318.96,-45.8421 1202.66,-25.7782 1147.56,-16.2718"/>
<polygon fill="midnightblue" stroke="midnightblue" points="1148.15,-12.8217 1137.7,-14.5705 1146.96,-19.7198 1148.15,-12.8217"/>
</g>
</g>
</svg>
