<?xml version="1.0" encoding="UTF-8" standalone="no"?>
<!DOCTYPE svg PUBLIC "-//W3C//DTD SVG 1.1//EN"
 "http://www.w3.org/Graphics/SVG/1.1/DTD/svg11.dtd">
<!-- Generated by graphviz version 2.36.0 (20140111.2315)
 -->
<!-- Title: gengeopop::PartialPopulator Pages: 1 -->
<svg width="1042pt" height="424pt"
 viewBox="0.00 0.00 1042.00 424.00" xmlns="http://www.w3.org/2000/svg" xmlns:xlink="http://www.w3.org/1999/xlink">
<g id="graph0" class="graph" transform="scale(1 1) rotate(0) translate(4 420)">
<title>gengeopop::PartialPopulator</title>
<polygon fill="white" stroke="none" points="-4,4 -4,-420 1038,-420 1038,4 -4,4"/>
<!-- Node1 -->
<g id="node1" class="node"><title>Node1</title>
<polygon fill="#bfbfbf" stroke="black" points="430,-292.5 430,-415.5 578,-415.5 578,-292.5 430,-292.5"/>
<text text-anchor="middle" x="504" y="-403.5" font-family="Helvetica,sans-Serif" font-size="10.00">gengeopop::PartialPopulator</text>
<polyline fill="none" stroke="black" points="430,-396.5 578,-396.5 "/>
<text text-anchor="start" x="438" y="-384.5" font-family="Helvetica,sans-Serif" font-size="10.00"># m_rnManager</text>
<text text-anchor="start" x="438" y="-373.5" font-family="Helvetica,sans-Serif" font-size="10.00"># m_logger</text>
<polyline fill="none" stroke="black" points="430,-366.5 578,-366.5 "/>
<text text-anchor="start" x="438" y="-354.5" font-family="Helvetica,sans-Serif" font-size="10.00">+ PartialPopulator()</text>
<text text-anchor="start" x="438" y="-343.5" font-family="Helvetica,sans-Serif" font-size="10.00">+ Apply()</text>
<text text-anchor="start" x="438" y="-332.5" font-family="Helvetica,sans-Serif" font-size="10.00">+ ~PartialPopulator()</text>
<text text-anchor="start" x="438" y="-321.5" font-family="Helvetica,sans-Serif" font-size="10.00"># GetContactPoolInIncreasing</text>
<text text-anchor="start" x="438" y="-310.5" font-family="Helvetica,sans-Serif" font-size="10.00">Radius()</text>
<text text-anchor="start" x="438" y="-299.5" font-family="Helvetica,sans-Serif" font-size="10.00"># MakeChoice()</text>
</g>
<!-- Node2 -->
<g id="node2" class="node"><title>Node2</title>
<g id="a_node2"><a xlink:href="../../de/d11/a00021.html" target="_top" xlink:title="Populate Colleges. ">
<polygon fill="white" stroke="black" points="0,-99.5 0,-156.5 144,-156.5 144,-99.5 0,-99.5"/>
<text text-anchor="middle" x="72" y="-144.5" font-family="Helvetica,sans-Serif" font-size="10.00">gengeopop::CollegePopulator</text>
<polyline fill="none" stroke="black" points="0,-137.5 144,-137.5 "/>
<text text-anchor="middle" x="72" y="-125.5" font-family="Helvetica,sans-Serif" font-size="10.00"> </text>
<polyline fill="none" stroke="black" points="0,-118.5 144,-118.5 "/>
<text text-anchor="start" x="8" y="-106.5" font-family="Helvetica,sans-Serif" font-size="10.00">+ Apply()</text>
</a>
</g>
</g>
<!-- Node1&#45;&gt;Node2 -->
<g id="edge1" class="edge"><title>Node1&#45;&gt;Node2</title>
<path fill="none" stroke="midnightblue" d="M419.714,-346.775C343.574,-337.449 231.712,-314.158 153,-256 118.506,-230.514 94.9649,-185.561 82.4998,-156.543"/>
<polygon fill="none" stroke="midnightblue" points="419.408,-350.263 429.747,-347.948 420.222,-343.31 419.408,-350.263"/>
</g>
<!-- Node3 -->
<g id="node3" class="node"><title>Node3</title>
<g id="a_node3"><a xlink:href="../../d4/dca/a00048.html" target="_top" xlink:title="Populate Households. ">
<polygon fill="white" stroke="black" points="162,-99.5 162,-156.5 320,-156.5 320,-99.5 162,-99.5"/>
<text text-anchor="middle" x="241" y="-144.5" font-family="Helvetica,sans-Serif" font-size="10.00">gengeopop::HouseholdPopulator</text>
<polyline fill="none" stroke="black" points="162,-137.5 320,-137.5 "/>
<text text-anchor="middle" x="241" y="-125.5" font-family="Helvetica,sans-Serif" font-size="10.00"> </text>
<polyline fill="none" stroke="black" points="162,-118.5 320,-118.5 "/>
<text text-anchor="start" x="170" y="-106.5" font-family="Helvetica,sans-Serif" font-size="10.00">+ Apply()</text>
</a>
</g>
</g>
<!-- Node1&#45;&gt;Node3 -->
<g id="edge2" class="edge"><title>Node1&#45;&gt;Node3</title>
<path fill="none" stroke="midnightblue" d="M420.7,-316.752C389.831,-300.877 355.843,-280.289 329,-256 296.976,-227.024 270.426,-184.263 255.131,-156.516"/>
<polygon fill="none" stroke="midnightblue" points="419.235,-319.934 429.74,-321.315 422.389,-313.684 419.235,-319.934"/>
</g>
<!-- Node4 -->
<g id="node4" class="node"><title>Node4</title>
<g id="a_node4"><a xlink:href="../../d1/d84/a00052.html" target="_top" xlink:title="Populate K12Schools. ">
<polygon fill="white" stroke="black" points="338,-99.5 338,-156.5 496,-156.5 496,-99.5 338,-99.5"/>
<text text-anchor="middle" x="417" y="-144.5" font-family="Helvetica,sans-Serif" font-size="10.00">gengeopop::K12SchoolPopulator</text>
<polyline fill="none" stroke="black" points="338,-137.5 496,-137.5 "/>
<text text-anchor="middle" x="417" y="-125.5" font-family="Helvetica,sans-Serif" font-size="10.00"> </text>
<polyline fill="none" stroke="black" points="338,-118.5 496,-118.5 "/>
<text text-anchor="start" x="346" y="-106.5" font-family="Helvetica,sans-Serif" font-size="10.00">+ Apply()</text>
</a>
</g>
</g>
<!-- Node1&#45;&gt;Node4 -->
<g id="edge3" class="edge"><title>Node1&#45;&gt;Node4</title>
<path fill="none" stroke="midnightblue" d="M476.763,-282.874C460.186,-240.191 439.926,-188.029 427.764,-156.715"/>
<polygon fill="none" stroke="midnightblue" points="473.573,-284.328 480.457,-292.382 480.099,-281.794 473.573,-284.328"/>
</g>
<!-- Node5 -->
<g id="node5" class="node"><title>Node5</title>
<g id="a_node5"><a xlink:href="../../d9/d73/a00060.html" target="_top" xlink:title="Populate primary Communities. ">
<polygon fill="white" stroke="black" points="514,-94 514,-162 668,-162 668,-94 514,-94"/>
<text text-anchor="start" x="522" y="-150" font-family="Helvetica,sans-Serif" font-size="10.00">gengeopop::PrimaryCommunity</text>
<text text-anchor="middle" x="591" y="-139" font-family="Helvetica,sans-Serif" font-size="10.00">Populator</text>
<polyline fill="none" stroke="black" points="514,-132 668,-132 "/>
<text text-anchor="middle" x="591" y="-120" font-family="Helvetica,sans-Serif" font-size="10.00"> </text>
<polyline fill="none" stroke="black" points="514,-113 668,-113 "/>
<text text-anchor="start" x="522" y="-101" font-family="Helvetica,sans-Serif" font-size="10.00">+ Apply()</text>
</a>
</g>
</g>
<!-- Node1&#45;&gt;Node5 -->
<g id="edge4" class="edge"><title>Node1&#45;&gt;Node5</title>
<path fill="none" stroke="midnightblue" d="M531.236,-282.875C546.873,-242.615 565.785,-193.922 578.088,-162.245"/>
<polygon fill="none" stroke="midnightblue" points="527.901,-281.794 527.543,-292.382 534.427,-284.328 527.901,-281.794"/>
</g>
<!-- Node6 -->
<g id="node6" class="node"><title>Node6</title>
<g id="a_node6"><a xlink:href="../../df/d5f/a00064.html" target="_top" xlink:title="Populate secondary Communities. ">
<polygon fill="white" stroke="black" points="686.5,-94 686.5,-162 853.5,-162 853.5,-94 686.5,-94"/>
<text text-anchor="start" x="694.5" y="-150" font-family="Helvetica,sans-Serif" font-size="10.00">gengeopop::SecondaryCommunity</text>
<text text-anchor="middle" x="770" y="-139" font-family="Helvetica,sans-Serif" font-size="10.00">Populator</text>
<polyline fill="none" stroke="black" points="686.5,-132 853.5,-132 "/>
<text text-anchor="middle" x="770" y="-120" font-family="Helvetica,sans-Serif" font-size="10.00"> </text>
<polyline fill="none" stroke="black" points="686.5,-113 853.5,-113 "/>
<text text-anchor="start" x="694.5" y="-101" font-family="Helvetica,sans-Serif" font-size="10.00">+ Apply()</text>
</a>
</g>
</g>
<!-- Node1&#45;&gt;Node6 -->
<g id="edge5" class="edge"><title>Node1&#45;&gt;Node6</title>
<path fill="none" stroke="midnightblue" d="M587.592,-315.396C617.642,-299.577 650.603,-279.38 677,-256 707.788,-228.73 734.519,-189.63 751.321,-162.035"/>
<polygon fill="none" stroke="midnightblue" points="585.646,-312.462 578.37,-320.164 588.86,-318.68 585.646,-312.462"/>
</g>
<!-- Node7 -->
<g id="node7" class="node"><title>Node7</title>
<g id="a_node7"><a xlink:href="../../d6/d2c/a00072.html" target="_top" xlink:title="Populate Workplaces. ">
<polygon fill="white" stroke="black" points="872,-0.5 872,-255.5 1034,-255.5 1034,-0.5 872,-0.5"/>
<text text-anchor="middle" x="953" y="-243.5" font-family="Helvetica,sans-Serif" font-size="10.00">gengeopop::WorkplacePopulator</text>
<polyline fill="none" stroke="black" points="872,-236.5 1034,-236.5 "/>
<text text-anchor="start" x="880" y="-224.5" font-family="Helvetica,sans-Serif" font-size="10.00">&#45; m_assignedTo0</text>
<text text-anchor="start" x="880" y="-213.5" font-family="Helvetica,sans-Serif" font-size="10.00">&#45; m_assignedCommuting</text>
<text text-anchor="start" x="880" y="-202.5" font-family="Helvetica,sans-Serif" font-size="10.00">&#45; m_assignedNotCommuting</text>
<text text-anchor="start" x="880" y="-191.5" font-family="Helvetica,sans-Serif" font-size="10.00">&#45; m_currentLoc</text>
<text text-anchor="start" x="880" y="-180.5" font-family="Helvetica,sans-Serif" font-size="10.00">&#45; m_geoGrid</text>
<text text-anchor="start" x="880" y="-169.5" font-family="Helvetica,sans-Serif" font-size="10.00">&#45; m_geoGridConfig</text>
<text text-anchor="start" x="880" y="-158.5" font-family="Helvetica,sans-Serif" font-size="10.00">&#45; m_workplacesInCity</text>
<text text-anchor="start" x="880" y="-147.5" font-family="Helvetica,sans-Serif" font-size="10.00">&#45; m_fractionCommutingStudents</text>
<text text-anchor="start" x="880" y="-136.5" font-family="Helvetica,sans-Serif" font-size="10.00">&#45; m_nearByWorkplaces</text>
<text text-anchor="start" x="880" y="-125.5" font-family="Helvetica,sans-Serif" font-size="10.00">&#45; m_distNonCommuting</text>
<text text-anchor="start" x="880" y="-114.5" font-family="Helvetica,sans-Serif" font-size="10.00">&#45; m_commutingLocations</text>
<text text-anchor="start" x="880" y="-103.5" font-family="Helvetica,sans-Serif" font-size="10.00">&#45; m_disCommuting</text>
<polyline fill="none" stroke="black" points="872,-96.5 1034,-96.5 "/>
<text text-anchor="start" x="880" y="-84.5" font-family="Helvetica,sans-Serif" font-size="10.00">+ WorkplacePopulator()</text>
<text text-anchor="start" x="880" y="-73.5" font-family="Helvetica,sans-Serif" font-size="10.00">+ Apply()</text>
<text text-anchor="start" x="880" y="-62.5" font-family="Helvetica,sans-Serif" font-size="10.00">&#45; CalculateWorkplacesInCity()</text>
<text text-anchor="start" x="880" y="-51.5" font-family="Helvetica,sans-Serif" font-size="10.00">&#45; CalculateFractionCommuting</text>
<text text-anchor="start" x="880" y="-40.5" font-family="Helvetica,sans-Serif" font-size="10.00">Students()</text>
<text text-anchor="start" x="880" y="-29.5" font-family="Helvetica,sans-Serif" font-size="10.00">&#45; CalculateNearbyWorkspaces()</text>
<text text-anchor="start" x="880" y="-18.5" font-family="Helvetica,sans-Serif" font-size="10.00">&#45; CalculateCommutingLocations()</text>
<text text-anchor="start" x="880" y="-7.5" font-family="Helvetica,sans-Serif" font-size="10.00">&#45; AssignActive()</text>
</a>
</g>
</g>
<!-- Node1&#45;&gt;Node7 -->
<g id="edge6" class="edge"><title>Node1&#45;&gt;Node7</title>
<path fill="none" stroke="midnightblue" d="M588.501,-346.249C665.655,-336.556 779.862,-313.021 862,-256 865.342,-253.68 868.605,-251.195 871.787,-248.574"/>
<polygon fill="none" stroke="midnightblue" points="587.849,-342.802 578.34,-347.473 588.686,-349.752 587.849,-342.802"/>
</g>
</g>
</svg>
