<?xml version="1.0" encoding="UTF-8" standalone="no"?>
<!DOCTYPE svg PUBLIC "-//W3C//DTD SVG 1.1//EN"
 "http://www.w3.org/Graphics/SVG/1.1/DTD/svg11.dtd">
<!-- Generated by graphviz version 2.36.0 (20140111.2315)
 -->
<!-- Title: stride::viewers::MapViewer::MapViewer Pages: 1 -->
<svg width="316pt" height="87pt"
 viewBox="0.00 0.00 316.00 87.00" xmlns="http://www.w3.org/2000/svg" xmlns:xlink="http://www.w3.org/1999/xlink">
<g id="graph0" class="graph" transform="scale(1 1) rotate(0) translate(4 83)">
<title>stride::viewers::MapViewer::MapViewer</title>
<polygon fill="white" stroke="none" points="-4,4 -4,-83 312,-83 312,4 -4,4"/>
<!-- Node1 -->
<g id="node1" class="node"><title>Node1</title>
<polygon fill="#bfbfbf" stroke="black" points="0.5,-24 0.5,-54 135.5,-54 135.5,-24 0.5,-24"/>
<text text-anchor="start" x="8.5" y="-42" font-family="Helvetica,sans-Serif" font-size="10.00">stride::viewers::MapViewer</text>
<text text-anchor="middle" x="68" y="-31" font-family="Helvetica,sans-Serif" font-size="10.00">::MapViewer</text>
</g>
<!-- Node2 -->
<g id="node2" class="node"><title>Node2</title>
<g id="a_node2"><a xlink:href="../../d5/dcb/a00170.html#a682fd168e97785d7342bc192baeac078" target="_top" xlink:title="Let viewer perform update. ">
<polygon fill="white" stroke="black" points="172.5,-49 172.5,-79 307.5,-79 307.5,-49 172.5,-49"/>
<text text-anchor="start" x="180.5" y="-67" font-family="Helvetica,sans-Serif" font-size="10.00">stride::viewers::MapViewer</text>
<text text-anchor="middle" x="240" y="-56" font-family="Helvetica,sans-Serif" font-size="10.00">::Update</text>
</a>
</g>
</g>
<!-- Node1&#45;&gt;Node2 -->
<g id="edge1" class="edge"><title>Node1&#45;&gt;Node2</title>
<path fill="none" stroke="midnightblue" d="M135.701,-48.8089C144.487,-50.101 153.547,-51.4333 162.48,-52.7471"/>
<polygon fill="midnightblue" stroke="midnightblue" points="162.089,-56.2271 172.492,-54.2194 163.107,-49.3016 162.089,-56.2271"/>
</g>
<!-- Node3 -->
<g id="node3" class="node"><title>Node3</title>
<g id="a_node3"><a xlink:href="../../d5/dcb/a00170.html#a347ee82efaa83090012fa331c855285a" target="_top" xlink:title="Destructor. ">
<polygon fill="white" stroke="black" points="172.5,-0 172.5,-30 307.5,-30 307.5,-0 172.5,-0"/>
<text text-anchor="start" x="180.5" y="-18" font-family="Helvetica,sans-Serif" font-size="10.00">stride::viewers::MapViewer</text>
<text text-anchor="middle" x="240" y="-7" font-family="Helvetica,sans-Serif" font-size="10.00">::~MapViewer</text>
</a>
</g>
</g>
<!-- Node1&#45;&gt;Node3 -->
<g id="edge2" class="edge"><title>Node1&#45;&gt;Node3</title>
<path fill="none" stroke="midnightblue" d="M135.701,-29.5834C144.487,-28.3431 153.547,-27.064 162.48,-25.8028"/>
<polygon fill="midnightblue" stroke="midnightblue" points="163.079,-29.253 172.492,-24.3894 162.101,-22.3218 163.079,-29.253"/>
</g>
</g>
</svg>
