<?xml version="1.0" encoding="UTF-8" standalone="no"?>
<!DOCTYPE svg PUBLIC "-//W3C//DTD SVG 1.1//EN"
 "http://www.w3.org/Graphics/SVG/1.1/DTD/svg11.dtd">
<!-- Generated by graphviz version 2.36.0 (20140111.2315)
 -->
<!-- Title: TransmissionProfile.h Pages: 1 -->
<!--zoomable 196 -->
<svg id="main" version="1.1" xmlns="http://www.w3.org/2000/svg" xmlns:xlink="http://www.w3.org/1999/xlink" xml:space="preserve" onload="init(evt)">
<style type="text/css"><![CDATA[
.edge:hover path { stroke: red; }
.edge:hover polygon { stroke: red; fill: red; }
]]></style>
<script type="text/javascript"><![CDATA[
var edges = document.getElementsByTagName('g');
if (edges && edges.length) {
  for (var i=0;i<edges.length;i++) {
    if (edges[i].id.substr(0,4)=='edge') {
      edges[i].setAttribute('class','edge');
    }
  }
}
]]></script>
        <defs>
                <circle id="rim" cx="0" cy="0" r="7"/>
                <circle id="rim2" cx="0" cy="0" r="3.5"/>
                <g id="zoomPlus">
                        <use xlink:href="#rim" fill="#404040">
                                <set attributeName="fill" to="#808080" begin="zoomplus.mouseover" end="zoomplus.mouseout"/>
                        </use>
                        <path d="M-4,0h8M0,-4v8" fill="none" stroke="white" stroke-width="1.5" pointer-events="none"/>
                </g>
                <g id="zoomMin">
                        <use xlink:href="#rim" fill="#404040">
                                <set attributeName="fill" to="#808080" begin="zoomminus.mouseover" end="zoomminus.mouseout"/>
                        </use>
                        <path d="M-4,0h8" fill="none" stroke="white" stroke-width="1.5" pointer-events="none"/>
                </g>
                <g id="dirArrow">
                        <path fill="none" stroke="white" stroke-width="1.5" d="M0,-3.0v7 M-2.5,-0.5L0,-3.0L2.5,-0.5"/>
                </g>
               <g id="resetDef">
                       <use xlink:href="#rim2" fill="#404040">
                               <set attributeName="fill" to="#808080" begin="reset.mouseover" end="reset.mouseout"/>
                       </use>
               </g>
        </defs>

<script type="text/javascript">
var viewWidth = 1615;
var viewHeight = 196;
var sectionId = 'dynsection-1';
</script>
<script xlink:href="../../svgpan.js"/>
<svg id="graph" class="graph">
<g id="viewport">
<title>TransmissionProfile.h</title>
<polygon fill="white" stroke="none" points="-4,4 -4,-192 1611,-192 1611,4 -4,4"/>
<!-- Node1 -->
<g id="node1" class="node"><title>Node1</title>
<polygon fill="#bfbfbf" stroke="black" points="463.5,-168.5 463.5,-187.5 574.5,-187.5 574.5,-168.5 463.5,-168.5"/>
<text text-anchor="middle" x="519" y="-175.5" font-family="Helvetica,sans-Serif" font-size="10.00">TransmissionProfile.h</text>
</g>
<!-- Node2 -->
<g id="node2" class="node"><title>Node2</title>
<g id="a_node2"><a xlink:href="../../d8/dfc/a00327.html" target="_top" xlink:title="Header for the Infector class. ">
<polygon fill="white" stroke="black" points="141,-112.5 141,-131.5 199,-131.5 199,-112.5 141,-112.5"/>
<text text-anchor="middle" x="170" y="-119.5" font-family="Helvetica,sans-Serif" font-size="10.00">Infector.h</text>
</a>
</g>
</g>
<!-- Node1&#45;&gt;Node2 -->
<g id="edge1" class="edge"><title>Node1&#45;&gt;Node2</title>
<path fill="none" stroke="midnightblue" d="M453.736,-166.902C377.602,-155.122 255.065,-136.162 199.312,-127.535"/>
<polygon fill="midnightblue" stroke="midnightblue" points="453.282,-170.373 463.7,-168.444 454.353,-163.456 453.282,-170.373"/>
</g>
<!-- Node7 -->
<g id="node7" class="node"><title>Node7</title>
<g id="a_node7"><a xlink:href="../../da/db6/a00427.html" target="_top" xlink:title="Omplemenatation for the TransmissionProfile class. ">
<polygon fill="white" stroke="black" points="458,-112.5 458,-131.5 580,-131.5 580,-112.5 458,-112.5"/>
<text text-anchor="middle" x="519" y="-119.5" font-family="Helvetica,sans-Serif" font-size="10.00">TransmissionProfile.cpp</text>
</a>
</g>
</g>
<!-- Node1&#45;&gt;Node7 -->
<g id="edge6" class="edge"><title>Node1&#45;&gt;Node7</title>
<path fill="none" stroke="midnightblue" d="M519,-157.805C519,-148.91 519,-138.78 519,-131.751"/>
<polygon fill="midnightblue" stroke="midnightblue" points="515.5,-158.083 519,-168.083 522.5,-158.083 515.5,-158.083"/>
</g>
<!-- Node8 -->
<g id="node8" class="node"><title>Node8</title>
<g id="a_node8"><a xlink:href="../../d9/da1/a00396.html" target="_top" xlink:title="Header for the Simulator class. ">
<polygon fill="white" stroke="black" points="838,-112.5 838,-131.5 880,-131.5 880,-112.5 838,-112.5"/>
<text text-anchor="middle" x="859" y="-119.5" font-family="Helvetica,sans-Serif" font-size="10.00">Sim.h</text>
</a>
</g>
</g>
<!-- Node1&#45;&gt;Node8 -->
<g id="edge7" class="edge"><title>Node1&#45;&gt;Node8</title>
<path fill="none" stroke="midnightblue" d="M583.043,-166.829C660.832,-154.474 787.847,-134.301 837.836,-126.361"/>
<polygon fill="midnightblue" stroke="midnightblue" points="582.201,-163.418 572.874,-168.444 583.299,-170.332 582.201,-163.418"/>
</g>
<!-- Node3 -->
<g id="node3" class="node"><title>Node3</title>
<g id="a_node3"><a xlink:href="../../de/dc8/a00325.html" target="_top" xlink:title="Implementation of Infector algorithms. ">
<polygon fill="white" stroke="black" points="0,-56.5 0,-75.5 68,-75.5 68,-56.5 0,-56.5"/>
<text text-anchor="middle" x="34" y="-63.5" font-family="Helvetica,sans-Serif" font-size="10.00">Infector.cpp</text>
</a>
</g>
</g>
<!-- Node2&#45;&gt;Node3 -->
<g id="edge2" class="edge"><title>Node2&#45;&gt;Node3</title>
<path fill="none" stroke="midnightblue" d="M138.865,-108.638C113.343,-98.504 77.8913,-84.4274 55.4488,-75.5164"/>
<polygon fill="midnightblue" stroke="midnightblue" points="137.865,-112.006 148.45,-112.444 140.448,-105.5 137.865,-112.006"/>
</g>
<!-- Node4 -->
<g id="node4" class="node"><title>Node4</title>
<g id="a_node4"><a xlink:href="../../dd/d4e/a00329.html" target="_top" xlink:title="Header for the InfectorMap. ">
<polygon fill="white" stroke="black" points="86.5,-56.5 86.5,-75.5 163.5,-75.5 163.5,-56.5 86.5,-56.5"/>
<text text-anchor="middle" x="125" y="-63.5" font-family="Helvetica,sans-Serif" font-size="10.00">InfectorMap.h</text>
</a>
</g>
</g>
<!-- Node2&#45;&gt;Node4 -->
<g id="edge3" class="edge"><title>Node2&#45;&gt;Node4</title>
<path fill="none" stroke="midnightblue" d="M155.953,-104.144C148.113,-94.7357 138.671,-83.4046 132.293,-75.7511"/>
<polygon fill="midnightblue" stroke="midnightblue" points="153.479,-106.641 162.569,-112.083 158.856,-102.16 153.479,-106.641"/>
</g>
<!-- Node6 -->
<g id="node6" class="node"><title>Node6</title>
<g id="a_node6"><a xlink:href="../../d8/d8e/a00344.html" target="_top" xlink:title="Implementation of Infector algorithms. ">
<polygon fill="white" stroke="black" points="182,-56.5 182,-75.5 250,-75.5 250,-56.5 182,-56.5"/>
<text text-anchor="middle" x="216" y="-63.5" font-family="Helvetica,sans-Serif" font-size="10.00">LogPolicy.h</text>
</a>
</g>
</g>
<!-- Node2&#45;&gt;Node6 -->
<g id="edge5" class="edge"><title>Node2&#45;&gt;Node6</title>
<path fill="none" stroke="midnightblue" d="M184.114,-104.431C192.176,-94.9673 201.959,-83.4827 208.545,-75.7511"/>
<polygon fill="midnightblue" stroke="midnightblue" points="181.416,-102.201 177.596,-112.083 186.745,-106.74 181.416,-102.201"/>
</g>
<!-- Node5 -->
<g id="node5" class="node"><title>Node5</title>
<g id="a_node5"><a xlink:href="../../d7/d93/a00397.html" target="_top" xlink:title="Implementation for the SimBuilder class. ">
<polygon fill="white" stroke="black" points="159.5,-0.5 159.5,-19.5 242.5,-19.5 242.5,-0.5 159.5,-0.5"/>
<text text-anchor="middle" x="201" y="-7.5" font-family="Helvetica,sans-Serif" font-size="10.00">SimBuilder.cpp</text>
</a>
</g>
</g>
<!-- Node4&#45;&gt;Node5 -->
<g id="edge4" class="edge"><title>Node4&#45;&gt;Node5</title>
<path fill="none" stroke="midnightblue" d="M145.576,-50.3804C159.312,-40.6204 176.925,-28.1057 188.567,-19.8339"/>
<polygon fill="midnightblue" stroke="midnightblue" points="143.335,-47.6787 137.211,-56.324 147.39,-53.385 143.335,-47.6787"/>
</g>
<!-- Node8&#45;&gt;Node5 -->
<g id="edge14" class="edge"><title>Node8&#45;&gt;Node5</title>
<path fill="none" stroke="midnightblue" d="M827.74,-119.43C716.977,-113.741 347.166,-93.6067 297,-76 278.673,-69.5677 233.416,-35.8897 212.251,-19.7034"/>
<polygon fill="midnightblue" stroke="midnightblue" points="827.756,-122.936 837.922,-119.95 828.113,-115.945 827.756,-122.936"/>
</g>
<!-- Node9 -->
<g id="node9" class="node"><title>Node9</title>
<g id="a_node9"><a xlink:href="../../d3/db1/a00200.html" target="_top" xlink:title="Calibrator.cpp">
<polygon fill="white" stroke="black" points="306.5,-56.5 306.5,-75.5 383.5,-75.5 383.5,-56.5 306.5,-56.5"/>
<text text-anchor="middle" x="345" y="-63.5" font-family="Helvetica,sans-Serif" font-size="10.00">Calibrator.cpp</text>
</a>
</g>
</g>
<!-- Node8&#45;&gt;Node9 -->
<g id="edge8" class="edge"><title>Node8&#45;&gt;Node9</title>
<path fill="none" stroke="midnightblue" d="M827.313,-118.918C751.842,-113.748 555.609,-99.0492 393,-76 389.978,-75.5716 386.857,-75.0858 383.724,-74.567"/>
<polygon fill="midnightblue" stroke="midnightblue" points="827.34,-122.428 837.553,-119.612 827.813,-115.444 827.34,-122.428"/>
</g>
<!-- Node10 -->
<g id="node10" class="node"><title>Node10</title>
<g id="a_node10"><a xlink:href="../../d9/d39/a00257.html" target="_top" xlink:title="Implementation for the DiseaseSeeder class. ">
<polygon fill="white" stroke="black" points="402,-56.5 402,-75.5 504,-75.5 504,-56.5 402,-56.5"/>
<text text-anchor="middle" x="453" y="-63.5" font-family="Helvetica,sans-Serif" font-size="10.00">DiseaseSeeder.cpp</text>
</a>
</g>
</g>
<!-- Node8&#45;&gt;Node10 -->
<g id="edge9" class="edge"><title>Node8&#45;&gt;Node10</title>
<path fill="none" stroke="midnightblue" d="M827.853,-117.156C767.199,-109.626 629.014,-92.2438 513,-76 510.079,-75.591 507.08,-75.1639 504.053,-74.7274"/>
<polygon fill="midnightblue" stroke="midnightblue" points="827.563,-120.647 837.918,-118.404 828.424,-113.7 827.563,-120.647"/>
</g>
<!-- Node11 -->
<g id="node11" class="node"><title>Node11</title>
<g id="a_node11"><a xlink:href="../../d9/d5e/a00295.html" target="_top" xlink:title="GuiControllerBackend.cpp">
<polygon fill="white" stroke="black" points="522.5,-56.5 522.5,-75.5 653.5,-75.5 653.5,-56.5 522.5,-56.5"/>
<text text-anchor="middle" x="588" y="-63.5" font-family="Helvetica,sans-Serif" font-size="10.00">GuiControllerBackend.cpp</text>
</a>
</g>
</g>
<!-- Node8&#45;&gt;Node11 -->
<g id="edge10" class="edge"><title>Node8&#45;&gt;Node11</title>
<path fill="none" stroke="midnightblue" d="M827.832,-114.789C779.388,-105.136 685.905,-86.5087 631.053,-75.5788"/>
<polygon fill="midnightblue" stroke="midnightblue" points="827.244,-118.241 837.735,-116.763 828.612,-111.376 827.244,-118.241"/>
</g>
<!-- Node12 -->
<g id="node12" class="node"><title>Node12</title>
<g id="a_node12"><a xlink:href="../../d7/d00/a00401.html" target="_top" xlink:title="SimWorker.cpp">
<polygon fill="white" stroke="black" points="672,-56.5 672,-75.5 756,-75.5 756,-56.5 672,-56.5"/>
<text text-anchor="middle" x="714" y="-63.5" font-family="Helvetica,sans-Serif" font-size="10.00">SimWorker.cpp</text>
</a>
</g>
</g>
<!-- Node8&#45;&gt;Node12 -->
<g id="edge11" class="edge"><title>Node8&#45;&gt;Node12</title>
<path fill="none" stroke="midnightblue" d="M828.455,-109.625C801.154,-99.4574 761.752,-84.7835 737.027,-75.5756"/>
<polygon fill="midnightblue" stroke="midnightblue" points="827.323,-112.938 837.916,-113.148 829.766,-106.378 827.323,-112.938"/>
</g>
<!-- Node13 -->
<g id="node13" class="node"><title>Node13</title>
<g id="a_node13"><a xlink:href="../../d3/dc9/a00355.html" target="_top" xlink:title="MapViewer.cpp">
<polygon fill="white" stroke="black" points="774,-56.5 774,-75.5 858,-75.5 858,-56.5 774,-56.5"/>
<text text-anchor="middle" x="816" y="-63.5" font-family="Helvetica,sans-Serif" font-size="10.00">MapViewer.cpp</text>
</a>
</g>
</g>
<!-- Node8&#45;&gt;Node13 -->
<g id="edge12" class="edge"><title>Node8&#45;&gt;Node13</title>
<path fill="none" stroke="midnightblue" d="M845.578,-104.144C838.086,-94.7357 829.063,-83.4046 822.968,-75.7511"/>
<polygon fill="midnightblue" stroke="midnightblue" points="842.932,-106.44 851.899,-112.083 848.408,-102.08 842.932,-106.44"/>
</g>
<!-- Node14 -->
<g id="node14" class="node"><title>Node14</title>
<g id="a_node14"><a xlink:href="../../db/dbc/a00395.html" target="_top" xlink:title="Implementation for the Simulator class. ">
<polygon fill="white" stroke="black" points="875.5,-56.5 875.5,-75.5 928.5,-75.5 928.5,-56.5 875.5,-56.5"/>
<text text-anchor="middle" x="902" y="-63.5" font-family="Helvetica,sans-Serif" font-size="10.00">Sim.cpp</text>
</a>
</g>
</g>
<!-- Node8&#45;&gt;Node14 -->
<g id="edge13" class="edge"><title>Node8&#45;&gt;Node14</title>
<path fill="none" stroke="midnightblue" d="M872.422,-104.144C879.914,-94.7357 888.937,-83.4046 895.032,-75.7511"/>
<polygon fill="midnightblue" stroke="midnightblue" points="869.592,-102.08 866.101,-112.083 875.068,-106.44 869.592,-102.08"/>
</g>
<!-- Node15 -->
<g id="node15" class="node"><title>Node15</title>
<g id="a_node15"><a xlink:href="../../d1/d53/a00399.html" target="_top" xlink:title="Implementation for SimRunner. ">
<polygon fill="white" stroke="black" points="946,-56.5 946,-75.5 1030,-75.5 1030,-56.5 946,-56.5"/>
<text text-anchor="middle" x="988" y="-63.5" font-family="Helvetica,sans-Serif" font-size="10.00">SimRunner.cpp</text>
</a>
</g>
</g>
<!-- Node8&#45;&gt;Node15 -->
<g id="edge15" class="edge"><title>Node8&#45;&gt;Node15</title>
<path fill="none" stroke="midnightblue" d="M888.854,-108.503C913.038,-98.3795 946.462,-84.388 967.655,-75.5164"/>
<polygon fill="midnightblue" stroke="midnightblue" points="887.313,-105.354 879.44,-112.444 890.016,-111.811 887.313,-105.354"/>
</g>
<!-- Node16 -->
<g id="node16" class="node"><title>Node16</title>
<g id="a_node16"><a xlink:href="../../dd/d4c/a00177.html" target="_top" xlink:title="Definition of Observer for SimEvents for commandline interface usage. ">
<polygon fill="white" stroke="black" points="1048.5,-56.5 1048.5,-75.5 1149.5,-75.5 1149.5,-56.5 1048.5,-56.5"/>
<text text-anchor="middle" x="1099" y="-63.5" font-family="Helvetica,sans-Serif" font-size="10.00">AdoptedViewer.cpp</text>
</a>
</g>
</g>
<!-- Node8&#45;&gt;Node16 -->
<g id="edge16" class="edge"><title>Node8&#45;&gt;Node16</title>
<path fill="none" stroke="midnightblue" d="M890.105,-114.001C933.912,-104.145 1013.7,-86.1921 1060.98,-75.5555"/>
<polygon fill="midnightblue" stroke="midnightblue" points="889.286,-110.598 880.298,-116.208 890.823,-117.427 889.286,-110.598"/>
</g>
<!-- Node17 -->
<g id="node17" class="node"><title>Node17</title>
<g id="a_node17"><a xlink:href="../../dc/d31/a00208.html" target="_top" xlink:title="Definition of Observer for SimEvents for commandline interface usage. ">
<polygon fill="white" stroke="black" points="1167.5,-56.5 1167.5,-75.5 1244.5,-75.5 1244.5,-56.5 1167.5,-56.5"/>
<text text-anchor="middle" x="1206" y="-63.5" font-family="Helvetica,sans-Serif" font-size="10.00">CliViewer.cpp</text>
</a>
</g>
</g>
<!-- Node8&#45;&gt;Node17 -->
<g id="edge17" class="edge"><title>Node8&#45;&gt;Node17</title>
<path fill="none" stroke="midnightblue" d="M890.104,-116.695C944.513,-109.08 1060.46,-92.4783 1158,-76 1161.01,-75.4915 1164.12,-74.9481 1167.25,-74.3896"/>
<polygon fill="midnightblue" stroke="midnightblue" points="889.487,-113.247 880.067,-118.095 890.454,-120.18 889.487,-113.247"/>
</g>
<!-- Node18 -->
<g id="node18" class="node"><title>Node18</title>
<g id="a_node18"><a xlink:href="../../de/d55/a00323.html" target="_top" xlink:title="Definition of Observer for SimEvents for commandline interface usage. ">
<polygon fill="white" stroke="black" points="1262.5,-56.5 1262.5,-75.5 1363.5,-75.5 1363.5,-56.5 1262.5,-56.5"/>
<text text-anchor="middle" x="1313" y="-63.5" font-family="Helvetica,sans-Serif" font-size="10.00">InfectedViewer.cpp</text>
</a>
</g>
</g>
<!-- Node8&#45;&gt;Node18 -->
<g id="edge18" class="edge"><title>Node8&#45;&gt;Node18</title>
<path fill="none" stroke="midnightblue" d="M890.679,-117.764C957.652,-110.839 1118.52,-93.7605 1253,-76 1256.03,-75.6001 1259.14,-75.1752 1262.28,-74.7363"/>
<polygon fill="midnightblue" stroke="midnightblue" points="889.975,-114.318 880.387,-118.825 890.693,-121.281 889.975,-114.318"/>
</g>
<!-- Node19 -->
<g id="node19" class="node"><title>Node19</title>
<g id="a_node19"><a xlink:href="../../db/d7e/a00372.html" target="_top" xlink:title="Definition of Observer for SimEvents for commandline interface usage. ">
<polygon fill="white" stroke="black" points="1381.5,-56.5 1381.5,-75.5 1482.5,-75.5 1482.5,-56.5 1381.5,-56.5"/>
<text text-anchor="middle" x="1432" y="-63.5" font-family="Helvetica,sans-Serif" font-size="10.00">PersonsViewer.cpp</text>
</a>
</g>
</g>
<!-- Node8&#45;&gt;Node19 -->
<g id="edge19" class="edge"><title>Node8&#45;&gt;Node19</title>
<path fill="none" stroke="midnightblue" d="M890.458,-118.916C970.813,-113.446 1190.12,-97.5975 1372,-76 1375.03,-75.6398 1378.15,-75.2457 1381.29,-74.8301"/>
<polygon fill="midnightblue" stroke="midnightblue" points="889.801,-115.452 880.06,-119.618 890.273,-122.436 889.801,-115.452"/>
</g>
<!-- Node20 -->
<g id="node20" class="node"><title>Node20</title>
<g id="a_node20"><a xlink:href="../../df/d15/a00416.html" target="_top" xlink:title="Definition of Observer for SimEvents for commandline interface usage. ">
<polygon fill="white" stroke="black" points="1500.5,-56.5 1500.5,-75.5 1607.5,-75.5 1607.5,-56.5 1500.5,-56.5"/>
<text text-anchor="middle" x="1554" y="-63.5" font-family="Helvetica,sans-Serif" font-size="10.00">SummaryViewer.cpp</text>
</a>
</g>
</g>
<!-- Node8&#45;&gt;Node20 -->
<g id="edge20" class="edge"><title>Node8&#45;&gt;Node20</title>
<path fill="none" stroke="midnightblue" d="M890.084,-119.568C982.065,-115.163 1260.85,-100.602 1491,-76 1494.08,-75.6712 1497.23,-75.3066 1500.42,-74.9181"/>
<polygon fill="midnightblue" stroke="midnightblue" points="889.875,-116.074 880.052,-120.043 890.206,-123.066 889.875,-116.074"/>
</g>
</g>
</svg>
        <g id="navigator" transform="translate(0 0)" fill="#404254">
                <rect fill="#f2f5e9" fill-opacity="0.5" stroke="#606060" stroke-width=".5" x="0" y="0" width="60" height="60"/>
                <use id="zoomplus" xlink:href="#zoomPlus" x="17" y="9" onmousedown="handleZoom(evt,'in')"/>
                <use id="zoomminus" xlink:href="#zoomMin" x="42" y="9" onmousedown="handleZoom(evt,'out')"/>
                <use id="reset" xlink:href="#resetDef" x="30" y="36" onmousedown="handleReset()"/>
                <g id="arrowUp" xlink:href="#dirArrow" transform="translate(30 24)" onmousedown="handlePan(0,-1)">
                  <use xlink:href="#rim" fill="#404040">
                        <set attributeName="fill" to="#808080" begin="arrowUp.mouseover" end="arrowUp.mouseout"/>
                  </use>
                  <path fill="none" stroke="white" stroke-width="1.5" d="M0,-3.0v7 M-2.5,-0.5L0,-3.0L2.5,-0.5"/>
                </g>
                <g id="arrowRight" xlink:href="#dirArrow" transform="rotate(90) translate(36 -43)" onmousedown="handlePan(1,0)">
                  <use xlink:href="#rim" fill="#404040">
                        <set attributeName="fill" to="#808080" begin="arrowRight.mouseover" end="arrowRight.mouseout"/>
                  </use>
                  <path fill="none" stroke="white" stroke-width="1.5" d="M0,-3.0v7 M-2.5,-0.5L0,-3.0L2.5,-0.5"/>
                </g>
                <g id="arrowDown" xlink:href="#dirArrow" transform="rotate(180) translate(-30 -48)" onmousedown="handlePan(0,1)">
                  <use xlink:href="#rim" fill="#404040">
                        <set attributeName="fill" to="#808080" begin="arrowDown.mouseover" end="arrowDown.mouseout"/>
                  </use>
                  <path fill="none" stroke="white" stroke-width="1.5" d="M0,-3.0v7 M-2.5,-0.5L0,-3.0L2.5,-0.5"/>
                </g>
                <g id="arrowLeft" xlink:href="#dirArrow" transform="rotate(270) translate(-36 17)" onmousedown="handlePan(-1,0)">
                  <use xlink:href="#rim" fill="#404040">
                        <set attributeName="fill" to="#808080" begin="arrowLeft.mouseover" end="arrowLeft.mouseout"/>
                  </use>
                  <path fill="none" stroke="white" stroke-width="1.5" d="M0,-3.0v7 M-2.5,-0.5L0,-3.0L2.5,-0.5"/>
                </g>
        </g>
        <svg viewBox="0 0 15 15" width="100%" height="30px" preserveAspectRatio="xMaxYMin meet">
         <g id="arrow_out" transform="scale(0.3 0.3)">
          <a xlink:href="a00857_org.svg" target="_base">
           <rect id="button" ry="5" rx="5" y="6" x="6" height="38" width="38"
                fill="#f2f5e9" fill-opacity="0.5" stroke="#606060" stroke-width="1.0"/>
           <path id="arrow"
             d="M 11.500037,31.436501 C 11.940474,20.09759 22.043105,11.32322 32.158766,21.979434 L 37.068811,17.246167 C 37.068811,17.246167 37.088388,32 37.088388,32 L 22.160133,31.978069 C 22.160133,31.978069 26.997745,27.140456 26.997745,27.140456 C 18.528582,18.264221 13.291696,25.230495 11.500037,31.436501 z"
             style="fill:#404040;"/>
          </a>
         </g>
        </svg>
</svg>
