<?xml version="1.0" encoding="UTF-8" standalone="no"?>
<!DOCTYPE svg PUBLIC "-//W3C//DTD SVG 1.1//EN"
 "http://www.w3.org/Graphics/SVG/1.1/DTD/svg11.dtd">
<!-- Generated by graphviz version 2.36.0 (20140111.2315)
 -->
<!-- Title: main.cpp Pages: 1 -->
<svg width="1186pt" height="376pt"
 viewBox="0.00 0.00 1185.61 376.00" xmlns="http://www.w3.org/2000/svg" xmlns:xlink="http://www.w3.org/1999/xlink">
<g id="graph0" class="graph" transform="scale(1 1) rotate(0) translate(4 372)">
<title>main.cpp</title>
<polygon fill="white" stroke="none" points="-4,4 -4,-372 1181.61,-372 1181.61,4 -4,4"/>
<!-- Node1 -->
<g id="node1" class="node"><title>Node1</title>
<polygon fill="#bfbfbf" stroke="black" points="869.608,-348.5 869.608,-367.5 925.608,-367.5 925.608,-348.5 869.608,-348.5"/>
<text text-anchor="middle" x="897.608" y="-355.5" font-family="Helvetica,sans-Serif" font-size="10.00">main.cpp</text>
</g>
<!-- Node2 -->
<g id="node2" class="node"><title>Node2</title>
<g id="a_node2"><a xlink:href="../../dd/de3/a00201.html" target="_top" xlink:title="Calibrator.h">
<polygon fill="white" stroke="black" points="713.108,-180.5 713.108,-199.5 780.108,-199.5 780.108,-180.5 713.108,-180.5"/>
<text text-anchor="middle" x="746.608" y="-187.5" font-family="Helvetica,sans-Serif" font-size="10.00">Calibrator.h</text>
</a>
</g>
</g>
<!-- Node1&#45;&gt;Node2 -->
<g id="edge1" class="edge"><title>Node1&#45;&gt;Node2</title>
<path fill="none" stroke="midnightblue" d="M869.464,-357.305C835.462,-355.982 779.374,-348.031 751.608,-312 728.803,-282.406 735.249,-235.594 741.325,-209.727"/>
<polygon fill="midnightblue" stroke="midnightblue" points="744.792,-210.301 743.903,-199.744 738.014,-208.552 744.792,-210.301"/>
</g>
<!-- Node19 -->
<g id="node19" class="node"><title>Node19</title>
<g id="a_node19"><a xlink:href="../../d9/d01/a00227.html" target="_top" xlink:title="ConfigFileCalibrationRunner.h">
<polygon fill="white" stroke="black" points="901.108,-292.5 901.108,-311.5 1048.11,-311.5 1048.11,-292.5 901.108,-292.5"/>
<text text-anchor="middle" x="974.608" y="-299.5" font-family="Helvetica,sans-Serif" font-size="10.00">ConfigFileCalibrationRunner.h</text>
</a>
</g>
</g>
<!-- Node1&#45;&gt;Node19 -->
<g id="edge21" class="edge"><title>Node1&#45;&gt;Node19</title>
<path fill="none" stroke="midnightblue" d="M909.979,-348.324C921.767,-340.058 939.74,-327.453 953.744,-317.632"/>
<polygon fill="midnightblue" stroke="midnightblue" points="956.09,-320.262 962.267,-311.655 952.07,-314.531 956.09,-320.262"/>
</g>
<!-- Node21 -->
<g id="node21" class="node"><title>Node21</title>
<g id="a_node21"><a xlink:href="../../db/d4f/a00420.html" target="_top" xlink:title="TestCalibrationRunner.h">
<polygon fill="white" stroke="black" points="760.608,-292.5 760.608,-311.5 882.608,-311.5 882.608,-292.5 760.608,-292.5"/>
<text text-anchor="middle" x="821.608" y="-299.5" font-family="Helvetica,sans-Serif" font-size="10.00">TestCalibrationRunner.h</text>
</a>
</g>
</g>
<!-- Node1&#45;&gt;Node21 -->
<g id="edge31" class="edge"><title>Node1&#45;&gt;Node21</title>
<path fill="none" stroke="midnightblue" d="M885.397,-348.324C873.832,-340.107 856.233,-327.602 842.447,-317.807"/>
<polygon fill="midnightblue" stroke="midnightblue" points="844.22,-314.773 834.041,-311.834 840.166,-320.479 844.22,-314.773"/>
</g>
<!-- Node22 -->
<g id="node22" class="node"><title>Node22</title>
<polygon fill="white" stroke="#bfbfbf" points="1066.61,-292.5 1066.61,-311.5 1154.61,-311.5 1154.61,-292.5 1066.61,-292.5"/>
<text text-anchor="middle" x="1110.61" y="-299.5" font-family="Helvetica,sans-Serif" font-size="10.00">tclap/CmdLine.h</text>
</g>
<!-- Node1&#45;&gt;Node22 -->
<g id="edge37" class="edge"><title>Node1&#45;&gt;Node22</title>
<path fill="none" stroke="midnightblue" d="M925.893,-349.829C962.037,-340.666 1024.97,-324.712 1067.2,-314.005"/>
<polygon fill="midnightblue" stroke="midnightblue" points="1068.1,-317.387 1076.93,-311.537 1066.38,-310.602 1068.1,-317.387"/>
</g>
<!-- Node3 -->
<g id="node3" class="node"><title>Node3</title>
<polygon fill="white" stroke="#bfbfbf" points="857.108,-113 857.108,-143 958.108,-143 958.108,-113 857.108,-113"/>
<text text-anchor="start" x="865.108" y="-131" font-family="Helvetica,sans-Serif" font-size="10.00">boost/property_tree</text>
<text text-anchor="middle" x="907.608" y="-120" font-family="Helvetica,sans-Serif" font-size="10.00">/ptree.hpp</text>
</g>
<!-- Node2&#45;&gt;Node3 -->
<g id="edge2" class="edge"><title>Node2&#45;&gt;Node3</title>
<path fill="none" stroke="midnightblue" d="M769.675,-180.403C793.291,-171.603 830.667,-157.674 860.558,-146.534"/>
<polygon fill="midnightblue" stroke="midnightblue" points="861.825,-149.797 869.974,-143.025 859.381,-143.238 861.825,-149.797"/>
</g>
<!-- Node4 -->
<g id="node4" class="node"><title>Node4</title>
<polygon fill="white" stroke="#bfbfbf" points="122.108,-118.5 122.108,-137.5 157.108,-137.5 157.108,-118.5 122.108,-118.5"/>
<text text-anchor="middle" x="139.608" y="-125.5" font-family="Helvetica,sans-Serif" font-size="10.00">map</text>
</g>
<!-- Node2&#45;&gt;Node4 -->
<g id="edge3" class="edge"><title>Node2&#45;&gt;Node4</title>
<path fill="none" stroke="midnightblue" d="M712.796,-188.341C604.751,-185.929 268.895,-175.983 165.608,-144 163.965,-143.491 162.314,-142.865 160.684,-142.159"/>
<polygon fill="midnightblue" stroke="midnightblue" points="162.267,-139.037 151.781,-137.52 159.032,-145.245 162.267,-139.037"/>
</g>
<!-- Node5 -->
<g id="node5" class="node"><title>Node5</title>
<g id="a_node5"><a xlink:href="../../d2/daf/a00346.html" target="_top" xlink:title="Logging (spdlog) utilities. ">
<polygon fill="white" stroke="black" points="175.108,-118.5 175.108,-137.5 252.108,-137.5 252.108,-118.5 175.108,-118.5"/>
<text text-anchor="middle" x="213.608" y="-125.5" font-family="Helvetica,sans-Serif" font-size="10.00">util/LogUtils.h</text>
</a>
</g>
</g>
<!-- Node2&#45;&gt;Node5 -->
<g id="edge4" class="edge"><title>Node2&#45;&gt;Node5</title>
<path fill="none" stroke="midnightblue" d="M712.862,-185.201C621.509,-174.918 369.099,-146.504 262.321,-134.484"/>
<polygon fill="midnightblue" stroke="midnightblue" points="262.479,-130.979 252.15,-133.339 261.696,-137.935 262.479,-130.979"/>
</g>
<!-- Node9 -->
<g id="node9" class="node"><title>Node9</title>
<g id="a_node9"><a xlink:href="../../d5/d05/a00385.html" target="_top" xlink:title="Interface of RNManager. ">
<polygon fill="white" stroke="black" points="649.108,-118.5 649.108,-137.5 742.108,-137.5 742.108,-118.5 649.108,-118.5"/>
<text text-anchor="middle" x="695.608" y="-125.5" font-family="Helvetica,sans-Serif" font-size="10.00">util/RNManager.h</text>
</a>
</g>
</g>
<!-- Node2&#45;&gt;Node9 -->
<g id="edge8" class="edge"><title>Node2&#45;&gt;Node9</title>
<path fill="none" stroke="midnightblue" d="M739.301,-180.403C731.575,-171.314 719.201,-156.756 709.59,-145.449"/>
<polygon fill="midnightblue" stroke="midnightblue" points="712.045,-142.933 702.902,-137.581 706.711,-147.467 712.045,-142.933"/>
</g>
<!-- Node18 -->
<g id="node18" class="node"><title>Node18</title>
<polygon fill="white" stroke="#bfbfbf" points="1067.61,-56.5 1067.61,-75.5 1111.61,-75.5 1111.61,-56.5 1067.61,-56.5"/>
<text text-anchor="middle" x="1089.61" y="-63.5" font-family="Helvetica,sans-Serif" font-size="10.00">vector</text>
</g>
<!-- Node2&#45;&gt;Node18 -->
<g id="edge20" class="edge"><title>Node2&#45;&gt;Node18</title>
<path fill="none" stroke="midnightblue" d="M749.347,-180.05C754.913,-163.53 769.217,-128.434 794.608,-112 891.302,-49.414 940.063,-97.7682 1057.3,-75.8996"/>
<polygon fill="midnightblue" stroke="midnightblue" points="1058.24,-79.2818 1067.36,-73.8848 1056.86,-72.4183 1058.24,-79.2818"/>
</g>
<!-- Node6 -->
<g id="node6" class="node"><title>Node6</title>
<polygon fill="white" stroke="#bfbfbf" points="29.6081,-56.5 29.6081,-75.5 81.6081,-75.5 81.6081,-56.5 29.6081,-56.5"/>
<text text-anchor="middle" x="55.6081" y="-63.5" font-family="Helvetica,sans-Serif" font-size="10.00">memory</text>
</g>
<!-- Node5&#45;&gt;Node6 -->
<g id="edge5" class="edge"><title>Node5&#45;&gt;Node6</title>
<path fill="none" stroke="midnightblue" d="M190.971,-118.403C163.868,-108.111 118.298,-90.8064 87.6043,-79.1504"/>
<polygon fill="midnightblue" stroke="midnightblue" points="88.7949,-75.8587 78.2037,-75.5806 86.3097,-82.4028 88.7949,-75.8587"/>
</g>
<!-- Node7 -->
<g id="node7" class="node"><title>Node7</title>
<polygon fill="white" stroke="#bfbfbf" points="100.108,-56.5 100.108,-75.5 185.108,-75.5 185.108,-56.5 100.108,-56.5"/>
<text text-anchor="middle" x="142.608" y="-63.5" font-family="Helvetica,sans-Serif" font-size="10.00">spdlog/spdlog.h</text>
</g>
<!-- Node5&#45;&gt;Node7 -->
<g id="edge6" class="edge"><title>Node5&#45;&gt;Node7</title>
<path fill="none" stroke="midnightblue" d="M203.436,-118.403C192.258,-108.958 174.091,-93.6056 160.517,-82.1342"/>
<polygon fill="midnightblue" stroke="midnightblue" points="162.659,-79.3619 152.762,-75.5806 158.141,-84.7085 162.659,-79.3619"/>
</g>
<!-- Node8 -->
<g id="node8" class="node"><title>Node8</title>
<polygon fill="white" stroke="#bfbfbf" points="946.108,-0.5 946.108,-19.5 987.108,-19.5 987.108,-0.5 946.108,-0.5"/>
<text text-anchor="middle" x="966.608" y="-7.5" font-family="Helvetica,sans-Serif" font-size="10.00">string</text>
</g>
<!-- Node5&#45;&gt;Node8 -->
<g id="edge7" class="edge"><title>Node5&#45;&gt;Node8</title>
<path fill="none" stroke="midnightblue" d="M213.003,-118.335C212.463,-103.021 213.837,-71.3438 232.608,-56 287.711,-10.9575 803.692,-10.2404 935.876,-10.8048"/>
<polygon fill="midnightblue" stroke="midnightblue" points="936.079,-14.3057 946.096,-10.8545 936.113,-7.30579 936.079,-14.3057"/>
</g>
<!-- Node9&#45;&gt;Node8 -->
<g id="edge18" class="edge"><title>Node9&#45;&gt;Node8</title>
<path fill="none" stroke="midnightblue" d="M730.112,-118.452C738.759,-116.327 748.02,-114.066 756.608,-112 824.527,-95.6593 849.727,-111.975 909.608,-76 929.239,-64.2067 945.717,-43.3815 955.828,-28.4799"/>
<polygon fill="midnightblue" stroke="midnightblue" points="959.018,-29.9922 961.521,-19.6973 953.144,-26.1844 959.018,-29.9922"/>
</g>
<!-- Node10 -->
<g id="node10" class="node"><title>Node10</title>
<g id="a_node10"><a xlink:href="../../da/dee/a00383.html" target="_top" xlink:title="Interface of Random Engine Type. ">
<polygon fill="white" stroke="black" points="957.608,-56.5 957.608,-75.5 1049.61,-75.5 1049.61,-56.5 957.608,-56.5"/>
<text text-anchor="middle" x="1003.61" y="-63.5" font-family="Helvetica,sans-Serif" font-size="10.00">RNEngineType.h</text>
</a>
</g>
</g>
<!-- Node9&#45;&gt;Node10 -->
<g id="edge9" class="edge"><title>Node9&#45;&gt;Node10</title>
<path fill="none" stroke="midnightblue" d="M728.765,-118.458C737.773,-116.243 747.543,-113.938 756.608,-112 821.807,-98.0581 897.275,-84.7113 947.463,-76.2259"/>
<polygon fill="midnightblue" stroke="midnightblue" points="948.184,-79.6539 957.465,-74.5428 947.022,-72.751 948.184,-79.6539"/>
</g>
<!-- Node11 -->
<g id="node11" class="node"><title>Node11</title>
<polygon fill="white" stroke="#bfbfbf" points="703.608,-56.5 703.608,-75.5 781.608,-75.5 781.608,-56.5 703.608,-56.5"/>
<text text-anchor="middle" x="742.608" y="-63.5" font-family="Helvetica,sans-Serif" font-size="10.00">trng/lcg64.hpp</text>
</g>
<!-- Node9&#45;&gt;Node11 -->
<g id="edge11" class="edge"><title>Node9&#45;&gt;Node11</title>
<path fill="none" stroke="midnightblue" d="M702.342,-118.403C709.392,-109.403 720.643,-95.0408 729.462,-83.7824"/>
<polygon fill="midnightblue" stroke="midnightblue" points="732.475,-85.6112 735.887,-75.5806 726.965,-81.2946 732.475,-85.6112"/>
</g>
<!-- Node12 -->
<g id="node12" class="node"><title>Node12</title>
<polygon fill="white" stroke="#bfbfbf" points="799.608,-56.5 799.608,-75.5 901.608,-75.5 901.608,-56.5 799.608,-56.5"/>
<text text-anchor="middle" x="850.608" y="-63.5" font-family="Helvetica,sans-Serif" font-size="10.00">trng/lcg64_shift.hpp</text>
</g>
<!-- Node9&#45;&gt;Node12 -->
<g id="edge12" class="edge"><title>Node9&#45;&gt;Node12</title>
<path fill="none" stroke="midnightblue" d="M717.816,-118.403C744.289,-108.156 788.722,-90.9561 818.828,-79.3021"/>
<polygon fill="midnightblue" stroke="midnightblue" points="820.379,-82.4546 828.442,-75.5806 817.852,-75.9266 820.379,-82.4546"/>
</g>
<!-- Node13 -->
<g id="node13" class="node"><title>Node13</title>
<polygon fill="white" stroke="#bfbfbf" points="242.108,-56.5 242.108,-75.5 319.108,-75.5 319.108,-56.5 242.108,-56.5"/>
<text text-anchor="middle" x="280.608" y="-63.5" font-family="Helvetica,sans-Serif" font-size="10.00">trng/mrg2.hpp</text>
</g>
<!-- Node9&#45;&gt;Node13 -->
<g id="edge13" class="edge"><title>Node9&#45;&gt;Node13</title>
<path fill="none" stroke="midnightblue" d="M649.018,-121.324C580.975,-112.864 450.199,-95.9549 329.465,-76.2432"/>
<polygon fill="midnightblue" stroke="midnightblue" points="329.744,-72.7421 319.309,-74.5743 328.609,-79.6495 329.744,-72.7421"/>
</g>
<!-- Node14 -->
<g id="node14" class="node"><title>Node14</title>
<polygon fill="white" stroke="#bfbfbf" points="337.108,-56.5 337.108,-75.5 414.108,-75.5 414.108,-56.5 337.108,-56.5"/>
<text text-anchor="middle" x="375.608" y="-63.5" font-family="Helvetica,sans-Serif" font-size="10.00">trng/mrg3.hpp</text>
</g>
<!-- Node9&#45;&gt;Node14 -->
<g id="edge14" class="edge"><title>Node9&#45;&gt;Node14</title>
<path fill="none" stroke="midnightblue" d="M649.708,-118.491C597.464,-108.791 509.286,-92.3748 424.16,-76.288"/>
<polygon fill="midnightblue" stroke="midnightblue" points="424.81,-72.849 414.334,-74.43 423.51,-79.7271 424.81,-72.849"/>
</g>
<!-- Node15 -->
<g id="node15" class="node"><title>Node15</title>
<polygon fill="white" stroke="#bfbfbf" points="432.108,-56.5 432.108,-75.5 511.108,-75.5 511.108,-56.5 432.108,-56.5"/>
<text text-anchor="middle" x="471.608" y="-63.5" font-family="Helvetica,sans-Serif" font-size="10.00">trng/yarn2.hpp</text>
</g>
<!-- Node9&#45;&gt;Node15 -->
<g id="edge15" class="edge"><title>Node9&#45;&gt;Node15</title>
<path fill="none" stroke="midnightblue" d="M663.514,-118.403C624.009,-107.822 556.829,-89.8269 513.347,-78.1802"/>
<polygon fill="midnightblue" stroke="midnightblue" points="514.207,-74.7872 503.642,-75.5806 512.396,-81.5488 514.207,-74.7872"/>
</g>
<!-- Node16 -->
<g id="node16" class="node"><title>Node16</title>
<polygon fill="white" stroke="#bfbfbf" points="529.108,-56.5 529.108,-75.5 608.108,-75.5 608.108,-56.5 529.108,-56.5"/>
<text text-anchor="middle" x="568.608" y="-63.5" font-family="Helvetica,sans-Serif" font-size="10.00">trng/yarn3.hpp</text>
</g>
<!-- Node9&#45;&gt;Node16 -->
<g id="edge16" class="edge"><title>Node9&#45;&gt;Node16</title>
<path fill="none" stroke="midnightblue" d="M677.412,-118.403C656.099,-108.334 620.577,-91.5522 595.945,-79.9151"/>
<polygon fill="midnightblue" stroke="midnightblue" points="597.307,-76.6877 586.77,-75.5806 594.317,-83.0169 597.307,-76.6877"/>
</g>
<!-- Node17 -->
<g id="node17" class="node"><title>Node17</title>
<polygon fill="white" stroke="#bfbfbf" points="626.108,-56.5 626.108,-75.5 685.108,-75.5 685.108,-56.5 626.108,-56.5"/>
<text text-anchor="middle" x="655.608" y="-63.5" font-family="Helvetica,sans-Serif" font-size="10.00">functional</text>
</g>
<!-- Node9&#45;&gt;Node17 -->
<g id="edge17" class="edge"><title>Node9&#45;&gt;Node17</title>
<path fill="none" stroke="midnightblue" d="M689.877,-118.403C683.936,-109.493 674.491,-95.3247 667.02,-84.1177"/>
<polygon fill="midnightblue" stroke="midnightblue" points="669.788,-81.9596 661.329,-75.5806 663.963,-85.8426 669.788,-81.9596"/>
</g>
<!-- Node9&#45;&gt;Node18 -->
<g id="edge19" class="edge"><title>Node9&#45;&gt;Node18</title>
<path fill="none" stroke="midnightblue" d="M727.11,-118.473C736.545,-116.131 746.951,-113.756 756.608,-112 886.353,-88.4063 924.304,-102.219 1057.21,-75.9772"/>
<polygon fill="midnightblue" stroke="midnightblue" points="1058.25,-79.3367 1067.37,-73.9306 1056.87,-72.4745 1058.25,-79.3367"/>
</g>
<!-- Node10&#45;&gt;Node8 -->
<g id="edge10" class="edge"><title>Node10&#45;&gt;Node8</title>
<path fill="none" stroke="midnightblue" d="M997.498,-56.083C992.326,-48.5341 984.762,-37.4948 978.414,-28.2298"/>
<polygon fill="midnightblue" stroke="midnightblue" points="981.144,-26.0221 972.604,-19.7511 975.369,-29.9787 981.144,-26.0221"/>
</g>
<!-- Node19&#45;&gt;Node2 -->
<g id="edge30" class="edge"><title>Node19&#45;&gt;Node2</title>
<path fill="none" stroke="midnightblue" d="M956.717,-292.368C916.926,-273.171 820.898,-226.842 773.707,-204.074"/>
<polygon fill="midnightblue" stroke="midnightblue" points="774.943,-200.784 764.416,-199.591 771.902,-207.089 774.943,-200.784"/>
</g>
<!-- Node19&#45;&gt;Node3 -->
<g id="edge22" class="edge"><title>Node19&#45;&gt;Node3</title>
<path fill="none" stroke="midnightblue" d="M989.475,-292.444C1007.6,-280.803 1034.65,-258.8 1024.61,-236 1007.73,-197.701 969.632,-167.151 941.47,-148.656"/>
<polygon fill="midnightblue" stroke="midnightblue" points="943.031,-145.5 932.716,-143.08 939.27,-151.404 943.031,-145.5"/>
</g>
<!-- Node19&#45;&gt;Node8 -->
<g id="edge23" class="edge"><title>Node19&#45;&gt;Node8</title>
<path fill="none" stroke="midnightblue" d="M1042.77,-292.496C1101.74,-280.874 1177.61,-253.732 1177.61,-191 1177.61,-191 1177.61,-191 1177.61,-127 1177.61,-90.7812 1166.28,-78.1357 1137.61,-56 1096.25,-24.0678 1034.3,-14.7046 997.422,-12.0154"/>
<polygon fill="midnightblue" stroke="midnightblue" points="997.471,-8.51196 987.277,-11.3988 997.046,-15.4991 997.471,-8.51196"/>
</g>
<!-- Node19&#45;&gt;Node18 -->
<g id="edge24" class="edge"><title>Node19&#45;&gt;Node18</title>
<path fill="none" stroke="midnightblue" d="M994.241,-292.388C1009.13,-284.868 1028.96,-272.561 1040.61,-256 1078.27,-202.463 1086.99,-122.156 1089.01,-85.9259"/>
<polygon fill="midnightblue" stroke="midnightblue" points="1092.51,-85.9459 1089.45,-75.8014 1085.52,-85.6375 1092.51,-85.9459"/>
</g>
<!-- Node20 -->
<g id="node20" class="node"><title>Node20</title>
<g id="a_node20"><a xlink:href="../../d8/d72/a00199.html" target="_top" xlink:title="CalibrationRunner.h">
<polygon fill="white" stroke="black" points="913.108,-236.5 913.108,-255.5 1016.11,-255.5 1016.11,-236.5 913.108,-236.5"/>
<text text-anchor="middle" x="964.608" y="-243.5" font-family="Helvetica,sans-Serif" font-size="10.00">CalibrationRunner.h</text>
</a>
</g>
</g>
<!-- Node19&#45;&gt;Node20 -->
<g id="edge25" class="edge"><title>Node19&#45;&gt;Node20</title>
<path fill="none" stroke="midnightblue" d="M972.957,-292.083C971.632,-284.927 969.726,-274.635 968.069,-265.691"/>
<polygon fill="midnightblue" stroke="midnightblue" points="971.491,-264.947 966.229,-255.751 964.608,-266.221 971.491,-264.947"/>
</g>
<!-- Node20&#45;&gt;Node2 -->
<g id="edge29" class="edge"><title>Node20&#45;&gt;Node2</title>
<path fill="none" stroke="midnightblue" d="M930.065,-236.444C892.133,-227.047 831.156,-211.943 790.02,-201.753"/>
<polygon fill="midnightblue" stroke="midnightblue" points="790.821,-198.346 780.273,-199.339 789.138,-205.141 790.821,-198.346"/>
</g>
<!-- Node20&#45;&gt;Node3 -->
<g id="edge26" class="edge"><title>Node20&#45;&gt;Node3</title>
<path fill="none" stroke="midnightblue" d="M960.324,-236.281C951.646,-218.621 931.738,-178.106 919.022,-152.229"/>
<polygon fill="midnightblue" stroke="midnightblue" points="922.091,-150.538 914.54,-143.106 915.808,-153.625 922.091,-150.538"/>
</g>
<!-- Node20&#45;&gt;Node8 -->
<g id="edge27" class="edge"><title>Node20&#45;&gt;Node8</title>
<path fill="none" stroke="midnightblue" d="M981.905,-236.367C1032.5,-209.987 1173.38,-127.862 1119.61,-56 1104.95,-36.4129 1037.63,-22.4253 997.331,-15.6396"/>
<polygon fill="midnightblue" stroke="midnightblue" points="997.665,-12.1479 987.232,-13.9941 996.539,-19.0568 997.665,-12.1479"/>
</g>
<!-- Node20&#45;&gt;Node18 -->
<g id="edge28" class="edge"><title>Node20&#45;&gt;Node18</title>
<path fill="none" stroke="midnightblue" d="M970.637,-236.415C990.059,-208.758 1051.25,-121.626 1077.48,-84.2754"/>
<polygon fill="midnightblue" stroke="midnightblue" points="1080.46,-86.1136 1083.35,-75.9185 1074.73,-82.0907 1080.46,-86.1136"/>
</g>
<!-- Node21&#45;&gt;Node2 -->
<g id="edge36" class="edge"><title>Node21&#45;&gt;Node2</title>
<path fill="none" stroke="midnightblue" d="M815.723,-292.368C803.346,-274.215 774.427,-231.802 758.192,-207.99"/>
<polygon fill="midnightblue" stroke="midnightblue" points="760.991,-205.882 752.466,-199.591 755.208,-209.825 760.991,-205.882"/>
</g>
<!-- Node21&#45;&gt;Node3 -->
<g id="edge32" class="edge"><title>Node21&#45;&gt;Node3</title>
<path fill="none" stroke="midnightblue" d="M825.991,-292.234C838.811,-266.595 876.549,-191.119 895.889,-152.438"/>
<polygon fill="midnightblue" stroke="midnightblue" points="899.261,-153.521 900.602,-143.012 893,-150.391 899.261,-153.521"/>
</g>
<!-- Node21&#45;&gt;Node8 -->
<g id="edge33" class="edge"><title>Node21&#45;&gt;Node8</title>
<path fill="none" stroke="midnightblue" d="M760.31,-299.217C569.941,-292.875 1.60811,-267.531 1.60811,-191 1.60811,-191 1.60811,-191 1.60811,-127 1.60811,-94.3341 -4.82433,-76.5001 20.6081,-56 57.0543,-26.6221 777.491,-13.8985 935.957,-11.4493"/>
<polygon fill="midnightblue" stroke="midnightblue" points="936.03,-14.9487 945.975,-11.2967 935.923,-7.94953 936.03,-14.9487"/>
</g>
<!-- Node21&#45;&gt;Node18 -->
<g id="edge34" class="edge"><title>Node21&#45;&gt;Node18</title>
<path fill="none" stroke="midnightblue" d="M819.669,-292.364C813.547,-262.614 797.843,-163.398 847.608,-112 878.821,-79.7625 997.662,-85.7868 1057.27,-75.7814"/>
<polygon fill="midnightblue" stroke="midnightblue" points="1058.2,-79.165 1067.34,-73.7941 1056.85,-72.2976 1058.2,-79.165"/>
</g>
<!-- Node21&#45;&gt;Node20 -->
<g id="edge35" class="edge"><title>Node21&#45;&gt;Node20</title>
<path fill="none" stroke="midnightblue" d="M844.267,-292.444C868.01,-283.478 905.517,-269.314 932.347,-259.183"/>
<polygon fill="midnightblue" stroke="midnightblue" points="933.937,-262.324 942.055,-255.516 931.464,-255.775 933.937,-262.324"/>
</g>
</g>
</svg>
