<?xml version="1.0" encoding="UTF-8" standalone="no"?>
<!DOCTYPE svg PUBLIC "-//W3C//DTD SVG 1.1//EN"
 "http://www.w3.org/Graphics/SVG/1.1/DTD/svg11.dtd">
<!-- Generated by graphviz version 2.36.0 (20140111.2315)
 -->
<!-- Title: stride::ContactPool::Swap Pages: 1 -->
<svg width="414pt" height="48pt"
 viewBox="0.00 0.00 414.00 48.00" xmlns="http://www.w3.org/2000/svg" xmlns:xlink="http://www.w3.org/1999/xlink">
<g id="graph0" class="graph" transform="scale(1 1) rotate(0) translate(4 44)">
<title>stride::ContactPool::Swap</title>
<polygon fill="white" stroke="none" points="-4,4 -4,-44 410,-44 410,4 -4,4"/>
<!-- Node1 -->
<g id="node1" class="node"><title>Node1</title>
<polygon fill="#bfbfbf" stroke="black" points="0.5,-5 0.5,-35 101.5,-35 101.5,-5 0.5,-5"/>
<text text-anchor="start" x="8.5" y="-23" font-family="Helvetica,sans-Serif" font-size="10.00">stride::ContactPool</text>
<text text-anchor="middle" x="51" y="-12" font-family="Helvetica,sans-Serif" font-size="10.00">::Swap</text>
</g>
<!-- Node2 -->
<g id="node2" class="node"><title>Node2</title>
<g id="a_node2"><a xlink:href="../../d4/d3a/a00101.html#a6c90e9734ee7c6566bdf1f4416e99fd8" target="_top" xlink:title="Sort w.r.t. health status: order: exposed/infected/recovered, susceptible, immune. ">
<polygon fill="white" stroke="black" points="138.5,-5 138.5,-35 239.5,-35 239.5,-5 138.5,-5"/>
<text text-anchor="start" x="146.5" y="-23" font-family="Helvetica,sans-Serif" font-size="10.00">stride::ContactPool</text>
<text text-anchor="middle" x="189" y="-12" font-family="Helvetica,sans-Serif" font-size="10.00">::SortMembers</text>
</a>
</g>
</g>
<!-- Node1&#45;&gt;Node2 -->
<g id="edge1" class="edge"><title>Node1&#45;&gt;Node2</title>
<path fill="none" stroke="midnightblue" d="M112,-20C120.729,-20 129.637,-20 138.137,-20"/>
<polygon fill="midnightblue" stroke="midnightblue" points="111.869,-16.5001 101.869,-20 111.869,-23.5001 111.869,-16.5001"/>
</g>
<!-- Node3 -->
<g id="node3" class="node"><title>Node3</title>
<g id="a_node3"><a xlink:href="../../df/dc8/a00122.html#a3e10dc57119090c30ba818420bbd7b94" target="_top" xlink:title="stride::Infector\&lt; LL,\l TIC, NoLocalInformation,\l true \&gt;::Exec">
<polygon fill="white" stroke="black" points="276,0.5 276,-40.5 406,-40.5 406,0.5 276,0.5"/>
<text text-anchor="start" x="284" y="-28.5" font-family="Helvetica,sans-Serif" font-size="10.00">stride::Infector&lt; LL,</text>
<text text-anchor="start" x="284" y="-17.5" font-family="Helvetica,sans-Serif" font-size="10.00"> TIC, NoLocalInformation,</text>
<text text-anchor="middle" x="341" y="-6.5" font-family="Helvetica,sans-Serif" font-size="10.00"> true &gt;::Exec</text>
</a>
</g>
</g>
<!-- Node2&#45;&gt;Node3 -->
<g id="edge2" class="edge"><title>Node2&#45;&gt;Node3</title>
<path fill="none" stroke="midnightblue" d="M249.795,-20C258.348,-20 267.176,-20 275.809,-20"/>
<polygon fill="midnightblue" stroke="midnightblue" points="249.531,-16.5001 239.531,-20 249.531,-23.5001 249.531,-16.5001"/>
</g>
</g>
</svg>
