<?xml version="1.0" encoding="UTF-8" standalone="no"?>
<!DOCTYPE svg PUBLIC "-//W3C//DTD SVG 1.1//EN"
 "http://www.w3.org/Graphics/SVG/1.1/DTD/svg11.dtd">
<!-- Generated by graphviz version 2.36.0 (20140111.2315)
 -->
<!-- Title: stride::ContactPool::GetId Pages: 1 -->
<svg width="902pt" height="381pt"
 viewBox="0.00 0.00 902.00 381.00" xmlns="http://www.w3.org/2000/svg" xmlns:xlink="http://www.w3.org/1999/xlink">
<g id="graph0" class="graph" transform="scale(1 1) rotate(0) translate(4 377)">
<title>stride::ContactPool::GetId</title>
<polygon fill="white" stroke="none" points="-4,4 -4,-377 898,-377 898,4 -4,4"/>
<!-- Node1 -->
<g id="node1" class="node"><title>Node1</title>
<polygon fill="#bfbfbf" stroke="black" points="0.5,-171 0.5,-201 101.5,-201 101.5,-171 0.5,-171"/>
<text text-anchor="start" x="8.5" y="-189" font-family="Helvetica,sans-Serif" font-size="10.00">stride::ContactPool</text>
<text text-anchor="middle" x="51" y="-178" font-family="Helvetica,sans-Serif" font-size="10.00">::GetId</text>
</g>
<!-- Node2 -->
<g id="node2" class="node"><title>Node2</title>
<g id="a_node2"><a xlink:href="../../d4/dca/a00048.html#a47168ca7f0ce73610734befed56f0ae7" target="_top" xlink:title="Populate the given geogrid. ">
<polygon fill="white" stroke="black" points="140,-343 140,-373 298,-373 298,-343 140,-343"/>
<text text-anchor="start" x="148" y="-361" font-family="Helvetica,sans-Serif" font-size="10.00">gengeopop::HouseholdPopulator</text>
<text text-anchor="middle" x="219" y="-350" font-family="Helvetica,sans-Serif" font-size="10.00">::Apply</text>
</a>
</g>
</g>
<!-- Node1&#45;&gt;Node2 -->
<g id="edge1" class="edge"><title>Node1&#45;&gt;Node2</title>
<path fill="none" stroke="midnightblue" d="M60.2096,-211.129C72.1753,-243.882 97.4998,-300.77 138,-333 142.896,-336.896 148.404,-340.189 154.181,-342.971"/>
<polygon fill="midnightblue" stroke="midnightblue" points="63.4097,-209.679 56.7917,-201.405 56.8058,-212 63.4097,-209.679"/>
</g>
<!-- Node3 -->
<g id="node3" class="node"><title>Node3</title>
<g id="a_node3"><a xlink:href="../../d8/dfa/a00121.html#a45b455fb644270329ae1d53aad9de4db" target="_top" xlink:title="stride::Infector::Exec">
<polygon fill="white" stroke="black" points="165,-304.5 165,-323.5 273,-323.5 273,-304.5 165,-304.5"/>
<text text-anchor="middle" x="219" y="-311.5" font-family="Helvetica,sans-Serif" font-size="10.00">stride::Infector::Exec</text>
</a>
</g>
</g>
<!-- Node1&#45;&gt;Node3 -->
<g id="edge2" class="edge"><title>Node1&#45;&gt;Node3</title>
<path fill="none" stroke="midnightblue" d="M64.7525,-209.964C79.2124,-234.786 105.112,-272.843 138,-294 146.067,-299.189 155.391,-303.032 164.762,-305.878"/>
<polygon fill="midnightblue" stroke="midnightblue" points="67.746,-208.147 59.78,-201.161 61.6512,-211.59 67.746,-208.147"/>
</g>
<!-- Node4 -->
<g id="node4" class="node"><title>Node4</title>
<g id="a_node4"><a xlink:href="../../df/dc8/a00122.html#a3e10dc57119090c30ba818420bbd7b94" target="_top" xlink:title="stride::Infector\&lt; LL,\l TIC, NoLocalInformation,\l true \&gt;::Exec">
<polygon fill="white" stroke="black" points="154,-244.5 154,-285.5 284,-285.5 284,-244.5 154,-244.5"/>
<text text-anchor="start" x="162" y="-273.5" font-family="Helvetica,sans-Serif" font-size="10.00">stride::Infector&lt; LL,</text>
<text text-anchor="start" x="162" y="-262.5" font-family="Helvetica,sans-Serif" font-size="10.00"> TIC, NoLocalInformation,</text>
<text text-anchor="middle" x="219" y="-251.5" font-family="Helvetica,sans-Serif" font-size="10.00"> true &gt;::Exec</text>
</a>
</g>
</g>
<!-- Node1&#45;&gt;Node4 -->
<g id="edge3" class="edge"><title>Node1&#45;&gt;Node4</title>
<path fill="none" stroke="midnightblue" d="M85.0969,-206.499C100.815,-215.806 120.051,-226.586 138,-235 144.984,-238.274 152.432,-241.455 159.866,-244.447"/>
<polygon fill="midnightblue" stroke="midnightblue" points="86.6621,-203.357 76.2851,-201.219 83.0642,-209.362 86.6621,-203.357"/>
</g>
<!-- Node5 -->
<g id="node5" class="node"><title>Node5</title>
<g id="a_node5"><a xlink:href="../../d3/de7/a00039.html#a19e0ff14a2aef228d926d53132fa767b" target="_top" xlink:title="Create a ContactPool based on the provided protobuf ContactPool. ">
<polygon fill="white" stroke="black" points="138.5,-196 138.5,-226 299.5,-226 299.5,-196 138.5,-196"/>
<text text-anchor="start" x="146.5" y="-214" font-family="Helvetica,sans-Serif" font-size="10.00">gengeopop::GeoGridProtoReader</text>
<text text-anchor="middle" x="219" y="-203" font-family="Helvetica,sans-Serif" font-size="10.00">::ParseContactPool</text>
</a>
</g>
</g>
<!-- Node1&#45;&gt;Node5 -->
<g id="edge4" class="edge"><title>Node1&#45;&gt;Node5</title>
<path fill="none" stroke="midnightblue" d="M111.774,-195.002C120.431,-196.306 129.454,-197.665 138.424,-199.016"/>
<polygon fill="midnightblue" stroke="midnightblue" points="112.215,-191.529 101.805,-193.501 111.173,-198.451 112.215,-191.529"/>
</g>
<!-- Node9 -->
<g id="node9" class="node"><title>Node9</title>
<g id="a_node9"><a xlink:href="../../db/d48/a00148.html#ae00519895ddcbbe9a683856d8bdd0ab4" target="_top" xlink:title="Returns the travels at the given day. ">
<polygon fill="white" stroke="black" points="165,-147 165,-177 273,-177 273,-147 165,-147"/>
<text text-anchor="start" x="173" y="-165" font-family="Helvetica,sans-Serif" font-size="10.00">stride::TravellerIndex</text>
<text text-anchor="middle" x="219" y="-154" font-family="Helvetica,sans-Serif" font-size="10.00">::ReturnTravelers</text>
</a>
</g>
</g>
<!-- Node1&#45;&gt;Node9 -->
<g id="edge8" class="edge"><title>Node1&#45;&gt;Node9</title>
<path fill="none" stroke="midnightblue" d="M111.802,-177.354C129.111,-174.851 147.884,-172.137 164.763,-169.697"/>
<polygon fill="midnightblue" stroke="midnightblue" points="111.202,-173.904 101.805,-178.799 112.203,-180.832 111.202,-173.904"/>
</g>
<!-- Node10 -->
<g id="node10" class="node"><title>Node10</title>
<g id="a_node10"><a xlink:href="../../db/d48/a00148.html#a2a3ea8982180232be8593d7fdcf80f37" target="_top" xlink:title="Stores the information when the travel is started. ">
<polygon fill="white" stroke="black" points="165,-98 165,-128 273,-128 273,-98 165,-98"/>
<text text-anchor="start" x="173" y="-116" font-family="Helvetica,sans-Serif" font-size="10.00">stride::TravellerIndex</text>
<text text-anchor="middle" x="219" y="-105" font-family="Helvetica,sans-Serif" font-size="10.00">::StartTravel</text>
</a>
</g>
</g>
<!-- Node1&#45;&gt;Node10 -->
<g id="edge9" class="edge"><title>Node1&#45;&gt;Node10</title>
<path fill="none" stroke="midnightblue" d="M84.6004,-165.709C100.346,-156.458 119.747,-145.846 138,-138 146.556,-134.322 155.834,-130.921 164.938,-127.887"/>
<polygon fill="midnightblue" stroke="midnightblue" points="82.582,-162.838 75.7879,-170.968 86.1688,-168.849 82.582,-162.838"/>
</g>
<!-- Node11 -->
<g id="node11" class="node"><title>Node11</title>
<g id="a_node11"><a xlink:href="../../db/d3a/a00040.html#a0551c1ce7927fc90a5dcc38df8980176" target="_top" xlink:title="Create a ProtoBuf ContactPool containing all the information needed to reconstruct a ContactPool...">
<polygon fill="white" stroke="black" points="141.5,-49 141.5,-79 296.5,-79 296.5,-49 141.5,-49"/>
<text text-anchor="start" x="149.5" y="-67" font-family="Helvetica,sans-Serif" font-size="10.00">gengeopop::GeoGridProtoWriter</text>
<text text-anchor="middle" x="219" y="-56" font-family="Helvetica,sans-Serif" font-size="10.00">::WriteContactPool</text>
</a>
</g>
</g>
<!-- Node1&#45;&gt;Node11 -->
<g id="edge10" class="edge"><title>Node1&#45;&gt;Node11</title>
<path fill="none" stroke="midnightblue" d="M67.1268,-162.123C82.422,-139.849 108.037,-107.247 138,-88 143.368,-84.5517 149.254,-81.5798 155.322,-79.0224"/>
<polygon fill="midnightblue" stroke="midnightblue" points="64.055,-160.42 61.4081,-170.679 69.8748,-164.31 64.055,-160.42"/>
</g>
<!-- Node15 -->
<g id="node15" class="node"><title>Node15</title>
<g id="a_node15"><a xlink:href="../../d1/dc6/a00037.html#a0943d6e4e335053ba2e5dff6cbca187c" target="_top" xlink:title="Create a Boost Property Tree containing all the information needed to reconstruct a ContactPool...">
<polygon fill="white" stroke="black" points="139.5,-0 139.5,-30 298.5,-30 298.5,-0 139.5,-0"/>
<text text-anchor="start" x="147.5" y="-18" font-family="Helvetica,sans-Serif" font-size="10.00">gengeopop::GeoGridJSONWriter</text>
<text text-anchor="middle" x="219" y="-7" font-family="Helvetica,sans-Serif" font-size="10.00">::WriteContactPool</text>
</a>
</g>
</g>
<!-- Node1&#45;&gt;Node15 -->
<g id="edge14" class="edge"><title>Node1&#45;&gt;Node15</title>
<path fill="none" stroke="midnightblue" d="M60.1546,-160.801C72.0593,-127.971 97.3163,-70.9977 138,-39 142.331,-35.5936 147.139,-32.6697 152.187,-30.16"/>
<polygon fill="midnightblue" stroke="midnightblue" points="56.7431,-159.955 56.756,-170.549 63.3529,-162.259 56.7431,-159.955"/>
</g>
<!-- Node6 -->
<g id="node6" class="node"><title>Node6</title>
<g id="a_node6"><a xlink:href="../../d3/de7/a00039.html#a351fab1f7eb8f7035fa432b2a3d7c104" target="_top" xlink:title="Create a ContactCenter based on the provided protobuf ContactCenter. ">
<polygon fill="white" stroke="black" points="336.5,-196 336.5,-226 497.5,-226 497.5,-196 336.5,-196"/>
<text text-anchor="start" x="344.5" y="-214" font-family="Helvetica,sans-Serif" font-size="10.00">gengeopop::GeoGridProtoReader</text>
<text text-anchor="middle" x="417" y="-203" font-family="Helvetica,sans-Serif" font-size="10.00">::ParseContactCenter</text>
</a>
</g>
</g>
<!-- Node5&#45;&gt;Node6 -->
<g id="edge5" class="edge"><title>Node5&#45;&gt;Node6</title>
<path fill="none" stroke="midnightblue" d="M309.989,-211C318.785,-211 327.667,-211 336.35,-211"/>
<polygon fill="midnightblue" stroke="midnightblue" points="309.721,-207.5 299.721,-211 309.721,-214.5 309.721,-207.5"/>
</g>
<!-- Node7 -->
<g id="node7" class="node"><title>Node7</title>
<g id="a_node7"><a xlink:href="../../d3/de7/a00039.html#a0adca811808bc9edf494cd38b6ca0bae" target="_top" xlink:title="Create a Location based on the provided protobuf Location. ">
<polygon fill="white" stroke="black" points="534.5,-196 534.5,-226 695.5,-226 695.5,-196 534.5,-196"/>
<text text-anchor="start" x="542.5" y="-214" font-family="Helvetica,sans-Serif" font-size="10.00">gengeopop::GeoGridProtoReader</text>
<text text-anchor="middle" x="615" y="-203" font-family="Helvetica,sans-Serif" font-size="10.00">::ParseLocation</text>
</a>
</g>
</g>
<!-- Node6&#45;&gt;Node7 -->
<g id="edge6" class="edge"><title>Node6&#45;&gt;Node7</title>
<path fill="none" stroke="midnightblue" d="M507.989,-211C516.785,-211 525.667,-211 534.35,-211"/>
<polygon fill="midnightblue" stroke="midnightblue" points="507.721,-207.5 497.721,-211 507.721,-214.5 507.721,-207.5"/>
</g>
<!-- Node8 -->
<g id="node8" class="node"><title>Node8</title>
<g id="a_node8"><a xlink:href="../../d3/de7/a00039.html#ad9d1285450862c08629d6f8456976413" target="_top" xlink:title="Actually perform the read and return the GeoGrid. ">
<polygon fill="white" stroke="black" points="732.5,-196 732.5,-226 893.5,-226 893.5,-196 732.5,-196"/>
<text text-anchor="start" x="740.5" y="-214" font-family="Helvetica,sans-Serif" font-size="10.00">gengeopop::GeoGridProtoReader</text>
<text text-anchor="middle" x="813" y="-203" font-family="Helvetica,sans-Serif" font-size="10.00">::Read</text>
</a>
</g>
</g>
<!-- Node7&#45;&gt;Node8 -->
<g id="edge7" class="edge"><title>Node7&#45;&gt;Node8</title>
<path fill="none" stroke="midnightblue" d="M705.989,-211C714.785,-211 723.667,-211 732.35,-211"/>
<polygon fill="midnightblue" stroke="midnightblue" points="705.721,-207.5 695.721,-211 705.721,-214.5 705.721,-207.5"/>
</g>
<!-- Node12 -->
<g id="node12" class="node"><title>Node12</title>
<g id="a_node12"><a xlink:href="../../db/d3a/a00040.html#a1235f787a58d45e623cf5bf21819ccc1" target="_top" xlink:title="Create a ProtoBuf ContactCenter containing all the information needed to reconstruct a ContactCenter...">
<polygon fill="white" stroke="black" points="339.5,-49 339.5,-79 494.5,-79 494.5,-49 339.5,-49"/>
<text text-anchor="start" x="347.5" y="-67" font-family="Helvetica,sans-Serif" font-size="10.00">gengeopop::GeoGridProtoWriter</text>
<text text-anchor="middle" x="417" y="-56" font-family="Helvetica,sans-Serif" font-size="10.00">::WriteContactCenter</text>
</a>
</g>
</g>
<!-- Node11&#45;&gt;Node12 -->
<g id="edge11" class="edge"><title>Node11&#45;&gt;Node12</title>
<path fill="none" stroke="midnightblue" d="M306.931,-64C317.762,-64 328.775,-64 339.432,-64"/>
<polygon fill="midnightblue" stroke="midnightblue" points="306.621,-60.5001 296.621,-64 306.621,-67.5001 306.621,-60.5001"/>
</g>
<!-- Node13 -->
<g id="node13" class="node"><title>Node13</title>
<g id="a_node13"><a xlink:href="../../db/d3a/a00040.html#a2b0641108a2e713aa25c5969939a3c14" target="_top" xlink:title="Create a ProtoBuf Location containing all the information needed to reconstruct a Location...">
<polygon fill="white" stroke="black" points="537.5,-49 537.5,-79 692.5,-79 692.5,-49 537.5,-49"/>
<text text-anchor="start" x="545.5" y="-67" font-family="Helvetica,sans-Serif" font-size="10.00">gengeopop::GeoGridProtoWriter</text>
<text text-anchor="middle" x="615" y="-56" font-family="Helvetica,sans-Serif" font-size="10.00">::WriteLocation</text>
</a>
</g>
</g>
<!-- Node12&#45;&gt;Node13 -->
<g id="edge12" class="edge"><title>Node12&#45;&gt;Node13</title>
<path fill="none" stroke="midnightblue" d="M504.931,-64C515.762,-64 526.775,-64 537.432,-64"/>
<polygon fill="midnightblue" stroke="midnightblue" points="504.621,-60.5001 494.621,-64 504.621,-67.5001 504.621,-60.5001"/>
</g>
<!-- Node14 -->
<g id="node14" class="node"><title>Node14</title>
<g id="a_node14"><a xlink:href="../../db/d3a/a00040.html#a3163b8464f599d204597a01dfc47f08f" target="_top" xlink:title="Write the provided GeoGrid to the proved ostream in Protobuf format. ">
<polygon fill="white" stroke="black" points="735.5,-49 735.5,-79 890.5,-79 890.5,-49 735.5,-49"/>
<text text-anchor="start" x="743.5" y="-67" font-family="Helvetica,sans-Serif" font-size="10.00">gengeopop::GeoGridProtoWriter</text>
<text text-anchor="middle" x="813" y="-56" font-family="Helvetica,sans-Serif" font-size="10.00">::Write</text>
</a>
</g>
</g>
<!-- Node13&#45;&gt;Node14 -->
<g id="edge13" class="edge"><title>Node13&#45;&gt;Node14</title>
<path fill="none" stroke="midnightblue" d="M702.931,-64C713.762,-64 724.775,-64 735.432,-64"/>
<polygon fill="midnightblue" stroke="midnightblue" points="702.621,-60.5001 692.621,-64 702.621,-67.5001 702.621,-60.5001"/>
</g>
<!-- Node16 -->
<g id="node16" class="node"><title>Node16</title>
<g id="a_node16"><a xlink:href="../../d1/dc6/a00037.html#a09ef74af7673c46cc0a14338ec9f2d89" target="_top" xlink:title="Create a Boost Property Tree containing all the information needed to reconstruct a ContactCenter...">
<polygon fill="white" stroke="black" points="337.5,-0 337.5,-30 496.5,-30 496.5,-0 337.5,-0"/>
<text text-anchor="start" x="345.5" y="-18" font-family="Helvetica,sans-Serif" font-size="10.00">gengeopop::GeoGridJSONWriter</text>
<text text-anchor="middle" x="417" y="-7" font-family="Helvetica,sans-Serif" font-size="10.00">::WriteContactCenter</text>
</a>
</g>
</g>
<!-- Node15&#45;&gt;Node16 -->
<g id="edge15" class="edge"><title>Node15&#45;&gt;Node16</title>
<path fill="none" stroke="midnightblue" d="M308.855,-15C318.372,-15 328.005,-15 337.391,-15"/>
<polygon fill="midnightblue" stroke="midnightblue" points="308.591,-11.5001 298.591,-15 308.591,-18.5001 308.591,-11.5001"/>
</g>
<!-- Node17 -->
<g id="node17" class="node"><title>Node17</title>
<g id="a_node17"><a xlink:href="../../d1/dc6/a00037.html#a1d075fff537fe69d2d626483f539387e" target="_top" xlink:title="Create a Boost Property Tree containing all the information needed to reconstruct a Location...">
<polygon fill="white" stroke="black" points="535.5,-0 535.5,-30 694.5,-30 694.5,-0 535.5,-0"/>
<text text-anchor="start" x="543.5" y="-18" font-family="Helvetica,sans-Serif" font-size="10.00">gengeopop::GeoGridJSONWriter</text>
<text text-anchor="middle" x="615" y="-7" font-family="Helvetica,sans-Serif" font-size="10.00">::WriteLocation</text>
</a>
</g>
</g>
<!-- Node16&#45;&gt;Node17 -->
<g id="edge16" class="edge"><title>Node16&#45;&gt;Node17</title>
<path fill="none" stroke="midnightblue" d="M506.855,-15C516.372,-15 526.005,-15 535.391,-15"/>
<polygon fill="midnightblue" stroke="midnightblue" points="506.591,-11.5001 496.591,-15 506.591,-18.5001 506.591,-11.5001"/>
</g>
<!-- Node18 -->
<g id="node18" class="node"><title>Node18</title>
<g id="a_node18"><a xlink:href="../../d1/dc6/a00037.html#a06da89c72da72992bbd517973c9513eb" target="_top" xlink:title="Write the provided GeoGrid to the proved ostream in JSON format. ">
<polygon fill="white" stroke="black" points="733.5,-0 733.5,-30 892.5,-30 892.5,-0 733.5,-0"/>
<text text-anchor="start" x="741.5" y="-18" font-family="Helvetica,sans-Serif" font-size="10.00">gengeopop::GeoGridJSONWriter</text>
<text text-anchor="middle" x="813" y="-7" font-family="Helvetica,sans-Serif" font-size="10.00">::Write</text>
</a>
</g>
</g>
<!-- Node17&#45;&gt;Node18 -->
<g id="edge17" class="edge"><title>Node17&#45;&gt;Node18</title>
<path fill="none" stroke="midnightblue" d="M704.855,-15C714.372,-15 724.005,-15 733.391,-15"/>
<polygon fill="midnightblue" stroke="midnightblue" points="704.591,-11.5001 694.591,-15 704.591,-18.5001 704.591,-11.5001"/>
</g>
</g>
</svg>
