<?xml version="1.0" encoding="UTF-8" standalone="no"?>
<!DOCTYPE svg PUBLIC "-//W3C//DTD SVG 1.1//EN"
 "http://www.w3.org/Graphics/SVG/1.1/DTD/svg11.dtd">
<!-- Generated by graphviz version 2.36.0 (20140111.2315)
 -->
<!-- Title: stride::ContactPool::Swap Pages: 1 -->
<svg width="280pt" height="66pt"
 viewBox="0.00 0.00 280.00 66.00" xmlns="http://www.w3.org/2000/svg" xmlns:xlink="http://www.w3.org/1999/xlink">
<g id="graph0" class="graph" transform="scale(1 1) rotate(0) translate(4 62)">
<title>stride::ContactPool::Swap</title>
<polygon fill="white" stroke="none" points="-4,4 -4,-62 276,-62 276,4 -4,4"/>
<!-- Node1 -->
<g id="node1" class="node"><title>Node1</title>
<polygon fill="#bfbfbf" stroke="black" points="0.5,-14 0.5,-44 101.5,-44 101.5,-14 0.5,-14"/>
<text text-anchor="start" x="8.5" y="-32" font-family="Helvetica,sans-Serif" font-size="10.00">stride::ContactPool</text>
<text text-anchor="middle" x="51" y="-21" font-family="Helvetica,sans-Serif" font-size="10.00">::Swap</text>
</g>
<!-- Node2 -->
<g id="node2" class="node"><title>Node2</title>
<g id="a_node2"><a xlink:href="../../d2/df5/a00137.html#ace277043dfb3a2052adf508dd0179567" target="_top" xlink:title="Get ID of contactpool_type. ">
<polygon fill="white" stroke="black" points="141.5,-38.5 141.5,-57.5 268.5,-57.5 268.5,-38.5 141.5,-38.5"/>
<text text-anchor="middle" x="205" y="-45.5" font-family="Helvetica,sans-Serif" font-size="10.00">stride::Person::GetPoolId</text>
</a>
</g>
</g>
<!-- Node1&#45;&gt;Node2 -->
<g id="edge1" class="edge"><title>Node1&#45;&gt;Node2</title>
<path fill="none" stroke="midnightblue" d="M101.77,-35.2213C111.251,-36.4064 121.352,-37.6691 131.375,-38.9219"/>
<polygon fill="midnightblue" stroke="midnightblue" points="130.989,-42.4008 141.346,-40.1683 131.858,-35.4549 130.989,-42.4008"/>
</g>
<!-- Node3 -->
<g id="node3" class="node"><title>Node3</title>
<g id="a_node3"><a xlink:href="../../d2/df5/a00137.html#aee5a60d1b3990a334dcb20c318f8929e" target="_top" xlink:title="Returns whether this person is travelling. ">
<polygon fill="white" stroke="black" points="138,-0.5 138,-19.5 272,-19.5 272,-0.5 138,-0.5"/>
<text text-anchor="middle" x="205" y="-7.5" font-family="Helvetica,sans-Serif" font-size="10.00">stride::Person::IsTravelling</text>
</a>
</g>
</g>
<!-- Node1&#45;&gt;Node3 -->
<g id="edge2" class="edge"><title>Node1&#45;&gt;Node3</title>
<path fill="none" stroke="midnightblue" d="M101.77,-22.7787C110.137,-21.7329 118.987,-20.6266 127.84,-19.52"/>
<polygon fill="midnightblue" stroke="midnightblue" points="128.322,-22.9871 137.811,-18.2737 127.454,-16.0411 128.322,-22.9871"/>
</g>
</g>
</svg>
