<?xml version="1.0" encoding="UTF-8" standalone="no"?>
<!DOCTYPE svg PUBLIC "-//W3C//DTD SVG 1.1//EN"
 "http://www.w3.org/Graphics/SVG/1.1/DTD/svg11.dtd">
<!-- Generated by graphviz version 2.36.0 (20140111.2315)
 -->
<!-- Title: stride::ContactPool::GetSize Pages: 1 -->
<svg width="674pt" height="38pt"
 viewBox="0.00 0.00 674.00 38.00" xmlns="http://www.w3.org/2000/svg" xmlns:xlink="http://www.w3.org/1999/xlink">
<g id="graph0" class="graph" transform="scale(1 1) rotate(0) translate(4 34)">
<title>stride::ContactPool::GetSize</title>
<polygon fill="white" stroke="none" points="-4,4 -4,-34 670,-34 670,4 -4,4"/>
<!-- Node1 -->
<g id="node1" class="node"><title>Node1</title>
<polygon fill="#bfbfbf" stroke="black" points="0.5,-0 0.5,-30 101.5,-30 101.5,-0 0.5,-0"/>
<text text-anchor="start" x="8.5" y="-18" font-family="Helvetica,sans-Serif" font-size="10.00">stride::ContactPool</text>
<text text-anchor="middle" x="51" y="-7" font-family="Helvetica,sans-Serif" font-size="10.00">::GetSize</text>
</g>
<!-- Node2 -->
<g id="node2" class="node"><title>Node2</title>
<g id="a_node2"><a xlink:href="../../d9/d4b/a00117.html#a8188dc69064103c5ac7e95193356a0c3" target="_top" xlink:title="Random immunization. ">
<polygon fill="white" stroke="black" points="138,-0 138,-30 236,-30 236,-0 138,-0"/>
<text text-anchor="start" x="146" y="-18" font-family="Helvetica,sans-Serif" font-size="10.00">stride::Immunizer::</text>
<text text-anchor="middle" x="187" y="-7" font-family="Helvetica,sans-Serif" font-size="10.00">Random</text>
</a>
</g>
</g>
<!-- Node1&#45;&gt;Node2 -->
<g id="edge1" class="edge"><title>Node1&#45;&gt;Node2</title>
<path fill="none" stroke="midnightblue" d="M111.603,-15C120.292,-15 129.149,-15 137.58,-15"/>
<polygon fill="midnightblue" stroke="midnightblue" points="111.516,-11.5001 101.516,-15 111.516,-18.5001 111.516,-11.5001"/>
</g>
<!-- Node3 -->
<g id="node3" class="node"><title>Node3</title>
<g id="a_node3"><a xlink:href="../../d4/d81/a00110.html#accb4b7832c08a4cc98973caf5aebf7f5" target="_top" xlink:title="Seed for vaccination/natural immunity. ">
<polygon fill="white" stroke="black" points="272.5,-0 272.5,-30 385.5,-30 385.5,-0 272.5,-0"/>
<text text-anchor="start" x="280.5" y="-18" font-family="Helvetica,sans-Serif" font-size="10.00">stride::DiseaseSeeder</text>
<text text-anchor="middle" x="329" y="-7" font-family="Helvetica,sans-Serif" font-size="10.00">::Vaccinate</text>
</a>
</g>
</g>
<!-- Node2&#45;&gt;Node3 -->
<g id="edge2" class="edge"><title>Node2&#45;&gt;Node3</title>
<path fill="none" stroke="midnightblue" d="M246.38,-15C254.866,-15 263.587,-15 272.024,-15"/>
<polygon fill="midnightblue" stroke="midnightblue" points="246.18,-11.5001 236.18,-15 246.18,-18.5001 246.18,-11.5001"/>
</g>
<!-- Node4 -->
<g id="node4" class="node"><title>Node4</title>
<g id="a_node4"><a xlink:href="../../d4/d81/a00110.html#adc5b1f152367382afe3dade9421357da" target="_top" xlink:title="Build the simulator. ">
<polygon fill="white" stroke="black" points="422.5,-0 422.5,-30 535.5,-30 535.5,-0 422.5,-0"/>
<text text-anchor="start" x="430.5" y="-18" font-family="Helvetica,sans-Serif" font-size="10.00">stride::DiseaseSeeder</text>
<text text-anchor="middle" x="479" y="-7" font-family="Helvetica,sans-Serif" font-size="10.00">::Seed</text>
</a>
</g>
</g>
<!-- Node3&#45;&gt;Node4 -->
<g id="edge3" class="edge"><title>Node3&#45;&gt;Node4</title>
<path fill="none" stroke="midnightblue" d="M395.768,-15C404.576,-15 413.542,-15 422.158,-15"/>
<polygon fill="midnightblue" stroke="midnightblue" points="395.531,-11.5001 385.531,-15 395.531,-18.5001 395.531,-11.5001"/>
</g>
<!-- Node5 -->
<g id="node5" class="node"><title>Node5</title>
<g id="a_node5"><a xlink:href="../../d2/d82/a00142.html#a94ce5fb3cae915f0bdb261498f31c444" target="_top" xlink:title="Build the simulator and return it afterwards. ">
<polygon fill="white" stroke="black" points="572,-0 572,-30 666,-30 666,-0 572,-0"/>
<text text-anchor="start" x="580" y="-18" font-family="Helvetica,sans-Serif" font-size="10.00">stride::SimBuilder</text>
<text text-anchor="middle" x="619" y="-7" font-family="Helvetica,sans-Serif" font-size="10.00">::Build</text>
</a>
</g>
</g>
<!-- Node4&#45;&gt;Node5 -->
<g id="edge4" class="edge"><title>Node4&#45;&gt;Node5</title>
<path fill="none" stroke="midnightblue" d="M545.928,-15C554.669,-15 563.475,-15 571.784,-15"/>
<polygon fill="midnightblue" stroke="midnightblue" points="545.732,-11.5001 535.732,-15 545.732,-18.5001 545.732,-11.5001"/>
</g>
</g>
</svg>
