<?xml version="1.0" encoding="UTF-8" standalone="no"?>
<!DOCTYPE svg PUBLIC "-//W3C//DTD SVG 1.1//EN"
 "http://www.w3.org/Graphics/SVG/1.1/DTD/svg11.dtd">
<!-- Generated by graphviz version 2.36.0 (20140111.2315)
 -->
<!-- Title: stride::DefaultPopBuilder::Build Pages: 1 -->
<svg width="458pt" height="387pt"
 viewBox="0.00 0.00 458.00 387.00" xmlns="http://www.w3.org/2000/svg" xmlns:xlink="http://www.w3.org/1999/xlink">
<g id="graph0" class="graph" transform="scale(1 1) rotate(0) translate(4 383)">
<title>stride::DefaultPopBuilder::Build</title>
<polygon fill="white" stroke="none" points="-4,4 -4,-383 454,-383 454,4 -4,4"/>
<!-- Node1 -->
<g id="node1" class="node"><title>Node1</title>
<polygon fill="#bfbfbf" stroke="black" points="0.5,-153 0.5,-183 125.5,-183 125.5,-153 0.5,-153"/>
<text text-anchor="start" x="8.5" y="-171" font-family="Helvetica,sans-Serif" font-size="10.00">stride::DefaultPopBuilder</text>
<text text-anchor="middle" x="63" y="-160" font-family="Helvetica,sans-Serif" font-size="10.00">::Build</text>
</g>
<!-- Node2 -->
<g id="node2" class="node"><title>Node2</title>
<g id="a_node2"><a xlink:href="../../d7/dce/a00143.html#a81b191380f9a2c93768ff0efcec47f6b" target="_top" xlink:title="Seeds the population with survey participants. ">
<polygon fill="white" stroke="black" points="162,-153 162,-183 270,-183 270,-153 162,-153"/>
<text text-anchor="start" x="170" y="-171" font-family="Helvetica,sans-Serif" font-size="10.00">stride::SurveySeeder</text>
<text text-anchor="middle" x="216" y="-160" font-family="Helvetica,sans-Serif" font-size="10.00">::Seed</text>
</a>
</g>
</g>
<!-- Node1&#45;&gt;Node2 -->
<g id="edge1" class="edge"><title>Node1&#45;&gt;Node2</title>
<path fill="none" stroke="midnightblue" d="M125.853,-168C134.307,-168 142.997,-168 151.48,-168"/>
<polygon fill="midnightblue" stroke="midnightblue" points="151.695,-171.5 161.695,-168 151.695,-164.5 151.695,-171.5"/>
</g>
<!-- Node3 -->
<g id="node3" class="node"><title>Node3</title>
<g id="a_node3"><a xlink:href="../../d2/df5/a00137.html#a314f886a6abeb0e08aac8fee085e76bd" target="_top" xlink:title="stride::Population\l::GetContactLogger">
<polygon fill="white" stroke="black" points="327,-349 327,-379 429,-379 429,-349 327,-349"/>
<text text-anchor="start" x="335" y="-367" font-family="Helvetica,sans-Serif" font-size="10.00">stride::Population</text>
<text text-anchor="middle" x="378" y="-356" font-family="Helvetica,sans-Serif" font-size="10.00">::GetContactLogger</text>
</a>
</g>
</g>
<!-- Node2&#45;&gt;Node3 -->
<g id="edge2" class="edge"><title>Node2&#45;&gt;Node3</title>
<path fill="none" stroke="midnightblue" d="M220.791,-183.165C229.821,-216.233 255.698,-295.349 306,-339 309.481,-342.021 313.35,-344.683 317.434,-347.03"/>
<polygon fill="midnightblue" stroke="midnightblue" points="316.147,-350.3 326.652,-351.676 319.298,-344.05 316.147,-350.3"/>
</g>
<!-- Node4 -->
<g id="node4" class="node"><title>Node4</title>
<g id="a_node4"><a xlink:href="../../d1/dc1/a00092.html#a0e279c31f261b01f7798355e27401bfe" target="_top" xlink:title="Returns the number of elements. ">
<polygon fill="white" stroke="black" points="306.5,-300 306.5,-330 449.5,-330 449.5,-300 306.5,-300"/>
<text text-anchor="start" x="314.5" y="-318" font-family="Helvetica,sans-Serif" font-size="10.00">stride::util::SegmentedVector</text>
<text text-anchor="middle" x="378" y="-307" font-family="Helvetica,sans-Serif" font-size="10.00">::size</text>
</a>
</g>
</g>
<!-- Node2&#45;&gt;Node4 -->
<g id="edge3" class="edge"><title>Node2&#45;&gt;Node4</title>
<path fill="none" stroke="midnightblue" d="M224.132,-183.024C236.992,-208.577 266.452,-260.583 306,-290 308.489,-291.851 311.126,-293.574 313.863,-295.176"/>
<polygon fill="midnightblue" stroke="midnightblue" points="312.402,-298.362 322.886,-299.893 315.645,-292.158 312.402,-298.362"/>
</g>
<!-- Node5 -->
<g id="node5" class="node"><title>Node5</title>
<g id="a_node5"><a xlink:href="../../d1/db7/a00157.html#a6508932485d419a6e7ab3cac60754ae6" target="_top" xlink:title="Produce a random generator out of a distribution bound to sim&#39;s random engine. ">
<polygon fill="white" stroke="black" points="319,-251 319,-281 437,-281 437,-251 319,-251"/>
<text text-anchor="start" x="327" y="-269" font-family="Helvetica,sans-Serif" font-size="10.00">stride::util::RNManager</text>
<text text-anchor="middle" x="378" y="-258" font-family="Helvetica,sans-Serif" font-size="10.00">::GetGenerator</text>
</a>
</g>
</g>
<!-- Node2&#45;&gt;Node5 -->
<g id="edge4" class="edge"><title>Node2&#45;&gt;Node5</title>
<path fill="none" stroke="midnightblue" d="M232.156,-183.278C248.947,-199.485 277.441,-224.922 306,-241 309.715,-243.092 313.637,-245.056 317.651,-246.892"/>
<polygon fill="midnightblue" stroke="midnightblue" points="316.564,-250.233 327.135,-250.941 319.313,-243.796 316.564,-250.233"/>
</g>
<!-- Node6 -->
<g id="node6" class="node"><title>Node6</title>
<g id="a_node6"><a xlink:href="../../d0/d5e/a00136.html#a5942b9a4f5226e8810dc8b63fb250f3e" target="_top" xlink:title="Does this person participates in the social contact study? ">
<polygon fill="white" stroke="black" points="317,-202 317,-232 439,-232 439,-202 317,-202"/>
<text text-anchor="start" x="325" y="-220" font-family="Helvetica,sans-Serif" font-size="10.00">stride::Person::IsSurvey</text>
<text text-anchor="middle" x="378" y="-209" font-family="Helvetica,sans-Serif" font-size="10.00">Participant</text>
</a>
</g>
</g>
<!-- Node2&#45;&gt;Node6 -->
<g id="edge5" class="edge"><title>Node2&#45;&gt;Node6</title>
<path fill="none" stroke="midnightblue" d="M266.311,-183.101C282.66,-188.108 301.024,-193.732 318.025,-198.939"/>
<polygon fill="midnightblue" stroke="midnightblue" points="317.265,-202.367 327.852,-201.948 319.315,-195.674 317.265,-202.367"/>
</g>
<!-- Node7 -->
<g id="node7" class="node"><title>Node7</title>
<g id="a_node7"><a xlink:href="../../d0/d5e/a00136.html#a6c27c93e351ca63aa6e3a055cd9110b2" target="_top" xlink:title="Participate in social contact study and log person details. ">
<polygon fill="white" stroke="black" points="313,-153 313,-183 443,-183 443,-153 313,-153"/>
<text text-anchor="start" x="321" y="-171" font-family="Helvetica,sans-Serif" font-size="10.00">stride::Person::Participate</text>
<text text-anchor="middle" x="378" y="-160" font-family="Helvetica,sans-Serif" font-size="10.00">InSurvey</text>
</a>
</g>
</g>
<!-- Node2&#45;&gt;Node7 -->
<g id="edge6" class="edge"><title>Node2&#45;&gt;Node7</title>
<path fill="none" stroke="midnightblue" d="M270.278,-168C280.718,-168 291.844,-168 302.823,-168"/>
<polygon fill="midnightblue" stroke="midnightblue" points="302.84,-171.5 312.84,-168 302.84,-164.5 302.84,-171.5"/>
</g>
<!-- Node8 -->
<g id="node8" class="node"><title>Node8</title>
<g id="a_node8"><a xlink:href="../../d0/d5e/a00136.html#afab3ab2a1a33004f9e25d4873c3c1921" target="_top" xlink:title="Get the id. ">
<polygon fill="white" stroke="black" points="324.5,-114.5 324.5,-133.5 431.5,-133.5 431.5,-114.5 324.5,-114.5"/>
<text text-anchor="middle" x="378" y="-121.5" font-family="Helvetica,sans-Serif" font-size="10.00">stride::Person::GetId</text>
</a>
</g>
</g>
<!-- Node2&#45;&gt;Node8 -->
<g id="edge7" class="edge"><title>Node2&#45;&gt;Node8</title>
<path fill="none" stroke="midnightblue" d="M270.278,-153.349C290.405,-147.814 313.082,-141.578 332.339,-136.282"/>
<polygon fill="midnightblue" stroke="midnightblue" points="333.353,-139.633 342.067,-133.607 331.496,-132.884 333.353,-139.633"/>
</g>
<!-- Node9 -->
<g id="node9" class="node"><title>Node9</title>
<g id="a_node9"><a xlink:href="../../d0/d5e/a00136.html#ad85ecf5500764ae2c025f7e2aab8003c" target="_top" xlink:title="Get the age. ">
<polygon fill="white" stroke="black" points="320,-76.5 320,-95.5 436,-95.5 436,-76.5 320,-76.5"/>
<text text-anchor="middle" x="378" y="-83.5" font-family="Helvetica,sans-Serif" font-size="10.00">stride::Person::GetAge</text>
</a>
</g>
</g>
<!-- Node2&#45;&gt;Node9 -->
<g id="edge8" class="edge"><title>Node2&#45;&gt;Node9</title>
<path fill="none" stroke="midnightblue" d="M234.238,-152.957C251.367,-138.726 278.922,-117.706 306,-105 311.054,-102.629 316.454,-100.513 321.934,-98.6345"/>
<polygon fill="midnightblue" stroke="midnightblue" points="323.349,-101.858 331.828,-95.5062 321.238,-95.1838 323.349,-101.858"/>
</g>
<!-- Node10 -->
<g id="node10" class="node"><title>Node10</title>
<g id="a_node10"><a xlink:href="../../d0/d5e/a00136.html#ada6071b93ce9d5b5611a2151e14d0740" target="_top" xlink:title="Return person&#39;s gender. ">
<polygon fill="white" stroke="black" points="312.5,-38.5 312.5,-57.5 443.5,-57.5 443.5,-38.5 312.5,-38.5"/>
<text text-anchor="middle" x="378" y="-45.5" font-family="Helvetica,sans-Serif" font-size="10.00">stride::Person::GetGender</text>
</a>
</g>
</g>
<!-- Node2&#45;&gt;Node10 -->
<g id="edge9" class="edge"><title>Node2&#45;&gt;Node10</title>
<path fill="none" stroke="midnightblue" d="M226.183,-152.812C240.443,-130.55 270.047,-89.2898 306,-67 309.538,-64.8064 313.328,-62.8634 317.247,-61.1426"/>
<polygon fill="midnightblue" stroke="midnightblue" points="318.518,-64.4036 326.57,-57.5176 315.982,-57.8794 318.518,-64.4036"/>
</g>
<!-- Node11 -->
<g id="node11" class="node"><title>Node11</title>
<g id="a_node11"><a xlink:href="../../d0/d5e/a00136.html#ace277043dfb3a2052adf508dd0179567" target="_top" xlink:title="Get ID of contactpool_type. ">
<polygon fill="white" stroke="black" points="314.5,-0.5 314.5,-19.5 441.5,-19.5 441.5,-0.5 314.5,-0.5"/>
<text text-anchor="middle" x="378" y="-7.5" font-family="Helvetica,sans-Serif" font-size="10.00">stride::Person::GetPoolId</text>
</a>
</g>
</g>
<!-- Node2&#45;&gt;Node11 -->
<g id="edge10" class="edge"><title>Node2&#45;&gt;Node11</title>
<path fill="none" stroke="midnightblue" d="M222.406,-152.82C233.442,-124.071 261.358,-61.6435 306,-29 308.678,-27.0417 311.544,-25.2853 314.533,-23.7098"/>
<polygon fill="midnightblue" stroke="midnightblue" points="316.141,-26.824 323.802,-19.5056 313.249,-20.4492 316.141,-26.824"/>
</g>
</g>
</svg>
