<?xml version="1.0" encoding="UTF-8" standalone="no"?>
<!DOCTYPE svg PUBLIC "-//W3C//DTD SVG 1.1//EN"
 "http://www.w3.org/Graphics/SVG/1.1/DTD/svg11.dtd">
<!-- Generated by graphviz version 2.36.0 (20140111.2315)
 -->
<!-- Title: stride::util::FileSys::IsDirectoryString Pages: 1 -->
<svg width="602pt" height="234pt"
 viewBox="0.00 0.00 602.00 234.00" xmlns="http://www.w3.org/2000/svg" xmlns:xlink="http://www.w3.org/1999/xlink">
<g id="graph0" class="graph" transform="scale(1 1) rotate(0) translate(4 230)">
<title>stride::util::FileSys::IsDirectoryString</title>
<polygon fill="white" stroke="none" points="-4,4 -4,-230 598,-230 598,4 -4,4"/>
<!-- Node1 -->
<g id="node1" class="node"><title>Node1</title>
<polygon fill="#bfbfbf" stroke="black" points="0,-73 0,-103 98,-103 98,-73 0,-73"/>
<text text-anchor="start" x="8" y="-91" font-family="Helvetica,sans-Serif" font-size="10.00">stride::util::FileSys</text>
<text text-anchor="middle" x="49" y="-80" font-family="Helvetica,sans-Serif" font-size="10.00">::IsDirectoryString</text>
</g>
<!-- Node2 -->
<g id="node2" class="node"><title>Node2</title>
<g id="a_node2"><a xlink:href="../../da/d01/a00153.html#a750e3b3e045bb2e17639b4d014d33974" target="_top" xlink:title="Interpret prefix (directory or filename prefix) and return appropriate path. ">
<polygon fill="white" stroke="black" points="141,-98 141,-128 239,-128 239,-98 141,-98"/>
<text text-anchor="start" x="149" y="-116" font-family="Helvetica,sans-Serif" font-size="10.00">stride::util::FileSys</text>
<text text-anchor="middle" x="190" y="-105" font-family="Helvetica,sans-Serif" font-size="10.00">::BuildPath</text>
</a>
</g>
</g>
<!-- Node1&#45;&gt;Node2 -->
<g id="edge1" class="edge"><title>Node1&#45;&gt;Node2</title>
<path fill="none" stroke="midnightblue" d="M108.101,-98.4498C119.007,-100.411 130.298,-102.442 140.86,-104.342"/>
<polygon fill="midnightblue" stroke="midnightblue" points="108.687,-94.9991 98.2254,-96.6736 107.448,-101.889 108.687,-94.9991"/>
</g>
<!-- Node11 -->
<g id="node11" class="node"><title>Node11</title>
<g id="a_node11"><a xlink:href="../../d9/d77/a00095.html#a0837ea00e86c16aa6e7e7fa6d31d5a57" target="_top" xlink:title="stride::BaseController\l::CheckOutputPrefix">
<polygon fill="white" stroke="black" points="134.5,-49 134.5,-79 245.5,-79 245.5,-49 134.5,-49"/>
<text text-anchor="start" x="142.5" y="-67" font-family="Helvetica,sans-Serif" font-size="10.00">stride::BaseController</text>
<text text-anchor="middle" x="190" y="-56" font-family="Helvetica,sans-Serif" font-size="10.00">::CheckOutputPrefix</text>
</a>
</g>
</g>
<!-- Node1&#45;&gt;Node11 -->
<g id="edge10" class="edge"><title>Node1&#45;&gt;Node11</title>
<path fill="none" stroke="midnightblue" d="M108.192,-77.9525C116.803,-76.4657 125.652,-74.9377 134.191,-73.4634"/>
<polygon fill="midnightblue" stroke="midnightblue" points="107.484,-74.5228 98.2254,-79.6733 108.675,-81.4208 107.484,-74.5228"/>
</g>
<!-- Node3 -->
<g id="node3" class="node"><title>Node3</title>
<g id="a_node3"><a xlink:href="../../d5/deb/a00132.html#aefdeb0e49b52e1fb5844bb311a6319cb" target="_top" xlink:title="Generate file name and open the file stream. ">
<polygon fill="white" stroke="black" points="285.5,-196 285.5,-226 416.5,-226 416.5,-196 285.5,-196"/>
<text text-anchor="start" x="293.5" y="-214" font-family="Helvetica,sans-Serif" font-size="10.00">stride::output::AdoptedFile</text>
<text text-anchor="middle" x="351" y="-203" font-family="Helvetica,sans-Serif" font-size="10.00">::Initialize</text>
</a>
</g>
</g>
<!-- Node2&#45;&gt;Node3 -->
<g id="edge2" class="edge"><title>Node2&#45;&gt;Node3</title>
<path fill="none" stroke="midnightblue" d="M214.087,-135.047C231.621,-150.877 256.92,-171.833 282,-186 288.461,-189.65 295.556,-192.945 302.65,-195.856"/>
<polygon fill="midnightblue" stroke="midnightblue" points="216.338,-132.363 206.605,-128.178 211.604,-137.519 216.338,-132.363"/>
</g>
<!-- Node5 -->
<g id="node5" class="node"><title>Node5</title>
<g id="a_node5"><a xlink:href="../../d9/d77/a00095.html#a2d12c22b23e4f38dc6ce483e0edcee84" target="_top" xlink:title="Make the appropriate logger for cli environment and register as stride_logger. ">
<polygon fill="white" stroke="black" points="295.5,-147 295.5,-177 406.5,-177 406.5,-147 295.5,-147"/>
<text text-anchor="start" x="303.5" y="-165" font-family="Helvetica,sans-Serif" font-size="10.00">stride::BaseController</text>
<text text-anchor="middle" x="351" y="-154" font-family="Helvetica,sans-Serif" font-size="10.00">::MakeLogger</text>
</a>
</g>
</g>
<!-- Node2&#45;&gt;Node5 -->
<g id="edge4" class="edge"><title>Node2&#45;&gt;Node5</title>
<path fill="none" stroke="midnightblue" d="M249.028,-130.883C266.155,-136.161 284.72,-141.882 301.203,-146.962"/>
<polygon fill="midnightblue" stroke="midnightblue" points="249.724,-127.435 239.137,-127.835 247.662,-134.125 249.724,-127.435"/>
</g>
<!-- Node6 -->
<g id="node6" class="node"><title>Node6</title>
<g id="a_node6"><a xlink:href="../../d0/de8/a00133.html#a1f9b3fab4125e26c2eebd32ee27dd977" target="_top" xlink:title="Constructor: initialize. ">
<polygon fill="white" stroke="black" points="293.5,-98 293.5,-128 408.5,-128 408.5,-98 293.5,-98"/>
<text text-anchor="start" x="301.5" y="-116" font-family="Helvetica,sans-Serif" font-size="10.00">stride::output::Infected</text>
<text text-anchor="middle" x="351" y="-105" font-family="Helvetica,sans-Serif" font-size="10.00">File::InfectedFile</text>
</a>
</g>
</g>
<!-- Node2&#45;&gt;Node6 -->
<g id="edge5" class="edge"><title>Node2&#45;&gt;Node6</title>
<path fill="none" stroke="midnightblue" d="M249.386,-113C263.742,-113 279.089,-113 293.361,-113"/>
<polygon fill="midnightblue" stroke="midnightblue" points="249.137,-109.5 239.137,-113 249.137,-116.5 249.137,-109.5"/>
</g>
<!-- Node7 -->
<g id="node7" class="node"><title>Node7</title>
<g id="a_node7"><a xlink:href="../../de/d76/a00134.html#a70798ee06674e243f7dad24ae2dca7fd" target="_top" xlink:title="Generate file name and open the file stream. ">
<polygon fill="white" stroke="black" points="285.5,-49 285.5,-79 416.5,-79 416.5,-49 285.5,-49"/>
<text text-anchor="start" x="293.5" y="-67" font-family="Helvetica,sans-Serif" font-size="10.00">stride::output::PersonsFile</text>
<text text-anchor="middle" x="351" y="-56" font-family="Helvetica,sans-Serif" font-size="10.00">::Initialize</text>
</a>
</g>
</g>
<!-- Node2&#45;&gt;Node7 -->
<g id="edge6" class="edge"><title>Node2&#45;&gt;Node7</title>
<path fill="none" stroke="midnightblue" d="M249.028,-95.1171C266.155,-89.839 284.72,-84.1179 301.203,-79.038"/>
<polygon fill="midnightblue" stroke="midnightblue" points="247.662,-91.8755 239.137,-98.1654 249.724,-98.565 247.662,-91.8755"/>
</g>
<!-- Node9 -->
<g id="node9" class="node"><title>Node9</title>
<g id="a_node9"><a xlink:href="../../d5/d5b/a00135.html#a73334b641e8aeb7edff5cc8b6affc86c" target="_top" xlink:title="Generate file name and open the file stream. ">
<polygon fill="white" stroke="black" points="282.5,-0 282.5,-30 419.5,-30 419.5,-0 282.5,-0"/>
<text text-anchor="start" x="290.5" y="-18" font-family="Helvetica,sans-Serif" font-size="10.00">stride::output::SummaryFile</text>
<text text-anchor="middle" x="351" y="-7" font-family="Helvetica,sans-Serif" font-size="10.00">::Initialize</text>
</a>
</g>
</g>
<!-- Node2&#45;&gt;Node9 -->
<g id="edge8" class="edge"><title>Node2&#45;&gt;Node9</title>
<path fill="none" stroke="midnightblue" d="M239.553,-92.67C241.798,-91.195 243.961,-89.6385 246,-88 266.786,-71.2953 260.608,-55.921 282,-40 287.146,-36.1701 292.941,-32.874 298.921,-30.051"/>
<polygon fill="midnightblue" stroke="midnightblue" points="237.424,-89.8623 230.586,-97.9554 240.978,-95.8926 237.424,-89.8623"/>
</g>
<!-- Node4 -->
<g id="node4" class="node"><title>Node4</title>
<g id="a_node4"><a xlink:href="../../d5/deb/a00132.html#aa24c13053bcf131ad878b465a4125828" target="_top" xlink:title="Constructor. ">
<polygon fill="white" stroke="black" points="459.5,-196 459.5,-226 590.5,-226 590.5,-196 459.5,-196"/>
<text text-anchor="start" x="467.5" y="-214" font-family="Helvetica,sans-Serif" font-size="10.00">stride::output::AdoptedFile</text>
<text text-anchor="middle" x="525" y="-203" font-family="Helvetica,sans-Serif" font-size="10.00">::AdoptedFile</text>
</a>
</g>
</g>
<!-- Node3&#45;&gt;Node4 -->
<g id="edge3" class="edge"><title>Node3&#45;&gt;Node4</title>
<path fill="none" stroke="midnightblue" d="M426.837,-211C437.682,-211 448.768,-211 459.389,-211"/>
<polygon fill="midnightblue" stroke="midnightblue" points="426.536,-207.5 416.536,-211 426.536,-214.5 426.536,-207.5"/>
</g>
<!-- Node8 -->
<g id="node8" class="node"><title>Node8</title>
<g id="a_node8"><a xlink:href="../../de/d76/a00134.html#ab2c1e70237152817647dded0f5906c6b" target="_top" xlink:title="Constructor: initialize. ">
<polygon fill="white" stroke="black" points="459.5,-49 459.5,-79 590.5,-79 590.5,-49 459.5,-49"/>
<text text-anchor="start" x="467.5" y="-67" font-family="Helvetica,sans-Serif" font-size="10.00">stride::output::PersonsFile</text>
<text text-anchor="middle" x="525" y="-56" font-family="Helvetica,sans-Serif" font-size="10.00">::PersonsFile</text>
</a>
</g>
</g>
<!-- Node7&#45;&gt;Node8 -->
<g id="edge7" class="edge"><title>Node7&#45;&gt;Node8</title>
<path fill="none" stroke="midnightblue" d="M426.837,-64C437.682,-64 448.768,-64 459.389,-64"/>
<polygon fill="midnightblue" stroke="midnightblue" points="426.536,-60.5001 416.536,-64 426.536,-67.5001 426.536,-60.5001"/>
</g>
<!-- Node10 -->
<g id="node10" class="node"><title>Node10</title>
<g id="a_node10"><a xlink:href="../../d5/d5b/a00135.html#a1f848c3aa92042b2fa7d399ad31b0e33" target="_top" xlink:title="Constructor: initialize. ">
<polygon fill="white" stroke="black" points="456.5,-0 456.5,-30 593.5,-30 593.5,-0 456.5,-0"/>
<text text-anchor="start" x="464.5" y="-18" font-family="Helvetica,sans-Serif" font-size="10.00">stride::output::SummaryFile</text>
<text text-anchor="middle" x="525" y="-7" font-family="Helvetica,sans-Serif" font-size="10.00">::SummaryFile</text>
</a>
</g>
</g>
<!-- Node9&#45;&gt;Node10 -->
<g id="edge9" class="edge"><title>Node9&#45;&gt;Node10</title>
<path fill="none" stroke="midnightblue" d="M430.134,-15C438.846,-15 447.666,-15 456.233,-15"/>
<polygon fill="midnightblue" stroke="midnightblue" points="429.979,-11.5001 419.979,-15 429.979,-18.5001 429.979,-11.5001"/>
</g>
</g>
</svg>
