<?xml version="1.0" encoding="UTF-8" standalone="no"?>
<!DOCTYPE svg PUBLIC "-//W3C//DTD SVG 1.1//EN"
 "http://www.w3.org/Graphics/SVG/1.1/DTD/svg11.dtd">
<!-- Generated by graphviz version 2.36.0 (20140111.2315)
 -->
<!-- Title: stride::util::para_seed Pages: 1 -->
<!--zoomable 185 -->
<svg id="main" version="1.1" xmlns="http://www.w3.org/2000/svg" xmlns:xlink="http://www.w3.org/1999/xlink" xml:space="preserve" onload="init(evt)">
<style type="text/css"><![CDATA[
.edge:hover path { stroke: red; }
.edge:hover polygon { stroke: red; fill: red; }
]]></style>
<script type="text/javascript"><![CDATA[
var edges = document.getElementsByTagName('g');
if (edges && edges.length) {
  for (var i=0;i<edges.length;i++) {
    if (edges[i].id.substr(0,4)=='edge') {
      edges[i].setAttribute('class','edge');
    }
  }
}
]]></script>
        <defs>
                <circle id="rim" cx="0" cy="0" r="7"/>
                <circle id="rim2" cx="0" cy="0" r="3.5"/>
                <g id="zoomPlus">
                        <use xlink:href="#rim" fill="#404040">
                                <set attributeName="fill" to="#808080" begin="zoomplus.mouseover" end="zoomplus.mouseout"/>
                        </use>
                        <path d="M-4,0h8M0,-4v8" fill="none" stroke="white" stroke-width="1.5" pointer-events="none"/>
                </g>
                <g id="zoomMin">
                        <use xlink:href="#rim" fill="#404040">
                                <set attributeName="fill" to="#808080" begin="zoomminus.mouseover" end="zoomminus.mouseout"/>
                        </use>
                        <path d="M-4,0h8" fill="none" stroke="white" stroke-width="1.5" pointer-events="none"/>
                </g>
                <g id="dirArrow">
                        <path fill="none" stroke="white" stroke-width="1.5" d="M0,-3.0v7 M-2.5,-0.5L0,-3.0L2.5,-0.5"/>
                </g>
               <g id="resetDef">
                       <use xlink:href="#rim2" fill="#404040">
                               <set attributeName="fill" to="#808080" begin="reset.mouseover" end="reset.mouseout"/>
                       </use>
               </g>
        </defs>

<script type="text/javascript">
var viewWidth = 722;
var viewHeight = 185;
var sectionId = 'dynsection-3';
</script>
<script xlink:href="../../svgpan.js"/>
<svg id="graph" class="graph">
<g id="viewport">
<title>stride::util::para_seed</title>
<polygon fill="white" stroke="none" points="-4,4 -4,-181 718,-181 718,4 -4,4"/>
<!-- Node1 -->
<g id="node1" class="node"><title>Node1</title>
<polygon fill="#bfbfbf" stroke="black" points="0,-78.5 0,-97.5 110,-97.5 110,-78.5 0,-78.5"/>
<text text-anchor="middle" x="55" y="-85.5" font-family="Helvetica,sans-Serif" font-size="10.00">stride::util::para_seed</text>
</g>
<!-- Node2 -->
<g id="node2" class="node"><title>Node2</title>
<g id="a_node2"><a xlink:href="../../d1/db7/a00157.html#a8c78f40f38b8a3fc25e2c21be2de505a" target="_top" xlink:title="Initalize with data in Info. ">
<polygon fill="white" stroke="black" points="146,-73 146,-103 264,-103 264,-73 146,-73"/>
<text text-anchor="start" x="154" y="-91" font-family="Helvetica,sans-Serif" font-size="10.00">stride::util::RNManager</text>
<text text-anchor="middle" x="205" y="-80" font-family="Helvetica,sans-Serif" font-size="10.00">::Initialize</text>
</a>
</g>
</g>
<!-- Node1&#45;&gt;Node2 -->
<g id="edge1" class="edge"><title>Node1&#45;&gt;Node2</title>
<path fill="none" stroke="midnightblue" d="M120.429,-88C128.85,-88 137.44,-88 145.752,-88"/>
<polygon fill="midnightblue" stroke="midnightblue" points="120.269,-84.5001 110.269,-88 120.269,-91.5001 120.269,-84.5001"/>
</g>
<!-- Node3 -->
<g id="node3" class="node"><title>Node3</title>
<g id="a_node3"><a xlink:href="../../d9/d77/a00095.html#a9837dd9796e5b2a40c37984537c1375f" target="_top" xlink:title="Empty controller: used as taget for delegation. ">
<polygon fill="white" stroke="black" points="303.5,-147 303.5,-177 414.5,-177 414.5,-147 303.5,-147"/>
<text text-anchor="start" x="311.5" y="-165" font-family="Helvetica,sans-Serif" font-size="10.00">stride::BaseController</text>
<text text-anchor="middle" x="359" y="-154" font-family="Helvetica,sans-Serif" font-size="10.00">::BaseController</text>
</a>
</g>
</g>
<!-- Node2&#45;&gt;Node3 -->
<g id="edge2" class="edge"><title>Node2&#45;&gt;Node3</title>
<path fill="none" stroke="midnightblue" d="M242.852,-108.01C260.066,-117.15 280.927,-127.933 300,-137 307.031,-140.342 314.624,-143.754 321.925,-146.939"/>
<polygon fill="midnightblue" stroke="midnightblue" points="244.169,-104.745 233.699,-103.123 240.872,-110.92 244.169,-104.745"/>
</g>
<!-- Node4 -->
<g id="node4" class="node"><title>Node4</title>
<g id="a_node4"><a xlink:href="../../de/d5e/a00007.html#a89dcd5e99936c5704336e7e52b72da55" target="_top" xlink:title="Create an RNManager based on the provided config file. ">
<polygon fill="white" stroke="black" points="304.5,-98 304.5,-128 413.5,-128 413.5,-98 304.5,-98"/>
<text text-anchor="start" x="312.5" y="-116" font-family="Helvetica,sans-Serif" font-size="10.00">calibration::Calibrator</text>
<text text-anchor="middle" x="359" y="-105" font-family="Helvetica,sans-Serif" font-size="10.00">::CreateRNManager</text>
</a>
</g>
</g>
<!-- Node2&#45;&gt;Node4 -->
<g id="edge3" class="edge"><title>Node2&#45;&gt;Node4</title>
<path fill="none" stroke="midnightblue" d="M274.24,-99.2237C284.234,-100.867 294.408,-102.541 304.063,-104.129"/>
<polygon fill="midnightblue" stroke="midnightblue" points="274.768,-95.7636 264.332,-97.5942 273.632,-102.671 274.768,-95.7636"/>
</g>
<!-- Node8 -->
<g id="node8" class="node"><title>Node8</title>
<g id="a_node8"><a xlink:href="../../d1/db7/a00157.html#a30121f0f47cf4c23bed8da7521b2b904" target="_top" xlink:title="Initializes to default engine( trng::mrg2 with seed 1). ">
<polygon fill="white" stroke="black" points="300,-49 300,-79 418,-79 418,-49 300,-49"/>
<text text-anchor="start" x="308" y="-67" font-family="Helvetica,sans-Serif" font-size="10.00">stride::util::RNManager</text>
<text text-anchor="middle" x="359" y="-56" font-family="Helvetica,sans-Serif" font-size="10.00">::RNManager</text>
</a>
</g>
</g>
<!-- Node2&#45;&gt;Node8 -->
<g id="edge8" class="edge"><title>Node2&#45;&gt;Node8</title>
<path fill="none" stroke="midnightblue" d="M274.264,-77.2215C282.798,-75.874 291.463,-74.5058 299.824,-73.1857"/>
<polygon fill="midnightblue" stroke="midnightblue" points="273.664,-73.7727 264.332,-78.7896 274.756,-80.6871 273.664,-73.7727"/>
</g>
<!-- Node9 -->
<g id="node9" class="node"><title>Node9</title>
<g id="a_node9"><a xlink:href="../../d1/db7/a00157.html#a49618df845ec996f3a777263c7f376de" target="_top" xlink:title="Wrapper method that creates an Info object, used because SWIG can&#39;t handle nested structs...">
<polygon fill="white" stroke="black" points="300,-0 300,-30 418,-30 418,-0 300,-0"/>
<text text-anchor="start" x="308" y="-18" font-family="Helvetica,sans-Serif" font-size="10.00">stride::util::RNManager</text>
<text text-anchor="middle" x="359" y="-7" font-family="Helvetica,sans-Serif" font-size="10.00">::Initialize</text>
</a>
</g>
</g>
<!-- Node2&#45;&gt;Node9 -->
<g id="edge9" class="edge"><title>Node2&#45;&gt;Node9</title>
<path fill="none" stroke="midnightblue" d="M243.655,-68.0631C260.729,-59.2074 281.252,-48.8159 300,-40 307.045,-36.6872 314.644,-33.289 321.947,-30.1075"/>
<polygon fill="midnightblue" stroke="midnightblue" points="241.808,-65.0791 234.558,-72.8052 245.044,-71.2863 241.808,-65.0791"/>
</g>
<!-- Node5 -->
<g id="node5" class="node"><title>Node5</title>
<g id="a_node5"><a xlink:href="../../de/d5e/a00007.html#a26ee572195c295b6735b370ca3dab8b0" target="_top" xlink:title="Run count simulations for each config by varying the seed and return the infected counts after each t...">
<polygon fill="white" stroke="black" points="454.5,-122 454.5,-152 563.5,-152 563.5,-122 454.5,-122"/>
<text text-anchor="start" x="462.5" y="-140" font-family="Helvetica,sans-Serif" font-size="10.00">calibration::Calibrator</text>
<text text-anchor="middle" x="509" y="-129" font-family="Helvetica,sans-Serif" font-size="10.00">::RunMultiple</text>
</a>
</g>
</g>
<!-- Node4&#45;&gt;Node5 -->
<g id="edge4" class="edge"><title>Node4&#45;&gt;Node5</title>
<path fill="none" stroke="midnightblue" d="M423.913,-123.364C434.092,-125.015 444.53,-126.708 454.438,-128.314"/>
<polygon fill="midnightblue" stroke="midnightblue" points="424.281,-119.878 413.85,-121.732 423.161,-126.788 424.281,-119.878"/>
</g>
<!-- Node7 -->
<g id="node7" class="node"><title>Node7</title>
<g id="a_node7"><a xlink:href="../../de/d5e/a00007.html#a83f2d479f8ff86e01a3d1f2c2aeadb39" target="_top" xlink:title="Run one simulation for each config and return the infected counts after each timestep. ">
<polygon fill="white" stroke="black" points="454.5,-73 454.5,-103 563.5,-103 563.5,-73 454.5,-73"/>
<text text-anchor="start" x="462.5" y="-91" font-family="Helvetica,sans-Serif" font-size="10.00">calibration::Calibrator</text>
<text text-anchor="middle" x="509" y="-80" font-family="Helvetica,sans-Serif" font-size="10.00">::RunSingle</text>
</a>
</g>
</g>
<!-- Node4&#45;&gt;Node7 -->
<g id="edge6" class="edge"><title>Node4&#45;&gt;Node7</title>
<path fill="none" stroke="midnightblue" d="M423.913,-102.204C434.092,-100.484 444.53,-98.7213 454.438,-97.0477"/>
<polygon fill="midnightblue" stroke="midnightblue" points="423.127,-98.7869 413.85,-103.904 424.293,-105.689 423.127,-98.7869"/>
</g>
<!-- Node6 -->
<g id="node6" class="node"><title>Node6</title>
<g id="a_node6"><a xlink:href="../../de/d21/a00006.html#a15b5bc2c7261304c0613ffad908e5a2b" target="_top" xlink:title="Run the Calibrator. ">
<polygon fill="white" stroke="black" points="600.5,-97 600.5,-127 713.5,-127 713.5,-97 600.5,-97"/>
<text text-anchor="start" x="608.5" y="-115" font-family="Helvetica,sans-Serif" font-size="10.00">calibration::Calibration</text>
<text text-anchor="middle" x="657" y="-104" font-family="Helvetica,sans-Serif" font-size="10.00">Runner::Run</text>
</a>
</g>
</g>
<!-- Node5&#45;&gt;Node6 -->
<g id="edge5" class="edge"><title>Node5&#45;&gt;Node6</title>
<path fill="none" stroke="midnightblue" d="M573.421,-126.14C582.273,-124.624 591.317,-123.076 600.019,-121.586"/>
<polygon fill="midnightblue" stroke="midnightblue" points="572.802,-122.695 563.536,-127.833 573.983,-129.595 572.802,-122.695"/>
</g>
<!-- Node7&#45;&gt;Node6 -->
<g id="edge7" class="edge"><title>Node7&#45;&gt;Node6</title>
<path fill="none" stroke="midnightblue" d="M573.421,-98.4254C582.273,-99.8806 591.317,-101.367 600.019,-102.798"/>
<polygon fill="midnightblue" stroke="midnightblue" points="573.971,-94.9689 563.536,-96.8004 572.836,-101.876 573.971,-94.9689"/>
</g>
</g>
</svg>
        <g id="navigator" transform="translate(0 0)" fill="#404254">
                <rect fill="#f2f5e9" fill-opacity="0.5" stroke="#606060" stroke-width=".5" x="0" y="0" width="60" height="60"/>
                <use id="zoomplus" xlink:href="#zoomPlus" x="17" y="9" onmousedown="handleZoom(evt,'in')"/>
                <use id="zoomminus" xlink:href="#zoomMin" x="42" y="9" onmousedown="handleZoom(evt,'out')"/>
                <use id="reset" xlink:href="#resetDef" x="30" y="36" onmousedown="handleReset()"/>
                <g id="arrowUp" xlink:href="#dirArrow" transform="translate(30 24)" onmousedown="handlePan(0,-1)">
                  <use xlink:href="#rim" fill="#404040">
                        <set attributeName="fill" to="#808080" begin="arrowUp.mouseover" end="arrowUp.mouseout"/>
                  </use>
                  <path fill="none" stroke="white" stroke-width="1.5" d="M0,-3.0v7 M-2.5,-0.5L0,-3.0L2.5,-0.5"/>
                </g>
                <g id="arrowRight" xlink:href="#dirArrow" transform="rotate(90) translate(36 -43)" onmousedown="handlePan(1,0)">
                  <use xlink:href="#rim" fill="#404040">
                        <set attributeName="fill" to="#808080" begin="arrowRight.mouseover" end="arrowRight.mouseout"/>
                  </use>
                  <path fill="none" stroke="white" stroke-width="1.5" d="M0,-3.0v7 M-2.5,-0.5L0,-3.0L2.5,-0.5"/>
                </g>
                <g id="arrowDown" xlink:href="#dirArrow" transform="rotate(180) translate(-30 -48)" onmousedown="handlePan(0,1)">
                  <use xlink:href="#rim" fill="#404040">
                        <set attributeName="fill" to="#808080" begin="arrowDown.mouseover" end="arrowDown.mouseout"/>
                  </use>
                  <path fill="none" stroke="white" stroke-width="1.5" d="M0,-3.0v7 M-2.5,-0.5L0,-3.0L2.5,-0.5"/>
                </g>
                <g id="arrowLeft" xlink:href="#dirArrow" transform="rotate(270) translate(-36 17)" onmousedown="handlePan(-1,0)">
                  <use xlink:href="#rim" fill="#404040">
                        <set attributeName="fill" to="#808080" begin="arrowLeft.mouseover" end="arrowLeft.mouseout"/>
                  </use>
                  <path fill="none" stroke="white" stroke-width="1.5" d="M0,-3.0v7 M-2.5,-0.5L0,-3.0L2.5,-0.5"/>
                </g>
        </g>
        <svg viewBox="0 0 15 15" width="100%" height="30px" preserveAspectRatio="xMaxYMin meet">
         <g id="arrow_out" transform="scale(0.3 0.3)">
          <a xlink:href="a00470_a0c42ba6e336bed67e5a0bdd053802c2a_icgraph_org.svg" target="_base">
           <rect id="button" ry="5" rx="5" y="6" x="6" height="38" width="38"
                fill="#f2f5e9" fill-opacity="0.5" stroke="#606060" stroke-width="1.0"/>
           <path id="arrow"
             d="M 11.500037,31.436501 C 11.940474,20.09759 22.043105,11.32322 32.158766,21.979434 L 37.068811,17.246167 C 37.068811,17.246167 37.088388,32 37.088388,32 L 22.160133,31.978069 C 22.160133,31.978069 26.997745,27.140456 26.997745,27.140456 C 18.528582,18.264221 13.291696,25.230495 11.500037,31.436501 z"
             style="fill:#404040;"/>
          </a>
         </g>
        </svg>
</svg>
