<?xml version="1.0" encoding="UTF-8" standalone="no"?>
<!DOCTYPE svg PUBLIC "-//W3C//DTD SVG 1.1//EN"
 "http://www.w3.org/Graphics/SVG/1.1/DTD/svg11.dtd">
<!-- Generated by graphviz version 2.36.0 (20140111.2315)
 -->
<!-- Title: Calendar.cpp Pages: 1 -->
<svg width="934pt" height="164pt"
 viewBox="0.00 0.00 934.00 164.00" xmlns="http://www.w3.org/2000/svg" xmlns:xlink="http://www.w3.org/1999/xlink">
<g id="graph0" class="graph" transform="scale(1 1) rotate(0) translate(4 160)">
<title>Calendar.cpp</title>
<polygon fill="white" stroke="none" points="-4,4 -4,-160 930,-160 930,4 -4,4"/>
<!-- Node1 -->
<g id="node1" class="node"><title>Node1</title>
<polygon fill="#bfbfbf" stroke="black" points="621,-136.5 621,-155.5 695,-155.5 695,-136.5 621,-136.5"/>
<text text-anchor="middle" x="658" y="-143.5" font-family="Helvetica,sans-Serif" font-size="10.00">Calendar.cpp</text>
</g>
<!-- Node2 -->
<g id="node2" class="node"><title>Node2</title>
<g id="a_node2"><a xlink:href="../../de/db1/a00197.html" target="_top" xlink:title="Header file for the Calendar class. ">
<polygon fill="white" stroke="black" points="279,-74.5 279,-93.5 343,-93.5 343,-74.5 279,-74.5"/>
<text text-anchor="middle" x="311" y="-81.5" font-family="Helvetica,sans-Serif" font-size="10.00">Calendar.h</text>
</a>
</g>
</g>
<!-- Node1&#45;&gt;Node2 -->
<g id="edge1" class="edge"><title>Node1&#45;&gt;Node2</title>
<path fill="none" stroke="midnightblue" d="M620.865,-138.579C555.842,-127.336 421.787,-104.156 353.296,-92.3134"/>
<polygon fill="midnightblue" stroke="midnightblue" points="353.735,-88.8375 343.285,-90.5824 352.542,-95.7351 353.735,-88.8375"/>
</g>
<!-- Node9 -->
<g id="node9" class="node"><title>Node9</title>
<g id="a_node9"><a xlink:href="../../df/da9/a00263.html" target="_top" xlink:title="Interface for install directory queries. ">
<polygon fill="white" stroke="black" points="621,-74.5 621,-93.5 695,-93.5 695,-74.5 621,-74.5"/>
<text text-anchor="middle" x="658" y="-81.5" font-family="Helvetica,sans-Serif" font-size="10.00">util/FileSys.h</text>
</a>
</g>
</g>
<!-- Node1&#45;&gt;Node9 -->
<g id="edge8" class="edge"><title>Node1&#45;&gt;Node9</title>
<path fill="none" stroke="midnightblue" d="M658,-136.403C658,-127.938 658,-114.728 658,-103.82"/>
<polygon fill="midnightblue" stroke="midnightblue" points="661.5,-103.581 658,-93.5806 654.5,-103.581 661.5,-103.581"/>
</g>
<!-- Node14 -->
<g id="node14" class="node"><title>Node14</title>
<polygon fill="white" stroke="#bfbfbf" points="713.5,-69 713.5,-99 814.5,-99 814.5,-69 713.5,-69"/>
<text text-anchor="start" x="721.5" y="-87" font-family="Helvetica,sans-Serif" font-size="10.00">boost/property_tree</text>
<text text-anchor="middle" x="764" y="-76" font-family="Helvetica,sans-Serif" font-size="10.00">/json_parser.hpp</text>
</g>
<!-- Node1&#45;&gt;Node14 -->
<g id="edge14" class="edge"><title>Node1&#45;&gt;Node14</title>
<path fill="none" stroke="midnightblue" d="M673.187,-136.403C688.013,-128.011 711.076,-114.957 730.249,-104.104"/>
<polygon fill="midnightblue" stroke="midnightblue" points="732.039,-107.113 739.018,-99.1408 728.591,-101.021 732.039,-107.113"/>
</g>
<!-- Node3 -->
<g id="node3" class="node"><title>Node3</title>
<polygon fill="white" stroke="#bfbfbf" points="-0.5,-1 -0.5,-31 128.5,-31 128.5,-1 -0.5,-1"/>
<text text-anchor="start" x="7.5" y="-19" font-family="Helvetica,sans-Serif" font-size="10.00">boost/date_time/gregorian</text>
<text text-anchor="middle" x="64" y="-8" font-family="Helvetica,sans-Serif" font-size="10.00">/gregorian.hpp</text>
</g>
<!-- Node2&#45;&gt;Node3 -->
<g id="edge2" class="edge"><title>Node2&#45;&gt;Node3</title>
<path fill="none" stroke="midnightblue" d="M278.962,-74.4393C240.495,-64.1606 175.094,-46.6851 126.509,-33.7027"/>
<polygon fill="midnightblue" stroke="midnightblue" points="127.285,-30.2875 116.721,-31.0873 125.478,-37.0503 127.285,-30.2875"/>
</g>
<!-- Node4 -->
<g id="node4" class="node"><title>Node4</title>
<polygon fill="white" stroke="#bfbfbf" points="417.5,-1 417.5,-31 518.5,-31 518.5,-1 417.5,-1"/>
<text text-anchor="start" x="425.5" y="-19" font-family="Helvetica,sans-Serif" font-size="10.00">boost/property_tree</text>
<text text-anchor="middle" x="468" y="-8" font-family="Helvetica,sans-Serif" font-size="10.00">/ptree.hpp</text>
</g>
<!-- Node2&#45;&gt;Node4 -->
<g id="edge3" class="edge"><title>Node2&#45;&gt;Node4</title>
<path fill="none" stroke="midnightblue" d="M331.525,-74.3717C355.15,-64.4399 394.605,-47.8538 425.033,-35.0626"/>
<polygon fill="midnightblue" stroke="midnightblue" points="426.701,-38.1581 434.563,-31.0562 423.988,-31.7051 426.701,-38.1581"/>
</g>
<!-- Node5 -->
<g id="node5" class="node"><title>Node5</title>
<polygon fill="white" stroke="#bfbfbf" points="147,-6.5 147,-25.5 203,-25.5 203,-6.5 147,-6.5"/>
<text text-anchor="middle" x="175" y="-13.5" font-family="Helvetica,sans-Serif" font-size="10.00">algorithm</text>
</g>
<!-- Node2&#45;&gt;Node5 -->
<g id="edge4" class="edge"><title>Node2&#45;&gt;Node5</title>
<path fill="none" stroke="midnightblue" d="M293.22,-74.3717C270.007,-63.1063 229.151,-43.2794 202.077,-30.1403"/>
<polygon fill="midnightblue" stroke="midnightblue" points="203.309,-26.8477 192.784,-25.6305 200.252,-33.1453 203.309,-26.8477"/>
</g>
<!-- Node6 -->
<g id="node6" class="node"><title>Node6</title>
<polygon fill="white" stroke="#bfbfbf" points="221.5,-6.5 221.5,-25.5 266.5,-25.5 266.5,-6.5 221.5,-6.5"/>
<text text-anchor="middle" x="244" y="-13.5" font-family="Helvetica,sans-Serif" font-size="10.00">cstdlib</text>
</g>
<!-- Node2&#45;&gt;Node6 -->
<g id="edge5" class="edge"><title>Node2&#45;&gt;Node6</title>
<path fill="none" stroke="midnightblue" d="M302.241,-74.3717C291.666,-63.9547 273.66,-46.2173 260.462,-33.2162"/>
<polygon fill="midnightblue" stroke="midnightblue" points="262.555,-30.3654 252.975,-25.8411 257.643,-35.3523 262.555,-30.3654"/>
</g>
<!-- Node7 -->
<g id="node7" class="node"><title>Node7</title>
<polygon fill="white" stroke="#bfbfbf" points="285,-6.5 285,-25.5 337,-25.5 337,-6.5 285,-6.5"/>
<text text-anchor="middle" x="311" y="-13.5" font-family="Helvetica,sans-Serif" font-size="10.00">memory</text>
</g>
<!-- Node2&#45;&gt;Node7 -->
<g id="edge6" class="edge"><title>Node2&#45;&gt;Node7</title>
<path fill="none" stroke="midnightblue" d="M311,-74.3717C311,-64.6426 311,-48.528 311,-35.8504"/>
<polygon fill="midnightblue" stroke="midnightblue" points="314.5,-35.8411 311,-25.8411 307.5,-35.8412 314.5,-35.8411"/>
</g>
<!-- Node8 -->
<g id="node8" class="node"><title>Node8</title>
<polygon fill="white" stroke="#bfbfbf" points="355,-6.5 355,-25.5 399,-25.5 399,-6.5 355,-6.5"/>
<text text-anchor="middle" x="377" y="-13.5" font-family="Helvetica,sans-Serif" font-size="10.00">vector</text>
</g>
<!-- Node2&#45;&gt;Node8 -->
<g id="edge7" class="edge"><title>Node2&#45;&gt;Node8</title>
<path fill="none" stroke="midnightblue" d="M319.628,-74.3717C330.045,-63.9547 347.783,-46.2173 360.784,-33.2162"/>
<polygon fill="midnightblue" stroke="midnightblue" points="363.563,-35.3871 368.159,-25.8411 358.613,-30.4373 363.563,-35.3871"/>
</g>
<!-- Node9&#45;&gt;Node4 -->
<g id="edge11" class="edge"><title>Node9&#45;&gt;Node4</title>
<path fill="none" stroke="midnightblue" d="M633.161,-74.3717C604.074,-64.2679 555.162,-47.2774 518.096,-34.4016"/>
<polygon fill="midnightblue" stroke="midnightblue" points="519.06,-31.0314 508.465,-31.0562 516.763,-37.6439 519.06,-31.0314"/>
</g>
<!-- Node10 -->
<g id="node10" class="node"><title>Node10</title>
<polygon fill="white" stroke="#bfbfbf" points="536.5,-6.5 536.5,-25.5 643.5,-25.5 643.5,-6.5 536.5,-6.5"/>
<text text-anchor="middle" x="590" y="-13.5" font-family="Helvetica,sans-Serif" font-size="10.00">boost/filesystem.hpp</text>
</g>
<!-- Node9&#45;&gt;Node10 -->
<g id="edge9" class="edge"><title>Node9&#45;&gt;Node10</title>
<path fill="none" stroke="midnightblue" d="M649.11,-74.3717C638.276,-63.8564 619.757,-45.8819 606.33,-32.8496"/>
<polygon fill="midnightblue" stroke="midnightblue" points="608.723,-30.2944 599.109,-25.8411 603.847,-35.3174 608.723,-30.2944"/>
</g>
<!-- Node11 -->
<g id="node11" class="node"><title>Node11</title>
<polygon fill="white" stroke="#bfbfbf" points="661.5,-6.5 661.5,-25.5 790.5,-25.5 790.5,-6.5 661.5,-6.5"/>
<text text-anchor="middle" x="726" y="-13.5" font-family="Helvetica,sans-Serif" font-size="10.00">boost/filesystem/path.hpp</text>
</g>
<!-- Node9&#45;&gt;Node11 -->
<g id="edge10" class="edge"><title>Node9&#45;&gt;Node11</title>
<path fill="none" stroke="midnightblue" d="M666.89,-74.3717C677.724,-63.8564 696.243,-45.8819 709.67,-32.8496"/>
<polygon fill="midnightblue" stroke="midnightblue" points="712.153,-35.3174 716.891,-25.8411 707.277,-30.2944 712.153,-35.3174"/>
</g>
<!-- Node12 -->
<g id="node12" class="node"><title>Node12</title>
<polygon fill="white" stroke="#bfbfbf" points="808.5,-6.5 808.5,-25.5 867.5,-25.5 867.5,-6.5 808.5,-6.5"/>
<text text-anchor="middle" x="838" y="-13.5" font-family="Helvetica,sans-Serif" font-size="10.00">functional</text>
</g>
<!-- Node9&#45;&gt;Node12 -->
<g id="edge12" class="edge"><title>Node9&#45;&gt;Node12</title>
<path fill="none" stroke="midnightblue" d="M682.004,-74.4834C710.107,-64.4742 758.027,-47.2878 799,-32 801.379,-31.1124 803.836,-30.1872 806.306,-29.2511"/>
<polygon fill="midnightblue" stroke="midnightblue" points="807.661,-32.4803 815.755,-25.6443 805.165,-25.9405 807.661,-32.4803"/>
</g>
<!-- Node13 -->
<g id="node13" class="node"><title>Node13</title>
<polygon fill="white" stroke="#bfbfbf" points="885.5,-6.5 885.5,-25.5 926.5,-25.5 926.5,-6.5 885.5,-6.5"/>
<text text-anchor="middle" x="906" y="-13.5" font-family="Helvetica,sans-Serif" font-size="10.00">string</text>
</g>
<!-- Node9&#45;&gt;Node13 -->
<g id="edge13" class="edge"><title>Node9&#45;&gt;Node13</title>
<path fill="none" stroke="midnightblue" d="M683.23,-74.4295C690.237,-72.191 697.878,-69.881 705,-68 780.091,-48.1677 802.666,-57.5761 876,-32 877.856,-31.3528 879.743,-30.6156 881.623,-29.8232"/>
<polygon fill="midnightblue" stroke="midnightblue" points="883.174,-32.9619 890.759,-25.5647 880.216,-26.6173 883.174,-32.9619"/>
</g>
</g>
</svg>
