<?xml version="1.0" encoding="UTF-8" standalone="no"?>
<!DOCTYPE svg PUBLIC "-//W3C//DTD SVG 1.1//EN"
 "http://www.w3.org/Graphics/SVG/1.1/DTD/svg11.dtd">
<!-- Generated by graphviz version 2.36.0 (20140111.2315)
 -->
<!-- Title: Boxplot.h Pages: 1 -->
<svg width="535pt" height="84pt"
 viewBox="0.00 0.00 535.00 84.00" xmlns="http://www.w3.org/2000/svg" xmlns:xlink="http://www.w3.org/1999/xlink">
<g id="graph0" class="graph" transform="scale(1 1) rotate(0) translate(4 80)">
<title>Boxplot.h</title>
<polygon fill="white" stroke="none" points="-4,4 -4,-80 531,-80 531,4 -4,4"/>
<!-- Node1 -->
<g id="node1" class="node"><title>Node1</title>
<polygon fill="#bfbfbf" stroke="black" points="191,-56.5 191,-75.5 249,-75.5 249,-56.5 191,-56.5"/>
<text text-anchor="middle" x="220" y="-63.5" font-family="Helvetica,sans-Serif" font-size="10.00">Boxplot.h</text>
</g>
<!-- Node2 -->
<g id="node2" class="node"><title>Node2</title>
<g id="a_node2"><a xlink:href="../../d3/d2a/a00195.html" target="_top" xlink:title="Boxplot.cpp">
<polygon fill="white" stroke="black" points="0,-0.5 0,-19.5 68,-19.5 68,-0.5 0,-0.5"/>
<text text-anchor="middle" x="34" y="-7.5" font-family="Helvetica,sans-Serif" font-size="10.00">Boxplot.cpp</text>
</a>
</g>
</g>
<!-- Node1&#45;&gt;Node2 -->
<g id="edge1" class="edge"><title>Node1&#45;&gt;Node2</title>
<path fill="none" stroke="midnightblue" d="M181.049,-53.6917C145.996,-43.515 95.254,-28.7834 63.4723,-19.5565"/>
<polygon fill="midnightblue" stroke="midnightblue" points="180.358,-57.1355 190.938,-56.5625 182.31,-50.4131 180.358,-57.1355"/>
</g>
<!-- Node3 -->
<g id="node3" class="node"><title>Node3</title>
<g id="a_node3"><a xlink:href="../../db/d53/a00202.html" target="_top" xlink:title="CalibrationRunner.cpp">
<polygon fill="white" stroke="black" points="86.5,-0.5 86.5,-19.5 199.5,-19.5 199.5,-0.5 86.5,-0.5"/>
<text text-anchor="middle" x="143" y="-7.5" font-family="Helvetica,sans-Serif" font-size="10.00">CalibrationRunner.cpp</text>
</a>
</g>
</g>
<!-- Node1&#45;&gt;Node3 -->
<g id="edge2" class="edge"><title>Node1&#45;&gt;Node3</title>
<path fill="none" stroke="midnightblue" d="M199.099,-50.3422C185.089,-40.5169 167.117,-27.9132 155.341,-19.6545"/>
<polygon fill="midnightblue" stroke="midnightblue" points="197.432,-53.4477 207.629,-56.324 201.451,-47.7166 197.432,-53.4477"/>
</g>
<!-- Node4 -->
<g id="node4" class="node"><title>Node4</title>
<g id="a_node4"><a xlink:href="../../d1/da8/a00230.html" target="_top" xlink:title="ConfigFileCalibrationRunner.cpp">
<polygon fill="white" stroke="black" points="218,-0.5 218,-19.5 376,-19.5 376,-0.5 218,-0.5"/>
<text text-anchor="middle" x="297" y="-7.5" font-family="Helvetica,sans-Serif" font-size="10.00">ConfigFileCalibrationRunner.cpp</text>
</a>
</g>
</g>
<!-- Node1&#45;&gt;Node4 -->
<g id="edge3" class="edge"><title>Node1&#45;&gt;Node4</title>
<path fill="none" stroke="midnightblue" d="M240.901,-50.3422C254.911,-40.5169 272.883,-27.9132 284.659,-19.6545"/>
<polygon fill="midnightblue" stroke="midnightblue" points="238.549,-47.7166 232.371,-56.324 242.568,-53.4477 238.549,-47.7166"/>
</g>
<!-- Node5 -->
<g id="node5" class="node"><title>Node5</title>
<g id="a_node5"><a xlink:href="../../dc/df3/a00424.html" target="_top" xlink:title="TestCalibrationRunner.cpp">
<polygon fill="white" stroke="black" points="394.5,-0.5 394.5,-19.5 527.5,-19.5 527.5,-0.5 394.5,-0.5"/>
<text text-anchor="middle" x="461" y="-7.5" font-family="Helvetica,sans-Serif" font-size="10.00">TestCalibrationRunner.cpp</text>
</a>
</g>
</g>
<!-- Node1&#45;&gt;Node5 -->
<g id="edge4" class="edge"><title>Node1&#45;&gt;Node5</title>
<path fill="none" stroke="midnightblue" d="M259.064,-56.2472C304.174,-46.1395 377.903,-29.6192 422.691,-19.5837"/>
<polygon fill="midnightblue" stroke="midnightblue" points="258.063,-52.8845 249.07,-58.4863 259.594,-59.7151 258.063,-52.8845"/>
</g>
</g>
</svg>
