<?xml version="1.0" encoding="UTF-8" standalone="no"?>
<!DOCTYPE svg PUBLIC "-//W3C//DTD SVG 1.1//EN"
 "http://www.w3.org/Graphics/SVG/1.1/DTD/svg11.dtd">
<!-- Generated by graphviz version 2.36.0 (20140111.2315)
 -->
<!-- Title: gengeopop::GeoGridConfig Pages: 1 -->
<svg width="584pt" height="540pt"
 viewBox="0.00 0.00 584.00 540.00" xmlns="http://www.w3.org/2000/svg" xmlns:xlink="http://www.w3.org/1999/xlink">
<g id="graph0" class="graph" transform="scale(1 1) rotate(0) translate(4 536)">
<title>gengeopop::GeoGridConfig</title>
<polygon fill="white" stroke="none" points="-4,4 -4,-536 580,-536 580,4 -4,4"/>
<!-- Node1 -->
<g id="node1" class="node"><title>Node1</title>
<polygon fill="#bfbfbf" stroke="black" points="194,-1 194,-69 328,-69 328,-1 194,-1"/>
<text text-anchor="middle" x="261" y="-57" font-family="Helvetica,sans-Serif" font-size="10.00">gengeopop::GeoGridConfig</text>
<polyline fill="none" stroke="black" points="194,-50 328,-50 "/>
<text text-anchor="middle" x="261" y="-38" font-family="Helvetica,sans-Serif" font-size="10.00"> </text>
<polyline fill="none" stroke="black" points="194,-31 328,-31 "/>
<text text-anchor="start" x="202" y="-19" font-family="Helvetica,sans-Serif" font-size="10.00">+ GeoGridConfig()</text>
<text text-anchor="start" x="202" y="-8" font-family="Helvetica,sans-Serif" font-size="10.00">+ Calculate()</text>
</g>
<!-- Node2 -->
<g id="node2" class="node"><title>Node2</title>
<g id="a_node2"><a xlink:href="../../dd/d9c/a00487.html" target="_top" xlink:title="{double\n||}">
<polygon fill="white" stroke="black" points="-0.5,-234.5 -0.5,-291.5 44.5,-291.5 44.5,-234.5 -0.5,-234.5"/>
<text text-anchor="middle" x="22" y="-279.5" font-family="Helvetica,sans-Serif" font-size="10.00">double</text>
<polyline fill="none" stroke="black" points="-0.5,-272.5 44.5,-272.5 "/>
<text text-anchor="middle" x="22" y="-260.5" font-family="Helvetica,sans-Serif" font-size="10.00"> </text>
<polyline fill="none" stroke="black" points="-0.5,-253.5 44.5,-253.5 "/>
<text text-anchor="middle" x="22" y="-241.5" font-family="Helvetica,sans-Serif" font-size="10.00"> </text>
</a>
</g>
</g>
<!-- Node2&#45;&gt;Node1 -->
<g id="edge1" class="edge"><title>Node2&#45;&gt;Node1</title>
<path fill="none" stroke="#404040" d="M12.8107,-234.365C2.21145,-196.776 -9.75387,-129.472 24,-88 43.8184,-63.6497 120.911,-50.0262 181.859,-42.8935"/>
<polygon fill="none" stroke="#404040" points="181.887,-42.8905 187.404,-38.2463 193.812,-41.5522 188.296,-46.1964 181.887,-42.8905"/>
<text text-anchor="start" x="24" y="-185" font-family="Helvetica,sans-Serif" font-size="10.00"> +fraction_1826_years</text>
<text text-anchor="middle" x="86" y="-174" font-family="Helvetica,sans-Serif" font-size="10.00">_WhichAreStudents</text>
<text text-anchor="start" x="24" y="-163" font-family="Helvetica,sans-Serif" font-size="10.00">+fraction_1865_years</text>
<text text-anchor="middle" x="86" y="-152" font-family="Helvetica,sans-Serif" font-size="10.00">_active</text>
<text text-anchor="start" x="24" y="-141" font-family="Helvetica,sans-Serif" font-size="10.00">+fraction_student</text>
<text text-anchor="middle" x="86" y="-130" font-family="Helvetica,sans-Serif" font-size="10.00">_commutingPeople</text>
<text text-anchor="start" x="24" y="-119" font-family="Helvetica,sans-Serif" font-size="10.00">+fraction_active_commuting</text>
<text text-anchor="middle" x="86" y="-108" font-family="Helvetica,sans-Serif" font-size="10.00">People</text>
</g>
<!-- Node3 -->
<g id="node3" class="node"><title>Node3</title>
<polygon fill="white" stroke="#bfbfbf" points="208.5,-234 208.5,-292 237.5,-292 237.5,-234 208.5,-234"/>
<polyline fill="none" stroke="#bfbfbf" points="208.5,-272 237.5,-272 "/>
<text text-anchor="middle" x="223" y="-260" font-family="Helvetica,sans-Serif" font-size="10.00"> </text>
<polyline fill="none" stroke="#bfbfbf" points="208.5,-253 237.5,-253 "/>
<text text-anchor="middle" x="223" y="-241" font-family="Helvetica,sans-Serif" font-size="10.00"> </text>
</g>
<!-- Node3&#45;&gt;Node1 -->
<g id="edge2" class="edge"><title>Node3&#45;&gt;Node1</title>
<path fill="none" stroke="#404040" d="M208.123,-252.53C195.303,-243.404 177.684,-228.304 170,-210 149.012,-160.005 142.784,-134.897 170,-88 173.686,-81.6483 178.472,-76.0068 183.918,-71.0096"/>
<polygon fill="none" stroke="#404040" points="184.282,-70.7175 186.45,-63.8401 193.632,-63.1962 191.464,-70.0736 184.282,-70.7175"/>
<text text-anchor="middle" x="185.5" y="-146.5" font-family="Helvetica,sans-Serif" font-size="10.00"> +input</text>
</g>
<!-- Node3&#45;&gt;Node1 -->
<g id="edge7" class="edge"><title>Node3&#45;&gt;Node1</title>
<path fill="none" stroke="#404040" d="M218.055,-233.758C213.05,-198.64 208.093,-137.306 224,-88 224.89,-85.2419 225.984,-82.5046 227.232,-79.8126"/>
<polygon fill="none" stroke="#404040" points="227.348,-79.5991 226.709,-72.4164 233.093,-69.0638 233.732,-76.2466 227.348,-79.5991"/>
<text text-anchor="middle" x="251" y="-146.5" font-family="Helvetica,sans-Serif" font-size="10.00"> +calculated</text>
</g>
<!-- Node3&#45;&gt;Node1 -->
<g id="edge8" class="edge"><title>Node3&#45;&gt;Node1</title>
<path fill="none" stroke="#404040" d="M237.653,-253.186C251.001,-244.213 269.839,-228.948 278,-210 295.746,-168.801 287.336,-117.178 277.056,-80.8992"/>
<polygon fill="none" stroke="#404040" points="276.999,-80.7099 271.436,-76.1208 273.533,-69.2212 279.095,-73.8103 276.999,-80.7099"/>
<text text-anchor="middle" x="315" y="-146.5" font-family="Helvetica,sans-Serif" font-size="10.00"> +generated</text>
</g>
<!-- Node4 -->
<g id="node4" class="node"><title>Node4</title>
<polygon fill="white" stroke="#bfbfbf" points="291,-229 291,-297 451,-297 451,-229 291,-229"/>
<text text-anchor="start" x="299" y="-285" font-family="Helvetica,sans-Serif" font-size="10.00">std::vector&lt; std::shared</text>
<text text-anchor="middle" x="371" y="-274" font-family="Helvetica,sans-Serif" font-size="10.00">_ptr&lt; gengeopop::Household &gt; &gt;</text>
<polyline fill="none" stroke="#bfbfbf" points="291,-267 451,-267 "/>
<text text-anchor="middle" x="371" y="-255" font-family="Helvetica,sans-Serif" font-size="10.00"> </text>
<polyline fill="none" stroke="#bfbfbf" points="291,-248 451,-248 "/>
<text text-anchor="middle" x="371" y="-236" font-family="Helvetica,sans-Serif" font-size="10.00"> </text>
</g>
<!-- Node4&#45;&gt;Node1 -->
<g id="edge3" class="edge"><title>Node4&#45;&gt;Node1</title>
<path fill="none" stroke="#404040" d="M373.931,-228.977C375.572,-191.666 373.056,-130.599 345,-88 342.544,-84.2713 339.719,-80.7632 336.626,-77.4695"/>
<polygon fill="none" stroke="#404040" points="336.622,-77.466 329.511,-76.271 327.879,-69.247 334.99,-70.442 336.622,-77.466"/>
<text text-anchor="middle" x="416.5" y="-146.5" font-family="Helvetica,sans-Serif" font-size="10.00"> +household_types</text>
</g>
<!-- Node5 -->
<g id="node5" class="node"><title>Node5</title>
<polygon fill="white" stroke="#bfbfbf" points="275.5,-357 275.5,-425 394.5,-425 394.5,-357 275.5,-357"/>
<text text-anchor="start" x="283.5" y="-413" font-family="Helvetica,sans-Serif" font-size="10.00">shared_ptr&lt; gengeopop</text>
<text text-anchor="middle" x="335" y="-402" font-family="Helvetica,sans-Serif" font-size="10.00">::Household &gt;</text>
<polyline fill="none" stroke="#bfbfbf" points="275.5,-395 394.5,-395 "/>
<text text-anchor="middle" x="335" y="-383" font-family="Helvetica,sans-Serif" font-size="10.00"> </text>
<polyline fill="none" stroke="#bfbfbf" points="275.5,-376 394.5,-376 "/>
<text text-anchor="middle" x="335" y="-364" font-family="Helvetica,sans-Serif" font-size="10.00"> </text>
</g>
<!-- Node5&#45;&gt;Node4 -->
<g id="edge4" class="edge"><title>Node5&#45;&gt;Node4</title>
<path fill="none" stroke="#404040" d="M344.459,-356.895C348.642,-342.253 353.627,-324.807 358.141,-309.008"/>
<polygon fill="none" stroke="#404040" points="358.183,-308.86 355.985,-301.992 361.48,-297.321 363.677,-304.189 358.183,-308.86"/>
<text text-anchor="middle" x="380.5" y="-324.5" font-family="Helvetica,sans-Serif" font-size="10.00"> +elements</text>
</g>
<!-- Node6 -->
<g id="node6" class="node"><title>Node6</title>
<g id="a_node6"><a xlink:title="STL class. ">
<polygon fill="white" stroke="#bfbfbf" points="412.5,-362.5 412.5,-419.5 499.5,-419.5 499.5,-362.5 412.5,-362.5"/>
<text text-anchor="middle" x="456" y="-407.5" font-family="Helvetica,sans-Serif" font-size="10.00">std::vector&lt; T &gt;</text>
<polyline fill="none" stroke="#bfbfbf" points="412.5,-400.5 499.5,-400.5 "/>
<text text-anchor="middle" x="456" y="-388.5" font-family="Helvetica,sans-Serif" font-size="10.00"> </text>
<polyline fill="none" stroke="#bfbfbf" points="412.5,-381.5 499.5,-381.5 "/>
<text text-anchor="middle" x="456" y="-369.5" font-family="Helvetica,sans-Serif" font-size="10.00"> </text>
</a>
</g>
</g>
<!-- Node6&#45;&gt;Node4 -->
<g id="edge5" class="edge"><title>Node6&#45;&gt;Node4</title>
<path fill="none" stroke="orange" d="M433.651,-353.772C426,-341.653 417.28,-328.142 409,-316 404.779,-309.81 400.165,-303.299 395.652,-297.058"/>
<polygon fill="orange" stroke="orange" points="430.73,-355.703 439.011,-362.311 436.659,-351.981 430.73,-355.703"/>
<text text-anchor="start" x="423" y="-330" font-family="Helvetica,sans-Serif" font-size="10.00"> &lt; std::shared_ptr&lt;</text>
<text text-anchor="middle" x="483.5" y="-319" font-family="Helvetica,sans-Serif" font-size="10.00"> gengeopop::Household &gt; &gt;</text>
</g>
<!-- Node7 -->
<g id="node7" class="node"><title>Node7</title>
<polygon fill="white" stroke="#bfbfbf" points="441.5,-474.5 441.5,-531.5 470.5,-531.5 470.5,-474.5 441.5,-474.5"/>
<text text-anchor="middle" x="456" y="-519.5" font-family="Helvetica,sans-Serif" font-size="10.00">T</text>
<polyline fill="none" stroke="#bfbfbf" points="441.5,-512.5 470.5,-512.5 "/>
<text text-anchor="middle" x="456" y="-500.5" font-family="Helvetica,sans-Serif" font-size="10.00"> </text>
<polyline fill="none" stroke="#bfbfbf" points="441.5,-493.5 470.5,-493.5 "/>
<text text-anchor="middle" x="456" y="-481.5" font-family="Helvetica,sans-Serif" font-size="10.00"> </text>
</g>
<!-- Node7&#45;&gt;Node6 -->
<g id="edge6" class="edge"><title>Node7&#45;&gt;Node6</title>
<path fill="none" stroke="#404040" d="M456,-474.242C456,-461.475 456,-446.088 456,-432.094"/>
<polygon fill="none" stroke="#404040" points="456,-431.749 452,-425.749 456,-419.749 460,-425.749 456,-431.749"/>
<text text-anchor="middle" x="480.5" y="-447.5" font-family="Helvetica,sans-Serif" font-size="10.00"> +elements</text>
</g>
<!-- Node8 -->
<g id="node8" class="node"><title>Node8</title>
<polygon fill="white" stroke="#bfbfbf" points="469.5,-234.5 469.5,-291.5 498.5,-291.5 498.5,-234.5 469.5,-234.5"/>
<text text-anchor="middle" x="484" y="-279.5" font-family="Helvetica,sans-Serif" font-size="10.00">int</text>
<polyline fill="none" stroke="#bfbfbf" points="469.5,-272.5 498.5,-272.5 "/>
<text text-anchor="middle" x="484" y="-260.5" font-family="Helvetica,sans-Serif" font-size="10.00"> </text>
<polyline fill="none" stroke="#bfbfbf" points="469.5,-253.5 498.5,-253.5 "/>
<text text-anchor="middle" x="484" y="-241.5" font-family="Helvetica,sans-Serif" font-size="10.00"> </text>
</g>
<!-- Node8&#45;&gt;Node1 -->
<g id="edge9" class="edge"><title>Node8&#45;&gt;Node1</title>
<path fill="none" stroke="#404040" d="M489.135,-234.396C494.475,-196.532 497.707,-128.572 462,-88 445.665,-69.4397 389.115,-55.8387 340.142,-47.2118"/>
<polygon fill="none" stroke="#404040" points="340.039,-47.1944 333.452,-50.13 328.209,-45.1793 334.796,-42.2436 340.039,-47.1944"/>
<text text-anchor="middle" x="534" y="-201.5" font-family="Helvetica,sans-Serif" font-size="10.00"> +contactCenters</text>
<text text-anchor="middle" x="534" y="-190.5" font-family="Helvetica,sans-Serif" font-size="10.00">+contactPools</text>
<text text-anchor="start" x="492" y="-179.5" font-family="Helvetica,sans-Serif" font-size="10.00">+_1865_and_years</text>
<text text-anchor="middle" x="534" y="-168.5" font-family="Helvetica,sans-Serif" font-size="10.00">_active</text>
<text text-anchor="start" x="492" y="-157.5" font-family="Helvetica,sans-Serif" font-size="10.00">+_1826_years_and</text>
<text text-anchor="middle" x="534" y="-146.5" font-family="Helvetica,sans-Serif" font-size="10.00">_student</text>
<text text-anchor="middle" x="534" y="-135.5" font-family="Helvetica,sans-Serif" font-size="10.00">+households</text>
<text text-anchor="middle" x="534" y="-124.5" font-family="Helvetica,sans-Serif" font-size="10.00">+_1865_years</text>
<text text-anchor="middle" x="534" y="-113.5" font-family="Helvetica,sans-Serif" font-size="10.00">+_1826_years</text>
<text text-anchor="middle" x="534" y="-102.5" font-family="Helvetica,sans-Serif" font-size="10.00">+compulsoryPupils</text>
<text text-anchor="middle" x="534" y="-91.5" font-family="Helvetica,sans-Serif" font-size="10.00">+populationSize</text>
</g>
</g>
</svg>
