<?xml version="1.0" encoding="UTF-8" standalone="no"?>
<!DOCTYPE svg PUBLIC "-//W3C//DTD SVG 1.1//EN"
 "http://www.w3.org/Graphics/SVG/1.1/DTD/svg11.dtd">
<!-- Generated by graphviz version 2.36.0 (20140111.2315)
 -->
<!-- Title: stride::InfectorMap Pages: 1 -->
<svg width="138pt" height="216pt"
 viewBox="0.00 0.00 138.00 216.00" xmlns="http://www.w3.org/2000/svg" xmlns:xlink="http://www.w3.org/1999/xlink">
<g id="graph0" class="graph" transform="scale(1 1) rotate(0) translate(4 212)">
<title>stride::InfectorMap</title>
<polygon fill="white" stroke="none" points="-4,4 -4,-212 134,-212 134,4 -4,4"/>
<!-- Node1 -->
<g id="node1" class="node"><title>Node1</title>
<polygon fill="#bfbfbf" stroke="black" points="16,-1 16,-69 114,-69 114,-1 16,-1"/>
<text text-anchor="middle" x="65" y="-57" font-family="Helvetica,sans-Serif" font-size="10.00">stride::InfectorMap</text>
<polyline fill="none" stroke="black" points="16,-50 114,-50 "/>
<text text-anchor="middle" x="65" y="-38" font-family="Helvetica,sans-Serif" font-size="10.00"> </text>
<polyline fill="none" stroke="black" points="16,-31 114,-31 "/>
<text text-anchor="start" x="24" y="-19" font-family="Helvetica,sans-Serif" font-size="10.00">+ InfectorMap()</text>
<text text-anchor="start" x="24" y="-8" font-family="Helvetica,sans-Serif" font-size="10.00">&#45; Add()</text>
</g>
<!-- Node2 -->
<g id="node2" class="node"><title>Node2</title>
<g id="a_node2"><a xlink:title="STL class. ">
<polygon fill="white" stroke="#bfbfbf" points="0,-106.5 0,-207.5 130,-207.5 130,-106.5 0,-106.5"/>
<text text-anchor="start" x="8" y="-195.5" font-family="Helvetica,sans-Serif" font-size="10.00">std::map&lt; std::tuple</text>
<text text-anchor="start" x="8" y="-184.5" font-family="Helvetica,sans-Serif" font-size="10.00">&lt; stride::ContactLogMode</text>
<text text-anchor="start" x="8" y="-173.5" font-family="Helvetica,sans-Serif" font-size="10.00">::Id, bool, std::string</text>
<text text-anchor="middle" x="65" y="-162.5" font-family="Helvetica,sans-Serif" font-size="10.00"> &gt;, InfectorExec * &gt;</text>
<polyline fill="none" stroke="#bfbfbf" points="0,-155.5 130,-155.5 "/>
<text text-anchor="start" x="8" y="-143.5" font-family="Helvetica,sans-Serif" font-size="10.00">+ keys</text>
<text text-anchor="start" x="8" y="-132.5" font-family="Helvetica,sans-Serif" font-size="10.00">+ elements</text>
<polyline fill="none" stroke="#bfbfbf" points="0,-125.5 130,-125.5 "/>
<text text-anchor="middle" x="65" y="-113.5" font-family="Helvetica,sans-Serif" font-size="10.00"> </text>
</a>
</g>
</g>
<!-- Node2&#45;&gt;Node1 -->
<g id="edge1" class="edge"><title>Node2&#45;&gt;Node1</title>
<path fill="none" stroke="midnightblue" d="M65,-96.4271C65,-87.1013 65,-77.7617 65,-69.3096"/>
<polygon fill="none" stroke="midnightblue" points="61.5001,-96.4986 65,-106.499 68.5001,-96.4986 61.5001,-96.4986"/>
</g>
</g>
</svg>
