<?xml version="1.0" encoding="UTF-8" standalone="no"?>
<!DOCTYPE svg PUBLIC "-//W3C//DTD SVG 1.1//EN"
 "http://www.w3.org/Graphics/SVG/1.1/DTD/svg11.dtd">
<!-- Generated by graphviz version 2.36.0 (20140111.2315)
 -->
<!-- Title: stride::util::RunConfigManager::Create Pages: 1 -->
<svg width="370pt" height="38pt"
 viewBox="0.00 0.00 370.00 38.00" xmlns="http://www.w3.org/2000/svg" xmlns:xlink="http://www.w3.org/1999/xlink">
<g id="graph0" class="graph" transform="scale(1 1) rotate(0) translate(4 34)">
<title>stride::util::RunConfigManager::Create</title>
<polygon fill="white" stroke="none" points="-4,4 -4,-34 366,-34 366,4 -4,4"/>
<!-- Node1 -->
<g id="node1" class="node"><title>Node1</title>
<polygon fill="#bfbfbf" stroke="black" points="0.5,-0 0.5,-30 149.5,-30 149.5,-0 0.5,-0"/>
<text text-anchor="start" x="8.5" y="-18" font-family="Helvetica,sans-Serif" font-size="10.00">stride::util::RunConfigManager</text>
<text text-anchor="middle" x="75" y="-7" font-family="Helvetica,sans-Serif" font-size="10.00">::Create</text>
</g>
<!-- Node2 -->
<g id="node2" class="node"><title>Node2</title>
<g id="a_node2"><a xlink:href="../../d4/dee/a00008.html#a840ab2341a3e5eca99f3507e9b79da18" target="_top" xlink:title="Setup, creates a ptree based on the filenames in configFiles. ">
<polygon fill="white" stroke="black" points="186,-0 186,-30 362,-30 362,-0 186,-0"/>
<text text-anchor="start" x="194" y="-18" font-family="Helvetica,sans-Serif" font-size="10.00">calibration::ConfigFileCalibration</text>
<text text-anchor="middle" x="274" y="-7" font-family="Helvetica,sans-Serif" font-size="10.00">Runner::ConfigFileCalibrationRunner</text>
</a>
</g>
</g>
<!-- Node1&#45;&gt;Node2 -->
<g id="edge1" class="edge"><title>Node1&#45;&gt;Node2</title>
<path fill="none" stroke="midnightblue" d="M159.699,-15C168.346,-15 177.149,-15 185.833,-15"/>
<polygon fill="midnightblue" stroke="midnightblue" points="159.636,-11.5001 149.636,-15 159.636,-18.5001 159.636,-11.5001"/>
</g>
</g>
</svg>
