<?xml version="1.0" encoding="UTF-8" standalone="no"?>
<!DOCTYPE svg PUBLIC "-//W3C//DTD SVG 1.1//EN"
 "http://www.w3.org/Graphics/SVG/1.1/DTD/svg11.dtd">
<!-- Generated by graphviz version 2.36.0 (20140111.2315)
 -->
<!-- Title: Calibrator.h Pages: 1 -->
<svg width="1116pt" height="208pt"
 viewBox="0.00 0.00 1116.00 208.00" xmlns="http://www.w3.org/2000/svg" xmlns:xlink="http://www.w3.org/1999/xlink">
<g id="graph0" class="graph" transform="scale(1 1) rotate(0) translate(4 204)">
<title>Calibrator.h</title>
<polygon fill="white" stroke="none" points="-4,4 -4,-204 1112,-204 1112,4 -4,4"/>
<!-- Node1 -->
<g id="node1" class="node"><title>Node1</title>
<polygon fill="#bfbfbf" stroke="black" points="176.5,-180.5 176.5,-199.5 243.5,-199.5 243.5,-180.5 176.5,-180.5"/>
<text text-anchor="middle" x="210" y="-187.5" font-family="Helvetica,sans-Serif" font-size="10.00">Calibrator.h</text>
</g>
<!-- Node2 -->
<g id="node2" class="node"><title>Node2</title>
<polygon fill="white" stroke="#bfbfbf" points="-0.5,-113 -0.5,-143 100.5,-143 100.5,-113 -0.5,-113"/>
<text text-anchor="start" x="7.5" y="-131" font-family="Helvetica,sans-Serif" font-size="10.00">boost/property_tree</text>
<text text-anchor="middle" x="50" y="-120" font-family="Helvetica,sans-Serif" font-size="10.00">/ptree.hpp</text>
</g>
<!-- Node1&#45;&gt;Node2 -->
<g id="edge1" class="edge"><title>Node1&#45;&gt;Node2</title>
<path fill="none" stroke="midnightblue" d="M187.076,-180.403C163.708,-171.641 126.784,-157.794 97.1436,-146.679"/>
<polygon fill="midnightblue" stroke="midnightblue" points="97.9931,-143.259 87.4008,-143.025 95.5352,-149.814 97.9931,-143.259"/>
</g>
<!-- Node3 -->
<g id="node3" class="node"><title>Node3</title>
<polygon fill="white" stroke="#bfbfbf" points="118.5,-118.5 118.5,-137.5 153.5,-137.5 153.5,-118.5 118.5,-118.5"/>
<text text-anchor="middle" x="136" y="-125.5" font-family="Helvetica,sans-Serif" font-size="10.00">map</text>
</g>
<!-- Node1&#45;&gt;Node3 -->
<g id="edge2" class="edge"><title>Node1&#45;&gt;Node3</title>
<path fill="none" stroke="midnightblue" d="M199.398,-180.403C187.748,-170.958 168.814,-155.606 154.665,-144.134"/>
<polygon fill="midnightblue" stroke="midnightblue" points="156.555,-141.16 146.583,-137.581 152.146,-146.597 156.555,-141.16"/>
</g>
<!-- Node4 -->
<g id="node4" class="node"><title>Node4</title>
<g id="a_node4"><a xlink:href="../../d2/daf/a00346.html" target="_top" xlink:title="Logging (spdlog) utilities. ">
<polygon fill="white" stroke="black" points="171.5,-118.5 171.5,-137.5 248.5,-137.5 248.5,-118.5 171.5,-118.5"/>
<text text-anchor="middle" x="210" y="-125.5" font-family="Helvetica,sans-Serif" font-size="10.00">util/LogUtils.h</text>
</a>
</g>
</g>
<!-- Node1&#45;&gt;Node4 -->
<g id="edge3" class="edge"><title>Node1&#45;&gt;Node4</title>
<path fill="none" stroke="midnightblue" d="M210,-180.403C210,-171.938 210,-158.728 210,-147.82"/>
<polygon fill="midnightblue" stroke="midnightblue" points="213.5,-147.581 210,-137.581 206.5,-147.581 213.5,-147.581"/>
</g>
<!-- Node8 -->
<g id="node8" class="node"><title>Node8</title>
<g id="a_node8"><a xlink:href="../../db/db9/a00387.html" target="_top" xlink:title="Interface of RNManager. ">
<polygon fill="white" stroke="black" points="594.5,-118.5 594.5,-137.5 687.5,-137.5 687.5,-118.5 594.5,-118.5"/>
<text text-anchor="middle" x="641" y="-125.5" font-family="Helvetica,sans-Serif" font-size="10.00">util/RNManager.h</text>
</a>
</g>
</g>
<!-- Node1&#45;&gt;Node8 -->
<g id="edge7" class="edge"><title>Node1&#45;&gt;Node8</title>
<path fill="none" stroke="midnightblue" d="M243.82,-184.292C317.482,-174.037 493.097,-149.59 584.118,-136.919"/>
<polygon fill="midnightblue" stroke="midnightblue" points="584.832,-140.353 594.254,-135.508 583.867,-133.42 584.832,-140.353"/>
</g>
<!-- Node17 -->
<g id="node17" class="node"><title>Node17</title>
<polygon fill="white" stroke="#bfbfbf" points="1064,-56.5 1064,-75.5 1108,-75.5 1108,-56.5 1064,-56.5"/>
<text text-anchor="middle" x="1086" y="-63.5" font-family="Helvetica,sans-Serif" font-size="10.00">vector</text>
</g>
<!-- Node1&#45;&gt;Node17 -->
<g id="edge19" class="edge"><title>Node1&#45;&gt;Node17</title>
<path fill="none" stroke="midnightblue" d="M243.713,-186.99C322.915,-182.025 526.928,-167.829 696,-144 853.082,-121.861 894.653,-113.418 1053.55,-75.9349"/>
<polygon fill="midnightblue" stroke="midnightblue" points="1054.76,-79.2459 1063.68,-73.5419 1053.15,-72.4331 1054.76,-79.2459"/>
</g>
<!-- Node5 -->
<g id="node5" class="node"><title>Node5</title>
<polygon fill="white" stroke="#bfbfbf" points="26,-56.5 26,-75.5 78,-75.5 78,-56.5 26,-56.5"/>
<text text-anchor="middle" x="52" y="-63.5" font-family="Helvetica,sans-Serif" font-size="10.00">memory</text>
</g>
<!-- Node4&#45;&gt;Node5 -->
<g id="edge4" class="edge"><title>Node4&#45;&gt;Node5</title>
<path fill="none" stroke="midnightblue" d="M187.362,-118.403C160.26,-108.111 114.69,-90.8064 83.9961,-79.1504"/>
<polygon fill="midnightblue" stroke="midnightblue" points="85.1867,-75.8587 74.5956,-75.5806 82.7016,-82.4028 85.1867,-75.8587"/>
</g>
<!-- Node6 -->
<g id="node6" class="node"><title>Node6</title>
<polygon fill="white" stroke="#bfbfbf" points="96.5,-56.5 96.5,-75.5 181.5,-75.5 181.5,-56.5 96.5,-56.5"/>
<text text-anchor="middle" x="139" y="-63.5" font-family="Helvetica,sans-Serif" font-size="10.00">spdlog/spdlog.h</text>
</g>
<!-- Node4&#45;&gt;Node6 -->
<g id="edge5" class="edge"><title>Node4&#45;&gt;Node6</title>
<path fill="none" stroke="midnightblue" d="M199.827,-118.403C188.65,-108.958 170.483,-93.6056 156.909,-82.1342"/>
<polygon fill="midnightblue" stroke="midnightblue" points="159.051,-79.3619 149.154,-75.5806 154.533,-84.7085 159.051,-79.3619"/>
</g>
<!-- Node7 -->
<g id="node7" class="node"><title>Node7</title>
<polygon fill="white" stroke="#bfbfbf" points="227.5,-0.5 227.5,-19.5 268.5,-19.5 268.5,-0.5 227.5,-0.5"/>
<text text-anchor="middle" x="248" y="-7.5" font-family="Helvetica,sans-Serif" font-size="10.00">string</text>
</g>
<!-- Node4&#45;&gt;Node7 -->
<g id="edge6" class="edge"><title>Node4&#45;&gt;Node7</title>
<path fill="none" stroke="midnightblue" d="M212.856,-118.281C219.021,-99.4631 233.685,-54.6971 241.992,-29.3399"/>
<polygon fill="midnightblue" stroke="midnightblue" points="245.427,-30.0975 245.214,-19.5048 238.775,-27.9183 245.427,-30.0975"/>
</g>
<!-- Node8&#45;&gt;Node7 -->
<g id="edge17" class="edge"><title>Node8&#45;&gt;Node7</title>
<path fill="none" stroke="midnightblue" d="M594.29,-126.774C505.111,-125.381 315.165,-117.481 267,-76 253.796,-64.6283 249.512,-44.6355 248.246,-29.8164"/>
<polygon fill="midnightblue" stroke="midnightblue" points="251.737,-29.5444 247.768,-19.7211 244.745,-29.8755 251.737,-29.5444"/>
</g>
<!-- Node9 -->
<g id="node9" class="node"><title>Node9</title>
<g id="a_node9"><a xlink:href="../../d5/d05/a00385.html" target="_top" xlink:title="Interface of Random Engine Type. ">
<polygon fill="white" stroke="black" points="276,-56.5 276,-75.5 368,-75.5 368,-56.5 276,-56.5"/>
<text text-anchor="middle" x="322" y="-63.5" font-family="Helvetica,sans-Serif" font-size="10.00">RNEngineType.h</text>
</a>
</g>
</g>
<!-- Node8&#45;&gt;Node9 -->
<g id="edge8" class="edge"><title>Node8&#45;&gt;Node9</title>
<path fill="none" stroke="midnightblue" d="M595.634,-118.467C538.116,-107.649 439.013,-89.0087 377.177,-77.3781"/>
<polygon fill="midnightblue" stroke="midnightblue" points="377.684,-73.9122 367.21,-75.5034 376.39,-80.7916 377.684,-73.9122"/>
</g>
<!-- Node10 -->
<g id="node10" class="node"><title>Node10</title>
<polygon fill="white" stroke="#bfbfbf" points="386,-56.5 386,-75.5 464,-75.5 464,-56.5 386,-56.5"/>
<text text-anchor="middle" x="425" y="-63.5" font-family="Helvetica,sans-Serif" font-size="10.00">trng/lcg64.hpp</text>
</g>
<!-- Node8&#45;&gt;Node10 -->
<g id="edge10" class="edge"><title>Node8&#45;&gt;Node10</title>
<path fill="none" stroke="midnightblue" d="M610.052,-118.403C572.119,-107.866 507.722,-89.9783 465.78,-78.3276"/>
<polygon fill="midnightblue" stroke="midnightblue" points="466.462,-74.8848 455.89,-75.5806 464.589,-81.6294 466.462,-74.8848"/>
</g>
<!-- Node11 -->
<g id="node11" class="node"><title>Node11</title>
<polygon fill="white" stroke="#bfbfbf" points="482,-56.5 482,-75.5 584,-75.5 584,-56.5 482,-56.5"/>
<text text-anchor="middle" x="533" y="-63.5" font-family="Helvetica,sans-Serif" font-size="10.00">trng/lcg64_shift.hpp</text>
</g>
<!-- Node8&#45;&gt;Node11 -->
<g id="edge11" class="edge"><title>Node8&#45;&gt;Node11</title>
<path fill="none" stroke="midnightblue" d="M625.526,-118.403C607.722,-108.512 578.259,-92.1442 557.368,-80.5378"/>
<polygon fill="midnightblue" stroke="midnightblue" points="558.886,-77.3775 548.445,-75.5806 555.487,-83.4966 558.886,-77.3775"/>
</g>
<!-- Node12 -->
<g id="node12" class="node"><title>Node12</title>
<polygon fill="white" stroke="#bfbfbf" points="602.5,-56.5 602.5,-75.5 679.5,-75.5 679.5,-56.5 602.5,-56.5"/>
<text text-anchor="middle" x="641" y="-63.5" font-family="Helvetica,sans-Serif" font-size="10.00">trng/mrg2.hpp</text>
</g>
<!-- Node8&#45;&gt;Node12 -->
<g id="edge12" class="edge"><title>Node8&#45;&gt;Node12</title>
<path fill="none" stroke="midnightblue" d="M641,-118.403C641,-109.938 641,-96.7283 641,-85.8199"/>
<polygon fill="midnightblue" stroke="midnightblue" points="644.5,-85.5806 641,-75.5806 637.5,-85.5806 644.5,-85.5806"/>
</g>
<!-- Node13 -->
<g id="node13" class="node"><title>Node13</title>
<polygon fill="white" stroke="#bfbfbf" points="697.5,-56.5 697.5,-75.5 774.5,-75.5 774.5,-56.5 697.5,-56.5"/>
<text text-anchor="middle" x="736" y="-63.5" font-family="Helvetica,sans-Serif" font-size="10.00">trng/mrg3.hpp</text>
</g>
<!-- Node8&#45;&gt;Node13 -->
<g id="edge13" class="edge"><title>Node8&#45;&gt;Node13</title>
<path fill="none" stroke="midnightblue" d="M654.611,-118.403C670.061,-108.646 695.49,-92.5854 713.816,-81.0109"/>
<polygon fill="midnightblue" stroke="midnightblue" points="715.828,-83.8798 722.414,-75.5806 712.09,-77.9613 715.828,-83.8798"/>
</g>
<!-- Node14 -->
<g id="node14" class="node"><title>Node14</title>
<polygon fill="white" stroke="#bfbfbf" points="792.5,-56.5 792.5,-75.5 871.5,-75.5 871.5,-56.5 792.5,-56.5"/>
<text text-anchor="middle" x="832" y="-63.5" font-family="Helvetica,sans-Serif" font-size="10.00">trng/yarn2.hpp</text>
</g>
<!-- Node8&#45;&gt;Node14 -->
<g id="edge14" class="edge"><title>Node8&#45;&gt;Node14</title>
<path fill="none" stroke="midnightblue" d="M668.366,-118.403C701.554,-107.978 757.651,-90.3557 794.758,-78.6992"/>
<polygon fill="midnightblue" stroke="midnightblue" points="796.194,-81.9167 804.685,-75.5806 794.096,-75.2385 796.194,-81.9167"/>
</g>
<!-- Node15 -->
<g id="node15" class="node"><title>Node15</title>
<polygon fill="white" stroke="#bfbfbf" points="889.5,-56.5 889.5,-75.5 968.5,-75.5 968.5,-56.5 889.5,-56.5"/>
<text text-anchor="middle" x="929" y="-63.5" font-family="Helvetica,sans-Serif" font-size="10.00">trng/yarn3.hpp</text>
</g>
<!-- Node8&#45;&gt;Node15 -->
<g id="edge15" class="edge"><title>Node8&#45;&gt;Node15</title>
<path fill="none" stroke="midnightblue" d="M681.958,-118.467C733.857,-107.655 823.259,-89.0294 879.092,-77.3975"/>
<polygon fill="midnightblue" stroke="midnightblue" points="880.034,-80.7764 889.11,-75.3104 878.607,-73.9235 880.034,-80.7764"/>
</g>
<!-- Node16 -->
<g id="node16" class="node"><title>Node16</title>
<polygon fill="white" stroke="#bfbfbf" points="986.5,-56.5 986.5,-75.5 1045.5,-75.5 1045.5,-56.5 986.5,-56.5"/>
<text text-anchor="middle" x="1016" y="-63.5" font-family="Helvetica,sans-Serif" font-size="10.00">functional</text>
</g>
<!-- Node8&#45;&gt;Node16 -->
<g id="edge16" class="edge"><title>Node8&#45;&gt;Node16</title>
<path fill="none" stroke="midnightblue" d="M687.662,-121.061C750.819,-112.77 867.203,-96.6022 976.375,-75.9919"/>
<polygon fill="midnightblue" stroke="midnightblue" points="977.07,-79.4226 986.239,-74.1137 975.761,-72.5461 977.07,-79.4226"/>
</g>
<!-- Node8&#45;&gt;Node17 -->
<g id="edge18" class="edge"><title>Node8&#45;&gt;Node17</title>
<path fill="none" stroke="midnightblue" d="M687.511,-123.565C762.56,-117.52 915.073,-103.16 1053.76,-75.7272"/>
<polygon fill="midnightblue" stroke="midnightblue" points="1054.61,-79.1276 1063.73,-73.7294 1053.23,-72.2643 1054.61,-79.1276"/>
</g>
<!-- Node9&#45;&gt;Node7 -->
<g id="edge9" class="edge"><title>Node9&#45;&gt;Node7</title>
<path fill="none" stroke="midnightblue" d="M310.111,-56.324C298.85,-48.1066 281.713,-35.6017 268.291,-25.8069"/>
<polygon fill="midnightblue" stroke="midnightblue" points="270.247,-22.9014 260.106,-19.8339 266.12,-28.5559 270.247,-22.9014"/>
</g>
</g>
</svg>
