<?xml version="1.0" encoding="UTF-8" standalone="no"?>
<!DOCTYPE svg PUBLIC "-//W3C//DTD SVG 1.1//EN"
 "http://www.w3.org/Graphics/SVG/1.1/DTD/svg11.dtd">
<!-- Generated by graphviz version 2.36.0 (20140111.2315)
 -->
<!-- Title: stride::TravellerIndex::TravellerInfo Pages: 1 -->
<svg width="1201pt" height="1464pt"
 viewBox="0.00 0.00 1201.00 1464.00" xmlns="http://www.w3.org/2000/svg" xmlns:xlink="http://www.w3.org/1999/xlink">
<g id="graph0" class="graph" transform="scale(1 1) rotate(0) translate(4 1460)">
<title>stride::TravellerIndex::TravellerInfo</title>
<polygon fill="white" stroke="none" points="-4,4 -4,-1460 1197,-1460 1197,4 -4,4"/>
<!-- Node1 -->
<g id="node1" class="node"><title>Node1</title>
<polygon fill="#bfbfbf" stroke="black" points="499,-1 499,-69 607,-69 607,-1 499,-1"/>
<text text-anchor="start" x="507" y="-57" font-family="Helvetica,sans-Serif" font-size="10.00">stride::TravellerIndex</text>
<text text-anchor="middle" x="553" y="-46" font-family="Helvetica,sans-Serif" font-size="10.00">::TravellerInfo</text>
<polyline fill="none" stroke="black" points="499,-39 607,-39 "/>
<text text-anchor="middle" x="553" y="-27" font-family="Helvetica,sans-Serif" font-size="10.00"> </text>
<polyline fill="none" stroke="black" points="499,-20 607,-20 "/>
<text text-anchor="start" x="507" y="-8" font-family="Helvetica,sans-Serif" font-size="10.00">+ operator&gt;()</text>
</g>
<!-- Node2 -->
<g id="node2" class="node"><title>Node2</title>
<g id="a_node2"><a xlink:href="../../d4/d3a/a00101.html" target="_top" xlink:title="Represents a group of Persons that potentially have contacts. ">
<polygon fill="white" stroke="black" points="288.5,-118.5 288.5,-307.5 439.5,-307.5 439.5,-118.5 288.5,-118.5"/>
<text text-anchor="middle" x="364" y="-295.5" font-family="Helvetica,sans-Serif" font-size="10.00">stride::ContactPool</text>
<polyline fill="none" stroke="black" points="288.5,-288.5 439.5,-288.5 "/>
<text text-anchor="middle" x="364" y="-276.5" font-family="Helvetica,sans-Serif" font-size="10.00"> </text>
<polyline fill="none" stroke="black" points="288.5,-269.5 439.5,-269.5 "/>
<text text-anchor="start" x="296.5" y="-257.5" font-family="Helvetica,sans-Serif" font-size="10.00">+ ContactPool()</text>
<text text-anchor="start" x="296.5" y="-246.5" font-family="Helvetica,sans-Serif" font-size="10.00">+ ContactPool()</text>
<text text-anchor="start" x="296.5" y="-235.5" font-family="Helvetica,sans-Serif" font-size="10.00">+ AddMember()</text>
<text text-anchor="start" x="296.5" y="-224.5" font-family="Helvetica,sans-Serif" font-size="10.00">+ AddExpat()</text>
<text text-anchor="start" x="296.5" y="-213.5" font-family="Helvetica,sans-Serif" font-size="10.00">+ GetMember()</text>
<text text-anchor="start" x="296.5" y="-202.5" font-family="Helvetica,sans-Serif" font-size="10.00">+ RemoveMember()</text>
<text text-anchor="start" x="296.5" y="-191.5" font-family="Helvetica,sans-Serif" font-size="10.00">+ RemoveExpat()</text>
<text text-anchor="start" x="296.5" y="-180.5" font-family="Helvetica,sans-Serif" font-size="10.00">+ GetPool()</text>
<text text-anchor="start" x="296.5" y="-169.5" font-family="Helvetica,sans-Serif" font-size="10.00">+ GetSize()</text>
<text text-anchor="start" x="296.5" y="-158.5" font-family="Helvetica,sans-Serif" font-size="10.00">+ GetId()</text>
<text text-anchor="start" x="296.5" y="-147.5" font-family="Helvetica,sans-Serif" font-size="10.00">and 11 more...</text>
<text text-anchor="start" x="296.5" y="-136.5" font-family="Helvetica,sans-Serif" font-size="10.00">&#45; UpdateExpatsAfterRemoval()</text>
<text text-anchor="start" x="296.5" y="-125.5" font-family="Helvetica,sans-Serif" font-size="10.00">&#45; Swap()</text>
</a>
</g>
</g>
<!-- Node2&#45;&gt;Node1 -->
<g id="edge1" class="edge"><title>Node2&#45;&gt;Node1</title>
<path fill="none" stroke="#404040" d="M439.781,-137.905C457.11,-121.312 475.563,-103.917 493,-88 496.78,-84.5499 500.725,-81.0069 504.708,-77.4704"/>
<polygon fill="none" stroke="#404040" points="505.006,-77.2082 506.865,-70.2409 514.011,-69.2774 512.152,-76.2448 505.006,-77.2082"/>
<text text-anchor="middle" x="502" y="-91.5" font-family="Helvetica,sans-Serif" font-size="10.00"> +to</text>
</g>
<!-- Node3 -->
<g id="node3" class="node"><title>Node3</title>
<polygon fill="white" stroke="#bfbfbf" points="396,-362 396,-430 492,-430 492,-362 396,-362"/>
<text text-anchor="start" x="404" y="-418" font-family="Helvetica,sans-Serif" font-size="10.00">std::vector&lt; stride</text>
<text text-anchor="middle" x="444" y="-407" font-family="Helvetica,sans-Serif" font-size="10.00">::Person * &gt;</text>
<polyline fill="none" stroke="#bfbfbf" points="396,-400 492,-400 "/>
<text text-anchor="middle" x="444" y="-388" font-family="Helvetica,sans-Serif" font-size="10.00"> </text>
<polyline fill="none" stroke="#bfbfbf" points="396,-381 492,-381 "/>
<text text-anchor="middle" x="444" y="-369" font-family="Helvetica,sans-Serif" font-size="10.00"> </text>
</g>
<!-- Node3&#45;&gt;Node2 -->
<g id="edge2" class="edge"><title>Node3&#45;&gt;Node2</title>
<path fill="none" stroke="#404040" d="M395.827,-370.95C383.563,-362.336 371.91,-351.373 365,-338 361.973,-332.143 359.657,-325.912 357.923,-319.481"/>
<polygon fill="none" stroke="#404040" points="357.919,-319.462 352.751,-314.432 355.406,-307.728 360.574,-312.757 357.919,-319.462"/>
<text text-anchor="middle" x="395.5" y="-329.5" font-family="Helvetica,sans-Serif" font-size="10.00"> &#45;m_members</text>
</g>
<!-- Node4 -->
<g id="node4" class="node"><title>Node4</title>
<g id="a_node4"><a xlink:href="../../d2/df5/a00137.html" target="_top" xlink:title="Store and handle person data. ">
<polygon fill="white" stroke="black" points="506,-506.5 506,-673.5 586,-673.5 586,-506.5 506,-506.5"/>
<text text-anchor="middle" x="546" y="-661.5" font-family="Helvetica,sans-Serif" font-size="10.00">stride::Person</text>
<polyline fill="none" stroke="black" points="506,-654.5 586,-654.5 "/>
<text text-anchor="middle" x="546" y="-642.5" font-family="Helvetica,sans-Serif" font-size="10.00"> </text>
<polyline fill="none" stroke="black" points="506,-635.5 586,-635.5 "/>
<text text-anchor="start" x="514" y="-623.5" font-family="Helvetica,sans-Serif" font-size="10.00">+ Person()</text>
<text text-anchor="start" x="514" y="-612.5" font-family="Helvetica,sans-Serif" font-size="10.00">+ Person()</text>
<text text-anchor="start" x="514" y="-601.5" font-family="Helvetica,sans-Serif" font-size="10.00">+ operator!=()</text>
<text text-anchor="start" x="514" y="-590.5" font-family="Helvetica,sans-Serif" font-size="10.00">+ GetAge()</text>
<text text-anchor="start" x="514" y="-579.5" font-family="Helvetica,sans-Serif" font-size="10.00">+ GetBelief()</text>
<text text-anchor="start" x="514" y="-568.5" font-family="Helvetica,sans-Serif" font-size="10.00">+ GetBelief()</text>
<text text-anchor="start" x="514" y="-557.5" font-family="Helvetica,sans-Serif" font-size="10.00">+ GetPoolId()</text>
<text text-anchor="start" x="514" y="-546.5" font-family="Helvetica,sans-Serif" font-size="10.00">+ GetGender()</text>
<text text-anchor="start" x="514" y="-535.5" font-family="Helvetica,sans-Serif" font-size="10.00">+ GetHealth()</text>
<text text-anchor="start" x="514" y="-524.5" font-family="Helvetica,sans-Serif" font-size="10.00">+ GetHealth()</text>
<text text-anchor="start" x="514" y="-513.5" font-family="Helvetica,sans-Serif" font-size="10.00">and 27 more...</text>
</a>
</g>
</g>
<!-- Node4&#45;&gt;Node1 -->
<g id="edge33" class="edge"><title>Node4&#45;&gt;Node1</title>
<path fill="none" stroke="#404040" d="M556.126,-506.341C566.164,-412.188 578.509,-253.797 567,-118 565.986,-106.038 564.155,-93.1985 562.143,-81.3128"/>
<polygon fill="none" stroke="#404040" points="562.117,-81.162 557.125,-75.9578 560.009,-69.3485 565.001,-74.5528 562.117,-81.162"/>
<text text-anchor="middle" x="589.5" y="-329.5" font-family="Helvetica,sans-Serif" font-size="10.00"> +person</text>
</g>
<!-- Node4&#45;&gt;Node3 -->
<g id="edge3" class="edge"><title>Node4&#45;&gt;Node3</title>
<path fill="none" stroke="#404040" d="M505.98,-513.668C492.862,-488.976 478.727,-462.369 467.273,-440.808"/>
<polygon fill="none" stroke="#404040" points="467.177,-440.627 460.83,-437.205 461.547,-430.03 467.895,-433.452 467.177,-440.627"/>
<text text-anchor="middle" x="516.5" y="-468.5" font-family="Helvetica,sans-Serif" font-size="10.00"> +elements</text>
</g>
<!-- Node23 -->
<g id="node23" class="node"><title>Node23</title>
<polygon fill="white" stroke="#bfbfbf" points="103.5,-356.5 103.5,-435.5 216.5,-435.5 216.5,-356.5 103.5,-356.5"/>
<text text-anchor="start" x="111.5" y="-423.5" font-family="Helvetica,sans-Serif" font-size="10.00">std::unordered_map</text>
<text text-anchor="start" x="111.5" y="-412.5" font-family="Helvetica,sans-Serif" font-size="10.00">&lt; const stride::Person</text>
<text text-anchor="middle" x="160" y="-401.5" font-family="Helvetica,sans-Serif" font-size="10.00"> *, std::size_t &gt;</text>
<polyline fill="none" stroke="#bfbfbf" points="103.5,-394.5 216.5,-394.5 "/>
<text text-anchor="middle" x="160" y="-382.5" font-family="Helvetica,sans-Serif" font-size="10.00"> </text>
<polyline fill="none" stroke="#bfbfbf" points="103.5,-375.5 216.5,-375.5 "/>
<text text-anchor="middle" x="160" y="-363.5" font-family="Helvetica,sans-Serif" font-size="10.00"> </text>
</g>
<!-- Node4&#45;&gt;Node23 -->
<g id="edge25" class="edge"><title>Node4&#45;&gt;Node23</title>
<path fill="none" stroke="#404040" d="M505.745,-588.939C433.386,-586.636 280.643,-571.46 192,-488 180.551,-477.22 173.196,-462.106 168.471,-447.287"/>
<polygon fill="none" stroke="#404040" points="168.424,-447.117 162.967,-442.404 165.218,-435.554 170.676,-440.267 168.424,-447.117"/>
<text text-anchor="middle" x="207.5" y="-468.5" font-family="Helvetica,sans-Serif" font-size="10.00"> +keys</text>
</g>
<!-- Node5 -->
<g id="node5" class="node"><title>Node5</title>
<g id="a_node5"><a xlink:href="../../db/d8e/a00482.html" target="_top" xlink:title="{double\n||}">
<polygon fill="white" stroke="black" points="807.5,-804.5 807.5,-861.5 852.5,-861.5 852.5,-804.5 807.5,-804.5"/>
<text text-anchor="middle" x="830" y="-849.5" font-family="Helvetica,sans-Serif" font-size="10.00">double</text>
<polyline fill="none" stroke="black" points="807.5,-842.5 852.5,-842.5 "/>
<text text-anchor="middle" x="830" y="-830.5" font-family="Helvetica,sans-Serif" font-size="10.00"> </text>
<polyline fill="none" stroke="black" points="807.5,-823.5 852.5,-823.5 "/>
<text text-anchor="middle" x="830" y="-811.5" font-family="Helvetica,sans-Serif" font-size="10.00"> </text>
</a>
</g>
</g>
<!-- Node5&#45;&gt;Node4 -->
<g id="edge4" class="edge"><title>Node5&#45;&gt;Node4</title>
<path fill="none" stroke="#404040" d="M831.127,-804.488C830.912,-773.603 825.923,-723.678 799,-692 747.923,-631.903 656.031,-607.244 598.174,-597.355"/>
<polygon fill="none" stroke="#404040" points="597.866,-597.305 591.31,-600.306 586.017,-595.408 592.574,-592.407 597.866,-597.305"/>
<text text-anchor="middle" x="830" y="-700.5" font-family="Helvetica,sans-Serif" font-size="10.00"> &#45;m_age</text>
</g>
<!-- Node6 -->
<g id="node6" class="node"><title>Node6</title>
<g id="a_node6"><a xlink:href="../../d1/d09/a00077.html" target="_top" xlink:title="{stride::ContactPoolType\l::IdSubscriptArray\&lt; unsigned int \&gt;\n||+ IdSubscriptArray()\l+ IdSubscriptArray()\l+ IdSubscriptArray()\l+ IdSubscriptArray()\l+ operator[]()\l+ operator[]()\l+ at()\l+ at()\l}">
<polygon fill="white" stroke="black" points="198,-760.5 198,-905.5 364,-905.5 364,-760.5 198,-760.5"/>
<text text-anchor="start" x="206" y="-893.5" font-family="Helvetica,sans-Serif" font-size="10.00">stride::ContactPoolType</text>
<text text-anchor="middle" x="281" y="-882.5" font-family="Helvetica,sans-Serif" font-size="10.00">::IdSubscriptArray&lt; unsigned int &gt;</text>
<polyline fill="none" stroke="black" points="198,-875.5 364,-875.5 "/>
<text text-anchor="middle" x="281" y="-863.5" font-family="Helvetica,sans-Serif" font-size="10.00"> </text>
<polyline fill="none" stroke="black" points="198,-856.5 364,-856.5 "/>
<text text-anchor="start" x="206" y="-844.5" font-family="Helvetica,sans-Serif" font-size="10.00">+ IdSubscriptArray()</text>
<text text-anchor="start" x="206" y="-833.5" font-family="Helvetica,sans-Serif" font-size="10.00">+ IdSubscriptArray()</text>
<text text-anchor="start" x="206" y="-822.5" font-family="Helvetica,sans-Serif" font-size="10.00">+ IdSubscriptArray()</text>
<text text-anchor="start" x="206" y="-811.5" font-family="Helvetica,sans-Serif" font-size="10.00">+ IdSubscriptArray()</text>
<text text-anchor="start" x="206" y="-800.5" font-family="Helvetica,sans-Serif" font-size="10.00">+ operator[]()</text>
<text text-anchor="start" x="206" y="-789.5" font-family="Helvetica,sans-Serif" font-size="10.00">+ operator[]()</text>
<text text-anchor="start" x="206" y="-778.5" font-family="Helvetica,sans-Serif" font-size="10.00">+ at()</text>
<text text-anchor="start" x="206" y="-767.5" font-family="Helvetica,sans-Serif" font-size="10.00">+ at()</text>
</a>
</g>
</g>
<!-- Node6&#45;&gt;Node4 -->
<g id="edge5" class="edge"><title>Node6&#45;&gt;Node4</title>
<path fill="none" stroke="#404040" d="M305.245,-760.19C315.881,-736.388 330.29,-711.119 349,-692 389.63,-650.483 450.953,-622.783 494.372,-607.057"/>
<polygon fill="none" stroke="#404040" points="494.511,-607.008 498.847,-601.246 505.834,-603.032 501.498,-608.794 494.511,-607.008"/>
<text text-anchor="middle" x="377" y="-700.5" font-family="Helvetica,sans-Serif" font-size="10.00"> &#45;m_pool_ids</text>
</g>
<!-- Node7 -->
<g id="node7" class="node"><title>Node7</title>
<g id="a_node7"><a xlink:title="STL class. ">
<polygon fill="white" stroke="#bfbfbf" points="275.5,-1193 275.5,-1261 382.5,-1261 382.5,-1193 275.5,-1193"/>
<text text-anchor="start" x="283.5" y="-1249" font-family="Helvetica,sans-Serif" font-size="10.00">std::array&lt; unsigned</text>
<text text-anchor="middle" x="329" y="-1238" font-family="Helvetica,sans-Serif" font-size="10.00"> int, NumOfTypes()&gt;</text>
<polyline fill="none" stroke="#bfbfbf" points="275.5,-1231 382.5,-1231 "/>
<text text-anchor="middle" x="329" y="-1219" font-family="Helvetica,sans-Serif" font-size="10.00"> </text>
<polyline fill="none" stroke="#bfbfbf" points="275.5,-1212 382.5,-1212 "/>
<text text-anchor="middle" x="329" y="-1200" font-family="Helvetica,sans-Serif" font-size="10.00"> </text>
</a>
</g>
</g>
<!-- Node7&#45;&gt;Node6 -->
<g id="edge6" class="edge"><title>Node7&#45;&gt;Node6</title>
<path fill="none" stroke="midnightblue" d="M329.837,-1182.54C330.184,-1128.23 328.486,-1032.6 315,-952 312.467,-936.86 308.669,-920.903 304.518,-905.785"/>
<polygon fill="none" stroke="midnightblue" points="326.335,-1182.81 329.743,-1192.84 333.334,-1182.87 326.335,-1182.81"/>
</g>
<!-- Node8 -->
<g id="node8" class="node"><title>Node8</title>
<polygon fill="white" stroke="#bfbfbf" points="271.5,-1398.5 271.5,-1455.5 300.5,-1455.5 300.5,-1398.5 271.5,-1398.5"/>
<text text-anchor="middle" x="286" y="-1443.5" font-family="Helvetica,sans-Serif" font-size="10.00">T</text>
<polyline fill="none" stroke="#bfbfbf" points="271.5,-1436.5 300.5,-1436.5 "/>
<text text-anchor="middle" x="286" y="-1424.5" font-family="Helvetica,sans-Serif" font-size="10.00"> </text>
<polyline fill="none" stroke="#bfbfbf" points="271.5,-1417.5 300.5,-1417.5 "/>
<text text-anchor="middle" x="286" y="-1405.5" font-family="Helvetica,sans-Serif" font-size="10.00"> </text>
</g>
<!-- Node8&#45;&gt;Node7 -->
<g id="edge7" class="edge"><title>Node8&#45;&gt;Node7</title>
<path fill="none" stroke="#404040" d="M300.691,-1398.82C303.483,-1392.76 306.116,-1386.27 308,-1380 318.504,-1345.02 323.78,-1303.91 326.416,-1273.27"/>
<polygon fill="none" stroke="#404040" points="326.42,-1273.2 322.903,-1266.91 327.361,-1261.24 330.878,-1267.54 326.42,-1273.2"/>
<text text-anchor="middle" x="336.5" y="-1371.5" font-family="Helvetica,sans-Serif" font-size="10.00"> +elements</text>
</g>
<!-- Node10 -->
<g id="node10" class="node"><title>Node10</title>
<g id="a_node10"><a xlink:title="STL class. ">
<polygon fill="white" stroke="#bfbfbf" points="153.5,-1286.5 153.5,-1343.5 302.5,-1343.5 302.5,-1286.5 153.5,-1286.5"/>
<text text-anchor="middle" x="228" y="-1331.5" font-family="Helvetica,sans-Serif" font-size="10.00">std::array&lt; T, NumOfTypes()&gt;</text>
<polyline fill="none" stroke="#bfbfbf" points="153.5,-1324.5 302.5,-1324.5 "/>
<text text-anchor="middle" x="228" y="-1312.5" font-family="Helvetica,sans-Serif" font-size="10.00"> </text>
<polyline fill="none" stroke="#bfbfbf" points="153.5,-1305.5 302.5,-1305.5 "/>
<text text-anchor="middle" x="228" y="-1293.5" font-family="Helvetica,sans-Serif" font-size="10.00"> </text>
</a>
</g>
</g>
<!-- Node8&#45;&gt;Node10 -->
<g id="edge10" class="edge"><title>Node8&#45;&gt;Node10</title>
<path fill="none" stroke="#404040" d="M271.341,-1401.85C267.233,-1394.87 262.842,-1387.19 259,-1380 254.629,-1371.82 250.155,-1362.94 246.015,-1354.46"/>
<polygon fill="none" stroke="#404040" points="246.013,-1354.46 239.804,-1350.79 240.8,-1343.65 247.01,-1347.32 246.013,-1354.46"/>
<text text-anchor="middle" x="283.5" y="-1371.5" font-family="Helvetica,sans-Serif" font-size="10.00"> +elements</text>
</g>
<!-- Node22 -->
<g id="node22" class="node"><title>Node22</title>
<g id="a_node22"><a xlink:title="STL class. ">
<polygon fill="white" stroke="#bfbfbf" points="1039.5,-952.5 1039.5,-1009.5 1126.5,-1009.5 1126.5,-952.5 1039.5,-952.5"/>
<text text-anchor="middle" x="1083" y="-997.5" font-family="Helvetica,sans-Serif" font-size="10.00">std::vector&lt; T &gt;</text>
<polyline fill="none" stroke="#bfbfbf" points="1039.5,-990.5 1126.5,-990.5 "/>
<text text-anchor="middle" x="1083" y="-978.5" font-family="Helvetica,sans-Serif" font-size="10.00"> </text>
<polyline fill="none" stroke="#bfbfbf" points="1039.5,-971.5 1126.5,-971.5 "/>
<text text-anchor="middle" x="1083" y="-959.5" font-family="Helvetica,sans-Serif" font-size="10.00"> </text>
</a>
</g>
</g>
<!-- Node8&#45;&gt;Node22 -->
<g id="edge23" class="edge"><title>Node8&#45;&gt;Node22</title>
<path fill="none" stroke="#404040" d="M300.563,-1423.49C398.47,-1406.34 960.017,-1303.09 1064,-1174 1098.54,-1131.12 1096.56,-1064.14 1090.71,-1021.69"/>
<polygon fill="none" stroke="#404040" points="1090.68,-1021.49 1085.82,-1016.16 1088.86,-1009.62 1093.72,-1014.95 1090.68,-1021.49"/>
<text text-anchor="middle" x="897.5" y="-1312.5" font-family="Helvetica,sans-Serif" font-size="10.00"> +elements</text>
</g>
<!-- Node24 -->
<g id="node24" class="node"><title>Node24</title>
<g id="a_node24"><a xlink:title="STL class. ">
<polygon fill="white" stroke="#bfbfbf" points="-0.5,-1281 -0.5,-1349 102.5,-1349 102.5,-1281 -0.5,-1281"/>
<text text-anchor="start" x="7.5" y="-1337" font-family="Helvetica,sans-Serif" font-size="10.00">std::unordered_map</text>
<text text-anchor="middle" x="51" y="-1326" font-family="Helvetica,sans-Serif" font-size="10.00">&lt; K, T &gt;</text>
<polyline fill="none" stroke="#bfbfbf" points="-0.5,-1319 102.5,-1319 "/>
<text text-anchor="middle" x="51" y="-1307" font-family="Helvetica,sans-Serif" font-size="10.00"> </text>
<polyline fill="none" stroke="#bfbfbf" points="-0.5,-1300 102.5,-1300 "/>
<text text-anchor="middle" x="51" y="-1288" font-family="Helvetica,sans-Serif" font-size="10.00"> </text>
</a>
</g>
</g>
<!-- Node8&#45;&gt;Node24 -->
<g id="edge29" class="edge"><title>Node8&#45;&gt;Node24</title>
<path fill="none" stroke="#404040" d="M271.3,-1419.12C240.436,-1404.67 167.32,-1370.45 113.754,-1345.37"/>
<polygon fill="none" stroke="#404040" points="113.51,-1345.26 106.381,-1346.34 102.642,-1340.17 109.772,-1339.09 113.51,-1345.26"/>
<text text-anchor="middle" x="207.5" y="-1371.5" font-family="Helvetica,sans-Serif" font-size="10.00"> +elements</text>
</g>
<!-- Node9 -->
<g id="node9" class="node"><title>Node9</title>
<g id="a_node9"><a xlink:href="../../d1/d09/a00077.html" target="_top" xlink:title="An std::array modified to enable subscripting with the constact pool type indentifiers. ">
<polygon fill="white" stroke="black" points="170,-1028.5 170,-1173.5 292,-1173.5 292,-1028.5 170,-1028.5"/>
<text text-anchor="start" x="178" y="-1161.5" font-family="Helvetica,sans-Serif" font-size="10.00">stride::ContactPoolType</text>
<text text-anchor="middle" x="231" y="-1150.5" font-family="Helvetica,sans-Serif" font-size="10.00">::IdSubscriptArray&lt; T &gt;</text>
<polyline fill="none" stroke="black" points="170,-1143.5 292,-1143.5 "/>
<text text-anchor="middle" x="231" y="-1131.5" font-family="Helvetica,sans-Serif" font-size="10.00"> </text>
<polyline fill="none" stroke="black" points="170,-1124.5 292,-1124.5 "/>
<text text-anchor="start" x="178" y="-1112.5" font-family="Helvetica,sans-Serif" font-size="10.00">+ IdSubscriptArray()</text>
<text text-anchor="start" x="178" y="-1101.5" font-family="Helvetica,sans-Serif" font-size="10.00">+ IdSubscriptArray()</text>
<text text-anchor="start" x="178" y="-1090.5" font-family="Helvetica,sans-Serif" font-size="10.00">+ IdSubscriptArray()</text>
<text text-anchor="start" x="178" y="-1079.5" font-family="Helvetica,sans-Serif" font-size="10.00">+ IdSubscriptArray()</text>
<text text-anchor="start" x="178" y="-1068.5" font-family="Helvetica,sans-Serif" font-size="10.00">+ operator[]()</text>
<text text-anchor="start" x="178" y="-1057.5" font-family="Helvetica,sans-Serif" font-size="10.00">+ operator[]()</text>
<text text-anchor="start" x="178" y="-1046.5" font-family="Helvetica,sans-Serif" font-size="10.00">+ at()</text>
<text text-anchor="start" x="178" y="-1035.5" font-family="Helvetica,sans-Serif" font-size="10.00">+ at()</text>
</a>
</g>
</g>
<!-- Node9&#45;&gt;Node6 -->
<g id="edge8" class="edge"><title>Node9&#45;&gt;Node6</title>
<path fill="none" stroke="orange" d="M232.729,-1018.21C234.219,-996.534 236.754,-973.256 241,-952 244.051,-936.727 248.549,-920.711 253.44,-905.579"/>
<polygon fill="orange" stroke="orange" points="229.225,-1018.17 232.097,-1028.37 236.211,-1018.6 229.225,-1018.17"/>
<text text-anchor="middle" x="278" y="-978.5" font-family="Helvetica,sans-Serif" font-size="10.00"> &lt; unsigned int &gt;</text>
</g>
<!-- Node10&#45;&gt;Node9 -->
<g id="edge9" class="edge"><title>Node10&#45;&gt;Node9</title>
<path fill="none" stroke="midnightblue" d="M228.538,-1275.97C228.94,-1247.54 229.503,-1207.82 229.988,-1173.51"/>
<polygon fill="none" stroke="midnightblue" points="225.034,-1276.24 228.392,-1286.28 232.033,-1276.34 225.034,-1276.24"/>
</g>
<!-- Node11 -->
<g id="node11" class="node"><title>Node11</title>
<polygon fill="white" stroke="#bfbfbf" points="870.5,-804.5 870.5,-861.5 905.5,-861.5 905.5,-804.5 870.5,-804.5"/>
<text text-anchor="middle" x="888" y="-849.5" font-family="Helvetica,sans-Serif" font-size="10.00">char</text>
<polyline fill="none" stroke="#bfbfbf" points="870.5,-842.5 905.5,-842.5 "/>
<text text-anchor="middle" x="888" y="-830.5" font-family="Helvetica,sans-Serif" font-size="10.00"> </text>
<polyline fill="none" stroke="#bfbfbf" points="870.5,-823.5 905.5,-823.5 "/>
<text text-anchor="middle" x="888" y="-811.5" font-family="Helvetica,sans-Serif" font-size="10.00"> </text>
</g>
<!-- Node11&#45;&gt;Node4 -->
<g id="edge11" class="edge"><title>Node11&#45;&gt;Node4</title>
<path fill="none" stroke="#404040" d="M888.361,-804.382C887.262,-773.164 880.71,-722.705 852,-692 785.096,-620.448 666.555,-599.525 598.317,-593.448"/>
<polygon fill="none" stroke="#404040" points="598.146,-593.434 591.846,-596.942 586.184,-592.477 592.484,-588.968 598.146,-593.434"/>
<text text-anchor="middle" x="890.5" y="-700.5" font-family="Helvetica,sans-Serif" font-size="10.00"> &#45;m_gender</text>
</g>
<!-- Node12 -->
<g id="node12" class="node"><title>Node12</title>
<g id="a_node12"><a xlink:href="../../d5/d1e/a00103.html" target="_top" xlink:title="Specialisation of IdSubscriptArray foor booleans. ">
<polygon fill="white" stroke="black" points="923.5,-771.5 923.5,-894.5 1054.5,-894.5 1054.5,-771.5 923.5,-771.5"/>
<text text-anchor="start" x="931.5" y="-882.5" font-family="Helvetica,sans-Serif" font-size="10.00">stride::ContactPoolType</text>
<text text-anchor="middle" x="989" y="-871.5" font-family="Helvetica,sans-Serif" font-size="10.00">::IdSubscriptArray&lt; bool &gt;</text>
<polyline fill="none" stroke="black" points="923.5,-864.5 1054.5,-864.5 "/>
<text text-anchor="middle" x="989" y="-852.5" font-family="Helvetica,sans-Serif" font-size="10.00"> </text>
<polyline fill="none" stroke="black" points="923.5,-845.5 1054.5,-845.5 "/>
<text text-anchor="start" x="931.5" y="-833.5" font-family="Helvetica,sans-Serif" font-size="10.00">+ IdSubscriptArray()</text>
<text text-anchor="start" x="931.5" y="-822.5" font-family="Helvetica,sans-Serif" font-size="10.00">+ IdSubscriptArray()</text>
<text text-anchor="start" x="931.5" y="-811.5" font-family="Helvetica,sans-Serif" font-size="10.00">+ operator[]()</text>
<text text-anchor="start" x="931.5" y="-800.5" font-family="Helvetica,sans-Serif" font-size="10.00">+ operator[]()</text>
<text text-anchor="start" x="931.5" y="-789.5" font-family="Helvetica,sans-Serif" font-size="10.00">+ at()</text>
<text text-anchor="start" x="931.5" y="-778.5" font-family="Helvetica,sans-Serif" font-size="10.00">+ at()</text>
</a>
</g>
</g>
<!-- Node12&#45;&gt;Node1 -->
<g id="edge32" class="edge"><title>Node12&#45;&gt;Node1</title>
<path fill="none" stroke="#404040" d="M1006.79,-771.171C1019.36,-722.791 1034,-653.143 1034,-591 1034,-591 1034,-591 1034,-212 1034,-124.692 750.982,-67.7693 619.135,-45.9879"/>
<polygon fill="none" stroke="#404040" points="619.086,-45.98 612.521,-48.9634 607.242,-44.0509 613.807,-41.0675 619.086,-45.98"/>
<text text-anchor="middle" x="1075" y="-393.5" font-family="Helvetica,sans-Serif" font-size="10.00"> +original_in_pools</text>
</g>
<!-- Node12&#45;&gt;Node4 -->
<g id="edge12" class="edge"><title>Node12&#45;&gt;Node4</title>
<path fill="none" stroke="#404040" d="M971.402,-771.162C960.485,-743.373 943.711,-712.221 919,-692 824.814,-614.929 676.82,-596.369 598.567,-592.097"/>
<polygon fill="none" stroke="#404040" points="598.154,-592.078 591.971,-595.789 586.168,-591.509 592.35,-587.798 598.154,-592.078"/>
<text text-anchor="middle" x="968" y="-700.5" font-family="Helvetica,sans-Serif" font-size="10.00"> &#45;m_in_pools</text>
</g>
<!-- Node13 -->
<g id="node13" class="node"><title>Node13</title>
<g id="a_node13"><a xlink:title="STL class. ">
<polygon fill="white" stroke="#bfbfbf" points="915,-1072.5 915,-1129.5 1055,-1129.5 1055,-1072.5 915,-1072.5"/>
<text text-anchor="middle" x="985" y="-1117.5" font-family="Helvetica,sans-Serif" font-size="10.00">std::bitset&lt; NumOfTypes()&gt;</text>
<polyline fill="none" stroke="#bfbfbf" points="915,-1110.5 1055,-1110.5 "/>
<text text-anchor="middle" x="985" y="-1098.5" font-family="Helvetica,sans-Serif" font-size="10.00"> </text>
<polyline fill="none" stroke="#bfbfbf" points="915,-1091.5 1055,-1091.5 "/>
<text text-anchor="middle" x="985" y="-1079.5" font-family="Helvetica,sans-Serif" font-size="10.00"> </text>
</a>
</g>
</g>
<!-- Node13&#45;&gt;Node12 -->
<g id="edge13" class="edge"><title>Node13&#45;&gt;Node12</title>
<path fill="none" stroke="midnightblue" d="M985.574,-1061.85C986.23,-1018.19 987.314,-946.13 988.087,-894.737"/>
<polygon fill="none" stroke="midnightblue" points="982.071,-1061.98 985.421,-1072.04 989.071,-1062.09 982.071,-1061.98"/>
</g>
<!-- Node14 -->
<g id="node14" class="node"><title>Node14</title>
<polygon fill="white" stroke="#bfbfbf" points="382.5,-804.5 382.5,-861.5 411.5,-861.5 411.5,-804.5 382.5,-804.5"/>
<text text-anchor="middle" x="397" y="-849.5" font-family="Helvetica,sans-Serif" font-size="10.00">int</text>
<polyline fill="none" stroke="#bfbfbf" points="382.5,-842.5 411.5,-842.5 "/>
<text text-anchor="middle" x="397" y="-830.5" font-family="Helvetica,sans-Serif" font-size="10.00"> </text>
<polyline fill="none" stroke="#bfbfbf" points="382.5,-823.5 411.5,-823.5 "/>
<text text-anchor="middle" x="397" y="-811.5" font-family="Helvetica,sans-Serif" font-size="10.00"> </text>
</g>
<!-- Node14&#45;&gt;Node4 -->
<g id="edge14" class="edge"><title>Node14&#45;&gt;Node4</title>
<path fill="none" stroke="#404040" d="M395.349,-804.26C394.84,-774.513 397.769,-726.862 418,-692 436.205,-660.63 468.252,-635.36 495.724,-617.943"/>
<polygon fill="none" stroke="#404040" points="495.757,-617.923 498.785,-611.378 505.991,-611.656 502.963,-618.2 495.757,-617.923"/>
<text text-anchor="middle" x="432" y="-700.5" font-family="Helvetica,sans-Serif" font-size="10.00"> &#45;m_id</text>
</g>
<!-- Node15 -->
<g id="node15" class="node"><title>Node15</title>
<polygon fill="white" stroke="#bfbfbf" points="429.5,-804.5 429.5,-861.5 464.5,-861.5 464.5,-804.5 429.5,-804.5"/>
<text text-anchor="middle" x="447" y="-849.5" font-family="Helvetica,sans-Serif" font-size="10.00">bool</text>
<polyline fill="none" stroke="#bfbfbf" points="429.5,-842.5 464.5,-842.5 "/>
<text text-anchor="middle" x="447" y="-830.5" font-family="Helvetica,sans-Serif" font-size="10.00"> </text>
<polyline fill="none" stroke="#bfbfbf" points="429.5,-823.5 464.5,-823.5 "/>
<text text-anchor="middle" x="447" y="-811.5" font-family="Helvetica,sans-Serif" font-size="10.00"> </text>
</g>
<!-- Node15&#45;&gt;Node4 -->
<g id="edge15" class="edge"><title>Node15&#45;&gt;Node4</title>
<path fill="none" stroke="#404040" d="M443.923,-804.499C441.793,-775.373 441.649,-728.633 457,-692 465.993,-670.539 481.453,-650.494 496.989,-634.01"/>
<polygon fill="none" stroke="#404040" points="497.19,-633.805 498.531,-626.72 505.587,-625.233 504.246,-632.318 497.19,-633.805"/>
<text text-anchor="middle" x="494.5" y="-706" font-family="Helvetica,sans-Serif" font-size="10.00"> &#45;m_isTravelling</text>
<text text-anchor="middle" x="494.5" y="-695" font-family="Helvetica,sans-Serif" font-size="10.00">&#45;m_is_participant</text>
</g>
<!-- Node16 -->
<g id="node16" class="node"><title>Node16</title>
<g id="a_node16"><a xlink:href="../../d9/df8/a00096.html" target="_top" xlink:title="Base class for all belief policies. ">
<polygon fill="white" stroke="black" points="483,-793.5 483,-872.5 569,-872.5 569,-793.5 483,-793.5"/>
<text text-anchor="middle" x="526" y="-860.5" font-family="Helvetica,sans-Serif" font-size="10.00">stride::Belief</text>
<polyline fill="none" stroke="black" points="483,-853.5 569,-853.5 "/>
<text text-anchor="middle" x="526" y="-841.5" font-family="Helvetica,sans-Serif" font-size="10.00"> </text>
<polyline fill="none" stroke="black" points="483,-834.5 569,-834.5 "/>
<text text-anchor="start" x="491" y="-822.5" font-family="Helvetica,sans-Serif" font-size="10.00">+ Belief()</text>
<text text-anchor="start" x="491" y="-811.5" font-family="Helvetica,sans-Serif" font-size="10.00">+ ~Belief()</text>
<text text-anchor="start" x="491" y="-800.5" font-family="Helvetica,sans-Serif" font-size="10.00">+ HasAdopted()</text>
</a>
</g>
</g>
<!-- Node16&#45;&gt;Node4 -->
<g id="edge16" class="edge"><title>Node16&#45;&gt;Node4</title>
<path fill="none" stroke="#404040" d="M529.213,-793.279C531.625,-764.224 535.033,-723.158 538.148,-685.612"/>
<polygon fill="none" stroke="#404040" points="538.156,-685.523 534.666,-679.213 539.148,-673.564 542.638,-679.875 538.156,-685.523"/>
<text text-anchor="middle" x="559.5" y="-700.5" font-family="Helvetica,sans-Serif" font-size="10.00"> &#45;m_belief</text>
</g>
<!-- Node17 -->
<g id="node17" class="node"><title>Node17</title>
<g id="a_node17"><a xlink:href="../../d8/d17/a00114.html" target="_top" xlink:title="Holds a person&#39;s health data. ">
<polygon fill="white" stroke="black" points="587.5,-733 587.5,-933 730.5,-933 730.5,-733 587.5,-733"/>
<text text-anchor="middle" x="659" y="-921" font-family="Helvetica,sans-Serif" font-size="10.00">stride::Health</text>
<polyline fill="none" stroke="black" points="587.5,-914 730.5,-914 "/>
<text text-anchor="middle" x="659" y="-902" font-family="Helvetica,sans-Serif" font-size="10.00"> </text>
<polyline fill="none" stroke="black" points="587.5,-895 730.5,-895 "/>
<text text-anchor="start" x="595.5" y="-883" font-family="Helvetica,sans-Serif" font-size="10.00">+ Health()</text>
<text text-anchor="start" x="595.5" y="-872" font-family="Helvetica,sans-Serif" font-size="10.00">+ GetEndInfectiousness()</text>
<text text-anchor="start" x="595.5" y="-861" font-family="Helvetica,sans-Serif" font-size="10.00">+ GetEndSymptomatic()</text>
<text text-anchor="start" x="595.5" y="-850" font-family="Helvetica,sans-Serif" font-size="10.00">+ GetStartInfectiousness()</text>
<text text-anchor="start" x="595.5" y="-839" font-family="Helvetica,sans-Serif" font-size="10.00">+ GetStartSymptomatic()</text>
<text text-anchor="start" x="595.5" y="-828" font-family="Helvetica,sans-Serif" font-size="10.00">+ IsImmune()</text>
<text text-anchor="start" x="595.5" y="-817" font-family="Helvetica,sans-Serif" font-size="10.00">+ IsInfected()</text>
<text text-anchor="start" x="595.5" y="-806" font-family="Helvetica,sans-Serif" font-size="10.00">+ IsInfectious()</text>
<text text-anchor="start" x="595.5" y="-795" font-family="Helvetica,sans-Serif" font-size="10.00">+ IsRecovered()</text>
<text text-anchor="start" x="595.5" y="-784" font-family="Helvetica,sans-Serif" font-size="10.00">+ IsSusceptible()</text>
<text text-anchor="start" x="595.5" y="-773" font-family="Helvetica,sans-Serif" font-size="10.00">and 6 more...</text>
<text text-anchor="start" x="595.5" y="-762" font-family="Helvetica,sans-Serif" font-size="10.00">&#45; GetDiseaseCounter()</text>
<text text-anchor="start" x="595.5" y="-751" font-family="Helvetica,sans-Serif" font-size="10.00">&#45; IncrementDiseaseCounter()</text>
<text text-anchor="start" x="595.5" y="-740" font-family="Helvetica,sans-Serif" font-size="10.00">&#45; ResetDiseaseCounter()</text>
</a>
</g>
</g>
<!-- Node17&#45;&gt;Node4 -->
<g id="edge17" class="edge"><title>Node17&#45;&gt;Node4</title>
<path fill="none" stroke="#404040" d="M612.549,-732.933C605.032,-716.899 597.269,-700.343 589.816,-684.448"/>
<polygon fill="none" stroke="#404040" points="589.807,-684.429 583.638,-680.695 584.713,-673.564 590.882,-677.299 589.807,-684.429"/>
<text text-anchor="middle" x="626" y="-700.5" font-family="Helvetica,sans-Serif" font-size="10.00"> &#45;m_health</text>
</g>
<!-- Node18 -->
<g id="node18" class="node"><title>Node18</title>
<polygon fill="white" stroke="#bfbfbf" points="686,-1072.5 686,-1129.5 760,-1129.5 760,-1072.5 686,-1072.5"/>
<text text-anchor="middle" x="723" y="-1117.5" font-family="Helvetica,sans-Serif" font-size="10.00">HealthStatus</text>
<polyline fill="none" stroke="#bfbfbf" points="686,-1110.5 760,-1110.5 "/>
<text text-anchor="middle" x="723" y="-1098.5" font-family="Helvetica,sans-Serif" font-size="10.00"> </text>
<polyline fill="none" stroke="#bfbfbf" points="686,-1091.5 760,-1091.5 "/>
<text text-anchor="middle" x="723" y="-1079.5" font-family="Helvetica,sans-Serif" font-size="10.00"> </text>
</g>
<!-- Node18&#45;&gt;Node17 -->
<g id="edge18" class="edge"><title>Node18&#45;&gt;Node17</title>
<path fill="none" stroke="#404040" d="M720.518,-1072.41C717.449,-1042.45 711.323,-993.332 701,-952 700.393,-949.569 699.755,-947.118 699.091,-944.653"/>
<polygon fill="none" stroke="#404040" points="699.074,-944.591 693.59,-939.907 695.805,-933.045 701.288,-937.728 699.074,-944.591"/>
<text text-anchor="middle" x="736.5" y="-978.5" font-family="Helvetica,sans-Serif" font-size="10.00"> &#45;m_status</text>
</g>
<!-- Node19 -->
<g id="node19" class="node"><title>Node19</title>
<polygon fill="white" stroke="#bfbfbf" points="548,-1072.5 548,-1129.5 642,-1129.5 642,-1072.5 548,-1072.5"/>
<text text-anchor="middle" x="595" y="-1117.5" font-family="Helvetica,sans-Serif" font-size="10.00">unsigned short int</text>
<polyline fill="none" stroke="#bfbfbf" points="548,-1110.5 642,-1110.5 "/>
<text text-anchor="middle" x="595" y="-1098.5" font-family="Helvetica,sans-Serif" font-size="10.00"> </text>
<polyline fill="none" stroke="#bfbfbf" points="548,-1091.5 642,-1091.5 "/>
<text text-anchor="middle" x="595" y="-1079.5" font-family="Helvetica,sans-Serif" font-size="10.00"> </text>
</g>
<!-- Node19&#45;&gt;Node17 -->
<g id="edge19" class="edge"><title>Node19&#45;&gt;Node17</title>
<path fill="none" stroke="#404040" d="M589.987,-1072.46C585.522,-1042.33 581.205,-992.875 592,-952 592.646,-949.553 593.356,-947.104 594.123,-944.657"/>
<polygon fill="none" stroke="#404040" points="594.155,-944.567 592.354,-937.584 598.107,-933.237 599.908,-940.219 594.155,-944.567"/>
<text text-anchor="middle" x="644.5" y="-1000.5" font-family="Helvetica,sans-Serif" font-size="10.00"> &#45;m_start_symptomatic</text>
<text text-anchor="middle" x="644.5" y="-989.5" font-family="Helvetica,sans-Serif" font-size="10.00">&#45;m_disease_counter</text>
<text text-anchor="middle" x="644.5" y="-978.5" font-family="Helvetica,sans-Serif" font-size="10.00">&#45;m_end_symptomatic</text>
<text text-anchor="middle" x="644.5" y="-967.5" font-family="Helvetica,sans-Serif" font-size="10.00">&#45;m_end_infectiousness</text>
<text text-anchor="middle" x="644.5" y="-956.5" font-family="Helvetica,sans-Serif" font-size="10.00">&#45;m_start_infectiousness</text>
</g>
<!-- Node20 -->
<g id="node20" class="node"><title>Node20</title>
<polygon fill="white" stroke="#bfbfbf" points="136.5,-804.5 136.5,-861.5 179.5,-861.5 179.5,-804.5 136.5,-804.5"/>
<text text-anchor="middle" x="158" y="-849.5" font-family="Helvetica,sans-Serif" font-size="10.00">size_t</text>
<polyline fill="none" stroke="#bfbfbf" points="136.5,-842.5 179.5,-842.5 "/>
<text text-anchor="middle" x="158" y="-830.5" font-family="Helvetica,sans-Serif" font-size="10.00"> </text>
<polyline fill="none" stroke="#bfbfbf" points="136.5,-823.5 179.5,-823.5 "/>
<text text-anchor="middle" x="158" y="-811.5" font-family="Helvetica,sans-Serif" font-size="10.00"> </text>
</g>
<!-- Node20&#45;&gt;Node1 -->
<g id="edge36" class="edge"><title>Node20&#45;&gt;Node1</title>
<path fill="none" stroke="#404040" d="M148.86,-804.347C123.519,-727.138 53.5369,-510.066 43,-436 37.9922,-400.799 29.4628,-388.878 43,-356 99.716,-218.254 151.247,-194.614 279,-118 344.001,-79.0189 428.901,-57.3704 486.861,-46.2438"/>
<polygon fill="none" stroke="#404040" points="487.004,-46.2172 492.173,-41.1892 498.803,-44.0268 493.634,-49.0548 487.004,-46.2172"/>
<text text-anchor="middle" x="68.5" y="-393.5" font-family="Helvetica,sans-Serif" font-size="10.00"> +leaveDay</text>
</g>
<!-- Node20&#45;&gt;Node2 -->
<g id="edge31" class="edge"><title>Node20&#45;&gt;Node2</title>
<path fill="none" stroke="#404040" d="M165.878,-804.184C171.777,-783.993 180.297,-756.105 189,-732 198.474,-705.76 203.309,-700.16 213,-674 257.635,-553.505 302.808,-412.883 331.96,-319.141"/>
<polygon fill="none" stroke="#404040" points="331.966,-319.121 329.924,-312.205 335.523,-307.66 337.565,-314.576 331.966,-319.121"/>
<text text-anchor="middle" x="328" y="-479.5" font-family="Helvetica,sans-Serif" font-size="10.00"> &#45;m_pool_id</text>
<text text-anchor="middle" x="328" y="-468.5" font-family="Helvetica,sans-Serif" font-size="10.00">&#45;m_capacity</text>
<text text-anchor="middle" x="328" y="-457.5" font-family="Helvetica,sans-Serif" font-size="10.00">&#45;m_index_immune</text>
</g>
<!-- Node20&#45;&gt;Node4 -->
<g id="edge20" class="edge"><title>Node20&#45;&gt;Node4</title>
<path fill="none" stroke="#404040" d="M160.27,-804.283C163.426,-782.268 170.97,-751.964 189,-732 192.804,-727.788 277.739,-694.129 283,-692 355.923,-662.493 441.027,-630.196 494.222,-610.262"/>
<polygon fill="none" stroke="#404040" points="494.485,-610.163 498.703,-604.314 505.724,-605.957 501.507,-611.807 494.485,-610.163"/>
<text text-anchor="middle" x="306" y="-700.5" font-family="Helvetica,sans-Serif" font-size="10.00"> &#45;m_region</text>
</g>
<!-- Node20&#45;&gt;Node23 -->
<g id="edge26" class="edge"><title>Node20&#45;&gt;Node23</title>
<path fill="none" stroke="#404040" d="M158.127,-804.459C158.456,-732.859 159.342,-540.031 159.767,-447.667"/>
<polygon fill="none" stroke="#404040" points="159.767,-447.589 155.795,-441.571 159.823,-435.589 163.795,-441.608 159.767,-447.589"/>
<text text-anchor="middle" x="184.5" y="-587.5" font-family="Helvetica,sans-Serif" font-size="10.00"> +elements</text>
</g>
<!-- Node21 -->
<g id="node21" class="node"><title>Node21</title>
<polygon fill="white" stroke="#bfbfbf" points="748.5,-804.5 748.5,-861.5 789.5,-861.5 789.5,-804.5 748.5,-804.5"/>
<text text-anchor="middle" x="769" y="-849.5" font-family="Helvetica,sans-Serif" font-size="10.00">friend</text>
<polyline fill="none" stroke="#bfbfbf" points="748.5,-842.5 789.5,-842.5 "/>
<text text-anchor="middle" x="769" y="-830.5" font-family="Helvetica,sans-Serif" font-size="10.00"> </text>
<polyline fill="none" stroke="#bfbfbf" points="748.5,-823.5 789.5,-823.5 "/>
<text text-anchor="middle" x="769" y="-811.5" font-family="Helvetica,sans-Serif" font-size="10.00"> </text>
</g>
<!-- Node21&#45;&gt;Node4 -->
<g id="edge21" class="edge"><title>Node21&#45;&gt;Node4</title>
<path fill="none" stroke="#404040" d="M765.608,-804.444C761.891,-783.092 754.282,-753.605 739,-732 702.328,-680.157 640.533,-639.91 596.755,-615.922"/>
<polygon fill="none" stroke="#404040" points="596.616,-615.847 589.437,-616.536 586.04,-610.176 593.218,-609.486 596.616,-615.847"/>
<text text-anchor="middle" x="759.5" y="-700.5" font-family="Helvetica,sans-Serif" font-size="10.00"> +TravellerIndex</text>
</g>
<!-- Node22&#45;&gt;Node3 -->
<g id="edge22" class="edge"><title>Node22&#45;&gt;Node3</title>
<path fill="none" stroke="orange" d="M1089.77,-942.27C1096.95,-890.768 1102.45,-797.4 1063,-732 1028.07,-674.091 1572.26,-931.514 545,-454 525.84,-445.094 519.601,-446.022 501,-436 497.622,-434.18 494.198,-432.206 490.792,-430.144"/>
<polygon fill="orange" stroke="orange" points="1086.28,-941.888 1088.27,-952.295 1093.21,-942.92 1086.28,-941.888"/>
<text text-anchor="middle" x="1148.5" y="-700.5" font-family="Helvetica,sans-Serif" font-size="10.00"> &lt; stride::Person * &gt;</text>
</g>
<!-- Node23&#45;&gt;Node2 -->
<g id="edge24" class="edge"><title>Node23&#45;&gt;Node2</title>
<path fill="none" stroke="#404040" d="M167.069,-356.472C170.345,-345.838 175.105,-334.813 182,-326 206.857,-294.228 243.432,-269.24 277.286,-251.006"/>
<polygon fill="none" stroke="#404040" points="277.528,-250.88 280.994,-244.556 288.164,-245.323 284.698,-251.647 277.528,-250.88"/>
<text text-anchor="middle" x="206.5" y="-329.5" font-family="Helvetica,sans-Serif" font-size="10.00"> &#45;m_expats</text>
</g>
<!-- Node24&#45;&gt;Node23 -->
<g id="edge27" class="edge"><title>Node24&#45;&gt;Node23</title>
<path fill="none" stroke="orange" d="M40.3353,-1271.08C30.6934,-1228.47 18,-1161.14 18,-1102 18,-1102 18,-1102 18,-702 18,-598.032 86.6512,-491.189 128.486,-435.734"/>
<polygon fill="orange" stroke="orange" points="36.9275,-1271.88 42.5873,-1280.83 43.7481,-1270.3 36.9275,-1271.88"/>
<text text-anchor="start" x="18" y="-836" font-family="Helvetica,sans-Serif" font-size="10.00"> &lt; const stride::Person</text>
<text text-anchor="middle" x="68" y="-825" font-family="Helvetica,sans-Serif" font-size="10.00"> *, std::size_t &gt;</text>
</g>
<!-- Node25 -->
<g id="node25" class="node"><title>Node25</title>
<polygon fill="white" stroke="#bfbfbf" points="36.5,-1398.5 36.5,-1455.5 65.5,-1455.5 65.5,-1398.5 36.5,-1398.5"/>
<text text-anchor="middle" x="51" y="-1443.5" font-family="Helvetica,sans-Serif" font-size="10.00">K</text>
<polyline fill="none" stroke="#bfbfbf" points="36.5,-1436.5 65.5,-1436.5 "/>
<text text-anchor="middle" x="51" y="-1424.5" font-family="Helvetica,sans-Serif" font-size="10.00"> </text>
<polyline fill="none" stroke="#bfbfbf" points="36.5,-1417.5 65.5,-1417.5 "/>
<text text-anchor="middle" x="51" y="-1405.5" font-family="Helvetica,sans-Serif" font-size="10.00"> </text>
</g>
<!-- Node25&#45;&gt;Node24 -->
<g id="edge28" class="edge"><title>Node25&#45;&gt;Node24</title>
<path fill="none" stroke="#404040" d="M51,-1398.24C51,-1387.07 51,-1373.9 51,-1361.4"/>
<polygon fill="none" stroke="#404040" points="51.0001,-1361.24 47,-1355.24 51,-1349.24 55,-1355.24 51.0001,-1361.24"/>
<text text-anchor="middle" x="66.5" y="-1371.5" font-family="Helvetica,sans-Serif" font-size="10.00"> +keys</text>
</g>
<!-- Node26 -->
<g id="node26" class="node"><title>Node26</title>
<polygon fill="white" stroke="#bfbfbf" points="510.5,-367.5 510.5,-424.5 539.5,-424.5 539.5,-367.5 510.5,-367.5"/>
<text text-anchor="middle" x="525" y="-412.5" font-family="Helvetica,sans-Serif" font-size="10.00">Id</text>
<polyline fill="none" stroke="#bfbfbf" points="510.5,-405.5 539.5,-405.5 "/>
<text text-anchor="middle" x="525" y="-393.5" font-family="Helvetica,sans-Serif" font-size="10.00"> </text>
<polyline fill="none" stroke="#bfbfbf" points="510.5,-386.5 539.5,-386.5 "/>
<text text-anchor="middle" x="525" y="-374.5" font-family="Helvetica,sans-Serif" font-size="10.00"> </text>
</g>
<!-- Node26&#45;&gt;Node1 -->
<g id="edge35" class="edge"><title>Node26&#45;&gt;Node1</title>
<path fill="none" stroke="#404040" d="M525.313,-367.392C526.119,-317.473 528.975,-208.937 539,-118 540.316,-106.067 542.253,-93.2382 544.269,-81.353"/>
<polygon fill="none" stroke="#404040" points="544.295,-81.2043 541.397,-74.6014 546.377,-69.3862 549.276,-75.989 544.295,-81.2043"/>
<text text-anchor="middle" x="553" y="-210.5" font-family="Helvetica,sans-Serif" font-size="10.00"> +type</text>
</g>
<!-- Node26&#45;&gt;Node2 -->
<g id="edge30" class="edge"><title>Node26&#45;&gt;Node2</title>
<path fill="none" stroke="#404040" d="M511.447,-367.467C508.453,-363.214 504.969,-359.184 501,-356 481.925,-340.694 468.446,-352.831 449,-338 440.782,-331.733 433.073,-324.437 425.912,-316.582"/>
<polygon fill="none" stroke="#404040" points="425.909,-316.579 418.959,-314.655 418.061,-307.5 425.011,-309.423 425.909,-316.579"/>
<text text-anchor="middle" x="480" y="-329.5" font-family="Helvetica,sans-Serif" font-size="10.00"> &#45;m_pool_type</text>
</g>
<!-- Node27 -->
<g id="node27" class="node"><title>Node27</title>
<polygon fill="white" stroke="#bfbfbf" points="1062.5,-184.5 1062.5,-241.5 1131.5,-241.5 1131.5,-184.5 1062.5,-184.5"/>
<text text-anchor="middle" x="1097" y="-229.5" font-family="Helvetica,sans-Serif" font-size="10.00">unsigned int</text>
<polyline fill="none" stroke="#bfbfbf" points="1062.5,-222.5 1131.5,-222.5 "/>
<text text-anchor="middle" x="1097" y="-210.5" font-family="Helvetica,sans-Serif" font-size="10.00"> </text>
<polyline fill="none" stroke="#bfbfbf" points="1062.5,-203.5 1131.5,-203.5 "/>
<text text-anchor="middle" x="1097" y="-191.5" font-family="Helvetica,sans-Serif" font-size="10.00"> </text>
</g>
<!-- Node27&#45;&gt;Node1 -->
<g id="edge34" class="edge"><title>Node27&#45;&gt;Node1</title>
<path fill="none" stroke="#404040" d="M1094.28,-184.363C1089.84,-155.393 1078.23,-110.961 1048,-88 1014.58,-62.615 746.793,-45.8108 619.615,-39.1836"/>
<polygon fill="none" stroke="#404040" points="619.375,-39.1714 613.178,-42.8582 607.391,-38.5555 613.589,-34.8687 619.375,-39.1714"/>
<text text-anchor="middle" x="1073.5" y="-91.5" font-family="Helvetica,sans-Serif" font-size="10.00"> +from</text>
</g>
</g>
</svg>
