<?xml version="1.0" encoding="UTF-8" standalone="no"?>
<!DOCTYPE svg PUBLIC "-//W3C//DTD SVG 1.1//EN"
 "http://www.w3.org/Graphics/SVG/1.1/DTD/svg11.dtd">
<!-- Generated by graphviz version 2.36.0 (20140111.2315)
 -->
<!-- Title: Immunizer.h Pages: 1 -->
<svg width="1032pt" height="196pt"
 viewBox="0.00 0.00 1032.00 196.00" xmlns="http://www.w3.org/2000/svg" xmlns:xlink="http://www.w3.org/1999/xlink">
<g id="graph0" class="graph" transform="scale(1 1) rotate(0) translate(4 192)">
<title>Immunizer.h</title>
<polygon fill="white" stroke="none" points="-4,4 -4,-192 1028,-192 1028,4 -4,4"/>
<!-- Node1 -->
<g id="node1" class="node"><title>Node1</title>
<polygon fill="#bfbfbf" stroke="black" points="522.5,-168.5 522.5,-187.5 593.5,-187.5 593.5,-168.5 522.5,-168.5"/>
<text text-anchor="middle" x="558" y="-175.5" font-family="Helvetica,sans-Serif" font-size="10.00">Immunizer.h</text>
</g>
<!-- Node2 -->
<g id="node2" class="node"><title>Node2</title>
<g id="a_node2"><a xlink:href="../../d9/d21/a00240.html" target="_top" xlink:title="Header for the core ContactPool class. ">
<polygon fill="white" stroke="black" points="625,-112.5 625,-131.5 725,-131.5 725,-112.5 625,-112.5"/>
<text text-anchor="middle" x="675" y="-119.5" font-family="Helvetica,sans-Serif" font-size="10.00">pool/ContactPool.h</text>
</a>
</g>
</g>
<!-- Node1&#45;&gt;Node2 -->
<g id="edge1" class="edge"><title>Node1&#45;&gt;Node2</title>
<path fill="none" stroke="midnightblue" d="M576.539,-168.444C595.623,-159.636 625.575,-145.812 647.436,-135.722"/>
<polygon fill="midnightblue" stroke="midnightblue" points="648.935,-138.885 656.548,-131.516 646.001,-132.529 648.935,-138.885"/>
</g>
<!-- Node9 -->
<g id="node9" class="node"><title>Node9</title>
<polygon fill="white" stroke="#bfbfbf" points="611,-0.5 611,-19.5 655,-19.5 655,-0.5 611,-0.5"/>
<text text-anchor="middle" x="633" y="-7.5" font-family="Helvetica,sans-Serif" font-size="10.00">vector</text>
</g>
<!-- Node1&#45;&gt;Node9 -->
<g id="edge29" class="edge"><title>Node1&#45;&gt;Node9</title>
<path fill="none" stroke="midnightblue" d="M557.325,-168.392C556.097,-147.553 555.371,-93.3571 577,-56 584.347,-43.3098 596.757,-32.7845 608.03,-25.1121"/>
<polygon fill="midnightblue" stroke="midnightblue" points="610.155,-27.9085 616.709,-19.5838 606.394,-22.0045 610.155,-27.9085"/>
</g>
<!-- Node13 -->
<g id="node13" class="node"><title>Node13</title>
<g id="a_node13"><a xlink:href="../../d4/d27/a00392.html" target="_top" xlink:title="Interface and implementation for SegmentedVector class. ">
<polygon fill="white" stroke="black" points="220.5,-112.5 220.5,-131.5 339.5,-131.5 339.5,-112.5 220.5,-112.5"/>
<text text-anchor="middle" x="280" y="-119.5" font-family="Helvetica,sans-Serif" font-size="10.00">util/SegmentedVector.h</text>
</a>
</g>
</g>
<!-- Node1&#45;&gt;Node13 -->
<g id="edge14" class="edge"><title>Node1&#45;&gt;Node13</title>
<path fill="none" stroke="midnightblue" d="M522.225,-170.051C474.459,-160.773 389.433,-144.257 333.888,-133.467"/>
<polygon fill="midnightblue" stroke="midnightblue" points="334.359,-129.994 323.875,-131.522 333.024,-136.865 334.359,-129.994"/>
</g>
<!-- Node3 -->
<g id="node3" class="node"><title>Node3</title>
<g id="a_node3"><a xlink:href="../../da/d2e/a00238.html" target="_top" xlink:title="Header for the ContactLogMode class. ">
<polygon fill="white" stroke="black" points="890,-56.5 890,-75.5 1024,-75.5 1024,-56.5 890,-56.5"/>
<text text-anchor="middle" x="957" y="-63.5" font-family="Helvetica,sans-Serif" font-size="10.00">contact/ContactLogMode.h</text>
</a>
</g>
</g>
<!-- Node2&#45;&gt;Node3 -->
<g id="edge2" class="edge"><title>Node2&#45;&gt;Node3</title>
<path fill="none" stroke="midnightblue" d="M719.684,-112.444C769.29,-102.944 849.365,-87.611 902.585,-77.4198"/>
<polygon fill="midnightblue" stroke="midnightblue" points="903.362,-80.8348 912.525,-75.5164 902.045,-73.9597 903.362,-80.8348"/>
</g>
<!-- Node5 -->
<g id="node5" class="node"><title>Node5</title>
<g id="a_node5"><a xlink:href="../../d6/d22/a00245.html" target="_top" xlink:title="Definition of ContactPoolType. ">
<polygon fill="white" stroke="black" points="712,-56.5 712,-75.5 834,-75.5 834,-56.5 712,-56.5"/>
<text text-anchor="middle" x="773" y="-63.5" font-family="Helvetica,sans-Serif" font-size="10.00">pool/ContactPoolType.h</text>
</a>
</g>
</g>
<!-- Node2&#45;&gt;Node5 -->
<g id="edge4" class="edge"><title>Node2&#45;&gt;Node5</title>
<path fill="none" stroke="midnightblue" d="M690.745,-112.324C706.319,-103.743 730.377,-90.486 748.459,-80.5224"/>
<polygon fill="midnightblue" stroke="midnightblue" points="750.224,-83.546 757.294,-75.6545 746.846,-77.4152 750.224,-83.546"/>
</g>
<!-- Node2&#45;&gt;Node9 -->
<g id="edge13" class="edge"><title>Node2&#45;&gt;Node9</title>
<path fill="none" stroke="midnightblue" d="M725.147,-118.379C786.267,-113.308 877.407,-98.5608 843,-56 821.015,-28.805 718.502,-17.3031 665.274,-13.0974"/>
<polygon fill="midnightblue" stroke="midnightblue" points="665.251,-9.58592 655.017,-12.3293 664.728,-16.5664 665.251,-9.58592"/>
</g>
<!-- Node10 -->
<g id="node10" class="node"><title>Node10</title>
<polygon fill="white" stroke="#bfbfbf" points="492,-56.5 492,-75.5 530,-75.5 530,-56.5 492,-56.5"/>
<text text-anchor="middle" x="511" y="-63.5" font-family="Helvetica,sans-Serif" font-size="10.00">array</text>
</g>
<!-- Node2&#45;&gt;Node10 -->
<g id="edge10" class="edge"><title>Node2&#45;&gt;Node10</title>
<path fill="none" stroke="midnightblue" d="M649.014,-112.444C619.314,-102.664 570.836,-86.7021 539.95,-76.5324"/>
<polygon fill="midnightblue" stroke="midnightblue" points="540.796,-73.1261 530.203,-73.323 538.607,-79.775 540.796,-73.1261"/>
</g>
<!-- Node11 -->
<g id="node11" class="node"><title>Node11</title>
<polygon fill="white" stroke="#bfbfbf" points="586,-56.5 586,-75.5 638,-75.5 638,-56.5 586,-56.5"/>
<text text-anchor="middle" x="612" y="-63.5" font-family="Helvetica,sans-Serif" font-size="10.00">memory</text>
</g>
<!-- Node2&#45;&gt;Node11 -->
<g id="edge11" class="edge"><title>Node2&#45;&gt;Node11</title>
<path fill="none" stroke="midnightblue" d="M664.878,-112.324C655.474,-104.263 641.256,-92.0765 629.931,-82.3695"/>
<polygon fill="midnightblue" stroke="midnightblue" points="632.177,-79.6844 622.306,-75.8339 627.621,-84.9993 632.177,-79.6844"/>
</g>
<!-- Node12 -->
<g id="node12" class="node"><title>Node12</title>
<polygon fill="white" stroke="#bfbfbf" points="656,-56.5 656,-75.5 694,-75.5 694,-56.5 656,-56.5"/>
<text text-anchor="middle" x="675" y="-63.5" font-family="Helvetica,sans-Serif" font-size="10.00">tuple</text>
</g>
<!-- Node2&#45;&gt;Node12 -->
<g id="edge12" class="edge"><title>Node2&#45;&gt;Node12</title>
<path fill="none" stroke="midnightblue" d="M675,-112.083C675,-105.006 675,-94.8611 675,-85.9865"/>
<polygon fill="midnightblue" stroke="midnightblue" points="678.5,-85.751 675,-75.7511 671.5,-85.7511 678.5,-85.751"/>
</g>
<!-- Node4 -->
<g id="node4" class="node"><title>Node4</title>
<polygon fill="white" stroke="#bfbfbf" points="875.5,-0.5 875.5,-19.5 916.5,-19.5 916.5,-0.5 875.5,-0.5"/>
<text text-anchor="middle" x="896" y="-7.5" font-family="Helvetica,sans-Serif" font-size="10.00">string</text>
</g>
<!-- Node3&#45;&gt;Node4 -->
<g id="edge3" class="edge"><title>Node3&#45;&gt;Node4</title>
<path fill="none" stroke="midnightblue" d="M947.199,-56.324C938.182,-48.3414 924.594,-36.3128 913.682,-26.6529"/>
<polygon fill="midnightblue" stroke="midnightblue" points="915.787,-23.8416 905.979,-19.8339 911.147,-29.083 915.787,-23.8416"/>
</g>
<!-- Node5&#45;&gt;Node4 -->
<g id="edge6" class="edge"><title>Node5&#45;&gt;Node4</title>
<path fill="none" stroke="midnightblue" d="M792.49,-56.4435C812.642,-47.5961 844.323,-33.6875 867.331,-23.5865"/>
<polygon fill="midnightblue" stroke="midnightblue" points="868.852,-26.7411 876.601,-19.5164 866.038,-20.3316 868.852,-26.7411"/>
</g>
<!-- Node6 -->
<g id="node6" class="node"><title>Node6</title>
<polygon fill="white" stroke="#bfbfbf" points="748.5,-0.5 748.5,-19.5 797.5,-19.5 797.5,-0.5 748.5,-0.5"/>
<text text-anchor="middle" x="773" y="-7.5" font-family="Helvetica,sans-Serif" font-size="10.00">cstddef</text>
</g>
<!-- Node5&#45;&gt;Node6 -->
<g id="edge5" class="edge"><title>Node5&#45;&gt;Node6</title>
<path fill="none" stroke="midnightblue" d="M773,-56.083C773,-49.0059 773,-38.8611 773,-29.9865"/>
<polygon fill="midnightblue" stroke="midnightblue" points="776.5,-29.751 773,-19.7511 769.5,-29.7511 776.5,-29.751"/>
</g>
<!-- Node7 -->
<g id="node7" class="node"><title>Node7</title>
<polygon fill="white" stroke="#bfbfbf" points="367,-0.5 367,-19.5 421,-19.5 421,-0.5 367,-0.5"/>
<text text-anchor="middle" x="394" y="-7.5" font-family="Helvetica,sans-Serif" font-size="10.00">iostream</text>
</g>
<!-- Node5&#45;&gt;Node7 -->
<g id="edge7" class="edge"><title>Node5&#45;&gt;Node7</title>
<path fill="none" stroke="midnightblue" d="M712.946,-56.4435C633.859,-45.1751 497.15,-25.6968 431.419,-16.3315"/>
<polygon fill="midnightblue" stroke="midnightblue" points="431.517,-12.8102 421.124,-14.8646 430.53,-19.7402 431.517,-12.8102"/>
</g>
<!-- Node8 -->
<g id="node8" class="node"><title>Node8</title>
<polygon fill="white" stroke="#bfbfbf" points="209.5,-0.5 209.5,-19.5 256.5,-19.5 256.5,-0.5 209.5,-0.5"/>
<text text-anchor="middle" x="233" y="-7.5" font-family="Helvetica,sans-Serif" font-size="10.00">iterator</text>
</g>
<!-- Node5&#45;&gt;Node8 -->
<g id="edge8" class="edge"><title>Node5&#45;&gt;Node8</title>
<path fill="none" stroke="midnightblue" d="M711.931,-57.0298C708.912,-56.673 705.922,-56.3277 703,-56 539.619,-37.6804 343.751,-20.4446 266.587,-13.8392"/>
<polygon fill="midnightblue" stroke="midnightblue" points="266.763,-10.3417 256.502,-12.9787 266.168,-17.3163 266.763,-10.3417"/>
</g>
<!-- Node5&#45;&gt;Node9 -->
<g id="edge9" class="edge"><title>Node5&#45;&gt;Node9</title>
<path fill="none" stroke="midnightblue" d="M750.817,-56.4435C727.572,-47.4776 690.851,-33.314 664.585,-23.1827"/>
<polygon fill="midnightblue" stroke="midnightblue" points="665.669,-19.8497 655.08,-19.5164 663.15,-26.3807 665.669,-19.8497"/>
</g>
<!-- Node13&#45;&gt;Node7 -->
<g id="edge22" class="edge"><title>Node13&#45;&gt;Node7</title>
<path fill="none" stroke="midnightblue" d="M270.797,-112.392C257.967,-99.3362 237.697,-74.1329 251,-56 274.964,-23.3364 322.653,-13.7571 356.357,-11.266"/>
<polygon fill="midnightblue" stroke="midnightblue" points="356.971,-14.7373 366.76,-10.686 356.581,-7.74816 356.971,-14.7373"/>
</g>
<!-- Node13&#45;&gt;Node8 -->
<g id="edge23" class="edge"><title>Node13&#45;&gt;Node8</title>
<path fill="none" stroke="midnightblue" d="M259.777,-112.495C245.229,-105.168 226.699,-93.0628 218,-76 210.455,-61.2005 216.074,-42.5793 222.474,-29.0653"/>
<polygon fill="midnightblue" stroke="midnightblue" points="225.751,-30.3531 227.315,-19.8743 219.558,-27.0907 225.751,-30.3531"/>
</g>
<!-- Node13&#45;&gt;Node9 -->
<g id="edge28" class="edge"><title>Node13&#45;&gt;Node9</title>
<path fill="none" stroke="midnightblue" d="M320.807,-112.488C354.697,-104.803 403.839,-92.2194 445,-76 462.756,-69.0031 465.333,-63.2201 483,-56 522.683,-39.7822 570.387,-26.471 601.177,-18.6383"/>
<polygon fill="midnightblue" stroke="midnightblue" points="602.083,-22.0195 610.934,-16.1958 600.384,-15.229 602.083,-22.0195"/>
</g>
<!-- Node13&#45;&gt;Node10 -->
<g id="edge20" class="edge"><title>Node13&#45;&gt;Node10</title>
<path fill="none" stroke="midnightblue" d="M319.94,-112.448C360.014,-103.745 423.451,-89.6306 478,-76 479.264,-75.6842 480.553,-75.3564 481.855,-75.021"/>
<polygon fill="midnightblue" stroke="midnightblue" points="483.072,-78.3194 491.841,-72.374 481.278,-71.5531 483.072,-78.3194"/>
</g>
<!-- Node14 -->
<g id="node14" class="node"><title>Node14</title>
<g id="a_node14"><a xlink:href="../../de/df7/a00418.html" target="_top" xlink:title="Interface/Implementation for SVIterator. ">
<polygon fill="white" stroke="black" points="58.5,-56.5 58.5,-75.5 127.5,-75.5 127.5,-56.5 58.5,-56.5"/>
<text text-anchor="middle" x="93" y="-63.5" font-family="Helvetica,sans-Serif" font-size="10.00">SVIterator.h</text>
</a>
</g>
</g>
<!-- Node13&#45;&gt;Node14 -->
<g id="edge15" class="edge"><title>Node13&#45;&gt;Node14</title>
<path fill="none" stroke="midnightblue" d="M250.369,-112.444C218.5,-103.241 167.667,-88.5617 132.436,-78.3879"/>
<polygon fill="midnightblue" stroke="midnightblue" points="133.071,-74.9282 122.492,-75.5164 131.128,-81.6534 133.071,-74.9282"/>
</g>
<!-- Node15 -->
<g id="node15" class="node"><title>Node15</title>
<polygon fill="white" stroke="#bfbfbf" points="-0.5,-0.5 -0.5,-19.5 48.5,-19.5 48.5,-0.5 -0.5,-0.5"/>
<text text-anchor="middle" x="24" y="-7.5" font-family="Helvetica,sans-Serif" font-size="10.00">cassert</text>
</g>
<!-- Node13&#45;&gt;Node15 -->
<g id="edge21" class="edge"><title>Node13&#45;&gt;Node15</title>
<path fill="none" stroke="midnightblue" d="M220.244,-115.915C160.654,-109.717 74.4331,-97.3356 49,-76 35.2706,-64.4826 29.0589,-44.5127 26.262,-29.7389"/>
<polygon fill="midnightblue" stroke="midnightblue" points="29.695,-29.0347 24.7208,-19.6801 22.7757,-30.0948 29.695,-29.0347"/>
</g>
<!-- Node17 -->
<g id="node17" class="node"><title>Node17</title>
<polygon fill="white" stroke="#bfbfbf" points="129,-0.5 129,-19.5 191,-19.5 191,-0.5 129,-0.5"/>
<text text-anchor="middle" x="160" y="-7.5" font-family="Helvetica,sans-Serif" font-size="10.00">type_traits</text>
</g>
<!-- Node13&#45;&gt;Node17 -->
<g id="edge26" class="edge"><title>Node13&#45;&gt;Node17</title>
<path fill="none" stroke="midnightblue" d="M263.601,-112.347C248.91,-104.141 227.239,-90.8785 211,-76 195.361,-61.6712 180.772,-42.2079 171.239,-28.3229"/>
<polygon fill="midnightblue" stroke="midnightblue" points="173.963,-26.1007 165.496,-19.733 168.144,-29.9914 173.963,-26.1007"/>
</g>
<!-- Node18 -->
<g id="node18" class="node"><title>Node18</title>
<polygon fill="white" stroke="#bfbfbf" points="260,-56.5 260,-75.5 300,-75.5 300,-56.5 260,-56.5"/>
<text text-anchor="middle" x="280" y="-63.5" font-family="Helvetica,sans-Serif" font-size="10.00">limits</text>
</g>
<!-- Node13&#45;&gt;Node18 -->
<g id="edge24" class="edge"><title>Node13&#45;&gt;Node18</title>
<path fill="none" stroke="midnightblue" d="M280,-112.083C280,-105.006 280,-94.8611 280,-85.9865"/>
<polygon fill="midnightblue" stroke="midnightblue" points="283.5,-85.751 280,-75.7511 276.5,-85.7511 283.5,-85.751"/>
</g>
<!-- Node19 -->
<g id="node19" class="node"><title>Node19</title>
<polygon fill="white" stroke="#bfbfbf" points="318.5,-56.5 318.5,-75.5 377.5,-75.5 377.5,-56.5 318.5,-56.5"/>
<text text-anchor="middle" x="348" y="-63.5" font-family="Helvetica,sans-Serif" font-size="10.00">stdexcept</text>
</g>
<!-- Node13&#45;&gt;Node19 -->
<g id="edge25" class="edge"><title>Node13&#45;&gt;Node19</title>
<path fill="none" stroke="midnightblue" d="M290.925,-112.324C301.175,-104.185 316.721,-91.8395 329.001,-82.0874"/>
<polygon fill="midnightblue" stroke="midnightblue" points="331.221,-84.7937 336.876,-75.8339 326.868,-79.3119 331.221,-84.7937"/>
</g>
<!-- Node20 -->
<g id="node20" class="node"><title>Node20</title>
<polygon fill="white" stroke="#bfbfbf" points="396,-56.5 396,-75.5 436,-75.5 436,-56.5 396,-56.5"/>
<text text-anchor="middle" x="416" y="-63.5" font-family="Helvetica,sans-Serif" font-size="10.00">utility</text>
</g>
<!-- Node13&#45;&gt;Node20 -->
<g id="edge27" class="edge"><title>Node13&#45;&gt;Node20</title>
<path fill="none" stroke="midnightblue" d="M301.55,-112.444C324.428,-103.36 360.743,-88.9402 386.32,-78.7847"/>
<polygon fill="midnightblue" stroke="midnightblue" points="387.879,-81.9317 395.881,-74.9883 385.295,-75.4257 387.879,-81.9317"/>
</g>
<!-- Node14&#45;&gt;Node8 -->
<g id="edge18" class="edge"><title>Node14&#45;&gt;Node8</title>
<path fill="none" stroke="midnightblue" d="M115.183,-56.4435C138.428,-47.4776 175.149,-33.314 201.415,-23.1827"/>
<polygon fill="midnightblue" stroke="midnightblue" points="202.85,-26.3807 210.92,-19.5164 200.331,-19.8497 202.85,-26.3807"/>
</g>
<!-- Node14&#45;&gt;Node15 -->
<g id="edge16" class="edge"><title>Node14&#45;&gt;Node15</title>
<path fill="none" stroke="midnightblue" d="M81.914,-56.324C71.514,-48.1849 55.7394,-35.8395 43.2784,-26.0874"/>
<polygon fill="midnightblue" stroke="midnightblue" points="45.3199,-23.2407 35.2878,-19.8339 41.0057,-28.7533 45.3199,-23.2407"/>
</g>
<!-- Node16 -->
<g id="node16" class="node"><title>Node16</title>
<polygon fill="white" stroke="#bfbfbf" points="67,-0.5 67,-19.5 111,-19.5 111,-0.5 67,-0.5"/>
<text text-anchor="middle" x="89" y="-7.5" font-family="Helvetica,sans-Serif" font-size="10.00">cmath</text>
</g>
<!-- Node14&#45;&gt;Node16 -->
<g id="edge17" class="edge"><title>Node14&#45;&gt;Node16</title>
<path fill="none" stroke="midnightblue" d="M92.3395,-56.083C91.8152,-49.0059 91.0638,-38.8611 90.4064,-29.9865"/>
<polygon fill="midnightblue" stroke="midnightblue" points="93.8775,-29.4652 89.6482,-19.7511 86.8966,-29.9823 93.8775,-29.4652"/>
</g>
<!-- Node14&#45;&gt;Node17 -->
<g id="edge19" class="edge"><title>Node14&#45;&gt;Node17</title>
<path fill="none" stroke="midnightblue" d="M103.765,-56.324C113.766,-48.2631 128.887,-36.0765 140.93,-26.3695"/>
<polygon fill="midnightblue" stroke="midnightblue" points="143.45,-28.8343 149.039,-19.8339 139.057,-23.3841 143.45,-28.8343"/>
</g>
</g>
</svg>
