<?xml version="1.0" encoding="UTF-8" standalone="no"?>
<!DOCTYPE svg PUBLIC "-//W3C//DTD SVG 1.1//EN"
 "http://www.w3.org/Graphics/SVG/1.1/DTD/svg11.dtd">
<!-- Generated by graphviz version 2.36.0 (20140111.2315)
 -->
<!-- Title: Any.h Pages: 1 -->
<svg width="249pt" height="84pt"
 viewBox="0.00 0.00 249.00 84.00" xmlns="http://www.w3.org/2000/svg" xmlns:xlink="http://www.w3.org/1999/xlink">
<g id="graph0" class="graph" transform="scale(1 1) rotate(0) translate(4 80)">
<title>Any.h</title>
<polygon fill="white" stroke="none" points="-4,4 -4,-80 245,-80 245,4 -4,4"/>
<!-- Node1 -->
<g id="node1" class="node"><title>Node1</title>
<polygon fill="#bfbfbf" stroke="black" points="104,-56.5 104,-75.5 146,-75.5 146,-56.5 104,-56.5"/>
<text text-anchor="middle" x="125" y="-63.5" font-family="Helvetica,sans-Serif" font-size="10.00">Any.h</text>
</g>
<!-- Node2 -->
<g id="node2" class="node"><title>Node2</title>
<polygon fill="white" stroke="#bfbfbf" points="-0.5,-0.5 -0.5,-19.5 58.5,-19.5 58.5,-0.5 -0.5,-0.5"/>
<text text-anchor="middle" x="29" y="-7.5" font-family="Helvetica,sans-Serif" font-size="10.00">functional</text>
</g>
<!-- Node1&#45;&gt;Node2 -->
<g id="edge1" class="edge"><title>Node1&#45;&gt;Node2</title>
<path fill="none" stroke="midnightblue" d="M109.576,-56.324C94.4605,-47.8215 71.1846,-34.7288 53.5288,-24.7975"/>
<polygon fill="midnightblue" stroke="midnightblue" points="54.8175,-21.5066 44.3858,-19.6545 51.3856,-27.6077 54.8175,-21.5066"/>
</g>
<!-- Node3 -->
<g id="node3" class="node"><title>Node3</title>
<polygon fill="white" stroke="#bfbfbf" points="76.5,-0.5 76.5,-19.5 111.5,-19.5 111.5,-0.5 76.5,-0.5"/>
<text text-anchor="middle" x="94" y="-7.5" font-family="Helvetica,sans-Serif" font-size="10.00">map</text>
</g>
<!-- Node1&#45;&gt;Node3 -->
<g id="edge2" class="edge"><title>Node1&#45;&gt;Node3</title>
<path fill="none" stroke="midnightblue" d="M119.881,-56.083C115.592,-48.6127 109.342,-37.7244 104.058,-28.5199"/>
<polygon fill="midnightblue" stroke="midnightblue" points="107.038,-26.6811 99.0238,-19.7511 100.967,-30.1662 107.038,-26.6811"/>
</g>
<!-- Node4 -->
<g id="node4" class="node"><title>Node4</title>
<polygon fill="white" stroke="#bfbfbf" points="130,-0.5 130,-19.5 182,-19.5 182,-0.5 130,-0.5"/>
<text text-anchor="middle" x="156" y="-7.5" font-family="Helvetica,sans-Serif" font-size="10.00">memory</text>
</g>
<!-- Node1&#45;&gt;Node4 -->
<g id="edge3" class="edge"><title>Node1&#45;&gt;Node4</title>
<path fill="none" stroke="midnightblue" d="M130.119,-56.083C134.408,-48.6127 140.658,-37.7244 145.942,-28.5199"/>
<polygon fill="midnightblue" stroke="midnightblue" points="149.033,-30.1662 150.976,-19.7511 142.962,-26.6811 149.033,-30.1662"/>
</g>
<!-- Node5 -->
<g id="node5" class="node"><title>Node5</title>
<polygon fill="white" stroke="#bfbfbf" points="200.5,-0.5 200.5,-19.5 241.5,-19.5 241.5,-0.5 200.5,-0.5"/>
<text text-anchor="middle" x="221" y="-7.5" font-family="Helvetica,sans-Serif" font-size="10.00">string</text>
</g>
<!-- Node1&#45;&gt;Node5 -->
<g id="edge4" class="edge"><title>Node1&#45;&gt;Node5</title>
<path fill="none" stroke="midnightblue" d="M140.424,-56.324C155.54,-47.8215 178.815,-34.7288 196.471,-24.7975"/>
<polygon fill="midnightblue" stroke="midnightblue" points="198.614,-27.6077 205.614,-19.6545 195.183,-21.5066 198.614,-27.6077"/>
</g>
</g>
</svg>
