<?xml version="1.0" encoding="UTF-8" standalone="no"?>
<!DOCTYPE svg PUBLIC "-//W3C//DTD SVG 1.1//EN"
 "http://www.w3.org/Graphics/SVG/1.1/DTD/svg11.dtd">
<!-- Generated by graphviz version 2.36.0 (20140111.2315)
 -->
<!-- Title: gengeopop::SubMunicipalitiesReader Pages: 1 -->
<svg width="168pt" height="216pt"
 viewBox="0.00 0.00 168.00 216.00" xmlns="http://www.w3.org/2000/svg" xmlns:xlink="http://www.w3.org/1999/xlink">
<g id="graph0" class="graph" transform="scale(1 1) rotate(0) translate(4 212)">
<title>gengeopop::SubMunicipalitiesReader</title>
<polygon fill="white" stroke="none" points="-4,4 -4,-212 164,-212 164,4 -4,4"/>
<!-- Node1 -->
<g id="node1" class="node"><title>Node1</title>
<polygon fill="#bfbfbf" stroke="black" points="7,-117 7,-207 153,-207 153,-117 7,-117"/>
<text text-anchor="start" x="15" y="-195" font-family="Helvetica,sans-Serif" font-size="10.00">gengeopop::SubMunicipalities</text>
<text text-anchor="middle" x="80" y="-184" font-family="Helvetica,sans-Serif" font-size="10.00">Reader</text>
<polyline fill="none" stroke="black" points="7,-177 153,-177 "/>
<text text-anchor="start" x="15" y="-165" font-family="Helvetica,sans-Serif" font-size="10.00"># m_inputStream</text>
<polyline fill="none" stroke="black" points="7,-158 153,-158 "/>
<text text-anchor="start" x="15" y="-146" font-family="Helvetica,sans-Serif" font-size="10.00">+ SubMunicipalitiesReader()</text>
<text text-anchor="start" x="15" y="-135" font-family="Helvetica,sans-Serif" font-size="10.00">+ FillGeoGrid()</text>
<text text-anchor="start" x="15" y="-124" font-family="Helvetica,sans-Serif" font-size="10.00">+ ~SubMunicipalitiesReader()</text>
</g>
<!-- Node2 -->
<g id="node2" class="node"><title>Node2</title>
<g id="a_node2"><a xlink:href="../../de/de1/a00065.html" target="_top" xlink:title="Create a Reader which fills a GeoGrid with the SubMunicipalities found in a given CSV file...">
<polygon fill="white" stroke="black" points="-0.5,-0.5 -0.5,-79.5 160.5,-79.5 160.5,-0.5 -0.5,-0.5"/>
<text text-anchor="start" x="7.5" y="-67.5" font-family="Helvetica,sans-Serif" font-size="10.00">gengeopop::SubMunicipalities</text>
<text text-anchor="middle" x="80" y="-56.5" font-family="Helvetica,sans-Serif" font-size="10.00">CSVReader</text>
<polyline fill="none" stroke="black" points="-0.5,-49.5 160.5,-49.5 "/>
<text text-anchor="start" x="7.5" y="-37.5" font-family="Helvetica,sans-Serif" font-size="10.00">&#45; m_reader</text>
<polyline fill="none" stroke="black" points="-0.5,-30.5 160.5,-30.5 "/>
<text text-anchor="start" x="7.5" y="-18.5" font-family="Helvetica,sans-Serif" font-size="10.00">+ SubMunicipalitiesCSVReader()</text>
<text text-anchor="start" x="7.5" y="-7.5" font-family="Helvetica,sans-Serif" font-size="10.00">+ FillGeoGrid()</text>
</a>
</g>
</g>
<!-- Node1&#45;&gt;Node2 -->
<g id="edge1" class="edge"><title>Node1&#45;&gt;Node2</title>
<path fill="none" stroke="midnightblue" d="M80,-106.844C80,-97.7422 80,-88.4594 80,-79.844"/>
<polygon fill="none" stroke="midnightblue" points="76.5001,-106.998 80,-116.998 83.5001,-106.998 76.5001,-106.998"/>
</g>
</g>
</svg>
