<?xml version="1.0" encoding="UTF-8" standalone="no"?>
<!DOCTYPE svg PUBLIC "-//W3C//DTD SVG 1.1//EN"
 "http://www.w3.org/Graphics/SVG/1.1/DTD/svg11.dtd">
<!-- Generated by graphviz version 2.36.0 (20140111.2315)
 -->
<!-- Title: gengeopop::KdTree::Size Pages: 1 -->
<svg width="324pt" height="48pt"
 viewBox="0.00 0.00 324.00 48.00" xmlns="http://www.w3.org/2000/svg" xmlns:xlink="http://www.w3.org/1999/xlink">
<g id="graph0" class="graph" transform="scale(1 1) rotate(0) translate(4 44)">
<title>gengeopop::KdTree::Size</title>
<polygon fill="white" stroke="none" points="-4,4 -4,-44 320,-44 320,4 -4,4"/>
<!-- Node1 -->
<g id="node1" class="node"><title>Node1</title>
<polygon fill="#bfbfbf" stroke="black" points="0.5,-10.5 0.5,-29.5 127.5,-29.5 127.5,-10.5 0.5,-10.5"/>
<text text-anchor="middle" x="64" y="-17.5" font-family="Helvetica,sans-Serif" font-size="10.00">gengeopop::KdTree::Size</text>
</g>
<!-- Node2 -->
<g id="node2" class="node"><title>Node2</title>
<g id="a_node2"><a xlink:href="../../d1/dea/a00054.html#afad11c4405af9e2000dd75f751f4996d" target="_top" xlink:title="Is the tree empty. ">
<polygon fill="white" stroke="black" points="164,0.5 164,-40.5 316,-40.5 316,0.5 164,0.5"/>
<text text-anchor="start" x="172" y="-28.5" font-family="Helvetica,sans-Serif" font-size="10.00">gengeopop::KdTree&lt;</text>
<text text-anchor="start" x="172" y="-17.5" font-family="Helvetica,sans-Serif" font-size="10.00"> geogrid_detail::KdTree2DPoint</text>
<text text-anchor="middle" x="240" y="-6.5" font-family="Helvetica,sans-Serif" font-size="10.00"> &gt;::Empty</text>
</a>
</g>
</g>
<!-- Node1&#45;&gt;Node2 -->
<g id="edge1" class="edge"><title>Node1&#45;&gt;Node2</title>
<path fill="none" stroke="midnightblue" d="M138.084,-20C146.592,-20 155.283,-20 163.819,-20"/>
<polygon fill="midnightblue" stroke="midnightblue" points="137.818,-16.5001 127.818,-20 137.818,-23.5001 137.818,-16.5001"/>
</g>
</g>
</svg>
