<?xml version="1.0" encoding="UTF-8" standalone="no"?>
<!DOCTYPE svg PUBLIC "-//W3C//DTD SVG 1.1//EN"
 "http://www.w3.org/Graphics/SVG/1.1/DTD/svg11.dtd">
<!-- Generated by graphviz version 2.36.0 (20140111.2315)
 -->
<!-- Title: gengeopop::KdTree::Build Pages: 1 -->
<svg width="258pt" height="38pt"
 viewBox="0.00 0.00 258.00 38.00" xmlns="http://www.w3.org/2000/svg" xmlns:xlink="http://www.w3.org/1999/xlink">
<g id="graph0" class="graph" transform="scale(1 1) rotate(0) translate(4 34)">
<title>gengeopop::KdTree::Build</title>
<polygon fill="white" stroke="none" points="-4,4 -4,-34 254,-34 254,4 -4,4"/>
<!-- Node1 -->
<g id="node1" class="node"><title>Node1</title>
<polygon fill="#bfbfbf" stroke="black" points="0.5,-0 0.5,-30 107.5,-30 107.5,-0 0.5,-0"/>
<text text-anchor="start" x="8.5" y="-18" font-family="Helvetica,sans-Serif" font-size="10.00">gengeopop::KdTree::</text>
<text text-anchor="middle" x="54" y="-7" font-family="Helvetica,sans-Serif" font-size="10.00">Build</text>
</g>
<!-- Node2 -->
<g id="node2" class="node"><title>Node2</title>
<g id="a_node2"><a xlink:href="../../df/d61/a00031.html#a5f2b335f8413b7fa19870a276d6f1b6e" target="_top" xlink:title="Disables the addLocation method and builds the kdtree. ">
<polygon fill="white" stroke="black" points="144,-0 144,-30 250,-30 250,-0 144,-0"/>
<text text-anchor="start" x="152" y="-18" font-family="Helvetica,sans-Serif" font-size="10.00">gengeopop::GeoGrid</text>
<text text-anchor="middle" x="197" y="-7" font-family="Helvetica,sans-Serif" font-size="10.00">::Finalize</text>
</a>
</g>
</g>
<!-- Node1&#45;&gt;Node2 -->
<g id="edge1" class="edge"><title>Node1&#45;&gt;Node2</title>
<path fill="none" stroke="midnightblue" d="M117.686,-15C126.452,-15 135.381,-15 143.922,-15"/>
<polygon fill="midnightblue" stroke="midnightblue" points="117.503,-11.5001 107.503,-15 117.503,-18.5001 117.503,-11.5001"/>
</g>
</g>
</svg>
