<?xml version="1.0" encoding="UTF-8" standalone="no"?>
<!DOCTYPE svg PUBLIC "-//W3C//DTD SVG 1.1//EN"
 "http://www.w3.org/Graphics/SVG/1.1/DTD/svg11.dtd">
<!-- Generated by graphviz version 2.36.0 (20140111.2315)
 -->
<!-- Title: Subject.h Pages: 1 -->
<svg width="1881pt" height="252pt"
 viewBox="0.00 0.00 1881.12 252.00" xmlns="http://www.w3.org/2000/svg" xmlns:xlink="http://www.w3.org/1999/xlink">
<g id="graph0" class="graph" transform="scale(1 1) rotate(0) translate(4 248)">
<title>Subject.h</title>
<polygon fill="white" stroke="none" points="-4,4 -4,-248 1877.12,-248 1877.12,4 -4,4"/>
<!-- Node1 -->
<g id="node1" class="node"><title>Node1</title>
<polygon fill="#bfbfbf" stroke="black" points="1005,-224.5 1005,-243.5 1063,-243.5 1063,-224.5 1005,-224.5"/>
<text text-anchor="middle" x="1034" y="-231.5" font-family="Helvetica,sans-Serif" font-size="10.00">Subject.h</text>
</g>
<!-- Node2 -->
<g id="node2" class="node"><title>Node2</title>
<g id="a_node2"><a xlink:href="../../de/d3d/a00409.html" target="_top" xlink:title="Definition of Subject/Observer for SimEvents. ">
<polygon fill="white" stroke="black" points="956,-168.5 956,-187.5 1024,-187.5 1024,-168.5 956,-168.5"/>
<text text-anchor="middle" x="990" y="-175.5" font-family="Helvetica,sans-Serif" font-size="10.00">Subject.cpp</text>
</a>
</g>
</g>
<!-- Node1&#45;&gt;Node2 -->
<g id="edge1" class="edge"><title>Node1&#45;&gt;Node2</title>
<path fill="none" stroke="midnightblue" d="M1020.27,-216.144C1012.6,-206.736 1003.37,-195.405 997.131,-187.751"/>
<polygon fill="midnightblue" stroke="midnightblue" points="1017.7,-218.541 1026.73,-224.083 1023.13,-214.12 1017.7,-218.541"/>
</g>
<!-- Node3 -->
<g id="node3" class="node"><title>Node3</title>
<g id="a_node3"><a xlink:href="../../d0/da0/a00403.html" target="_top" xlink:title="Header for the SimRunner class. ">
<polygon fill="white" stroke="black" points="1042,-168.5 1042,-187.5 1116,-187.5 1116,-168.5 1042,-168.5"/>
<text text-anchor="middle" x="1079" y="-175.5" font-family="Helvetica,sans-Serif" font-size="10.00">SimRunner.h</text>
</a>
</g>
</g>
<!-- Node1&#45;&gt;Node3 -->
<g id="edge2" class="edge"><title>Node1&#45;&gt;Node3</title>
<path fill="none" stroke="midnightblue" d="M1048.05,-216.144C1055.89,-206.736 1065.33,-195.405 1071.71,-187.751"/>
<polygon fill="midnightblue" stroke="midnightblue" points="1045.14,-214.16 1041.43,-224.083 1050.52,-218.641 1045.14,-214.16"/>
</g>
<!-- Node4 -->
<g id="node4" class="node"><title>Node4</title>
<g id="a_node4"><a xlink:href="../../d1/d72/a00204.html" target="_top" xlink:title="Calibrator.cpp">
<polygon fill="white" stroke="black" points="900.5,-56.5 900.5,-75.5 977.5,-75.5 977.5,-56.5 900.5,-56.5"/>
<text text-anchor="middle" x="939" y="-63.5" font-family="Helvetica,sans-Serif" font-size="10.00">Calibrator.cpp</text>
</a>
</g>
</g>
<!-- Node3&#45;&gt;Node4 -->
<g id="edge3" class="edge"><title>Node3&#45;&gt;Node4</title>
<path fill="none" stroke="midnightblue" d="M1036.51,-165.6C1006.24,-156.689 969.044,-143.865 958,-132 943.261,-116.165 939.894,-89.5138 939.166,-75.775"/>
<polygon fill="midnightblue" stroke="midnightblue" points="1035.88,-169.061 1046.46,-168.464 1037.82,-162.334 1035.88,-169.061"/>
</g>
<!-- Node5 -->
<g id="node5" class="node"><title>Node5</title>
<g id="a_node5"><a xlink:href="../../db/da2/a00300.html" target="_top" xlink:title="GuiControllerBackend.h">
<polygon fill="white" stroke="black" points="289,-112.5 289,-131.5 409,-131.5 409,-112.5 289,-112.5"/>
<text text-anchor="middle" x="349" y="-119.5" font-family="Helvetica,sans-Serif" font-size="10.00">GuiControllerBackend.h</text>
</a>
</g>
</g>
<!-- Node3&#45;&gt;Node5 -->
<g id="edge4" class="edge"><title>Node3&#45;&gt;Node5</title>
<path fill="none" stroke="midnightblue" d="M1031.81,-168.028C761.832,-134.393 690.182,-156.108 423,-132 418.489,-131.593 413.828,-131.129 409.142,-130.631"/>
<polygon fill="midnightblue" stroke="midnightblue" points="1031.55,-171.523 1041.91,-169.3 1032.43,-164.577 1031.55,-171.523"/>
</g>
<!-- Node11 -->
<g id="node11" class="node"><title>Node11</title>
<g id="a_node11"><a xlink:href="../../de/de8/a00405.html" target="_top" xlink:title="SimWorker.h">
<polygon fill="white" stroke="black" points="131,-112.5 131,-131.5 205,-131.5 205,-112.5 131,-112.5"/>
<text text-anchor="middle" x="168" y="-119.5" font-family="Helvetica,sans-Serif" font-size="10.00">SimWorker.h</text>
</a>
</g>
</g>
<!-- Node3&#45;&gt;Node11 -->
<g id="edge10" class="edge"><title>Node3&#45;&gt;Node11</title>
<path fill="none" stroke="midnightblue" d="M1031.98,-168.066C698.677,-128.224 611.098,-153.212 280,-132 254.985,-130.397 226.863,-128.136 205.057,-126.281"/>
<polygon fill="midnightblue" stroke="midnightblue" points="1031.57,-171.542 1041.92,-169.264 1032.41,-164.592 1031.57,-171.542"/>
</g>
<!-- Node13 -->
<g id="node13" class="node"><title>Node13</title>
<g id="a_node13"><a xlink:href="../../d0/d65/a00360.html" target="_top" xlink:title="MapViewer.h">
<polygon fill="white" stroke="black" points="465,-112.5 465,-131.5 539,-131.5 539,-112.5 465,-112.5"/>
<text text-anchor="middle" x="502" y="-119.5" font-family="Helvetica,sans-Serif" font-size="10.00">MapViewer.h</text>
</a>
</g>
</g>
<!-- Node3&#45;&gt;Node13 -->
<g id="edge13" class="edge"><title>Node3&#45;&gt;Node13</title>
<path fill="none" stroke="midnightblue" d="M1031.8,-167.984C834.705,-141.212 782.296,-150.023 588,-132 572.006,-130.516 554.358,-128.701 539.232,-127.09"/>
<polygon fill="midnightblue" stroke="midnightblue" points="1031.52,-171.478 1041.9,-169.37 1032.47,-164.543 1031.52,-171.478"/>
</g>
<!-- Node14 -->
<g id="node14" class="node"><title>Node14</title>
<g id="a_node14"><a xlink:href="../../d4/def/a00359.html" target="_top" xlink:title="MapViewer.cpp">
<polygon fill="white" stroke="black" points="252,-56.5 252,-75.5 336,-75.5 336,-56.5 252,-56.5"/>
<text text-anchor="middle" x="294" y="-63.5" font-family="Helvetica,sans-Serif" font-size="10.00">MapViewer.cpp</text>
</a>
</g>
</g>
<!-- Node3&#45;&gt;Node14 -->
<g id="edge17" class="edge"><title>Node3&#45;&gt;Node14</title>
<path fill="none" stroke="midnightblue" d="M1031.96,-168.061C776.234,-136.886 700.62,-199.195 456,-132 437.216,-126.84 434.847,-119.806 417,-112 384.292,-97.695 345.44,-84.0108 320.283,-75.5663"/>
<polygon fill="midnightblue" stroke="midnightblue" points="1031.55,-171.538 1041.91,-169.311 1032.42,-164.593 1031.55,-171.538"/>
</g>
<!-- Node15 -->
<g id="node15" class="node"><title>Node15</title>
<g id="a_node15"><a xlink:href="../../d7/d6e/a00190.html" target="_top" xlink:title="Header for the command line controller. ">
<polygon fill="white" stroke="black" points="1191,-56.5 1191,-75.5 1291,-75.5 1291,-56.5 1191,-56.5"/>
<text text-anchor="middle" x="1241" y="-63.5" font-family="Helvetica,sans-Serif" font-size="10.00">BaseController.cpp</text>
</a>
</g>
</g>
<!-- Node3&#45;&gt;Node15 -->
<g id="edge18" class="edge"><title>Node3&#45;&gt;Node15</title>
<path fill="none" stroke="midnightblue" d="M1126.26,-168.917C1152.17,-162.505 1183.5,-151.287 1206,-132 1223.9,-116.651 1234.15,-89.7873 1238.5,-75.8904"/>
<polygon fill="midnightblue" stroke="midnightblue" points="1125.21,-165.566 1116.26,-171.224 1126.79,-172.386 1125.21,-165.566"/>
</g>
<!-- Node16 -->
<g id="node16" class="node"><title>Node16</title>
<g id="a_node16"><a xlink:href="../../d9/dd0/a00191.html" target="_top" xlink:title="BaseController.h">
<polygon fill="white" stroke="black" points="597.5,-112.5 597.5,-131.5 686.5,-131.5 686.5,-112.5 597.5,-112.5"/>
<text text-anchor="middle" x="642" y="-119.5" font-family="Helvetica,sans-Serif" font-size="10.00">BaseController.h</text>
</a>
</g>
</g>
<!-- Node3&#45;&gt;Node16 -->
<g id="edge19" class="edge"><title>Node3&#45;&gt;Node16</title>
<path fill="none" stroke="midnightblue" d="M1031.67,-167.902C900.588,-147.872 757.669,-133.579 686.719,-126.993"/>
<polygon fill="midnightblue" stroke="midnightblue" points="1031.47,-171.413 1041.89,-169.479 1032.54,-164.494 1031.47,-171.413"/>
</g>
<!-- Node18 -->
<g id="node18" class="node"><title>Node18</title>
<g id="a_node18"><a xlink:href="../../da/de7/a00210.html" target="_top" xlink:title="Header for the command line controller. ">
<polygon fill="white" stroke="black" points="1312.5,-0.5 1312.5,-19.5 1401.5,-19.5 1401.5,-0.5 1312.5,-0.5"/>
<text text-anchor="middle" x="1357" y="-7.5" font-family="Helvetica,sans-Serif" font-size="10.00">CliController.cpp</text>
</a>
</g>
</g>
<!-- Node3&#45;&gt;Node18 -->
<g id="edge28" class="edge"><title>Node3&#45;&gt;Node18</title>
<path fill="none" stroke="midnightblue" d="M1126.22,-176.689C1261.73,-175.362 1649.92,-168.4 1771,-132 1819.04,-117.557 1843.82,-119.388 1869,-76 1873.46,-68.3119 1875,-62.5548 1869,-56 1837.73,-21.866 1520.78,-13.502 1401.8,-11.558"/>
<polygon fill="midnightblue" stroke="midnightblue" points="1126.12,-173.19 1116.15,-176.782 1126.18,-180.19 1126.12,-173.19"/>
</g>
<!-- Node19 -->
<g id="node19" class="node"><title>Node19</title>
<g id="a_node19"><a xlink:href="../../d4/d6d/a00402.html" target="_top" xlink:title="Implementation for SimRunner. ">
<polygon fill="white" stroke="black" points="967,-112.5 967,-131.5 1051,-131.5 1051,-112.5 967,-112.5"/>
<text text-anchor="middle" x="1009" y="-119.5" font-family="Helvetica,sans-Serif" font-size="10.00">SimRunner.cpp</text>
</a>
</g>
</g>
<!-- Node3&#45;&gt;Node19 -->
<g id="edge29" class="edge"><title>Node3&#45;&gt;Node19</title>
<path fill="none" stroke="midnightblue" d="M1059.69,-162.101C1047.09,-152.382 1031.07,-140.027 1020.45,-131.834"/>
<polygon fill="midnightblue" stroke="midnightblue" points="1057.7,-164.987 1067.75,-168.324 1061.97,-159.445 1057.7,-164.987"/>
</g>
<!-- Node20 -->
<g id="node20" class="node"><title>Node20</title>
<g id="a_node20"><a xlink:href="../../d7/d25/a00182.html" target="_top" xlink:title="Observer for Adopted output. ">
<polygon fill="white" stroke="black" points="819.5,-112.5 819.5,-131.5 910.5,-131.5 910.5,-112.5 819.5,-112.5"/>
<text text-anchor="middle" x="865" y="-119.5" font-family="Helvetica,sans-Serif" font-size="10.00">AdoptedViewer.h</text>
</a>
</g>
</g>
<!-- Node3&#45;&gt;Node20 -->
<g id="edge30" class="edge"><title>Node3&#45;&gt;Node20</title>
<path fill="none" stroke="midnightblue" d="M1035.24,-165.959C994.826,-155.76 935.627,-140.822 898.75,-131.516"/>
<polygon fill="midnightblue" stroke="midnightblue" points="1034.54,-169.39 1045.09,-168.444 1036.25,-162.603 1034.54,-169.39"/>
</g>
<!-- Node21 -->
<g id="node21" class="node"><title>Node21</title>
<g id="a_node21"><a xlink:href="../../d8/d64/a00181.html" target="_top" xlink:title="Definition of Observer for SimEvents for commandline interface usage. ">
<polygon fill="white" stroke="black" points="704.5,-56.5 704.5,-75.5 805.5,-75.5 805.5,-56.5 704.5,-56.5"/>
<text text-anchor="middle" x="755" y="-63.5" font-family="Helvetica,sans-Serif" font-size="10.00">AdoptedViewer.cpp</text>
</a>
</g>
</g>
<!-- Node3&#45;&gt;Node21 -->
<g id="edge35" class="edge"><title>Node3&#45;&gt;Node21</title>
<path fill="none" stroke="midnightblue" d="M1031.97,-167.962C931.821,-152.22 894.676,-179.843 810,-132 786.061,-118.474 767.874,-90.2901 759.718,-75.8882"/>
<polygon fill="midnightblue" stroke="midnightblue" points="1031.42,-171.418 1041.86,-169.624 1032.58,-164.515 1031.42,-171.418"/>
</g>
<!-- Node22 -->
<g id="node22" class="node"><title>Node22</title>
<g id="a_node22"><a xlink:href="../../d1/de1/a00213.html" target="_top" xlink:title="Observer for SimEvents for commandline interface usage. ">
<polygon fill="white" stroke="black" points="1285.5,-112.5 1285.5,-131.5 1352.5,-131.5 1352.5,-112.5 1285.5,-112.5"/>
<text text-anchor="middle" x="1319" y="-119.5" font-family="Helvetica,sans-Serif" font-size="10.00">CliViewer.h</text>
</a>
</g>
</g>
<!-- Node3&#45;&gt;Node22 -->
<g id="edge36" class="edge"><title>Node3&#45;&gt;Node22</title>
<path fill="none" stroke="midnightblue" d="M1126.14,-166.393C1172.98,-155.855 1243.64,-139.956 1285.17,-130.612"/>
<polygon fill="midnightblue" stroke="midnightblue" points="1125.22,-163.012 1116.24,-168.622 1126.76,-169.841 1125.22,-163.012"/>
</g>
<!-- Node23 -->
<g id="node23" class="node"><title>Node23</title>
<g id="a_node23"><a xlink:href="../../dd/dc1/a00212.html" target="_top" xlink:title="Definition of Observer for SimEvents for commandline interface usage. ">
<polygon fill="white" stroke="black" points="1385.5,-56.5 1385.5,-75.5 1462.5,-75.5 1462.5,-56.5 1385.5,-56.5"/>
<text text-anchor="middle" x="1424" y="-63.5" font-family="Helvetica,sans-Serif" font-size="10.00">CliViewer.cpp</text>
</a>
</g>
</g>
<!-- Node3&#45;&gt;Node23 -->
<g id="edge41" class="edge"><title>Node3&#45;&gt;Node23</title>
<path fill="none" stroke="midnightblue" d="M1126.41,-173.078C1195.78,-166.73 1321.05,-152.781 1361,-132 1386.93,-118.511 1408.44,-90.3104 1418.26,-75.8965"/>
<polygon fill="midnightblue" stroke="midnightblue" points="1125.83,-169.616 1116.18,-173.996 1126.46,-176.588 1125.83,-169.616"/>
</g>
<!-- Node24 -->
<g id="node24" class="node"><title>Node24</title>
<g id="a_node24"><a xlink:href="../../d4/db5/a00328.html" target="_top" xlink:title="Observer for Cases output. ">
<polygon fill="white" stroke="black" points="1107,-112.5 1107,-131.5 1197,-131.5 1197,-112.5 1107,-112.5"/>
<text text-anchor="middle" x="1152" y="-119.5" font-family="Helvetica,sans-Serif" font-size="10.00">InfectedViewer.h</text>
</a>
</g>
</g>
<!-- Node3&#45;&gt;Node24 -->
<g id="edge42" class="edge"><title>Node3&#45;&gt;Node24</title>
<path fill="none" stroke="midnightblue" d="M1099.14,-162.101C1112.28,-152.382 1128.98,-140.027 1140.06,-131.834"/>
<polygon fill="midnightblue" stroke="midnightblue" points="1096.69,-159.563 1090.73,-168.324 1100.85,-165.191 1096.69,-159.563"/>
</g>
<!-- Node25 -->
<g id="node25" class="node"><title>Node25</title>
<g id="a_node25"><a xlink:href="../../d8/dfc/a00327.html" target="_top" xlink:title="Definition of Observer for SimEvents for commandline interface usage. ">
<polygon fill="white" stroke="black" points="995.5,-56.5 995.5,-75.5 1096.5,-75.5 1096.5,-56.5 995.5,-56.5"/>
<text text-anchor="middle" x="1046" y="-63.5" font-family="Helvetica,sans-Serif" font-size="10.00">InfectedViewer.cpp</text>
</a>
</g>
</g>
<!-- Node3&#45;&gt;Node25 -->
<g id="edge48" class="edge"><title>Node3&#45;&gt;Node25</title>
<path fill="none" stroke="midnightblue" d="M1073.5,-158.674C1066.29,-134.625 1053.92,-93.3881 1048.58,-75.5914"/>
<polygon fill="midnightblue" stroke="midnightblue" points="1070.18,-159.796 1076.41,-168.368 1076.89,-157.784 1070.18,-159.796"/>
</g>
<!-- Node26 -->
<g id="node26" class="node"><title>Node26</title>
<g id="a_node26"><a xlink:href="../../dd/dcb/a00375.html" target="_top" xlink:title="Observer for Persons output. ">
<polygon fill="white" stroke="black" points="1445.5,-112.5 1445.5,-131.5 1536.5,-131.5 1536.5,-112.5 1445.5,-112.5"/>
<text text-anchor="middle" x="1491" y="-119.5" font-family="Helvetica,sans-Serif" font-size="10.00">PersonsViewer.h</text>
</a>
</g>
</g>
<!-- Node3&#45;&gt;Node26 -->
<g id="edge49" class="edge"><title>Node3&#45;&gt;Node26</title>
<path fill="none" stroke="midnightblue" d="M1126.56,-170.767C1206.52,-160.287 1366.83,-139.275 1445.43,-128.973"/>
<polygon fill="midnightblue" stroke="midnightblue" points="1125.75,-167.343 1116.29,-172.113 1126.66,-174.283 1125.75,-167.343"/>
</g>
<!-- Node27 -->
<g id="node27" class="node"><title>Node27</title>
<g id="a_node27"><a xlink:href="../../d5/db5/a00374.html" target="_top" xlink:title="Definition of Observer for SimEvents for commandline interface usage. ">
<polygon fill="white" stroke="black" points="1557.5,-56.5 1557.5,-75.5 1658.5,-75.5 1658.5,-56.5 1557.5,-56.5"/>
<text text-anchor="middle" x="1608" y="-63.5" font-family="Helvetica,sans-Serif" font-size="10.00">PersonsViewer.cpp</text>
</a>
</g>
</g>
<!-- Node3&#45;&gt;Node27 -->
<g id="edge54" class="edge"><title>Node3&#45;&gt;Node27</title>
<path fill="none" stroke="midnightblue" d="M1126.18,-176.534C1229.4,-174.862 1471.9,-167.192 1545,-132 1571.62,-119.185 1593.12,-90.1371 1602.66,-75.6096"/>
<polygon fill="midnightblue" stroke="midnightblue" points="1126,-173.036 1116.05,-176.686 1126.1,-180.036 1126,-173.036"/>
</g>
<!-- Node28 -->
<g id="node28" class="node"><title>Node28</title>
<g id="a_node28"><a xlink:href="../../db/d4f/a00420.html" target="_top" xlink:title="Observer for Persons output. ">
<polygon fill="white" stroke="black" points="1638.5,-112.5 1638.5,-131.5 1735.5,-131.5 1735.5,-112.5 1638.5,-112.5"/>
<text text-anchor="middle" x="1687" y="-119.5" font-family="Helvetica,sans-Serif" font-size="10.00">SummaryViewer.h</text>
</a>
</g>
</g>
<!-- Node3&#45;&gt;Node28 -->
<g id="edge55" class="edge"><title>Node3&#45;&gt;Node28</title>
<path fill="none" stroke="midnightblue" d="M1126.1,-173.23C1217.65,-165.838 1425.97,-148.702 1601,-132 1613.1,-130.845 1626.16,-129.52 1638.35,-128.248"/>
<polygon fill="midnightblue" stroke="midnightblue" points="1125.73,-169.748 1116.05,-174.04 1126.29,-176.725 1125.73,-169.748"/>
</g>
<!-- Node29 -->
<g id="node29" class="node"><title>Node29</title>
<g id="a_node29"><a xlink:href="../../d3/d29/a00419.html" target="_top" xlink:title="Definition of Observer for SimEvents for commandline interface usage. ">
<polygon fill="white" stroke="black" points="1753.5,-56.5 1753.5,-75.5 1860.5,-75.5 1860.5,-56.5 1753.5,-56.5"/>
<text text-anchor="middle" x="1807" y="-63.5" font-family="Helvetica,sans-Serif" font-size="10.00">SummaryViewer.cpp</text>
</a>
</g>
</g>
<!-- Node3&#45;&gt;Node29 -->
<g id="edge60" class="edge"><title>Node3&#45;&gt;Node29</title>
<path fill="none" stroke="midnightblue" d="M1126.36,-175.753C1269.04,-171.724 1688.38,-157.799 1744,-132 1770.8,-119.568 1792.21,-90.3408 1801.7,-75.6907"/>
<polygon fill="midnightblue" stroke="midnightblue" points="1126.08,-172.259 1116.18,-176.037 1126.27,-179.257 1126.08,-172.259"/>
</g>
<!-- Node6 -->
<g id="node6" class="node"><title>Node6</title>
<g id="a_node6"><a xlink:href="../../d9/d0d/a00298.html" target="_top" xlink:title="GuiController.h">
<polygon fill="white" stroke="black" points="354,-56.5 354,-75.5 436,-75.5 436,-56.5 354,-56.5"/>
<text text-anchor="middle" x="395" y="-63.5" font-family="Helvetica,sans-Serif" font-size="10.00">GuiController.h</text>
</a>
</g>
</g>
<!-- Node5&#45;&gt;Node6 -->
<g id="edge5" class="edge"><title>Node5&#45;&gt;Node6</title>
<path fill="none" stroke="midnightblue" d="M363.114,-104.431C371.176,-94.9673 380.959,-83.4827 387.545,-75.7511"/>
<polygon fill="midnightblue" stroke="midnightblue" points="360.416,-102.201 356.596,-112.083 365.745,-106.74 360.416,-102.201"/>
</g>
<!-- Node10 -->
<g id="node10" class="node"><title>Node10</title>
<g id="a_node10"><a xlink:href="../../df/d95/a00299.html" target="_top" xlink:title="GuiControllerBackend.cpp">
<polygon fill="white" stroke="black" points="102.5,-56.5 102.5,-75.5 233.5,-75.5 233.5,-56.5 102.5,-56.5"/>
<text text-anchor="middle" x="168" y="-63.5" font-family="Helvetica,sans-Serif" font-size="10.00">GuiControllerBackend.cpp</text>
</a>
</g>
</g>
<!-- Node5&#45;&gt;Node10 -->
<g id="edge9" class="edge"><title>Node5&#45;&gt;Node10</title>
<path fill="none" stroke="midnightblue" d="M310.681,-109.568C276.536,-99.381 227.339,-84.7034 196.546,-75.5164"/>
<polygon fill="midnightblue" stroke="midnightblue" points="309.737,-112.938 320.32,-112.444 311.738,-106.231 309.737,-112.938"/>
</g>
<!-- Node7 -->
<g id="node7" class="node"><title>Node7</title>
<g id="a_node7"><a xlink:href="../../d3/d4a/a00297.html" target="_top" xlink:title="GuiController.cpp">
<polygon fill="white" stroke="black" points="349,-0.5 349,-19.5 441,-19.5 441,-0.5 349,-0.5"/>
<text text-anchor="middle" x="395" y="-7.5" font-family="Helvetica,sans-Serif" font-size="10.00">GuiController.cpp</text>
</a>
</g>
</g>
<!-- Node6&#45;&gt;Node7 -->
<g id="edge6" class="edge"><title>Node6&#45;&gt;Node7</title>
<path fill="none" stroke="midnightblue" d="M395,-45.8045C395,-36.9102 395,-26.7798 395,-19.7511"/>
<polygon fill="midnightblue" stroke="midnightblue" points="391.5,-46.083 395,-56.083 398.5,-46.083 391.5,-46.083"/>
</g>
<!-- Node8 -->
<g id="node8" class="node"><title>Node8</title>
<g id="a_node8"><a xlink:href="../../d3/d93/a00341.html" target="_top" xlink:title="Launcher.cpp">
<polygon fill="white" stroke="black" points="796.5,-0.5 796.5,-19.5 871.5,-19.5 871.5,-0.5 796.5,-0.5"/>
<text text-anchor="middle" x="834" y="-7.5" font-family="Helvetica,sans-Serif" font-size="10.00">Launcher.cpp</text>
</a>
</g>
</g>
<!-- Node6&#45;&gt;Node8 -->
<g id="edge7" class="edge"><title>Node6&#45;&gt;Node8</title>
<path fill="none" stroke="midnightblue" d="M446.465,-58.6694C535.805,-47.68 717.561,-25.3228 796.265,-15.6416"/>
<polygon fill="midnightblue" stroke="midnightblue" points="445.798,-55.225 436.3,-59.9198 446.653,-62.1727 445.798,-55.225"/>
</g>
<!-- Node9 -->
<g id="node9" class="node"><title>Node9</title>
<g id="a_node9"><a xlink:href="../../d3/dc9/a00355.html" target="_top" xlink:title="Main program: command line handling. ">
<polygon fill="white" stroke="black" points="486,-0.5 486,-19.5 542,-19.5 542,-0.5 486,-0.5"/>
<text text-anchor="middle" x="514" y="-7.5" font-family="Helvetica,sans-Serif" font-size="10.00">main.cpp</text>
</a>
</g>
</g>
<!-- Node6&#45;&gt;Node9 -->
<g id="edge8" class="edge"><title>Node6&#45;&gt;Node9</title>
<path fill="none" stroke="midnightblue" d="M423.137,-52.2321C445.396,-42.1312 475.856,-28.3091 495.232,-19.5164"/>
<polygon fill="midnightblue" stroke="midnightblue" points="421.516,-49.124 413.856,-56.4435 424.409,-55.4984 421.516,-49.124"/>
</g>
<!-- Node11&#45;&gt;Node10 -->
<g id="edge11" class="edge"><title>Node11&#45;&gt;Node10</title>
<path fill="none" stroke="midnightblue" d="M168,-101.805C168,-92.9102 168,-82.7798 168,-75.7511"/>
<polygon fill="midnightblue" stroke="midnightblue" points="164.5,-102.083 168,-112.083 171.5,-102.083 164.5,-102.083"/>
</g>
<!-- Node12 -->
<g id="node12" class="node"><title>Node12</title>
<g id="a_node12"><a xlink:href="../../d9/de6/a00404.html" target="_top" xlink:title="SimWorker.cpp">
<polygon fill="white" stroke="black" points="0,-56.5 0,-75.5 84,-75.5 84,-56.5 0,-56.5"/>
<text text-anchor="middle" x="42" y="-63.5" font-family="Helvetica,sans-Serif" font-size="10.00">SimWorker.cpp</text>
</a>
</g>
</g>
<!-- Node11&#45;&gt;Node12 -->
<g id="edge12" class="edge"><title>Node11&#45;&gt;Node12</title>
<path fill="none" stroke="midnightblue" d="M138.84,-108.503C115.219,-98.3795 82.572,-84.388 61.8717,-75.5164"/>
<polygon fill="midnightblue" stroke="midnightblue" points="137.465,-111.721 148.035,-112.444 140.222,-105.287 137.465,-111.721"/>
</g>
<!-- Node13&#45;&gt;Node8 -->
<g id="edge14" class="edge"><title>Node13&#45;&gt;Node8</title>
<path fill="none" stroke="midnightblue" d="M512.304,-103.616C522.26,-88.4667 538.784,-67.2161 559,-56 599.135,-33.7321 730.856,-19.7519 796.344,-14.0074"/>
<polygon fill="midnightblue" stroke="midnightblue" points="509.322,-101.783 506.979,-112.116 515.254,-105.5 509.322,-101.783"/>
</g>
<!-- Node13&#45;&gt;Node9 -->
<g id="edge16" class="edge"><title>Node13&#45;&gt;Node9</title>
<path fill="none" stroke="midnightblue" d="M493.452,-102.799C488.424,-89.7023 483.801,-71.6601 488,-56 491.692,-42.2304 500.731,-28.3162 507.11,-19.6811"/>
<polygon fill="midnightblue" stroke="midnightblue" points="490.275,-104.271 497.411,-112.102 496.716,-101.53 490.275,-104.271"/>
</g>
<!-- Node13&#45;&gt;Node14 -->
<g id="edge15" class="edge"><title>Node13&#45;&gt;Node14</title>
<path fill="none" stroke="midnightblue" d="M459.222,-109.894C419.942,-99.6966 362.571,-84.802 326.804,-75.5164"/>
<polygon fill="midnightblue" stroke="midnightblue" points="458.483,-113.318 469.042,-112.444 460.242,-106.543 458.483,-113.318"/>
</g>
<!-- Node16&#45;&gt;Node6 -->
<g id="edge20" class="edge"><title>Node16&#45;&gt;Node6</title>
<path fill="none" stroke="midnightblue" d="M592.973,-110.281C546.296,-100.077 476.969,-84.9203 433.955,-75.5164"/>
<polygon fill="midnightblue" stroke="midnightblue" points="592.345,-113.727 602.862,-112.444 593.84,-106.888 592.345,-113.727"/>
</g>
<!-- Node16&#45;&gt;Node8 -->
<g id="edge21" class="edge"><title>Node16&#45;&gt;Node8</title>
<path fill="none" stroke="midnightblue" d="M652.287,-103.412C661.687,-88.7802 676.86,-68.4079 695,-56 725.671,-35.0205 766.759,-23.3157 796.297,-17.141"/>
<polygon fill="midnightblue" stroke="midnightblue" points="649.228,-101.705 646.971,-112.057 655.191,-105.372 649.228,-101.705"/>
</g>
<!-- Node16&#45;&gt;Node9 -->
<g id="edge27" class="edge"><title>Node16&#45;&gt;Node9</title>
<path fill="none" stroke="midnightblue" d="M610.512,-108.217C593.988,-100.502 574.098,-89.5391 559,-76 540.199,-59.1393 525.177,-32.9367 518.215,-19.5315"/>
<polygon fill="midnightblue" stroke="midnightblue" points="609.234,-111.479 619.791,-112.378 612.099,-105.092 609.234,-111.479"/>
</g>
<!-- Node16&#45;&gt;Node15 -->
<g id="edge22" class="edge"><title>Node16&#45;&gt;Node15</title>
<path fill="none" stroke="midnightblue" d="M696.557,-116.082C811.94,-105.68 1079.24,-81.5827 1190.74,-71.531"/>
<polygon fill="midnightblue" stroke="midnightblue" points="696.178,-112.602 686.533,-116.985 696.807,-119.573 696.178,-112.602"/>
</g>
<!-- Node17 -->
<g id="node17" class="node"><title>Node17</title>
<g id="a_node17"><a xlink:href="../../dd/ded/a00211.html" target="_top" xlink:title="Header for the command line controller. ">
<polygon fill="white" stroke="black" points="568.5,-56.5 568.5,-75.5 647.5,-75.5 647.5,-56.5 568.5,-56.5"/>
<text text-anchor="middle" x="608" y="-63.5" font-family="Helvetica,sans-Serif" font-size="10.00">CliController.h</text>
</a>
</g>
</g>
<!-- Node16&#45;&gt;Node17 -->
<g id="edge23" class="edge"><title>Node16&#45;&gt;Node17</title>
<path fill="none" stroke="midnightblue" d="M631.023,-103.566C625.173,-94.2747 618.23,-83.2484 613.51,-75.7511"/>
<polygon fill="midnightblue" stroke="midnightblue" points="628.096,-105.486 636.386,-112.083 634.019,-101.756 628.096,-105.486"/>
</g>
<!-- Node17&#45;&gt;Node8 -->
<g id="edge24" class="edge"><title>Node17&#45;&gt;Node8</title>
<path fill="none" stroke="midnightblue" d="M653.667,-54.0884C696.364,-43.8865 759.248,-28.8612 798.357,-19.5164"/>
<polygon fill="midnightblue" stroke="midnightblue" points="652.723,-50.7153 643.81,-56.4435 654.35,-57.5237 652.723,-50.7153"/>
</g>
<!-- Node17&#45;&gt;Node9 -->
<g id="edge26" class="edge"><title>Node17&#45;&gt;Node9</title>
<path fill="none" stroke="midnightblue" d="M583.938,-51.1774C566.641,-41.2407 543.852,-28.1492 529.065,-19.6545"/>
<polygon fill="midnightblue" stroke="midnightblue" points="582.483,-54.3775 592.897,-56.324 585.97,-48.3078 582.483,-54.3775"/>
</g>
<!-- Node17&#45;&gt;Node18 -->
<g id="edge25" class="edge"><title>Node17&#45;&gt;Node18</title>
<path fill="none" stroke="midnightblue" d="M657.802,-59.5433C669.963,-58.295 682.944,-57.033 695,-56 927.133,-36.1096 1205.67,-19.5603 1312.4,-13.4877"/>
<polygon fill="midnightblue" stroke="midnightblue" points="657.402,-56.066 647.818,-60.5833 658.127,-63.0283 657.402,-56.066"/>
</g>
<!-- Node20&#45;&gt;Node8 -->
<g id="edge31" class="edge"><title>Node20&#45;&gt;Node8</title>
<path fill="none" stroke="midnightblue" d="M859.835,-102.674C853.058,-78.6248 841.437,-37.3881 836.421,-19.5914"/>
<polygon fill="midnightblue" stroke="midnightblue" points="856.486,-103.693 862.567,-112.368 863.224,-101.794 856.486,-103.693"/>
</g>
<!-- Node20&#45;&gt;Node15 -->
<g id="edge32" class="edge"><title>Node20&#45;&gt;Node15</title>
<path fill="none" stroke="midnightblue" d="M920.658,-113.007C993.649,-102.524 1120.64,-84.2855 1190.81,-74.2081"/>
<polygon fill="midnightblue" stroke="midnightblue" points="920.13,-109.546 910.729,-114.433 921.125,-116.475 920.13,-109.546"/>
</g>
<!-- Node20&#45;&gt;Node18 -->
<g id="edge33" class="edge"><title>Node20&#45;&gt;Node18</title>
<path fill="none" stroke="midnightblue" d="M867.28,-101.883C870.147,-86.8878 876.586,-66.8055 891,-56 924.289,-31.0445 1202.42,-17.2221 1312.45,-12.6879"/>
<polygon fill="midnightblue" stroke="midnightblue" points="863.767,-101.705 865.712,-112.12 870.686,-102.765 863.767,-101.705"/>
</g>
<!-- Node20&#45;&gt;Node21 -->
<g id="edge34" class="edge"><title>Node20&#45;&gt;Node21</title>
<path fill="none" stroke="midnightblue" d="M838.238,-107.862C817.841,-97.8492 790.334,-84.3458 772.63,-75.6545"/>
<polygon fill="midnightblue" stroke="midnightblue" points="836.808,-111.059 847.327,-112.324 839.892,-104.775 836.808,-111.059"/>
</g>
<!-- Node22&#45;&gt;Node8 -->
<g id="edge37" class="edge"><title>Node22&#45;&gt;Node8</title>
<path fill="none" stroke="midnightblue" d="M1318.87,-102.045C1317.67,-87.1444 1313.42,-67.1103 1300,-56 1267.24,-28.8911 976.695,-16.0337 871.669,-12.2418"/>
<polygon fill="midnightblue" stroke="midnightblue" points="1315.38,-102.359 1319.29,-112.205 1322.38,-102.068 1315.38,-102.359"/>
</g>
<!-- Node22&#45;&gt;Node15 -->
<g id="edge38" class="edge"><title>Node22&#45;&gt;Node15</title>
<path fill="none" stroke="midnightblue" d="M1298.23,-106.622C1283.98,-96.7574 1265.54,-83.9919 1253.5,-75.6545"/>
<polygon fill="midnightblue" stroke="midnightblue" points="1296.25,-109.51 1306.47,-112.324 1300.24,-103.754 1296.25,-109.51"/>
</g>
<!-- Node22&#45;&gt;Node18 -->
<g id="edge39" class="edge"><title>Node22&#45;&gt;Node18</title>
<path fill="none" stroke="midnightblue" d="M1325.33,-102.674C1333.64,-78.6248 1347.88,-37.3881 1354.03,-19.5914"/>
<polygon fill="midnightblue" stroke="midnightblue" points="1321.94,-101.774 1321.98,-112.368 1328.56,-104.059 1321.94,-101.774"/>
</g>
<!-- Node22&#45;&gt;Node23 -->
<g id="edge40" class="edge"><title>Node22&#45;&gt;Node23</title>
<path fill="none" stroke="midnightblue" d="M1344.81,-107.726C1364.25,-97.7271 1390.35,-84.3065 1407.17,-75.6545"/>
<polygon fill="midnightblue" stroke="midnightblue" points="1343.16,-104.638 1335.87,-112.324 1346.36,-110.863 1343.16,-104.638"/>
</g>
<!-- Node24&#45;&gt;Node4 -->
<g id="edge43" class="edge"><title>Node24&#45;&gt;Node4</title>
<path fill="none" stroke="midnightblue" d="M1108.45,-109.959C1068.22,-99.7598 1009.3,-84.8217 972.593,-75.5164"/>
<polygon fill="midnightblue" stroke="midnightblue" points="1107.7,-113.379 1118.25,-112.444 1109.42,-106.593 1107.7,-113.379"/>
</g>
<!-- Node24&#45;&gt;Node8 -->
<g id="edge44" class="edge"><title>Node24&#45;&gt;Node8</title>
<path fill="none" stroke="midnightblue" d="M1143.81,-102.792C1136.04,-87.733 1122.89,-67.0834 1105,-56 1066.59,-32.2014 936.549,-18.9783 871.583,-13.7143"/>
<polygon fill="midnightblue" stroke="midnightblue" points="1140.82,-104.654 1148.32,-112.138 1147.12,-101.611 1140.82,-104.654"/>
</g>
<!-- Node24&#45;&gt;Node15 -->
<g id="edge45" class="edge"><title>Node24&#45;&gt;Node15</title>
<path fill="none" stroke="midnightblue" d="M1175.24,-106.901C1191.56,-96.9986 1212.87,-84.0705 1226.74,-75.6545"/>
<polygon fill="midnightblue" stroke="midnightblue" points="1173.03,-104.144 1166.3,-112.324 1176.66,-110.129 1173.03,-104.144"/>
</g>
<!-- Node24&#45;&gt;Node18 -->
<g id="edge46" class="edge"><title>Node24&#45;&gt;Node18</title>
<path fill="none" stroke="midnightblue" d="M1155.95,-102.41C1160.03,-87.7231 1167.85,-67.7975 1182,-56 1218.74,-25.3627 1273.81,-15.2581 1312.33,-12.0954"/>
<polygon fill="midnightblue" stroke="midnightblue" points="1152.48,-101.855 1153.52,-112.399 1159.29,-103.51 1152.48,-101.855"/>
</g>
<!-- Node24&#45;&gt;Node25 -->
<g id="edge47" class="edge"><title>Node24&#45;&gt;Node25</title>
<path fill="none" stroke="midnightblue" d="M1125.94,-107.726C1106.32,-97.7271 1079.97,-84.3065 1062.99,-75.6545"/>
<polygon fill="midnightblue" stroke="midnightblue" points="1124.47,-110.903 1134.97,-112.324 1127.65,-104.666 1124.47,-110.903"/>
</g>
<!-- Node26&#45;&gt;Node8 -->
<g id="edge50" class="edge"><title>Node26&#45;&gt;Node8</title>
<path fill="none" stroke="midnightblue" d="M1490.64,-101.926C1489.24,-86.9561 1484.7,-66.8866 1471,-56 1424.07,-18.7137 1001.89,-12.3105 871.91,-11.221"/>
<polygon fill="midnightblue" stroke="midnightblue" points="1487.15,-102.346 1491.19,-112.142 1494.14,-101.968 1487.15,-102.346"/>
</g>
<!-- Node26&#45;&gt;Node15 -->
<g id="edge51" class="edge"><title>Node26&#45;&gt;Node15</title>
<path fill="none" stroke="midnightblue" d="M1441.38,-110.281C1394.13,-100.077 1323.96,-84.9203 1280.43,-75.5164"/>
<polygon fill="midnightblue" stroke="midnightblue" points="1440.87,-113.753 1451.39,-112.444 1442.35,-106.911 1440.87,-113.753"/>
</g>
<!-- Node26&#45;&gt;Node18 -->
<g id="edge52" class="edge"><title>Node26&#45;&gt;Node18</title>
<path fill="none" stroke="midnightblue" d="M1502.03,-102.941C1509.03,-88.8972 1515.07,-69.5821 1505,-56 1481.41,-24.1753 1435.87,-14.0848 1401.51,-11.2482"/>
<polygon fill="midnightblue" stroke="midnightblue" points="1498.75,-101.633 1496.97,-112.077 1504.87,-105.023 1498.75,-101.633"/>
</g>
<!-- Node26&#45;&gt;Node27 -->
<g id="edge53" class="edge"><title>Node26&#45;&gt;Node27</title>
<path fill="none" stroke="midnightblue" d="M1518.66,-108.232C1540.55,-98.1312 1570.5,-84.3091 1589.55,-75.5164"/>
<polygon fill="midnightblue" stroke="midnightblue" points="1517.15,-105.075 1509.54,-112.444 1520.09,-111.431 1517.15,-105.075"/>
</g>
<!-- Node28&#45;&gt;Node8 -->
<g id="edge56" class="edge"><title>Node28&#45;&gt;Node8</title>
<path fill="none" stroke="midnightblue" d="M1686.68,-101.865C1685.32,-86.8602 1680.79,-66.7728 1667,-56 1635.27,-31.2177 1030.12,-15.5347 871.696,-11.8425"/>
<polygon fill="midnightblue" stroke="midnightblue" points="1683.2,-102.305 1687.21,-112.11 1690.19,-101.943 1683.2,-102.305"/>
</g>
<!-- Node28&#45;&gt;Node15 -->
<g id="edge57" class="edge"><title>Node28&#45;&gt;Node15</title>
<path fill="none" stroke="midnightblue" d="M1628.3,-113.893C1539.95,-103.195 1374.31,-83.1405 1291.22,-73.0808"/>
<polygon fill="midnightblue" stroke="midnightblue" points="1628.07,-117.391 1638.42,-115.118 1628.91,-110.442 1628.07,-117.391"/>
</g>
<!-- Node28&#45;&gt;Node18 -->
<g id="edge58" class="edge"><title>Node28&#45;&gt;Node18</title>
<path fill="none" stroke="midnightblue" d="M1698.16,-103.346C1705.7,-88.9591 1712.38,-68.9702 1701,-56 1681.53,-33.8188 1490.23,-19.2244 1401.62,-13.6017"/>
<polygon fill="midnightblue" stroke="midnightblue" points="1694.99,-101.844 1693.02,-112.256 1701.05,-105.342 1694.99,-101.844"/>
</g>
<!-- Node28&#45;&gt;Node29 -->
<g id="edge59" class="edge"><title>Node28&#45;&gt;Node29</title>
<path fill="none" stroke="midnightblue" d="M1715.37,-108.232C1737.82,-98.1312 1768.54,-84.3091 1788.07,-75.5164"/>
<polygon fill="midnightblue" stroke="midnightblue" points="1713.7,-105.148 1706.01,-112.444 1716.57,-111.532 1713.7,-105.148"/>
</g>
</g>
</svg>
