<?xml version="1.0" encoding="UTF-8" standalone="no"?>
<!DOCTYPE svg PUBLIC "-//W3C//DTD SVG 1.1//EN"
 "http://www.w3.org/Graphics/SVG/1.1/DTD/svg11.dtd">
<!-- Generated by graphviz version 2.36.0 (20140111.2315)
 -->
<!-- Title: RNManager.h Pages: 1 -->
<svg width="878pt" height="140pt"
 viewBox="0.00 0.00 878.00 140.00" xmlns="http://www.w3.org/2000/svg" xmlns:xlink="http://www.w3.org/1999/xlink">
<g id="graph0" class="graph" transform="scale(1 1) rotate(0) translate(4 136)">
<title>RNManager.h</title>
<polygon fill="white" stroke="none" points="-4,4 -4,-136 874,-136 874,4 -4,4"/>
<!-- Node1 -->
<g id="node1" class="node"><title>Node1</title>
<polygon fill="#bfbfbf" stroke="black" points="411.5,-112.5 411.5,-131.5 488.5,-131.5 488.5,-112.5 411.5,-112.5"/>
<text text-anchor="middle" x="450" y="-119.5" font-family="Helvetica,sans-Serif" font-size="10.00">RNManager.h</text>
</g>
<!-- Node2 -->
<g id="node2" class="node"><title>Node2</title>
<g id="a_node2"><a xlink:href="../../d5/d05/a00385.html" target="_top" xlink:title="Interface of Random Engine Type. ">
<polygon fill="white" stroke="black" points="0,-56.5 0,-75.5 92,-75.5 92,-56.5 0,-56.5"/>
<text text-anchor="middle" x="46" y="-63.5" font-family="Helvetica,sans-Serif" font-size="10.00">RNEngineType.h</text>
</a>
</g>
</g>
<!-- Node1&#45;&gt;Node2 -->
<g id="edge1" class="edge"><title>Node1&#45;&gt;Node2</title>
<path fill="none" stroke="midnightblue" d="M411.276,-116.176C347.561,-108.183 216.643,-91.5337 106,-76 104.739,-75.8229 103.462,-75.6424 102.176,-75.4593"/>
<polygon fill="midnightblue" stroke="midnightblue" points="102.573,-71.9804 92.1751,-74.0157 101.572,-78.9086 102.573,-71.9804"/>
</g>
<!-- Node3 -->
<g id="node3" class="node"><title>Node3</title>
<polygon fill="white" stroke="#bfbfbf" points="62.5,-0.5 62.5,-19.5 103.5,-19.5 103.5,-0.5 62.5,-0.5"/>
<text text-anchor="middle" x="83" y="-7.5" font-family="Helvetica,sans-Serif" font-size="10.00">string</text>
</g>
<!-- Node1&#45;&gt;Node3 -->
<g id="edge10" class="edge"><title>Node1&#45;&gt;Node3</title>
<path fill="none" stroke="midnightblue" d="M411.434,-118.784C338.881,-114.07 185.219,-101.35 139,-76 119.074,-65.0709 103.007,-44.0798 93.2779,-28.9031"/>
<polygon fill="midnightblue" stroke="midnightblue" points="96.0094,-26.6587 87.8226,-19.9336 90.0287,-30.2962 96.0094,-26.6587"/>
</g>
<!-- Node4 -->
<g id="node4" class="node"><title>Node4</title>
<polygon fill="white" stroke="#bfbfbf" points="148,-56.5 148,-75.5 226,-75.5 226,-56.5 148,-56.5"/>
<text text-anchor="middle" x="187" y="-63.5" font-family="Helvetica,sans-Serif" font-size="10.00">trng/lcg64.hpp</text>
</g>
<!-- Node1&#45;&gt;Node4 -->
<g id="edge3" class="edge"><title>Node1&#45;&gt;Node4</title>
<path fill="none" stroke="midnightblue" d="M411.476,-113.09C365.024,-103.553 286.883,-87.5083 236.136,-77.0887"/>
<polygon fill="midnightblue" stroke="midnightblue" points="236.556,-73.6021 226.057,-75.0192 235.148,-80.459 236.556,-73.6021"/>
</g>
<!-- Node5 -->
<g id="node5" class="node"><title>Node5</title>
<polygon fill="white" stroke="#bfbfbf" points="244,-56.5 244,-75.5 346,-75.5 346,-56.5 244,-56.5"/>
<text text-anchor="middle" x="295" y="-63.5" font-family="Helvetica,sans-Serif" font-size="10.00">trng/lcg64_shift.hpp</text>
</g>
<!-- Node1&#45;&gt;Node5 -->
<g id="edge4" class="edge"><title>Node1&#45;&gt;Node5</title>
<path fill="none" stroke="midnightblue" d="M425.44,-112.444C399.477,-103.399 358.332,-89.064 329.203,-78.9158"/>
<polygon fill="midnightblue" stroke="midnightblue" points="330.04,-75.5013 319.445,-75.5164 327.737,-82.1116 330.04,-75.5013"/>
</g>
<!-- Node6 -->
<g id="node6" class="node"><title>Node6</title>
<polygon fill="white" stroke="#bfbfbf" points="364.5,-56.5 364.5,-75.5 441.5,-75.5 441.5,-56.5 364.5,-56.5"/>
<text text-anchor="middle" x="403" y="-63.5" font-family="Helvetica,sans-Serif" font-size="10.00">trng/mrg2.hpp</text>
</g>
<!-- Node1&#45;&gt;Node6 -->
<g id="edge5" class="edge"><title>Node1&#45;&gt;Node6</title>
<path fill="none" stroke="midnightblue" d="M442.239,-112.083C435.463,-104.298 425.457,-92.8015 417.245,-83.3665"/>
<polygon fill="midnightblue" stroke="midnightblue" points="419.822,-80.9963 410.617,-75.7511 414.542,-85.592 419.822,-80.9963"/>
</g>
<!-- Node7 -->
<g id="node7" class="node"><title>Node7</title>
<polygon fill="white" stroke="#bfbfbf" points="459.5,-56.5 459.5,-75.5 536.5,-75.5 536.5,-56.5 459.5,-56.5"/>
<text text-anchor="middle" x="498" y="-63.5" font-family="Helvetica,sans-Serif" font-size="10.00">trng/mrg3.hpp</text>
</g>
<!-- Node1&#45;&gt;Node7 -->
<g id="edge6" class="edge"><title>Node1&#45;&gt;Node7</title>
<path fill="none" stroke="midnightblue" d="M457.926,-112.083C464.846,-104.298 475.065,-92.8015 483.452,-83.3665"/>
<polygon fill="midnightblue" stroke="midnightblue" points="486.194,-85.5505 490.221,-75.7511 480.962,-80.8999 486.194,-85.5505"/>
</g>
<!-- Node8 -->
<g id="node8" class="node"><title>Node8</title>
<polygon fill="white" stroke="#bfbfbf" points="554.5,-56.5 554.5,-75.5 633.5,-75.5 633.5,-56.5 554.5,-56.5"/>
<text text-anchor="middle" x="594" y="-63.5" font-family="Helvetica,sans-Serif" font-size="10.00">trng/yarn2.hpp</text>
</g>
<!-- Node1&#45;&gt;Node8 -->
<g id="edge7" class="edge"><title>Node1&#45;&gt;Node8</title>
<path fill="none" stroke="midnightblue" d="M472.817,-112.444C496.832,-103.438 534.829,-89.1891 561.869,-79.049"/>
<polygon fill="midnightblue" stroke="midnightblue" points="563.155,-82.3049 571.29,-75.5164 560.697,-75.7506 563.155,-82.3049"/>
</g>
<!-- Node9 -->
<g id="node9" class="node"><title>Node9</title>
<polygon fill="white" stroke="#bfbfbf" points="651.5,-56.5 651.5,-75.5 730.5,-75.5 730.5,-56.5 651.5,-56.5"/>
<text text-anchor="middle" x="691" y="-63.5" font-family="Helvetica,sans-Serif" font-size="10.00">trng/yarn3.hpp</text>
</g>
<!-- Node1&#45;&gt;Node9 -->
<g id="edge8" class="edge"><title>Node1&#45;&gt;Node9</title>
<path fill="none" stroke="midnightblue" d="M488.187,-112.444C530.141,-103.043 597.594,-87.9291 643.071,-77.7393"/>
<polygon fill="midnightblue" stroke="midnightblue" points="643.999,-81.1183 652.991,-75.5164 642.468,-74.2876 643.999,-81.1183"/>
</g>
<!-- Node10 -->
<g id="node10" class="node"><title>Node10</title>
<polygon fill="white" stroke="#bfbfbf" points="748.5,-56.5 748.5,-75.5 807.5,-75.5 807.5,-56.5 748.5,-56.5"/>
<text text-anchor="middle" x="778" y="-63.5" font-family="Helvetica,sans-Serif" font-size="10.00">functional</text>
</g>
<!-- Node1&#45;&gt;Node10 -->
<g id="edge9" class="edge"><title>Node1&#45;&gt;Node10</title>
<path fill="none" stroke="midnightblue" d="M488.953,-115.847C542.707,-108.535 642.856,-94.198 738.141,-76.0435"/>
<polygon fill="midnightblue" stroke="midnightblue" points="739.078,-79.4276 748.237,-74.1019 737.756,-72.5536 739.078,-79.4276"/>
</g>
<!-- Node11 -->
<g id="node11" class="node"><title>Node11</title>
<polygon fill="white" stroke="#bfbfbf" points="826,-56.5 826,-75.5 870,-75.5 870,-56.5 826,-56.5"/>
<text text-anchor="middle" x="848" y="-63.5" font-family="Helvetica,sans-Serif" font-size="10.00">vector</text>
</g>
<!-- Node1&#45;&gt;Node11 -->
<g id="edge11" class="edge"><title>Node1&#45;&gt;Node11</title>
<path fill="none" stroke="midnightblue" d="M488.508,-118.2C553.781,-113.037 690.391,-100.425 815.581,-75.7613"/>
<polygon fill="midnightblue" stroke="midnightblue" points="816.607,-79.1255 825.726,-73.7309 815.233,-72.2617 816.607,-79.1255"/>
</g>
<!-- Node2&#45;&gt;Node3 -->
<g id="edge2" class="edge"><title>Node2&#45;&gt;Node3</title>
<path fill="none" stroke="midnightblue" d="M52.1098,-56.083C57.2822,-48.5341 64.8461,-37.4948 71.1944,-28.2298"/>
<polygon fill="midnightblue" stroke="midnightblue" points="74.2388,-29.9787 77.0039,-19.7511 68.4643,-26.0221 74.2388,-29.9787"/>
</g>
</g>
</svg>
