<?xml version="1.0" encoding="UTF-8" standalone="no"?>
<!DOCTYPE svg PUBLIC "-//W3C//DTD SVG 1.1//EN"
 "http://www.w3.org/Graphics/SVG/1.1/DTD/svg11.dtd">
<!-- Generated by graphviz version 2.36.0 (20140111.2315)
 -->
<!-- Title: stride::ContactPool Pages: 1 -->
<!--zoomable 1052 -->
<svg id="main" version="1.1" xmlns="http://www.w3.org/2000/svg" xmlns:xlink="http://www.w3.org/1999/xlink" xml:space="preserve" onload="init(evt)">
<style type="text/css"><![CDATA[
.edge:hover path { stroke: red; }
.edge:hover polygon { stroke: red; fill: red; }
]]></style>
<script type="text/javascript"><![CDATA[
var edges = document.getElementsByTagName('g');
if (edges && edges.length) {
  for (var i=0;i<edges.length;i++) {
    if (edges[i].id.substr(0,4)=='edge') {
      edges[i].setAttribute('class','edge');
    }
  }
}
]]></script>
        <defs>
                <circle id="rim" cx="0" cy="0" r="7"/>
                <circle id="rim2" cx="0" cy="0" r="3.5"/>
                <g id="zoomPlus">
                        <use xlink:href="#rim" fill="#404040">
                                <set attributeName="fill" to="#808080" begin="zoomplus.mouseover" end="zoomplus.mouseout"/>
                        </use>
                        <path d="M-4,0h8M0,-4v8" fill="none" stroke="white" stroke-width="1.5" pointer-events="none"/>
                </g>
                <g id="zoomMin">
                        <use xlink:href="#rim" fill="#404040">
                                <set attributeName="fill" to="#808080" begin="zoomminus.mouseover" end="zoomminus.mouseout"/>
                        </use>
                        <path d="M-4,0h8" fill="none" stroke="white" stroke-width="1.5" pointer-events="none"/>
                </g>
                <g id="dirArrow">
                        <path fill="none" stroke="white" stroke-width="1.5" d="M0,-3.0v7 M-2.5,-0.5L0,-3.0L2.5,-0.5"/>
                </g>
               <g id="resetDef">
                       <use xlink:href="#rim2" fill="#404040">
                               <set attributeName="fill" to="#808080" begin="reset.mouseover" end="reset.mouseout"/>
                       </use>
               </g>
        </defs>

<script type="text/javascript">
var viewWidth = 1280;
var viewHeight = 1052;
var sectionId = 'dynsection-0';
</script>
<script xlink:href="../../svgpan.js"/>
<svg id="graph" class="graph">
<g id="viewport">
<title>stride::ContactPool</title>
<polygon fill="white" stroke="none" points="-4,4 -4,-1048 1276,-1048 1276,4 -4,4"/>
<!-- Node1 -->
<g id="node1" class="node"><title>Node1</title>
<polygon fill="#bfbfbf" stroke="black" points="665,-356 665,-534 775,-534 775,-356 665,-356"/>
<text text-anchor="middle" x="720" y="-522" font-family="Helvetica,sans-Serif" font-size="10.00">stride::ContactPool</text>
<polyline fill="none" stroke="black" points="665,-515 775,-515 "/>
<text text-anchor="middle" x="720" y="-503" font-family="Helvetica,sans-Serif" font-size="10.00"> </text>
<polyline fill="none" stroke="black" points="665,-496 775,-496 "/>
<text text-anchor="start" x="673" y="-484" font-family="Helvetica,sans-Serif" font-size="10.00">+ ContactPool()</text>
<text text-anchor="start" x="673" y="-473" font-family="Helvetica,sans-Serif" font-size="10.00">+ ContactPool()</text>
<text text-anchor="start" x="673" y="-462" font-family="Helvetica,sans-Serif" font-size="10.00">+ AddMember()</text>
<text text-anchor="start" x="673" y="-451" font-family="Helvetica,sans-Serif" font-size="10.00">+ GetMember()</text>
<text text-anchor="start" x="673" y="-440" font-family="Helvetica,sans-Serif" font-size="10.00">+ RemoveMember()</text>
<text text-anchor="start" x="673" y="-429" font-family="Helvetica,sans-Serif" font-size="10.00">+ GetPool()</text>
<text text-anchor="start" x="673" y="-418" font-family="Helvetica,sans-Serif" font-size="10.00">+ GetSize()</text>
<text text-anchor="start" x="673" y="-407" font-family="Helvetica,sans-Serif" font-size="10.00">+ GetId()</text>
<text text-anchor="start" x="673" y="-396" font-family="Helvetica,sans-Serif" font-size="10.00">+ GetCapacity()</text>
<text text-anchor="start" x="673" y="-385" font-family="Helvetica,sans-Serif" font-size="10.00">+ GetUsedCapacity()</text>
<text text-anchor="start" x="673" y="-374" font-family="Helvetica,sans-Serif" font-size="10.00">and 8 more...</text>
<text text-anchor="start" x="673" y="-363" font-family="Helvetica,sans-Serif" font-size="10.00">&#45; SortMembers()</text>
</g>
<!-- Node3 -->
<g id="node3" class="node"><title>Node3</title>
<g id="a_node3"><a xlink:href="../../d0/d5e/a00136.html" target="_top" xlink:title="Store and handle person data. ">
<polygon fill="white" stroke="black" points="497,-118.5 497,-285.5 577,-285.5 577,-118.5 497,-118.5"/>
<text text-anchor="middle" x="537" y="-273.5" font-family="Helvetica,sans-Serif" font-size="10.00">stride::Person</text>
<polyline fill="none" stroke="black" points="497,-266.5 577,-266.5 "/>
<text text-anchor="middle" x="537" y="-254.5" font-family="Helvetica,sans-Serif" font-size="10.00"> </text>
<polyline fill="none" stroke="black" points="497,-247.5 577,-247.5 "/>
<text text-anchor="start" x="505" y="-235.5" font-family="Helvetica,sans-Serif" font-size="10.00">+ Person()</text>
<text text-anchor="start" x="505" y="-224.5" font-family="Helvetica,sans-Serif" font-size="10.00">+ Person()</text>
<text text-anchor="start" x="505" y="-213.5" font-family="Helvetica,sans-Serif" font-size="10.00">+ operator!=()</text>
<text text-anchor="start" x="505" y="-202.5" font-family="Helvetica,sans-Serif" font-size="10.00">+ GetAge()</text>
<text text-anchor="start" x="505" y="-191.5" font-family="Helvetica,sans-Serif" font-size="10.00">+ GetBelief()</text>
<text text-anchor="start" x="505" y="-180.5" font-family="Helvetica,sans-Serif" font-size="10.00">+ GetBelief()</text>
<text text-anchor="start" x="505" y="-169.5" font-family="Helvetica,sans-Serif" font-size="10.00">+ GetPoolId()</text>
<text text-anchor="start" x="505" y="-158.5" font-family="Helvetica,sans-Serif" font-size="10.00">+ GetGender()</text>
<text text-anchor="start" x="505" y="-147.5" font-family="Helvetica,sans-Serif" font-size="10.00">+ GetHealth()</text>
<text text-anchor="start" x="505" y="-136.5" font-family="Helvetica,sans-Serif" font-size="10.00">+ GetHealth()</text>
<text text-anchor="start" x="505" y="-125.5" font-family="Helvetica,sans-Serif" font-size="10.00">and 25 more...</text>
</a>
</g>
</g>
<!-- Node1&#45;&gt;Node3 -->
<g id="edge4" class="edge"><title>Node1&#45;&gt;Node3</title>
<path fill="none" stroke="#404040" d="M664.995,-357.894C661.669,-353.155 658.323,-348.496 655,-344 633.199,-314.51 607.199,-283.09 585.161,-257.413"/>
<polygon fill="none" stroke="#404040" points="585.074,-257.313 578.126,-255.383 577.235,-248.227 584.184,-250.157 585.074,-257.313"/>
<text text-anchor="middle" x="692.5" y="-312.5" font-family="Helvetica,sans-Serif" font-size="10.00"> &#45;m_visitingContactPool</text>
</g>
<!-- Node2 -->
<g id="node2" class="node"><title>Node2</title>
<polygon fill="white" stroke="#bfbfbf" points="797,-1 797,-69 893,-69 893,-1 797,-1"/>
<text text-anchor="start" x="805" y="-57" font-family="Helvetica,sans-Serif" font-size="10.00">std::vector&lt; stride</text>
<text text-anchor="middle" x="845" y="-46" font-family="Helvetica,sans-Serif" font-size="10.00">::Person * &gt;</text>
<polyline fill="none" stroke="#bfbfbf" points="797,-39 893,-39 "/>
<text text-anchor="middle" x="845" y="-27" font-family="Helvetica,sans-Serif" font-size="10.00"> </text>
<polyline fill="none" stroke="#bfbfbf" points="797,-20 893,-20 "/>
<text text-anchor="middle" x="845" y="-8" font-family="Helvetica,sans-Serif" font-size="10.00"> </text>
</g>
<!-- Node2&#45;&gt;Node1 -->
<g id="edge1" class="edge"><title>Node2&#45;&gt;Node1</title>
<path fill="none" stroke="#404040" d="M851.864,-69.417C861.776,-127.212 873.516,-247.197 820,-326 809.95,-340.799 797.299,-332.037 784,-344 783.004,-344.896 782.017,-345.811 781.04,-346.743"/>
<polygon fill="none" stroke="#404040" points="780.85,-346.94 779.552,-354.034 772.505,-355.564 773.803,-348.471 780.85,-346.94"/>
<text text-anchor="middle" x="891.5" y="-199.5" font-family="Helvetica,sans-Serif" font-size="10.00"> &#45;m_members</text>
</g>
<!-- Node3&#45;&gt;Node2 -->
<g id="edge2" class="edge"><title>Node3&#45;&gt;Node2</title>
<path fill="none" stroke="#404040" d="M577.266,-179.429C630.566,-150.875 724.935,-100.321 786.209,-67.495"/>
<polygon fill="none" stroke="#404040" points="786.295,-67.4494 789.695,-61.0901 796.872,-61.7827 793.472,-68.1419 786.295,-67.4494"/>
<text text-anchor="middle" x="770.5" y="-91.5" font-family="Helvetica,sans-Serif" font-size="10.00"> +elements</text>
</g>
<!-- Node4 -->
<g id="node4" class="node"><title>Node4</title>
<g id="a_node4"><a xlink:href="../../dd/d9c/a00487.html" target="_top" xlink:title="{double\n||}">
<polygon fill="white" stroke="black" points="601.5,-416.5 601.5,-473.5 646.5,-473.5 646.5,-416.5 601.5,-416.5"/>
<text text-anchor="middle" x="624" y="-461.5" font-family="Helvetica,sans-Serif" font-size="10.00">double</text>
<polyline fill="none" stroke="black" points="601.5,-454.5 646.5,-454.5 "/>
<text text-anchor="middle" x="624" y="-442.5" font-family="Helvetica,sans-Serif" font-size="10.00"> </text>
<polyline fill="none" stroke="black" points="601.5,-435.5 646.5,-435.5 "/>
<text text-anchor="middle" x="624" y="-423.5" font-family="Helvetica,sans-Serif" font-size="10.00"> </text>
</a>
</g>
</g>
<!-- Node4&#45;&gt;Node3 -->
<g id="edge3" class="edge"><title>Node4&#45;&gt;Node3</title>
<path fill="none" stroke="#404040" d="M614.02,-416.354C603.511,-387.242 586.379,-339.784 570.937,-297.011"/>
<polygon fill="none" stroke="#404040" points="570.919,-296.96 565.119,-292.674 566.844,-285.672 572.644,-289.958 570.919,-296.96"/>
<text text-anchor="middle" x="599" y="-312.5" font-family="Helvetica,sans-Serif" font-size="10.00"> &#45;m_age</text>
</g>
<!-- Node5 -->
<g id="node5" class="node"><title>Node5</title>
<g id="a_node5"><a xlink:href="../../d1/d09/a00077.html" target="_top" xlink:title="{stride::ContactPoolType\l::IdSubscriptArray\&lt; unsigned int \&gt;\n||+ IdSubscriptArray()\l+ IdSubscriptArray()\l+ IdSubscriptArray()\l+ operator[]()\l+ operator[]()\l+ at()\l+ at()\l}">
<polygon fill="white" stroke="black" points="955,-378 955,-512 1121,-512 1121,-378 955,-378"/>
<text text-anchor="start" x="963" y="-500" font-family="Helvetica,sans-Serif" font-size="10.00">stride::ContactPoolType</text>
<text text-anchor="middle" x="1038" y="-489" font-family="Helvetica,sans-Serif" font-size="10.00">::IdSubscriptArray&lt; unsigned int &gt;</text>
<polyline fill="none" stroke="black" points="955,-482 1121,-482 "/>
<text text-anchor="middle" x="1038" y="-470" font-family="Helvetica,sans-Serif" font-size="10.00"> </text>
<polyline fill="none" stroke="black" points="955,-463 1121,-463 "/>
<text text-anchor="start" x="963" y="-451" font-family="Helvetica,sans-Serif" font-size="10.00">+ IdSubscriptArray()</text>
<text text-anchor="start" x="963" y="-440" font-family="Helvetica,sans-Serif" font-size="10.00">+ IdSubscriptArray()</text>
<text text-anchor="start" x="963" y="-429" font-family="Helvetica,sans-Serif" font-size="10.00">+ IdSubscriptArray()</text>
<text text-anchor="start" x="963" y="-418" font-family="Helvetica,sans-Serif" font-size="10.00">+ operator[]()</text>
<text text-anchor="start" x="963" y="-407" font-family="Helvetica,sans-Serif" font-size="10.00">+ operator[]()</text>
<text text-anchor="start" x="963" y="-396" font-family="Helvetica,sans-Serif" font-size="10.00">+ at()</text>
<text text-anchor="start" x="963" y="-385" font-family="Helvetica,sans-Serif" font-size="10.00">+ at()</text>
</a>
</g>
</g>
<!-- Node5&#45;&gt;Node3 -->
<g id="edge5" class="edge"><title>Node5&#45;&gt;Node3</title>
<path fill="none" stroke="#404040" d="M985.354,-377.976C973.109,-365.467 959.404,-353.379 945,-344 884.547,-304.635 684.282,-244.737 588.674,-217.45"/>
<polygon fill="none" stroke="#404040" points="588.543,-217.413 581.678,-219.62 577,-214.132 583.865,-211.925 588.543,-217.413"/>
<text text-anchor="middle" x="935" y="-312.5" font-family="Helvetica,sans-Serif" font-size="10.00"> &#45;m_pool_ids</text>
</g>
<!-- Node6 -->
<g id="node6" class="node"><title>Node6</title>
<g id="a_node6"><a xlink:title="STL class. ">
<polygon fill="white" stroke="#bfbfbf" points="1053.5,-793 1053.5,-861 1160.5,-861 1160.5,-793 1053.5,-793"/>
<text text-anchor="start" x="1061.5" y="-849" font-family="Helvetica,sans-Serif" font-size="10.00">std::array&lt; unsigned</text>
<text text-anchor="middle" x="1107" y="-838" font-family="Helvetica,sans-Serif" font-size="10.00"> int, NumOfTypes()&gt;</text>
<polyline fill="none" stroke="#bfbfbf" points="1053.5,-831 1160.5,-831 "/>
<text text-anchor="middle" x="1107" y="-819" font-family="Helvetica,sans-Serif" font-size="10.00"> </text>
<polyline fill="none" stroke="#bfbfbf" points="1053.5,-812 1160.5,-812 "/>
<text text-anchor="middle" x="1107" y="-800" font-family="Helvetica,sans-Serif" font-size="10.00"> </text>
</a>
</g>
</g>
<!-- Node6&#45;&gt;Node5 -->
<g id="edge6" class="edge"><title>Node6&#45;&gt;Node5</title>
<path fill="none" stroke="midnightblue" d="M1111.17,-782.673C1114.94,-730.041 1117.34,-638.99 1098,-564 1093.47,-546.419 1086.02,-528.452 1077.88,-512.011"/>
<polygon fill="none" stroke="midnightblue" points="1107.67,-782.432 1110.4,-792.671 1114.65,-782.969 1107.67,-782.432"/>
</g>
<!-- Node7 -->
<g id="node7" class="node"><title>Node7</title>
<polygon fill="white" stroke="#bfbfbf" points="1110.5,-986.5 1110.5,-1043.5 1139.5,-1043.5 1139.5,-986.5 1110.5,-986.5"/>
<text text-anchor="middle" x="1125" y="-1031.5" font-family="Helvetica,sans-Serif" font-size="10.00">T</text>
<polyline fill="none" stroke="#bfbfbf" points="1110.5,-1024.5 1139.5,-1024.5 "/>
<text text-anchor="middle" x="1125" y="-1012.5" font-family="Helvetica,sans-Serif" font-size="10.00"> </text>
<polyline fill="none" stroke="#bfbfbf" points="1110.5,-1005.5 1139.5,-1005.5 "/>
<text text-anchor="middle" x="1125" y="-993.5" font-family="Helvetica,sans-Serif" font-size="10.00"> </text>
</g>
<!-- Node7&#45;&gt;Node6 -->
<g id="edge7" class="edge"><title>Node7&#45;&gt;Node6</title>
<path fill="none" stroke="#404040" d="M1122.31,-986.154C1119.42,-956.368 1114.81,-908.664 1111.4,-873.428"/>
<polygon fill="none" stroke="#404040" points="1111.36,-873.011 1106.8,-867.425 1110.2,-861.067 1114.76,-866.654 1111.36,-873.011"/>
<text text-anchor="middle" x="1145.5" y="-959.5" font-family="Helvetica,sans-Serif" font-size="10.00"> +elements</text>
</g>
<!-- Node9 -->
<g id="node9" class="node"><title>Node9</title>
<g id="a_node9"><a xlink:title="STL class. ">
<polygon fill="white" stroke="#bfbfbf" points="948.5,-880.5 948.5,-937.5 1097.5,-937.5 1097.5,-880.5 948.5,-880.5"/>
<text text-anchor="middle" x="1023" y="-925.5" font-family="Helvetica,sans-Serif" font-size="10.00">std::array&lt; T, NumOfTypes()&gt;</text>
<polyline fill="none" stroke="#bfbfbf" points="948.5,-918.5 1097.5,-918.5 "/>
<text text-anchor="middle" x="1023" y="-906.5" font-family="Helvetica,sans-Serif" font-size="10.00"> </text>
<polyline fill="none" stroke="#bfbfbf" points="948.5,-899.5 1097.5,-899.5 "/>
<text text-anchor="middle" x="1023" y="-887.5" font-family="Helvetica,sans-Serif" font-size="10.00"> </text>
</a>
</g>
</g>
<!-- Node7&#45;&gt;Node9 -->
<g id="edge10" class="edge"><title>Node7&#45;&gt;Node9</title>
<path fill="none" stroke="#404040" d="M1110.4,-1007.32C1094.86,-999.624 1070.3,-985.733 1054,-968 1048.68,-962.208 1043.97,-955.332 1039.94,-948.375"/>
<polygon fill="none" stroke="#404040" points="1039.8,-948.114 1033.45,-944.696 1034.16,-937.521 1040.51,-940.939 1039.8,-948.114"/>
<text text-anchor="middle" x="1078.5" y="-959.5" font-family="Helvetica,sans-Serif" font-size="10.00"> +elements</text>
</g>
<!-- Node20 -->
<g id="node20" class="node"><title>Node20</title>
<g id="a_node20"><a xlink:title="STL class. ">
<polygon fill="white" stroke="#bfbfbf" points="1165.5,-798.5 1165.5,-855.5 1252.5,-855.5 1252.5,-798.5 1165.5,-798.5"/>
<text text-anchor="middle" x="1209" y="-843.5" font-family="Helvetica,sans-Serif" font-size="10.00">std::vector&lt; T &gt;</text>
<polyline fill="none" stroke="#bfbfbf" points="1165.5,-836.5 1252.5,-836.5 "/>
<text text-anchor="middle" x="1209" y="-824.5" font-family="Helvetica,sans-Serif" font-size="10.00"> </text>
<polyline fill="none" stroke="#bfbfbf" points="1165.5,-817.5 1252.5,-817.5 "/>
<text text-anchor="middle" x="1209" y="-805.5" font-family="Helvetica,sans-Serif" font-size="10.00"> </text>
</a>
</g>
</g>
<!-- Node7&#45;&gt;Node20 -->
<g id="edge22" class="edge"><title>Node7&#45;&gt;Node20</title>
<path fill="none" stroke="#404040" d="M1139.59,-1003.96C1150.65,-995.586 1165.37,-982.69 1174,-968 1192.12,-937.137 1200.92,-897.122 1205.15,-867.78"/>
<polygon fill="none" stroke="#404040" points="1205.2,-867.419 1202.01,-860.953 1206.75,-855.52 1209.94,-861.986 1205.2,-867.419"/>
<text text-anchor="middle" x="1203.5" y="-959.5" font-family="Helvetica,sans-Serif" font-size="10.00"> +elements</text>
</g>
<!-- Node8 -->
<g id="node8" class="node"><title>Node8</title>
<g id="a_node8"><a xlink:href="../../d1/d09/a00077.html" target="_top" xlink:title="An std::array modified to enable subscripting with the constact pool type indentifiers. ">
<polygon fill="white" stroke="black" points="962,-639 962,-773 1084,-773 1084,-639 962,-639"/>
<text text-anchor="start" x="970" y="-761" font-family="Helvetica,sans-Serif" font-size="10.00">stride::ContactPoolType</text>
<text text-anchor="middle" x="1023" y="-750" font-family="Helvetica,sans-Serif" font-size="10.00">::IdSubscriptArray&lt; T &gt;</text>
<polyline fill="none" stroke="black" points="962,-743 1084,-743 "/>
<text text-anchor="middle" x="1023" y="-731" font-family="Helvetica,sans-Serif" font-size="10.00"> </text>
<polyline fill="none" stroke="black" points="962,-724 1084,-724 "/>
<text text-anchor="start" x="970" y="-712" font-family="Helvetica,sans-Serif" font-size="10.00">+ IdSubscriptArray()</text>
<text text-anchor="start" x="970" y="-701" font-family="Helvetica,sans-Serif" font-size="10.00">+ IdSubscriptArray()</text>
<text text-anchor="start" x="970" y="-690" font-family="Helvetica,sans-Serif" font-size="10.00">+ IdSubscriptArray()</text>
<text text-anchor="start" x="970" y="-679" font-family="Helvetica,sans-Serif" font-size="10.00">+ operator[]()</text>
<text text-anchor="start" x="970" y="-668" font-family="Helvetica,sans-Serif" font-size="10.00">+ operator[]()</text>
<text text-anchor="start" x="970" y="-657" font-family="Helvetica,sans-Serif" font-size="10.00">+ at()</text>
<text text-anchor="start" x="970" y="-646" font-family="Helvetica,sans-Serif" font-size="10.00">+ at()</text>
</a>
</g>
</g>
<!-- Node8&#45;&gt;Node5 -->
<g id="edge8" class="edge"><title>Node8&#45;&gt;Node5</title>
<path fill="none" stroke="orange" d="M1022,-628.797C1022.14,-607.785 1022.68,-584.996 1024,-564 1025.06,-547.117 1026.87,-528.942 1028.86,-512.036"/>
<polygon fill="orange" stroke="orange" points="1018.49,-628.94 1021.96,-638.954 1025.49,-628.967 1018.49,-628.94"/>
<text text-anchor="middle" x="1061" y="-589.5" font-family="Helvetica,sans-Serif" font-size="10.00"> &lt; unsigned int &gt;</text>
</g>
<!-- Node9&#45;&gt;Node8 -->
<g id="edge9" class="edge"><title>Node9&#45;&gt;Node8</title>
<path fill="none" stroke="midnightblue" d="M1023,-870.181C1023,-842.879 1023,-805.305 1023,-773.093"/>
<polygon fill="none" stroke="midnightblue" points="1019.5,-870.473 1023,-880.473 1026.5,-870.473 1019.5,-870.473"/>
</g>
<!-- Node10 -->
<g id="node10" class="node"><title>Node10</title>
<polygon fill="white" stroke="#bfbfbf" points="315.5,-416.5 315.5,-473.5 350.5,-473.5 350.5,-416.5 315.5,-416.5"/>
<text text-anchor="middle" x="333" y="-461.5" font-family="Helvetica,sans-Serif" font-size="10.00">char</text>
<polyline fill="none" stroke="#bfbfbf" points="315.5,-454.5 350.5,-454.5 "/>
<text text-anchor="middle" x="333" y="-442.5" font-family="Helvetica,sans-Serif" font-size="10.00"> </text>
<polyline fill="none" stroke="#bfbfbf" points="315.5,-435.5 350.5,-435.5 "/>
<text text-anchor="middle" x="333" y="-423.5" font-family="Helvetica,sans-Serif" font-size="10.00"> </text>
</g>
<!-- Node10&#45;&gt;Node3 -->
<g id="edge11" class="edge"><title>Node10&#45;&gt;Node3</title>
<path fill="none" stroke="#404040" d="M323.772,-416.397C315.526,-386.335 307.71,-338.006 329,-304 362.947,-249.778 435.232,-223.924 484.969,-212.132"/>
<polygon fill="none" stroke="#404040" points="485.066,-212.11 490.05,-206.898 496.778,-209.493 491.794,-214.705 485.066,-212.11"/>
<text text-anchor="middle" x="353.5" y="-312.5" font-family="Helvetica,sans-Serif" font-size="10.00"> &#45;m_gender</text>
</g>
<!-- Node11 -->
<g id="node11" class="node"><title>Node11</title>
<g id="a_node11"><a xlink:href="../../d9/dcc/a00102.html" target="_top" xlink:title="Specialisation of IdSubscriptArray foor booleans. ">
<polygon fill="white" stroke="black" points="166.5,-383.5 166.5,-506.5 297.5,-506.5 297.5,-383.5 166.5,-383.5"/>
<text text-anchor="start" x="174.5" y="-494.5" font-family="Helvetica,sans-Serif" font-size="10.00">stride::ContactPoolType</text>
<text text-anchor="middle" x="232" y="-483.5" font-family="Helvetica,sans-Serif" font-size="10.00">::IdSubscriptArray&lt; bool &gt;</text>
<polyline fill="none" stroke="black" points="166.5,-476.5 297.5,-476.5 "/>
<text text-anchor="middle" x="232" y="-464.5" font-family="Helvetica,sans-Serif" font-size="10.00"> </text>
<polyline fill="none" stroke="black" points="166.5,-457.5 297.5,-457.5 "/>
<text text-anchor="start" x="174.5" y="-445.5" font-family="Helvetica,sans-Serif" font-size="10.00">+ IdSubscriptArray()</text>
<text text-anchor="start" x="174.5" y="-434.5" font-family="Helvetica,sans-Serif" font-size="10.00">+ IdSubscriptArray()</text>
<text text-anchor="start" x="174.5" y="-423.5" font-family="Helvetica,sans-Serif" font-size="10.00">+ operator[]()</text>
<text text-anchor="start" x="174.5" y="-412.5" font-family="Helvetica,sans-Serif" font-size="10.00">+ operator[]()</text>
<text text-anchor="start" x="174.5" y="-401.5" font-family="Helvetica,sans-Serif" font-size="10.00">+ at()</text>
<text text-anchor="start" x="174.5" y="-390.5" font-family="Helvetica,sans-Serif" font-size="10.00">+ at()</text>
</a>
</g>
</g>
<!-- Node11&#45;&gt;Node3 -->
<g id="edge12" class="edge"><title>Node11&#45;&gt;Node3</title>
<path fill="none" stroke="#404040" d="M231.195,-383.41C233.834,-356.344 241.354,-325.725 260,-304 317.038,-237.543 421.563,-214.803 484.624,-207.03"/>
<polygon fill="none" stroke="#404040" points="484.733,-207.017 490.244,-202.367 496.656,-205.666 491.145,-210.316 484.733,-207.017"/>
<text text-anchor="middle" x="288" y="-312.5" font-family="Helvetica,sans-Serif" font-size="10.00"> &#45;m_in_pools</text>
</g>
<!-- Node12 -->
<g id="node12" class="node"><title>Node12</title>
<g id="a_node12"><a xlink:title="STL class. ">
<polygon fill="white" stroke="#bfbfbf" points="162,-677.5 162,-734.5 302,-734.5 302,-677.5 162,-677.5"/>
<text text-anchor="middle" x="232" y="-722.5" font-family="Helvetica,sans-Serif" font-size="10.00">std::bitset&lt; NumOfTypes()&gt;</text>
<polyline fill="none" stroke="#bfbfbf" points="162,-715.5 302,-715.5 "/>
<text text-anchor="middle" x="232" y="-703.5" font-family="Helvetica,sans-Serif" font-size="10.00"> </text>
<polyline fill="none" stroke="#bfbfbf" points="162,-696.5 302,-696.5 "/>
<text text-anchor="middle" x="232" y="-684.5" font-family="Helvetica,sans-Serif" font-size="10.00"> </text>
</a>
</g>
</g>
<!-- Node12&#45;&gt;Node11 -->
<g id="edge13" class="edge"><title>Node12&#45;&gt;Node11</title>
<path fill="none" stroke="midnightblue" d="M232,-667.173C232,-625.05 232,-556.366 232,-506.704"/>
<polygon fill="none" stroke="midnightblue" points="228.5,-667.282 232,-677.282 235.5,-667.282 228.5,-667.282"/>
</g>
<!-- Node13 -->
<g id="node13" class="node"><title>Node13</title>
<polygon fill="white" stroke="#bfbfbf" points="402.5,-677.5 402.5,-734.5 431.5,-734.5 431.5,-677.5 402.5,-677.5"/>
<text text-anchor="middle" x="417" y="-722.5" font-family="Helvetica,sans-Serif" font-size="10.00">int</text>
<polyline fill="none" stroke="#bfbfbf" points="402.5,-715.5 431.5,-715.5 "/>
<text text-anchor="middle" x="417" y="-703.5" font-family="Helvetica,sans-Serif" font-size="10.00"> </text>
<polyline fill="none" stroke="#bfbfbf" points="402.5,-696.5 431.5,-696.5 "/>
<text text-anchor="middle" x="417" y="-684.5" font-family="Helvetica,sans-Serif" font-size="10.00"> </text>
</g>
<!-- Node13&#45;&gt;Node1 -->
<g id="edge23" class="edge"><title>Node13&#45;&gt;Node1</title>
<path fill="none" stroke="#404040" d="M429.17,-677.454C445.294,-644.511 477.038,-590.502 522,-564 573.387,-533.71 604.603,-577.911 655,-546 656.804,-544.858 658.568,-543.645 660.293,-542.37"/>
<polygon fill="none" stroke="#404040" points="660.552,-542.152 662.573,-535.23 669.74,-534.432 667.719,-541.354 660.552,-542.152"/>
<text text-anchor="middle" x="547.5" y="-589.5" font-family="Helvetica,sans-Serif" font-size="10.00"> &#45;m_pool_id</text>
</g>
<!-- Node13&#45;&gt;Node3 -->
<g id="edge14" class="edge"><title>Node13&#45;&gt;Node3</title>
<path fill="none" stroke="#404040" d="M411.237,-677.175C399.658,-615.089 378.152,-461.471 421,-344 434.652,-306.573 462.858,-271.91 488.037,-246.319"/>
<polygon fill="none" stroke="#404040" points="488.261,-246.098 489.71,-239.034 496.789,-237.655 495.339,-244.719 488.261,-246.098"/>
<text text-anchor="middle" x="478" y="-448" font-family="Helvetica,sans-Serif" font-size="10.00"> &#45;m_travelDaysRemaining</text>
<text text-anchor="middle" x="478" y="-437" font-family="Helvetica,sans-Serif" font-size="10.00">&#45;m_id</text>
</g>
<!-- Node14 -->
<g id="node14" class="node"><title>Node14</title>
<polygon fill="white" stroke="#bfbfbf" points="-0.5,-416.5 -0.5,-473.5 34.5,-473.5 34.5,-416.5 -0.5,-416.5"/>
<text text-anchor="middle" x="17" y="-461.5" font-family="Helvetica,sans-Serif" font-size="10.00">bool</text>
<polyline fill="none" stroke="#bfbfbf" points="-0.5,-454.5 34.5,-454.5 "/>
<text text-anchor="middle" x="17" y="-442.5" font-family="Helvetica,sans-Serif" font-size="10.00"> </text>
<polyline fill="none" stroke="#bfbfbf" points="-0.5,-435.5 34.5,-435.5 "/>
<text text-anchor="middle" x="17" y="-423.5" font-family="Helvetica,sans-Serif" font-size="10.00"> </text>
</g>
<!-- Node14&#45;&gt;Node3 -->
<g id="edge15" class="edge"><title>Node14&#45;&gt;Node3</title>
<path fill="none" stroke="#404040" d="M23.0487,-416.448C28.5562,-395.37 38.1307,-366.243 53,-344 67.6878,-322.029 73.5791,-316.245 97,-304 225.925,-236.597 399.215,-213.839 484.752,-206.421"/>
<polygon fill="none" stroke="#404040" points="484.76,-206.42 490.411,-201.94 496.72,-205.434 491.069,-209.913 484.76,-206.42"/>
<text text-anchor="middle" x="134.5" y="-318" font-family="Helvetica,sans-Serif" font-size="10.00"> &#45;m_isTravelling</text>
<text text-anchor="middle" x="134.5" y="-307" font-family="Helvetica,sans-Serif" font-size="10.00">&#45;m_is_participant</text>
</g>
<!-- Node15 -->
<g id="node15" class="node"><title>Node15</title>
<g id="a_node15"><a xlink:href="../../d9/df8/a00096.html" target="_top" xlink:title="Base class for all belief policies. ">
<polygon fill="white" stroke="black" points="62,-405.5 62,-484.5 148,-484.5 148,-405.5 62,-405.5"/>
<text text-anchor="middle" x="105" y="-472.5" font-family="Helvetica,sans-Serif" font-size="10.00">stride::Belief</text>
<polyline fill="none" stroke="black" points="62,-465.5 148,-465.5 "/>
<text text-anchor="middle" x="105" y="-453.5" font-family="Helvetica,sans-Serif" font-size="10.00"> </text>
<polyline fill="none" stroke="black" points="62,-446.5 148,-446.5 "/>
<text text-anchor="start" x="70" y="-434.5" font-family="Helvetica,sans-Serif" font-size="10.00">+ Belief()</text>
<text text-anchor="start" x="70" y="-423.5" font-family="Helvetica,sans-Serif" font-size="10.00">+ ~Belief()</text>
<text text-anchor="start" x="70" y="-412.5" font-family="Helvetica,sans-Serif" font-size="10.00">+ HasAdopted()</text>
</a>
</g>
</g>
<!-- Node15&#45;&gt;Node3 -->
<g id="edge16" class="edge"><title>Node15&#45;&gt;Node3</title>
<path fill="none" stroke="#404040" d="M119.91,-405.355C134.956,-372.174 161.628,-326.278 201,-304 293.578,-251.617 416.203,-223.702 484.802,-211.248"/>
<polygon fill="none" stroke="#404040" points="485.146,-211.188 490.359,-206.205 496.963,-209.101 491.75,-214.083 485.146,-211.188"/>
<text text-anchor="middle" x="222.5" y="-312.5" font-family="Helvetica,sans-Serif" font-size="10.00"> &#45;m_belief</text>
</g>
<!-- Node16 -->
<g id="node16" class="node"><title>Node16</title>
<g id="a_node16"><a xlink:href="../../d3/d00/a00113.html" target="_top" xlink:title="Holds a person&#39;s health data. ">
<polygon fill="white" stroke="black" points="793.5,-345 793.5,-545 936.5,-545 936.5,-345 793.5,-345"/>
<text text-anchor="middle" x="865" y="-533" font-family="Helvetica,sans-Serif" font-size="10.00">stride::Health</text>
<polyline fill="none" stroke="black" points="793.5,-526 936.5,-526 "/>
<text text-anchor="middle" x="865" y="-514" font-family="Helvetica,sans-Serif" font-size="10.00"> </text>
<polyline fill="none" stroke="black" points="793.5,-507 936.5,-507 "/>
<text text-anchor="start" x="801.5" y="-495" font-family="Helvetica,sans-Serif" font-size="10.00">+ Health()</text>
<text text-anchor="start" x="801.5" y="-484" font-family="Helvetica,sans-Serif" font-size="10.00">+ GetEndInfectiousness()</text>
<text text-anchor="start" x="801.5" y="-473" font-family="Helvetica,sans-Serif" font-size="10.00">+ GetEndSymptomatic()</text>
<text text-anchor="start" x="801.5" y="-462" font-family="Helvetica,sans-Serif" font-size="10.00">+ GetStartInfectiousness()</text>
<text text-anchor="start" x="801.5" y="-451" font-family="Helvetica,sans-Serif" font-size="10.00">+ GetStartSymptomatic()</text>
<text text-anchor="start" x="801.5" y="-440" font-family="Helvetica,sans-Serif" font-size="10.00">+ IsImmune()</text>
<text text-anchor="start" x="801.5" y="-429" font-family="Helvetica,sans-Serif" font-size="10.00">+ IsInfected()</text>
<text text-anchor="start" x="801.5" y="-418" font-family="Helvetica,sans-Serif" font-size="10.00">+ IsInfectious()</text>
<text text-anchor="start" x="801.5" y="-407" font-family="Helvetica,sans-Serif" font-size="10.00">+ IsRecovered()</text>
<text text-anchor="start" x="801.5" y="-396" font-family="Helvetica,sans-Serif" font-size="10.00">+ IsSusceptible()</text>
<text text-anchor="start" x="801.5" y="-385" font-family="Helvetica,sans-Serif" font-size="10.00">and 6 more...</text>
<text text-anchor="start" x="801.5" y="-374" font-family="Helvetica,sans-Serif" font-size="10.00">&#45; GetDiseaseCounter()</text>
<text text-anchor="start" x="801.5" y="-363" font-family="Helvetica,sans-Serif" font-size="10.00">&#45; IncrementDiseaseCounter()</text>
<text text-anchor="start" x="801.5" y="-352" font-family="Helvetica,sans-Serif" font-size="10.00">&#45; ResetDiseaseCounter()</text>
</a>
</g>
</g>
<!-- Node16&#45;&gt;Node3 -->
<g id="edge17" class="edge"><title>Node16&#45;&gt;Node3</title>
<path fill="none" stroke="#404040" d="M793.406,-355.247C790.239,-351.437 787.094,-347.674 784,-344 768.785,-325.93 767.83,-318.264 749,-304 699.373,-266.408 633.517,-237.726 588.452,-220.7"/>
<polygon fill="none" stroke="#404040" points="588.432,-220.692 581.416,-222.357 577.181,-216.52 584.197,-214.856 588.432,-220.692"/>
<text text-anchor="middle" x="793" y="-312.5" font-family="Helvetica,sans-Serif" font-size="10.00"> &#45;m_health</text>
</g>
<!-- Node17 -->
<g id="node17" class="node"><title>Node17</title>
<polygon fill="white" stroke="#bfbfbf" points="870,-677.5 870,-734.5 944,-734.5 944,-677.5 870,-677.5"/>
<text text-anchor="middle" x="907" y="-722.5" font-family="Helvetica,sans-Serif" font-size="10.00">HealthStatus</text>
<polyline fill="none" stroke="#bfbfbf" points="870,-715.5 944,-715.5 "/>
<text text-anchor="middle" x="907" y="-703.5" font-family="Helvetica,sans-Serif" font-size="10.00"> </text>
<polyline fill="none" stroke="#bfbfbf" points="870,-696.5 944,-696.5 "/>
<text text-anchor="middle" x="907" y="-684.5" font-family="Helvetica,sans-Serif" font-size="10.00"> </text>
</g>
<!-- Node17&#45;&gt;Node16 -->
<g id="edge18" class="edge"><title>Node17&#45;&gt;Node16</title>
<path fill="none" stroke="#404040" d="M902.807,-677.425C898.457,-648.989 891.408,-603.37 885,-564 884.624,-561.693 884.243,-559.361 883.858,-557.01"/>
<polygon fill="none" stroke="#404040" points="883.852,-556.973 878.929,-551.704 881.899,-545.133 886.822,-550.402 883.852,-556.973"/>
<text text-anchor="middle" x="917.5" y="-589.5" font-family="Helvetica,sans-Serif" font-size="10.00"> &#45;m_status</text>
</g>
<!-- Node18 -->
<g id="node18" class="node"><title>Node18</title>
<polygon fill="white" stroke="#bfbfbf" points="732,-677.5 732,-734.5 826,-734.5 826,-677.5 732,-677.5"/>
<text text-anchor="middle" x="779" y="-722.5" font-family="Helvetica,sans-Serif" font-size="10.00">unsigned short int</text>
<polyline fill="none" stroke="#bfbfbf" points="732,-715.5 826,-715.5 "/>
<text text-anchor="middle" x="779" y="-703.5" font-family="Helvetica,sans-Serif" font-size="10.00"> </text>
<polyline fill="none" stroke="#bfbfbf" points="732,-696.5 826,-696.5 "/>
<text text-anchor="middle" x="779" y="-684.5" font-family="Helvetica,sans-Serif" font-size="10.00"> </text>
</g>
<!-- Node18&#45;&gt;Node16 -->
<g id="edge19" class="edge"><title>Node18&#45;&gt;Node16</title>
<path fill="none" stroke="#404040" d="M773.036,-677.411C767.981,-648.372 763.367,-601.729 776,-564 777.796,-558.637 781.611,-551.623 786.698,-543.685"/>
<polygon fill="none" stroke="#404040" points="786.788,-543.552 786.816,-536.341 793.484,-533.593 793.455,-540.805 786.788,-543.552"/>
<text text-anchor="middle" x="828.5" y="-611.5" font-family="Helvetica,sans-Serif" font-size="10.00"> &#45;m_start_symptomatic</text>
<text text-anchor="middle" x="828.5" y="-600.5" font-family="Helvetica,sans-Serif" font-size="10.00">&#45;m_disease_counter</text>
<text text-anchor="middle" x="828.5" y="-589.5" font-family="Helvetica,sans-Serif" font-size="10.00">&#45;m_end_symptomatic</text>
<text text-anchor="middle" x="828.5" y="-578.5" font-family="Helvetica,sans-Serif" font-size="10.00">&#45;m_end_infectiousness</text>
<text text-anchor="middle" x="828.5" y="-567.5" font-family="Helvetica,sans-Serif" font-size="10.00">&#45;m_start_infectiousness</text>
</g>
<!-- Node19 -->
<g id="node19" class="node"><title>Node19</title>
<polygon fill="white" stroke="#bfbfbf" points="539.5,-677.5 539.5,-734.5 582.5,-734.5 582.5,-677.5 539.5,-677.5"/>
<text text-anchor="middle" x="561" y="-722.5" font-family="Helvetica,sans-Serif" font-size="10.00">size_t</text>
<polyline fill="none" stroke="#bfbfbf" points="539.5,-715.5 582.5,-715.5 "/>
<text text-anchor="middle" x="561" y="-703.5" font-family="Helvetica,sans-Serif" font-size="10.00"> </text>
<polyline fill="none" stroke="#bfbfbf" points="539.5,-696.5 582.5,-696.5 "/>
<text text-anchor="middle" x="561" y="-684.5" font-family="Helvetica,sans-Serif" font-size="10.00"> </text>
</g>
<!-- Node19&#45;&gt;Node1 -->
<g id="edge25" class="edge"><title>Node19&#45;&gt;Node1</title>
<path fill="none" stroke="#404040" d="M563.254,-677.294C567.219,-645.953 578.118,-595.226 608,-564 623.465,-547.839 637.608,-560.067 655,-546 656.223,-545.011 657.43,-543.993 658.622,-542.948"/>
<polygon fill="none" stroke="#404040" points="658.802,-542.775 660.354,-535.733 667.452,-534.458 665.899,-541.5 658.802,-542.775"/>
<text text-anchor="middle" x="648" y="-595" font-family="Helvetica,sans-Serif" font-size="10.00"> &#45;m_capacity</text>
<text text-anchor="middle" x="648" y="-584" font-family="Helvetica,sans-Serif" font-size="10.00">&#45;m_index_immune</text>
</g>
<!-- Node19&#45;&gt;Node3 -->
<g id="edge20" class="edge"><title>Node19&#45;&gt;Node3</title>
<path fill="none" stroke="#404040" d="M557.831,-677.469C554.319,-645.8 548.783,-592.22 546,-546 540.95,-462.14 538.733,-366.578 537.76,-297.659"/>
<polygon fill="none" stroke="#404040" points="537.758,-297.541 533.678,-291.595 537.597,-285.542 541.677,-291.488 537.758,-297.541"/>
<text text-anchor="middle" x="569" y="-442.5" font-family="Helvetica,sans-Serif" font-size="10.00"> &#45;m_region</text>
</g>
<!-- Node20&#45;&gt;Node2 -->
<g id="edge21" class="edge"><title>Node20&#45;&gt;Node2</title>
<path fill="none" stroke="orange" d="M1202.2,-788.402C1194.5,-742.463 1183,-662.292 1183,-593 1183,-593 1183,-593 1183,-201 1183,-73.5032 986.384,-44.5077 893.068,-37.9259"/>
<polygon fill="orange" stroke="orange" points="1198.79,-789.225 1203.93,-798.493 1205.69,-788.047 1198.79,-789.225"/>
<text text-anchor="middle" x="1227.5" y="-442.5" font-family="Helvetica,sans-Serif" font-size="10.00"> &lt; stride::Person * &gt;</text>
</g>
<!-- Node21 -->
<g id="node21" class="node"><title>Node21</title>
<polygon fill="white" stroke="#bfbfbf" points="679.5,-677.5 679.5,-734.5 708.5,-734.5 708.5,-677.5 679.5,-677.5"/>
<text text-anchor="middle" x="694" y="-722.5" font-family="Helvetica,sans-Serif" font-size="10.00">Id</text>
<polyline fill="none" stroke="#bfbfbf" points="679.5,-715.5 708.5,-715.5 "/>
<text text-anchor="middle" x="694" y="-703.5" font-family="Helvetica,sans-Serif" font-size="10.00"> </text>
<polyline fill="none" stroke="#bfbfbf" points="679.5,-696.5 708.5,-696.5 "/>
<text text-anchor="middle" x="694" y="-684.5" font-family="Helvetica,sans-Serif" font-size="10.00"> </text>
</g>
<!-- Node21&#45;&gt;Node1 -->
<g id="edge24" class="edge"><title>Node21&#45;&gt;Node1</title>
<path fill="none" stroke="#404040" d="M692.557,-677.347C691.453,-648.85 690.754,-603.183 695,-564 695.623,-558.252 696.402,-552.371 697.297,-546.453"/>
<polygon fill="none" stroke="#404040" points="697.35,-546.128 694.368,-539.562 699.282,-534.285 702.264,-540.85 697.35,-546.128"/>
<text text-anchor="middle" x="726" y="-589.5" font-family="Helvetica,sans-Serif" font-size="10.00"> &#45;m_pool_type</text>
</g>
</g>
</svg>
        <g id="navigator" transform="translate(0 0)" fill="#404254">
                <rect fill="#f2f5e9" fill-opacity="0.5" stroke="#606060" stroke-width=".5" x="0" y="0" width="60" height="60"/>
                <use id="zoomplus" xlink:href="#zoomPlus" x="17" y="9" onmousedown="handleZoom(evt,'in')"/>
                <use id="zoomminus" xlink:href="#zoomMin" x="42" y="9" onmousedown="handleZoom(evt,'out')"/>
                <use id="reset" xlink:href="#resetDef" x="30" y="36" onmousedown="handleReset()"/>
                <g id="arrowUp" xlink:href="#dirArrow" transform="translate(30 24)" onmousedown="handlePan(0,-1)">
                  <use xlink:href="#rim" fill="#404040">
                        <set attributeName="fill" to="#808080" begin="arrowUp.mouseover" end="arrowUp.mouseout"/>
                  </use>
                  <path fill="none" stroke="white" stroke-width="1.5" d="M0,-3.0v7 M-2.5,-0.5L0,-3.0L2.5,-0.5"/>
                </g>
                <g id="arrowRight" xlink:href="#dirArrow" transform="rotate(90) translate(36 -43)" onmousedown="handlePan(1,0)">
                  <use xlink:href="#rim" fill="#404040">
                        <set attributeName="fill" to="#808080" begin="arrowRight.mouseover" end="arrowRight.mouseout"/>
                  </use>
                  <path fill="none" stroke="white" stroke-width="1.5" d="M0,-3.0v7 M-2.5,-0.5L0,-3.0L2.5,-0.5"/>
                </g>
                <g id="arrowDown" xlink:href="#dirArrow" transform="rotate(180) translate(-30 -48)" onmousedown="handlePan(0,1)">
                  <use xlink:href="#rim" fill="#404040">
                        <set attributeName="fill" to="#808080" begin="arrowDown.mouseover" end="arrowDown.mouseout"/>
                  </use>
                  <path fill="none" stroke="white" stroke-width="1.5" d="M0,-3.0v7 M-2.5,-0.5L0,-3.0L2.5,-0.5"/>
                </g>
                <g id="arrowLeft" xlink:href="#dirArrow" transform="rotate(270) translate(-36 17)" onmousedown="handlePan(-1,0)">
                  <use xlink:href="#rim" fill="#404040">
                        <set attributeName="fill" to="#808080" begin="arrowLeft.mouseover" end="arrowLeft.mouseout"/>
                  </use>
                  <path fill="none" stroke="white" stroke-width="1.5" d="M0,-3.0v7 M-2.5,-0.5L0,-3.0L2.5,-0.5"/>
                </g>
        </g>
        <svg viewBox="0 0 15 15" width="100%" height="30px" preserveAspectRatio="xMaxYMin meet">
         <g id="arrow_out" transform="scale(0.3 0.3)">
          <a xlink:href="a01241_org.svg" target="_base">
           <rect id="button" ry="5" rx="5" y="6" x="6" height="38" width="38"
                fill="#f2f5e9" fill-opacity="0.5" stroke="#606060" stroke-width="1.0"/>
           <path id="arrow"
             d="M 11.500037,31.436501 C 11.940474,20.09759 22.043105,11.32322 32.158766,21.979434 L 37.068811,17.246167 C 37.068811,17.246167 37.088388,32 37.088388,32 L 22.160133,31.978069 C 22.160133,31.978069 26.997745,27.140456 26.997745,27.140456 C 18.528582,18.264221 13.291696,25.230495 11.500037,31.436501 z"
             style="fill:#404040;"/>
          </a>
         </g>
        </svg>
</svg>
