<?xml version="1.0" encoding="UTF-8" standalone="no"?>
<!DOCTYPE svg PUBLIC "-//W3C//DTD SVG 1.1//EN"
 "http://www.w3.org/Graphics/SVG/1.1/DTD/svg11.dtd">
<!-- Generated by graphviz version 2.36.0 (20140111.2315)
 -->
<!-- Title: gengeopop::GeoGridProtoWriter::WriteContactCenter Pages: 1 -->
<svg width="540pt" height="288pt"
 viewBox="0.00 0.00 540.00 288.00" xmlns="http://www.w3.org/2000/svg" xmlns:xlink="http://www.w3.org/1999/xlink">
<g id="graph0" class="graph" transform="scale(1 1) rotate(0) translate(4 284)">
<title>gengeopop::GeoGridProtoWriter::WriteContactCenter</title>
<polygon fill="white" stroke="none" points="-4,4 -4,-284 536,-284 536,4 -4,4"/>
<!-- Node1 -->
<g id="node1" class="node"><title>Node1</title>
<polygon fill="#bfbfbf" stroke="black" points="0.5,-176 0.5,-206 155.5,-206 155.5,-176 0.5,-176"/>
<text text-anchor="start" x="8.5" y="-194" font-family="Helvetica,sans-Serif" font-size="10.00">gengeopop::GeoGridProtoWriter</text>
<text text-anchor="middle" x="78" y="-183" font-family="Helvetica,sans-Serif" font-size="10.00">::WriteContactCenter</text>
</g>
<!-- Node2 -->
<g id="node2" class="node"><title>Node2</title>
<g id="a_node2"><a xlink:href="../../df/d5d/a00084.html#ad60595d25a1d1bd0fde30587f42fb4b0" target="_top" xlink:title="proto::GeoGrid_Location\l_ContactCenter::add_pools">
<polygon fill="white" stroke="black" points="202,-250 202,-280 338,-280 338,-250 202,-250"/>
<text text-anchor="start" x="210" y="-268" font-family="Helvetica,sans-Serif" font-size="10.00">proto::GeoGrid_Location</text>
<text text-anchor="middle" x="270" y="-257" font-family="Helvetica,sans-Serif" font-size="10.00">_ContactCenter::add_pools</text>
</a>
</g>
</g>
<!-- Node1&#45;&gt;Node2 -->
<g id="edge1" class="edge"><title>Node1&#45;&gt;Node2</title>
<path fill="none" stroke="midnightblue" d="M111.788,-206.203C134.163,-216.333 164.599,-229.638 192,-240 197.953,-242.251 204.209,-244.488 210.475,-246.646"/>
<polygon fill="midnightblue" stroke="midnightblue" points="209.692,-250.076 220.286,-249.961 211.933,-243.444 209.692,-250.076"/>
</g>
<!-- Node3 -->
<g id="node3" class="node"><title>Node3</title>
<g id="a_node3"><a xlink:href="../../df/d5d/a00084.html#a8e7caabf4b4a582a09158b2f9b081147" target="_top" xlink:title="proto::GeoGrid_Location\l_ContactCenter::set_id">
<polygon fill="white" stroke="black" points="209,-201 209,-231 331,-231 331,-201 209,-201"/>
<text text-anchor="start" x="217" y="-219" font-family="Helvetica,sans-Serif" font-size="10.00">proto::GeoGrid_Location</text>
<text text-anchor="middle" x="270" y="-208" font-family="Helvetica,sans-Serif" font-size="10.00">_ContactCenter::set_id</text>
</a>
</g>
</g>
<!-- Node1&#45;&gt;Node3 -->
<g id="edge2" class="edge"><title>Node1&#45;&gt;Node3</title>
<path fill="none" stroke="midnightblue" d="M155.733,-201.096C169.987,-202.972 184.812,-204.923 198.858,-206.771"/>
<polygon fill="midnightblue" stroke="midnightblue" points="198.556,-210.261 208.928,-208.096 199.47,-203.321 198.556,-210.261"/>
</g>
<!-- Node4 -->
<g id="node4" class="node"><title>Node4</title>
<g id="a_node4"><a xlink:href="../../df/d5d/a00084.html#a52834c8723f6f469c13bddd262ad01bd" target="_top" xlink:title="proto::GeoGrid_Location\l_ContactCenter::set_type">
<polygon fill="white" stroke="black" points="205.5,-152 205.5,-182 334.5,-182 334.5,-152 205.5,-152"/>
<text text-anchor="start" x="213.5" y="-170" font-family="Helvetica,sans-Serif" font-size="10.00">proto::GeoGrid_Location</text>
<text text-anchor="middle" x="270" y="-159" font-family="Helvetica,sans-Serif" font-size="10.00">_ContactCenter::set_type</text>
</a>
</g>
</g>
<!-- Node1&#45;&gt;Node4 -->
<g id="edge3" class="edge"><title>Node1&#45;&gt;Node4</title>
<path fill="none" stroke="midnightblue" d="M155.733,-181.307C168.735,-179.665 182.213,-177.963 195.14,-176.33"/>
<polygon fill="midnightblue" stroke="midnightblue" points="195.887,-179.763 205.369,-175.038 195.01,-172.818 195.887,-179.763"/>
</g>
<!-- Node6 -->
<g id="node6" class="node"><title>Node6</title>
<g id="a_node6"><a xlink:href="../../db/d3a/a00040.html#a0551c1ce7927fc90a5dcc38df8980176" target="_top" xlink:title="Create a ProtoBuf ContactPool containing all the information needed to reconstruct a ContactPool...">
<polygon fill="white" stroke="black" points="192.5,-74 192.5,-104 347.5,-104 347.5,-74 192.5,-74"/>
<text text-anchor="start" x="200.5" y="-92" font-family="Helvetica,sans-Serif" font-size="10.00">gengeopop::GeoGridProtoWriter</text>
<text text-anchor="middle" x="270" y="-81" font-family="Helvetica,sans-Serif" font-size="10.00">::WriteContactPool</text>
</a>
</g>
</g>
<!-- Node1&#45;&gt;Node6 -->
<g id="edge5" class="edge"><title>Node1&#45;&gt;Node6</title>
<path fill="none" stroke="midnightblue" d="M107.035,-175.95C140.151,-158.171 195.356,-128.535 231.967,-108.881"/>
<polygon fill="midnightblue" stroke="midnightblue" points="233.695,-111.926 240.85,-104.112 230.384,-105.758 233.695,-111.926"/>
</g>
<!-- Node5 -->
<g id="node5" class="node"><title>Node5</title>
<g id="a_node5"><a xlink:href="../../df/d38/a00468.html#a34e7d7c47b9a19a58bd24d0522898461" target="_top" xlink:title="proto::GeoGrid_Location\l_ContactCenter_Type_IsValid">
<polygon fill="white" stroke="black" points="384,-167 384,-197 532,-197 532,-167 384,-167"/>
<text text-anchor="start" x="392" y="-185" font-family="Helvetica,sans-Serif" font-size="10.00">proto::GeoGrid_Location</text>
<text text-anchor="middle" x="458" y="-174" font-family="Helvetica,sans-Serif" font-size="10.00">_ContactCenter_Type_IsValid</text>
</a>
</g>
</g>
<!-- Node4&#45;&gt;Node5 -->
<g id="edge4" class="edge"><title>Node4&#45;&gt;Node5</title>
<path fill="none" stroke="midnightblue" d="M334.75,-172.141C347.197,-173.145 360.423,-174.212 373.401,-175.258"/>
<polygon fill="midnightblue" stroke="midnightblue" points="373.488,-178.776 383.737,-176.092 374.051,-171.799 373.488,-178.776"/>
</g>
<!-- Node7 -->
<g id="node7" class="node"><title>Node7</title>
<g id="a_node7"><a xlink:href="../../df/d13/a00085.html#a3a96e7914b029f35fbb01df4994e19ca" target="_top" xlink:title="proto::GeoGrid_Location\l_ContactCenter_ContactPool\l::set_id">
<polygon fill="white" stroke="black" points="385.5,-107.5 385.5,-148.5 530.5,-148.5 530.5,-107.5 385.5,-107.5"/>
<text text-anchor="start" x="393.5" y="-136.5" font-family="Helvetica,sans-Serif" font-size="10.00">proto::GeoGrid_Location</text>
<text text-anchor="start" x="393.5" y="-125.5" font-family="Helvetica,sans-Serif" font-size="10.00">_ContactCenter_ContactPool</text>
<text text-anchor="middle" x="458" y="-114.5" font-family="Helvetica,sans-Serif" font-size="10.00">::set_id</text>
</a>
</g>
</g>
<!-- Node6&#45;&gt;Node7 -->
<g id="edge6" class="edge"><title>Node6&#45;&gt;Node7</title>
<path fill="none" stroke="midnightblue" d="M342.646,-104.023C353.381,-106.273 364.516,-108.608 375.438,-110.898"/>
<polygon fill="midnightblue" stroke="midnightblue" points="374.885,-114.358 385.39,-112.985 376.322,-107.507 374.885,-114.358"/>
</g>
<!-- Node8 -->
<g id="node8" class="node"><title>Node8</title>
<g id="a_node8"><a xlink:href="../../d4/d3a/a00101.html#a3b2da2fe2ebe5e75bcf8a13893f8d10a" target="_top" xlink:title="Get the pool id. ">
<polygon fill="white" stroke="black" points="407.5,-59 407.5,-89 508.5,-89 508.5,-59 407.5,-59"/>
<text text-anchor="start" x="415.5" y="-77" font-family="Helvetica,sans-Serif" font-size="10.00">stride::ContactPool</text>
<text text-anchor="middle" x="458" y="-66" font-family="Helvetica,sans-Serif" font-size="10.00">::GetId</text>
</a>
</g>
</g>
<!-- Node6&#45;&gt;Node8 -->
<g id="edge7" class="edge"><title>Node6&#45;&gt;Node8</title>
<path fill="none" stroke="midnightblue" d="M347.727,-82.8123C364.227,-81.4817 381.432,-80.0942 397.177,-78.8244"/>
<polygon fill="midnightblue" stroke="midnightblue" points="397.605,-82.3014 407.291,-78.0088 397.042,-75.3241 397.605,-82.3014"/>
</g>
<!-- Node9 -->
<g id="node9" class="node"><title>Node9</title>
<g id="a_node9"><a xlink:href="../../df/d13/a00085.html#aa0d19e37f4c187d754b71a7696ad32eb" target="_top" xlink:title="proto::GeoGrid_Location\l_ContactCenter_ContactPool\l::add_people">
<polygon fill="white" stroke="black" points="385.5,0.5 385.5,-40.5 530.5,-40.5 530.5,0.5 385.5,0.5"/>
<text text-anchor="start" x="393.5" y="-28.5" font-family="Helvetica,sans-Serif" font-size="10.00">proto::GeoGrid_Location</text>
<text text-anchor="start" x="393.5" y="-17.5" font-family="Helvetica,sans-Serif" font-size="10.00">_ContactCenter_ContactPool</text>
<text text-anchor="middle" x="458" y="-6.5" font-family="Helvetica,sans-Serif" font-size="10.00">::add_people</text>
</a>
</g>
</g>
<!-- Node6&#45;&gt;Node9 -->
<g id="edge8" class="edge"><title>Node6&#45;&gt;Node9</title>
<path fill="none" stroke="midnightblue" d="M311.818,-73.8577C335.248,-65.1661 365.21,-54.051 391.824,-44.1781"/>
<polygon fill="midnightblue" stroke="midnightblue" points="393.301,-47.3633 401.46,-40.6037 390.867,-40.8004 393.301,-47.3633"/>
</g>
</g>
</svg>
