<?xml version="1.0" encoding="UTF-8" standalone="no"?>
<!DOCTYPE svg PUBLIC "-//W3C//DTD SVG 1.1//EN"
 "http://www.w3.org/Graphics/SVG/1.1/DTD/svg11.dtd">
<!-- Generated by graphviz version 2.36.0 (20140111.2315)
 -->
<!-- Title: gengeopop::GeoGridProtoWriter::WriteLocation Pages: 1 -->
<svg width="356pt" height="38pt"
 viewBox="0.00 0.00 356.00 38.00" xmlns="http://www.w3.org/2000/svg" xmlns:xlink="http://www.w3.org/1999/xlink">
<g id="graph0" class="graph" transform="scale(1 1) rotate(0) translate(4 34)">
<title>gengeopop::GeoGridProtoWriter::WriteLocation</title>
<polygon fill="white" stroke="none" points="-4,4 -4,-34 352,-34 352,4 -4,4"/>
<!-- Node1 -->
<g id="node1" class="node"><title>Node1</title>
<polygon fill="#bfbfbf" stroke="black" points="0.5,-0 0.5,-30 155.5,-30 155.5,-0 0.5,-0"/>
<text text-anchor="start" x="8.5" y="-18" font-family="Helvetica,sans-Serif" font-size="10.00">gengeopop::GeoGridProtoWriter</text>
<text text-anchor="middle" x="78" y="-7" font-family="Helvetica,sans-Serif" font-size="10.00">::WriteLocation</text>
</g>
<!-- Node2 -->
<g id="node2" class="node"><title>Node2</title>
<g id="a_node2"><a xlink:href="../../db/d3a/a00040.html#a3163b8464f599d204597a01dfc47f08f" target="_top" xlink:title="Write the provided GeoGrid to the proved ostream in Protobuf format. ">
<polygon fill="white" stroke="black" points="192.5,-0 192.5,-30 347.5,-30 347.5,-0 192.5,-0"/>
<text text-anchor="start" x="200.5" y="-18" font-family="Helvetica,sans-Serif" font-size="10.00">gengeopop::GeoGridProtoWriter</text>
<text text-anchor="middle" x="270" y="-7" font-family="Helvetica,sans-Serif" font-size="10.00">::Write</text>
</a>
</g>
</g>
<!-- Node1&#45;&gt;Node2 -->
<g id="edge1" class="edge"><title>Node1&#45;&gt;Node2</title>
<path fill="none" stroke="midnightblue" d="M165.978,-15C174.758,-15 183.629,-15 192.29,-15"/>
<polygon fill="midnightblue" stroke="midnightblue" points="165.733,-11.5001 155.733,-15 165.733,-18.5001 165.733,-11.5001"/>
</g>
</g>
</svg>
