<?xml version="1.0" encoding="UTF-8" standalone="no"?>
<!DOCTYPE svg PUBLIC "-//W3C//DTD SVG 1.1//EN"
 "http://www.w3.org/Graphics/SVG/1.1/DTD/svg11.dtd">
<!-- Generated by graphviz version 2.36.0 (20140111.2315)
 -->
<!-- Title: ContactPoolListModel Pages: 1 -->
<!--zoomable 1096 -->
<svg id="main" version="1.1" xmlns="http://www.w3.org/2000/svg" xmlns:xlink="http://www.w3.org/1999/xlink" xml:space="preserve" onload="init(evt)">
<style type="text/css"><![CDATA[
.edge:hover path { stroke: red; }
.edge:hover polygon { stroke: red; fill: red; }
]]></style>
<script type="text/javascript"><![CDATA[
var edges = document.getElementsByTagName('g');
if (edges && edges.length) {
  for (var i=0;i<edges.length;i++) {
    if (edges[i].id.substr(0,4)=='edge') {
      edges[i].setAttribute('class','edge');
    }
  }
}
]]></script>
        <defs>
                <circle id="rim" cx="0" cy="0" r="7"/>
                <circle id="rim2" cx="0" cy="0" r="3.5"/>
                <g id="zoomPlus">
                        <use xlink:href="#rim" fill="#404040">
                                <set attributeName="fill" to="#808080" begin="zoomplus.mouseover" end="zoomplus.mouseout"/>
                        </use>
                        <path d="M-4,0h8M0,-4v8" fill="none" stroke="white" stroke-width="1.5" pointer-events="none"/>
                </g>
                <g id="zoomMin">
                        <use xlink:href="#rim" fill="#404040">
                                <set attributeName="fill" to="#808080" begin="zoomminus.mouseover" end="zoomminus.mouseout"/>
                        </use>
                        <path d="M-4,0h8" fill="none" stroke="white" stroke-width="1.5" pointer-events="none"/>
                </g>
                <g id="dirArrow">
                        <path fill="none" stroke="white" stroke-width="1.5" d="M0,-3.0v7 M-2.5,-0.5L0,-3.0L2.5,-0.5"/>
                </g>
               <g id="resetDef">
                       <use xlink:href="#rim2" fill="#404040">
                               <set attributeName="fill" to="#808080" begin="reset.mouseover" end="reset.mouseout"/>
                       </use>
               </g>
        </defs>

<script type="text/javascript">
var viewWidth = 1492;
var viewHeight = 1096;
var sectionId = 'dynsection-1';
</script>
<script xlink:href="../../svgpan.js"/>
<svg id="graph" class="graph">
<g id="viewport">
<title>ContactPoolListModel</title>
<polygon fill="white" stroke="none" points="-4,4 -4,-1092 1488,-1092 1488,4 -4,4"/>
<!-- Node1 -->
<g id="node1" class="node"><title>Node1</title>
<polygon fill="#bfbfbf" stroke="black" points="58,-1 58,-113 186,-113 186,-1 58,-1"/>
<text text-anchor="middle" x="122" y="-101" font-family="Helvetica,sans-Serif" font-size="10.00">ContactPoolListModel</text>
<polyline fill="none" stroke="black" points="58,-94 186,-94 "/>
<text text-anchor="middle" x="122" y="-82" font-family="Helvetica,sans-Serif" font-size="10.00"> </text>
<polyline fill="none" stroke="black" points="58,-75 186,-75 "/>
<text text-anchor="start" x="66" y="-63" font-family="Helvetica,sans-Serif" font-size="10.00">+ ContactPoolListModel()</text>
<text text-anchor="start" x="66" y="-52" font-family="Helvetica,sans-Serif" font-size="10.00">+ data()</text>
<text text-anchor="start" x="66" y="-41" font-family="Helvetica,sans-Serif" font-size="10.00">+ rowCount()</text>
<text text-anchor="start" x="66" y="-30" font-family="Helvetica,sans-Serif" font-size="10.00">+ columnCount()</text>
<text text-anchor="start" x="66" y="-19" font-family="Helvetica,sans-Serif" font-size="10.00">+ roleNames()</text>
<text text-anchor="start" x="66" y="-8" font-family="Helvetica,sans-Serif" font-size="10.00">+ SetPools()</text>
</g>
<!-- Node2 -->
<g id="node2" class="node"><title>Node2</title>
<g id="a_node2"><a xlink:href="../../db/dab/a00089.html" target="_top" xlink:title="{QAbstractListModel\n||}">
<polygon fill="white" stroke="black" points="114.5,-217.5 114.5,-274.5 217.5,-274.5 217.5,-217.5 114.5,-217.5"/>
<text text-anchor="middle" x="166" y="-262.5" font-family="Helvetica,sans-Serif" font-size="10.00">QAbstractListModel</text>
<polyline fill="none" stroke="black" points="114.5,-255.5 217.5,-255.5 "/>
<text text-anchor="middle" x="166" y="-243.5" font-family="Helvetica,sans-Serif" font-size="10.00"> </text>
<polyline fill="none" stroke="black" points="114.5,-236.5 217.5,-236.5 "/>
<text text-anchor="middle" x="166" y="-224.5" font-family="Helvetica,sans-Serif" font-size="10.00"> </text>
</a>
</g>
</g>
<!-- Node2&#45;&gt;Node1 -->
<g id="edge1" class="edge"><title>Node2&#45;&gt;Node1</title>
<path fill="none" stroke="midnightblue" d="M157.192,-207.566C150.831,-180.53 142.136,-143.579 134.981,-113.17"/>
<polygon fill="none" stroke="midnightblue" points="153.81,-208.475 159.508,-217.408 160.624,-206.872 153.81,-208.475"/>
</g>
<!-- Node3 -->
<g id="node3" class="node"><title>Node3</title>
<polygon fill="white" stroke="#bfbfbf" points="0,-212 0,-280 96,-280 96,-212 0,-212"/>
<text text-anchor="start" x="8" y="-268" font-family="Helvetica,sans-Serif" font-size="10.00">std::vector&lt; stride</text>
<text text-anchor="middle" x="48" y="-257" font-family="Helvetica,sans-Serif" font-size="10.00">::ContactPool * &gt;</text>
<polyline fill="none" stroke="#bfbfbf" points="0,-250 96,-250 "/>
<text text-anchor="middle" x="48" y="-238" font-family="Helvetica,sans-Serif" font-size="10.00"> </text>
<polyline fill="none" stroke="#bfbfbf" points="0,-231 96,-231 "/>
<text text-anchor="middle" x="48" y="-219" font-family="Helvetica,sans-Serif" font-size="10.00"> </text>
</g>
<!-- Node3&#45;&gt;Node1 -->
<g id="edge2" class="edge"><title>Node3&#45;&gt;Node1</title>
<path fill="none" stroke="#404040" d="M61.0594,-211.999C70.662,-187.732 84.035,-153.939 95.8077,-124.189"/>
<polygon fill="none" stroke="#404040" points="95.8146,-124.171 94.303,-117.12 100.23,-113.013 101.742,-120.064 95.8146,-124.171"/>
<text text-anchor="middle" x="113.5" y="-135.5" font-family="Helvetica,sans-Serif" font-size="10.00"> &#45;m_pools</text>
</g>
<!-- Node4 -->
<g id="node4" class="node"><title>Node4</title>
<g id="a_node4"><a xlink:href="../../d4/d3a/a00101.html" target="_top" xlink:title="Represents a group of Persons that potentially have contacts. ">
<polygon fill="white" stroke="black" points="357,-400 357,-578 467,-578 467,-400 357,-400"/>
<text text-anchor="middle" x="412" y="-566" font-family="Helvetica,sans-Serif" font-size="10.00">stride::ContactPool</text>
<polyline fill="none" stroke="black" points="357,-559 467,-559 "/>
<text text-anchor="middle" x="412" y="-547" font-family="Helvetica,sans-Serif" font-size="10.00"> </text>
<polyline fill="none" stroke="black" points="357,-540 467,-540 "/>
<text text-anchor="start" x="365" y="-528" font-family="Helvetica,sans-Serif" font-size="10.00">+ ContactPool()</text>
<text text-anchor="start" x="365" y="-517" font-family="Helvetica,sans-Serif" font-size="10.00">+ ContactPool()</text>
<text text-anchor="start" x="365" y="-506" font-family="Helvetica,sans-Serif" font-size="10.00">+ AddMember()</text>
<text text-anchor="start" x="365" y="-495" font-family="Helvetica,sans-Serif" font-size="10.00">+ GetMember()</text>
<text text-anchor="start" x="365" y="-484" font-family="Helvetica,sans-Serif" font-size="10.00">+ RemoveMember()</text>
<text text-anchor="start" x="365" y="-473" font-family="Helvetica,sans-Serif" font-size="10.00">+ GetPool()</text>
<text text-anchor="start" x="365" y="-462" font-family="Helvetica,sans-Serif" font-size="10.00">+ GetSize()</text>
<text text-anchor="start" x="365" y="-451" font-family="Helvetica,sans-Serif" font-size="10.00">+ GetId()</text>
<text text-anchor="start" x="365" y="-440" font-family="Helvetica,sans-Serif" font-size="10.00">+ GetCapacity()</text>
<text text-anchor="start" x="365" y="-429" font-family="Helvetica,sans-Serif" font-size="10.00">+ GetUsedCapacity()</text>
<text text-anchor="start" x="365" y="-418" font-family="Helvetica,sans-Serif" font-size="10.00">and 8 more...</text>
<text text-anchor="start" x="365" y="-407" font-family="Helvetica,sans-Serif" font-size="10.00">&#45; SortMembers()</text>
</a>
</g>
</g>
<!-- Node4&#45;&gt;Node3 -->
<g id="edge3" class="edge"><title>Node4&#45;&gt;Node3</title>
<path fill="none" stroke="#404040" d="M356.783,-432.287C340.913,-417.29 323.226,-401.497 306,-388 280.187,-367.775 274.795,-359.271 244,-348 185.502,-326.589 158.143,-362.502 105,-330 89.76,-320.679 77.6041,-305.573 68.4985,-290.786"/>
<polygon fill="none" stroke="#404040" points="68.3762,-290.573 61.9215,-287.358 62.4069,-280.163 68.8616,-283.378 68.3762,-290.573"/>
<text text-anchor="middle" x="307.5" y="-356.5" font-family="Helvetica,sans-Serif" font-size="10.00"> +elements</text>
</g>
<!-- Node6 -->
<g id="node6" class="node"><title>Node6</title>
<g id="a_node6"><a xlink:href="../../d0/d5e/a00136.html" target="_top" xlink:title="Store and handle person data. ">
<polygon fill="white" stroke="black" points="678,-162.5 678,-329.5 758,-329.5 758,-162.5 678,-162.5"/>
<text text-anchor="middle" x="718" y="-317.5" font-family="Helvetica,sans-Serif" font-size="10.00">stride::Person</text>
<polyline fill="none" stroke="black" points="678,-310.5 758,-310.5 "/>
<text text-anchor="middle" x="718" y="-298.5" font-family="Helvetica,sans-Serif" font-size="10.00"> </text>
<polyline fill="none" stroke="black" points="678,-291.5 758,-291.5 "/>
<text text-anchor="start" x="686" y="-279.5" font-family="Helvetica,sans-Serif" font-size="10.00">+ Person()</text>
<text text-anchor="start" x="686" y="-268.5" font-family="Helvetica,sans-Serif" font-size="10.00">+ Person()</text>
<text text-anchor="start" x="686" y="-257.5" font-family="Helvetica,sans-Serif" font-size="10.00">+ operator!=()</text>
<text text-anchor="start" x="686" y="-246.5" font-family="Helvetica,sans-Serif" font-size="10.00">+ GetAge()</text>
<text text-anchor="start" x="686" y="-235.5" font-family="Helvetica,sans-Serif" font-size="10.00">+ GetBelief()</text>
<text text-anchor="start" x="686" y="-224.5" font-family="Helvetica,sans-Serif" font-size="10.00">+ GetBelief()</text>
<text text-anchor="start" x="686" y="-213.5" font-family="Helvetica,sans-Serif" font-size="10.00">+ GetPoolId()</text>
<text text-anchor="start" x="686" y="-202.5" font-family="Helvetica,sans-Serif" font-size="10.00">+ GetGender()</text>
<text text-anchor="start" x="686" y="-191.5" font-family="Helvetica,sans-Serif" font-size="10.00">+ GetHealth()</text>
<text text-anchor="start" x="686" y="-180.5" font-family="Helvetica,sans-Serif" font-size="10.00">+ GetHealth()</text>
<text text-anchor="start" x="686" y="-169.5" font-family="Helvetica,sans-Serif" font-size="10.00">and 25 more...</text>
</a>
</g>
</g>
<!-- Node4&#45;&gt;Node6 -->
<g id="edge7" class="edge"><title>Node4&#45;&gt;Node6</title>
<path fill="none" stroke="#404040" d="M409.38,-399.854C412.598,-381.142 419.071,-362.642 431,-348 488.829,-277.02 599.916,-255.856 665.633,-249.589"/>
<polygon fill="none" stroke="#404040" points="665.791,-249.576 671.428,-245.079 677.747,-248.554 672.11,-253.05 665.791,-249.576"/>
<text text-anchor="middle" x="483.5" y="-356.5" font-family="Helvetica,sans-Serif" font-size="10.00"> &#45;m_visitingContactPool</text>
</g>
<!-- Node5 -->
<g id="node5" class="node"><title>Node5</title>
<polygon fill="white" stroke="#bfbfbf" points="331,-23 331,-91 427,-91 427,-23 331,-23"/>
<text text-anchor="start" x="339" y="-79" font-family="Helvetica,sans-Serif" font-size="10.00">std::vector&lt; stride</text>
<text text-anchor="middle" x="379" y="-68" font-family="Helvetica,sans-Serif" font-size="10.00">::Person * &gt;</text>
<polyline fill="none" stroke="#bfbfbf" points="331,-61 427,-61 "/>
<text text-anchor="middle" x="379" y="-49" font-family="Helvetica,sans-Serif" font-size="10.00"> </text>
<polyline fill="none" stroke="#bfbfbf" points="331,-42 427,-42 "/>
<text text-anchor="middle" x="379" y="-30" font-family="Helvetica,sans-Serif" font-size="10.00"> </text>
</g>
<!-- Node5&#45;&gt;Node4 -->
<g id="edge4" class="edge"><title>Node5&#45;&gt;Node4</title>
<path fill="none" stroke="#404040" d="M381.546,-91.1733C386.364,-153.951 396.988,-292.385 404.32,-387.931"/>
<polygon fill="none" stroke="#404040" points="404.324,-387.981 408.771,-393.657 405.242,-399.945 400.795,-394.269 404.324,-387.981"/>
<text text-anchor="middle" x="430.5" y="-243.5" font-family="Helvetica,sans-Serif" font-size="10.00"> &#45;m_members</text>
</g>
<!-- Node6&#45;&gt;Node5 -->
<g id="edge5" class="edge"><title>Node6&#45;&gt;Node5</title>
<path fill="none" stroke="#404040" d="M677.781,-222.814C618.265,-189.984 506.392,-128.272 437.709,-90.3853"/>
<polygon fill="none" stroke="#404040" points="437.579,-90.3135 430.393,-90.9178 427.071,-84.5173 434.257,-83.9129 437.579,-90.3135"/>
<text text-anchor="middle" x="553.5" y="-135.5" font-family="Helvetica,sans-Serif" font-size="10.00"> +elements</text>
</g>
<!-- Node7 -->
<g id="node7" class="node"><title>Node7</title>
<g id="a_node7"><a xlink:href="../../d9/d34/a00476.html" target="_top" xlink:title="{double\n||}">
<polygon fill="white" stroke="black" points="501.5,-460.5 501.5,-517.5 546.5,-517.5 546.5,-460.5 501.5,-460.5"/>
<text text-anchor="middle" x="524" y="-505.5" font-family="Helvetica,sans-Serif" font-size="10.00">double</text>
<polyline fill="none" stroke="black" points="501.5,-498.5 546.5,-498.5 "/>
<text text-anchor="middle" x="524" y="-486.5" font-family="Helvetica,sans-Serif" font-size="10.00"> </text>
<polyline fill="none" stroke="black" points="501.5,-479.5 546.5,-479.5 "/>
<text text-anchor="middle" x="524" y="-467.5" font-family="Helvetica,sans-Serif" font-size="10.00"> </text>
</a>
</g>
</g>
<!-- Node7&#45;&gt;Node6 -->
<g id="edge6" class="edge"><title>Node7&#45;&gt;Node6</title>
<path fill="none" stroke="#404040" d="M522.955,-460.482C523.154,-430.275 527.575,-381.609 551,-348 579.005,-307.819 628.626,-280.813 666.525,-264.914"/>
<polygon fill="none" stroke="#404040" points="666.746,-264.826 670.813,-258.871 677.874,-260.335 673.807,-266.289 666.746,-264.826"/>
<text text-anchor="middle" x="569" y="-356.5" font-family="Helvetica,sans-Serif" font-size="10.00"> &#45;m_age</text>
</g>
<!-- Node8 -->
<g id="node8" class="node"><title>Node8</title>
<g id="a_node8"><a xlink:href="../../d1/d09/a00077.html" target="_top" xlink:title="{stride::ContactPoolType\l::IdSubscriptArray\&lt; unsigned int \&gt;\n||+ IdSubscriptArray()\l+ IdSubscriptArray()\l+ IdSubscriptArray()\l+ operator[]()\l+ operator[]()\l+ at()\l+ at()\l}">
<polygon fill="white" stroke="black" points="1318,-422 1318,-556 1484,-556 1484,-422 1318,-422"/>
<text text-anchor="start" x="1326" y="-544" font-family="Helvetica,sans-Serif" font-size="10.00">stride::ContactPoolType</text>
<text text-anchor="middle" x="1401" y="-533" font-family="Helvetica,sans-Serif" font-size="10.00">::IdSubscriptArray&lt; unsigned int &gt;</text>
<polyline fill="none" stroke="black" points="1318,-526 1484,-526 "/>
<text text-anchor="middle" x="1401" y="-514" font-family="Helvetica,sans-Serif" font-size="10.00"> </text>
<polyline fill="none" stroke="black" points="1318,-507 1484,-507 "/>
<text text-anchor="start" x="1326" y="-495" font-family="Helvetica,sans-Serif" font-size="10.00">+ IdSubscriptArray()</text>
<text text-anchor="start" x="1326" y="-484" font-family="Helvetica,sans-Serif" font-size="10.00">+ IdSubscriptArray()</text>
<text text-anchor="start" x="1326" y="-473" font-family="Helvetica,sans-Serif" font-size="10.00">+ IdSubscriptArray()</text>
<text text-anchor="start" x="1326" y="-462" font-family="Helvetica,sans-Serif" font-size="10.00">+ operator[]()</text>
<text text-anchor="start" x="1326" y="-451" font-family="Helvetica,sans-Serif" font-size="10.00">+ operator[]()</text>
<text text-anchor="start" x="1326" y="-440" font-family="Helvetica,sans-Serif" font-size="10.00">+ at()</text>
<text text-anchor="start" x="1326" y="-429" font-family="Helvetica,sans-Serif" font-size="10.00">+ at()</text>
</a>
</g>
</g>
<!-- Node8&#45;&gt;Node6 -->
<g id="edge8" class="edge"><title>Node8&#45;&gt;Node6</title>
<path fill="none" stroke="#404040" d="M1354.81,-421.945C1332.35,-394.777 1303.05,-365.608 1270,-348 1103.27,-259.172 872.41,-246.963 770.236,-246.266"/>
<polygon fill="none" stroke="#404040" points="770.137,-246.266 764.127,-250.25 758.137,-246.234 764.148,-242.25 770.137,-246.266"/>
<text text-anchor="middle" x="1328" y="-356.5" font-family="Helvetica,sans-Serif" font-size="10.00"> &#45;m_pool_ids</text>
</g>
<!-- Node9 -->
<g id="node9" class="node"><title>Node9</title>
<g id="a_node9"><a xlink:title="STL class. ">
<polygon fill="white" stroke="#bfbfbf" points="1249.5,-837 1249.5,-905 1356.5,-905 1356.5,-837 1249.5,-837"/>
<text text-anchor="start" x="1257.5" y="-893" font-family="Helvetica,sans-Serif" font-size="10.00">std::array&lt; unsigned</text>
<text text-anchor="middle" x="1303" y="-882" font-family="Helvetica,sans-Serif" font-size="10.00"> int, NumOfTypes()&gt;</text>
<polyline fill="none" stroke="#bfbfbf" points="1249.5,-875 1356.5,-875 "/>
<text text-anchor="middle" x="1303" y="-863" font-family="Helvetica,sans-Serif" font-size="10.00"> </text>
<polyline fill="none" stroke="#bfbfbf" points="1249.5,-856 1356.5,-856 "/>
<text text-anchor="middle" x="1303" y="-844" font-family="Helvetica,sans-Serif" font-size="10.00"> </text>
</a>
</g>
</g>
<!-- Node9&#45;&gt;Node8 -->
<g id="edge9" class="edge"><title>Node9&#45;&gt;Node8</title>
<path fill="none" stroke="midnightblue" d="M1306.94,-826.688C1311.03,-788.265 1318.6,-730.822 1331,-682 1341.87,-639.187 1358.73,-592.606 1373.17,-556.047"/>
<polygon fill="none" stroke="midnightblue" points="1303.42,-826.692 1305.88,-836.999 1310.39,-827.41 1303.42,-826.692"/>
</g>
<!-- Node10 -->
<g id="node10" class="node"><title>Node10</title>
<polygon fill="white" stroke="#bfbfbf" points="1284.5,-1030.5 1284.5,-1087.5 1313.5,-1087.5 1313.5,-1030.5 1284.5,-1030.5"/>
<text text-anchor="middle" x="1299" y="-1075.5" font-family="Helvetica,sans-Serif" font-size="10.00">T</text>
<polyline fill="none" stroke="#bfbfbf" points="1284.5,-1068.5 1313.5,-1068.5 "/>
<text text-anchor="middle" x="1299" y="-1056.5" font-family="Helvetica,sans-Serif" font-size="10.00"> </text>
<polyline fill="none" stroke="#bfbfbf" points="1284.5,-1049.5 1313.5,-1049.5 "/>
<text text-anchor="middle" x="1299" y="-1037.5" font-family="Helvetica,sans-Serif" font-size="10.00"> </text>
</g>
<!-- Node10&#45;&gt;Node9 -->
<g id="edge10" class="edge"><title>Node10&#45;&gt;Node9</title>
<path fill="none" stroke="#404040" d="M1298.82,-1030.27C1298.81,-1020.68 1298.85,-1009.87 1299,-1000 1299.43,-972.551 1300.37,-941.802 1301.24,-917.323"/>
<polygon fill="none" stroke="#404040" points="1301.25,-917.137 1297.47,-910.996 1301.68,-905.145 1305.46,-911.286 1301.25,-917.137"/>
<text text-anchor="middle" x="1323.5" y="-1003.5" font-family="Helvetica,sans-Serif" font-size="10.00"> +elements</text>
</g>
<!-- Node12 -->
<g id="node12" class="node"><title>Node12</title>
<g id="a_node12"><a xlink:title="STL class. ">
<polygon fill="white" stroke="#bfbfbf" points="1326.5,-924.5 1326.5,-981.5 1475.5,-981.5 1475.5,-924.5 1326.5,-924.5"/>
<text text-anchor="middle" x="1401" y="-969.5" font-family="Helvetica,sans-Serif" font-size="10.00">std::array&lt; T, NumOfTypes()&gt;</text>
<polyline fill="none" stroke="#bfbfbf" points="1326.5,-962.5 1475.5,-962.5 "/>
<text text-anchor="middle" x="1401" y="-950.5" font-family="Helvetica,sans-Serif" font-size="10.00"> </text>
<polyline fill="none" stroke="#bfbfbf" points="1326.5,-943.5 1475.5,-943.5 "/>
<text text-anchor="middle" x="1401" y="-931.5" font-family="Helvetica,sans-Serif" font-size="10.00"> </text>
</a>
</g>
</g>
<!-- Node10&#45;&gt;Node12 -->
<g id="edge13" class="edge"><title>Node10&#45;&gt;Node12</title>
<path fill="none" stroke="#404040" d="M1313.94,-1046.08C1324.87,-1037.12 1339.85,-1024.31 1352,-1012 1358.43,-1005.48 1364.98,-998.237 1371.1,-991.133"/>
<polygon fill="none" stroke="#404040" points="1371.4,-990.781 1372.22,-983.617 1379.15,-981.617 1378.33,-988.782 1371.4,-990.781"/>
<text text-anchor="middle" x="1385.5" y="-1003.5" font-family="Helvetica,sans-Serif" font-size="10.00"> +elements</text>
</g>
<!-- Node23 -->
<g id="node23" class="node"><title>Node23</title>
<g id="a_node23"><a xlink:title="STL class. ">
<polygon fill="white" stroke="#bfbfbf" points="210.5,-460.5 210.5,-517.5 297.5,-517.5 297.5,-460.5 210.5,-460.5"/>
<text text-anchor="middle" x="254" y="-505.5" font-family="Helvetica,sans-Serif" font-size="10.00">std::vector&lt; T &gt;</text>
<polyline fill="none" stroke="#bfbfbf" points="210.5,-498.5 297.5,-498.5 "/>
<text text-anchor="middle" x="254" y="-486.5" font-family="Helvetica,sans-Serif" font-size="10.00"> </text>
<polyline fill="none" stroke="#bfbfbf" points="210.5,-479.5 297.5,-479.5 "/>
<text text-anchor="middle" x="254" y="-467.5" font-family="Helvetica,sans-Serif" font-size="10.00"> </text>
</a>
</g>
</g>
<!-- Node10&#45;&gt;Node23 -->
<g id="edge25" class="edge"><title>Node10&#45;&gt;Node23</title>
<path fill="none" stroke="#404040" d="M1284.19,-1055.93C1177.99,-1040.83 532.293,-944.624 388,-818 300.513,-741.226 269.148,-598.746 258.738,-529.639"/>
<polygon fill="none" stroke="#404040" points="258.718,-529.502 253.914,-524.124 257.029,-517.621 261.834,-522.998 258.718,-529.502"/>
<text text-anchor="middle" x="592.5" y="-868.5" font-family="Helvetica,sans-Serif" font-size="10.00"> +elements</text>
</g>
<!-- Node11 -->
<g id="node11" class="node"><title>Node11</title>
<g id="a_node11"><a xlink:href="../../d1/d09/a00077.html" target="_top" xlink:title="An std::array modified to enable subscripting with the constact pool type indentifiers. ">
<polygon fill="white" stroke="black" points="1340,-683 1340,-817 1462,-817 1462,-683 1340,-683"/>
<text text-anchor="start" x="1348" y="-805" font-family="Helvetica,sans-Serif" font-size="10.00">stride::ContactPoolType</text>
<text text-anchor="middle" x="1401" y="-794" font-family="Helvetica,sans-Serif" font-size="10.00">::IdSubscriptArray&lt; T &gt;</text>
<polyline fill="none" stroke="black" points="1340,-787 1462,-787 "/>
<text text-anchor="middle" x="1401" y="-775" font-family="Helvetica,sans-Serif" font-size="10.00"> </text>
<polyline fill="none" stroke="black" points="1340,-768 1462,-768 "/>
<text text-anchor="start" x="1348" y="-756" font-family="Helvetica,sans-Serif" font-size="10.00">+ IdSubscriptArray()</text>
<text text-anchor="start" x="1348" y="-745" font-family="Helvetica,sans-Serif" font-size="10.00">+ IdSubscriptArray()</text>
<text text-anchor="start" x="1348" y="-734" font-family="Helvetica,sans-Serif" font-size="10.00">+ IdSubscriptArray()</text>
<text text-anchor="start" x="1348" y="-723" font-family="Helvetica,sans-Serif" font-size="10.00">+ operator[]()</text>
<text text-anchor="start" x="1348" y="-712" font-family="Helvetica,sans-Serif" font-size="10.00">+ operator[]()</text>
<text text-anchor="start" x="1348" y="-701" font-family="Helvetica,sans-Serif" font-size="10.00">+ at()</text>
<text text-anchor="start" x="1348" y="-690" font-family="Helvetica,sans-Serif" font-size="10.00">+ at()</text>
</a>
</g>
</g>
<!-- Node11&#45;&gt;Node8 -->
<g id="edge11" class="edge"><title>Node11&#45;&gt;Node8</title>
<path fill="none" stroke="orange" d="M1401,-672.754C1401,-635.821 1401,-591.889 1401,-556.356"/>
<polygon fill="orange" stroke="orange" points="1397.5,-672.973 1401,-682.973 1404.5,-672.973 1397.5,-672.973"/>
<text text-anchor="middle" x="1438" y="-633.5" font-family="Helvetica,sans-Serif" font-size="10.00"> &lt; unsigned int &gt;</text>
</g>
<!-- Node12&#45;&gt;Node11 -->
<g id="edge12" class="edge"><title>Node12&#45;&gt;Node11</title>
<path fill="none" stroke="midnightblue" d="M1401,-914.181C1401,-886.879 1401,-849.305 1401,-817.093"/>
<polygon fill="none" stroke="midnightblue" points="1397.5,-914.473 1401,-924.473 1404.5,-914.473 1397.5,-914.473"/>
</g>
<!-- Node13 -->
<g id="node13" class="node"><title>Node13</title>
<polygon fill="white" stroke="#bfbfbf" points="564.5,-460.5 564.5,-517.5 599.5,-517.5 599.5,-460.5 564.5,-460.5"/>
<text text-anchor="middle" x="582" y="-505.5" font-family="Helvetica,sans-Serif" font-size="10.00">char</text>
<polyline fill="none" stroke="#bfbfbf" points="564.5,-498.5 599.5,-498.5 "/>
<text text-anchor="middle" x="582" y="-486.5" font-family="Helvetica,sans-Serif" font-size="10.00"> </text>
<polyline fill="none" stroke="#bfbfbf" points="564.5,-479.5 599.5,-479.5 "/>
<text text-anchor="middle" x="582" y="-467.5" font-family="Helvetica,sans-Serif" font-size="10.00"> </text>
</g>
<!-- Node13&#45;&gt;Node6 -->
<g id="edge14" class="edge"><title>Node13&#45;&gt;Node6</title>
<path fill="none" stroke="#404040" d="M579.901,-460.452C578.882,-430.87 580.896,-383.358 600,-348 615.66,-319.017 643.246,-294.695 667.81,-277.185"/>
<polygon fill="none" stroke="#404040" points="667.867,-277.146 670.541,-270.449 677.752,-270.342 675.078,-277.039 667.867,-277.146"/>
<text text-anchor="middle" x="624.5" y="-356.5" font-family="Helvetica,sans-Serif" font-size="10.00"> &#45;m_gender</text>
</g>
<!-- Node14 -->
<g id="node14" class="node"><title>Node14</title>
<g id="a_node14"><a xlink:href="../../d9/dcc/a00102.html" target="_top" xlink:title="Specialisation of IdSubscriptArray foor booleans. ">
<polygon fill="white" stroke="black" points="850.5,-427.5 850.5,-550.5 981.5,-550.5 981.5,-427.5 850.5,-427.5"/>
<text text-anchor="start" x="858.5" y="-538.5" font-family="Helvetica,sans-Serif" font-size="10.00">stride::ContactPoolType</text>
<text text-anchor="middle" x="916" y="-527.5" font-family="Helvetica,sans-Serif" font-size="10.00">::IdSubscriptArray&lt; bool &gt;</text>
<polyline fill="none" stroke="black" points="850.5,-520.5 981.5,-520.5 "/>
<text text-anchor="middle" x="916" y="-508.5" font-family="Helvetica,sans-Serif" font-size="10.00"> </text>
<polyline fill="none" stroke="black" points="850.5,-501.5 981.5,-501.5 "/>
<text text-anchor="start" x="858.5" y="-489.5" font-family="Helvetica,sans-Serif" font-size="10.00">+ IdSubscriptArray()</text>
<text text-anchor="start" x="858.5" y="-478.5" font-family="Helvetica,sans-Serif" font-size="10.00">+ IdSubscriptArray()</text>
<text text-anchor="start" x="858.5" y="-467.5" font-family="Helvetica,sans-Serif" font-size="10.00">+ operator[]()</text>
<text text-anchor="start" x="858.5" y="-456.5" font-family="Helvetica,sans-Serif" font-size="10.00">+ operator[]()</text>
<text text-anchor="start" x="858.5" y="-445.5" font-family="Helvetica,sans-Serif" font-size="10.00">+ at()</text>
<text text-anchor="start" x="858.5" y="-434.5" font-family="Helvetica,sans-Serif" font-size="10.00">+ at()</text>
</a>
</g>
</g>
<!-- Node14&#45;&gt;Node6 -->
<g id="edge15" class="edge"><title>Node14&#45;&gt;Node6</title>
<path fill="none" stroke="#404040" d="M867.775,-427.278C857.349,-414.275 846.349,-400.647 836,-388 813.135,-360.058 787.44,-329.281 765.879,-303.63"/>
<polygon fill="none" stroke="#404040" points="765.861,-303.609 758.937,-301.593 758.135,-294.427 765.059,-296.443 765.861,-303.609"/>
<text text-anchor="middle" x="849" y="-356.5" font-family="Helvetica,sans-Serif" font-size="10.00"> &#45;m_in_pools</text>
</g>
<!-- Node15 -->
<g id="node15" class="node"><title>Node15</title>
<g id="a_node15"><a xlink:title="STL class. ">
<polygon fill="white" stroke="#bfbfbf" points="846,-721.5 846,-778.5 986,-778.5 986,-721.5 846,-721.5"/>
<text text-anchor="middle" x="916" y="-766.5" font-family="Helvetica,sans-Serif" font-size="10.00">std::bitset&lt; NumOfTypes()&gt;</text>
<polyline fill="none" stroke="#bfbfbf" points="846,-759.5 986,-759.5 "/>
<text text-anchor="middle" x="916" y="-747.5" font-family="Helvetica,sans-Serif" font-size="10.00"> </text>
<polyline fill="none" stroke="#bfbfbf" points="846,-740.5 986,-740.5 "/>
<text text-anchor="middle" x="916" y="-728.5" font-family="Helvetica,sans-Serif" font-size="10.00"> </text>
</a>
</g>
</g>
<!-- Node15&#45;&gt;Node14 -->
<g id="edge16" class="edge"><title>Node15&#45;&gt;Node14</title>
<path fill="none" stroke="midnightblue" d="M916,-711.173C916,-669.05 916,-600.366 916,-550.704"/>
<polygon fill="none" stroke="midnightblue" points="912.5,-711.282 916,-721.282 919.5,-711.282 912.5,-711.282"/>
</g>
<!-- Node16 -->
<g id="node16" class="node"><title>Node16</title>
<polygon fill="white" stroke="#bfbfbf" points="670.5,-721.5 670.5,-778.5 699.5,-778.5 699.5,-721.5 670.5,-721.5"/>
<text text-anchor="middle" x="685" y="-766.5" font-family="Helvetica,sans-Serif" font-size="10.00">int</text>
<polyline fill="none" stroke="#bfbfbf" points="670.5,-759.5 699.5,-759.5 "/>
<text text-anchor="middle" x="685" y="-747.5" font-family="Helvetica,sans-Serif" font-size="10.00"> </text>
<polyline fill="none" stroke="#bfbfbf" points="670.5,-740.5 699.5,-740.5 "/>
<text text-anchor="middle" x="685" y="-728.5" font-family="Helvetica,sans-Serif" font-size="10.00"> </text>
</g>
<!-- Node16&#45;&gt;Node4 -->
<g id="edge26" class="edge"><title>Node16&#45;&gt;Node4</title>
<path fill="none" stroke="#404040" d="M675.978,-721.495C663.756,-688.854 638.667,-635.411 598,-608 558.375,-581.292 533.178,-614.245 492,-590 486.63,-586.838 481.476,-583.169 476.556,-579.143"/>
<polygon fill="none" stroke="#404040" points="476.359,-578.968 469.217,-577.974 467.388,-570.999 474.53,-571.993 476.359,-578.968"/>
<text text-anchor="middle" x="672.5" y="-633.5" font-family="Helvetica,sans-Serif" font-size="10.00"> &#45;m_pool_id</text>
</g>
<!-- Node16&#45;&gt;Node6 -->
<g id="edge17" class="edge"><title>Node16&#45;&gt;Node6</title>
<path fill="none" stroke="#404040" d="M691.715,-721.232C695.418,-704.711 699.717,-683.279 702,-664 715.034,-553.939 718.204,-426.511 718.644,-341.773"/>
<polygon fill="none" stroke="#404040" points="718.645,-341.588 714.668,-335.573 718.69,-329.588 722.668,-335.603 718.645,-341.588"/>
<text text-anchor="middle" x="776" y="-492" font-family="Helvetica,sans-Serif" font-size="10.00"> &#45;m_travelDaysRemaining</text>
<text text-anchor="middle" x="776" y="-481" font-family="Helvetica,sans-Serif" font-size="10.00">&#45;m_id</text>
</g>
<!-- Node17 -->
<g id="node17" class="node"><title>Node17</title>
<polygon fill="white" stroke="#bfbfbf" points="1160.5,-460.5 1160.5,-517.5 1195.5,-517.5 1195.5,-460.5 1160.5,-460.5"/>
<text text-anchor="middle" x="1178" y="-505.5" font-family="Helvetica,sans-Serif" font-size="10.00">bool</text>
<polyline fill="none" stroke="#bfbfbf" points="1160.5,-498.5 1195.5,-498.5 "/>
<text text-anchor="middle" x="1178" y="-486.5" font-family="Helvetica,sans-Serif" font-size="10.00"> </text>
<polyline fill="none" stroke="#bfbfbf" points="1160.5,-479.5 1195.5,-479.5 "/>
<text text-anchor="middle" x="1178" y="-467.5" font-family="Helvetica,sans-Serif" font-size="10.00"> </text>
</g>
<!-- Node17&#45;&gt;Node6 -->
<g id="edge18" class="edge"><title>Node17&#45;&gt;Node6</title>
<path fill="none" stroke="#404040" d="M1177.47,-460.374C1175.57,-438.114 1169.46,-407.424 1151,-388 1048.02,-279.618 860.907,-254.419 770.151,-248.65"/>
<polygon fill="none" stroke="#404040" points="769.984,-248.641 763.766,-252.293 758.003,-247.958 764.221,-244.306 769.984,-248.641"/>
<text text-anchor="middle" x="1162.5" y="-362" font-family="Helvetica,sans-Serif" font-size="10.00"> &#45;m_isTravelling</text>
<text text-anchor="middle" x="1162.5" y="-351" font-family="Helvetica,sans-Serif" font-size="10.00">&#45;m_is_participant</text>
</g>
<!-- Node18 -->
<g id="node18" class="node"><title>Node18</title>
<g id="a_node18"><a xlink:href="../../d9/df8/a00096.html" target="_top" xlink:title="Base class for all belief policies. ">
<polygon fill="white" stroke="black" points="1214,-449.5 1214,-528.5 1300,-528.5 1300,-449.5 1214,-449.5"/>
<text text-anchor="middle" x="1257" y="-516.5" font-family="Helvetica,sans-Serif" font-size="10.00">stride::Belief</text>
<polyline fill="none" stroke="black" points="1214,-509.5 1300,-509.5 "/>
<text text-anchor="middle" x="1257" y="-497.5" font-family="Helvetica,sans-Serif" font-size="10.00"> </text>
<polyline fill="none" stroke="black" points="1214,-490.5 1300,-490.5 "/>
<text text-anchor="start" x="1222" y="-478.5" font-family="Helvetica,sans-Serif" font-size="10.00">+ Belief()</text>
<text text-anchor="start" x="1222" y="-467.5" font-family="Helvetica,sans-Serif" font-size="10.00">+ ~Belief()</text>
<text text-anchor="start" x="1222" y="-456.5" font-family="Helvetica,sans-Serif" font-size="10.00">+ HasAdopted()</text>
</a>
</g>
</g>
<!-- Node18&#45;&gt;Node6 -->
<g id="edge19" class="edge"><title>Node18&#45;&gt;Node6</title>
<path fill="none" stroke="#404040" d="M1252.57,-449.21C1246.83,-417.324 1233.74,-373.403 1204,-348 1138.93,-292.422 882.338,-262.292 770.535,-251.574"/>
<polygon fill="none" stroke="#404040" points="770.221,-251.545 763.872,-254.965 758.273,-250.421 764.622,-247 770.221,-251.545"/>
<text text-anchor="middle" x="1244.5" y="-356.5" font-family="Helvetica,sans-Serif" font-size="10.00"> &#45;m_belief</text>
</g>
<!-- Node19 -->
<g id="node19" class="node"><title>Node19</title>
<g id="a_node19"><a xlink:href="../../d3/d00/a00113.html" target="_top" xlink:title="Holds a person&#39;s health data. ">
<polygon fill="white" stroke="black" points="999.5,-389 999.5,-589 1142.5,-589 1142.5,-389 999.5,-389"/>
<text text-anchor="middle" x="1071" y="-577" font-family="Helvetica,sans-Serif" font-size="10.00">stride::Health</text>
<polyline fill="none" stroke="black" points="999.5,-570 1142.5,-570 "/>
<text text-anchor="middle" x="1071" y="-558" font-family="Helvetica,sans-Serif" font-size="10.00"> </text>
<polyline fill="none" stroke="black" points="999.5,-551 1142.5,-551 "/>
<text text-anchor="start" x="1007.5" y="-539" font-family="Helvetica,sans-Serif" font-size="10.00">+ Health()</text>
<text text-anchor="start" x="1007.5" y="-528" font-family="Helvetica,sans-Serif" font-size="10.00">+ GetEndInfectiousness()</text>
<text text-anchor="start" x="1007.5" y="-517" font-family="Helvetica,sans-Serif" font-size="10.00">+ GetEndSymptomatic()</text>
<text text-anchor="start" x="1007.5" y="-506" font-family="Helvetica,sans-Serif" font-size="10.00">+ GetStartInfectiousness()</text>
<text text-anchor="start" x="1007.5" y="-495" font-family="Helvetica,sans-Serif" font-size="10.00">+ GetStartSymptomatic()</text>
<text text-anchor="start" x="1007.5" y="-484" font-family="Helvetica,sans-Serif" font-size="10.00">+ IsImmune()</text>
<text text-anchor="start" x="1007.5" y="-473" font-family="Helvetica,sans-Serif" font-size="10.00">+ IsInfected()</text>
<text text-anchor="start" x="1007.5" y="-462" font-family="Helvetica,sans-Serif" font-size="10.00">+ IsInfectious()</text>
<text text-anchor="start" x="1007.5" y="-451" font-family="Helvetica,sans-Serif" font-size="10.00">+ IsRecovered()</text>
<text text-anchor="start" x="1007.5" y="-440" font-family="Helvetica,sans-Serif" font-size="10.00">+ IsSusceptible()</text>
<text text-anchor="start" x="1007.5" y="-429" font-family="Helvetica,sans-Serif" font-size="10.00">and 6 more...</text>
<text text-anchor="start" x="1007.5" y="-418" font-family="Helvetica,sans-Serif" font-size="10.00">&#45; GetDiseaseCounter()</text>
<text text-anchor="start" x="1007.5" y="-407" font-family="Helvetica,sans-Serif" font-size="10.00">&#45; IncrementDiseaseCounter()</text>
<text text-anchor="start" x="1007.5" y="-396" font-family="Helvetica,sans-Serif" font-size="10.00">&#45; ResetDiseaseCounter()</text>
</a>
</g>
</g>
<!-- Node19&#45;&gt;Node6 -->
<g id="edge20" class="edge"><title>Node19&#45;&gt;Node6</title>
<path fill="none" stroke="#404040" d="M999.479,-396.236C996.366,-393.369 993.203,-390.612 990,-388 921.549,-332.178 827.452,-289.447 769.783,-266.312"/>
<polygon fill="none" stroke="#404040" points="769.562,-266.225 762.511,-267.738 758.403,-261.812 765.453,-260.299 769.562,-266.225"/>
<text text-anchor="middle" x="987" y="-356.5" font-family="Helvetica,sans-Serif" font-size="10.00"> &#45;m_health</text>
</g>
<!-- Node20 -->
<g id="node20" class="node"><title>Node20</title>
<polygon fill="white" stroke="#bfbfbf" points="1152,-721.5 1152,-778.5 1226,-778.5 1226,-721.5 1152,-721.5"/>
<text text-anchor="middle" x="1189" y="-766.5" font-family="Helvetica,sans-Serif" font-size="10.00">HealthStatus</text>
<polyline fill="none" stroke="#bfbfbf" points="1152,-759.5 1226,-759.5 "/>
<text text-anchor="middle" x="1189" y="-747.5" font-family="Helvetica,sans-Serif" font-size="10.00"> </text>
<polyline fill="none" stroke="#bfbfbf" points="1152,-740.5 1226,-740.5 "/>
<text text-anchor="middle" x="1189" y="-728.5" font-family="Helvetica,sans-Serif" font-size="10.00"> </text>
</g>
<!-- Node20&#45;&gt;Node19 -->
<g id="edge21" class="edge"><title>Node20&#45;&gt;Node19</title>
<path fill="none" stroke="#404040" d="M1189.23,-721.427C1188.46,-691.99 1184.28,-644.637 1167,-608 1162.43,-598.319 1157.9,-598.182 1151,-590 1150.83,-589.793 1150.65,-589.585 1150.48,-589.378"/>
<polygon fill="none" stroke="#404040" points="1150.22,-589.069 1143.3,-587.032 1142.52,-579.863 1149.44,-581.901 1150.22,-589.069"/>
<text text-anchor="middle" x="1207.5" y="-633.5" font-family="Helvetica,sans-Serif" font-size="10.00"> &#45;m_status</text>
</g>
<!-- Node21 -->
<g id="node21" class="node"><title>Node21</title>
<polygon fill="white" stroke="#bfbfbf" points="1014,-721.5 1014,-778.5 1108,-778.5 1108,-721.5 1014,-721.5"/>
<text text-anchor="middle" x="1061" y="-766.5" font-family="Helvetica,sans-Serif" font-size="10.00">unsigned short int</text>
<polyline fill="none" stroke="#bfbfbf" points="1014,-759.5 1108,-759.5 "/>
<text text-anchor="middle" x="1061" y="-747.5" font-family="Helvetica,sans-Serif" font-size="10.00"> </text>
<polyline fill="none" stroke="#bfbfbf" points="1014,-740.5 1108,-740.5 "/>
<text text-anchor="middle" x="1061" y="-728.5" font-family="Helvetica,sans-Serif" font-size="10.00"> </text>
</g>
<!-- Node21&#45;&gt;Node19 -->
<g id="edge22" class="edge"><title>Node21&#45;&gt;Node19</title>
<path fill="none" stroke="#404040" d="M1060.63,-721.428C1060.39,-692.995 1060.36,-647.378 1062,-608 1062.09,-605.787 1062.19,-603.551 1062.3,-601.298"/>
<polygon fill="none" stroke="#404040" points="1062.31,-601.103 1058.63,-594.901 1062.94,-589.12 1066.62,-595.322 1062.31,-601.103"/>
<text text-anchor="middle" x="1114.5" y="-655.5" font-family="Helvetica,sans-Serif" font-size="10.00"> &#45;m_start_symptomatic</text>
<text text-anchor="middle" x="1114.5" y="-644.5" font-family="Helvetica,sans-Serif" font-size="10.00">&#45;m_disease_counter</text>
<text text-anchor="middle" x="1114.5" y="-633.5" font-family="Helvetica,sans-Serif" font-size="10.00">&#45;m_end_symptomatic</text>
<text text-anchor="middle" x="1114.5" y="-622.5" font-family="Helvetica,sans-Serif" font-size="10.00">&#45;m_end_infectiousness</text>
<text text-anchor="middle" x="1114.5" y="-611.5" font-family="Helvetica,sans-Serif" font-size="10.00">&#45;m_start_infectiousness</text>
</g>
<!-- Node22 -->
<g id="node22" class="node"><title>Node22</title>
<polygon fill="white" stroke="#bfbfbf" points="547.5,-721.5 547.5,-778.5 590.5,-778.5 590.5,-721.5 547.5,-721.5"/>
<text text-anchor="middle" x="569" y="-766.5" font-family="Helvetica,sans-Serif" font-size="10.00">size_t</text>
<polyline fill="none" stroke="#bfbfbf" points="547.5,-759.5 590.5,-759.5 "/>
<text text-anchor="middle" x="569" y="-747.5" font-family="Helvetica,sans-Serif" font-size="10.00"> </text>
<polyline fill="none" stroke="#bfbfbf" points="547.5,-740.5 590.5,-740.5 "/>
<text text-anchor="middle" x="569" y="-728.5" font-family="Helvetica,sans-Serif" font-size="10.00"> </text>
</g>
<!-- Node22&#45;&gt;Node4 -->
<g id="edge28" class="edge"><title>Node22&#45;&gt;Node4</title>
<path fill="none" stroke="#404040" d="M552.198,-721.282C533.037,-689.672 500.626,-636.205 471.792,-588.638"/>
<polygon fill="none" stroke="#404040" points="471.73,-588.535 465.199,-585.477 465.509,-578.273 472.04,-581.33 471.73,-588.535"/>
<text text-anchor="middle" x="554" y="-639" font-family="Helvetica,sans-Serif" font-size="10.00"> &#45;m_capacity</text>
<text text-anchor="middle" x="554" y="-628" font-family="Helvetica,sans-Serif" font-size="10.00">&#45;m_index_immune</text>
</g>
<!-- Node22&#45;&gt;Node6 -->
<g id="edge23" class="edge"><title>Node22&#45;&gt;Node6</title>
<path fill="none" stroke="#404040" d="M579.299,-721.291C585.219,-704.791 592.54,-683.359 598,-664 632.125,-542.996 622.173,-507.898 660,-388 664.87,-372.562 670.724,-356.454 676.813,-340.876"/>
<polygon fill="none" stroke="#404040" points="676.845,-340.795 675.344,-333.742 681.277,-329.644 682.778,-336.697 676.845,-340.795"/>
<text text-anchor="middle" x="683" y="-486.5" font-family="Helvetica,sans-Serif" font-size="10.00"> &#45;m_region</text>
</g>
<!-- Node23&#45;&gt;Node3 -->
<g id="edge29" class="edge"><title>Node23&#45;&gt;Node3</title>
<path fill="none" stroke="orange" d="M212.546,-453.725C186.717,-431.31 153.642,-400.603 128,-370 104.196,-341.59 81.6079,-305.741 66.543,-280.087"/>
<polygon fill="orange" stroke="orange" points="210.449,-456.538 220.313,-460.406 215.014,-451.231 210.449,-456.538"/>
<text text-anchor="middle" x="184" y="-356.5" font-family="Helvetica,sans-Serif" font-size="10.00"> &lt; stride::ContactPool * &gt;</text>
</g>
<!-- Node23&#45;&gt;Node5 -->
<g id="edge24" class="edge"><title>Node23&#45;&gt;Node5</title>
<path fill="none" stroke="orange" d="M252.002,-450.245C250.127,-387.578 252.482,-259.349 295,-162 306.519,-135.626 326.587,-110.402 344.219,-91.4007"/>
<polygon fill="orange" stroke="orange" points="248.511,-450.574 252.362,-460.444 255.507,-450.326 248.511,-450.574"/>
<text text-anchor="middle" x="339.5" y="-243.5" font-family="Helvetica,sans-Serif" font-size="10.00"> &lt; stride::Person * &gt;</text>
</g>
<!-- Node24 -->
<g id="node24" class="node"><title>Node24</title>
<polygon fill="white" stroke="#bfbfbf" points="397.5,-721.5 397.5,-778.5 426.5,-778.5 426.5,-721.5 397.5,-721.5"/>
<text text-anchor="middle" x="412" y="-766.5" font-family="Helvetica,sans-Serif" font-size="10.00">Id</text>
<polyline fill="none" stroke="#bfbfbf" points="397.5,-759.5 426.5,-759.5 "/>
<text text-anchor="middle" x="412" y="-747.5" font-family="Helvetica,sans-Serif" font-size="10.00"> </text>
<polyline fill="none" stroke="#bfbfbf" points="397.5,-740.5 426.5,-740.5 "/>
<text text-anchor="middle" x="412" y="-728.5" font-family="Helvetica,sans-Serif" font-size="10.00"> </text>
</g>
<!-- Node24&#45;&gt;Node4 -->
<g id="edge27" class="edge"><title>Node24&#45;&gt;Node4</title>
<path fill="none" stroke="#404040" d="M412,-721.282C412,-690.07 412,-637.547 412,-590.435"/>
<polygon fill="none" stroke="#404040" points="412,-590.273 408,-584.273 412,-578.273 416,-584.273 412,-590.273"/>
<text text-anchor="middle" x="443" y="-633.5" font-family="Helvetica,sans-Serif" font-size="10.00"> &#45;m_pool_type</text>
</g>
</g>
</svg>
        <g id="navigator" transform="translate(0 0)" fill="#404254">
                <rect fill="#f2f5e9" fill-opacity="0.5" stroke="#606060" stroke-width=".5" x="0" y="0" width="60" height="60"/>
                <use id="zoomplus" xlink:href="#zoomPlus" x="17" y="9" onmousedown="handleZoom(evt,'in')"/>
                <use id="zoomminus" xlink:href="#zoomMin" x="42" y="9" onmousedown="handleZoom(evt,'out')"/>
                <use id="reset" xlink:href="#resetDef" x="30" y="36" onmousedown="handleReset()"/>
                <g id="arrowUp" xlink:href="#dirArrow" transform="translate(30 24)" onmousedown="handlePan(0,-1)">
                  <use xlink:href="#rim" fill="#404040">
                        <set attributeName="fill" to="#808080" begin="arrowUp.mouseover" end="arrowUp.mouseout"/>
                  </use>
                  <path fill="none" stroke="white" stroke-width="1.5" d="M0,-3.0v7 M-2.5,-0.5L0,-3.0L2.5,-0.5"/>
                </g>
                <g id="arrowRight" xlink:href="#dirArrow" transform="rotate(90) translate(36 -43)" onmousedown="handlePan(1,0)">
                  <use xlink:href="#rim" fill="#404040">
                        <set attributeName="fill" to="#808080" begin="arrowRight.mouseover" end="arrowRight.mouseout"/>
                  </use>
                  <path fill="none" stroke="white" stroke-width="1.5" d="M0,-3.0v7 M-2.5,-0.5L0,-3.0L2.5,-0.5"/>
                </g>
                <g id="arrowDown" xlink:href="#dirArrow" transform="rotate(180) translate(-30 -48)" onmousedown="handlePan(0,1)">
                  <use xlink:href="#rim" fill="#404040">
                        <set attributeName="fill" to="#808080" begin="arrowDown.mouseover" end="arrowDown.mouseout"/>
                  </use>
                  <path fill="none" stroke="white" stroke-width="1.5" d="M0,-3.0v7 M-2.5,-0.5L0,-3.0L2.5,-0.5"/>
                </g>
                <g id="arrowLeft" xlink:href="#dirArrow" transform="rotate(270) translate(-36 17)" onmousedown="handlePan(-1,0)">
                  <use xlink:href="#rim" fill="#404040">
                        <set attributeName="fill" to="#808080" begin="arrowLeft.mouseover" end="arrowLeft.mouseout"/>
                  </use>
                  <path fill="none" stroke="white" stroke-width="1.5" d="M0,-3.0v7 M-2.5,-0.5L0,-3.0L2.5,-0.5"/>
                </g>
        </g>
        <svg viewBox="0 0 15 15" width="100%" height="30px" preserveAspectRatio="xMaxYMin meet">
         <g id="arrow_out" transform="scale(0.3 0.3)">
          <a xlink:href="a00892_org.svg" target="_base">
           <rect id="button" ry="5" rx="5" y="6" x="6" height="38" width="38"
                fill="#f2f5e9" fill-opacity="0.5" stroke="#606060" stroke-width="1.0"/>
           <path id="arrow"
             d="M 11.500037,31.436501 C 11.940474,20.09759 22.043105,11.32322 32.158766,21.979434 L 37.068811,17.246167 C 37.068811,17.246167 37.088388,32 37.088388,32 L 22.160133,31.978069 C 22.160133,31.978069 26.997745,27.140456 26.997745,27.140456 C 18.528582,18.264221 13.291696,25.230495 11.500037,31.436501 z"
             style="fill:#404040;"/>
          </a>
         </g>
        </svg>
</svg>
