<?xml version="1.0" encoding="UTF-8" standalone="no"?>
<!DOCTYPE svg PUBLIC "-//W3C//DTD SVG 1.1//EN"
 "http://www.w3.org/Graphics/SVG/1.1/DTD/svg11.dtd">
<!-- Generated by graphviz version 2.36.0 (20140111.2315)
 -->
<!-- Title: Launcher::SetConfigPath Pages: 1 -->
<svg width="484pt" height="77pt"
 viewBox="0.00 0.00 484.00 77.00" xmlns="http://www.w3.org/2000/svg" xmlns:xlink="http://www.w3.org/1999/xlink">
<g id="graph0" class="graph" transform="scale(1 1) rotate(0) translate(4 73)">
<title>Launcher::SetConfigPath</title>
<polygon fill="white" stroke="none" points="-4,4 -4,-73 480,-73 480,4 -4,4"/>
<!-- Node1 -->
<g id="node1" class="node"><title>Node1</title>
<polygon fill="#bfbfbf" stroke="black" points="0,-22.5 0,-41.5 126,-41.5 126,-22.5 0,-22.5"/>
<text text-anchor="middle" x="63" y="-29.5" font-family="Helvetica,sans-Serif" font-size="10.00">Launcher::SetConfigPath</text>
</g>
<!-- Node2 -->
<g id="node2" class="node"><title>Node2</title>
<g id="a_node2"><a xlink:href="../../d1/db7/a00157.html#a2e80d7e6f1045279269a967ad8476422" target="_top" xlink:title="Read ptree from file at path. ">
<polygon fill="white" stroke="black" points="186,-39 186,-69 284,-69 284,-39 186,-39"/>
<text text-anchor="start" x="194" y="-57" font-family="Helvetica,sans-Serif" font-size="10.00">stride::util::FileSys</text>
<text text-anchor="middle" x="235" y="-46" font-family="Helvetica,sans-Serif" font-size="10.00">::ReadPtreeFile</text>
</a>
</g>
</g>
<!-- Node1&#45;&gt;Node2 -->
<g id="edge1" class="edge"><title>Node1&#45;&gt;Node2</title>
<path fill="none" stroke="midnightblue" d="M126.336,-40.0671C142.427,-42.1494 159.687,-44.3831 175.571,-46.4386"/>
<polygon fill="midnightblue" stroke="midnightblue" points="175.417,-49.9478 185.784,-47.7603 176.316,-43.0057 175.417,-49.9478"/>
</g>
<!-- Node3 -->
<g id="node3" class="node"><title>Node3</title>
<g id="a_node3"><a xlink:href="../../d9/da4/a00078.html#a82476e068ca8f3649ed7ed59aaf53e15" target="_top" xlink:title="Updates the information in the QML forms with what is stored in the Boost Property Tree...">
<polygon fill="white" stroke="black" points="162.5,-0.5 162.5,-19.5 307.5,-19.5 307.5,-0.5 162.5,-0.5"/>
<text text-anchor="middle" x="235" y="-7.5" font-family="Helvetica,sans-Serif" font-size="10.00">Launcher::UpdateConfigForm</text>
</a>
</g>
</g>
<!-- Node1&#45;&gt;Node3 -->
<g id="edge2" class="edge"><title>Node1&#45;&gt;Node3</title>
<path fill="none" stroke="midnightblue" d="M126.336,-23.9329C134.782,-22.84 143.55,-21.7053 152.271,-20.5766"/>
<polygon fill="midnightblue" stroke="midnightblue" points="152.999,-24.0118 162.467,-19.2573 152.1,-17.0697 152.999,-24.0118"/>
</g>
<!-- Node4 -->
<g id="node4" class="node"><title>Node4</title>
<g id="a_node4"><a xlink:href="../../d9/da4/a00078.html#a764a1803d2df7509dba617e753f483fb" target="_top" xlink:title="Sets the value of the provided ComboBox to the provided value. ">
<polygon fill="white" stroke="black" points="344,-0.5 344,-19.5 476,-19.5 476,-0.5 344,-0.5"/>
<text text-anchor="middle" x="410" y="-7.5" font-family="Helvetica,sans-Serif" font-size="10.00">Launcher::LoadComboBox</text>
</a>
</g>
</g>
<!-- Node3&#45;&gt;Node4 -->
<g id="edge3" class="edge"><title>Node3&#45;&gt;Node4</title>
<path fill="none" stroke="midnightblue" d="M307.615,-10C316.233,-10 325.055,-10 333.724,-10"/>
<polygon fill="midnightblue" stroke="midnightblue" points="333.809,-13.5001 343.809,-10 333.809,-6.5001 333.809,-13.5001"/>
</g>
</g>
</svg>
