<?xml version="1.0" encoding="UTF-8" standalone="no"?>
<!DOCTYPE svg PUBLIC "-//W3C//DTD SVG 1.1//EN"
 "http://www.w3.org/Graphics/SVG/1.1/DTD/svg11.dtd">
<!-- Generated by graphviz version 2.36.0 (20140111.2315)
 -->
<!-- Title: Launcher::SaveConfig Pages: 1 -->
<svg width="276pt" height="77pt"
 viewBox="0.00 0.00 276.00 77.00" xmlns="http://www.w3.org/2000/svg" xmlns:xlink="http://www.w3.org/1999/xlink">
<g id="graph0" class="graph" transform="scale(1 1) rotate(0) translate(4 73)">
<title>Launcher::SaveConfig</title>
<polygon fill="white" stroke="none" points="-4,4 -4,-73 272,-73 272,4 -4,4"/>
<!-- Node1 -->
<g id="node1" class="node"><title>Node1</title>
<polygon fill="#bfbfbf" stroke="black" points="0.5,-27.5 0.5,-46.5 113.5,-46.5 113.5,-27.5 0.5,-27.5"/>
<text text-anchor="middle" x="57" y="-34.5" font-family="Helvetica,sans-Serif" font-size="10.00">Launcher::SaveConfig</text>
</g>
<!-- Node2 -->
<g id="node2" class="node"><title>Node2</title>
<g id="a_node2"><a xlink:href="../../d9/da4/a00078.html#ae19635679e1c50cf8e2fbb5e87914931" target="_top" xlink:title="Launcher::UpdatePtree">
<polygon fill="white" stroke="black" points="150.5,-49.5 150.5,-68.5 267.5,-68.5 267.5,-49.5 150.5,-49.5"/>
<text text-anchor="middle" x="209" y="-56.5" font-family="Helvetica,sans-Serif" font-size="10.00">Launcher::UpdatePtree</text>
</a>
</g>
</g>
<!-- Node1&#45;&gt;Node2 -->
<g id="edge1" class="edge"><title>Node1&#45;&gt;Node2</title>
<path fill="none" stroke="midnightblue" d="M113.854,-45.192C122.509,-46.4613 131.527,-47.784 140.406,-49.0863"/>
<polygon fill="midnightblue" stroke="midnightblue" points="139.943,-52.5556 150.345,-50.5439 140.958,-45.6297 139.943,-52.5556"/>
</g>
<!-- Node3 -->
<g id="node3" class="node"><title>Node3</title>
<g id="a_node3"><a xlink:href="../../d3/d65/a00154.html#a1bc06882ff174f1005045311b714dcfd" target="_top" xlink:title="Write ptree to file at path. ">
<polygon fill="white" stroke="black" points="160,-0 160,-30 258,-30 258,-0 160,-0"/>
<text text-anchor="start" x="168" y="-18" font-family="Helvetica,sans-Serif" font-size="10.00">stride::util::FileSys</text>
<text text-anchor="middle" x="209" y="-7" font-family="Helvetica,sans-Serif" font-size="10.00">::WritePtreeFile</text>
</a>
</g>
</g>
<!-- Node1&#45;&gt;Node3 -->
<g id="edge2" class="edge"><title>Node1&#45;&gt;Node3</title>
<path fill="none" stroke="midnightblue" d="M113.854,-28.808C125.58,-27.0883 137.974,-25.2705 149.783,-23.5385"/>
<polygon fill="midnightblue" stroke="midnightblue" points="150.592,-26.9574 159.978,-22.0432 149.576,-20.0315 150.592,-26.9574"/>
</g>
</g>
</svg>
