<?xml version="1.0" encoding="UTF-8" standalone="no"?>
<!DOCTYPE svg PUBLIC "-//W3C//DTD SVG 1.1//EN"
 "http://www.w3.org/Graphics/SVG/1.1/DTD/svg11.dtd">
<!-- Generated by graphviz version 2.36.0 (20140111.2315)
 -->
<!-- Title: Launcher::LoadComboBox Pages: 1 -->
<svg width="484pt" height="28pt"
 viewBox="0.00 0.00 484.00 28.00" xmlns="http://www.w3.org/2000/svg" xmlns:xlink="http://www.w3.org/1999/xlink">
<g id="graph0" class="graph" transform="scale(1 1) rotate(0) translate(4 24)">
<title>Launcher::LoadComboBox</title>
<polygon fill="white" stroke="none" points="-4,4 -4,-24 480,-24 480,4 -4,4"/>
<!-- Node1 -->
<g id="node1" class="node"><title>Node1</title>
<polygon fill="#bfbfbf" stroke="black" points="0,-0.5 0,-19.5 132,-19.5 132,-0.5 0,-0.5"/>
<text text-anchor="middle" x="66" y="-7.5" font-family="Helvetica,sans-Serif" font-size="10.00">Launcher::LoadComboBox</text>
</g>
<!-- Node2 -->
<g id="node2" class="node"><title>Node2</title>
<g id="a_node2"><a xlink:href="../../d9/da4/a00078.html#a82476e068ca8f3649ed7ed59aaf53e15" target="_top" xlink:title="Updates the information in the QML forms with what is stored in the Boost Property Tree...">
<polygon fill="white" stroke="black" points="168.5,-0.5 168.5,-19.5 313.5,-19.5 313.5,-0.5 168.5,-0.5"/>
<text text-anchor="middle" x="241" y="-7.5" font-family="Helvetica,sans-Serif" font-size="10.00">Launcher::UpdateConfigForm</text>
</a>
</g>
</g>
<!-- Node1&#45;&gt;Node2 -->
<g id="edge1" class="edge"><title>Node1&#45;&gt;Node2</title>
<path fill="none" stroke="midnightblue" d="M142.445,-10C151.074,-10 159.853,-10 168.43,-10"/>
<polygon fill="midnightblue" stroke="midnightblue" points="142.404,-6.5001 132.404,-10 142.404,-13.5001 142.404,-6.5001"/>
</g>
<!-- Node3 -->
<g id="node3" class="node"><title>Node3</title>
<g id="a_node3"><a xlink:href="../../d9/da4/a00078.html#a73d93a492ebe652b29b3b07f4f418ac4" target="_top" xlink:title="Load the configuration from the provided path. ">
<polygon fill="white" stroke="black" points="350,-0.5 350,-19.5 476,-19.5 476,-0.5 350,-0.5"/>
<text text-anchor="middle" x="413" y="-7.5" font-family="Helvetica,sans-Serif" font-size="10.00">Launcher::SetConfigPath</text>
</a>
</g>
</g>
<!-- Node2&#45;&gt;Node3 -->
<g id="edge2" class="edge"><title>Node2&#45;&gt;Node3</title>
<path fill="none" stroke="midnightblue" d="M323.851,-10C332.617,-10 341.429,-10 349.911,-10"/>
<polygon fill="midnightblue" stroke="midnightblue" points="323.603,-6.5001 313.603,-10 323.603,-13.5001 323.603,-6.5001"/>
</g>
</g>
</svg>
