<?xml version="1.0" encoding="UTF-8" standalone="no"?>
<!DOCTYPE svg PUBLIC "-//W3C//DTD SVG 1.1//EN"
 "http://www.w3.org/Graphics/SVG/1.1/DTD/svg11.dtd">
<!-- Generated by graphviz version 2.36.0 (20140111.2315)
 -->
<!-- Title: gengeopop::CommutesCSVReader::FillGeoGrid Pages: 1 -->
<!--zoomable 162 -->
<svg id="main" version="1.1" xmlns="http://www.w3.org/2000/svg" xmlns:xlink="http://www.w3.org/1999/xlink" xml:space="preserve" onload="init(evt)">
<style type="text/css"><![CDATA[
.edge:hover path { stroke: red; }
.edge:hover polygon { stroke: red; fill: red; }
]]></style>
<script type="text/javascript"><![CDATA[
var edges = document.getElementsByTagName('g');
if (edges && edges.length) {
  for (var i=0;i<edges.length;i++) {
    if (edges[i].id.substr(0,4)=='edge') {
      edges[i].setAttribute('class','edge');
    }
  }
}
]]></script>
        <defs>
                <circle id="rim" cx="0" cy="0" r="7"/>
                <circle id="rim2" cx="0" cy="0" r="3.5"/>
                <g id="zoomPlus">
                        <use xlink:href="#rim" fill="#404040">
                                <set attributeName="fill" to="#808080" begin="zoomplus.mouseover" end="zoomplus.mouseout"/>
                        </use>
                        <path d="M-4,0h8M0,-4v8" fill="none" stroke="white" stroke-width="1.5" pointer-events="none"/>
                </g>
                <g id="zoomMin">
                        <use xlink:href="#rim" fill="#404040">
                                <set attributeName="fill" to="#808080" begin="zoomminus.mouseover" end="zoomminus.mouseout"/>
                        </use>
                        <path d="M-4,0h8" fill="none" stroke="white" stroke-width="1.5" pointer-events="none"/>
                </g>
                <g id="dirArrow">
                        <path fill="none" stroke="white" stroke-width="1.5" d="M0,-3.0v7 M-2.5,-0.5L0,-3.0L2.5,-0.5"/>
                </g>
               <g id="resetDef">
                       <use xlink:href="#rim2" fill="#404040">
                               <set attributeName="fill" to="#808080" begin="reset.mouseover" end="reset.mouseout"/>
                       </use>
               </g>
        </defs>

<script type="text/javascript">
var viewWidth = 796;
var viewHeight = 162;
var sectionId = 'dynsection-2';
</script>
<script xlink:href="../../svgpan.js"/>
<svg id="graph" class="graph">
<g id="viewport">
<title>gengeopop::CommutesCSVReader::FillGeoGrid</title>
<polygon fill="white" stroke="none" points="-4,4 -4,-158 792,-158 792,4 -4,4"/>
<!-- Node1 -->
<g id="node1" class="node"><title>Node1</title>
<polygon fill="#bfbfbf" stroke="black" points="0,-50 0,-80 170,-80 170,-50 0,-50"/>
<text text-anchor="start" x="8" y="-68" font-family="Helvetica,sans-Serif" font-size="10.00">gengeopop::CommutesCSVReader</text>
<text text-anchor="middle" x="85" y="-57" font-family="Helvetica,sans-Serif" font-size="10.00">::FillGeoGrid</text>
</g>
<!-- Node2 -->
<g id="node2" class="node"><title>Node2</title>
<g id="a_node2"><a xlink:href="../../dc/de2/a00024.html#a0a423b912a592057bfbd5cac7e5db771" target="_top" xlink:title="Add commutes by splitting the &#39;from&#39; into submunicipalities if necessary. ">
<polygon fill="white" stroke="black" points="206,-99 206,-129 376,-129 376,-99 206,-99"/>
<text text-anchor="start" x="214" y="-117" font-family="Helvetica,sans-Serif" font-size="10.00">gengeopop::CommutesCSVReader</text>
<text text-anchor="middle" x="291" y="-106" font-family="Helvetica,sans-Serif" font-size="10.00">::AddCommuteFrom</text>
</a>
</g>
</g>
<!-- Node1&#45;&gt;Node2 -->
<g id="edge1" class="edge"><title>Node1&#45;&gt;Node2</title>
<path fill="none" stroke="midnightblue" d="M148.593,-80.0346C170.426,-85.2789 195.106,-91.2069 217.666,-96.6255"/>
<polygon fill="midnightblue" stroke="midnightblue" points="216.984,-100.061 227.525,-98.9938 218.619,-93.255 216.984,-100.061"/>
</g>
<!-- Node6 -->
<g id="node6" class="node"><title>Node6</title>
<g id="a_node6"><a xlink:href="../../d3/d65/a00154.html#a63ffba1157ea6381bbce102c430e189b" target="_top" xlink:title="Amount of columns in the CSV. ">
<polygon fill="white" stroke="black" points="245,-50 245,-80 337,-80 337,-50 245,-50"/>
<text text-anchor="start" x="253" y="-68" font-family="Helvetica,sans-Serif" font-size="10.00">stride::util::CSV::</text>
<text text-anchor="middle" x="291" y="-57" font-family="Helvetica,sans-Serif" font-size="10.00">GetColumnCount</text>
</a>
</g>
</g>
<!-- Node1&#45;&gt;Node6 -->
<g id="edge5" class="edge"><title>Node1&#45;&gt;Node6</title>
<path fill="none" stroke="midnightblue" d="M170.152,-65C191.929,-65 214.826,-65 234.705,-65"/>
<polygon fill="midnightblue" stroke="midnightblue" points="234.803,-68.5001 244.803,-65 234.803,-61.5001 234.803,-68.5001"/>
</g>
<!-- Node7 -->
<g id="node7" class="node"><title>Node7</title>
<g id="a_node7"><a xlink:href="../../d3/d65/a00154.html#ad153bb329555a2b114defc97e53793ad" target="_top" xlink:title="stride::util::CSV::\lGetLabels">
<polygon fill="white" stroke="black" points="245,-1 245,-31 337,-31 337,-1 245,-1"/>
<text text-anchor="start" x="253" y="-19" font-family="Helvetica,sans-Serif" font-size="10.00">stride::util::CSV::</text>
<text text-anchor="middle" x="291" y="-8" font-family="Helvetica,sans-Serif" font-size="10.00">GetLabels</text>
</a>
</g>
</g>
<!-- Node1&#45;&gt;Node7 -->
<g id="edge6" class="edge"><title>Node1&#45;&gt;Node7</title>
<path fill="none" stroke="midnightblue" d="M148.593,-49.9654C176.115,-43.3548 208.159,-35.6579 234.778,-29.2641"/>
<polygon fill="midnightblue" stroke="midnightblue" points="235.788,-32.6212 244.694,-26.8824 234.153,-25.8148 235.788,-32.6212"/>
</g>
<!-- Node3 -->
<g id="node3" class="node"><title>Node3</title>
<g id="a_node3"><a xlink:href="../../dc/de2/a00024.html#aee4d79ece3826cb5230b42cc3dee21ca" target="_top" xlink:title="Add commutes by splitting the &#39;to&#39; into submunicipalities if necessary. ">
<polygon fill="white" stroke="black" points="412,-99 412,-129 582,-129 582,-99 412,-99"/>
<text text-anchor="start" x="420" y="-117" font-family="Helvetica,sans-Serif" font-size="10.00">gengeopop::CommutesCSVReader</text>
<text text-anchor="middle" x="497" y="-106" font-family="Helvetica,sans-Serif" font-size="10.00">::AddCommuteTo</text>
</a>
</g>
</g>
<!-- Node2&#45;&gt;Node3 -->
<g id="edge2" class="edge"><title>Node2&#45;&gt;Node3</title>
<path fill="none" stroke="midnightblue" d="M376.152,-114C384.501,-114 393.015,-114 401.46,-114"/>
<polygon fill="midnightblue" stroke="midnightblue" points="401.712,-117.5 411.712,-114 401.712,-110.5 401.712,-117.5"/>
</g>
<!-- Node4 -->
<g id="node4" class="node"><title>Node4</title>
<g id="a_node4"><a xlink:href="../../dc/de2/a00024.html#aacda603127a4a37fbb57ea3c454479c5" target="_top" xlink:title="Find the relative total populution in the submunicipalities. If it doesn&#39;t have any, it will return 0. ">
<polygon fill="white" stroke="black" points="618,-124 618,-154 788,-154 788,-124 618,-124"/>
<text text-anchor="start" x="626" y="-142" font-family="Helvetica,sans-Serif" font-size="10.00">gengeopop::CommutesCSVReader</text>
<text text-anchor="middle" x="703" y="-131" font-family="Helvetica,sans-Serif" font-size="10.00">::MunicipalityTotal</text>
</a>
</g>
</g>
<!-- Node3&#45;&gt;Node4 -->
<g id="edge3" class="edge"><title>Node3&#45;&gt;Node4</title>
<path fill="none" stroke="midnightblue" d="M582.152,-124.313C590.593,-125.347 599.202,-126.402 607.739,-127.448"/>
<polygon fill="midnightblue" stroke="midnightblue" points="607.36,-130.928 617.712,-128.671 608.212,-123.98 607.36,-130.928"/>
</g>
<!-- Node5 -->
<g id="node5" class="node"><title>Node5</title>
<g id="a_node5"><a xlink:href="../../dc/de2/a00024.html#ac1bf33d26337d5de5769f3c300490679" target="_top" xlink:title="Add the provided commute symmetrically to the locations. ">
<polygon fill="white" stroke="black" points="618,-75 618,-105 788,-105 788,-75 618,-75"/>
<text text-anchor="start" x="626" y="-93" font-family="Helvetica,sans-Serif" font-size="10.00">gengeopop::CommutesCSVReader</text>
<text text-anchor="middle" x="703" y="-82" font-family="Helvetica,sans-Serif" font-size="10.00">::AddCommute</text>
</a>
</g>
</g>
<!-- Node3&#45;&gt;Node5 -->
<g id="edge4" class="edge"><title>Node3&#45;&gt;Node5</title>
<path fill="none" stroke="midnightblue" d="M582.152,-104.1C590.593,-103.107 599.202,-102.094 607.739,-101.09"/>
<polygon fill="midnightblue" stroke="midnightblue" points="608.189,-104.561 617.712,-99.9163 607.371,-97.6087 608.189,-104.561"/>
</g>
</g>
</svg>
        <g id="navigator" transform="translate(0 0)" fill="#404254">
                <rect fill="#f2f5e9" fill-opacity="0.5" stroke="#606060" stroke-width=".5" x="0" y="0" width="60" height="60"/>
                <use id="zoomplus" xlink:href="#zoomPlus" x="17" y="9" onmousedown="handleZoom(evt,'in')"/>
                <use id="zoomminus" xlink:href="#zoomMin" x="42" y="9" onmousedown="handleZoom(evt,'out')"/>
                <use id="reset" xlink:href="#resetDef" x="30" y="36" onmousedown="handleReset()"/>
                <g id="arrowUp" xlink:href="#dirArrow" transform="translate(30 24)" onmousedown="handlePan(0,-1)">
                  <use xlink:href="#rim" fill="#404040">
                        <set attributeName="fill" to="#808080" begin="arrowUp.mouseover" end="arrowUp.mouseout"/>
                  </use>
                  <path fill="none" stroke="white" stroke-width="1.5" d="M0,-3.0v7 M-2.5,-0.5L0,-3.0L2.5,-0.5"/>
                </g>
                <g id="arrowRight" xlink:href="#dirArrow" transform="rotate(90) translate(36 -43)" onmousedown="handlePan(1,0)">
                  <use xlink:href="#rim" fill="#404040">
                        <set attributeName="fill" to="#808080" begin="arrowRight.mouseover" end="arrowRight.mouseout"/>
                  </use>
                  <path fill="none" stroke="white" stroke-width="1.5" d="M0,-3.0v7 M-2.5,-0.5L0,-3.0L2.5,-0.5"/>
                </g>
                <g id="arrowDown" xlink:href="#dirArrow" transform="rotate(180) translate(-30 -48)" onmousedown="handlePan(0,1)">
                  <use xlink:href="#rim" fill="#404040">
                        <set attributeName="fill" to="#808080" begin="arrowDown.mouseover" end="arrowDown.mouseout"/>
                  </use>
                  <path fill="none" stroke="white" stroke-width="1.5" d="M0,-3.0v7 M-2.5,-0.5L0,-3.0L2.5,-0.5"/>
                </g>
                <g id="arrowLeft" xlink:href="#dirArrow" transform="rotate(270) translate(-36 17)" onmousedown="handlePan(-1,0)">
                  <use xlink:href="#rim" fill="#404040">
                        <set attributeName="fill" to="#808080" begin="arrowLeft.mouseover" end="arrowLeft.mouseout"/>
                  </use>
                  <path fill="none" stroke="white" stroke-width="1.5" d="M0,-3.0v7 M-2.5,-0.5L0,-3.0L2.5,-0.5"/>
                </g>
        </g>
        <svg viewBox="0 0 15 15" width="100%" height="30px" preserveAspectRatio="xMaxYMin meet">
         <g id="arrow_out" transform="scale(0.3 0.3)">
          <a xlink:href="a00024_a50eaa47a39752b6388d031767f81d40b_cgraph_org.svg" target="_base">
           <rect id="button" ry="5" rx="5" y="6" x="6" height="38" width="38"
                fill="#f2f5e9" fill-opacity="0.5" stroke="#606060" stroke-width="1.0"/>
           <path id="arrow"
             d="M 11.500037,31.436501 C 11.940474,20.09759 22.043105,11.32322 32.158766,21.979434 L 37.068811,17.246167 C 37.068811,17.246167 37.088388,32 37.088388,32 L 22.160133,31.978069 C 22.160133,31.978069 26.997745,27.140456 26.997745,27.140456 C 18.528582,18.264221 13.291696,25.230495 11.500037,31.436501 z"
             style="fill:#404040;"/>
          </a>
         </g>
        </svg>
</svg>
