<?xml version="1.0" encoding="UTF-8" standalone="no"?>
<!DOCTYPE svg PUBLIC "-//W3C//DTD SVG 1.1//EN"
 "http://www.w3.org/Graphics/SVG/1.1/DTD/svg11.dtd">
<!-- Generated by graphviz version 2.36.0 (20140111.2315)
 -->
<!-- Title: gengeopop::CommutesCSVReader::AddCommuteFrom Pages: 1 -->
<svg width="590pt" height="87pt"
 viewBox="0.00 0.00 590.00 87.00" xmlns="http://www.w3.org/2000/svg" xmlns:xlink="http://www.w3.org/1999/xlink">
<g id="graph0" class="graph" transform="scale(1 1) rotate(0) translate(4 83)">
<title>gengeopop::CommutesCSVReader::AddCommuteFrom</title>
<polygon fill="white" stroke="none" points="-4,4 -4,-83 586,-83 586,4 -4,4"/>
<!-- Node1 -->
<g id="node1" class="node"><title>Node1</title>
<polygon fill="#bfbfbf" stroke="black" points="0,-24 0,-54 170,-54 170,-24 0,-24"/>
<text text-anchor="start" x="8" y="-42" font-family="Helvetica,sans-Serif" font-size="10.00">gengeopop::CommutesCSVReader</text>
<text text-anchor="middle" x="85" y="-31" font-family="Helvetica,sans-Serif" font-size="10.00">::AddCommuteFrom</text>
</g>
<!-- Node2 -->
<g id="node2" class="node"><title>Node2</title>
<g id="a_node2"><a xlink:href="../../dc/de2/a00024.html#aee4d79ece3826cb5230b42cc3dee21ca" target="_top" xlink:title="Add commutes by splitting the &#39;to&#39; into submunicipalities if necessary. ">
<polygon fill="white" stroke="black" points="206,-24 206,-54 376,-54 376,-24 206,-24"/>
<text text-anchor="start" x="214" y="-42" font-family="Helvetica,sans-Serif" font-size="10.00">gengeopop::CommutesCSVReader</text>
<text text-anchor="middle" x="291" y="-31" font-family="Helvetica,sans-Serif" font-size="10.00">::AddCommuteTo</text>
</a>
</g>
</g>
<!-- Node1&#45;&gt;Node2 -->
<g id="edge1" class="edge"><title>Node1&#45;&gt;Node2</title>
<path fill="none" stroke="midnightblue" d="M170.152,-39C178.501,-39 187.015,-39 195.46,-39"/>
<polygon fill="midnightblue" stroke="midnightblue" points="195.712,-42.5001 205.712,-39 195.712,-35.5001 195.712,-42.5001"/>
</g>
<!-- Node3 -->
<g id="node3" class="node"><title>Node3</title>
<g id="a_node3"><a xlink:href="../../dc/de2/a00024.html#aacda603127a4a37fbb57ea3c454479c5" target="_top" xlink:title="Find the relative total populution in the submunicipalities. If it doesn&#39;t have any, it will return 0. ">
<polygon fill="white" stroke="black" points="412,-49 412,-79 582,-79 582,-49 412,-49"/>
<text text-anchor="start" x="420" y="-67" font-family="Helvetica,sans-Serif" font-size="10.00">gengeopop::CommutesCSVReader</text>
<text text-anchor="middle" x="497" y="-56" font-family="Helvetica,sans-Serif" font-size="10.00">::MunicipalityTotal</text>
</a>
</g>
</g>
<!-- Node2&#45;&gt;Node3 -->
<g id="edge2" class="edge"><title>Node2&#45;&gt;Node3</title>
<path fill="none" stroke="midnightblue" d="M376.152,-49.3128C384.593,-50.3472 393.202,-51.4022 401.739,-52.4484"/>
<polygon fill="midnightblue" stroke="midnightblue" points="401.36,-55.9281 411.712,-53.6706 402.212,-48.9801 401.36,-55.9281"/>
</g>
<!-- Node4 -->
<g id="node4" class="node"><title>Node4</title>
<g id="a_node4"><a xlink:href="../../dc/de2/a00024.html#ac1bf33d26337d5de5769f3c300490679" target="_top" xlink:title="Add the provided commute symmetrically to the locations. ">
<polygon fill="white" stroke="black" points="412,-0 412,-30 582,-30 582,-0 412,-0"/>
<text text-anchor="start" x="420" y="-18" font-family="Helvetica,sans-Serif" font-size="10.00">gengeopop::CommutesCSVReader</text>
<text text-anchor="middle" x="497" y="-7" font-family="Helvetica,sans-Serif" font-size="10.00">::AddCommute</text>
</a>
</g>
</g>
<!-- Node2&#45;&gt;Node4 -->
<g id="edge3" class="edge"><title>Node2&#45;&gt;Node4</title>
<path fill="none" stroke="midnightblue" d="M376.152,-29.0997C384.593,-28.1067 393.202,-27.0939 401.739,-26.0896"/>
<polygon fill="midnightblue" stroke="midnightblue" points="402.189,-29.5608 411.712,-24.9163 401.371,-22.6087 402.189,-29.5608"/>
</g>
</g>
</svg>
