<?xml version="1.0" encoding="UTF-8" standalone="no"?>
<!DOCTYPE svg PUBLIC "-//W3C//DTD SVG 1.1//EN"
 "http://www.w3.org/Graphics/SVG/1.1/DTD/svg11.dtd">
<!-- Generated by graphviz version 2.36.0 (20140111.2315)
 -->
<!-- Title: stride::ContactPoolType::ToType Pages: 1 -->
<svg width="734pt" height="185pt"
 viewBox="0.00 0.00 734.00 185.00" xmlns="http://www.w3.org/2000/svg" xmlns:xlink="http://www.w3.org/1999/xlink">
<g id="graph0" class="graph" transform="scale(1 1) rotate(0) translate(4 181)">
<title>stride::ContactPoolType::ToType</title>
<polygon fill="white" stroke="none" points="-4,4 -4,-181 730,-181 730,4 -4,4"/>
<!-- Node1 -->
<g id="node1" class="node"><title>Node1</title>
<polygon fill="#bfbfbf" stroke="black" points="0,-73 0,-103 122,-103 122,-73 0,-73"/>
<text text-anchor="start" x="8" y="-91" font-family="Helvetica,sans-Serif" font-size="10.00">stride::ContactPoolType</text>
<text text-anchor="middle" x="61" y="-80" font-family="Helvetica,sans-Serif" font-size="10.00">::ToType</text>
</g>
<!-- Node2 -->
<g id="node2" class="node"><title>Node2</title>
<g id="a_node2"><a xlink:href="../../d6/d7d/a00161.html#a8c78f40f38b8a3fc25e2c21be2de505a" target="_top" xlink:title="Initalize with data in Info. ">
<polygon fill="white" stroke="black" points="158,-73 158,-103 276,-103 276,-73 158,-73"/>
<text text-anchor="start" x="166" y="-91" font-family="Helvetica,sans-Serif" font-size="10.00">stride::util::RNManager</text>
<text text-anchor="middle" x="217" y="-80" font-family="Helvetica,sans-Serif" font-size="10.00">::Initialize</text>
</a>
</g>
</g>
<!-- Node1&#45;&gt;Node2 -->
<g id="edge1" class="edge"><title>Node1&#45;&gt;Node2</title>
<path fill="none" stroke="midnightblue" d="M132.613,-88C141.03,-88 149.551,-88 157.767,-88"/>
<polygon fill="midnightblue" stroke="midnightblue" points="132.423,-84.5001 122.423,-88 132.423,-91.5001 132.423,-84.5001"/>
</g>
<!-- Node3 -->
<g id="node3" class="node"><title>Node3</title>
<g id="a_node3"><a xlink:href="../../d9/d77/a00095.html#a9837dd9796e5b2a40c37984537c1375f" target="_top" xlink:title="Empty controller: used as taget for delegation. ">
<polygon fill="white" stroke="black" points="315.5,-147 315.5,-177 426.5,-177 426.5,-147 315.5,-147"/>
<text text-anchor="start" x="323.5" y="-165" font-family="Helvetica,sans-Serif" font-size="10.00">stride::BaseController</text>
<text text-anchor="middle" x="371" y="-154" font-family="Helvetica,sans-Serif" font-size="10.00">::BaseController</text>
</a>
</g>
</g>
<!-- Node2&#45;&gt;Node3 -->
<g id="edge2" class="edge"><title>Node2&#45;&gt;Node3</title>
<path fill="none" stroke="midnightblue" d="M254.852,-108.01C272.066,-117.15 292.927,-127.933 312,-137 319.031,-140.342 326.624,-143.754 333.925,-146.939"/>
<polygon fill="midnightblue" stroke="midnightblue" points="256.169,-104.745 245.699,-103.123 252.872,-110.92 256.169,-104.745"/>
</g>
<!-- Node4 -->
<g id="node4" class="node"><title>Node4</title>
<g id="a_node4"><a xlink:href="../../de/d5e/a00007.html#a89dcd5e99936c5704336e7e52b72da55" target="_top" xlink:title="calibration::Calibrator\l::CreateRNManager">
<polygon fill="white" stroke="black" points="316.5,-98 316.5,-128 425.5,-128 425.5,-98 316.5,-98"/>
<text text-anchor="start" x="324.5" y="-116" font-family="Helvetica,sans-Serif" font-size="10.00">calibration::Calibrator</text>
<text text-anchor="middle" x="371" y="-105" font-family="Helvetica,sans-Serif" font-size="10.00">::CreateRNManager</text>
</a>
</g>
</g>
<!-- Node2&#45;&gt;Node4 -->
<g id="edge3" class="edge"><title>Node2&#45;&gt;Node4</title>
<path fill="none" stroke="midnightblue" d="M286.24,-99.2237C296.234,-100.867 306.408,-102.541 316.063,-104.129"/>
<polygon fill="midnightblue" stroke="midnightblue" points="286.768,-95.7636 276.332,-97.5942 285.632,-102.671 286.768,-95.7636"/>
</g>
<!-- Node8 -->
<g id="node8" class="node"><title>Node8</title>
<g id="a_node8"><a xlink:href="../../d6/d7d/a00161.html#a30121f0f47cf4c23bed8da7521b2b904" target="_top" xlink:title="Initializes to default engine( trng::mrg2 with seed 1). ">
<polygon fill="white" stroke="black" points="312,-49 312,-79 430,-79 430,-49 312,-49"/>
<text text-anchor="start" x="320" y="-67" font-family="Helvetica,sans-Serif" font-size="10.00">stride::util::RNManager</text>
<text text-anchor="middle" x="371" y="-56" font-family="Helvetica,sans-Serif" font-size="10.00">::RNManager</text>
</a>
</g>
</g>
<!-- Node2&#45;&gt;Node8 -->
<g id="edge8" class="edge"><title>Node2&#45;&gt;Node8</title>
<path fill="none" stroke="midnightblue" d="M286.264,-77.2215C294.798,-75.874 303.463,-74.5058 311.824,-73.1857"/>
<polygon fill="midnightblue" stroke="midnightblue" points="285.664,-73.7727 276.332,-78.7896 286.756,-80.6871 285.664,-73.7727"/>
</g>
<!-- Node9 -->
<g id="node9" class="node"><title>Node9</title>
<g id="a_node9"><a xlink:href="../../d6/d7d/a00161.html#a49618df845ec996f3a777263c7f376de" target="_top" xlink:title="Wrapper method that creates an Info object, used because SWIG can&#39;t handle nested structs...">
<polygon fill="white" stroke="black" points="312,-0 312,-30 430,-30 430,-0 312,-0"/>
<text text-anchor="start" x="320" y="-18" font-family="Helvetica,sans-Serif" font-size="10.00">stride::util::RNManager</text>
<text text-anchor="middle" x="371" y="-7" font-family="Helvetica,sans-Serif" font-size="10.00">::Initialize</text>
</a>
</g>
</g>
<!-- Node2&#45;&gt;Node9 -->
<g id="edge9" class="edge"><title>Node2&#45;&gt;Node9</title>
<path fill="none" stroke="midnightblue" d="M255.655,-68.0631C272.729,-59.2074 293.252,-48.8159 312,-40 319.045,-36.6872 326.644,-33.289 333.947,-30.1075"/>
<polygon fill="midnightblue" stroke="midnightblue" points="253.808,-65.0791 246.558,-72.8052 257.044,-71.2863 253.808,-65.0791"/>
</g>
<!-- Node5 -->
<g id="node5" class="node"><title>Node5</title>
<g id="a_node5"><a xlink:href="../../de/d5e/a00007.html#a26ee572195c295b6735b370ca3dab8b0" target="_top" xlink:title="Run count simulations for each config by varying the seed and return the infected counts after each t...">
<polygon fill="white" stroke="black" points="466.5,-122 466.5,-152 575.5,-152 575.5,-122 466.5,-122"/>
<text text-anchor="start" x="474.5" y="-140" font-family="Helvetica,sans-Serif" font-size="10.00">calibration::Calibrator</text>
<text text-anchor="middle" x="521" y="-129" font-family="Helvetica,sans-Serif" font-size="10.00">::RunMultiple</text>
</a>
</g>
</g>
<!-- Node4&#45;&gt;Node5 -->
<g id="edge4" class="edge"><title>Node4&#45;&gt;Node5</title>
<path fill="none" stroke="midnightblue" d="M435.913,-123.364C446.092,-125.015 456.53,-126.708 466.438,-128.314"/>
<polygon fill="midnightblue" stroke="midnightblue" points="436.281,-119.878 425.85,-121.732 435.161,-126.788 436.281,-119.878"/>
</g>
<!-- Node7 -->
<g id="node7" class="node"><title>Node7</title>
<g id="a_node7"><a xlink:href="../../de/d5e/a00007.html#a83f2d479f8ff86e01a3d1f2c2aeadb39" target="_top" xlink:title="Run one simulation for each config and return the infected counts after each timestep. ">
<polygon fill="white" stroke="black" points="466.5,-73 466.5,-103 575.5,-103 575.5,-73 466.5,-73"/>
<text text-anchor="start" x="474.5" y="-91" font-family="Helvetica,sans-Serif" font-size="10.00">calibration::Calibrator</text>
<text text-anchor="middle" x="521" y="-80" font-family="Helvetica,sans-Serif" font-size="10.00">::RunSingle</text>
</a>
</g>
</g>
<!-- Node4&#45;&gt;Node7 -->
<g id="edge6" class="edge"><title>Node4&#45;&gt;Node7</title>
<path fill="none" stroke="midnightblue" d="M435.913,-102.204C446.092,-100.484 456.53,-98.7213 466.438,-97.0477"/>
<polygon fill="midnightblue" stroke="midnightblue" points="435.127,-98.7869 425.85,-103.904 436.293,-105.689 435.127,-98.7869"/>
</g>
<!-- Node6 -->
<g id="node6" class="node"><title>Node6</title>
<g id="a_node6"><a xlink:href="../../de/d21/a00006.html#a15b5bc2c7261304c0613ffad908e5a2b" target="_top" xlink:title="Run the Calibrator. ">
<polygon fill="white" stroke="black" points="612.5,-97 612.5,-127 725.5,-127 725.5,-97 612.5,-97"/>
<text text-anchor="start" x="620.5" y="-115" font-family="Helvetica,sans-Serif" font-size="10.00">calibration::Calibration</text>
<text text-anchor="middle" x="669" y="-104" font-family="Helvetica,sans-Serif" font-size="10.00">Runner::Run</text>
</a>
</g>
</g>
<!-- Node5&#45;&gt;Node6 -->
<g id="edge5" class="edge"><title>Node5&#45;&gt;Node6</title>
<path fill="none" stroke="midnightblue" d="M585.421,-126.14C594.273,-124.624 603.317,-123.076 612.019,-121.586"/>
<polygon fill="midnightblue" stroke="midnightblue" points="584.802,-122.695 575.536,-127.833 585.983,-129.595 584.802,-122.695"/>
</g>
<!-- Node7&#45;&gt;Node6 -->
<g id="edge7" class="edge"><title>Node7&#45;&gt;Node6</title>
<path fill="none" stroke="midnightblue" d="M585.421,-98.4254C594.273,-99.8806 603.317,-101.367 612.019,-102.798"/>
<polygon fill="midnightblue" stroke="midnightblue" points="585.971,-94.9689 575.536,-96.8004 584.836,-101.876 585.971,-94.9689"/>
</g>
</g>
</svg>
