<?xml version="1.0" encoding="UTF-8" standalone="no"?>
<!DOCTYPE svg PUBLIC "-//W3C//DTD SVG 1.1//EN"
 "http://www.w3.org/Graphics/SVG/1.1/DTD/svg11.dtd">
<!-- Generated by graphviz version 2.36.0 (20140111.2315)
 -->
<!-- Title: stride::AbstractPopBuilder Pages: 1 -->
<svg width="999pt" height="634pt"
 viewBox="0.00 0.00 999.00 634.00" xmlns="http://www.w3.org/2000/svg" xmlns:xlink="http://www.w3.org/1999/xlink">
<g id="graph0" class="graph" transform="scale(1 1) rotate(0) translate(4 630)">
<title>stride::AbstractPopBuilder</title>
<polygon fill="white" stroke="none" points="-4,4 -4,-630 995,-630 995,4 -4,4"/>
<!-- Node1 -->
<g id="node1" class="node"><title>Node1</title>
<polygon fill="#bfbfbf" stroke="black" points="374.5,-0.5 374.5,-79.5 505.5,-79.5 505.5,-0.5 374.5,-0.5"/>
<text text-anchor="middle" x="440" y="-67.5" font-family="Helvetica,sans-Serif" font-size="10.00">stride::AbstractPopBuilder</text>
<polyline fill="none" stroke="black" points="374.5,-60.5 505.5,-60.5 "/>
<text text-anchor="middle" x="440" y="-48.5" font-family="Helvetica,sans-Serif" font-size="10.00"> </text>
<polyline fill="none" stroke="black" points="374.5,-41.5 505.5,-41.5 "/>
<text text-anchor="start" x="382.5" y="-29.5" font-family="Helvetica,sans-Serif" font-size="10.00">+ AbstractPopBuilder()</text>
<text text-anchor="start" x="382.5" y="-18.5" font-family="Helvetica,sans-Serif" font-size="10.00">+ Build()</text>
<text text-anchor="start" x="382.5" y="-7.5" font-family="Helvetica,sans-Serif" font-size="10.00">+ ~AbstractPopBuilder()</text>
</g>
<!-- Node2 -->
<g id="node2" class="node"><title>Node2</title>
<polygon fill="white" stroke="#bfbfbf" points="370,-188.5 370,-245.5 418,-245.5 418,-188.5 370,-188.5"/>
<text text-anchor="middle" x="394" y="-233.5" font-family="Helvetica,sans-Serif" font-size="10.00">ptree &amp;</text>
<polyline fill="none" stroke="#bfbfbf" points="370,-226.5 418,-226.5 "/>
<text text-anchor="middle" x="394" y="-214.5" font-family="Helvetica,sans-Serif" font-size="10.00"> </text>
<polyline fill="none" stroke="#bfbfbf" points="370,-207.5 418,-207.5 "/>
<text text-anchor="middle" x="394" y="-195.5" font-family="Helvetica,sans-Serif" font-size="10.00"> </text>
</g>
<!-- Node2&#45;&gt;Node1 -->
<g id="edge1" class="edge"><title>Node2&#45;&gt;Node1</title>
<path fill="none" stroke="#404040" d="M392.298,-188.047C391.702,-163.638 393,-127.585 403,-98 403.859,-95.4573 404.858,-92.9164 405.965,-90.397"/>
<polygon fill="none" stroke="#404040" points="406.026,-90.2746 405.144,-83.1177 411.411,-79.5502 412.293,-86.7071 406.026,-90.2746"/>
<text text-anchor="middle" x="434" y="-112" font-family="Helvetica,sans-Serif" font-size="10.00"> #m_config_pt</text>
<text text-anchor="middle" x="434" y="-101" font-family="Helvetica,sans-Serif" font-size="10.00">#m_region_pt</text>
</g>
<!-- Node3 -->
<g id="node3" class="node"><title>Node3</title>
<g id="a_node3"><a xlink:href="../../d6/d7d/a00161.html" target="_top" xlink:title="Manages random number generation in parallel (OpenMP) calculations. ">
<polygon fill="white" stroke="black" points="436,-139 436,-295 554,-295 554,-139 436,-139"/>
<text text-anchor="middle" x="495" y="-283" font-family="Helvetica,sans-Serif" font-size="10.00">stride::util::RNManager</text>
<polyline fill="none" stroke="black" points="436,-276 554,-276 "/>
<text text-anchor="middle" x="495" y="-264" font-family="Helvetica,sans-Serif" font-size="10.00"> </text>
<polyline fill="none" stroke="black" points="436,-257 554,-257 "/>
<text text-anchor="start" x="444" y="-245" font-family="Helvetica,sans-Serif" font-size="10.00">+ RNManager()</text>
<text text-anchor="start" x="444" y="-234" font-family="Helvetica,sans-Serif" font-size="10.00">+ RNManager()</text>
<text text-anchor="start" x="444" y="-223" font-family="Helvetica,sans-Serif" font-size="10.00">+ RNManager()</text>
<text text-anchor="start" x="444" y="-212" font-family="Helvetica,sans-Serif" font-size="10.00">+ operator=()</text>
<text text-anchor="start" x="444" y="-201" font-family="Helvetica,sans-Serif" font-size="10.00">+ operator=()</text>
<text text-anchor="start" x="444" y="-190" font-family="Helvetica,sans-Serif" font-size="10.00">+ GetInfo()</text>
<text text-anchor="start" x="444" y="-179" font-family="Helvetica,sans-Serif" font-size="10.00">+ GetGenerator()</text>
<text text-anchor="start" x="444" y="-168" font-family="Helvetica,sans-Serif" font-size="10.00">+ RandomShuffle()</text>
<text text-anchor="start" x="444" y="-157" font-family="Helvetica,sans-Serif" font-size="10.00">+ Initialize()</text>
<text text-anchor="start" x="444" y="-146" font-family="Helvetica,sans-Serif" font-size="10.00">+ Initialize()</text>
</a>
</g>
</g>
<!-- Node3&#45;&gt;Node1 -->
<g id="edge2" class="edge"><title>Node3&#45;&gt;Node1</title>
<path fill="none" stroke="#404040" d="M477.365,-138.972C473.663,-125.211 469.501,-111.093 465,-98 464.19,-95.6449 463.324,-93.2519 462.417,-90.8468"/>
<polygon fill="none" stroke="#404040" points="462.38,-90.7527 456.446,-86.6553 457.946,-79.6019 463.88,-83.6994 462.38,-90.7527"/>
<text text-anchor="middle" x="508.5" y="-106.5" font-family="Helvetica,sans-Serif" font-size="10.00"> #m_rn_manager</text>
</g>
<!-- Node4 -->
<g id="node4" class="node"><title>Node4</title>
<polygon fill="white" stroke="#bfbfbf" points="254.5,-345 254.5,-413 349.5,-413 349.5,-345 254.5,-345"/>
<text text-anchor="start" x="262.5" y="-401" font-family="Helvetica,sans-Serif" font-size="10.00">std::vector&lt; trng::</text>
<text text-anchor="middle" x="302" y="-390" font-family="Helvetica,sans-Serif" font-size="10.00">mrg3 &gt;</text>
<polyline fill="none" stroke="#bfbfbf" points="254.5,-383 349.5,-383 "/>
<text text-anchor="middle" x="302" y="-371" font-family="Helvetica,sans-Serif" font-size="10.00"> </text>
<polyline fill="none" stroke="#bfbfbf" points="254.5,-364 349.5,-364 "/>
<text text-anchor="middle" x="302" y="-352" font-family="Helvetica,sans-Serif" font-size="10.00"> </text>
</g>
<!-- Node4&#45;&gt;Node3 -->
<g id="edge3" class="edge"><title>Node4&#45;&gt;Node3</title>
<path fill="none" stroke="#404040" d="M349.653,-345.79C365.016,-335.524 382.166,-324.188 398,-314 410.757,-305.792 415.443,-305.826 427,-296 427.094,-295.92 427.188,-295.84 427.282,-295.76"/>
<polygon fill="none" stroke="#404040" points="427.042,-295.975 428.831,-288.989 435.968,-287.954 434.179,-294.939 427.042,-295.975"/>
<text text-anchor="middle" x="419" y="-317.5" font-family="Helvetica,sans-Serif" font-size="10.00"> &#45;m_mrg3</text>
</g>
<!-- Node5 -->
<g id="node5" class="node"><title>Node5</title>
<polygon fill="white" stroke="#bfbfbf" points="85,-462.5 85,-519.5 123,-519.5 123,-462.5 85,-462.5"/>
<text text-anchor="middle" x="104" y="-507.5" font-family="Helvetica,sans-Serif" font-size="10.00">mrg3</text>
<polyline fill="none" stroke="#bfbfbf" points="85,-500.5 123,-500.5 "/>
<text text-anchor="middle" x="104" y="-488.5" font-family="Helvetica,sans-Serif" font-size="10.00"> </text>
<polyline fill="none" stroke="#bfbfbf" points="85,-481.5 123,-481.5 "/>
<text text-anchor="middle" x="104" y="-469.5" font-family="Helvetica,sans-Serif" font-size="10.00"> </text>
</g>
<!-- Node5&#45;&gt;Node4 -->
<g id="edge4" class="edge"><title>Node5&#45;&gt;Node4</title>
<path fill="none" stroke="#404040" d="M97.3428,-462.385C96.4346,-451.693 97.746,-440.104 105,-432 124.04,-410.728 199.837,-421.757 242.801,-413.329"/>
<polygon fill="none" stroke="#404040" points="242.883,-413.307 247.65,-407.896 254.478,-410.215 249.712,-415.626 242.883,-413.307"/>
<text text-anchor="middle" x="129.5" y="-435.5" font-family="Helvetica,sans-Serif" font-size="10.00"> +elements</text>
</g>
<!-- Node6 -->
<g id="node6" class="node"><title>Node6</title>
<g id="a_node6"><a xlink:title="STL class. ">
<polygon fill="white" stroke="#bfbfbf" points="451.5,-462.5 451.5,-519.5 538.5,-519.5 538.5,-462.5 451.5,-462.5"/>
<text text-anchor="middle" x="495" y="-507.5" font-family="Helvetica,sans-Serif" font-size="10.00">std::vector&lt; T &gt;</text>
<polyline fill="none" stroke="#bfbfbf" points="451.5,-500.5 538.5,-500.5 "/>
<text text-anchor="middle" x="495" y="-488.5" font-family="Helvetica,sans-Serif" font-size="10.00"> </text>
<polyline fill="none" stroke="#bfbfbf" points="451.5,-481.5 538.5,-481.5 "/>
<text text-anchor="middle" x="495" y="-469.5" font-family="Helvetica,sans-Serif" font-size="10.00"> </text>
</a>
</g>
</g>
<!-- Node6&#45;&gt;Node4 -->
<g id="edge5" class="edge"><title>Node6&#45;&gt;Node4</title>
<path fill="none" stroke="orange" d="M441.487,-474.352C419.717,-466.81 394.832,-456.629 374,-444 359.841,-435.417 345.866,-423.901 334.049,-413.004"/>
<polygon fill="orange" stroke="orange" points="440.651,-477.764 451.245,-477.632 442.881,-471.128 440.651,-477.764"/>
<text text-anchor="middle" x="407" y="-435.5" font-family="Helvetica,sans-Serif" font-size="10.00"> &lt; trng::mrg3 &gt;</text>
</g>
<!-- Node9 -->
<g id="node9" class="node"><title>Node9</title>
<polygon fill="white" stroke="#bfbfbf" points="367.5,-345 367.5,-413 462.5,-413 462.5,-345 367.5,-345"/>
<text text-anchor="start" x="375.5" y="-401" font-family="Helvetica,sans-Serif" font-size="10.00">std::vector&lt; trng::</text>
<text text-anchor="middle" x="415" y="-390" font-family="Helvetica,sans-Serif" font-size="10.00">mrg2 &gt;</text>
<polyline fill="none" stroke="#bfbfbf" points="367.5,-383 462.5,-383 "/>
<text text-anchor="middle" x="415" y="-371" font-family="Helvetica,sans-Serif" font-size="10.00"> </text>
<polyline fill="none" stroke="#bfbfbf" points="367.5,-364 462.5,-364 "/>
<text text-anchor="middle" x="415" y="-352" font-family="Helvetica,sans-Serif" font-size="10.00"> </text>
</g>
<!-- Node6&#45;&gt;Node9 -->
<g id="edge10" class="edge"><title>Node6&#45;&gt;Node9</title>
<path fill="none" stroke="orange" d="M460.487,-454.643C457.511,-451.134 454.635,-447.554 452,-444 444.892,-434.412 438.065,-423.343 432.253,-413.136"/>
<polygon fill="orange" stroke="orange" points="457.874,-456.972 467.104,-462.173 463.132,-452.351 457.874,-456.972"/>
<text text-anchor="middle" x="485" y="-435.5" font-family="Helvetica,sans-Serif" font-size="10.00"> &lt; trng::mrg2 &gt;</text>
</g>
<!-- Node11 -->
<g id="node11" class="node"><title>Node11</title>
<polygon fill="white" stroke="#bfbfbf" points="46.5,-345 46.5,-413 141.5,-413 141.5,-345 46.5,-345"/>
<text text-anchor="start" x="54.5" y="-401" font-family="Helvetica,sans-Serif" font-size="10.00">std::vector&lt; trng::</text>
<text text-anchor="middle" x="94" y="-390" font-family="Helvetica,sans-Serif" font-size="10.00">lcg64_shift &gt;</text>
<polyline fill="none" stroke="#bfbfbf" points="46.5,-383 141.5,-383 "/>
<text text-anchor="middle" x="94" y="-371" font-family="Helvetica,sans-Serif" font-size="10.00"> </text>
<polyline fill="none" stroke="#bfbfbf" points="46.5,-364 141.5,-364 "/>
<text text-anchor="middle" x="94" y="-352" font-family="Helvetica,sans-Serif" font-size="10.00"> </text>
</g>
<!-- Node6&#45;&gt;Node11 -->
<g id="edge13" class="edge"><title>Node6&#45;&gt;Node11</title>
<path fill="none" stroke="orange" d="M441.359,-481.284C406.28,-475.642 359.445,-468.215 318,-462 261.622,-453.546 244.314,-464.19 191,-444 171.377,-436.569 151.689,-424.613 135.228,-413.035"/>
<polygon fill="orange" stroke="orange" points="440.957,-484.765 451.386,-482.9 442.071,-477.854 440.957,-484.765"/>
<text text-anchor="middle" x="236.5" y="-435.5" font-family="Helvetica,sans-Serif" font-size="10.00"> &lt; trng::lcg64_shift &gt;</text>
</g>
<!-- Node14 -->
<g id="node14" class="node"><title>Node14</title>
<polygon fill="white" stroke="#bfbfbf" points="811.5,-345 811.5,-413 906.5,-413 906.5,-345 811.5,-345"/>
<text text-anchor="start" x="819.5" y="-401" font-family="Helvetica,sans-Serif" font-size="10.00">std::vector&lt; trng::</text>
<text text-anchor="middle" x="859" y="-390" font-family="Helvetica,sans-Serif" font-size="10.00">lcg64 &gt;</text>
<polyline fill="none" stroke="#bfbfbf" points="811.5,-383 906.5,-383 "/>
<text text-anchor="middle" x="859" y="-371" font-family="Helvetica,sans-Serif" font-size="10.00"> </text>
<polyline fill="none" stroke="#bfbfbf" points="811.5,-364 906.5,-364 "/>
<text text-anchor="middle" x="859" y="-352" font-family="Helvetica,sans-Serif" font-size="10.00"> </text>
</g>
<!-- Node6&#45;&gt;Node14 -->
<g id="edge17" class="edge"><title>Node6&#45;&gt;Node14</title>
<path fill="none" stroke="orange" d="M549.015,-483.428C615.717,-474.846 725.012,-459.129 763,-444 782.168,-436.367 801.452,-424.515 817.656,-413.076"/>
<polygon fill="orange" stroke="orange" points="548.17,-480.007 538.693,-484.743 549.055,-486.951 548.17,-480.007"/>
<text text-anchor="middle" x="819.5" y="-435.5" font-family="Helvetica,sans-Serif" font-size="10.00"> &lt; trng::lcg64 &gt;</text>
</g>
<!-- Node16 -->
<g id="node16" class="node"><title>Node16</title>
<polygon fill="white" stroke="#bfbfbf" points="640.5,-345 640.5,-413 735.5,-413 735.5,-345 640.5,-345"/>
<text text-anchor="start" x="648.5" y="-401" font-family="Helvetica,sans-Serif" font-size="10.00">std::vector&lt; trng::</text>
<text text-anchor="middle" x="688" y="-390" font-family="Helvetica,sans-Serif" font-size="10.00">yarn2 &gt;</text>
<polyline fill="none" stroke="#bfbfbf" points="640.5,-383 735.5,-383 "/>
<text text-anchor="middle" x="688" y="-371" font-family="Helvetica,sans-Serif" font-size="10.00"> </text>
<polyline fill="none" stroke="#bfbfbf" points="640.5,-364 735.5,-364 "/>
<text text-anchor="middle" x="688" y="-352" font-family="Helvetica,sans-Serif" font-size="10.00"> </text>
</g>
<!-- Node6&#45;&gt;Node16 -->
<g id="edge20" class="edge"><title>Node6&#45;&gt;Node16</title>
<path fill="none" stroke="orange" d="M548.089,-471.701C567.217,-464.209 588.606,-454.758 607,-444 622.007,-435.223 637.27,-423.909 650.442,-413.241"/>
<polygon fill="orange" stroke="orange" points="546.702,-468.484 538.614,-475.328 549.204,-475.022 546.702,-468.484"/>
<text text-anchor="middle" x="658" y="-435.5" font-family="Helvetica,sans-Serif" font-size="10.00"> &lt; trng::yarn2 &gt;</text>
</g>
<!-- Node19 -->
<g id="node19" class="node"><title>Node19</title>
<polygon fill="white" stroke="#bfbfbf" points="527.5,-345 527.5,-413 622.5,-413 622.5,-345 527.5,-345"/>
<text text-anchor="start" x="535.5" y="-401" font-family="Helvetica,sans-Serif" font-size="10.00">std::vector&lt; trng::</text>
<text text-anchor="middle" x="575" y="-390" font-family="Helvetica,sans-Serif" font-size="10.00">yarn3 &gt;</text>
<polyline fill="none" stroke="#bfbfbf" points="527.5,-383 622.5,-383 "/>
<text text-anchor="middle" x="575" y="-371" font-family="Helvetica,sans-Serif" font-size="10.00"> </text>
<polyline fill="none" stroke="#bfbfbf" points="527.5,-364 622.5,-364 "/>
<text text-anchor="middle" x="575" y="-352" font-family="Helvetica,sans-Serif" font-size="10.00"> </text>
</g>
<!-- Node6&#45;&gt;Node19 -->
<g id="edge24" class="edge"><title>Node6&#45;&gt;Node19</title>
<path fill="none" stroke="orange" d="M521.25,-453.906C530.777,-440.806 541.489,-426.078 550.828,-413.237"/>
<polygon fill="orange" stroke="orange" points="518.239,-452.096 515.187,-462.242 523.9,-456.214 518.239,-452.096"/>
<text text-anchor="middle" x="569" y="-435.5" font-family="Helvetica,sans-Serif" font-size="10.00"> &lt; trng::yarn3 &gt;</text>
</g>
<!-- Node7 -->
<g id="node7" class="node"><title>Node7</title>
<polygon fill="white" stroke="#bfbfbf" points="480.5,-568.5 480.5,-625.5 509.5,-625.5 509.5,-568.5 480.5,-568.5"/>
<text text-anchor="middle" x="495" y="-613.5" font-family="Helvetica,sans-Serif" font-size="10.00">T</text>
<polyline fill="none" stroke="#bfbfbf" points="480.5,-606.5 509.5,-606.5 "/>
<text text-anchor="middle" x="495" y="-594.5" font-family="Helvetica,sans-Serif" font-size="10.00"> </text>
<polyline fill="none" stroke="#bfbfbf" points="480.5,-587.5 509.5,-587.5 "/>
<text text-anchor="middle" x="495" y="-575.5" font-family="Helvetica,sans-Serif" font-size="10.00"> </text>
</g>
<!-- Node7&#45;&gt;Node6 -->
<g id="edge6" class="edge"><title>Node7&#45;&gt;Node6</title>
<path fill="none" stroke="#404040" d="M495,-568.403C495,-557.237 495,-544.13 495,-531.956"/>
<polygon fill="none" stroke="#404040" points="495,-531.726 491,-525.726 495,-519.726 499,-525.726 495,-531.726"/>
<text text-anchor="middle" x="519.5" y="-541.5" font-family="Helvetica,sans-Serif" font-size="10.00"> +elements</text>
</g>
<!-- Node8 -->
<g id="node8" class="node"><title>Node8</title>
<polygon fill="white" stroke="#bfbfbf" points="159.5,-350.5 159.5,-407.5 236.5,-407.5 236.5,-350.5 159.5,-350.5"/>
<text text-anchor="middle" x="198" y="-395.5" font-family="Helvetica,sans-Serif" font-size="10.00">unsigned long</text>
<polyline fill="none" stroke="#bfbfbf" points="159.5,-388.5 236.5,-388.5 "/>
<text text-anchor="middle" x="198" y="-376.5" font-family="Helvetica,sans-Serif" font-size="10.00"> </text>
<polyline fill="none" stroke="#bfbfbf" points="159.5,-369.5 236.5,-369.5 "/>
<text text-anchor="middle" x="198" y="-357.5" font-family="Helvetica,sans-Serif" font-size="10.00"> </text>
</g>
<!-- Node8&#45;&gt;Node3 -->
<g id="edge7" class="edge"><title>Node8&#45;&gt;Node3</title>
<path fill="none" stroke="#404040" d="M233.711,-350.454C237.427,-348.112 241.227,-345.912 245,-344 283.738,-324.364 295.983,-324.989 338,-314 373.688,-304.667 389.345,-314.305 425.027,-296.234"/>
<polygon fill="none" stroke="#404040" points="425.151,-296.165 428.469,-289.763 435.655,-290.363 432.337,-296.766 425.151,-296.165"/>
<text text-anchor="middle" x="358.5" y="-317.5" font-family="Helvetica,sans-Serif" font-size="10.00"> &#45;m_seed</text>
</g>
<!-- Node9&#45;&gt;Node3 -->
<g id="edge8" class="edge"><title>Node9&#45;&gt;Node3</title>
<path fill="none" stroke="#404040" d="M431.576,-344.848C437.282,-333.436 443.969,-320.061 450.822,-306.355"/>
<polygon fill="none" stroke="#404040" points="450.972,-306.057 450.077,-298.901 456.338,-295.323 457.233,-302.479 450.972,-306.057"/>
<text text-anchor="middle" x="467" y="-317.5" font-family="Helvetica,sans-Serif" font-size="10.00"> &#45;m_mrg2</text>
</g>
<!-- Node10 -->
<g id="node10" class="node"><title>Node10</title>
<polygon fill="white" stroke="#bfbfbf" points="271,-462.5 271,-519.5 309,-519.5 309,-462.5 271,-462.5"/>
<text text-anchor="middle" x="290" y="-507.5" font-family="Helvetica,sans-Serif" font-size="10.00">mrg2</text>
<polyline fill="none" stroke="#bfbfbf" points="271,-500.5 309,-500.5 "/>
<text text-anchor="middle" x="290" y="-488.5" font-family="Helvetica,sans-Serif" font-size="10.00"> </text>
<polyline fill="none" stroke="#bfbfbf" points="271,-481.5 309,-481.5 "/>
<text text-anchor="middle" x="290" y="-469.5" font-family="Helvetica,sans-Serif" font-size="10.00"> </text>
</g>
<!-- Node10&#45;&gt;Node9 -->
<g id="edge9" class="edge"><title>Node10&#45;&gt;Node9</title>
<path fill="none" stroke="#404040" d="M283.862,-462.264C283.131,-451.805 284.431,-440.415 291,-432 307.971,-410.258 325.469,-422.622 355.946,-413.81"/>
<polygon fill="none" stroke="#404040" points="356,-413.791 360.287,-407.992 367.288,-409.719 363.001,-415.518 356,-413.791"/>
<text text-anchor="middle" x="315.5" y="-435.5" font-family="Helvetica,sans-Serif" font-size="10.00"> +elements</text>
</g>
<!-- Node11&#45;&gt;Node3 -->
<g id="edge11" class="edge"><title>Node11&#45;&gt;Node3</title>
<path fill="none" stroke="#404040" d="M141.658,-347.39C164.427,-334.479 192.633,-320.866 220,-314 261.724,-303.532 369.645,-315.105 424.679,-295.612"/>
<polygon fill="none" stroke="#404040" points="424.865,-295.532 428.801,-289.489 435.892,-290.798 431.956,-296.841 424.865,-295.532"/>
<text text-anchor="middle" x="253.5" y="-317.5" font-family="Helvetica,sans-Serif" font-size="10.00"> &#45;m_lcg64_shift</text>
</g>
<!-- Node12 -->
<g id="node12" class="node"><title>Node12</title>
<polygon fill="white" stroke="#bfbfbf" points="0,-462.5 0,-519.5 64,-519.5 64,-462.5 0,-462.5"/>
<text text-anchor="middle" x="32" y="-507.5" font-family="Helvetica,sans-Serif" font-size="10.00">lcg64_shift</text>
<polyline fill="none" stroke="#bfbfbf" points="0,-500.5 64,-500.5 "/>
<text text-anchor="middle" x="32" y="-488.5" font-family="Helvetica,sans-Serif" font-size="10.00"> </text>
<polyline fill="none" stroke="#bfbfbf" points="0,-481.5 64,-481.5 "/>
<text text-anchor="middle" x="32" y="-469.5" font-family="Helvetica,sans-Serif" font-size="10.00"> </text>
</g>
<!-- Node12&#45;&gt;Node11 -->
<g id="edge12" class="edge"><title>Node12&#45;&gt;Node11</title>
<path fill="none" stroke="#404040" d="M27.8895,-462.37C27.5653,-452.384 28.6148,-441.289 33,-432 34.5826,-428.647 36.4965,-425.43 38.6555,-422.355"/>
<polygon fill="none" stroke="#404040" points="38.6836,-422.32 39.3851,-415.143 46.2798,-413.03 45.5783,-420.207 38.6836,-422.32"/>
<text text-anchor="middle" x="57.5" y="-435.5" font-family="Helvetica,sans-Serif" font-size="10.00"> +elements</text>
</g>
<!-- Node13 -->
<g id="node13" class="node"><title>Node13</title>
<polygon fill="white" stroke="#bfbfbf" points="480.5,-350.5 480.5,-407.5 509.5,-407.5 509.5,-350.5 480.5,-350.5"/>
<text text-anchor="middle" x="495" y="-395.5" font-family="Helvetica,sans-Serif" font-size="10.00">Id</text>
<polyline fill="none" stroke="#bfbfbf" points="480.5,-388.5 509.5,-388.5 "/>
<text text-anchor="middle" x="495" y="-376.5" font-family="Helvetica,sans-Serif" font-size="10.00"> </text>
<polyline fill="none" stroke="#bfbfbf" points="480.5,-369.5 509.5,-369.5 "/>
<text text-anchor="middle" x="495" y="-357.5" font-family="Helvetica,sans-Serif" font-size="10.00"> </text>
</g>
<!-- Node13&#45;&gt;Node3 -->
<g id="edge14" class="edge"><title>Node13&#45;&gt;Node3</title>
<path fill="none" stroke="#404040" d="M495,-350.495C495,-338.178 495,-322.887 495,-307.118"/>
<polygon fill="none" stroke="#404040" points="495,-307.008 491,-301.008 495,-295.008 499,-301.008 495,-307.008"/>
<text text-anchor="middle" x="521" y="-317.5" font-family="Helvetica,sans-Serif" font-size="10.00"> &#45;m_type_id</text>
</g>
<!-- Node14&#45;&gt;Node3 -->
<g id="edge15" class="edge"><title>Node14&#45;&gt;Node3</title>
<path fill="none" stroke="#404040" d="M836.53,-344.958C827.538,-333.797 816.368,-322.122 804,-314 730.731,-265.886 631.981,-240.759 566.033,-228.473"/>
<polygon fill="none" stroke="#404040" points="565.924,-228.453 559.31,-231.326 554.115,-226.325 560.729,-223.453 565.924,-228.453"/>
<text text-anchor="middle" x="840.5" y="-317.5" font-family="Helvetica,sans-Serif" font-size="10.00"> &#45;m_lcg64</text>
</g>
<!-- Node15 -->
<g id="node15" class="node"><title>Node15</title>
<polygon fill="white" stroke="#bfbfbf" points="936,-462.5 936,-519.5 976,-519.5 976,-462.5 936,-462.5"/>
<text text-anchor="middle" x="956" y="-507.5" font-family="Helvetica,sans-Serif" font-size="10.00">lcg64</text>
<polyline fill="none" stroke="#bfbfbf" points="936,-500.5 976,-500.5 "/>
<text text-anchor="middle" x="956" y="-488.5" font-family="Helvetica,sans-Serif" font-size="10.00"> </text>
<polyline fill="none" stroke="#bfbfbf" points="936,-481.5 976,-481.5 "/>
<text text-anchor="middle" x="956" y="-469.5" font-family="Helvetica,sans-Serif" font-size="10.00"> </text>
</g>
<!-- Node15&#45;&gt;Node14 -->
<g id="edge16" class="edge"><title>Node15&#45;&gt;Node14</title>
<path fill="none" stroke="#404040" d="M949.238,-462.271C945.823,-452.05 940.898,-440.824 934,-432 928.951,-425.542 922.88,-419.571 916.406,-414.153"/>
<polygon fill="none" stroke="#404040" points="916.183,-413.98 908.99,-413.459 906.705,-406.62 913.897,-407.14 916.183,-413.98"/>
<text text-anchor="middle" x="966.5" y="-435.5" font-family="Helvetica,sans-Serif" font-size="10.00"> +elements</text>
</g>
<!-- Node16&#45;&gt;Node3 -->
<g id="edge18" class="edge"><title>Node16&#45;&gt;Node3</title>
<path fill="none" stroke="#404040" d="M648.01,-344.848C623.707,-324.7 592.02,-298.431 563.789,-275.028"/>
<polygon fill="none" stroke="#404040" points="563.602,-274.872 556.43,-274.122 554.364,-267.214 561.536,-267.964 563.602,-274.872"/>
<text text-anchor="middle" x="643" y="-317.5" font-family="Helvetica,sans-Serif" font-size="10.00"> &#45;m_yarn2</text>
</g>
<!-- Node17 -->
<g id="node17" class="node"><title>Node17</title>
<polygon fill="white" stroke="#bfbfbf" points="863.5,-462.5 863.5,-519.5 904.5,-519.5 904.5,-462.5 863.5,-462.5"/>
<text text-anchor="middle" x="884" y="-507.5" font-family="Helvetica,sans-Serif" font-size="10.00">yarn2</text>
<polyline fill="none" stroke="#bfbfbf" points="863.5,-500.5 904.5,-500.5 "/>
<text text-anchor="middle" x="884" y="-488.5" font-family="Helvetica,sans-Serif" font-size="10.00"> </text>
<polyline fill="none" stroke="#bfbfbf" points="863.5,-481.5 904.5,-481.5 "/>
<text text-anchor="middle" x="884" y="-469.5" font-family="Helvetica,sans-Serif" font-size="10.00"> </text>
</g>
<!-- Node17&#45;&gt;Node16 -->
<g id="edge19" class="edge"><title>Node17&#45;&gt;Node16</title>
<path fill="none" stroke="#404040" d="M879.769,-462.489C876.667,-451.417 871.297,-439.515 862,-432 823.563,-400.929 797.604,-427.854 747.166,-414.259"/>
<polygon fill="none" stroke="#404040" points="747.082,-414.233 740.148,-416.213 735.654,-410.574 742.588,-408.594 747.082,-414.233"/>
<text text-anchor="middle" x="896.5" y="-435.5" font-family="Helvetica,sans-Serif" font-size="10.00"> +elements</text>
</g>
<!-- Node18 -->
<g id="node18" class="node"><title>Node18</title>
<polygon fill="white" stroke="#bfbfbf" points="753.5,-350.5 753.5,-407.5 782.5,-407.5 782.5,-350.5 753.5,-350.5"/>
<text text-anchor="middle" x="768" y="-395.5" font-family="Helvetica,sans-Serif" font-size="10.00">int</text>
<polyline fill="none" stroke="#bfbfbf" points="753.5,-388.5 782.5,-388.5 "/>
<text text-anchor="middle" x="768" y="-376.5" font-family="Helvetica,sans-Serif" font-size="10.00"> </text>
<polyline fill="none" stroke="#bfbfbf" points="753.5,-369.5 782.5,-369.5 "/>
<text text-anchor="middle" x="768" y="-357.5" font-family="Helvetica,sans-Serif" font-size="10.00"> </text>
</g>
<!-- Node18&#45;&gt;Node3 -->
<g id="edge21" class="edge"><title>Node18&#45;&gt;Node3</title>
<path fill="none" stroke="#404040" d="M753.383,-354.061C750.546,-350.432 747.39,-346.928 744,-344 691.048,-298.275 618.606,-264.044 565.511,-242.888"/>
<polygon fill="none" stroke="#404040" points="565.326,-242.816 558.281,-244.355 554.151,-238.443 561.196,-236.905 565.326,-242.816"/>
<text text-anchor="middle" x="760.5" y="-317.5" font-family="Helvetica,sans-Serif" font-size="10.00"> &#45;m_stream_count</text>
</g>
<!-- Node19&#45;&gt;Node3 -->
<g id="edge22" class="edge"><title>Node19&#45;&gt;Node3</title>
<path fill="none" stroke="#404040" d="M563.071,-344.715C559.199,-334.709 554.686,-323.792 550,-314 548.694,-311.271 547.341,-308.515 545.951,-305.744"/>
<polygon fill="none" stroke="#404040" points="545.922,-305.688 539.619,-302.184 540.43,-295.019 546.732,-298.523 545.922,-305.688"/>
<text text-anchor="middle" x="578" y="-317.5" font-family="Helvetica,sans-Serif" font-size="10.00"> &#45;m_yarn3</text>
</g>
<!-- Node20 -->
<g id="node20" class="node"><title>Node20</title>
<polygon fill="white" stroke="#bfbfbf" points="701.5,-462.5 701.5,-519.5 742.5,-519.5 742.5,-462.5 701.5,-462.5"/>
<text text-anchor="middle" x="722" y="-507.5" font-family="Helvetica,sans-Serif" font-size="10.00">yarn3</text>
<polyline fill="none" stroke="#bfbfbf" points="701.5,-500.5 742.5,-500.5 "/>
<text text-anchor="middle" x="722" y="-488.5" font-family="Helvetica,sans-Serif" font-size="10.00"> </text>
<polyline fill="none" stroke="#bfbfbf" points="701.5,-481.5 742.5,-481.5 "/>
<text text-anchor="middle" x="722" y="-469.5" font-family="Helvetica,sans-Serif" font-size="10.00"> </text>
</g>
<!-- Node20&#45;&gt;Node19 -->
<g id="edge23" class="edge"><title>Node20&#45;&gt;Node19</title>
<path fill="none" stroke="#404040" d="M717.208,-462.349C714.019,-451.522 708.734,-439.843 700,-432 678.999,-413.14 663.825,-423.396 634.338,-414.473"/>
<polygon fill="none" stroke="#404040" points="634.053,-414.368 627.041,-416.052 622.79,-410.228 629.801,-408.543 634.053,-414.368"/>
<text text-anchor="middle" x="734.5" y="-435.5" font-family="Helvetica,sans-Serif" font-size="10.00"> +elements</text>
</g>
</g>
</svg>
