<?xml version="1.0" encoding="UTF-8" standalone="no"?>
<!DOCTYPE svg PUBLIC "-//W3C//DTD SVG 1.1//EN"
 "http://www.w3.org/Graphics/SVG/1.1/DTD/svg11.dtd">
<!-- Generated by graphviz version 2.36.0 (20140111.2315)
 -->
<!-- Title: gengeopop::CommunityGenerator::Apply Pages: 1 -->
<svg width="446pt" height="87pt"
 viewBox="0.00 0.00 446.00 87.00" xmlns="http://www.w3.org/2000/svg" xmlns:xlink="http://www.w3.org/1999/xlink">
<g id="graph0" class="graph" transform="scale(1 1) rotate(0) translate(4 83)">
<title>gengeopop::CommunityGenerator::Apply</title>
<polygon fill="white" stroke="none" points="-4,4 -4,-83 442,-83 442,4 -4,4"/>
<!-- Node1 -->
<g id="node1" class="node"><title>Node1</title>
<polygon fill="#bfbfbf" stroke="black" points="0.5,-24 0.5,-54 163.5,-54 163.5,-24 0.5,-24"/>
<text text-anchor="start" x="8.5" y="-42" font-family="Helvetica,sans-Serif" font-size="10.00">gengeopop::CommunityGenerator</text>
<text text-anchor="middle" x="82" y="-31" font-family="Helvetica,sans-Serif" font-size="10.00">::Apply</text>
</g>
<!-- Node2 -->
<g id="node2" class="node"><title>Node2</title>
<g id="a_node2"><a xlink:href="../../d9/d2e/a00056.html#a28a70c98b4b5a47d3b3ca2913601815a" target="_top" xlink:title="gengeopop::PartialGenerator\l::CheckWeight">
<polygon fill="white" stroke="black" points="200,-49 200,-79 340,-79 340,-49 200,-49"/>
<text text-anchor="start" x="208" y="-67" font-family="Helvetica,sans-Serif" font-size="10.00">gengeopop::PartialGenerator</text>
<text text-anchor="middle" x="270" y="-56" font-family="Helvetica,sans-Serif" font-size="10.00">::CheckWeight</text>
</a>
</g>
</g>
<!-- Node1&#45;&gt;Node2 -->
<g id="edge1" class="edge"><title>Node1&#45;&gt;Node2</title>
<path fill="none" stroke="midnightblue" d="M163.501,-49.82C172.18,-50.9866 181.008,-52.1731 189.674,-53.3379"/>
<polygon fill="midnightblue" stroke="midnightblue" points="189.377,-56.8293 199.754,-54.6927 190.309,-49.8917 189.377,-56.8293"/>
</g>
<!-- Node4 -->
<g id="node4" class="node"><title>Node4</title>
<g id="a_node4"><a xlink:href="../../d6/d7d/a00161.html#a6508932485d419a6e7ab3cac60754ae6" target="_top" xlink:title="Produce a random generator out of a distribution bound to sim&#39;s random engine. ">
<polygon fill="white" stroke="black" points="211,-0 211,-30 329,-30 329,-0 211,-0"/>
<text text-anchor="start" x="219" y="-18" font-family="Helvetica,sans-Serif" font-size="10.00">stride::util::RNManager</text>
<text text-anchor="middle" x="270" y="-7" font-family="Helvetica,sans-Serif" font-size="10.00">::GetGenerator</text>
</a>
</g>
</g>
<!-- Node1&#45;&gt;Node4 -->
<g id="edge3" class="edge"><title>Node1&#45;&gt;Node4</title>
<path fill="none" stroke="midnightblue" d="M163.501,-28.6128C175.927,-27.0095 188.656,-25.367 200.779,-23.8027"/>
<polygon fill="midnightblue" stroke="midnightblue" points="201.33,-27.2607 210.8,-22.5097 200.434,-20.3182 201.33,-27.2607"/>
</g>
<!-- Node3 -->
<g id="node3" class="node"><title>Node3</title>
<g id="a_node3"><a xlink:href="../../d3/dcc/a00264.html#a53951f1917941ac25ba6508b1b72771f" target="_top" xlink:title="ExcAssert">
<polygon fill="white" stroke="black" points="376,-54.5 376,-73.5 438,-73.5 438,-54.5 376,-54.5"/>
<text text-anchor="middle" x="407" y="-61.5" font-family="Helvetica,sans-Serif" font-size="10.00">ExcAssert</text>
</a>
</g>
</g>
<!-- Node2&#45;&gt;Node3 -->
<g id="edge2" class="edge"><title>Node2&#45;&gt;Node3</title>
<path fill="none" stroke="midnightblue" d="M340.082,-64C348.833,-64 357.548,-64 365.639,-64"/>
<polygon fill="midnightblue" stroke="midnightblue" points="365.866,-67.5001 375.866,-64 365.866,-60.5001 365.866,-67.5001"/>
</g>
</g>
</svg>
