<?xml version="1.0" encoding="UTF-8" standalone="no"?>
<!DOCTYPE svg PUBLIC "-//W3C//DTD SVG 1.1//EN"
 "http://www.w3.org/Graphics/SVG/1.1/DTD/svg11.dtd">
<!-- Generated by graphviz version 2.36.0 (20140111.2315)
 -->
<!-- Title: TransmissionProfile.cpp Pages: 1 -->
<svg width="180pt" height="152pt"
 viewBox="0.00 0.00 180.00 152.00" xmlns="http://www.w3.org/2000/svg" xmlns:xlink="http://www.w3.org/1999/xlink">
<g id="graph0" class="graph" transform="scale(1 1) rotate(0) translate(4 148)">
<title>TransmissionProfile.cpp</title>
<polygon fill="white" stroke="none" points="-4,4 -4,-148 176,-148 176,4 -4,4"/>
<!-- Node1 -->
<g id="node1" class="node"><title>Node1</title>
<polygon fill="#bfbfbf" stroke="black" points="41,-124.5 41,-143.5 163,-143.5 163,-124.5 41,-124.5"/>
<text text-anchor="middle" x="102" y="-131.5" font-family="Helvetica,sans-Serif" font-size="10.00">TransmissionProfile.cpp</text>
</g>
<!-- Node2 -->
<g id="node2" class="node"><title>Node2</title>
<g id="a_node2"><a xlink:href="../../d7/db9/a00426.html" target="_top" xlink:title="Header for the TransmissionProfile class. ">
<polygon fill="white" stroke="black" points="-0.5,-68.5 -0.5,-87.5 110.5,-87.5 110.5,-68.5 -0.5,-68.5"/>
<text text-anchor="middle" x="55" y="-75.5" font-family="Helvetica,sans-Serif" font-size="10.00">TransmissionProfile.h</text>
</a>
</g>
</g>
<!-- Node1&#45;&gt;Node2 -->
<g id="edge1" class="edge"><title>Node1&#45;&gt;Node2</title>
<path fill="none" stroke="midnightblue" d="M94.2389,-124.083C87.4632,-116.298 77.4568,-104.801 69.2449,-95.3665"/>
<polygon fill="midnightblue" stroke="midnightblue" points="71.822,-92.9963 62.6167,-87.7511 66.5419,-97.592 71.822,-92.9963"/>
</g>
<!-- Node4 -->
<g id="node4" class="node"><title>Node4</title>
<polygon fill="white" stroke="#bfbfbf" points="128,-68.5 128,-87.5 172,-87.5 172,-68.5 128,-68.5"/>
<text text-anchor="middle" x="150" y="-75.5" font-family="Helvetica,sans-Serif" font-size="10.00">cmath</text>
</g>
<!-- Node1&#45;&gt;Node4 -->
<g id="edge3" class="edge"><title>Node1&#45;&gt;Node4</title>
<path fill="none" stroke="midnightblue" d="M109.926,-124.083C116.846,-116.298 127.065,-104.801 135.452,-95.3665"/>
<polygon fill="midnightblue" stroke="midnightblue" points="138.194,-97.5505 142.221,-87.7511 132.962,-92.8999 138.194,-97.5505"/>
</g>
<!-- Node3 -->
<g id="node3" class="node"><title>Node3</title>
<polygon fill="white" stroke="#bfbfbf" points="4.5,-1 4.5,-31 105.5,-31 105.5,-1 4.5,-1"/>
<text text-anchor="start" x="12.5" y="-19" font-family="Helvetica,sans-Serif" font-size="10.00">boost/property_tree</text>
<text text-anchor="middle" x="55" y="-8" font-family="Helvetica,sans-Serif" font-size="10.00">/ptree.hpp</text>
</g>
<!-- Node2&#45;&gt;Node3 -->
<g id="edge2" class="edge"><title>Node2&#45;&gt;Node3</title>
<path fill="none" stroke="midnightblue" d="M55,-68.4035C55,-61.3405 55,-50.975 55,-41.399"/>
<polygon fill="midnightblue" stroke="midnightblue" points="58.5001,-41.1408 55,-31.1408 51.5001,-41.1408 58.5001,-41.1408"/>
</g>
</g>
</svg>
