<?xml version="1.0" encoding="UTF-8" standalone="no"?>
<!DOCTYPE svg PUBLIC "-//W3C//DTD SVG 1.1//EN"
 "http://www.w3.org/Graphics/SVG/1.1/DTD/svg11.dtd">
<!-- Generated by graphviz version 2.36.0 (20140111.2315)
 -->
<!-- Title: SurveySeeder.h Pages: 1 -->
<svg width="622pt" height="84pt"
 viewBox="0.00 0.00 622.00 84.00" xmlns="http://www.w3.org/2000/svg" xmlns:xlink="http://www.w3.org/1999/xlink">
<g id="graph0" class="graph" transform="scale(1 1) rotate(0) translate(4 80)">
<title>SurveySeeder.h</title>
<polygon fill="white" stroke="none" points="-4,4 -4,-80 618,-80 618,4 -4,4"/>
<!-- Node1 -->
<g id="node1" class="node"><title>Node1</title>
<polygon fill="#bfbfbf" stroke="black" points="277,-56.5 277,-75.5 363,-75.5 363,-56.5 277,-56.5"/>
<text text-anchor="middle" x="320" y="-63.5" font-family="Helvetica,sans-Serif" font-size="10.00">SurveySeeder.h</text>
</g>
<!-- Node2 -->
<g id="node2" class="node"><title>Node2</title>
<g id="a_node2"><a xlink:href="../../d7/d3f/a00173.html" target="_top" xlink:title="Base Class for PopBuilders: Implementation. ">
<polygon fill="white" stroke="black" points="-0.5,-0.5 -0.5,-19.5 118.5,-19.5 118.5,-0.5 -0.5,-0.5"/>
<text text-anchor="middle" x="59" y="-7.5" font-family="Helvetica,sans-Serif" font-size="10.00">AbstractPopBuilder.cpp</text>
</a>
</g>
</g>
<!-- Node1&#45;&gt;Node2 -->
<g id="edge1" class="edge"><title>Node1&#45;&gt;Node2</title>
<path fill="none" stroke="midnightblue" d="M268.813,-54.4096C219.487,-44.2042 145.805,-28.9597 100.163,-19.5164"/>
<polygon fill="midnightblue" stroke="midnightblue" points="268.142,-57.8448 278.644,-56.4435 269.56,-50.99 268.142,-57.8448"/>
</g>
<!-- Node3 -->
<g id="node3" class="node"><title>Node3</title>
<g id="a_node3"><a xlink:href="../../d4/d04/a00255.html" target="_top" xlink:title="Initialize populations: implementation. ">
<polygon fill="white" stroke="black" points="137,-0.5 137,-19.5 251,-19.5 251,-0.5 137,-0.5"/>
<text text-anchor="middle" x="194" y="-7.5" font-family="Helvetica,sans-Serif" font-size="10.00">DefaultPopBuilder.cpp</text>
</a>
</g>
</g>
<!-- Node1&#45;&gt;Node3 -->
<g id="edge2" class="edge"><title>Node1&#45;&gt;Node3</title>
<path fill="none" stroke="midnightblue" d="M290.84,-52.503C267.219,-42.3795 234.572,-28.388 213.872,-19.5164"/>
<polygon fill="midnightblue" stroke="midnightblue" points="289.465,-55.7213 300.035,-56.4435 292.222,-49.2873 289.465,-55.7213"/>
</g>
<!-- Node4 -->
<g id="node4" class="node"><title>Node4</title>
<g id="a_node4"><a xlink:href="../../d5/d35/a00266.html" target="_top" xlink:title="Initialize populations: implementation. ">
<polygon fill="white" stroke="black" points="269.5,-0.5 269.5,-19.5 370.5,-19.5 370.5,-0.5 269.5,-0.5"/>
<text text-anchor="middle" x="320" y="-7.5" font-family="Helvetica,sans-Serif" font-size="10.00">GenPopBuilder.cpp</text>
</a>
</g>
</g>
<!-- Node1&#45;&gt;Node4 -->
<g id="edge3" class="edge"><title>Node1&#45;&gt;Node4</title>
<path fill="none" stroke="midnightblue" d="M320,-45.8045C320,-36.9102 320,-26.7798 320,-19.7511"/>
<polygon fill="midnightblue" stroke="midnightblue" points="316.5,-46.083 320,-56.083 323.5,-46.083 316.5,-46.083"/>
</g>
<!-- Node5 -->
<g id="node5" class="node"><title>Node5</title>
<g id="a_node5"><a xlink:href="../../de/dab/a00319.html" target="_top" xlink:title="Initialize populations: implementation. ">
<polygon fill="white" stroke="black" points="389,-0.5 389,-19.5 499,-19.5 499,-0.5 389,-0.5"/>
<text text-anchor="middle" x="444" y="-7.5" font-family="Helvetica,sans-Serif" font-size="10.00">ImportPopBuilder.cpp</text>
</a>
</g>
</g>
<!-- Node1&#45;&gt;Node5 -->
<g id="edge4" class="edge"><title>Node1&#45;&gt;Node5</title>
<path fill="none" stroke="midnightblue" d="M349.007,-52.3678C372.229,-42.2553 404.163,-28.3486 424.444,-19.5164"/>
<polygon fill="midnightblue" stroke="midnightblue" points="347.419,-49.2419 339.648,-56.4435 350.214,-55.6597 347.419,-49.2419"/>
</g>
<!-- Node6 -->
<g id="node6" class="node"><title>Node6</title>
<g id="a_node6"><a xlink:href="../../de/df7/a00418.html" target="_top" xlink:title="Implementation for the SurveySeeder class. ">
<polygon fill="white" stroke="black" points="517.5,-0.5 517.5,-19.5 614.5,-19.5 614.5,-0.5 517.5,-0.5"/>
<text text-anchor="middle" x="566" y="-7.5" font-family="Helvetica,sans-Serif" font-size="10.00">SurveySeeder.cpp</text>
</a>
</g>
</g>
<!-- Node1&#45;&gt;Node6 -->
<g id="edge5" class="edge"><title>Node1&#45;&gt;Node6</title>
<path fill="none" stroke="midnightblue" d="M368.829,-54.2815C415.316,-44.0769 484.363,-28.9203 527.203,-19.5164"/>
<polygon fill="midnightblue" stroke="midnightblue" points="367.996,-50.8808 358.979,-56.4435 369.497,-57.718 367.996,-50.8808"/>
</g>
</g>
</svg>
