<?xml version="1.0" encoding="UTF-8" standalone="no"?>
<!DOCTYPE svg PUBLIC "-//W3C//DTD SVG 1.1//EN"
 "http://www.w3.org/Graphics/SVG/1.1/DTD/svg11.dtd">
<!-- Generated by graphviz version 2.36.0 (20140111.2315)
 -->
<!-- Title: calibration::Boxplot::Calculate Pages: 1 -->
<svg width="244pt" height="38pt"
 viewBox="0.00 0.00 244.00 38.00" xmlns="http://www.w3.org/2000/svg" xmlns:xlink="http://www.w3.org/1999/xlink">
<g id="graph0" class="graph" transform="scale(1 1) rotate(0) translate(4 34)">
<title>calibration::Boxplot::Calculate</title>
<polygon fill="white" stroke="none" points="-4,4 -4,-34 240,-34 240,4 -4,4"/>
<!-- Node1 -->
<g id="node1" class="node"><title>Node1</title>
<polygon fill="#bfbfbf" stroke="black" points="0,-0 0,-30 100,-30 100,-0 0,-0"/>
<text text-anchor="start" x="8" y="-18" font-family="Helvetica,sans-Serif" font-size="10.00">calibration::Boxplot</text>
<text text-anchor="middle" x="50" y="-7" font-family="Helvetica,sans-Serif" font-size="10.00">::Calculate</text>
</g>
<!-- Node2 -->
<g id="node2" class="node"><title>Node2</title>
<g id="a_node2"><a xlink:href="../../d1/d7c/a00003.html#ab64b57c32b24ae75db939c865794ff49" target="_top" xlink:title="Find the median of values between begin and end in the results. This vector needs to be sorted...">
<polygon fill="white" stroke="black" points="136,-0 136,-30 236,-30 236,-0 136,-0"/>
<text text-anchor="start" x="144" y="-18" font-family="Helvetica,sans-Serif" font-size="10.00">calibration::Boxplot</text>
<text text-anchor="middle" x="186" y="-7" font-family="Helvetica,sans-Serif" font-size="10.00">::FindMedian</text>
</a>
</g>
</g>
<!-- Node1&#45;&gt;Node2 -->
<g id="edge1" class="edge"><title>Node1&#45;&gt;Node2</title>
<path fill="none" stroke="midnightblue" d="M100.136,-15C108.42,-15 117.097,-15 125.608,-15"/>
<polygon fill="midnightblue" stroke="midnightblue" points="125.87,-18.5001 135.87,-15 125.87,-11.5001 125.87,-18.5001"/>
</g>
</g>
</svg>
