<?xml version="1.0" encoding="UTF-8" standalone="no"?>
<!DOCTYPE svg PUBLIC "-//W3C//DTD SVG 1.1//EN"
 "http://www.w3.org/Graphics/SVG/1.1/DTD/svg11.dtd">
<!-- Generated by graphviz version 2.36.0 (20140111.2315)
 -->
<!-- Title: ReaderFactory.h Pages: 1 -->
<svg width="331pt" height="84pt"
 viewBox="0.00 0.00 331.00 84.00" xmlns="http://www.w3.org/2000/svg" xmlns:xlink="http://www.w3.org/1999/xlink">
<g id="graph0" class="graph" transform="scale(1 1) rotate(0) translate(4 80)">
<title>ReaderFactory.h</title>
<polygon fill="white" stroke="none" points="-4,4 -4,-80 327,-80 327,4 -4,4"/>
<!-- Node1 -->
<g id="node1" class="node"><title>Node1</title>
<polygon fill="#bfbfbf" stroke="black" points="154.5,-56.5 154.5,-75.5 243.5,-75.5 243.5,-56.5 154.5,-56.5"/>
<text text-anchor="middle" x="199" y="-63.5" font-family="Helvetica,sans-Serif" font-size="10.00">ReaderFactory.h</text>
</g>
<!-- Node2 -->
<g id="node2" class="node"><title>Node2</title>
<g id="a_node2"><a xlink:href="../../db/d12/a00268.html" target="_top" xlink:title="GenGeoPopController.cpp">
<polygon fill="white" stroke="black" points="-0.5,-0.5 -0.5,-19.5 130.5,-19.5 130.5,-0.5 -0.5,-0.5"/>
<text text-anchor="middle" x="65" y="-7.5" font-family="Helvetica,sans-Serif" font-size="10.00">GenGeoPopController.cpp</text>
</a>
</g>
</g>
<!-- Node1&#45;&gt;Node2 -->
<g id="edge1" class="edge"><title>Node1&#45;&gt;Node2</title>
<path fill="none" stroke="midnightblue" d="M168.323,-52.6377C143.177,-42.504 108.246,-28.4274 86.1334,-19.5164"/>
<polygon fill="midnightblue" stroke="midnightblue" points="167.184,-55.952 177.767,-56.4435 169.8,-49.4594 167.184,-55.952"/>
</g>
<!-- Node3 -->
<g id="node3" class="node"><title>Node3</title>
<g id="a_node3"><a xlink:href="../../da/dee/a00383.html" target="_top" xlink:title="ReaderFactory.cpp">
<polygon fill="white" stroke="black" points="149,-0.5 149,-19.5 249,-19.5 249,-0.5 149,-0.5"/>
<text text-anchor="middle" x="199" y="-7.5" font-family="Helvetica,sans-Serif" font-size="10.00">ReaderFactory.cpp</text>
</a>
</g>
</g>
<!-- Node1&#45;&gt;Node3 -->
<g id="edge2" class="edge"><title>Node1&#45;&gt;Node3</title>
<path fill="none" stroke="midnightblue" d="M199,-45.8045C199,-36.9102 199,-26.7798 199,-19.7511"/>
<polygon fill="midnightblue" stroke="midnightblue" points="195.5,-46.083 199,-56.083 202.5,-46.083 195.5,-46.083"/>
</g>
<!-- Node4 -->
<g id="node4" class="node"><title>Node4</title>
<g id="a_node4"><a xlink:href="../../d6/d9c/a00352.html" target="_top" xlink:title="main.cpp">
<polygon fill="white" stroke="black" points="267,-0.5 267,-19.5 323,-19.5 323,-0.5 267,-0.5"/>
<text text-anchor="middle" x="295" y="-7.5" font-family="Helvetica,sans-Serif" font-size="10.00">main.cpp</text>
</a>
</g>
</g>
<!-- Node1&#45;&gt;Node4 -->
<g id="edge3" class="edge"><title>Node1&#45;&gt;Node4</title>
<path fill="none" stroke="midnightblue" d="M223.574,-51.1774C241.239,-41.2407 264.513,-28.1492 279.614,-19.6545"/>
<polygon fill="midnightblue" stroke="midnightblue" points="221.424,-48.3708 214.424,-56.324 224.856,-54.4718 221.424,-48.3708"/>
</g>
</g>
</svg>
