<?xml version="1.0" encoding="UTF-8" standalone="no"?>
<!DOCTYPE svg PUBLIC "-//W3C//DTD SVG 1.1//EN"
 "http://www.w3.org/Graphics/SVG/1.1/DTD/svg11.dtd">
<!-- Generated by graphviz version 2.36.0 (20140111.2315)
 -->
<!-- Title: stride::DefaultPopBuilder::MakePersons Pages: 1 -->
<svg width="424pt" height="77pt"
 viewBox="0.00 0.00 424.00 77.00" xmlns="http://www.w3.org/2000/svg" xmlns:xlink="http://www.w3.org/1999/xlink">
<g id="graph0" class="graph" transform="scale(1 1) rotate(0) translate(4 73)">
<title>stride::DefaultPopBuilder::MakePersons</title>
<polygon fill="white" stroke="none" points="-4,4 -4,-73 420,-73 420,4 -4,4"/>
<!-- Node1 -->
<g id="node1" class="node"><title>Node1</title>
<polygon fill="#bfbfbf" stroke="black" points="0.5,-17 0.5,-47 125.5,-47 125.5,-17 0.5,-17"/>
<text text-anchor="start" x="8.5" y="-35" font-family="Helvetica,sans-Serif" font-size="10.00">stride::DefaultPopBuilder</text>
<text text-anchor="middle" x="63" y="-24" font-family="Helvetica,sans-Serif" font-size="10.00">::MakePersons</text>
</g>
<!-- Node2 -->
<g id="node2" class="node"><title>Node2</title>
<g id="a_node2"><a xlink:href="../../d1/db7/a00157.html#aafd39e698c442fd0917915d085c9aa1a" target="_top" xlink:title="/// Return data dir (only relevant when use_install_dirs mode is active) ">
<polygon fill="white" stroke="black" points="162,-39 162,-69 260,-69 260,-39 162,-39"/>
<text text-anchor="start" x="170" y="-57" font-family="Helvetica,sans-Serif" font-size="10.00">stride::util::FileSys</text>
<text text-anchor="middle" x="211" y="-46" font-family="Helvetica,sans-Serif" font-size="10.00">::GetDataDir</text>
</a>
</g>
</g>
<!-- Node1&#45;&gt;Node2 -->
<g id="edge1" class="edge"><title>Node1&#45;&gt;Node2</title>
<path fill="none" stroke="midnightblue" d="M125.917,-41.33C134.426,-42.6122 143.141,-43.9253 151.584,-45.1976"/>
<polygon fill="midnightblue" stroke="midnightblue" points="151.307,-48.6953 161.717,-46.7244 152.35,-41.7734 151.307,-48.6953"/>
</g>
<!-- Node4 -->
<g id="node4" class="node"><title>Node4</title>
<g id="a_node4"><a xlink:href="../../d9/dea/a00478.html#a600b27c06281da416f50a129c50b19f2" target="_top" xlink:title="Split a string (in order of occurence) by splitting it on the given delimiters. ">
<polygon fill="white" stroke="black" points="168.5,-0.5 168.5,-19.5 253.5,-19.5 253.5,-0.5 168.5,-0.5"/>
<text text-anchor="middle" x="211" y="-7.5" font-family="Helvetica,sans-Serif" font-size="10.00">stride::util::Split</text>
</a>
</g>
</g>
<!-- Node1&#45;&gt;Node4 -->
<g id="edge3" class="edge"><title>Node1&#45;&gt;Node4</title>
<path fill="none" stroke="midnightblue" d="M125.917,-22.67C136.642,-21.0539 147.694,-19.3885 158.118,-17.8178"/>
<polygon fill="midnightblue" stroke="midnightblue" points="158.93,-21.2351 168.297,-16.2841 157.887,-14.3133 158.93,-21.2351"/>
</g>
<!-- Node3 -->
<g id="node3" class="node"><title>Node3</title>
<g id="a_node3"><a xlink:href="../../d1/db7/a00157.html#a811a1d113f57785952045d9541c95db5" target="_top" xlink:title="Return paths. ">
<polygon fill="white" stroke="black" points="296,-44.5 296,-63.5 416,-63.5 416,-44.5 296,-44.5"/>
<text text-anchor="middle" x="356" y="-51.5" font-family="Helvetica,sans-Serif" font-size="10.00">stride::util::FileSys::Get</text>
</a>
</g>
</g>
<!-- Node2&#45;&gt;Node3 -->
<g id="edge2" class="edge"><title>Node2&#45;&gt;Node3</title>
<path fill="none" stroke="midnightblue" d="M260.015,-54C268.296,-54 277.05,-54 285.759,-54"/>
<polygon fill="midnightblue" stroke="midnightblue" points="285.932,-57.5001 295.932,-54 285.932,-50.5001 285.932,-57.5001"/>
</g>
</g>
</svg>
