<?xml version="1.0" encoding="UTF-8" standalone="no"?>
<!DOCTYPE svg PUBLIC "-//W3C//DTD SVG 1.1//EN"
 "http://www.w3.org/Graphics/SVG/1.1/DTD/svg11.dtd">
<!-- Generated by graphviz version 2.36.0 (20140111.2315)
 -->
<!-- Title: stride::DiseaseSeeder::Seed Pages: 1 -->
<!--zoomable 421 -->
<svg id="main" version="1.1" xmlns="http://www.w3.org/2000/svg" xmlns:xlink="http://www.w3.org/1999/xlink" xml:space="preserve" onload="init(evt)">
<style type="text/css"><![CDATA[
.edge:hover path { stroke: red; }
.edge:hover polygon { stroke: red; fill: red; }
]]></style>
<script type="text/javascript"><![CDATA[
var edges = document.getElementsByTagName('g');
if (edges && edges.length) {
  for (var i=0;i<edges.length;i++) {
    if (edges[i].id.substr(0,4)=='edge') {
      edges[i].setAttribute('class','edge');
    }
  }
}
]]></script>
        <defs>
                <circle id="rim" cx="0" cy="0" r="7"/>
                <circle id="rim2" cx="0" cy="0" r="3.5"/>
                <g id="zoomPlus">
                        <use xlink:href="#rim" fill="#404040">
                                <set attributeName="fill" to="#808080" begin="zoomplus.mouseover" end="zoomplus.mouseout"/>
                        </use>
                        <path d="M-4,0h8M0,-4v8" fill="none" stroke="white" stroke-width="1.5" pointer-events="none"/>
                </g>
                <g id="zoomMin">
                        <use xlink:href="#rim" fill="#404040">
                                <set attributeName="fill" to="#808080" begin="zoomminus.mouseover" end="zoomminus.mouseout"/>
                        </use>
                        <path d="M-4,0h8" fill="none" stroke="white" stroke-width="1.5" pointer-events="none"/>
                </g>
                <g id="dirArrow">
                        <path fill="none" stroke="white" stroke-width="1.5" d="M0,-3.0v7 M-2.5,-0.5L0,-3.0L2.5,-0.5"/>
                </g>
               <g id="resetDef">
                       <use xlink:href="#rim2" fill="#404040">
                               <set attributeName="fill" to="#808080" begin="reset.mouseover" end="reset.mouseout"/>
                       </use>
               </g>
        </defs>

<script type="text/javascript">
var viewWidth = 662;
var viewHeight = 421;
var sectionId = 'dynsection-1';
</script>
<script xlink:href="../../svgpan.js"/>
<svg id="graph" class="graph">
<g id="viewport">
<title>stride::DiseaseSeeder::Seed</title>
<polygon fill="white" stroke="none" points="-4,4 -4,-417 658,-417 658,4 -4,4"/>
<!-- Node1 -->
<g id="node1" class="node"><title>Node1</title>
<polygon fill="#bfbfbf" stroke="black" points="0.5,-114 0.5,-144 113.5,-144 113.5,-114 0.5,-114"/>
<text text-anchor="start" x="8.5" y="-132" font-family="Helvetica,sans-Serif" font-size="10.00">stride::DiseaseSeeder</text>
<text text-anchor="middle" x="57" y="-121" font-family="Helvetica,sans-Serif" font-size="10.00">::Seed</text>
</g>
<!-- Node2 -->
<g id="node2" class="node"><title>Node2</title>
<g id="a_node2"><a xlink:href="../../d0/d5e/a00136.html#ad85ecf5500764ae2c025f7e2aab8003c" target="_top" xlink:title="Get the age. ">
<polygon fill="white" stroke="black" points="522,-393.5 522,-412.5 638,-412.5 638,-393.5 522,-393.5"/>
<text text-anchor="middle" x="580" y="-400.5" font-family="Helvetica,sans-Serif" font-size="10.00">stride::Person::GetAge</text>
</a>
</g>
</g>
<!-- Node1&#45;&gt;Node2 -->
<g id="edge1" class="edge"><title>Node1&#45;&gt;Node2</title>
<path fill="none" stroke="midnightblue" d="M64.5126,-144.406C77.0769,-172.394 107.246,-231.845 150,-266 257.784,-352.108 420.794,-384.6 511.694,-396.479"/>
<polygon fill="midnightblue" stroke="midnightblue" points="511.516,-399.984 521.875,-397.762 512.391,-393.039 511.516,-399.984"/>
</g>
<!-- Node3 -->
<g id="node3" class="node"><title>Node3</title>
<g id="a_node3"><a xlink:href="../../d6/d7d/a00161.html#a6508932485d419a6e7ab3cac60754ae6" target="_top" xlink:title="Produce a random generator out of a distribution bound to sim&#39;s random engine. ">
<polygon fill="white" stroke="black" points="521,-344 521,-374 639,-374 639,-344 521,-344"/>
<text text-anchor="start" x="529" y="-362" font-family="Helvetica,sans-Serif" font-size="10.00">stride::util::RNManager</text>
<text text-anchor="middle" x="580" y="-351" font-family="Helvetica,sans-Serif" font-size="10.00">::GetGenerator</text>
</a>
</g>
</g>
<!-- Node1&#45;&gt;Node3 -->
<g id="edge2" class="edge"><title>Node1&#45;&gt;Node3</title>
<path fill="none" stroke="midnightblue" d="M69.894,-144.025C86.1308,-163.661 117.008,-198.012 150,-219 265.205,-292.29 422.381,-330.676 510.986,-347.715"/>
<polygon fill="midnightblue" stroke="midnightblue" points="510.443,-351.174 520.919,-349.591 511.742,-344.296 510.443,-351.174"/>
</g>
<!-- Node4 -->
<g id="node4" class="node"><title>Node4</title>
<g id="a_node4"><a xlink:href="../../d0/d5e/a00136.html#a53081dbb062c019153b8be62083d59a2" target="_top" xlink:title="Return person&#39;s health status. ">
<polygon fill="white" stroke="black" points="516,-81.5 516,-100.5 644,-100.5 644,-81.5 516,-81.5"/>
<text text-anchor="middle" x="580" y="-88.5" font-family="Helvetica,sans-Serif" font-size="10.00">stride::Person::GetHealth</text>
</a>
</g>
</g>
<!-- Node1&#45;&gt;Node4 -->
<g id="edge3" class="edge"><title>Node1&#45;&gt;Node4</title>
<path fill="none" stroke="midnightblue" d="M113.756,-124.933C208.389,-118.031 400.404,-104.026 505.756,-96.3422"/>
<polygon fill="midnightblue" stroke="midnightblue" points="506.266,-99.8144 515.985,-95.5961 505.757,-92.8329 506.266,-99.8144"/>
</g>
<!-- Node5 -->
<g id="node5" class="node"><title>Node5</title>
<g id="a_node5"><a xlink:href="../../d0/d5e/a00136.html#afab3ab2a1a33004f9e25d4873c3c1921" target="_top" xlink:title="Get the id. ">
<polygon fill="white" stroke="black" points="166.5,-81.5 166.5,-100.5 273.5,-100.5 273.5,-81.5 166.5,-81.5"/>
<text text-anchor="middle" x="220" y="-88.5" font-family="Helvetica,sans-Serif" font-size="10.00">stride::Person::GetId</text>
</a>
</g>
</g>
<!-- Node1&#45;&gt;Node5 -->
<g id="edge4" class="edge"><title>Node1&#45;&gt;Node5</title>
<path fill="none" stroke="midnightblue" d="M113.858,-115.816C131.7,-111.605 151.328,-106.972 168.746,-102.861"/>
<polygon fill="midnightblue" stroke="midnightblue" points="169.788,-106.212 178.716,-100.508 168.18,-99.3988 169.788,-106.212"/>
</g>
<!-- Node6 -->
<g id="node6" class="node"><title>Node6</title>
<g id="a_node6"><a xlink:href="../../d3/d00/a00113.html#ae2a3b14e79e08a261ca7122afba9b95c" target="_top" xlink:title="Is this person susceptible? ">
<polygon fill="white" stroke="black" points="150,-43.5 150,-62.5 290,-62.5 290,-43.5 150,-43.5"/>
<text text-anchor="middle" x="220" y="-50.5" font-family="Helvetica,sans-Serif" font-size="10.00">stride::Health::IsSusceptible</text>
</a>
</g>
</g>
<!-- Node1&#45;&gt;Node6 -->
<g id="edge5" class="edge"><title>Node1&#45;&gt;Node6</title>
<path fill="none" stroke="midnightblue" d="M78.6126,-113.829C96.6626,-101.144 123.999,-83.3533 150,-72 155.398,-69.643 161.163,-67.5073 166.974,-65.5919"/>
<polygon fill="midnightblue" stroke="midnightblue" points="168.218,-68.871 176.74,-62.5762 166.152,-62.1826 168.218,-68.871"/>
</g>
<!-- Node7 -->
<g id="node7" class="node"><title>Node7</title>
<g id="a_node7"><a xlink:href="../../d3/d00/a00113.html#a5d85541b8e22aeaa75b364a454f59088" target="_top" xlink:title="Start the infection. ">
<polygon fill="white" stroke="black" points="150,-5.5 150,-24.5 290,-24.5 290,-5.5 150,-5.5"/>
<text text-anchor="middle" x="220" y="-12.5" font-family="Helvetica,sans-Serif" font-size="10.00">stride::Health::StartInfection</text>
</a>
</g>
</g>
<!-- Node1&#45;&gt;Node7 -->
<g id="edge6" class="edge"><title>Node1&#45;&gt;Node7</title>
<path fill="none" stroke="midnightblue" d="M68.6268,-113.72C84.0987,-92.6271 114.844,-54.8385 150,-34 153.667,-31.8261 157.591,-29.8936 161.637,-28.1769"/>
<polygon fill="midnightblue" stroke="midnightblue" points="163.117,-31.3592 171.235,-24.5507 160.643,-24.811 163.117,-31.3592"/>
</g>
<!-- Node9 -->
<g id="node9" class="node"><title>Node9</title>
<g id="a_node9"><a xlink:href="../../dd/d42/a00109.html#accb4b7832c08a4cc98973caf5aebf7f5" target="_top" xlink:title="Seed for vaccination/natural immunity. ">
<polygon fill="white" stroke="black" points="163.5,-180 163.5,-210 276.5,-210 276.5,-180 163.5,-180"/>
<text text-anchor="start" x="171.5" y="-198" font-family="Helvetica,sans-Serif" font-size="10.00">stride::DiseaseSeeder</text>
<text text-anchor="middle" x="220" y="-187" font-family="Helvetica,sans-Serif" font-size="10.00">::Vaccinate</text>
</a>
</g>
</g>
<!-- Node1&#45;&gt;Node9 -->
<g id="edge8" class="edge"><title>Node1&#45;&gt;Node9</title>
<path fill="none" stroke="midnightblue" d="M94.9367,-144.142C118.049,-153.616 148.017,-165.901 172.709,-176.024"/>
<polygon fill="midnightblue" stroke="midnightblue" points="171.655,-179.374 182.235,-179.929 174.31,-172.897 171.655,-179.374"/>
</g>
<!-- Node8 -->
<g id="node8" class="node"><title>Node8</title>
<g id="a_node8"><a xlink:href="../../d3/d00/a00113.html#a468c554771acc883799456c14373e9db" target="_top" xlink:title="Reset the disease counter. ">
<polygon fill="white" stroke="black" points="326.5,-0 326.5,-30 469.5,-30 469.5,-0 326.5,-0"/>
<text text-anchor="start" x="334.5" y="-18" font-family="Helvetica,sans-Serif" font-size="10.00">stride::Health::ResetDisease</text>
<text text-anchor="middle" x="398" y="-7" font-family="Helvetica,sans-Serif" font-size="10.00">Counter</text>
</a>
</g>
</g>
<!-- Node7&#45;&gt;Node8 -->
<g id="edge7" class="edge"><title>Node7&#45;&gt;Node8</title>
<path fill="none" stroke="midnightblue" d="M290.055,-15C298.638,-15 307.473,-15 316.213,-15"/>
<polygon fill="midnightblue" stroke="midnightblue" points="316.408,-18.5001 326.408,-15 316.408,-11.5001 316.408,-18.5001"/>
</g>
<!-- Node10 -->
<g id="node10" class="node"><title>Node10</title>
<g id="a_node10"><a xlink:href="../../d3/d58/a00481.html#aa45ab4a5a30f65dcd1bf25c3d095825b" target="_top" xlink:title="Builds a string with lower case characters only. ">
<polygon fill="white" stroke="black" points="346.5,-207.5 346.5,-226.5 449.5,-226.5 449.5,-207.5 346.5,-207.5"/>
<text text-anchor="middle" x="398" y="-214.5" font-family="Helvetica,sans-Serif" font-size="10.00">stride::util::ToLower</text>
</a>
</g>
</g>
<!-- Node9&#45;&gt;Node10 -->
<g id="edge9" class="edge"><title>Node9&#45;&gt;Node10</title>
<path fill="none" stroke="midnightblue" d="M276.688,-201.961C295.726,-204.341 317.108,-207.013 336.507,-209.438"/>
<polygon fill="midnightblue" stroke="midnightblue" points="336.091,-212.913 346.448,-210.681 336.959,-205.968 336.091,-212.913"/>
</g>
<!-- Node11 -->
<g id="node11" class="node"><title>Node11</title>
<g id="a_node11"><a xlink:href="../../d4/d3e/a00116.html#a8188dc69064103c5ac7e95193356a0c3" target="_top" xlink:title="Random immunization. ">
<polygon fill="white" stroke="black" points="349,-246 349,-276 447,-276 447,-246 349,-246"/>
<text text-anchor="start" x="357" y="-264" font-family="Helvetica,sans-Serif" font-size="10.00">stride::Immunizer::</text>
<text text-anchor="middle" x="398" y="-253" font-family="Helvetica,sans-Serif" font-size="10.00">Random</text>
</a>
</g>
</g>
<!-- Node9&#45;&gt;Node11 -->
<g id="edge10" class="edge"><title>Node9&#45;&gt;Node11</title>
<path fill="none" stroke="midnightblue" d="M258.791,-210.112C278.721,-217.991 303.617,-227.692 326,-236 331.789,-238.149 337.859,-240.356 343.911,-242.527"/>
<polygon fill="midnightblue" stroke="midnightblue" points="342.766,-245.834 353.36,-245.895 345.116,-239.24 342.766,-245.834"/>
</g>
<!-- Node17 -->
<g id="node17" class="node"><title>Node17</title>
<g id="a_node17"><a xlink:href="../../d4/d3e/a00116.html#add398d28fdec1db2a9bebc92f56c3de2" target="_top" xlink:title="Cocoon immunization. ">
<polygon fill="white" stroke="black" points="349,-158 349,-188 447,-188 447,-158 349,-158"/>
<text text-anchor="start" x="357" y="-176" font-family="Helvetica,sans-Serif" font-size="10.00">stride::Immunizer::</text>
<text text-anchor="middle" x="398" y="-165" font-family="Helvetica,sans-Serif" font-size="10.00">Cocoon</text>
</a>
</g>
</g>
<!-- Node9&#45;&gt;Node17 -->
<g id="edge19" class="edge"><title>Node9&#45;&gt;Node17</title>
<path fill="none" stroke="midnightblue" d="M276.688,-188.039C296.412,-185.573 318.652,-182.794 338.596,-180.3"/>
<polygon fill="midnightblue" stroke="midnightblue" points="339.302,-183.74 348.791,-179.026 338.434,-176.794 339.302,-183.74"/>
</g>
<!-- Node11&#45;&gt;Node2 -->
<g id="edge17" class="edge"><title>Node11&#45;&gt;Node2</title>
<path fill="none" stroke="midnightblue" d="M408.134,-276.304C424.441,-302.28 461.1,-354.906 506,-383 510.101,-385.566 514.532,-387.807 519.113,-389.765"/>
<polygon fill="midnightblue" stroke="midnightblue" points="518.079,-393.116 528.67,-393.396 520.566,-386.573 518.079,-393.116"/>
</g>
<!-- Node11&#45;&gt;Node3 -->
<g id="edge11" class="edge"><title>Node11&#45;&gt;Node3</title>
<path fill="none" stroke="midnightblue" d="M424.026,-276.047C437.802,-284.53 455.079,-295.505 470,-306 486.579,-317.661 488.168,-324.362 506,-334 509.952,-336.136 514.121,-338.141 518.382,-340.013"/>
<polygon fill="midnightblue" stroke="midnightblue" points="517.231,-343.324 527.81,-343.898 519.898,-336.852 517.231,-343.324"/>
</g>
<!-- Node11&#45;&gt;Node4 -->
<g id="edge15" class="edge"><title>Node11&#45;&gt;Node4</title>
<path fill="none" stroke="midnightblue" d="M447.047,-251.133C455.579,-247.548 463.729,-242.66 470,-236 509.923,-193.596 464.333,-150.692 506,-110 507.476,-108.559 509.046,-107.223 510.694,-105.985"/>
<polygon fill="midnightblue" stroke="midnightblue" points="512.81,-108.793 519.499,-100.577 509.146,-102.828 512.81,-108.793"/>
</g>
<!-- Node12 -->
<g id="node12" class="node"><title>Node12</title>
<g id="a_node12"><a xlink:href="../../d4/d3a/a00101.html#a206057a57bf75587c303c41f27f3bf23" target="_top" xlink:title="Get size (number of members). ">
<polygon fill="white" stroke="black" points="529.5,-120 529.5,-150 630.5,-150 630.5,-120 529.5,-120"/>
<text text-anchor="start" x="537.5" y="-138" font-family="Helvetica,sans-Serif" font-size="10.00">stride::ContactPool</text>
<text text-anchor="middle" x="580" y="-127" font-family="Helvetica,sans-Serif" font-size="10.00">::GetSize</text>
</a>
</g>
</g>
<!-- Node11&#45;&gt;Node12 -->
<g id="edge12" class="edge"><title>Node11&#45;&gt;Node12</title>
<path fill="none" stroke="midnightblue" d="M447.32,-249.826C455.533,-246.367 463.496,-241.862 470,-236 497.764,-210.978 478.128,-184.902 506,-160 510.183,-156.262 514.951,-153.079 520.001,-150.368"/>
<polygon fill="midnightblue" stroke="midnightblue" points="521.769,-153.404 529.328,-145.981 518.789,-147.07 521.769,-153.404"/>
</g>
<!-- Node13 -->
<g id="node13" class="node"><title>Node13</title>
<g id="a_node13"><a xlink:href="../../d6/d7d/a00161.html#a5a7dc58c76f112c8d808866cac5a272d" target="_top" xlink:title="Randomly shuffle items between iterators using i&#45;th stream of the random engine. ">
<polygon fill="white" stroke="black" points="521,-295 521,-325 639,-325 639,-295 521,-295"/>
<text text-anchor="start" x="529" y="-313" font-family="Helvetica,sans-Serif" font-size="10.00">stride::util::RNManager</text>
<text text-anchor="middle" x="580" y="-302" font-family="Helvetica,sans-Serif" font-size="10.00">::RandomShuffle</text>
</a>
</g>
</g>
<!-- Node11&#45;&gt;Node13 -->
<g id="edge13" class="edge"><title>Node11&#45;&gt;Node13</title>
<path fill="none" stroke="midnightblue" d="M447.237,-274.131C467.646,-279.687 491.737,-286.245 513.7,-292.224"/>
<polygon fill="midnightblue" stroke="midnightblue" points="513.053,-295.675 523.621,-294.925 514.892,-288.921 513.053,-295.675"/>
</g>
<!-- Node14 -->
<g id="node14" class="node"><title>Node14</title>
<g id="a_node14"><a xlink:href="../../d4/d3a/a00101.html#ae7962d506db44920ed1fd99471cabc50" target="_top" xlink:title="Get member at index. ">
<polygon fill="white" stroke="black" points="529.5,-246 529.5,-276 630.5,-276 630.5,-246 529.5,-246"/>
<text text-anchor="start" x="537.5" y="-264" font-family="Helvetica,sans-Serif" font-size="10.00">stride::ContactPool</text>
<text text-anchor="middle" x="580" y="-253" font-family="Helvetica,sans-Serif" font-size="10.00">::GetMember</text>
</a>
</g>
</g>
<!-- Node11&#45;&gt;Node14 -->
<g id="edge14" class="edge"><title>Node11&#45;&gt;Node14</title>
<path fill="none" stroke="midnightblue" d="M447.237,-261C469.371,-261 495.835,-261 519.22,-261"/>
<polygon fill="midnightblue" stroke="midnightblue" points="519.375,-264.5 529.375,-261 519.375,-257.5 519.375,-264.5"/>
</g>
<!-- Node15 -->
<g id="node15" class="node"><title>Node15</title>
<g id="a_node15"><a xlink:href="../../d3/d00/a00113.html#a7c9caae07db1dd15732f726cec514dc2" target="_top" xlink:title="stride::Health::IsImmune">
<polygon fill="white" stroke="black" points="517.5,-207.5 517.5,-226.5 642.5,-226.5 642.5,-207.5 517.5,-207.5"/>
<text text-anchor="middle" x="580" y="-214.5" font-family="Helvetica,sans-Serif" font-size="10.00">stride::Health::IsImmune</text>
</a>
</g>
</g>
<!-- Node11&#45;&gt;Node15 -->
<g id="edge16" class="edge"><title>Node11&#45;&gt;Node15</title>
<path fill="none" stroke="midnightblue" d="M447.237,-249.209C472.886,-242.939 504.351,-235.248 530.099,-228.954"/>
<polygon fill="midnightblue" stroke="midnightblue" points="531.141,-232.302 540.024,-226.527 529.479,-225.502 531.141,-232.302"/>
</g>
<!-- Node16 -->
<g id="node16" class="node"><title>Node16</title>
<g id="a_node16"><a xlink:href="../../d3/d00/a00113.html#a8edeec79c050faabe2c09a1bc4860261" target="_top" xlink:title="Set health state to susceptible. ">
<polygon fill="white" stroke="black" points="506.5,-169.5 506.5,-188.5 653.5,-188.5 653.5,-169.5 506.5,-169.5"/>
<text text-anchor="middle" x="580" y="-176.5" font-family="Helvetica,sans-Serif" font-size="10.00">stride::Health::SetSusceptible</text>
</a>
</g>
</g>
<!-- Node11&#45;&gt;Node16 -->
<g id="edge18" class="edge"><title>Node11&#45;&gt;Node16</title>
<path fill="none" stroke="midnightblue" d="M447.066,-247.588C455.038,-244.39 462.984,-240.552 470,-236 489.517,-223.338 485.969,-209.832 506,-198 509.679,-195.827 513.605,-193.9 517.657,-192.19"/>
<polygon fill="midnightblue" stroke="midnightblue" points="519.144,-195.37 527.28,-188.584 516.688,-188.815 519.144,-195.37"/>
</g>
</g>
</svg>
        <g id="navigator" transform="translate(0 0)" fill="#404254">
                <rect fill="#f2f5e9" fill-opacity="0.5" stroke="#606060" stroke-width=".5" x="0" y="0" width="60" height="60"/>
                <use id="zoomplus" xlink:href="#zoomPlus" x="17" y="9" onmousedown="handleZoom(evt,'in')"/>
                <use id="zoomminus" xlink:href="#zoomMin" x="42" y="9" onmousedown="handleZoom(evt,'out')"/>
                <use id="reset" xlink:href="#resetDef" x="30" y="36" onmousedown="handleReset()"/>
                <g id="arrowUp" xlink:href="#dirArrow" transform="translate(30 24)" onmousedown="handlePan(0,-1)">
                  <use xlink:href="#rim" fill="#404040">
                        <set attributeName="fill" to="#808080" begin="arrowUp.mouseover" end="arrowUp.mouseout"/>
                  </use>
                  <path fill="none" stroke="white" stroke-width="1.5" d="M0,-3.0v7 M-2.5,-0.5L0,-3.0L2.5,-0.5"/>
                </g>
                <g id="arrowRight" xlink:href="#dirArrow" transform="rotate(90) translate(36 -43)" onmousedown="handlePan(1,0)">
                  <use xlink:href="#rim" fill="#404040">
                        <set attributeName="fill" to="#808080" begin="arrowRight.mouseover" end="arrowRight.mouseout"/>
                  </use>
                  <path fill="none" stroke="white" stroke-width="1.5" d="M0,-3.0v7 M-2.5,-0.5L0,-3.0L2.5,-0.5"/>
                </g>
                <g id="arrowDown" xlink:href="#dirArrow" transform="rotate(180) translate(-30 -48)" onmousedown="handlePan(0,1)">
                  <use xlink:href="#rim" fill="#404040">
                        <set attributeName="fill" to="#808080" begin="arrowDown.mouseover" end="arrowDown.mouseout"/>
                  </use>
                  <path fill="none" stroke="white" stroke-width="1.5" d="M0,-3.0v7 M-2.5,-0.5L0,-3.0L2.5,-0.5"/>
                </g>
                <g id="arrowLeft" xlink:href="#dirArrow" transform="rotate(270) translate(-36 17)" onmousedown="handlePan(-1,0)">
                  <use xlink:href="#rim" fill="#404040">
                        <set attributeName="fill" to="#808080" begin="arrowLeft.mouseover" end="arrowLeft.mouseout"/>
                  </use>
                  <path fill="none" stroke="white" stroke-width="1.5" d="M0,-3.0v7 M-2.5,-0.5L0,-3.0L2.5,-0.5"/>
                </g>
        </g>
        <svg viewBox="0 0 15 15" width="100%" height="30px" preserveAspectRatio="xMaxYMin meet">
         <g id="arrow_out" transform="scale(0.3 0.3)">
          <a xlink:href="a00109_adc5b1f152367382afe3dade9421357da_cgraph_org.svg" target="_base">
           <rect id="button" ry="5" rx="5" y="6" x="6" height="38" width="38"
                fill="#f2f5e9" fill-opacity="0.5" stroke="#606060" stroke-width="1.0"/>
           <path id="arrow"
             d="M 11.500037,31.436501 C 11.940474,20.09759 22.043105,11.32322 32.158766,21.979434 L 37.068811,17.246167 C 37.068811,17.246167 37.088388,32 37.088388,32 L 22.160133,31.978069 C 22.160133,31.978069 26.997745,27.140456 26.997745,27.140456 C 18.528582,18.264221 13.291696,25.230495 11.500037,31.436501 z"
             style="fill:#404040;"/>
          </a>
         </g>
        </svg>
</svg>
