<?xml version="1.0" encoding="UTF-8" standalone="no"?>
<!DOCTYPE svg PUBLIC "-//W3C//DTD SVG 1.1//EN"
 "http://www.w3.org/Graphics/SVG/1.1/DTD/svg11.dtd">
<!-- Generated by graphviz version 2.36.0 (20140111.2315)
 -->
<!-- Title: stride::DiseaseSeeder::Vaccinate Pages: 1 -->
<svg width="446pt" height="338pt"
 viewBox="0.00 0.00 446.00 338.00" xmlns="http://www.w3.org/2000/svg" xmlns:xlink="http://www.w3.org/1999/xlink">
<g id="graph0" class="graph" transform="scale(1 1) rotate(0) translate(4 334)">
<title>stride::DiseaseSeeder::Vaccinate</title>
<polygon fill="white" stroke="none" points="-4,4 -4,-334 442,-334 442,4 -4,4"/>
<!-- Node1 -->
<g id="node1" class="node"><title>Node1</title>
<polygon fill="#bfbfbf" stroke="black" points="0.5,-131 0.5,-161 113.5,-161 113.5,-131 0.5,-131"/>
<text text-anchor="start" x="8.5" y="-149" font-family="Helvetica,sans-Serif" font-size="10.00">stride::DiseaseSeeder</text>
<text text-anchor="middle" x="57" y="-138" font-family="Helvetica,sans-Serif" font-size="10.00">::Vaccinate</text>
</g>
<!-- Node2 -->
<g id="node2" class="node"><title>Node2</title>
<g id="a_node2"><a xlink:href="../../d4/d3e/a00116.html#add398d28fdec1db2a9bebc92f56c3de2" target="_top" xlink:title="Cocoon immunization. ">
<polygon fill="white" stroke="black" points="153,-180 153,-210 251,-210 251,-180 153,-180"/>
<text text-anchor="start" x="161" y="-198" font-family="Helvetica,sans-Serif" font-size="10.00">stride::Immunizer::</text>
<text text-anchor="middle" x="202" y="-187" font-family="Helvetica,sans-Serif" font-size="10.00">Cocoon</text>
</a>
</g>
</g>
<!-- Node1&#45;&gt;Node2 -->
<g id="edge1" class="edge"><title>Node1&#45;&gt;Node2</title>
<path fill="none" stroke="midnightblue" d="M102.072,-161.101C116.343,-165.992 132.333,-171.471 147.227,-176.574"/>
<polygon fill="midnightblue" stroke="midnightblue" points="146.233,-179.933 156.828,-179.864 148.502,-173.311 146.233,-179.933"/>
</g>
<!-- Node3 -->
<g id="node3" class="node"><title>Node3</title>
<g id="a_node3"><a xlink:href="../../d4/d3e/a00116.html#a8188dc69064103c5ac7e95193356a0c3" target="_top" xlink:title="Random immunization. ">
<polygon fill="white" stroke="black" points="153,-131 153,-161 251,-161 251,-131 153,-131"/>
<text text-anchor="start" x="161" y="-149" font-family="Helvetica,sans-Serif" font-size="10.00">stride::Immunizer::</text>
<text text-anchor="middle" x="202" y="-138" font-family="Helvetica,sans-Serif" font-size="10.00">Random</text>
</a>
</g>
</g>
<!-- Node1&#45;&gt;Node3 -->
<g id="edge2" class="edge"><title>Node1&#45;&gt;Node3</title>
<path fill="none" stroke="midnightblue" d="M113.697,-146C123.142,-146 132.974,-146 142.489,-146"/>
<polygon fill="midnightblue" stroke="midnightblue" points="142.655,-149.5 152.655,-146 142.655,-142.5 142.655,-149.5"/>
</g>
<!-- Node12 -->
<g id="node12" class="node"><title>Node12</title>
<g id="a_node12"><a xlink:href="../../d0/d29/a00470.html#aa45ab4a5a30f65dcd1bf25c3d095825b" target="_top" xlink:title="Builds a string with lower case characters only. ">
<polygon fill="white" stroke="black" points="150.5,-92.5 150.5,-111.5 253.5,-111.5 253.5,-92.5 150.5,-92.5"/>
<text text-anchor="middle" x="202" y="-99.5" font-family="Helvetica,sans-Serif" font-size="10.00">stride::util::ToLower</text>
</a>
</g>
</g>
<!-- Node1&#45;&gt;Node12 -->
<g id="edge11" class="edge"><title>Node1&#45;&gt;Node12</title>
<path fill="none" stroke="midnightblue" d="M106.813,-130.981C124.099,-125.662 143.36,-119.735 159.937,-114.635"/>
<polygon fill="midnightblue" stroke="midnightblue" points="161.342,-117.864 169.871,-111.578 159.283,-111.174 161.342,-117.864"/>
</g>
<!-- Node4 -->
<g id="node4" class="node"><title>Node4</title>
<g id="a_node4"><a xlink:href="../../d1/db7/a00157.html#a6508932485d419a6e7ab3cac60754ae6" target="_top" xlink:title="Produce a random generator out of a distribution bound to sim&#39;s random engine. ">
<polygon fill="white" stroke="black" points="305,-300 305,-330 423,-330 423,-300 305,-300"/>
<text text-anchor="start" x="313" y="-318" font-family="Helvetica,sans-Serif" font-size="10.00">stride::util::RNManager</text>
<text text-anchor="middle" x="364" y="-307" font-family="Helvetica,sans-Serif" font-size="10.00">::GetGenerator</text>
</a>
</g>
</g>
<!-- Node3&#45;&gt;Node4 -->
<g id="edge3" class="edge"><title>Node3&#45;&gt;Node4</title>
<path fill="none" stroke="midnightblue" d="M242.469,-161.047C246.76,-163.87 250.743,-167.168 254,-171 289.782,-213.105 251.641,-250.228 290,-290 291.872,-291.941 293.9,-293.73 296.049,-295.381"/>
<polygon fill="midnightblue" stroke="midnightblue" points="294.563,-298.589 304.86,-301.086 298.368,-292.713 294.563,-298.589"/>
</g>
<!-- Node5 -->
<g id="node5" class="node"><title>Node5</title>
<g id="a_node5"><a xlink:href="../../d4/d3a/a00101.html#a206057a57bf75587c303c41f27f3bf23" target="_top" xlink:title="Get size (number of members). ">
<polygon fill="white" stroke="black" points="313.5,-251 313.5,-281 414.5,-281 414.5,-251 313.5,-251"/>
<text text-anchor="start" x="321.5" y="-269" font-family="Helvetica,sans-Serif" font-size="10.00">stride::ContactPool</text>
<text text-anchor="middle" x="364" y="-258" font-family="Helvetica,sans-Serif" font-size="10.00">::GetSize</text>
</a>
</g>
</g>
<!-- Node3&#45;&gt;Node5 -->
<g id="edge4" class="edge"><title>Node3&#45;&gt;Node5</title>
<path fill="none" stroke="midnightblue" d="M240.789,-161.01C245.566,-163.882 250.128,-167.202 254,-171 278.974,-195.499 263.535,-218.12 290,-241 294.244,-244.669 299.052,-247.806 304.127,-250.488"/>
<polygon fill="midnightblue" stroke="midnightblue" points="302.943,-253.797 313.486,-254.839 305.894,-247.449 302.943,-253.797"/>
</g>
<!-- Node6 -->
<g id="node6" class="node"><title>Node6</title>
<g id="a_node6"><a xlink:href="../../d1/db7/a00157.html#a5a7dc58c76f112c8d808866cac5a272d" target="_top" xlink:title="Randomly shuffle items between iterators using i&#45;th stream of the random engine. ">
<polygon fill="white" stroke="black" points="305,-202 305,-232 423,-232 423,-202 305,-202"/>
<text text-anchor="start" x="313" y="-220" font-family="Helvetica,sans-Serif" font-size="10.00">stride::util::RNManager</text>
<text text-anchor="middle" x="364" y="-209" font-family="Helvetica,sans-Serif" font-size="10.00">::RandomShuffle</text>
</a>
</g>
</g>
<!-- Node3&#45;&gt;Node6 -->
<g id="edge5" class="edge"><title>Node3&#45;&gt;Node6</title>
<path fill="none" stroke="midnightblue" d="M234.739,-161.117C241.158,-164.298 247.829,-167.693 254,-171 270.327,-179.749 273.155,-184.295 290,-192 294.873,-194.229 300.005,-196.372 305.197,-198.401"/>
<polygon fill="midnightblue" stroke="midnightblue" points="303.971,-201.679 314.563,-201.924 306.436,-195.127 303.971,-201.679"/>
</g>
<!-- Node7 -->
<g id="node7" class="node"><title>Node7</title>
<g id="a_node7"><a xlink:href="../../d4/d3a/a00101.html#ae7962d506db44920ed1fd99471cabc50" target="_top" xlink:title="Get member at index. ">
<polygon fill="white" stroke="black" points="313.5,-153 313.5,-183 414.5,-183 414.5,-153 313.5,-153"/>
<text text-anchor="start" x="321.5" y="-171" font-family="Helvetica,sans-Serif" font-size="10.00">stride::ContactPool</text>
<text text-anchor="middle" x="364" y="-160" font-family="Helvetica,sans-Serif" font-size="10.00">::GetMember</text>
</a>
</g>
</g>
<!-- Node3&#45;&gt;Node7 -->
<g id="edge6" class="edge"><title>Node3&#45;&gt;Node7</title>
<path fill="none" stroke="midnightblue" d="M251.005,-152.601C267.472,-154.865 286.104,-157.427 303.378,-159.802"/>
<polygon fill="midnightblue" stroke="midnightblue" points="302.981,-163.28 313.365,-161.175 303.935,-156.346 302.981,-163.28"/>
</g>
<!-- Node8 -->
<g id="node8" class="node"><title>Node8</title>
<g id="a_node8"><a xlink:href="../../d0/d5e/a00136.html#a53081dbb062c019153b8be62083d59a2" target="_top" xlink:title="Return person&#39;s health status. ">
<polygon fill="white" stroke="black" points="300,-114.5 300,-133.5 428,-133.5 428,-114.5 300,-114.5"/>
<text text-anchor="middle" x="364" y="-121.5" font-family="Helvetica,sans-Serif" font-size="10.00">stride::Person::GetHealth</text>
</a>
</g>
</g>
<!-- Node3&#45;&gt;Node8 -->
<g id="edge7" class="edge"><title>Node3&#45;&gt;Node8</title>
<path fill="none" stroke="midnightblue" d="M251.005,-139.399C263.255,-137.715 276.703,-135.866 289.899,-134.051"/>
<polygon fill="midnightblue" stroke="midnightblue" points="290.486,-137.504 299.916,-132.674 289.533,-130.569 290.486,-137.504"/>
</g>
<!-- Node9 -->
<g id="node9" class="node"><title>Node9</title>
<g id="a_node9"><a xlink:href="../../d3/d00/a00113.html#a7c9caae07db1dd15732f726cec514dc2" target="_top" xlink:title="stride::Health::IsImmune">
<polygon fill="white" stroke="black" points="301.5,-76.5 301.5,-95.5 426.5,-95.5 426.5,-76.5 301.5,-76.5"/>
<text text-anchor="middle" x="364" y="-83.5" font-family="Helvetica,sans-Serif" font-size="10.00">stride::Health::IsImmune</text>
</a>
</g>
</g>
<!-- Node3&#45;&gt;Node9 -->
<g id="edge8" class="edge"><title>Node3&#45;&gt;Node9</title>
<path fill="none" stroke="midnightblue" d="M233.632,-130.826C254.021,-120.869 279.011,-108.98 290,-105 296.772,-102.547 304.004,-100.271 311.185,-98.2093"/>
<polygon fill="midnightblue" stroke="midnightblue" points="312.187,-101.564 320.899,-95.5341 310.328,-94.8151 312.187,-101.564"/>
</g>
<!-- Node10 -->
<g id="node10" class="node"><title>Node10</title>
<g id="a_node10"><a xlink:href="../../d0/d5e/a00136.html#ad85ecf5500764ae2c025f7e2aab8003c" target="_top" xlink:title="Get the age. ">
<polygon fill="white" stroke="black" points="306,-38.5 306,-57.5 422,-57.5 422,-38.5 306,-38.5"/>
<text text-anchor="middle" x="364" y="-45.5" font-family="Helvetica,sans-Serif" font-size="10.00">stride::Person::GetAge</text>
</a>
</g>
</g>
<!-- Node3&#45;&gt;Node10 -->
<g id="edge9" class="edge"><title>Node3&#45;&gt;Node10</title>
<path fill="none" stroke="midnightblue" d="M239.876,-130.879C244.898,-127.997 249.772,-124.703 254,-121 275.699,-101.996 266.503,-83.7293 290,-67 292.72,-65.0632 295.623,-63.3237 298.645,-61.7614"/>
<polygon fill="midnightblue" stroke="midnightblue" points="300.298,-64.8568 308.004,-57.5863 297.446,-58.464 300.298,-64.8568"/>
</g>
<!-- Node11 -->
<g id="node11" class="node"><title>Node11</title>
<g id="a_node11"><a xlink:href="../../d3/d00/a00113.html#a8edeec79c050faabe2c09a1bc4860261" target="_top" xlink:title="Set health state to susceptible. ">
<polygon fill="white" stroke="black" points="290.5,-0.5 290.5,-19.5 437.5,-19.5 437.5,-0.5 290.5,-0.5"/>
<text text-anchor="middle" x="364" y="-7.5" font-family="Helvetica,sans-Serif" font-size="10.00">stride::Health::SetSusceptible</text>
</a>
</g>
</g>
<!-- Node3&#45;&gt;Node11 -->
<g id="edge10" class="edge"><title>Node3&#45;&gt;Node11</title>
<path fill="none" stroke="midnightblue" d="M241.927,-130.863C246.361,-128.044 250.527,-124.773 254,-121 283.736,-88.6943 257.17,-58.1568 290,-29 291.75,-27.4455 293.612,-26.0155 295.561,-24.7002"/>
<polygon fill="midnightblue" stroke="midnightblue" points="297.581,-27.5803 304.592,-19.6369 294.158,-21.4745 297.581,-27.5803"/>
</g>
</g>
</svg>
