<?xml version="1.0" encoding="UTF-8" standalone="no"?>
<!DOCTYPE svg PUBLIC "-//W3C//DTD SVG 1.1//EN"
 "http://www.w3.org/Graphics/SVG/1.1/DTD/svg11.dtd">
<!-- Generated by graphviz version 2.36.0 (20140111.2315)
 -->
<!-- Title: InfectorExec.h Pages: 1 -->
<svg width="1409pt" height="140pt"
 viewBox="0.00 0.00 1409.00 140.00" xmlns="http://www.w3.org/2000/svg" xmlns:xlink="http://www.w3.org/1999/xlink">
<g id="graph0" class="graph" transform="scale(1 1) rotate(0) translate(4 136)">
<title>InfectorExec.h</title>
<polygon fill="white" stroke="none" points="-4,4 -4,-136 1405,-136 1405,4 -4,4"/>
<!-- Node1 -->
<g id="node1" class="node"><title>Node1</title>
<polygon fill="#bfbfbf" stroke="black" points="427,-112.5 427,-131.5 507,-131.5 507,-112.5 427,-112.5"/>
<text text-anchor="middle" x="467" y="-119.5" font-family="Helvetica,sans-Serif" font-size="10.00">InfectorExec.h</text>
</g>
<!-- Node2 -->
<g id="node2" class="node"><title>Node2</title>
<g id="a_node2"><a xlink:href="../../dd/d4e/a00329.html" target="_top" xlink:title="Header for the InfectorMap. ">
<polygon fill="white" stroke="black" points="144.5,-56.5 144.5,-75.5 221.5,-75.5 221.5,-56.5 144.5,-56.5"/>
<text text-anchor="middle" x="183" y="-63.5" font-family="Helvetica,sans-Serif" font-size="10.00">InfectorMap.h</text>
</a>
</g>
</g>
<!-- Node1&#45;&gt;Node2 -->
<g id="edge1" class="edge"><title>Node1&#45;&gt;Node2</title>
<path fill="none" stroke="midnightblue" d="M416.897,-111.473C361.102,-100.865 272.128,-83.9468 221.52,-74.3242"/>
<polygon fill="midnightblue" stroke="midnightblue" points="416.434,-114.948 426.912,-113.378 417.742,-108.071 416.434,-114.948"/>
</g>
<!-- Node4 -->
<g id="node4" class="node"><title>Node4</title>
<g id="a_node4"><a xlink:href="../../d9/da1/a00396.html" target="_top" xlink:title="Header for the Simulator class. ">
<polygon fill="white" stroke="black" points="632,-56.5 632,-75.5 674,-75.5 674,-56.5 632,-56.5"/>
<text text-anchor="middle" x="653" y="-63.5" font-family="Helvetica,sans-Serif" font-size="10.00">Sim.h</text>
</a>
</g>
</g>
<!-- Node1&#45;&gt;Node4 -->
<g id="edge3" class="edge"><title>Node1&#45;&gt;Node4</title>
<path fill="none" stroke="midnightblue" d="M506.256,-109.603C544.52,-98.4943 601.264,-82.02 631.765,-73.1649"/>
<polygon fill="midnightblue" stroke="midnightblue" points="505.1,-106.294 496.472,-112.444 507.052,-113.017 505.1,-106.294"/>
</g>
<!-- Node3 -->
<g id="node3" class="node"><title>Node3</title>
<g id="a_node3"><a xlink:href="../../d7/d93/a00397.html" target="_top" xlink:title="Implementation for the SimBuilder class. ">
<polygon fill="white" stroke="black" points="-0.5,-0.5 -0.5,-19.5 82.5,-19.5 82.5,-0.5 -0.5,-0.5"/>
<text text-anchor="middle" x="41" y="-7.5" font-family="Helvetica,sans-Serif" font-size="10.00">SimBuilder.cpp</text>
</a>
</g>
</g>
<!-- Node2&#45;&gt;Node3 -->
<g id="edge2" class="edge"><title>Node2&#45;&gt;Node3</title>
<path fill="none" stroke="midnightblue" d="M150.845,-52.772C124.172,-42.6287 86.9314,-28.4669 63.3951,-19.5164"/>
<polygon fill="midnightblue" stroke="midnightblue" points="149.909,-56.1604 160.5,-56.4435 152.397,-49.6176 149.909,-56.1604"/>
</g>
<!-- Node4&#45;&gt;Node3 -->
<g id="edge10" class="edge"><title>Node4&#45;&gt;Node3</title>
<path fill="none" stroke="midnightblue" d="M621.964,-63.587C536.827,-59.4796 292.534,-46.1424 91,-20 88.2885,-19.6483 85.5005,-19.2498 82.6943,-18.8209"/>
<polygon fill="midnightblue" stroke="midnightblue" points="621.844,-67.0851 631.999,-64.0636 622.176,-60.093 621.844,-67.0851"/>
</g>
<!-- Node5 -->
<g id="node5" class="node"><title>Node5</title>
<g id="a_node5"><a xlink:href="../../d3/db1/a00200.html" target="_top" xlink:title="Calibrator.cpp">
<polygon fill="white" stroke="black" points="100.5,-0.5 100.5,-19.5 177.5,-19.5 177.5,-0.5 100.5,-0.5"/>
<text text-anchor="middle" x="139" y="-7.5" font-family="Helvetica,sans-Serif" font-size="10.00">Calibrator.cpp</text>
</a>
</g>
</g>
<!-- Node4&#45;&gt;Node5 -->
<g id="edge4" class="edge"><title>Node4&#45;&gt;Node5</title>
<path fill="none" stroke="midnightblue" d="M621.313,-62.9185C545.842,-57.7479 349.609,-43.0492 187,-20 183.978,-19.5716 180.857,-19.0858 177.724,-18.567"/>
<polygon fill="midnightblue" stroke="midnightblue" points="621.34,-66.4282 631.553,-63.6121 621.813,-59.4442 621.34,-66.4282"/>
</g>
<!-- Node6 -->
<g id="node6" class="node"><title>Node6</title>
<g id="a_node6"><a xlink:href="../../d9/d39/a00257.html" target="_top" xlink:title="Implementation for the DiseaseSeeder class. ">
<polygon fill="white" stroke="black" points="196,-0.5 196,-19.5 298,-19.5 298,-0.5 196,-0.5"/>
<text text-anchor="middle" x="247" y="-7.5" font-family="Helvetica,sans-Serif" font-size="10.00">DiseaseSeeder.cpp</text>
</a>
</g>
</g>
<!-- Node4&#45;&gt;Node6 -->
<g id="edge5" class="edge"><title>Node4&#45;&gt;Node6</title>
<path fill="none" stroke="midnightblue" d="M621.853,-61.1563C561.199,-53.6256 423.014,-36.2438 307,-20 304.079,-19.591 301.08,-19.1639 298.053,-18.7274"/>
<polygon fill="midnightblue" stroke="midnightblue" points="621.563,-64.6471 631.918,-62.4039 622.424,-57.7003 621.563,-64.6471"/>
</g>
<!-- Node7 -->
<g id="node7" class="node"><title>Node7</title>
<g id="a_node7"><a xlink:href="../../d9/d5e/a00295.html" target="_top" xlink:title="GuiControllerBackend.cpp">
<polygon fill="white" stroke="black" points="316.5,-0.5 316.5,-19.5 447.5,-19.5 447.5,-0.5 316.5,-0.5"/>
<text text-anchor="middle" x="382" y="-7.5" font-family="Helvetica,sans-Serif" font-size="10.00">GuiControllerBackend.cpp</text>
</a>
</g>
</g>
<!-- Node4&#45;&gt;Node7 -->
<g id="edge6" class="edge"><title>Node4&#45;&gt;Node7</title>
<path fill="none" stroke="midnightblue" d="M621.832,-58.7894C573.388,-49.1363 479.905,-30.5087 425.053,-19.5788"/>
<polygon fill="midnightblue" stroke="midnightblue" points="621.244,-62.2409 631.735,-60.7627 622.612,-55.3759 621.244,-62.2409"/>
</g>
<!-- Node8 -->
<g id="node8" class="node"><title>Node8</title>
<g id="a_node8"><a xlink:href="../../d7/d00/a00401.html" target="_top" xlink:title="SimWorker.cpp">
<polygon fill="white" stroke="black" points="466,-0.5 466,-19.5 550,-19.5 550,-0.5 466,-0.5"/>
<text text-anchor="middle" x="508" y="-7.5" font-family="Helvetica,sans-Serif" font-size="10.00">SimWorker.cpp</text>
</a>
</g>
</g>
<!-- Node4&#45;&gt;Node8 -->
<g id="edge7" class="edge"><title>Node4&#45;&gt;Node8</title>
<path fill="none" stroke="midnightblue" d="M622.455,-53.6245C595.154,-43.4574 555.752,-28.7835 531.027,-19.5756"/>
<polygon fill="midnightblue" stroke="midnightblue" points="621.323,-56.9378 631.916,-57.1479 623.766,-50.378 621.323,-56.9378"/>
</g>
<!-- Node9 -->
<g id="node9" class="node"><title>Node9</title>
<g id="a_node9"><a xlink:href="../../d3/dc9/a00355.html" target="_top" xlink:title="MapViewer.cpp">
<polygon fill="white" stroke="black" points="568,-0.5 568,-19.5 652,-19.5 652,-0.5 568,-0.5"/>
<text text-anchor="middle" x="610" y="-7.5" font-family="Helvetica,sans-Serif" font-size="10.00">MapViewer.cpp</text>
</a>
</g>
</g>
<!-- Node4&#45;&gt;Node9 -->
<g id="edge8" class="edge"><title>Node4&#45;&gt;Node9</title>
<path fill="none" stroke="midnightblue" d="M639.578,-48.144C632.086,-38.7357 623.063,-27.4046 616.968,-19.7511"/>
<polygon fill="midnightblue" stroke="midnightblue" points="636.932,-50.4404 645.899,-56.083 642.408,-46.0799 636.932,-50.4404"/>
</g>
<!-- Node10 -->
<g id="node10" class="node"><title>Node10</title>
<g id="a_node10"><a xlink:href="../../db/dbc/a00395.html" target="_top" xlink:title="Implementation for the Simulator class. ">
<polygon fill="white" stroke="black" points="669.5,-0.5 669.5,-19.5 722.5,-19.5 722.5,-0.5 669.5,-0.5"/>
<text text-anchor="middle" x="696" y="-7.5" font-family="Helvetica,sans-Serif" font-size="10.00">Sim.cpp</text>
</a>
</g>
</g>
<!-- Node4&#45;&gt;Node10 -->
<g id="edge9" class="edge"><title>Node4&#45;&gt;Node10</title>
<path fill="none" stroke="midnightblue" d="M666.422,-48.144C673.914,-38.7357 682.937,-27.4046 689.032,-19.7511"/>
<polygon fill="midnightblue" stroke="midnightblue" points="663.592,-46.0799 660.101,-56.083 669.068,-50.4404 663.592,-46.0799"/>
</g>
<!-- Node11 -->
<g id="node11" class="node"><title>Node11</title>
<g id="a_node11"><a xlink:href="../../d1/d53/a00399.html" target="_top" xlink:title="Implementation for SimRunner. ">
<polygon fill="white" stroke="black" points="740,-0.5 740,-19.5 824,-19.5 824,-0.5 740,-0.5"/>
<text text-anchor="middle" x="782" y="-7.5" font-family="Helvetica,sans-Serif" font-size="10.00">SimRunner.cpp</text>
</a>
</g>
</g>
<!-- Node4&#45;&gt;Node11 -->
<g id="edge11" class="edge"><title>Node4&#45;&gt;Node11</title>
<path fill="none" stroke="midnightblue" d="M682.854,-52.503C707.038,-42.3795 740.462,-28.388 761.655,-19.5164"/>
<polygon fill="midnightblue" stroke="midnightblue" points="681.313,-49.3536 673.44,-56.4435 684.016,-55.8106 681.313,-49.3536"/>
</g>
<!-- Node12 -->
<g id="node12" class="node"><title>Node12</title>
<g id="a_node12"><a xlink:href="../../dd/d4c/a00177.html" target="_top" xlink:title="Definition of Observer for SimEvents for commandline interface usage. ">
<polygon fill="white" stroke="black" points="842.5,-0.5 842.5,-19.5 943.5,-19.5 943.5,-0.5 842.5,-0.5"/>
<text text-anchor="middle" x="893" y="-7.5" font-family="Helvetica,sans-Serif" font-size="10.00">AdoptedViewer.cpp</text>
</a>
</g>
</g>
<!-- Node4&#45;&gt;Node12 -->
<g id="edge12" class="edge"><title>Node4&#45;&gt;Node12</title>
<path fill="none" stroke="midnightblue" d="M684.105,-58.0014C727.912,-48.1448 807.702,-30.1921 854.975,-19.5555"/>
<polygon fill="midnightblue" stroke="midnightblue" points="683.286,-54.598 674.298,-60.2079 684.823,-61.4273 683.286,-54.598"/>
</g>
<!-- Node13 -->
<g id="node13" class="node"><title>Node13</title>
<g id="a_node13"><a xlink:href="../../dc/d31/a00208.html" target="_top" xlink:title="Definition of Observer for SimEvents for commandline interface usage. ">
<polygon fill="white" stroke="black" points="961.5,-0.5 961.5,-19.5 1038.5,-19.5 1038.5,-0.5 961.5,-0.5"/>
<text text-anchor="middle" x="1000" y="-7.5" font-family="Helvetica,sans-Serif" font-size="10.00">CliViewer.cpp</text>
</a>
</g>
</g>
<!-- Node4&#45;&gt;Node13 -->
<g id="edge13" class="edge"><title>Node4&#45;&gt;Node13</title>
<path fill="none" stroke="midnightblue" d="M684.104,-60.6947C738.513,-53.0797 854.463,-36.4783 952,-20 955.01,-19.4915 958.122,-18.9481 961.249,-18.3896"/>
<polygon fill="midnightblue" stroke="midnightblue" points="683.487,-57.2468 674.067,-62.0951 684.454,-64.1796 683.487,-57.2468"/>
</g>
<!-- Node14 -->
<g id="node14" class="node"><title>Node14</title>
<g id="a_node14"><a xlink:href="../../de/d55/a00323.html" target="_top" xlink:title="Definition of Observer for SimEvents for commandline interface usage. ">
<polygon fill="white" stroke="black" points="1056.5,-0.5 1056.5,-19.5 1157.5,-19.5 1157.5,-0.5 1056.5,-0.5"/>
<text text-anchor="middle" x="1107" y="-7.5" font-family="Helvetica,sans-Serif" font-size="10.00">InfectedViewer.cpp</text>
</a>
</g>
</g>
<!-- Node4&#45;&gt;Node14 -->
<g id="edge14" class="edge"><title>Node4&#45;&gt;Node14</title>
<path fill="none" stroke="midnightblue" d="M684.679,-61.764C751.652,-54.8386 912.517,-37.7605 1047,-20 1050.03,-19.6001 1053.14,-19.1752 1056.28,-18.7363"/>
<polygon fill="midnightblue" stroke="midnightblue" points="683.975,-58.3179 674.387,-62.8246 684.693,-65.281 683.975,-58.3179"/>
</g>
<!-- Node15 -->
<g id="node15" class="node"><title>Node15</title>
<g id="a_node15"><a xlink:href="../../db/d7e/a00372.html" target="_top" xlink:title="Definition of Observer for SimEvents for commandline interface usage. ">
<polygon fill="white" stroke="black" points="1175.5,-0.5 1175.5,-19.5 1276.5,-19.5 1276.5,-0.5 1175.5,-0.5"/>
<text text-anchor="middle" x="1226" y="-7.5" font-family="Helvetica,sans-Serif" font-size="10.00">PersonsViewer.cpp</text>
</a>
</g>
</g>
<!-- Node4&#45;&gt;Node15 -->
<g id="edge15" class="edge"><title>Node4&#45;&gt;Node15</title>
<path fill="none" stroke="midnightblue" d="M684.458,-62.916C764.813,-57.4463 984.12,-41.5975 1166,-20 1169.03,-19.6398 1172.15,-19.2457 1175.29,-18.8301"/>
<polygon fill="midnightblue" stroke="midnightblue" points="683.801,-59.4523 674.06,-63.6185 684.273,-66.4364 683.801,-59.4523"/>
</g>
<!-- Node16 -->
<g id="node16" class="node"><title>Node16</title>
<g id="a_node16"><a xlink:href="../../df/d15/a00416.html" target="_top" xlink:title="Definition of Observer for SimEvents for commandline interface usage. ">
<polygon fill="white" stroke="black" points="1294.5,-0.5 1294.5,-19.5 1401.5,-19.5 1401.5,-0.5 1294.5,-0.5"/>
<text text-anchor="middle" x="1348" y="-7.5" font-family="Helvetica,sans-Serif" font-size="10.00">SummaryViewer.cpp</text>
</a>
</g>
</g>
<!-- Node4&#45;&gt;Node16 -->
<g id="edge16" class="edge"><title>Node4&#45;&gt;Node16</title>
<path fill="none" stroke="midnightblue" d="M684.084,-63.568C776.065,-59.1627 1054.85,-44.6016 1285,-20 1288.08,-19.6712 1291.23,-19.3066 1294.42,-18.9181"/>
<polygon fill="midnightblue" stroke="midnightblue" points="683.875,-60.0739 674.052,-64.0435 684.206,-67.066 683.875,-60.0739"/>
</g>
</g>
</svg>
