<?xml version="1.0" encoding="UTF-8" standalone="no"?>
<!DOCTYPE svg PUBLIC "-//W3C//DTD SVG 1.1//EN"
 "http://www.w3.org/Graphics/SVG/1.1/DTD/svg11.dtd">
<!-- Generated by graphviz version 2.36.0 (20140111.2315)
 -->
<!-- Title: stride::util::TimeToString::ToColonString Pages: 1 -->
<svg width="280pt" height="38pt"
 viewBox="0.00 0.00 280.00 38.00" xmlns="http://www.w3.org/2000/svg" xmlns:xlink="http://www.w3.org/1999/xlink">
<g id="graph0" class="graph" transform="scale(1 1) rotate(0) translate(4 34)">
<title>stride::util::TimeToString::ToColonString</title>
<polygon fill="white" stroke="none" points="-4,4 -4,-34 276,-34 276,4 -4,4"/>
<!-- Node1 -->
<g id="node1" class="node"><title>Node1</title>
<polygon fill="#bfbfbf" stroke="black" points="0,-0 0,-30 124,-30 124,-0 0,-0"/>
<text text-anchor="start" x="8" y="-18" font-family="Helvetica,sans-Serif" font-size="10.00">stride::util::TimeToString</text>
<text text-anchor="middle" x="62" y="-7" font-family="Helvetica,sans-Serif" font-size="10.00">::ToColonString</text>
</g>
<!-- Node2 -->
<g id="node2" class="node"><title>Node2</title>
<g id="a_node2"><a xlink:href="../../d0/d48/a00165.html#a1a068a66f6b5db8cf68dabe5a8935f22" target="_top" xlink:title="Returns string representation of readout. ">
<polygon fill="white" stroke="black" points="160,-0 160,-30 272,-30 272,-0 160,-0"/>
<text text-anchor="start" x="168" y="-18" font-family="Helvetica,sans-Serif" font-size="10.00">stride::util::Stopwatch</text>
<text text-anchor="middle" x="216" y="-7" font-family="Helvetica,sans-Serif" font-size="10.00">::ToString</text>
</a>
</g>
</g>
<!-- Node1&#45;&gt;Node2 -->
<g id="edge1" class="edge"><title>Node1&#45;&gt;Node2</title>
<path fill="none" stroke="midnightblue" d="M134.624,-15C143.07,-15 151.589,-15 159.76,-15"/>
<polygon fill="midnightblue" stroke="midnightblue" points="134.386,-11.5001 124.386,-15 134.386,-18.5001 134.386,-11.5001"/>
</g>
</g>
</svg>
