<?xml version="1.0" encoding="UTF-8" standalone="no"?>
<!DOCTYPE svg PUBLIC "-//W3C//DTD SVG 1.1//EN"
 "http://www.w3.org/Graphics/SVG/1.1/DTD/svg11.dtd">
<!-- Generated by graphviz version 2.36.0 (20140111.2315)
 -->
<!-- Title: Subject.h Pages: 1 -->
<svg width="316pt" height="140pt"
 viewBox="0.00 0.00 316.00 140.00" xmlns="http://www.w3.org/2000/svg" xmlns:xlink="http://www.w3.org/1999/xlink">
<g id="graph0" class="graph" transform="scale(1 1) rotate(0) translate(4 136)">
<title>Subject.h</title>
<polygon fill="white" stroke="none" points="-4,4 -4,-136 312,-136 312,4 -4,4"/>
<!-- Node1 -->
<g id="node1" class="node"><title>Node1</title>
<polygon fill="#bfbfbf" stroke="black" points="109,-112.5 109,-131.5 167,-131.5 167,-112.5 109,-112.5"/>
<text text-anchor="middle" x="138" y="-119.5" font-family="Helvetica,sans-Serif" font-size="10.00">Subject.h</text>
</g>
<!-- Node2 -->
<g id="node2" class="node"><title>Node2</title>
<g id="a_node2"><a xlink:href="../../da/de0/a00317.html" target="_top" xlink:title="Definition of EventId. ">
<polygon fill="white" stroke="black" points="70.5,-56.5 70.5,-75.5 103.5,-75.5 103.5,-56.5 70.5,-56.5"/>
<text text-anchor="middle" x="87" y="-63.5" font-family="Helvetica,sans-Serif" font-size="10.00">Id.h</text>
</a>
</g>
</g>
<!-- Node1&#45;&gt;Node2 -->
<g id="edge1" class="edge"><title>Node1&#45;&gt;Node2</title>
<path fill="none" stroke="midnightblue" d="M129.578,-112.083C122.152,-104.22 111.148,-92.5688 102.188,-83.0813"/>
<polygon fill="midnightblue" stroke="midnightblue" points="104.676,-80.618 95.2649,-75.7511 99.5866,-85.4244 104.676,-80.618"/>
</g>
<!-- Node5 -->
<g id="node5" class="node"><title>Node5</title>
<g id="a_node5"><a xlink:href="../../d9/d72/a00412.html" target="_top" xlink:title="Interface/Implementation of Subject. ">
<polygon fill="white" stroke="black" points="152,-56.5 152,-75.5 226,-75.5 226,-56.5 152,-56.5"/>
<text text-anchor="middle" x="189" y="-63.5" font-family="Helvetica,sans-Serif" font-size="10.00">util/Subject.h</text>
</a>
</g>
</g>
<!-- Node1&#45;&gt;Node5 -->
<g id="edge4" class="edge"><title>Node1&#45;&gt;Node5</title>
<path fill="none" stroke="midnightblue" d="M146.422,-112.083C153.848,-104.22 164.852,-92.5688 173.812,-83.0813"/>
<polygon fill="midnightblue" stroke="midnightblue" points="176.413,-85.4244 180.735,-75.7511 171.324,-80.618 176.413,-85.4244"/>
</g>
<!-- Node3 -->
<g id="node3" class="node"><title>Node3</title>
<polygon fill="white" stroke="#bfbfbf" points="-0.5,-0.5 -0.5,-19.5 48.5,-19.5 48.5,-0.5 -0.5,-0.5"/>
<text text-anchor="middle" x="24" y="-7.5" font-family="Helvetica,sans-Serif" font-size="10.00">cstddef</text>
</g>
<!-- Node2&#45;&gt;Node3 -->
<g id="edge2" class="edge"><title>Node2&#45;&gt;Node3</title>
<path fill="none" stroke="midnightblue" d="M76.878,-56.324C67.4736,-48.2631 53.2559,-36.0765 41.931,-26.3695"/>
<polygon fill="midnightblue" stroke="midnightblue" points="44.1766,-23.6844 34.3062,-19.8339 39.621,-28.9993 44.1766,-23.6844"/>
</g>
<!-- Node4 -->
<g id="node4" class="node"><title>Node4</title>
<polygon fill="white" stroke="#bfbfbf" points="66.5,-0.5 66.5,-19.5 107.5,-19.5 107.5,-0.5 66.5,-0.5"/>
<text text-anchor="middle" x="87" y="-7.5" font-family="Helvetica,sans-Serif" font-size="10.00">string</text>
</g>
<!-- Node2&#45;&gt;Node4 -->
<g id="edge3" class="edge"><title>Node2&#45;&gt;Node4</title>
<path fill="none" stroke="midnightblue" d="M87,-56.083C87,-49.0059 87,-38.8611 87,-29.9865"/>
<polygon fill="midnightblue" stroke="midnightblue" points="90.5001,-29.751 87,-19.7511 83.5001,-29.7511 90.5001,-29.751"/>
</g>
<!-- Node6 -->
<g id="node6" class="node"><title>Node6</title>
<polygon fill="white" stroke="#bfbfbf" points="125.5,-0.5 125.5,-19.5 184.5,-19.5 184.5,-0.5 125.5,-0.5"/>
<text text-anchor="middle" x="155" y="-7.5" font-family="Helvetica,sans-Serif" font-size="10.00">functional</text>
</g>
<!-- Node5&#45;&gt;Node6 -->
<g id="edge5" class="edge"><title>Node5&#45;&gt;Node6</title>
<path fill="none" stroke="midnightblue" d="M183.386,-56.083C178.633,-48.5341 171.682,-37.4948 165.848,-28.2298"/>
<polygon fill="midnightblue" stroke="midnightblue" points="168.8,-26.3486 160.51,-19.7511 162.876,-30.0783 168.8,-26.3486"/>
</g>
<!-- Node7 -->
<g id="node7" class="node"><title>Node7</title>
<polygon fill="white" stroke="#bfbfbf" points="202.5,-0.5 202.5,-19.5 237.5,-19.5 237.5,-0.5 202.5,-0.5"/>
<text text-anchor="middle" x="220" y="-7.5" font-family="Helvetica,sans-Serif" font-size="10.00">map</text>
</g>
<!-- Node5&#45;&gt;Node7 -->
<g id="edge6" class="edge"><title>Node5&#45;&gt;Node7</title>
<path fill="none" stroke="midnightblue" d="M194.119,-56.083C198.408,-48.6127 204.658,-37.7244 209.942,-28.5199"/>
<polygon fill="midnightblue" stroke="midnightblue" points="213.033,-30.1662 214.976,-19.7511 206.962,-26.6811 213.033,-30.1662"/>
</g>
<!-- Node8 -->
<g id="node8" class="node"><title>Node8</title>
<polygon fill="white" stroke="#bfbfbf" points="256,-0.5 256,-19.5 308,-19.5 308,-0.5 256,-0.5"/>
<text text-anchor="middle" x="282" y="-7.5" font-family="Helvetica,sans-Serif" font-size="10.00">memory</text>
</g>
<!-- Node5&#45;&gt;Node8 -->
<g id="edge7" class="edge"><title>Node5&#45;&gt;Node8</title>
<path fill="none" stroke="midnightblue" d="M203.942,-56.324C218.585,-47.8215 241.134,-34.7288 258.238,-24.7975"/>
<polygon fill="midnightblue" stroke="midnightblue" points="260.205,-27.7027 267.095,-19.6545 256.69,-21.6491 260.205,-27.7027"/>
</g>
</g>
</svg>
