<?xml version="1.0" encoding="UTF-8" standalone="no"?>
<!DOCTYPE svg PUBLIC "-//W3C//DTD SVG 1.1//EN"
 "http://www.w3.org/Graphics/SVG/1.1/DTD/svg11.dtd">
<!-- Generated by graphviz version 2.36.0 (20140111.2315)
 -->
<!-- Title: stride::BeliefSeeder Pages: 1 -->
<svg width="118pt" height="184pt"
 viewBox="0.00 0.00 118.00 184.00" xmlns="http://www.w3.org/2000/svg" xmlns:xlink="http://www.w3.org/1999/xlink">
<g id="graph0" class="graph" transform="scale(1 1) rotate(0) translate(4 180)">
<title>stride::BeliefSeeder</title>
<polygon fill="white" stroke="none" points="-4,4 -4,-180 114,-180 114,4 -4,4"/>
<!-- Node1 -->
<g id="node1" class="node"><title>Node1</title>
<polygon fill="#bfbfbf" stroke="black" points="-1,-1 -1,-69 101,-69 101,-1 -1,-1"/>
<text text-anchor="middle" x="50" y="-57" font-family="Helvetica,sans-Serif" font-size="10.00">stride::BeliefSeeder</text>
<polyline fill="none" stroke="black" points="-1,-50 101,-50 "/>
<text text-anchor="middle" x="50" y="-38" font-family="Helvetica,sans-Serif" font-size="10.00"> </text>
<polyline fill="none" stroke="black" points="-1,-31 101,-31 "/>
<text text-anchor="start" x="7" y="-19" font-family="Helvetica,sans-Serif" font-size="10.00">+ BeliefSeeder()</text>
<text text-anchor="start" x="7" y="-8" font-family="Helvetica,sans-Serif" font-size="10.00">+ Seed()</text>
</g>
<!-- Node2 -->
<g id="node2" class="node"><title>Node2</title>
<polygon fill="white" stroke="#bfbfbf" points="31,-118.5 31,-175.5 69,-175.5 69,-118.5 31,-118.5"/>
<text text-anchor="middle" x="50" y="-163.5" font-family="Helvetica,sans-Serif" font-size="10.00">ptree</text>
<polyline fill="none" stroke="#bfbfbf" points="31,-156.5 69,-156.5 "/>
<text text-anchor="middle" x="50" y="-144.5" font-family="Helvetica,sans-Serif" font-size="10.00"> </text>
<polyline fill="none" stroke="#bfbfbf" points="31,-137.5 69,-137.5 "/>
<text text-anchor="middle" x="50" y="-125.5" font-family="Helvetica,sans-Serif" font-size="10.00"> </text>
</g>
<!-- Node2&#45;&gt;Node1 -->
<g id="edge1" class="edge"><title>Node2&#45;&gt;Node1</title>
<path fill="none" stroke="#404040" d="M50,-118.242C50,-107.073 50,-93.8972 50,-81.4036"/>
<polygon fill="none" stroke="#404040" points="50.0001,-81.2368 46,-75.2368 50,-69.2368 54,-75.2367 50.0001,-81.2368"/>
<text text-anchor="middle" x="80" y="-91.5" font-family="Helvetica,sans-Serif" font-size="10.00"> &#45;m_config_pt</text>
</g>
</g>
</svg>
