<?xml version="1.0" encoding="UTF-8" standalone="no"?>
<!DOCTYPE svg PUBLIC "-//W3C//DTD SVG 1.1//EN"
 "http://www.w3.org/Graphics/SVG/1.1/DTD/svg11.dtd">
<!-- Generated by graphviz version 2.36.0 (20140111.2315)
 -->
<!-- Title: stride::DaysOffSchool Pages: 1 -->
<svg width="243pt" height="216pt"
 viewBox="0.00 0.00 243.00 216.00" xmlns="http://www.w3.org/2000/svg" xmlns:xlink="http://www.w3.org/1999/xlink">
<g id="graph0" class="graph" transform="scale(1 1) rotate(0) translate(4 212)">
<title>stride::DaysOffSchool</title>
<polygon fill="white" stroke="none" points="-4,4 -4,-212 239,-212 239,4 -4,4"/>
<!-- Node1 -->
<g id="node1" class="node"><title>Node1</title>
<polygon fill="#bfbfbf" stroke="black" points="67.5,-0.5 67.5,-79.5 180.5,-79.5 180.5,-0.5 67.5,-0.5"/>
<text text-anchor="middle" x="124" y="-67.5" font-family="Helvetica,sans-Serif" font-size="10.00">stride::DaysOffSchool</text>
<polyline fill="none" stroke="black" points="67.5,-60.5 180.5,-60.5 "/>
<text text-anchor="middle" x="124" y="-48.5" font-family="Helvetica,sans-Serif" font-size="10.00"> </text>
<polyline fill="none" stroke="black" points="67.5,-41.5 180.5,-41.5 "/>
<text text-anchor="start" x="75.5" y="-29.5" font-family="Helvetica,sans-Serif" font-size="10.00">+ DaysOffSchool()</text>
<text text-anchor="start" x="75.5" y="-18.5" font-family="Helvetica,sans-Serif" font-size="10.00">+ IsWorkOff()</text>
<text text-anchor="start" x="75.5" y="-7.5" font-family="Helvetica,sans-Serif" font-size="10.00">+ IsSchoolOff()</text>
</g>
<!-- Node2 -->
<g id="node2" class="node"><title>Node2</title>
<g id="a_node2"><a xlink:href="../../d0/dc2/a00104.html" target="_top" xlink:title="Interface definition. ">
<polygon fill="white" stroke="black" points="0,-128.5 0,-207.5 122,-207.5 122,-128.5 0,-128.5"/>
<text text-anchor="middle" x="61" y="-195.5" font-family="Helvetica,sans-Serif" font-size="10.00">stride::DaysOffInterface</text>
<polyline fill="none" stroke="black" points="0,-188.5 122,-188.5 "/>
<text text-anchor="middle" x="61" y="-176.5" font-family="Helvetica,sans-Serif" font-size="10.00"> </text>
<polyline fill="none" stroke="black" points="0,-169.5 122,-169.5 "/>
<text text-anchor="start" x="8" y="-157.5" font-family="Helvetica,sans-Serif" font-size="10.00">+ IsWorkOff()</text>
<text text-anchor="start" x="8" y="-146.5" font-family="Helvetica,sans-Serif" font-size="10.00">+ IsSchoolOff()</text>
<text text-anchor="start" x="8" y="-135.5" font-family="Helvetica,sans-Serif" font-size="10.00">+ ~DaysOffInterface()</text>
</a>
</g>
</g>
<!-- Node2&#45;&gt;Node1 -->
<g id="edge1" class="edge"><title>Node2&#45;&gt;Node1</title>
<path fill="none" stroke="midnightblue" d="M85.0192,-118.962C91.4715,-106.057 98.3684,-92.2632 104.54,-79.9209"/>
<polygon fill="none" stroke="midnightblue" points="81.7578,-117.658 80.4161,-128.168 88.0188,-120.789 81.7578,-117.658"/>
</g>
<!-- Node3 -->
<g id="node3" class="node"><title>Node3</title>
<polygon fill="white" stroke="#bfbfbf" points="140.5,-134 140.5,-202 235.5,-202 235.5,-134 140.5,-134"/>
<text text-anchor="start" x="148.5" y="-190" font-family="Helvetica,sans-Serif" font-size="10.00">shared_ptr&lt; stride</text>
<text text-anchor="middle" x="188" y="-179" font-family="Helvetica,sans-Serif" font-size="10.00">::Calendar &gt;</text>
<polyline fill="none" stroke="#bfbfbf" points="140.5,-172 235.5,-172 "/>
<text text-anchor="middle" x="188" y="-160" font-family="Helvetica,sans-Serif" font-size="10.00"> </text>
<polyline fill="none" stroke="#bfbfbf" points="140.5,-153 235.5,-153 "/>
<text text-anchor="middle" x="188" y="-141" font-family="Helvetica,sans-Serif" font-size="10.00"> </text>
</g>
<!-- Node3&#45;&gt;Node1 -->
<g id="edge2" class="edge"><title>Node3&#45;&gt;Node1</title>
<path fill="none" stroke="#404040" d="M171.185,-133.895C164.456,-120.648 156.561,-105.104 149.175,-90.5628"/>
<polygon fill="none" stroke="#404040" points="149.088,-90.3916 142.804,-86.8536 143.653,-79.6926 149.937,-83.2306 149.088,-90.3916"/>
<text text-anchor="middle" x="186.5" y="-101.5" font-family="Helvetica,sans-Serif" font-size="10.00"> &#45;m_calendar</text>
</g>
</g>
</svg>
