<?xml version="1.0" encoding="UTF-8" standalone="no"?>
<!DOCTYPE svg PUBLIC "-//W3C//DTD SVG 1.1//EN"
 "http://www.w3.org/Graphics/SVG/1.1/DTD/svg11.dtd">
<!-- Generated by graphviz version 2.36.0 (20140111.2315)
 -->
<!-- Title: stride::ImportPopBuilder::Build Pages: 1 -->
<svg width="304pt" height="38pt"
 viewBox="0.00 0.00 304.00 38.00" xmlns="http://www.w3.org/2000/svg" xmlns:xlink="http://www.w3.org/1999/xlink">
<g id="graph0" class="graph" transform="scale(1 1) rotate(0) translate(4 34)">
<title>stride::ImportPopBuilder::Build</title>
<polygon fill="white" stroke="none" points="-4,4 -4,-34 300,-34 300,4 -4,4"/>
<!-- Node1 -->
<g id="node1" class="node"><title>Node1</title>
<polygon fill="#bfbfbf" stroke="black" points="0,-0 0,-30 122,-30 122,-0 0,-0"/>
<text text-anchor="start" x="8" y="-18" font-family="Helvetica,sans-Serif" font-size="10.00">stride::ImportPopBuilder</text>
<text text-anchor="middle" x="61" y="-7" font-family="Helvetica,sans-Serif" font-size="10.00">::Build</text>
</g>
<!-- Node2 -->
<g id="node2" class="node"><title>Node2</title>
<g id="a_node2"><a xlink:href="../../d5/db6/a00042.html#acd3fdf6ac3e67ee88dd3b2a67c1821f0" target="_top" xlink:title="Create a GeoGridReader based on the provided extension in the filename. ">
<polygon fill="white" stroke="black" points="158.5,-0 158.5,-30 295.5,-30 295.5,-0 158.5,-0"/>
<text text-anchor="start" x="166.5" y="-18" font-family="Helvetica,sans-Serif" font-size="10.00">gengeopop::GeoGridReader</text>
<text text-anchor="middle" x="227" y="-7" font-family="Helvetica,sans-Serif" font-size="10.00">Factory::CreateReader</text>
</a>
</g>
</g>
<!-- Node1&#45;&gt;Node2 -->
<g id="edge1" class="edge"><title>Node1&#45;&gt;Node2</title>
<path fill="none" stroke="midnightblue" d="M122.136,-15C130.612,-15 139.425,-15 148.173,-15"/>
<polygon fill="midnightblue" stroke="midnightblue" points="148.391,-18.5001 158.391,-15 148.391,-11.5001 148.391,-18.5001"/>
</g>
</g>
</svg>
