<?xml version="1.0" encoding="UTF-8" standalone="no"?>
<!DOCTYPE svg PUBLIC "-//W3C//DTD SVG 1.1//EN"
 "http://www.w3.org/Graphics/SVG/1.1/DTD/svg11.dtd">
<!-- Generated by graphviz version 2.36.0 (20140111.2315)
 -->
<!-- Title: stride::Infector::Exec Pages: 1 -->
<svg width="438pt" height="214pt"
 viewBox="0.00 0.00 438.00 214.00" xmlns="http://www.w3.org/2000/svg" xmlns:xlink="http://www.w3.org/1999/xlink">
<g id="graph0" class="graph" transform="scale(1 1) rotate(0) translate(4 210)">
<title>stride::Infector::Exec</title>
<polygon fill="white" stroke="none" points="-4,4 -4,-210 434,-210 434,4 -4,4"/>
<!-- Node1 -->
<g id="node1" class="node"><title>Node1</title>
<polygon fill="#bfbfbf" stroke="black" points="0,-93.5 0,-112.5 108,-112.5 108,-93.5 0,-93.5"/>
<text text-anchor="middle" x="54" y="-100.5" font-family="Helvetica,sans-Serif" font-size="10.00">stride::Infector::Exec</text>
</g>
<!-- Node2 -->
<g id="node2" class="node"><title>Node2</title>
<g id="a_node2"><a xlink:href="../../d0/d5e/a00136.html#a53081dbb062c019153b8be62083d59a2" target="_top" xlink:title="Return person&#39;s health status. ">
<polygon fill="white" stroke="black" points="147,-186.5 147,-205.5 275,-205.5 275,-186.5 147,-186.5"/>
<text text-anchor="middle" x="211" y="-193.5" font-family="Helvetica,sans-Serif" font-size="10.00">stride::Person::GetHealth</text>
</a>
</g>
</g>
<!-- Node1&#45;&gt;Node2 -->
<g id="edge1" class="edge"><title>Node1&#45;&gt;Node2</title>
<path fill="none" stroke="midnightblue" d="M64.4634,-112.964C79.7784,-128.543 111.566,-158.675 144,-176 148.95,-178.644 154.301,-180.991 159.738,-183.06"/>
<polygon fill="midnightblue" stroke="midnightblue" points="158.959,-186.495 169.554,-186.489 161.267,-179.886 158.959,-186.495"/>
</g>
<!-- Node3 -->
<g id="node3" class="node"><title>Node3</title>
<g id="a_node3"><a xlink:href="../../da/ddb/a00145.html#a51ffe104253ffd5bcf12ab299fa6f2e2" target="_top" xlink:title="Return transmission rate. ">
<polygon fill="white" stroke="black" points="144.5,-137 144.5,-167 277.5,-167 277.5,-137 144.5,-137"/>
<text text-anchor="start" x="152.5" y="-155" font-family="Helvetica,sans-Serif" font-size="10.00">stride::TransmissionProfile</text>
<text text-anchor="middle" x="211" y="-144" font-family="Helvetica,sans-Serif" font-size="10.00">::GetRate</text>
</a>
</g>
</g>
<!-- Node1&#45;&gt;Node3 -->
<g id="edge2" class="edge"><title>Node1&#45;&gt;Node3</title>
<path fill="none" stroke="midnightblue" d="M85.2535,-112.564C104.449,-118.632 129.897,-126.677 152.8,-133.917"/>
<polygon fill="midnightblue" stroke="midnightblue" points="151.844,-137.286 162.434,-136.963 153.954,-130.611 151.844,-137.286"/>
</g>
<!-- Node4 -->
<g id="node4" class="node"><title>Node4</title>
<g id="a_node4"><a xlink:href="../../d0/d61/a00100.html#a4a6ef10cff06328c9bc5b7f6337339ad" target="_top" xlink:title="Check if two individuals have contact. ">
<polygon fill="white" stroke="black" points="153.5,-88 153.5,-118 268.5,-118 268.5,-88 153.5,-88"/>
<text text-anchor="start" x="161.5" y="-106" font-family="Helvetica,sans-Serif" font-size="10.00">stride::ContactHandler</text>
<text text-anchor="middle" x="211" y="-95" font-family="Helvetica,sans-Serif" font-size="10.00">::HasContact</text>
</a>
</g>
</g>
<!-- Node1&#45;&gt;Node4 -->
<g id="edge3" class="edge"><title>Node1&#45;&gt;Node4</title>
<path fill="none" stroke="midnightblue" d="M108.342,-103C119.585,-103 131.582,-103 143.248,-103"/>
<polygon fill="midnightblue" stroke="midnightblue" points="143.387,-106.5 153.387,-103 143.387,-99.5001 143.387,-106.5"/>
</g>
<!-- Node6 -->
<g id="node6" class="node"><title>Node6</title>
<g id="a_node6"><a xlink:href="../../d0/d61/a00100.html#a94d8f2bdeff1e99b1e6380060e8fb622" target="_top" xlink:title="Check whether transmission occurs. ">
<polygon fill="white" stroke="black" points="153.5,-39 153.5,-69 268.5,-69 268.5,-39 153.5,-39"/>
<text text-anchor="start" x="161.5" y="-57" font-family="Helvetica,sans-Serif" font-size="10.00">stride::ContactHandler</text>
<text text-anchor="middle" x="211" y="-46" font-family="Helvetica,sans-Serif" font-size="10.00">::HasTransmission</text>
</a>
</g>
</g>
<!-- Node1&#45;&gt;Node6 -->
<g id="edge5" class="edge"><title>Node1&#45;&gt;Node6</title>
<path fill="none" stroke="midnightblue" d="M85.2535,-93.436C104.449,-87.3679 129.897,-79.323 152.8,-72.0826"/>
<polygon fill="midnightblue" stroke="midnightblue" points="153.954,-75.3885 162.434,-69.037 151.844,-68.7141 153.954,-75.3885"/>
</g>
<!-- Node7 -->
<g id="node7" class="node"><title>Node7</title>
<g id="a_node7"><a xlink:href="../../d0/d5e/a00136.html#acc03f26895f6fc1054fa78e480900ebb" target="_top" xlink:title="Check if a person is present today in a given contactpool. ">
<polygon fill="white" stroke="black" points="151.5,-0.5 151.5,-19.5 270.5,-19.5 270.5,-0.5 151.5,-0.5"/>
<text text-anchor="middle" x="211" y="-7.5" font-family="Helvetica,sans-Serif" font-size="10.00">stride::Person::IsInPool</text>
</a>
</g>
</g>
<!-- Node1&#45;&gt;Node7 -->
<g id="edge7" class="edge"><title>Node1&#45;&gt;Node7</title>
<path fill="none" stroke="midnightblue" d="M64.4634,-93.0361C79.7784,-77.457 111.566,-47.3245 144,-30 148.95,-27.3558 154.301,-25.0093 159.738,-22.9403"/>
<polygon fill="midnightblue" stroke="midnightblue" points="161.267,-26.1136 169.554,-19.5112 158.959,-19.5053 161.267,-26.1136"/>
</g>
<!-- Node5 -->
<g id="node5" class="node"><title>Node5</title>
<g id="a_node5"><a xlink:href="../../d0/d61/a00100.html#a51fd44b433163a1bd2a9fb424a003344" target="_top" xlink:title="Convert rate into probability. ">
<polygon fill="white" stroke="black" points="314.5,-63 314.5,-93 429.5,-93 429.5,-63 314.5,-63"/>
<text text-anchor="start" x="322.5" y="-81" font-family="Helvetica,sans-Serif" font-size="10.00">stride::ContactHandler</text>
<text text-anchor="middle" x="372" y="-70" font-family="Helvetica,sans-Serif" font-size="10.00">::RateToProbability</text>
</a>
</g>
</g>
<!-- Node4&#45;&gt;Node5 -->
<g id="edge4" class="edge"><title>Node4&#45;&gt;Node5</title>
<path fill="none" stroke="midnightblue" d="M268.505,-94.1155C280.151,-92.2845 292.517,-90.3401 304.48,-88.4592"/>
<polygon fill="midnightblue" stroke="midnightblue" points="305.074,-91.9088 314.409,-86.8979 303.987,-84.9937 305.074,-91.9088"/>
</g>
<!-- Node6&#45;&gt;Node5 -->
<g id="edge6" class="edge"><title>Node6&#45;&gt;Node5</title>
<path fill="none" stroke="midnightblue" d="M268.505,-62.5291C280.151,-64.2869 292.517,-66.1535 304.48,-67.9592"/>
<polygon fill="midnightblue" stroke="midnightblue" points="303.999,-71.4262 314.409,-69.458 305.044,-64.5046 303.999,-71.4262"/>
</g>
</g>
</svg>
