<?xml version="1.0" encoding="UTF-8" standalone="no"?>
<!DOCTYPE svg PUBLIC "-//W3C//DTD SVG 1.1//EN"
 "http://www.w3.org/Graphics/SVG/1.1/DTD/svg11.dtd">
<!-- Generated by graphviz version 2.36.0 (20140111.2315)
 -->
<!-- Title: gengeopop::GeoGridProtoWriter Pages: 1 -->
<!--zoomable 1234 -->
<svg id="main" version="1.1" xmlns="http://www.w3.org/2000/svg" xmlns:xlink="http://www.w3.org/1999/xlink" xml:space="preserve" onload="init(evt)">
<style type="text/css"><![CDATA[
.edge:hover path { stroke: red; }
.edge:hover polygon { stroke: red; fill: red; }
]]></style>
<script type="text/javascript"><![CDATA[
var edges = document.getElementsByTagName('g');
if (edges && edges.length) {
  for (var i=0;i<edges.length;i++) {
    if (edges[i].id.substr(0,4)=='edge') {
      edges[i].setAttribute('class','edge');
    }
  }
}
]]></script>
        <defs>
                <circle id="rim" cx="0" cy="0" r="7"/>
                <circle id="rim2" cx="0" cy="0" r="3.5"/>
                <g id="zoomPlus">
                        <use xlink:href="#rim" fill="#404040">
                                <set attributeName="fill" to="#808080" begin="zoomplus.mouseover" end="zoomplus.mouseout"/>
                        </use>
                        <path d="M-4,0h8M0,-4v8" fill="none" stroke="white" stroke-width="1.5" pointer-events="none"/>
                </g>
                <g id="zoomMin">
                        <use xlink:href="#rim" fill="#404040">
                                <set attributeName="fill" to="#808080" begin="zoomminus.mouseover" end="zoomminus.mouseout"/>
                        </use>
                        <path d="M-4,0h8" fill="none" stroke="white" stroke-width="1.5" pointer-events="none"/>
                </g>
                <g id="dirArrow">
                        <path fill="none" stroke="white" stroke-width="1.5" d="M0,-3.0v7 M-2.5,-0.5L0,-3.0L2.5,-0.5"/>
                </g>
               <g id="resetDef">
                       <use xlink:href="#rim2" fill="#404040">
                               <set attributeName="fill" to="#808080" begin="reset.mouseover" end="reset.mouseout"/>
                       </use>
               </g>
        </defs>

<script type="text/javascript">
var viewWidth = 1018;
var viewHeight = 1234;
var sectionId = 'dynsection-1';
</script>
<script xlink:href="../../svgpan.js"/>
<svg id="graph" class="graph">
<g id="viewport">
<title>gengeopop::GeoGridProtoWriter</title>
<polygon fill="white" stroke="none" points="-4,4 -4,-1230 1014,-1230 1014,4 -4,4"/>
<!-- Node1 -->
<g id="node1" class="node"><title>Node1</title>
<polygon fill="#bfbfbf" stroke="black" points="502.5,-0.5 502.5,-123.5 657.5,-123.5 657.5,-0.5 502.5,-0.5"/>
<text text-anchor="middle" x="580" y="-111.5" font-family="Helvetica,sans-Serif" font-size="10.00">gengeopop::GeoGridProtoWriter</text>
<polyline fill="none" stroke="black" points="502.5,-104.5 657.5,-104.5 "/>
<text text-anchor="middle" x="580" y="-92.5" font-family="Helvetica,sans-Serif" font-size="10.00"> </text>
<polyline fill="none" stroke="black" points="502.5,-85.5 657.5,-85.5 "/>
<text text-anchor="start" x="510.5" y="-73.5" font-family="Helvetica,sans-Serif" font-size="10.00">+ GeoGridProtoWriter()</text>
<text text-anchor="start" x="510.5" y="-62.5" font-family="Helvetica,sans-Serif" font-size="10.00">+ Write()</text>
<text text-anchor="start" x="510.5" y="-51.5" font-family="Helvetica,sans-Serif" font-size="10.00">&#45; WriteLocation()</text>
<text text-anchor="start" x="510.5" y="-40.5" font-family="Helvetica,sans-Serif" font-size="10.00">&#45; WriteCoordinate()</text>
<text text-anchor="start" x="510.5" y="-29.5" font-family="Helvetica,sans-Serif" font-size="10.00">&#45; WriteContactCenter()</text>
<text text-anchor="start" x="510.5" y="-18.5" font-family="Helvetica,sans-Serif" font-size="10.00">&#45; WriteContactPool()</text>
<text text-anchor="start" x="510.5" y="-7.5" font-family="Helvetica,sans-Serif" font-size="10.00">&#45; WritePerson()</text>
</g>
<!-- Node2 -->
<g id="node2" class="node"><title>Node2</title>
<g id="a_node2"><a xlink:href="../../d6/d42/a00043.html" target="_top" xlink:title="An interface for writing the GeoGrid to a file, can be implemented with multiple file types (protobuf...">
<polygon fill="white" stroke="black" points="468,-173 468,-241 600,-241 600,-173 468,-173"/>
<text text-anchor="middle" x="534" y="-229" font-family="Helvetica,sans-Serif" font-size="10.00">gengeopop::GeoGridWriter</text>
<polyline fill="none" stroke="black" points="468,-222 600,-222 "/>
<text text-anchor="middle" x="534" y="-210" font-family="Helvetica,sans-Serif" font-size="10.00"> </text>
<polyline fill="none" stroke="black" points="468,-203 600,-203 "/>
<text text-anchor="start" x="476" y="-191" font-family="Helvetica,sans-Serif" font-size="10.00">+ ~GeoGridWriter()</text>
<text text-anchor="start" x="476" y="-180" font-family="Helvetica,sans-Serif" font-size="10.00">+ Write()</text>
</a>
</g>
</g>
<!-- Node2&#45;&gt;Node1 -->
<g id="edge1" class="edge"><title>Node2&#45;&gt;Node1</title>
<path fill="none" stroke="midnightblue" d="M547.76,-163.224C551.748,-150.827 556.18,-137.048 560.45,-123.774"/>
<polygon fill="none" stroke="midnightblue" points="544.399,-162.242 544.669,-172.833 551.063,-164.386 544.399,-162.242"/>
</g>
<!-- Node3 -->
<g id="node3" class="node"><title>Node3</title>
<polygon fill="white" stroke="#bfbfbf" points="618.5,-178.5 618.5,-235.5 753.5,-235.5 753.5,-178.5 618.5,-178.5"/>
<text text-anchor="middle" x="686" y="-223.5" font-family="Helvetica,sans-Serif" font-size="10.00">std::set&lt; stride::Person * &gt;</text>
<polyline fill="none" stroke="#bfbfbf" points="618.5,-216.5 753.5,-216.5 "/>
<text text-anchor="middle" x="686" y="-204.5" font-family="Helvetica,sans-Serif" font-size="10.00"> </text>
<polyline fill="none" stroke="#bfbfbf" points="618.5,-197.5 753.5,-197.5 "/>
<text text-anchor="middle" x="686" y="-185.5" font-family="Helvetica,sans-Serif" font-size="10.00"> </text>
</g>
<!-- Node3&#45;&gt;Node1 -->
<g id="edge2" class="edge"><title>Node3&#45;&gt;Node1</title>
<path fill="none" stroke="#404040" d="M665.562,-178.428C655.997,-165.524 644.121,-149.502 632.292,-133.544"/>
<polygon fill="none" stroke="#404040" points="632.1,-133.285 625.313,-130.847 624.954,-123.645 631.74,-126.083 632.1,-133.285"/>
<text text-anchor="middle" x="687" y="-145.5" font-family="Helvetica,sans-Serif" font-size="10.00"> &#45;m_persons_found</text>
</g>
<!-- Node4 -->
<g id="node4" class="node"><title>Node4</title>
<g id="a_node4"><a xlink:href="../../d2/df5/a00137.html" target="_top" xlink:title="Store and handle person data. ">
<polygon fill="white" stroke="black" points="474,-290.5 474,-457.5 554,-457.5 554,-290.5 474,-290.5"/>
<text text-anchor="middle" x="514" y="-445.5" font-family="Helvetica,sans-Serif" font-size="10.00">stride::Person</text>
<polyline fill="none" stroke="black" points="474,-438.5 554,-438.5 "/>
<text text-anchor="middle" x="514" y="-426.5" font-family="Helvetica,sans-Serif" font-size="10.00"> </text>
<polyline fill="none" stroke="black" points="474,-419.5 554,-419.5 "/>
<text text-anchor="start" x="482" y="-407.5" font-family="Helvetica,sans-Serif" font-size="10.00">+ Person()</text>
<text text-anchor="start" x="482" y="-396.5" font-family="Helvetica,sans-Serif" font-size="10.00">+ Person()</text>
<text text-anchor="start" x="482" y="-385.5" font-family="Helvetica,sans-Serif" font-size="10.00">+ operator!=()</text>
<text text-anchor="start" x="482" y="-374.5" font-family="Helvetica,sans-Serif" font-size="10.00">+ GetAge()</text>
<text text-anchor="start" x="482" y="-363.5" font-family="Helvetica,sans-Serif" font-size="10.00">+ GetBelief()</text>
<text text-anchor="start" x="482" y="-352.5" font-family="Helvetica,sans-Serif" font-size="10.00">+ GetBelief()</text>
<text text-anchor="start" x="482" y="-341.5" font-family="Helvetica,sans-Serif" font-size="10.00">+ GetPoolId()</text>
<text text-anchor="start" x="482" y="-330.5" font-family="Helvetica,sans-Serif" font-size="10.00">+ GetGender()</text>
<text text-anchor="start" x="482" y="-319.5" font-family="Helvetica,sans-Serif" font-size="10.00">+ GetHealth()</text>
<text text-anchor="start" x="482" y="-308.5" font-family="Helvetica,sans-Serif" font-size="10.00">+ GetHealth()</text>
<text text-anchor="start" x="482" y="-297.5" font-family="Helvetica,sans-Serif" font-size="10.00">and 27 more...</text>
</a>
</g>
</g>
<!-- Node4&#45;&gt;Node3 -->
<g id="edge3" class="edge"><title>Node4&#45;&gt;Node3</title>
<path fill="none" stroke="#404040" d="M554.326,-334.315C582.695,-307.101 620.404,-270.927 648.196,-244.266"/>
<polygon fill="none" stroke="#404040" points="648.553,-243.923 650.114,-236.883 657.213,-235.616 655.652,-242.656 648.553,-243.923"/>
<text text-anchor="middle" x="645.5" y="-263.5" font-family="Helvetica,sans-Serif" font-size="10.00"> +keys</text>
</g>
<!-- Node5 -->
<g id="node5" class="node"><title>Node5</title>
<g id="a_node5"><a xlink:href="../../db/d8e/a00482.html" target="_top" xlink:title="{double\n||}">
<polygon fill="white" stroke="black" points="-0.5,-588.5 -0.5,-645.5 44.5,-645.5 44.5,-588.5 -0.5,-588.5"/>
<text text-anchor="middle" x="22" y="-633.5" font-family="Helvetica,sans-Serif" font-size="10.00">double</text>
<polyline fill="none" stroke="black" points="-0.5,-626.5 44.5,-626.5 "/>
<text text-anchor="middle" x="22" y="-614.5" font-family="Helvetica,sans-Serif" font-size="10.00"> </text>
<polyline fill="none" stroke="black" points="-0.5,-607.5 44.5,-607.5 "/>
<text text-anchor="middle" x="22" y="-595.5" font-family="Helvetica,sans-Serif" font-size="10.00"> </text>
</a>
</g>
</g>
<!-- Node5&#45;&gt;Node4 -->
<g id="edge4" class="edge"><title>Node5&#45;&gt;Node4</title>
<path fill="none" stroke="#404040" d="M23.9763,-588.203C27.0157,-565.84 34.6875,-535.097 54,-516 167.399,-403.865 367.517,-380.564 461.926,-375.964"/>
<polygon fill="none" stroke="#404040" points="461.997,-375.961 467.821,-371.709 473.986,-375.451 468.161,-379.702 461.997,-375.961"/>
<text text-anchor="middle" x="112" y="-484.5" font-family="Helvetica,sans-Serif" font-size="10.00"> &#45;m_age</text>
</g>
<!-- Node6 -->
<g id="node6" class="node"><title>Node6</title>
<g id="a_node6"><a xlink:href="../../d1/d09/a00077.html" target="_top" xlink:title="{stride::ContactPoolType\l::IdSubscriptArray\&lt; unsigned int \&gt;\n||+ IdSubscriptArray()\l+ IdSubscriptArray()\l+ IdSubscriptArray()\l+ IdSubscriptArray()\l+ operator[]()\l+ operator[]()\l+ at()\l+ at()\l}">
<polygon fill="white" stroke="black" points="63,-544.5 63,-689.5 229,-689.5 229,-544.5 63,-544.5"/>
<text text-anchor="start" x="71" y="-677.5" font-family="Helvetica,sans-Serif" font-size="10.00">stride::ContactPoolType</text>
<text text-anchor="middle" x="146" y="-666.5" font-family="Helvetica,sans-Serif" font-size="10.00">::IdSubscriptArray&lt; unsigned int &gt;</text>
<polyline fill="none" stroke="black" points="63,-659.5 229,-659.5 "/>
<text text-anchor="middle" x="146" y="-647.5" font-family="Helvetica,sans-Serif" font-size="10.00"> </text>
<polyline fill="none" stroke="black" points="63,-640.5 229,-640.5 "/>
<text text-anchor="start" x="71" y="-628.5" font-family="Helvetica,sans-Serif" font-size="10.00">+ IdSubscriptArray()</text>
<text text-anchor="start" x="71" y="-617.5" font-family="Helvetica,sans-Serif" font-size="10.00">+ IdSubscriptArray()</text>
<text text-anchor="start" x="71" y="-606.5" font-family="Helvetica,sans-Serif" font-size="10.00">+ IdSubscriptArray()</text>
<text text-anchor="start" x="71" y="-595.5" font-family="Helvetica,sans-Serif" font-size="10.00">+ IdSubscriptArray()</text>
<text text-anchor="start" x="71" y="-584.5" font-family="Helvetica,sans-Serif" font-size="10.00">+ operator[]()</text>
<text text-anchor="start" x="71" y="-573.5" font-family="Helvetica,sans-Serif" font-size="10.00">+ operator[]()</text>
<text text-anchor="start" x="71" y="-562.5" font-family="Helvetica,sans-Serif" font-size="10.00">+ at()</text>
<text text-anchor="start" x="71" y="-551.5" font-family="Helvetica,sans-Serif" font-size="10.00">+ at()</text>
</a>
</g>
</g>
<!-- Node6&#45;&gt;Node4 -->
<g id="edge5" class="edge"><title>Node6&#45;&gt;Node4</title>
<path fill="none" stroke="#404040" d="M186.877,-544.473C203.595,-520.136 224.744,-494.452 249,-476 313.618,-426.845 404.943,-399.109 461.758,-385.593"/>
<polygon fill="none" stroke="#404040" points="461.989,-385.54 466.938,-380.295 473.683,-382.845 468.734,-388.09 461.989,-385.54"/>
<text text-anchor="middle" x="277" y="-484.5" font-family="Helvetica,sans-Serif" font-size="10.00"> &#45;m_pool_ids</text>
</g>
<!-- Node7 -->
<g id="node7" class="node"><title>Node7</title>
<g id="a_node7"><a xlink:title="STL class. ">
<polygon fill="white" stroke="#bfbfbf" points="44.5,-975 44.5,-1043 151.5,-1043 151.5,-975 44.5,-975"/>
<text text-anchor="start" x="52.5" y="-1031" font-family="Helvetica,sans-Serif" font-size="10.00">std::array&lt; unsigned</text>
<text text-anchor="middle" x="98" y="-1020" font-family="Helvetica,sans-Serif" font-size="10.00"> int, NumOfTypes()&gt;</text>
<polyline fill="none" stroke="#bfbfbf" points="44.5,-1013 151.5,-1013 "/>
<text text-anchor="middle" x="98" y="-1001" font-family="Helvetica,sans-Serif" font-size="10.00"> </text>
<polyline fill="none" stroke="#bfbfbf" points="44.5,-994 151.5,-994 "/>
<text text-anchor="middle" x="98" y="-982" font-family="Helvetica,sans-Serif" font-size="10.00"> </text>
</a>
</g>
</g>
<!-- Node7&#45;&gt;Node6 -->
<g id="edge6" class="edge"><title>Node7&#45;&gt;Node6</title>
<path fill="none" stroke="midnightblue" d="M103.339,-964.619C111.524,-898.117 127.263,-770.241 137.165,-689.78"/>
<polygon fill="none" stroke="midnightblue" points="99.8403,-964.396 102.092,-974.749 106.788,-965.251 99.8403,-964.396"/>
</g>
<!-- Node8 -->
<g id="node8" class="node"><title>Node8</title>
<polygon fill="white" stroke="#bfbfbf" points="125.5,-1168.5 125.5,-1225.5 154.5,-1225.5 154.5,-1168.5 125.5,-1168.5"/>
<text text-anchor="middle" x="140" y="-1213.5" font-family="Helvetica,sans-Serif" font-size="10.00">T</text>
<polyline fill="none" stroke="#bfbfbf" points="125.5,-1206.5 154.5,-1206.5 "/>
<text text-anchor="middle" x="140" y="-1194.5" font-family="Helvetica,sans-Serif" font-size="10.00"> </text>
<polyline fill="none" stroke="#bfbfbf" points="125.5,-1187.5 154.5,-1187.5 "/>
<text text-anchor="middle" x="140" y="-1175.5" font-family="Helvetica,sans-Serif" font-size="10.00"> </text>
</g>
<!-- Node8&#45;&gt;Node7 -->
<g id="edge7" class="edge"><title>Node8&#45;&gt;Node7</title>
<path fill="none" stroke="#404040" d="M125.5,-1173.36C121.49,-1166.15 117.546,-1157.97 115,-1150 105.208,-1119.36 100.989,-1083.3 99.2019,-1055.45"/>
<polygon fill="none" stroke="#404040" points="99.1919,-1055.26 94.8722,-1049.48 98.5407,-1043.28 102.86,-1049.05 99.1919,-1055.26"/>
<text text-anchor="middle" x="139.5" y="-1141.5" font-family="Helvetica,sans-Serif" font-size="10.00"> +elements</text>
</g>
<!-- Node10 -->
<g id="node10" class="node"><title>Node10</title>
<g id="a_node10"><a xlink:title="STL class. ">
<polygon fill="white" stroke="#bfbfbf" points="124.5,-1062.5 124.5,-1119.5 273.5,-1119.5 273.5,-1062.5 124.5,-1062.5"/>
<text text-anchor="middle" x="199" y="-1107.5" font-family="Helvetica,sans-Serif" font-size="10.00">std::array&lt; T, NumOfTypes()&gt;</text>
<polyline fill="none" stroke="#bfbfbf" points="124.5,-1100.5 273.5,-1100.5 "/>
<text text-anchor="middle" x="199" y="-1088.5" font-family="Helvetica,sans-Serif" font-size="10.00"> </text>
<polyline fill="none" stroke="#bfbfbf" points="124.5,-1081.5 273.5,-1081.5 "/>
<text text-anchor="middle" x="199" y="-1069.5" font-family="Helvetica,sans-Serif" font-size="10.00"> </text>
</a>
</g>
</g>
<!-- Node8&#45;&gt;Node10 -->
<g id="edge10" class="edge"><title>Node8&#45;&gt;Node10</title>
<path fill="none" stroke="#404040" d="M154.584,-1170.29C161.409,-1158.26 169.679,-1143.68 177.224,-1130.38"/>
<polygon fill="none" stroke="#404040" points="177.423,-1130.03 176.904,-1122.84 183.344,-1119.6 183.862,-1126.79 177.423,-1130.03"/>
<text text-anchor="middle" x="196.5" y="-1141.5" font-family="Helvetica,sans-Serif" font-size="10.00"> +elements</text>
</g>
<!-- Node9 -->
<g id="node9" class="node"><title>Node9</title>
<g id="a_node9"><a xlink:href="../../d1/d09/a00077.html" target="_top" xlink:title="An std::array modified to enable subscripting with the constact pool type indentifiers. ">
<polygon fill="white" stroke="black" points="135,-810.5 135,-955.5 257,-955.5 257,-810.5 135,-810.5"/>
<text text-anchor="start" x="143" y="-943.5" font-family="Helvetica,sans-Serif" font-size="10.00">stride::ContactPoolType</text>
<text text-anchor="middle" x="196" y="-932.5" font-family="Helvetica,sans-Serif" font-size="10.00">::IdSubscriptArray&lt; T &gt;</text>
<polyline fill="none" stroke="black" points="135,-925.5 257,-925.5 "/>
<text text-anchor="middle" x="196" y="-913.5" font-family="Helvetica,sans-Serif" font-size="10.00"> </text>
<polyline fill="none" stroke="black" points="135,-906.5 257,-906.5 "/>
<text text-anchor="start" x="143" y="-894.5" font-family="Helvetica,sans-Serif" font-size="10.00">+ IdSubscriptArray()</text>
<text text-anchor="start" x="143" y="-883.5" font-family="Helvetica,sans-Serif" font-size="10.00">+ IdSubscriptArray()</text>
<text text-anchor="start" x="143" y="-872.5" font-family="Helvetica,sans-Serif" font-size="10.00">+ IdSubscriptArray()</text>
<text text-anchor="start" x="143" y="-861.5" font-family="Helvetica,sans-Serif" font-size="10.00">+ IdSubscriptArray()</text>
<text text-anchor="start" x="143" y="-850.5" font-family="Helvetica,sans-Serif" font-size="10.00">+ operator[]()</text>
<text text-anchor="start" x="143" y="-839.5" font-family="Helvetica,sans-Serif" font-size="10.00">+ operator[]()</text>
<text text-anchor="start" x="143" y="-828.5" font-family="Helvetica,sans-Serif" font-size="10.00">+ at()</text>
<text text-anchor="start" x="143" y="-817.5" font-family="Helvetica,sans-Serif" font-size="10.00">+ at()</text>
</a>
</g>
</g>
<!-- Node9&#45;&gt;Node6 -->
<g id="edge8" class="edge"><title>Node9&#45;&gt;Node6</title>
<path fill="none" stroke="orange" d="M180.458,-799.94C173.778,-764.67 166.042,-723.822 159.594,-689.776"/>
<polygon fill="orange" stroke="orange" points="177.104,-801.036 182.403,-810.21 183.981,-799.733 177.104,-801.036"/>
<text text-anchor="middle" x="216" y="-761.5" font-family="Helvetica,sans-Serif" font-size="10.00"> &lt; unsigned int &gt;</text>
</g>
<!-- Node10&#45;&gt;Node9 -->
<g id="edge9" class="edge"><title>Node10&#45;&gt;Node9</title>
<path fill="none" stroke="midnightblue" d="M198.447,-1052.04C198.054,-1025.06 197.515,-988.01 197.042,-955.561"/>
<polygon fill="none" stroke="midnightblue" points="194.95,-1052.27 198.595,-1062.22 201.949,-1052.17 194.95,-1052.27"/>
</g>
<!-- Node11 -->
<g id="node11" class="node"><title>Node11</title>
<polygon fill="white" stroke="#bfbfbf" points="247.5,-588.5 247.5,-645.5 282.5,-645.5 282.5,-588.5 247.5,-588.5"/>
<text text-anchor="middle" x="265" y="-633.5" font-family="Helvetica,sans-Serif" font-size="10.00">char</text>
<polyline fill="none" stroke="#bfbfbf" points="247.5,-626.5 282.5,-626.5 "/>
<text text-anchor="middle" x="265" y="-614.5" font-family="Helvetica,sans-Serif" font-size="10.00"> </text>
<polyline fill="none" stroke="#bfbfbf" points="247.5,-607.5 282.5,-607.5 "/>
<text text-anchor="middle" x="265" y="-595.5" font-family="Helvetica,sans-Serif" font-size="10.00"> </text>
</g>
<!-- Node11&#45;&gt;Node4 -->
<g id="edge11" class="edge"><title>Node11&#45;&gt;Node4</title>
<path fill="none" stroke="#404040" d="M267.138,-588.253C269.979,-566.796 276.595,-537.26 292,-516 335.089,-456.535 411.663,-416.135 462.638,-394.315"/>
<polygon fill="none" stroke="#404040" points="462.665,-394.304 466.662,-388.302 473.74,-389.683 469.743,-395.685 462.665,-394.304"/>
<text text-anchor="middle" x="349.5" y="-484.5" font-family="Helvetica,sans-Serif" font-size="10.00"> &#45;m_gender</text>
</g>
<!-- Node12 -->
<g id="node12" class="node"><title>Node12</title>
<g id="a_node12"><a xlink:href="../../d5/d1e/a00103.html" target="_top" xlink:title="Specialisation of IdSubscriptArray foor booleans. ">
<polygon fill="white" stroke="black" points="300.5,-555.5 300.5,-678.5 431.5,-678.5 431.5,-555.5 300.5,-555.5"/>
<text text-anchor="start" x="308.5" y="-666.5" font-family="Helvetica,sans-Serif" font-size="10.00">stride::ContactPoolType</text>
<text text-anchor="middle" x="366" y="-655.5" font-family="Helvetica,sans-Serif" font-size="10.00">::IdSubscriptArray&lt; bool &gt;</text>
<polyline fill="none" stroke="black" points="300.5,-648.5 431.5,-648.5 "/>
<text text-anchor="middle" x="366" y="-636.5" font-family="Helvetica,sans-Serif" font-size="10.00"> </text>
<polyline fill="none" stroke="black" points="300.5,-629.5 431.5,-629.5 "/>
<text text-anchor="start" x="308.5" y="-617.5" font-family="Helvetica,sans-Serif" font-size="10.00">+ IdSubscriptArray()</text>
<text text-anchor="start" x="308.5" y="-606.5" font-family="Helvetica,sans-Serif" font-size="10.00">+ IdSubscriptArray()</text>
<text text-anchor="start" x="308.5" y="-595.5" font-family="Helvetica,sans-Serif" font-size="10.00">+ operator[]()</text>
<text text-anchor="start" x="308.5" y="-584.5" font-family="Helvetica,sans-Serif" font-size="10.00">+ operator[]()</text>
<text text-anchor="start" x="308.5" y="-573.5" font-family="Helvetica,sans-Serif" font-size="10.00">+ at()</text>
<text text-anchor="start" x="308.5" y="-562.5" font-family="Helvetica,sans-Serif" font-size="10.00">+ at()</text>
</a>
</g>
</g>
<!-- Node12&#45;&gt;Node4 -->
<g id="edge12" class="edge"><title>Node12&#45;&gt;Node4</title>
<path fill="none" stroke="#404040" d="M382.601,-555.29C391.072,-529.714 402.834,-500.307 418,-476 430.75,-455.565 448.103,-435.749 464.55,-419.16"/>
<polygon fill="none" stroke="#404040" points="465.007,-418.71 466.477,-411.651 473.56,-410.293 472.089,-417.352 465.007,-418.71"/>
<text text-anchor="middle" x="446" y="-484.5" font-family="Helvetica,sans-Serif" font-size="10.00"> &#45;m_in_pools</text>
</g>
<!-- Node13 -->
<g id="node13" class="node"><title>Node13</title>
<g id="a_node13"><a xlink:title="STL class. ">
<polygon fill="white" stroke="#bfbfbf" points="296,-854.5 296,-911.5 436,-911.5 436,-854.5 296,-854.5"/>
<text text-anchor="middle" x="366" y="-899.5" font-family="Helvetica,sans-Serif" font-size="10.00">std::bitset&lt; NumOfTypes()&gt;</text>
<polyline fill="none" stroke="#bfbfbf" points="296,-892.5 436,-892.5 "/>
<text text-anchor="middle" x="366" y="-880.5" font-family="Helvetica,sans-Serif" font-size="10.00"> </text>
<polyline fill="none" stroke="#bfbfbf" points="296,-873.5 436,-873.5 "/>
<text text-anchor="middle" x="366" y="-861.5" font-family="Helvetica,sans-Serif" font-size="10.00"> </text>
</a>
</g>
</g>
<!-- Node13&#45;&gt;Node12 -->
<g id="edge13" class="edge"><title>Node13&#45;&gt;Node12</title>
<path fill="none" stroke="midnightblue" d="M366,-844.15C366,-800.903 366,-729.541 366,-678.545"/>
<polygon fill="none" stroke="midnightblue" points="362.5,-844.246 366,-854.246 369.5,-844.246 362.5,-844.246"/>
</g>
<!-- Node14 -->
<g id="node14" class="node"><title>Node14</title>
<polygon fill="white" stroke="#bfbfbf" points="449.5,-588.5 449.5,-645.5 478.5,-645.5 478.5,-588.5 449.5,-588.5"/>
<text text-anchor="middle" x="464" y="-633.5" font-family="Helvetica,sans-Serif" font-size="10.00">int</text>
<polyline fill="none" stroke="#bfbfbf" points="449.5,-626.5 478.5,-626.5 "/>
<text text-anchor="middle" x="464" y="-614.5" font-family="Helvetica,sans-Serif" font-size="10.00"> </text>
<polyline fill="none" stroke="#bfbfbf" points="449.5,-607.5 478.5,-607.5 "/>
<text text-anchor="middle" x="464" y="-595.5" font-family="Helvetica,sans-Serif" font-size="10.00"> </text>
</g>
<!-- Node14&#45;&gt;Node4 -->
<g id="edge14" class="edge"><title>Node14&#45;&gt;Node4</title>
<path fill="none" stroke="#404040" d="M466.082,-588.387C468.566,-559.967 473.492,-514.526 482,-476 482.478,-473.838 482.981,-471.655 483.507,-469.46"/>
<polygon fill="none" stroke="#404040" points="483.558,-469.259 481.158,-462.459 486.512,-457.628 488.912,-464.428 483.558,-469.259"/>
<text text-anchor="middle" x="496" y="-484.5" font-family="Helvetica,sans-Serif" font-size="10.00"> &#45;m_id</text>
</g>
<!-- Node15 -->
<g id="node15" class="node"><title>Node15</title>
<polygon fill="white" stroke="#bfbfbf" points="496.5,-588.5 496.5,-645.5 531.5,-645.5 531.5,-588.5 496.5,-588.5"/>
<text text-anchor="middle" x="514" y="-633.5" font-family="Helvetica,sans-Serif" font-size="10.00">bool</text>
<polyline fill="none" stroke="#bfbfbf" points="496.5,-626.5 531.5,-626.5 "/>
<text text-anchor="middle" x="514" y="-614.5" font-family="Helvetica,sans-Serif" font-size="10.00"> </text>
<polyline fill="none" stroke="#bfbfbf" points="496.5,-607.5 531.5,-607.5 "/>
<text text-anchor="middle" x="514" y="-595.5" font-family="Helvetica,sans-Serif" font-size="10.00"> </text>
</g>
<!-- Node15&#45;&gt;Node4 -->
<g id="edge15" class="edge"><title>Node15&#45;&gt;Node4</title>
<path fill="none" stroke="#404040" d="M514,-588.354C514,-559.428 514,-512.389 514,-469.83"/>
<polygon fill="none" stroke="#404040" points="514,-469.672 510,-463.672 514,-457.672 518,-463.672 514,-469.672"/>
<text text-anchor="middle" x="551.5" y="-490" font-family="Helvetica,sans-Serif" font-size="10.00"> &#45;m_isTravelling</text>
<text text-anchor="middle" x="551.5" y="-479" font-family="Helvetica,sans-Serif" font-size="10.00">&#45;m_is_participant</text>
</g>
<!-- Node16 -->
<g id="node16" class="node"><title>Node16</title>
<g id="a_node16"><a xlink:href="../../d9/df8/a00096.html" target="_top" xlink:title="Base class for all belief policies. ">
<polygon fill="white" stroke="black" points="550,-577.5 550,-656.5 636,-656.5 636,-577.5 550,-577.5"/>
<text text-anchor="middle" x="593" y="-644.5" font-family="Helvetica,sans-Serif" font-size="10.00">stride::Belief</text>
<polyline fill="none" stroke="black" points="550,-637.5 636,-637.5 "/>
<text text-anchor="middle" x="593" y="-625.5" font-family="Helvetica,sans-Serif" font-size="10.00"> </text>
<polyline fill="none" stroke="black" points="550,-618.5 636,-618.5 "/>
<text text-anchor="start" x="558" y="-606.5" font-family="Helvetica,sans-Serif" font-size="10.00">+ Belief()</text>
<text text-anchor="start" x="558" y="-595.5" font-family="Helvetica,sans-Serif" font-size="10.00">+ ~Belief()</text>
<text text-anchor="start" x="558" y="-584.5" font-family="Helvetica,sans-Serif" font-size="10.00">+ HasAdopted()</text>
</a>
</g>
</g>
<!-- Node16&#45;&gt;Node4 -->
<g id="edge16" class="edge"><title>Node16&#45;&gt;Node4</title>
<path fill="none" stroke="#404040" d="M598.41,-577.451C600.976,-548.686 601.372,-508.852 590,-476 583.817,-458.139 573.191,-440.863 561.812,-425.801"/>
<polygon fill="none" stroke="#404040" points="561.699,-425.658 554.842,-423.426 554.265,-416.238 561.122,-418.47 561.699,-425.658"/>
<text text-anchor="middle" x="616.5" y="-484.5" font-family="Helvetica,sans-Serif" font-size="10.00"> &#45;m_belief</text>
</g>
<!-- Node17 -->
<g id="node17" class="node"><title>Node17</title>
<g id="a_node17"><a xlink:href="../../d8/d17/a00114.html" target="_top" xlink:title="Holds a person&#39;s health data. ">
<polygon fill="white" stroke="black" points="654.5,-517 654.5,-717 797.5,-717 797.5,-517 654.5,-517"/>
<text text-anchor="middle" x="726" y="-705" font-family="Helvetica,sans-Serif" font-size="10.00">stride::Health</text>
<polyline fill="none" stroke="black" points="654.5,-698 797.5,-698 "/>
<text text-anchor="middle" x="726" y="-686" font-family="Helvetica,sans-Serif" font-size="10.00"> </text>
<polyline fill="none" stroke="black" points="654.5,-679 797.5,-679 "/>
<text text-anchor="start" x="662.5" y="-667" font-family="Helvetica,sans-Serif" font-size="10.00">+ Health()</text>
<text text-anchor="start" x="662.5" y="-656" font-family="Helvetica,sans-Serif" font-size="10.00">+ GetEndInfectiousness()</text>
<text text-anchor="start" x="662.5" y="-645" font-family="Helvetica,sans-Serif" font-size="10.00">+ GetEndSymptomatic()</text>
<text text-anchor="start" x="662.5" y="-634" font-family="Helvetica,sans-Serif" font-size="10.00">+ GetStartInfectiousness()</text>
<text text-anchor="start" x="662.5" y="-623" font-family="Helvetica,sans-Serif" font-size="10.00">+ GetStartSymptomatic()</text>
<text text-anchor="start" x="662.5" y="-612" font-family="Helvetica,sans-Serif" font-size="10.00">+ IsImmune()</text>
<text text-anchor="start" x="662.5" y="-601" font-family="Helvetica,sans-Serif" font-size="10.00">+ IsInfected()</text>
<text text-anchor="start" x="662.5" y="-590" font-family="Helvetica,sans-Serif" font-size="10.00">+ IsInfectious()</text>
<text text-anchor="start" x="662.5" y="-579" font-family="Helvetica,sans-Serif" font-size="10.00">+ IsRecovered()</text>
<text text-anchor="start" x="662.5" y="-568" font-family="Helvetica,sans-Serif" font-size="10.00">+ IsSusceptible()</text>
<text text-anchor="start" x="662.5" y="-557" font-family="Helvetica,sans-Serif" font-size="10.00">and 6 more...</text>
<text text-anchor="start" x="662.5" y="-546" font-family="Helvetica,sans-Serif" font-size="10.00">&#45; GetDiseaseCounter()</text>
<text text-anchor="start" x="662.5" y="-535" font-family="Helvetica,sans-Serif" font-size="10.00">&#45; IncrementDiseaseCounter()</text>
<text text-anchor="start" x="662.5" y="-524" font-family="Helvetica,sans-Serif" font-size="10.00">&#45; ResetDiseaseCounter()</text>
</a>
</g>
</g>
<!-- Node17&#45;&gt;Node4 -->
<g id="edge17" class="edge"><title>Node17&#45;&gt;Node4</title>
<path fill="none" stroke="#404040" d="M672.713,-516.819C663.287,-502.519 652.954,-488.449 642,-476 619.32,-450.224 589.398,-426.201 564.188,-408.056"/>
<polygon fill="none" stroke="#404040" points="563.866,-407.828 556.658,-407.631 554.068,-400.901 561.276,-401.098 563.866,-407.828"/>
<text text-anchor="middle" x="681" y="-484.5" font-family="Helvetica,sans-Serif" font-size="10.00"> &#45;m_health</text>
</g>
<!-- Node18 -->
<g id="node18" class="node"><title>Node18</title>
<polygon fill="white" stroke="#bfbfbf" points="638,-854.5 638,-911.5 712,-911.5 712,-854.5 638,-854.5"/>
<text text-anchor="middle" x="675" y="-899.5" font-family="Helvetica,sans-Serif" font-size="10.00">HealthStatus</text>
<polyline fill="none" stroke="#bfbfbf" points="638,-892.5 712,-892.5 "/>
<text text-anchor="middle" x="675" y="-880.5" font-family="Helvetica,sans-Serif" font-size="10.00"> </text>
<polyline fill="none" stroke="#bfbfbf" points="638,-873.5 712,-873.5 "/>
<text text-anchor="middle" x="675" y="-861.5" font-family="Helvetica,sans-Serif" font-size="10.00"> </text>
</g>
<!-- Node18&#45;&gt;Node17 -->
<g id="edge18" class="edge"><title>Node18&#45;&gt;Node17</title>
<path fill="none" stroke="#404040" d="M680.362,-854.246C686.125,-824.409 695.658,-775.062 704.525,-729.164"/>
<polygon fill="none" stroke="#404040" points="704.547,-729.053 701.757,-722.403 706.823,-717.271 709.612,-723.921 704.547,-729.053"/>
<text text-anchor="middle" x="725.5" y="-761.5" font-family="Helvetica,sans-Serif" font-size="10.00"> &#45;m_status</text>
</g>
<!-- Node19 -->
<g id="node19" class="node"><title>Node19</title>
<polygon fill="white" stroke="#bfbfbf" points="730,-854.5 730,-911.5 824,-911.5 824,-854.5 730,-854.5"/>
<text text-anchor="middle" x="777" y="-899.5" font-family="Helvetica,sans-Serif" font-size="10.00">unsigned short int</text>
<polyline fill="none" stroke="#bfbfbf" points="730,-892.5 824,-892.5 "/>
<text text-anchor="middle" x="777" y="-880.5" font-family="Helvetica,sans-Serif" font-size="10.00"> </text>
<polyline fill="none" stroke="#bfbfbf" points="730,-873.5 824,-873.5 "/>
<text text-anchor="middle" x="777" y="-861.5" font-family="Helvetica,sans-Serif" font-size="10.00"> </text>
</g>
<!-- Node19&#45;&gt;Node17 -->
<g id="edge19" class="edge"><title>Node19&#45;&gt;Node17</title>
<path fill="none" stroke="#404040" d="M772.994,-854.462C768.593,-825.041 761.069,-777.086 753,-736 752.544,-733.68 752.077,-731.336 751.599,-728.975"/>
<polygon fill="none" stroke="#404040" points="751.564,-728.805 746.432,-723.74 749.134,-717.054 754.266,-722.12 751.564,-728.805"/>
<text text-anchor="middle" x="814.5" y="-783.5" font-family="Helvetica,sans-Serif" font-size="10.00"> &#45;m_start_symptomatic</text>
<text text-anchor="middle" x="814.5" y="-772.5" font-family="Helvetica,sans-Serif" font-size="10.00">&#45;m_disease_counter</text>
<text text-anchor="middle" x="814.5" y="-761.5" font-family="Helvetica,sans-Serif" font-size="10.00">&#45;m_end_symptomatic</text>
<text text-anchor="middle" x="814.5" y="-750.5" font-family="Helvetica,sans-Serif" font-size="10.00">&#45;m_end_infectiousness</text>
<text text-anchor="middle" x="814.5" y="-739.5" font-family="Helvetica,sans-Serif" font-size="10.00">&#45;m_start_infectiousness</text>
</g>
<!-- Node20 -->
<g id="node20" class="node"><title>Node20</title>
<polygon fill="white" stroke="#bfbfbf" points="815.5,-588.5 815.5,-645.5 858.5,-645.5 858.5,-588.5 815.5,-588.5"/>
<text text-anchor="middle" x="837" y="-633.5" font-family="Helvetica,sans-Serif" font-size="10.00">size_t</text>
<polyline fill="none" stroke="#bfbfbf" points="815.5,-626.5 858.5,-626.5 "/>
<text text-anchor="middle" x="837" y="-614.5" font-family="Helvetica,sans-Serif" font-size="10.00"> </text>
<polyline fill="none" stroke="#bfbfbf" points="815.5,-607.5 858.5,-607.5 "/>
<text text-anchor="middle" x="837" y="-595.5" font-family="Helvetica,sans-Serif" font-size="10.00"> </text>
</g>
<!-- Node20&#45;&gt;Node4 -->
<g id="edge20" class="edge"><title>Node20&#45;&gt;Node4</title>
<path fill="none" stroke="#404040" d="M834.407,-588.064C831.066,-566.216 823.432,-536.249 806,-516 742.426,-442.151 631.327,-403.706 566.036,-386.55"/>
<polygon fill="none" stroke="#404040" points="565.638,-386.449 558.838,-388.849 554.008,-383.495 560.808,-381.095 565.638,-386.449"/>
<text text-anchor="middle" x="811" y="-484.5" font-family="Helvetica,sans-Serif" font-size="10.00"> &#45;m_region</text>
</g>
<!-- Node21 -->
<g id="node21" class="node"><title>Node21</title>
<polygon fill="white" stroke="#bfbfbf" points="876.5,-588.5 876.5,-645.5 917.5,-645.5 917.5,-588.5 876.5,-588.5"/>
<text text-anchor="middle" x="897" y="-633.5" font-family="Helvetica,sans-Serif" font-size="10.00">friend</text>
<polyline fill="none" stroke="#bfbfbf" points="876.5,-626.5 917.5,-626.5 "/>
<text text-anchor="middle" x="897" y="-614.5" font-family="Helvetica,sans-Serif" font-size="10.00"> </text>
<polyline fill="none" stroke="#bfbfbf" points="876.5,-607.5 917.5,-607.5 "/>
<text text-anchor="middle" x="897" y="-595.5" font-family="Helvetica,sans-Serif" font-size="10.00"> </text>
</g>
<!-- Node21&#45;&gt;Node4 -->
<g id="edge21" class="edge"><title>Node21&#45;&gt;Node4</title>
<path fill="none" stroke="#404040" d="M894.348,-588.379C889.501,-555.129 875.904,-500.687 838,-476 806.007,-455.163 790.777,-468.259 754,-458 688.09,-439.615 613.885,-413.015 565.668,-394.919"/>
<polygon fill="none" stroke="#404040" points="565.517,-394.862 558.491,-396.486 554.29,-390.625 561.316,-389.001 565.517,-394.862"/>
<text text-anchor="middle" x="893.5" y="-484.5" font-family="Helvetica,sans-Serif" font-size="10.00"> +TravellerIndex</text>
</g>
<!-- Node22 -->
<g id="node22" class="node"><title>Node22</title>
<g id="a_node22"><a xlink:title="STL class. ">
<polygon fill="white" stroke="#bfbfbf" points="763,-345.5 763,-402.5 837,-402.5 837,-345.5 763,-345.5"/>
<text text-anchor="middle" x="800" y="-390.5" font-family="Helvetica,sans-Serif" font-size="10.00">std::set&lt; K &gt;</text>
<polyline fill="none" stroke="#bfbfbf" points="763,-383.5 837,-383.5 "/>
<text text-anchor="middle" x="800" y="-371.5" font-family="Helvetica,sans-Serif" font-size="10.00"> </text>
<polyline fill="none" stroke="#bfbfbf" points="763,-364.5 837,-364.5 "/>
<text text-anchor="middle" x="800" y="-352.5" font-family="Helvetica,sans-Serif" font-size="10.00"> </text>
</a>
</g>
</g>
<!-- Node22&#45;&gt;Node3 -->
<g id="edge22" class="edge"><title>Node22&#45;&gt;Node3</title>
<path fill="none" stroke="orange" d="M775.23,-337.149C754.182,-306.685 724.401,-263.581 705.143,-235.707"/>
<polygon fill="orange" stroke="orange" points="772.355,-339.145 780.919,-345.383 778.114,-335.166 772.355,-339.145"/>
<text text-anchor="middle" x="773.5" y="-263.5" font-family="Helvetica,sans-Serif" font-size="10.00"> &lt; stride::Person * &gt;</text>
</g>
<!-- Node23 -->
<g id="node23" class="node"><title>Node23</title>
<polygon fill="white" stroke="#bfbfbf" points="976.5,-588.5 976.5,-645.5 1005.5,-645.5 1005.5,-588.5 976.5,-588.5"/>
<text text-anchor="middle" x="991" y="-633.5" font-family="Helvetica,sans-Serif" font-size="10.00">K</text>
<polyline fill="none" stroke="#bfbfbf" points="976.5,-626.5 1005.5,-626.5 "/>
<text text-anchor="middle" x="991" y="-614.5" font-family="Helvetica,sans-Serif" font-size="10.00"> </text>
<polyline fill="none" stroke="#bfbfbf" points="976.5,-607.5 1005.5,-607.5 "/>
<text text-anchor="middle" x="991" y="-595.5" font-family="Helvetica,sans-Serif" font-size="10.00"> </text>
</g>
<!-- Node23&#45;&gt;Node22 -->
<g id="edge23" class="edge"><title>Node23&#45;&gt;Node22</title>
<path fill="none" stroke="#404040" d="M993.25,-588.259C994.292,-558.077 991.721,-509.643 969,-476 940.42,-433.681 887.64,-406.358 848.64,-390.94"/>
<polygon fill="none" stroke="#404040" points="848.495,-390.885 841.466,-392.496 837.276,-386.627 844.305,-385.016 848.495,-390.885"/>
<text text-anchor="middle" x="994.5" y="-484.5" font-family="Helvetica,sans-Serif" font-size="10.00"> +keys</text>
</g>
</g>
</svg>
        <g id="navigator" transform="translate(0 0)" fill="#404254">
                <rect fill="#f2f5e9" fill-opacity="0.5" stroke="#606060" stroke-width=".5" x="0" y="0" width="60" height="60"/>
                <use id="zoomplus" xlink:href="#zoomPlus" x="17" y="9" onmousedown="handleZoom(evt,'in')"/>
                <use id="zoomminus" xlink:href="#zoomMin" x="42" y="9" onmousedown="handleZoom(evt,'out')"/>
                <use id="reset" xlink:href="#resetDef" x="30" y="36" onmousedown="handleReset()"/>
                <g id="arrowUp" xlink:href="#dirArrow" transform="translate(30 24)" onmousedown="handlePan(0,-1)">
                  <use xlink:href="#rim" fill="#404040">
                        <set attributeName="fill" to="#808080" begin="arrowUp.mouseover" end="arrowUp.mouseout"/>
                  </use>
                  <path fill="none" stroke="white" stroke-width="1.5" d="M0,-3.0v7 M-2.5,-0.5L0,-3.0L2.5,-0.5"/>
                </g>
                <g id="arrowRight" xlink:href="#dirArrow" transform="rotate(90) translate(36 -43)" onmousedown="handlePan(1,0)">
                  <use xlink:href="#rim" fill="#404040">
                        <set attributeName="fill" to="#808080" begin="arrowRight.mouseover" end="arrowRight.mouseout"/>
                  </use>
                  <path fill="none" stroke="white" stroke-width="1.5" d="M0,-3.0v7 M-2.5,-0.5L0,-3.0L2.5,-0.5"/>
                </g>
                <g id="arrowDown" xlink:href="#dirArrow" transform="rotate(180) translate(-30 -48)" onmousedown="handlePan(0,1)">
                  <use xlink:href="#rim" fill="#404040">
                        <set attributeName="fill" to="#808080" begin="arrowDown.mouseover" end="arrowDown.mouseout"/>
                  </use>
                  <path fill="none" stroke="white" stroke-width="1.5" d="M0,-3.0v7 M-2.5,-0.5L0,-3.0L2.5,-0.5"/>
                </g>
                <g id="arrowLeft" xlink:href="#dirArrow" transform="rotate(270) translate(-36 17)" onmousedown="handlePan(-1,0)">
                  <use xlink:href="#rim" fill="#404040">
                        <set attributeName="fill" to="#808080" begin="arrowLeft.mouseover" end="arrowLeft.mouseout"/>
                  </use>
                  <path fill="none" stroke="white" stroke-width="1.5" d="M0,-3.0v7 M-2.5,-0.5L0,-3.0L2.5,-0.5"/>
                </g>
        </g>
        <svg viewBox="0 0 15 15" width="100%" height="30px" preserveAspectRatio="xMaxYMin meet">
         <g id="arrow_out" transform="scale(0.3 0.3)">
          <a xlink:href="a01037_org.svg" target="_base">
           <rect id="button" ry="5" rx="5" y="6" x="6" height="38" width="38"
                fill="#f2f5e9" fill-opacity="0.5" stroke="#606060" stroke-width="1.0"/>
           <path id="arrow"
             d="M 11.500037,31.436501 C 11.940474,20.09759 22.043105,11.32322 32.158766,21.979434 L 37.068811,17.246167 C 37.068811,17.246167 37.088388,32 37.088388,32 L 22.160133,31.978069 C 22.160133,31.978069 26.997745,27.140456 26.997745,27.140456 C 18.528582,18.264221 13.291696,25.230495 11.500037,31.436501 z"
             style="fill:#404040;"/>
          </a>
         </g>
        </svg>
</svg>
