<?xml version="1.0" encoding="UTF-8" standalone="no"?>
<!DOCTYPE svg PUBLIC "-//W3C//DTD SVG 1.1//EN"
 "http://www.w3.org/Graphics/SVG/1.1/DTD/svg11.dtd">
<!-- Generated by graphviz version 2.36.0 (20140111.2315)
 -->
<!-- Title: stride::GenPopBuilder::Build Pages: 1 -->
<!--zoomable 430 -->
<svg id="main" version="1.1" xmlns="http://www.w3.org/2000/svg" xmlns:xlink="http://www.w3.org/1999/xlink" xml:space="preserve" onload="init(evt)">
<style type="text/css"><![CDATA[
.edge:hover path { stroke: red; }
.edge:hover polygon { stroke: red; fill: red; }
]]></style>
<script type="text/javascript"><![CDATA[
var edges = document.getElementsByTagName('g');
if (edges && edges.length) {
  for (var i=0;i<edges.length;i++) {
    if (edges[i].id.substr(0,4)=='edge') {
      edges[i].setAttribute('class','edge');
    }
  }
}
]]></script>
        <defs>
                <circle id="rim" cx="0" cy="0" r="7"/>
                <circle id="rim2" cx="0" cy="0" r="3.5"/>
                <g id="zoomPlus">
                        <use xlink:href="#rim" fill="#404040">
                                <set attributeName="fill" to="#808080" begin="zoomplus.mouseover" end="zoomplus.mouseout"/>
                        </use>
                        <path d="M-4,0h8M0,-4v8" fill="none" stroke="white" stroke-width="1.5" pointer-events="none"/>
                </g>
                <g id="zoomMin">
                        <use xlink:href="#rim" fill="#404040">
                                <set attributeName="fill" to="#808080" begin="zoomminus.mouseover" end="zoomminus.mouseout"/>
                        </use>
                        <path d="M-4,0h8" fill="none" stroke="white" stroke-width="1.5" pointer-events="none"/>
                </g>
                <g id="dirArrow">
                        <path fill="none" stroke="white" stroke-width="1.5" d="M0,-3.0v7 M-2.5,-0.5L0,-3.0L2.5,-0.5"/>
                </g>
               <g id="resetDef">
                       <use xlink:href="#rim2" fill="#404040">
                               <set attributeName="fill" to="#808080" begin="reset.mouseover" end="reset.mouseout"/>
                       </use>
               </g>
        </defs>

<script type="text/javascript">
var viewWidth = 844;
var viewHeight = 430;
var sectionId = 'dynsection-2';
</script>
<script xlink:href="../../svgpan.js"/>
<svg id="graph" class="graph">
<g id="viewport">
<title>stride::GenPopBuilder::Build</title>
<polygon fill="white" stroke="none" points="-4,4 -4,-426 840,-426 840,4 -4,4"/>
<!-- Node1 -->
<g id="node1" class="node"><title>Node1</title>
<polygon fill="#bfbfbf" stroke="black" points="0,-196 0,-226 112,-226 112,-196 0,-196"/>
<text text-anchor="start" x="8" y="-214" font-family="Helvetica,sans-Serif" font-size="10.00">stride::GenPopBuilder</text>
<text text-anchor="middle" x="56" y="-203" font-family="Helvetica,sans-Serif" font-size="10.00">::Build</text>
</g>
<!-- Node2 -->
<g id="node2" class="node"><title>Node2</title>
<g id="a_node2"><a xlink:href="../../d0/d33/a00027.html#af4e88fa853549968f99fcc36143bdb9d" target="_top" xlink:title="Generate and store the Geo part of the GeoGrid. ">
<polygon fill="white" stroke="black" points="148.5,-343 148.5,-373 313.5,-373 313.5,-343 148.5,-343"/>
<text text-anchor="start" x="156.5" y="-361" font-family="Helvetica,sans-Serif" font-size="10.00">gengeopop::GenGeoPopController</text>
<text text-anchor="middle" x="231" y="-350" font-family="Helvetica,sans-Serif" font-size="10.00">::GenGeo</text>
</a>
</g>
</g>
<!-- Node1&#45;&gt;Node2 -->
<g id="edge1" class="edge"><title>Node1&#45;&gt;Node2</title>
<path fill="none" stroke="midnightblue" d="M74.8624,-226.178C105.633,-252.324 168.744,-305.95 204.257,-336.126"/>
<polygon fill="midnightblue" stroke="midnightblue" points="202.348,-339.097 212.235,-342.905 206.881,-333.762 202.348,-339.097"/>
</g>
<!-- Node5 -->
<g id="node5" class="node"><title>Node5</title>
<g id="a_node5"><a xlink:href="../../d0/d33/a00027.html#a6bde216b89db11c44c7bf05468973e96" target="_top" xlink:title="Populate and store the Pop part of the GeoGrid. ">
<polygon fill="white" stroke="black" points="148.5,-245 148.5,-275 313.5,-275 313.5,-245 148.5,-245"/>
<text text-anchor="start" x="156.5" y="-263" font-family="Helvetica,sans-Serif" font-size="10.00">gengeopop::GenGeoPopController</text>
<text text-anchor="middle" x="231" y="-252" font-family="Helvetica,sans-Serif" font-size="10.00">::GenPop</text>
</a>
</g>
</g>
<!-- Node1&#45;&gt;Node5 -->
<g id="edge4" class="edge"><title>Node1&#45;&gt;Node5</title>
<path fill="none" stroke="midnightblue" d="M110.317,-226.101C128.242,-231.179 148.408,-236.89 167.006,-242.158"/>
<polygon fill="midnightblue" stroke="midnightblue" points="166.283,-245.591 176.859,-244.948 168.191,-238.856 166.283,-245.591"/>
</g>
<!-- Node8 -->
<g id="node8" class="node"><title>Node8</title>
<g id="a_node8"><a xlink:href="../../d0/d33/a00027.html#a6604a432e13d491593bd2a996fba8ab9" target="_top" xlink:title="Get the generated GeoGrid. ">
<polygon fill="white" stroke="black" points="148.5,-196 148.5,-226 313.5,-226 313.5,-196 148.5,-196"/>
<text text-anchor="start" x="156.5" y="-214" font-family="Helvetica,sans-Serif" font-size="10.00">gengeopop::GenGeoPopController</text>
<text text-anchor="middle" x="231" y="-203" font-family="Helvetica,sans-Serif" font-size="10.00">::GetGeoGrid</text>
</a>
</g>
</g>
<!-- Node1&#45;&gt;Node8 -->
<g id="edge7" class="edge"><title>Node1&#45;&gt;Node8</title>
<path fill="none" stroke="midnightblue" d="M112.214,-211C120.548,-211 129.33,-211 138.187,-211"/>
<polygon fill="midnightblue" stroke="midnightblue" points="138.198,-214.5 148.198,-211 138.198,-207.5 138.198,-214.5"/>
</g>
<!-- Node9 -->
<g id="node9" class="node"><title>Node9</title>
<g id="a_node9"><a xlink:href="../../d0/d33/a00027.html#a5d80eb0492fba3112f7fb0571d386e30" target="_top" xlink:title="Reads the data files. ">
<polygon fill="white" stroke="black" points="148.5,-147 148.5,-177 313.5,-177 313.5,-147 148.5,-147"/>
<text text-anchor="start" x="156.5" y="-165" font-family="Helvetica,sans-Serif" font-size="10.00">gengeopop::GenGeoPopController</text>
<text text-anchor="middle" x="231" y="-154" font-family="Helvetica,sans-Serif" font-size="10.00">::ReadDataFiles</text>
</a>
</g>
</g>
<!-- Node1&#45;&gt;Node9 -->
<g id="edge8" class="edge"><title>Node1&#45;&gt;Node9</title>
<path fill="none" stroke="midnightblue" d="M110.317,-195.899C128.242,-190.821 148.408,-185.11 167.006,-179.842"/>
<polygon fill="midnightblue" stroke="midnightblue" points="168.191,-183.144 176.859,-177.052 166.283,-176.409 168.191,-183.144"/>
</g>
<!-- Node18 -->
<g id="node18" class="node"><title>Node18</title>
<g id="a_node18"><a xlink:href="../../d0/d33/a00027.html#a9cf6765fbb7556eca86a128311e25939" target="_top" xlink:title="Use the given Population storage during generation. ">
<polygon fill="white" stroke="black" points="148.5,-98 148.5,-128 313.5,-128 313.5,-98 148.5,-98"/>
<text text-anchor="start" x="156.5" y="-116" font-family="Helvetica,sans-Serif" font-size="10.00">gengeopop::GenGeoPopController</text>
<text text-anchor="middle" x="231" y="-105" font-family="Helvetica,sans-Serif" font-size="10.00">::UsePopulation</text>
</a>
</g>
</g>
<!-- Node1&#45;&gt;Node18 -->
<g id="edge19" class="edge"><title>Node1&#45;&gt;Node18</title>
<path fill="none" stroke="midnightblue" d="M72.1197,-195.803C89.1892,-179.423 118.451,-153.61 148,-138 152.219,-135.771 156.668,-133.708 161.222,-131.805"/>
<polygon fill="midnightblue" stroke="midnightblue" points="162.633,-135.012 170.68,-128.12 160.091,-128.49 162.633,-135.012"/>
</g>
<!-- Node3 -->
<g id="node3" class="node"><title>Node3</title>
<g id="a_node3"><a xlink:href="../../d4/d8c/a00035.html#a6737fcd21eb9c18d2e3f910891b88fca" target="_top" xlink:title="Add a PartialGenerator to use when generating. ">
<polygon fill="white" stroke="black" points="355.5,-392 355.5,-422 504.5,-422 504.5,-392 355.5,-392"/>
<text text-anchor="start" x="363.5" y="-410" font-family="Helvetica,sans-Serif" font-size="10.00">gengeopop::GeoGridGenerator</text>
<text text-anchor="middle" x="430" y="-399" font-family="Helvetica,sans-Serif" font-size="10.00">::AddPartialGenerator</text>
</a>
</g>
</g>
<!-- Node2&#45;&gt;Node3 -->
<g id="edge2" class="edge"><title>Node2&#45;&gt;Node3</title>
<path fill="none" stroke="midnightblue" d="M292.445,-373.035C313.435,-378.255 337.149,-384.154 358.854,-389.553"/>
<polygon fill="midnightblue" stroke="midnightblue" points="358.12,-392.976 368.669,-391.994 359.81,-386.183 358.12,-392.976"/>
</g>
<!-- Node4 -->
<g id="node4" class="node"><title>Node4</title>
<g id="a_node4"><a xlink:href="../../d4/d8c/a00035.html#ae69d73e903115ac2abea1d77e1bd2a93" target="_top" xlink:title="gengeopop::GeoGridGenerator\l::GenerateGeoGrid">
<polygon fill="white" stroke="black" points="355.5,-343 355.5,-373 504.5,-373 504.5,-343 355.5,-343"/>
<text text-anchor="start" x="363.5" y="-361" font-family="Helvetica,sans-Serif" font-size="10.00">gengeopop::GeoGridGenerator</text>
<text text-anchor="middle" x="430" y="-350" font-family="Helvetica,sans-Serif" font-size="10.00">::GenerateGeoGrid</text>
</a>
</g>
</g>
<!-- Node2&#45;&gt;Node4 -->
<g id="edge3" class="edge"><title>Node2&#45;&gt;Node4</title>
<path fill="none" stroke="midnightblue" d="M313.549,-358C324.058,-358 334.831,-358 345.372,-358"/>
<polygon fill="midnightblue" stroke="midnightblue" points="345.391,-361.5 355.391,-358 345.391,-354.5 345.391,-361.5"/>
</g>
<!-- Node6 -->
<g id="node6" class="node"><title>Node6</title>
<g id="a_node6"><a xlink:href="../../d8/d41/a00038.html#a68e37467896ed3bc3cddf201282585ad" target="_top" xlink:title="Add a PartialPopulator to use when populating. ">
<polygon fill="white" stroke="black" points="356.5,-294 356.5,-324 503.5,-324 503.5,-294 356.5,-294"/>
<text text-anchor="start" x="364.5" y="-312" font-family="Helvetica,sans-Serif" font-size="10.00">gengeopop::GeoGridPopulator</text>
<text text-anchor="middle" x="430" y="-301" font-family="Helvetica,sans-Serif" font-size="10.00">::AddPartialPopulator</text>
</a>
</g>
</g>
<!-- Node5&#45;&gt;Node6 -->
<g id="edge5" class="edge"><title>Node5&#45;&gt;Node6</title>
<path fill="none" stroke="midnightblue" d="M292.445,-275.035C313.435,-280.255 337.149,-286.154 358.854,-291.553"/>
<polygon fill="midnightblue" stroke="midnightblue" points="358.12,-294.976 368.669,-293.994 359.81,-288.183 358.12,-294.976"/>
</g>
<!-- Node7 -->
<g id="node7" class="node"><title>Node7</title>
<g id="a_node7"><a xlink:href="../../d8/d41/a00038.html#a1fa2934bb8d3335c17883c56887da917" target="_top" xlink:title="gengeopop::GeoGridPopulator\l::PopulateGeoGrid">
<polygon fill="white" stroke="black" points="356.5,-245 356.5,-275 503.5,-275 503.5,-245 356.5,-245"/>
<text text-anchor="start" x="364.5" y="-263" font-family="Helvetica,sans-Serif" font-size="10.00">gengeopop::GeoGridPopulator</text>
<text text-anchor="middle" x="430" y="-252" font-family="Helvetica,sans-Serif" font-size="10.00">::PopulateGeoGrid</text>
</a>
</g>
</g>
<!-- Node5&#45;&gt;Node7 -->
<g id="edge6" class="edge"><title>Node5&#45;&gt;Node7</title>
<path fill="none" stroke="midnightblue" d="M313.549,-260C324.298,-260 335.325,-260 346.096,-260"/>
<polygon fill="midnightblue" stroke="midnightblue" points="346.328,-263.5 356.328,-260 346.328,-256.5 346.328,-263.5"/>
</g>
<!-- Node10 -->
<g id="node10" class="node"><title>Node10</title>
<g id="a_node10"><a xlink:href="../../db/df3/a00034.html#ae840dd7732fd6c16ab759adacdd7c35a" target="_top" xlink:title="Fill the input and calculated parts of the GeoGridConfig based on information in the provided GeoGrid...">
<polygon fill="white" stroke="black" points="363,-196 363,-226 497,-226 497,-196 363,-196"/>
<text text-anchor="start" x="371" y="-214" font-family="Helvetica,sans-Serif" font-size="10.00">gengeopop::GeoGridConfig</text>
<text text-anchor="middle" x="430" y="-203" font-family="Helvetica,sans-Serif" font-size="10.00">::Calculate</text>
</a>
</g>
</g>
<!-- Node9&#45;&gt;Node10 -->
<g id="edge9" class="edge"><title>Node9&#45;&gt;Node10</title>
<path fill="none" stroke="midnightblue" d="M292.445,-177.035C313.435,-182.255 337.149,-188.154 358.854,-193.553"/>
<polygon fill="midnightblue" stroke="midnightblue" points="358.12,-196.976 368.669,-195.994 359.81,-190.183 358.12,-196.976"/>
</g>
<!-- Node11 -->
<g id="node11" class="node"><title>Node11</title>
<g id="a_node11"><a xlink:href="../../df/d03/a00062.html#a5bd351c7082a71cba781c129490e6755" target="_top" xlink:title="Create a CitiesReader based on an absolute Boost Filesystem Path pointing to the input file...">
<polygon fill="white" stroke="black" points="363,-147 363,-177 497,-177 497,-147 363,-147"/>
<text text-anchor="start" x="371" y="-165" font-family="Helvetica,sans-Serif" font-size="10.00">gengeopop::ReaderFactory</text>
<text text-anchor="middle" x="430" y="-154" font-family="Helvetica,sans-Serif" font-size="10.00">::CreateCitiesReader</text>
</a>
</g>
</g>
<!-- Node9&#45;&gt;Node11 -->
<g id="edge10" class="edge"><title>Node9&#45;&gt;Node11</title>
<path fill="none" stroke="midnightblue" d="M313.549,-162C326.496,-162 339.845,-162 352.665,-162"/>
<polygon fill="midnightblue" stroke="midnightblue" points="352.816,-165.5 362.816,-162 352.816,-158.5 352.816,-165.5"/>
</g>
<!-- Node13 -->
<g id="node13" class="node"><title>Node13</title>
<g id="a_node13"><a xlink:href="../../df/d03/a00062.html#aafc60dfb9e6337c0c57ec46cd9e02d71" target="_top" xlink:title="Create a CommutesReader based on an absolute Boost Filesystem Path pointing to the input file...">
<polygon fill="white" stroke="black" points="363,-98 363,-128 497,-128 497,-98 363,-98"/>
<text text-anchor="start" x="371" y="-116" font-family="Helvetica,sans-Serif" font-size="10.00">gengeopop::ReaderFactory</text>
<text text-anchor="middle" x="430" y="-105" font-family="Helvetica,sans-Serif" font-size="10.00">::CreateCommutesReader</text>
</a>
</g>
</g>
<!-- Node9&#45;&gt;Node13 -->
<g id="edge12" class="edge"><title>Node9&#45;&gt;Node13</title>
<path fill="none" stroke="midnightblue" d="M292.445,-146.965C313.435,-141.745 337.149,-135.846 358.854,-130.447"/>
<polygon fill="midnightblue" stroke="midnightblue" points="359.81,-133.817 368.669,-128.006 358.12,-127.024 359.81,-133.817"/>
</g>
<!-- Node16 -->
<g id="node16" class="node"><title>Node16</title>
<g id="a_node16"><a xlink:href="../../df/d03/a00062.html#afd1bf47bd92f5bf43cd032da257454b5" target="_top" xlink:title="Create a HouseholdReader based on the filename of the input file, relative to the data directory...">
<polygon fill="white" stroke="black" points="363,-49 363,-79 497,-79 497,-49 363,-49"/>
<text text-anchor="start" x="371" y="-67" font-family="Helvetica,sans-Serif" font-size="10.00">gengeopop::ReaderFactory</text>
<text text-anchor="middle" x="430" y="-56" font-family="Helvetica,sans-Serif" font-size="10.00">::CreateHouseholdReader</text>
</a>
</g>
</g>
<!-- Node9&#45;&gt;Node16 -->
<g id="edge15" class="edge"><title>Node9&#45;&gt;Node16</title>
<path fill="none" stroke="midnightblue" d="M296.115,-146.883C302.427,-144.112 308.517,-140.846 314,-137 335.833,-121.688 328.248,-104.427 350,-89 352.699,-87.0859 355.55,-85.314 358.505,-83.6741"/>
<polygon fill="midnightblue" stroke="midnightblue" points="360.233,-86.7239 367.632,-79.1404 357.119,-80.4548 360.233,-86.7239"/>
</g>
<!-- Node17 -->
<g id="node17" class="node"><title>Node17</title>
<g id="a_node17"><a xlink:href="../../df/d03/a00062.html#ab65132d784c62a45167c2dd8e7b097d8" target="_top" xlink:title="Create a SubMunicipalitiesReader based on the filename of the input file, relative to the data direct...">
<polygon fill="white" stroke="black" points="350,-0 350,-30 510,-30 510,-0 350,-0"/>
<text text-anchor="start" x="358" y="-18" font-family="Helvetica,sans-Serif" font-size="10.00">gengeopop::ReaderFactory</text>
<text text-anchor="middle" x="430" y="-7" font-family="Helvetica,sans-Serif" font-size="10.00">::CreateSubMunicipalitiesReader</text>
</a>
</g>
</g>
<!-- Node9&#45;&gt;Node17 -->
<g id="edge17" class="edge"><title>Node9&#45;&gt;Node17</title>
<path fill="none" stroke="midnightblue" d="M300.161,-146.926C305.183,-144.156 309.884,-140.878 314,-137 347.468,-105.465 316.699,-71.7114 350,-40 351.651,-38.4282 353.399,-36.9552 355.228,-35.5748"/>
<polygon fill="midnightblue" stroke="midnightblue" points="357.203,-38.4657 363.7,-30.0963 353.402,-32.5877 357.203,-38.4657"/>
</g>
<!-- Node12 -->
<g id="node12" class="node"><title>Node12</title>
<g id="a_node12"><a xlink:href="../../df/d03/a00062.html#a301c922d893444c635c375f4c0326568" target="_top" xlink:title="Create an istream based on the provided Boost Filesystem Path. ">
<polygon fill="white" stroke="black" points="546,-147 546,-177 680,-177 680,-147 546,-147"/>
<text text-anchor="start" x="554" y="-165" font-family="Helvetica,sans-Serif" font-size="10.00">gengeopop::ReaderFactory</text>
<text text-anchor="middle" x="613" y="-154" font-family="Helvetica,sans-Serif" font-size="10.00">::OpenFile</text>
</a>
</g>
</g>
<!-- Node11&#45;&gt;Node12 -->
<g id="edge11" class="edge"><title>Node11&#45;&gt;Node12</title>
<path fill="none" stroke="midnightblue" d="M497.113,-162C509.624,-162 522.806,-162 535.603,-162"/>
<polygon fill="midnightblue" stroke="midnightblue" points="535.763,-165.5 545.763,-162 535.763,-158.5 535.763,-165.5"/>
</g>
<!-- Node14 -->
<g id="node14" class="node"><title>Node14</title>
<g id="a_node14"><a xlink:href="../../d1/db7/a00157.html#aafd39e698c442fd0917915d085c9aa1a" target="_top" xlink:title="/// Return data dir (only relevant when use_install_dirs mode is active) ">
<polygon fill="white" stroke="black" points="564,-49 564,-79 662,-79 662,-49 564,-49"/>
<text text-anchor="start" x="572" y="-67" font-family="Helvetica,sans-Serif" font-size="10.00">stride::util::FileSys</text>
<text text-anchor="middle" x="613" y="-56" font-family="Helvetica,sans-Serif" font-size="10.00">::GetDataDir</text>
</a>
</g>
</g>
<!-- Node13&#45;&gt;Node14 -->
<g id="edge13" class="edge"><title>Node13&#45;&gt;Node14</title>
<path fill="none" stroke="midnightblue" d="M486.783,-97.8986C508.131,-92.1193 532.517,-85.5176 554.062,-79.685"/>
<polygon fill="midnightblue" stroke="midnightblue" points="555.002,-83.0566 563.74,-77.065 553.172,-76.2998 555.002,-83.0566"/>
</g>
<!-- Node15 -->
<g id="node15" class="node"><title>Node15</title>
<g id="a_node15"><a xlink:href="../../d1/db7/a00157.html#a811a1d113f57785952045d9541c95db5" target="_top" xlink:title="Return paths. ">
<polygon fill="white" stroke="black" points="716,-54.5 716,-73.5 836,-73.5 836,-54.5 716,-54.5"/>
<text text-anchor="middle" x="776" y="-61.5" font-family="Helvetica,sans-Serif" font-size="10.00">stride::util::FileSys::Get</text>
</a>
</g>
</g>
<!-- Node14&#45;&gt;Node15 -->
<g id="edge14" class="edge"><title>Node14&#45;&gt;Node15</title>
<path fill="none" stroke="midnightblue" d="M662.305,-64C676.002,-64 691.188,-64 705.86,-64"/>
<polygon fill="midnightblue" stroke="midnightblue" points="705.91,-67.5001 715.91,-64 705.91,-60.5001 705.91,-67.5001"/>
</g>
<!-- Node16&#45;&gt;Node14 -->
<g id="edge16" class="edge"><title>Node16&#45;&gt;Node14</title>
<path fill="none" stroke="midnightblue" d="M497.113,-64C515.687,-64 535.742,-64 553.818,-64"/>
<polygon fill="midnightblue" stroke="midnightblue" points="553.918,-67.5001 563.918,-64 553.918,-60.5001 553.918,-67.5001"/>
</g>
<!-- Node17&#45;&gt;Node14 -->
<g id="edge18" class="edge"><title>Node17&#45;&gt;Node14</title>
<path fill="none" stroke="midnightblue" d="M486.783,-30.1014C508.131,-35.8807 532.517,-42.4824 554.062,-48.315"/>
<polygon fill="midnightblue" stroke="midnightblue" points="553.172,-51.7002 563.74,-50.935 555.002,-44.9434 553.172,-51.7002"/>
</g>
</g>
</svg>
        <g id="navigator" transform="translate(0 0)" fill="#404254">
                <rect fill="#f2f5e9" fill-opacity="0.5" stroke="#606060" stroke-width=".5" x="0" y="0" width="60" height="60"/>
                <use id="zoomplus" xlink:href="#zoomPlus" x="17" y="9" onmousedown="handleZoom(evt,'in')"/>
                <use id="zoomminus" xlink:href="#zoomMin" x="42" y="9" onmousedown="handleZoom(evt,'out')"/>
                <use id="reset" xlink:href="#resetDef" x="30" y="36" onmousedown="handleReset()"/>
                <g id="arrowUp" xlink:href="#dirArrow" transform="translate(30 24)" onmousedown="handlePan(0,-1)">
                  <use xlink:href="#rim" fill="#404040">
                        <set attributeName="fill" to="#808080" begin="arrowUp.mouseover" end="arrowUp.mouseout"/>
                  </use>
                  <path fill="none" stroke="white" stroke-width="1.5" d="M0,-3.0v7 M-2.5,-0.5L0,-3.0L2.5,-0.5"/>
                </g>
                <g id="arrowRight" xlink:href="#dirArrow" transform="rotate(90) translate(36 -43)" onmousedown="handlePan(1,0)">
                  <use xlink:href="#rim" fill="#404040">
                        <set attributeName="fill" to="#808080" begin="arrowRight.mouseover" end="arrowRight.mouseout"/>
                  </use>
                  <path fill="none" stroke="white" stroke-width="1.5" d="M0,-3.0v7 M-2.5,-0.5L0,-3.0L2.5,-0.5"/>
                </g>
                <g id="arrowDown" xlink:href="#dirArrow" transform="rotate(180) translate(-30 -48)" onmousedown="handlePan(0,1)">
                  <use xlink:href="#rim" fill="#404040">
                        <set attributeName="fill" to="#808080" begin="arrowDown.mouseover" end="arrowDown.mouseout"/>
                  </use>
                  <path fill="none" stroke="white" stroke-width="1.5" d="M0,-3.0v7 M-2.5,-0.5L0,-3.0L2.5,-0.5"/>
                </g>
                <g id="arrowLeft" xlink:href="#dirArrow" transform="rotate(270) translate(-36 17)" onmousedown="handlePan(-1,0)">
                  <use xlink:href="#rim" fill="#404040">
                        <set attributeName="fill" to="#808080" begin="arrowLeft.mouseover" end="arrowLeft.mouseout"/>
                  </use>
                  <path fill="none" stroke="white" stroke-width="1.5" d="M0,-3.0v7 M-2.5,-0.5L0,-3.0L2.5,-0.5"/>
                </g>
        </g>
        <svg viewBox="0 0 15 15" width="100%" height="30px" preserveAspectRatio="xMaxYMin meet">
         <g id="arrow_out" transform="scale(0.3 0.3)">
          <a xlink:href="a00111_a788b0ff4e222be4a8ec8b598b99e5b8a_cgraph_org.svg" target="_base">
           <rect id="button" ry="5" rx="5" y="6" x="6" height="38" width="38"
                fill="#f2f5e9" fill-opacity="0.5" stroke="#606060" stroke-width="1.0"/>
           <path id="arrow"
             d="M 11.500037,31.436501 C 11.940474,20.09759 22.043105,11.32322 32.158766,21.979434 L 37.068811,17.246167 C 37.068811,17.246167 37.088388,32 37.088388,32 L 22.160133,31.978069 C 22.160133,31.978069 26.997745,27.140456 26.997745,27.140456 C 18.528582,18.264221 13.291696,25.230495 11.500037,31.436501 z"
             style="fill:#404040;"/>
          </a>
         </g>
        </svg>
</svg>
