<?xml version="1.0" encoding="UTF-8" standalone="no"?>
<!DOCTYPE svg PUBLIC "-//W3C//DTD SVG 1.1//EN"
 "http://www.w3.org/Graphics/SVG/1.1/DTD/svg11.dtd">
<!-- Generated by graphviz version 2.36.0 (20140111.2315)
 -->
<!-- Title: gengeopop::HouseholdReader Pages: 1 -->
<svg width="293pt" height="528pt"
 viewBox="0.00 0.00 293.00 528.00" xmlns="http://www.w3.org/2000/svg" xmlns:xlink="http://www.w3.org/1999/xlink">
<g id="graph0" class="graph" transform="scale(1 1) rotate(0) translate(4 524)">
<title>gengeopop::HouseholdReader</title>
<polygon fill="white" stroke="none" points="-4,4 -4,-524 289,-524 289,4 -4,4"/>
<!-- Node1 -->
<g id="node1" class="node"><title>Node1</title>
<polygon fill="#bfbfbf" stroke="black" points="77.5,-1 77.5,-135 242.5,-135 242.5,-1 77.5,-1"/>
<text text-anchor="middle" x="160" y="-123" font-family="Helvetica,sans-Serif" font-size="10.00">gengeopop::HouseholdReader</text>
<polyline fill="none" stroke="black" points="77.5,-116 242.5,-116 "/>
<text text-anchor="middle" x="160" y="-104" font-family="Helvetica,sans-Serif" font-size="10.00"> </text>
<polyline fill="none" stroke="black" points="77.5,-97 242.5,-97 "/>
<text text-anchor="start" x="85.5" y="-85" font-family="Helvetica,sans-Serif" font-size="10.00">+ HouseholdReader()</text>
<text text-anchor="start" x="85.5" y="-74" font-family="Helvetica,sans-Serif" font-size="10.00">+ GetHouseHolds()</text>
<text text-anchor="start" x="85.5" y="-63" font-family="Helvetica,sans-Serif" font-size="10.00">+ GetFractionCompulsoryPupils()</text>
<text text-anchor="start" x="85.5" y="-52" font-family="Helvetica,sans-Serif" font-size="10.00">+ GetFraction1826Years()</text>
<text text-anchor="start" x="85.5" y="-41" font-family="Helvetica,sans-Serif" font-size="10.00">+ GetFraction1865Years()</text>
<text text-anchor="start" x="85.5" y="-30" font-family="Helvetica,sans-Serif" font-size="10.00">+ GetTotalPersonsInHouseholds()</text>
<text text-anchor="start" x="85.5" y="-19" font-family="Helvetica,sans-Serif" font-size="10.00">+ AverageHouseholdSize()</text>
<text text-anchor="start" x="85.5" y="-8" font-family="Helvetica,sans-Serif" font-size="10.00">+ ~HouseholdReader()</text>
</g>
<!-- Node2 -->
<g id="node2" class="node"><title>Node2</title>
<polygon fill="white" stroke="#bfbfbf" points="15,-217 15,-285 175,-285 175,-217 15,-217"/>
<text text-anchor="start" x="23" y="-273" font-family="Helvetica,sans-Serif" font-size="10.00">std::vector&lt; std::shared</text>
<text text-anchor="middle" x="95" y="-262" font-family="Helvetica,sans-Serif" font-size="10.00">_ptr&lt; gengeopop::Household &gt; &gt;</text>
<polyline fill="none" stroke="#bfbfbf" points="15,-255 175,-255 "/>
<text text-anchor="middle" x="95" y="-243" font-family="Helvetica,sans-Serif" font-size="10.00"> </text>
<polyline fill="none" stroke="#bfbfbf" points="15,-236 175,-236 "/>
<text text-anchor="middle" x="95" y="-224" font-family="Helvetica,sans-Serif" font-size="10.00"> </text>
</g>
<!-- Node2&#45;&gt;Node1 -->
<g id="edge1" class="edge"><title>Node2&#45;&gt;Node1</title>
<path fill="none" stroke="#404040" d="M95.6368,-216.752C96.8582,-197.887 99.8672,-174.104 107,-154 107.898,-151.47 108.88,-148.936 109.933,-146.407"/>
<polygon fill="none" stroke="#404040" points="109.98,-146.305 108.833,-139.185 114.964,-135.388 116.111,-142.508 109.98,-146.305"/>
<text text-anchor="middle" x="143" y="-173.5" font-family="Helvetica,sans-Serif" font-size="10.00"> #m_households</text>
</g>
<!-- Node3 -->
<g id="node3" class="node"><title>Node3</title>
<polygon fill="white" stroke="#bfbfbf" points="-0.5,-345 -0.5,-413 118.5,-413 118.5,-345 -0.5,-345"/>
<text text-anchor="start" x="7.5" y="-401" font-family="Helvetica,sans-Serif" font-size="10.00">shared_ptr&lt; gengeopop</text>
<text text-anchor="middle" x="59" y="-390" font-family="Helvetica,sans-Serif" font-size="10.00">::Household &gt;</text>
<polyline fill="none" stroke="#bfbfbf" points="-0.5,-383 118.5,-383 "/>
<text text-anchor="middle" x="59" y="-371" font-family="Helvetica,sans-Serif" font-size="10.00"> </text>
<polyline fill="none" stroke="#bfbfbf" points="-0.5,-364 118.5,-364 "/>
<text text-anchor="middle" x="59" y="-352" font-family="Helvetica,sans-Serif" font-size="10.00"> </text>
</g>
<!-- Node3&#45;&gt;Node2 -->
<g id="edge2" class="edge"><title>Node3&#45;&gt;Node2</title>
<path fill="none" stroke="#404040" d="M68.4586,-344.895C72.642,-330.253 77.6267,-312.807 82.1406,-297.008"/>
<polygon fill="none" stroke="#404040" points="82.1829,-296.86 79.9851,-289.992 85.4796,-285.321 87.6773,-292.189 82.1829,-296.86"/>
<text text-anchor="middle" x="104.5" y="-312.5" font-family="Helvetica,sans-Serif" font-size="10.00"> +elements</text>
</g>
<!-- Node4 -->
<g id="node4" class="node"><title>Node4</title>
<g id="a_node4"><a xlink:title="STL class. ">
<polygon fill="white" stroke="#bfbfbf" points="136.5,-350.5 136.5,-407.5 223.5,-407.5 223.5,-350.5 136.5,-350.5"/>
<text text-anchor="middle" x="180" y="-395.5" font-family="Helvetica,sans-Serif" font-size="10.00">std::vector&lt; T &gt;</text>
<polyline fill="none" stroke="#bfbfbf" points="136.5,-388.5 223.5,-388.5 "/>
<text text-anchor="middle" x="180" y="-376.5" font-family="Helvetica,sans-Serif" font-size="10.00"> </text>
<polyline fill="none" stroke="#bfbfbf" points="136.5,-369.5 223.5,-369.5 "/>
<text text-anchor="middle" x="180" y="-357.5" font-family="Helvetica,sans-Serif" font-size="10.00"> </text>
</a>
</g>
</g>
<!-- Node4&#45;&gt;Node2 -->
<g id="edge3" class="edge"><title>Node4&#45;&gt;Node2</title>
<path fill="none" stroke="orange" d="M157.651,-341.772C150,-329.653 141.28,-316.142 133,-304 128.779,-297.81 124.165,-291.299 119.652,-285.058"/>
<polygon fill="orange" stroke="orange" points="154.73,-343.703 163.011,-350.311 160.659,-339.981 154.73,-343.703"/>
<text text-anchor="start" x="147" y="-318" font-family="Helvetica,sans-Serif" font-size="10.00"> &lt; std::shared_ptr&lt;</text>
<text text-anchor="middle" x="207.5" y="-307" font-family="Helvetica,sans-Serif" font-size="10.00"> gengeopop::Household &gt; &gt;</text>
</g>
<!-- Node5 -->
<g id="node5" class="node"><title>Node5</title>
<polygon fill="white" stroke="#bfbfbf" points="165.5,-462.5 165.5,-519.5 194.5,-519.5 194.5,-462.5 165.5,-462.5"/>
<text text-anchor="middle" x="180" y="-507.5" font-family="Helvetica,sans-Serif" font-size="10.00">T</text>
<polyline fill="none" stroke="#bfbfbf" points="165.5,-500.5 194.5,-500.5 "/>
<text text-anchor="middle" x="180" y="-488.5" font-family="Helvetica,sans-Serif" font-size="10.00"> </text>
<polyline fill="none" stroke="#bfbfbf" points="165.5,-481.5 194.5,-481.5 "/>
<text text-anchor="middle" x="180" y="-469.5" font-family="Helvetica,sans-Serif" font-size="10.00"> </text>
</g>
<!-- Node5&#45;&gt;Node4 -->
<g id="edge4" class="edge"><title>Node5&#45;&gt;Node4</title>
<path fill="none" stroke="#404040" d="M180,-462.242C180,-449.475 180,-434.088 180,-420.094"/>
<polygon fill="none" stroke="#404040" points="180,-419.749 176,-413.749 180,-407.749 184,-413.749 180,-419.749"/>
<text text-anchor="middle" x="204.5" y="-435.5" font-family="Helvetica,sans-Serif" font-size="10.00"> +elements</text>
</g>
<!-- Node6 -->
<g id="node6" class="node"><title>Node6</title>
<polygon fill="white" stroke="#bfbfbf" points="193.5,-222.5 193.5,-279.5 222.5,-279.5 222.5,-222.5 193.5,-222.5"/>
<text text-anchor="middle" x="208" y="-267.5" font-family="Helvetica,sans-Serif" font-size="10.00">int</text>
<polyline fill="none" stroke="#bfbfbf" points="193.5,-260.5 222.5,-260.5 "/>
<text text-anchor="middle" x="208" y="-248.5" font-family="Helvetica,sans-Serif" font-size="10.00"> </text>
<polyline fill="none" stroke="#bfbfbf" points="193.5,-241.5 222.5,-241.5 "/>
<text text-anchor="middle" x="208" y="-229.5" font-family="Helvetica,sans-Serif" font-size="10.00"> </text>
</g>
<!-- Node6&#45;&gt;Node1 -->
<g id="edge5" class="edge"><title>Node6&#45;&gt;Node1</title>
<path fill="none" stroke="#404040" d="M200.605,-222.115C195.268,-201.989 187.781,-173.758 180.688,-147.01"/>
<polygon fill="none" stroke="#404040" points="180.649,-146.864 175.245,-142.09 177.573,-135.265 182.977,-140.039 180.649,-146.864"/>
<text text-anchor="middle" x="239.5" y="-190" font-family="Helvetica,sans-Serif" font-size="10.00"> #m_total</text>
<text text-anchor="middle" x="239.5" y="-179" font-family="Helvetica,sans-Serif" font-size="10.00">#m_total1865Years</text>
<text text-anchor="middle" x="239.5" y="-168" font-family="Helvetica,sans-Serif" font-size="10.00">#m_totalCompulsory</text>
<text text-anchor="middle" x="239.5" y="-157" font-family="Helvetica,sans-Serif" font-size="10.00">#m_total1826Years</text>
</g>
</g>
</svg>
