<?xml version="1.0" encoding="UTF-8" standalone="no"?>
<!DOCTYPE svg PUBLIC "-//W3C//DTD SVG 1.1//EN"
 "http://www.w3.org/Graphics/SVG/1.1/DTD/svg11.dtd">
<!-- Generated by graphviz version 2.36.0 (20140111.2315)
 -->
<!-- Title: GuiControllerBackend.h Pages: 1 -->
<svg width="346pt" height="140pt"
 viewBox="0.00 0.00 346.00 140.00" xmlns="http://www.w3.org/2000/svg" xmlns:xlink="http://www.w3.org/1999/xlink">
<g id="graph0" class="graph" transform="scale(1 1) rotate(0) translate(4 136)">
<title>GuiControllerBackend.h</title>
<polygon fill="white" stroke="none" points="-4,4 -4,-136 342,-136 342,4 -4,4"/>
<!-- Node1 -->
<g id="node1" class="node"><title>Node1</title>
<polygon fill="#bfbfbf" stroke="black" points="150,-112.5 150,-131.5 270,-131.5 270,-112.5 150,-112.5"/>
<text text-anchor="middle" x="210" y="-119.5" font-family="Helvetica,sans-Serif" font-size="10.00">GuiControllerBackend.h</text>
</g>
<!-- Node2 -->
<g id="node2" class="node"><title>Node2</title>
<g id="a_node2"><a xlink:href="../../d4/d5b/a00294.html" target="_top" xlink:title="GuiController.h">
<polygon fill="white" stroke="black" points="107,-56.5 107,-75.5 189,-75.5 189,-56.5 107,-56.5"/>
<text text-anchor="middle" x="148" y="-63.5" font-family="Helvetica,sans-Serif" font-size="10.00">GuiController.h</text>
</a>
</g>
</g>
<!-- Node1&#45;&gt;Node2 -->
<g id="edge1" class="edge"><title>Node1&#45;&gt;Node2</title>
<path fill="none" stroke="midnightblue" d="M192.246,-105.537C181.192,-95.9087 167.369,-83.8694 158.143,-75.8339"/>
<polygon fill="midnightblue" stroke="midnightblue" points="190.199,-108.395 200.039,-112.324 194.797,-103.117 190.199,-108.395"/>
</g>
<!-- Node6 -->
<g id="node6" class="node"><title>Node6</title>
<g id="a_node6"><a xlink:href="../../d9/d5e/a00295.html" target="_top" xlink:title="GuiControllerBackend.cpp">
<polygon fill="white" stroke="black" points="207.5,-56.5 207.5,-75.5 338.5,-75.5 338.5,-56.5 207.5,-56.5"/>
<text text-anchor="middle" x="273" y="-63.5" font-family="Helvetica,sans-Serif" font-size="10.00">GuiControllerBackend.cpp</text>
</a>
</g>
</g>
<!-- Node1&#45;&gt;Node6 -->
<g id="edge5" class="edge"><title>Node1&#45;&gt;Node6</title>
<path fill="none" stroke="midnightblue" d="M228.04,-105.537C239.273,-95.9087 253.319,-83.8694 262.694,-75.8339"/>
<polygon fill="midnightblue" stroke="midnightblue" points="225.437,-103.159 220.122,-112.324 229.992,-108.473 225.437,-103.159"/>
</g>
<!-- Node3 -->
<g id="node3" class="node"><title>Node3</title>
<g id="a_node3"><a xlink:href="../../d6/d82/a00293.html" target="_top" xlink:title="GuiController.cpp">
<polygon fill="white" stroke="black" points="0,-0.5 0,-19.5 92,-19.5 92,-0.5 0,-0.5"/>
<text text-anchor="middle" x="46" y="-7.5" font-family="Helvetica,sans-Serif" font-size="10.00">GuiController.cpp</text>
</a>
</g>
</g>
<!-- Node2&#45;&gt;Node3 -->
<g id="edge2" class="edge"><title>Node2&#45;&gt;Node3</title>
<path fill="none" stroke="midnightblue" d="M122.669,-51.5895C103.81,-41.6052 78.6158,-28.2672 62.3474,-19.6545"/>
<polygon fill="midnightblue" stroke="midnightblue" points="121.136,-54.7383 131.612,-56.324 124.412,-48.5518 121.136,-54.7383"/>
</g>
<!-- Node4 -->
<g id="node4" class="node"><title>Node4</title>
<g id="a_node4"><a xlink:href="../../d4/dce/a00337.html" target="_top" xlink:title="Launcher.cpp">
<polygon fill="white" stroke="black" points="110.5,-0.5 110.5,-19.5 185.5,-19.5 185.5,-0.5 110.5,-0.5"/>
<text text-anchor="middle" x="148" y="-7.5" font-family="Helvetica,sans-Serif" font-size="10.00">Launcher.cpp</text>
</a>
</g>
</g>
<!-- Node2&#45;&gt;Node4 -->
<g id="edge3" class="edge"><title>Node2&#45;&gt;Node4</title>
<path fill="none" stroke="midnightblue" d="M148,-45.8045C148,-36.9102 148,-26.7798 148,-19.7511"/>
<polygon fill="midnightblue" stroke="midnightblue" points="144.5,-46.083 148,-56.083 151.5,-46.083 144.5,-46.083"/>
</g>
<!-- Node5 -->
<g id="node5" class="node"><title>Node5</title>
<g id="a_node5"><a xlink:href="../../d0/d48/a00351.html" target="_top" xlink:title="Main program: command line handling. ">
<polygon fill="white" stroke="black" points="203,-0.5 203,-19.5 259,-19.5 259,-0.5 203,-0.5"/>
<text text-anchor="middle" x="231" y="-7.5" font-family="Helvetica,sans-Serif" font-size="10.00">main.cpp</text>
</a>
</g>
</g>
<!-- Node2&#45;&gt;Node5 -->
<g id="edge4" class="edge"><title>Node2&#45;&gt;Node5</title>
<path fill="none" stroke="midnightblue" d="M170.099,-50.6221C185.262,-40.7574 204.883,-27.9919 217.698,-19.6545"/>
<polygon fill="midnightblue" stroke="midnightblue" points="167.809,-47.9367 161.335,-56.324 171.626,-53.8042 167.809,-47.9367"/>
</g>
</g>
</svg>
