<?xml version="1.0" encoding="UTF-8" standalone="no"?>
<!DOCTYPE svg PUBLIC "-//W3C//DTD SVG 1.1//EN"
 "http://www.w3.org/Graphics/SVG/1.1/DTD/svg11.dtd">
<!-- Generated by graphviz version 2.36.0 (20140111.2315)
 -->
<!-- Title: ContactPoolListModel.h Pages: 1 -->
<svg width="375pt" height="196pt"
 viewBox="0.00 0.00 375.00 196.00" xmlns="http://www.w3.org/2000/svg" xmlns:xlink="http://www.w3.org/1999/xlink">
<g id="graph0" class="graph" transform="scale(1 1) rotate(0) translate(4 192)">
<title>ContactPoolListModel.h</title>
<polygon fill="white" stroke="none" points="-4,4 -4,-192 371,-192 371,4 -4,4"/>
<!-- Node1 -->
<g id="node1" class="node"><title>Node1</title>
<polygon fill="#bfbfbf" stroke="black" points="147.5,-168.5 147.5,-187.5 268.5,-187.5 268.5,-168.5 147.5,-168.5"/>
<text text-anchor="middle" x="208" y="-175.5" font-family="Helvetica,sans-Serif" font-size="10.00">ContactPoolListModel.h</text>
</g>
<!-- Node2 -->
<g id="node2" class="node"><title>Node2</title>
<g id="a_node2"><a xlink:href="../../d7/ddb/a00361.html" target="_top" xlink:title="Map.h">
<polygon fill="white" stroke="black" points="120,-112.5 120,-131.5 164,-131.5 164,-112.5 120,-112.5"/>
<text text-anchor="middle" x="142" y="-119.5" font-family="Helvetica,sans-Serif" font-size="10.00">Map.h</text>
</a>
</g>
</g>
<!-- Node1&#45;&gt;Node2 -->
<g id="edge1" class="edge"><title>Node1&#45;&gt;Node2</title>
<path fill="none" stroke="midnightblue" d="M189.446,-161.82C177.622,-152.145 162.714,-139.948 152.797,-131.834"/>
<polygon fill="midnightblue" stroke="midnightblue" points="187.44,-164.7 197.396,-168.324 191.873,-159.283 187.44,-164.7"/>
</g>
<!-- Node4 -->
<g id="node4" class="node"><title>Node4</title>
<g id="a_node4"><a xlink:href="../../d0/d65/a00360.html" target="_top" xlink:title="Map.cpp">
<polygon fill="white" stroke="black" points="189,-56.5 189,-75.5 243,-75.5 243,-56.5 189,-56.5"/>
<text text-anchor="middle" x="216" y="-63.5" font-family="Helvetica,sans-Serif" font-size="10.00">Map.cpp</text>
</a>
</g>
</g>
<!-- Node1&#45;&gt;Node4 -->
<g id="edge8" class="edge"><title>Node1&#45;&gt;Node4</title>
<path fill="none" stroke="midnightblue" d="M209.357,-158.348C211.109,-134.254 214.087,-93.3079 215.375,-75.5914"/>
<polygon fill="midnightblue" stroke="midnightblue" points="205.862,-158.141 208.628,-168.368 212.844,-158.649 205.862,-158.141"/>
</g>
<!-- Node9 -->
<g id="node9" class="node"><title>Node9</title>
<g id="a_node9"><a xlink:href="../../d4/d9a/a00246.html" target="_top" xlink:title="ContactPoolListModel.cpp">
<polygon fill="white" stroke="black" points="236.5,-112.5 236.5,-131.5 367.5,-131.5 367.5,-112.5 236.5,-112.5"/>
<text text-anchor="middle" x="302" y="-119.5" font-family="Helvetica,sans-Serif" font-size="10.00">ContactPoolListModel.cpp</text>
</a>
</g>
</g>
<!-- Node1&#45;&gt;Node9 -->
<g id="edge9" class="edge"><title>Node1&#45;&gt;Node9</title>
<path fill="none" stroke="midnightblue" d="M232.062,-163.177C249.359,-153.241 272.148,-140.149 286.935,-131.655"/>
<polygon fill="midnightblue" stroke="midnightblue" points="230.03,-160.308 223.103,-168.324 233.517,-166.378 230.03,-160.308"/>
</g>
<!-- Node3 -->
<g id="node3" class="node"><title>Node3</title>
<g id="a_node3"><a xlink:href="../../df/df1/a00357.html" target="_top" xlink:title="main.cpp">
<polygon fill="white" stroke="black" points="23,-56.5 23,-75.5 79,-75.5 79,-56.5 23,-56.5"/>
<text text-anchor="middle" x="51" y="-63.5" font-family="Helvetica,sans-Serif" font-size="10.00">main.cpp</text>
</a>
</g>
</g>
<!-- Node2&#45;&gt;Node3 -->
<g id="edge2" class="edge"><title>Node2&#45;&gt;Node3</title>
<path fill="none" stroke="midnightblue" d="M118.706,-107.177C101.961,-97.2407 79.8996,-84.1492 65.5844,-75.6545"/>
<polygon fill="midnightblue" stroke="midnightblue" points="116.993,-110.231 127.379,-112.324 120.566,-104.211 116.993,-110.231"/>
</g>
<!-- Node2&#45;&gt;Node4 -->
<g id="edge3" class="edge"><title>Node2&#45;&gt;Node4</title>
<path fill="none" stroke="midnightblue" d="M162.034,-106.38C175.409,-96.6204 192.559,-84.1057 203.894,-75.8339"/>
<polygon fill="midnightblue" stroke="midnightblue" points="159.904,-103.602 153.889,-112.324 164.03,-109.257 159.904,-103.602"/>
</g>
<!-- Node5 -->
<g id="node5" class="node"><title>Node5</title>
<g id="a_node5"><a xlink:href="../../d9/d9b/a00363.html" target="_top" xlink:title="MapViewer.h">
<polygon fill="white" stroke="black" points="97,-56.5 97,-75.5 171,-75.5 171,-56.5 97,-56.5"/>
<text text-anchor="middle" x="134" y="-63.5" font-family="Helvetica,sans-Serif" font-size="10.00">MapViewer.h</text>
</a>
</g>
</g>
<!-- Node2&#45;&gt;Node5 -->
<g id="edge4" class="edge"><title>Node2&#45;&gt;Node5</title>
<path fill="none" stroke="midnightblue" d="M139.2,-102.101C137.872,-93.1357 136.349,-82.8579 135.296,-75.7511"/>
<polygon fill="midnightblue" stroke="midnightblue" points="135.751,-102.704 140.679,-112.083 142.676,-101.678 135.751,-102.704"/>
</g>
<!-- Node6 -->
<g id="node6" class="node"><title>Node6</title>
<g id="a_node6"><a xlink:href="../../d0/dc5/a00343.html" target="_top" xlink:title="Launcher.cpp">
<polygon fill="white" stroke="black" points="-0.5,-0.5 -0.5,-19.5 74.5,-19.5 74.5,-0.5 -0.5,-0.5"/>
<text text-anchor="middle" x="37" y="-7.5" font-family="Helvetica,sans-Serif" font-size="10.00">Launcher.cpp</text>
</a>
</g>
</g>
<!-- Node5&#45;&gt;Node6 -->
<g id="edge5" class="edge"><title>Node5&#45;&gt;Node6</title>
<path fill="none" stroke="midnightblue" d="M109.665,-51.4526C91.7574,-41.4835 67.9463,-28.2279 52.5461,-19.6545"/>
<polygon fill="midnightblue" stroke="midnightblue" points="107.975,-54.5179 118.415,-56.324 111.38,-48.4018 107.975,-54.5179"/>
</g>
<!-- Node7 -->
<g id="node7" class="node"><title>Node7</title>
<g id="a_node7"><a xlink:href="../../de/dd7/a00362.html" target="_top" xlink:title="MapViewer.cpp">
<polygon fill="white" stroke="black" points="92,-0.5 92,-19.5 176,-19.5 176,-0.5 92,-0.5"/>
<text text-anchor="middle" x="134" y="-7.5" font-family="Helvetica,sans-Serif" font-size="10.00">MapViewer.cpp</text>
</a>
</g>
</g>
<!-- Node5&#45;&gt;Node7 -->
<g id="edge6" class="edge"><title>Node5&#45;&gt;Node7</title>
<path fill="none" stroke="midnightblue" d="M134,-45.8045C134,-36.9102 134,-26.7798 134,-19.7511"/>
<polygon fill="midnightblue" stroke="midnightblue" points="130.5,-46.083 134,-56.083 137.5,-46.083 130.5,-46.083"/>
</g>
<!-- Node8 -->
<g id="node8" class="node"><title>Node8</title>
<g id="a_node8"><a xlink:href="../../df/d73/a00358.html" target="_top" xlink:title="Main program: command line handling. ">
<polygon fill="white" stroke="black" points="194,-0.5 194,-19.5 250,-19.5 250,-0.5 194,-0.5"/>
<text text-anchor="middle" x="222" y="-7.5" font-family="Helvetica,sans-Serif" font-size="10.00">main.cpp</text>
</a>
</g>
</g>
<!-- Node5&#45;&gt;Node8 -->
<g id="edge7" class="edge"><title>Node5&#45;&gt;Node8</title>
<path fill="none" stroke="midnightblue" d="M156.977,-50.9005C173.113,-40.9986 194.181,-28.0705 207.896,-19.6545"/>
<polygon fill="midnightblue" stroke="midnightblue" points="154.831,-48.1106 148.139,-56.324 158.493,-54.0769 154.831,-48.1106"/>
</g>
</g>
</svg>
