<?xml version="1.0" encoding="UTF-8" standalone="no"?>
<!DOCTYPE svg PUBLIC "-//W3C//DTD SVG 1.1//EN"
 "http://www.w3.org/Graphics/SVG/1.1/DTD/svg11.dtd">
<!-- Generated by graphviz version 2.36.0 (20140111.2315)
 -->
<!-- Title: Infector.cpp Pages: 1 -->
<svg width="2182pt" height="388pt"
 viewBox="0.00 0.00 2182.00 388.00" xmlns="http://www.w3.org/2000/svg" xmlns:xlink="http://www.w3.org/1999/xlink">
<g id="graph0" class="graph" transform="scale(1 1) rotate(0) translate(4 384)">
<title>Infector.cpp</title>
<polygon fill="white" stroke="none" points="-4,4 -4,-384 2178,-384 2178,4 -4,4"/>
<!-- Node1 -->
<g id="node1" class="node"><title>Node1</title>
<polygon fill="#bfbfbf" stroke="black" points="641,-360.5 641,-379.5 709,-379.5 709,-360.5 641,-360.5"/>
<text text-anchor="middle" x="675" y="-367.5" font-family="Helvetica,sans-Serif" font-size="10.00">Infector.cpp</text>
</g>
<!-- Node2 -->
<g id="node2" class="node"><title>Node2</title>
<g id="a_node2"><a xlink:href="../../d8/dfc/a00327.html" target="_top" xlink:title="Header for the Infector class. ">
<polygon fill="white" stroke="black" points="612,-248.5 612,-267.5 670,-267.5 670,-248.5 612,-248.5"/>
<text text-anchor="middle" x="641" y="-255.5" font-family="Helvetica,sans-Serif" font-size="10.00">Infector.h</text>
</a>
</g>
</g>
<!-- Node1&#45;&gt;Node2 -->
<g id="edge1" class="edge"><title>Node1&#45;&gt;Node2</title>
<path fill="none" stroke="midnightblue" d="M672.332,-360.368C666.82,-342.537 654.073,-301.295 646.648,-277.272"/>
<polygon fill="midnightblue" stroke="midnightblue" points="649.953,-276.112 643.656,-267.591 643.265,-278.179 649.953,-276.112"/>
</g>
<!-- Node9 -->
<g id="node9" class="node"><title>Node9</title>
<g id="a_node9"><a xlink:href="../../de/db1/a00197.html" target="_top" xlink:title="Header file for the Calendar class. ">
<polygon fill="white" stroke="black" points="75,-186.5 75,-205.5 179,-205.5 179,-186.5 75,-186.5"/>
<text text-anchor="middle" x="127" y="-193.5" font-family="Helvetica,sans-Serif" font-size="10.00">calendar/Calendar.h</text>
</a>
</g>
</g>
<!-- Node1&#45;&gt;Node9 -->
<g id="edge41" class="edge"><title>Node1&#45;&gt;Node9</title>
<path fill="none" stroke="midnightblue" d="M647.825,-360.47C557.534,-332.131 267.429,-241.076 164.033,-208.624"/>
<polygon fill="midnightblue" stroke="midnightblue" points="164.929,-205.236 154.339,-205.581 162.832,-211.915 164.929,-205.236"/>
</g>
<!-- Node33 -->
<g id="node33" class="node"><title>Node33</title>
<g id="a_node33"><a xlink:href="../../d9/d21/a00240.html" target="_top" xlink:title="Header for the core ContactPool class. ">
<polygon fill="white" stroke="black" points="1027,-186.5 1027,-205.5 1127,-205.5 1127,-186.5 1027,-186.5"/>
<text text-anchor="middle" x="1077" y="-193.5" font-family="Helvetica,sans-Serif" font-size="10.00">pool/ContactPool.h</text>
</a>
</g>
</g>
<!-- Node1&#45;&gt;Node33 -->
<g id="edge42" class="edge"><title>Node1&#45;&gt;Node33</title>
<path fill="none" stroke="midnightblue" d="M694.935,-360.47C760.569,-332.388 970.131,-242.725 1047.73,-209.522"/>
<polygon fill="midnightblue" stroke="midnightblue" points="1049.13,-212.733 1056.94,-205.581 1046.37,-206.297 1049.13,-212.733"/>
</g>
<!-- Node35 -->
<g id="node35" class="node"><title>Node35</title>
<g id="a_node35"><a xlink:href="../../df/dee/a00369.html" target="_top" xlink:title="Header file for the Person class. ">
<polygon fill="white" stroke="black" points="1371,-304.5 1371,-323.5 1445,-323.5 1445,-304.5 1371,-304.5"/>
<text text-anchor="middle" x="1408" y="-311.5" font-family="Helvetica,sans-Serif" font-size="10.00">pop/Person.h</text>
</a>
</g>
</g>
<!-- Node1&#45;&gt;Node35 -->
<g id="edge49" class="edge"><title>Node1&#45;&gt;Node35</title>
<path fill="none" stroke="midnightblue" d="M709.371,-366.468C828.402,-357.699 1223.23,-328.612 1360.48,-318.501"/>
<polygon fill="midnightblue" stroke="midnightblue" points="1360.96,-321.975 1370.68,-317.75 1360.45,-314.994 1360.96,-321.975"/>
</g>
<!-- Node3 -->
<g id="node3" class="node"><title>Node3</title>
<g id="a_node3"><a xlink:href="../../da/d2e/a00238.html" target="_top" xlink:title="Header for the ContactLogMode class. ">
<polygon fill="white" stroke="black" points="921.5,-118.5 921.5,-137.5 1020.5,-137.5 1020.5,-118.5 921.5,-118.5"/>
<text text-anchor="middle" x="971" y="-125.5" font-family="Helvetica,sans-Serif" font-size="10.00">ContactLogMode.h</text>
</a>
</g>
</g>
<!-- Node2&#45;&gt;Node3 -->
<g id="edge2" class="edge"><title>Node2&#45;&gt;Node3</title>
<path fill="none" stroke="midnightblue" d="M611.989,-256.049C521.953,-252.801 251.775,-240.721 226,-212 216.501,-201.415 216.21,-190.317 226,-180 278.538,-124.632 836.538,-155.459 912,-144 918.514,-143.011 925.355,-141.614 931.977,-140.066"/>
<polygon fill="midnightblue" stroke="midnightblue" points="933.261,-143.354 942.123,-137.548 931.575,-136.56 933.261,-143.354"/>
</g>
<!-- Node5 -->
<g id="node5" class="node"><title>Node5</title>
<g id="a_node5"><a xlink:href="../../d4/dd3/a00428.html" target="_top" xlink:title="Header for the TransmissionProfile class. ">
<polygon fill="white" stroke="black" points="404.5,-186.5 404.5,-205.5 515.5,-205.5 515.5,-186.5 404.5,-186.5"/>
<text text-anchor="middle" x="460" y="-193.5" font-family="Helvetica,sans-Serif" font-size="10.00">TransmissionProfile.h</text>
</a>
</g>
</g>
<!-- Node2&#45;&gt;Node5 -->
<g id="edge4" class="edge"><title>Node2&#45;&gt;Node5</title>
<path fill="none" stroke="midnightblue" d="M615.067,-248.403C583.75,-238.022 530.91,-220.506 495.744,-208.849"/>
<polygon fill="midnightblue" stroke="midnightblue" points="496.478,-205.405 485.885,-205.581 494.276,-212.049 496.478,-205.405"/>
</g>
<!-- Node7 -->
<g id="node7" class="node"><title>Node7</title>
<g id="a_node7"><a xlink:href="../../d0/d01/a00339.html" target="_top" xlink:title="Header file for LocalDiscussion info policy. ">
<polygon fill="white" stroke="black" points="637,-181 637,-211 775,-211 775,-181 637,-181"/>
<text text-anchor="start" x="645" y="-199" font-family="Helvetica,sans-Serif" font-size="10.00">behaviour/information</text>
<text text-anchor="middle" x="706" y="-188" font-family="Helvetica,sans-Serif" font-size="10.00">_policies/LocalDiscussion.h</text>
</a>
</g>
</g>
<!-- Node2&#45;&gt;Node7 -->
<g id="edge6" class="edge"><title>Node2&#45;&gt;Node7</title>
<path fill="none" stroke="midnightblue" d="M650.313,-248.403C658.869,-240.505 671.9,-228.477 683.206,-218.041"/>
<polygon fill="midnightblue" stroke="midnightblue" points="685.707,-220.495 690.681,-211.141 680.959,-215.352 685.707,-220.495"/>
</g>
<!-- Node8 -->
<g id="node8" class="node"><title>Node8</title>
<g id="a_node8"><a xlink:href="../../d7/ddb/a00361.html" target="_top" xlink:title="behaviour/information\l_policies/NoLocalInformation.h">
<polygon fill="white" stroke="black" points="235.5,-181 235.5,-211 386.5,-211 386.5,-181 235.5,-181"/>
<text text-anchor="start" x="243.5" y="-199" font-family="Helvetica,sans-Serif" font-size="10.00">behaviour/information</text>
<text text-anchor="middle" x="311" y="-188" font-family="Helvetica,sans-Serif" font-size="10.00">_policies/NoLocalInformation.h</text>
</a>
</g>
</g>
<!-- Node2&#45;&gt;Node8 -->
<g id="edge7" class="edge"><title>Node2&#45;&gt;Node8</title>
<path fill="none" stroke="midnightblue" d="M611.715,-251.675C563.98,-242.996 467.621,-225.476 396.792,-212.599"/>
<polygon fill="midnightblue" stroke="midnightblue" points="397.001,-209.079 386.536,-210.734 395.748,-215.966 397.001,-209.079"/>
</g>
<!-- Node2&#45;&gt;Node9 -->
<g id="edge8" class="edge"><title>Node2&#45;&gt;Node9</title>
<path fill="none" stroke="midnightblue" d="M611.748,-255.315C540.017,-250.913 349.804,-237.594 193,-212 185.745,-210.816 178.094,-209.314 170.674,-207.722"/>
<polygon fill="midnightblue" stroke="midnightblue" points="171.279,-204.271 160.758,-205.515 169.758,-211.104 171.279,-204.271"/>
</g>
<!-- Node13 -->
<g id="node13" class="node"><title>Node13</title>
<polygon fill="white" stroke="#bfbfbf" points="772,-118.5 772,-137.5 824,-137.5 824,-118.5 772,-118.5"/>
<text text-anchor="middle" x="798" y="-125.5" font-family="Helvetica,sans-Serif" font-size="10.00">memory</text>
</g>
<!-- Node2&#45;&gt;Node13 -->
<g id="edge39" class="edge"><title>Node2&#45;&gt;Node13</title>
<path fill="none" stroke="midnightblue" d="M670.189,-256.371C702.985,-253.994 755.369,-244.875 784,-212 799.339,-194.387 800.982,-166.414 800.052,-147.883"/>
<polygon fill="midnightblue" stroke="midnightblue" points="803.527,-147.43 799.239,-137.742 796.549,-147.989 803.527,-147.43"/>
</g>
<!-- Node15 -->
<g id="node15" class="node"><title>Node15</title>
<g id="a_node15"><a xlink:href="../../d8/d64/a00181.html" target="_top" xlink:title="Contact profile. ">
<polygon fill="white" stroke="black" points="869,-186.5 869,-205.5 1009,-205.5 1009,-186.5 869,-186.5"/>
<text text-anchor="middle" x="939" y="-193.5" font-family="Helvetica,sans-Serif" font-size="10.00">contact/AgeContactProfile.h</text>
</a>
</g>
</g>
<!-- Node2&#45;&gt;Node15 -->
<g id="edge15" class="edge"><title>Node2&#45;&gt;Node15</title>
<path fill="none" stroke="midnightblue" d="M670.116,-251.138C720.267,-241.04 823.612,-220.233 886.562,-207.558"/>
<polygon fill="midnightblue" stroke="midnightblue" points="887.571,-210.925 896.684,-205.52 886.19,-204.063 887.571,-210.925"/>
</g>
<!-- Node22 -->
<g id="node22" class="node"><title>Node22</title>
<g id="a_node22"><a xlink:href="../../d7/d40/a00236.html" target="_top" xlink:title="Header for the ContactHandler class. ">
<polygon fill="white" stroke="black" points="1525,-186.5 1525,-205.5 1653,-205.5 1653,-186.5 1525,-186.5"/>
<text text-anchor="middle" x="1589" y="-193.5" font-family="Helvetica,sans-Serif" font-size="10.00">contact/ContactHandler.h</text>
</a>
</g>
</g>
<!-- Node2&#45;&gt;Node22 -->
<g id="edge25" class="edge"><title>Node2&#45;&gt;Node22</title>
<path fill="none" stroke="midnightblue" d="M670.017,-255.819C774.154,-251.482 1138.8,-235.463 1439,-212 1463.66,-210.073 1490.55,-207.525 1514.67,-205.076"/>
<polygon fill="midnightblue" stroke="midnightblue" points="1515.23,-208.537 1524.82,-204.035 1514.52,-201.574 1515.23,-208.537"/>
</g>
<!-- Node32 -->
<g id="node32" class="node"><title>Node32</title>
<polygon fill="white" stroke="#bfbfbf" points="533.5,-186.5 533.5,-205.5 618.5,-205.5 618.5,-186.5 533.5,-186.5"/>
<text text-anchor="middle" x="576" y="-193.5" font-family="Helvetica,sans-Serif" font-size="10.00">spdlog/spdlog.h</text>
</g>
<!-- Node2&#45;&gt;Node32 -->
<g id="edge40" class="edge"><title>Node2&#45;&gt;Node32</title>
<path fill="none" stroke="midnightblue" d="M631.687,-248.403C621.551,-239.047 605.136,-223.895 592.748,-212.46"/>
<polygon fill="midnightblue" stroke="midnightblue" points="595.018,-209.792 585.296,-205.581 590.27,-214.935 595.018,-209.792"/>
</g>
<!-- Node4 -->
<g id="node4" class="node"><title>Node4</title>
<polygon fill="white" stroke="#bfbfbf" points="1325.5,-0.5 1325.5,-19.5 1366.5,-19.5 1366.5,-0.5 1325.5,-0.5"/>
<text text-anchor="middle" x="1346" y="-7.5" font-family="Helvetica,sans-Serif" font-size="10.00">string</text>
</g>
<!-- Node3&#45;&gt;Node4 -->
<g id="edge3" class="edge"><title>Node3&#45;&gt;Node4</title>
<path fill="none" stroke="midnightblue" d="M977.841,-118.264C990.462,-102.836 1019.06,-70.9843 1051,-56 1140.04,-14.23 1259.25,-9.66423 1314.92,-10.0939"/>
<polygon fill="midnightblue" stroke="midnightblue" points="1315.13,-13.5971 1325.18,-10.2369 1315.23,-6.59776 1315.13,-13.5971"/>
</g>
<!-- Node6 -->
<g id="node6" class="node"><title>Node6</title>
<polygon fill="white" stroke="#bfbfbf" points="574.5,-113 574.5,-143 675.5,-143 675.5,-113 574.5,-113"/>
<text text-anchor="start" x="582.5" y="-131" font-family="Helvetica,sans-Serif" font-size="10.00">boost/property_tree</text>
<text text-anchor="middle" x="625" y="-120" font-family="Helvetica,sans-Serif" font-size="10.00">/ptree.hpp</text>
</g>
<!-- Node5&#45;&gt;Node6 -->
<g id="edge5" class="edge"><title>Node5&#45;&gt;Node6</title>
<path fill="none" stroke="midnightblue" d="M481.571,-186.372C506.508,-176.397 548.225,-159.71 580.258,-146.897"/>
<polygon fill="midnightblue" stroke="midnightblue" points="581.875,-150.02 589.859,-143.056 579.275,-143.521 581.875,-150.02"/>
</g>
<!-- Node9&#45;&gt;Node6 -->
<g id="edge10" class="edge"><title>Node9&#45;&gt;Node6</title>
<path fill="none" stroke="midnightblue" d="M161.458,-186.444C171.576,-184.128 182.694,-181.774 193,-180 324.46,-157.367 480.171,-141.687 564.085,-134.14"/>
<polygon fill="midnightblue" stroke="midnightblue" points="564.554,-137.612 574.203,-133.238 563.932,-130.64 564.554,-137.612"/>
</g>
<!-- Node10 -->
<g id="node10" class="node"><title>Node10</title>
<polygon fill="white" stroke="#bfbfbf" points="62.5,-113 62.5,-143 191.5,-143 191.5,-113 62.5,-113"/>
<text text-anchor="start" x="70.5" y="-131" font-family="Helvetica,sans-Serif" font-size="10.00">boost/date_time/gregorian</text>
<text text-anchor="middle" x="127" y="-120" font-family="Helvetica,sans-Serif" font-size="10.00">/gregorian.hpp</text>
</g>
<!-- Node9&#45;&gt;Node10 -->
<g id="edge9" class="edge"><title>Node9&#45;&gt;Node10</title>
<path fill="none" stroke="midnightblue" d="M127,-186.372C127,-177.971 127,-164.811 127,-153.213"/>
<polygon fill="midnightblue" stroke="midnightblue" points="130.5,-153.181 127,-143.181 123.5,-153.181 130.5,-153.181"/>
</g>
<!-- Node11 -->
<g id="node11" class="node"><title>Node11</title>
<polygon fill="white" stroke="#bfbfbf" points="210,-118.5 210,-137.5 266,-137.5 266,-118.5 210,-118.5"/>
<text text-anchor="middle" x="238" y="-125.5" font-family="Helvetica,sans-Serif" font-size="10.00">algorithm</text>
</g>
<!-- Node9&#45;&gt;Node11 -->
<g id="edge11" class="edge"><title>Node9&#45;&gt;Node11</title>
<path fill="none" stroke="midnightblue" d="M141.511,-186.372C160.125,-175.304 192.637,-155.972 214.727,-142.838"/>
<polygon fill="midnightblue" stroke="midnightblue" points="216.679,-145.75 223.485,-137.63 213.101,-139.733 216.679,-145.75"/>
</g>
<!-- Node12 -->
<g id="node12" class="node"><title>Node12</title>
<polygon fill="white" stroke="#bfbfbf" points="-0.5,-118.5 -0.5,-137.5 44.5,-137.5 44.5,-118.5 -0.5,-118.5"/>
<text text-anchor="middle" x="22" y="-125.5" font-family="Helvetica,sans-Serif" font-size="10.00">cstdlib</text>
</g>
<!-- Node9&#45;&gt;Node12 -->
<g id="edge12" class="edge"><title>Node9&#45;&gt;Node12</title>
<path fill="none" stroke="midnightblue" d="M113.273,-186.372C95.7439,-175.353 65.185,-156.145 44.2954,-143.014"/>
<polygon fill="midnightblue" stroke="midnightblue" points="46.0593,-139.989 35.7303,-137.63 42.334,-145.915 46.0593,-139.989"/>
</g>
<!-- Node9&#45;&gt;Node13 -->
<g id="edge13" class="edge"><title>Node9&#45;&gt;Node13</title>
<path fill="none" stroke="midnightblue" d="M160.053,-186.465C170.526,-184.036 182.192,-181.615 193,-180 409.405,-147.663 466.329,-166.281 684,-144 710.058,-141.333 739.354,-137.459 761.723,-134.316"/>
<polygon fill="midnightblue" stroke="midnightblue" points="762.38,-137.758 771.788,-132.886 761.395,-130.827 762.38,-137.758"/>
</g>
<!-- Node14 -->
<g id="node14" class="node"><title>Node14</title>
<polygon fill="white" stroke="#bfbfbf" points="1303,-56.5 1303,-75.5 1347,-75.5 1347,-56.5 1303,-56.5"/>
<text text-anchor="middle" x="1325" y="-63.5" font-family="Helvetica,sans-Serif" font-size="10.00">vector</text>
</g>
<!-- Node9&#45;&gt;Node14 -->
<g id="edge14" class="edge"><title>Node9&#45;&gt;Node14</title>
<path fill="none" stroke="midnightblue" d="M162.794,-186.476C237.192,-169.146 414.174,-129.928 565,-112 883.824,-74.103 972.254,-128.45 1292.76,-75.7911"/>
<polygon fill="midnightblue" stroke="midnightblue" points="1293.5,-79.215 1302.79,-74.1198 1292.35,-72.31 1293.5,-79.215"/>
</g>
<!-- Node15&#45;&gt;Node6 -->
<g id="edge23" class="edge"><title>Node15&#45;&gt;Node6</title>
<path fill="none" stroke="midnightblue" d="M898.272,-186.439C844.199,-175.074 748.263,-154.909 685.654,-141.749"/>
<polygon fill="midnightblue" stroke="midnightblue" points="686.026,-138.251 675.52,-139.619 684.587,-145.101 686.026,-138.251"/>
</g>
<!-- Node16 -->
<g id="node16" class="node"><title>Node16</title>
<g id="a_node16"><a xlink:href="../../d6/d22/a00245.html" target="_top" xlink:title="Definition of ContactPoolType. ">
<polygon fill="white" stroke="black" points="1151,-118.5 1151,-137.5 1273,-137.5 1273,-118.5 1151,-118.5"/>
<text text-anchor="middle" x="1212" y="-125.5" font-family="Helvetica,sans-Serif" font-size="10.00">pool/ContactPoolType.h</text>
</a>
</g>
</g>
<!-- Node15&#45;&gt;Node16 -->
<g id="edge16" class="edge"><title>Node15&#45;&gt;Node16</title>
<path fill="none" stroke="midnightblue" d="M974.41,-186.439C1023.61,-174.545 1112.67,-153.013 1166.67,-139.959"/>
<polygon fill="midnightblue" stroke="midnightblue" points="1167.76,-143.297 1176.65,-137.546 1166.11,-136.493 1167.76,-143.297"/>
</g>
<!-- Node20 -->
<g id="node20" class="node"><title>Node20</title>
<g id="a_node20"><a xlink:href="../../db/dd9/a00179.html" target="_top" xlink:title="Helpers for age. ">
<polygon fill="white" stroke="black" points="842.5,-118.5 842.5,-137.5 903.5,-137.5 903.5,-118.5 842.5,-118.5"/>
<text text-anchor="middle" x="873" y="-125.5" font-family="Helvetica,sans-Serif" font-size="10.00">pop/Age.h</text>
</a>
</g>
</g>
<!-- Node15&#45;&gt;Node20 -->
<g id="edge22" class="edge"><title>Node15&#45;&gt;Node20</title>
<path fill="none" stroke="midnightblue" d="M930.372,-186.372C919.955,-175.955 902.217,-158.217 889.216,-145.216"/>
<polygon fill="midnightblue" stroke="midnightblue" points="891.387,-142.437 881.841,-137.841 886.437,-147.387 891.387,-142.437"/>
</g>
<!-- Node21 -->
<g id="node21" class="node"><title>Node21</title>
<polygon fill="white" stroke="#bfbfbf" points="1039,-118.5 1039,-137.5 1077,-137.5 1077,-118.5 1039,-118.5"/>
<text text-anchor="middle" x="1058" y="-125.5" font-family="Helvetica,sans-Serif" font-size="10.00">array</text>
</g>
<!-- Node15&#45;&gt;Node21 -->
<g id="edge24" class="edge"><title>Node15&#45;&gt;Node21</title>
<path fill="none" stroke="midnightblue" d="M954.557,-186.372C974.691,-175.205 1009.99,-155.627 1033.68,-142.488"/>
<polygon fill="midnightblue" stroke="midnightblue" points="1035.39,-145.541 1042.44,-137.63 1032,-139.42 1035.39,-145.541"/>
</g>
<!-- Node16&#45;&gt;Node4 -->
<g id="edge18" class="edge"><title>Node16&#45;&gt;Node4</title>
<path fill="none" stroke="midnightblue" d="M1210.62,-118.48C1208.78,-103.948 1207.26,-74.1779 1222,-56 1244.74,-27.9575 1286.49,-17.3877 1315.22,-13.4052"/>
<polygon fill="midnightblue" stroke="midnightblue" points="1315.64,-16.8797 1325.16,-12.2159 1314.81,-9.92932 1315.64,-16.8797"/>
</g>
<!-- Node16&#45;&gt;Node14 -->
<g id="edge21" class="edge"><title>Node16&#45;&gt;Node14</title>
<path fill="none" stroke="midnightblue" d="M1228.19,-118.403C1246.9,-108.468 1277.92,-91.9966 1299.8,-80.3812"/>
<polygon fill="midnightblue" stroke="midnightblue" points="1301.65,-83.3616 1308.84,-75.5806 1298.37,-77.179 1301.65,-83.3616"/>
</g>
<!-- Node17 -->
<g id="node17" class="node"><title>Node17</title>
<polygon fill="white" stroke="#bfbfbf" points="1060.5,-56.5 1060.5,-75.5 1109.5,-75.5 1109.5,-56.5 1060.5,-56.5"/>
<text text-anchor="middle" x="1085" y="-63.5" font-family="Helvetica,sans-Serif" font-size="10.00">cstddef</text>
</g>
<!-- Node16&#45;&gt;Node17 -->
<g id="edge17" class="edge"><title>Node16&#45;&gt;Node17</title>
<path fill="none" stroke="midnightblue" d="M1193.8,-118.403C1172.49,-108.334 1136.97,-91.5522 1112.34,-79.9151"/>
<polygon fill="midnightblue" stroke="midnightblue" points="1113.7,-76.6877 1103.16,-75.5806 1110.71,-83.0169 1113.7,-76.6877"/>
</g>
<!-- Node18 -->
<g id="node18" class="node"><title>Node18</title>
<polygon fill="white" stroke="#bfbfbf" points="1231,-56.5 1231,-75.5 1285,-75.5 1285,-56.5 1231,-56.5"/>
<text text-anchor="middle" x="1258" y="-63.5" font-family="Helvetica,sans-Serif" font-size="10.00">iostream</text>
</g>
<!-- Node16&#45;&gt;Node18 -->
<g id="edge19" class="edge"><title>Node16&#45;&gt;Node18</title>
<path fill="none" stroke="midnightblue" d="M1218.59,-118.403C1225.49,-109.403 1236.5,-95.0408 1245.13,-83.7824"/>
<polygon fill="midnightblue" stroke="midnightblue" points="1248.11,-85.6462 1251.42,-75.5806 1242.56,-81.3872 1248.11,-85.6462"/>
</g>
<!-- Node19 -->
<g id="node19" class="node"><title>Node19</title>
<polygon fill="white" stroke="#bfbfbf" points="1127.5,-56.5 1127.5,-75.5 1174.5,-75.5 1174.5,-56.5 1127.5,-56.5"/>
<text text-anchor="middle" x="1151" y="-63.5" font-family="Helvetica,sans-Serif" font-size="10.00">iterator</text>
</g>
<!-- Node16&#45;&gt;Node19 -->
<g id="edge20" class="edge"><title>Node16&#45;&gt;Node19</title>
<path fill="none" stroke="midnightblue" d="M1203.26,-118.403C1193.84,-109.136 1178.64,-94.1828 1167.05,-82.7876"/>
<polygon fill="midnightblue" stroke="midnightblue" points="1169.31,-80.0978 1159.72,-75.5806 1164.4,-85.0883 1169.31,-80.0978"/>
</g>
<!-- Node23 -->
<g id="node23" class="node"><title>Node23</title>
<g id="a_node23"><a xlink:href="../../db/db9/a00387.html" target="_top" xlink:title="Interface of RNManager. ">
<polygon fill="white" stroke="black" points="1641.5,-118.5 1641.5,-137.5 1734.5,-137.5 1734.5,-118.5 1641.5,-118.5"/>
<text text-anchor="middle" x="1688" y="-125.5" font-family="Helvetica,sans-Serif" font-size="10.00">util/RNManager.h</text>
</a>
</g>
</g>
<!-- Node22&#45;&gt;Node23 -->
<g id="edge26" class="edge"><title>Node22&#45;&gt;Node23</title>
<path fill="none" stroke="midnightblue" d="M1601.94,-186.372C1618.4,-175.403 1647.02,-156.317 1666.71,-143.191"/>
<polygon fill="midnightblue" stroke="midnightblue" points="1668.68,-146.09 1675.05,-137.63 1664.79,-140.265 1668.68,-146.09"/>
</g>
<!-- Node31 -->
<g id="node31" class="node"><title>Node31</title>
<polygon fill="white" stroke="#bfbfbf" points="1365.5,-56.5 1365.5,-75.5 1424.5,-75.5 1424.5,-56.5 1365.5,-56.5"/>
<text text-anchor="middle" x="1395" y="-63.5" font-family="Helvetica,sans-Serif" font-size="10.00">functional</text>
</g>
<!-- Node22&#45;&gt;Node31 -->
<g id="edge38" class="edge"><title>Node22&#45;&gt;Node31</title>
<path fill="none" stroke="midnightblue" d="M1577.73,-186.374C1557.29,-170.856 1512.56,-137.476 1473,-112 1455.58,-100.784 1435.3,-89.1233 1419.78,-80.483"/>
<polygon fill="midnightblue" stroke="midnightblue" points="1421.25,-77.2957 1410.81,-75.5244 1417.87,-83.4231 1421.25,-77.2957"/>
</g>
<!-- Node23&#45;&gt;Node4 -->
<g id="edge36" class="edge"><title>Node23&#45;&gt;Node4</title>
<path fill="none" stroke="midnightblue" d="M1717.93,-118.48C1758.34,-106.679 1826.12,-85.7175 1833,-76 1838.14,-68.7464 1838.99,-62.5682 1833,-56 1802.23,-22.2516 1479.17,-13.4447 1376.88,-11.4937"/>
<polygon fill="midnightblue" stroke="midnightblue" points="1376.66,-7.98925 1366.6,-11.3068 1376.54,-14.9881 1376.66,-7.98925"/>
</g>
<!-- Node23&#45;&gt;Node14 -->
<g id="edge37" class="edge"><title>Node23&#45;&gt;Node14</title>
<path fill="none" stroke="midnightblue" d="M1648.14,-118.454C1637.11,-116.216 1625.11,-113.9 1614,-112 1503,-93.024 1470.96,-99.8012 1357.06,-75.9608"/>
<polygon fill="midnightblue" stroke="midnightblue" points="1357.76,-72.5326 1347.25,-73.8763 1356.31,-79.3796 1357.76,-72.5326"/>
</g>
<!-- Node24 -->
<g id="node24" class="node"><title>Node24</title>
<g id="a_node24"><a xlink:href="../../d5/d05/a00385.html" target="_top" xlink:title="Interface of Random Engine Type. ">
<polygon fill="white" stroke="black" points="1443,-56.5 1443,-75.5 1535,-75.5 1535,-56.5 1443,-56.5"/>
<text text-anchor="middle" x="1489" y="-63.5" font-family="Helvetica,sans-Serif" font-size="10.00">RNEngineType.h</text>
</a>
</g>
</g>
<!-- Node23&#45;&gt;Node24 -->
<g id="edge27" class="edge"><title>Node23&#45;&gt;Node24</title>
<path fill="none" stroke="midnightblue" d="M1659.49,-118.403C1624.76,-107.933 1565.96,-90.2049 1527.31,-78.5501"/>
<polygon fill="midnightblue" stroke="midnightblue" points="1528.04,-75.1164 1517.46,-75.5806 1526.02,-81.8184 1528.04,-75.1164"/>
</g>
<!-- Node25 -->
<g id="node25" class="node"><title>Node25</title>
<polygon fill="white" stroke="#bfbfbf" points="1881,-56.5 1881,-75.5 1959,-75.5 1959,-56.5 1881,-56.5"/>
<text text-anchor="middle" x="1920" y="-63.5" font-family="Helvetica,sans-Serif" font-size="10.00">trng/lcg64.hpp</text>
</g>
<!-- Node23&#45;&gt;Node25 -->
<g id="edge29" class="edge"><title>Node23&#45;&gt;Node25</title>
<path fill="none" stroke="midnightblue" d="M1719.67,-118.449C1727.61,-116.324 1736.11,-114.064 1744,-112 1788.99,-100.224 1840.54,-87.0855 1876.17,-78.0601"/>
<polygon fill="midnightblue" stroke="midnightblue" points="1877.39,-81.3595 1886.23,-75.5128 1875.68,-74.5735 1877.39,-81.3595"/>
</g>
<!-- Node26 -->
<g id="node26" class="node"><title>Node26</title>
<polygon fill="white" stroke="#bfbfbf" points="1977,-56.5 1977,-75.5 2079,-75.5 2079,-56.5 1977,-56.5"/>
<text text-anchor="middle" x="2028" y="-63.5" font-family="Helvetica,sans-Serif" font-size="10.00">trng/lcg64_shift.hpp</text>
</g>
<!-- Node23&#45;&gt;Node26 -->
<g id="edge30" class="edge"><title>Node23&#45;&gt;Node26</title>
<path fill="none" stroke="midnightblue" d="M1717.5,-118.478C1726.01,-116.189 1735.34,-113.841 1744,-112 1765.32,-107.468 1889.74,-88.1737 1966.66,-76.3699"/>
<polygon fill="midnightblue" stroke="midnightblue" points="1967.37,-79.8027 1976.72,-74.8273 1966.31,-72.8836 1967.37,-79.8027"/>
</g>
<!-- Node27 -->
<g id="node27" class="node"><title>Node27</title>
<polygon fill="white" stroke="#bfbfbf" points="2097.5,-56.5 2097.5,-75.5 2174.5,-75.5 2174.5,-56.5 2097.5,-56.5"/>
<text text-anchor="middle" x="2136" y="-63.5" font-family="Helvetica,sans-Serif" font-size="10.00">trng/mrg2.hpp</text>
</g>
<!-- Node23&#45;&gt;Node27 -->
<g id="edge31" class="edge"><title>Node23&#45;&gt;Node27</title>
<path fill="none" stroke="midnightblue" d="M1716.29,-118.496C1725.1,-116.098 1734.9,-113.686 1744,-112 1894.72,-84.0841 1935.29,-97.8615 2087,-76 2087.1,-75.985 2087.21,-75.9699 2087.31,-75.9547"/>
<polygon fill="midnightblue" stroke="midnightblue" points="2087.92,-79.4021 2097.26,-74.4 2086.84,-72.4861 2087.92,-79.4021"/>
</g>
<!-- Node28 -->
<g id="node28" class="node"><title>Node28</title>
<polygon fill="white" stroke="#bfbfbf" points="1553.5,-56.5 1553.5,-75.5 1630.5,-75.5 1630.5,-56.5 1553.5,-56.5"/>
<text text-anchor="middle" x="1592" y="-63.5" font-family="Helvetica,sans-Serif" font-size="10.00">trng/mrg3.hpp</text>
</g>
<!-- Node23&#45;&gt;Node28 -->
<g id="edge32" class="edge"><title>Node23&#45;&gt;Node28</title>
<path fill="none" stroke="midnightblue" d="M1674.25,-118.403C1658.63,-108.646 1632.94,-92.5854 1614.42,-81.0109"/>
<polygon fill="midnightblue" stroke="midnightblue" points="1616.06,-77.9126 1605.73,-75.5806 1612.35,-83.8486 1616.06,-77.9126"/>
</g>
<!-- Node29 -->
<g id="node29" class="node"><title>Node29</title>
<polygon fill="white" stroke="#bfbfbf" points="1648.5,-56.5 1648.5,-75.5 1727.5,-75.5 1727.5,-56.5 1648.5,-56.5"/>
<text text-anchor="middle" x="1688" y="-63.5" font-family="Helvetica,sans-Serif" font-size="10.00">trng/yarn2.hpp</text>
</g>
<!-- Node23&#45;&gt;Node29 -->
<g id="edge33" class="edge"><title>Node23&#45;&gt;Node29</title>
<path fill="none" stroke="midnightblue" d="M1688,-118.403C1688,-109.938 1688,-96.7283 1688,-85.8199"/>
<polygon fill="midnightblue" stroke="midnightblue" points="1691.5,-85.5806 1688,-75.5806 1684.5,-85.5806 1691.5,-85.5806"/>
</g>
<!-- Node30 -->
<g id="node30" class="node"><title>Node30</title>
<polygon fill="white" stroke="#bfbfbf" points="1745.5,-56.5 1745.5,-75.5 1824.5,-75.5 1824.5,-56.5 1745.5,-56.5"/>
<text text-anchor="middle" x="1785" y="-63.5" font-family="Helvetica,sans-Serif" font-size="10.00">trng/yarn3.hpp</text>
</g>
<!-- Node23&#45;&gt;Node30 -->
<g id="edge34" class="edge"><title>Node23&#45;&gt;Node30</title>
<path fill="none" stroke="midnightblue" d="M1701.9,-118.403C1717.74,-108.601 1743.87,-92.4385 1762.6,-80.8526"/>
<polygon fill="midnightblue" stroke="midnightblue" points="1764.46,-83.8178 1771.13,-75.5806 1760.78,-77.8646 1764.46,-83.8178"/>
</g>
<!-- Node23&#45;&gt;Node31 -->
<g id="edge35" class="edge"><title>Node23&#45;&gt;Node31</title>
<path fill="none" stroke="midnightblue" d="M1646.13,-118.493C1635.64,-116.367 1624.41,-114.096 1614,-112 1537.15,-96.5252 1515.43,-93.4074 1434.91,-76.1465"/>
<polygon fill="midnightblue" stroke="midnightblue" points="1435.3,-72.6512 1424.79,-73.9696 1433.83,-79.4946 1435.3,-72.6512"/>
</g>
<!-- Node24&#45;&gt;Node4 -->
<g id="edge28" class="edge"><title>Node24&#45;&gt;Node4</title>
<path fill="none" stroke="midnightblue" d="M1466.34,-56.4435C1442.04,-47.2666 1403.32,-32.6446 1376.39,-22.4744"/>
<polygon fill="midnightblue" stroke="midnightblue" points="1377.29,-19.0736 1366.7,-18.8151 1374.81,-25.6222 1377.29,-19.0736"/>
</g>
<!-- Node33&#45;&gt;Node3 -->
<g id="edge43" class="edge"><title>Node33&#45;&gt;Node3</title>
<path fill="none" stroke="midnightblue" d="M1063.14,-186.372C1045.45,-175.353 1014.6,-156.145 993.508,-143.014"/>
<polygon fill="midnightblue" stroke="midnightblue" points="995.2,-139.945 984.861,-137.63 991.5,-145.887 995.2,-139.945"/>
</g>
<!-- Node33&#45;&gt;Node13 -->
<g id="edge46" class="edge"><title>Node33&#45;&gt;Node13</title>
<path fill="none" stroke="midnightblue" d="M1044.93,-186.494C1036.22,-184.28 1026.77,-181.966 1018,-180 936.265,-161.673 913.059,-168.637 833,-144 830.512,-143.234 827.962,-142.349 825.426,-141.4"/>
<polygon fill="midnightblue" stroke="midnightblue" points="826.473,-138.048 815.891,-137.534 823.843,-144.535 826.473,-138.048"/>
</g>
<!-- Node33&#45;&gt;Node14 -->
<g id="edge48" class="edge"><title>Node33&#45;&gt;Node14</title>
<path fill="none" stroke="midnightblue" d="M1127.33,-193.498C1172.06,-189.789 1237.13,-178.3 1282,-144 1301.34,-129.215 1313.24,-103.093 1319.49,-85.4192"/>
<polygon fill="midnightblue" stroke="midnightblue" points="1322.89,-86.2761 1322.66,-75.6838 1316.23,-84.1075 1322.89,-86.2761"/>
</g>
<!-- Node33&#45;&gt;Node16 -->
<g id="edge44" class="edge"><title>Node33&#45;&gt;Node16</title>
<path fill="none" stroke="midnightblue" d="M1094.65,-186.372C1117.69,-175.106 1158.25,-155.279 1185.12,-142.14"/>
<polygon fill="midnightblue" stroke="midnightblue" points="1186.9,-145.167 1194.35,-137.63 1183.83,-138.878 1186.9,-145.167"/>
</g>
<!-- Node33&#45;&gt;Node21 -->
<g id="edge45" class="edge"><title>Node33&#45;&gt;Node21</title>
<path fill="none" stroke="midnightblue" d="M1074.52,-186.372C1071.69,-176.544 1066.98,-160.202 1063.32,-147.467"/>
<polygon fill="midnightblue" stroke="midnightblue" points="1066.68,-146.483 1060.55,-137.841 1059.95,-148.419 1066.68,-146.483"/>
</g>
<!-- Node34 -->
<g id="node34" class="node"><title>Node34</title>
<polygon fill="white" stroke="#bfbfbf" points="1095,-118.5 1095,-137.5 1133,-137.5 1133,-118.5 1095,-118.5"/>
<text text-anchor="middle" x="1114" y="-125.5" font-family="Helvetica,sans-Serif" font-size="10.00">tuple</text>
</g>
<!-- Node33&#45;&gt;Node34 -->
<g id="edge47" class="edge"><title>Node33&#45;&gt;Node34</title>
<path fill="none" stroke="midnightblue" d="M1081.84,-186.372C1087.46,-176.348 1096.88,-159.546 1104.07,-146.708"/>
<polygon fill="midnightblue" stroke="midnightblue" points="1107.21,-148.275 1109.04,-137.841 1101.1,-144.852 1107.21,-148.275"/>
</g>
<!-- Node35&#45;&gt;Node6 -->
<g id="edge64" class="edge"><title>Node35&#45;&gt;Node6</title>
<path fill="none" stroke="midnightblue" d="M1370.8,-308.96C1281.34,-298.641 1047.7,-268.092 860,-212 824.885,-201.506 818.372,-192.72 784,-180 750.636,-167.653 712.722,-155.423 682.287,-146.037"/>
<polygon fill="midnightblue" stroke="midnightblue" points="683.27,-142.677 672.684,-143.092 681.218,-149.37 683.27,-142.677"/>
</g>
<!-- Node35&#45;&gt;Node16 -->
<g id="edge51" class="edge"><title>Node35&#45;&gt;Node16</title>
<path fill="none" stroke="midnightblue" d="M1414.34,-304.459C1430.47,-281.627 1469.66,-218.319 1439,-180 1419.68,-155.852 1342.24,-142.345 1283.13,-135.389"/>
<polygon fill="midnightblue" stroke="midnightblue" points="1283.4,-131.897 1273.07,-134.246 1282.61,-138.852 1283.4,-131.897"/>
</g>
<!-- Node36 -->
<g id="node36" class="node"><title>Node36</title>
<g id="a_node36"><a xlink:href="../../df/d95/a00299.html" target="_top" xlink:title="Header for the Health class. ">
<polygon fill="white" stroke="black" points="1563,-248.5 1563,-267.5 1653,-267.5 1653,-248.5 1563,-248.5"/>
<text text-anchor="middle" x="1608" y="-255.5" font-family="Helvetica,sans-Serif" font-size="10.00">disease/Health.h</text>
</a>
</g>
</g>
<!-- Node35&#45;&gt;Node36 -->
<g id="edge50" class="edge"><title>Node35&#45;&gt;Node36</title>
<path fill="none" stroke="midnightblue" d="M1439.69,-304.444C1474.07,-295.162 1529.08,-280.309 1566.79,-270.127"/>
<polygon fill="midnightblue" stroke="midnightblue" points="1567.72,-273.502 1576.46,-267.516 1565.89,-266.744 1567.72,-273.502"/>
</g>
<!-- Node37 -->
<g id="node37" class="node"><title>Node37</title>
<g id="a_node37"><a xlink:href="../../d0/d39/a00314.html" target="_top" xlink:title="Container for the contact pools of various type (household, work, ...). ">
<polygon fill="white" stroke="black" points="1225.5,-248.5 1225.5,-267.5 1344.5,-267.5 1344.5,-248.5 1225.5,-248.5"/>
<text text-anchor="middle" x="1285" y="-255.5" font-family="Helvetica,sans-Serif" font-size="10.00">pool/IdSubscriptArray.h</text>
</a>
</g>
</g>
<!-- Node35&#45;&gt;Node37 -->
<g id="edge52" class="edge"><title>Node35&#45;&gt;Node37</title>
<path fill="none" stroke="midnightblue" d="M1388.51,-304.444C1368.36,-295.596 1336.68,-281.687 1313.67,-271.586"/>
<polygon fill="midnightblue" stroke="midnightblue" points="1314.96,-268.332 1304.4,-267.516 1312.15,-274.741 1314.96,-268.332"/>
</g>
<!-- Node41 -->
<g id="node41" class="node"><title>Node41</title>
<g id="a_node41"><a xlink:href="../../dc/d0c/a00430.html" target="_top" xlink:title="pool/TravellerProfile.h">
<polygon fill="white" stroke="black" points="1671.5,-186.5 1671.5,-205.5 1782.5,-205.5 1782.5,-186.5 1671.5,-186.5"/>
<text text-anchor="middle" x="1727" y="-193.5" font-family="Helvetica,sans-Serif" font-size="10.00">pool/TravellerProfile.h</text>
</a>
</g>
</g>
<!-- Node35&#45;&gt;Node41 -->
<g id="edge60" class="edge"><title>Node35&#45;&gt;Node41</title>
<path fill="none" stroke="midnightblue" d="M1428.19,-304.344C1449,-295.384 1482.36,-280.915 1511,-268 1530.21,-259.336 1534.28,-255.445 1554,-248 1596.93,-231.793 1647.39,-217.43 1682.7,-208.11"/>
<polygon fill="midnightblue" stroke="midnightblue" points="1683.9,-211.414 1692.69,-205.5 1682.13,-204.641 1683.9,-211.414"/>
</g>
<!-- Node37&#45;&gt;Node16 -->
<g id="edge54" class="edge"><title>Node37&#45;&gt;Node16</title>
<path fill="none" stroke="midnightblue" d="M1258.79,-248.414C1242.15,-241.445 1221.94,-229.809 1212,-212 1200.94,-192.193 1203.48,-165.36 1207.08,-147.631"/>
<polygon fill="midnightblue" stroke="midnightblue" points="1210.54,-148.222 1209.41,-137.688 1203.72,-146.629 1210.54,-148.222"/>
</g>
<!-- Node37&#45;&gt;Node18 -->
<g id="edge58" class="edge"><title>Node37&#45;&gt;Node18</title>
<path fill="none" stroke="midnightblue" d="M1337.9,-248.46C1377.43,-240.872 1426.68,-228.437 1439,-212 1447.53,-200.62 1445.9,-192.438 1439,-180 1408.33,-124.698 1338.08,-92.9043 1294.68,-77.8567"/>
<polygon fill="midnightblue" stroke="midnightblue" points="1295.65,-74.4907 1285.05,-74.6419 1293.43,-81.1301 1295.65,-74.4907"/>
</g>
<!-- Node37&#45;&gt;Node21 -->
<g id="edge55" class="edge"><title>Node37&#45;&gt;Node21</title>
<path fill="none" stroke="midnightblue" d="M1268.49,-248.369C1251.49,-239.43 1224.26,-224.976 1201,-212 1158.43,-188.254 1109.42,-159.492 1081.24,-142.816"/>
<polygon fill="midnightblue" stroke="midnightblue" points="1082.91,-139.736 1072.52,-137.649 1079.34,-145.758 1082.91,-139.736"/>
</g>
<!-- Node37&#45;&gt;Node33 -->
<g id="edge53" class="edge"><title>Node37&#45;&gt;Node33</title>
<path fill="none" stroke="midnightblue" d="M1255.2,-248.403C1218.75,-237.889 1156.92,-220.054 1116.53,-208.402"/>
<polygon fill="midnightblue" stroke="midnightblue" points="1117.32,-204.989 1106.75,-205.581 1115.38,-211.715 1117.32,-204.989"/>
</g>
<!-- Node38 -->
<g id="node38" class="node"><title>Node38</title>
<polygon fill="white" stroke="#bfbfbf" points="1298.5,-186.5 1298.5,-205.5 1339.5,-205.5 1339.5,-186.5 1298.5,-186.5"/>
<text text-anchor="middle" x="1319" y="-193.5" font-family="Helvetica,sans-Serif" font-size="10.00">bitset</text>
</g>
<!-- Node37&#45;&gt;Node38 -->
<g id="edge56" class="edge"><title>Node37&#45;&gt;Node38</title>
<path fill="none" stroke="midnightblue" d="M1289.87,-248.403C1294.87,-239.582 1302.79,-225.608 1309.11,-214.455"/>
<polygon fill="midnightblue" stroke="midnightblue" points="1312.25,-216.006 1314.14,-205.581 1306.16,-212.555 1312.25,-216.006"/>
</g>
<!-- Node39 -->
<g id="node39" class="node"><title>Node39</title>
<polygon fill="white" stroke="#bfbfbf" points="1357.5,-186.5 1357.5,-205.5 1430.5,-205.5 1430.5,-186.5 1357.5,-186.5"/>
<text text-anchor="middle" x="1394" y="-193.5" font-family="Helvetica,sans-Serif" font-size="10.00">initializer_list</text>
</g>
<!-- Node37&#45;&gt;Node39 -->
<g id="edge57" class="edge"><title>Node37&#45;&gt;Node39</title>
<path fill="none" stroke="midnightblue" d="M1300.62,-248.403C1318.59,-238.512 1348.32,-222.144 1369.41,-210.538"/>
<polygon fill="midnightblue" stroke="midnightblue" points="1371.34,-213.469 1378.41,-205.581 1367.96,-207.337 1371.34,-213.469"/>
</g>
<!-- Node40 -->
<g id="node40" class="node"><title>Node40</title>
<polygon fill="white" stroke="#bfbfbf" points="1221.5,-186.5 1221.5,-205.5 1280.5,-205.5 1280.5,-186.5 1221.5,-186.5"/>
<text text-anchor="middle" x="1251" y="-193.5" font-family="Helvetica,sans-Serif" font-size="10.00">stdexcept</text>
</g>
<!-- Node37&#45;&gt;Node40 -->
<g id="edge59" class="edge"><title>Node37&#45;&gt;Node40</title>
<path fill="none" stroke="midnightblue" d="M1280.13,-248.403C1275.13,-239.582 1267.21,-225.608 1260.89,-214.455"/>
<polygon fill="midnightblue" stroke="midnightblue" points="1263.84,-212.555 1255.86,-205.581 1257.75,-216.006 1263.84,-212.555"/>
</g>
<!-- Node41&#45;&gt;Node14 -->
<g id="edge63" class="edge"><title>Node41&#45;&gt;Node14</title>
<path fill="none" stroke="midnightblue" d="M1701.46,-186.46C1655.74,-171.217 1556.84,-138.442 1473,-112 1433.13,-99.4275 1387.04,-85.5082 1357.02,-76.5275"/>
<polygon fill="midnightblue" stroke="midnightblue" points="1357.69,-73.076 1347.11,-73.5671 1355.69,-79.7831 1357.69,-73.076"/>
</g>
<!-- Node41&#45;&gt;Node23 -->
<g id="edge62" class="edge"><title>Node41&#45;&gt;Node23</title>
<path fill="none" stroke="midnightblue" d="M1721.9,-186.372C1715.98,-176.348 1706.05,-159.546 1698.46,-146.708"/>
<polygon fill="midnightblue" stroke="midnightblue" points="1701.32,-144.67 1693.22,-137.841 1695.3,-148.231 1701.32,-144.67"/>
</g>
<!-- Node42 -->
<g id="node42" class="node"><title>Node42</title>
<polygon fill="white" stroke="#bfbfbf" points="1753,-118.5 1753,-137.5 1863,-137.5 1863,-118.5 1753,-118.5"/>
<text text-anchor="middle" x="1808" y="-125.5" font-family="Helvetica,sans-Serif" font-size="10.00">trng/discrete_dist.hpp</text>
</g>
<!-- Node41&#45;&gt;Node42 -->
<g id="edge61" class="edge"><title>Node41&#45;&gt;Node42</title>
<path fill="none" stroke="midnightblue" d="M1737.59,-186.372C1750.69,-175.699 1773.22,-157.343 1789.26,-144.268"/>
<polygon fill="midnightblue" stroke="midnightblue" points="1791.87,-146.661 1797.41,-137.63 1787.44,-141.234 1791.87,-146.661"/>
</g>
</g>
</svg>
