<?xml version="1.0" encoding="UTF-8" standalone="no"?>
<!DOCTYPE svg PUBLIC "-//W3C//DTD SVG 1.1//EN"
 "http://www.w3.org/Graphics/SVG/1.1/DTD/svg11.dtd">
<!-- Generated by graphviz version 2.36.0 (20140111.2315)
 -->
<!-- Title: gengeopop::PartialPopulator::MakeChoice Pages: 1 -->
<svg width="536pt" height="126pt"
 viewBox="0.00 0.00 536.00 126.00" xmlns="http://www.w3.org/2000/svg" xmlns:xlink="http://www.w3.org/1999/xlink">
<g id="graph0" class="graph" transform="scale(1 1) rotate(0) translate(4 122)">
<title>gengeopop::PartialPopulator::MakeChoice</title>
<polygon fill="white" stroke="none" points="-4,4 -4,-122 532,-122 532,4 -4,4"/>
<!-- Node1 -->
<g id="node1" class="node"><title>Node1</title>
<polygon fill="#bfbfbf" stroke="black" points="0.5,-44 0.5,-74 139.5,-74 139.5,-44 0.5,-44"/>
<text text-anchor="start" x="8.5" y="-62" font-family="Helvetica,sans-Serif" font-size="10.00">gengeopop::PartialPopulator</text>
<text text-anchor="middle" x="70" y="-51" font-family="Helvetica,sans-Serif" font-size="10.00">::MakeChoice</text>
</g>
<!-- Node2 -->
<g id="node2" class="node"><title>Node2</title>
<g id="a_node2"><a xlink:href="../../de/d11/a00021.html#abc6ecf1b07270c3a1e2152f3be6ffeae" target="_top" xlink:title="Populate the given geogrid. ">
<polygon fill="white" stroke="black" points="183,-88 183,-118 327,-118 327,-88 183,-88"/>
<text text-anchor="start" x="191" y="-106" font-family="Helvetica,sans-Serif" font-size="10.00">gengeopop::CollegePopulator</text>
<text text-anchor="middle" x="255" y="-95" font-family="Helvetica,sans-Serif" font-size="10.00">::Apply</text>
</a>
</g>
</g>
<!-- Node1&#45;&gt;Node2 -->
<g id="edge1" class="edge"><title>Node1&#45;&gt;Node2</title>
<path fill="none" stroke="midnightblue" d="M143.272,-76.3769C159.22,-80.2112 175.983,-84.2418 191.505,-87.9738"/>
<polygon fill="midnightblue" stroke="midnightblue" points="144.008,-72.954 133.466,-74.0192 142.371,-79.7601 144.008,-72.954"/>
</g>
<!-- Node3 -->
<g id="node3" class="node"><title>Node3</title>
<g id="a_node3"><a xlink:href="../../d6/d2c/a00072.html#ace51c5ac0d05c5fca400d8f93a26ec87" target="_top" xlink:title="Populates the workplaces in geogrid with persons. ">
<polygon fill="white" stroke="black" points="370,-22 370,-52 528,-52 528,-22 370,-22"/>
<text text-anchor="start" x="378" y="-40" font-family="Helvetica,sans-Serif" font-size="10.00">gengeopop::WorkplacePopulator</text>
<text text-anchor="middle" x="449" y="-29" font-family="Helvetica,sans-Serif" font-size="10.00">::Apply</text>
</a>
</g>
</g>
<!-- Node1&#45;&gt;Node3 -->
<g id="edge2" class="edge"><title>Node1&#45;&gt;Node3</title>
<path fill="none" stroke="midnightblue" d="M149.836,-54.3995C214.39,-50.6324 305.252,-45.3301 369.669,-41.5711"/>
<polygon fill="midnightblue" stroke="midnightblue" points="149.488,-50.9137 139.709,-54.9904 149.896,-57.9018 149.488,-50.9137"/>
</g>
<!-- Node4 -->
<g id="node4" class="node"><title>Node4</title>
<g id="a_node4"><a xlink:href="../../d6/d2c/a00072.html#a5ad89eccae3e00345e123b1e65ec7ebe" target="_top" xlink:title="Assign a workplace to an active person. ">
<polygon fill="white" stroke="black" points="176,-0 176,-30 334,-30 334,-0 176,-0"/>
<text text-anchor="start" x="184" y="-18" font-family="Helvetica,sans-Serif" font-size="10.00">gengeopop::WorkplacePopulator</text>
<text text-anchor="middle" x="255" y="-7" font-family="Helvetica,sans-Serif" font-size="10.00">::AssignActive</text>
</a>
</g>
</g>
<!-- Node1&#45;&gt;Node4 -->
<g id="edge3" class="edge"><title>Node1&#45;&gt;Node4</title>
<path fill="none" stroke="midnightblue" d="M143.272,-41.6231C159.22,-37.7888 175.983,-33.7582 191.505,-30.0262"/>
<polygon fill="midnightblue" stroke="midnightblue" points="142.371,-38.2399 133.466,-43.9808 144.008,-45.046 142.371,-38.2399"/>
</g>
<!-- Node4&#45;&gt;Node3 -->
<g id="edge4" class="edge"><title>Node4&#45;&gt;Node3</title>
<path fill="none" stroke="midnightblue" d="M344.153,-25.1008C352.769,-26.0881 361.47,-27.0851 369.975,-28.0597"/>
<polygon fill="midnightblue" stroke="midnightblue" points="344.427,-21.6095 334.094,-23.9482 343.63,-28.564 344.427,-21.6095"/>
</g>
</g>
</svg>
