<?xml version="1.0" encoding="UTF-8" standalone="no"?>
<!DOCTYPE svg PUBLIC "-//W3C//DTD SVG 1.1//EN"
 "http://www.w3.org/Graphics/SVG/1.1/DTD/svg11.dtd">
<!-- Generated by graphviz version 2.36.0 (20140111.2315)
 -->
<!-- Title: proto::GeoGrid_Person::age Pages: 1 -->
<svg width="542pt" height="38pt"
 viewBox="0.00 0.00 542.00 38.00" xmlns="http://www.w3.org/2000/svg" xmlns:xlink="http://www.w3.org/1999/xlink">
<g id="graph0" class="graph" transform="scale(1 1) rotate(0) translate(4 34)">
<title>proto::GeoGrid_Person::age</title>
<polygon fill="white" stroke="none" points="-4,4 -4,-34 538,-34 538,4 -4,4"/>
<!-- Node1 -->
<g id="node1" class="node"><title>Node1</title>
<polygon fill="#bfbfbf" stroke="black" points="0,-5.5 0,-24.5 138,-24.5 138,-5.5 0,-5.5"/>
<text text-anchor="middle" x="69" y="-12.5" font-family="Helvetica,sans-Serif" font-size="10.00">proto::GeoGrid_Person::age</text>
</g>
<!-- Node2 -->
<g id="node2" class="node"><title>Node2</title>
<g id="a_node2"><a xlink:href="../../d3/de7/a00039.html#ace84e5989875f9deb376a2ed83d7a4c3" target="_top" xlink:title="Create a Person based on the provided protobuf Person. ">
<polygon fill="white" stroke="black" points="174.5,-0 174.5,-30 335.5,-30 335.5,-0 174.5,-0"/>
<text text-anchor="start" x="182.5" y="-18" font-family="Helvetica,sans-Serif" font-size="10.00">gengeopop::GeoGridProtoReader</text>
<text text-anchor="middle" x="255" y="-7" font-family="Helvetica,sans-Serif" font-size="10.00">::ParsePerson</text>
</a>
</g>
</g>
<!-- Node1&#45;&gt;Node2 -->
<g id="edge1" class="edge"><title>Node1&#45;&gt;Node2</title>
<path fill="none" stroke="midnightblue" d="M148.29,-15C156.921,-15 165.716,-15 174.362,-15"/>
<polygon fill="midnightblue" stroke="midnightblue" points="148.253,-11.5001 138.253,-15 148.253,-18.5001 148.253,-11.5001"/>
</g>
<!-- Node3 -->
<g id="node3" class="node"><title>Node3</title>
<g id="a_node3"><a xlink:href="../../d3/de7/a00039.html#ad9d1285450862c08629d6f8456976413" target="_top" xlink:title="Actually perform the read and return the GeoGrid. ">
<polygon fill="white" stroke="black" points="372.5,-0 372.5,-30 533.5,-30 533.5,-0 372.5,-0"/>
<text text-anchor="start" x="380.5" y="-18" font-family="Helvetica,sans-Serif" font-size="10.00">gengeopop::GeoGridProtoReader</text>
<text text-anchor="middle" x="453" y="-7" font-family="Helvetica,sans-Serif" font-size="10.00">::Read</text>
</a>
</g>
</g>
<!-- Node2&#45;&gt;Node3 -->
<g id="edge2" class="edge"><title>Node2&#45;&gt;Node3</title>
<path fill="none" stroke="midnightblue" d="M345.989,-15C354.785,-15 363.667,-15 372.35,-15"/>
<polygon fill="midnightblue" stroke="midnightblue" points="345.721,-11.5001 335.721,-15 345.721,-18.5001 345.721,-11.5001"/>
</g>
</g>
</svg>
