<?xml version="1.0" encoding="UTF-8" standalone="no"?>
<!DOCTYPE svg PUBLIC "-//W3C//DTD SVG 1.1//EN"
 "http://www.w3.org/Graphics/SVG/1.1/DTD/svg11.dtd">
<!-- Generated by graphviz version 2.36.0 (20140111.2315)
 -->
<!-- Title: gengeopop::PolygonPolicy::Contains Pages: 1 -->
<svg width="294pt" height="48pt"
 viewBox="0.00 0.00 294.00 48.00" xmlns="http://www.w3.org/2000/svg" xmlns:xlink="http://www.w3.org/1999/xlink">
<g id="graph0" class="graph" transform="scale(1 1) rotate(0) translate(4 44)">
<title>gengeopop::PolygonPolicy::Contains</title>
<polygon fill="white" stroke="none" points="-4,4 -4,-44 290,-44 290,4 -4,4"/>
<!-- Node1 -->
<g id="node1" class="node"><title>Node1</title>
<polygon fill="#bfbfbf" stroke="black" points="0,-5 0,-35 132,-35 132,-5 0,-5"/>
<text text-anchor="start" x="8" y="-23" font-family="Helvetica,sans-Serif" font-size="10.00">gengeopop::PolygonPolicy</text>
<text text-anchor="middle" x="66" y="-12" font-family="Helvetica,sans-Serif" font-size="10.00">::Contains</text>
</g>
<!-- Node2 -->
<g id="node2" class="node"><title>Node2</title>
<g id="a_node2"><a xlink:href="../../dc/d87/a00032.html#afb1122c92acd35a750235e1a8655eb94" target="_top" xlink:title="Get the coordinate for this Location. ">
<polygon fill="white" stroke="black" points="168,0.5 168,-40.5 286,-40.5 286,0.5 168,0.5"/>
<text text-anchor="start" x="176" y="-28.5" font-family="Helvetica,sans-Serif" font-size="10.00">gengeopop::geogrid</text>
<text text-anchor="start" x="176" y="-17.5" font-family="Helvetica,sans-Serif" font-size="10.00">_detail::KdTree2DPoint</text>
<text text-anchor="middle" x="227" y="-6.5" font-family="Helvetica,sans-Serif" font-size="10.00">::GetPoint</text>
</a>
</g>
</g>
<!-- Node1&#45;&gt;Node2 -->
<g id="edge1" class="edge"><title>Node1&#45;&gt;Node2</title>
<path fill="none" stroke="midnightblue" d="M132.13,-20C140.544,-20 149.18,-20 157.645,-20"/>
<polygon fill="midnightblue" stroke="midnightblue" points="157.857,-23.5001 167.857,-20 157.857,-16.5001 157.857,-23.5001"/>
</g>
</g>
</svg>
