<?xml version="1.0" encoding="UTF-8" standalone="no"?>
<!DOCTYPE svg PUBLIC "-//W3C//DTD SVG 1.1//EN"
 "http://www.w3.org/Graphics/SVG/1.1/DTD/svg11.dtd">
<!-- Generated by graphviz version 2.36.0 (20140111.2315)
 -->
<!-- Title: gengeopop::GeoGridJSONWriter Pages: 1 -->
<svg width="166pt" height="238pt"
 viewBox="0.00 0.00 166.00 238.00" xmlns="http://www.w3.org/2000/svg" xmlns:xlink="http://www.w3.org/1999/xlink">
<g id="graph0" class="graph" transform="scale(1 1) rotate(0) translate(4 234)">
<title>gengeopop::GeoGridJSONWriter</title>
<polygon fill="white" stroke="none" points="-4,4 -4,-234 162,-234 162,4 -4,4"/>
<!-- Node1 -->
<g id="node1" class="node"><title>Node1</title>
<polygon fill="#bfbfbf" stroke="black" points="-0.5,-0.5 -0.5,-123.5 158.5,-123.5 158.5,-0.5 -0.5,-0.5"/>
<text text-anchor="middle" x="79" y="-111.5" font-family="Helvetica,sans-Serif" font-size="10.00">gengeopop::GeoGridJSONWriter</text>
<polyline fill="none" stroke="black" points="-0.5,-104.5 158.5,-104.5 "/>
<text text-anchor="start" x="7.5" y="-92.5" font-family="Helvetica,sans-Serif" font-size="10.00">&#45; m_persons_found</text>
<polyline fill="none" stroke="black" points="-0.5,-85.5 158.5,-85.5 "/>
<text text-anchor="start" x="7.5" y="-73.5" font-family="Helvetica,sans-Serif" font-size="10.00">+ GeoGridJSONWriter()</text>
<text text-anchor="start" x="7.5" y="-62.5" font-family="Helvetica,sans-Serif" font-size="10.00">+ Write()</text>
<text text-anchor="start" x="7.5" y="-51.5" font-family="Helvetica,sans-Serif" font-size="10.00">&#45; WriteLocation()</text>
<text text-anchor="start" x="7.5" y="-40.5" font-family="Helvetica,sans-Serif" font-size="10.00">&#45; WriteCoordinate()</text>
<text text-anchor="start" x="7.5" y="-29.5" font-family="Helvetica,sans-Serif" font-size="10.00">&#45; WriteContactCenter()</text>
<text text-anchor="start" x="7.5" y="-18.5" font-family="Helvetica,sans-Serif" font-size="10.00">&#45; WriteContactPool()</text>
<text text-anchor="start" x="7.5" y="-7.5" font-family="Helvetica,sans-Serif" font-size="10.00">&#45; WritePerson()</text>
</g>
<!-- Node2 -->
<g id="node2" class="node"><title>Node2</title>
<g id="a_node2"><a xlink:href="../../d6/d42/a00043.html" target="_top" xlink:title="An interface for writing the GeoGrid to a file, can be implemented with multiple file types (protobuf...">
<polygon fill="white" stroke="black" points="13,-161 13,-229 145,-229 145,-161 13,-161"/>
<text text-anchor="middle" x="79" y="-217" font-family="Helvetica,sans-Serif" font-size="10.00">gengeopop::GeoGridWriter</text>
<polyline fill="none" stroke="black" points="13,-210 145,-210 "/>
<text text-anchor="middle" x="79" y="-198" font-family="Helvetica,sans-Serif" font-size="10.00"> </text>
<polyline fill="none" stroke="black" points="13,-191 145,-191 "/>
<text text-anchor="start" x="21" y="-179" font-family="Helvetica,sans-Serif" font-size="10.00">+ ~GeoGridWriter()</text>
<text text-anchor="start" x="21" y="-168" font-family="Helvetica,sans-Serif" font-size="10.00">+ Write()</text>
</a>
</g>
</g>
<!-- Node2&#45;&gt;Node1 -->
<g id="edge1" class="edge"><title>Node2&#45;&gt;Node1</title>
<path fill="none" stroke="midnightblue" d="M79,-150.695C79,-142.013 79,-132.742 79,-123.599"/>
<polygon fill="none" stroke="midnightblue" points="75.5001,-150.943 79,-160.943 82.5001,-150.943 75.5001,-150.943"/>
</g>
</g>
</svg>
