<?xml version="1.0" encoding="UTF-8" standalone="no"?>
<!DOCTYPE svg PUBLIC "-//W3C//DTD SVG 1.1//EN"
 "http://www.w3.org/Graphics/SVG/1.1/DTD/svg11.dtd">
<!-- Generated by graphviz version 2.36.0 (20140111.2315)
 -->
<!-- Title: stride::util::Trim Pages: 1 -->
<svg width="238pt" height="66pt"
 viewBox="0.00 0.00 238.00 66.00" xmlns="http://www.w3.org/2000/svg" xmlns:xlink="http://www.w3.org/1999/xlink">
<g id="graph0" class="graph" transform="scale(1 1) rotate(0) translate(4 62)">
<title>stride::util::Trim</title>
<polygon fill="white" stroke="none" points="-4,4 -4,-62 234,-62 234,4 -4,4"/>
<!-- Node1 -->
<g id="node1" class="node"><title>Node1</title>
<polygon fill="#bfbfbf" stroke="black" points="0.5,-19.5 0.5,-38.5 85.5,-38.5 85.5,-19.5 0.5,-19.5"/>
<text text-anchor="middle" x="43" y="-26.5" font-family="Helvetica,sans-Serif" font-size="10.00">stride::util::Trim</text>
</g>
<!-- Node2 -->
<g id="node2" class="node"><title>Node2</title>
<g id="a_node2"><a xlink:href="../../d9/dea/a00478.html#a2c5aacbb4d606af3e43a96e8aad692cf" target="_top" xlink:title="Trim characters at left end of string. ">
<polygon fill="white" stroke="black" points="125.5,-38.5 125.5,-57.5 226.5,-57.5 226.5,-38.5 125.5,-38.5"/>
<text text-anchor="middle" x="176" y="-45.5" font-family="Helvetica,sans-Serif" font-size="10.00">stride::util::TrimLeft</text>
</a>
</g>
</g>
<!-- Node1&#45;&gt;Node2 -->
<g id="edge1" class="edge"><title>Node1&#45;&gt;Node2</title>
<path fill="none" stroke="midnightblue" d="M85.8094,-35.064C95.2441,-36.4324 105.437,-37.9107 115.443,-39.362"/>
<polygon fill="midnightblue" stroke="midnightblue" points="114.953,-42.8274 125.352,-40.7991 115.958,-35.8999 114.953,-42.8274"/>
</g>
<!-- Node3 -->
<g id="node3" class="node"><title>Node3</title>
<g id="a_node3"><a xlink:href="../../d9/dea/a00478.html#a9fa614ccd671679a0e1feff6e0f6da33" target="_top" xlink:title="Trim characters at right end of string. ">
<polygon fill="white" stroke="black" points="122,-0.5 122,-19.5 230,-19.5 230,-0.5 122,-0.5"/>
<text text-anchor="middle" x="176" y="-7.5" font-family="Helvetica,sans-Serif" font-size="10.00">stride::util::TrimRight</text>
</a>
</g>
</g>
<!-- Node1&#45;&gt;Node3 -->
<g id="edge2" class="edge"><title>Node1&#45;&gt;Node3</title>
<path fill="none" stroke="midnightblue" d="M85.8094,-22.936C93.9899,-21.7496 102.74,-20.4804 111.445,-19.2179"/>
<polygon fill="midnightblue" stroke="midnightblue" points="112.211,-22.6435 121.605,-17.7443 111.206,-15.716 112.211,-22.6435"/>
</g>
</g>
</svg>
