<?xml version="1.0" encoding="UTF-8" standalone="no"?>
<!DOCTYPE svg PUBLIC "-//W3C//DTD SVG 1.1//EN"
 "http://www.w3.org/Graphics/SVG/1.1/DTD/svg11.dtd">
<!-- Generated by graphviz version 2.36.0 (20140111.2315)
 -->
<!-- Title: AbstractPopBuilder.h Pages: 1 -->
<svg width="280pt" height="96pt"
 viewBox="0.00 0.00 280.00 96.00" xmlns="http://www.w3.org/2000/svg" xmlns:xlink="http://www.w3.org/1999/xlink">
<g id="graph0" class="graph" transform="scale(1 1) rotate(0) translate(4 92)">
<title>AbstractPopBuilder.h</title>
<polygon fill="white" stroke="none" points="-4,4 -4,-92 276,-92 276,4 -4,4"/>
<!-- Node1 -->
<g id="node1" class="node"><title>Node1</title>
<polygon fill="#bfbfbf" stroke="black" points="90.5,-68.5 90.5,-87.5 199.5,-87.5 199.5,-68.5 90.5,-68.5"/>
<text text-anchor="middle" x="145" y="-75.5" font-family="Helvetica,sans-Serif" font-size="10.00">AbstractPopBuilder.h</text>
</g>
<!-- Node2 -->
<g id="node2" class="node"><title>Node2</title>
<polygon fill="white" stroke="#bfbfbf" points="-0.5,-1 -0.5,-31 100.5,-31 100.5,-1 -0.5,-1"/>
<text text-anchor="start" x="7.5" y="-19" font-family="Helvetica,sans-Serif" font-size="10.00">boost/property_tree</text>
<text text-anchor="middle" x="50" y="-8" font-family="Helvetica,sans-Serif" font-size="10.00">/ptree_fwd.hpp</text>
</g>
<!-- Node1&#45;&gt;Node2 -->
<g id="edge1" class="edge"><title>Node1&#45;&gt;Node2</title>
<path fill="none" stroke="midnightblue" d="M131.389,-68.4035C118.282,-60.1254 97.9919,-47.3106 80.9501,-36.5474"/>
<polygon fill="midnightblue" stroke="midnightblue" points="82.7135,-33.5216 72.3896,-31.1408 78.9755,-39.44 82.7135,-33.5216"/>
</g>
<!-- Node3 -->
<g id="node3" class="node"><title>Node3</title>
<polygon fill="white" stroke="#bfbfbf" points="119,-6.5 119,-25.5 171,-25.5 171,-6.5 119,-6.5"/>
<text text-anchor="middle" x="145" y="-13.5" font-family="Helvetica,sans-Serif" font-size="10.00">memory</text>
</g>
<!-- Node1&#45;&gt;Node3 -->
<g id="edge2" class="edge"><title>Node1&#45;&gt;Node3</title>
<path fill="none" stroke="midnightblue" d="M145,-68.4035C145,-59.9381 145,-46.7283 145,-35.8199"/>
<polygon fill="midnightblue" stroke="midnightblue" points="148.5,-35.5806 145,-25.5806 141.5,-35.5806 148.5,-35.5806"/>
</g>
<!-- Node4 -->
<g id="node4" class="node"><title>Node4</title>
<polygon fill="white" stroke="#bfbfbf" points="189.5,-6.5 189.5,-25.5 272.5,-25.5 272.5,-6.5 189.5,-6.5"/>
<text text-anchor="middle" x="231" y="-13.5" font-family="Helvetica,sans-Serif" font-size="10.00">spdlog/logger.h</text>
</g>
<!-- Node1&#45;&gt;Node4 -->
<g id="edge3" class="edge"><title>Node1&#45;&gt;Node4</title>
<path fill="none" stroke="midnightblue" d="M157.322,-68.4035C171.116,-58.7797 193.699,-43.0242 210.232,-31.4891"/>
<polygon fill="midnightblue" stroke="midnightblue" points="212.503,-34.1729 218.701,-25.5806 208.497,-28.432 212.503,-34.1729"/>
</g>
</g>
</svg>
