<?xml version="1.0" encoding="UTF-8" standalone="no"?>
<!DOCTYPE svg PUBLIC "-//W3C//DTD SVG 1.1//EN"
 "http://www.w3.org/Graphics/SVG/1.1/DTD/svg11.dtd">
<!-- Generated by graphviz version 2.36.0 (20140111.2315)
 -->
<!-- Title: stride::util::Trim Pages: 1 -->
<svg width="388pt" height="87pt"
 viewBox="0.00 0.00 388.00 87.00" xmlns="http://www.w3.org/2000/svg" xmlns:xlink="http://www.w3.org/1999/xlink">
<g id="graph0" class="graph" transform="scale(1 1) rotate(0) translate(4 83)">
<title>stride::util::Trim</title>
<polygon fill="white" stroke="none" points="-4,4 -4,-83 384,-83 384,4 -4,4"/>
<!-- Node1 -->
<g id="node1" class="node"><title>Node1</title>
<polygon fill="#bfbfbf" stroke="black" points="0.5,-29.5 0.5,-48.5 85.5,-48.5 85.5,-29.5 0.5,-29.5"/>
<text text-anchor="middle" x="43" y="-36.5" font-family="Helvetica,sans-Serif" font-size="10.00">stride::util::Trim</text>
</g>
<!-- Node2 -->
<g id="node2" class="node"><title>Node2</title>
<g id="a_node2"><a xlink:href="../../d3/df8/a00155.html#ab60a313ff2e75d0ae07bc7624c27a861" target="_top" xlink:title="CSVRow initialized with values. Should no be called by user code. CSV has convenience functions...">
<polygon fill="white" stroke="black" points="122.5,-49 122.5,-79 229.5,-79 229.5,-49 122.5,-49"/>
<text text-anchor="start" x="130.5" y="-67" font-family="Helvetica,sans-Serif" font-size="10.00">stride::util::CSVRow</text>
<text text-anchor="middle" x="176" y="-56" font-family="Helvetica,sans-Serif" font-size="10.00">::CSVRow</text>
</a>
</g>
</g>
<!-- Node1&#45;&gt;Node2 -->
<g id="edge1" class="edge"><title>Node1&#45;&gt;Node2</title>
<path fill="none" stroke="midnightblue" d="M95.7693,-48.8796C104.417,-50.53 113.399,-52.2442 122.076,-53.8999"/>
<polygon fill="midnightblue" stroke="midnightblue" points="96.2883,-45.4156 85.8094,-46.9789 94.976,-52.2915 96.2883,-45.4156"/>
</g>
<!-- Node3 -->
<g id="node3" class="node"><title>Node3</title>
<g id="a_node3"><a xlink:href="../../d3/d65/a00154.html#a2f3c33a76164f6cbc6e31aab6f8b560d" target="_top" xlink:title="stride::util::CSV::\lReadFromStream">
<polygon fill="white" stroke="black" points="129,-0 129,-30 223,-30 223,-0 129,-0"/>
<text text-anchor="start" x="137" y="-18" font-family="Helvetica,sans-Serif" font-size="10.00">stride::util::CSV::</text>
<text text-anchor="middle" x="176" y="-7" font-family="Helvetica,sans-Serif" font-size="10.00">ReadFromStream</text>
</a>
</g>
</g>
<!-- Node1&#45;&gt;Node3 -->
<g id="edge2" class="edge"><title>Node1&#45;&gt;Node3</title>
<path fill="none" stroke="midnightblue" d="M95.9488,-29.4827C106.73,-27.5074 118.024,-25.4384 128.591,-23.5024"/>
<polygon fill="midnightblue" stroke="midnightblue" points="95.0149,-26.0954 85.8094,-31.3403 96.2764,-32.9808 95.0149,-26.0954"/>
</g>
<!-- Node4 -->
<g id="node4" class="node"><title>Node4</title>
<g id="a_node4"><a xlink:href="../../d3/d65/a00154.html#ac8d180042e0dd5717d655d9cbd1dc59b" target="_top" xlink:title="Initialize from file. ">
<polygon fill="white" stroke="black" points="266.5,-5.5 266.5,-24.5 379.5,-24.5 379.5,-5.5 266.5,-5.5"/>
<text text-anchor="middle" x="323" y="-12.5" font-family="Helvetica,sans-Serif" font-size="10.00">stride::util::CSV::CSV</text>
</a>
</g>
</g>
<!-- Node3&#45;&gt;Node4 -->
<g id="edge3" class="edge"><title>Node3&#45;&gt;Node4</title>
<path fill="none" stroke="midnightblue" d="M233.433,-15C244.221,-15 255.507,-15 266.272,-15"/>
<polygon fill="midnightblue" stroke="midnightblue" points="233.278,-11.5001 223.278,-15 233.278,-18.5001 233.278,-11.5001"/>
</g>
</g>
</svg>
