<?xml version="1.0" encoding="UTF-8" standalone="no"?>
<!DOCTYPE svg PUBLIC "-//W3C//DTD SVG 1.1//EN"
 "http://www.w3.org/Graphics/SVG/1.1/DTD/svg11.dtd">
<!-- Generated by graphviz version 2.36.0 (20140111.2315)
 -->
<!-- Title: stride::util::TrimLeft Pages: 1 -->
<!--zoomable 87 -->
<svg id="main" version="1.1" xmlns="http://www.w3.org/2000/svg" xmlns:xlink="http://www.w3.org/1999/xlink" xml:space="preserve" onload="init(evt)">
<style type="text/css"><![CDATA[
.edge:hover path { stroke: red; }
.edge:hover polygon { stroke: red; fill: red; }
]]></style>
<script type="text/javascript"><![CDATA[
var edges = document.getElementsByTagName('g');
if (edges && edges.length) {
  for (var i=0;i<edges.length;i++) {
    if (edges[i].id.substr(0,4)=='edge') {
      edges[i].setAttribute('class','edge');
    }
  }
}
]]></script>
        <defs>
                <circle id="rim" cx="0" cy="0" r="7"/>
                <circle id="rim2" cx="0" cy="0" r="3.5"/>
                <g id="zoomPlus">
                        <use xlink:href="#rim" fill="#404040">
                                <set attributeName="fill" to="#808080" begin="zoomplus.mouseover" end="zoomplus.mouseout"/>
                        </use>
                        <path d="M-4,0h8M0,-4v8" fill="none" stroke="white" stroke-width="1.5" pointer-events="none"/>
                </g>
                <g id="zoomMin">
                        <use xlink:href="#rim" fill="#404040">
                                <set attributeName="fill" to="#808080" begin="zoomminus.mouseover" end="zoomminus.mouseout"/>
                        </use>
                        <path d="M-4,0h8" fill="none" stroke="white" stroke-width="1.5" pointer-events="none"/>
                </g>
                <g id="dirArrow">
                        <path fill="none" stroke="white" stroke-width="1.5" d="M0,-3.0v7 M-2.5,-0.5L0,-3.0L2.5,-0.5"/>
                </g>
               <g id="resetDef">
                       <use xlink:href="#rim2" fill="#404040">
                               <set attributeName="fill" to="#808080" begin="reset.mouseover" end="reset.mouseout"/>
                       </use>
               </g>
        </defs>

<script type="text/javascript">
var viewWidth = 526;
var viewHeight = 87;
var sectionId = 'dynsection-10';
</script>
<script xlink:href="../../svgpan.js"/>
<svg id="graph" class="graph">
<g id="viewport">
<title>stride::util::TrimLeft</title>
<polygon fill="white" stroke="none" points="-4,4 -4,-83 522,-83 522,4 -4,4"/>
<!-- Node1 -->
<g id="node1" class="node"><title>Node1</title>
<polygon fill="#bfbfbf" stroke="black" points="0.5,-29.5 0.5,-48.5 101.5,-48.5 101.5,-29.5 0.5,-29.5"/>
<text text-anchor="middle" x="51" y="-36.5" font-family="Helvetica,sans-Serif" font-size="10.00">stride::util::TrimLeft</text>
</g>
<!-- Node2 -->
<g id="node2" class="node"><title>Node2</title>
<g id="a_node2"><a xlink:href="../../d9/dea/a00478.html#a01882a252a5e262d442f9a8b8f64e3ef" target="_top" xlink:title="Trim characters at both ends of string. ">
<polygon fill="white" stroke="black" points="138.5,-29.5 138.5,-48.5 223.5,-48.5 223.5,-29.5 138.5,-29.5"/>
<text text-anchor="middle" x="181" y="-36.5" font-family="Helvetica,sans-Serif" font-size="10.00">stride::util::Trim</text>
</a>
</g>
</g>
<!-- Node1&#45;&gt;Node2 -->
<g id="edge1" class="edge"><title>Node1&#45;&gt;Node2</title>
<path fill="none" stroke="midnightblue" d="M111.88,-39C120.833,-39 129.895,-39 138.359,-39"/>
<polygon fill="midnightblue" stroke="midnightblue" points="111.855,-35.5001 101.855,-39 111.855,-42.5001 111.855,-35.5001"/>
</g>
<!-- Node3 -->
<g id="node3" class="node"><title>Node3</title>
<g id="a_node3"><a xlink:href="../../d3/d65/a00154.html#a2f3c33a76164f6cbc6e31aab6f8b560d" target="_top" xlink:title="stride::util::CSV::\lReadFromStream">
<polygon fill="white" stroke="black" points="267,-49 267,-79 361,-79 361,-49 267,-49"/>
<text text-anchor="start" x="275" y="-67" font-family="Helvetica,sans-Serif" font-size="10.00">stride::util::CSV::</text>
<text text-anchor="middle" x="314" y="-56" font-family="Helvetica,sans-Serif" font-size="10.00">ReadFromStream</text>
</a>
</g>
</g>
<!-- Node2&#45;&gt;Node3 -->
<g id="edge2" class="edge"><title>Node2&#45;&gt;Node3</title>
<path fill="none" stroke="midnightblue" d="M233.949,-48.9139C244.73,-50.9714 256.024,-53.1267 266.591,-55.1433"/>
<polygon fill="midnightblue" stroke="midnightblue" points="234.288,-45.4156 223.809,-46.9789 232.976,-52.2915 234.288,-45.4156"/>
</g>
<!-- Node5 -->
<g id="node5" class="node"><title>Node5</title>
<g id="a_node5"><a xlink:href="../../d3/df8/a00155.html#ab60a313ff2e75d0ae07bc7624c27a861" target="_top" xlink:title="CSVRow initialized with values. Should no be called by user code. CSV has convenience functions...">
<polygon fill="white" stroke="black" points="260.5,-0 260.5,-30 367.5,-30 367.5,-0 260.5,-0"/>
<text text-anchor="start" x="268.5" y="-18" font-family="Helvetica,sans-Serif" font-size="10.00">stride::util::CSVRow</text>
<text text-anchor="middle" x="314" y="-7" font-family="Helvetica,sans-Serif" font-size="10.00">::CSVRow</text>
</a>
</g>
</g>
<!-- Node2&#45;&gt;Node5 -->
<g id="edge4" class="edge"><title>Node2&#45;&gt;Node5</title>
<path fill="none" stroke="midnightblue" d="M233.769,-29.5155C242.417,-27.9312 251.399,-26.2856 260.076,-24.6961"/>
<polygon fill="midnightblue" stroke="midnightblue" points="233.015,-26.0954 223.809,-31.3403 234.276,-32.9808 233.015,-26.0954"/>
</g>
<!-- Node4 -->
<g id="node4" class="node"><title>Node4</title>
<g id="a_node4"><a xlink:href="../../d3/d65/a00154.html#ac8d180042e0dd5717d655d9cbd1dc59b" target="_top" xlink:title="Initialize from file. ">
<polygon fill="white" stroke="black" points="404.5,-54.5 404.5,-73.5 517.5,-73.5 517.5,-54.5 404.5,-54.5"/>
<text text-anchor="middle" x="461" y="-61.5" font-family="Helvetica,sans-Serif" font-size="10.00">stride::util::CSV::CSV</text>
</a>
</g>
</g>
<!-- Node3&#45;&gt;Node4 -->
<g id="edge3" class="edge"><title>Node3&#45;&gt;Node4</title>
<path fill="none" stroke="midnightblue" d="M371.433,-64C382.221,-64 393.507,-64 404.272,-64"/>
<polygon fill="midnightblue" stroke="midnightblue" points="371.278,-60.5001 361.278,-64 371.278,-67.5001 371.278,-60.5001"/>
</g>
</g>
</svg>
        <g id="navigator" transform="translate(0 0)" fill="#404254">
                <rect fill="#f2f5e9" fill-opacity="0.5" stroke="#606060" stroke-width=".5" x="0" y="0" width="60" height="60"/>
                <use id="zoomplus" xlink:href="#zoomPlus" x="17" y="9" onmousedown="handleZoom(evt,'in')"/>
                <use id="zoomminus" xlink:href="#zoomMin" x="42" y="9" onmousedown="handleZoom(evt,'out')"/>
                <use id="reset" xlink:href="#resetDef" x="30" y="36" onmousedown="handleReset()"/>
                <g id="arrowUp" xlink:href="#dirArrow" transform="translate(30 24)" onmousedown="handlePan(0,-1)">
                  <use xlink:href="#rim" fill="#404040">
                        <set attributeName="fill" to="#808080" begin="arrowUp.mouseover" end="arrowUp.mouseout"/>
                  </use>
                  <path fill="none" stroke="white" stroke-width="1.5" d="M0,-3.0v7 M-2.5,-0.5L0,-3.0L2.5,-0.5"/>
                </g>
                <g id="arrowRight" xlink:href="#dirArrow" transform="rotate(90) translate(36 -43)" onmousedown="handlePan(1,0)">
                  <use xlink:href="#rim" fill="#404040">
                        <set attributeName="fill" to="#808080" begin="arrowRight.mouseover" end="arrowRight.mouseout"/>
                  </use>
                  <path fill="none" stroke="white" stroke-width="1.5" d="M0,-3.0v7 M-2.5,-0.5L0,-3.0L2.5,-0.5"/>
                </g>
                <g id="arrowDown" xlink:href="#dirArrow" transform="rotate(180) translate(-30 -48)" onmousedown="handlePan(0,1)">
                  <use xlink:href="#rim" fill="#404040">
                        <set attributeName="fill" to="#808080" begin="arrowDown.mouseover" end="arrowDown.mouseout"/>
                  </use>
                  <path fill="none" stroke="white" stroke-width="1.5" d="M0,-3.0v7 M-2.5,-0.5L0,-3.0L2.5,-0.5"/>
                </g>
                <g id="arrowLeft" xlink:href="#dirArrow" transform="rotate(270) translate(-36 17)" onmousedown="handlePan(-1,0)">
                  <use xlink:href="#rim" fill="#404040">
                        <set attributeName="fill" to="#808080" begin="arrowLeft.mouseover" end="arrowLeft.mouseout"/>
                  </use>
                  <path fill="none" stroke="white" stroke-width="1.5" d="M0,-3.0v7 M-2.5,-0.5L0,-3.0L2.5,-0.5"/>
                </g>
        </g>
        <svg viewBox="0 0 15 15" width="100%" height="30px" preserveAspectRatio="xMaxYMin meet">
         <g id="arrow_out" transform="scale(0.3 0.3)">
          <a xlink:href="a00478_a2c5aacbb4d606af3e43a96e8aad692cf_icgraph_org.svg" target="_base">
           <rect id="button" ry="5" rx="5" y="6" x="6" height="38" width="38"
                fill="#f2f5e9" fill-opacity="0.5" stroke="#606060" stroke-width="1.0"/>
           <path id="arrow"
             d="M 11.500037,31.436501 C 11.940474,20.09759 22.043105,11.32322 32.158766,21.979434 L 37.068811,17.246167 C 37.068811,17.246167 37.088388,32 37.088388,32 L 22.160133,31.978069 C 22.160133,31.978069 26.997745,27.140456 26.997745,27.140456 C 18.528582,18.264221 13.291696,25.230495 11.500037,31.436501 z"
             style="fill:#404040;"/>
          </a>
         </g>
        </svg>
</svg>
