<?xml version="1.0" encoding="UTF-8" standalone="no"?>
<!DOCTYPE svg PUBLIC "-//W3C//DTD SVG 1.1//EN"
 "http://www.w3.org/Graphics/SVG/1.1/DTD/svg11.dtd">
<!-- Generated by graphviz version 2.36.0 (20140111.2315)
 -->
<!-- Title: gengeopop::GeoGrid::CheckFinalized Pages: 1 -->
<svg width="272pt" height="87pt"
 viewBox="0.00 0.00 272.00 87.00" xmlns="http://www.w3.org/2000/svg" xmlns:xlink="http://www.w3.org/1999/xlink">
<g id="graph0" class="graph" transform="scale(1 1) rotate(0) translate(4 83)">
<title>gengeopop::GeoGrid::CheckFinalized</title>
<polygon fill="white" stroke="none" points="-4,4 -4,-83 268,-83 268,4 -4,4"/>
<!-- Node1 -->
<g id="node1" class="node"><title>Node1</title>
<polygon fill="#bfbfbf" stroke="black" points="0,-24 0,-54 106,-54 106,-24 0,-24"/>
<text text-anchor="start" x="8" y="-42" font-family="Helvetica,sans-Serif" font-size="10.00">gengeopop::GeoGrid</text>
<text text-anchor="middle" x="53" y="-31" font-family="Helvetica,sans-Serif" font-size="10.00">::CheckFinalized</text>
</g>
<!-- Node2 -->
<g id="node2" class="node"><title>Node2</title>
<g id="a_node2"><a xlink:href="../../df/d61/a00031.html#addaa32c8efb3147589554a0753d2266f" target="_top" xlink:title="Search for locations in radius around start. ">
<polygon fill="white" stroke="black" points="142,-49 142,-79 264,-79 264,-49 142,-49"/>
<text text-anchor="start" x="150" y="-67" font-family="Helvetica,sans-Serif" font-size="10.00">gengeopop::GeoGrid</text>
<text text-anchor="middle" x="203" y="-56" font-family="Helvetica,sans-Serif" font-size="10.00">::FindLocationsInRadius</text>
</a>
</g>
</g>
<!-- Node1&#45;&gt;Node2 -->
<g id="edge1" class="edge"><title>Node1&#45;&gt;Node2</title>
<path fill="none" stroke="midnightblue" d="M116.097,-49.4893C124.655,-50.9349 133.43,-52.4173 141.95,-53.8565"/>
<polygon fill="midnightblue" stroke="midnightblue" points="116.623,-46.0286 106.179,-47.8141 115.457,-52.9309 116.623,-46.0286"/>
</g>
<!-- Node3 -->
<g id="node3" class="node"><title>Node3</title>
<g id="a_node3"><a xlink:href="../../df/d61/a00031.html#a1ffbcb494e4c2bdb6e337691779d3e87" target="_top" xlink:title="Gets the locations in a rectangle determined by the two coordinates (long1, lat1) and (long2...">
<polygon fill="white" stroke="black" points="150,-0 150,-30 256,-30 256,-0 150,-0"/>
<text text-anchor="start" x="158" y="-18" font-family="Helvetica,sans-Serif" font-size="10.00">gengeopop::GeoGrid</text>
<text text-anchor="middle" x="203" y="-7" font-family="Helvetica,sans-Serif" font-size="10.00">::InBox</text>
</a>
</g>
</g>
<!-- Node1&#45;&gt;Node3 -->
<g id="edge2" class="edge"><title>Node1&#45;&gt;Node3</title>
<path fill="none" stroke="midnightblue" d="M116.29,-28.899C127.443,-27.0904 138.96,-25.2227 149.793,-23.466"/>
<polygon fill="midnightblue" stroke="midnightblue" points="115.49,-25.4828 106.179,-30.5385 116.611,-32.3926 115.49,-25.4828"/>
</g>
</g>
</svg>
