<?xml version="1.0" encoding="UTF-8" standalone="no"?>
<!DOCTYPE svg PUBLIC "-//W3C//DTD SVG 1.1//EN"
 "http://www.w3.org/Graphics/SVG/1.1/DTD/svg11.dtd">
<!-- Generated by graphviz version 2.36.0 (20140111.2315)
 -->
<!-- Title: gengeopop::GeoGrid::Finalize Pages: 1 -->
<svg width="278pt" height="126pt"
 viewBox="0.00 0.00 278.00 126.00" xmlns="http://www.w3.org/2000/svg" xmlns:xlink="http://www.w3.org/1999/xlink">
<g id="graph0" class="graph" transform="scale(1 1) rotate(0) translate(4 122)">
<title>gengeopop::GeoGrid::Finalize</title>
<polygon fill="white" stroke="none" points="-4,4 -4,-122 274,-122 274,4 -4,4"/>
<!-- Node1 -->
<g id="node1" class="node"><title>Node1</title>
<polygon fill="#bfbfbf" stroke="black" points="0,-39 0,-69 106,-69 106,-39 0,-39"/>
<text text-anchor="start" x="8" y="-57" font-family="Helvetica,sans-Serif" font-size="10.00">gengeopop::GeoGrid</text>
<text text-anchor="middle" x="53" y="-46" font-family="Helvetica,sans-Serif" font-size="10.00">::Finalize</text>
</g>
<!-- Node2 -->
<g id="node2" class="node"><title>Node2</title>
<g id="a_node2"><a xlink:href="../../df/d61/a00031.html#a0918eba7514cc962302299a17ccf596c" target="_top" xlink:title="Iterator to first Location. ">
<polygon fill="white" stroke="black" points="153,-88 153,-118 259,-118 259,-88 153,-88"/>
<text text-anchor="start" x="161" y="-106" font-family="Helvetica,sans-Serif" font-size="10.00">gengeopop::GeoGrid</text>
<text text-anchor="middle" x="206" y="-95" font-family="Helvetica,sans-Serif" font-size="10.00">::begin</text>
</a>
</g>
</g>
<!-- Node1&#45;&gt;Node2 -->
<g id="edge1" class="edge"><title>Node1&#45;&gt;Node2</title>
<path fill="none" stroke="midnightblue" d="M100.537,-69.1014C115.822,-74.0615 132.974,-79.6274 148.892,-84.7929"/>
<polygon fill="midnightblue" stroke="midnightblue" points="148.025,-88.1909 158.617,-87.9484 150.185,-81.5327 148.025,-88.1909"/>
</g>
<!-- Node3 -->
<g id="node3" class="node"><title>Node3</title>
<g id="a_node3"><a xlink:href="../../d1/dea/a00054.html#a94158f4c08d181a21d1d0eb76ce500d1" target="_top" xlink:title="Build a balanced tree from the given set of points efficiently. ">
<polygon fill="white" stroke="black" points="152.5,-39 152.5,-69 259.5,-69 259.5,-39 152.5,-39"/>
<text text-anchor="start" x="160.5" y="-57" font-family="Helvetica,sans-Serif" font-size="10.00">gengeopop::KdTree::</text>
<text text-anchor="middle" x="206" y="-46" font-family="Helvetica,sans-Serif" font-size="10.00">Build</text>
</a>
</g>
</g>
<!-- Node1&#45;&gt;Node3 -->
<g id="edge2" class="edge"><title>Node1&#45;&gt;Node3</title>
<path fill="none" stroke="midnightblue" d="M106.389,-54C117.918,-54 130.243,-54 142.137,-54"/>
<polygon fill="midnightblue" stroke="midnightblue" points="142.448,-57.5001 152.448,-54 142.448,-50.5001 142.448,-57.5001"/>
</g>
<!-- Node4 -->
<g id="node4" class="node"><title>Node4</title>
<g id="a_node4"><a xlink:href="../../df/d61/a00031.html#a71b514257a01a8da95368603d7581b1e" target="_top" xlink:title="Iterator to the end of the Location storage. ">
<polygon fill="white" stroke="black" points="142,-0.5 142,-19.5 270,-19.5 270,-0.5 142,-0.5"/>
<text text-anchor="middle" x="206" y="-7.5" font-family="Helvetica,sans-Serif" font-size="10.00">gengeopop::GeoGrid::end</text>
</a>
</g>
</g>
<!-- Node1&#45;&gt;Node4 -->
<g id="edge3" class="edge"><title>Node1&#45;&gt;Node4</title>
<path fill="none" stroke="midnightblue" d="M105.543,-38.9808C123.97,-33.6115 144.52,-27.6234 162.135,-22.4905"/>
<polygon fill="midnightblue" stroke="midnightblue" points="163.508,-25.7362 172.129,-19.5783 161.549,-19.0157 163.508,-25.7362"/>
</g>
</g>
</svg>
