<?xml version="1.0" encoding="UTF-8" standalone="no"?>
<!DOCTYPE svg PUBLIC "-//W3C//DTD SVG 1.1//EN"
 "http://www.w3.org/Graphics/SVG/1.1/DTD/svg11.dtd">
<!-- Generated by graphviz version 2.36.0 (20140111.2315)
 -->
<!-- Title: gengeopop::GeoGrid::begin Pages: 1 -->
<svg width="256pt" height="87pt"
 viewBox="0.00 0.00 256.00 87.00" xmlns="http://www.w3.org/2000/svg" xmlns:xlink="http://www.w3.org/1999/xlink">
<g id="graph0" class="graph" transform="scale(1 1) rotate(0) translate(4 83)">
<title>gengeopop::GeoGrid::begin</title>
<polygon fill="white" stroke="none" points="-4,4 -4,-83 252,-83 252,4 -4,4"/>
<!-- Node1 -->
<g id="node1" class="node"><title>Node1</title>
<polygon fill="#bfbfbf" stroke="black" points="0,-24 0,-54 106,-54 106,-24 0,-24"/>
<text text-anchor="start" x="8" y="-42" font-family="Helvetica,sans-Serif" font-size="10.00">gengeopop::GeoGrid</text>
<text text-anchor="middle" x="53" y="-31" font-family="Helvetica,sans-Serif" font-size="10.00">::begin</text>
</g>
<!-- Node2 -->
<g id="node2" class="node"><title>Node2</title>
<g id="a_node2"><a xlink:href="../../df/d61/a00031.html#a5f2b335f8413b7fa19870a276d6f1b6e" target="_top" xlink:title="Disables the addLocation method and builds the kdtree. ">
<polygon fill="white" stroke="black" points="142,-49 142,-79 248,-79 248,-49 142,-49"/>
<text text-anchor="start" x="150" y="-67" font-family="Helvetica,sans-Serif" font-size="10.00">gengeopop::GeoGrid</text>
<text text-anchor="middle" x="195" y="-56" font-family="Helvetica,sans-Serif" font-size="10.00">::Finalize</text>
</a>
</g>
</g>
<!-- Node1&#45;&gt;Node2 -->
<g id="edge1" class="edge"><title>Node1&#45;&gt;Node2</title>
<path fill="none" stroke="midnightblue" d="M116.107,-50.0905C124.695,-51.624 133.443,-53.1862 141.826,-54.6831"/>
<polygon fill="midnightblue" stroke="midnightblue" points="116.59,-46.6216 106.131,-48.3091 115.36,-53.5126 116.59,-46.6216"/>
</g>
<!-- Node3 -->
<g id="node3" class="node"><title>Node3</title>
<g id="a_node3"><a xlink:href="../../df/d61/a00031.html#a20b2a2c9d6e43f66bf404e3b9ad54f91" target="_top" xlink:title="Gets a Location by index, doesn&#39;t performs a range check. ">
<polygon fill="white" stroke="black" points="142,-0 142,-30 248,-30 248,-0 142,-0"/>
<text text-anchor="start" x="150" y="-18" font-family="Helvetica,sans-Serif" font-size="10.00">gengeopop::GeoGrid</text>
<text text-anchor="middle" x="195" y="-7" font-family="Helvetica,sans-Serif" font-size="10.00">::operator[]</text>
</a>
</g>
</g>
<!-- Node1&#45;&gt;Node3 -->
<g id="edge2" class="edge"><title>Node1&#45;&gt;Node3</title>
<path fill="none" stroke="midnightblue" d="M116.107,-28.3531C124.695,-26.8809 133.443,-25.3812 141.826,-23.9442"/>
<polygon fill="midnightblue" stroke="midnightblue" points="115.396,-24.9239 106.131,-30.0633 116.578,-31.8232 115.396,-24.9239"/>
</g>
</g>
</svg>
