<?xml version="1.0" encoding="UTF-8" standalone="no"?>
<!DOCTYPE svg PUBLIC "-//W3C//DTD SVG 1.1//EN"
 "http://www.w3.org/Graphics/SVG/1.1/DTD/svg11.dtd">
<!-- Generated by graphviz version 2.36.0 (20140111.2315)
 -->
<!-- Title: stride::Health::ResetDiseaseCounter Pages: 1 -->
<svg width="624pt" height="98pt"
 viewBox="0.00 0.00 624.00 98.00" xmlns="http://www.w3.org/2000/svg" xmlns:xlink="http://www.w3.org/1999/xlink">
<g id="graph0" class="graph" transform="scale(1 1) rotate(0) translate(4 94)">
<title>stride::Health::ResetDiseaseCounter</title>
<polygon fill="white" stroke="none" points="-4,4 -4,-94 620,-94 620,4 -4,4"/>
<!-- Node1 -->
<g id="node1" class="node"><title>Node1</title>
<polygon fill="#bfbfbf" stroke="black" points="0.5,-27 0.5,-57 143.5,-57 143.5,-27 0.5,-27"/>
<text text-anchor="start" x="8.5" y="-45" font-family="Helvetica,sans-Serif" font-size="10.00">stride::Health::ResetDisease</text>
<text text-anchor="middle" x="72" y="-34" font-family="Helvetica,sans-Serif" font-size="10.00">Counter</text>
</g>
<!-- Node2 -->
<g id="node2" class="node"><title>Node2</title>
<g id="a_node2"><a xlink:href="../../d3/d00/a00113.html#a5d85541b8e22aeaa75b364a454f59088" target="_top" xlink:title="Start the infection. ">
<polygon fill="white" stroke="black" points="180,-32.5 180,-51.5 320,-51.5 320,-32.5 180,-32.5"/>
<text text-anchor="middle" x="250" y="-39.5" font-family="Helvetica,sans-Serif" font-size="10.00">stride::Health::StartInfection</text>
</a>
</g>
</g>
<!-- Node1&#45;&gt;Node2 -->
<g id="edge1" class="edge"><title>Node1&#45;&gt;Node2</title>
<path fill="none" stroke="midnightblue" d="M153.744,-42C162.463,-42 171.279,-42 179.845,-42"/>
<polygon fill="midnightblue" stroke="midnightblue" points="153.572,-38.5001 143.572,-42 153.572,-45.5001 153.572,-38.5001"/>
</g>
<!-- Node3 -->
<g id="node3" class="node"><title>Node3</title>
<g id="a_node3"><a xlink:href="../../d8/dfa/a00121.html#a3e10dc57119090c30ba818420bbd7b94" target="_top" xlink:title="stride::Infector\&lt; LL,\l TIC, NoLocalInformation,\l true \&gt;::Exec">
<polygon fill="white" stroke="black" points="356,-48.5 356,-89.5 486,-89.5 486,-48.5 356,-48.5"/>
<text text-anchor="start" x="364" y="-77.5" font-family="Helvetica,sans-Serif" font-size="10.00">stride::Infector&lt; LL,</text>
<text text-anchor="start" x="364" y="-66.5" font-family="Helvetica,sans-Serif" font-size="10.00"> TIC, NoLocalInformation,</text>
<text text-anchor="middle" x="421" y="-55.5" font-family="Helvetica,sans-Serif" font-size="10.00"> true &gt;::Exec</text>
</a>
</g>
</g>
<!-- Node2&#45;&gt;Node3 -->
<g id="edge2" class="edge"><title>Node2&#45;&gt;Node3</title>
<path fill="none" stroke="midnightblue" d="M320.676,-53.1316C332.3,-54.9888 344.311,-56.9076 355.79,-58.7416"/>
<polygon fill="midnightblue" stroke="midnightblue" points="321.01,-49.6407 310.583,-51.5192 319.906,-56.5531 321.01,-49.6407"/>
</g>
<!-- Node4 -->
<g id="node4" class="node"><title>Node4</title>
<g id="a_node4"><a xlink:href="../../dd/d42/a00109.html#adc5b1f152367382afe3dade9421357da" target="_top" xlink:title="Build the simulator. ">
<polygon fill="white" stroke="black" points="364.5,-0 364.5,-30 477.5,-30 477.5,-0 364.5,-0"/>
<text text-anchor="start" x="372.5" y="-18" font-family="Helvetica,sans-Serif" font-size="10.00">stride::DiseaseSeeder</text>
<text text-anchor="middle" x="421" y="-7" font-family="Helvetica,sans-Serif" font-size="10.00">::Seed</text>
</a>
</g>
</g>
<!-- Node2&#45;&gt;Node4 -->
<g id="edge3" class="edge"><title>Node2&#45;&gt;Node4</title>
<path fill="none" stroke="midnightblue" d="M320.561,-30.8866C335.148,-28.5562 350.349,-26.1277 364.348,-23.8911"/>
<polygon fill="midnightblue" stroke="midnightblue" points="319.906,-27.4469 310.583,-32.4808 321.01,-34.3593 319.906,-27.4469"/>
</g>
<!-- Node5 -->
<g id="node5" class="node"><title>Node5</title>
<g id="a_node5"><a xlink:href="../../d5/db1/a00140.html#a94ce5fb3cae915f0bdb261498f31c444" target="_top" xlink:title="Build the simulator and return it afterwards. ">
<polygon fill="white" stroke="black" points="522,-0 522,-30 616,-30 616,-0 522,-0"/>
<text text-anchor="start" x="530" y="-18" font-family="Helvetica,sans-Serif" font-size="10.00">stride::SimBuilder</text>
<text text-anchor="middle" x="569" y="-7" font-family="Helvetica,sans-Serif" font-size="10.00">::Build</text>
</a>
</g>
</g>
<!-- Node4&#45;&gt;Node5 -->
<g id="edge4" class="edge"><title>Node4&#45;&gt;Node5</title>
<path fill="none" stroke="midnightblue" d="M487.94,-15C499.291,-15 510.871,-15 521.57,-15"/>
<polygon fill="midnightblue" stroke="midnightblue" points="487.613,-11.5001 477.613,-15 487.613,-18.5001 487.613,-11.5001"/>
</g>
</g>
</svg>
