<?xml version="1.0" encoding="UTF-8" standalone="no"?>
<!DOCTYPE svg PUBLIC "-//W3C//DTD SVG 1.1//EN"
 "http://www.w3.org/Graphics/SVG/1.1/DTD/svg11.dtd">
<!-- Generated by graphviz version 2.36.0 (20140111.2315)
 -->
<!-- Title: stride::Health::IsSusceptible Pages: 1 -->
<svg width="442pt" height="98pt"
 viewBox="0.00 0.00 442.00 98.00" xmlns="http://www.w3.org/2000/svg" xmlns:xlink="http://www.w3.org/1999/xlink">
<g id="graph0" class="graph" transform="scale(1 1) rotate(0) translate(4 94)">
<title>stride::Health::IsSusceptible</title>
<polygon fill="white" stroke="none" points="-4,4 -4,-94 438,-94 438,4 -4,4"/>
<!-- Node1 -->
<g id="node1" class="node"><title>Node1</title>
<polygon fill="#bfbfbf" stroke="black" points="0,-32.5 0,-51.5 140,-51.5 140,-32.5 0,-32.5"/>
<text text-anchor="middle" x="70" y="-39.5" font-family="Helvetica,sans-Serif" font-size="10.00">stride::Health::IsSusceptible</text>
</g>
<!-- Node2 -->
<g id="node2" class="node"><title>Node2</title>
<g id="a_node2"><a xlink:href="../../d7/d12/a00126.html#a027a20be44f26ed2efddc2198158cc04" target="_top" xlink:title="stride::LOG_POLICY\l\&lt; ContactLogMode::Id\l::Susceptibles \&gt;::Contact">
<polygon fill="white" stroke="black" points="176,-48.5 176,-89.5 304,-89.5 304,-48.5 176,-48.5"/>
<text text-anchor="start" x="184" y="-77.5" font-family="Helvetica,sans-Serif" font-size="10.00">stride::LOG_POLICY</text>
<text text-anchor="start" x="184" y="-66.5" font-family="Helvetica,sans-Serif" font-size="10.00">&lt; ContactLogMode::Id</text>
<text text-anchor="middle" x="240" y="-55.5" font-family="Helvetica,sans-Serif" font-size="10.00">::Susceptibles &gt;::Contact</text>
</a>
</g>
</g>
<!-- Node1&#45;&gt;Node2 -->
<g id="edge1" class="edge"><title>Node1&#45;&gt;Node2</title>
<path fill="none" stroke="midnightblue" d="M140.395,-53.1528C152.104,-55.0345 164.203,-56.979 175.744,-58.8339"/>
<polygon fill="midnightblue" stroke="midnightblue" points="140.659,-49.6504 130.231,-51.5192 139.548,-56.5617 140.659,-49.6504"/>
</g>
<!-- Node3 -->
<g id="node3" class="node"><title>Node3</title>
<g id="a_node3"><a xlink:href="../../dd/d42/a00109.html#adc5b1f152367382afe3dade9421357da" target="_top" xlink:title="Build the simulator. ">
<polygon fill="white" stroke="black" points="183.5,-0 183.5,-30 296.5,-30 296.5,-0 183.5,-0"/>
<text text-anchor="start" x="191.5" y="-18" font-family="Helvetica,sans-Serif" font-size="10.00">stride::DiseaseSeeder</text>
<text text-anchor="middle" x="240" y="-7" font-family="Helvetica,sans-Serif" font-size="10.00">::Seed</text>
</a>
</g>
</g>
<!-- Node1&#45;&gt;Node3 -->
<g id="edge2" class="edge"><title>Node1&#45;&gt;Node3</title>
<path fill="none" stroke="midnightblue" d="M140.511,-30.8285C154.804,-28.5314 169.674,-26.1416 183.398,-23.936"/>
<polygon fill="midnightblue" stroke="midnightblue" points="139.548,-27.4383 130.231,-32.4808 140.659,-34.3496 139.548,-27.4383"/>
</g>
<!-- Node4 -->
<g id="node4" class="node"><title>Node4</title>
<g id="a_node4"><a xlink:href="../../d5/db1/a00140.html#a94ce5fb3cae915f0bdb261498f31c444" target="_top" xlink:title="Build the simulator and return it afterwards. ">
<polygon fill="white" stroke="black" points="340,-0 340,-30 434,-30 434,-0 340,-0"/>
<text text-anchor="start" x="348" y="-18" font-family="Helvetica,sans-Serif" font-size="10.00">stride::SimBuilder</text>
<text text-anchor="middle" x="387" y="-7" font-family="Helvetica,sans-Serif" font-size="10.00">::Build</text>
</a>
</g>
</g>
<!-- Node3&#45;&gt;Node4 -->
<g id="edge3" class="edge"><title>Node3&#45;&gt;Node4</title>
<path fill="none" stroke="midnightblue" d="M306.762,-15C317.876,-15 329.202,-15 339.685,-15"/>
<polygon fill="midnightblue" stroke="midnightblue" points="306.646,-11.5001 296.646,-15 306.646,-18.5001 306.646,-11.5001"/>
</g>
</g>
</svg>
