<?xml version="1.0" encoding="UTF-8" standalone="no"?>
<!DOCTYPE svg PUBLIC "-//W3C//DTD SVG 1.1//EN"
 "http://www.w3.org/Graphics/SVG/1.1/DTD/svg11.dtd">
<!-- Generated by graphviz version 2.36.0 (20140111.2315)
 -->
<!-- Title: Person.h Pages: 1 -->
<!--zoomable 320 -->
<svg id="main" version="1.1" xmlns="http://www.w3.org/2000/svg" xmlns:xlink="http://www.w3.org/1999/xlink" xml:space="preserve" onload="init(evt)">
<style type="text/css"><![CDATA[
.edge:hover path { stroke: red; }
.edge:hover polygon { stroke: red; fill: red; }
]]></style>
<script type="text/javascript"><![CDATA[
var edges = document.getElementsByTagName('g');
if (edges && edges.length) {
  for (var i=0;i<edges.length;i++) {
    if (edges[i].id.substr(0,4)=='edge') {
      edges[i].setAttribute('class','edge');
    }
  }
}
]]></script>
        <defs>
                <circle id="rim" cx="0" cy="0" r="7"/>
                <circle id="rim2" cx="0" cy="0" r="3.5"/>
                <g id="zoomPlus">
                        <use xlink:href="#rim" fill="#404040">
                                <set attributeName="fill" to="#808080" begin="zoomplus.mouseover" end="zoomplus.mouseout"/>
                        </use>
                        <path d="M-4,0h8M0,-4v8" fill="none" stroke="white" stroke-width="1.5" pointer-events="none"/>
                </g>
                <g id="zoomMin">
                        <use xlink:href="#rim" fill="#404040">
                                <set attributeName="fill" to="#808080" begin="zoomminus.mouseover" end="zoomminus.mouseout"/>
                        </use>
                        <path d="M-4,0h8" fill="none" stroke="white" stroke-width="1.5" pointer-events="none"/>
                </g>
                <g id="dirArrow">
                        <path fill="none" stroke="white" stroke-width="1.5" d="M0,-3.0v7 M-2.5,-0.5L0,-3.0L2.5,-0.5"/>
                </g>
               <g id="resetDef">
                       <use xlink:href="#rim2" fill="#404040">
                               <set attributeName="fill" to="#808080" begin="reset.mouseover" end="reset.mouseout"/>
                       </use>
               </g>
        </defs>

<script type="text/javascript">
var viewWidth = 1702;
var viewHeight = 320;
var sectionId = 'dynsection-0';
</script>
<script xlink:href="../../svgpan.js"/>
<svg id="graph" class="graph">
<g id="viewport">
<title>Person.h</title>
<polygon fill="white" stroke="none" points="-4,4 -4,-316 1698,-316 1698,4 -4,4"/>
<!-- Node1 -->
<g id="node1" class="node"><title>Node1</title>
<polygon fill="#bfbfbf" stroke="black" points="1345,-292.5 1345,-311.5 1401,-311.5 1401,-292.5 1345,-292.5"/>
<text text-anchor="middle" x="1373" y="-299.5" font-family="Helvetica,sans-Serif" font-size="10.00">Person.h</text>
</g>
<!-- Node2 -->
<g id="node2" class="node"><title>Node2</title>
<g id="a_node2"><a xlink:href="../../dc/d0f/a00303.html" target="_top" xlink:title="Header for the Health class. ">
<polygon fill="white" stroke="black" points="1176,-230.5 1176,-249.5 1266,-249.5 1266,-230.5 1176,-230.5"/>
<text text-anchor="middle" x="1221" y="-237.5" font-family="Helvetica,sans-Serif" font-size="10.00">disease/Health.h</text>
</a>
</g>
</g>
<!-- Node1&#45;&gt;Node2 -->
<g id="edge1" class="edge"><title>Node1&#45;&gt;Node2</title>
<path fill="none" stroke="midnightblue" d="M1351.22,-292.403C1325.26,-282.156 1281.69,-264.956 1252.17,-253.302"/>
<polygon fill="midnightblue" stroke="midnightblue" points="1253.32,-249.997 1242.74,-249.581 1250.75,-256.508 1253.32,-249.997"/>
</g>
<!-- Node3 -->
<g id="node3" class="node"><title>Node3</title>
<g id="a_node3"><a xlink:href="../../de/dbc/a00249.html" target="_top" xlink:title="Definition of ContactPoolType. ">
<polygon fill="white" stroke="black" points="1376,-56.5 1376,-75.5 1498,-75.5 1498,-56.5 1376,-56.5"/>
<text text-anchor="middle" x="1437" y="-63.5" font-family="Helvetica,sans-Serif" font-size="10.00">pool/ContactPoolType.h</text>
</a>
</g>
</g>
<!-- Node1&#45;&gt;Node3 -->
<g id="edge2" class="edge"><title>Node1&#45;&gt;Node3</title>
<path fill="none" stroke="midnightblue" d="M1401.05,-293.241C1442.83,-279.88 1519.15,-247.997 1544,-188 1563.34,-141.307 1502.42,-100.388 1464.66,-80.2547"/>
<polygon fill="midnightblue" stroke="midnightblue" points="1466.11,-77.0665 1455.62,-75.5932 1462.9,-83.2878 1466.11,-77.0665"/>
</g>
<!-- Node9 -->
<g id="node9" class="node"><title>Node9</title>
<g id="a_node9"><a xlink:href="../../d2/d41/a00318.html" target="_top" xlink:title="Container for the contact pools of various type (household, work, ...). ">
<polygon fill="white" stroke="black" points="1254.5,-168.5 1254.5,-187.5 1373.5,-187.5 1373.5,-168.5 1254.5,-168.5"/>
<text text-anchor="middle" x="1314" y="-175.5" font-family="Helvetica,sans-Serif" font-size="10.00">pool/IdSubscriptArray.h</text>
</a>
</g>
</g>
<!-- Node1&#45;&gt;Node9 -->
<g id="edge8" class="edge"><title>Node1&#45;&gt;Node9</title>
<path fill="none" stroke="midnightblue" d="M1368.77,-292.382C1364.32,-283.33 1357.14,-268.677 1351,-256 1341.13,-235.637 1329.88,-212.194 1322.4,-196.577"/>
<polygon fill="midnightblue" stroke="midnightblue" points="1325.56,-195.065 1318.09,-187.555 1319.25,-198.086 1325.56,-195.065"/>
</g>
<!-- Node19 -->
<g id="node19" class="node"><title>Node19</title>
<g id="a_node19"><a xlink:href="../../dd/d07/a00433.html" target="_top" xlink:title="pool/TravellerIndex.h">
<polygon fill="white" stroke="black" points="1360.5,-230.5 1360.5,-249.5 1467.5,-249.5 1467.5,-230.5 1360.5,-230.5"/>
<text text-anchor="middle" x="1414" y="-237.5" font-family="Helvetica,sans-Serif" font-size="10.00">pool/TravellerIndex.h</text>
</a>
</g>
</g>
<!-- Node1&#45;&gt;Node19 -->
<g id="edge24" class="edge"><title>Node1&#45;&gt;Node19</title>
<path fill="none" stroke="midnightblue" d="M1378.87,-292.403C1384.96,-283.493 1394.64,-269.325 1402.3,-258.118"/>
<polygon fill="midnightblue" stroke="midnightblue" points="1405.38,-259.812 1408.14,-249.581 1399.6,-255.862 1405.38,-259.812"/>
</g>
<!-- Node22 -->
<g id="node22" class="node"><title>Node22</title>
<g id="a_node22"><a xlink:href="../../d0/dc5/a00435.html" target="_top" xlink:title="pool/TravellerProfile.h">
<polygon fill="white" stroke="black" points="933.5,-168.5 933.5,-187.5 1044.5,-187.5 1044.5,-168.5 933.5,-168.5"/>
<text text-anchor="middle" x="989" y="-175.5" font-family="Helvetica,sans-Serif" font-size="10.00">pool/TravellerProfile.h</text>
</a>
</g>
</g>
<!-- Node1&#45;&gt;Node22 -->
<g id="edge29" class="edge"><title>Node1&#45;&gt;Node22</title>
<path fill="none" stroke="midnightblue" d="M1364.83,-292.081C1349.17,-275.612 1313.08,-240.598 1275,-224 1203.78,-192.961 1114.31,-182.998 1054.59,-179.977"/>
<polygon fill="midnightblue" stroke="midnightblue" points="1054.68,-176.477 1044.53,-179.519 1054.36,-183.47 1054.68,-176.477"/>
</g>
<!-- Node33 -->
<g id="node33" class="node"><title>Node33</title>
<polygon fill="white" stroke="#bfbfbf" points="1592.5,-225 1592.5,-255 1693.5,-255 1693.5,-225 1592.5,-225"/>
<text text-anchor="start" x="1600.5" y="-243" font-family="Helvetica,sans-Serif" font-size="10.00">boost/property_tree</text>
<text text-anchor="middle" x="1643" y="-232" font-family="Helvetica,sans-Serif" font-size="10.00">/ptree.hpp</text>
</g>
<!-- Node1&#45;&gt;Node33 -->
<g id="edge45" class="edge"><title>Node1&#45;&gt;Node33</title>
<path fill="none" stroke="midnightblue" d="M1401.21,-294.908C1440.75,-286.346 1514.9,-270.205 1578,-256 1579.45,-255.674 1580.91,-255.343 1582.39,-255.009"/>
<polygon fill="midnightblue" stroke="midnightblue" points="1583.3,-258.393 1592.27,-252.762 1581.74,-251.567 1583.3,-258.393"/>
</g>
<!-- Node4 -->
<g id="node4" class="node"><title>Node4</title>
<polygon fill="white" stroke="#bfbfbf" points="1417.5,-0.5 1417.5,-19.5 1466.5,-19.5 1466.5,-0.5 1417.5,-0.5"/>
<text text-anchor="middle" x="1442" y="-7.5" font-family="Helvetica,sans-Serif" font-size="10.00">cstddef</text>
</g>
<!-- Node3&#45;&gt;Node4 -->
<g id="edge3" class="edge"><title>Node3&#45;&gt;Node4</title>
<path fill="none" stroke="midnightblue" d="M1437.83,-56.083C1438.48,-49.0059 1439.42,-38.8611 1440.24,-29.9865"/>
<polygon fill="midnightblue" stroke="midnightblue" points="1443.75,-30.0312 1441.19,-19.7511 1436.78,-29.3858 1443.75,-30.0312"/>
</g>
<!-- Node5 -->
<g id="node5" class="node"><title>Node5</title>
<polygon fill="white" stroke="#bfbfbf" points="701.5,-0.5 701.5,-19.5 742.5,-19.5 742.5,-0.5 701.5,-0.5"/>
<text text-anchor="middle" x="722" y="-7.5" font-family="Helvetica,sans-Serif" font-size="10.00">string</text>
</g>
<!-- Node3&#45;&gt;Node5 -->
<g id="edge4" class="edge"><title>Node3&#45;&gt;Node5</title>
<path fill="none" stroke="midnightblue" d="M1375.94,-56.9369C1372.92,-56.6046 1369.93,-56.29 1367,-56 1131.15,-32.6306 845.587,-17.199 752.75,-12.5083"/>
<polygon fill="midnightblue" stroke="midnightblue" points="752.806,-9.00689 742.644,-12.0019 752.456,-15.9981 752.806,-9.00689"/>
</g>
<!-- Node6 -->
<g id="node6" class="node"><title>Node6</title>
<polygon fill="white" stroke="#bfbfbf" points="1494,-0.5 1494,-19.5 1548,-19.5 1548,-0.5 1494,-0.5"/>
<text text-anchor="middle" x="1521" y="-7.5" font-family="Helvetica,sans-Serif" font-size="10.00">iostream</text>
</g>
<!-- Node3&#45;&gt;Node6 -->
<g id="edge5" class="edge"><title>Node3&#45;&gt;Node6</title>
<path fill="none" stroke="midnightblue" d="M1450.5,-56.324C1463.6,-47.9002 1483.71,-34.9709 1499.11,-25.0741"/>
<polygon fill="midnightblue" stroke="midnightblue" points="1501.02,-28.0063 1507.54,-19.6545 1497.23,-22.118 1501.02,-28.0063"/>
</g>
<!-- Node7 -->
<g id="node7" class="node"><title>Node7</title>
<polygon fill="white" stroke="#bfbfbf" points="1352.5,-0.5 1352.5,-19.5 1399.5,-19.5 1399.5,-0.5 1352.5,-0.5"/>
<text text-anchor="middle" x="1376" y="-7.5" font-family="Helvetica,sans-Serif" font-size="10.00">iterator</text>
</g>
<!-- Node3&#45;&gt;Node7 -->
<g id="edge6" class="edge"><title>Node3&#45;&gt;Node7</title>
<path fill="none" stroke="midnightblue" d="M1427.2,-56.324C1418.18,-48.3414 1404.59,-36.3128 1393.68,-26.6529"/>
<polygon fill="midnightblue" stroke="midnightblue" points="1395.79,-23.8416 1385.98,-19.8339 1391.15,-29.083 1395.79,-23.8416"/>
</g>
<!-- Node8 -->
<g id="node8" class="node"><title>Node8</title>
<polygon fill="white" stroke="#bfbfbf" points="998,-0.5 998,-19.5 1042,-19.5 1042,-0.5 998,-0.5"/>
<text text-anchor="middle" x="1020" y="-7.5" font-family="Helvetica,sans-Serif" font-size="10.00">vector</text>
</g>
<!-- Node3&#45;&gt;Node8 -->
<g id="edge7" class="edge"><title>Node3&#45;&gt;Node8</title>
<path fill="none" stroke="midnightblue" d="M1375.92,-57.0901C1286.16,-45.4666 1121.77,-24.1792 1052.33,-15.1863"/>
<polygon fill="midnightblue" stroke="midnightblue" points="1052.39,-11.6653 1042.02,-13.8519 1051.49,-18.6073 1052.39,-11.6653"/>
</g>
<!-- Node9&#45;&gt;Node3 -->
<g id="edge18" class="edge"><title>Node9&#45;&gt;Node3</title>
<path fill="none" stroke="midnightblue" d="M1355,-168.482C1389.59,-160.366 1435.15,-147.161 1446,-132 1455.62,-118.563 1451.45,-99.4892 1446.03,-85.4777"/>
<polygon fill="midnightblue" stroke="midnightblue" points="1449.06,-83.6839 1441.85,-75.927 1442.65,-86.4913 1449.06,-83.6839"/>
</g>
<!-- Node9&#45;&gt;Node6 -->
<g id="edge22" class="edge"><title>Node9&#45;&gt;Node6</title>
<path fill="none" stroke="midnightblue" d="M1370.28,-168.437C1399.79,-161.952 1435.44,-150.818 1463,-132 1489.14,-114.152 1493.55,-104.65 1507,-76 1513.9,-61.3066 1517.44,-43.1422 1519.24,-29.7539"/>
<polygon fill="midnightblue" stroke="midnightblue" points="1522.72,-30.1432 1520.37,-19.812 1515.76,-29.3531 1522.72,-30.1432"/>
</g>
<!-- Node10 -->
<g id="node10" class="node"><title>Node10</title>
<g id="a_node10"><a xlink:href="../../d6/d08/a00244.html" target="_top" xlink:title="Header for the core ContactPool class. ">
<polygon fill="white" stroke="black" points="1094,-112.5 1094,-131.5 1194,-131.5 1194,-112.5 1094,-112.5"/>
<text text-anchor="middle" x="1144" y="-119.5" font-family="Helvetica,sans-Serif" font-size="10.00">pool/ContactPool.h</text>
</a>
</g>
</g>
<!-- Node9&#45;&gt;Node10 -->
<g id="edge9" class="edge"><title>Node9&#45;&gt;Node10</title>
<path fill="none" stroke="midnightblue" d="M1287.06,-168.444C1258.34,-159.32 1212.67,-144.813 1180.68,-134.651"/>
<polygon fill="midnightblue" stroke="midnightblue" points="1181.4,-131.208 1170.81,-131.516 1179.28,-137.88 1181.4,-131.208"/>
</g>
<!-- Node12 -->
<g id="node12" class="node"><title>Node12</title>
<polygon fill="white" stroke="#bfbfbf" points="1320,-56.5 1320,-75.5 1358,-75.5 1358,-56.5 1320,-56.5"/>
<text text-anchor="middle" x="1339" y="-63.5" font-family="Helvetica,sans-Serif" font-size="10.00">array</text>
</g>
<!-- Node9&#45;&gt;Node12 -->
<g id="edge19" class="edge"><title>Node9&#45;&gt;Node12</title>
<path fill="none" stroke="midnightblue" d="M1372.57,-168.483C1394.33,-162.164 1416.88,-151.16 1430,-132 1435.02,-124.666 1434.69,-119.551 1430,-112 1422.85,-100.486 1391.44,-86.5634 1367.51,-77.2829"/>
<polygon fill="midnightblue" stroke="midnightblue" points="1368.71,-73.9974 1358.12,-73.7298 1366.23,-80.5439 1368.71,-73.9974"/>
</g>
<!-- Node16 -->
<g id="node16" class="node"><title>Node16</title>
<polygon fill="white" stroke="#bfbfbf" points="1212.5,-112.5 1212.5,-131.5 1253.5,-131.5 1253.5,-112.5 1212.5,-112.5"/>
<text text-anchor="middle" x="1233" y="-119.5" font-family="Helvetica,sans-Serif" font-size="10.00">bitset</text>
</g>
<!-- Node9&#45;&gt;Node16 -->
<g id="edge20" class="edge"><title>Node9&#45;&gt;Node16</title>
<path fill="none" stroke="midnightblue" d="M1300.99,-168.324C1288.47,-159.979 1269.32,-147.212 1254.53,-137.352"/>
<polygon fill="midnightblue" stroke="midnightblue" points="1256.24,-134.289 1245.98,-131.655 1252.36,-140.114 1256.24,-134.289"/>
</g>
<!-- Node17 -->
<g id="node17" class="node"><title>Node17</title>
<polygon fill="white" stroke="#bfbfbf" points="1271.5,-112.5 1271.5,-131.5 1344.5,-131.5 1344.5,-112.5 1271.5,-112.5"/>
<text text-anchor="middle" x="1308" y="-119.5" font-family="Helvetica,sans-Serif" font-size="10.00">initializer_list</text>
</g>
<!-- Node9&#45;&gt;Node17 -->
<g id="edge21" class="edge"><title>Node9&#45;&gt;Node17</title>
<path fill="none" stroke="midnightblue" d="M1313.01,-168.083C1312.21,-160.927 1311.07,-150.635 1310.08,-141.691"/>
<polygon fill="midnightblue" stroke="midnightblue" points="1313.56,-141.303 1308.97,-131.751 1306.6,-142.076 1313.56,-141.303"/>
</g>
<!-- Node18 -->
<g id="node18" class="node"><title>Node18</title>
<polygon fill="white" stroke="#bfbfbf" points="1362.5,-112.5 1362.5,-131.5 1421.5,-131.5 1421.5,-112.5 1362.5,-112.5"/>
<text text-anchor="middle" x="1392" y="-119.5" font-family="Helvetica,sans-Serif" font-size="10.00">stdexcept</text>
</g>
<!-- Node9&#45;&gt;Node18 -->
<g id="edge23" class="edge"><title>Node9&#45;&gt;Node18</title>
<path fill="none" stroke="midnightblue" d="M1326.53,-168.324C1338.59,-159.979 1357.03,-147.212 1371.27,-137.352"/>
<polygon fill="midnightblue" stroke="midnightblue" points="1373.27,-140.224 1379.5,-131.655 1369.28,-134.469 1373.27,-140.224"/>
</g>
<!-- Node10&#45;&gt;Node3 -->
<g id="edge12" class="edge"><title>Node10&#45;&gt;Node3</title>
<path fill="none" stroke="midnightblue" d="M1190.43,-112.444C1242.08,-102.925 1325.51,-87.5472 1380.81,-77.3563"/>
<polygon fill="midnightblue" stroke="midnightblue" points="1381.59,-80.771 1390.79,-75.5164 1380.32,-73.887 1381.59,-80.771"/>
</g>
<!-- Node10&#45;&gt;Node8 -->
<g id="edge17" class="edge"><title>Node10&#45;&gt;Node8</title>
<path fill="none" stroke="midnightblue" d="M1147.23,-112.497C1151.7,-99.1308 1157.97,-72.9808 1146,-56 1124.93,-26.1072 1082.12,-15.9623 1052.28,-12.5817"/>
<polygon fill="midnightblue" stroke="midnightblue" points="1052.61,-9.097 1042.32,-11.6468 1051.95,-16.0664 1052.61,-9.097"/>
</g>
<!-- Node11 -->
<g id="node11" class="node"><title>Node11</title>
<g id="a_node11"><a xlink:href="../../d2/dc8/a00242.html" target="_top" xlink:title="Header for the ContactLogMode class. ">
<polygon fill="white" stroke="black" points="902,-56.5 902,-75.5 1036,-75.5 1036,-56.5 902,-56.5"/>
<text text-anchor="middle" x="969" y="-63.5" font-family="Helvetica,sans-Serif" font-size="10.00">contact/ContactLogMode.h</text>
</a>
</g>
</g>
<!-- Node10&#45;&gt;Node11 -->
<g id="edge10" class="edge"><title>Node10&#45;&gt;Node11</title>
<path fill="none" stroke="midnightblue" d="M1116.27,-112.444C1086.57,-103.28 1039.28,-88.6876 1006.33,-78.5192"/>
<polygon fill="midnightblue" stroke="midnightblue" points="1007.19,-75.1206 996.6,-75.5164 1005.12,-81.8094 1007.19,-75.1206"/>
</g>
<!-- Node10&#45;&gt;Node12 -->
<g id="edge13" class="edge"><title>Node10&#45;&gt;Node12</title>
<path fill="none" stroke="midnightblue" d="M1177.72,-112.419C1209.56,-104.204 1258.86,-91.1997 1310.16,-76.1513"/>
<polygon fill="midnightblue" stroke="midnightblue" points="1311.16,-79.5062 1319.76,-73.3184 1309.18,-72.7925 1311.16,-79.5062"/>
</g>
<!-- Node13 -->
<g id="node13" class="node"><title>Node13</title>
<polygon fill="white" stroke="#bfbfbf" points="1194,-56.5 1194,-75.5 1246,-75.5 1246,-56.5 1194,-56.5"/>
<text text-anchor="middle" x="1220" y="-63.5" font-family="Helvetica,sans-Serif" font-size="10.00">memory</text>
</g>
<!-- Node10&#45;&gt;Node13 -->
<g id="edge14" class="edge"><title>Node10&#45;&gt;Node13</title>
<path fill="none" stroke="midnightblue" d="M1156.21,-112.324C1167.78,-104.107 1185.38,-91.6017 1199.16,-81.8069"/>
<polygon fill="midnightblue" stroke="midnightblue" points="1201.44,-84.4791 1207.57,-75.8339 1197.39,-78.7729 1201.44,-84.4791"/>
</g>
<!-- Node14 -->
<g id="node14" class="node"><title>Node14</title>
<polygon fill="white" stroke="#bfbfbf" points="1264,-56.5 1264,-75.5 1302,-75.5 1302,-56.5 1264,-56.5"/>
<text text-anchor="middle" x="1283" y="-63.5" font-family="Helvetica,sans-Serif" font-size="10.00">tuple</text>
</g>
<!-- Node10&#45;&gt;Node14 -->
<g id="edge15" class="edge"><title>Node10&#45;&gt;Node14</title>
<path fill="none" stroke="midnightblue" d="M1166.02,-112.444C1189.92,-103.161 1228.15,-88.3078 1254.36,-78.1254"/>
<polygon fill="midnightblue" stroke="midnightblue" points="1255.71,-81.3568 1263.76,-74.473 1253.18,-74.8318 1255.71,-81.3568"/>
</g>
<!-- Node15 -->
<g id="node15" class="node"><title>Node15</title>
<polygon fill="white" stroke="#bfbfbf" points="1054.5,-56.5 1054.5,-75.5 1137.5,-75.5 1137.5,-56.5 1054.5,-56.5"/>
<text text-anchor="middle" x="1096" y="-63.5" font-family="Helvetica,sans-Serif" font-size="10.00">unordered_map</text>
</g>
<!-- Node10&#45;&gt;Node15 -->
<g id="edge16" class="edge"><title>Node10&#45;&gt;Node15</title>
<path fill="none" stroke="midnightblue" d="M1136.07,-112.083C1129.15,-104.298 1118.93,-92.8015 1110.55,-83.3665"/>
<polygon fill="midnightblue" stroke="midnightblue" points="1113.04,-80.8999 1103.78,-75.7511 1107.81,-85.5505 1113.04,-80.8999"/>
</g>
<!-- Node11&#45;&gt;Node5 -->
<g id="edge11" class="edge"><title>Node11&#45;&gt;Node5</title>
<path fill="none" stroke="midnightblue" d="M929.862,-56.4435C880.748,-45.706 797.536,-27.5139 752.741,-17.7206"/>
<polygon fill="midnightblue" stroke="midnightblue" points="753.262,-14.252 742.745,-15.5354 751.767,-21.0905 753.262,-14.252"/>
</g>
<!-- Node19&#45;&gt;Node9 -->
<g id="edge26" class="edge"><title>Node19&#45;&gt;Node9</title>
<path fill="none" stroke="midnightblue" d="M1399.67,-230.403C1383.34,-220.601 1356.4,-204.439 1337.09,-192.853"/>
<polygon fill="midnightblue" stroke="midnightblue" points="1338.68,-189.724 1328.3,-187.581 1335.08,-195.727 1338.68,-189.724"/>
</g>
<!-- Node19&#45;&gt;Node10 -->
<g id="edge25" class="edge"><title>Node19&#45;&gt;Node10</title>
<path fill="none" stroke="midnightblue" d="M1374.62,-230.42C1339.62,-222.031 1287.57,-207.652 1245,-188 1214.79,-174.055 1183,-152.242 1163.34,-137.786"/>
<polygon fill="midnightblue" stroke="midnightblue" points="1165.31,-134.893 1155.21,-131.717 1161.13,-140.503 1165.31,-134.893"/>
</g>
<!-- Node20 -->
<g id="node20" class="node"><title>Node20</title>
<polygon fill="white" stroke="#bfbfbf" points="1391.5,-168.5 1391.5,-187.5 1474.5,-187.5 1474.5,-168.5 1391.5,-168.5"/>
<text text-anchor="middle" x="1433" y="-175.5" font-family="Helvetica,sans-Serif" font-size="10.00">spdlog/logger.h</text>
</g>
<!-- Node19&#45;&gt;Node20 -->
<g id="edge27" class="edge"><title>Node19&#45;&gt;Node20</title>
<path fill="none" stroke="midnightblue" d="M1416.72,-230.403C1419.46,-221.76 1423.76,-208.17 1427.26,-197.134"/>
<polygon fill="midnightblue" stroke="midnightblue" points="1430.6,-198.171 1430.28,-187.581 1423.93,-196.057 1430.6,-198.171"/>
</g>
<!-- Node21 -->
<g id="node21" class="node"><title>Node21</title>
<polygon fill="white" stroke="#bfbfbf" points="1492.5,-168.5 1492.5,-187.5 1535.5,-187.5 1535.5,-168.5 1492.5,-168.5"/>
<text text-anchor="middle" x="1514" y="-175.5" font-family="Helvetica,sans-Serif" font-size="10.00">queue</text>
</g>
<!-- Node19&#45;&gt;Node21 -->
<g id="edge28" class="edge"><title>Node19&#45;&gt;Node21</title>
<path fill="none" stroke="midnightblue" d="M1428.33,-230.403C1444.66,-220.601 1471.6,-204.439 1490.91,-192.853"/>
<polygon fill="midnightblue" stroke="midnightblue" points="1492.92,-195.727 1499.7,-187.581 1489.32,-189.724 1492.92,-195.727"/>
</g>
<!-- Node22&#45;&gt;Node8 -->
<g id="edge44" class="edge"><title>Node22&#45;&gt;Node8</title>
<path fill="none" stroke="midnightblue" d="M972.786,-168.451C938.054,-149.015 862.051,-99.8002 893,-56 914.252,-25.9232 957.397,-15.8207 987.47,-12.4999"/>
<polygon fill="midnightblue" stroke="midnightblue" points="987.863,-15.9787 997.505,-11.5865 987.229,-9.00751 987.863,-15.9787"/>
</g>
<!-- Node22&#45;&gt;Node10 -->
<g id="edge30" class="edge"><title>Node22&#45;&gt;Node10</title>
<path fill="none" stroke="midnightblue" d="M1013.56,-168.444C1039.52,-159.399 1080.67,-145.064 1109.8,-134.916"/>
<polygon fill="midnightblue" stroke="midnightblue" points="1111.26,-138.112 1119.55,-131.516 1108.96,-131.501 1111.26,-138.112"/>
</g>
<!-- Node23 -->
<g id="node23" class="node"><title>Node23</title>
<polygon fill="white" stroke="#bfbfbf" points="934,-112.5 934,-131.5 1044,-131.5 1044,-112.5 934,-112.5"/>
<text text-anchor="middle" x="989" y="-119.5" font-family="Helvetica,sans-Serif" font-size="10.00">trng/discrete_dist.hpp</text>
</g>
<!-- Node22&#45;&gt;Node23 -->
<g id="edge31" class="edge"><title>Node22&#45;&gt;Node23</title>
<path fill="none" stroke="midnightblue" d="M989,-168.083C989,-161.006 989,-150.861 989,-141.986"/>
<polygon fill="midnightblue" stroke="midnightblue" points="992.5,-141.751 989,-131.751 985.5,-141.751 992.5,-141.751"/>
</g>
<!-- Node24 -->
<g id="node24" class="node"><title>Node24</title>
<g id="a_node24"><a xlink:href="../../d9/d0a/a00390.html" target="_top" xlink:title="Interface of RNManager. ">
<polygon fill="white" stroke="black" points="439.5,-112.5 439.5,-131.5 532.5,-131.5 532.5,-112.5 439.5,-112.5"/>
<text text-anchor="middle" x="486" y="-119.5" font-family="Helvetica,sans-Serif" font-size="10.00">util/RNManager.h</text>
</a>
</g>
</g>
<!-- Node22&#45;&gt;Node24 -->
<g id="edge32" class="edge"><title>Node22&#45;&gt;Node24</title>
<path fill="none" stroke="midnightblue" d="M933.248,-171.015C836.876,-160.669 640.146,-139.548 542.949,-129.114"/>
<polygon fill="midnightblue" stroke="midnightblue" points="543.047,-125.604 532.73,-128.017 542.3,-132.564 543.047,-125.604"/>
</g>
<!-- Node24&#45;&gt;Node5 -->
<g id="edge42" class="edge"><title>Node24&#45;&gt;Node5</title>
<path fill="none" stroke="midnightblue" d="M485.881,-112.405C486.183,-98.4248 488.932,-70.833 505,-56 531.779,-31.2793 637.763,-18.5027 691.058,-13.5304"/>
<polygon fill="midnightblue" stroke="midnightblue" points="691.633,-16.9929 701.28,-12.6125 691.007,-10.021 691.633,-16.9929"/>
</g>
<!-- Node24&#45;&gt;Node8 -->
<g id="edge43" class="edge"><title>Node24&#45;&gt;Node8</title>
<path fill="none" stroke="midnightblue" d="M532.517,-118.916C597.22,-115.064 717.533,-104.43 816,-76 836.638,-70.0414 839.824,-63.3738 860,-56 903.531,-40.0904 955.421,-26.4305 988.046,-18.4601"/>
<polygon fill="midnightblue" stroke="midnightblue" points="989.026,-21.8241 997.926,-16.0766 987.384,-15.0193 989.026,-21.8241"/>
</g>
<!-- Node25 -->
<g id="node25" class="node"><title>Node25</title>
<g id="a_node25"><a xlink:href="../../d9/dc1/a00388.html" target="_top" xlink:title="Interface of Random Engine Type. ">
<polygon fill="white" stroke="black" points="366,-56.5 366,-75.5 458,-75.5 458,-56.5 366,-56.5"/>
<text text-anchor="middle" x="412" y="-63.5" font-family="Helvetica,sans-Serif" font-size="10.00">RNEngineType.h</text>
</a>
</g>
</g>
<!-- Node24&#45;&gt;Node25 -->
<g id="edge33" class="edge"><title>Node24&#45;&gt;Node25</title>
<path fill="none" stroke="midnightblue" d="M474.111,-112.324C462.85,-104.107 445.713,-91.6017 432.291,-81.8069"/>
<polygon fill="midnightblue" stroke="midnightblue" points="434.247,-78.9014 424.106,-75.8339 430.12,-84.5559 434.247,-78.9014"/>
</g>
<!-- Node26 -->
<g id="node26" class="node"><title>Node26</title>
<polygon fill="white" stroke="#bfbfbf" points="514,-56.5 514,-75.5 592,-75.5 592,-56.5 514,-56.5"/>
<text text-anchor="middle" x="553" y="-63.5" font-family="Helvetica,sans-Serif" font-size="10.00">trng/lcg64.hpp</text>
</g>
<!-- Node24&#45;&gt;Node26 -->
<g id="edge35" class="edge"><title>Node24&#45;&gt;Node26</title>
<path fill="none" stroke="midnightblue" d="M496.765,-112.324C506.766,-104.263 521.887,-92.0765 533.93,-82.3695"/>
<polygon fill="midnightblue" stroke="midnightblue" points="536.45,-84.8343 542.039,-75.8339 532.057,-79.3841 536.45,-84.8343"/>
</g>
<!-- Node27 -->
<g id="node27" class="node"><title>Node27</title>
<polygon fill="white" stroke="#bfbfbf" points="610,-56.5 610,-75.5 712,-75.5 712,-56.5 610,-56.5"/>
<text text-anchor="middle" x="661" y="-63.5" font-family="Helvetica,sans-Serif" font-size="10.00">trng/lcg64_shift.hpp</text>
</g>
<!-- Node24&#45;&gt;Node27 -->
<g id="edge36" class="edge"><title>Node24&#45;&gt;Node27</title>
<path fill="none" stroke="midnightblue" d="M513.729,-112.444C543.426,-103.28 590.716,-88.6876 623.669,-78.5192"/>
<polygon fill="midnightblue" stroke="midnightblue" points="624.877,-81.8094 633.4,-75.5164 622.813,-75.1206 624.877,-81.8094"/>
</g>
<!-- Node28 -->
<g id="node28" class="node"><title>Node28</title>
<polygon fill="white" stroke="#bfbfbf" points="730.5,-56.5 730.5,-75.5 807.5,-75.5 807.5,-56.5 730.5,-56.5"/>
<text text-anchor="middle" x="769" y="-63.5" font-family="Helvetica,sans-Serif" font-size="10.00">trng/mrg2.hpp</text>
</g>
<!-- Node24&#45;&gt;Node28 -->
<g id="edge37" class="edge"><title>Node24&#45;&gt;Node28</title>
<path fill="none" stroke="midnightblue" d="M530.842,-112.444C582.528,-102.581 667.173,-86.4299 720.397,-76.274"/>
<polygon fill="midnightblue" stroke="midnightblue" points="721.113,-79.7008 730.279,-74.3884 719.8,-72.8248 721.113,-79.7008"/>
</g>
<!-- Node29 -->
<g id="node29" class="node"><title>Node29</title>
<polygon fill="white" stroke="#bfbfbf" points="-0.5,-56.5 -0.5,-75.5 76.5,-75.5 76.5,-56.5 -0.5,-56.5"/>
<text text-anchor="middle" x="38" y="-63.5" font-family="Helvetica,sans-Serif" font-size="10.00">trng/mrg3.hpp</text>
</g>
<!-- Node24&#45;&gt;Node29 -->
<g id="edge38" class="edge"><title>Node24&#45;&gt;Node29</title>
<path fill="none" stroke="midnightblue" d="M439.232,-116.937C366.087,-110.322 219.976,-96.0678 86.6704,-76.1595"/>
<polygon fill="midnightblue" stroke="midnightblue" points="87.0979,-72.6845 76.6878,-74.6543 86.0542,-79.6063 87.0979,-72.6845"/>
</g>
<!-- Node30 -->
<g id="node30" class="node"><title>Node30</title>
<polygon fill="white" stroke="#bfbfbf" points="94.5,-56.5 94.5,-75.5 173.5,-75.5 173.5,-56.5 94.5,-56.5"/>
<text text-anchor="middle" x="134" y="-63.5" font-family="Helvetica,sans-Serif" font-size="10.00">trng/yarn2.hpp</text>
</g>
<!-- Node24&#45;&gt;Node30 -->
<g id="edge39" class="edge"><title>Node24&#45;&gt;Node30</title>
<path fill="none" stroke="midnightblue" d="M439.301,-114.655C381.533,-106.679 279.928,-92.2428 183.451,-76.1954"/>
<polygon fill="midnightblue" stroke="midnightblue" points="183.972,-72.7339 173.531,-74.5365 182.817,-79.638 183.972,-72.7339"/>
</g>
<!-- Node31 -->
<g id="node31" class="node"><title>Node31</title>
<polygon fill="white" stroke="#bfbfbf" points="191.5,-56.5 191.5,-75.5 270.5,-75.5 270.5,-56.5 191.5,-56.5"/>
<text text-anchor="middle" x="231" y="-63.5" font-family="Helvetica,sans-Serif" font-size="10.00">trng/yarn3.hpp</text>
</g>
<!-- Node24&#45;&gt;Node31 -->
<g id="edge40" class="edge"><title>Node24&#45;&gt;Node31</title>
<path fill="none" stroke="midnightblue" d="M445.594,-112.444C400.886,-102.976 328.809,-87.7126 280.684,-77.5213"/>
<polygon fill="midnightblue" stroke="midnightblue" points="281.305,-74.0753 270.797,-75.4275 279.855,-80.9234 281.305,-74.0753"/>
</g>
<!-- Node32 -->
<g id="node32" class="node"><title>Node32</title>
<polygon fill="white" stroke="#bfbfbf" points="288.5,-56.5 288.5,-75.5 347.5,-75.5 347.5,-56.5 288.5,-56.5"/>
<text text-anchor="middle" x="318" y="-63.5" font-family="Helvetica,sans-Serif" font-size="10.00">functional</text>
</g>
<!-- Node24&#45;&gt;Node32 -->
<g id="edge41" class="edge"><title>Node24&#45;&gt;Node32</title>
<path fill="none" stroke="midnightblue" d="M459.38,-112.444C430.994,-103.32 385.863,-88.8133 354.247,-78.6509"/>
<polygon fill="midnightblue" stroke="midnightblue" points="355.087,-75.2445 344.496,-75.5164 352.945,-81.9087 355.087,-75.2445"/>
</g>
<!-- Node25&#45;&gt;Node5 -->
<g id="edge34" class="edge"><title>Node25&#45;&gt;Node5</title>
<path fill="none" stroke="midnightblue" d="M458.075,-56.974C522.115,-45.8186 636.316,-25.9256 691.063,-16.389"/>
<polygon fill="midnightblue" stroke="midnightblue" points="691.937,-19.7896 701.188,-14.6254 690.735,-12.8935 691.937,-19.7896"/>
</g>
</g>
</svg>
        <g id="navigator" transform="translate(0 0)" fill="#404254">
                <rect fill="#f2f5e9" fill-opacity="0.5" stroke="#606060" stroke-width=".5" x="0" y="0" width="60" height="60"/>
                <use id="zoomplus" xlink:href="#zoomPlus" x="17" y="9" onmousedown="handleZoom(evt,'in')"/>
                <use id="zoomminus" xlink:href="#zoomMin" x="42" y="9" onmousedown="handleZoom(evt,'out')"/>
                <use id="reset" xlink:href="#resetDef" x="30" y="36" onmousedown="handleReset()"/>
                <g id="arrowUp" xlink:href="#dirArrow" transform="translate(30 24)" onmousedown="handlePan(0,-1)">
                  <use xlink:href="#rim" fill="#404040">
                        <set attributeName="fill" to="#808080" begin="arrowUp.mouseover" end="arrowUp.mouseout"/>
                  </use>
                  <path fill="none" stroke="white" stroke-width="1.5" d="M0,-3.0v7 M-2.5,-0.5L0,-3.0L2.5,-0.5"/>
                </g>
                <g id="arrowRight" xlink:href="#dirArrow" transform="rotate(90) translate(36 -43)" onmousedown="handlePan(1,0)">
                  <use xlink:href="#rim" fill="#404040">
                        <set attributeName="fill" to="#808080" begin="arrowRight.mouseover" end="arrowRight.mouseout"/>
                  </use>
                  <path fill="none" stroke="white" stroke-width="1.5" d="M0,-3.0v7 M-2.5,-0.5L0,-3.0L2.5,-0.5"/>
                </g>
                <g id="arrowDown" xlink:href="#dirArrow" transform="rotate(180) translate(-30 -48)" onmousedown="handlePan(0,1)">
                  <use xlink:href="#rim" fill="#404040">
                        <set attributeName="fill" to="#808080" begin="arrowDown.mouseover" end="arrowDown.mouseout"/>
                  </use>
                  <path fill="none" stroke="white" stroke-width="1.5" d="M0,-3.0v7 M-2.5,-0.5L0,-3.0L2.5,-0.5"/>
                </g>
                <g id="arrowLeft" xlink:href="#dirArrow" transform="rotate(270) translate(-36 17)" onmousedown="handlePan(-1,0)">
                  <use xlink:href="#rim" fill="#404040">
                        <set attributeName="fill" to="#808080" begin="arrowLeft.mouseover" end="arrowLeft.mouseout"/>
                  </use>
                  <path fill="none" stroke="white" stroke-width="1.5" d="M0,-3.0v7 M-2.5,-0.5L0,-3.0L2.5,-0.5"/>
                </g>
        </g>
        <svg viewBox="0 0 15 15" width="100%" height="30px" preserveAspectRatio="xMaxYMin meet">
         <g id="arrow_out" transform="scale(0.3 0.3)">
          <a xlink:href="a00768_org.svg" target="_base">
           <rect id="button" ry="5" rx="5" y="6" x="6" height="38" width="38"
                fill="#f2f5e9" fill-opacity="0.5" stroke="#606060" stroke-width="1.0"/>
           <path id="arrow"
             d="M 11.500037,31.436501 C 11.940474,20.09759 22.043105,11.32322 32.158766,21.979434 L 37.068811,17.246167 C 37.068811,17.246167 37.088388,32 37.088388,32 L 22.160133,31.978069 C 22.160133,31.978069 26.997745,27.140456 26.997745,27.140456 C 18.528582,18.264221 13.291696,25.230495 11.500037,31.436501 z"
             style="fill:#404040;"/>
          </a>
         </g>
        </svg>
</svg>
