<?xml version="1.0" encoding="UTF-8" standalone="no"?>
<!DOCTYPE svg PUBLIC "-//W3C//DTD SVG 1.1//EN"
 "http://www.w3.org/Graphics/SVG/1.1/DTD/svg11.dtd">
<!-- Generated by graphviz version 2.36.0 (20140111.2315)
 -->
<!-- Title: NestedIterator.h Pages: 1 -->
<svg width="462pt" height="84pt"
 viewBox="0.00 0.00 462.00 84.00" xmlns="http://www.w3.org/2000/svg" xmlns:xlink="http://www.w3.org/1999/xlink">
<g id="graph0" class="graph" transform="scale(1 1) rotate(0) translate(4 80)">
<title>NestedIterator.h</title>
<polygon fill="white" stroke="none" points="-4,4 -4,-80 458,-80 458,4 -4,4"/>
<!-- Node1 -->
<g id="node1" class="node"><title>Node1</title>
<polygon fill="#bfbfbf" stroke="black" points="186.5,-56.5 186.5,-75.5 273.5,-75.5 273.5,-56.5 186.5,-56.5"/>
<text text-anchor="middle" x="230" y="-63.5" font-family="Helvetica,sans-Serif" font-size="10.00">NestedIterator.h</text>
</g>
<!-- Node2 -->
<g id="node2" class="node"><title>Node2</title>
<polygon fill="white" stroke="#bfbfbf" points="-0.5,-0.5 -0.5,-19.5 48.5,-19.5 48.5,-0.5 -0.5,-0.5"/>
<text text-anchor="middle" x="24" y="-7.5" font-family="Helvetica,sans-Serif" font-size="10.00">cassert</text>
</g>
<!-- Node1&#45;&gt;Node2 -->
<g id="edge1" class="edge"><title>Node1&#45;&gt;Node2</title>
<path fill="none" stroke="midnightblue" d="M196.804,-56.489C163.997,-48.0502 112.113,-34.6321 58.8208,-20.4659"/>
<polygon fill="midnightblue" stroke="midnightblue" points="59.4217,-17.004 48.8578,-17.813 57.6205,-23.7683 59.4217,-17.004"/>
</g>
<!-- Node3 -->
<g id="node3" class="node"><title>Node3</title>
<polygon fill="white" stroke="#bfbfbf" points="66.5,-0.5 66.5,-19.5 115.5,-19.5 115.5,-0.5 66.5,-0.5"/>
<text text-anchor="middle" x="91" y="-7.5" font-family="Helvetica,sans-Serif" font-size="10.00">cstddef</text>
</g>
<!-- Node1&#45;&gt;Node3 -->
<g id="edge2" class="edge"><title>Node1&#45;&gt;Node3</title>
<path fill="none" stroke="midnightblue" d="M207.975,-56.4435C184.896,-47.4776 148.438,-33.314 122.359,-23.1827"/>
<polygon fill="midnightblue" stroke="midnightblue" points="123.511,-19.8753 112.922,-19.5164 120.976,-26.4002 123.511,-19.8753"/>
</g>
<!-- Node4 -->
<g id="node4" class="node"><title>Node4</title>
<polygon fill="white" stroke="#bfbfbf" points="134,-0.5 134,-19.5 188,-19.5 188,-0.5 134,-0.5"/>
<text text-anchor="middle" x="161" y="-7.5" font-family="Helvetica,sans-Serif" font-size="10.00">iostream</text>
</g>
<!-- Node1&#45;&gt;Node4 -->
<g id="edge3" class="edge"><title>Node1&#45;&gt;Node4</title>
<path fill="none" stroke="midnightblue" d="M218.914,-56.324C208.514,-48.1849 192.739,-35.8395 180.278,-26.0874"/>
<polygon fill="midnightblue" stroke="midnightblue" points="182.32,-23.2407 172.288,-19.8339 178.006,-28.7533 182.32,-23.2407"/>
</g>
<!-- Node5 -->
<g id="node5" class="node"><title>Node5</title>
<polygon fill="white" stroke="#bfbfbf" points="206.5,-0.5 206.5,-19.5 253.5,-19.5 253.5,-0.5 206.5,-0.5"/>
<text text-anchor="middle" x="230" y="-7.5" font-family="Helvetica,sans-Serif" font-size="10.00">iterator</text>
</g>
<!-- Node1&#45;&gt;Node5 -->
<g id="edge4" class="edge"><title>Node1&#45;&gt;Node5</title>
<path fill="none" stroke="midnightblue" d="M230,-56.083C230,-49.0059 230,-38.8611 230,-29.9865"/>
<polygon fill="midnightblue" stroke="midnightblue" points="233.5,-29.751 230,-19.7511 226.5,-29.7511 233.5,-29.751"/>
</g>
<!-- Node6 -->
<g id="node6" class="node"><title>Node6</title>
<polygon fill="white" stroke="#bfbfbf" points="272,-0.5 272,-19.5 312,-19.5 312,-0.5 272,-0.5"/>
<text text-anchor="middle" x="292" y="-7.5" font-family="Helvetica,sans-Serif" font-size="10.00">limits</text>
</g>
<!-- Node1&#45;&gt;Node6 -->
<g id="edge5" class="edge"><title>Node1&#45;&gt;Node6</title>
<path fill="none" stroke="midnightblue" d="M239.961,-56.324C249.127,-48.3414 262.937,-36.3128 274.028,-26.6529"/>
<polygon fill="midnightblue" stroke="midnightblue" points="276.615,-29.041 281.857,-19.8339 272.018,-23.7624 276.615,-29.041"/>
</g>
<!-- Node7 -->
<g id="node7" class="node"><title>Node7</title>
<polygon fill="white" stroke="#bfbfbf" points="330,-0.5 330,-19.5 392,-19.5 392,-0.5 330,-0.5"/>
<text text-anchor="middle" x="361" y="-7.5" font-family="Helvetica,sans-Serif" font-size="10.00">type_traits</text>
</g>
<!-- Node1&#45;&gt;Node7 -->
<g id="edge6" class="edge"><title>Node1&#45;&gt;Node7</title>
<path fill="none" stroke="midnightblue" d="M250.757,-56.4435C272.316,-47.5566 306.263,-33.5632 330.794,-23.4514"/>
<polygon fill="midnightblue" stroke="midnightblue" points="332.428,-26.5634 340.34,-19.5164 329.761,-20.0917 332.428,-26.5634"/>
</g>
<!-- Node8 -->
<g id="node8" class="node"><title>Node8</title>
<polygon fill="white" stroke="#bfbfbf" points="410,-0.5 410,-19.5 454,-19.5 454,-0.5 410,-0.5"/>
<text text-anchor="middle" x="432" y="-7.5" font-family="Helvetica,sans-Serif" font-size="10.00">vector</text>
</g>
<!-- Node1&#45;&gt;Node8 -->
<g id="edge7" class="edge"><title>Node1&#45;&gt;Node8</title>
<path fill="none" stroke="midnightblue" d="M262.948,-56.439C297.225,-47.4949 352.434,-32.9837 400,-20 400.101,-19.9725 400.202,-19.9449 400.303,-19.9172"/>
<polygon fill="midnightblue" stroke="midnightblue" points="401.273,-23.2804 409.978,-17.2416 399.407,-16.5337 401.273,-23.2804"/>
</g>
</g>
</svg>
