<?xml version="1.0" encoding="UTF-8" standalone="no"?>
<!DOCTYPE svg PUBLIC "-//W3C//DTD SVG 1.1//EN"
 "http://www.w3.org/Graphics/SVG/1.1/DTD/svg11.dtd">
<!-- Generated by graphviz version 2.36.0 (20140111.2315)
 -->
<!-- Title: gengeopop::kd::Node&lt; P, D &gt; Pages: 1 -->
<svg width="315pt" height="510pt"
 viewBox="0.00 0.00 315.00 510.00" xmlns="http://www.w3.org/2000/svg" xmlns:xlink="http://www.w3.org/1999/xlink">
<g id="graph0" class="graph" transform="scale(1 1) rotate(0) translate(4 506)">
<title>gengeopop::kd::Node&lt; P, D &gt;</title>
<polygon fill="white" stroke="none" points="-4,4 -4,-506 311,-506 311,4 -4,4"/>
<!-- Node1 -->
<g id="node1" class="node"><title>Node1</title>
<polygon fill="#bfbfbf" stroke="black" points="115,-204.5 115,-349.5 225,-349.5 225,-204.5 115,-204.5"/>
<text text-anchor="start" x="123" y="-337.5" font-family="Helvetica,sans-Serif" font-size="10.00">gengeopop::kd::Node</text>
<text text-anchor="middle" x="170" y="-326.5" font-family="Helvetica,sans-Serif" font-size="10.00">&lt; P, D &gt;</text>
<polyline fill="none" stroke="black" points="115,-319.5 225,-319.5 "/>
<text text-anchor="start" x="123" y="-307.5" font-family="Helvetica,sans-Serif" font-size="10.00">&#45; m_point</text>
<text text-anchor="start" x="123" y="-296.5" font-family="Helvetica,sans-Serif" font-size="10.00">&#45; m_left</text>
<text text-anchor="start" x="123" y="-285.5" font-family="Helvetica,sans-Serif" font-size="10.00">&#45; m_right</text>
<polyline fill="none" stroke="black" points="115,-278.5 225,-278.5 "/>
<text text-anchor="start" x="123" y="-266.5" font-family="Helvetica,sans-Serif" font-size="10.00">+ Node()</text>
<text text-anchor="start" x="123" y="-255.5" font-family="Helvetica,sans-Serif" font-size="10.00">+ BorrowLeft()</text>
<text text-anchor="start" x="123" y="-244.5" font-family="Helvetica,sans-Serif" font-size="10.00">+ BorrowRight()</text>
<text text-anchor="start" x="123" y="-233.5" font-family="Helvetica,sans-Serif" font-size="10.00">+ BorrowSplitChild()</text>
<text text-anchor="start" x="123" y="-222.5" font-family="Helvetica,sans-Serif" font-size="10.00">+ AddChild()</text>
<text text-anchor="start" x="123" y="-211.5" font-family="Helvetica,sans-Serif" font-size="10.00">+ GetPoint()</text>
</g>
<!-- Node3 -->
<g id="node3" class="node"><title>Node3</title>
<g id="a_node3"><a xlink:href="../../dc/dee/a00053.html" target="_top" xlink:title="{gengeopop::kd::Node\l\&lt; geogrid_detail::KdTree2DPoint, 0 \&gt;\n|&#45; m_point\l&#45; m_left\l&#45; m_right\l|+ Node()\l+ BorrowLeft()\l+ BorrowRight()\l+ BorrowSplitChild()\l+ AddChild()\l+ GetPoint()\l}">
<polygon fill="white" stroke="black" points="-0.5,-0.5 -0.5,-145.5 178.5,-145.5 178.5,-0.5 -0.5,-0.5"/>
<text text-anchor="start" x="7.5" y="-133.5" font-family="Helvetica,sans-Serif" font-size="10.00">gengeopop::kd::Node</text>
<text text-anchor="middle" x="89" y="-122.5" font-family="Helvetica,sans-Serif" font-size="10.00">&lt; geogrid_detail::KdTree2DPoint, 0 &gt;</text>
<polyline fill="none" stroke="black" points="-0.5,-115.5 178.5,-115.5 "/>
<text text-anchor="start" x="7.5" y="-103.5" font-family="Helvetica,sans-Serif" font-size="10.00">&#45; m_point</text>
<text text-anchor="start" x="7.5" y="-92.5" font-family="Helvetica,sans-Serif" font-size="10.00">&#45; m_left</text>
<text text-anchor="start" x="7.5" y="-81.5" font-family="Helvetica,sans-Serif" font-size="10.00">&#45; m_right</text>
<polyline fill="none" stroke="black" points="-0.5,-74.5 178.5,-74.5 "/>
<text text-anchor="start" x="7.5" y="-62.5" font-family="Helvetica,sans-Serif" font-size="10.00">+ Node()</text>
<text text-anchor="start" x="7.5" y="-51.5" font-family="Helvetica,sans-Serif" font-size="10.00">+ BorrowLeft()</text>
<text text-anchor="start" x="7.5" y="-40.5" font-family="Helvetica,sans-Serif" font-size="10.00">+ BorrowRight()</text>
<text text-anchor="start" x="7.5" y="-29.5" font-family="Helvetica,sans-Serif" font-size="10.00">+ BorrowSplitChild()</text>
<text text-anchor="start" x="7.5" y="-18.5" font-family="Helvetica,sans-Serif" font-size="10.00">+ AddChild()</text>
<text text-anchor="start" x="7.5" y="-7.5" font-family="Helvetica,sans-Serif" font-size="10.00">+ GetPoint()</text>
</a>
</g>
</g>
<!-- Node1&#45;&gt;Node3 -->
<g id="edge2" class="edge"><title>Node1&#45;&gt;Node3</title>
<path fill="none" stroke="orange" d="M119.014,-195.183C117.592,-192.117 116.248,-189.051 115,-186 109.785,-173.252 105.492,-159.24 102.004,-145.57"/>
<polygon fill="orange" stroke="orange" points="115.958,-196.903 123.487,-204.357 122.25,-193.834 115.958,-196.903"/>
<text text-anchor="start" x="115" y="-178" font-family="Helvetica,sans-Serif" font-size="10.00"> &lt; geogrid_detail::KdTree2</text>
<text text-anchor="middle" x="172.5" y="-167" font-family="Helvetica,sans-Serif" font-size="10.00">DPoint, 0 &gt;</text>
</g>
<!-- Node4 -->
<g id="node4" class="node"><title>Node4</title>
<g id="a_node4"><a xlink:href="../../dc/dee/a00053.html" target="_top" xlink:title="{gengeopop::kd::Node\l\&lt; P, 0 \&gt;\n|&#45; m_point\l&#45; m_left\l&#45; m_right\l|+ Node()\l+ BorrowLeft()\l+ BorrowRight()\l+ BorrowSplitChild()\l+ AddChild()\l+ GetPoint()\l}">
<polygon fill="white" stroke="black" points="197,-0.5 197,-145.5 307,-145.5 307,-0.5 197,-0.5"/>
<text text-anchor="start" x="205" y="-133.5" font-family="Helvetica,sans-Serif" font-size="10.00">gengeopop::kd::Node</text>
<text text-anchor="middle" x="252" y="-122.5" font-family="Helvetica,sans-Serif" font-size="10.00">&lt; P, 0 &gt;</text>
<polyline fill="none" stroke="black" points="197,-115.5 307,-115.5 "/>
<text text-anchor="start" x="205" y="-103.5" font-family="Helvetica,sans-Serif" font-size="10.00">&#45; m_point</text>
<text text-anchor="start" x="205" y="-92.5" font-family="Helvetica,sans-Serif" font-size="10.00">&#45; m_left</text>
<text text-anchor="start" x="205" y="-81.5" font-family="Helvetica,sans-Serif" font-size="10.00">&#45; m_right</text>
<polyline fill="none" stroke="black" points="197,-74.5 307,-74.5 "/>
<text text-anchor="start" x="205" y="-62.5" font-family="Helvetica,sans-Serif" font-size="10.00">+ Node()</text>
<text text-anchor="start" x="205" y="-51.5" font-family="Helvetica,sans-Serif" font-size="10.00">+ BorrowLeft()</text>
<text text-anchor="start" x="205" y="-40.5" font-family="Helvetica,sans-Serif" font-size="10.00">+ BorrowRight()</text>
<text text-anchor="start" x="205" y="-29.5" font-family="Helvetica,sans-Serif" font-size="10.00">+ BorrowSplitChild()</text>
<text text-anchor="start" x="205" y="-18.5" font-family="Helvetica,sans-Serif" font-size="10.00">+ AddChild()</text>
<text text-anchor="start" x="205" y="-7.5" font-family="Helvetica,sans-Serif" font-size="10.00">+ GetPoint()</text>
</a>
</g>
</g>
<!-- Node1&#45;&gt;Node4 -->
<g id="edge3" class="edge"><title>Node1&#45;&gt;Node4</title>
<path fill="none" stroke="orange" d="M225.874,-195.246C227.347,-192.169 228.73,-189.082 230,-186 235.211,-173.359 239.211,-159.395 242.274,-145.741"/>
<polygon fill="orange" stroke="orange" points="222.617,-193.93 221.204,-204.43 228.856,-197.102 222.617,-193.93"/>
<text text-anchor="middle" x="258" y="-172.5" font-family="Helvetica,sans-Serif" font-size="10.00"> &lt; P, 0 &gt;</text>
</g>
<!-- Node2 -->
<g id="node2" class="node"><title>Node2</title>
<g id="a_node2"><a xlink:href="../../d7/d46/a00002.html" target="_top" xlink:title="{gengeopop::kd::BaseNode\&lt; P \&gt;\n||+ ~BaseNode()\l+ BorrowLeft()\l+ BorrowRight()\l+ BorrowSplitChild()\l+ AddChild()\l+ GetPoint()\l}">
<polygon fill="white" stroke="black" points="91.5,-389 91.5,-501 248.5,-501 248.5,-389 91.5,-389"/>
<text text-anchor="middle" x="170" y="-489" font-family="Helvetica,sans-Serif" font-size="10.00">gengeopop::kd::BaseNode&lt; P &gt;</text>
<polyline fill="none" stroke="black" points="91.5,-482 248.5,-482 "/>
<text text-anchor="middle" x="170" y="-470" font-family="Helvetica,sans-Serif" font-size="10.00"> </text>
<polyline fill="none" stroke="black" points="91.5,-463 248.5,-463 "/>
<text text-anchor="start" x="99.5" y="-451" font-family="Helvetica,sans-Serif" font-size="10.00">+ ~BaseNode()</text>
<text text-anchor="start" x="99.5" y="-440" font-family="Helvetica,sans-Serif" font-size="10.00">+ BorrowLeft()</text>
<text text-anchor="start" x="99.5" y="-429" font-family="Helvetica,sans-Serif" font-size="10.00">+ BorrowRight()</text>
<text text-anchor="start" x="99.5" y="-418" font-family="Helvetica,sans-Serif" font-size="10.00">+ BorrowSplitChild()</text>
<text text-anchor="start" x="99.5" y="-407" font-family="Helvetica,sans-Serif" font-size="10.00">+ AddChild()</text>
<text text-anchor="start" x="99.5" y="-396" font-family="Helvetica,sans-Serif" font-size="10.00">+ GetPoint()</text>
</a>
</g>
</g>
<!-- Node2&#45;&gt;Node1 -->
<g id="edge1" class="edge"><title>Node2&#45;&gt;Node1</title>
<path fill="none" stroke="midnightblue" d="M170,-378.552C170,-369.037 170,-359.199 170,-349.571"/>
<polygon fill="none" stroke="midnightblue" points="166.5,-378.724 170,-388.724 173.5,-378.724 166.5,-378.724"/>
</g>
</g>
</svg>
