<?xml version="1.0" encoding="UTF-8" standalone="no"?>
<!DOCTYPE svg PUBLIC "-//W3C//DTD SVG 1.1//EN"
 "http://www.w3.org/Graphics/SVG/1.1/DTD/svg11.dtd">
<!-- Generated by graphviz version 2.36.0 (20140111.2315)
 -->
<!-- Title: ContactCenterListModel Pages: 1 -->
<svg width="396pt" height="484pt"
 viewBox="0.00 0.00 396.00 484.00" xmlns="http://www.w3.org/2000/svg" xmlns:xlink="http://www.w3.org/1999/xlink">
<g id="graph0" class="graph" transform="scale(1 1) rotate(0) translate(4 480)">
<title>ContactCenterListModel</title>
<polygon fill="white" stroke="none" points="-4,4 -4,-480 392,-480 392,4 -4,4"/>
<!-- Node1 -->
<g id="node1" class="node"><title>Node1</title>
<polygon fill="#bfbfbf" stroke="black" points="29.5,-0.5 29.5,-123.5 166.5,-123.5 166.5,-0.5 29.5,-0.5"/>
<text text-anchor="middle" x="98" y="-111.5" font-family="Helvetica,sans-Serif" font-size="10.00">ContactCenterListModel</text>
<polyline fill="none" stroke="black" points="29.5,-104.5 166.5,-104.5 "/>
<text text-anchor="middle" x="98" y="-92.5" font-family="Helvetica,sans-Serif" font-size="10.00"> </text>
<polyline fill="none" stroke="black" points="29.5,-85.5 166.5,-85.5 "/>
<text text-anchor="start" x="37.5" y="-73.5" font-family="Helvetica,sans-Serif" font-size="10.00">+ ContactCenterListModel()</text>
<text text-anchor="start" x="37.5" y="-62.5" font-family="Helvetica,sans-Serif" font-size="10.00">+ data()</text>
<text text-anchor="start" x="37.5" y="-51.5" font-family="Helvetica,sans-Serif" font-size="10.00">+ rowCount()</text>
<text text-anchor="start" x="37.5" y="-40.5" font-family="Helvetica,sans-Serif" font-size="10.00">+ columnCount()</text>
<text text-anchor="start" x="37.5" y="-29.5" font-family="Helvetica,sans-Serif" font-size="10.00">+ roleNames()</text>
<text text-anchor="start" x="37.5" y="-18.5" font-family="Helvetica,sans-Serif" font-size="10.00">+ SetCenters()</text>
<text text-anchor="start" x="37.5" y="-7.5" font-family="Helvetica,sans-Serif" font-size="10.00">+ HandleClickRow()</text>
</g>
<!-- Node2 -->
<g id="node2" class="node"><title>Node2</title>
<g id="a_node2"><a xlink:href="../../db/dab/a00089.html" target="_top" xlink:title="{QAbstractListModel\n||}">
<polygon fill="white" stroke="black" points="-0.5,-178.5 -0.5,-235.5 102.5,-235.5 102.5,-178.5 -0.5,-178.5"/>
<text text-anchor="middle" x="51" y="-223.5" font-family="Helvetica,sans-Serif" font-size="10.00">QAbstractListModel</text>
<polyline fill="none" stroke="black" points="-0.5,-216.5 102.5,-216.5 "/>
<text text-anchor="middle" x="51" y="-204.5" font-family="Helvetica,sans-Serif" font-size="10.00"> </text>
<polyline fill="none" stroke="black" points="-0.5,-197.5 102.5,-197.5 "/>
<text text-anchor="middle" x="51" y="-185.5" font-family="Helvetica,sans-Serif" font-size="10.00"> </text>
</a>
</g>
</g>
<!-- Node2&#45;&gt;Node1 -->
<g id="edge1" class="edge"><title>Node2&#45;&gt;Node1</title>
<path fill="none" stroke="midnightblue" d="M63.2203,-168.819C67.7546,-155.023 73.0235,-138.992 78.0678,-123.645"/>
<polygon fill="none" stroke="midnightblue" points="59.8595,-167.835 60.0621,-178.428 66.5095,-170.021 59.8595,-167.835"/>
</g>
<!-- Node3 -->
<g id="node3" class="node"><title>Node3</title>
<polygon fill="white" stroke="#bfbfbf" points="120.5,-173 120.5,-241 297.5,-241 297.5,-173 120.5,-173"/>
<text text-anchor="start" x="128.5" y="-229" font-family="Helvetica,sans-Serif" font-size="10.00">std::vector&lt; std::shared</text>
<text text-anchor="middle" x="209" y="-218" font-family="Helvetica,sans-Serif" font-size="10.00">_ptr&lt; gengeopop::ContactCenter &gt; &gt;</text>
<polyline fill="none" stroke="#bfbfbf" points="120.5,-211 297.5,-211 "/>
<text text-anchor="middle" x="209" y="-199" font-family="Helvetica,sans-Serif" font-size="10.00"> </text>
<polyline fill="none" stroke="#bfbfbf" points="120.5,-192 297.5,-192 "/>
<text text-anchor="middle" x="209" y="-180" font-family="Helvetica,sans-Serif" font-size="10.00"> </text>
</g>
<!-- Node3&#45;&gt;Node1 -->
<g id="edge2" class="edge"><title>Node3&#45;&gt;Node1</title>
<path fill="none" stroke="#404040" d="M183.255,-172.833C174.045,-160.968 163.282,-147.103 152.566,-133.297"/>
<polygon fill="none" stroke="#404040" points="152.533,-133.254 145.694,-130.967 145.175,-123.774 152.013,-126.061 152.533,-133.254"/>
<text text-anchor="middle" x="192" y="-145.5" font-family="Helvetica,sans-Serif" font-size="10.00"> &#45;m_centers</text>
</g>
<!-- Node4 -->
<g id="node4" class="node"><title>Node4</title>
<polygon fill="white" stroke="#bfbfbf" points="101.5,-301 101.5,-369 220.5,-369 220.5,-301 101.5,-301"/>
<text text-anchor="start" x="109.5" y="-357" font-family="Helvetica,sans-Serif" font-size="10.00">shared_ptr&lt; gengeopop</text>
<text text-anchor="middle" x="161" y="-346" font-family="Helvetica,sans-Serif" font-size="10.00">::ContactCenter &gt;</text>
<polyline fill="none" stroke="#bfbfbf" points="101.5,-339 220.5,-339 "/>
<text text-anchor="middle" x="161" y="-327" font-family="Helvetica,sans-Serif" font-size="10.00"> </text>
<polyline fill="none" stroke="#bfbfbf" points="101.5,-320 220.5,-320 "/>
<text text-anchor="middle" x="161" y="-308" font-family="Helvetica,sans-Serif" font-size="10.00"> </text>
</g>
<!-- Node4&#45;&gt;Node3 -->
<g id="edge3" class="edge"><title>Node4&#45;&gt;Node3</title>
<path fill="none" stroke="#404040" d="M171.443,-300.984C175.703,-288.102 180.836,-273.269 186,-260 186.974,-257.496 188.002,-254.937 189.059,-252.362"/>
<polygon fill="none" stroke="#404040" points="189.148,-252.152 187.802,-245.068 193.824,-241.1 195.17,-248.185 189.148,-252.152"/>
<text text-anchor="middle" x="210.5" y="-268.5" font-family="Helvetica,sans-Serif" font-size="10.00"> +elements</text>
</g>
<!-- Node5 -->
<g id="node5" class="node"><title>Node5</title>
<g id="a_node5"><a xlink:title="STL class. ">
<polygon fill="white" stroke="#bfbfbf" points="238.5,-306.5 238.5,-363.5 325.5,-363.5 325.5,-306.5 238.5,-306.5"/>
<text text-anchor="middle" x="282" y="-351.5" font-family="Helvetica,sans-Serif" font-size="10.00">std::vector&lt; T &gt;</text>
<polyline fill="none" stroke="#bfbfbf" points="238.5,-344.5 325.5,-344.5 "/>
<text text-anchor="middle" x="282" y="-332.5" font-family="Helvetica,sans-Serif" font-size="10.00"> </text>
<polyline fill="none" stroke="#bfbfbf" points="238.5,-325.5 325.5,-325.5 "/>
<text text-anchor="middle" x="282" y="-313.5" font-family="Helvetica,sans-Serif" font-size="10.00"> </text>
</a>
</g>
</g>
<!-- Node5&#45;&gt;Node3 -->
<g id="edge4" class="edge"><title>Node5&#45;&gt;Node3</title>
<path fill="none" stroke="orange" d="M260.822,-297.446C250.573,-279.755 238.354,-258.666 228.356,-241.409"/>
<polygon fill="orange" stroke="orange" points="257.938,-299.451 265.98,-306.349 263.995,-295.941 257.938,-299.451"/>
<text text-anchor="start" x="249" y="-274" font-family="Helvetica,sans-Serif" font-size="10.00"> &lt; std::shared_ptr&lt;</text>
<text text-anchor="middle" x="318.5" y="-263" font-family="Helvetica,sans-Serif" font-size="10.00"> gengeopop::ContactCenter &gt; &gt;</text>
</g>
<!-- Node6 -->
<g id="node6" class="node"><title>Node6</title>
<polygon fill="white" stroke="#bfbfbf" points="267.5,-418.5 267.5,-475.5 296.5,-475.5 296.5,-418.5 267.5,-418.5"/>
<text text-anchor="middle" x="282" y="-463.5" font-family="Helvetica,sans-Serif" font-size="10.00">T</text>
<polyline fill="none" stroke="#bfbfbf" points="267.5,-456.5 296.5,-456.5 "/>
<text text-anchor="middle" x="282" y="-444.5" font-family="Helvetica,sans-Serif" font-size="10.00"> </text>
<polyline fill="none" stroke="#bfbfbf" points="267.5,-437.5 296.5,-437.5 "/>
<text text-anchor="middle" x="282" y="-425.5" font-family="Helvetica,sans-Serif" font-size="10.00"> </text>
</g>
<!-- Node6&#45;&gt;Node5 -->
<g id="edge5" class="edge"><title>Node6&#45;&gt;Node5</title>
<path fill="none" stroke="#404040" d="M282,-418.242C282,-405.475 282,-390.088 282,-376.094"/>
<polygon fill="none" stroke="#404040" points="282,-375.749 278,-369.749 282,-363.749 286,-369.749 282,-375.749"/>
<text text-anchor="middle" x="306.5" y="-391.5" font-family="Helvetica,sans-Serif" font-size="10.00"> +elements</text>
</g>
</g>
</svg>
