<?xml version="1.0" encoding="UTF-8" standalone="no"?>
<!DOCTYPE svg PUBLIC "-//W3C//DTD SVG 1.1//EN"
 "http://www.w3.org/Graphics/SVG/1.1/DTD/svg11.dtd">
<!-- Generated by graphviz version 2.36.0 (20140111.2315)
 -->
<!-- Title: stride::util::NestedIterator&lt; T, OutItType, InnerItType, P, R, is_const_iterator &gt; Pages: 1 -->
<svg width="499pt" height="360pt"
 viewBox="0.00 0.00 499.00 360.00" xmlns="http://www.w3.org/2000/svg" xmlns:xlink="http://www.w3.org/1999/xlink">
<g id="graph0" class="graph" transform="scale(1 1) rotate(0) translate(4 356)">
<title>stride::util::NestedIterator&lt; T, OutItType, InnerItType, P, R, is_const_iterator &gt;</title>
<polygon fill="white" stroke="none" points="-4,4 -4,-356 495,-356 495,4 -4,4"/>
<!-- Node1 -->
<g id="node1" class="node"><title>Node1</title>
<polygon fill="#bfbfbf" stroke="black" points="192,-0.5 192,-189.5 332,-189.5 332,-0.5 192,-0.5"/>
<text text-anchor="start" x="200" y="-177.5" font-family="Helvetica,sans-Serif" font-size="10.00">stride::util::NestedIterator</text>
<text text-anchor="start" x="200" y="-166.5" font-family="Helvetica,sans-Serif" font-size="10.00">&lt; T, OutItType, InnerItType,</text>
<text text-anchor="middle" x="262" y="-155.5" font-family="Helvetica,sans-Serif" font-size="10.00"> P, R, is_const_iterator &gt;</text>
<polyline fill="none" stroke="black" points="192,-148.5 332,-148.5 "/>
<text text-anchor="middle" x="262" y="-136.5" font-family="Helvetica,sans-Serif" font-size="10.00"> </text>
<polyline fill="none" stroke="black" points="192,-129.5 332,-129.5 "/>
<text text-anchor="start" x="200" y="-117.5" font-family="Helvetica,sans-Serif" font-size="10.00">+ NestedIterator()</text>
<text text-anchor="start" x="200" y="-106.5" font-family="Helvetica,sans-Serif" font-size="10.00">+ NestedIterator()</text>
<text text-anchor="start" x="200" y="-95.5" font-family="Helvetica,sans-Serif" font-size="10.00">+ NestedIterator()</text>
<text text-anchor="start" x="200" y="-84.5" font-family="Helvetica,sans-Serif" font-size="10.00">+ operator*()</text>
<text text-anchor="start" x="200" y="-73.5" font-family="Helvetica,sans-Serif" font-size="10.00">+ operator&#45;&gt;()</text>
<text text-anchor="start" x="200" y="-62.5" font-family="Helvetica,sans-Serif" font-size="10.00">+ operator++()</text>
<text text-anchor="start" x="200" y="-51.5" font-family="Helvetica,sans-Serif" font-size="10.00">+ operator++()</text>
<text text-anchor="start" x="200" y="-40.5" font-family="Helvetica,sans-Serif" font-size="10.00">+ operator&#45;&#45;()</text>
<text text-anchor="start" x="200" y="-29.5" font-family="Helvetica,sans-Serif" font-size="10.00">+ operator&#45;&#45;()</text>
<text text-anchor="start" x="200" y="-18.5" font-family="Helvetica,sans-Serif" font-size="10.00">+ operator==()</text>
<text text-anchor="start" x="200" y="-7.5" font-family="Helvetica,sans-Serif" font-size="10.00">+ operator!=()</text>
</g>
<!-- Node2 -->
<g id="node2" class="node"><title>Node2</title>
<polygon fill="white" stroke="#bfbfbf" points="0,-261 0,-351 110,-351 110,-261 0,-261"/>
<text text-anchor="start" x="8" y="-339" font-family="Helvetica,sans-Serif" font-size="10.00">std::iterator&lt; std</text>
<text text-anchor="start" x="8" y="-328" font-family="Helvetica,sans-Serif" font-size="10.00">::bidirectional_iterator</text>
<text text-anchor="start" x="8" y="-317" font-family="Helvetica,sans-Serif" font-size="10.00">_tag, T, std::ptrdiff_t,</text>
<text text-anchor="middle" x="55" y="-306" font-family="Helvetica,sans-Serif" font-size="10.00"> P, R &gt;</text>
<polyline fill="none" stroke="#bfbfbf" points="0,-299 110,-299 "/>
<text text-anchor="middle" x="55" y="-287" font-family="Helvetica,sans-Serif" font-size="10.00"> </text>
<polyline fill="none" stroke="#bfbfbf" points="0,-280 110,-280 "/>
<text text-anchor="middle" x="55" y="-268" font-family="Helvetica,sans-Serif" font-size="10.00"> </text>
</g>
<!-- Node2&#45;&gt;Node1 -->
<g id="edge1" class="edge"><title>Node2&#45;&gt;Node1</title>
<path fill="none" stroke="midnightblue" d="M105.795,-253.714C131.734,-227.525 163.698,-195.252 191.94,-166.737"/>
<polygon fill="none" stroke="midnightblue" points="103.197,-251.364 98.6464,-260.932 108.17,-256.29 103.197,-251.364"/>
</g>
<!-- Node3 -->
<g id="node3" class="node"><title>Node3</title>
<polygon fill="white" stroke="#bfbfbf" points="128,-277.5 128,-334.5 188,-334.5 188,-277.5 128,-277.5"/>
<text text-anchor="middle" x="158" y="-322.5" font-family="Helvetica,sans-Serif" font-size="10.00">OutItType</text>
<polyline fill="none" stroke="#bfbfbf" points="128,-315.5 188,-315.5 "/>
<text text-anchor="middle" x="158" y="-303.5" font-family="Helvetica,sans-Serif" font-size="10.00"> </text>
<polyline fill="none" stroke="#bfbfbf" points="128,-296.5 188,-296.5 "/>
<text text-anchor="middle" x="158" y="-284.5" font-family="Helvetica,sans-Serif" font-size="10.00"> </text>
</g>
<!-- Node3&#45;&gt;Node1 -->
<g id="edge2" class="edge"><title>Node3&#45;&gt;Node1</title>
<path fill="none" stroke="#404040" d="M164.288,-277.465C169.349,-257.611 177.371,-230.467 188,-208 189.219,-205.423 190.491,-202.836 191.808,-200.246"/>
<polygon fill="none" stroke="#404040" points="191.83,-200.205 191.107,-193.03 197.452,-189.603 198.175,-196.778 191.83,-200.205"/>
<text text-anchor="middle" x="223" y="-233.5" font-family="Helvetica,sans-Serif" font-size="10.00"> &#45;m_outerEnd</text>
<text text-anchor="middle" x="223" y="-222.5" font-family="Helvetica,sans-Serif" font-size="10.00">&#45;m_outerIterator</text>
<text text-anchor="middle" x="223" y="-211.5" font-family="Helvetica,sans-Serif" font-size="10.00">&#45;m_outerBegin</text>
</g>
<!-- Node4 -->
<g id="node4" class="node"><title>Node4</title>
<polygon fill="white" stroke="#bfbfbf" points="206,-266.5 206,-345.5 318,-345.5 318,-266.5 206,-266.5"/>
<text text-anchor="start" x="214" y="-333.5" font-family="Helvetica,sans-Serif" font-size="10.00">Helper&lt; OutItType,</text>
<text text-anchor="start" x="214" y="-322.5" font-family="Helvetica,sans-Serif" font-size="10.00"> InnerItType, is_const</text>
<text text-anchor="middle" x="262" y="-311.5" font-family="Helvetica,sans-Serif" font-size="10.00">_iterator &gt;</text>
<polyline fill="none" stroke="#bfbfbf" points="206,-304.5 318,-304.5 "/>
<text text-anchor="middle" x="262" y="-292.5" font-family="Helvetica,sans-Serif" font-size="10.00"> </text>
<polyline fill="none" stroke="#bfbfbf" points="206,-285.5 318,-285.5 "/>
<text text-anchor="middle" x="262" y="-273.5" font-family="Helvetica,sans-Serif" font-size="10.00"> </text>
</g>
<!-- Node4&#45;&gt;Node1 -->
<g id="edge3" class="edge"><title>Node4&#45;&gt;Node1</title>
<path fill="none" stroke="#404040" d="M262,-266.179C262,-247.782 262,-224.819 262,-201.773"/>
<polygon fill="none" stroke="#404040" points="262,-201.738 258,-195.738 262,-189.738 266,-195.738 262,-201.738"/>
<text text-anchor="middle" x="285" y="-222.5" font-family="Helvetica,sans-Serif" font-size="10.00"> &#45;m_helper</text>
</g>
<!-- Node5 -->
<g id="node5" class="node"><title>Node5</title>
<polygon fill="white" stroke="#bfbfbf" points="336.5,-277.5 336.5,-334.5 371.5,-334.5 371.5,-277.5 336.5,-277.5"/>
<text text-anchor="middle" x="354" y="-322.5" font-family="Helvetica,sans-Serif" font-size="10.00">bool</text>
<polyline fill="none" stroke="#bfbfbf" points="336.5,-315.5 371.5,-315.5 "/>
<text text-anchor="middle" x="354" y="-303.5" font-family="Helvetica,sans-Serif" font-size="10.00"> </text>
<polyline fill="none" stroke="#bfbfbf" points="336.5,-296.5 371.5,-296.5 "/>
<text text-anchor="middle" x="354" y="-284.5" font-family="Helvetica,sans-Serif" font-size="10.00"> </text>
</g>
<!-- Node5&#45;&gt;Node1 -->
<g id="edge4" class="edge"><title>Node5&#45;&gt;Node1</title>
<path fill="none" stroke="#404040" d="M342.134,-277.369C333.767,-257.941 322.267,-231.351 312,-208 310.979,-205.678 309.944,-203.329 308.9,-200.961"/>
<polygon fill="none" stroke="#404040" points="308.805,-200.746 302.721,-196.875 303.955,-189.77 310.039,-193.641 308.805,-200.746"/>
<text text-anchor="middle" x="361.5" y="-222.5" font-family="Helvetica,sans-Serif" font-size="10.00"> &#45;m_innerIsValid</text>
</g>
<!-- Node6 -->
<g id="node6" class="node"><title>Node6</title>
<polygon fill="white" stroke="#bfbfbf" points="403,-277.5 403,-334.5 469,-334.5 469,-277.5 403,-277.5"/>
<text text-anchor="middle" x="436" y="-322.5" font-family="Helvetica,sans-Serif" font-size="10.00">InnerItType</text>
<polyline fill="none" stroke="#bfbfbf" points="403,-315.5 469,-315.5 "/>
<text text-anchor="middle" x="436" y="-303.5" font-family="Helvetica,sans-Serif" font-size="10.00"> </text>
<polyline fill="none" stroke="#bfbfbf" points="403,-296.5 469,-296.5 "/>
<text text-anchor="middle" x="436" y="-284.5" font-family="Helvetica,sans-Serif" font-size="10.00"> </text>
</g>
<!-- Node6&#45;&gt;Node1 -->
<g id="edge5" class="edge"><title>Node6&#45;&gt;Node1</title>
<path fill="none" stroke="#404040" d="M430.25,-277.171C425.042,-256.669 415.863,-228.845 401,-208 384.935,-185.47 363.168,-165.032 341.63,-147.966"/>
<polygon fill="none" stroke="#404040" points="341.604,-147.946 334.41,-147.448 332.102,-140.616 339.296,-141.114 341.604,-147.946"/>
<text text-anchor="middle" x="455" y="-222.5" font-family="Helvetica,sans-Serif" font-size="10.00"> &#45;m_innerIterator</text>
</g>
</g>
</svg>
