<?xml version="1.0" encoding="UTF-8" standalone="no"?>
<!DOCTYPE svg PUBLIC "-//W3C//DTD SVG 1.1//EN"
 "http://www.w3.org/Graphics/SVG/1.1/DTD/svg11.dtd">
<!-- Generated by graphviz version 2.36.0 (20140111.2315)
 -->
<!-- Title: stride::BaseController Pages: 1 -->
<svg width="231pt" height="446pt"
 viewBox="0.00 0.00 231.00 446.00" xmlns="http://www.w3.org/2000/svg" xmlns:xlink="http://www.w3.org/1999/xlink">
<g id="graph0" class="graph" transform="scale(1 1) rotate(0) translate(4 442)">
<title>stride::BaseController</title>
<polygon fill="white" stroke="none" points="-4,4 -4,-442 227,-442 227,4 -4,4"/>
<!-- Node1 -->
<g id="node1" class="node"><title>Node1</title>
<polygon fill="#bfbfbf" stroke="black" points="53,-182.5 53,-437.5 167,-437.5 167,-182.5 53,-182.5"/>
<text text-anchor="middle" x="110" y="-425.5" font-family="Helvetica,sans-Serif" font-size="10.00">stride::BaseController</text>
<polyline fill="none" stroke="black" points="53,-418.5 167,-418.5 "/>
<text text-anchor="start" x="61" y="-406.5" font-family="Helvetica,sans-Serif" font-size="10.00"># m_config_pt</text>
<text text-anchor="start" x="61" y="-395.5" font-family="Helvetica,sans-Serif" font-size="10.00"># m_output_prefix</text>
<text text-anchor="start" x="61" y="-384.5" font-family="Helvetica,sans-Serif" font-size="10.00"># m_run_clock</text>
<text text-anchor="start" x="61" y="-373.5" font-family="Helvetica,sans-Serif" font-size="10.00"># m_stride_logger</text>
<text text-anchor="start" x="61" y="-362.5" font-family="Helvetica,sans-Serif" font-size="10.00"># m_use_install_dirs</text>
<text text-anchor="start" x="61" y="-351.5" font-family="Helvetica,sans-Serif" font-size="10.00"># m_runner</text>
<text text-anchor="start" x="61" y="-340.5" font-family="Helvetica,sans-Serif" font-size="10.00"># m_rn_manager</text>
<polyline fill="none" stroke="black" points="53,-333.5 167,-333.5 "/>
<text text-anchor="start" x="61" y="-321.5" font-family="Helvetica,sans-Serif" font-size="10.00">+ BaseController()</text>
<text text-anchor="start" x="61" y="-310.5" font-family="Helvetica,sans-Serif" font-size="10.00">+ ~BaseController()</text>
<text text-anchor="start" x="61" y="-299.5" font-family="Helvetica,sans-Serif" font-size="10.00">+ Control()</text>
<text text-anchor="start" x="61" y="-288.5" font-family="Helvetica,sans-Serif" font-size="10.00">+ GetSimRunner()</text>
<text text-anchor="start" x="61" y="-277.5" font-family="Helvetica,sans-Serif" font-size="10.00">+ RegisterViewer()</text>
<text text-anchor="start" x="61" y="-266.5" font-family="Helvetica,sans-Serif" font-size="10.00">+ RegisterViewers()</text>
<text text-anchor="start" x="61" y="-255.5" font-family="Helvetica,sans-Serif" font-size="10.00">+ GetLogger()</text>
<text text-anchor="start" x="61" y="-244.5" font-family="Helvetica,sans-Serif" font-size="10.00">+ GetOutputPrefix()</text>
<text text-anchor="start" x="61" y="-233.5" font-family="Helvetica,sans-Serif" font-size="10.00"># BaseController()</text>
<text text-anchor="start" x="61" y="-222.5" font-family="Helvetica,sans-Serif" font-size="10.00"># CheckEnv()</text>
<text text-anchor="start" x="61" y="-211.5" font-family="Helvetica,sans-Serif" font-size="10.00"># CheckOutputPrefix()</text>
<text text-anchor="start" x="61" y="-200.5" font-family="Helvetica,sans-Serif" font-size="10.00"># LogSetup()</text>
<text text-anchor="start" x="61" y="-189.5" font-family="Helvetica,sans-Serif" font-size="10.00"># MakeLogger()</text>
</g>
<!-- Node2 -->
<g id="node2" class="node"><title>Node2</title>
<g id="a_node2"><a xlink:href="../../da/d74/a00099.html" target="_top" xlink:title="Controls a simulation run initiated with the command line interface (cli). ">
<polygon fill="white" stroke="black" points="-0.5,-33.5 -0.5,-112.5 100.5,-112.5 100.5,-33.5 -0.5,-33.5"/>
<text text-anchor="middle" x="50" y="-100.5" font-family="Helvetica,sans-Serif" font-size="10.00">stride::CliController</text>
<polyline fill="none" stroke="black" points="-0.5,-93.5 100.5,-93.5 "/>
<text text-anchor="middle" x="50" y="-81.5" font-family="Helvetica,sans-Serif" font-size="10.00"> </text>
<polyline fill="none" stroke="black" points="-0.5,-74.5 100.5,-74.5 "/>
<text text-anchor="start" x="7.5" y="-62.5" font-family="Helvetica,sans-Serif" font-size="10.00">+ CliController()</text>
<text text-anchor="start" x="7.5" y="-51.5" font-family="Helvetica,sans-Serif" font-size="10.00">+ ~CliController()</text>
<text text-anchor="start" x="7.5" y="-40.5" font-family="Helvetica,sans-Serif" font-size="10.00">+ Control()</text>
</a>
</g>
</g>
<!-- Node1&#45;&gt;Node2 -->
<g id="edge1" class="edge"><title>Node1&#45;&gt;Node2</title>
<path fill="none" stroke="midnightblue" d="M75.1348,-172.445C69.5446,-150.55 64.186,-129.562 59.8634,-112.632"/>
<polygon fill="none" stroke="midnightblue" points="71.764,-173.391 77.6292,-182.214 78.5465,-171.659 71.764,-173.391"/>
</g>
<!-- Node3 -->
<g id="node3" class="node"><title>Node3</title>
<g id="a_node3"><a xlink:href="../../db/d57/a00112.html" target="_top" xlink:title="A controller for the simulation that uses Qt to give the user the ability of controlling the steps...">
<polygon fill="white" stroke="black" points="119,-0.5 119,-145.5 223,-145.5 223,-0.5 119,-0.5"/>
<text text-anchor="middle" x="171" y="-133.5" font-family="Helvetica,sans-Serif" font-size="10.00">stride::GuiController</text>
<polyline fill="none" stroke="black" points="119,-126.5 223,-126.5 "/>
<text text-anchor="start" x="127" y="-114.5" font-family="Helvetica,sans-Serif" font-size="10.00">&#45; m_argc</text>
<text text-anchor="start" x="127" y="-103.5" font-family="Helvetica,sans-Serif" font-size="10.00">&#45; m_app</text>
<text text-anchor="start" x="127" y="-92.5" font-family="Helvetica,sans-Serif" font-size="10.00">&#45; m_engine</text>
<text text-anchor="start" x="127" y="-81.5" font-family="Helvetica,sans-Serif" font-size="10.00">&#45; m_backend</text>
<polyline fill="none" stroke="black" points="119,-74.5 223,-74.5 "/>
<text text-anchor="start" x="127" y="-62.5" font-family="Helvetica,sans-Serif" font-size="10.00">+ GuiController()</text>
<text text-anchor="start" x="127" y="-51.5" font-family="Helvetica,sans-Serif" font-size="10.00">+ GuiController()</text>
<text text-anchor="start" x="127" y="-40.5" font-family="Helvetica,sans-Serif" font-size="10.00">+ operator=()</text>
<text text-anchor="start" x="127" y="-29.5" font-family="Helvetica,sans-Serif" font-size="10.00">+ ~GuiController()</text>
<text text-anchor="start" x="127" y="-18.5" font-family="Helvetica,sans-Serif" font-size="10.00">+ Control()</text>
<text text-anchor="start" x="127" y="-7.5" font-family="Helvetica,sans-Serif" font-size="10.00">+ GetEngine()</text>
</a>
</g>
</g>
<!-- Node1&#45;&gt;Node3 -->
<g id="edge2" class="edge"><title>Node1&#45;&gt;Node3</title>
<path fill="none" stroke="midnightblue" d="M145.425,-172.528C147.825,-163.279 150.184,-154.191 152.44,-145.502"/>
<polygon fill="none" stroke="midnightblue" points="142.035,-171.656 142.91,-182.214 148.811,-173.414 142.035,-171.656"/>
</g>
</g>
</svg>
