<?xml version="1.0" encoding="UTF-8" standalone="no"?>
<!DOCTYPE svg PUBLIC "-//W3C//DTD SVG 1.1//EN"
 "http://www.w3.org/Graphics/SVG/1.1/DTD/svg11.dtd">
<!-- Generated by graphviz version 2.36.0 (20140111.2315)
 -->
<!-- Title: gengeopop::ContactCenter Pages: 1 -->
<svg width="1113pt" height="1700pt"
 viewBox="0.00 0.00 1113.00 1700.00" xmlns="http://www.w3.org/2000/svg" xmlns:xlink="http://www.w3.org/1999/xlink">
<g id="graph0" class="graph" transform="scale(1 1) rotate(0) translate(4 1696)">
<title>gengeopop::ContactCenter</title>
<polygon fill="white" stroke="none" points="-4,4 -4,-1696 1109,-1696 1109,4 -4,4"/>
<!-- Node1 -->
<g id="node1" class="node"><title>Node1</title>
<polygon fill="#bfbfbf" stroke="black" points="929,-0.5 929,-189.5 1069,-189.5 1069,-0.5 929,-0.5"/>
<text text-anchor="middle" x="999" y="-177.5" font-family="Helvetica,sans-Serif" font-size="10.00">gengeopop::ContactCenter</text>
<polyline fill="none" stroke="black" points="929,-170.5 1069,-170.5 "/>
<text text-anchor="middle" x="999" y="-158.5" font-family="Helvetica,sans-Serif" font-size="10.00"> </text>
<polyline fill="none" stroke="black" points="929,-151.5 1069,-151.5 "/>
<text text-anchor="start" x="937" y="-139.5" font-family="Helvetica,sans-Serif" font-size="10.00">+ ContactCenter()</text>
<text text-anchor="start" x="937" y="-128.5" font-family="Helvetica,sans-Serif" font-size="10.00">+ GetType()</text>
<text text-anchor="start" x="937" y="-117.5" font-family="Helvetica,sans-Serif" font-size="10.00">+ GetPoolSize()</text>
<text text-anchor="start" x="937" y="-106.5" font-family="Helvetica,sans-Serif" font-size="10.00">+ GetMaxPools()</text>
<text text-anchor="start" x="937" y="-95.5" font-family="Helvetica,sans-Serif" font-size="10.00">+ Fill()</text>
<text text-anchor="start" x="937" y="-84.5" font-family="Helvetica,sans-Serif" font-size="10.00">+ GetId()</text>
<text text-anchor="start" x="937" y="-73.5" font-family="Helvetica,sans-Serif" font-size="10.00">+ GetPopulationAndInfected</text>
<text text-anchor="start" x="937" y="-62.5" font-family="Helvetica,sans-Serif" font-size="10.00">Count()</text>
<text text-anchor="start" x="937" y="-51.5" font-family="Helvetica,sans-Serif" font-size="10.00">+ AddPool()</text>
<text text-anchor="start" x="937" y="-40.5" font-family="Helvetica,sans-Serif" font-size="10.00">+ GetPools()</text>
<text text-anchor="start" x="937" y="-29.5" font-family="Helvetica,sans-Serif" font-size="10.00">+ begin()</text>
<text text-anchor="start" x="937" y="-18.5" font-family="Helvetica,sans-Serif" font-size="10.00">+ end()</text>
<text text-anchor="start" x="937" y="-7.5" font-family="Helvetica,sans-Serif" font-size="10.00">+ ~ContactCenter()</text>
</g>
<!-- Node2 -->
<g id="node2" class="node"><title>Node2</title>
<polygon fill="white" stroke="#bfbfbf" points="786,-239 786,-307 882,-307 882,-239 786,-239"/>
<text text-anchor="start" x="794" y="-295" font-family="Helvetica,sans-Serif" font-size="10.00">std::vector&lt; stride</text>
<text text-anchor="middle" x="834" y="-284" font-family="Helvetica,sans-Serif" font-size="10.00">::ContactPool * &gt;</text>
<polyline fill="none" stroke="#bfbfbf" points="786,-277 882,-277 "/>
<text text-anchor="middle" x="834" y="-265" font-family="Helvetica,sans-Serif" font-size="10.00"> </text>
<polyline fill="none" stroke="#bfbfbf" points="786,-258 882,-258 "/>
<text text-anchor="middle" x="834" y="-246" font-family="Helvetica,sans-Serif" font-size="10.00"> </text>
</g>
<!-- Node2&#45;&gt;Node1 -->
<g id="edge1" class="edge"><title>Node2&#45;&gt;Node1</title>
<path fill="none" stroke="#404040" d="M865.035,-238.896C880.8,-222.08 900.74,-200.811 920.385,-179.856"/>
<polygon fill="none" stroke="#404040" points="920.565,-179.663 921.751,-172.55 928.773,-170.909 927.587,-178.022 920.565,-179.663"/>
<text text-anchor="middle" x="916" y="-211.5" font-family="Helvetica,sans-Serif" font-size="10.00"> #m_pools</text>
</g>
<!-- Node3 -->
<g id="node3" class="node"><title>Node3</title>
<g id="a_node3"><a xlink:href="../../d4/d3a/a00101.html" target="_top" xlink:title="Represents a group of Persons that potentially have contacts. ">
<polygon fill="white" stroke="black" points="138.5,-356.5 138.5,-545.5 289.5,-545.5 289.5,-356.5 138.5,-356.5"/>
<text text-anchor="middle" x="214" y="-533.5" font-family="Helvetica,sans-Serif" font-size="10.00">stride::ContactPool</text>
<polyline fill="none" stroke="black" points="138.5,-526.5 289.5,-526.5 "/>
<text text-anchor="middle" x="214" y="-514.5" font-family="Helvetica,sans-Serif" font-size="10.00"> </text>
<polyline fill="none" stroke="black" points="138.5,-507.5 289.5,-507.5 "/>
<text text-anchor="start" x="146.5" y="-495.5" font-family="Helvetica,sans-Serif" font-size="10.00">+ ContactPool()</text>
<text text-anchor="start" x="146.5" y="-484.5" font-family="Helvetica,sans-Serif" font-size="10.00">+ ContactPool()</text>
<text text-anchor="start" x="146.5" y="-473.5" font-family="Helvetica,sans-Serif" font-size="10.00">+ AddMember()</text>
<text text-anchor="start" x="146.5" y="-462.5" font-family="Helvetica,sans-Serif" font-size="10.00">+ AddExpat()</text>
<text text-anchor="start" x="146.5" y="-451.5" font-family="Helvetica,sans-Serif" font-size="10.00">+ GetMember()</text>
<text text-anchor="start" x="146.5" y="-440.5" font-family="Helvetica,sans-Serif" font-size="10.00">+ RemoveMember()</text>
<text text-anchor="start" x="146.5" y="-429.5" font-family="Helvetica,sans-Serif" font-size="10.00">+ RemoveExpat()</text>
<text text-anchor="start" x="146.5" y="-418.5" font-family="Helvetica,sans-Serif" font-size="10.00">+ GetPool()</text>
<text text-anchor="start" x="146.5" y="-407.5" font-family="Helvetica,sans-Serif" font-size="10.00">+ GetSize()</text>
<text text-anchor="start" x="146.5" y="-396.5" font-family="Helvetica,sans-Serif" font-size="10.00">+ GetId()</text>
<text text-anchor="start" x="146.5" y="-385.5" font-family="Helvetica,sans-Serif" font-size="10.00">and 11 more...</text>
<text text-anchor="start" x="146.5" y="-374.5" font-family="Helvetica,sans-Serif" font-size="10.00">&#45; UpdateExpatsAfterRemoval()</text>
<text text-anchor="start" x="146.5" y="-363.5" font-family="Helvetica,sans-Serif" font-size="10.00">&#45; Swap()</text>
</a>
</g>
</g>
<!-- Node3&#45;&gt;Node2 -->
<g id="edge2" class="edge"><title>Node3&#45;&gt;Node2</title>
<path fill="none" stroke="#404040" d="M289.714,-428.507C414.386,-393.116 660.365,-323.29 773.934,-291.051"/>
<polygon fill="none" stroke="#404040" points="774.265,-290.957 778.945,-285.471 785.809,-287.68 781.13,-293.166 774.265,-290.957"/>
<text text-anchor="middle" x="675.5" y="-329.5" font-family="Helvetica,sans-Serif" font-size="10.00"> +elements</text>
</g>
<!-- Node4 -->
<g id="node4" class="node"><title>Node4</title>
<polygon fill="white" stroke="#bfbfbf" points="494,-600 494,-668 590,-668 590,-600 494,-600"/>
<text text-anchor="start" x="502" y="-656" font-family="Helvetica,sans-Serif" font-size="10.00">std::vector&lt; stride</text>
<text text-anchor="middle" x="542" y="-645" font-family="Helvetica,sans-Serif" font-size="10.00">::Person * &gt;</text>
<polyline fill="none" stroke="#bfbfbf" points="494,-638 590,-638 "/>
<text text-anchor="middle" x="542" y="-626" font-family="Helvetica,sans-Serif" font-size="10.00"> </text>
<polyline fill="none" stroke="#bfbfbf" points="494,-619 590,-619 "/>
<text text-anchor="middle" x="542" y="-607" font-family="Helvetica,sans-Serif" font-size="10.00"> </text>
</g>
<!-- Node4&#45;&gt;Node3 -->
<g id="edge3" class="edge"><title>Node4&#45;&gt;Node3</title>
<path fill="none" stroke="#404040" d="M493.955,-606.487C443.156,-578.455 361.968,-533.653 300.073,-499.498"/>
<polygon fill="none" stroke="#404040" points="300.041,-499.48 292.855,-500.083 289.535,-493.682 296.72,-493.079 300.041,-499.48"/>
<text text-anchor="middle" x="466.5" y="-567.5" font-family="Helvetica,sans-Serif" font-size="10.00"> &#45;m_members</text>
</g>
<!-- Node5 -->
<g id="node5" class="node"><title>Node5</title>
<g id="a_node5"><a xlink:href="../../d2/df5/a00137.html" target="_top" xlink:title="Store and handle person data. ">
<polygon fill="white" stroke="black" points="502,-744.5 502,-911.5 582,-911.5 582,-744.5 502,-744.5"/>
<text text-anchor="middle" x="542" y="-899.5" font-family="Helvetica,sans-Serif" font-size="10.00">stride::Person</text>
<polyline fill="none" stroke="black" points="502,-892.5 582,-892.5 "/>
<text text-anchor="middle" x="542" y="-880.5" font-family="Helvetica,sans-Serif" font-size="10.00"> </text>
<polyline fill="none" stroke="black" points="502,-873.5 582,-873.5 "/>
<text text-anchor="start" x="510" y="-861.5" font-family="Helvetica,sans-Serif" font-size="10.00">+ Person()</text>
<text text-anchor="start" x="510" y="-850.5" font-family="Helvetica,sans-Serif" font-size="10.00">+ Person()</text>
<text text-anchor="start" x="510" y="-839.5" font-family="Helvetica,sans-Serif" font-size="10.00">+ operator!=()</text>
<text text-anchor="start" x="510" y="-828.5" font-family="Helvetica,sans-Serif" font-size="10.00">+ GetAge()</text>
<text text-anchor="start" x="510" y="-817.5" font-family="Helvetica,sans-Serif" font-size="10.00">+ GetBelief()</text>
<text text-anchor="start" x="510" y="-806.5" font-family="Helvetica,sans-Serif" font-size="10.00">+ GetBelief()</text>
<text text-anchor="start" x="510" y="-795.5" font-family="Helvetica,sans-Serif" font-size="10.00">+ GetPoolId()</text>
<text text-anchor="start" x="510" y="-784.5" font-family="Helvetica,sans-Serif" font-size="10.00">+ GetGender()</text>
<text text-anchor="start" x="510" y="-773.5" font-family="Helvetica,sans-Serif" font-size="10.00">+ GetHealth()</text>
<text text-anchor="start" x="510" y="-762.5" font-family="Helvetica,sans-Serif" font-size="10.00">+ GetHealth()</text>
<text text-anchor="start" x="510" y="-751.5" font-family="Helvetica,sans-Serif" font-size="10.00">and 27 more...</text>
</a>
</g>
</g>
<!-- Node5&#45;&gt;Node4 -->
<g id="edge4" class="edge"><title>Node5&#45;&gt;Node4</title>
<path fill="none" stroke="#404040" d="M542,-744.46C542,-722.45 542,-699.475 542,-680.291"/>
<polygon fill="none" stroke="#404040" points="542,-680.279 538,-674.279 542,-668.279 546,-674.279 542,-680.279"/>
<text text-anchor="middle" x="566.5" y="-706.5" font-family="Helvetica,sans-Serif" font-size="10.00"> +elements</text>
</g>
<!-- Node24 -->
<g id="node24" class="node"><title>Node24</title>
<polygon fill="white" stroke="#bfbfbf" points="-0.5,-594.5 -0.5,-673.5 112.5,-673.5 112.5,-594.5 -0.5,-594.5"/>
<text text-anchor="start" x="7.5" y="-661.5" font-family="Helvetica,sans-Serif" font-size="10.00">std::unordered_map</text>
<text text-anchor="start" x="7.5" y="-650.5" font-family="Helvetica,sans-Serif" font-size="10.00">&lt; const stride::Person</text>
<text text-anchor="middle" x="56" y="-639.5" font-family="Helvetica,sans-Serif" font-size="10.00"> *, std::size_t &gt;</text>
<polyline fill="none" stroke="#bfbfbf" points="-0.5,-632.5 112.5,-632.5 "/>
<text text-anchor="middle" x="56" y="-620.5" font-family="Helvetica,sans-Serif" font-size="10.00"> </text>
<polyline fill="none" stroke="#bfbfbf" points="-0.5,-613.5 112.5,-613.5 "/>
<text text-anchor="middle" x="56" y="-601.5" font-family="Helvetica,sans-Serif" font-size="10.00"> </text>
</g>
<!-- Node5&#45;&gt;Node24 -->
<g id="edge26" class="edge"><title>Node5&#45;&gt;Node24</title>
<path fill="none" stroke="#404040" d="M501.718,-822.408C429.724,-812.916 275.775,-786.721 161,-726 139.393,-714.569 118.439,-697.929 101.007,-681.994"/>
<polygon fill="none" stroke="#404040" points="100.979,-681.968 93.8663,-680.78 92.2274,-673.757 99.34,-674.946 100.979,-681.968"/>
<text text-anchor="middle" x="176.5" y="-706.5" font-family="Helvetica,sans-Serif" font-size="10.00"> +keys</text>
</g>
<!-- Node6 -->
<g id="node6" class="node"><title>Node6</title>
<g id="a_node6"><a xlink:href="../../db/d8e/a00482.html" target="_top" xlink:title="{double\n||}">
<polygon fill="white" stroke="black" points="363.5,-1042.5 363.5,-1099.5 408.5,-1099.5 408.5,-1042.5 363.5,-1042.5"/>
<text text-anchor="middle" x="386" y="-1087.5" font-family="Helvetica,sans-Serif" font-size="10.00">double</text>
<polyline fill="none" stroke="black" points="363.5,-1080.5 408.5,-1080.5 "/>
<text text-anchor="middle" x="386" y="-1068.5" font-family="Helvetica,sans-Serif" font-size="10.00"> </text>
<polyline fill="none" stroke="black" points="363.5,-1061.5 408.5,-1061.5 "/>
<text text-anchor="middle" x="386" y="-1049.5" font-family="Helvetica,sans-Serif" font-size="10.00"> </text>
</a>
</g>
</g>
<!-- Node6&#45;&gt;Node5 -->
<g id="edge5" class="edge"><title>Node6&#45;&gt;Node5</title>
<path fill="none" stroke="#404040" d="M384.182,-1042.43C383.502,-1012.62 386.259,-964.704 407,-930 426.726,-896.993 461.756,-871.266 491.189,-854.038"/>
<polygon fill="none" stroke="#404040" points="491.293,-853.98 494.55,-847.546 501.741,-848.078 498.484,-854.511 491.293,-853.98"/>
<text text-anchor="middle" x="425" y="-938.5" font-family="Helvetica,sans-Serif" font-size="10.00"> &#45;m_age</text>
</g>
<!-- Node7 -->
<g id="node7" class="node"><title>Node7</title>
<g id="a_node7"><a xlink:href="../../d1/d09/a00077.html" target="_top" xlink:title="{stride::ContactPoolType\l::IdSubscriptArray\&lt; unsigned int \&gt;\n||+ IdSubscriptArray()\l+ IdSubscriptArray()\l+ IdSubscriptArray()\l+ IdSubscriptArray()\l+ operator[]()\l+ operator[]()\l+ at()\l+ at()\l}">
<polygon fill="white" stroke="black" points="793,-998.5 793,-1143.5 959,-1143.5 959,-998.5 793,-998.5"/>
<text text-anchor="start" x="801" y="-1131.5" font-family="Helvetica,sans-Serif" font-size="10.00">stride::ContactPoolType</text>
<text text-anchor="middle" x="876" y="-1120.5" font-family="Helvetica,sans-Serif" font-size="10.00">::IdSubscriptArray&lt; unsigned int &gt;</text>
<polyline fill="none" stroke="black" points="793,-1113.5 959,-1113.5 "/>
<text text-anchor="middle" x="876" y="-1101.5" font-family="Helvetica,sans-Serif" font-size="10.00"> </text>
<polyline fill="none" stroke="black" points="793,-1094.5 959,-1094.5 "/>
<text text-anchor="start" x="801" y="-1082.5" font-family="Helvetica,sans-Serif" font-size="10.00">+ IdSubscriptArray()</text>
<text text-anchor="start" x="801" y="-1071.5" font-family="Helvetica,sans-Serif" font-size="10.00">+ IdSubscriptArray()</text>
<text text-anchor="start" x="801" y="-1060.5" font-family="Helvetica,sans-Serif" font-size="10.00">+ IdSubscriptArray()</text>
<text text-anchor="start" x="801" y="-1049.5" font-family="Helvetica,sans-Serif" font-size="10.00">+ IdSubscriptArray()</text>
<text text-anchor="start" x="801" y="-1038.5" font-family="Helvetica,sans-Serif" font-size="10.00">+ operator[]()</text>
<text text-anchor="start" x="801" y="-1027.5" font-family="Helvetica,sans-Serif" font-size="10.00">+ operator[]()</text>
<text text-anchor="start" x="801" y="-1016.5" font-family="Helvetica,sans-Serif" font-size="10.00">+ at()</text>
<text text-anchor="start" x="801" y="-1005.5" font-family="Helvetica,sans-Serif" font-size="10.00">+ at()</text>
</a>
</g>
</g>
<!-- Node7&#45;&gt;Node5 -->
<g id="edge6" class="edge"><title>Node7&#45;&gt;Node5</title>
<path fill="none" stroke="#404040" d="M811.627,-998.357C802.231,-988.62 792.513,-978.918 783,-970 762.49,-950.773 757.447,-945.511 734,-930 688.444,-899.863 632.885,-871.458 593.277,-852.494"/>
<polygon fill="none" stroke="#404040" points="593.136,-852.427 586,-853.468 582.295,-847.282 589.43,-846.241 593.136,-852.427"/>
<text text-anchor="middle" x="791" y="-938.5" font-family="Helvetica,sans-Serif" font-size="10.00"> &#45;m_pool_ids</text>
</g>
<!-- Node8 -->
<g id="node8" class="node"><title>Node8</title>
<g id="a_node8"><a xlink:title="STL class. ">
<polygon fill="white" stroke="#bfbfbf" points="914.5,-1429 914.5,-1497 1021.5,-1497 1021.5,-1429 914.5,-1429"/>
<text text-anchor="start" x="922.5" y="-1485" font-family="Helvetica,sans-Serif" font-size="10.00">std::array&lt; unsigned</text>
<text text-anchor="middle" x="968" y="-1474" font-family="Helvetica,sans-Serif" font-size="10.00"> int, NumOfTypes()&gt;</text>
<polyline fill="none" stroke="#bfbfbf" points="914.5,-1467 1021.5,-1467 "/>
<text text-anchor="middle" x="968" y="-1455" font-family="Helvetica,sans-Serif" font-size="10.00"> </text>
<polyline fill="none" stroke="#bfbfbf" points="914.5,-1448 1021.5,-1448 "/>
<text text-anchor="middle" x="968" y="-1436" font-family="Helvetica,sans-Serif" font-size="10.00"> </text>
</a>
</g>
</g>
<!-- Node8&#45;&gt;Node7 -->
<g id="edge7" class="edge"><title>Node8&#45;&gt;Node7</title>
<path fill="none" stroke="midnightblue" d="M972.091,-1418.72C975.782,-1363.98 977.301,-1267.52 952,-1190 946.821,-1174.13 938.972,-1158.31 930.253,-1143.64"/>
<polygon fill="none" stroke="midnightblue" points="968.595,-1418.54 971.357,-1428.76 975.577,-1419.05 968.595,-1418.54"/>
</g>
<!-- Node9 -->
<g id="node9" class="node"><title>Node9</title>
<polygon fill="white" stroke="#bfbfbf" points="914.5,-1634.5 914.5,-1691.5 943.5,-1691.5 943.5,-1634.5 914.5,-1634.5"/>
<text text-anchor="middle" x="929" y="-1679.5" font-family="Helvetica,sans-Serif" font-size="10.00">T</text>
<polyline fill="none" stroke="#bfbfbf" points="914.5,-1672.5 943.5,-1672.5 "/>
<text text-anchor="middle" x="929" y="-1660.5" font-family="Helvetica,sans-Serif" font-size="10.00"> </text>
<polyline fill="none" stroke="#bfbfbf" points="914.5,-1653.5 943.5,-1653.5 "/>
<text text-anchor="middle" x="929" y="-1641.5" font-family="Helvetica,sans-Serif" font-size="10.00"> </text>
</g>
<!-- Node9&#45;&gt;Node8 -->
<g id="edge8" class="edge"><title>Node9&#45;&gt;Node8</title>
<path fill="none" stroke="#404040" d="M943.589,-1635.35C946.458,-1629.15 949.149,-1622.47 951,-1616 961.017,-1581 965.181,-1539.89 966.888,-1509.25"/>
<polygon fill="none" stroke="#404040" points="966.889,-1509.22 963.18,-1503.03 967.462,-1497.23 971.171,-1503.41 966.889,-1509.22"/>
<text text-anchor="middle" x="978.5" y="-1607.5" font-family="Helvetica,sans-Serif" font-size="10.00"> +elements</text>
</g>
<!-- Node11 -->
<g id="node11" class="node"><title>Node11</title>
<g id="a_node11"><a xlink:title="STL class. ">
<polygon fill="white" stroke="#bfbfbf" points="796.5,-1522.5 796.5,-1579.5 945.5,-1579.5 945.5,-1522.5 796.5,-1522.5"/>
<text text-anchor="middle" x="871" y="-1567.5" font-family="Helvetica,sans-Serif" font-size="10.00">std::array&lt; T, NumOfTypes()&gt;</text>
<polyline fill="none" stroke="#bfbfbf" points="796.5,-1560.5 945.5,-1560.5 "/>
<text text-anchor="middle" x="871" y="-1548.5" font-family="Helvetica,sans-Serif" font-size="10.00"> </text>
<polyline fill="none" stroke="#bfbfbf" points="796.5,-1541.5 945.5,-1541.5 "/>
<text text-anchor="middle" x="871" y="-1529.5" font-family="Helvetica,sans-Serif" font-size="10.00"> </text>
</a>
</g>
</g>
<!-- Node9&#45;&gt;Node11 -->
<g id="edge11" class="edge"><title>Node9&#45;&gt;Node11</title>
<path fill="none" stroke="#404040" d="M914.341,-1637.85C910.233,-1630.87 905.842,-1623.19 902,-1616 897.629,-1607.82 893.155,-1598.94 889.015,-1590.46"/>
<polygon fill="none" stroke="#404040" points="889.013,-1590.46 882.804,-1586.79 883.8,-1579.65 890.01,-1583.32 889.013,-1590.46"/>
<text text-anchor="middle" x="926.5" y="-1607.5" font-family="Helvetica,sans-Serif" font-size="10.00"> +elements</text>
</g>
<!-- Node23 -->
<g id="node23" class="node"><title>Node23</title>
<g id="a_node23"><a xlink:title="STL class. ">
<polygon fill="white" stroke="#bfbfbf" points="790.5,-799.5 790.5,-856.5 877.5,-856.5 877.5,-799.5 790.5,-799.5"/>
<text text-anchor="middle" x="834" y="-844.5" font-family="Helvetica,sans-Serif" font-size="10.00">std::vector&lt; T &gt;</text>
<polyline fill="none" stroke="#bfbfbf" points="790.5,-837.5 877.5,-837.5 "/>
<text text-anchor="middle" x="834" y="-825.5" font-family="Helvetica,sans-Serif" font-size="10.00"> </text>
<polyline fill="none" stroke="#bfbfbf" points="790.5,-818.5 877.5,-818.5 "/>
<text text-anchor="middle" x="834" y="-806.5" font-family="Helvetica,sans-Serif" font-size="10.00"> </text>
</a>
</g>
</g>
<!-- Node9&#45;&gt;Node23 -->
<g id="edge24" class="edge"><title>Node9&#45;&gt;Node23</title>
<path fill="none" stroke="#404040" d="M943.642,-1655.93C974.001,-1642.25 1041,-1605.96 1041,-1552 1041,-1552 1041,-1552 1041,-1070 1041,-1007.47 1062.01,-981.815 1027,-930 995.225,-882.968 934.369,-856.368 889.453,-842.408"/>
<polygon fill="none" stroke="#404040" points="889.332,-842.372 882.442,-844.502 877.826,-838.963 884.715,-836.832 889.332,-842.372"/>
<text text-anchor="middle" x="1065.5" y="-1334.5" font-family="Helvetica,sans-Serif" font-size="10.00"> +elements</text>
</g>
<!-- Node25 -->
<g id="node25" class="node"><title>Node25</title>
<g id="a_node25"><a xlink:title="STL class. ">
<polygon fill="white" stroke="#bfbfbf" points="321.5,-1517 321.5,-1585 424.5,-1585 424.5,-1517 321.5,-1517"/>
<text text-anchor="start" x="329.5" y="-1573" font-family="Helvetica,sans-Serif" font-size="10.00">std::unordered_map</text>
<text text-anchor="middle" x="373" y="-1562" font-family="Helvetica,sans-Serif" font-size="10.00">&lt; K, T &gt;</text>
<polyline fill="none" stroke="#bfbfbf" points="321.5,-1555 424.5,-1555 "/>
<text text-anchor="middle" x="373" y="-1543" font-family="Helvetica,sans-Serif" font-size="10.00"> </text>
<polyline fill="none" stroke="#bfbfbf" points="321.5,-1536 424.5,-1536 "/>
<text text-anchor="middle" x="373" y="-1524" font-family="Helvetica,sans-Serif" font-size="10.00"> </text>
</a>
</g>
</g>
<!-- Node9&#45;&gt;Node25 -->
<g id="edge30" class="edge"><title>Node9&#45;&gt;Node25</title>
<path fill="none" stroke="#404040" d="M914.414,-1659.11C847.108,-1645.8 564.373,-1589.86 436.402,-1564.54"/>
<polygon fill="none" stroke="#404040" points="436.285,-1564.52 429.622,-1567.28 424.513,-1562.19 431.175,-1559.43 436.285,-1564.52"/>
<text text-anchor="middle" x="709.5" y="-1607.5" font-family="Helvetica,sans-Serif" font-size="10.00"> +elements</text>
</g>
<!-- Node10 -->
<g id="node10" class="node"><title>Node10</title>
<g id="a_node10"><a xlink:href="../../d1/d09/a00077.html" target="_top" xlink:title="An std::array modified to enable subscripting with the constact pool type indentifiers. ">
<polygon fill="white" stroke="black" points="810,-1264.5 810,-1409.5 932,-1409.5 932,-1264.5 810,-1264.5"/>
<text text-anchor="start" x="818" y="-1397.5" font-family="Helvetica,sans-Serif" font-size="10.00">stride::ContactPoolType</text>
<text text-anchor="middle" x="871" y="-1386.5" font-family="Helvetica,sans-Serif" font-size="10.00">::IdSubscriptArray&lt; T &gt;</text>
<polyline fill="none" stroke="black" points="810,-1379.5 932,-1379.5 "/>
<text text-anchor="middle" x="871" y="-1367.5" font-family="Helvetica,sans-Serif" font-size="10.00"> </text>
<polyline fill="none" stroke="black" points="810,-1360.5 932,-1360.5 "/>
<text text-anchor="start" x="818" y="-1348.5" font-family="Helvetica,sans-Serif" font-size="10.00">+ IdSubscriptArray()</text>
<text text-anchor="start" x="818" y="-1337.5" font-family="Helvetica,sans-Serif" font-size="10.00">+ IdSubscriptArray()</text>
<text text-anchor="start" x="818" y="-1326.5" font-family="Helvetica,sans-Serif" font-size="10.00">+ IdSubscriptArray()</text>
<text text-anchor="start" x="818" y="-1315.5" font-family="Helvetica,sans-Serif" font-size="10.00">+ IdSubscriptArray()</text>
<text text-anchor="start" x="818" y="-1304.5" font-family="Helvetica,sans-Serif" font-size="10.00">+ operator[]()</text>
<text text-anchor="start" x="818" y="-1293.5" font-family="Helvetica,sans-Serif" font-size="10.00">+ operator[]()</text>
<text text-anchor="start" x="818" y="-1282.5" font-family="Helvetica,sans-Serif" font-size="10.00">+ at()</text>
<text text-anchor="start" x="818" y="-1271.5" font-family="Helvetica,sans-Serif" font-size="10.00">+ at()</text>
</a>
</g>
</g>
<!-- Node10&#45;&gt;Node7 -->
<g id="edge9" class="edge"><title>Node10&#45;&gt;Node7</title>
<path fill="none" stroke="orange" d="M872.554,-1253.94C873.222,-1218.67 873.996,-1177.82 874.641,-1143.78"/>
<polygon fill="orange" stroke="orange" points="869.05,-1254.15 872.36,-1264.21 876.048,-1254.28 869.05,-1254.15"/>
<text text-anchor="middle" x="911" y="-1215.5" font-family="Helvetica,sans-Serif" font-size="10.00"> &lt; unsigned int &gt;</text>
</g>
<!-- Node11&#45;&gt;Node10 -->
<g id="edge10" class="edge"><title>Node11&#45;&gt;Node10</title>
<path fill="none" stroke="midnightblue" d="M871,-1511.97C871,-1483.54 871,-1443.82 871,-1409.51"/>
<polygon fill="none" stroke="midnightblue" points="867.5,-1512.28 871,-1522.28 874.5,-1512.28 867.5,-1512.28"/>
</g>
<!-- Node12 -->
<g id="node12" class="node"><title>Node12</title>
<polygon fill="white" stroke="#bfbfbf" points="977.5,-1042.5 977.5,-1099.5 1012.5,-1099.5 1012.5,-1042.5 977.5,-1042.5"/>
<text text-anchor="middle" x="995" y="-1087.5" font-family="Helvetica,sans-Serif" font-size="10.00">char</text>
<polyline fill="none" stroke="#bfbfbf" points="977.5,-1080.5 1012.5,-1080.5 "/>
<text text-anchor="middle" x="995" y="-1068.5" font-family="Helvetica,sans-Serif" font-size="10.00"> </text>
<polyline fill="none" stroke="#bfbfbf" points="977.5,-1061.5 1012.5,-1061.5 "/>
<text text-anchor="middle" x="995" y="-1049.5" font-family="Helvetica,sans-Serif" font-size="10.00"> </text>
</g>
<!-- Node12&#45;&gt;Node5 -->
<g id="edge12" class="edge"><title>Node12&#45;&gt;Node5</title>
<path fill="none" stroke="#404040" d="M994.537,-1042.31C992.689,-1020 986.592,-989.294 968,-970 952.905,-954.335 801.667,-918.792 781,-912 716.043,-890.654 641.713,-864.579 593.427,-847.418"/>
<polygon fill="none" stroke="#404040" points="593.339,-847.387 586.345,-849.143 582.034,-843.363 589.028,-841.607 593.339,-847.387"/>
<text text-anchor="middle" x="948.5" y="-938.5" font-family="Helvetica,sans-Serif" font-size="10.00"> &#45;m_gender</text>
</g>
<!-- Node13 -->
<g id="node13" class="node"><title>Node13</title>
<g id="a_node13"><a xlink:href="../../d5/d1e/a00103.html" target="_top" xlink:title="Specialisation of IdSubscriptArray foor booleans. ">
<polygon fill="white" stroke="black" points="643.5,-1009.5 643.5,-1132.5 774.5,-1132.5 774.5,-1009.5 643.5,-1009.5"/>
<text text-anchor="start" x="651.5" y="-1120.5" font-family="Helvetica,sans-Serif" font-size="10.00">stride::ContactPoolType</text>
<text text-anchor="middle" x="709" y="-1109.5" font-family="Helvetica,sans-Serif" font-size="10.00">::IdSubscriptArray&lt; bool &gt;</text>
<polyline fill="none" stroke="black" points="643.5,-1102.5 774.5,-1102.5 "/>
<text text-anchor="middle" x="709" y="-1090.5" font-family="Helvetica,sans-Serif" font-size="10.00"> </text>
<polyline fill="none" stroke="black" points="643.5,-1083.5 774.5,-1083.5 "/>
<text text-anchor="start" x="651.5" y="-1071.5" font-family="Helvetica,sans-Serif" font-size="10.00">+ IdSubscriptArray()</text>
<text text-anchor="start" x="651.5" y="-1060.5" font-family="Helvetica,sans-Serif" font-size="10.00">+ IdSubscriptArray()</text>
<text text-anchor="start" x="651.5" y="-1049.5" font-family="Helvetica,sans-Serif" font-size="10.00">+ operator[]()</text>
<text text-anchor="start" x="651.5" y="-1038.5" font-family="Helvetica,sans-Serif" font-size="10.00">+ operator[]()</text>
<text text-anchor="start" x="651.5" y="-1027.5" font-family="Helvetica,sans-Serif" font-size="10.00">+ at()</text>
<text text-anchor="start" x="651.5" y="-1016.5" font-family="Helvetica,sans-Serif" font-size="10.00">+ at()</text>
</a>
</g>
</g>
<!-- Node13&#45;&gt;Node5 -->
<g id="edge13" class="edge"><title>Node13&#45;&gt;Node5</title>
<path fill="none" stroke="#404040" d="M695.817,-1009.16C688.332,-983.276 677.145,-953.667 661,-930 642.828,-903.362 615.837,-879.665 592.152,-861.93"/>
<polygon fill="none" stroke="#404040" points="591.936,-861.773 584.731,-861.471 582.239,-854.704 589.444,-855.006 591.936,-861.773"/>
<text text-anchor="middle" x="702" y="-938.5" font-family="Helvetica,sans-Serif" font-size="10.00"> &#45;m_in_pools</text>
</g>
<!-- Node14 -->
<g id="node14" class="node"><title>Node14</title>
<g id="a_node14"><a xlink:title="STL class. ">
<polygon fill="white" stroke="#bfbfbf" points="639,-1308.5 639,-1365.5 779,-1365.5 779,-1308.5 639,-1308.5"/>
<text text-anchor="middle" x="709" y="-1353.5" font-family="Helvetica,sans-Serif" font-size="10.00">std::bitset&lt; NumOfTypes()&gt;</text>
<polyline fill="none" stroke="#bfbfbf" points="639,-1346.5 779,-1346.5 "/>
<text text-anchor="middle" x="709" y="-1334.5" font-family="Helvetica,sans-Serif" font-size="10.00"> </text>
<polyline fill="none" stroke="#bfbfbf" points="639,-1327.5 779,-1327.5 "/>
<text text-anchor="middle" x="709" y="-1315.5" font-family="Helvetica,sans-Serif" font-size="10.00"> </text>
</a>
</g>
</g>
<!-- Node14&#45;&gt;Node13 -->
<g id="edge14" class="edge"><title>Node14&#45;&gt;Node13</title>
<path fill="none" stroke="midnightblue" d="M709,-1298.15C709,-1254.9 709,-1183.54 709,-1132.54"/>
<polygon fill="none" stroke="midnightblue" points="705.5,-1298.25 709,-1308.25 712.5,-1298.25 705.5,-1298.25"/>
</g>
<!-- Node15 -->
<g id="node15" class="node"><title>Node15</title>
<polygon fill="white" stroke="#bfbfbf" points="1069.5,-1042.5 1069.5,-1099.5 1098.5,-1099.5 1098.5,-1042.5 1069.5,-1042.5"/>
<text text-anchor="middle" x="1084" y="-1087.5" font-family="Helvetica,sans-Serif" font-size="10.00">int</text>
<polyline fill="none" stroke="#bfbfbf" points="1069.5,-1080.5 1098.5,-1080.5 "/>
<text text-anchor="middle" x="1084" y="-1068.5" font-family="Helvetica,sans-Serif" font-size="10.00"> </text>
<polyline fill="none" stroke="#bfbfbf" points="1069.5,-1061.5 1098.5,-1061.5 "/>
<text text-anchor="middle" x="1084" y="-1049.5" font-family="Helvetica,sans-Serif" font-size="10.00"> </text>
</g>
<!-- Node15&#45;&gt;Node1 -->
<g id="edge34" class="edge"><title>Node15&#45;&gt;Node1</title>
<path fill="none" stroke="#404040" d="M1082.29,-1042.18C1079.67,-997.329 1075,-906.249 1075,-829 1075,-829 1075,-829 1075,-272 1075,-248.083 1069.01,-223.726 1060.4,-201.06"/>
<polygon fill="none" stroke="#404040" points="1060.31,-200.854 1054.36,-196.788 1055.82,-189.726 1061.78,-193.793 1060.31,-200.854"/>
<text text-anchor="middle" x="1090" y="-567.5" font-family="Helvetica,sans-Serif" font-size="10.00"> #m_id</text>
</g>
<!-- Node15&#45;&gt;Node5 -->
<g id="edge15" class="edge"><title>Node15&#45;&gt;Node5</title>
<path fill="none" stroke="#404040" d="M1072.8,-1042.36C1057.1,-1007.97 1024.86,-951.198 976,-930 896.156,-895.359 866.065,-930.411 781,-912 714.57,-897.622 641.125,-870.3 593.417,-850.936"/>
<polygon fill="none" stroke="#404040" points="593.262,-850.872 586.193,-852.297 582.159,-846.32 589.228,-844.895 593.262,-850.872"/>
<text text-anchor="middle" x="1021" y="-938.5" font-family="Helvetica,sans-Serif" font-size="10.00"> &#45;m_id</text>
</g>
<!-- Node16 -->
<g id="node16" class="node"><title>Node16</title>
<polygon fill="white" stroke="#bfbfbf" points="426.5,-1042.5 426.5,-1099.5 461.5,-1099.5 461.5,-1042.5 426.5,-1042.5"/>
<text text-anchor="middle" x="444" y="-1087.5" font-family="Helvetica,sans-Serif" font-size="10.00">bool</text>
<polyline fill="none" stroke="#bfbfbf" points="426.5,-1080.5 461.5,-1080.5 "/>
<text text-anchor="middle" x="444" y="-1068.5" font-family="Helvetica,sans-Serif" font-size="10.00"> </text>
<polyline fill="none" stroke="#bfbfbf" points="426.5,-1061.5 461.5,-1061.5 "/>
<text text-anchor="middle" x="444" y="-1049.5" font-family="Helvetica,sans-Serif" font-size="10.00"> </text>
</g>
<!-- Node16&#45;&gt;Node5 -->
<g id="edge16" class="edge"><title>Node16&#45;&gt;Node5</title>
<path fill="none" stroke="#404040" d="M440.944,-1042.25C438.867,-1013.12 438.799,-966.563 454,-930 462.814,-908.8 477.916,-888.932 493.146,-872.52"/>
<polygon fill="none" stroke="#404040" points="493.252,-872.41 494.537,-865.315 501.581,-863.772 500.296,-870.867 493.252,-872.41"/>
<text text-anchor="middle" x="491.5" y="-944" font-family="Helvetica,sans-Serif" font-size="10.00"> &#45;m_isTravelling</text>
<text text-anchor="middle" x="491.5" y="-933" font-family="Helvetica,sans-Serif" font-size="10.00">&#45;m_is_participant</text>
</g>
<!-- Node17 -->
<g id="node17" class="node"><title>Node17</title>
<g id="a_node17"><a xlink:href="../../d9/df8/a00096.html" target="_top" xlink:title="Base class for all belief policies. ">
<polygon fill="white" stroke="black" points="480,-1031.5 480,-1110.5 566,-1110.5 566,-1031.5 480,-1031.5"/>
<text text-anchor="middle" x="523" y="-1098.5" font-family="Helvetica,sans-Serif" font-size="10.00">stride::Belief</text>
<polyline fill="none" stroke="black" points="480,-1091.5 566,-1091.5 "/>
<text text-anchor="middle" x="523" y="-1079.5" font-family="Helvetica,sans-Serif" font-size="10.00"> </text>
<polyline fill="none" stroke="black" points="480,-1072.5 566,-1072.5 "/>
<text text-anchor="start" x="488" y="-1060.5" font-family="Helvetica,sans-Serif" font-size="10.00">+ Belief()</text>
<text text-anchor="start" x="488" y="-1049.5" font-family="Helvetica,sans-Serif" font-size="10.00">+ ~Belief()</text>
<text text-anchor="start" x="488" y="-1038.5" font-family="Helvetica,sans-Serif" font-size="10.00">+ HasAdopted()</text>
</a>
</g>
</g>
<!-- Node17&#45;&gt;Node5 -->
<g id="edge17" class="edge"><title>Node17&#45;&gt;Node5</title>
<path fill="none" stroke="#404040" d="M526.053,-1031.28C528.343,-1002.22 531.581,-961.158 534.541,-923.612"/>
<polygon fill="none" stroke="#404040" points="534.548,-923.527 531.032,-917.232 535.491,-911.564 539.007,-917.86 534.548,-923.527"/>
<text text-anchor="middle" x="555.5" y="-938.5" font-family="Helvetica,sans-Serif" font-size="10.00"> &#45;m_belief</text>
</g>
<!-- Node18 -->
<g id="node18" class="node"><title>Node18</title>
<g id="a_node18"><a xlink:href="../../d8/d17/a00114.html" target="_top" xlink:title="Holds a person&#39;s health data. ">
<polygon fill="white" stroke="black" points="202.5,-971 202.5,-1171 345.5,-1171 345.5,-971 202.5,-971"/>
<text text-anchor="middle" x="274" y="-1159" font-family="Helvetica,sans-Serif" font-size="10.00">stride::Health</text>
<polyline fill="none" stroke="black" points="202.5,-1152 345.5,-1152 "/>
<text text-anchor="middle" x="274" y="-1140" font-family="Helvetica,sans-Serif" font-size="10.00"> </text>
<polyline fill="none" stroke="black" points="202.5,-1133 345.5,-1133 "/>
<text text-anchor="start" x="210.5" y="-1121" font-family="Helvetica,sans-Serif" font-size="10.00">+ Health()</text>
<text text-anchor="start" x="210.5" y="-1110" font-family="Helvetica,sans-Serif" font-size="10.00">+ GetEndInfectiousness()</text>
<text text-anchor="start" x="210.5" y="-1099" font-family="Helvetica,sans-Serif" font-size="10.00">+ GetEndSymptomatic()</text>
<text text-anchor="start" x="210.5" y="-1088" font-family="Helvetica,sans-Serif" font-size="10.00">+ GetStartInfectiousness()</text>
<text text-anchor="start" x="210.5" y="-1077" font-family="Helvetica,sans-Serif" font-size="10.00">+ GetStartSymptomatic()</text>
<text text-anchor="start" x="210.5" y="-1066" font-family="Helvetica,sans-Serif" font-size="10.00">+ IsImmune()</text>
<text text-anchor="start" x="210.5" y="-1055" font-family="Helvetica,sans-Serif" font-size="10.00">+ IsInfected()</text>
<text text-anchor="start" x="210.5" y="-1044" font-family="Helvetica,sans-Serif" font-size="10.00">+ IsInfectious()</text>
<text text-anchor="start" x="210.5" y="-1033" font-family="Helvetica,sans-Serif" font-size="10.00">+ IsRecovered()</text>
<text text-anchor="start" x="210.5" y="-1022" font-family="Helvetica,sans-Serif" font-size="10.00">+ IsSusceptible()</text>
<text text-anchor="start" x="210.5" y="-1011" font-family="Helvetica,sans-Serif" font-size="10.00">and 6 more...</text>
<text text-anchor="start" x="210.5" y="-1000" font-family="Helvetica,sans-Serif" font-size="10.00">&#45; GetDiseaseCounter()</text>
<text text-anchor="start" x="210.5" y="-989" font-family="Helvetica,sans-Serif" font-size="10.00">&#45; IncrementDiseaseCounter()</text>
<text text-anchor="start" x="210.5" y="-978" font-family="Helvetica,sans-Serif" font-size="10.00">&#45; ResetDiseaseCounter()</text>
</a>
</g>
</g>
<!-- Node18&#45;&gt;Node5 -->
<g id="edge18" class="edge"><title>Node18&#45;&gt;Node5</title>
<path fill="none" stroke="#404040" d="M316.472,-970.996C325.506,-956.19 336.007,-941.918 348,-930 388.375,-889.876 447.987,-862.111 490.462,-845.988"/>
<polygon fill="none" stroke="#404040" points="490.698,-845.901 494.944,-840.072 501.957,-841.749 497.712,-847.578 490.698,-845.901"/>
<text text-anchor="middle" x="371" y="-938.5" font-family="Helvetica,sans-Serif" font-size="10.00"> &#45;m_health</text>
</g>
<!-- Node19 -->
<g id="node19" class="node"><title>Node19</title>
<polygon fill="white" stroke="#bfbfbf" points="186,-1308.5 186,-1365.5 260,-1365.5 260,-1308.5 186,-1308.5"/>
<text text-anchor="middle" x="223" y="-1353.5" font-family="Helvetica,sans-Serif" font-size="10.00">HealthStatus</text>
<polyline fill="none" stroke="#bfbfbf" points="186,-1346.5 260,-1346.5 "/>
<text text-anchor="middle" x="223" y="-1334.5" font-family="Helvetica,sans-Serif" font-size="10.00"> </text>
<polyline fill="none" stroke="#bfbfbf" points="186,-1327.5 260,-1327.5 "/>
<text text-anchor="middle" x="223" y="-1315.5" font-family="Helvetica,sans-Serif" font-size="10.00"> </text>
</g>
<!-- Node19&#45;&gt;Node18 -->
<g id="edge19" class="edge"><title>Node19&#45;&gt;Node18</title>
<path fill="none" stroke="#404040" d="M228.362,-1308.25C234.125,-1278.41 243.658,-1229.06 252.525,-1183.16"/>
<polygon fill="none" stroke="#404040" points="252.547,-1183.05 249.757,-1176.4 254.823,-1171.27 257.612,-1177.92 252.547,-1183.05"/>
<text text-anchor="middle" x="274.5" y="-1215.5" font-family="Helvetica,sans-Serif" font-size="10.00"> &#45;m_status</text>
</g>
<!-- Node20 -->
<g id="node20" class="node"><title>Node20</title>
<polygon fill="white" stroke="#bfbfbf" points="278,-1308.5 278,-1365.5 372,-1365.5 372,-1308.5 278,-1308.5"/>
<text text-anchor="middle" x="325" y="-1353.5" font-family="Helvetica,sans-Serif" font-size="10.00">unsigned short int</text>
<polyline fill="none" stroke="#bfbfbf" points="278,-1346.5 372,-1346.5 "/>
<text text-anchor="middle" x="325" y="-1334.5" font-family="Helvetica,sans-Serif" font-size="10.00"> </text>
<polyline fill="none" stroke="#bfbfbf" points="278,-1327.5 372,-1327.5 "/>
<text text-anchor="middle" x="325" y="-1315.5" font-family="Helvetica,sans-Serif" font-size="10.00"> </text>
</g>
<!-- Node20&#45;&gt;Node18 -->
<g id="edge20" class="edge"><title>Node20&#45;&gt;Node18</title>
<path fill="none" stroke="#404040" d="M321.302,-1308.44C317.201,-1279.01 310.089,-1231.04 302,-1190 301.542,-1187.68 301.07,-1185.33 300.586,-1182.96"/>
<polygon fill="none" stroke="#404040" points="300.546,-1182.77 295.399,-1177.72 298.081,-1171.03 303.228,-1176.08 300.546,-1182.77"/>
<text text-anchor="middle" x="364.5" y="-1237.5" font-family="Helvetica,sans-Serif" font-size="10.00"> &#45;m_start_symptomatic</text>
<text text-anchor="middle" x="364.5" y="-1226.5" font-family="Helvetica,sans-Serif" font-size="10.00">&#45;m_disease_counter</text>
<text text-anchor="middle" x="364.5" y="-1215.5" font-family="Helvetica,sans-Serif" font-size="10.00">&#45;m_end_symptomatic</text>
<text text-anchor="middle" x="364.5" y="-1204.5" font-family="Helvetica,sans-Serif" font-size="10.00">&#45;m_end_infectiousness</text>
<text text-anchor="middle" x="364.5" y="-1193.5" font-family="Helvetica,sans-Serif" font-size="10.00">&#45;m_start_infectiousness</text>
</g>
<!-- Node21 -->
<g id="node21" class="node"><title>Node21</title>
<polygon fill="white" stroke="#bfbfbf" points="141.5,-1042.5 141.5,-1099.5 184.5,-1099.5 184.5,-1042.5 141.5,-1042.5"/>
<text text-anchor="middle" x="163" y="-1087.5" font-family="Helvetica,sans-Serif" font-size="10.00">size_t</text>
<polyline fill="none" stroke="#bfbfbf" points="141.5,-1080.5 184.5,-1080.5 "/>
<text text-anchor="middle" x="163" y="-1068.5" font-family="Helvetica,sans-Serif" font-size="10.00"> </text>
<polyline fill="none" stroke="#bfbfbf" points="141.5,-1061.5 184.5,-1061.5 "/>
<text text-anchor="middle" x="163" y="-1049.5" font-family="Helvetica,sans-Serif" font-size="10.00"> </text>
</g>
<!-- Node21&#45;&gt;Node3 -->
<g id="edge32" class="edge"><title>Node21&#45;&gt;Node3</title>
<path fill="none" stroke="#404040" d="M165.519,-1042.32C168.374,-1010.78 173.134,-957.688 177,-912 187.275,-790.586 198.4,-651.084 205.739,-557.835"/>
<polygon fill="none" stroke="#404040" points="205.741,-557.808 202.223,-551.513 206.681,-545.845 210.199,-552.141 205.741,-557.808"/>
<text text-anchor="middle" x="235" y="-717.5" font-family="Helvetica,sans-Serif" font-size="10.00"> &#45;m_pool_id</text>
<text text-anchor="middle" x="235" y="-706.5" font-family="Helvetica,sans-Serif" font-size="10.00">&#45;m_capacity</text>
<text text-anchor="middle" x="235" y="-695.5" font-family="Helvetica,sans-Serif" font-size="10.00">&#45;m_index_immune</text>
</g>
<!-- Node21&#45;&gt;Node5 -->
<g id="edge21" class="edge"><title>Node21&#45;&gt;Node5</title>
<path fill="none" stroke="#404040" d="M165.069,-1042.39C168.05,-1020.44 175.313,-990.169 193,-970 203.379,-958.165 395.903,-884.246 490.46,-848.422"/>
<polygon fill="none" stroke="#404040" points="490.537,-848.393 494.732,-842.528 501.76,-844.145 497.564,-850.01 490.537,-848.393"/>
<text text-anchor="middle" x="298" y="-938.5" font-family="Helvetica,sans-Serif" font-size="10.00"> &#45;m_region</text>
</g>
<!-- Node21&#45;&gt;Node24 -->
<g id="edge27" class="edge"><title>Node21&#45;&gt;Node24</title>
<path fill="none" stroke="#404040" d="M156.225,-1042.46C138.595,-970.785 91.0854,-777.637 68.3935,-685.385"/>
<polygon fill="none" stroke="#404040" points="68.3584,-685.242 63.041,-680.371 65.492,-673.589 70.8094,-678.46 68.3584,-685.242"/>
<text text-anchor="middle" x="148.5" y="-825.5" font-family="Helvetica,sans-Serif" font-size="10.00"> +elements</text>
</g>
<!-- Node22 -->
<g id="node22" class="node"><title>Node22</title>
<polygon fill="white" stroke="#bfbfbf" points="584.5,-1042.5 584.5,-1099.5 625.5,-1099.5 625.5,-1042.5 584.5,-1042.5"/>
<text text-anchor="middle" x="605" y="-1087.5" font-family="Helvetica,sans-Serif" font-size="10.00">friend</text>
<polyline fill="none" stroke="#bfbfbf" points="584.5,-1080.5 625.5,-1080.5 "/>
<text text-anchor="middle" x="605" y="-1068.5" font-family="Helvetica,sans-Serif" font-size="10.00"> </text>
<polyline fill="none" stroke="#bfbfbf" points="584.5,-1061.5 625.5,-1061.5 "/>
<text text-anchor="middle" x="605" y="-1049.5" font-family="Helvetica,sans-Serif" font-size="10.00"> </text>
</g>
<!-- Node22&#45;&gt;Node5 -->
<g id="edge22" class="edge"><title>Node22&#45;&gt;Node5</title>
<path fill="none" stroke="#404040" d="M601.899,-1042.28C598.328,-1013.78 591.557,-968.273 581,-930 580.372,-927.724 579.712,-925.428 579.024,-923.119"/>
<polygon fill="none" stroke="#404040" points="578.973,-922.956 573.359,-918.431 575.377,-911.508 580.991,-916.033 578.973,-922.956"/>
<text text-anchor="middle" x="621.5" y="-938.5" font-family="Helvetica,sans-Serif" font-size="10.00"> +TravellerIndex</text>
</g>
<!-- Node23&#45;&gt;Node2 -->
<g id="edge33" class="edge"><title>Node23&#45;&gt;Node2</title>
<path fill="none" stroke="orange" d="M834,-788.981C834,-686.259 834,-404.371 834,-307.336"/>
<polygon fill="orange" stroke="orange" points="830.5,-789.198 834,-799.198 837.5,-789.198 830.5,-789.198"/>
<text text-anchor="middle" x="890" y="-567.5" font-family="Helvetica,sans-Serif" font-size="10.00"> &lt; stride::ContactPool * &gt;</text>
</g>
<!-- Node23&#45;&gt;Node4 -->
<g id="edge23" class="edge"><title>Node23&#45;&gt;Node4</title>
<path fill="none" stroke="orange" d="M783.728,-793.945C729.419,-758.235 643.509,-701.746 590.072,-666.609"/>
<polygon fill="orange" stroke="orange" points="781.885,-796.921 792.164,-799.491 785.731,-791.073 781.885,-796.921"/>
<text text-anchor="middle" x="724.5" y="-706.5" font-family="Helvetica,sans-Serif" font-size="10.00"> &lt; stride::Person * &gt;</text>
</g>
<!-- Node24&#45;&gt;Node3 -->
<g id="edge25" class="edge"><title>Node24&#45;&gt;Node3</title>
<path fill="none" stroke="#404040" d="M67.2843,-594.414C71.3178,-584.01 76.5138,-573.12 83,-564 95.8034,-545.998 112.117,-529.064 128.852,-514.079"/>
<polygon fill="none" stroke="#404040" points="129.124,-513.843 131.021,-506.885 138.173,-505.961 136.275,-512.918 129.124,-513.843"/>
<text text-anchor="middle" x="107.5" y="-567.5" font-family="Helvetica,sans-Serif" font-size="10.00"> &#45;m_expats</text>
</g>
<!-- Node25&#45;&gt;Node24 -->
<g id="edge28" class="edge"><title>Node25&#45;&gt;Node24</title>
<path fill="none" stroke="orange" d="M311.327,-1541.21C210.872,-1523.04 23,-1471.24 23,-1338 23,-1338 23,-1338 23,-827 23,-773.223 35.73,-712.182 45.3769,-673.645"/>
<polygon fill="orange" stroke="orange" points="310.903,-1544.69 321.356,-1542.97 312.109,-1537.8 310.903,-1544.69"/>
<text text-anchor="start" x="23" y="-1074" font-family="Helvetica,sans-Serif" font-size="10.00"> &lt; const stride::Person</text>
<text text-anchor="middle" x="73" y="-1063" font-family="Helvetica,sans-Serif" font-size="10.00"> *, std::size_t &gt;</text>
</g>
<!-- Node26 -->
<g id="node26" class="node"><title>Node26</title>
<polygon fill="white" stroke="#bfbfbf" points="358.5,-1634.5 358.5,-1691.5 387.5,-1691.5 387.5,-1634.5 358.5,-1634.5"/>
<text text-anchor="middle" x="373" y="-1679.5" font-family="Helvetica,sans-Serif" font-size="10.00">K</text>
<polyline fill="none" stroke="#bfbfbf" points="358.5,-1672.5 387.5,-1672.5 "/>
<text text-anchor="middle" x="373" y="-1660.5" font-family="Helvetica,sans-Serif" font-size="10.00"> </text>
<polyline fill="none" stroke="#bfbfbf" points="358.5,-1653.5 387.5,-1653.5 "/>
<text text-anchor="middle" x="373" y="-1641.5" font-family="Helvetica,sans-Serif" font-size="10.00"> </text>
</g>
<!-- Node26&#45;&gt;Node25 -->
<g id="edge29" class="edge"><title>Node26&#45;&gt;Node25</title>
<path fill="none" stroke="#404040" d="M373,-1634.24C373,-1623.07 373,-1609.9 373,-1597.4"/>
<polygon fill="none" stroke="#404040" points="373,-1597.24 369,-1591.24 373,-1585.24 377,-1591.24 373,-1597.24"/>
<text text-anchor="middle" x="388.5" y="-1607.5" font-family="Helvetica,sans-Serif" font-size="10.00"> +keys</text>
</g>
<!-- Node27 -->
<g id="node27" class="node"><title>Node27</title>
<polygon fill="white" stroke="#bfbfbf" points="130.5,-605.5 130.5,-662.5 159.5,-662.5 159.5,-605.5 130.5,-605.5"/>
<text text-anchor="middle" x="145" y="-650.5" font-family="Helvetica,sans-Serif" font-size="10.00">Id</text>
<polyline fill="none" stroke="#bfbfbf" points="130.5,-643.5 159.5,-643.5 "/>
<text text-anchor="middle" x="145" y="-631.5" font-family="Helvetica,sans-Serif" font-size="10.00"> </text>
<polyline fill="none" stroke="#bfbfbf" points="130.5,-624.5 159.5,-624.5 "/>
<text text-anchor="middle" x="145" y="-612.5" font-family="Helvetica,sans-Serif" font-size="10.00"> </text>
</g>
<!-- Node27&#45;&gt;Node3 -->
<g id="edge31" class="edge"><title>Node27&#45;&gt;Node3</title>
<path fill="none" stroke="#404040" d="M137.267,-605.308C134.933,-592.504 133.933,-577.236 138,-564 138.741,-561.587 139.554,-559.179 140.432,-556.781"/>
<polygon fill="none" stroke="#404040" points="140.445,-556.747 139.008,-549.681 144.979,-545.637 146.416,-552.703 140.445,-556.747"/>
<text text-anchor="middle" x="169" y="-567.5" font-family="Helvetica,sans-Serif" font-size="10.00"> &#45;m_pool_type</text>
</g>
</g>
</svg>
