<?xml version="1.0" encoding="UTF-8" standalone="no"?>
<!DOCTYPE svg PUBLIC "-//W3C//DTD SVG 1.1//EN"
 "http://www.w3.org/Graphics/SVG/1.1/DTD/svg11.dtd">
<!-- Generated by graphviz version 2.36.0 (20140111.2315)
 -->
<!-- Title: DaysOffInterface.h Pages: 1 -->
<svg width="413pt" height="140pt"
 viewBox="0.00 0.00 413.00 140.00" xmlns="http://www.w3.org/2000/svg" xmlns:xlink="http://www.w3.org/1999/xlink">
<g id="graph0" class="graph" transform="scale(1 1) rotate(0) translate(4 136)">
<title>DaysOffInterface.h</title>
<polygon fill="white" stroke="none" points="-4,4 -4,-136 409,-136 409,4 -4,4"/>
<!-- Node1 -->
<g id="node1" class="node"><title>Node1</title>
<polygon fill="#bfbfbf" stroke="black" points="136,-112.5 136,-131.5 236,-131.5 236,-112.5 136,-112.5"/>
<text text-anchor="middle" x="186" y="-119.5" font-family="Helvetica,sans-Serif" font-size="10.00">DaysOffInterface.h</text>
</g>
<!-- Node2 -->
<g id="node2" class="node"><title>Node2</title>
<g id="a_node2"><a xlink:href="../../d4/d04/a00255.html" target="_top" xlink:title="DaysOffAll class: everybody gets the day off. ">
<polygon fill="white" stroke="black" points="-0.5,-56.5 -0.5,-75.5 72.5,-75.5 72.5,-56.5 -0.5,-56.5"/>
<text text-anchor="middle" x="36" y="-63.5" font-family="Helvetica,sans-Serif" font-size="10.00">DaysOffAll.h</text>
</a>
</g>
</g>
<!-- Node1&#45;&gt;Node2 -->
<g id="edge1" class="edge"><title>Node1&#45;&gt;Node2</title>
<path fill="none" stroke="midnightblue" d="M152.775,-109.039C124.552,-98.8786 84.7381,-84.5457 59.6567,-75.5164"/>
<polygon fill="midnightblue" stroke="midnightblue" points="151.638,-112.349 162.232,-112.444 154.009,-105.763 151.638,-112.349"/>
</g>
<!-- Node3 -->
<g id="node3" class="node"><title>Node3</title>
<g id="a_node3"><a xlink:href="../../d9/d39/a00257.html" target="_top" xlink:title="DaysOffNone class. ">
<polygon fill="white" stroke="black" points="90.5,-56.5 90.5,-75.5 175.5,-75.5 175.5,-56.5 90.5,-56.5"/>
<text text-anchor="middle" x="133" y="-63.5" font-family="Helvetica,sans-Serif" font-size="10.00">DaysOffNone.h</text>
</a>
</g>
</g>
<!-- Node1&#45;&gt;Node3 -->
<g id="edge2" class="edge"><title>Node1&#45;&gt;Node3</title>
<path fill="none" stroke="midnightblue" d="M170.019,-104.718C160.678,-95.1997 149.254,-83.5608 141.589,-75.7511"/>
<polygon fill="midnightblue" stroke="midnightblue" points="167.746,-107.398 177.248,-112.083 172.741,-102.494 167.746,-107.398"/>
</g>
<!-- Node4 -->
<g id="node4" class="node"><title>Node4</title>
<g id="a_node4"><a xlink:href="../../d7/d2f/a00258.html" target="_top" xlink:title="DaysOffAll class: everybody gets the day off. ">
<polygon fill="white" stroke="black" points="194,-56.5 194,-75.5 286,-75.5 286,-56.5 194,-56.5"/>
<text text-anchor="middle" x="240" y="-63.5" font-family="Helvetica,sans-Serif" font-size="10.00">DaysOffSchool.h</text>
</a>
</g>
</g>
<!-- Node1&#45;&gt;Node4 -->
<g id="edge3" class="edge"><title>Node1&#45;&gt;Node4</title>
<path fill="none" stroke="midnightblue" d="M201.998,-105.002C211.567,-95.4329 223.361,-83.6389 231.249,-75.7511"/>
<polygon fill="midnightblue" stroke="midnightblue" points="199.513,-102.537 194.917,-112.083 204.463,-107.487 199.513,-102.537"/>
</g>
<!-- Node5 -->
<g id="node5" class="node"><title>Node5</title>
<g id="a_node5"><a xlink:href="../../d0/d2f/a00259.html" target="_top" xlink:title="DaysOffStandard class. ">
<polygon fill="white" stroke="black" points="304.5,-56.5 304.5,-75.5 405.5,-75.5 405.5,-56.5 304.5,-56.5"/>
<text text-anchor="middle" x="355" y="-63.5" font-family="Helvetica,sans-Serif" font-size="10.00">DaysOffStandard.h</text>
</a>
</g>
</g>
<!-- Node1&#45;&gt;Node5 -->
<g id="edge4" class="edge"><title>Node1&#45;&gt;Node5</title>
<path fill="none" stroke="midnightblue" d="M222.603,-109.304C254.447,-99.1294 299.842,-84.6246 328.347,-75.5164"/>
<polygon fill="midnightblue" stroke="midnightblue" points="221.239,-106.066 212.779,-112.444 223.369,-112.734 221.239,-106.066"/>
</g>
<!-- Node6 -->
<g id="node6" class="node"><title>Node6</title>
<g id="a_node6"><a xlink:href="../../d9/de6/a00404.html" target="_top" xlink:title="Implementation for the Simulator class. ">
<polygon fill="white" stroke="black" points="328.5,-0.5 328.5,-19.5 381.5,-19.5 381.5,-0.5 328.5,-0.5"/>
<text text-anchor="middle" x="355" y="-7.5" font-family="Helvetica,sans-Serif" font-size="10.00">Sim.cpp</text>
</a>
</g>
</g>
<!-- Node5&#45;&gt;Node6 -->
<g id="edge5" class="edge"><title>Node5&#45;&gt;Node6</title>
<path fill="none" stroke="midnightblue" d="M355,-45.8045C355,-36.9102 355,-26.7798 355,-19.7511"/>
<polygon fill="midnightblue" stroke="midnightblue" points="351.5,-46.083 355,-56.083 358.5,-46.083 351.5,-46.083"/>
</g>
</g>
</svg>
