<?xml version="1.0" encoding="UTF-8" standalone="no"?>
<!DOCTYPE svg PUBLIC "-//W3C//DTD SVG 1.1//EN"
 "http://www.w3.org/Graphics/SVG/1.1/DTD/svg11.dtd">
<!-- Generated by graphviz version 2.36.0 (20140111.2315)
 -->
<!-- Title: DaysOffSchool.h Pages: 1 -->
<svg width="546pt" height="152pt"
 viewBox="0.00 0.00 546.00 152.00" xmlns="http://www.w3.org/2000/svg" xmlns:xlink="http://www.w3.org/1999/xlink">
<g id="graph0" class="graph" transform="scale(1 1) rotate(0) translate(4 148)">
<title>DaysOffSchool.h</title>
<polygon fill="white" stroke="none" points="-4,4 -4,-148 542,-148 542,4 -4,4"/>
<!-- Node1 -->
<g id="node1" class="node"><title>Node1</title>
<polygon fill="#bfbfbf" stroke="black" points="352,-124.5 352,-143.5 444,-143.5 444,-124.5 352,-124.5"/>
<text text-anchor="middle" x="398" y="-131.5" font-family="Helvetica,sans-Serif" font-size="10.00">DaysOffSchool.h</text>
</g>
<!-- Node2 -->
<g id="node2" class="node"><title>Node2</title>
<g id="a_node2"><a xlink:href="../../dd/de3/a00201.html" target="_top" xlink:title="Header file for the Calendar class. ">
<polygon fill="white" stroke="black" points="276,-68.5 276,-87.5 380,-87.5 380,-68.5 276,-68.5"/>
<text text-anchor="middle" x="328" y="-75.5" font-family="Helvetica,sans-Serif" font-size="10.00">calendar/Calendar.h</text>
</a>
</g>
</g>
<!-- Node1&#45;&gt;Node2 -->
<g id="edge1" class="edge"><title>Node1&#45;&gt;Node2</title>
<path fill="none" stroke="midnightblue" d="M386.753,-124.324C376.203,-116.185 360.199,-103.839 347.558,-94.0874"/>
<polygon fill="midnightblue" stroke="midnightblue" points="349.507,-91.1707 339.451,-87.8339 345.231,-96.7132 349.507,-91.1707"/>
</g>
<!-- Node9 -->
<g id="node9" class="node"><title>Node9</title>
<g id="a_node9"><a xlink:href="../../d4/d04/a00255.html" target="_top" xlink:title="Interface for DaysOff classes. ">
<polygon fill="white" stroke="black" points="398,-68.5 398,-87.5 538,-87.5 538,-68.5 398,-68.5"/>
<text text-anchor="middle" x="468" y="-75.5" font-family="Helvetica,sans-Serif" font-size="10.00">calendar/DaysOffInterface.h</text>
</a>
</g>
</g>
<!-- Node1&#45;&gt;Node9 -->
<g id="edge8" class="edge"><title>Node1&#45;&gt;Node9</title>
<path fill="none" stroke="midnightblue" d="M409.247,-124.324C419.797,-116.185 435.801,-103.839 448.442,-94.0874"/>
<polygon fill="midnightblue" stroke="midnightblue" points="450.769,-96.7132 456.549,-87.8339 446.493,-91.1707 450.769,-96.7132"/>
</g>
<!-- Node3 -->
<g id="node3" class="node"><title>Node3</title>
<polygon fill="white" stroke="#bfbfbf" points="-0.5,-1 -0.5,-31 128.5,-31 128.5,-1 -0.5,-1"/>
<text text-anchor="start" x="7.5" y="-19" font-family="Helvetica,sans-Serif" font-size="10.00">boost/date_time/gregorian</text>
<text text-anchor="middle" x="64" y="-8" font-family="Helvetica,sans-Serif" font-size="10.00">/gregorian.hpp</text>
</g>
<!-- Node2&#45;&gt;Node3 -->
<g id="edge2" class="edge"><title>Node2&#45;&gt;Node3</title>
<path fill="none" stroke="midnightblue" d="M290.456,-68.4672C250.285,-59.3375 185.605,-44.6375 135.635,-33.2807"/>
<polygon fill="midnightblue" stroke="midnightblue" points="136.376,-29.8599 125.849,-31.0565 134.824,-36.6858 136.376,-29.8599"/>
</g>
<!-- Node4 -->
<g id="node4" class="node"><title>Node4</title>
<polygon fill="white" stroke="#bfbfbf" points="146.5,-1 146.5,-31 247.5,-31 247.5,-1 146.5,-1"/>
<text text-anchor="start" x="154.5" y="-19" font-family="Helvetica,sans-Serif" font-size="10.00">boost/property_tree</text>
<text text-anchor="middle" x="197" y="-8" font-family="Helvetica,sans-Serif" font-size="10.00">/ptree.hpp</text>
</g>
<!-- Node2&#45;&gt;Node4 -->
<g id="edge3" class="edge"><title>Node2&#45;&gt;Node4</title>
<path fill="none" stroke="midnightblue" d="M309.231,-68.4035C290.431,-59.793 260.915,-46.2742 236.87,-35.2612"/>
<polygon fill="midnightblue" stroke="midnightblue" points="238.171,-32.0074 227.622,-31.0253 235.256,-38.3716 238.171,-32.0074"/>
</g>
<!-- Node5 -->
<g id="node5" class="node"><title>Node5</title>
<polygon fill="white" stroke="#bfbfbf" points="266,-6.5 266,-25.5 322,-25.5 322,-6.5 266,-6.5"/>
<text text-anchor="middle" x="294" y="-13.5" font-family="Helvetica,sans-Serif" font-size="10.00">algorithm</text>
</g>
<!-- Node2&#45;&gt;Node5 -->
<g id="edge4" class="edge"><title>Node2&#45;&gt;Node5</title>
<path fill="none" stroke="midnightblue" d="M323.129,-68.4035C318.13,-59.5816 310.211,-45.6075 303.891,-34.4548"/>
<polygon fill="midnightblue" stroke="midnightblue" points="306.838,-32.5553 298.862,-25.5806 300.747,-36.0064 306.838,-32.5553"/>
</g>
<!-- Node6 -->
<g id="node6" class="node"><title>Node6</title>
<polygon fill="white" stroke="#bfbfbf" points="340.5,-6.5 340.5,-25.5 385.5,-25.5 385.5,-6.5 340.5,-6.5"/>
<text text-anchor="middle" x="363" y="-13.5" font-family="Helvetica,sans-Serif" font-size="10.00">cstdlib</text>
</g>
<!-- Node2&#45;&gt;Node6 -->
<g id="edge5" class="edge"><title>Node2&#45;&gt;Node6</title>
<path fill="none" stroke="midnightblue" d="M333.015,-68.4035C338.161,-59.5816 346.312,-45.6075 352.818,-34.4548"/>
<polygon fill="midnightblue" stroke="midnightblue" points="355.979,-35.982 357.995,-25.5806 349.933,-32.4548 355.979,-35.982"/>
</g>
<!-- Node7 -->
<g id="node7" class="node"><title>Node7</title>
<polygon fill="white" stroke="#bfbfbf" points="404,-6.5 404,-25.5 456,-25.5 456,-6.5 404,-6.5"/>
<text text-anchor="middle" x="430" y="-13.5" font-family="Helvetica,sans-Serif" font-size="10.00">memory</text>
</g>
<!-- Node2&#45;&gt;Node7 -->
<g id="edge6" class="edge"><title>Node2&#45;&gt;Node7</title>
<path fill="none" stroke="midnightblue" d="M342.614,-68.4035C359.353,-58.5569 387.004,-42.2915 406.719,-30.6949"/>
<polygon fill="midnightblue" stroke="midnightblue" points="408.568,-33.6676 415.413,-25.5806 405.019,-27.6341 408.568,-33.6676"/>
</g>
<!-- Node8 -->
<g id="node8" class="node"><title>Node8</title>
<polygon fill="white" stroke="#bfbfbf" points="474,-6.5 474,-25.5 518,-25.5 518,-6.5 474,-6.5"/>
<text text-anchor="middle" x="496" y="-13.5" font-family="Helvetica,sans-Serif" font-size="10.00">vector</text>
</g>
<!-- Node2&#45;&gt;Node8 -->
<g id="edge7" class="edge"><title>Node2&#45;&gt;Node8</title>
<path fill="none" stroke="midnightblue" d="M357.806,-68.4628C385.838,-60.1411 428.79,-46.6315 465,-32 466.639,-31.3378 468.312,-30.6285 469.991,-29.8919"/>
<polygon fill="midnightblue" stroke="midnightblue" points="471.849,-32.8889 479.452,-25.5105 468.907,-26.537 471.849,-32.8889"/>
</g>
</g>
</svg>
