<?xml version="1.0" encoding="UTF-8" standalone="no"?>
<!DOCTYPE svg PUBLIC "-//W3C//DTD SVG 1.1//EN"
 "http://www.w3.org/Graphics/SVG/1.1/DTD/svg11.dtd">
<!-- Generated by graphviz version 2.36.0 (20140111.2315)
 -->
<!-- Title: CSV.h Pages: 1 -->
<svg width="1171pt" height="140pt"
 viewBox="0.00 0.00 1171.00 140.00" xmlns="http://www.w3.org/2000/svg" xmlns:xlink="http://www.w3.org/1999/xlink">
<g id="graph0" class="graph" transform="scale(1 1) rotate(0) translate(4 136)">
<title>CSV.h</title>
<polygon fill="white" stroke="none" points="-4,4 -4,-136 1167,-136 1167,4 -4,4"/>
<!-- Node1 -->
<g id="node1" class="node"><title>Node1</title>
<polygon fill="#bfbfbf" stroke="black" points="525,-112.5 525,-131.5 571,-131.5 571,-112.5 525,-112.5"/>
<text text-anchor="middle" x="548" y="-119.5" font-family="Helvetica,sans-Serif" font-size="10.00">CSV.h</text>
</g>
<!-- Node2 -->
<g id="node2" class="node"><title>Node2</title>
<g id="a_node2"><a xlink:href="../../de/dd2/a00207.html" target="_top" xlink:title="CitiesCSVReader.h">
<polygon fill="white" stroke="black" points="63.5,-56.5 63.5,-75.5 166.5,-75.5 166.5,-56.5 63.5,-56.5"/>
<text text-anchor="middle" x="115" y="-63.5" font-family="Helvetica,sans-Serif" font-size="10.00">CitiesCSVReader.h</text>
</a>
</g>
</g>
<!-- Node1&#45;&gt;Node2 -->
<g id="edge1" class="edge"><title>Node1&#45;&gt;Node2</title>
<path fill="none" stroke="midnightblue" d="M514.741,-117.313C449.507,-110.01 300.213,-92.9405 175,-76 172.286,-75.6328 169.505,-75.2474 166.697,-74.8512"/>
<polygon fill="midnightblue" stroke="midnightblue" points="514.509,-120.809 524.836,-118.441 515.286,-113.852 514.509,-120.809"/>
</g>
<!-- Node3 -->
<g id="node3" class="node"><title>Node3</title>
<g id="a_node3"><a xlink:href="../../d5/df1/a00206.html" target="_top" xlink:title="CitiesCSVReader.cpp">
<polygon fill="white" stroke="black" points="-0.5,-0.5 -0.5,-19.5 112.5,-19.5 112.5,-0.5 -0.5,-0.5"/>
<text text-anchor="middle" x="56" y="-7.5" font-family="Helvetica,sans-Serif" font-size="10.00">CitiesCSVReader.cpp</text>
</a>
</g>
</g>
<!-- Node1&#45;&gt;Node3 -->
<g id="edge4" class="edge"><title>Node1&#45;&gt;Node3</title>
<path fill="none" stroke="midnightblue" d="M514.839,-120.509C409.105,-118.602 85.0522,-110.009 54,-76 39.9929,-60.6589 47.1542,-33.7916 52.2904,-19.8921"/>
<polygon fill="midnightblue" stroke="midnightblue" points="514.881,-124.01 524.939,-120.682 515.001,-117.011 514.881,-124.01"/>
</g>
<!-- Node5 -->
<g id="node5" class="node"><title>Node5</title>
<g id="a_node5"><a xlink:href="../../dc/d98/a00225.html" target="_top" xlink:title="CommutesCSVReader.h">
<polygon fill="white" stroke="black" points="184.5,-56.5 184.5,-75.5 309.5,-75.5 309.5,-56.5 184.5,-56.5"/>
<text text-anchor="middle" x="247" y="-63.5" font-family="Helvetica,sans-Serif" font-size="10.00">CommutesCSVReader.h</text>
</a>
</g>
</g>
<!-- Node1&#45;&gt;Node5 -->
<g id="edge5" class="edge"><title>Node1&#45;&gt;Node5</title>
<path fill="none" stroke="midnightblue" d="M514.915,-115.064C461.468,-105.476 355.928,-86.5419 294.47,-75.5162"/>
<polygon fill="midnightblue" stroke="midnightblue" points="514.42,-118.531 524.881,-116.852 515.656,-111.641 514.42,-118.531"/>
</g>
<!-- Node6 -->
<g id="node6" class="node"><title>Node6</title>
<g id="a_node6"><a xlink:href="../../d5/ddf/a00224.html" target="_top" xlink:title="CommutesCSVReader.cpp">
<polygon fill="white" stroke="black" points="270,-0.5 270,-19.5 406,-19.5 406,-0.5 270,-0.5"/>
<text text-anchor="middle" x="338" y="-7.5" font-family="Helvetica,sans-Serif" font-size="10.00">CommutesCSVReader.cpp</text>
</a>
</g>
</g>
<!-- Node1&#45;&gt;Node6 -->
<g id="edge8" class="edge"><title>Node1&#45;&gt;Node6</title>
<path fill="none" stroke="midnightblue" d="M514.723,-117.207C466.227,-111.028 379.454,-97.2941 357,-76 341.133,-60.9522 338.293,-33.4577 337.926,-19.5467"/>
<polygon fill="midnightblue" stroke="midnightblue" points="514.386,-120.692 524.74,-118.446 515.245,-113.745 514.386,-120.692"/>
</g>
<!-- Node7 -->
<g id="node7" class="node"><title>Node7</title>
<g id="a_node7"><a xlink:href="../../de/dc2/a00228.html" target="_top" xlink:title="CommutesReader.cpp">
<polygon fill="white" stroke="black" points="576.5,-56.5 576.5,-75.5 691.5,-75.5 691.5,-56.5 576.5,-56.5"/>
<text text-anchor="middle" x="634" y="-63.5" font-family="Helvetica,sans-Serif" font-size="10.00">CommutesReader.cpp</text>
</a>
</g>
</g>
<!-- Node1&#45;&gt;Node7 -->
<g id="edge9" class="edge"><title>Node1&#45;&gt;Node7</title>
<path fill="none" stroke="midnightblue" d="M570.455,-106.901C586.224,-96.9986 606.814,-84.0705 620.217,-75.6545"/>
<polygon fill="midnightblue" stroke="midnightblue" points="568.425,-104.042 561.817,-112.324 572.148,-109.97 568.425,-104.042"/>
</g>
<!-- Node8 -->
<g id="node8" class="node"><title>Node8</title>
<g id="a_node8"><a xlink:href="../../d2/d71/a00309.html" target="_top" xlink:title="HouseholdCSVReader.cpp">
<polygon fill="white" stroke="black" points="710,-56.5 710,-75.5 844,-75.5 844,-56.5 710,-56.5"/>
<text text-anchor="middle" x="777" y="-63.5" font-family="Helvetica,sans-Serif" font-size="10.00">HouseholdCSVReader.cpp</text>
</a>
</g>
</g>
<!-- Node1&#45;&gt;Node8 -->
<g id="edge10" class="edge"><title>Node1&#45;&gt;Node8</title>
<path fill="none" stroke="midnightblue" d="M581.036,-113.21C623.407,-103.218 696.654,-85.9463 740.593,-75.5851"/>
<polygon fill="midnightblue" stroke="midnightblue" points="580.148,-109.823 571.218,-115.525 581.754,-116.636 580.148,-109.823"/>
</g>
<!-- Node9 -->
<g id="node9" class="node"><title>Node9</title>
<g id="a_node9"><a xlink:href="../../db/d4f/a00420.html" target="_top" xlink:title="SubMunicipalitiesCSVReader.h">
<polygon fill="white" stroke="black" points="366,-56.5 366,-75.5 520,-75.5 520,-56.5 366,-56.5"/>
<text text-anchor="middle" x="443" y="-63.5" font-family="Helvetica,sans-Serif" font-size="10.00">SubMunicipalitiesCSVReader.h</text>
</a>
</g>
</g>
<!-- Node1&#45;&gt;Node9 -->
<g id="edge11" class="edge"><title>Node1&#45;&gt;Node9</title>
<path fill="none" stroke="midnightblue" d="M522.19,-107.726C502.747,-97.7271 476.652,-84.3065 459.828,-75.6545"/>
<polygon fill="midnightblue" stroke="midnightblue" points="520.636,-110.863 531.13,-112.324 523.838,-104.638 520.636,-110.863"/>
</g>
<!-- Node10 -->
<g id="node10" class="node"><title>Node10</title>
<g id="a_node10"><a xlink:href="../../d3/d29/a00419.html" target="_top" xlink:title="SubMunicipalitiesCSVReader.cpp">
<polygon fill="white" stroke="black" points="445,-0.5 445,-19.5 609,-19.5 609,-0.5 445,-0.5"/>
<text text-anchor="middle" x="527" y="-7.5" font-family="Helvetica,sans-Serif" font-size="10.00">SubMunicipalitiesCSVReader.cpp</text>
</a>
</g>
</g>
<!-- Node1&#45;&gt;Node10 -->
<g id="edge14" class="edge"><title>Node1&#45;&gt;Node10</title>
<path fill="none" stroke="midnightblue" d="M544.439,-102.348C539.839,-78.2538 532.022,-37.3079 528.64,-19.5914"/>
<polygon fill="midnightblue" stroke="midnightblue" points="541.039,-103.202 546.352,-112.368 547.915,-101.89 541.039,-103.202"/>
</g>
<!-- Node11 -->
<g id="node11" class="node"><title>Node11</title>
<g id="a_node11"><a xlink:href="../../de/df8/a00440.html" target="_top" xlink:title="TravellerProfileBuilder.cpp">
<polygon fill="white" stroke="black" points="862.5,-56.5 862.5,-75.5 993.5,-75.5 993.5,-56.5 862.5,-56.5"/>
<text text-anchor="middle" x="928" y="-63.5" font-family="Helvetica,sans-Serif" font-size="10.00">TravellerProfileBuilder.cpp</text>
</a>
</g>
</g>
<!-- Node1&#45;&gt;Node11 -->
<g id="edge15" class="edge"><title>Node1&#45;&gt;Node11</title>
<path fill="none" stroke="midnightblue" d="M581.158,-116.288C645.257,-107.179 786.976,-87.0402 868.026,-75.5226"/>
<polygon fill="midnightblue" stroke="midnightblue" points="580.607,-112.831 571.199,-117.703 581.592,-119.762 580.607,-112.831"/>
</g>
<!-- Node12 -->
<g id="node12" class="node"><title>Node12</title>
<g id="a_node12"><a xlink:href="../../d3/d1a/a00251.html" target="_top" xlink:title="Source file of csv. ">
<polygon fill="white" stroke="black" points="1012,-56.5 1012,-75.5 1068,-75.5 1068,-56.5 1012,-56.5"/>
<text text-anchor="middle" x="1040" y="-63.5" font-family="Helvetica,sans-Serif" font-size="10.00">CSV.cpp</text>
</a>
</g>
</g>
<!-- Node1&#45;&gt;Node12 -->
<g id="edge16" class="edge"><title>Node1&#45;&gt;Node12</title>
<path fill="none" stroke="midnightblue" d="M581.603,-119.212C657.15,-114.855 846.008,-102.083 1002,-76 1005.21,-75.4633 1008.55,-74.8115 1011.86,-74.1065"/>
<polygon fill="midnightblue" stroke="midnightblue" points="581.082,-115.735 571.296,-119.794 581.477,-122.724 581.082,-115.735"/>
</g>
<!-- Node13 -->
<g id="node13" class="node"><title>Node13</title>
<g id="a_node13"><a xlink:href="../../d0/d3e/a00253.html" target="_top" xlink:title="Source file of CSVRow. ">
<polygon fill="white" stroke="black" points="1086.5,-56.5 1086.5,-75.5 1163.5,-75.5 1163.5,-56.5 1086.5,-56.5"/>
<text text-anchor="middle" x="1125" y="-63.5" font-family="Helvetica,sans-Serif" font-size="10.00">CSVRow.cpp</text>
</a>
</g>
</g>
<!-- Node1&#45;&gt;Node13 -->
<g id="edge17" class="edge"><title>Node1&#45;&gt;Node13</title>
<path fill="none" stroke="midnightblue" d="M581.412,-119.276C665.025,-114.719 889.937,-100.957 1076,-76 1079.34,-75.5516 1082.81,-75.0309 1086.27,-74.4704"/>
<polygon fill="midnightblue" stroke="midnightblue" points="581.045,-115.791 571.247,-119.823 581.421,-122.781 581.045,-115.791"/>
</g>
<!-- Node2&#45;&gt;Node3 -->
<g id="edge2" class="edge"><title>Node2&#45;&gt;Node3</title>
<path fill="none" stroke="midnightblue" d="M98.1055,-49.5372C87.5855,-39.9087 74.4313,-27.8694 65.6519,-19.8339"/>
<polygon fill="midnightblue" stroke="midnightblue" points="95.7808,-52.1542 105.521,-56.324 100.507,-46.9905 95.7808,-52.1542"/>
</g>
<!-- Node4 -->
<g id="node4" class="node"><title>Node4</title>
<g id="a_node4"><a xlink:href="../../db/d95/a00391.html" target="_top" xlink:title="ReaderFactory.cpp">
<polygon fill="white" stroke="black" points="152,-0.5 152,-19.5 252,-19.5 252,-0.5 152,-0.5"/>
<text text-anchor="middle" x="202" y="-7.5" font-family="Helvetica,sans-Serif" font-size="10.00">ReaderFactory.cpp</text>
</a>
</g>
</g>
<!-- Node2&#45;&gt;Node4 -->
<g id="edge3" class="edge"><title>Node2&#45;&gt;Node4</title>
<path fill="none" stroke="midnightblue" d="M137.716,-50.9005C153.669,-40.9986 174.497,-28.0705 188.057,-19.6545"/>
<polygon fill="midnightblue" stroke="midnightblue" points="135.629,-48.0765 128.978,-56.324 139.32,-54.024 135.629,-48.0765"/>
</g>
<!-- Node5&#45;&gt;Node4 -->
<g id="edge7" class="edge"><title>Node5&#45;&gt;Node4</title>
<path fill="none" stroke="midnightblue" d="M232.953,-48.144C225.113,-38.7357 215.671,-27.4046 209.293,-19.7511"/>
<polygon fill="midnightblue" stroke="midnightblue" points="230.479,-50.6414 239.569,-56.083 235.856,-46.1601 230.479,-50.6414"/>
</g>
<!-- Node5&#45;&gt;Node6 -->
<g id="edge6" class="edge"><title>Node5&#45;&gt;Node6</title>
<path fill="none" stroke="midnightblue" d="M270.294,-51.1774C287.039,-41.2407 309.1,-28.1492 323.416,-19.6545"/>
<polygon fill="midnightblue" stroke="midnightblue" points="268.434,-48.2108 261.621,-56.324 272.007,-54.2307 268.434,-48.2108"/>
</g>
<!-- Node9&#45;&gt;Node4 -->
<g id="edge12" class="edge"><title>Node9&#45;&gt;Node4</title>
<path fill="none" stroke="midnightblue" d="M394.877,-54.2172C349.338,-44.0134 281.89,-28.9006 240.009,-19.5164"/>
<polygon fill="midnightblue" stroke="midnightblue" points="394.29,-57.6723 404.813,-56.4435 395.82,-50.8417 394.29,-57.6723"/>
</g>
<!-- Node9&#45;&gt;Node10 -->
<g id="edge13" class="edge"><title>Node9&#45;&gt;Node10</title>
<path fill="none" stroke="midnightblue" d="M464.932,-50.9005C480.335,-40.9986 500.446,-28.0705 513.537,-19.6545"/>
<polygon fill="midnightblue" stroke="midnightblue" points="463.015,-47.9722 456.496,-56.324 466.801,-53.8605 463.015,-47.9722"/>
</g>
</g>
</svg>
