<?xml version="1.0" encoding="UTF-8" standalone="no"?>
<!DOCTYPE svg PUBLIC "-//W3C//DTD SVG 1.1//EN"
 "http://www.w3.org/Graphics/SVG/1.1/DTD/svg11.dtd">
<!-- Generated by graphviz version 2.36.0 (20140111.2315)
 -->
<!-- Title: gengeopop::GeoGridPopulator Pages: 1 -->
<svg width="778pt" height="690pt"
 viewBox="0.00 0.00 778.00 690.00" xmlns="http://www.w3.org/2000/svg" xmlns:xlink="http://www.w3.org/1999/xlink">
<g id="graph0" class="graph" transform="scale(1 1) rotate(0) translate(4 686)">
<title>gengeopop::GeoGridPopulator</title>
<polygon fill="white" stroke="none" points="-4,4 -4,-686 774,-686 774,4 -4,4"/>
<!-- Node1 -->
<g id="node1" class="node"><title>Node1</title>
<polygon fill="#bfbfbf" stroke="black" points="220.5,-1 220.5,-91 367.5,-91 367.5,-1 220.5,-1"/>
<text text-anchor="middle" x="294" y="-79" font-family="Helvetica,sans-Serif" font-size="10.00">gengeopop::GeoGridPopulator</text>
<polyline fill="none" stroke="black" points="220.5,-72 367.5,-72 "/>
<text text-anchor="middle" x="294" y="-60" font-family="Helvetica,sans-Serif" font-size="10.00"> </text>
<polyline fill="none" stroke="black" points="220.5,-53 367.5,-53 "/>
<text text-anchor="start" x="228.5" y="-41" font-family="Helvetica,sans-Serif" font-size="10.00">+ GeoGridPopulator()</text>
<text text-anchor="start" x="228.5" y="-30" font-family="Helvetica,sans-Serif" font-size="10.00">+ AddPartialPopulator()</text>
<text text-anchor="start" x="228.5" y="-19" font-family="Helvetica,sans-Serif" font-size="10.00">+ PopulateGeoGrid()</text>
<text text-anchor="start" x="228.5" y="-8" font-family="Helvetica,sans-Serif" font-size="10.00">+ GetGeoGrid()</text>
</g>
<!-- Node2 -->
<g id="node2" class="node"><title>Node2</title>
<polygon fill="white" stroke="#bfbfbf" points="0,-379 0,-447 182,-447 182,-379 0,-379"/>
<text text-anchor="start" x="8" y="-435" font-family="Helvetica,sans-Serif" font-size="10.00">std::vector&lt; std::shared</text>
<text text-anchor="middle" x="91" y="-424" font-family="Helvetica,sans-Serif" font-size="10.00">_ptr&lt; gengeopop::PartialPopulator &gt; &gt;</text>
<polyline fill="none" stroke="#bfbfbf" points="0,-417 182,-417 "/>
<text text-anchor="middle" x="91" y="-405" font-family="Helvetica,sans-Serif" font-size="10.00"> </text>
<polyline fill="none" stroke="#bfbfbf" points="0,-398 182,-398 "/>
<text text-anchor="middle" x="91" y="-386" font-family="Helvetica,sans-Serif" font-size="10.00"> </text>
</g>
<!-- Node2&#45;&gt;Node1 -->
<g id="edge1" class="edge"><title>Node2&#45;&gt;Node1</title>
<path fill="none" stroke="#404040" d="M85.243,-378.737C77.5837,-323.14 70.6938,-210.502 125,-140 146.386,-112.236 178.528,-91.6298 209.059,-76.9695"/>
<polygon fill="none" stroke="#404040" points="209.311,-76.8536 213.088,-70.7109 220.211,-71.8351 216.434,-77.9778 209.311,-76.8536"/>
<text text-anchor="middle" x="171.5" y="-172.5" font-family="Helvetica,sans-Serif" font-size="10.00"> &#45;m_partialPopulators</text>
</g>
<!-- Node3 -->
<g id="node3" class="node"><title>Node3</title>
<polygon fill="white" stroke="#bfbfbf" points="31.5,-507 31.5,-575 150.5,-575 150.5,-507 31.5,-507"/>
<text text-anchor="start" x="39.5" y="-563" font-family="Helvetica,sans-Serif" font-size="10.00">shared_ptr&lt; gengeopop</text>
<text text-anchor="middle" x="91" y="-552" font-family="Helvetica,sans-Serif" font-size="10.00">::PartialPopulator &gt;</text>
<polyline fill="none" stroke="#bfbfbf" points="31.5,-545 150.5,-545 "/>
<text text-anchor="middle" x="91" y="-533" font-family="Helvetica,sans-Serif" font-size="10.00"> </text>
<polyline fill="none" stroke="#bfbfbf" points="31.5,-526 150.5,-526 "/>
<text text-anchor="middle" x="91" y="-514" font-family="Helvetica,sans-Serif" font-size="10.00"> </text>
</g>
<!-- Node3&#45;&gt;Node2 -->
<g id="edge2" class="edge"><title>Node3&#45;&gt;Node2</title>
<path fill="none" stroke="#404040" d="M91,-506.895C91,-492.397 91,-475.148 91,-459.473"/>
<polygon fill="none" stroke="#404040" points="91.0001,-459.321 87,-453.321 91,-447.321 95,-453.321 91.0001,-459.321"/>
<text text-anchor="middle" x="115.5" y="-474.5" font-family="Helvetica,sans-Serif" font-size="10.00"> +elements</text>
</g>
<!-- Node4 -->
<g id="node4" class="node"><title>Node4</title>
<g id="a_node4"><a xlink:title="STL class. ">
<polygon fill="white" stroke="#bfbfbf" points="241.5,-512.5 241.5,-569.5 328.5,-569.5 328.5,-512.5 241.5,-512.5"/>
<text text-anchor="middle" x="285" y="-557.5" font-family="Helvetica,sans-Serif" font-size="10.00">std::vector&lt; T &gt;</text>
<polyline fill="none" stroke="#bfbfbf" points="241.5,-550.5 328.5,-550.5 "/>
<text text-anchor="middle" x="285" y="-538.5" font-family="Helvetica,sans-Serif" font-size="10.00"> </text>
<polyline fill="none" stroke="#bfbfbf" points="241.5,-531.5 328.5,-531.5 "/>
<text text-anchor="middle" x="285" y="-519.5" font-family="Helvetica,sans-Serif" font-size="10.00"> </text>
</a>
</g>
</g>
<!-- Node4&#45;&gt;Node2 -->
<g id="edge3" class="edge"><title>Node4&#45;&gt;Node2</title>
<path fill="none" stroke="orange" d="M232.23,-511.968C218.911,-504.494 204.771,-496.205 192,-488 172.432,-475.428 151.577,-460.437 133.929,-447.247"/>
<polygon fill="orange" stroke="orange" points="230.851,-515.206 241.292,-517.002 234.25,-509.087 230.851,-515.206"/>
<text text-anchor="start" x="192" y="-480" font-family="Helvetica,sans-Serif" font-size="10.00"> &lt; std::shared_ptr&lt;</text>
<text text-anchor="middle" x="264" y="-469" font-family="Helvetica,sans-Serif" font-size="10.00"> gengeopop::PartialPopulator &gt; &gt;</text>
</g>
<!-- Node10 -->
<g id="node10" class="node"><title>Node10</title>
<polygon fill="white" stroke="#bfbfbf" points="427,-379 427,-447 587,-447 587,-379 427,-379"/>
<text text-anchor="start" x="435" y="-435" font-family="Helvetica,sans-Serif" font-size="10.00">std::vector&lt; std::shared</text>
<text text-anchor="middle" x="507" y="-424" font-family="Helvetica,sans-Serif" font-size="10.00">_ptr&lt; gengeopop::Household &gt; &gt;</text>
<polyline fill="none" stroke="#bfbfbf" points="427,-417 587,-417 "/>
<text text-anchor="middle" x="507" y="-405" font-family="Helvetica,sans-Serif" font-size="10.00"> </text>
<polyline fill="none" stroke="#bfbfbf" points="427,-398 587,-398 "/>
<text text-anchor="middle" x="507" y="-386" font-family="Helvetica,sans-Serif" font-size="10.00"> </text>
</g>
<!-- Node4&#45;&gt;Node10 -->
<g id="edge11" class="edge"><title>Node4&#45;&gt;Node10</title>
<path fill="none" stroke="orange" d="M324.771,-505.96C341.715,-492.459 362.13,-477.455 382,-466 396.05,-457.9 411.608,-450.389 426.839,-443.737"/>
<polygon fill="orange" stroke="orange" points="322.326,-503.436 316.749,-512.445 326.726,-508.88 322.326,-503.436"/>
<text text-anchor="start" x="382" y="-480" font-family="Helvetica,sans-Serif" font-size="10.00"> &lt; std::shared_ptr&lt;</text>
<text text-anchor="middle" x="442.5" y="-469" font-family="Helvetica,sans-Serif" font-size="10.00"> gengeopop::Household &gt; &gt;</text>
</g>
<!-- Node5 -->
<g id="node5" class="node"><title>Node5</title>
<polygon fill="white" stroke="#bfbfbf" points="270.5,-624.5 270.5,-681.5 299.5,-681.5 299.5,-624.5 270.5,-624.5"/>
<text text-anchor="middle" x="285" y="-669.5" font-family="Helvetica,sans-Serif" font-size="10.00">T</text>
<polyline fill="none" stroke="#bfbfbf" points="270.5,-662.5 299.5,-662.5 "/>
<text text-anchor="middle" x="285" y="-650.5" font-family="Helvetica,sans-Serif" font-size="10.00"> </text>
<polyline fill="none" stroke="#bfbfbf" points="270.5,-643.5 299.5,-643.5 "/>
<text text-anchor="middle" x="285" y="-631.5" font-family="Helvetica,sans-Serif" font-size="10.00"> </text>
</g>
<!-- Node5&#45;&gt;Node4 -->
<g id="edge4" class="edge"><title>Node5&#45;&gt;Node4</title>
<path fill="none" stroke="#404040" d="M285,-624.242C285,-611.475 285,-596.088 285,-582.094"/>
<polygon fill="none" stroke="#404040" points="285,-581.749 281,-575.749 285,-569.749 289,-575.749 285,-581.749"/>
<text text-anchor="middle" x="309.5" y="-597.5" font-family="Helvetica,sans-Serif" font-size="10.00"> +elements</text>
</g>
<!-- Node6 -->
<g id="node6" class="node"><title>Node6</title>
<polygon fill="white" stroke="#bfbfbf" points="379.5,-141 379.5,-209 498.5,-209 498.5,-141 379.5,-141"/>
<text text-anchor="start" x="387.5" y="-197" font-family="Helvetica,sans-Serif" font-size="10.00">shared_ptr&lt; gengeopop</text>
<text text-anchor="middle" x="439" y="-186" font-family="Helvetica,sans-Serif" font-size="10.00">::GeoGrid &gt;</text>
<polyline fill="none" stroke="#bfbfbf" points="379.5,-179 498.5,-179 "/>
<text text-anchor="middle" x="439" y="-167" font-family="Helvetica,sans-Serif" font-size="10.00"> </text>
<polyline fill="none" stroke="#bfbfbf" points="379.5,-160 498.5,-160 "/>
<text text-anchor="middle" x="439" y="-148" font-family="Helvetica,sans-Serif" font-size="10.00"> </text>
</g>
<!-- Node6&#45;&gt;Node1 -->
<g id="edge5" class="edge"><title>Node6&#45;&gt;Node1</title>
<path fill="none" stroke="#404040" d="M410.749,-140.919C401.362,-130.607 390.594,-119.464 380,-110 375.738,-106.193 371.254,-102.388 366.662,-98.6395"/>
<polygon fill="none" stroke="#404040" points="366.511,-98.5187 359.325,-97.9099 357.124,-91.043 364.309,-91.6519 366.511,-98.5187"/>
<text text-anchor="middle" x="420" y="-113.5" font-family="Helvetica,sans-Serif" font-size="10.00"> &#45;m_geoGrid</text>
</g>
<!-- Node7 -->
<g id="node7" class="node"><title>Node7</title>
<g id="a_node7"><a xlink:href="../../db/df3/a00034.html" target="_top" xlink:title="Configuration data when generating a GeoGrid. ">
<polygon fill="white" stroke="black" points="227,-141 227,-209 361,-209 361,-141 227,-141"/>
<text text-anchor="middle" x="294" y="-197" font-family="Helvetica,sans-Serif" font-size="10.00">gengeopop::GeoGridConfig</text>
<polyline fill="none" stroke="black" points="227,-190 361,-190 "/>
<text text-anchor="middle" x="294" y="-178" font-family="Helvetica,sans-Serif" font-size="10.00"> </text>
<polyline fill="none" stroke="black" points="227,-171 361,-171 "/>
<text text-anchor="start" x="235" y="-159" font-family="Helvetica,sans-Serif" font-size="10.00">+ GeoGridConfig()</text>
<text text-anchor="start" x="235" y="-148" font-family="Helvetica,sans-Serif" font-size="10.00">+ Calculate()</text>
</a>
</g>
</g>
<!-- Node7&#45;&gt;Node1 -->
<g id="edge6" class="edge"><title>Node7&#45;&gt;Node1</title>
<path fill="none" stroke="#404040" d="M294,-140.964C294,-129.49 294,-116.278 294,-103.454"/>
<polygon fill="none" stroke="#404040" points="294,-103.347 290,-97.3474 294,-91.3474 298,-97.3474 294,-103.347"/>
<text text-anchor="middle" x="335" y="-113.5" font-family="Helvetica,sans-Serif" font-size="10.00"> &#45;m_geoGridConfig</text>
</g>
<!-- Node8 -->
<g id="node8" class="node"><title>Node8</title>
<g id="a_node8"><a xlink:href="../../db/d8e/a00482.html" target="_top" xlink:title="{double\n||}">
<polygon fill="white" stroke="black" points="605.5,-384.5 605.5,-441.5 650.5,-441.5 650.5,-384.5 605.5,-384.5"/>
<text text-anchor="middle" x="628" y="-429.5" font-family="Helvetica,sans-Serif" font-size="10.00">double</text>
<polyline fill="none" stroke="black" points="605.5,-422.5 650.5,-422.5 "/>
<text text-anchor="middle" x="628" y="-410.5" font-family="Helvetica,sans-Serif" font-size="10.00"> </text>
<polyline fill="none" stroke="black" points="605.5,-403.5 650.5,-403.5 "/>
<text text-anchor="middle" x="628" y="-391.5" font-family="Helvetica,sans-Serif" font-size="10.00"> </text>
</a>
</g>
</g>
<!-- Node8&#45;&gt;Node7 -->
<g id="edge7" class="edge"><title>Node8&#45;&gt;Node7</title>
<path fill="none" stroke="#404040" d="M634.095,-384.227C641.211,-343.537 647.178,-268.204 605,-228 587.673,-211.484 426.885,-215.505 373.204,-209.461"/>
<polygon fill="none" stroke="#404040" points="372.951,-209.419 366.38,-212.388 361.112,-207.463 367.683,-204.495 372.951,-209.419"/>
<text text-anchor="start" x="640" y="-352" font-family="Helvetica,sans-Serif" font-size="10.00"> +fraction_1826_years</text>
<text text-anchor="middle" x="705" y="-341" font-family="Helvetica,sans-Serif" font-size="10.00">_WhichAreStudents</text>
<text text-anchor="start" x="640" y="-330" font-family="Helvetica,sans-Serif" font-size="10.00">+fraction_1865_years</text>
<text text-anchor="middle" x="705" y="-319" font-family="Helvetica,sans-Serif" font-size="10.00">_active</text>
<text text-anchor="middle" x="705" y="-308" font-family="Helvetica,sans-Serif" font-size="10.00">+meanCommunitySize</text>
<text text-anchor="middle" x="705" y="-297" font-family="Helvetica,sans-Serif" font-size="10.00">+meanCollegeSize</text>
<text text-anchor="start" x="640" y="-286" font-family="Helvetica,sans-Serif" font-size="10.00">+fraction_student_commuting</text>
<text text-anchor="middle" x="705" y="-275" font-family="Helvetica,sans-Serif" font-size="10.00">People</text>
<text text-anchor="start" x="640" y="-264" font-family="Helvetica,sans-Serif" font-size="10.00">+fraction_active_commuting</text>
<text text-anchor="middle" x="705" y="-253" font-family="Helvetica,sans-Serif" font-size="10.00">People</text>
<text text-anchor="middle" x="705" y="-242" font-family="Helvetica,sans-Serif" font-size="10.00">+meanK12SchoolSize</text>
<text text-anchor="middle" x="705" y="-231" font-family="Helvetica,sans-Serif" font-size="10.00">+meanWorkplaceSchoolSize</text>
</g>
<!-- Node9 -->
<g id="node9" class="node"><title>Node9</title>
<polygon fill="white" stroke="#bfbfbf" points="234.5,-384 234.5,-442 263.5,-442 263.5,-384 234.5,-384"/>
<polyline fill="none" stroke="#bfbfbf" points="234.5,-422 263.5,-422 "/>
<text text-anchor="middle" x="249" y="-410" font-family="Helvetica,sans-Serif" font-size="10.00"> </text>
<polyline fill="none" stroke="#bfbfbf" points="234.5,-403 263.5,-403 "/>
<text text-anchor="middle" x="249" y="-391" font-family="Helvetica,sans-Serif" font-size="10.00"> </text>
</g>
<!-- Node9&#45;&gt;Node7 -->
<g id="edge8" class="edge"><title>Node9&#45;&gt;Node7</title>
<path fill="none" stroke="#404040" d="M234.339,-401.834C222.958,-394.339 206.55,-384.378 191,-378 160.881,-365.646 139.992,-385.692 120,-360 101.986,-336.849 102.336,-251.418 120,-228 137.536,-204.752 155.077,-218.265 183,-210 193.431,-206.912 204.399,-203.615 215.212,-200.335"/>
<polygon fill="none" stroke="#404040" points="215.372,-200.286 219.948,-194.712 226.852,-196.791 222.277,-202.365 215.372,-200.286"/>
<text text-anchor="middle" x="135.5" y="-291.5" font-family="Helvetica,sans-Serif" font-size="10.00"> +input</text>
</g>
<!-- Node9&#45;&gt;Node7 -->
<g id="edge12" class="edge"><title>Node9&#45;&gt;Node7</title>
<path fill="none" stroke="#404040" d="M234.177,-403.939C214.245,-392.753 180.54,-372.493 174,-360 146.79,-308.025 141.803,-277.042 174,-228 183.871,-212.964 199.124,-202.254 215.483,-194.633"/>
<polygon fill="none" stroke="#404040" points="215.865,-194.473 219.853,-188.465 226.932,-189.835 222.945,-195.843 215.865,-194.473"/>
<text text-anchor="middle" x="201" y="-291.5" font-family="Helvetica,sans-Serif" font-size="10.00"> +calculated</text>
</g>
<!-- Node9&#45;&gt;Node7 -->
<g id="edge13" class="edge"><title>Node9&#45;&gt;Node7</title>
<path fill="none" stroke="#404040" d="M243.652,-383.845C237.869,-346.824 231.837,-280.349 251,-228 252.057,-225.112 253.349,-222.27 254.818,-219.494"/>
<polygon fill="none" stroke="#404040" points="254.901,-219.359 254.666,-212.152 261.228,-209.162 261.464,-216.37 254.901,-219.359"/>
<text text-anchor="middle" x="277" y="-291.5" font-family="Helvetica,sans-Serif" font-size="10.00"> +generated</text>
</g>
<!-- Node9&#45;&gt;Node7 -->
<g id="edge14" class="edge"><title>Node9&#45;&gt;Node7</title>
<path fill="none" stroke="#404040" d="M263.644,-402.948C276.74,-393.906 295.054,-378.684 303,-360 321.919,-315.517 315.361,-259.422 306.815,-220.932"/>
<polygon fill="none" stroke="#404040" points="306.776,-220.766 301.496,-215.854 304,-209.091 309.28,-214.003 306.776,-220.766"/>
<text text-anchor="middle" x="342" y="-291.5" font-family="Helvetica,sans-Serif" font-size="10.00"> +constants</text>
</g>
<!-- Node10&#45;&gt;Node7 -->
<g id="edge9" class="edge"><title>Node10&#45;&gt;Node7</title>
<path fill="none" stroke="#404040" d="M513.801,-378.793C520.12,-337.603 523.524,-267.947 485,-228 468.938,-211.345 409.436,-215.962 373.006,-209.838"/>
<polygon fill="none" stroke="#404040" points="372.898,-209.814 366.164,-212.395 361.192,-207.172 367.925,-204.591 372.898,-209.814"/>
<text text-anchor="middle" x="559.5" y="-291.5" font-family="Helvetica,sans-Serif" font-size="10.00"> +household_types</text>
</g>
<!-- Node11 -->
<g id="node11" class="node"><title>Node11</title>
<polygon fill="white" stroke="#bfbfbf" points="447.5,-507 447.5,-575 566.5,-575 566.5,-507 447.5,-507"/>
<text text-anchor="start" x="455.5" y="-563" font-family="Helvetica,sans-Serif" font-size="10.00">shared_ptr&lt; gengeopop</text>
<text text-anchor="middle" x="507" y="-552" font-family="Helvetica,sans-Serif" font-size="10.00">::Household &gt;</text>
<polyline fill="none" stroke="#bfbfbf" points="447.5,-545 566.5,-545 "/>
<text text-anchor="middle" x="507" y="-533" font-family="Helvetica,sans-Serif" font-size="10.00"> </text>
<polyline fill="none" stroke="#bfbfbf" points="447.5,-526 566.5,-526 "/>
<text text-anchor="middle" x="507" y="-514" font-family="Helvetica,sans-Serif" font-size="10.00"> </text>
</g>
<!-- Node11&#45;&gt;Node10 -->
<g id="edge10" class="edge"><title>Node11&#45;&gt;Node10</title>
<path fill="none" stroke="#404040" d="M507,-506.895C507,-492.397 507,-475.148 507,-459.473"/>
<polygon fill="none" stroke="#404040" points="507,-459.321 503,-453.321 507,-447.321 511,-453.321 507,-459.321"/>
<text text-anchor="middle" x="531.5" y="-474.5" font-family="Helvetica,sans-Serif" font-size="10.00"> +elements</text>
</g>
<!-- Node12 -->
<g id="node12" class="node"><title>Node12</title>
<polygon fill="white" stroke="#bfbfbf" points="379.5,-384.5 379.5,-441.5 408.5,-441.5 408.5,-384.5 379.5,-384.5"/>
<text text-anchor="middle" x="394" y="-429.5" font-family="Helvetica,sans-Serif" font-size="10.00">int</text>
<polyline fill="none" stroke="#bfbfbf" points="379.5,-422.5 408.5,-422.5 "/>
<text text-anchor="middle" x="394" y="-410.5" font-family="Helvetica,sans-Serif" font-size="10.00"> </text>
<polyline fill="none" stroke="#bfbfbf" points="379.5,-403.5 408.5,-403.5 "/>
<text text-anchor="middle" x="394" y="-391.5" font-family="Helvetica,sans-Serif" font-size="10.00"> </text>
</g>
<!-- Node12&#45;&gt;Node7 -->
<g id="edge15" class="edge"><title>Node12&#45;&gt;Node7</title>
<path fill="none" stroke="#404040" d="M397.495,-384.432C400.909,-346.298 401.892,-276.657 372,-228 369.76,-224.353 367.157,-220.907 364.289,-217.659"/>
<polygon fill="none" stroke="#404040" points="364.106,-217.478 357.03,-216.091 355.588,-209.026 362.665,-210.412 364.106,-217.478"/>
<text text-anchor="middle" x="442" y="-346.5" font-family="Helvetica,sans-Serif" font-size="10.00"> +contactCenters</text>
<text text-anchor="middle" x="442" y="-335.5" font-family="Helvetica,sans-Serif" font-size="10.00">+contactPools</text>
<text text-anchor="start" x="400" y="-324.5" font-family="Helvetica,sans-Serif" font-size="10.00">+_1865_and_years</text>
<text text-anchor="middle" x="442" y="-313.5" font-family="Helvetica,sans-Serif" font-size="10.00">_active</text>
<text text-anchor="start" x="400" y="-302.5" font-family="Helvetica,sans-Serif" font-size="10.00">+_1826_years_and</text>
<text text-anchor="middle" x="442" y="-291.5" font-family="Helvetica,sans-Serif" font-size="10.00">_student</text>
<text text-anchor="middle" x="442" y="-280.5" font-family="Helvetica,sans-Serif" font-size="10.00">+households</text>
<text text-anchor="middle" x="442" y="-269.5" font-family="Helvetica,sans-Serif" font-size="10.00">+_1865_years</text>
<text text-anchor="middle" x="442" y="-258.5" font-family="Helvetica,sans-Serif" font-size="10.00">+_1826_years</text>
<text text-anchor="middle" x="442" y="-247.5" font-family="Helvetica,sans-Serif" font-size="10.00">+compulsoryPupils</text>
<text text-anchor="middle" x="442" y="-236.5" font-family="Helvetica,sans-Serif" font-size="10.00">+populationSize</text>
</g>
</g>
</svg>
