<?xml version="1.0" encoding="UTF-8" standalone="no"?>
<!DOCTYPE svg PUBLIC "-//W3C//DTD SVG 1.1//EN"
 "http://www.w3.org/Graphics/SVG/1.1/DTD/svg11.dtd">
<!-- Generated by graphviz version 2.36.0 (20140111.2315)
 -->
<!-- Title: pchheader.h Pages: 1 -->
<svg width="994pt" height="208pt"
 viewBox="0.00 0.00 994.00 208.00" xmlns="http://www.w3.org/2000/svg" xmlns:xlink="http://www.w3.org/1999/xlink">
<g id="graph0" class="graph" transform="scale(1 1) rotate(0) translate(4 204)">
<title>pchheader.h</title>
<polygon fill="white" stroke="none" points="-4,4 -4,-204 990,-204 990,4 -4,4"/>
<!-- Node1 -->
<g id="node1" class="node"><title>Node1</title>
<polygon fill="#bfbfbf" stroke="black" points="322,-180.5 322,-199.5 392,-199.5 392,-180.5 322,-180.5"/>
<text text-anchor="middle" x="357" y="-187.5" font-family="Helvetica,sans-Serif" font-size="10.00">pchheader.h</text>
</g>
<!-- Node2 -->
<g id="node2" class="node"><title>Node2</title>
<g id="a_node2"><a xlink:href="../../d1/da8/a00230.html" target="_top" xlink:title="util/ConcatednatedIterators.h">
<polygon fill="white" stroke="black" points="285.5,-118.5 285.5,-137.5 428.5,-137.5 428.5,-118.5 285.5,-118.5"/>
<text text-anchor="middle" x="357" y="-125.5" font-family="Helvetica,sans-Serif" font-size="10.00">util/ConcatednatedIterators.h</text>
</a>
</g>
</g>
<!-- Node1&#45;&gt;Node2 -->
<g id="edge1" class="edge"><title>Node1&#45;&gt;Node2</title>
<path fill="none" stroke="midnightblue" d="M352.099,-180.403C350.268,-171.938 349.797,-158.728 350.685,-147.82"/>
<polygon fill="midnightblue" stroke="midnightblue" points="354.198,-147.966 352.103,-137.581 347.264,-147.006 354.198,-147.966"/>
</g>
<!-- Node4 -->
<g id="node4" class="node"><title>Node4</title>
<g id="a_node4"><a xlink:href="../../df/d91/a00335.html" target="_top" xlink:title="util/IteratorPair.h">
<polygon fill="white" stroke="black" points="178.5,-118.5 178.5,-137.5 267.5,-137.5 267.5,-118.5 178.5,-118.5"/>
<text text-anchor="middle" x="223" y="-125.5" font-family="Helvetica,sans-Serif" font-size="10.00">util/IteratorPair.h</text>
</a>
</g>
</g>
<!-- Node1&#45;&gt;Node4 -->
<g id="edge4" class="edge"><title>Node1&#45;&gt;Node4</title>
<path fill="none" stroke="midnightblue" d="M337.801,-180.403C315.213,-170.29 277.501,-153.404 251.499,-141.761"/>
<polygon fill="midnightblue" stroke="midnightblue" points="252.721,-138.473 242.163,-137.581 249.86,-144.862 252.721,-138.473"/>
</g>
<!-- Node5 -->
<g id="node5" class="node"><title>Node5</title>
<g id="a_node5"><a xlink:href="../../dd/db5/a00365.html" target="_top" xlink:title="Interface/Implementation for NestedIterator. ">
<polygon fill="white" stroke="black" points="446.5,-118.5 446.5,-137.5 549.5,-137.5 549.5,-118.5 446.5,-118.5"/>
<text text-anchor="middle" x="498" y="-125.5" font-family="Helvetica,sans-Serif" font-size="10.00">util/NestedIterator.h</text>
</a>
</g>
</g>
<!-- Node1&#45;&gt;Node5 -->
<g id="edge5" class="edge"><title>Node1&#45;&gt;Node5</title>
<path fill="none" stroke="midnightblue" d="M377.202,-180.403C401.074,-170.245 441.002,-153.255 468.373,-141.607"/>
<polygon fill="midnightblue" stroke="midnightblue" points="470.005,-144.717 477.836,-137.581 467.264,-138.276 470.005,-144.717"/>
</g>
<!-- Node12 -->
<g id="node12" class="node"><title>Node12</title>
<g id="a_node12"><a xlink:href="../../d5/db5/a00374.html" target="_top" xlink:title="util/PartitionedSegmented\lVector.h">
<polygon fill="white" stroke="black" points="32,-113 32,-143 160,-143 160,-113 32,-113"/>
<text text-anchor="start" x="40" y="-131" font-family="Helvetica,sans-Serif" font-size="10.00">util/PartitionedSegmented</text>
<text text-anchor="middle" x="96" y="-120" font-family="Helvetica,sans-Serif" font-size="10.00">Vector.h</text>
</a>
</g>
</g>
<!-- Node1&#45;&gt;Node12 -->
<g id="edge13" class="edge"><title>Node1&#45;&gt;Node12</title>
<path fill="none" stroke="midnightblue" d="M321.753,-181.941C280.627,-173.011 212,-157.353 161.143,-145.375"/>
<polygon fill="midnightblue" stroke="midnightblue" points="161.758,-141.924 151.222,-143.032 160.149,-148.737 161.758,-141.924"/>
</g>
<!-- Node17 -->
<g id="node17" class="node"><title>Node17</title>
<g id="a_node17"><a xlink:href="../../d4/d53/a00429.html" target="_top" xlink:title="Interface/Implementation for SVIterator. ">
<polygon fill="white" stroke="black" points="829.5,-56.5 829.5,-75.5 914.5,-75.5 914.5,-56.5 829.5,-56.5"/>
<text text-anchor="middle" x="872" y="-63.5" font-family="Helvetica,sans-Serif" font-size="10.00">util/SVIterator.h</text>
</a>
</g>
</g>
<!-- Node1&#45;&gt;Node17 -->
<g id="edge20" class="edge"><title>Node1&#45;&gt;Node17</title>
<path fill="none" stroke="midnightblue" d="M392.049,-188.498C457.358,-186.719 601.512,-178.804 717,-144 767.102,-128.901 820.769,-98.7107 849.964,-80.9495"/>
<polygon fill="midnightblue" stroke="midnightblue" points="851.874,-83.8836 858.547,-75.6544 848.198,-77.926 851.874,-83.8836"/>
</g>
<!-- Node19 -->
<g id="node19" class="node"><title>Node19</title>
<g id="a_node19"><a xlink:href="../../d0/da0/a00403.html" target="_top" xlink:title="Interface and implementation for SegmentedVector class. ">
<polygon fill="white" stroke="black" points="589.5,-118.5 589.5,-137.5 708.5,-137.5 708.5,-118.5 589.5,-118.5"/>
<text text-anchor="middle" x="649" y="-125.5" font-family="Helvetica,sans-Serif" font-size="10.00">util/SegmentedVector.h</text>
</a>
</g>
</g>
<!-- Node1&#45;&gt;Node19 -->
<g id="edge25" class="edge"><title>Node1&#45;&gt;Node19</title>
<path fill="none" stroke="midnightblue" d="M392.222,-181.763C443.412,-171.244 538.679,-151.669 597.678,-139.546"/>
<polygon fill="midnightblue" stroke="midnightblue" points="598.447,-142.961 607.538,-137.52 597.038,-136.104 598.447,-142.961"/>
</g>
<!-- Node22 -->
<g id="node22" class="node"><title>Node22</title>
<g id="a_node22"><a xlink:href="../../db/ddc/a00353.html" target="_top" xlink:title="util/lower_bound.h">
<polygon fill="white" stroke="black" points="891.5,-118.5 891.5,-137.5 986.5,-137.5 986.5,-118.5 891.5,-118.5"/>
<text text-anchor="middle" x="939" y="-125.5" font-family="Helvetica,sans-Serif" font-size="10.00">util/lower_bound.h</text>
</a>
</g>
</g>
<!-- Node1&#45;&gt;Node22 -->
<g id="edge36" class="edge"><title>Node1&#45;&gt;Node22</title>
<path fill="none" stroke="midnightblue" d="M392.096,-185.382C489.049,-175.387 761.286,-147.321 881.13,-134.966"/>
<polygon fill="midnightblue" stroke="midnightblue" points="881.624,-138.434 891.212,-133.927 880.906,-131.471 881.624,-138.434"/>
</g>
<!-- Node2&#45;&gt;Node1 -->
<g id="edge2" class="edge"><title>Node2&#45;&gt;Node1</title>
<path fill="none" stroke="midnightblue" d="M361.897,-137.581C363.73,-146.04 364.203,-159.248 363.317,-170.16"/>
<polygon fill="midnightblue" stroke="midnightblue" points="359.803,-170.018 361.901,-180.403 366.737,-170.977 359.803,-170.018"/>
</g>
<!-- Node3 -->
<g id="node3" class="node"><title>Node3</title>
<polygon fill="white" stroke="#bfbfbf" points="227,-56.5 227,-75.5 271,-75.5 271,-56.5 227,-56.5"/>
<text text-anchor="middle" x="249" y="-63.5" font-family="Helvetica,sans-Serif" font-size="10.00">vector</text>
</g>
<!-- Node2&#45;&gt;Node3 -->
<g id="edge3" class="edge"><title>Node2&#45;&gt;Node3</title>
<path fill="none" stroke="midnightblue" d="M341.526,-118.403C323.722,-108.512 294.259,-92.1442 273.368,-80.5378"/>
<polygon fill="midnightblue" stroke="midnightblue" points="274.886,-77.3775 264.445,-75.5806 271.487,-83.4966 274.886,-77.3775"/>
</g>
<!-- Node5&#45;&gt;Node3 -->
<g id="edge12" class="edge"><title>Node5&#45;&gt;Node3</title>
<path fill="none" stroke="midnightblue" d="M463.494,-118.46C454.847,-116.335 445.587,-114.073 437,-112 369.514,-95.711 352.455,-92.4193 285,-76 283.732,-75.6915 282.44,-75.3754 281.135,-75.055"/>
<polygon fill="midnightblue" stroke="midnightblue" points="281.622,-71.57 271.074,-72.5645 279.94,-78.3649 281.622,-71.57"/>
</g>
<!-- Node6 -->
<g id="node6" class="node"><title>Node6</title>
<polygon fill="white" stroke="#bfbfbf" points="606.5,-0.5 606.5,-19.5 655.5,-19.5 655.5,-0.5 606.5,-0.5"/>
<text text-anchor="middle" x="631" y="-7.5" font-family="Helvetica,sans-Serif" font-size="10.00">cassert</text>
</g>
<!-- Node5&#45;&gt;Node6 -->
<g id="edge6" class="edge"><title>Node5&#45;&gt;Node6</title>
<path fill="none" stroke="midnightblue" d="M463.948,-118.476C413.028,-105.57 322.493,-81.9429 318,-76 312.639,-68.9095 312.179,-62.7178 318,-56 353.637,-14.8733 521.79,-10.4575 595.842,-10.5581"/>
<polygon fill="midnightblue" stroke="midnightblue" points="596.043,-14.0589 606.058,-10.6019 596.073,-7.059 596.043,-14.0589"/>
</g>
<!-- Node7 -->
<g id="node7" class="node"><title>Node7</title>
<polygon fill="white" stroke="#bfbfbf" points="327.5,-56.5 327.5,-75.5 376.5,-75.5 376.5,-56.5 327.5,-56.5"/>
<text text-anchor="middle" x="352" y="-63.5" font-family="Helvetica,sans-Serif" font-size="10.00">cstddef</text>
</g>
<!-- Node5&#45;&gt;Node7 -->
<g id="edge7" class="edge"><title>Node5&#45;&gt;Node7</title>
<path fill="none" stroke="midnightblue" d="M477.082,-118.403C452.254,-108.2 410.657,-91.1055 382.306,-79.4544"/>
<polygon fill="midnightblue" stroke="midnightblue" points="383.459,-76.1445 372.879,-75.5806 380.798,-82.6191 383.459,-76.1445"/>
</g>
<!-- Node8 -->
<g id="node8" class="node"><title>Node8</title>
<polygon fill="white" stroke="#bfbfbf" points="471,-56.5 471,-75.5 525,-75.5 525,-56.5 471,-56.5"/>
<text text-anchor="middle" x="498" y="-63.5" font-family="Helvetica,sans-Serif" font-size="10.00">iostream</text>
</g>
<!-- Node5&#45;&gt;Node8 -->
<g id="edge8" class="edge"><title>Node5&#45;&gt;Node8</title>
<path fill="none" stroke="midnightblue" d="M498,-118.403C498,-109.938 498,-96.7283 498,-85.8199"/>
<polygon fill="midnightblue" stroke="midnightblue" points="501.5,-85.5806 498,-75.5806 494.5,-85.5806 501.5,-85.5806"/>
</g>
<!-- Node9 -->
<g id="node9" class="node"><title>Node9</title>
<polygon fill="white" stroke="#bfbfbf" points="915.5,-0.5 915.5,-19.5 962.5,-19.5 962.5,-0.5 915.5,-0.5"/>
<text text-anchor="middle" x="939" y="-7.5" font-family="Helvetica,sans-Serif" font-size="10.00">iterator</text>
</g>
<!-- Node5&#45;&gt;Node9 -->
<g id="edge9" class="edge"><title>Node5&#45;&gt;Node9</title>
<path fill="none" stroke="midnightblue" d="M487.747,-118.449C471.768,-104.129 444.486,-75.005 462,-56 495.241,-19.9283 853.575,-27.8209 902,-20 903.077,-19.8261 904.169,-19.6372 905.269,-19.436"/>
<polygon fill="midnightblue" stroke="midnightblue" points="906.15,-22.8276 915.228,-17.3642 904.725,-15.9744 906.15,-22.8276"/>
</g>
<!-- Node10 -->
<g id="node10" class="node"><title>Node10</title>
<polygon fill="white" stroke="#bfbfbf" points="543,-56.5 543,-75.5 583,-75.5 583,-56.5 543,-56.5"/>
<text text-anchor="middle" x="563" y="-63.5" font-family="Helvetica,sans-Serif" font-size="10.00">limits</text>
</g>
<!-- Node5&#45;&gt;Node10 -->
<g id="edge10" class="edge"><title>Node5&#45;&gt;Node10</title>
<path fill="none" stroke="midnightblue" d="M507.313,-118.403C517.449,-109.047 533.864,-93.8948 546.252,-82.4599"/>
<polygon fill="midnightblue" stroke="midnightblue" points="548.73,-84.9352 553.704,-75.5806 543.982,-79.7916 548.73,-84.9352"/>
</g>
<!-- Node11 -->
<g id="node11" class="node"><title>Node11</title>
<polygon fill="white" stroke="#bfbfbf" points="674,-0.5 674,-19.5 736,-19.5 736,-0.5 674,-0.5"/>
<text text-anchor="middle" x="705" y="-7.5" font-family="Helvetica,sans-Serif" font-size="10.00">type_traits</text>
</g>
<!-- Node5&#45;&gt;Node11 -->
<g id="edge11" class="edge"><title>Node5&#45;&gt;Node11</title>
<path fill="none" stroke="midnightblue" d="M478.485,-118.367C451.619,-105.324 408.735,-79.6057 429,-56 461.665,-17.9494 597.258,-28.4105 663.665,-19.6653"/>
<polygon fill="midnightblue" stroke="midnightblue" points="664.368,-23.0979 673.703,-18.0865 663.28,-16.1829 664.368,-23.0979"/>
</g>
<!-- Node12&#45;&gt;Node1 -->
<g id="edge16" class="edge"><title>Node12&#45;&gt;Node1</title>
<path fill="none" stroke="midnightblue" d="M160.136,-142.425C208.376,-153.177 273.02,-168.067 314.897,-178.092"/>
<polygon fill="midnightblue" stroke="midnightblue" points="314.228,-181.531 324.769,-180.467 315.865,-174.725 314.228,-181.531"/>
</g>
<!-- Node12&#45;&gt;Node3 -->
<g id="edge19" class="edge"><title>Node12&#45;&gt;Node3</title>
<path fill="none" stroke="midnightblue" d="M131.872,-112.933C157.915,-102.72 192.808,-89.036 217.721,-79.2664"/>
<polygon fill="midnightblue" stroke="midnightblue" points="219.038,-82.5094 227.07,-75.6 216.482,-75.9926 219.038,-82.5094"/>
</g>
<!-- Node13 -->
<g id="node13" class="node"><title>Node13</title>
<g id="a_node13"><a xlink:href="../../d5/d35/a00266.html" target="_top" xlink:title="Exception.h">
<polygon fill="white" stroke="black" points="0,-56.5 0,-75.5 68,-75.5 68,-56.5 0,-56.5"/>
<text text-anchor="middle" x="34" y="-63.5" font-family="Helvetica,sans-Serif" font-size="10.00">Exception.h</text>
</a>
</g>
</g>
<!-- Node12&#45;&gt;Node13 -->
<g id="edge14" class="edge"><title>Node12&#45;&gt;Node13</title>
<path fill="none" stroke="midnightblue" d="M81.3069,-112.781C72.0189,-103.792 60.0007,-92.162 50.4022,-82.8731"/>
<polygon fill="midnightblue" stroke="midnightblue" points="52.6416,-80.1697 43.0215,-75.7305 47.7736,-85.1999 52.6416,-80.1697"/>
</g>
<!-- Node15 -->
<g id="node15" class="node"><title>Node15</title>
<polygon fill="white" stroke="#bfbfbf" points="86.5,-56.5 86.5,-75.5 137.5,-75.5 137.5,-56.5 86.5,-56.5"/>
<text text-anchor="middle" x="112" y="-63.5" font-family="Helvetica,sans-Serif" font-size="10.00">numeric</text>
</g>
<!-- Node12&#45;&gt;Node15 -->
<g id="edge17" class="edge"><title>Node12&#45;&gt;Node15</title>
<path fill="none" stroke="midnightblue" d="M99.7918,-112.781C101.973,-104.601 104.738,-94.2341 107.084,-85.4344"/>
<polygon fill="midnightblue" stroke="midnightblue" points="110.477,-86.2947 109.672,-75.7305 103.713,-84.491 110.477,-86.2947"/>
</g>
<!-- Node16 -->
<g id="node16" class="node"><title>Node16</title>
<polygon fill="white" stroke="#bfbfbf" points="156,-56.5 156,-75.5 194,-75.5 194,-56.5 156,-56.5"/>
<text text-anchor="middle" x="175" y="-63.5" font-family="Helvetica,sans-Serif" font-size="10.00">tuple</text>
</g>
<!-- Node12&#45;&gt;Node16 -->
<g id="edge18" class="edge"><title>Node12&#45;&gt;Node16</title>
<path fill="none" stroke="midnightblue" d="M114.722,-112.781C126.912,-103.523 142.792,-91.4618 155.193,-82.0435"/>
<polygon fill="midnightblue" stroke="midnightblue" points="157.658,-84.5661 163.505,-75.7305 153.424,-78.9916 157.658,-84.5661"/>
</g>
<!-- Node14 -->
<g id="node14" class="node"><title>Node14</title>
<polygon fill="white" stroke="#bfbfbf" points="276.5,-0.5 276.5,-19.5 335.5,-19.5 335.5,-0.5 276.5,-0.5"/>
<text text-anchor="middle" x="306" y="-7.5" font-family="Helvetica,sans-Serif" font-size="10.00">stdexcept</text>
</g>
<!-- Node13&#45;&gt;Node14 -->
<g id="edge15" class="edge"><title>Node13&#45;&gt;Node14</title>
<path fill="none" stroke="midnightblue" d="M68.2597,-57.7898C71.215,-57.1798 74.1596,-56.5763 77,-56 143.31,-42.546 220.552,-27.4964 266.249,-18.6577"/>
<polygon fill="midnightblue" stroke="midnightblue" points="267.179,-22.0428 276.333,-16.709 265.851,-15.1699 267.179,-22.0428"/>
</g>
<!-- Node17&#45;&gt;Node6 -->
<g id="edge21" class="edge"><title>Node17&#45;&gt;Node6</title>
<path fill="none" stroke="midnightblue" d="M830.244,-56.4947C790.476,-48.2666 728.7,-35.1559 665.93,-20.1408"/>
<polygon fill="midnightblue" stroke="midnightblue" points="666.391,-16.652 655.85,-17.715 664.753,-23.4577 666.391,-16.652"/>
</g>
<!-- Node17&#45;&gt;Node9 -->
<g id="edge23" class="edge"><title>Node17&#45;&gt;Node9</title>
<path fill="none" stroke="midnightblue" d="M882.765,-56.324C892.766,-48.2631 907.887,-36.0765 919.93,-26.3695"/>
<polygon fill="midnightblue" stroke="midnightblue" points="922.45,-28.8343 928.039,-19.8339 918.057,-23.3841 922.45,-28.8343"/>
</g>
<!-- Node17&#45;&gt;Node11 -->
<g id="edge24" class="edge"><title>Node17&#45;&gt;Node11</title>
<path fill="none" stroke="midnightblue" d="M845.538,-56.4435C817.322,-47.3196 772.46,-32.8133 741.032,-22.6509"/>
<polygon fill="midnightblue" stroke="midnightblue" points="741.93,-19.263 731.338,-19.5164 739.776,-25.9234 741.93,-19.263"/>
</g>
<!-- Node18 -->
<g id="node18" class="node"><title>Node18</title>
<polygon fill="white" stroke="#bfbfbf" points="850,-0.5 850,-19.5 894,-19.5 894,-0.5 850,-0.5"/>
<text text-anchor="middle" x="872" y="-7.5" font-family="Helvetica,sans-Serif" font-size="10.00">cmath</text>
</g>
<!-- Node17&#45;&gt;Node18 -->
<g id="edge22" class="edge"><title>Node17&#45;&gt;Node18</title>
<path fill="none" stroke="midnightblue" d="M872,-56.083C872,-49.0059 872,-38.8611 872,-29.9865"/>
<polygon fill="midnightblue" stroke="midnightblue" points="875.5,-29.751 872,-19.7511 868.5,-29.7511 875.5,-29.751"/>
</g>
<!-- Node19&#45;&gt;Node3 -->
<g id="edge35" class="edge"><title>Node19&#45;&gt;Node3</title>
<path fill="none" stroke="midnightblue" d="M598.01,-118.422C584.974,-116.277 570.974,-114.014 558,-112 457.095,-96.3376 337.393,-79.3615 281.183,-71.4842"/>
<polygon fill="midnightblue" stroke="midnightblue" points="281.516,-67.9968 271.128,-70.0773 280.546,-74.9293 281.516,-67.9968"/>
</g>
<!-- Node19&#45;&gt;Node6 -->
<g id="edge28" class="edge"><title>Node19&#45;&gt;Node6</title>
<path fill="none" stroke="midnightblue" d="M647.647,-118.281C644.74,-99.5475 637.843,-55.098 633.899,-29.6822"/>
<polygon fill="midnightblue" stroke="midnightblue" points="637.312,-28.8498 632.32,-19.5048 630.395,-29.9232 637.312,-28.8498"/>
</g>
<!-- Node19&#45;&gt;Node8 -->
<g id="edge29" class="edge"><title>Node19&#45;&gt;Node8</title>
<path fill="none" stroke="midnightblue" d="M627.365,-118.403C601.576,-108.156 558.289,-90.9561 528.96,-79.3021"/>
<polygon fill="midnightblue" stroke="midnightblue" points="530.18,-76.0207 519.594,-75.5806 527.595,-82.526 530.18,-76.0207"/>
</g>
<!-- Node19&#45;&gt;Node9 -->
<g id="edge30" class="edge"><title>Node19&#45;&gt;Node9</title>
<path fill="none" stroke="midnightblue" d="M708.68,-123.334C779.786,-117.732 892.788,-104.527 923,-76 935.401,-64.2899 938.842,-44.6427 939.52,-30.008"/>
<polygon fill="midnightblue" stroke="midnightblue" points="943.023,-29.6166 939.591,-19.5932 936.023,-29.5694 943.023,-29.6166"/>
</g>
<!-- Node19&#45;&gt;Node10 -->
<g id="edge31" class="edge"><title>Node19&#45;&gt;Node10</title>
<path fill="none" stroke="midnightblue" d="M636.678,-118.403C622.884,-108.78 600.301,-93.0242 583.768,-81.4891"/>
<polygon fill="midnightblue" stroke="midnightblue" points="585.503,-78.432 575.299,-75.5806 581.497,-84.1729 585.503,-78.432"/>
</g>
<!-- Node19&#45;&gt;Node11 -->
<g id="edge33" class="edge"><title>Node19&#45;&gt;Node11</title>
<path fill="none" stroke="midnightblue" d="M653.209,-118.281C662.375,-99.2943 684.294,-53.892 696.473,-28.6624"/>
<polygon fill="midnightblue" stroke="midnightblue" points="699.699,-30.0319 700.894,-19.5048 693.395,-26.9887 699.699,-30.0319"/>
</g>
<!-- Node19&#45;&gt;Node14 -->
<g id="edge32" class="edge"><title>Node19&#45;&gt;Node14</title>
<path fill="none" stroke="midnightblue" d="M644.769,-118.278C636.797,-102.874 617.986,-71.0585 592,-56 550.841,-32.1488 414.192,-18.967 345.763,-13.7162"/>
<polygon fill="midnightblue" stroke="midnightblue" points="346.02,-10.2257 335.786,-12.9699 345.497,-17.2062 346.02,-10.2257"/>
</g>
<!-- Node19&#45;&gt;Node17 -->
<g id="edge26" class="edge"><title>Node19&#45;&gt;Node17</title>
<path fill="none" stroke="midnightblue" d="M680.95,-118.403C720.279,-107.822 787.16,-89.8269 830.447,-78.1802"/>
<polygon fill="midnightblue" stroke="midnightblue" points="831.362,-81.5586 840.109,-75.5806 829.543,-74.799 831.362,-81.5586"/>
</g>
<!-- Node20 -->
<g id="node20" class="node"><title>Node20</title>
<polygon fill="white" stroke="#bfbfbf" points="715,-56.5 715,-75.5 753,-75.5 753,-56.5 715,-56.5"/>
<text text-anchor="middle" x="734" y="-63.5" font-family="Helvetica,sans-Serif" font-size="10.00">array</text>
</g>
<!-- Node19&#45;&gt;Node20 -->
<g id="edge27" class="edge"><title>Node19&#45;&gt;Node20</title>
<path fill="none" stroke="midnightblue" d="M661.178,-118.403C674.812,-108.78 697.132,-93.0242 713.474,-81.4891"/>
<polygon fill="midnightblue" stroke="midnightblue" points="715.693,-84.2069 721.844,-75.5806 711.656,-78.4881 715.693,-84.2069"/>
</g>
<!-- Node21 -->
<g id="node21" class="node"><title>Node21</title>
<polygon fill="white" stroke="#bfbfbf" points="771,-56.5 771,-75.5 811,-75.5 811,-56.5 771,-56.5"/>
<text text-anchor="middle" x="791" y="-63.5" font-family="Helvetica,sans-Serif" font-size="10.00">utility</text>
</g>
<!-- Node19&#45;&gt;Node21 -->
<g id="edge34" class="edge"><title>Node19&#45;&gt;Node21</title>
<path fill="none" stroke="midnightblue" d="M669.345,-118.403C693.387,-108.245 733.597,-91.2547 761.163,-79.6074"/>
<polygon fill="midnightblue" stroke="midnightblue" points="762.843,-82.6968 770.693,-75.5806 760.119,-76.2488 762.843,-82.6968"/>
</g>
<!-- Node22&#45;&gt;Node9 -->
<g id="edge37" class="edge"><title>Node22&#45;&gt;Node9</title>
<path fill="none" stroke="midnightblue" d="M943.74,-118.329C950.432,-105.024 961.377,-78.7262 957,-56 955.21,-46.7047 951.517,-36.8887 947.939,-28.8048"/>
<polygon fill="midnightblue" stroke="midnightblue" points="951.056,-27.2089 943.621,-19.6611 944.727,-30.1981 951.056,-27.2089"/>
</g>
</g>
</svg>
