<?xml version="1.0" encoding="UTF-8" standalone="no"?>
<!DOCTYPE svg PUBLIC "-//W3C//DTD SVG 1.1//EN"
 "http://www.w3.org/Graphics/SVG/1.1/DTD/svg11.dtd">
<!-- Generated by graphviz version 2.36.0 (20140111.2315)
 -->
<!-- Title: ContactPool.h Pages: 1 -->
<svg width="502pt" height="140pt"
 viewBox="0.00 0.00 502.00 140.00" xmlns="http://www.w3.org/2000/svg" xmlns:xlink="http://www.w3.org/1999/xlink">
<g id="graph0" class="graph" transform="scale(1 1) rotate(0) translate(4 136)">
<title>ContactPool.h</title>
<polygon fill="white" stroke="none" points="-4,4 -4,-136 498,-136 498,4 -4,4"/>
<!-- Node1 -->
<g id="node1" class="node"><title>Node1</title>
<polygon fill="#bfbfbf" stroke="black" points="285.5,-112.5 285.5,-131.5 364.5,-131.5 364.5,-112.5 285.5,-112.5"/>
<text text-anchor="middle" x="325" y="-119.5" font-family="Helvetica,sans-Serif" font-size="10.00">ContactPool.h</text>
</g>
<!-- Node2 -->
<g id="node2" class="node"><title>Node2</title>
<g id="a_node2"><a xlink:href="../../da/d2e/a00238.html" target="_top" xlink:title="Header for the ContactLogMode class. ">
<polygon fill="white" stroke="black" points="0,-56.5 0,-75.5 134,-75.5 134,-56.5 0,-56.5"/>
<text text-anchor="middle" x="67" y="-63.5" font-family="Helvetica,sans-Serif" font-size="10.00">contact/ContactLogMode.h</text>
</a>
</g>
</g>
<!-- Node1&#45;&gt;Node2 -->
<g id="edge1" class="edge"><title>Node1&#45;&gt;Node2</title>
<path fill="none" stroke="midnightblue" d="M285.253,-112.681C240.253,-103.262 166.833,-87.8953 117.733,-77.6186"/>
<polygon fill="midnightblue" stroke="midnightblue" points="118.149,-74.1298 107.644,-75.5069 116.715,-80.9814 118.149,-74.1298"/>
</g>
<!-- Node4 -->
<g id="node4" class="node"><title>Node4</title>
<g id="a_node4"><a xlink:href="../../d6/d22/a00245.html" target="_top" xlink:title="Definition of ContactPoolType. ">
<polygon fill="white" stroke="black" points="152,-56.5 152,-75.5 274,-75.5 274,-56.5 152,-56.5"/>
<text text-anchor="middle" x="213" y="-63.5" font-family="Helvetica,sans-Serif" font-size="10.00">pool/ContactPoolType.h</text>
</a>
</g>
</g>
<!-- Node1&#45;&gt;Node4 -->
<g id="edge3" class="edge"><title>Node1&#45;&gt;Node4</title>
<path fill="none" stroke="midnightblue" d="M307.005,-112.324C288.962,-103.625 260.953,-90.1202 240.197,-80.113"/>
<polygon fill="midnightblue" stroke="midnightblue" points="241.478,-76.8449 230.95,-75.6545 238.438,-83.1502 241.478,-76.8449"/>
</g>
<!-- Node8 -->
<g id="node8" class="node"><title>Node8</title>
<polygon fill="white" stroke="#bfbfbf" points="311,-0.5 311,-19.5 355,-19.5 355,-0.5 311,-0.5"/>
<text text-anchor="middle" x="333" y="-7.5" font-family="Helvetica,sans-Serif" font-size="10.00">vector</text>
</g>
<!-- Node1&#45;&gt;Node8 -->
<g id="edge12" class="edge"><title>Node1&#45;&gt;Node8</title>
<path fill="none" stroke="midnightblue" d="M323.384,-112.132C321.34,-99.5845 318.385,-75.9542 321,-56 322.156,-47.1813 324.534,-37.6328 326.87,-29.6098"/>
<polygon fill="midnightblue" stroke="midnightblue" points="330.285,-30.4151 329.912,-19.8268 323.601,-28.3366 330.285,-30.4151"/>
</g>
<!-- Node9 -->
<g id="node9" class="node"><title>Node9</title>
<polygon fill="white" stroke="#bfbfbf" points="330,-56.5 330,-75.5 368,-75.5 368,-56.5 330,-56.5"/>
<text text-anchor="middle" x="349" y="-63.5" font-family="Helvetica,sans-Serif" font-size="10.00">array</text>
</g>
<!-- Node1&#45;&gt;Node9 -->
<g id="edge9" class="edge"><title>Node1&#45;&gt;Node9</title>
<path fill="none" stroke="midnightblue" d="M328.963,-112.083C332.213,-104.77 336.919,-94.1814 340.954,-85.1034"/>
<polygon fill="midnightblue" stroke="midnightblue" points="344.248,-86.3107 345.111,-75.7511 337.851,-83.4677 344.248,-86.3107"/>
</g>
<!-- Node10 -->
<g id="node10" class="node"><title>Node10</title>
<polygon fill="white" stroke="#bfbfbf" points="386,-56.5 386,-75.5 438,-75.5 438,-56.5 386,-56.5"/>
<text text-anchor="middle" x="412" y="-63.5" font-family="Helvetica,sans-Serif" font-size="10.00">memory</text>
</g>
<!-- Node1&#45;&gt;Node10 -->
<g id="edge10" class="edge"><title>Node1&#45;&gt;Node10</title>
<path fill="none" stroke="midnightblue" d="M338.978,-112.324C352.55,-103.9 373.38,-90.9709 389.325,-81.0741"/>
<polygon fill="midnightblue" stroke="midnightblue" points="391.406,-83.9019 398.057,-75.6545 387.714,-77.9544 391.406,-83.9019"/>
</g>
<!-- Node11 -->
<g id="node11" class="node"><title>Node11</title>
<polygon fill="white" stroke="#bfbfbf" points="456,-56.5 456,-75.5 494,-75.5 494,-56.5 456,-56.5"/>
<text text-anchor="middle" x="475" y="-63.5" font-family="Helvetica,sans-Serif" font-size="10.00">tuple</text>
</g>
<!-- Node1&#45;&gt;Node11 -->
<g id="edge11" class="edge"><title>Node1&#45;&gt;Node11</title>
<path fill="none" stroke="midnightblue" d="M348.768,-112.444C375.107,-102.961 417.595,-87.6657 445.904,-77.4745"/>
<polygon fill="midnightblue" stroke="midnightblue" points="447.413,-80.6513 455.636,-73.971 445.042,-74.0651 447.413,-80.6513"/>
</g>
<!-- Node3 -->
<g id="node3" class="node"><title>Node3</title>
<polygon fill="white" stroke="#bfbfbf" points="46.5,-0.5 46.5,-19.5 87.5,-19.5 87.5,-0.5 46.5,-0.5"/>
<text text-anchor="middle" x="67" y="-7.5" font-family="Helvetica,sans-Serif" font-size="10.00">string</text>
</g>
<!-- Node2&#45;&gt;Node3 -->
<g id="edge2" class="edge"><title>Node2&#45;&gt;Node3</title>
<path fill="none" stroke="midnightblue" d="M67,-56.083C67,-49.0059 67,-38.8611 67,-29.9865"/>
<polygon fill="midnightblue" stroke="midnightblue" points="70.5001,-29.751 67,-19.7511 63.5001,-29.7511 70.5001,-29.751"/>
</g>
<!-- Node4&#45;&gt;Node3 -->
<g id="edge5" class="edge"><title>Node4&#45;&gt;Node3</title>
<path fill="none" stroke="midnightblue" d="M189.866,-56.4435C164.802,-47.1732 124.714,-32.3464 97.1874,-22.1652"/>
<polygon fill="midnightblue" stroke="midnightblue" points="98.2585,-18.8297 87.6653,-18.6433 95.8302,-25.395 98.2585,-18.8297"/>
</g>
<!-- Node5 -->
<g id="node5" class="node"><title>Node5</title>
<polygon fill="white" stroke="#bfbfbf" points="105.5,-0.5 105.5,-19.5 154.5,-19.5 154.5,-0.5 105.5,-0.5"/>
<text text-anchor="middle" x="130" y="-7.5" font-family="Helvetica,sans-Serif" font-size="10.00">cstddef</text>
</g>
<!-- Node4&#45;&gt;Node5 -->
<g id="edge4" class="edge"><title>Node4&#45;&gt;Node5</title>
<path fill="none" stroke="midnightblue" d="M199.665,-56.324C186.838,-47.979 167.215,-35.2122 152.06,-25.3524"/>
<polygon fill="midnightblue" stroke="midnightblue" points="153.593,-22.1742 143.302,-19.6545 149.776,-28.0417 153.593,-22.1742"/>
</g>
<!-- Node6 -->
<g id="node6" class="node"><title>Node6</title>
<polygon fill="white" stroke="#bfbfbf" points="173,-0.5 173,-19.5 227,-19.5 227,-0.5 173,-0.5"/>
<text text-anchor="middle" x="200" y="-7.5" font-family="Helvetica,sans-Serif" font-size="10.00">iostream</text>
</g>
<!-- Node4&#45;&gt;Node6 -->
<g id="edge6" class="edge"><title>Node4&#45;&gt;Node6</title>
<path fill="none" stroke="midnightblue" d="M210.853,-56.083C209.131,-48.9272 206.653,-38.6353 204.5,-29.6911"/>
<polygon fill="midnightblue" stroke="midnightblue" points="207.85,-28.6541 202.107,-19.7511 201.045,-30.2925 207.85,-28.6541"/>
</g>
<!-- Node7 -->
<g id="node7" class="node"><title>Node7</title>
<polygon fill="white" stroke="#bfbfbf" points="245.5,-0.5 245.5,-19.5 292.5,-19.5 292.5,-0.5 245.5,-0.5"/>
<text text-anchor="middle" x="269" y="-7.5" font-family="Helvetica,sans-Serif" font-size="10.00">iterator</text>
</g>
<!-- Node4&#45;&gt;Node7 -->
<g id="edge7" class="edge"><title>Node4&#45;&gt;Node7</title>
<path fill="none" stroke="midnightblue" d="M221.997,-56.324C230.194,-48.4196 242.506,-36.5482 252.472,-26.9377"/>
<polygon fill="midnightblue" stroke="midnightblue" points="255.07,-29.2947 259.839,-19.8339 250.211,-24.2558 255.07,-29.2947"/>
</g>
<!-- Node4&#45;&gt;Node8 -->
<g id="edge8" class="edge"><title>Node4&#45;&gt;Node8</title>
<path fill="none" stroke="midnightblue" d="M232.014,-56.4435C251.588,-47.6356 282.308,-33.8116 304.729,-23.722"/>
<polygon fill="midnightblue" stroke="midnightblue" points="306.392,-26.8119 314.075,-19.5164 303.519,-20.4284 306.392,-26.8119"/>
</g>
</g>
</svg>
