<?xml version="1.0" encoding="UTF-8" standalone="no"?>
<!DOCTYPE svg PUBLIC "-//W3C//DTD SVG 1.1//EN"
 "http://www.w3.org/Graphics/SVG/1.1/DTD/svg11.dtd">
<!-- Generated by graphviz version 2.36.0 (20140111.2315)
 -->
<!-- Title: stride::util::RNManager::Initialize Pages: 1 -->
<svg width="576pt" height="185pt"
 viewBox="0.00 0.00 576.00 185.00" xmlns="http://www.w3.org/2000/svg" xmlns:xlink="http://www.w3.org/1999/xlink">
<g id="graph0" class="graph" transform="scale(1 1) rotate(0) translate(4 181)">
<title>stride::util::RNManager::Initialize</title>
<polygon fill="white" stroke="none" points="-4,4 -4,-181 572,-181 572,4 -4,4"/>
<!-- Node1 -->
<g id="node1" class="node"><title>Node1</title>
<polygon fill="#bfbfbf" stroke="black" points="0,-73 0,-103 118,-103 118,-73 0,-73"/>
<text text-anchor="start" x="8" y="-91" font-family="Helvetica,sans-Serif" font-size="10.00">stride::util::RNManager</text>
<text text-anchor="middle" x="59" y="-80" font-family="Helvetica,sans-Serif" font-size="10.00">::Initialize</text>
</g>
<!-- Node2 -->
<g id="node2" class="node"><title>Node2</title>
<g id="a_node2"><a xlink:href="../../d9/d77/a00095.html#a9837dd9796e5b2a40c37984537c1375f" target="_top" xlink:title="Empty controller: used as taget for delegation. ">
<polygon fill="white" stroke="black" points="157.5,-147 157.5,-177 268.5,-177 268.5,-147 157.5,-147"/>
<text text-anchor="start" x="165.5" y="-165" font-family="Helvetica,sans-Serif" font-size="10.00">stride::BaseController</text>
<text text-anchor="middle" x="213" y="-154" font-family="Helvetica,sans-Serif" font-size="10.00">::BaseController</text>
</a>
</g>
</g>
<!-- Node1&#45;&gt;Node2 -->
<g id="edge1" class="edge"><title>Node1&#45;&gt;Node2</title>
<path fill="none" stroke="midnightblue" d="M96.8524,-108.01C114.066,-117.15 134.927,-127.933 154,-137 161.031,-140.342 168.624,-143.754 175.925,-146.939"/>
<polygon fill="midnightblue" stroke="midnightblue" points="98.1687,-104.745 87.6988,-103.123 94.8718,-110.92 98.1687,-104.745"/>
</g>
<!-- Node3 -->
<g id="node3" class="node"><title>Node3</title>
<g id="a_node3"><a xlink:href="../../de/d5e/a00007.html#a89dcd5e99936c5704336e7e52b72da55" target="_top" xlink:title="Create an RNManager based on the provided config file. ">
<polygon fill="white" stroke="black" points="158.5,-98 158.5,-128 267.5,-128 267.5,-98 158.5,-98"/>
<text text-anchor="start" x="166.5" y="-116" font-family="Helvetica,sans-Serif" font-size="10.00">calibration::Calibrator</text>
<text text-anchor="middle" x="213" y="-105" font-family="Helvetica,sans-Serif" font-size="10.00">::CreateRNManager</text>
</a>
</g>
</g>
<!-- Node1&#45;&gt;Node3 -->
<g id="edge2" class="edge"><title>Node1&#45;&gt;Node3</title>
<path fill="none" stroke="midnightblue" d="M128.24,-99.2237C138.234,-100.867 148.408,-102.541 158.063,-104.129"/>
<polygon fill="midnightblue" stroke="midnightblue" points="128.768,-95.7636 118.332,-97.5942 127.632,-102.671 128.768,-95.7636"/>
</g>
<!-- Node7 -->
<g id="node7" class="node"><title>Node7</title>
<g id="a_node7"><a xlink:href="../../d6/d7d/a00161.html#a49618df845ec996f3a777263c7f376de" target="_top" xlink:title="Wrapper method that creates an Info object, used because SWIG can&#39;t handle nested structs...">
<polygon fill="white" stroke="black" points="154,-49 154,-79 272,-79 272,-49 154,-49"/>
<text text-anchor="start" x="162" y="-67" font-family="Helvetica,sans-Serif" font-size="10.00">stride::util::RNManager</text>
<text text-anchor="middle" x="213" y="-56" font-family="Helvetica,sans-Serif" font-size="10.00">::Initialize</text>
</a>
</g>
</g>
<!-- Node1&#45;&gt;Node7 -->
<g id="edge7" class="edge"><title>Node1&#45;&gt;Node7</title>
<path fill="none" stroke="midnightblue" d="M128.264,-77.2215C136.798,-75.874 145.463,-74.5058 153.824,-73.1857"/>
<polygon fill="midnightblue" stroke="midnightblue" points="127.664,-73.7727 118.332,-78.7896 128.756,-80.6871 127.664,-73.7727"/>
</g>
<!-- Node8 -->
<g id="node8" class="node"><title>Node8</title>
<g id="a_node8"><a xlink:href="../../d6/d7d/a00161.html#a30121f0f47cf4c23bed8da7521b2b904" target="_top" xlink:title="Initializes to default engine( trng::mrg2 with seed 1). ">
<polygon fill="white" stroke="black" points="154,-0 154,-30 272,-30 272,-0 154,-0"/>
<text text-anchor="start" x="162" y="-18" font-family="Helvetica,sans-Serif" font-size="10.00">stride::util::RNManager</text>
<text text-anchor="middle" x="213" y="-7" font-family="Helvetica,sans-Serif" font-size="10.00">::RNManager</text>
</a>
</g>
</g>
<!-- Node1&#45;&gt;Node8 -->
<g id="edge8" class="edge"><title>Node1&#45;&gt;Node8</title>
<path fill="none" stroke="midnightblue" d="M97.6554,-68.0631C114.729,-59.2074 135.252,-48.8159 154,-40 161.045,-36.6872 168.644,-33.289 175.947,-30.1075"/>
<polygon fill="midnightblue" stroke="midnightblue" points="95.808,-65.0791 88.5584,-72.8052 99.0438,-71.2863 95.808,-65.0791"/>
</g>
<!-- Node4 -->
<g id="node4" class="node"><title>Node4</title>
<g id="a_node4"><a xlink:href="../../de/d5e/a00007.html#a26ee572195c295b6735b370ca3dab8b0" target="_top" xlink:title="Run count simulations for each config by varying the seed and return the infected counts after each t...">
<polygon fill="white" stroke="black" points="308.5,-122 308.5,-152 417.5,-152 417.5,-122 308.5,-122"/>
<text text-anchor="start" x="316.5" y="-140" font-family="Helvetica,sans-Serif" font-size="10.00">calibration::Calibrator</text>
<text text-anchor="middle" x="363" y="-129" font-family="Helvetica,sans-Serif" font-size="10.00">::RunMultiple</text>
</a>
</g>
</g>
<!-- Node3&#45;&gt;Node4 -->
<g id="edge3" class="edge"><title>Node3&#45;&gt;Node4</title>
<path fill="none" stroke="midnightblue" d="M277.913,-123.364C288.092,-125.015 298.53,-126.708 308.438,-128.314"/>
<polygon fill="midnightblue" stroke="midnightblue" points="278.281,-119.878 267.85,-121.732 277.161,-126.788 278.281,-119.878"/>
</g>
<!-- Node6 -->
<g id="node6" class="node"><title>Node6</title>
<g id="a_node6"><a xlink:href="../../de/d5e/a00007.html#a83f2d479f8ff86e01a3d1f2c2aeadb39" target="_top" xlink:title="Run one simulation for each config and return the infected counts after each timestep. ">
<polygon fill="white" stroke="black" points="308.5,-73 308.5,-103 417.5,-103 417.5,-73 308.5,-73"/>
<text text-anchor="start" x="316.5" y="-91" font-family="Helvetica,sans-Serif" font-size="10.00">calibration::Calibrator</text>
<text text-anchor="middle" x="363" y="-80" font-family="Helvetica,sans-Serif" font-size="10.00">::RunSingle</text>
</a>
</g>
</g>
<!-- Node3&#45;&gt;Node6 -->
<g id="edge5" class="edge"><title>Node3&#45;&gt;Node6</title>
<path fill="none" stroke="midnightblue" d="M277.913,-102.204C288.092,-100.484 298.53,-98.7213 308.438,-97.0477"/>
<polygon fill="midnightblue" stroke="midnightblue" points="277.127,-98.7869 267.85,-103.904 278.293,-105.689 277.127,-98.7869"/>
</g>
<!-- Node5 -->
<g id="node5" class="node"><title>Node5</title>
<g id="a_node5"><a xlink:href="../../de/d21/a00006.html#a15b5bc2c7261304c0613ffad908e5a2b" target="_top" xlink:title="Run the Calibrator. ">
<polygon fill="white" stroke="black" points="454.5,-97 454.5,-127 567.5,-127 567.5,-97 454.5,-97"/>
<text text-anchor="start" x="462.5" y="-115" font-family="Helvetica,sans-Serif" font-size="10.00">calibration::Calibration</text>
<text text-anchor="middle" x="511" y="-104" font-family="Helvetica,sans-Serif" font-size="10.00">Runner::Run</text>
</a>
</g>
</g>
<!-- Node4&#45;&gt;Node5 -->
<g id="edge4" class="edge"><title>Node4&#45;&gt;Node5</title>
<path fill="none" stroke="midnightblue" d="M427.421,-126.14C436.273,-124.624 445.317,-123.076 454.019,-121.586"/>
<polygon fill="midnightblue" stroke="midnightblue" points="426.802,-122.695 417.536,-127.833 427.983,-129.595 426.802,-122.695"/>
</g>
<!-- Node6&#45;&gt;Node5 -->
<g id="edge6" class="edge"><title>Node6&#45;&gt;Node5</title>
<path fill="none" stroke="midnightblue" d="M427.421,-98.4254C436.273,-99.8806 445.317,-101.367 454.019,-102.798"/>
<polygon fill="midnightblue" stroke="midnightblue" points="427.971,-94.9689 417.536,-96.8004 426.836,-101.876 427.971,-94.9689"/>
</g>
</g>
</svg>
