<?xml version="1.0" encoding="UTF-8" standalone="no"?>
<!DOCTYPE svg PUBLIC "-//W3C//DTD SVG 1.1//EN"
 "http://www.w3.org/Graphics/SVG/1.1/DTD/svg11.dtd">
<!-- Generated by graphviz version 2.36.0 (20140111.2315)
 -->
<!-- Title: stride::util::RNManager::RNManager Pages: 1 -->
<svg width="438pt" height="77pt"
 viewBox="0.00 0.00 438.00 77.00" xmlns="http://www.w3.org/2000/svg" xmlns:xlink="http://www.w3.org/1999/xlink">
<g id="graph0" class="graph" transform="scale(1 1) rotate(0) translate(4 73)">
<title>stride::util::RNManager::RNManager</title>
<polygon fill="white" stroke="none" points="-4,4 -4,-73 434,-73 434,4 -4,4"/>
<!-- Node1 -->
<g id="node1" class="node"><title>Node1</title>
<polygon fill="#bfbfbf" stroke="black" points="0,-17 0,-47 118,-47 118,-17 0,-17"/>
<text text-anchor="start" x="8" y="-35" font-family="Helvetica,sans-Serif" font-size="10.00">stride::util::RNManager</text>
<text text-anchor="middle" x="59" y="-24" font-family="Helvetica,sans-Serif" font-size="10.00">::RNManager</text>
</g>
<!-- Node2 -->
<g id="node2" class="node"><title>Node2</title>
<g id="a_node2"><a xlink:href="../../d6/d7d/a00161.html#a8c78f40f38b8a3fc25e2c21be2de505a" target="_top" xlink:title="Initalize with data in Info. ">
<polygon fill="white" stroke="black" points="154,-17 154,-47 272,-47 272,-17 154,-17"/>
<text text-anchor="start" x="162" y="-35" font-family="Helvetica,sans-Serif" font-size="10.00">stride::util::RNManager</text>
<text text-anchor="middle" x="213" y="-24" font-family="Helvetica,sans-Serif" font-size="10.00">::Initialize</text>
</a>
</g>
</g>
<!-- Node1&#45;&gt;Node2 -->
<g id="edge1" class="edge"><title>Node1&#45;&gt;Node2</title>
<path fill="none" stroke="midnightblue" d="M118.332,-32C126.606,-32 135.175,-32 143.617,-32"/>
<polygon fill="midnightblue" stroke="midnightblue" points="143.824,-35.5001 153.824,-32 143.824,-28.5001 143.824,-35.5001"/>
</g>
<!-- Node3 -->
<g id="node3" class="node"><title>Node3</title>
<g id="a_node3"><a xlink:href="../../dc/d8e/a00473.html#af529300a78547c29c95b81ad8ac62afe" target="_top" xlink:title="Converts a string with name to Id. ">
<polygon fill="white" stroke="black" points="308,-39 308,-69 430,-69 430,-39 308,-39"/>
<text text-anchor="start" x="316" y="-57" font-family="Helvetica,sans-Serif" font-size="10.00">stride::ContactPoolType</text>
<text text-anchor="middle" x="369" y="-46" font-family="Helvetica,sans-Serif" font-size="10.00">::ToType</text>
</a>
</g>
</g>
<!-- Node2&#45;&gt;Node3 -->
<g id="edge2" class="edge"><title>Node2&#45;&gt;Node3</title>
<path fill="none" stroke="midnightblue" d="M272.221,-40.3173C280.608,-41.5154 289.312,-42.7588 297.9,-43.9857"/>
<polygon fill="midnightblue" stroke="midnightblue" points="297.509,-47.4653 307.903,-45.4147 298.499,-40.5356 297.509,-47.4653"/>
</g>
<!-- Node4 -->
<g id="node4" class="node"><title>Node4</title>
<g id="a_node4"><a xlink:href="../../d9/dea/a00478.html#a0c42ba6e336bed67e5a0bdd053802c2a" target="_top" xlink:title="stride::util::para_seed">
<polygon fill="white" stroke="black" points="314,-0.5 314,-19.5 424,-19.5 424,-0.5 314,-0.5"/>
<text text-anchor="middle" x="369" y="-7.5" font-family="Helvetica,sans-Serif" font-size="10.00">stride::util::para_seed</text>
</a>
</g>
</g>
<!-- Node2&#45;&gt;Node4 -->
<g id="edge3" class="edge"><title>Node2&#45;&gt;Node4</title>
<path fill="none" stroke="midnightblue" d="M272.221,-23.6827C282.548,-22.2074 293.356,-20.6634 303.837,-19.1661"/>
<polygon fill="midnightblue" stroke="midnightblue" points="304.355,-22.6278 313.76,-17.7486 303.365,-15.6981 304.355,-22.6278"/>
</g>
</g>
</svg>
