<?xml version="1.0" encoding="UTF-8" standalone="no"?>
<!DOCTYPE svg PUBLIC "-//W3C//DTD SVG 1.1//EN"
 "http://www.w3.org/Graphics/SVG/1.1/DTD/svg11.dtd">
<!-- Generated by graphviz version 2.36.0 (20140111.2315)
 -->
<!-- Title: gengeopop::GeoGridWriter Pages: 1 -->
<svg width="339pt" height="238pt"
 viewBox="0.00 0.00 339.00 238.00" xmlns="http://www.w3.org/2000/svg" xmlns:xlink="http://www.w3.org/1999/xlink">
<g id="graph0" class="graph" transform="scale(1 1) rotate(0) translate(4 234)">
<title>gengeopop::GeoGridWriter</title>
<polygon fill="white" stroke="none" points="-4,4 -4,-234 335,-234 335,4 -4,4"/>
<!-- Node1 -->
<g id="node1" class="node"><title>Node1</title>
<polygon fill="#bfbfbf" stroke="black" points="100,-161 100,-229 232,-229 232,-161 100,-161"/>
<text text-anchor="middle" x="166" y="-217" font-family="Helvetica,sans-Serif" font-size="10.00">gengeopop::GeoGridWriter</text>
<polyline fill="none" stroke="black" points="100,-210 232,-210 "/>
<text text-anchor="middle" x="166" y="-198" font-family="Helvetica,sans-Serif" font-size="10.00"> </text>
<polyline fill="none" stroke="black" points="100,-191 232,-191 "/>
<text text-anchor="start" x="108" y="-179" font-family="Helvetica,sans-Serif" font-size="10.00">+ ~GeoGridWriter()</text>
<text text-anchor="start" x="108" y="-168" font-family="Helvetica,sans-Serif" font-size="10.00">+ Write()</text>
</g>
<!-- Node2 -->
<g id="node2" class="node"><title>Node2</title>
<g id="a_node2"><a xlink:href="../../d1/dc6/a00037.html" target="_top" xlink:title="An implementation of the GeoGridWriter using JSON This class is used to write a GeoGrid to a JSON fil...">
<polygon fill="white" stroke="black" points="-0.5,-0.5 -0.5,-123.5 158.5,-123.5 158.5,-0.5 -0.5,-0.5"/>
<text text-anchor="middle" x="79" y="-111.5" font-family="Helvetica,sans-Serif" font-size="10.00">gengeopop::GeoGridJSONWriter</text>
<polyline fill="none" stroke="black" points="-0.5,-104.5 158.5,-104.5 "/>
<text text-anchor="start" x="7.5" y="-92.5" font-family="Helvetica,sans-Serif" font-size="10.00">&#45; m_persons_found</text>
<polyline fill="none" stroke="black" points="-0.5,-85.5 158.5,-85.5 "/>
<text text-anchor="start" x="7.5" y="-73.5" font-family="Helvetica,sans-Serif" font-size="10.00">+ GeoGridJSONWriter()</text>
<text text-anchor="start" x="7.5" y="-62.5" font-family="Helvetica,sans-Serif" font-size="10.00">+ Write()</text>
<text text-anchor="start" x="7.5" y="-51.5" font-family="Helvetica,sans-Serif" font-size="10.00">&#45; WriteLocation()</text>
<text text-anchor="start" x="7.5" y="-40.5" font-family="Helvetica,sans-Serif" font-size="10.00">&#45; WriteCoordinate()</text>
<text text-anchor="start" x="7.5" y="-29.5" font-family="Helvetica,sans-Serif" font-size="10.00">&#45; WriteContactCenter()</text>
<text text-anchor="start" x="7.5" y="-18.5" font-family="Helvetica,sans-Serif" font-size="10.00">&#45; WriteContactPool()</text>
<text text-anchor="start" x="7.5" y="-7.5" font-family="Helvetica,sans-Serif" font-size="10.00">&#45; WritePerson()</text>
</a>
</g>
</g>
<!-- Node1&#45;&gt;Node2 -->
<g id="edge1" class="edge"><title>Node1&#45;&gt;Node2</title>
<path fill="none" stroke="midnightblue" d="M138.375,-152.404C132.287,-143.236 125.718,-133.345 119.245,-123.599"/>
<polygon fill="none" stroke="midnightblue" points="135.598,-154.549 144.046,-160.943 141.429,-150.677 135.598,-154.549"/>
</g>
<!-- Node3 -->
<g id="node3" class="node"><title>Node3</title>
<g id="a_node3"><a xlink:href="../../db/d3a/a00040.html" target="_top" xlink:title="An implementation of the GeoGridWriter using Protocol Buffers This class is used to write a GeoGrid t...">
<polygon fill="white" stroke="black" points="176.5,-0.5 176.5,-123.5 331.5,-123.5 331.5,-0.5 176.5,-0.5"/>
<text text-anchor="middle" x="254" y="-111.5" font-family="Helvetica,sans-Serif" font-size="10.00">gengeopop::GeoGridProtoWriter</text>
<polyline fill="none" stroke="black" points="176.5,-104.5 331.5,-104.5 "/>
<text text-anchor="start" x="184.5" y="-92.5" font-family="Helvetica,sans-Serif" font-size="10.00">&#45; m_persons_found</text>
<polyline fill="none" stroke="black" points="176.5,-85.5 331.5,-85.5 "/>
<text text-anchor="start" x="184.5" y="-73.5" font-family="Helvetica,sans-Serif" font-size="10.00">+ GeoGridProtoWriter()</text>
<text text-anchor="start" x="184.5" y="-62.5" font-family="Helvetica,sans-Serif" font-size="10.00">+ Write()</text>
<text text-anchor="start" x="184.5" y="-51.5" font-family="Helvetica,sans-Serif" font-size="10.00">&#45; WriteLocation()</text>
<text text-anchor="start" x="184.5" y="-40.5" font-family="Helvetica,sans-Serif" font-size="10.00">&#45; WriteCoordinate()</text>
<text text-anchor="start" x="184.5" y="-29.5" font-family="Helvetica,sans-Serif" font-size="10.00">&#45; WriteContactCenter()</text>
<text text-anchor="start" x="184.5" y="-18.5" font-family="Helvetica,sans-Serif" font-size="10.00">&#45; WriteContactPool()</text>
<text text-anchor="start" x="184.5" y="-7.5" font-family="Helvetica,sans-Serif" font-size="10.00">&#45; WritePerson()</text>
</a>
</g>
</g>
<!-- Node1&#45;&gt;Node3 -->
<g id="edge2" class="edge"><title>Node1&#45;&gt;Node3</title>
<path fill="none" stroke="midnightblue" d="M193.942,-152.404C200.101,-143.236 206.745,-133.345 213.292,-123.599"/>
<polygon fill="none" stroke="midnightblue" points="190.877,-150.691 188.206,-160.943 196.688,-154.594 190.877,-150.691"/>
</g>
</g>
</svg>
