<?xml version="1.0" encoding="UTF-8" standalone="no"?>
<!DOCTYPE svg PUBLIC "-//W3C//DTD SVG 1.1//EN"
 "http://www.w3.org/Graphics/SVG/1.1/DTD/svg11.dtd">
<!-- Generated by graphviz version 2.36.0 (20140111.2315)
 -->
<!-- Title: stride::LOG_POLICY&lt; ContactLogMode::Id::Transmissions &gt;::Trans Pages: 1 -->
<svg width="292pt" height="77pt"
 viewBox="0.00 0.00 292.00 77.00" xmlns="http://www.w3.org/2000/svg" xmlns:xlink="http://www.w3.org/1999/xlink">
<g id="graph0" class="graph" transform="scale(1 1) rotate(0) translate(4 73)">
<title>stride::LOG_POLICY&lt; ContactLogMode::Id::Transmissions &gt;::Trans</title>
<polygon fill="white" stroke="none" points="-4,4 -4,-73 288,-73 288,4 -4,4"/>
<!-- Node1 -->
<g id="node1" class="node"><title>Node1</title>
<polygon fill="#bfbfbf" stroke="black" points="0,-16.5 0,-57.5 126,-57.5 126,-16.5 0,-16.5"/>
<text text-anchor="start" x="8" y="-45.5" font-family="Helvetica,sans-Serif" font-size="10.00">stride::LOG_POLICY</text>
<text text-anchor="start" x="8" y="-34.5" font-family="Helvetica,sans-Serif" font-size="10.00">&lt; ContactLogMode::Id</text>
<text text-anchor="middle" x="63" y="-23.5" font-family="Helvetica,sans-Serif" font-size="10.00">::Transmissions &gt;::Trans</text>
</g>
<!-- Node2 -->
<g id="node2" class="node"><title>Node2</title>
<g id="a_node2"><a xlink:href="../../d0/d5e/a00136.html#afab3ab2a1a33004f9e25d4873c3c1921" target="_top" xlink:title="Get the id. ">
<polygon fill="white" stroke="black" points="169.5,-49.5 169.5,-68.5 276.5,-68.5 276.5,-49.5 169.5,-49.5"/>
<text text-anchor="middle" x="223" y="-56.5" font-family="Helvetica,sans-Serif" font-size="10.00">stride::Person::GetId</text>
</a>
</g>
</g>
<!-- Node1&#45;&gt;Node2 -->
<g id="edge1" class="edge"><title>Node1&#45;&gt;Node2</title>
<path fill="none" stroke="midnightblue" d="M126.446,-45.695C137.231,-47.1968 148.448,-48.7586 159.242,-50.2615"/>
<polygon fill="midnightblue" stroke="midnightblue" points="159.046,-53.7679 169.433,-51.6805 160.011,-46.8348 159.046,-53.7679"/>
</g>
<!-- Node3 -->
<g id="node3" class="node"><title>Node3</title>
<g id="a_node3"><a xlink:href="../../db/d2c/a00466.html#a025f9ff3cf2df8c0c8b95e48724d9b7c" target="_top" xlink:title="Converts a LogMode value to corresponding name. ">
<polygon fill="white" stroke="black" points="162.5,-0 162.5,-30 283.5,-30 283.5,-0 162.5,-0"/>
<text text-anchor="start" x="170.5" y="-18" font-family="Helvetica,sans-Serif" font-size="10.00">stride::ContactLogMode</text>
<text text-anchor="middle" x="223" y="-7" font-family="Helvetica,sans-Serif" font-size="10.00">::ToString</text>
</a>
</g>
</g>
<!-- Node1&#45;&gt;Node3 -->
<g id="edge2" class="edge"><title>Node1&#45;&gt;Node3</title>
<path fill="none" stroke="midnightblue" d="M126.446,-28.305C134.939,-27.1224 143.7,-25.9025 152.312,-24.7034"/>
<polygon fill="midnightblue" stroke="midnightblue" points="152.905,-28.1547 162.327,-23.3089 151.94,-21.2216 152.905,-28.1547"/>
</g>
</g>
</svg>
