<?xml version="1.0" encoding="UTF-8" standalone="no"?>
<!DOCTYPE svg PUBLIC "-//W3C//DTD SVG 1.1//EN"
 "http://www.w3.org/Graphics/SVG/1.1/DTD/svg11.dtd">
<!-- Generated by graphviz version 2.36.0 (20140111.2315)
 -->
<!-- Title: gengeopop::kd::Node&lt; P, D &gt; Pages: 1 -->
<svg width="321pt" height="422pt"
 viewBox="0.00 0.00 321.00 422.00" xmlns="http://www.w3.org/2000/svg" xmlns:xlink="http://www.w3.org/1999/xlink">
<g id="graph0" class="graph" transform="scale(1 1) rotate(0) translate(4 418)">
<title>gengeopop::kd::Node&lt; P, D &gt;</title>
<polygon fill="white" stroke="none" points="-4,4 -4,-418 317,-418 317,4 -4,4"/>
<!-- Node1 -->
<g id="node1" class="node"><title>Node1</title>
<polygon fill="#bfbfbf" stroke="black" points="157,-128.5 157,-251.5 267,-251.5 267,-128.5 157,-128.5"/>
<text text-anchor="start" x="165" y="-239.5" font-family="Helvetica,sans-Serif" font-size="10.00">gengeopop::kd::Node</text>
<text text-anchor="middle" x="212" y="-228.5" font-family="Helvetica,sans-Serif" font-size="10.00">&lt; P, D &gt;</text>
<polyline fill="none" stroke="black" points="157,-221.5 267,-221.5 "/>
<text text-anchor="middle" x="212" y="-209.5" font-family="Helvetica,sans-Serif" font-size="10.00"> </text>
<polyline fill="none" stroke="black" points="157,-202.5 267,-202.5 "/>
<text text-anchor="start" x="165" y="-190.5" font-family="Helvetica,sans-Serif" font-size="10.00">+ Node()</text>
<text text-anchor="start" x="165" y="-179.5" font-family="Helvetica,sans-Serif" font-size="10.00">+ BorrowLeft()</text>
<text text-anchor="start" x="165" y="-168.5" font-family="Helvetica,sans-Serif" font-size="10.00">+ BorrowRight()</text>
<text text-anchor="start" x="165" y="-157.5" font-family="Helvetica,sans-Serif" font-size="10.00">+ BorrowSplitChild()</text>
<text text-anchor="start" x="165" y="-146.5" font-family="Helvetica,sans-Serif" font-size="10.00">+ AddChild()</text>
<text text-anchor="start" x="165" y="-135.5" font-family="Helvetica,sans-Serif" font-size="10.00">+ GetPoint()</text>
</g>
<!-- Node3 -->
<g id="node3" class="node"><title>Node3</title>
<polygon fill="white" stroke="#bfbfbf" points="121.5,-1 121.5,-69 258.5,-69 258.5,-1 121.5,-1"/>
<text text-anchor="start" x="129.5" y="-57" font-family="Helvetica,sans-Serif" font-size="10.00">std::unique_ptr&lt; gengeopop</text>
<text text-anchor="middle" x="190" y="-46" font-family="Helvetica,sans-Serif" font-size="10.00">::kd::Node &gt;</text>
<polyline fill="none" stroke="#bfbfbf" points="121.5,-39 258.5,-39 "/>
<text text-anchor="middle" x="190" y="-27" font-family="Helvetica,sans-Serif" font-size="10.00"> </text>
<polyline fill="none" stroke="#bfbfbf" points="121.5,-20 258.5,-20 "/>
<text text-anchor="start" x="129.5" y="-8" font-family="Helvetica,sans-Serif" font-size="10.00">+ operator&#45;&gt;()</text>
</g>
<!-- Node1&#45;&gt;Node3 -->
<g id="edge3" class="edge"><title>Node1&#45;&gt;Node3</title>
<path fill="none" stroke="#404040" d="M190.731,-128.199C189.215,-122.109 187.922,-115.971 187,-110 185.507,-100.337 186.718,-97.7737 187,-88 187.063,-85.8236 187.14,-83.5965 187.229,-81.3477"/>
<polygon fill="none" stroke="#404040" points="187.233,-81.2629 183.518,-75.0823 187.794,-69.276 191.509,-75.4566 187.233,-81.2629"/>
<text text-anchor="middle" x="197.5" y="-96.5" font-family="Helvetica,sans-Serif" font-size="10.00"> +ptr</text>
</g>
<!-- Node2 -->
<g id="node2" class="node"><title>Node2</title>
<g id="a_node2"><a xlink:href="../../d7/d46/a00002.html" target="_top" xlink:title="{gengeopop::kd::BaseNode\&lt; P \&gt;\n||+ ~BaseNode()\l+ BorrowLeft()\l+ BorrowRight()\l+ BorrowSplitChild()\l+ AddChild()\l+ GetPoint()\l}">
<polygon fill="white" stroke="black" points="108.5,-301 108.5,-413 265.5,-413 265.5,-301 108.5,-301"/>
<text text-anchor="middle" x="187" y="-401" font-family="Helvetica,sans-Serif" font-size="10.00">gengeopop::kd::BaseNode&lt; P &gt;</text>
<polyline fill="none" stroke="black" points="108.5,-394 265.5,-394 "/>
<text text-anchor="middle" x="187" y="-382" font-family="Helvetica,sans-Serif" font-size="10.00"> </text>
<polyline fill="none" stroke="black" points="108.5,-375 265.5,-375 "/>
<text text-anchor="start" x="116.5" y="-363" font-family="Helvetica,sans-Serif" font-size="10.00">+ ~BaseNode()</text>
<text text-anchor="start" x="116.5" y="-352" font-family="Helvetica,sans-Serif" font-size="10.00">+ BorrowLeft()</text>
<text text-anchor="start" x="116.5" y="-341" font-family="Helvetica,sans-Serif" font-size="10.00">+ BorrowRight()</text>
<text text-anchor="start" x="116.5" y="-330" font-family="Helvetica,sans-Serif" font-size="10.00">+ BorrowSplitChild()</text>
<text text-anchor="start" x="116.5" y="-319" font-family="Helvetica,sans-Serif" font-size="10.00">+ AddChild()</text>
<text text-anchor="start" x="116.5" y="-308" font-family="Helvetica,sans-Serif" font-size="10.00">+ GetPoint()</text>
</a>
</g>
</g>
<!-- Node2&#45;&gt;Node1 -->
<g id="edge1" class="edge"><title>Node2&#45;&gt;Node1</title>
<path fill="none" stroke="midnightblue" d="M196.928,-290.473C198.869,-277.664 200.896,-264.284 202.812,-251.642"/>
<polygon fill="none" stroke="midnightblue" points="193.432,-290.187 195.394,-300.598 200.353,-291.236 193.432,-290.187"/>
</g>
<!-- Node3&#45;&gt;Node1 -->
<g id="edge2" class="edge"><title>Node3&#45;&gt;Node1</title>
<path fill="none" stroke="#404040" d="M206.35,-69.2173C208.692,-75.3297 210.733,-81.7555 212,-88 213.838,-97.0623 214.919,-106.677 215.477,-116.231"/>
<polygon fill="none" stroke="#404040" points="215.478,-116.264 219.696,-122.112 215.921,-128.256 211.702,-122.408 215.478,-116.264"/>
<text text-anchor="middle" x="234" y="-102" font-family="Helvetica,sans-Serif" font-size="10.00"> &#45;m_left</text>
<text text-anchor="middle" x="234" y="-91" font-family="Helvetica,sans-Serif" font-size="10.00">&#45;m_right</text>
</g>
<!-- Node4 -->
<g id="node4" class="node"><title>Node4</title>
<g id="a_node4"><a xlink:title="STL class. ">
<polygon fill="white" stroke="#bfbfbf" points="-0.5,-161.5 -0.5,-218.5 104.5,-218.5 104.5,-161.5 -0.5,-161.5"/>
<text text-anchor="middle" x="52" y="-206.5" font-family="Helvetica,sans-Serif" font-size="10.00">std::unique_ptr&lt; T &gt;</text>
<polyline fill="none" stroke="#bfbfbf" points="-0.5,-199.5 104.5,-199.5 "/>
<text text-anchor="middle" x="52" y="-187.5" font-family="Helvetica,sans-Serif" font-size="10.00"> </text>
<polyline fill="none" stroke="#bfbfbf" points="-0.5,-180.5 104.5,-180.5 "/>
<text text-anchor="start" x="7.5" y="-168.5" font-family="Helvetica,sans-Serif" font-size="10.00">+ operator&#45;&gt;()</text>
</a>
</g>
</g>
<!-- Node4&#45;&gt;Node3 -->
<g id="edge4" class="edge"><title>Node4&#45;&gt;Node3</title>
<path fill="none" stroke="orange" d="M49.5346,-151.259C50.1106,-130.619 54.1744,-105.723 68,-88 81.3122,-70.9355 101.297,-59.3918 121.26,-51.6153"/>
<polygon fill="orange" stroke="orange" points="46.0346,-151.293 49.5111,-161.301 53.0346,-151.309 46.0346,-151.293"/>
<text text-anchor="middle" x="125.5" y="-96.5" font-family="Helvetica,sans-Serif" font-size="10.00"> &lt; gengeopop::kd::Node &gt;</text>
</g>
<!-- Node5 -->
<g id="node5" class="node"><title>Node5</title>
<polygon fill="white" stroke="#bfbfbf" points="37.5,-328.5 37.5,-385.5 66.5,-385.5 66.5,-328.5 37.5,-328.5"/>
<text text-anchor="middle" x="52" y="-373.5" font-family="Helvetica,sans-Serif" font-size="10.00">T</text>
<polyline fill="none" stroke="#bfbfbf" points="37.5,-366.5 66.5,-366.5 "/>
<text text-anchor="middle" x="52" y="-354.5" font-family="Helvetica,sans-Serif" font-size="10.00"> </text>
<polyline fill="none" stroke="#bfbfbf" points="37.5,-347.5 66.5,-347.5 "/>
<text text-anchor="middle" x="52" y="-335.5" font-family="Helvetica,sans-Serif" font-size="10.00"> </text>
</g>
<!-- Node5&#45;&gt;Node4 -->
<g id="edge5" class="edge"><title>Node5&#45;&gt;Node4</title>
<path fill="none" stroke="#404040" d="M52,-328.383C52,-301.732 52,-261.097 52,-230.926"/>
<polygon fill="none" stroke="#404040" points="52.0001,-230.707 48,-224.707 52,-218.707 56,-224.707 52.0001,-230.707"/>
<text text-anchor="middle" x="62.5" y="-273.5" font-family="Helvetica,sans-Serif" font-size="10.00"> +ptr</text>
</g>
<!-- Node6 -->
<g id="node6" class="node"><title>Node6</title>
<polygon fill="white" stroke="#bfbfbf" points="283.5,-328.5 283.5,-385.5 312.5,-385.5 312.5,-328.5 283.5,-328.5"/>
<text text-anchor="middle" x="298" y="-373.5" font-family="Helvetica,sans-Serif" font-size="10.00">P</text>
<polyline fill="none" stroke="#bfbfbf" points="283.5,-366.5 312.5,-366.5 "/>
<text text-anchor="middle" x="298" y="-354.5" font-family="Helvetica,sans-Serif" font-size="10.00"> </text>
<polyline fill="none" stroke="#bfbfbf" points="283.5,-347.5 312.5,-347.5 "/>
<text text-anchor="middle" x="298" y="-335.5" font-family="Helvetica,sans-Serif" font-size="10.00"> </text>
</g>
<!-- Node6&#45;&gt;Node1 -->
<g id="edge6" class="edge"><title>Node6&#45;&gt;Node1</title>
<path fill="none" stroke="#404040" d="M286.888,-328.376C283.022,-319.243 278.517,-309.094 274,-300 267.895,-287.71 261.037,-274.863 254.168,-262.479"/>
<polygon fill="none" stroke="#404040" points="254.016,-262.209 247.593,-258.932 248.147,-251.742 254.57,-255.019 254.016,-262.209"/>
<text text-anchor="middle" x="285.5" y="-273.5" font-family="Helvetica,sans-Serif" font-size="10.00"> &#45;m_point</text>
</g>
</g>
</svg>
