<?xml version="1.0" encoding="UTF-8" standalone="no"?>
<!DOCTYPE svg PUBLIC "-//W3C//DTD SVG 1.1//EN"
 "http://www.w3.org/Graphics/SVG/1.1/DTD/svg11.dtd">
<!-- Generated by graphviz version 2.36.0 (20140111.2315)
 -->
<!-- Title: proto::GeoGrid_Location_ContactCenter Pages: 1 -->
<svg width="745pt" height="690pt"
 viewBox="0.00 0.00 745.00 690.00" xmlns="http://www.w3.org/2000/svg" xmlns:xlink="http://www.w3.org/1999/xlink">
<g id="graph0" class="graph" transform="scale(1 1) rotate(0) translate(4 686)">
<title>proto::GeoGrid_Location_ContactCenter</title>
<polygon fill="white" stroke="none" points="-4,4 -4,-686 741,-686 741,4 -4,4"/>
<!-- Node1 -->
<g id="node1" class="node"><title>Node1</title>
<polygon fill="#bfbfbf" stroke="black" points="206,-0.5 206,-453.5 376,-453.5 376,-0.5 206,-0.5"/>
<text text-anchor="start" x="214" y="-441.5" font-family="Helvetica,sans-Serif" font-size="10.00">proto::GeoGrid_Location</text>
<text text-anchor="middle" x="291" y="-430.5" font-family="Helvetica,sans-Serif" font-size="10.00">_ContactCenter</text>
<polyline fill="none" stroke="black" points="206,-423.5 376,-423.5 "/>
<text text-anchor="middle" x="291" y="-411.5" font-family="Helvetica,sans-Serif" font-size="10.00"> </text>
<polyline fill="none" stroke="black" points="206,-404.5 376,-404.5 "/>
<text text-anchor="start" x="214" y="-392.5" font-family="Helvetica,sans-Serif" font-size="10.00">+ GeoGrid_Location_Contact</text>
<text text-anchor="start" x="214" y="-381.5" font-family="Helvetica,sans-Serif" font-size="10.00">Center()</text>
<text text-anchor="start" x="214" y="-370.5" font-family="Helvetica,sans-Serif" font-size="10.00">+ ~GeoGrid_Location_Contact</text>
<text text-anchor="start" x="214" y="-359.5" font-family="Helvetica,sans-Serif" font-size="10.00">Center()</text>
<text text-anchor="start" x="214" y="-348.5" font-family="Helvetica,sans-Serif" font-size="10.00">+ GeoGrid_Location_Contact</text>
<text text-anchor="start" x="214" y="-337.5" font-family="Helvetica,sans-Serif" font-size="10.00">Center()</text>
<text text-anchor="start" x="214" y="-326.5" font-family="Helvetica,sans-Serif" font-size="10.00">+ operator=()</text>
<text text-anchor="start" x="214" y="-315.5" font-family="Helvetica,sans-Serif" font-size="10.00">+ unknown_fields()</text>
<text text-anchor="start" x="214" y="-304.5" font-family="Helvetica,sans-Serif" font-size="10.00">+ mutable_unknown_fields()</text>
<text text-anchor="start" x="214" y="-293.5" font-family="Helvetica,sans-Serif" font-size="10.00">+ Swap()</text>
<text text-anchor="start" x="214" y="-282.5" font-family="Helvetica,sans-Serif" font-size="10.00">+ New()</text>
<text text-anchor="start" x="214" y="-271.5" font-family="Helvetica,sans-Serif" font-size="10.00">+ New()</text>
<text text-anchor="start" x="214" y="-260.5" font-family="Helvetica,sans-Serif" font-size="10.00">+ CopyFrom()</text>
<text text-anchor="start" x="214" y="-249.5" font-family="Helvetica,sans-Serif" font-size="10.00">and 26 more...</text>
<text text-anchor="start" x="214" y="-238.5" font-family="Helvetica,sans-Serif" font-size="10.00">+ descriptor()</text>
<text text-anchor="start" x="214" y="-227.5" font-family="Helvetica,sans-Serif" font-size="10.00">+ default_instance()</text>
<text text-anchor="start" x="214" y="-216.5" font-family="Helvetica,sans-Serif" font-size="10.00">+ InitAsDefaultInstance()</text>
<text text-anchor="start" x="214" y="-205.5" font-family="Helvetica,sans-Serif" font-size="10.00">+ internal_default_instance()</text>
<text text-anchor="start" x="214" y="-194.5" font-family="Helvetica,sans-Serif" font-size="10.00">+ Type_IsValid()</text>
<text text-anchor="start" x="214" y="-183.5" font-family="Helvetica,sans-Serif" font-size="10.00">+ Type_descriptor()</text>
<text text-anchor="start" x="214" y="-172.5" font-family="Helvetica,sans-Serif" font-size="10.00">+ Type_Name()</text>
<text text-anchor="start" x="214" y="-161.5" font-family="Helvetica,sans-Serif" font-size="10.00">+ Type_Parse()</text>
<text text-anchor="start" x="214" y="-150.5" font-family="Helvetica,sans-Serif" font-size="10.00">&#45; SharedCtor()</text>
<text text-anchor="start" x="214" y="-139.5" font-family="Helvetica,sans-Serif" font-size="10.00">&#45; SharedDtor()</text>
<text text-anchor="start" x="214" y="-128.5" font-family="Helvetica,sans-Serif" font-size="10.00">&#45; SetCachedSize()</text>
<text text-anchor="start" x="214" y="-117.5" font-family="Helvetica,sans-Serif" font-size="10.00">&#45; InternalSwap()</text>
<text text-anchor="start" x="214" y="-106.5" font-family="Helvetica,sans-Serif" font-size="10.00">&#45; GetArenaNoVirtual()</text>
<text text-anchor="start" x="214" y="-95.5" font-family="Helvetica,sans-Serif" font-size="10.00">&#45; MaybeArenaPtr()</text>
<text text-anchor="start" x="214" y="-84.5" font-family="Helvetica,sans-Serif" font-size="10.00">&#45; set_has_id()</text>
<text text-anchor="start" x="214" y="-73.5" font-family="Helvetica,sans-Serif" font-size="10.00">&#45; clear_has_id()</text>
<text text-anchor="start" x="214" y="-62.5" font-family="Helvetica,sans-Serif" font-size="10.00">&#45; set_has_type()</text>
<text text-anchor="start" x="214" y="-51.5" font-family="Helvetica,sans-Serif" font-size="10.00">&#45; clear_has_type()</text>
<text text-anchor="start" x="214" y="-40.5" font-family="Helvetica,sans-Serif" font-size="10.00">&#45; RequiredFieldsByteSizeFallback()</text>
<text text-anchor="start" x="214" y="-29.5" font-family="Helvetica,sans-Serif" font-size="10.00">&#45; void::protobuf_geogrid</text>
<text text-anchor="start" x="214" y="-18.5" font-family="Helvetica,sans-Serif" font-size="10.00">_2eproto::InitDefaultsGeoGrid</text>
<text text-anchor="start" x="214" y="-7.5" font-family="Helvetica,sans-Serif" font-size="10.00">_Location_ContactCenterImpl()</text>
</g>
<!-- Node2 -->
<g id="node2" class="node"><title>Node2</title>
<g id="a_node2"><a xlink:href="../../d9/da5/a00075.html" target="_top" xlink:title="{Message\n||}">
<polygon fill="white" stroke="black" points="0,-607.5 0,-664.5 56,-664.5 56,-607.5 0,-607.5"/>
<text text-anchor="middle" x="28" y="-652.5" font-family="Helvetica,sans-Serif" font-size="10.00">Message</text>
<polyline fill="none" stroke="black" points="0,-645.5 56,-645.5 "/>
<text text-anchor="middle" x="28" y="-633.5" font-family="Helvetica,sans-Serif" font-size="10.00"> </text>
<polyline fill="none" stroke="black" points="0,-626.5 56,-626.5 "/>
<text text-anchor="middle" x="28" y="-614.5" font-family="Helvetica,sans-Serif" font-size="10.00"> </text>
</a>
</g>
</g>
<!-- Node2&#45;&gt;Node1 -->
<g id="edge1" class="edge"><title>Node2&#45;&gt;Node1</title>
<path fill="none" stroke="midnightblue" d="M46.7095,-598.381C64.1699,-564.895 91.4486,-514.292 118,-472 145.128,-428.79 176.915,-382.808 205.789,-342.545"/>
<polygon fill="none" stroke="midnightblue" points="43.5544,-596.862 42.0539,-607.35 49.7673,-600.087 43.5544,-596.862"/>
</g>
<!-- Node3 -->
<g id="node3" class="node"><title>Node3</title>
<polygon fill="white" stroke="#bfbfbf" points="74,-607.5 74,-664.5 112,-664.5 112,-607.5 74,-607.5"/>
<text text-anchor="middle" x="93" y="-652.5" font-family="Helvetica,sans-Serif" font-size="10.00">int64</text>
<polyline fill="none" stroke="#bfbfbf" points="74,-645.5 112,-645.5 "/>
<text text-anchor="middle" x="93" y="-633.5" font-family="Helvetica,sans-Serif" font-size="10.00"> </text>
<polyline fill="none" stroke="#bfbfbf" points="74,-626.5 112,-626.5 "/>
<text text-anchor="middle" x="93" y="-614.5" font-family="Helvetica,sans-Serif" font-size="10.00"> </text>
</g>
<!-- Node3&#45;&gt;Node1 -->
<g id="edge2" class="edge"><title>Node3&#45;&gt;Node1</title>
<path fill="none" stroke="#404040" d="M104.835,-607.4C118.928,-574.819 143.404,-519.108 166,-472 176.934,-449.206 188.711,-425.366 200.512,-401.897"/>
<polygon fill="none" stroke="#404040" points="200.531,-401.86 199.66,-394.702 205.933,-391.145 206.804,-398.303 200.531,-401.86"/>
<text text-anchor="middle" x="175.5" y="-519.5" font-family="Helvetica,sans-Serif" font-size="10.00"> &#45;id_</text>
</g>
<!-- Node4 -->
<g id="node4" class="node"><title>Node4</title>
<polygon fill="white" stroke="#bfbfbf" points="130.5,-607.5 130.5,-664.5 205.5,-664.5 205.5,-607.5 130.5,-607.5"/>
<text text-anchor="middle" x="168" y="-652.5" font-family="Helvetica,sans-Serif" font-size="10.00">HasBits&lt; 1 &gt;</text>
<polyline fill="none" stroke="#bfbfbf" points="130.5,-645.5 205.5,-645.5 "/>
<text text-anchor="middle" x="168" y="-633.5" font-family="Helvetica,sans-Serif" font-size="10.00"> </text>
<polyline fill="none" stroke="#bfbfbf" points="130.5,-626.5 205.5,-626.5 "/>
<text text-anchor="middle" x="168" y="-614.5" font-family="Helvetica,sans-Serif" font-size="10.00"> </text>
</g>
<!-- Node4&#45;&gt;Node1 -->
<g id="edge3" class="edge"><title>Node4&#45;&gt;Node1</title>
<path fill="none" stroke="#404040" d="M176.358,-607.345C185.761,-576.231 202.002,-522.488 219.352,-465.079"/>
<polygon fill="none" stroke="#404040" points="219.364,-465.041 217.27,-458.14 222.835,-453.554 224.928,-460.454 219.364,-465.041"/>
<text text-anchor="middle" x="242" y="-519.5" font-family="Helvetica,sans-Serif" font-size="10.00"> &#45;_has_bits_</text>
</g>
<!-- Node5 -->
<g id="node5" class="node"><title>Node5</title>
<polygon fill="white" stroke="#bfbfbf" points="223.5,-607.5 223.5,-664.5 358.5,-664.5 358.5,-607.5 223.5,-607.5"/>
<text text-anchor="middle" x="291" y="-652.5" font-family="Helvetica,sans-Serif" font-size="10.00">InternalMetadataWithArena</text>
<polyline fill="none" stroke="#bfbfbf" points="223.5,-645.5 358.5,-645.5 "/>
<text text-anchor="middle" x="291" y="-633.5" font-family="Helvetica,sans-Serif" font-size="10.00"> </text>
<polyline fill="none" stroke="#bfbfbf" points="223.5,-626.5 358.5,-626.5 "/>
<text text-anchor="middle" x="291" y="-614.5" font-family="Helvetica,sans-Serif" font-size="10.00"> </text>
</g>
<!-- Node5&#45;&gt;Node1 -->
<g id="edge4" class="edge"><title>Node5&#45;&gt;Node1</title>
<path fill="none" stroke="#404040" d="M291,-607.345C291,-576.36 291,-522.936 291,-465.796"/>
<polygon fill="none" stroke="#404040" points="291,-465.554 287,-459.554 291,-453.554 295,-459.554 291,-465.554"/>
<text text-anchor="middle" x="338" y="-519.5" font-family="Helvetica,sans-Serif" font-size="10.00"> &#45;_internal_metadata_</text>
</g>
<!-- Node6 -->
<g id="node6" class="node"><title>Node6</title>
<polygon fill="white" stroke="#bfbfbf" points="377,-607.5 377,-664.5 469,-664.5 469,-607.5 377,-607.5"/>
<text text-anchor="middle" x="423" y="-652.5" font-family="Helvetica,sans-Serif" font-size="10.00">static const Type</text>
<polyline fill="none" stroke="#bfbfbf" points="377,-645.5 469,-645.5 "/>
<text text-anchor="middle" x="423" y="-633.5" font-family="Helvetica,sans-Serif" font-size="10.00"> </text>
<polyline fill="none" stroke="#bfbfbf" points="377,-626.5 469,-626.5 "/>
<text text-anchor="middle" x="423" y="-614.5" font-family="Helvetica,sans-Serif" font-size="10.00"> </text>
</g>
<!-- Node6&#45;&gt;Node1 -->
<g id="edge5" class="edge"><title>Node6&#45;&gt;Node1</title>
<path fill="none" stroke="#404040" d="M418.743,-607.23C413.372,-574.488 403.105,-518.623 389,-472 386.181,-462.681 383.151,-453.221 379.965,-443.708"/>
<polygon fill="none" stroke="#404040" points="379.875,-443.444 374.154,-439.054 376.006,-432.085 381.727,-436.474 379.875,-443.444"/>
<text text-anchor="middle" x="463.5" y="-563.5" font-family="Helvetica,sans-Serif" font-size="10.00"> +College</text>
<text text-anchor="middle" x="463.5" y="-552.5" font-family="Helvetica,sans-Serif" font-size="10.00">+Type_MIN</text>
<text text-anchor="middle" x="463.5" y="-541.5" font-family="Helvetica,sans-Serif" font-size="10.00">+Type_MAX</text>
<text text-anchor="middle" x="463.5" y="-530.5" font-family="Helvetica,sans-Serif" font-size="10.00">+SecondaryCommunity</text>
<text text-anchor="middle" x="463.5" y="-519.5" font-family="Helvetica,sans-Serif" font-size="10.00">+Household</text>
<text text-anchor="middle" x="463.5" y="-508.5" font-family="Helvetica,sans-Serif" font-size="10.00">+Community</text>
<text text-anchor="middle" x="463.5" y="-497.5" font-family="Helvetica,sans-Serif" font-size="10.00">+PrimaryCommunity</text>
<text text-anchor="middle" x="463.5" y="-486.5" font-family="Helvetica,sans-Serif" font-size="10.00">+Workplace</text>
<text text-anchor="middle" x="463.5" y="-475.5" font-family="Helvetica,sans-Serif" font-size="10.00">+K12School</text>
</g>
<!-- Node7 -->
<g id="node7" class="node"><title>Node7</title>
<polygon fill="white" stroke="#bfbfbf" points="487,-591 487,-681 615,-681 615,-591 487,-591"/>
<text text-anchor="start" x="495" y="-669" font-family="Helvetica,sans-Serif" font-size="10.00">RepeatedPtrField&lt; </text>
<text text-anchor="start" x="495" y="-658" font-family="Helvetica,sans-Serif" font-size="10.00">::proto::proto::GeoGrid</text>
<text text-anchor="start" x="495" y="-647" font-family="Helvetica,sans-Serif" font-size="10.00">_Location_ContactCenter</text>
<text text-anchor="middle" x="551" y="-636" font-family="Helvetica,sans-Serif" font-size="10.00">_ContactPool &gt;</text>
<polyline fill="none" stroke="#bfbfbf" points="487,-629 615,-629 "/>
<text text-anchor="middle" x="551" y="-617" font-family="Helvetica,sans-Serif" font-size="10.00"> </text>
<polyline fill="none" stroke="#bfbfbf" points="487,-610 615,-610 "/>
<text text-anchor="middle" x="551" y="-598" font-family="Helvetica,sans-Serif" font-size="10.00"> </text>
</g>
<!-- Node7&#45;&gt;Node1 -->
<g id="edge6" class="edge"><title>Node7&#45;&gt;Node1</title>
<path fill="none" stroke="#404040" d="M548.939,-590.991C545.829,-556.906 538.104,-509.359 519,-472 486.516,-408.473 432.572,-349.635 385.308,-305.66"/>
<polygon fill="none" stroke="#404040" points="385.096,-305.465 377.972,-304.35 376.261,-297.345 383.385,-298.46 385.096,-305.465"/>
<text text-anchor="middle" x="564.5" y="-519.5" font-family="Helvetica,sans-Serif" font-size="10.00"> &#45;pools_</text>
</g>
<!-- Node8 -->
<g id="node8" class="node"><title>Node8</title>
<polygon fill="white" stroke="#bfbfbf" points="633.5,-607.5 633.5,-664.5 662.5,-664.5 662.5,-607.5 633.5,-607.5"/>
<text text-anchor="middle" x="648" y="-652.5" font-family="Helvetica,sans-Serif" font-size="10.00">int</text>
<polyline fill="none" stroke="#bfbfbf" points="633.5,-645.5 662.5,-645.5 "/>
<text text-anchor="middle" x="648" y="-633.5" font-family="Helvetica,sans-Serif" font-size="10.00"> </text>
<polyline fill="none" stroke="#bfbfbf" points="633.5,-626.5 662.5,-626.5 "/>
<text text-anchor="middle" x="648" y="-614.5" font-family="Helvetica,sans-Serif" font-size="10.00"> </text>
</g>
<!-- Node8&#45;&gt;Node1 -->
<g id="edge7" class="edge"><title>Node8&#45;&gt;Node1</title>
<path fill="none" stroke="#404040" d="M642.078,-607.244C633.787,-573.02 616.238,-514.212 586,-472 532.361,-397.12 450.344,-331.806 386.393,-287.645"/>
<polygon fill="none" stroke="#404040" points="386.199,-287.512 378.988,-287.429 376.292,-280.741 383.503,-280.824 386.199,-287.512"/>
<text text-anchor="middle" x="684.5" y="-552.5" font-family="Helvetica,sans-Serif" font-size="10.00"> &#45;type_</text>
<text text-anchor="middle" x="684.5" y="-541.5" font-family="Helvetica,sans-Serif" font-size="10.00">+kPoolsFieldNumber</text>
<text text-anchor="middle" x="684.5" y="-530.5" font-family="Helvetica,sans-Serif" font-size="10.00">+kIdFieldNumber</text>
<text text-anchor="middle" x="684.5" y="-519.5" font-family="Helvetica,sans-Serif" font-size="10.00">&#45;_cached_size_</text>
<text text-anchor="middle" x="684.5" y="-508.5" font-family="Helvetica,sans-Serif" font-size="10.00">+Type_ARRAYSIZE</text>
<text text-anchor="middle" x="684.5" y="-497.5" font-family="Helvetica,sans-Serif" font-size="10.00">+kIndexInFileMessages</text>
<text text-anchor="middle" x="684.5" y="-486.5" font-family="Helvetica,sans-Serif" font-size="10.00">+kTypeFieldNumber</text>
</g>
</g>
</svg>
