<?xml version="1.0" encoding="UTF-8" standalone="no"?>
<!DOCTYPE svg PUBLIC "-//W3C//DTD SVG 1.1//EN"
 "http://www.w3.org/Graphics/SVG/1.1/DTD/svg11.dtd">
<!-- Generated by graphviz version 2.36.0 (20140111.2315)
 -->
<!-- Title: Community.h Pages: 1 -->
<svg width="1085pt" height="140pt"
 viewBox="0.00 0.00 1085.00 140.00" xmlns="http://www.w3.org/2000/svg" xmlns:xlink="http://www.w3.org/1999/xlink">
<g id="graph0" class="graph" transform="scale(1 1) rotate(0) translate(4 136)">
<title>Community.h</title>
<polygon fill="white" stroke="none" points="-4,4 -4,-136 1081,-136 1081,4 -4,4"/>
<!-- Node1 -->
<g id="node1" class="node"><title>Node1</title>
<polygon fill="#bfbfbf" stroke="black" points="545.5,-112.5 545.5,-131.5 620.5,-131.5 620.5,-112.5 545.5,-112.5"/>
<text text-anchor="middle" x="583" y="-119.5" font-family="Helvetica,sans-Serif" font-size="10.00">Community.h</text>
</g>
<!-- Node2 -->
<g id="node2" class="node"><title>Node2</title>
<g id="a_node2"><a xlink:href="../../d6/d43/a00216.html" target="_top" xlink:title="Community.cpp">
<polygon fill="white" stroke="black" points="288,-56.5 288,-75.5 374,-75.5 374,-56.5 288,-56.5"/>
<text text-anchor="middle" x="331" y="-63.5" font-family="Helvetica,sans-Serif" font-size="10.00">Community.cpp</text>
</a>
</g>
</g>
<!-- Node1&#45;&gt;Node2 -->
<g id="edge1" class="edge"><title>Node1&#45;&gt;Node2</title>
<path fill="none" stroke="midnightblue" d="M535.234,-110.764C487.731,-100.585 415.679,-85.1454 371.07,-75.5865"/>
<polygon fill="midnightblue" stroke="midnightblue" points="534.762,-114.243 545.273,-112.916 536.228,-107.398 534.762,-114.243"/>
</g>
<!-- Node3 -->
<g id="node3" class="node"><title>Node3</title>
<g id="a_node3"><a xlink:href="../../d6/db8/a00376.html" target="_top" xlink:title="PrimaryCommunity.h">
<polygon fill="white" stroke="black" points="570.5,-56.5 570.5,-75.5 679.5,-75.5 679.5,-56.5 570.5,-56.5"/>
<text text-anchor="middle" x="625" y="-63.5" font-family="Helvetica,sans-Serif" font-size="10.00">PrimaryCommunity.h</text>
</a>
</g>
</g>
<!-- Node1&#45;&gt;Node3 -->
<g id="edge2" class="edge"><title>Node1&#45;&gt;Node3</title>
<path fill="none" stroke="midnightblue" d="M596.11,-104.144C603.428,-94.7357 612.241,-83.4046 618.194,-75.7511"/>
<polygon fill="midnightblue" stroke="midnightblue" points="593.312,-102.041 589.935,-112.083 598.838,-106.338 593.312,-102.041"/>
</g>
<!-- Node5 -->
<g id="node5" class="node"><title>Node5</title>
<g id="a_node5"><a xlink:href="../../dc/d28/a00276.html" target="_top" xlink:title="GeoGridJSONReader.cpp">
<polygon fill="white" stroke="black" points="487,-0.5 487,-19.5 617,-19.5 617,-0.5 487,-0.5"/>
<text text-anchor="middle" x="552" y="-7.5" font-family="Helvetica,sans-Serif" font-size="10.00">GeoGridJSONReader.cpp</text>
</a>
</g>
</g>
<!-- Node1&#45;&gt;Node5 -->
<g id="edge14" class="edge"><title>Node1&#45;&gt;Node5</title>
<path fill="none" stroke="midnightblue" d="M572.845,-103.522C568.552,-95.3991 563.887,-85.4613 561,-76 555.015,-56.3864 552.997,-32.2194 552.326,-19.5989"/>
<polygon fill="midnightblue" stroke="midnightblue" points="569.843,-105.326 577.752,-112.376 575.966,-101.933 569.843,-105.326"/>
</g>
<!-- Node6 -->
<g id="node6" class="node"><title>Node6</title>
<g id="a_node6"><a xlink:href="../../dc/dc9/a00282.html" target="_top" xlink:title="GeoGridProtoReader.cpp">
<polygon fill="white" stroke="black" points="635,-0.5 635,-19.5 761,-19.5 761,-0.5 635,-0.5"/>
<text text-anchor="middle" x="698" y="-7.5" font-family="Helvetica,sans-Serif" font-size="10.00">GeoGridProtoReader.cpp</text>
</a>
</g>
</g>
<!-- Node1&#45;&gt;Node6 -->
<g id="edge15" class="edge"><title>Node1&#45;&gt;Node6</title>
<path fill="none" stroke="midnightblue" d="M630.39,-111.607C651.154,-105.069 673.947,-94.1345 688,-76 700.868,-59.3944 700.405,-33.0802 699.126,-19.5921"/>
<polygon fill="midnightblue" stroke="midnightblue" points="629.36,-108.261 620.72,-114.393 631.298,-114.987 629.36,-108.261"/>
</g>
<!-- Node9 -->
<g id="node9" class="node"><title>Node9</title>
<g id="a_node9"><a xlink:href="../../dc/dc9/a00389.html" target="_top" xlink:title="SecondaryCommunity.h">
<polygon fill="white" stroke="black" points="392,-56.5 392,-75.5 514,-75.5 514,-56.5 392,-56.5"/>
<text text-anchor="middle" x="453" y="-63.5" font-family="Helvetica,sans-Serif" font-size="10.00">SecondaryCommunity.h</text>
</a>
</g>
</g>
<!-- Node1&#45;&gt;Node9 -->
<g id="edge8" class="edge"><title>Node1&#45;&gt;Node9</title>
<path fill="none" stroke="midnightblue" d="M552.915,-108.503C528.543,-98.3795 494.86,-84.388 473.503,-75.5164"/>
<polygon fill="midnightblue" stroke="midnightblue" points="551.823,-111.84 562.401,-112.444 554.509,-105.375 551.823,-111.84"/>
</g>
<!-- Node12 -->
<g id="node12" class="node"><title>Node12</title>
<g id="a_node12"><a xlink:href="../../df/d03/a00348.html" target="_top" xlink:title="main.cpp">
<polygon fill="white" stroke="black" points="736,-56.5 736,-75.5 792,-75.5 792,-56.5 736,-56.5"/>
<text text-anchor="middle" x="764" y="-63.5" font-family="Helvetica,sans-Serif" font-size="10.00">main.cpp</text>
</a>
</g>
</g>
<!-- Node1&#45;&gt;Node12 -->
<g id="edge16" class="edge"><title>Node1&#45;&gt;Node12</title>
<path fill="none" stroke="midnightblue" d="M621.349,-109.559C655.603,-99.3395 704.988,-84.6059 735.752,-75.4275"/>
<polygon fill="midnightblue" stroke="midnightblue" points="620.262,-106.231 611.68,-112.444 622.263,-112.938 620.262,-106.231"/>
</g>
<!-- Node4 -->
<g id="node4" class="node"><title>Node4</title>
<g id="a_node4"><a xlink:href="../../dc/d9a/a00218.html" target="_top" xlink:title="CommunityGenerator.cpp">
<polygon fill="white" stroke="black" points="341,-0.5 341,-19.5 469,-19.5 469,-0.5 341,-0.5"/>
<text text-anchor="middle" x="405" y="-7.5" font-family="Helvetica,sans-Serif" font-size="10.00">CommunityGenerator.cpp</text>
</a>
</g>
</g>
<!-- Node3&#45;&gt;Node4 -->
<g id="edge3" class="edge"><title>Node3&#45;&gt;Node4</title>
<path fill="none" stroke="midnightblue" d="M580.282,-54.0237C538.724,-43.8232 477.687,-28.8414 439.697,-19.5164"/>
<polygon fill="midnightblue" stroke="midnightblue" points="579.594,-57.4588 590.14,-56.4435 581.263,-50.6606 579.594,-57.4588"/>
</g>
<!-- Node3&#45;&gt;Node5 -->
<g id="edge4" class="edge"><title>Node3&#45;&gt;Node5</title>
<path fill="none" stroke="midnightblue" d="M604.858,-50.1008C591.721,-40.3824 575.018,-28.0269 563.942,-19.8339"/>
<polygon fill="midnightblue" stroke="midnightblue" points="603.15,-53.1907 613.271,-56.324 607.313,-47.5631 603.15,-53.1907"/>
</g>
<!-- Node3&#45;&gt;Node6 -->
<g id="edge5" class="edge"><title>Node3&#45;&gt;Node6</title>
<path fill="none" stroke="midnightblue" d="M645.142,-50.1008C658.279,-40.3824 674.982,-28.0269 686.058,-19.8339"/>
<polygon fill="midnightblue" stroke="midnightblue" points="642.687,-47.5631 636.729,-56.324 646.85,-53.1907 642.687,-47.5631"/>
</g>
<!-- Node7 -->
<g id="node7" class="node"><title>Node7</title>
<g id="a_node7"><a xlink:href="../../d4/d13/a00377.html" target="_top" xlink:title="PrimaryCommunityPopulator.cpp">
<polygon fill="white" stroke="black" points="779.5,-0.5 779.5,-19.5 940.5,-19.5 940.5,-0.5 779.5,-0.5"/>
<text text-anchor="middle" x="860" y="-7.5" font-family="Helvetica,sans-Serif" font-size="10.00">PrimaryCommunityPopulator.cpp</text>
</a>
</g>
</g>
<!-- Node3&#45;&gt;Node7 -->
<g id="edge6" class="edge"><title>Node3&#45;&gt;Node7</title>
<path fill="none" stroke="midnightblue" d="M672.205,-54.1529C716.607,-43.95 782.185,-28.8809 822.938,-19.5164"/>
<polygon fill="midnightblue" stroke="midnightblue" points="671.199,-50.7929 662.236,-56.4435 672.766,-57.6151 671.199,-50.7929"/>
</g>
<!-- Node8 -->
<g id="node8" class="node"><title>Node8</title>
<g id="a_node8"><a xlink:href="../../dd/dcb/a00375.html" target="_top" xlink:title="PrimaryCommunity.cpp">
<polygon fill="white" stroke="black" points="958.5,-0.5 958.5,-19.5 1077.5,-19.5 1077.5,-0.5 958.5,-0.5"/>
<text text-anchor="middle" x="1018" y="-7.5" font-family="Helvetica,sans-Serif" font-size="10.00">PrimaryCommunity.cpp</text>
</a>
</g>
</g>
<!-- Node3&#45;&gt;Node8 -->
<g id="edge7" class="edge"><title>Node3&#45;&gt;Node8</title>
<path fill="none" stroke="midnightblue" d="M689.853,-56.0888C764.477,-45.8352 886.006,-29.1366 958.358,-19.195"/>
<polygon fill="midnightblue" stroke="midnightblue" points="689.075,-52.6628 679.645,-57.4915 690.028,-59.5976 689.075,-52.6628"/>
</g>
<!-- Node9&#45;&gt;Node4 -->
<g id="edge9" class="edge"><title>Node9&#45;&gt;Node4</title>
<path fill="none" stroke="midnightblue" d="M438.272,-48.4314C429.86,-38.9673 419.651,-27.4827 412.779,-19.7511"/>
<polygon fill="midnightblue" stroke="midnightblue" points="435.814,-50.9342 445.074,-56.083 441.046,-46.2836 435.814,-50.9342"/>
</g>
<!-- Node9&#45;&gt;Node5 -->
<g id="edge10" class="edge"><title>Node9&#45;&gt;Node5</title>
<path fill="none" stroke="midnightblue" d="M477.837,-51.4526C496.114,-41.4835 520.416,-28.2279 536.133,-19.6545"/>
<polygon fill="midnightblue" stroke="midnightblue" points="476.009,-48.4628 468.906,-56.324 479.361,-54.608 476.009,-48.4628"/>
</g>
<!-- Node9&#45;&gt;Node6 -->
<g id="edge11" class="edge"><title>Node9&#45;&gt;Node6</title>
<path fill="none" stroke="midnightblue" d="M501.63,-54.2815C547.929,-44.0769 616.695,-28.9203 659.361,-19.5164"/>
<polygon fill="midnightblue" stroke="midnightblue" points="500.833,-50.8731 491.821,-56.4435 502.34,-57.709 500.833,-50.8731"/>
</g>
<!-- Node10 -->
<g id="node10" class="node"><title>Node10</title>
<g id="a_node10"><a xlink:href="../../d9/d0a/a00390.html" target="_top" xlink:title="SecondaryCommunityPopulator.cpp">
<polygon fill="white" stroke="black" points="-0.5,-0.5 -0.5,-19.5 172.5,-19.5 172.5,-0.5 -0.5,-0.5"/>
<text text-anchor="middle" x="86" y="-7.5" font-family="Helvetica,sans-Serif" font-size="10.00">SecondaryCommunityPopulator.cpp</text>
</a>
</g>
</g>
<!-- Node9&#45;&gt;Node10 -->
<g id="edge12" class="edge"><title>Node9&#45;&gt;Node10</title>
<path fill="none" stroke="midnightblue" d="M384.897,-54.9794C315.572,-44.7791 209.266,-29.1372 143.88,-19.5164"/>
<polygon fill="midnightblue" stroke="midnightblue" points="384.445,-58.4505 394.848,-56.4435 385.464,-51.525 384.445,-58.4505"/>
</g>
<!-- Node11 -->
<g id="node11" class="node"><title>Node11</title>
<g id="a_node11"><a xlink:href="../../d9/dc1/a00388.html" target="_top" xlink:title="SecondaryCommunity.cpp">
<polygon fill="white" stroke="black" points="191,-0.5 191,-19.5 323,-19.5 323,-0.5 191,-0.5"/>
<text text-anchor="middle" x="257" y="-7.5" font-family="Helvetica,sans-Serif" font-size="10.00">SecondaryCommunity.cpp</text>
</a>
</g>
</g>
<!-- Node9&#45;&gt;Node11 -->
<g id="edge13" class="edge"><title>Node9&#45;&gt;Node11</title>
<path fill="none" stroke="midnightblue" d="M411.98,-53.6986C374.989,-43.507 321.4,-28.7429 287.911,-19.5164"/>
<polygon fill="midnightblue" stroke="midnightblue" points="411.373,-57.1616 421.943,-56.4435 413.232,-50.4131 411.373,-57.1616"/>
</g>
</g>
</svg>
