<?xml version="1.0" encoding="UTF-8" standalone="no"?>
<!DOCTYPE svg PUBLIC "-//W3C//DTD SVG 1.1//EN"
 "http://www.w3.org/Graphics/SVG/1.1/DTD/svg11.dtd">
<!-- Generated by graphviz version 2.36.0 (20140111.2315)
 -->
<!-- Title: stride::ContactPool Pages: 1 -->
<!--zoomable 1346 -->
<svg id="main" version="1.1" xmlns="http://www.w3.org/2000/svg" xmlns:xlink="http://www.w3.org/1999/xlink" xml:space="preserve" onload="init(evt)">
<style type="text/css"><![CDATA[
.edge:hover path { stroke: red; }
.edge:hover polygon { stroke: red; fill: red; }
]]></style>
<script type="text/javascript"><![CDATA[
var edges = document.getElementsByTagName('g');
if (edges && edges.length) {
  for (var i=0;i<edges.length;i++) {
    if (edges[i].id.substr(0,4)=='edge') {
      edges[i].setAttribute('class','edge');
    }
  }
}
]]></script>
        <defs>
                <circle id="rim" cx="0" cy="0" r="7"/>
                <circle id="rim2" cx="0" cy="0" r="3.5"/>
                <g id="zoomPlus">
                        <use xlink:href="#rim" fill="#404040">
                                <set attributeName="fill" to="#808080" begin="zoomplus.mouseover" end="zoomplus.mouseout"/>
                        </use>
                        <path d="M-4,0h8M0,-4v8" fill="none" stroke="white" stroke-width="1.5" pointer-events="none"/>
                </g>
                <g id="zoomMin">
                        <use xlink:href="#rim" fill="#404040">
                                <set attributeName="fill" to="#808080" begin="zoomminus.mouseover" end="zoomminus.mouseout"/>
                        </use>
                        <path d="M-4,0h8" fill="none" stroke="white" stroke-width="1.5" pointer-events="none"/>
                </g>
                <g id="dirArrow">
                        <path fill="none" stroke="white" stroke-width="1.5" d="M0,-3.0v7 M-2.5,-0.5L0,-3.0L2.5,-0.5"/>
                </g>
               <g id="resetDef">
                       <use xlink:href="#rim2" fill="#404040">
                               <set attributeName="fill" to="#808080" begin="reset.mouseover" end="reset.mouseout"/>
                       </use>
               </g>
        </defs>

<script type="text/javascript">
var viewWidth = 1171;
var viewHeight = 1346;
var sectionId = 'dynsection-0';
</script>
<script xlink:href="../../svgpan.js"/>
<svg id="graph" class="graph">
<g id="viewport">
<title>stride::ContactPool</title>
<polygon fill="white" stroke="none" points="-4,4 -4,-1342 1167,-1342 1167,4 -4,4"/>
<!-- Node1 -->
<g id="node1" class="node"><title>Node1</title>
<polygon fill="#bfbfbf" stroke="black" points="795.5,-0.5 795.5,-189.5 946.5,-189.5 946.5,-0.5 795.5,-0.5"/>
<text text-anchor="middle" x="871" y="-177.5" font-family="Helvetica,sans-Serif" font-size="10.00">stride::ContactPool</text>
<polyline fill="none" stroke="black" points="795.5,-170.5 946.5,-170.5 "/>
<text text-anchor="middle" x="871" y="-158.5" font-family="Helvetica,sans-Serif" font-size="10.00"> </text>
<polyline fill="none" stroke="black" points="795.5,-151.5 946.5,-151.5 "/>
<text text-anchor="start" x="803.5" y="-139.5" font-family="Helvetica,sans-Serif" font-size="10.00">+ ContactPool()</text>
<text text-anchor="start" x="803.5" y="-128.5" font-family="Helvetica,sans-Serif" font-size="10.00">+ ContactPool()</text>
<text text-anchor="start" x="803.5" y="-117.5" font-family="Helvetica,sans-Serif" font-size="10.00">+ AddMember()</text>
<text text-anchor="start" x="803.5" y="-106.5" font-family="Helvetica,sans-Serif" font-size="10.00">+ AddExpat()</text>
<text text-anchor="start" x="803.5" y="-95.5" font-family="Helvetica,sans-Serif" font-size="10.00">+ GetMember()</text>
<text text-anchor="start" x="803.5" y="-84.5" font-family="Helvetica,sans-Serif" font-size="10.00">+ RemoveMember()</text>
<text text-anchor="start" x="803.5" y="-73.5" font-family="Helvetica,sans-Serif" font-size="10.00">+ RemoveExpat()</text>
<text text-anchor="start" x="803.5" y="-62.5" font-family="Helvetica,sans-Serif" font-size="10.00">+ GetPool()</text>
<text text-anchor="start" x="803.5" y="-51.5" font-family="Helvetica,sans-Serif" font-size="10.00">+ GetSize()</text>
<text text-anchor="start" x="803.5" y="-40.5" font-family="Helvetica,sans-Serif" font-size="10.00">+ GetId()</text>
<text text-anchor="start" x="803.5" y="-29.5" font-family="Helvetica,sans-Serif" font-size="10.00">and 11 more...</text>
<text text-anchor="start" x="803.5" y="-18.5" font-family="Helvetica,sans-Serif" font-size="10.00">&#45; UpdateExpatsAfterRemoval()</text>
<text text-anchor="start" x="803.5" y="-7.5" font-family="Helvetica,sans-Serif" font-size="10.00">&#45; Swap()</text>
</g>
<!-- Node2 -->
<g id="node2" class="node"><title>Node2</title>
<polygon fill="white" stroke="#bfbfbf" points="479,-244 479,-312 575,-312 575,-244 479,-244"/>
<text text-anchor="start" x="487" y="-300" font-family="Helvetica,sans-Serif" font-size="10.00">std::vector&lt; stride</text>
<text text-anchor="middle" x="527" y="-289" font-family="Helvetica,sans-Serif" font-size="10.00">::Person * &gt;</text>
<polyline fill="none" stroke="#bfbfbf" points="479,-282 575,-282 "/>
<text text-anchor="middle" x="527" y="-270" font-family="Helvetica,sans-Serif" font-size="10.00"> </text>
<polyline fill="none" stroke="#bfbfbf" points="479,-263 575,-263 "/>
<text text-anchor="middle" x="527" y="-251" font-family="Helvetica,sans-Serif" font-size="10.00"> </text>
</g>
<!-- Node2&#45;&gt;Node1 -->
<g id="edge1" class="edge"><title>Node2&#45;&gt;Node1</title>
<path fill="none" stroke="#404040" d="M575.194,-251.642C629.318,-223.164 718.236,-176.379 784.475,-141.526"/>
<polygon fill="none" stroke="#404040" points="784.698,-141.409 788.145,-135.075 795.317,-135.821 791.87,-142.155 784.698,-141.409"/>
<text text-anchor="middle" x="689.5" y="-211.5" font-family="Helvetica,sans-Serif" font-size="10.00"> &#45;m_members</text>
</g>
<!-- Node3 -->
<g id="node3" class="node"><title>Node3</title>
<g id="a_node3"><a xlink:href="../../d2/df5/a00137.html" target="_top" xlink:title="Store and handle person data. ">
<polygon fill="white" stroke="black" points="487,-388.5 487,-555.5 567,-555.5 567,-388.5 487,-388.5"/>
<text text-anchor="middle" x="527" y="-543.5" font-family="Helvetica,sans-Serif" font-size="10.00">stride::Person</text>
<polyline fill="none" stroke="black" points="487,-536.5 567,-536.5 "/>
<text text-anchor="middle" x="527" y="-524.5" font-family="Helvetica,sans-Serif" font-size="10.00"> </text>
<polyline fill="none" stroke="black" points="487,-517.5 567,-517.5 "/>
<text text-anchor="start" x="495" y="-505.5" font-family="Helvetica,sans-Serif" font-size="10.00">+ Person()</text>
<text text-anchor="start" x="495" y="-494.5" font-family="Helvetica,sans-Serif" font-size="10.00">+ Person()</text>
<text text-anchor="start" x="495" y="-483.5" font-family="Helvetica,sans-Serif" font-size="10.00">+ operator!=()</text>
<text text-anchor="start" x="495" y="-472.5" font-family="Helvetica,sans-Serif" font-size="10.00">+ GetAge()</text>
<text text-anchor="start" x="495" y="-461.5" font-family="Helvetica,sans-Serif" font-size="10.00">+ GetBelief()</text>
<text text-anchor="start" x="495" y="-450.5" font-family="Helvetica,sans-Serif" font-size="10.00">+ GetBelief()</text>
<text text-anchor="start" x="495" y="-439.5" font-family="Helvetica,sans-Serif" font-size="10.00">+ GetPoolId()</text>
<text text-anchor="start" x="495" y="-428.5" font-family="Helvetica,sans-Serif" font-size="10.00">+ GetGender()</text>
<text text-anchor="start" x="495" y="-417.5" font-family="Helvetica,sans-Serif" font-size="10.00">+ GetHealth()</text>
<text text-anchor="start" x="495" y="-406.5" font-family="Helvetica,sans-Serif" font-size="10.00">+ GetHealth()</text>
<text text-anchor="start" x="495" y="-395.5" font-family="Helvetica,sans-Serif" font-size="10.00">and 27 more...</text>
</a>
</g>
</g>
<!-- Node3&#45;&gt;Node2 -->
<g id="edge2" class="edge"><title>Node3&#45;&gt;Node2</title>
<path fill="none" stroke="#404040" d="M527,-388.46C527,-366.45 527,-343.475 527,-324.291"/>
<polygon fill="none" stroke="#404040" points="527,-324.279 523,-318.279 527,-312.279 531,-318.279 527,-324.279"/>
<text text-anchor="middle" x="551.5" y="-350.5" font-family="Helvetica,sans-Serif" font-size="10.00"> +elements</text>
</g>
<!-- Node22 -->
<g id="node22" class="node"><title>Node22</title>
<polygon fill="white" stroke="#bfbfbf" points="883.5,-238.5 883.5,-317.5 996.5,-317.5 996.5,-238.5 883.5,-238.5"/>
<text text-anchor="start" x="891.5" y="-305.5" font-family="Helvetica,sans-Serif" font-size="10.00">std::unordered_map</text>
<text text-anchor="start" x="891.5" y="-294.5" font-family="Helvetica,sans-Serif" font-size="10.00">&lt; const stride::Person</text>
<text text-anchor="middle" x="940" y="-283.5" font-family="Helvetica,sans-Serif" font-size="10.00"> *, std::size_t &gt;</text>
<polyline fill="none" stroke="#bfbfbf" points="883.5,-276.5 996.5,-276.5 "/>
<text text-anchor="middle" x="940" y="-264.5" font-family="Helvetica,sans-Serif" font-size="10.00"> </text>
<polyline fill="none" stroke="#bfbfbf" points="883.5,-257.5 996.5,-257.5 "/>
<text text-anchor="middle" x="940" y="-245.5" font-family="Helvetica,sans-Serif" font-size="10.00"> </text>
</g>
<!-- Node3&#45;&gt;Node22 -->
<g id="edge24" class="edge"><title>Node3&#45;&gt;Node22</title>
<path fill="none" stroke="#404040" d="M567.211,-465.879C656.777,-453.671 868.689,-420.085 918,-370 928.512,-359.323 934.306,-344.535 937.417,-329.981"/>
<polygon fill="none" stroke="#404040" points="937.457,-329.741 934.506,-323.162 939.444,-317.907 942.396,-324.486 937.457,-329.741"/>
<text text-anchor="middle" x="951.5" y="-350.5" font-family="Helvetica,sans-Serif" font-size="10.00"> +keys</text>
</g>
<!-- Node4 -->
<g id="node4" class="node"><title>Node4</title>
<g id="a_node4"><a xlink:href="../../db/d8e/a00482.html" target="_top" xlink:title="{double\n||}">
<polygon fill="white" stroke="black" points="884.5,-686.5 884.5,-743.5 929.5,-743.5 929.5,-686.5 884.5,-686.5"/>
<text text-anchor="middle" x="907" y="-731.5" font-family="Helvetica,sans-Serif" font-size="10.00">double</text>
<polyline fill="none" stroke="black" points="884.5,-724.5 929.5,-724.5 "/>
<text text-anchor="middle" x="907" y="-712.5" font-family="Helvetica,sans-Serif" font-size="10.00"> </text>
<polyline fill="none" stroke="black" points="884.5,-705.5 929.5,-705.5 "/>
<text text-anchor="middle" x="907" y="-693.5" font-family="Helvetica,sans-Serif" font-size="10.00"> </text>
</a>
</g>
</g>
<!-- Node4&#45;&gt;Node3 -->
<g id="edge3" class="edge"><title>Node4&#45;&gt;Node3</title>
<path fill="none" stroke="#404040" d="M905.751,-686.443C903.176,-663.602 895.776,-632.055 875,-614 839.262,-582.943 812.289,-617.294 770,-596 757.366,-589.638 758.701,-581.95 747,-574 693.482,-537.638 624.769,-508.484 578.491,-491.018"/>
<polygon fill="none" stroke="#404040" points="578.48,-491.014 571.462,-492.672 567.232,-486.832 574.25,-485.174 578.48,-491.014"/>
<text text-anchor="middle" x="788" y="-582.5" font-family="Helvetica,sans-Serif" font-size="10.00"> &#45;m_age</text>
</g>
<!-- Node5 -->
<g id="node5" class="node"><title>Node5</title>
<g id="a_node5"><a xlink:href="../../d1/d09/a00077.html" target="_top" xlink:title="{stride::ContactPoolType\l::IdSubscriptArray\&lt; unsigned int \&gt;\n||+ IdSubscriptArray()\l+ IdSubscriptArray()\l+ IdSubscriptArray()\l+ IdSubscriptArray()\l+ operator[]()\l+ operator[]()\l+ at()\l+ at()\l}">
<polygon fill="white" stroke="black" points="700,-642.5 700,-787.5 866,-787.5 866,-642.5 700,-642.5"/>
<text text-anchor="start" x="708" y="-775.5" font-family="Helvetica,sans-Serif" font-size="10.00">stride::ContactPoolType</text>
<text text-anchor="middle" x="783" y="-764.5" font-family="Helvetica,sans-Serif" font-size="10.00">::IdSubscriptArray&lt; unsigned int &gt;</text>
<polyline fill="none" stroke="black" points="700,-757.5 866,-757.5 "/>
<text text-anchor="middle" x="783" y="-745.5" font-family="Helvetica,sans-Serif" font-size="10.00"> </text>
<polyline fill="none" stroke="black" points="700,-738.5 866,-738.5 "/>
<text text-anchor="start" x="708" y="-726.5" font-family="Helvetica,sans-Serif" font-size="10.00">+ IdSubscriptArray()</text>
<text text-anchor="start" x="708" y="-715.5" font-family="Helvetica,sans-Serif" font-size="10.00">+ IdSubscriptArray()</text>
<text text-anchor="start" x="708" y="-704.5" font-family="Helvetica,sans-Serif" font-size="10.00">+ IdSubscriptArray()</text>
<text text-anchor="start" x="708" y="-693.5" font-family="Helvetica,sans-Serif" font-size="10.00">+ IdSubscriptArray()</text>
<text text-anchor="start" x="708" y="-682.5" font-family="Helvetica,sans-Serif" font-size="10.00">+ operator[]()</text>
<text text-anchor="start" x="708" y="-671.5" font-family="Helvetica,sans-Serif" font-size="10.00">+ operator[]()</text>
<text text-anchor="start" x="708" y="-660.5" font-family="Helvetica,sans-Serif" font-size="10.00">+ at()</text>
<text text-anchor="start" x="708" y="-649.5" font-family="Helvetica,sans-Serif" font-size="10.00">+ at()</text>
</a>
</g>
</g>
<!-- Node5&#45;&gt;Node3 -->
<g id="edge4" class="edge"><title>Node5&#45;&gt;Node3</title>
<path fill="none" stroke="#404040" d="M730.221,-642.478C711.729,-619.481 690.046,-594.635 668,-574 640.222,-547.999 605.514,-523.06 577.485,-504.468"/>
<polygon fill="none" stroke="#404040" points="577.137,-504.24 569.926,-504.298 567.098,-497.664 574.309,-497.606 577.137,-504.24"/>
<text text-anchor="middle" x="717" y="-582.5" font-family="Helvetica,sans-Serif" font-size="10.00"> &#45;m_pool_ids</text>
</g>
<!-- Node6 -->
<g id="node6" class="node"><title>Node6</title>
<g id="a_node6"><a xlink:title="STL class. ">
<polygon fill="white" stroke="#bfbfbf" points="700.5,-1075 700.5,-1143 807.5,-1143 807.5,-1075 700.5,-1075"/>
<text text-anchor="start" x="708.5" y="-1131" font-family="Helvetica,sans-Serif" font-size="10.00">std::array&lt; unsigned</text>
<text text-anchor="middle" x="754" y="-1120" font-family="Helvetica,sans-Serif" font-size="10.00"> int, NumOfTypes()&gt;</text>
<polyline fill="none" stroke="#bfbfbf" points="700.5,-1113 807.5,-1113 "/>
<text text-anchor="middle" x="754" y="-1101" font-family="Helvetica,sans-Serif" font-size="10.00"> </text>
<polyline fill="none" stroke="#bfbfbf" points="700.5,-1094 807.5,-1094 "/>
<text text-anchor="middle" x="754" y="-1082" font-family="Helvetica,sans-Serif" font-size="10.00"> </text>
</a>
</g>
</g>
<!-- Node6&#45;&gt;Node5 -->
<g id="edge5" class="edge"><title>Node6&#45;&gt;Node5</title>
<path fill="none" stroke="midnightblue" d="M757.201,-1064.73C762.151,-997.817 771.716,-868.522 777.707,-787.552"/>
<polygon fill="none" stroke="midnightblue" points="753.695,-1064.69 756.448,-1074.92 760.676,-1065.2 753.695,-1064.69"/>
</g>
<!-- Node7 -->
<g id="node7" class="node"><title>Node7</title>
<polygon fill="white" stroke="#bfbfbf" points="778.5,-1280.5 778.5,-1337.5 807.5,-1337.5 807.5,-1280.5 778.5,-1280.5"/>
<text text-anchor="middle" x="793" y="-1325.5" font-family="Helvetica,sans-Serif" font-size="10.00">T</text>
<polyline fill="none" stroke="#bfbfbf" points="778.5,-1318.5 807.5,-1318.5 "/>
<text text-anchor="middle" x="793" y="-1306.5" font-family="Helvetica,sans-Serif" font-size="10.00"> </text>
<polyline fill="none" stroke="#bfbfbf" points="778.5,-1299.5 807.5,-1299.5 "/>
<text text-anchor="middle" x="793" y="-1287.5" font-family="Helvetica,sans-Serif" font-size="10.00"> </text>
</g>
<!-- Node7&#45;&gt;Node6 -->
<g id="edge6" class="edge"><title>Node7&#45;&gt;Node6</title>
<path fill="none" stroke="#404040" d="M778.357,-1285.4C774.342,-1278.19 770.43,-1270 768,-1262 757.408,-1227.12 754.156,-1185.84 753.415,-1155.11"/>
<polygon fill="none" stroke="#404040" points="753.414,-1155.05 749.327,-1149.11 753.239,-1143.05 757.326,-1148.99 753.414,-1155.05"/>
<text text-anchor="middle" x="792.5" y="-1253.5" font-family="Helvetica,sans-Serif" font-size="10.00"> +elements</text>
</g>
<!-- Node9 -->
<g id="node9" class="node"><title>Node9</title>
<g id="a_node9"><a xlink:title="STL class. ">
<polygon fill="white" stroke="#bfbfbf" points="780.5,-1168.5 780.5,-1225.5 929.5,-1225.5 929.5,-1168.5 780.5,-1168.5"/>
<text text-anchor="middle" x="855" y="-1213.5" font-family="Helvetica,sans-Serif" font-size="10.00">std::array&lt; T, NumOfTypes()&gt;</text>
<polyline fill="none" stroke="#bfbfbf" points="780.5,-1206.5 929.5,-1206.5 "/>
<text text-anchor="middle" x="855" y="-1194.5" font-family="Helvetica,sans-Serif" font-size="10.00"> </text>
<polyline fill="none" stroke="#bfbfbf" points="780.5,-1187.5 929.5,-1187.5 "/>
<text text-anchor="middle" x="855" y="-1175.5" font-family="Helvetica,sans-Serif" font-size="10.00"> </text>
</a>
</g>
</g>
<!-- Node7&#45;&gt;Node9 -->
<g id="edge9" class="edge"><title>Node7&#45;&gt;Node9</title>
<path fill="none" stroke="#404040" d="M807.536,-1282.21C815.255,-1268.52 824.892,-1251.42 833.462,-1236.21"/>
<polygon fill="none" stroke="#404040" points="833.579,-1236.01 833.04,-1228.81 839.471,-1225.55 840.01,-1232.74 833.579,-1236.01"/>
<text text-anchor="middle" x="848.5" y="-1253.5" font-family="Helvetica,sans-Serif" font-size="10.00"> +elements</text>
</g>
<!-- Node21 -->
<g id="node21" class="node"><title>Node21</title>
<g id="a_node21"><a xlink:title="STL class. ">
<polygon fill="white" stroke="#bfbfbf" points="-0.5,-834.5 -0.5,-891.5 86.5,-891.5 86.5,-834.5 -0.5,-834.5"/>
<text text-anchor="middle" x="43" y="-879.5" font-family="Helvetica,sans-Serif" font-size="10.00">std::vector&lt; T &gt;</text>
<polyline fill="none" stroke="#bfbfbf" points="-0.5,-872.5 86.5,-872.5 "/>
<text text-anchor="middle" x="43" y="-860.5" font-family="Helvetica,sans-Serif" font-size="10.00"> </text>
<polyline fill="none" stroke="#bfbfbf" points="-0.5,-853.5 86.5,-853.5 "/>
<text text-anchor="middle" x="43" y="-841.5" font-family="Helvetica,sans-Serif" font-size="10.00"> </text>
</a>
</g>
</g>
<!-- Node7&#45;&gt;Node21 -->
<g id="edge22" class="edge"><title>Node7&#45;&gt;Node21</title>
<path fill="none" stroke="#404040" d="M778.393,-1307.01C698.943,-1300.82 314.947,-1260.87 112,-1056 70.8208,-1014.43 54.0551,-946.562 47.3424,-903.644"/>
<polygon fill="none" stroke="#404040" points="47.335,-903.592 42.5251,-898.22 45.6345,-891.713 50.4444,-897.086 47.335,-903.592"/>
<text text-anchor="middle" x="433.5" y="-1194.5" font-family="Helvetica,sans-Serif" font-size="10.00"> +elements</text>
</g>
<!-- Node23 -->
<g id="node23" class="node"><title>Node23</title>
<g id="a_node23"><a xlink:title="STL class. ">
<polygon fill="white" stroke="#bfbfbf" points="947.5,-1163 947.5,-1231 1050.5,-1231 1050.5,-1163 947.5,-1163"/>
<text text-anchor="start" x="955.5" y="-1219" font-family="Helvetica,sans-Serif" font-size="10.00">std::unordered_map</text>
<text text-anchor="middle" x="999" y="-1208" font-family="Helvetica,sans-Serif" font-size="10.00">&lt; K, T &gt;</text>
<polyline fill="none" stroke="#bfbfbf" points="947.5,-1201 1050.5,-1201 "/>
<text text-anchor="middle" x="999" y="-1189" font-family="Helvetica,sans-Serif" font-size="10.00"> </text>
<polyline fill="none" stroke="#bfbfbf" points="947.5,-1182 1050.5,-1182 "/>
<text text-anchor="middle" x="999" y="-1170" font-family="Helvetica,sans-Serif" font-size="10.00"> </text>
</a>
</g>
</g>
<!-- Node7&#45;&gt;Node23 -->
<g id="edge28" class="edge"><title>Node7&#45;&gt;Node23</title>
<path fill="none" stroke="#404040" d="M807.887,-1300.36C832.586,-1287.64 883.8,-1261.14 936.841,-1232.58"/>
<polygon fill="none" stroke="#404040" points="936.907,-1232.55 940.287,-1226.18 947.467,-1226.85 944.087,-1233.22 936.907,-1232.55"/>
<text text-anchor="middle" x="927.5" y="-1253.5" font-family="Helvetica,sans-Serif" font-size="10.00"> +elements</text>
</g>
<!-- Node8 -->
<g id="node8" class="node"><title>Node8</title>
<g id="a_node8"><a xlink:href="../../d1/d09/a00077.html" target="_top" xlink:title="An std::array modified to enable subscripting with the constact pool type indentifiers. ">
<polygon fill="white" stroke="black" points="791,-910.5 791,-1055.5 913,-1055.5 913,-910.5 791,-910.5"/>
<text text-anchor="start" x="799" y="-1043.5" font-family="Helvetica,sans-Serif" font-size="10.00">stride::ContactPoolType</text>
<text text-anchor="middle" x="852" y="-1032.5" font-family="Helvetica,sans-Serif" font-size="10.00">::IdSubscriptArray&lt; T &gt;</text>
<polyline fill="none" stroke="black" points="791,-1025.5 913,-1025.5 "/>
<text text-anchor="middle" x="852" y="-1013.5" font-family="Helvetica,sans-Serif" font-size="10.00"> </text>
<polyline fill="none" stroke="black" points="791,-1006.5 913,-1006.5 "/>
<text text-anchor="start" x="799" y="-994.5" font-family="Helvetica,sans-Serif" font-size="10.00">+ IdSubscriptArray()</text>
<text text-anchor="start" x="799" y="-983.5" font-family="Helvetica,sans-Serif" font-size="10.00">+ IdSubscriptArray()</text>
<text text-anchor="start" x="799" y="-972.5" font-family="Helvetica,sans-Serif" font-size="10.00">+ IdSubscriptArray()</text>
<text text-anchor="start" x="799" y="-961.5" font-family="Helvetica,sans-Serif" font-size="10.00">+ IdSubscriptArray()</text>
<text text-anchor="start" x="799" y="-950.5" font-family="Helvetica,sans-Serif" font-size="10.00">+ operator[]()</text>
<text text-anchor="start" x="799" y="-939.5" font-family="Helvetica,sans-Serif" font-size="10.00">+ operator[]()</text>
<text text-anchor="start" x="799" y="-928.5" font-family="Helvetica,sans-Serif" font-size="10.00">+ at()</text>
<text text-anchor="start" x="799" y="-917.5" font-family="Helvetica,sans-Serif" font-size="10.00">+ at()</text>
</a>
</g>
</g>
<!-- Node8&#45;&gt;Node5 -->
<g id="edge7" class="edge"><title>Node8&#45;&gt;Node5</title>
<path fill="none" stroke="orange" d="M830.83,-900.389C821.499,-864.418 810.631,-822.52 801.615,-787.761"/>
<polygon fill="orange" stroke="orange" points="827.52,-901.566 833.418,-910.367 834.295,-899.808 827.52,-901.566"/>
<text text-anchor="middle" x="865" y="-860.5" font-family="Helvetica,sans-Serif" font-size="10.00"> &lt; unsigned int &gt;</text>
</g>
<!-- Node9&#45;&gt;Node8 -->
<g id="edge8" class="edge"><title>Node9&#45;&gt;Node8</title>
<path fill="none" stroke="midnightblue" d="M854.462,-1157.97C854.06,-1129.54 853.497,-1089.82 853.012,-1055.51"/>
<polygon fill="none" stroke="midnightblue" points="850.967,-1158.34 854.608,-1168.28 857.966,-1158.24 850.967,-1158.34"/>
</g>
<!-- Node10 -->
<g id="node10" class="node"><title>Node10</title>
<polygon fill="white" stroke="#bfbfbf" points="72.5,-686.5 72.5,-743.5 107.5,-743.5 107.5,-686.5 72.5,-686.5"/>
<text text-anchor="middle" x="90" y="-731.5" font-family="Helvetica,sans-Serif" font-size="10.00">char</text>
<polyline fill="none" stroke="#bfbfbf" points="72.5,-724.5 107.5,-724.5 "/>
<text text-anchor="middle" x="90" y="-712.5" font-family="Helvetica,sans-Serif" font-size="10.00"> </text>
<polyline fill="none" stroke="#bfbfbf" points="72.5,-705.5 107.5,-705.5 "/>
<text text-anchor="middle" x="90" y="-693.5" font-family="Helvetica,sans-Serif" font-size="10.00"> </text>
</g>
<!-- Node10&#45;&gt;Node3 -->
<g id="edge10" class="edge"><title>Node10&#45;&gt;Node3</title>
<path fill="none" stroke="#404040" d="M91.2794,-686.338C93.5744,-664.646 99.7326,-634.754 116,-614 203.782,-502.009 385.342,-478.503 474.825,-473.887"/>
<polygon fill="none" stroke="#404040" points="474.833,-473.887 480.649,-469.625 486.821,-473.354 481.005,-477.617 474.833,-473.887"/>
<text text-anchor="middle" x="172.5" y="-582.5" font-family="Helvetica,sans-Serif" font-size="10.00"> &#45;m_gender</text>
</g>
<!-- Node11 -->
<g id="node11" class="node"><title>Node11</title>
<g id="a_node11"><a xlink:href="../../d5/d1e/a00103.html" target="_top" xlink:title="Specialisation of IdSubscriptArray foor booleans. ">
<polygon fill="white" stroke="black" points="125.5,-653.5 125.5,-776.5 256.5,-776.5 256.5,-653.5 125.5,-653.5"/>
<text text-anchor="start" x="133.5" y="-764.5" font-family="Helvetica,sans-Serif" font-size="10.00">stride::ContactPoolType</text>
<text text-anchor="middle" x="191" y="-753.5" font-family="Helvetica,sans-Serif" font-size="10.00">::IdSubscriptArray&lt; bool &gt;</text>
<polyline fill="none" stroke="black" points="125.5,-746.5 256.5,-746.5 "/>
<text text-anchor="middle" x="191" y="-734.5" font-family="Helvetica,sans-Serif" font-size="10.00"> </text>
<polyline fill="none" stroke="black" points="125.5,-727.5 256.5,-727.5 "/>
<text text-anchor="start" x="133.5" y="-715.5" font-family="Helvetica,sans-Serif" font-size="10.00">+ IdSubscriptArray()</text>
<text text-anchor="start" x="133.5" y="-704.5" font-family="Helvetica,sans-Serif" font-size="10.00">+ IdSubscriptArray()</text>
<text text-anchor="start" x="133.5" y="-693.5" font-family="Helvetica,sans-Serif" font-size="10.00">+ operator[]()</text>
<text text-anchor="start" x="133.5" y="-682.5" font-family="Helvetica,sans-Serif" font-size="10.00">+ operator[]()</text>
<text text-anchor="start" x="133.5" y="-671.5" font-family="Helvetica,sans-Serif" font-size="10.00">+ at()</text>
<text text-anchor="start" x="133.5" y="-660.5" font-family="Helvetica,sans-Serif" font-size="10.00">+ at()</text>
</a>
</g>
</g>
<!-- Node11&#45;&gt;Node3 -->
<g id="edge11" class="edge"><title>Node11&#45;&gt;Node3</title>
<path fill="none" stroke="#404040" d="M210.862,-653.167C222.39,-625.885 239.387,-595.157 263,-574 323.736,-519.581 416.865,-493.254 474.738,-481.478"/>
<polygon fill="none" stroke="#404040" points="474.75,-481.476 479.874,-476.402 486.528,-479.181 481.404,-484.255 474.75,-481.476"/>
<text text-anchor="middle" x="291" y="-582.5" font-family="Helvetica,sans-Serif" font-size="10.00"> &#45;m_in_pools</text>
</g>
<!-- Node12 -->
<g id="node12" class="node"><title>Node12</title>
<g id="a_node12"><a xlink:title="STL class. ">
<polygon fill="white" stroke="#bfbfbf" points="121,-954.5 121,-1011.5 261,-1011.5 261,-954.5 121,-954.5"/>
<text text-anchor="middle" x="191" y="-999.5" font-family="Helvetica,sans-Serif" font-size="10.00">std::bitset&lt; NumOfTypes()&gt;</text>
<polyline fill="none" stroke="#bfbfbf" points="121,-992.5 261,-992.5 "/>
<text text-anchor="middle" x="191" y="-980.5" font-family="Helvetica,sans-Serif" font-size="10.00"> </text>
<polyline fill="none" stroke="#bfbfbf" points="121,-973.5 261,-973.5 "/>
<text text-anchor="middle" x="191" y="-961.5" font-family="Helvetica,sans-Serif" font-size="10.00"> </text>
</a>
</g>
</g>
<!-- Node12&#45;&gt;Node11 -->
<g id="edge12" class="edge"><title>Node12&#45;&gt;Node11</title>
<path fill="none" stroke="midnightblue" d="M191,-943.846C191,-900.195 191,-828.13 191,-776.737"/>
<polygon fill="none" stroke="midnightblue" points="187.5,-944.036 191,-954.036 194.5,-944.036 187.5,-944.036"/>
</g>
<!-- Node13 -->
<g id="node13" class="node"><title>Node13</title>
<polygon fill="white" stroke="#bfbfbf" points="274.5,-686.5 274.5,-743.5 303.5,-743.5 303.5,-686.5 274.5,-686.5"/>
<text text-anchor="middle" x="289" y="-731.5" font-family="Helvetica,sans-Serif" font-size="10.00">int</text>
<polyline fill="none" stroke="#bfbfbf" points="274.5,-724.5 303.5,-724.5 "/>
<text text-anchor="middle" x="289" y="-712.5" font-family="Helvetica,sans-Serif" font-size="10.00"> </text>
<polyline fill="none" stroke="#bfbfbf" points="274.5,-705.5 303.5,-705.5 "/>
<text text-anchor="middle" x="289" y="-693.5" font-family="Helvetica,sans-Serif" font-size="10.00"> </text>
</g>
<!-- Node13&#45;&gt;Node3 -->
<g id="edge13" class="edge"><title>Node13&#45;&gt;Node3</title>
<path fill="none" stroke="#404040" d="M291.905,-686.105C294.881,-665.375 300.738,-636.85 312,-614 322.189,-593.328 327.281,-588.738 345,-574 384.952,-540.769 437.449,-513.002 475.79,-495.046"/>
<polygon fill="none" stroke="#404040" points="475.805,-495.039 479.582,-488.896 486.705,-490.02 482.928,-496.163 475.805,-495.039"/>
<text text-anchor="middle" x="359" y="-582.5" font-family="Helvetica,sans-Serif" font-size="10.00"> &#45;m_id</text>
</g>
<!-- Node14 -->
<g id="node14" class="node"><title>Node14</title>
<polygon fill="white" stroke="#bfbfbf" points="321.5,-686.5 321.5,-743.5 356.5,-743.5 356.5,-686.5 321.5,-686.5"/>
<text text-anchor="middle" x="339" y="-731.5" font-family="Helvetica,sans-Serif" font-size="10.00">bool</text>
<polyline fill="none" stroke="#bfbfbf" points="321.5,-724.5 356.5,-724.5 "/>
<text text-anchor="middle" x="339" y="-712.5" font-family="Helvetica,sans-Serif" font-size="10.00"> </text>
<polyline fill="none" stroke="#bfbfbf" points="321.5,-705.5 356.5,-705.5 "/>
<text text-anchor="middle" x="339" y="-693.5" font-family="Helvetica,sans-Serif" font-size="10.00"> </text>
</g>
<!-- Node14&#45;&gt;Node3 -->
<g id="edge14" class="edge"><title>Node14&#45;&gt;Node3</title>
<path fill="none" stroke="#404040" d="M343.889,-686.42C348.138,-665.85 355.31,-637.388 366,-614 388.66,-564.424 438.223,-525.363 476.412,-501.047"/>
<polygon fill="none" stroke="#404040" points="476.648,-500.901 479.643,-494.341 486.85,-494.583 483.855,-501.143 476.648,-500.901"/>
<text text-anchor="middle" x="428.5" y="-588" font-family="Helvetica,sans-Serif" font-size="10.00"> &#45;m_isTravelling</text>
<text text-anchor="middle" x="428.5" y="-577" font-family="Helvetica,sans-Serif" font-size="10.00">&#45;m_is_participant</text>
</g>
<!-- Node15 -->
<g id="node15" class="node"><title>Node15</title>
<g id="a_node15"><a xlink:href="../../d9/df8/a00096.html" target="_top" xlink:title="Base class for all belief policies. ">
<polygon fill="white" stroke="black" points="375,-675.5 375,-754.5 461,-754.5 461,-675.5 375,-675.5"/>
<text text-anchor="middle" x="418" y="-742.5" font-family="Helvetica,sans-Serif" font-size="10.00">stride::Belief</text>
<polyline fill="none" stroke="black" points="375,-735.5 461,-735.5 "/>
<text text-anchor="middle" x="418" y="-723.5" font-family="Helvetica,sans-Serif" font-size="10.00"> </text>
<polyline fill="none" stroke="black" points="375,-716.5 461,-716.5 "/>
<text text-anchor="start" x="383" y="-704.5" font-family="Helvetica,sans-Serif" font-size="10.00">+ Belief()</text>
<text text-anchor="start" x="383" y="-693.5" font-family="Helvetica,sans-Serif" font-size="10.00">+ ~Belief()</text>
<text text-anchor="start" x="383" y="-682.5" font-family="Helvetica,sans-Serif" font-size="10.00">+ HasAdopted()</text>
</a>
</g>
</g>
<!-- Node15&#45;&gt;Node3 -->
<g id="edge15" class="edge"><title>Node15&#45;&gt;Node3</title>
<path fill="none" stroke="#404040" d="M434.912,-675.288C447.27,-647.132 464.504,-608.128 480,-574 481.104,-571.568 482.227,-569.104 483.361,-566.619"/>
<polygon fill="none" stroke="#404040" points="483.402,-566.53 482.264,-559.409 488.4,-555.621 489.537,-562.742 483.402,-566.53"/>
<text text-anchor="middle" x="501.5" y="-582.5" font-family="Helvetica,sans-Serif" font-size="10.00"> &#45;m_belief</text>
</g>
<!-- Node16 -->
<g id="node16" class="node"><title>Node16</title>
<g id="a_node16"><a xlink:href="../../d8/d17/a00114.html" target="_top" xlink:title="Holds a person&#39;s health data. ">
<polygon fill="white" stroke="black" points="479.5,-615 479.5,-815 622.5,-815 622.5,-615 479.5,-615"/>
<text text-anchor="middle" x="551" y="-803" font-family="Helvetica,sans-Serif" font-size="10.00">stride::Health</text>
<polyline fill="none" stroke="black" points="479.5,-796 622.5,-796 "/>
<text text-anchor="middle" x="551" y="-784" font-family="Helvetica,sans-Serif" font-size="10.00"> </text>
<polyline fill="none" stroke="black" points="479.5,-777 622.5,-777 "/>
<text text-anchor="start" x="487.5" y="-765" font-family="Helvetica,sans-Serif" font-size="10.00">+ Health()</text>
<text text-anchor="start" x="487.5" y="-754" font-family="Helvetica,sans-Serif" font-size="10.00">+ GetEndInfectiousness()</text>
<text text-anchor="start" x="487.5" y="-743" font-family="Helvetica,sans-Serif" font-size="10.00">+ GetEndSymptomatic()</text>
<text text-anchor="start" x="487.5" y="-732" font-family="Helvetica,sans-Serif" font-size="10.00">+ GetStartInfectiousness()</text>
<text text-anchor="start" x="487.5" y="-721" font-family="Helvetica,sans-Serif" font-size="10.00">+ GetStartSymptomatic()</text>
<text text-anchor="start" x="487.5" y="-710" font-family="Helvetica,sans-Serif" font-size="10.00">+ IsImmune()</text>
<text text-anchor="start" x="487.5" y="-699" font-family="Helvetica,sans-Serif" font-size="10.00">+ IsInfected()</text>
<text text-anchor="start" x="487.5" y="-688" font-family="Helvetica,sans-Serif" font-size="10.00">+ IsInfectious()</text>
<text text-anchor="start" x="487.5" y="-677" font-family="Helvetica,sans-Serif" font-size="10.00">+ IsRecovered()</text>
<text text-anchor="start" x="487.5" y="-666" font-family="Helvetica,sans-Serif" font-size="10.00">+ IsSusceptible()</text>
<text text-anchor="start" x="487.5" y="-655" font-family="Helvetica,sans-Serif" font-size="10.00">and 6 more...</text>
<text text-anchor="start" x="487.5" y="-644" font-family="Helvetica,sans-Serif" font-size="10.00">&#45; GetDiseaseCounter()</text>
<text text-anchor="start" x="487.5" y="-633" font-family="Helvetica,sans-Serif" font-size="10.00">&#45; IncrementDiseaseCounter()</text>
<text text-anchor="start" x="487.5" y="-622" font-family="Helvetica,sans-Serif" font-size="10.00">&#45; ResetDiseaseCounter()</text>
</a>
</g>
</g>
<!-- Node16&#45;&gt;Node3 -->
<g id="edge16" class="edge"><title>Node16&#45;&gt;Node3</title>
<path fill="none" stroke="#404040" d="M530.294,-614.727C529.397,-608.407 528.617,-602.126 528,-596 527.083,-586.887 526.445,-577.375 526.018,-567.853"/>
<polygon fill="none" stroke="#404040" points="526.017,-567.809 521.804,-561.956 525.586,-555.817 529.799,-561.669 526.017,-567.809"/>
<text text-anchor="middle" x="551" y="-582.5" font-family="Helvetica,sans-Serif" font-size="10.00"> &#45;m_health</text>
</g>
<!-- Node17 -->
<g id="node17" class="node"><title>Node17</title>
<polygon fill="white" stroke="#bfbfbf" points="423,-954.5 423,-1011.5 497,-1011.5 497,-954.5 423,-954.5"/>
<text text-anchor="middle" x="460" y="-999.5" font-family="Helvetica,sans-Serif" font-size="10.00">HealthStatus</text>
<polyline fill="none" stroke="#bfbfbf" points="423,-992.5 497,-992.5 "/>
<text text-anchor="middle" x="460" y="-980.5" font-family="Helvetica,sans-Serif" font-size="10.00"> </text>
<polyline fill="none" stroke="#bfbfbf" points="423,-973.5 497,-973.5 "/>
<text text-anchor="middle" x="460" y="-961.5" font-family="Helvetica,sans-Serif" font-size="10.00"> </text>
</g>
<!-- Node17&#45;&gt;Node16 -->
<g id="edge17" class="edge"><title>Node17&#45;&gt;Node16</title>
<path fill="none" stroke="#404040" d="M468.047,-954.281C476.849,-924.416 491.626,-875.578 506,-834 506.825,-831.612 507.668,-829.2 508.524,-826.771"/>
<polygon fill="none" stroke="#404040" points="508.583,-826.606 506.833,-819.61 512.618,-815.304 514.367,-822.3 508.583,-826.606"/>
<text text-anchor="middle" x="529.5" y="-860.5" font-family="Helvetica,sans-Serif" font-size="10.00"> &#45;m_status</text>
</g>
<!-- Node18 -->
<g id="node18" class="node"><title>Node18</title>
<polygon fill="white" stroke="#bfbfbf" points="515,-954.5 515,-1011.5 609,-1011.5 609,-954.5 515,-954.5"/>
<text text-anchor="middle" x="562" y="-999.5" font-family="Helvetica,sans-Serif" font-size="10.00">unsigned short int</text>
<polyline fill="none" stroke="#bfbfbf" points="515,-992.5 609,-992.5 "/>
<text text-anchor="middle" x="562" y="-980.5" font-family="Helvetica,sans-Serif" font-size="10.00"> </text>
<polyline fill="none" stroke="#bfbfbf" points="515,-973.5 609,-973.5 "/>
<text text-anchor="middle" x="562" y="-961.5" font-family="Helvetica,sans-Serif" font-size="10.00"> </text>
</g>
<!-- Node18&#45;&gt;Node16 -->
<g id="edge18" class="edge"><title>Node18&#45;&gt;Node16</title>
<path fill="none" stroke="#404040" d="M560.844,-954.036C559.593,-923.789 557.519,-873.643 555.597,-827.157"/>
<polygon fill="none" stroke="#404040" points="555.595,-827.106 551.35,-821.276 555.099,-815.116 559.343,-820.945 555.595,-827.106"/>
<text text-anchor="middle" x="611.5" y="-882.5" font-family="Helvetica,sans-Serif" font-size="10.00"> &#45;m_start_symptomatic</text>
<text text-anchor="middle" x="611.5" y="-871.5" font-family="Helvetica,sans-Serif" font-size="10.00">&#45;m_disease_counter</text>
<text text-anchor="middle" x="611.5" y="-860.5" font-family="Helvetica,sans-Serif" font-size="10.00">&#45;m_end_symptomatic</text>
<text text-anchor="middle" x="611.5" y="-849.5" font-family="Helvetica,sans-Serif" font-size="10.00">&#45;m_end_infectiousness</text>
<text text-anchor="middle" x="611.5" y="-838.5" font-family="Helvetica,sans-Serif" font-size="10.00">&#45;m_start_infectiousness</text>
</g>
<!-- Node19 -->
<g id="node19" class="node"><title>Node19</title>
<polygon fill="white" stroke="#bfbfbf" points="947.5,-686.5 947.5,-743.5 990.5,-743.5 990.5,-686.5 947.5,-686.5"/>
<text text-anchor="middle" x="969" y="-731.5" font-family="Helvetica,sans-Serif" font-size="10.00">size_t</text>
<polyline fill="none" stroke="#bfbfbf" points="947.5,-724.5 990.5,-724.5 "/>
<text text-anchor="middle" x="969" y="-712.5" font-family="Helvetica,sans-Serif" font-size="10.00"> </text>
<polyline fill="none" stroke="#bfbfbf" points="947.5,-705.5 990.5,-705.5 "/>
<text text-anchor="middle" x="969" y="-693.5" font-family="Helvetica,sans-Serif" font-size="10.00"> </text>
</g>
<!-- Node19&#45;&gt;Node1 -->
<g id="edge30" class="edge"><title>Node19&#45;&gt;Node1</title>
<path fill="none" stroke="#404040" d="M961.199,-686.156C955.338,-665.952 946.83,-638.059 938,-614 897.383,-503.334 857.588,-485.5 834,-370 822.728,-314.806 829.567,-252.634 840.28,-201.481"/>
<polygon fill="none" stroke="#404040" points="840.285,-201.459 837.658,-194.743 842.847,-189.736 845.474,-196.452 840.285,-201.459"/>
<text text-anchor="middle" x="874" y="-361.5" font-family="Helvetica,sans-Serif" font-size="10.00"> &#45;m_pool_id</text>
<text text-anchor="middle" x="874" y="-350.5" font-family="Helvetica,sans-Serif" font-size="10.00">&#45;m_capacity</text>
<text text-anchor="middle" x="874" y="-339.5" font-family="Helvetica,sans-Serif" font-size="10.00">&#45;m_index_immune</text>
</g>
<!-- Node19&#45;&gt;Node3 -->
<g id="edge19" class="edge"><title>Node19&#45;&gt;Node3</title>
<path fill="none" stroke="#404040" d="M968.075,-686.433C965.757,-663.585 958.69,-632.034 938,-614 900.987,-581.737 872.922,-617.948 829,-596 816.346,-589.677 818.02,-581.457 806,-574 733.256,-528.872 637.388,-499.773 579.071,-484.909"/>
<polygon fill="none" stroke="#404040" points="578.862,-484.857 572.072,-487.286 567.219,-481.953 574.008,-479.524 578.862,-484.857"/>
<text text-anchor="middle" x="852" y="-582.5" font-family="Helvetica,sans-Serif" font-size="10.00"> &#45;m_region</text>
</g>
<!-- Node19&#45;&gt;Node22 -->
<g id="edge25" class="edge"><title>Node19&#45;&gt;Node22</title>
<path fill="none" stroke="#404040" d="M969.215,-686.355C969.658,-627.941 970.658,-487.654 971,-370 971.044,-354.889 974.725,-350.645 971,-336 970.382,-333.569 969.637,-331.13 968.791,-328.702"/>
<polygon fill="none" stroke="#404040" points="968.752,-328.606 962.776,-324.569 964.205,-317.5 970.18,-321.537 968.752,-328.606"/>
<text text-anchor="middle" x="995.5" y="-469.5" font-family="Helvetica,sans-Serif" font-size="10.00"> +elements</text>
</g>
<!-- Node20 -->
<g id="node20" class="node"><title>Node20</title>
<polygon fill="white" stroke="#bfbfbf" points="640.5,-686.5 640.5,-743.5 681.5,-743.5 681.5,-686.5 640.5,-686.5"/>
<text text-anchor="middle" x="661" y="-731.5" font-family="Helvetica,sans-Serif" font-size="10.00">friend</text>
<polyline fill="none" stroke="#bfbfbf" points="640.5,-724.5 681.5,-724.5 "/>
<text text-anchor="middle" x="661" y="-712.5" font-family="Helvetica,sans-Serif" font-size="10.00"> </text>
<polyline fill="none" stroke="#bfbfbf" points="640.5,-705.5 681.5,-705.5 "/>
<text text-anchor="middle" x="661" y="-693.5" font-family="Helvetica,sans-Serif" font-size="10.00"> </text>
</g>
<!-- Node20&#45;&gt;Node3 -->
<g id="edge20" class="edge"><title>Node20&#45;&gt;Node3</title>
<path fill="none" stroke="#404040" d="M658.513,-686.249C655.294,-664.505 647.912,-634.589 631,-614 620.147,-600.788 609.273,-607.904 597,-596 587.818,-587.094 579.475,-576.723 572.011,-565.851"/>
<polygon fill="none" stroke="#404040" points="571.974,-565.796 565.342,-562.965 565.403,-555.754 572.036,-558.585 571.974,-565.796"/>
<text text-anchor="middle" x="632.5" y="-582.5" font-family="Helvetica,sans-Serif" font-size="10.00"> +TravellerIndex</text>
</g>
<!-- Node21&#45;&gt;Node2 -->
<g id="edge21" class="edge"><title>Node21&#45;&gt;Node2</title>
<path fill="none" stroke="orange" d="M32.763,-824.519C19.1715,-766.556 1.78211,-653.563 47,-574 142.694,-405.623 377.5,-321.233 478.984,-291.637"/>
<polygon fill="orange" stroke="orange" points="29.3892,-825.457 35.1557,-834.345 36.1904,-823.801 29.3892,-825.457"/>
<text text-anchor="middle" x="91.5" y="-582.5" font-family="Helvetica,sans-Serif" font-size="10.00"> &lt; stride::Person * &gt;</text>
</g>
<!-- Node22&#45;&gt;Node1 -->
<g id="edge23" class="edge"><title>Node22&#45;&gt;Node1</title>
<path fill="none" stroke="#404040" d="M925.198,-238.171C920.971,-227.084 916.152,-214.441 911.17,-201.373"/>
<polygon fill="none" stroke="#404040" points="911.035,-201.02 905.16,-196.839 906.761,-189.807 912.636,-193.989 911.035,-201.02"/>
<text text-anchor="middle" x="942.5" y="-211.5" font-family="Helvetica,sans-Serif" font-size="10.00"> &#45;m_expats</text>
</g>
<!-- Node23&#45;&gt;Node22 -->
<g id="edge26" class="edge"><title>Node23&#45;&gt;Node22</title>
<path fill="none" stroke="orange" d="M1019.89,-1153.43C1038.57,-1111.41 1063,-1044.81 1063,-984 1063,-984 1063,-984 1063,-471 1063,-410.432 1019.07,-353.681 983.712,-317.818"/>
<polygon fill="orange" stroke="orange" points="1016.59,-1152.24 1015.65,-1162.79 1022.97,-1155.13 1016.59,-1152.24"/>
<text text-anchor="start" x="1063" y="-718" font-family="Helvetica,sans-Serif" font-size="10.00"> &lt; const stride::Person</text>
<text text-anchor="middle" x="1113" y="-707" font-family="Helvetica,sans-Serif" font-size="10.00"> *, std::size_t &gt;</text>
</g>
<!-- Node24 -->
<g id="node24" class="node"><title>Node24</title>
<polygon fill="white" stroke="#bfbfbf" points="984.5,-1280.5 984.5,-1337.5 1013.5,-1337.5 1013.5,-1280.5 984.5,-1280.5"/>
<text text-anchor="middle" x="999" y="-1325.5" font-family="Helvetica,sans-Serif" font-size="10.00">K</text>
<polyline fill="none" stroke="#bfbfbf" points="984.5,-1318.5 1013.5,-1318.5 "/>
<text text-anchor="middle" x="999" y="-1306.5" font-family="Helvetica,sans-Serif" font-size="10.00"> </text>
<polyline fill="none" stroke="#bfbfbf" points="984.5,-1299.5 1013.5,-1299.5 "/>
<text text-anchor="middle" x="999" y="-1287.5" font-family="Helvetica,sans-Serif" font-size="10.00"> </text>
</g>
<!-- Node24&#45;&gt;Node23 -->
<g id="edge27" class="edge"><title>Node24&#45;&gt;Node23</title>
<path fill="none" stroke="#404040" d="M999,-1280.24C999,-1269.07 999,-1255.9 999,-1243.4"/>
<polygon fill="none" stroke="#404040" points="999,-1243.24 995,-1237.24 999,-1231.24 1003,-1237.24 999,-1243.24"/>
<text text-anchor="middle" x="1014.5" y="-1253.5" font-family="Helvetica,sans-Serif" font-size="10.00"> +keys</text>
</g>
<!-- Node25 -->
<g id="node25" class="node"><title>Node25</title>
<polygon fill="white" stroke="#bfbfbf" points="1014.5,-249.5 1014.5,-306.5 1043.5,-306.5 1043.5,-249.5 1014.5,-249.5"/>
<text text-anchor="middle" x="1029" y="-294.5" font-family="Helvetica,sans-Serif" font-size="10.00">Id</text>
<polyline fill="none" stroke="#bfbfbf" points="1014.5,-287.5 1043.5,-287.5 "/>
<text text-anchor="middle" x="1029" y="-275.5" font-family="Helvetica,sans-Serif" font-size="10.00"> </text>
<polyline fill="none" stroke="#bfbfbf" points="1014.5,-268.5 1043.5,-268.5 "/>
<text text-anchor="middle" x="1029" y="-256.5" font-family="Helvetica,sans-Serif" font-size="10.00"> </text>
</g>
<!-- Node25&#45;&gt;Node1 -->
<g id="edge29" class="edge"><title>Node25&#45;&gt;Node1</title>
<path fill="none" stroke="#404040" d="M1014.24,-251.322C1011.33,-246.774 1008.19,-242.164 1005,-238 989.778,-218.144 972.195,-197.933 954.877,-179.223"/>
<polygon fill="none" stroke="#404040" points="954.874,-179.22 947.855,-177.569 946.679,-170.454 953.699,-172.106 954.874,-179.22"/>
<text text-anchor="middle" x="1020" y="-211.5" font-family="Helvetica,sans-Serif" font-size="10.00"> &#45;m_pool_type</text>
</g>
</g>
</svg>
        <g id="navigator" transform="translate(0 0)" fill="#404254">
                <rect fill="#f2f5e9" fill-opacity="0.5" stroke="#606060" stroke-width=".5" x="0" y="0" width="60" height="60"/>
                <use id="zoomplus" xlink:href="#zoomPlus" x="17" y="9" onmousedown="handleZoom(evt,'in')"/>
                <use id="zoomminus" xlink:href="#zoomMin" x="42" y="9" onmousedown="handleZoom(evt,'out')"/>
                <use id="reset" xlink:href="#resetDef" x="30" y="36" onmousedown="handleReset()"/>
                <g id="arrowUp" xlink:href="#dirArrow" transform="translate(30 24)" onmousedown="handlePan(0,-1)">
                  <use xlink:href="#rim" fill="#404040">
                        <set attributeName="fill" to="#808080" begin="arrowUp.mouseover" end="arrowUp.mouseout"/>
                  </use>
                  <path fill="none" stroke="white" stroke-width="1.5" d="M0,-3.0v7 M-2.5,-0.5L0,-3.0L2.5,-0.5"/>
                </g>
                <g id="arrowRight" xlink:href="#dirArrow" transform="rotate(90) translate(36 -43)" onmousedown="handlePan(1,0)">
                  <use xlink:href="#rim" fill="#404040">
                        <set attributeName="fill" to="#808080" begin="arrowRight.mouseover" end="arrowRight.mouseout"/>
                  </use>
                  <path fill="none" stroke="white" stroke-width="1.5" d="M0,-3.0v7 M-2.5,-0.5L0,-3.0L2.5,-0.5"/>
                </g>
                <g id="arrowDown" xlink:href="#dirArrow" transform="rotate(180) translate(-30 -48)" onmousedown="handlePan(0,1)">
                  <use xlink:href="#rim" fill="#404040">
                        <set attributeName="fill" to="#808080" begin="arrowDown.mouseover" end="arrowDown.mouseout"/>
                  </use>
                  <path fill="none" stroke="white" stroke-width="1.5" d="M0,-3.0v7 M-2.5,-0.5L0,-3.0L2.5,-0.5"/>
                </g>
                <g id="arrowLeft" xlink:href="#dirArrow" transform="rotate(270) translate(-36 17)" onmousedown="handlePan(-1,0)">
                  <use xlink:href="#rim" fill="#404040">
                        <set attributeName="fill" to="#808080" begin="arrowLeft.mouseover" end="arrowLeft.mouseout"/>
                  </use>
                  <path fill="none" stroke="white" stroke-width="1.5" d="M0,-3.0v7 M-2.5,-0.5L0,-3.0L2.5,-0.5"/>
                </g>
        </g>
        <svg viewBox="0 0 15 15" width="100%" height="30px" preserveAspectRatio="xMaxYMin meet">
         <g id="arrow_out" transform="scale(0.3 0.3)">
          <a xlink:href="a01230_org.svg" target="_base">
           <rect id="button" ry="5" rx="5" y="6" x="6" height="38" width="38"
                fill="#f2f5e9" fill-opacity="0.5" stroke="#606060" stroke-width="1.0"/>
           <path id="arrow"
             d="M 11.500037,31.436501 C 11.940474,20.09759 22.043105,11.32322 32.158766,21.979434 L 37.068811,17.246167 C 37.068811,17.246167 37.088388,32 37.088388,32 L 22.160133,31.978069 C 22.160133,31.978069 26.997745,27.140456 26.997745,27.140456 C 18.528582,18.264221 13.291696,25.230495 11.500037,31.436501 z"
             style="fill:#404040;"/>
          </a>
         </g>
        </svg>
</svg>
