<?xml version="1.0" encoding="UTF-8" standalone="no"?>
<!DOCTYPE svg PUBLIC "-//W3C//DTD SVG 1.1//EN"
 "http://www.w3.org/Graphics/SVG/1.1/DTD/svg11.dtd">
<!-- Generated by graphviz version 2.36.0 (20140111.2315)
 -->
<!-- Title: GuiControllerBackend::Stepped Pages: 1 -->
<svg width="416pt" height="38pt"
 viewBox="0.00 0.00 416.00 38.00" xmlns="http://www.w3.org/2000/svg" xmlns:xlink="http://www.w3.org/1999/xlink">
<g id="graph0" class="graph" transform="scale(1 1) rotate(0) translate(4 34)">
<title>GuiControllerBackend::Stepped</title>
<polygon fill="white" stroke="none" points="-4,4 -4,-34 412,-34 412,4 -4,4"/>
<!-- Node1 -->
<g id="node1" class="node"><title>Node1</title>
<polygon fill="#bfbfbf" stroke="black" points="0,-0 0,-30 112,-30 112,-0 0,-0"/>
<text text-anchor="start" x="8" y="-18" font-family="Helvetica,sans-Serif" font-size="10.00">GuiControllerBackend</text>
<text text-anchor="middle" x="56" y="-7" font-family="Helvetica,sans-Serif" font-size="10.00">::Stepped</text>
</g>
<!-- Node2 -->
<g id="node2" class="node"><title>Node2</title>
<g id="a_node2"><a xlink:href="../../db/df8/a00076.html#a1b7f60fb20985b273aeac44ed8e029f4" target="_top" xlink:title="Called by the SimWorker to notify the backend that a step in the simulation was completed. ">
<polygon fill="white" stroke="black" points="148,-0 148,-30 260,-30 260,-0 148,-0"/>
<text text-anchor="start" x="156" y="-18" font-family="Helvetica,sans-Serif" font-size="10.00">GuiControllerBackend</text>
<text text-anchor="middle" x="204" y="-7" font-family="Helvetica,sans-Serif" font-size="10.00">::UpdateViews</text>
</a>
</g>
</g>
<!-- Node1&#45;&gt;Node2 -->
<g id="edge1" class="edge"><title>Node1&#45;&gt;Node2</title>
<path fill="none" stroke="midnightblue" d="M122.41,-15C130.865,-15 139.457,-15 147.726,-15"/>
<polygon fill="midnightblue" stroke="midnightblue" points="122.196,-11.5001 112.196,-15 122.196,-18.5001 122.196,-11.5001"/>
</g>
<!-- Node3 -->
<g id="node3" class="node"><title>Node3</title>
<g id="a_node3"><a xlink:href="../../db/df8/a00076.html#ae36c8a0c983cc8eb2b9363548ddb79e9" target="_top" xlink:title="Step a day in the simulator, this will be done on a separate thread. ">
<polygon fill="white" stroke="black" points="296,-0 296,-30 408,-30 408,-0 296,-0"/>
<text text-anchor="start" x="304" y="-18" font-family="Helvetica,sans-Serif" font-size="10.00">GuiControllerBackend</text>
<text text-anchor="middle" x="352" y="-7" font-family="Helvetica,sans-Serif" font-size="10.00">::StepDay</text>
</a>
</g>
</g>
<!-- Node2&#45;&gt;Node3 -->
<g id="edge2" class="edge"><title>Node2&#45;&gt;Node3</title>
<path fill="none" stroke="midnightblue" d="M270.41,-15C278.865,-15 287.457,-15 295.726,-15"/>
<polygon fill="midnightblue" stroke="midnightblue" points="270.196,-11.5001 260.196,-15 270.196,-18.5001 270.196,-11.5001"/>
</g>
</g>
</svg>
