<?xml version="1.0" encoding="UTF-8" standalone="no"?>
<!DOCTYPE svg PUBLIC "-//W3C//DTD SVG 1.1//EN"
 "http://www.w3.org/Graphics/SVG/1.1/DTD/svg11.dtd">
<!-- Generated by graphviz version 2.36.0 (20140111.2315)
 -->
<!-- Title: GenPopBuilder.h Pages: 1 -->
<svg width="280pt" height="152pt"
 viewBox="0.00 0.00 280.00 152.00" xmlns="http://www.w3.org/2000/svg" xmlns:xlink="http://www.w3.org/1999/xlink">
<g id="graph0" class="graph" transform="scale(1 1) rotate(0) translate(4 148)">
<title>GenPopBuilder.h</title>
<polygon fill="white" stroke="none" points="-4,4 -4,-148 276,-148 276,4 -4,4"/>
<!-- Node1 -->
<g id="node1" class="node"><title>Node1</title>
<polygon fill="#bfbfbf" stroke="black" points="115,-124.5 115,-143.5 205,-143.5 205,-124.5 115,-124.5"/>
<text text-anchor="middle" x="160" y="-131.5" font-family="Helvetica,sans-Serif" font-size="10.00">GenPopBuilder.h</text>
</g>
<!-- Node2 -->
<g id="node2" class="node"><title>Node2</title>
<g id="a_node2"><a xlink:href="../../d8/df1/a00174.html" target="_top" xlink:title="Base Class for PopBuilders. ">
<polygon fill="white" stroke="black" points="105.5,-68.5 105.5,-87.5 214.5,-87.5 214.5,-68.5 105.5,-68.5"/>
<text text-anchor="middle" x="160" y="-75.5" font-family="Helvetica,sans-Serif" font-size="10.00">AbstractPopBuilder.h</text>
</a>
</g>
</g>
<!-- Node1&#45;&gt;Node2 -->
<g id="edge1" class="edge"><title>Node1&#45;&gt;Node2</title>
<path fill="none" stroke="midnightblue" d="M160,-124.083C160,-117.006 160,-106.861 160,-97.9865"/>
<polygon fill="midnightblue" stroke="midnightblue" points="163.5,-97.751 160,-87.7511 156.5,-97.7511 163.5,-97.751"/>
</g>
<!-- Node3 -->
<g id="node3" class="node"><title>Node3</title>
<polygon fill="white" stroke="#bfbfbf" points="-0.5,-1 -0.5,-31 100.5,-31 100.5,-1 -0.5,-1"/>
<text text-anchor="start" x="7.5" y="-19" font-family="Helvetica,sans-Serif" font-size="10.00">boost/property_tree</text>
<text text-anchor="middle" x="50" y="-8" font-family="Helvetica,sans-Serif" font-size="10.00">/ptree_fwd.hpp</text>
</g>
<!-- Node1&#45;&gt;Node3 -->
<g id="edge5" class="edge"><title>Node1&#45;&gt;Node3</title>
<path fill="none" stroke="midnightblue" d="M144.525,-124.438C130.721,-116.292 110.508,-103.069 96,-88 82.2957,-73.7658 70.2915,-54.8845 61.9851,-40.1713"/>
<polygon fill="midnightblue" stroke="midnightblue" points="64.9467,-38.292 57.0799,-31.1952 58.804,-41.6488 64.9467,-38.292"/>
</g>
<!-- Node4 -->
<g id="node4" class="node"><title>Node4</title>
<polygon fill="white" stroke="#bfbfbf" points="220,-6.5 220,-25.5 272,-25.5 272,-6.5 220,-6.5"/>
<text text-anchor="middle" x="246" y="-13.5" font-family="Helvetica,sans-Serif" font-size="10.00">memory</text>
</g>
<!-- Node1&#45;&gt;Node4 -->
<g id="edge6" class="edge"><title>Node1&#45;&gt;Node4</title>
<path fill="none" stroke="midnightblue" d="M177.618,-124.457C191.769,-116.753 211.17,-104.16 223,-88 234.344,-72.5037 240.262,-51.1511 243.235,-35.9181"/>
<polygon fill="midnightblue" stroke="midnightblue" points="246.753,-36.1051 244.975,-25.6606 239.851,-34.9344 246.753,-36.1051"/>
</g>
<!-- Node2&#45;&gt;Node3 -->
<g id="edge2" class="edge"><title>Node2&#45;&gt;Node3</title>
<path fill="none" stroke="midnightblue" d="M144.24,-68.4035C128.785,-59.9735 104.705,-46.8389 84.7546,-35.957"/>
<polygon fill="midnightblue" stroke="midnightblue" points="86.3798,-32.8567 75.9248,-31.1408 83.0278,-39.002 86.3798,-32.8567"/>
</g>
<!-- Node2&#45;&gt;Node4 -->
<g id="edge3" class="edge"><title>Node2&#45;&gt;Node4</title>
<path fill="none" stroke="midnightblue" d="M172.322,-68.4035C186.116,-58.7797 208.699,-43.0242 225.232,-31.4891"/>
<polygon fill="midnightblue" stroke="midnightblue" points="227.503,-34.1729 233.701,-25.5806 223.497,-28.432 227.503,-34.1729"/>
</g>
<!-- Node5 -->
<g id="node5" class="node"><title>Node5</title>
<polygon fill="white" stroke="#bfbfbf" points="118.5,-6.5 118.5,-25.5 201.5,-25.5 201.5,-6.5 118.5,-6.5"/>
<text text-anchor="middle" x="160" y="-13.5" font-family="Helvetica,sans-Serif" font-size="10.00">spdlog/logger.h</text>
</g>
<!-- Node2&#45;&gt;Node5 -->
<g id="edge4" class="edge"><title>Node2&#45;&gt;Node5</title>
<path fill="none" stroke="midnightblue" d="M160,-68.4035C160,-59.9381 160,-46.7283 160,-35.8199"/>
<polygon fill="midnightblue" stroke="midnightblue" points="163.5,-35.5806 160,-25.5806 156.5,-35.5806 163.5,-35.5806"/>
</g>
</g>
</svg>
