<?xml version="1.0" encoding="UTF-8" standalone="no"?>
<!DOCTYPE svg PUBLIC "-//W3C//DTD SVG 1.1//EN"
 "http://www.w3.org/Graphics/SVG/1.1/DTD/svg11.dtd">
<!-- Generated by graphviz version 2.36.0 (20140111.2315)
 -->
<!-- Title: Exception.h Pages: 1 -->
<!--zoomable 252 -->
<svg id="main" version="1.1" xmlns="http://www.w3.org/2000/svg" xmlns:xlink="http://www.w3.org/1999/xlink" xml:space="preserve" onload="init(evt)">
<style type="text/css"><![CDATA[
.edge:hover path { stroke: red; }
.edge:hover polygon { stroke: red; fill: red; }
]]></style>
<script type="text/javascript"><![CDATA[
var edges = document.getElementsByTagName('g');
if (edges && edges.length) {
  for (var i=0;i<edges.length;i++) {
    if (edges[i].id.substr(0,4)=='edge') {
      edges[i].setAttribute('class','edge');
    }
  }
}
]]></script>
        <defs>
                <circle id="rim" cx="0" cy="0" r="7"/>
                <circle id="rim2" cx="0" cy="0" r="3.5"/>
                <g id="zoomPlus">
                        <use xlink:href="#rim" fill="#404040">
                                <set attributeName="fill" to="#808080" begin="zoomplus.mouseover" end="zoomplus.mouseout"/>
                        </use>
                        <path d="M-4,0h8M0,-4v8" fill="none" stroke="white" stroke-width="1.5" pointer-events="none"/>
                </g>
                <g id="zoomMin">
                        <use xlink:href="#rim" fill="#404040">
                                <set attributeName="fill" to="#808080" begin="zoomminus.mouseover" end="zoomminus.mouseout"/>
                        </use>
                        <path d="M-4,0h8" fill="none" stroke="white" stroke-width="1.5" pointer-events="none"/>
                </g>
                <g id="dirArrow">
                        <path fill="none" stroke="white" stroke-width="1.5" d="M0,-3.0v7 M-2.5,-0.5L0,-3.0L2.5,-0.5"/>
                </g>
               <g id="resetDef">
                       <use xlink:href="#rim2" fill="#404040">
                               <set attributeName="fill" to="#808080" begin="reset.mouseover" end="reset.mouseout"/>
                       </use>
               </g>
        </defs>

<script type="text/javascript">
var viewWidth = 1815;
var viewHeight = 252;
var sectionId = 'dynsection-1';
</script>
<script xlink:href="../../svgpan.js"/>
<svg id="graph" class="graph">
<g id="viewport">
<title>Exception.h</title>
<polygon fill="white" stroke="none" points="-4,4 -4,-248 1811,-248 1811,4 -4,4"/>
<!-- Node1 -->
<g id="node1" class="node"><title>Node1</title>
<polygon fill="#bfbfbf" stroke="black" points="814,-224.5 814,-243.5 882,-243.5 882,-224.5 814,-224.5"/>
<text text-anchor="middle" x="848" y="-231.5" font-family="Helvetica,sans-Serif" font-size="10.00">Exception.h</text>
</g>
<!-- Node2 -->
<g id="node2" class="node"><title>Node2</title>
<g id="a_node2"><a xlink:href="../../d5/d0b/a00220.html" target="_top" xlink:title="Community.cpp">
<polygon fill="white" stroke="black" points="0,-168.5 0,-187.5 86,-187.5 86,-168.5 0,-168.5"/>
<text text-anchor="middle" x="43" y="-175.5" font-family="Helvetica,sans-Serif" font-size="10.00">Community.cpp</text>
</a>
</g>
</g>
<!-- Node1&#45;&gt;Node2 -->
<g id="edge1" class="edge"><title>Node1&#45;&gt;Node2</title>
<path fill="none" stroke="midnightblue" d="M803.482,-232.02C686.946,-229.091 363.449,-218.619 96,-188 92.7546,-187.628 89.406,-187.19 86.0429,-186.711"/>
<polygon fill="midnightblue" stroke="midnightblue" points="803.7,-235.527 813.783,-232.273 803.872,-228.529 803.7,-235.527"/>
</g>
<!-- Node3 -->
<g id="node3" class="node"><title>Node3</title>
<g id="a_node3"><a xlink:href="../../d0/d19/a00273.html" target="_top" xlink:title="GeoGrid.cpp">
<polygon fill="white" stroke="black" points="104.5,-168.5 104.5,-187.5 175.5,-187.5 175.5,-168.5 104.5,-168.5"/>
<text text-anchor="middle" x="140" y="-175.5" font-family="Helvetica,sans-Serif" font-size="10.00">GeoGrid.cpp</text>
</a>
</g>
</g>
<!-- Node1&#45;&gt;Node3 -->
<g id="edge2" class="edge"><title>Node1&#45;&gt;Node3</title>
<path fill="none" stroke="midnightblue" d="M803.586,-231.972C696.651,-229.066 416.579,-218.885 185,-188 181.999,-187.6 178.897,-187.12 175.791,-186.593"/>
<polygon fill="midnightblue" stroke="midnightblue" points="803.596,-235.474 813.685,-232.239 803.781,-228.476 803.596,-235.474"/>
</g>
<!-- Node4 -->
<g id="node4" class="node"><title>Node4</title>
<g id="a_node4"><a xlink:href="../../d5/ddf/a00224.html" target="_top" xlink:title="CommutesCSVReader.cpp">
<polygon fill="white" stroke="black" points="194,-168.5 194,-187.5 330,-187.5 330,-168.5 194,-168.5"/>
<text text-anchor="middle" x="262" y="-175.5" font-family="Helvetica,sans-Serif" font-size="10.00">CommutesCSVReader.cpp</text>
</a>
</g>
</g>
<!-- Node1&#45;&gt;Node4 -->
<g id="edge3" class="edge"><title>Node1&#45;&gt;Node4</title>
<path fill="none" stroke="midnightblue" d="M803.5,-229.49C714.971,-222.413 510.512,-205.601 339,-188 336.054,-187.698 333.047,-187.381 330.009,-187.054"/>
<polygon fill="midnightblue" stroke="midnightblue" points="803.465,-232.998 813.711,-230.304 804.021,-226.02 803.465,-232.998"/>
</g>
<!-- Node5 -->
<g id="node5" class="node"><title>Node5</title>
<g id="a_node5"><a xlink:href="../../d0/dcd/a00280.html" target="_top" xlink:title="GeoGridJSONReader.cpp">
<polygon fill="white" stroke="black" points="348,-168.5 348,-187.5 478,-187.5 478,-168.5 348,-168.5"/>
<text text-anchor="middle" x="413" y="-175.5" font-family="Helvetica,sans-Serif" font-size="10.00">GeoGridJSONReader.cpp</text>
</a>
</g>
</g>
<!-- Node1&#45;&gt;Node5 -->
<g id="edge4" class="edge"><title>Node1&#45;&gt;Node5</title>
<path fill="none" stroke="midnightblue" d="M803.549,-227.482C726.475,-217.914 567.721,-198.207 478.168,-187.09"/>
<polygon fill="midnightblue" stroke="midnightblue" points="803.511,-231.004 813.866,-228.763 804.374,-224.057 803.511,-231.004"/>
</g>
<!-- Node6 -->
<g id="node6" class="node"><title>Node6</title>
<g id="a_node6"><a xlink:href="../../d5/d7b/a00286.html" target="_top" xlink:title="GeoGridProtoReader.cpp">
<polygon fill="white" stroke="black" points="496,-168.5 496,-187.5 622,-187.5 622,-168.5 496,-168.5"/>
<text text-anchor="middle" x="559" y="-175.5" font-family="Helvetica,sans-Serif" font-size="10.00">GeoGridProtoReader.cpp</text>
</a>
</g>
</g>
<!-- Node1&#45;&gt;Node6 -->
<g id="edge5" class="edge"><title>Node1&#45;&gt;Node6</title>
<path fill="none" stroke="midnightblue" d="M804.067,-224.791C750.218,-214.729 659.408,-197.761 604.746,-187.548"/>
<polygon fill="midnightblue" stroke="midnightblue" points="803.525,-228.25 813.998,-226.647 804.811,-221.369 803.525,-228.25"/>
</g>
<!-- Node7 -->
<g id="node7" class="node"><title>Node7</title>
<g id="a_node7"><a xlink:href="../../da/ddc/a00288.html" target="_top" xlink:title="GeoGridProtoWriter.cpp">
<polygon fill="white" stroke="black" points="640.5,-168.5 640.5,-187.5 761.5,-187.5 761.5,-168.5 640.5,-168.5"/>
<text text-anchor="middle" x="701" y="-175.5" font-family="Helvetica,sans-Serif" font-size="10.00">GeoGridProtoWriter.cpp</text>
</a>
</g>
</g>
<!-- Node1&#45;&gt;Node7 -->
<g id="edge6" class="edge"><title>Node1&#45;&gt;Node7</title>
<path fill="none" stroke="midnightblue" d="M815.077,-220.906C787.44,-210.754 748.656,-196.506 724.184,-187.516"/>
<polygon fill="midnightblue" stroke="midnightblue" points="814.114,-224.281 824.707,-224.444 816.528,-217.71 814.114,-224.281"/>
</g>
<!-- Node8 -->
<g id="node8" class="node"><title>Node8</title>
<g id="a_node8"><a xlink:href="../../d8/d0a/a00292.html" target="_top" xlink:title="GeoGridReaderFactory.cpp">
<polygon fill="white" stroke="black" points="780,-168.5 780,-187.5 916,-187.5 916,-168.5 780,-168.5"/>
<text text-anchor="middle" x="848" y="-175.5" font-family="Helvetica,sans-Serif" font-size="10.00">GeoGridReaderFactory.cpp</text>
</a>
</g>
</g>
<!-- Node1&#45;&gt;Node8 -->
<g id="edge7" class="edge"><title>Node1&#45;&gt;Node8</title>
<path fill="none" stroke="midnightblue" d="M848,-213.805C848,-204.91 848,-194.78 848,-187.751"/>
<polygon fill="midnightblue" stroke="midnightblue" points="844.5,-214.083 848,-224.083 851.5,-214.083 844.5,-214.083"/>
</g>
<!-- Node9 -->
<g id="node9" class="node"><title>Node9</title>
<g id="a_node9"><a xlink:href="../../d9/d5e/a00295.html" target="_top" xlink:title="GeoGridWriterFactory.cpp">
<polygon fill="white" stroke="black" points="934.5,-168.5 934.5,-187.5 1065.5,-187.5 1065.5,-168.5 934.5,-168.5"/>
<text text-anchor="middle" x="1000" y="-175.5" font-family="Helvetica,sans-Serif" font-size="10.00">GeoGridWriterFactory.cpp</text>
</a>
</g>
</g>
<!-- Node1&#45;&gt;Node9 -->
<g id="edge8" class="edge"><title>Node1&#45;&gt;Node9</title>
<path fill="none" stroke="midnightblue" d="M881.668,-221.039C910.268,-210.879 950.612,-196.546 976.028,-187.516"/>
<polygon fill="midnightblue" stroke="midnightblue" points="880.336,-217.798 872.085,-224.444 882.68,-224.394 880.336,-217.798"/>
</g>
<!-- Node10 -->
<g id="node10" class="node"><title>Node10</title>
<g id="a_node10"><a xlink:href="../../da/dee/a00383.html" target="_top" xlink:title="ReaderFactory.cpp">
<polygon fill="white" stroke="black" points="1084,-168.5 1084,-187.5 1184,-187.5 1184,-168.5 1084,-168.5"/>
<text text-anchor="middle" x="1134" y="-175.5" font-family="Helvetica,sans-Serif" font-size="10.00">ReaderFactory.cpp</text>
</a>
</g>
</g>
<!-- Node1&#45;&gt;Node10 -->
<g id="edge9" class="edge"><title>Node1&#45;&gt;Node10</title>
<path fill="none" stroke="midnightblue" d="M892.075,-224.678C945.504,-214.59 1035.06,-197.681 1088.93,-187.509"/>
<polygon fill="midnightblue" stroke="midnightblue" points="891.391,-221.245 882.214,-226.54 892.69,-228.124 891.391,-221.245"/>
</g>
<!-- Node11 -->
<g id="node11" class="node"><title>Node11</title>
<g id="a_node11"><a xlink:href="../../d8/d8e/a00344.html" target="_top" xlink:title="Location.cpp">
<polygon fill="white" stroke="black" points="1202,-168.5 1202,-187.5 1274,-187.5 1274,-168.5 1202,-168.5"/>
<text text-anchor="middle" x="1238" y="-175.5" font-family="Helvetica,sans-Serif" font-size="10.00">Location.cpp</text>
</a>
</g>
</g>
<!-- Node1&#45;&gt;Node11 -->
<g id="edge10" class="edge"><title>Node1&#45;&gt;Node11</title>
<path fill="none" stroke="midnightblue" d="M892.416,-228.181C958.247,-220.817 1085.52,-205.737 1193,-188 1195.83,-187.533 1198.75,-187.019 1201.69,-186.481"/>
<polygon fill="midnightblue" stroke="midnightblue" points="891.942,-224.712 882.391,-229.295 892.716,-231.669 891.942,-224.712"/>
</g>
<!-- Node12 -->
<g id="node12" class="node"><title>Node12</title>
<g id="a_node12"><a xlink:href="../../d4/d82/a00436.html" target="_top" xlink:title="TravellerProfileBuilder.cpp">
<polygon fill="white" stroke="black" points="1292.5,-168.5 1292.5,-187.5 1423.5,-187.5 1423.5,-168.5 1292.5,-168.5"/>
<text text-anchor="middle" x="1358" y="-175.5" font-family="Helvetica,sans-Serif" font-size="10.00">TravellerProfileBuilder.cpp</text>
</a>
</g>
</g>
<!-- Node1&#45;&gt;Node12 -->
<g id="edge11" class="edge"><title>Node1&#45;&gt;Node12</title>
<path fill="none" stroke="midnightblue" d="M892.171,-228.671C970.8,-220.912 1140.2,-203.953 1283,-188 1286,-187.665 1289.06,-187.318 1292.16,-186.963"/>
<polygon fill="midnightblue" stroke="midnightblue" points="891.749,-225.196 882.14,-229.66 892.435,-232.162 891.749,-225.196"/>
</g>
<!-- Node13 -->
<g id="node13" class="node"><title>Node13</title>
<g id="a_node13"><a xlink:href="../../df/da9/a00263.html" target="_top" xlink:title="ExcAssert.h">
<polygon fill="white" stroke="black" points="1441.5,-168.5 1441.5,-187.5 1512.5,-187.5 1512.5,-168.5 1441.5,-168.5"/>
<text text-anchor="middle" x="1477" y="-175.5" font-family="Helvetica,sans-Serif" font-size="10.00">ExcAssert.h</text>
</a>
</g>
</g>
<!-- Node1&#45;&gt;Node13 -->
<g id="edge12" class="edge"><title>Node1&#45;&gt;Node13</title>
<path fill="none" stroke="midnightblue" d="M892.151,-231.415C989.844,-227.512 1231.54,-215.667 1432,-188 1435,-187.586 1438.1,-187.097 1441.2,-186.563"/>
<polygon fill="midnightblue" stroke="midnightblue" points="891.91,-227.922 882.055,-231.811 892.184,-234.917 891.91,-227.922"/>
</g>
<!-- Node32 -->
<g id="node32" class="node"><title>Node32</title>
<g id="a_node32"><a xlink:href="../../d3/dcc/a00264.html" target="_top" xlink:title="Exception.cpp">
<polygon fill="white" stroke="black" points="1530.5,-168.5 1530.5,-187.5 1609.5,-187.5 1609.5,-168.5 1530.5,-168.5"/>
<text text-anchor="middle" x="1570" y="-175.5" font-family="Helvetica,sans-Serif" font-size="10.00">Exception.cpp</text>
</a>
</g>
</g>
<!-- Node1&#45;&gt;Node32 -->
<g id="edge41" class="edge"><title>Node1&#45;&gt;Node32</title>
<path fill="none" stroke="midnightblue" d="M892.278,-231.799C1000.17,-228.489 1285.13,-217.449 1521,-188 1524.09,-187.614 1527.28,-187.159 1530.48,-186.661"/>
<polygon fill="midnightblue" stroke="midnightblue" points="891.987,-228.306 882.097,-232.104 892.197,-235.303 891.987,-228.306"/>
</g>
<!-- Node14 -->
<g id="node14" class="node"><title>Node14</title>
<g id="a_node14"><a xlink:href="../../df/dc2/a00367.html" target="_top" xlink:title="PartialGenerator.h">
<polygon fill="white" stroke="black" points="1308.5,-112.5 1308.5,-131.5 1403.5,-131.5 1403.5,-112.5 1308.5,-112.5"/>
<text text-anchor="middle" x="1356" y="-119.5" font-family="Helvetica,sans-Serif" font-size="10.00">PartialGenerator.h</text>
</a>
</g>
</g>
<!-- Node13&#45;&gt;Node14 -->
<g id="edge13" class="edge"><title>Node13&#45;&gt;Node14</title>
<path fill="none" stroke="midnightblue" d="M1448.69,-164.368C1426.03,-154.255 1394.87,-140.349 1375.08,-131.516"/>
<polygon fill="midnightblue" stroke="midnightblue" points="1447.27,-167.564 1457.83,-168.444 1450.12,-161.172 1447.27,-167.564"/>
</g>
<!-- Node30 -->
<g id="node30" class="node"><title>Node30</title>
<g id="a_node30"><a xlink:href="../../dc/d9a/a00218.html" target="_top" xlink:title="CollegePopulator.cpp">
<polygon fill="white" stroke="black" points="1422,-112.5 1422,-131.5 1532,-131.5 1532,-112.5 1422,-112.5"/>
<text text-anchor="middle" x="1477" y="-119.5" font-family="Helvetica,sans-Serif" font-size="10.00">CollegePopulator.cpp</text>
</a>
</g>
</g>
<!-- Node13&#45;&gt;Node30 -->
<g id="edge39" class="edge"><title>Node13&#45;&gt;Node30</title>
<path fill="none" stroke="midnightblue" d="M1477,-157.805C1477,-148.91 1477,-138.78 1477,-131.751"/>
<polygon fill="midnightblue" stroke="midnightblue" points="1473.5,-158.083 1477,-168.083 1480.5,-158.083 1473.5,-158.083"/>
</g>
<!-- Node31 -->
<g id="node31" class="node"><title>Node31</title>
<g id="a_node31"><a xlink:href="../../d0/dc4/a00443.html" target="_top" xlink:title="WorkplacePopulator.cpp">
<polygon fill="white" stroke="black" points="1550.5,-112.5 1550.5,-131.5 1673.5,-131.5 1673.5,-112.5 1550.5,-112.5"/>
<text text-anchor="middle" x="1612" y="-119.5" font-family="Helvetica,sans-Serif" font-size="10.00">WorkplacePopulator.cpp</text>
</a>
</g>
</g>
<!-- Node13&#45;&gt;Node31 -->
<g id="edge40" class="edge"><title>Node13&#45;&gt;Node31</title>
<path fill="none" stroke="midnightblue" d="M1507.91,-164.638C1533.24,-154.504 1568.43,-140.427 1590.71,-131.516"/>
<polygon fill="midnightblue" stroke="midnightblue" points="1506.38,-161.48 1498.39,-168.444 1508.98,-167.979 1506.38,-161.48"/>
</g>
<!-- Node15 -->
<g id="node15" class="node"><title>Node15</title>
<g id="a_node15"><a xlink:href="../../df/d24/a00217.html" target="_top" xlink:title="CollegeGenerator.h">
<polygon fill="white" stroke="black" points="1047.5,-56.5 1047.5,-75.5 1148.5,-75.5 1148.5,-56.5 1047.5,-56.5"/>
<text text-anchor="middle" x="1098" y="-63.5" font-family="Helvetica,sans-Serif" font-size="10.00">CollegeGenerator.h</text>
</a>
</g>
</g>
<!-- Node14&#45;&gt;Node15 -->
<g id="edge14" class="edge"><title>Node14&#45;&gt;Node15</title>
<path fill="none" stroke="midnightblue" d="M1305.1,-110.346C1256.34,-100.141 1183.71,-84.94 1138.69,-75.5164"/>
<polygon fill="midnightblue" stroke="midnightblue" points="1304.61,-113.821 1315.12,-112.444 1306.05,-106.969 1304.61,-113.821"/>
</g>
<!-- Node19 -->
<g id="node19" class="node"><title>Node19</title>
<g id="a_node19"><a xlink:href="../../dc/d28/a00223.html" target="_top" xlink:title="CommunityGenerator.h">
<polygon fill="white" stroke="black" points="1565,-56.5 1565,-75.5 1683,-75.5 1683,-56.5 1565,-56.5"/>
<text text-anchor="middle" x="1624" y="-63.5" font-family="Helvetica,sans-Serif" font-size="10.00">CommunityGenerator.h</text>
</a>
</g>
</g>
<!-- Node14&#45;&gt;Node19 -->
<g id="edge18" class="edge"><title>Node14&#45;&gt;Node19</title>
<path fill="none" stroke="midnightblue" d="M1408.56,-110.41C1459.21,-100.204 1534.87,-84.9597 1581.73,-75.5164"/>
<polygon fill="midnightblue" stroke="midnightblue" points="1407.58,-107.037 1398.47,-112.444 1408.96,-113.899 1407.58,-107.037"/>
</g>
<!-- Node21 -->
<g id="node21" class="node"><title>Node21</title>
<g id="a_node21"><a xlink:href="../../d2/d82/a00279.html" target="_top" xlink:title="GeoGridGenerator.h">
<polygon fill="white" stroke="black" points="925,-56.5 925,-75.5 1029,-75.5 1029,-56.5 925,-56.5"/>
<text text-anchor="middle" x="977" y="-63.5" font-family="Helvetica,sans-Serif" font-size="10.00">GeoGridGenerator.h</text>
</a>
</g>
</g>
<!-- Node14&#45;&gt;Node21 -->
<g id="edge22" class="edge"><title>Node14&#45;&gt;Node21</title>
<path fill="none" stroke="midnightblue" d="M1298.25,-112.857C1234.7,-103.885 1129.56,-89.0006 1039,-76 1035.77,-75.5363 1032.45,-75.0577 1029.09,-74.5741"/>
<polygon fill="midnightblue" stroke="midnightblue" points="1298.07,-116.367 1308.46,-114.299 1299.05,-109.436 1298.07,-116.367"/>
</g>
<!-- Node23 -->
<g id="node23" class="node"><title>Node23</title>
<g id="a_node23"><a xlink:href="../../d1/d5d/a00311.html" target="_top" xlink:title="HouseholdGenerator.h">
<polygon fill="white" stroke="black" points="1167,-56.5 1167,-75.5 1281,-75.5 1281,-56.5 1167,-56.5"/>
<text text-anchor="middle" x="1224" y="-63.5" font-family="Helvetica,sans-Serif" font-size="10.00">HouseholdGenerator.h</text>
</a>
</g>
</g>
<!-- Node14&#45;&gt;Node23 -->
<g id="edge26" class="edge"><title>Node14&#45;&gt;Node23</title>
<path fill="none" stroke="midnightblue" d="M1325.78,-108.638C1301.01,-98.504 1266.6,-84.4274 1244.82,-75.5164"/>
<polygon fill="midnightblue" stroke="midnightblue" points="1324.5,-111.897 1335.08,-112.444 1327.15,-105.418 1324.5,-111.897"/>
</g>
<!-- Node25 -->
<g id="node25" class="node"><title>Node25</title>
<g id="a_node25"><a xlink:href="../../d4/dce/a00337.html" target="_top" xlink:title="K12SchoolGenerator.h">
<polygon fill="white" stroke="black" points="1431.5,-56.5 1431.5,-75.5 1546.5,-75.5 1546.5,-56.5 1431.5,-56.5"/>
<text text-anchor="middle" x="1489" y="-63.5" font-family="Helvetica,sans-Serif" font-size="10.00">K12SchoolGenerator.h</text>
</a>
</g>
</g>
<!-- Node14&#45;&gt;Node25 -->
<g id="edge30" class="edge"><title>Node14&#45;&gt;Node25</title>
<path fill="none" stroke="midnightblue" d="M1386.45,-108.638C1411.41,-98.504 1446.08,-84.4274 1468.02,-75.5164"/>
<polygon fill="midnightblue" stroke="midnightblue" points="1385.02,-105.439 1377.07,-112.444 1387.66,-111.924 1385.02,-105.439"/>
</g>
<!-- Node27 -->
<g id="node27" class="node"><title>Node27</title>
<g id="a_node27"><a xlink:href="../../d2/d3e/a00366.html" target="_top" xlink:title="PartialGenerator.cpp">
<polygon fill="white" stroke="black" points="1701,-56.5 1701,-75.5 1807,-75.5 1807,-56.5 1701,-56.5"/>
<text text-anchor="middle" x="1754" y="-63.5" font-family="Helvetica,sans-Serif" font-size="10.00">PartialGenerator.cpp</text>
</a>
</g>
</g>
<!-- Node14&#45;&gt;Node27 -->
<g id="edge34" class="edge"><title>Node14&#45;&gt;Node27</title>
<path fill="none" stroke="midnightblue" d="M1413.52,-111.962C1538.41,-94.1739 1571.28,-92.5499 1692,-76 1694.91,-75.6011 1697.89,-75.1863 1700.91,-74.7633"/>
<polygon fill="midnightblue" stroke="midnightblue" points="1412.97,-108.505 1403.57,-113.386 1413.97,-115.434 1412.97,-108.505"/>
</g>
<!-- Node28 -->
<g id="node28" class="node"><title>Node28</title>
<g id="a_node28"><a xlink:href="../../db/d34/a00442.html" target="_top" xlink:title="WorkplaceGenerator.h">
<polygon fill="white" stroke="black" points="1299,-56.5 1299,-75.5 1413,-75.5 1413,-56.5 1299,-56.5"/>
<text text-anchor="middle" x="1356" y="-63.5" font-family="Helvetica,sans-Serif" font-size="10.00">WorkplaceGenerator.h</text>
</a>
</g>
</g>
<!-- Node14&#45;&gt;Node28 -->
<g id="edge35" class="edge"><title>Node14&#45;&gt;Node28</title>
<path fill="none" stroke="midnightblue" d="M1356,-101.805C1356,-92.9102 1356,-82.7798 1356,-75.7511"/>
<polygon fill="midnightblue" stroke="midnightblue" points="1352.5,-102.083 1356,-112.083 1359.5,-102.083 1352.5,-102.083"/>
</g>
<!-- Node16 -->
<g id="node16" class="node"><title>Node16</title>
<g id="a_node16"><a xlink:href="../../d6/d43/a00216.html" target="_top" xlink:title="CollegeGenerator.cpp">
<polygon fill="white" stroke="black" points="896.5,-0.5 896.5,-19.5 1007.5,-19.5 1007.5,-0.5 896.5,-0.5"/>
<text text-anchor="middle" x="952" y="-7.5" font-family="Helvetica,sans-Serif" font-size="10.00">CollegeGenerator.cpp</text>
</a>
</g>
</g>
<!-- Node15&#45;&gt;Node16 -->
<g id="edge15" class="edge"><title>Node15&#45;&gt;Node16</title>
<path fill="none" stroke="midnightblue" d="M1065.3,-52.9058C1037.85,-42.7536 999.332,-28.5063 975.026,-19.5164"/>
<polygon fill="midnightblue" stroke="midnightblue" points="1064.27,-56.2572 1074.87,-56.4435 1066.7,-49.6919 1064.27,-56.2572"/>
</g>
<!-- Node17 -->
<g id="node17" class="node"><title>Node17</title>
<g id="a_node17"><a xlink:href="../../db/d12/a00268.html" target="_top" xlink:title="GenGeoPopController.cpp">
<polygon fill="white" stroke="black" points="1168.5,-0.5 1168.5,-19.5 1299.5,-19.5 1299.5,-0.5 1168.5,-0.5"/>
<text text-anchor="middle" x="1234" y="-7.5" font-family="Helvetica,sans-Serif" font-size="10.00">GenGeoPopController.cpp</text>
</a>
</g>
</g>
<!-- Node15&#45;&gt;Node17 -->
<g id="edge16" class="edge"><title>Node15&#45;&gt;Node17</title>
<path fill="none" stroke="midnightblue" d="M1129.13,-52.6377C1154.66,-42.504 1190.11,-28.4274 1212.55,-19.5164"/>
<polygon fill="midnightblue" stroke="midnightblue" points="1127.55,-49.5002 1119.55,-56.4435 1130.14,-56.0061 1127.55,-49.5002"/>
</g>
<!-- Node18 -->
<g id="node18" class="node"><title>Node18</title>
<g id="a_node18"><a xlink:href="../../d6/d9c/a00352.html" target="_top" xlink:title="main.cpp">
<polygon fill="white" stroke="black" points="1318,-0.5 1318,-19.5 1374,-19.5 1374,-0.5 1318,-0.5"/>
<text text-anchor="middle" x="1346" y="-7.5" font-family="Helvetica,sans-Serif" font-size="10.00">main.cpp</text>
</a>
</g>
</g>
<!-- Node15&#45;&gt;Node18 -->
<g id="edge17" class="edge"><title>Node15&#45;&gt;Node18</title>
<path fill="none" stroke="midnightblue" d="M1148.95,-54.4025C1191.51,-45.4708 1253.79,-32.2271 1308,-20 1311.17,-19.284 1314.49,-18.5201 1317.79,-17.7515"/>
<polygon fill="midnightblue" stroke="midnightblue" points="1148.17,-50.9886 1139.1,-56.4648 1149.61,-57.8399 1148.17,-50.9886"/>
</g>
<!-- Node19&#45;&gt;Node17 -->
<g id="edge20" class="edge"><title>Node19&#45;&gt;Node17</title>
<path fill="none" stroke="midnightblue" d="M1554.67,-55.4C1481.06,-45.2083 1365.84,-29.2544 1295.4,-19.5018"/>
<polygon fill="midnightblue" stroke="midnightblue" points="1554.38,-58.8939 1564.77,-56.7986 1555.34,-51.96 1554.38,-58.8939"/>
</g>
<!-- Node19&#45;&gt;Node18 -->
<g id="edge21" class="edge"><title>Node19&#45;&gt;Node18</title>
<path fill="none" stroke="midnightblue" d="M1563.91,-54.7089C1515.04,-46.1172 1444.38,-33.1864 1383,-20 1380.16,-19.3891 1377.2,-18.7223 1374.25,-18.0369"/>
<polygon fill="midnightblue" stroke="midnightblue" points="1563.54,-58.1975 1573.99,-56.4749 1564.75,-51.3024 1563.54,-58.1975"/>
</g>
<!-- Node20 -->
<g id="node20" class="node"><title>Node20</title>
<g id="a_node20"><a xlink:href="../../d0/d24/a00222.html" target="_top" xlink:title="CommunityGenerator.cpp">
<polygon fill="white" stroke="black" points="1678,-0.5 1678,-19.5 1806,-19.5 1806,-0.5 1678,-0.5"/>
<text text-anchor="middle" x="1742" y="-7.5" font-family="Helvetica,sans-Serif" font-size="10.00">CommunityGenerator.cpp</text>
</a>
</g>
</g>
<!-- Node19&#45;&gt;Node20 -->
<g id="edge19" class="edge"><title>Node19&#45;&gt;Node20</title>
<path fill="none" stroke="midnightblue" d="M1651.9,-52.2321C1673.97,-42.1312 1704.18,-28.3091 1723.39,-19.5164"/>
<polygon fill="midnightblue" stroke="midnightblue" points="1650.33,-49.0997 1642.7,-56.4435 1653.25,-55.4648 1650.33,-49.0997"/>
</g>
<!-- Node21&#45;&gt;Node17 -->
<g id="edge24" class="edge"><title>Node21&#45;&gt;Node17</title>
<path fill="none" stroke="midnightblue" d="M1027.71,-54.3456C1076.28,-44.1405 1148.62,-28.94 1193.47,-19.5164"/>
<polygon fill="midnightblue" stroke="midnightblue" points="1026.79,-50.962 1017.72,-56.4435 1028.23,-57.8124 1026.79,-50.962"/>
</g>
<!-- Node21&#45;&gt;Node18 -->
<g id="edge25" class="edge"><title>Node21&#45;&gt;Node18</title>
<path fill="none" stroke="midnightblue" d="M1038.7,-56.0423C1038.8,-56.0282 1038.9,-56.0141 1039,-56 1158.46,-39.3358 1189.39,-41.9267 1308,-20 1311.2,-19.4084 1314.54,-18.7223 1317.84,-17.9979"/>
<polygon fill="midnightblue" stroke="midnightblue" points="1038.5,-52.5349 1029.09,-57.3958 1039.48,-59.4665 1038.5,-52.5349"/>
</g>
<!-- Node22 -->
<g id="node22" class="node"><title>Node22</title>
<g id="a_node22"><a xlink:href="../../dc/d5d/a00278.html" target="_top" xlink:title="GeoGridGenerator.cpp">
<polygon fill="white" stroke="black" points="764,-0.5 764,-19.5 878,-19.5 878,-0.5 764,-0.5"/>
<text text-anchor="middle" x="821" y="-7.5" font-family="Helvetica,sans-Serif" font-size="10.00">GeoGridGenerator.cpp</text>
</a>
</g>
</g>
<!-- Node21&#45;&gt;Node22 -->
<g id="edge23" class="edge"><title>Node21&#45;&gt;Node22</title>
<path fill="none" stroke="midnightblue" d="M942.83,-53.172C913.456,-43.0039 871.802,-28.5852 845.603,-19.5164"/>
<polygon fill="midnightblue" stroke="midnightblue" points="941.687,-56.4798 952.281,-56.4435 943.976,-49.8649 941.687,-56.4798"/>
</g>
<!-- Node23&#45;&gt;Node17 -->
<g id="edge28" class="edge"><title>Node23&#45;&gt;Node17</title>
<path fill="none" stroke="midnightblue" d="M1227.5,-46.1005C1229.16,-37.1357 1231.06,-26.8579 1232.38,-19.7511"/>
<polygon fill="midnightblue" stroke="midnightblue" points="1224.03,-45.6128 1225.65,-56.083 1230.91,-46.8875 1224.03,-45.6128"/>
</g>
<!-- Node23&#45;&gt;Node18 -->
<g id="edge29" class="edge"><title>Node23&#45;&gt;Node18</title>
<path fill="none" stroke="midnightblue" d="M1252.54,-52.3678C1275.39,-42.2553 1306.81,-28.3486 1326.76,-19.5164"/>
<polygon fill="midnightblue" stroke="midnightblue" points="1251.06,-49.1955 1243.33,-56.4435 1253.89,-55.5965 1251.06,-49.1955"/>
</g>
<!-- Node24 -->
<g id="node24" class="node"><title>Node24</title>
<g id="a_node24"><a xlink:href="../../d1/d67/a00310.html" target="_top" xlink:title="HouseholdGenerator.cpp">
<polygon fill="white" stroke="black" points="1025.5,-0.5 1025.5,-19.5 1150.5,-19.5 1150.5,-0.5 1025.5,-0.5"/>
<text text-anchor="middle" x="1088" y="-7.5" font-family="Helvetica,sans-Serif" font-size="10.00">HouseholdGenerator.cpp</text>
</a>
</g>
</g>
<!-- Node23&#45;&gt;Node24 -->
<g id="edge27" class="edge"><title>Node23&#45;&gt;Node24</title>
<path fill="none" stroke="midnightblue" d="M1192.87,-52.6377C1167.34,-42.504 1131.89,-28.4274 1109.45,-19.5164"/>
<polygon fill="midnightblue" stroke="midnightblue" points="1191.86,-56.0061 1202.45,-56.4435 1194.45,-49.5002 1191.86,-56.0061"/>
</g>
<!-- Node25&#45;&gt;Node17 -->
<g id="edge32" class="edge"><title>Node25&#45;&gt;Node17</title>
<path fill="none" stroke="midnightblue" d="M1438.69,-54.3456C1390.5,-44.1405 1318.72,-28.94 1274.22,-19.5164"/>
<polygon fill="midnightblue" stroke="midnightblue" points="1438.09,-57.7958 1448.59,-56.4435 1439.54,-50.9477 1438.09,-57.7958"/>
</g>
<!-- Node25&#45;&gt;Node18 -->
<g id="edge33" class="edge"><title>Node25&#45;&gt;Node18</title>
<path fill="none" stroke="midnightblue" d="M1456.97,-52.9058C1430.09,-42.7536 1392.36,-28.5063 1368.55,-19.5164"/>
<polygon fill="midnightblue" stroke="midnightblue" points="1455.75,-56.1851 1466.34,-56.4435 1458.22,-49.6364 1455.75,-56.1851"/>
</g>
<!-- Node26 -->
<g id="node26" class="node"><title>Node26</title>
<g id="a_node26"><a xlink:href="../../dd/d1d/a00336.html" target="_top" xlink:title="K12SchoolGenerator.cpp">
<polygon fill="white" stroke="black" points="1534.5,-0.5 1534.5,-19.5 1659.5,-19.5 1659.5,-0.5 1534.5,-0.5"/>
<text text-anchor="middle" x="1597" y="-7.5" font-family="Helvetica,sans-Serif" font-size="10.00">K12SchoolGenerator.cpp</text>
</a>
</g>
</g>
<!-- Node25&#45;&gt;Node26 -->
<g id="edge31" class="edge"><title>Node25&#45;&gt;Node26</title>
<path fill="none" stroke="midnightblue" d="M1515.55,-51.7261C1535.55,-41.7271 1562.39,-28.3065 1579.69,-19.6545"/>
<polygon fill="midnightblue" stroke="midnightblue" points="1513.73,-48.7213 1506.35,-56.324 1516.86,-54.9823 1513.73,-48.7213"/>
</g>
<!-- Node28&#45;&gt;Node17 -->
<g id="edge37" class="edge"><title>Node28&#45;&gt;Node17</title>
<path fill="none" stroke="midnightblue" d="M1327.46,-52.3678C1304.61,-42.2553 1273.19,-28.3486 1253.24,-19.5164"/>
<polygon fill="midnightblue" stroke="midnightblue" points="1326.11,-55.5965 1336.67,-56.4435 1328.94,-49.1955 1326.11,-55.5965"/>
</g>
<!-- Node28&#45;&gt;Node18 -->
<g id="edge38" class="edge"><title>Node28&#45;&gt;Node18</title>
<path fill="none" stroke="midnightblue" d="M1352.5,-46.1005C1350.84,-37.1357 1348.94,-26.8579 1347.62,-19.7511"/>
<polygon fill="midnightblue" stroke="midnightblue" points="1349.09,-46.8875 1354.35,-56.083 1355.97,-45.6128 1349.09,-46.8875"/>
</g>
<!-- Node29 -->
<g id="node29" class="node"><title>Node29</title>
<g id="a_node29"><a xlink:href="../../d6/d66/a00441.html" target="_top" xlink:title="WorkplaceGenerator.cpp">
<polygon fill="white" stroke="black" points="1391.5,-0.5 1391.5,-19.5 1516.5,-19.5 1516.5,-0.5 1391.5,-0.5"/>
<text text-anchor="middle" x="1454" y="-7.5" font-family="Helvetica,sans-Serif" font-size="10.00">WorkplaceGenerator.cpp</text>
</a>
</g>
</g>
<!-- Node28&#45;&gt;Node29 -->
<g id="edge36" class="edge"><title>Node28&#45;&gt;Node29</title>
<path fill="none" stroke="midnightblue" d="M1380.59,-51.4526C1398.68,-41.4835 1422.73,-28.2279 1438.29,-19.6545"/>
<polygon fill="midnightblue" stroke="midnightblue" points="1378.81,-48.4324 1371.75,-56.324 1382.19,-54.5633 1378.81,-48.4324"/>
</g>
</g>
</svg>
        <g id="navigator" transform="translate(0 0)" fill="#404254">
                <rect fill="#f2f5e9" fill-opacity="0.5" stroke="#606060" stroke-width=".5" x="0" y="0" width="60" height="60"/>
                <use id="zoomplus" xlink:href="#zoomPlus" x="17" y="9" onmousedown="handleZoom(evt,'in')"/>
                <use id="zoomminus" xlink:href="#zoomMin" x="42" y="9" onmousedown="handleZoom(evt,'out')"/>
                <use id="reset" xlink:href="#resetDef" x="30" y="36" onmousedown="handleReset()"/>
                <g id="arrowUp" xlink:href="#dirArrow" transform="translate(30 24)" onmousedown="handlePan(0,-1)">
                  <use xlink:href="#rim" fill="#404040">
                        <set attributeName="fill" to="#808080" begin="arrowUp.mouseover" end="arrowUp.mouseout"/>
                  </use>
                  <path fill="none" stroke="white" stroke-width="1.5" d="M0,-3.0v7 M-2.5,-0.5L0,-3.0L2.5,-0.5"/>
                </g>
                <g id="arrowRight" xlink:href="#dirArrow" transform="rotate(90) translate(36 -43)" onmousedown="handlePan(1,0)">
                  <use xlink:href="#rim" fill="#404040">
                        <set attributeName="fill" to="#808080" begin="arrowRight.mouseover" end="arrowRight.mouseout"/>
                  </use>
                  <path fill="none" stroke="white" stroke-width="1.5" d="M0,-3.0v7 M-2.5,-0.5L0,-3.0L2.5,-0.5"/>
                </g>
                <g id="arrowDown" xlink:href="#dirArrow" transform="rotate(180) translate(-30 -48)" onmousedown="handlePan(0,1)">
                  <use xlink:href="#rim" fill="#404040">
                        <set attributeName="fill" to="#808080" begin="arrowDown.mouseover" end="arrowDown.mouseout"/>
                  </use>
                  <path fill="none" stroke="white" stroke-width="1.5" d="M0,-3.0v7 M-2.5,-0.5L0,-3.0L2.5,-0.5"/>
                </g>
                <g id="arrowLeft" xlink:href="#dirArrow" transform="rotate(270) translate(-36 17)" onmousedown="handlePan(-1,0)">
                  <use xlink:href="#rim" fill="#404040">
                        <set attributeName="fill" to="#808080" begin="arrowLeft.mouseover" end="arrowLeft.mouseout"/>
                  </use>
                  <path fill="none" stroke="white" stroke-width="1.5" d="M0,-3.0v7 M-2.5,-0.5L0,-3.0L2.5,-0.5"/>
                </g>
        </g>
        <svg viewBox="0 0 15 15" width="100%" height="30px" preserveAspectRatio="xMaxYMin meet">
         <g id="arrow_out" transform="scale(0.3 0.3)">
          <a xlink:href="a00618_org.svg" target="_base">
           <rect id="button" ry="5" rx="5" y="6" x="6" height="38" width="38"
                fill="#f2f5e9" fill-opacity="0.5" stroke="#606060" stroke-width="1.0"/>
           <path id="arrow"
             d="M 11.500037,31.436501 C 11.940474,20.09759 22.043105,11.32322 32.158766,21.979434 L 37.068811,17.246167 C 37.068811,17.246167 37.088388,32 37.088388,32 L 22.160133,31.978069 C 22.160133,31.978069 26.997745,27.140456 26.997745,27.140456 C 18.528582,18.264221 13.291696,25.230495 11.500037,31.436501 z"
             style="fill:#404040;"/>
          </a>
         </g>
        </svg>
</svg>
