<?xml version="1.0" encoding="UTF-8" standalone="no"?>
<!DOCTYPE svg PUBLIC "-//W3C//DTD SVG 1.1//EN"
 "http://www.w3.org/Graphics/SVG/1.1/DTD/svg11.dtd">
<!-- Generated by graphviz version 2.36.0 (20140111.2315)
 -->
<!-- Title: SecondaryCommunityPopulator.h Pages: 1 -->
<svg width="404pt" height="84pt"
 viewBox="0.00 0.00 404.00 84.00" xmlns="http://www.w3.org/2000/svg" xmlns:xlink="http://www.w3.org/1999/xlink">
<g id="graph0" class="graph" transform="scale(1 1) rotate(0) translate(4 80)">
<title>SecondaryCommunityPopulator.h</title>
<polygon fill="white" stroke="none" points="-4,4 -4,-80 400,-80 400,4 -4,4"/>
<!-- Node1 -->
<g id="node1" class="node"><title>Node1</title>
<polygon fill="#bfbfbf" stroke="black" points="95.5,-56.5 95.5,-75.5 258.5,-75.5 258.5,-56.5 95.5,-56.5"/>
<text text-anchor="middle" x="177" y="-63.5" font-family="Helvetica,sans-Serif" font-size="10.00">SecondaryCommunityPopulator.h</text>
</g>
<!-- Node2 -->
<g id="node2" class="node"><title>Node2</title>
<g id="a_node2"><a xlink:href="../../d3/dcc/a00264.html" target="_top" xlink:title="GenGeoPopController.cpp">
<polygon fill="white" stroke="black" points="-0.5,-0.5 -0.5,-19.5 130.5,-19.5 130.5,-0.5 -0.5,-0.5"/>
<text text-anchor="middle" x="65" y="-7.5" font-family="Helvetica,sans-Serif" font-size="10.00">GenGeoPopController.cpp</text>
</a>
</g>
</g>
<!-- Node1&#45;&gt;Node2 -->
<g id="edge1" class="edge"><title>Node1&#45;&gt;Node2</title>
<path fill="none" stroke="midnightblue" d="M149.751,-51.8622C128.984,-41.8492 100.977,-28.3458 82.9501,-19.6545"/>
<polygon fill="midnightblue" stroke="midnightblue" points="148.477,-55.1336 159.005,-56.324 151.518,-48.8282 148.477,-55.1336"/>
</g>
<!-- Node3 -->
<g id="node3" class="node"><title>Node3</title>
<g id="a_node3"><a xlink:href="../../df/d03/a00348.html" target="_top" xlink:title="main.cpp">
<polygon fill="white" stroke="black" points="149,-0.5 149,-19.5 205,-19.5 205,-0.5 149,-0.5"/>
<text text-anchor="middle" x="177" y="-7.5" font-family="Helvetica,sans-Serif" font-size="10.00">main.cpp</text>
</a>
</g>
</g>
<!-- Node1&#45;&gt;Node3 -->
<g id="edge2" class="edge"><title>Node1&#45;&gt;Node3</title>
<path fill="none" stroke="midnightblue" d="M177,-45.8045C177,-36.9102 177,-26.7798 177,-19.7511"/>
<polygon fill="midnightblue" stroke="midnightblue" points="173.5,-46.083 177,-56.083 180.5,-46.083 173.5,-46.083"/>
</g>
<!-- Node4 -->
<g id="node4" class="node"><title>Node4</title>
<g id="a_node4"><a xlink:href="../../d9/d0a/a00390.html" target="_top" xlink:title="SecondaryCommunityPopulator.cpp">
<polygon fill="white" stroke="black" points="223.5,-0.5 223.5,-19.5 396.5,-19.5 396.5,-0.5 223.5,-0.5"/>
<text text-anchor="middle" x="310" y="-7.5" font-family="Helvetica,sans-Serif" font-size="10.00">SecondaryCommunityPopulator.cpp</text>
</a>
</g>
</g>
<!-- Node1&#45;&gt;Node4 -->
<g id="edge3" class="edge"><title>Node1&#45;&gt;Node4</title>
<path fill="none" stroke="midnightblue" d="M207.448,-52.6377C232.407,-42.504 267.077,-28.4274 289.024,-19.5164"/>
<polygon fill="midnightblue" stroke="midnightblue" points="206.023,-49.4387 198.074,-56.4435 208.656,-55.9245 206.023,-49.4387"/>
</g>
</g>
</svg>
