<?xml version="1.0" encoding="UTF-8" standalone="no"?>
<!DOCTYPE svg PUBLIC "-//W3C//DTD SVG 1.1//EN"
 "http://www.w3.org/Graphics/SVG/1.1/DTD/svg11.dtd">
<!-- Generated by graphviz version 2.36.0 (20140111.2315)
 -->
<!-- Title: gengeopop::ContactCenter Pages: 1 -->
<!--zoomable 1172 -->
<svg id="main" version="1.1" xmlns="http://www.w3.org/2000/svg" xmlns:xlink="http://www.w3.org/1999/xlink" xml:space="preserve" onload="init(evt)">
<style type="text/css"><![CDATA[
.edge:hover path { stroke: red; }
.edge:hover polygon { stroke: red; fill: red; }
]]></style>
<script type="text/javascript"><![CDATA[
var edges = document.getElementsByTagName('g');
if (edges && edges.length) {
  for (var i=0;i<edges.length;i++) {
    if (edges[i].id.substr(0,4)=='edge') {
      edges[i].setAttribute('class','edge');
    }
  }
}
]]></script>
        <defs>
                <circle id="rim" cx="0" cy="0" r="7"/>
                <circle id="rim2" cx="0" cy="0" r="3.5"/>
                <g id="zoomPlus">
                        <use xlink:href="#rim" fill="#404040">
                                <set attributeName="fill" to="#808080" begin="zoomplus.mouseover" end="zoomplus.mouseout"/>
                        </use>
                        <path d="M-4,0h8M0,-4v8" fill="none" stroke="white" stroke-width="1.5" pointer-events="none"/>
                </g>
                <g id="zoomMin">
                        <use xlink:href="#rim" fill="#404040">
                                <set attributeName="fill" to="#808080" begin="zoomminus.mouseover" end="zoomminus.mouseout"/>
                        </use>
                        <path d="M-4,0h8" fill="none" stroke="white" stroke-width="1.5" pointer-events="none"/>
                </g>
                <g id="dirArrow">
                        <path fill="none" stroke="white" stroke-width="1.5" d="M0,-3.0v7 M-2.5,-0.5L0,-3.0L2.5,-0.5"/>
                </g>
               <g id="resetDef">
                       <use xlink:href="#rim2" fill="#404040">
                               <set attributeName="fill" to="#808080" begin="reset.mouseover" end="reset.mouseout"/>
                       </use>
               </g>
        </defs>

<script type="text/javascript">
var viewWidth = 1355;
var viewHeight = 1172;
var sectionId = 'dynsection-1';
</script>
<script xlink:href="../../svgpan.js"/>
<svg id="graph" class="graph">
<g id="viewport">
<title>gengeopop::ContactCenter</title>
<polygon fill="white" stroke="none" points="-4,4 -4,-1168 1351,-1168 1351,4 -4,4"/>
<!-- Node1 -->
<g id="node1" class="node"><title>Node1</title>
<polygon fill="#bfbfbf" stroke="black" points="1207,-0.5 1207,-189.5 1347,-189.5 1347,-0.5 1207,-0.5"/>
<text text-anchor="middle" x="1277" y="-177.5" font-family="Helvetica,sans-Serif" font-size="10.00">gengeopop::ContactCenter</text>
<polyline fill="none" stroke="black" points="1207,-170.5 1347,-170.5 "/>
<text text-anchor="middle" x="1277" y="-158.5" font-family="Helvetica,sans-Serif" font-size="10.00"> </text>
<polyline fill="none" stroke="black" points="1207,-151.5 1347,-151.5 "/>
<text text-anchor="start" x="1215" y="-139.5" font-family="Helvetica,sans-Serif" font-size="10.00">+ ContactCenter()</text>
<text text-anchor="start" x="1215" y="-128.5" font-family="Helvetica,sans-Serif" font-size="10.00">+ GetType()</text>
<text text-anchor="start" x="1215" y="-117.5" font-family="Helvetica,sans-Serif" font-size="10.00">+ GetPoolSize()</text>
<text text-anchor="start" x="1215" y="-106.5" font-family="Helvetica,sans-Serif" font-size="10.00">+ GetMaxPools()</text>
<text text-anchor="start" x="1215" y="-95.5" font-family="Helvetica,sans-Serif" font-size="10.00">+ Fill()</text>
<text text-anchor="start" x="1215" y="-84.5" font-family="Helvetica,sans-Serif" font-size="10.00">+ GetId()</text>
<text text-anchor="start" x="1215" y="-73.5" font-family="Helvetica,sans-Serif" font-size="10.00">+ GetPopulationAndInfected</text>
<text text-anchor="start" x="1215" y="-62.5" font-family="Helvetica,sans-Serif" font-size="10.00">Count()</text>
<text text-anchor="start" x="1215" y="-51.5" font-family="Helvetica,sans-Serif" font-size="10.00">+ AddPool()</text>
<text text-anchor="start" x="1215" y="-40.5" font-family="Helvetica,sans-Serif" font-size="10.00">+ GetPools()</text>
<text text-anchor="start" x="1215" y="-29.5" font-family="Helvetica,sans-Serif" font-size="10.00">+ begin()</text>
<text text-anchor="start" x="1215" y="-18.5" font-family="Helvetica,sans-Serif" font-size="10.00">+ end()</text>
<text text-anchor="start" x="1215" y="-7.5" font-family="Helvetica,sans-Serif" font-size="10.00">+ ~ContactCenter()</text>
</g>
<!-- Node2 -->
<g id="node2" class="node"><title>Node2</title>
<polygon fill="white" stroke="#bfbfbf" points="1184,-288 1184,-356 1280,-356 1280,-288 1184,-288"/>
<text text-anchor="start" x="1192" y="-344" font-family="Helvetica,sans-Serif" font-size="10.00">std::vector&lt; stride</text>
<text text-anchor="middle" x="1232" y="-333" font-family="Helvetica,sans-Serif" font-size="10.00">::ContactPool * &gt;</text>
<polyline fill="none" stroke="#bfbfbf" points="1184,-326 1280,-326 "/>
<text text-anchor="middle" x="1232" y="-314" font-family="Helvetica,sans-Serif" font-size="10.00"> </text>
<polyline fill="none" stroke="#bfbfbf" points="1184,-307 1280,-307 "/>
<text text-anchor="middle" x="1232" y="-295" font-family="Helvetica,sans-Serif" font-size="10.00"> </text>
</g>
<!-- Node2&#45;&gt;Node1 -->
<g id="edge1" class="edge"><title>Node2&#45;&gt;Node1</title>
<path fill="none" stroke="#404040" d="M1235.71,-287.705C1238.48,-265.11 1242.69,-234.62 1248,-208 1248.43,-205.841 1248.88,-203.662 1249.34,-201.467"/>
<polygon fill="none" stroke="#404040" points="1249.37,-201.348 1246.74,-194.633 1251.93,-189.625 1254.55,-196.341 1249.37,-201.348"/>
<text text-anchor="middle" x="1271" y="-211.5" font-family="Helvetica,sans-Serif" font-size="10.00"> #m_pools</text>
</g>
<!-- Node3 -->
<g id="node3" class="node"><title>Node3</title>
<g id="a_node3"><a xlink:href="../../d4/d3a/a00101.html" target="_top" xlink:title="Represents a group of Persons that potentially have contacts. ">
<polygon fill="white" stroke="black" points="855,-476 855,-654 965,-654 965,-476 855,-476"/>
<text text-anchor="middle" x="910" y="-642" font-family="Helvetica,sans-Serif" font-size="10.00">stride::ContactPool</text>
<polyline fill="none" stroke="black" points="855,-635 965,-635 "/>
<text text-anchor="middle" x="910" y="-623" font-family="Helvetica,sans-Serif" font-size="10.00"> </text>
<polyline fill="none" stroke="black" points="855,-616 965,-616 "/>
<text text-anchor="start" x="863" y="-604" font-family="Helvetica,sans-Serif" font-size="10.00">+ ContactPool()</text>
<text text-anchor="start" x="863" y="-593" font-family="Helvetica,sans-Serif" font-size="10.00">+ ContactPool()</text>
<text text-anchor="start" x="863" y="-582" font-family="Helvetica,sans-Serif" font-size="10.00">+ AddMember()</text>
<text text-anchor="start" x="863" y="-571" font-family="Helvetica,sans-Serif" font-size="10.00">+ GetMember()</text>
<text text-anchor="start" x="863" y="-560" font-family="Helvetica,sans-Serif" font-size="10.00">+ RemoveMember()</text>
<text text-anchor="start" x="863" y="-549" font-family="Helvetica,sans-Serif" font-size="10.00">+ GetPool()</text>
<text text-anchor="start" x="863" y="-538" font-family="Helvetica,sans-Serif" font-size="10.00">+ GetSize()</text>
<text text-anchor="start" x="863" y="-527" font-family="Helvetica,sans-Serif" font-size="10.00">+ GetId()</text>
<text text-anchor="start" x="863" y="-516" font-family="Helvetica,sans-Serif" font-size="10.00">+ GetCapacity()</text>
<text text-anchor="start" x="863" y="-505" font-family="Helvetica,sans-Serif" font-size="10.00">+ GetUsedCapacity()</text>
<text text-anchor="start" x="863" y="-494" font-family="Helvetica,sans-Serif" font-size="10.00">and 8 more...</text>
<text text-anchor="start" x="863" y="-483" font-family="Helvetica,sans-Serif" font-size="10.00">&#45; SortMembers()</text>
</a>
</g>
</g>
<!-- Node3&#45;&gt;Node2 -->
<g id="edge2" class="edge"><title>Node3&#45;&gt;Node2</title>
<path fill="none" stroke="#404040" d="M965.355,-475.616C969.679,-471.401 974.231,-467.483 979,-464 996.911,-450.919 1151.85,-418.742 1170,-406 1184.69,-395.689 1197.35,-380.807 1207.32,-366.483"/>
<polygon fill="none" stroke="#404040" points="1207.49,-366.234 1207.46,-359.023 1214.11,-356.225 1214.13,-363.436 1207.49,-366.234"/>
<text text-anchor="middle" x="1139.5" y="-432.5" font-family="Helvetica,sans-Serif" font-size="10.00"> +elements</text>
</g>
<!-- Node5 -->
<g id="node5" class="node"><title>Node5</title>
<g id="a_node5"><a xlink:href="../../d0/d5e/a00136.html" target="_top" xlink:title="Store and handle person data. ">
<polygon fill="white" stroke="black" points="593,-238.5 593,-405.5 673,-405.5 673,-238.5 593,-238.5"/>
<text text-anchor="middle" x="633" y="-393.5" font-family="Helvetica,sans-Serif" font-size="10.00">stride::Person</text>
<polyline fill="none" stroke="black" points="593,-386.5 673,-386.5 "/>
<text text-anchor="middle" x="633" y="-374.5" font-family="Helvetica,sans-Serif" font-size="10.00"> </text>
<polyline fill="none" stroke="black" points="593,-367.5 673,-367.5 "/>
<text text-anchor="start" x="601" y="-355.5" font-family="Helvetica,sans-Serif" font-size="10.00">+ Person()</text>
<text text-anchor="start" x="601" y="-344.5" font-family="Helvetica,sans-Serif" font-size="10.00">+ Person()</text>
<text text-anchor="start" x="601" y="-333.5" font-family="Helvetica,sans-Serif" font-size="10.00">+ operator!=()</text>
<text text-anchor="start" x="601" y="-322.5" font-family="Helvetica,sans-Serif" font-size="10.00">+ GetAge()</text>
<text text-anchor="start" x="601" y="-311.5" font-family="Helvetica,sans-Serif" font-size="10.00">+ GetBelief()</text>
<text text-anchor="start" x="601" y="-300.5" font-family="Helvetica,sans-Serif" font-size="10.00">+ GetBelief()</text>
<text text-anchor="start" x="601" y="-289.5" font-family="Helvetica,sans-Serif" font-size="10.00">+ GetPoolId()</text>
<text text-anchor="start" x="601" y="-278.5" font-family="Helvetica,sans-Serif" font-size="10.00">+ GetGender()</text>
<text text-anchor="start" x="601" y="-267.5" font-family="Helvetica,sans-Serif" font-size="10.00">+ GetHealth()</text>
<text text-anchor="start" x="601" y="-256.5" font-family="Helvetica,sans-Serif" font-size="10.00">+ GetHealth()</text>
<text text-anchor="start" x="601" y="-245.5" font-family="Helvetica,sans-Serif" font-size="10.00">and 25 more...</text>
</a>
</g>
</g>
<!-- Node3&#45;&gt;Node5 -->
<g id="edge6" class="edge"><title>Node3&#45;&gt;Node5</title>
<path fill="none" stroke="#404040" d="M872.716,-475.746C862.096,-457.146 849.195,-438.721 834,-424 791.477,-382.804 728.829,-354.98 684.804,-339.138"/>
<polygon fill="none" stroke="#404040" points="684.523,-339.04 677.539,-340.837 673.194,-335.081 680.178,-333.284 684.523,-339.04"/>
<text text-anchor="middle" x="904.5" y="-432.5" font-family="Helvetica,sans-Serif" font-size="10.00"> &#45;m_visitingContactPool</text>
</g>
<!-- Node4 -->
<g id="node4" class="node"><title>Node4</title>
<polygon fill="white" stroke="#bfbfbf" points="928,-61 928,-129 1024,-129 1024,-61 928,-61"/>
<text text-anchor="start" x="936" y="-117" font-family="Helvetica,sans-Serif" font-size="10.00">std::vector&lt; stride</text>
<text text-anchor="middle" x="976" y="-106" font-family="Helvetica,sans-Serif" font-size="10.00">::Person * &gt;</text>
<polyline fill="none" stroke="#bfbfbf" points="928,-99 1024,-99 "/>
<text text-anchor="middle" x="976" y="-87" font-family="Helvetica,sans-Serif" font-size="10.00"> </text>
<polyline fill="none" stroke="#bfbfbf" points="928,-80 1024,-80 "/>
<text text-anchor="middle" x="976" y="-68" font-family="Helvetica,sans-Serif" font-size="10.00"> </text>
</g>
<!-- Node4&#45;&gt;Node3 -->
<g id="edge3" class="edge"><title>Node4&#45;&gt;Node3</title>
<path fill="none" stroke="#404040" d="M978.55,-129.346C982.486,-192.215 987.098,-332.18 961,-446 959.617,-452.031 957.935,-458.14 956.036,-464.24"/>
<polygon fill="none" stroke="#404040" points="955.933,-464.55 957.829,-471.507 952.136,-475.934 950.24,-468.976 955.933,-464.55"/>
<text text-anchor="middle" x="1012.5" y="-319.5" font-family="Helvetica,sans-Serif" font-size="10.00"> &#45;m_members</text>
</g>
<!-- Node5&#45;&gt;Node4 -->
<g id="edge4" class="edge"><title>Node5&#45;&gt;Node4</title>
<path fill="none" stroke="#404040" d="M673.018,-294.749C733.362,-255.165 847.982,-179.977 917.64,-134.283"/>
<polygon fill="none" stroke="#404040" points="917.965,-134.07 920.787,-127.434 927.998,-127.488 925.176,-134.124 917.965,-134.07"/>
<text text-anchor="middle" x="829.5" y="-211.5" font-family="Helvetica,sans-Serif" font-size="10.00"> +elements</text>
</g>
<!-- Node6 -->
<g id="node6" class="node"><title>Node6</title>
<g id="a_node6"><a xlink:href="../../dd/d9c/a00487.html" target="_top" xlink:title="{double\n||}">
<polygon fill="white" stroke="black" points="153.5,-536.5 153.5,-593.5 198.5,-593.5 198.5,-536.5 153.5,-536.5"/>
<text text-anchor="middle" x="176" y="-581.5" font-family="Helvetica,sans-Serif" font-size="10.00">double</text>
<polyline fill="none" stroke="black" points="153.5,-574.5 198.5,-574.5 "/>
<text text-anchor="middle" x="176" y="-562.5" font-family="Helvetica,sans-Serif" font-size="10.00"> </text>
<polyline fill="none" stroke="black" points="153.5,-555.5 198.5,-555.5 "/>
<text text-anchor="middle" x="176" y="-543.5" font-family="Helvetica,sans-Serif" font-size="10.00"> </text>
</a>
</g>
</g>
<!-- Node6&#45;&gt;Node5 -->
<g id="edge5" class="edge"><title>Node6&#45;&gt;Node5</title>
<path fill="none" stroke="#404040" d="M180.111,-536.442C186.758,-502.984 203.385,-448.054 243,-424 351.531,-358.1 502.255,-334.874 580.755,-326.938"/>
<polygon fill="none" stroke="#404040" points="580.77,-326.937 586.361,-322.382 592.716,-325.791 587.125,-330.346 580.77,-326.937"/>
<text text-anchor="middle" x="261" y="-432.5" font-family="Helvetica,sans-Serif" font-size="10.00"> &#45;m_age</text>
</g>
<!-- Node7 -->
<g id="node7" class="node"><title>Node7</title>
<g id="a_node7"><a xlink:href="../../d1/d09/a00077.html" target="_top" xlink:title="{stride::ContactPoolType\l::IdSubscriptArray\&lt; unsigned int \&gt;\n||+ IdSubscriptArray()\l+ IdSubscriptArray()\l+ IdSubscriptArray()\l+ operator[]()\l+ operator[]()\l+ at()\l+ at()\l}">
<polygon fill="white" stroke="black" points="431,-498 431,-632 597,-632 597,-498 431,-498"/>
<text text-anchor="start" x="439" y="-620" font-family="Helvetica,sans-Serif" font-size="10.00">stride::ContactPoolType</text>
<text text-anchor="middle" x="514" y="-609" font-family="Helvetica,sans-Serif" font-size="10.00">::IdSubscriptArray&lt; unsigned int &gt;</text>
<polyline fill="none" stroke="black" points="431,-602 597,-602 "/>
<text text-anchor="middle" x="514" y="-590" font-family="Helvetica,sans-Serif" font-size="10.00"> </text>
<polyline fill="none" stroke="black" points="431,-583 597,-583 "/>
<text text-anchor="start" x="439" y="-571" font-family="Helvetica,sans-Serif" font-size="10.00">+ IdSubscriptArray()</text>
<text text-anchor="start" x="439" y="-560" font-family="Helvetica,sans-Serif" font-size="10.00">+ IdSubscriptArray()</text>
<text text-anchor="start" x="439" y="-549" font-family="Helvetica,sans-Serif" font-size="10.00">+ IdSubscriptArray()</text>
<text text-anchor="start" x="439" y="-538" font-family="Helvetica,sans-Serif" font-size="10.00">+ operator[]()</text>
<text text-anchor="start" x="439" y="-527" font-family="Helvetica,sans-Serif" font-size="10.00">+ operator[]()</text>
<text text-anchor="start" x="439" y="-516" font-family="Helvetica,sans-Serif" font-size="10.00">+ at()</text>
<text text-anchor="start" x="439" y="-505" font-family="Helvetica,sans-Serif" font-size="10.00">+ at()</text>
</a>
</g>
</g>
<!-- Node7&#45;&gt;Node5 -->
<g id="edge7" class="edge"><title>Node7&#45;&gt;Node5</title>
<path fill="none" stroke="#404040" d="M533.148,-497.665C541.071,-473.852 551.189,-447.172 563,-424 569.623,-411.006 577.7,-397.75 585.982,-385.299"/>
<polygon fill="none" stroke="#404040" points="586.206,-384.97 586.277,-377.759 592.961,-375.052 592.889,-382.262 586.206,-384.97"/>
<text text-anchor="middle" x="591" y="-432.5" font-family="Helvetica,sans-Serif" font-size="10.00"> &#45;m_pool_ids</text>
</g>
<!-- Node8 -->
<g id="node8" class="node"><title>Node8</title>
<g id="a_node8"><a xlink:title="STL class. ">
<polygon fill="white" stroke="#bfbfbf" points="556.5,-913 556.5,-981 663.5,-981 663.5,-913 556.5,-913"/>
<text text-anchor="start" x="564.5" y="-969" font-family="Helvetica,sans-Serif" font-size="10.00">std::array&lt; unsigned</text>
<text text-anchor="middle" x="610" y="-958" font-family="Helvetica,sans-Serif" font-size="10.00"> int, NumOfTypes()&gt;</text>
<polyline fill="none" stroke="#bfbfbf" points="556.5,-951 663.5,-951 "/>
<text text-anchor="middle" x="610" y="-939" font-family="Helvetica,sans-Serif" font-size="10.00"> </text>
<polyline fill="none" stroke="#bfbfbf" points="556.5,-932 663.5,-932 "/>
<text text-anchor="middle" x="610" y="-920" font-family="Helvetica,sans-Serif" font-size="10.00"> </text>
</a>
</g>
</g>
<!-- Node8&#45;&gt;Node7 -->
<g id="edge8" class="edge"><title>Node8&#45;&gt;Node7</title>
<path fill="none" stroke="midnightblue" d="M613.367,-902.619C616.027,-849.568 615.867,-757.734 591,-684 584.981,-666.152 575.616,-648.365 565.463,-632.218"/>
<polygon fill="none" stroke="midnightblue" points="609.868,-902.516 612.804,-912.696 616.857,-902.906 609.868,-902.516"/>
</g>
<!-- Node9 -->
<g id="node9" class="node"><title>Node9</title>
<polygon fill="white" stroke="#bfbfbf" points="601.5,-1106.5 601.5,-1163.5 630.5,-1163.5 630.5,-1106.5 601.5,-1106.5"/>
<text text-anchor="middle" x="616" y="-1151.5" font-family="Helvetica,sans-Serif" font-size="10.00">T</text>
<polyline fill="none" stroke="#bfbfbf" points="601.5,-1144.5 630.5,-1144.5 "/>
<text text-anchor="middle" x="616" y="-1132.5" font-family="Helvetica,sans-Serif" font-size="10.00"> </text>
<polyline fill="none" stroke="#bfbfbf" points="601.5,-1125.5 630.5,-1125.5 "/>
<text text-anchor="middle" x="616" y="-1113.5" font-family="Helvetica,sans-Serif" font-size="10.00"> </text>
</g>
<!-- Node9&#45;&gt;Node8 -->
<g id="edge9" class="edge"><title>Node9&#45;&gt;Node8</title>
<path fill="none" stroke="#404040" d="M615.102,-1106.15C614.141,-1076.37 612.602,-1028.66 611.465,-993.428"/>
<polygon fill="none" stroke="#404040" points="611.454,-993.061 607.262,-987.193 611.067,-981.067 615.258,-986.935 611.454,-993.061"/>
<text text-anchor="middle" x="639.5" y="-1079.5" font-family="Helvetica,sans-Serif" font-size="10.00"> +elements</text>
</g>
<!-- Node11 -->
<g id="node11" class="node"><title>Node11</title>
<g id="a_node11"><a xlink:title="STL class. ">
<polygon fill="white" stroke="#bfbfbf" points="439.5,-1000.5 439.5,-1057.5 588.5,-1057.5 588.5,-1000.5 439.5,-1000.5"/>
<text text-anchor="middle" x="514" y="-1045.5" font-family="Helvetica,sans-Serif" font-size="10.00">std::array&lt; T, NumOfTypes()&gt;</text>
<polyline fill="none" stroke="#bfbfbf" points="439.5,-1038.5 588.5,-1038.5 "/>
<text text-anchor="middle" x="514" y="-1026.5" font-family="Helvetica,sans-Serif" font-size="10.00"> </text>
<polyline fill="none" stroke="#bfbfbf" points="439.5,-1019.5 588.5,-1019.5 "/>
<text text-anchor="middle" x="514" y="-1007.5" font-family="Helvetica,sans-Serif" font-size="10.00"> </text>
</a>
</g>
</g>
<!-- Node9&#45;&gt;Node11 -->
<g id="edge12" class="edge"><title>Node9&#45;&gt;Node11</title>
<path fill="none" stroke="#404040" d="M601.398,-1127.32C585.855,-1119.62 561.302,-1105.73 545,-1088 539.676,-1082.21 534.971,-1075.33 530.94,-1068.38"/>
<polygon fill="none" stroke="#404040" points="530.801,-1068.11 524.451,-1064.7 525.164,-1057.52 531.514,-1060.94 530.801,-1068.11"/>
<text text-anchor="middle" x="569.5" y="-1079.5" font-family="Helvetica,sans-Serif" font-size="10.00"> +elements</text>
</g>
<!-- Node22 -->
<g id="node22" class="node"><title>Node22</title>
<g id="a_node22"><a xlink:title="STL class. ">
<polygon fill="white" stroke="#bfbfbf" points="1133.5,-536.5 1133.5,-593.5 1220.5,-593.5 1220.5,-536.5 1133.5,-536.5"/>
<text text-anchor="middle" x="1177" y="-581.5" font-family="Helvetica,sans-Serif" font-size="10.00">std::vector&lt; T &gt;</text>
<polyline fill="none" stroke="#bfbfbf" points="1133.5,-574.5 1220.5,-574.5 "/>
<text text-anchor="middle" x="1177" y="-562.5" font-family="Helvetica,sans-Serif" font-size="10.00"> </text>
<polyline fill="none" stroke="#bfbfbf" points="1133.5,-555.5 1220.5,-555.5 "/>
<text text-anchor="middle" x="1177" y="-543.5" font-family="Helvetica,sans-Serif" font-size="10.00"> </text>
</a>
</g>
</g>
<!-- Node9&#45;&gt;Node22 -->
<g id="edge24" class="edge"><title>Node9&#45;&gt;Node22</title>
<path fill="none" stroke="#404040" d="M630.721,-1129.03C688.479,-1108.87 902.391,-1027.78 1024,-894 1103.02,-807.075 1148.22,-672.184 1166.86,-605.742"/>
<polygon fill="none" stroke="#404040" points="1166.96,-605.354 1164.69,-598.511 1170.13,-593.78 1172.41,-600.623 1166.96,-605.354"/>
<text text-anchor="middle" x="1028.5" y="-944.5" font-family="Helvetica,sans-Serif" font-size="10.00"> +elements</text>
</g>
<!-- Node10 -->
<g id="node10" class="node"><title>Node10</title>
<g id="a_node10"><a xlink:href="../../d1/d09/a00077.html" target="_top" xlink:title="An std::array modified to enable subscripting with the constact pool type indentifiers. ">
<polygon fill="white" stroke="black" points="453,-759 453,-893 575,-893 575,-759 453,-759"/>
<text text-anchor="start" x="461" y="-881" font-family="Helvetica,sans-Serif" font-size="10.00">stride::ContactPoolType</text>
<text text-anchor="middle" x="514" y="-870" font-family="Helvetica,sans-Serif" font-size="10.00">::IdSubscriptArray&lt; T &gt;</text>
<polyline fill="none" stroke="black" points="453,-863 575,-863 "/>
<text text-anchor="middle" x="514" y="-851" font-family="Helvetica,sans-Serif" font-size="10.00"> </text>
<polyline fill="none" stroke="black" points="453,-844 575,-844 "/>
<text text-anchor="start" x="461" y="-832" font-family="Helvetica,sans-Serif" font-size="10.00">+ IdSubscriptArray()</text>
<text text-anchor="start" x="461" y="-821" font-family="Helvetica,sans-Serif" font-size="10.00">+ IdSubscriptArray()</text>
<text text-anchor="start" x="461" y="-810" font-family="Helvetica,sans-Serif" font-size="10.00">+ IdSubscriptArray()</text>
<text text-anchor="start" x="461" y="-799" font-family="Helvetica,sans-Serif" font-size="10.00">+ operator[]()</text>
<text text-anchor="start" x="461" y="-788" font-family="Helvetica,sans-Serif" font-size="10.00">+ operator[]()</text>
<text text-anchor="start" x="461" y="-777" font-family="Helvetica,sans-Serif" font-size="10.00">+ at()</text>
<text text-anchor="start" x="461" y="-766" font-family="Helvetica,sans-Serif" font-size="10.00">+ at()</text>
</a>
</g>
</g>
<!-- Node10&#45;&gt;Node7 -->
<g id="edge10" class="edge"><title>Node10&#45;&gt;Node7</title>
<path fill="none" stroke="orange" d="M514,-748.754C514,-711.821 514,-667.889 514,-632.356"/>
<polygon fill="orange" stroke="orange" points="510.5,-748.973 514,-758.973 517.5,-748.973 510.5,-748.973"/>
<text text-anchor="middle" x="551" y="-709.5" font-family="Helvetica,sans-Serif" font-size="10.00"> &lt; unsigned int &gt;</text>
</g>
<!-- Node11&#45;&gt;Node10 -->
<g id="edge11" class="edge"><title>Node11&#45;&gt;Node10</title>
<path fill="none" stroke="midnightblue" d="M514,-990.181C514,-962.879 514,-925.305 514,-893.093"/>
<polygon fill="none" stroke="midnightblue" points="510.5,-990.473 514,-1000.47 517.5,-990.473 510.5,-990.473"/>
</g>
<!-- Node12 -->
<g id="node12" class="node"><title>Node12</title>
<polygon fill="white" stroke="#bfbfbf" points="216.5,-536.5 216.5,-593.5 251.5,-593.5 251.5,-536.5 216.5,-536.5"/>
<text text-anchor="middle" x="234" y="-581.5" font-family="Helvetica,sans-Serif" font-size="10.00">char</text>
<polyline fill="none" stroke="#bfbfbf" points="216.5,-574.5 251.5,-574.5 "/>
<text text-anchor="middle" x="234" y="-562.5" font-family="Helvetica,sans-Serif" font-size="10.00"> </text>
<polyline fill="none" stroke="#bfbfbf" points="216.5,-555.5 251.5,-555.5 "/>
<text text-anchor="middle" x="234" y="-543.5" font-family="Helvetica,sans-Serif" font-size="10.00"> </text>
</g>
<!-- Node12&#45;&gt;Node5 -->
<g id="edge13" class="edge"><title>Node12&#45;&gt;Node5</title>
<path fill="none" stroke="#404040" d="M234.505,-536.169C236.341,-514.087 242.258,-483.75 260,-464 344.864,-369.528 499.624,-338.048 580.539,-327.793"/>
<polygon fill="none" stroke="#404040" points="580.954,-327.743 586.438,-323.061 592.869,-326.322 587.385,-331.005 580.954,-327.743"/>
<text text-anchor="middle" x="324.5" y="-432.5" font-family="Helvetica,sans-Serif" font-size="10.00"> &#45;m_gender</text>
</g>
<!-- Node13 -->
<g id="node13" class="node"><title>Node13</title>
<g id="a_node13"><a xlink:href="../../d9/dcc/a00102.html" target="_top" xlink:title="Specialisation of IdSubscriptArray foor booleans. ">
<polygon fill="white" stroke="black" points="4.5,-503.5 4.5,-626.5 135.5,-626.5 135.5,-503.5 4.5,-503.5"/>
<text text-anchor="start" x="12.5" y="-614.5" font-family="Helvetica,sans-Serif" font-size="10.00">stride::ContactPoolType</text>
<text text-anchor="middle" x="70" y="-603.5" font-family="Helvetica,sans-Serif" font-size="10.00">::IdSubscriptArray&lt; bool &gt;</text>
<polyline fill="none" stroke="black" points="4.5,-596.5 135.5,-596.5 "/>
<text text-anchor="middle" x="70" y="-584.5" font-family="Helvetica,sans-Serif" font-size="10.00"> </text>
<polyline fill="none" stroke="black" points="4.5,-577.5 135.5,-577.5 "/>
<text text-anchor="start" x="12.5" y="-565.5" font-family="Helvetica,sans-Serif" font-size="10.00">+ IdSubscriptArray()</text>
<text text-anchor="start" x="12.5" y="-554.5" font-family="Helvetica,sans-Serif" font-size="10.00">+ IdSubscriptArray()</text>
<text text-anchor="start" x="12.5" y="-543.5" font-family="Helvetica,sans-Serif" font-size="10.00">+ operator[]()</text>
<text text-anchor="start" x="12.5" y="-532.5" font-family="Helvetica,sans-Serif" font-size="10.00">+ operator[]()</text>
<text text-anchor="start" x="12.5" y="-521.5" font-family="Helvetica,sans-Serif" font-size="10.00">+ at()</text>
<text text-anchor="start" x="12.5" y="-510.5" font-family="Helvetica,sans-Serif" font-size="10.00">+ at()</text>
</a>
</g>
</g>
<!-- Node13&#45;&gt;Node5 -->
<g id="edge14" class="edge"><title>Node13&#45;&gt;Node5</title>
<path fill="none" stroke="#404040" d="M95.003,-503.432C109.644,-475.183 130.854,-443.556 159,-424 227.211,-376.607 472.138,-342.242 580.635,-328.998"/>
<polygon fill="none" stroke="#404040" points="580.948,-328.961 586.426,-324.272 592.862,-327.525 587.383,-332.214 580.948,-328.961"/>
<text text-anchor="middle" x="187" y="-432.5" font-family="Helvetica,sans-Serif" font-size="10.00"> &#45;m_in_pools</text>
</g>
<!-- Node14 -->
<g id="node14" class="node"><title>Node14</title>
<g id="a_node14"><a xlink:title="STL class. ">
<polygon fill="white" stroke="#bfbfbf" points="0,-797.5 0,-854.5 140,-854.5 140,-797.5 0,-797.5"/>
<text text-anchor="middle" x="70" y="-842.5" font-family="Helvetica,sans-Serif" font-size="10.00">std::bitset&lt; NumOfTypes()&gt;</text>
<polyline fill="none" stroke="#bfbfbf" points="0,-835.5 140,-835.5 "/>
<text text-anchor="middle" x="70" y="-823.5" font-family="Helvetica,sans-Serif" font-size="10.00"> </text>
<polyline fill="none" stroke="#bfbfbf" points="0,-816.5 140,-816.5 "/>
<text text-anchor="middle" x="70" y="-804.5" font-family="Helvetica,sans-Serif" font-size="10.00"> </text>
</a>
</g>
</g>
<!-- Node14&#45;&gt;Node13 -->
<g id="edge15" class="edge"><title>Node14&#45;&gt;Node13</title>
<path fill="none" stroke="midnightblue" d="M70,-787.173C70,-745.05 70,-676.366 70,-626.704"/>
<polygon fill="none" stroke="midnightblue" points="66.5001,-787.282 70,-797.282 73.5001,-787.282 66.5001,-787.282"/>
</g>
<!-- Node15 -->
<g id="node15" class="node"><title>Node15</title>
<polygon fill="white" stroke="#bfbfbf" points="986.5,-797.5 986.5,-854.5 1015.5,-854.5 1015.5,-797.5 986.5,-797.5"/>
<text text-anchor="middle" x="1001" y="-842.5" font-family="Helvetica,sans-Serif" font-size="10.00">int</text>
<polyline fill="none" stroke="#bfbfbf" points="986.5,-835.5 1015.5,-835.5 "/>
<text text-anchor="middle" x="1001" y="-823.5" font-family="Helvetica,sans-Serif" font-size="10.00"> </text>
<polyline fill="none" stroke="#bfbfbf" points="986.5,-816.5 1015.5,-816.5 "/>
<text text-anchor="middle" x="1001" y="-804.5" font-family="Helvetica,sans-Serif" font-size="10.00"> </text>
</g>
<!-- Node15&#45;&gt;Node1 -->
<g id="edge29" class="edge"><title>Node15&#45;&gt;Node1</title>
<path fill="none" stroke="#404040" d="M1015.7,-819.141C1056.44,-802.124 1171.55,-748.605 1229,-666 1324.69,-528.414 1315.08,-324.53 1297.42,-201.543"/>
<polygon fill="none" stroke="#404040" points="1297.39,-201.401 1292.55,-196.055 1295.63,-189.532 1300.47,-194.878 1297.39,-201.401"/>
<text text-anchor="middle" x="1321" y="-432.5" font-family="Helvetica,sans-Serif" font-size="10.00"> #m_id</text>
</g>
<!-- Node15&#45;&gt;Node3 -->
<g id="edge25" class="edge"><title>Node15&#45;&gt;Node3</title>
<path fill="none" stroke="#404040" d="M986.453,-810.827C971.215,-795.048 947.881,-768.055 936,-740 926.276,-717.038 920.11,-691.025 916.221,-666.243"/>
<polygon fill="none" stroke="#404040" points="916.197,-666.073 911.384,-660.703 914.49,-654.195 919.303,-659.565 916.197,-666.073"/>
<text text-anchor="middle" x="961.5" y="-709.5" font-family="Helvetica,sans-Serif" font-size="10.00"> &#45;m_pool_id</text>
</g>
<!-- Node15&#45;&gt;Node5 -->
<g id="edge16" class="edge"><title>Node15&#45;&gt;Node5</title>
<path fill="none" stroke="#404040" d="M1002.59,-797.277C1006.65,-715.186 1013.66,-475.847 961,-424 885.701,-349.861 757.312,-329.972 685.531,-324.748"/>
<polygon fill="none" stroke="#404040" points="685.213,-324.728 678.969,-328.335 673.238,-323.958 679.482,-320.351 685.213,-324.728"/>
<text text-anchor="middle" x="1063" y="-568" font-family="Helvetica,sans-Serif" font-size="10.00"> &#45;m_travelDaysRemaining</text>
<text text-anchor="middle" x="1063" y="-557" font-family="Helvetica,sans-Serif" font-size="10.00">&#45;m_id</text>
</g>
<!-- Node16 -->
<g id="node16" class="node"><title>Node16</title>
<polygon fill="white" stroke="#bfbfbf" points="801.5,-536.5 801.5,-593.5 836.5,-593.5 836.5,-536.5 801.5,-536.5"/>
<text text-anchor="middle" x="819" y="-581.5" font-family="Helvetica,sans-Serif" font-size="10.00">bool</text>
<polyline fill="none" stroke="#bfbfbf" points="801.5,-574.5 836.5,-574.5 "/>
<text text-anchor="middle" x="819" y="-562.5" font-family="Helvetica,sans-Serif" font-size="10.00"> </text>
<polyline fill="none" stroke="#bfbfbf" points="801.5,-555.5 836.5,-555.5 "/>
<text text-anchor="middle" x="819" y="-543.5" font-family="Helvetica,sans-Serif" font-size="10.00"> </text>
</g>
<!-- Node16&#45;&gt;Node5 -->
<g id="edge17" class="edge"><title>Node16&#45;&gt;Node5</title>
<path fill="none" stroke="#404040" d="M817.384,-536.342C814.839,-514.651 808.365,-484.76 792,-464 781.657,-450.88 772.437,-455.928 759,-446 750.404,-439.648 713.597,-403.529 681.967,-372.061"/>
<polygon fill="none" stroke="#404040" points="681.712,-371.806 674.638,-370.405 673.211,-363.337 680.284,-364.738 681.712,-371.806"/>
<text text-anchor="middle" x="796.5" y="-438" font-family="Helvetica,sans-Serif" font-size="10.00"> &#45;m_isTravelling</text>
<text text-anchor="middle" x="796.5" y="-427" font-family="Helvetica,sans-Serif" font-size="10.00">&#45;m_is_participant</text>
</g>
<!-- Node17 -->
<g id="node17" class="node"><title>Node17</title>
<g id="a_node17"><a xlink:href="../../d9/df8/a00096.html" target="_top" xlink:title="Base class for all belief policies. ">
<polygon fill="white" stroke="black" points="697,-525.5 697,-604.5 783,-604.5 783,-525.5 697,-525.5"/>
<text text-anchor="middle" x="740" y="-592.5" font-family="Helvetica,sans-Serif" font-size="10.00">stride::Belief</text>
<polyline fill="none" stroke="black" points="697,-585.5 783,-585.5 "/>
<text text-anchor="middle" x="740" y="-573.5" font-family="Helvetica,sans-Serif" font-size="10.00"> </text>
<polyline fill="none" stroke="black" points="697,-566.5 783,-566.5 "/>
<text text-anchor="start" x="705" y="-554.5" font-family="Helvetica,sans-Serif" font-size="10.00">+ Belief()</text>
<text text-anchor="start" x="705" y="-543.5" font-family="Helvetica,sans-Serif" font-size="10.00">+ ~Belief()</text>
<text text-anchor="start" x="705" y="-532.5" font-family="Helvetica,sans-Serif" font-size="10.00">+ HasAdopted()</text>
</a>
</g>
</g>
<!-- Node17&#45;&gt;Node5 -->
<g id="edge18" class="edge"><title>Node17&#45;&gt;Node5</title>
<path fill="none" stroke="#404040" d="M722.809,-525.279C709.797,-495.972 691.36,-454.446 674.573,-416.637"/>
<polygon fill="none" stroke="#404040" points="674.527,-416.532 668.436,-412.671 669.657,-405.564 675.748,-409.425 674.527,-416.532"/>
<text text-anchor="middle" x="708.5" y="-432.5" font-family="Helvetica,sans-Serif" font-size="10.00"> &#45;m_belief</text>
</g>
<!-- Node18 -->
<g id="node18" class="node"><title>Node18</title>
<g id="a_node18"><a xlink:href="../../d3/d00/a00113.html" target="_top" xlink:title="Holds a person&#39;s health data. ">
<polygon fill="white" stroke="black" points="269.5,-465 269.5,-665 412.5,-665 412.5,-465 269.5,-465"/>
<text text-anchor="middle" x="341" y="-653" font-family="Helvetica,sans-Serif" font-size="10.00">stride::Health</text>
<polyline fill="none" stroke="black" points="269.5,-646 412.5,-646 "/>
<text text-anchor="middle" x="341" y="-634" font-family="Helvetica,sans-Serif" font-size="10.00"> </text>
<polyline fill="none" stroke="black" points="269.5,-627 412.5,-627 "/>
<text text-anchor="start" x="277.5" y="-615" font-family="Helvetica,sans-Serif" font-size="10.00">+ Health()</text>
<text text-anchor="start" x="277.5" y="-604" font-family="Helvetica,sans-Serif" font-size="10.00">+ GetEndInfectiousness()</text>
<text text-anchor="start" x="277.5" y="-593" font-family="Helvetica,sans-Serif" font-size="10.00">+ GetEndSymptomatic()</text>
<text text-anchor="start" x="277.5" y="-582" font-family="Helvetica,sans-Serif" font-size="10.00">+ GetStartInfectiousness()</text>
<text text-anchor="start" x="277.5" y="-571" font-family="Helvetica,sans-Serif" font-size="10.00">+ GetStartSymptomatic()</text>
<text text-anchor="start" x="277.5" y="-560" font-family="Helvetica,sans-Serif" font-size="10.00">+ IsImmune()</text>
<text text-anchor="start" x="277.5" y="-549" font-family="Helvetica,sans-Serif" font-size="10.00">+ IsInfected()</text>
<text text-anchor="start" x="277.5" y="-538" font-family="Helvetica,sans-Serif" font-size="10.00">+ IsInfectious()</text>
<text text-anchor="start" x="277.5" y="-527" font-family="Helvetica,sans-Serif" font-size="10.00">+ IsRecovered()</text>
<text text-anchor="start" x="277.5" y="-516" font-family="Helvetica,sans-Serif" font-size="10.00">+ IsSusceptible()</text>
<text text-anchor="start" x="277.5" y="-505" font-family="Helvetica,sans-Serif" font-size="10.00">and 6 more...</text>
<text text-anchor="start" x="277.5" y="-494" font-family="Helvetica,sans-Serif" font-size="10.00">&#45; GetDiseaseCounter()</text>
<text text-anchor="start" x="277.5" y="-483" font-family="Helvetica,sans-Serif" font-size="10.00">&#45; IncrementDiseaseCounter()</text>
<text text-anchor="start" x="277.5" y="-472" font-family="Helvetica,sans-Serif" font-size="10.00">&#45; ResetDiseaseCounter()</text>
</a>
</g>
</g>
<!-- Node18&#45;&gt;Node5 -->
<g id="edge19" class="edge"><title>Node18&#45;&gt;Node5</title>
<path fill="none" stroke="#404040" d="M412.664,-472.927C415.747,-469.848 418.864,-466.861 422,-464 471.766,-418.601 537.35,-377.136 582.107,-351.1"/>
<polygon fill="none" stroke="#404040" points="582.334,-350.969 585.537,-344.509 592.732,-344.981 589.529,-351.441 582.334,-350.969"/>
<text text-anchor="middle" x="494" y="-432.5" font-family="Helvetica,sans-Serif" font-size="10.00"> &#45;m_health</text>
</g>
<!-- Node19 -->
<g id="node19" class="node"><title>Node19</title>
<polygon fill="white" stroke="#bfbfbf" points="225,-797.5 225,-854.5 299,-854.5 299,-797.5 225,-797.5"/>
<text text-anchor="middle" x="262" y="-842.5" font-family="Helvetica,sans-Serif" font-size="10.00">HealthStatus</text>
<polyline fill="none" stroke="#bfbfbf" points="225,-835.5 299,-835.5 "/>
<text text-anchor="middle" x="262" y="-823.5" font-family="Helvetica,sans-Serif" font-size="10.00"> </text>
<polyline fill="none" stroke="#bfbfbf" points="225,-816.5 299,-816.5 "/>
<text text-anchor="middle" x="262" y="-804.5" font-family="Helvetica,sans-Serif" font-size="10.00"> </text>
</g>
<!-- Node19&#45;&gt;Node18 -->
<g id="edge20" class="edge"><title>Node19&#45;&gt;Node18</title>
<path fill="none" stroke="#404040" d="M269.161,-797.307C276.654,-768.777 288.981,-723.085 301,-684 301.745,-681.577 302.506,-679.129 303.279,-676.662"/>
<polygon fill="none" stroke="#404040" points="303.346,-676.453 301.35,-669.523 306.979,-665.016 308.974,-671.946 303.346,-676.453"/>
<text text-anchor="middle" x="324.5" y="-709.5" font-family="Helvetica,sans-Serif" font-size="10.00"> &#45;m_status</text>
</g>
<!-- Node20 -->
<g id="node20" class="node"><title>Node20</title>
<polygon fill="white" stroke="#bfbfbf" points="317,-797.5 317,-854.5 411,-854.5 411,-797.5 317,-797.5"/>
<text text-anchor="middle" x="364" y="-842.5" font-family="Helvetica,sans-Serif" font-size="10.00">unsigned short int</text>
<polyline fill="none" stroke="#bfbfbf" points="317,-835.5 411,-835.5 "/>
<text text-anchor="middle" x="364" y="-823.5" font-family="Helvetica,sans-Serif" font-size="10.00"> </text>
<polyline fill="none" stroke="#bfbfbf" points="317,-816.5 411,-816.5 "/>
<text text-anchor="middle" x="364" y="-804.5" font-family="Helvetica,sans-Serif" font-size="10.00"> </text>
</g>
<!-- Node20&#45;&gt;Node18 -->
<g id="edge21" class="edge"><title>Node20&#45;&gt;Node18</title>
<path fill="none" stroke="#404040" d="M361.539,-797.282C358.975,-768.414 354.793,-721.316 350.869,-677.13"/>
<polygon fill="none" stroke="#404040" points="350.859,-677.019 346.344,-671.396 349.797,-665.066 354.312,-670.689 350.859,-677.019"/>
<text text-anchor="middle" x="408.5" y="-731.5" font-family="Helvetica,sans-Serif" font-size="10.00"> &#45;m_start_symptomatic</text>
<text text-anchor="middle" x="408.5" y="-720.5" font-family="Helvetica,sans-Serif" font-size="10.00">&#45;m_disease_counter</text>
<text text-anchor="middle" x="408.5" y="-709.5" font-family="Helvetica,sans-Serif" font-size="10.00">&#45;m_end_symptomatic</text>
<text text-anchor="middle" x="408.5" y="-698.5" font-family="Helvetica,sans-Serif" font-size="10.00">&#45;m_end_infectiousness</text>
<text text-anchor="middle" x="408.5" y="-687.5" font-family="Helvetica,sans-Serif" font-size="10.00">&#45;m_start_infectiousness</text>
</g>
<!-- Node21 -->
<g id="node21" class="node"><title>Node21</title>
<polygon fill="white" stroke="#bfbfbf" points="658.5,-797.5 658.5,-854.5 701.5,-854.5 701.5,-797.5 658.5,-797.5"/>
<text text-anchor="middle" x="680" y="-842.5" font-family="Helvetica,sans-Serif" font-size="10.00">size_t</text>
<polyline fill="none" stroke="#bfbfbf" points="658.5,-835.5 701.5,-835.5 "/>
<text text-anchor="middle" x="680" y="-823.5" font-family="Helvetica,sans-Serif" font-size="10.00"> </text>
<polyline fill="none" stroke="#bfbfbf" points="658.5,-816.5 701.5,-816.5 "/>
<text text-anchor="middle" x="680" y="-804.5" font-family="Helvetica,sans-Serif" font-size="10.00"> </text>
</g>
<!-- Node21&#45;&gt;Node3 -->
<g id="edge27" class="edge"><title>Node21&#45;&gt;Node3</title>
<path fill="none" stroke="#404040" d="M688.253,-797.244C699.366,-764.87 722.341,-712.2 761,-684 791.846,-661.499 813.548,-687.645 845,-666 846.546,-664.936 848.064,-663.822 849.554,-662.663"/>
<polygon fill="none" stroke="#404040" points="849.952,-662.315 851.832,-655.353 858.982,-654.411 857.101,-661.373 849.952,-662.315"/>
<text text-anchor="middle" x="801" y="-715" font-family="Helvetica,sans-Serif" font-size="10.00"> &#45;m_capacity</text>
<text text-anchor="middle" x="801" y="-704" font-family="Helvetica,sans-Serif" font-size="10.00">&#45;m_index_immune</text>
</g>
<!-- Node21&#45;&gt;Node5 -->
<g id="edge22" class="edge"><title>Node21&#45;&gt;Node5</title>
<path fill="none" stroke="#404040" d="M671.567,-797.467C662.371,-766.019 648.145,-712.854 642,-666 631.057,-582.562 629.45,-486.763 630.209,-417.653"/>
<polygon fill="none" stroke="#404040" points="630.211,-417.5 626.29,-411.448 630.369,-405.501 634.29,-411.554 630.211,-417.5"/>
<text text-anchor="middle" x="665" y="-562.5" font-family="Helvetica,sans-Serif" font-size="10.00"> &#45;m_region</text>
</g>
<!-- Node22&#45;&gt;Node2 -->
<g id="edge28" class="edge"><title>Node22&#45;&gt;Node2</title>
<path fill="none" stroke="orange" d="M1170.59,-526.382C1167.05,-497.803 1164.99,-457.787 1174,-424 1180.51,-399.578 1194.49,-374.926 1207.1,-356.09"/>
<polygon fill="orange" stroke="orange" points="1167.13,-526.922 1171.94,-536.361 1174.07,-525.982 1167.13,-526.922"/>
<text text-anchor="middle" x="1230" y="-432.5" font-family="Helvetica,sans-Serif" font-size="10.00"> &lt; stride::ContactPool * &gt;</text>
</g>
<!-- Node22&#45;&gt;Node4 -->
<g id="edge23" class="edge"><title>Node22&#45;&gt;Node4</title>
<path fill="none" stroke="orange" d="M1155.74,-527.401C1129.25,-481.742 1087.27,-409.218 1086,-406 1057.9,-334.684 1072.99,-310.113 1047,-238 1033.03,-199.234 1011.16,-157.318 995.387,-129.152"/>
<polygon fill="orange" stroke="orange" points="1152.77,-529.254 1160.82,-536.146 1158.83,-525.741 1152.77,-529.254"/>
<text text-anchor="middle" x="1130.5" y="-319.5" font-family="Helvetica,sans-Serif" font-size="10.00"> &lt; stride::Person * &gt;</text>
</g>
<!-- Node23 -->
<g id="node23" class="node"><title>Node23</title>
<polygon fill="white" stroke="#bfbfbf" points="835.5,-797.5 835.5,-854.5 864.5,-854.5 864.5,-797.5 835.5,-797.5"/>
<text text-anchor="middle" x="850" y="-842.5" font-family="Helvetica,sans-Serif" font-size="10.00">Id</text>
<polyline fill="none" stroke="#bfbfbf" points="835.5,-835.5 864.5,-835.5 "/>
<text text-anchor="middle" x="850" y="-823.5" font-family="Helvetica,sans-Serif" font-size="10.00"> </text>
<polyline fill="none" stroke="#bfbfbf" points="835.5,-816.5 864.5,-816.5 "/>
<text text-anchor="middle" x="850" y="-804.5" font-family="Helvetica,sans-Serif" font-size="10.00"> </text>
</g>
<!-- Node23&#45;&gt;Node3 -->
<g id="edge26" class="edge"><title>Node23&#45;&gt;Node3</title>
<path fill="none" stroke="#404040" d="M846.539,-797.261C843.795,-768.499 841.78,-722.445 851,-684 852.448,-677.96 854.252,-671.876 856.319,-665.825"/>
<polygon fill="none" stroke="#404040" points="856.437,-665.504 854.764,-658.49 860.596,-654.248 862.269,-661.262 856.437,-665.504"/>
<text text-anchor="middle" x="882" y="-709.5" font-family="Helvetica,sans-Serif" font-size="10.00"> &#45;m_pool_type</text>
</g>
</g>
</svg>
        <g id="navigator" transform="translate(0 0)" fill="#404254">
                <rect fill="#f2f5e9" fill-opacity="0.5" stroke="#606060" stroke-width=".5" x="0" y="0" width="60" height="60"/>
                <use id="zoomplus" xlink:href="#zoomPlus" x="17" y="9" onmousedown="handleZoom(evt,'in')"/>
                <use id="zoomminus" xlink:href="#zoomMin" x="42" y="9" onmousedown="handleZoom(evt,'out')"/>
                <use id="reset" xlink:href="#resetDef" x="30" y="36" onmousedown="handleReset()"/>
                <g id="arrowUp" xlink:href="#dirArrow" transform="translate(30 24)" onmousedown="handlePan(0,-1)">
                  <use xlink:href="#rim" fill="#404040">
                        <set attributeName="fill" to="#808080" begin="arrowUp.mouseover" end="arrowUp.mouseout"/>
                  </use>
                  <path fill="none" stroke="white" stroke-width="1.5" d="M0,-3.0v7 M-2.5,-0.5L0,-3.0L2.5,-0.5"/>
                </g>
                <g id="arrowRight" xlink:href="#dirArrow" transform="rotate(90) translate(36 -43)" onmousedown="handlePan(1,0)">
                  <use xlink:href="#rim" fill="#404040">
                        <set attributeName="fill" to="#808080" begin="arrowRight.mouseover" end="arrowRight.mouseout"/>
                  </use>
                  <path fill="none" stroke="white" stroke-width="1.5" d="M0,-3.0v7 M-2.5,-0.5L0,-3.0L2.5,-0.5"/>
                </g>
                <g id="arrowDown" xlink:href="#dirArrow" transform="rotate(180) translate(-30 -48)" onmousedown="handlePan(0,1)">
                  <use xlink:href="#rim" fill="#404040">
                        <set attributeName="fill" to="#808080" begin="arrowDown.mouseover" end="arrowDown.mouseout"/>
                  </use>
                  <path fill="none" stroke="white" stroke-width="1.5" d="M0,-3.0v7 M-2.5,-0.5L0,-3.0L2.5,-0.5"/>
                </g>
                <g id="arrowLeft" xlink:href="#dirArrow" transform="rotate(270) translate(-36 17)" onmousedown="handlePan(-1,0)">
                  <use xlink:href="#rim" fill="#404040">
                        <set attributeName="fill" to="#808080" begin="arrowLeft.mouseover" end="arrowLeft.mouseout"/>
                  </use>
                  <path fill="none" stroke="white" stroke-width="1.5" d="M0,-3.0v7 M-2.5,-0.5L0,-3.0L2.5,-0.5"/>
                </g>
        </g>
        <svg viewBox="0 0 15 15" width="100%" height="30px" preserveAspectRatio="xMaxYMin meet">
         <g id="arrow_out" transform="scale(0.3 0.3)">
          <a xlink:href="a00972_org.svg" target="_base">
           <rect id="button" ry="5" rx="5" y="6" x="6" height="38" width="38"
                fill="#f2f5e9" fill-opacity="0.5" stroke="#606060" stroke-width="1.0"/>
           <path id="arrow"
             d="M 11.500037,31.436501 C 11.940474,20.09759 22.043105,11.32322 32.158766,21.979434 L 37.068811,17.246167 C 37.068811,17.246167 37.088388,32 37.088388,32 L 22.160133,31.978069 C 22.160133,31.978069 26.997745,27.140456 26.997745,27.140456 C 18.528582,18.264221 13.291696,25.230495 11.500037,31.436501 z"
             style="fill:#404040;"/>
          </a>
         </g>
        </svg>
</svg>
