<?xml version="1.0" encoding="UTF-8" standalone="no"?>
<!DOCTYPE svg PUBLIC "-//W3C//DTD SVG 1.1//EN"
 "http://www.w3.org/Graphics/SVG/1.1/DTD/svg11.dtd">
<!-- Generated by graphviz version 2.36.0 (20140111.2315)
 -->
<!-- Title: proto::GeoGrid_Location_ContactCenter_ContactPool::add_people Pages: 1 -->
<!--zoomable 48 -->
<svg id="main" version="1.1" xmlns="http://www.w3.org/2000/svg" xmlns:xlink="http://www.w3.org/1999/xlink" xml:space="preserve" onload="init(evt)">
<style type="text/css"><![CDATA[
.edge:hover path { stroke: red; }
.edge:hover polygon { stroke: red; fill: red; }
]]></style>
<script type="text/javascript"><![CDATA[
var edges = document.getElementsByTagName('g');
if (edges && edges.length) {
  for (var i=0;i<edges.length;i++) {
    if (edges[i].id.substr(0,4)=='edge') {
      edges[i].setAttribute('class','edge');
    }
  }
}
]]></script>
        <defs>
                <circle id="rim" cx="0" cy="0" r="7"/>
                <circle id="rim2" cx="0" cy="0" r="3.5"/>
                <g id="zoomPlus">
                        <use xlink:href="#rim" fill="#404040">
                                <set attributeName="fill" to="#808080" begin="zoomplus.mouseover" end="zoomplus.mouseout"/>
                        </use>
                        <path d="M-4,0h8M0,-4v8" fill="none" stroke="white" stroke-width="1.5" pointer-events="none"/>
                </g>
                <g id="zoomMin">
                        <use xlink:href="#rim" fill="#404040">
                                <set attributeName="fill" to="#808080" begin="zoomminus.mouseover" end="zoomminus.mouseout"/>
                        </use>
                        <path d="M-4,0h8" fill="none" stroke="white" stroke-width="1.5" pointer-events="none"/>
                </g>
                <g id="dirArrow">
                        <path fill="none" stroke="white" stroke-width="1.5" d="M0,-3.0v7 M-2.5,-0.5L0,-3.0L2.5,-0.5"/>
                </g>
               <g id="resetDef">
                       <use xlink:href="#rim2" fill="#404040">
                               <set attributeName="fill" to="#808080" begin="reset.mouseover" end="reset.mouseout"/>
                       </use>
               </g>
        </defs>

<script type="text/javascript">
var viewWidth = 922;
var viewHeight = 48;
var sectionId = 'dynsection-7';
</script>
<script xlink:href="../../svgpan.js"/>
<svg id="graph" class="graph">
<g id="viewport">
<title>proto::GeoGrid_Location_ContactCenter_ContactPool::add_people</title>
<polygon fill="white" stroke="none" points="-4,4 -4,-44 918,-44 918,4 -4,4"/>
<!-- Node1 -->
<g id="node1" class="node"><title>Node1</title>
<polygon fill="#bfbfbf" stroke="black" points="0.5,0.5 0.5,-40.5 145.5,-40.5 145.5,0.5 0.5,0.5"/>
<text text-anchor="start" x="8.5" y="-28.5" font-family="Helvetica,sans-Serif" font-size="10.00">proto::GeoGrid_Location</text>
<text text-anchor="start" x="8.5" y="-17.5" font-family="Helvetica,sans-Serif" font-size="10.00">_ContactCenter_ContactPool</text>
<text text-anchor="middle" x="73" y="-6.5" font-family="Helvetica,sans-Serif" font-size="10.00">::add_people</text>
</g>
<!-- Node2 -->
<g id="node2" class="node"><title>Node2</title>
<g id="a_node2"><a xlink:href="../../db/d3a/a00040.html#a0551c1ce7927fc90a5dcc38df8980176" target="_top" xlink:title="Create a ProtoBuf ContactPool containing all the information needed to reconstruct a ContactPool...">
<polygon fill="white" stroke="black" points="182.5,-5 182.5,-35 337.5,-35 337.5,-5 182.5,-5"/>
<text text-anchor="start" x="190.5" y="-23" font-family="Helvetica,sans-Serif" font-size="10.00">gengeopop::GeoGridProtoWriter</text>
<text text-anchor="middle" x="260" y="-12" font-family="Helvetica,sans-Serif" font-size="10.00">::WriteContactPool</text>
</a>
</g>
</g>
<!-- Node1&#45;&gt;Node2 -->
<g id="edge1" class="edge"><title>Node1&#45;&gt;Node2</title>
<path fill="none" stroke="midnightblue" d="M155.547,-20C164.49,-20 173.572,-20 182.452,-20"/>
<polygon fill="midnightblue" stroke="midnightblue" points="155.526,-16.5001 145.526,-20 155.526,-23.5001 155.526,-16.5001"/>
</g>
<!-- Node3 -->
<g id="node3" class="node"><title>Node3</title>
<g id="a_node3"><a xlink:href="../../db/d3a/a00040.html#a1235f787a58d45e623cf5bf21819ccc1" target="_top" xlink:title="Create a ProtoBuf ContactCenter containing all the information needed to reconstruct a ContactCenter...">
<polygon fill="white" stroke="black" points="374.5,-5 374.5,-35 529.5,-35 529.5,-5 374.5,-5"/>
<text text-anchor="start" x="382.5" y="-23" font-family="Helvetica,sans-Serif" font-size="10.00">gengeopop::GeoGridProtoWriter</text>
<text text-anchor="middle" x="452" y="-12" font-family="Helvetica,sans-Serif" font-size="10.00">::WriteContactCenter</text>
</a>
</g>
</g>
<!-- Node2&#45;&gt;Node3 -->
<g id="edge2" class="edge"><title>Node2&#45;&gt;Node3</title>
<path fill="none" stroke="midnightblue" d="M347.978,-20C356.758,-20 365.629,-20 374.29,-20"/>
<polygon fill="midnightblue" stroke="midnightblue" points="347.733,-16.5001 337.733,-20 347.733,-23.5001 347.733,-16.5001"/>
</g>
<!-- Node4 -->
<g id="node4" class="node"><title>Node4</title>
<g id="a_node4"><a xlink:href="../../db/d3a/a00040.html#a2b0641108a2e713aa25c5969939a3c14" target="_top" xlink:title="Create a ProtoBuf Location containing all the information needed to reconstruct a Location...">
<polygon fill="white" stroke="black" points="566.5,-5 566.5,-35 721.5,-35 721.5,-5 566.5,-5"/>
<text text-anchor="start" x="574.5" y="-23" font-family="Helvetica,sans-Serif" font-size="10.00">gengeopop::GeoGridProtoWriter</text>
<text text-anchor="middle" x="644" y="-12" font-family="Helvetica,sans-Serif" font-size="10.00">::WriteLocation</text>
</a>
</g>
</g>
<!-- Node3&#45;&gt;Node4 -->
<g id="edge3" class="edge"><title>Node3&#45;&gt;Node4</title>
<path fill="none" stroke="midnightblue" d="M539.978,-20C548.758,-20 557.629,-20 566.29,-20"/>
<polygon fill="midnightblue" stroke="midnightblue" points="539.733,-16.5001 529.733,-20 539.733,-23.5001 539.733,-16.5001"/>
</g>
<!-- Node5 -->
<g id="node5" class="node"><title>Node5</title>
<g id="a_node5"><a xlink:href="../../db/d3a/a00040.html#a3163b8464f599d204597a01dfc47f08f" target="_top" xlink:title="Write the provided GeoGrid to the proved ostream in Protobuf format. ">
<polygon fill="white" stroke="black" points="758.5,-5 758.5,-35 913.5,-35 913.5,-5 758.5,-5"/>
<text text-anchor="start" x="766.5" y="-23" font-family="Helvetica,sans-Serif" font-size="10.00">gengeopop::GeoGridProtoWriter</text>
<text text-anchor="middle" x="836" y="-12" font-family="Helvetica,sans-Serif" font-size="10.00">::Write</text>
</a>
</g>
</g>
<!-- Node4&#45;&gt;Node5 -->
<g id="edge4" class="edge"><title>Node4&#45;&gt;Node5</title>
<path fill="none" stroke="midnightblue" d="M731.978,-20C740.758,-20 749.629,-20 758.29,-20"/>
<polygon fill="midnightblue" stroke="midnightblue" points="731.733,-16.5001 721.733,-20 731.733,-23.5001 731.733,-16.5001"/>
</g>
</g>
</svg>
        <g id="navigator" transform="translate(0 0)" fill="#404254">
                <rect fill="#f2f5e9" fill-opacity="0.5" stroke="#606060" stroke-width=".5" x="0" y="0" width="60" height="60"/>
                <use id="zoomplus" xlink:href="#zoomPlus" x="17" y="9" onmousedown="handleZoom(evt,'in')"/>
                <use id="zoomminus" xlink:href="#zoomMin" x="42" y="9" onmousedown="handleZoom(evt,'out')"/>
                <use id="reset" xlink:href="#resetDef" x="30" y="36" onmousedown="handleReset()"/>
                <g id="arrowUp" xlink:href="#dirArrow" transform="translate(30 24)" onmousedown="handlePan(0,-1)">
                  <use xlink:href="#rim" fill="#404040">
                        <set attributeName="fill" to="#808080" begin="arrowUp.mouseover" end="arrowUp.mouseout"/>
                  </use>
                  <path fill="none" stroke="white" stroke-width="1.5" d="M0,-3.0v7 M-2.5,-0.5L0,-3.0L2.5,-0.5"/>
                </g>
                <g id="arrowRight" xlink:href="#dirArrow" transform="rotate(90) translate(36 -43)" onmousedown="handlePan(1,0)">
                  <use xlink:href="#rim" fill="#404040">
                        <set attributeName="fill" to="#808080" begin="arrowRight.mouseover" end="arrowRight.mouseout"/>
                  </use>
                  <path fill="none" stroke="white" stroke-width="1.5" d="M0,-3.0v7 M-2.5,-0.5L0,-3.0L2.5,-0.5"/>
                </g>
                <g id="arrowDown" xlink:href="#dirArrow" transform="rotate(180) translate(-30 -48)" onmousedown="handlePan(0,1)">
                  <use xlink:href="#rim" fill="#404040">
                        <set attributeName="fill" to="#808080" begin="arrowDown.mouseover" end="arrowDown.mouseout"/>
                  </use>
                  <path fill="none" stroke="white" stroke-width="1.5" d="M0,-3.0v7 M-2.5,-0.5L0,-3.0L2.5,-0.5"/>
                </g>
                <g id="arrowLeft" xlink:href="#dirArrow" transform="rotate(270) translate(-36 17)" onmousedown="handlePan(-1,0)">
                  <use xlink:href="#rim" fill="#404040">
                        <set attributeName="fill" to="#808080" begin="arrowLeft.mouseover" end="arrowLeft.mouseout"/>
                  </use>
                  <path fill="none" stroke="white" stroke-width="1.5" d="M0,-3.0v7 M-2.5,-0.5L0,-3.0L2.5,-0.5"/>
                </g>
        </g>
        <svg viewBox="0 0 15 15" width="100%" height="30px" preserveAspectRatio="xMaxYMin meet">
         <g id="arrow_out" transform="scale(0.3 0.3)">
          <a xlink:href="a00085_aa0d19e37f4c187d754b71a7696ad32eb_icgraph_org.svg" target="_base">
           <rect id="button" ry="5" rx="5" y="6" x="6" height="38" width="38"
                fill="#f2f5e9" fill-opacity="0.5" stroke="#606060" stroke-width="1.0"/>
           <path id="arrow"
             d="M 11.500037,31.436501 C 11.940474,20.09759 22.043105,11.32322 32.158766,21.979434 L 37.068811,17.246167 C 37.068811,17.246167 37.088388,32 37.088388,32 L 22.160133,31.978069 C 22.160133,31.978069 26.997745,27.140456 26.997745,27.140456 C 18.528582,18.264221 13.291696,25.230495 11.500037,31.436501 z"
             style="fill:#404040;"/>
          </a>
         </g>
        </svg>
</svg>
