<?xml version="1.0" encoding="UTF-8" standalone="no"?>
<!DOCTYPE svg PUBLIC "-//W3C//DTD SVG 1.1//EN"
 "http://www.w3.org/Graphics/SVG/1.1/DTD/svg11.dtd">
<!-- Generated by graphviz version 2.36.0 (20140111.2315)
 -->
<!-- Title: proto::GeoGrid_Location_ContactCenter_ContactPool::people_size Pages: 1 -->
<svg width="946pt" height="48pt"
 viewBox="0.00 0.00 946.00 48.00" xmlns="http://www.w3.org/2000/svg" xmlns:xlink="http://www.w3.org/1999/xlink">
<g id="graph0" class="graph" transform="scale(1 1) rotate(0) translate(4 44)">
<title>proto::GeoGrid_Location_ContactCenter_ContactPool::people_size</title>
<polygon fill="white" stroke="none" points="-4,4 -4,-44 942,-44 942,4 -4,4"/>
<!-- Node1 -->
<g id="node1" class="node"><title>Node1</title>
<polygon fill="#bfbfbf" stroke="black" points="0.5,0.5 0.5,-40.5 145.5,-40.5 145.5,0.5 0.5,0.5"/>
<text text-anchor="start" x="8.5" y="-28.5" font-family="Helvetica,sans-Serif" font-size="10.00">proto::GeoGrid_Location</text>
<text text-anchor="start" x="8.5" y="-17.5" font-family="Helvetica,sans-Serif" font-size="10.00">_ContactCenter_ContactPool</text>
<text text-anchor="middle" x="73" y="-6.5" font-family="Helvetica,sans-Serif" font-size="10.00">::people_size</text>
</g>
<!-- Node2 -->
<g id="node2" class="node"><title>Node2</title>
<g id="a_node2"><a xlink:href="../../d3/de7/a00039.html#a19e0ff14a2aef228d926d53132fa767b" target="_top" xlink:title="Create a ContactPool based on the provided protobuf ContactPool. ">
<polygon fill="white" stroke="black" points="182.5,-5 182.5,-35 343.5,-35 343.5,-5 182.5,-5"/>
<text text-anchor="start" x="190.5" y="-23" font-family="Helvetica,sans-Serif" font-size="10.00">gengeopop::GeoGridProtoReader</text>
<text text-anchor="middle" x="263" y="-12" font-family="Helvetica,sans-Serif" font-size="10.00">::ParseContactPool</text>
</a>
</g>
</g>
<!-- Node1&#45;&gt;Node2 -->
<g id="edge1" class="edge"><title>Node1&#45;&gt;Node2</title>
<path fill="none" stroke="midnightblue" d="M155.872,-20C164.685,-20 173.643,-20 182.429,-20"/>
<polygon fill="midnightblue" stroke="midnightblue" points="155.611,-16.5001 145.611,-20 155.611,-23.5001 155.611,-16.5001"/>
</g>
<!-- Node3 -->
<g id="node3" class="node"><title>Node3</title>
<g id="a_node3"><a xlink:href="../../d3/de7/a00039.html#a351fab1f7eb8f7035fa432b2a3d7c104" target="_top" xlink:title="Create a ContactCenter based on the provided protobuf ContactCenter. ">
<polygon fill="white" stroke="black" points="380.5,-5 380.5,-35 541.5,-35 541.5,-5 380.5,-5"/>
<text text-anchor="start" x="388.5" y="-23" font-family="Helvetica,sans-Serif" font-size="10.00">gengeopop::GeoGridProtoReader</text>
<text text-anchor="middle" x="461" y="-12" font-family="Helvetica,sans-Serif" font-size="10.00">::ParseContactCenter</text>
</a>
</g>
</g>
<!-- Node2&#45;&gt;Node3 -->
<g id="edge2" class="edge"><title>Node2&#45;&gt;Node3</title>
<path fill="none" stroke="midnightblue" d="M353.989,-20C362.785,-20 371.667,-20 380.35,-20"/>
<polygon fill="midnightblue" stroke="midnightblue" points="353.721,-16.5001 343.721,-20 353.721,-23.5001 353.721,-16.5001"/>
</g>
<!-- Node4 -->
<g id="node4" class="node"><title>Node4</title>
<g id="a_node4"><a xlink:href="../../d3/de7/a00039.html#a0adca811808bc9edf494cd38b6ca0bae" target="_top" xlink:title="Create a Location based on the provided protobuf Location. ">
<polygon fill="white" stroke="black" points="578.5,-5 578.5,-35 739.5,-35 739.5,-5 578.5,-5"/>
<text text-anchor="start" x="586.5" y="-23" font-family="Helvetica,sans-Serif" font-size="10.00">gengeopop::GeoGridProtoReader</text>
<text text-anchor="middle" x="659" y="-12" font-family="Helvetica,sans-Serif" font-size="10.00">::ParseLocation</text>
</a>
</g>
</g>
<!-- Node3&#45;&gt;Node4 -->
<g id="edge3" class="edge"><title>Node3&#45;&gt;Node4</title>
<path fill="none" stroke="midnightblue" d="M551.989,-20C560.785,-20 569.667,-20 578.35,-20"/>
<polygon fill="midnightblue" stroke="midnightblue" points="551.721,-16.5001 541.721,-20 551.721,-23.5001 551.721,-16.5001"/>
</g>
<!-- Node5 -->
<g id="node5" class="node"><title>Node5</title>
<g id="a_node5"><a xlink:href="../../d3/de7/a00039.html#ad9d1285450862c08629d6f8456976413" target="_top" xlink:title="Actually perform the read and return the GeoGrid. ">
<polygon fill="white" stroke="black" points="776.5,-5 776.5,-35 937.5,-35 937.5,-5 776.5,-5"/>
<text text-anchor="start" x="784.5" y="-23" font-family="Helvetica,sans-Serif" font-size="10.00">gengeopop::GeoGridProtoReader</text>
<text text-anchor="middle" x="857" y="-12" font-family="Helvetica,sans-Serif" font-size="10.00">::Read</text>
</a>
</g>
</g>
<!-- Node4&#45;&gt;Node5 -->
<g id="edge4" class="edge"><title>Node4&#45;&gt;Node5</title>
<path fill="none" stroke="midnightblue" d="M749.989,-20C758.785,-20 767.667,-20 776.35,-20"/>
<polygon fill="midnightblue" stroke="midnightblue" points="749.721,-16.5001 739.721,-20 749.721,-23.5001 749.721,-16.5001"/>
</g>
</g>
</svg>
