<?xml version="1.0" encoding="UTF-8" standalone="no"?>
<!DOCTYPE svg PUBLIC "-//W3C//DTD SVG 1.1//EN"
 "http://www.w3.org/Graphics/SVG/1.1/DTD/svg11.dtd">
<!-- Generated by graphviz version 2.36.0 (20140111.2315)
 -->
<!-- Title: ConcatednatedIterators.h Pages: 1 -->
<svg width="990pt" height="264pt"
 viewBox="0.00 0.00 990.00 264.00" xmlns="http://www.w3.org/2000/svg" xmlns:xlink="http://www.w3.org/1999/xlink">
<g id="graph0" class="graph" transform="scale(1 1) rotate(0) translate(4 260)">
<title>ConcatednatedIterators.h</title>
<polygon fill="white" stroke="none" points="-4,4 -4,-260 986,-260 986,4 -4,4"/>
<!-- Node1 -->
<g id="node1" class="node"><title>Node1</title>
<polygon fill="#bfbfbf" stroke="black" points="448.5,-236.5 448.5,-255.5 575.5,-255.5 575.5,-236.5 448.5,-236.5"/>
<text text-anchor="middle" x="512" y="-243.5" font-family="Helvetica,sans-Serif" font-size="10.00">ConcatednatedIterators.h</text>
</g>
<!-- Node2 -->
<g id="node2" class="node"><title>Node2</title>
<g id="a_node2"><a xlink:href="../../d6/db8/a00376.html" target="_top" xlink:title="pchheader.h">
<polygon fill="white" stroke="black" points="477,-180.5 477,-199.5 547,-199.5 547,-180.5 477,-180.5"/>
<text text-anchor="middle" x="512" y="-187.5" font-family="Helvetica,sans-Serif" font-size="10.00">pchheader.h</text>
</a>
</g>
</g>
<!-- Node1&#45;&gt;Node2 -->
<g id="edge1" class="edge"><title>Node1&#45;&gt;Node2</title>
<path fill="none" stroke="midnightblue" d="M506.834,-236.083C505.324,-228.927 504.894,-218.635 505.542,-209.691"/>
<polygon fill="midnightblue" stroke="midnightblue" points="509.015,-210.126 506.869,-199.751 502.077,-209.2 509.015,-210.126"/>
</g>
<!-- Node11 -->
<g id="node11" class="node"><title>Node11</title>
<polygon fill="white" stroke="#bfbfbf" points="212,-56.5 212,-75.5 256,-75.5 256,-56.5 212,-56.5"/>
<text text-anchor="middle" x="234" y="-63.5" font-family="Helvetica,sans-Serif" font-size="10.00">vector</text>
</g>
<!-- Node1&#45;&gt;Node11 -->
<g id="edge37" class="edge"><title>Node1&#45;&gt;Node11</title>
<path fill="none" stroke="midnightblue" d="M497.393,-236.286C468.585,-219.038 402.509,-179.171 348,-144 315.193,-122.831 277.798,-97.2991 255.053,-81.6085"/>
<polygon fill="midnightblue" stroke="midnightblue" points="256.753,-78.5284 246.537,-75.7206 252.772,-84.2863 256.753,-78.5284"/>
</g>
<!-- Node2&#45;&gt;Node1 -->
<g id="edge2" class="edge"><title>Node2&#45;&gt;Node1</title>
<path fill="none" stroke="midnightblue" d="M517.131,-199.751C518.657,-206.858 519.104,-217.136 518.472,-226.101"/>
<polygon fill="midnightblue" stroke="midnightblue" points="514.993,-225.713 517.166,-236.083 521.934,-226.622 514.993,-225.713"/>
</g>
<!-- Node3 -->
<g id="node3" class="node"><title>Node3</title>
<g id="a_node3"><a xlink:href="../../df/d91/a00335.html" target="_top" xlink:title="util/IteratorPair.h">
<polygon fill="white" stroke="black" points="731.5,-118.5 731.5,-137.5 820.5,-137.5 820.5,-118.5 731.5,-118.5"/>
<text text-anchor="middle" x="776" y="-125.5" font-family="Helvetica,sans-Serif" font-size="10.00">util/IteratorPair.h</text>
</a>
</g>
</g>
<!-- Node2&#45;&gt;Node3 -->
<g id="edge3" class="edge"><title>Node2&#45;&gt;Node3</title>
<path fill="none" stroke="midnightblue" d="M547.266,-181.627C588.176,-172.989 657.609,-158.064 717,-144 722.335,-142.737 727.931,-141.369 733.462,-139.992"/>
<polygon fill="midnightblue" stroke="midnightblue" points="734.435,-143.356 743.279,-137.523 732.727,-136.568 734.435,-143.356"/>
</g>
<!-- Node4 -->
<g id="node4" class="node"><title>Node4</title>
<g id="a_node4"><a xlink:href="../../dd/db5/a00365.html" target="_top" xlink:title="Interface/Implementation for NestedIterator. ">
<polygon fill="white" stroke="black" points="357.5,-118.5 357.5,-137.5 460.5,-137.5 460.5,-118.5 357.5,-118.5"/>
<text text-anchor="middle" x="409" y="-125.5" font-family="Helvetica,sans-Serif" font-size="10.00">util/NestedIterator.h</text>
</a>
</g>
</g>
<!-- Node2&#45;&gt;Node4 -->
<g id="edge4" class="edge"><title>Node2&#45;&gt;Node4</title>
<path fill="none" stroke="midnightblue" d="M497.243,-180.403C480.339,-170.557 452.417,-154.291 432.51,-142.695"/>
<polygon fill="midnightblue" stroke="midnightblue" points="434.133,-139.59 423.73,-137.581 430.609,-145.638 434.133,-139.59"/>
</g>
<!-- Node12 -->
<g id="node12" class="node"><title>Node12</title>
<g id="a_node12"><a xlink:href="../../d5/db5/a00374.html" target="_top" xlink:title="util/PartitionedSegmented\lVector.h">
<polygon fill="white" stroke="black" points="141,-113 141,-143 269,-143 269,-113 141,-113"/>
<text text-anchor="start" x="149" y="-131" font-family="Helvetica,sans-Serif" font-size="10.00">util/PartitionedSegmented</text>
<text text-anchor="middle" x="205" y="-120" font-family="Helvetica,sans-Serif" font-size="10.00">Vector.h</text>
</a>
</g>
</g>
<!-- Node2&#45;&gt;Node12 -->
<g id="edge12" class="edge"><title>Node2&#45;&gt;Node12</title>
<path fill="none" stroke="midnightblue" d="M476.899,-182.972C428.868,-174.087 341.74,-157.172 279,-144.637"/>
<polygon fill="midnightblue" stroke="midnightblue" points="279.642,-141.196 269.15,-142.665 278.268,-148.06 279.642,-141.196"/>
</g>
<!-- Node17 -->
<g id="node17" class="node"><title>Node17</title>
<g id="a_node17"><a xlink:href="../../d4/d53/a00429.html" target="_top" xlink:title="Interface/Implementation for SVIterator. ">
<polygon fill="white" stroke="black" points="814.5,-56.5 814.5,-75.5 899.5,-75.5 899.5,-56.5 814.5,-56.5"/>
<text text-anchor="middle" x="857" y="-63.5" font-family="Helvetica,sans-Serif" font-size="10.00">util/SVIterator.h</text>
</a>
</g>
</g>
<!-- Node2&#45;&gt;Node17 -->
<g id="edge19" class="edge"><title>Node2&#45;&gt;Node17</title>
<path fill="none" stroke="midnightblue" d="M547.317,-184.242C583.048,-178.409 639.122,-166.412 683,-144 702.968,-133.801 702.371,-122.837 722,-112 749.521,-96.8065 783.036,-85.5992 809.787,-78.1692"/>
<polygon fill="midnightblue" stroke="midnightblue" points="810.935,-81.4848 819.682,-75.5061 809.116,-74.7253 810.935,-81.4848"/>
</g>
<!-- Node19 -->
<g id="node19" class="node"><title>Node19</title>
<g id="a_node19"><a xlink:href="../../d0/da0/a00403.html" target="_top" xlink:title="Interface and implementation for SegmentedVector class. ">
<polygon fill="white" stroke="black" points="555.5,-118.5 555.5,-137.5 674.5,-137.5 674.5,-118.5 555.5,-118.5"/>
<text text-anchor="middle" x="615" y="-125.5" font-family="Helvetica,sans-Serif" font-size="10.00">util/SegmentedVector.h</text>
</a>
</g>
</g>
<!-- Node2&#45;&gt;Node19 -->
<g id="edge24" class="edge"><title>Node2&#45;&gt;Node19</title>
<path fill="none" stroke="midnightblue" d="M526.757,-180.403C543.661,-170.557 571.583,-154.291 591.49,-142.695"/>
<polygon fill="midnightblue" stroke="midnightblue" points="593.391,-145.638 600.27,-137.581 589.867,-139.59 593.391,-145.638"/>
</g>
<!-- Node22 -->
<g id="node22" class="node"><title>Node22</title>
<g id="a_node22"><a xlink:href="../../db/ddc/a00353.html" target="_top" xlink:title="util/lower_bound.h">
<polygon fill="white" stroke="black" points="887.5,-118.5 887.5,-137.5 982.5,-137.5 982.5,-118.5 887.5,-118.5"/>
<text text-anchor="middle" x="935" y="-125.5" font-family="Helvetica,sans-Serif" font-size="10.00">util/lower_bound.h</text>
</a>
</g>
</g>
<!-- Node2&#45;&gt;Node22 -->
<g id="edge35" class="edge"><title>Node2&#45;&gt;Node22</title>
<path fill="none" stroke="midnightblue" d="M547.337,-183.988C620.373,-173.628 788.546,-149.774 877.467,-137.161"/>
<polygon fill="midnightblue" stroke="midnightblue" points="877.976,-140.624 887.385,-135.754 876.993,-133.693 877.976,-140.624"/>
</g>
<!-- Node5 -->
<g id="node5" class="node"><title>Node5</title>
<polygon fill="white" stroke="#bfbfbf" points="665.5,-0.5 665.5,-19.5 714.5,-19.5 714.5,-0.5 665.5,-0.5"/>
<text text-anchor="middle" x="690" y="-7.5" font-family="Helvetica,sans-Serif" font-size="10.00">cassert</text>
</g>
<!-- Node4&#45;&gt;Node5 -->
<g id="edge5" class="edge"><title>Node4&#45;&gt;Node5</title>
<path fill="none" stroke="midnightblue" d="M406.532,-118.243C402.924,-103.351 398.226,-73.0546 414,-56 450.768,-16.247 601.929,-30.7571 655,-20 655.104,-19.979 655.208,-19.9578 655.312,-19.9366"/>
<polygon fill="midnightblue" stroke="midnightblue" points="656.228,-23.318 665.217,-17.7104 654.693,-16.4884 656.228,-23.318"/>
</g>
<!-- Node6 -->
<g id="node6" class="node"><title>Node6</title>
<polygon fill="white" stroke="#bfbfbf" points="274.5,-56.5 274.5,-75.5 323.5,-75.5 323.5,-56.5 274.5,-56.5"/>
<text text-anchor="middle" x="299" y="-63.5" font-family="Helvetica,sans-Serif" font-size="10.00">cstddef</text>
</g>
<!-- Node4&#45;&gt;Node6 -->
<g id="edge6" class="edge"><title>Node4&#45;&gt;Node6</title>
<path fill="none" stroke="midnightblue" d="M393.24,-118.403C375.024,-108.468 344.827,-91.9966 323.532,-80.3812"/>
<polygon fill="midnightblue" stroke="midnightblue" points="325.186,-77.2965 314.731,-75.5806 321.834,-83.4418 325.186,-77.2965"/>
</g>
<!-- Node7 -->
<g id="node7" class="node"><title>Node7</title>
<polygon fill="white" stroke="#bfbfbf" points="514,-56.5 514,-75.5 568,-75.5 568,-56.5 514,-56.5"/>
<text text-anchor="middle" x="541" y="-63.5" font-family="Helvetica,sans-Serif" font-size="10.00">iostream</text>
</g>
<!-- Node4&#45;&gt;Node7 -->
<g id="edge7" class="edge"><title>Node4&#45;&gt;Node7</title>
<path fill="none" stroke="midnightblue" d="M427.912,-118.403C450.163,-108.29 487.312,-91.4036 512.926,-79.761"/>
<polygon fill="midnightblue" stroke="midnightblue" points="514.467,-82.905 522.123,-75.5806 511.571,-76.5324 514.467,-82.905"/>
</g>
<!-- Node8 -->
<g id="node8" class="node"><title>Node8</title>
<polygon fill="white" stroke="#bfbfbf" points="900.5,-0.5 900.5,-19.5 947.5,-19.5 947.5,-0.5 900.5,-0.5"/>
<text text-anchor="middle" x="924" y="-7.5" font-family="Helvetica,sans-Serif" font-size="10.00">iterator</text>
</g>
<!-- Node4&#45;&gt;Node8 -->
<g id="edge8" class="edge"><title>Node4&#45;&gt;Node8</title>
<path fill="none" stroke="midnightblue" d="M410.846,-118.181C414.615,-102.622 424.788,-70.5687 447,-56 529.033,-2.19477 790.15,-35.6417 887,-20 888.077,-19.8261 889.169,-19.6372 890.269,-19.436"/>
<polygon fill="midnightblue" stroke="midnightblue" points="891.15,-22.8276 900.228,-17.3642 889.725,-15.9744 891.15,-22.8276"/>
</g>
<!-- Node9 -->
<g id="node9" class="node"><title>Node9</title>
<polygon fill="white" stroke="#bfbfbf" points="456,-56.5 456,-75.5 496,-75.5 496,-56.5 456,-56.5"/>
<text text-anchor="middle" x="476" y="-63.5" font-family="Helvetica,sans-Serif" font-size="10.00">limits</text>
</g>
<!-- Node4&#45;&gt;Node9 -->
<g id="edge9" class="edge"><title>Node4&#45;&gt;Node9</title>
<path fill="none" stroke="midnightblue" d="M418.599,-118.403C429.048,-109.047 445.968,-93.8948 458.736,-82.4599"/>
<polygon fill="midnightblue" stroke="midnightblue" points="461.304,-84.8592 466.418,-75.5806 456.634,-79.6445 461.304,-84.8592"/>
</g>
<!-- Node10 -->
<g id="node10" class="node"><title>Node10</title>
<polygon fill="white" stroke="#bfbfbf" points="585,-0.5 585,-19.5 647,-19.5 647,-0.5 585,-0.5"/>
<text text-anchor="middle" x="616" y="-7.5" font-family="Helvetica,sans-Serif" font-size="10.00">type_traits</text>
</g>
<!-- Node4&#45;&gt;Node10 -->
<g id="edge10" class="edge"><title>Node4&#45;&gt;Node10</title>
<path fill="none" stroke="midnightblue" d="M399.326,-118.341C384.59,-104.12 359.854,-75.4551 376,-56 400.761,-26.1646 512.668,-15.9909 574.544,-12.6137"/>
<polygon fill="midnightblue" stroke="midnightblue" points="574.945,-16.0979 584.753,-12.0933 574.588,-9.10699 574.945,-16.0979"/>
</g>
<!-- Node4&#45;&gt;Node11 -->
<g id="edge11" class="edge"><title>Node4&#45;&gt;Node11</title>
<path fill="none" stroke="midnightblue" d="M383.927,-118.403C352.922,-107.773 300.096,-89.6615 266.142,-78.0201"/>
<polygon fill="midnightblue" stroke="midnightblue" points="266.85,-74.5629 256.255,-74.6304 264.58,-81.1846 266.85,-74.5629"/>
</g>
<!-- Node12&#45;&gt;Node2 -->
<g id="edge15" class="edge"><title>Node12&#45;&gt;Node2</title>
<path fill="none" stroke="midnightblue" d="M269.101,-140.465C328.312,-151.678 414.654,-168.571 466.917,-179.183"/>
<polygon fill="midnightblue" stroke="midnightblue" points="466.399,-182.649 476.897,-181.218 467.798,-175.79 466.399,-182.649"/>
</g>
<!-- Node12&#45;&gt;Node11 -->
<g id="edge18" class="edge"><title>Node12&#45;&gt;Node11</title>
<path fill="none" stroke="midnightblue" d="M211.873,-112.781C215.913,-104.422 221.058,-93.7773 225.369,-84.8565"/>
<polygon fill="midnightblue" stroke="midnightblue" points="228.58,-86.2571 229.78,-75.7305 222.277,-83.2109 228.58,-86.2571"/>
</g>
<!-- Node13 -->
<g id="node13" class="node"><title>Node13</title>
<g id="a_node13"><a xlink:href="../../d5/d35/a00266.html" target="_top" xlink:title="Exception.h">
<polygon fill="white" stroke="black" points="0,-56.5 0,-75.5 68,-75.5 68,-56.5 0,-56.5"/>
<text text-anchor="middle" x="34" y="-63.5" font-family="Helvetica,sans-Serif" font-size="10.00">Exception.h</text>
</a>
</g>
</g>
<!-- Node12&#45;&gt;Node13 -->
<g id="edge13" class="edge"><title>Node12&#45;&gt;Node13</title>
<path fill="none" stroke="midnightblue" d="M164.908,-112.933C135.455,-102.598 95.8753,-88.7106 67.9724,-78.9202"/>
<polygon fill="midnightblue" stroke="midnightblue" points="68.856,-75.521 58.2612,-75.5127 66.5384,-82.1262 68.856,-75.521"/>
</g>
<!-- Node15 -->
<g id="node15" class="node"><title>Node15</title>
<polygon fill="white" stroke="#bfbfbf" points="86.5,-56.5 86.5,-75.5 137.5,-75.5 137.5,-56.5 86.5,-56.5"/>
<text text-anchor="middle" x="112" y="-63.5" font-family="Helvetica,sans-Serif" font-size="10.00">numeric</text>
</g>
<!-- Node12&#45;&gt;Node15 -->
<g id="edge16" class="edge"><title>Node12&#45;&gt;Node15</title>
<path fill="none" stroke="midnightblue" d="M182.96,-112.781C168.103,-103.196 148.59,-90.6062 133.786,-81.0555"/>
<polygon fill="midnightblue" stroke="midnightblue" points="135.562,-78.036 125.261,-75.5557 131.767,-83.9181 135.562,-78.036"/>
</g>
<!-- Node16 -->
<g id="node16" class="node"><title>Node16</title>
<polygon fill="white" stroke="#bfbfbf" points="156,-56.5 156,-75.5 194,-75.5 194,-56.5 156,-56.5"/>
<text text-anchor="middle" x="175" y="-63.5" font-family="Helvetica,sans-Serif" font-size="10.00">tuple</text>
</g>
<!-- Node12&#45;&gt;Node16 -->
<g id="edge17" class="edge"><title>Node12&#45;&gt;Node16</title>
<path fill="none" stroke="midnightblue" d="M197.89,-112.781C193.711,-104.422 188.389,-93.7773 183.928,-84.8565"/>
<polygon fill="midnightblue" stroke="midnightblue" points="186.968,-83.1095 179.365,-75.7305 180.707,-86.2401 186.968,-83.1095"/>
</g>
<!-- Node14 -->
<g id="node14" class="node"><title>Node14</title>
<polygon fill="white" stroke="#bfbfbf" points="265.5,-0.5 265.5,-19.5 324.5,-19.5 324.5,-0.5 265.5,-0.5"/>
<text text-anchor="middle" x="295" y="-7.5" font-family="Helvetica,sans-Serif" font-size="10.00">stdexcept</text>
</g>
<!-- Node13&#45;&gt;Node14 -->
<g id="edge14" class="edge"><title>Node13&#45;&gt;Node14</title>
<path fill="none" stroke="midnightblue" d="M68.2657,-57.8192C71.2197,-57.2029 74.1624,-56.5898 77,-56 139.35,-43.0398 211.76,-28.1186 255.443,-19.1312"/>
<polygon fill="midnightblue" stroke="midnightblue" points="256.286,-22.5312 265.376,-17.0881 254.875,-15.6748 256.286,-22.5312"/>
</g>
<!-- Node17&#45;&gt;Node5 -->
<g id="edge20" class="edge"><title>Node17&#45;&gt;Node5</title>
<path fill="none" stroke="midnightblue" d="M830.538,-56.4435C801.824,-47.1586 755.871,-32.2996 724.38,-22.117"/>
<polygon fill="midnightblue" stroke="midnightblue" points="725.296,-18.7348 714.705,-18.9883 723.143,-25.3953 725.296,-18.7348"/>
</g>
<!-- Node17&#45;&gt;Node8 -->
<g id="edge22" class="edge"><title>Node17&#45;&gt;Node8</title>
<path fill="none" stroke="midnightblue" d="M867.765,-56.324C877.766,-48.2631 892.887,-36.0765 904.93,-26.3695"/>
<polygon fill="midnightblue" stroke="midnightblue" points="907.45,-28.8343 913.039,-19.8339 903.057,-23.3841 907.45,-28.8343"/>
</g>
<!-- Node17&#45;&gt;Node10 -->
<g id="edge23" class="edge"><title>Node17&#45;&gt;Node10</title>
<path fill="none" stroke="midnightblue" d="M818.838,-56.469C780.458,-47.8865 719.307,-34.2041 657.013,-20.2255"/>
<polygon fill="midnightblue" stroke="midnightblue" points="657.532,-16.7551 647.008,-17.9803 655.999,-23.5852 657.532,-16.7551"/>
</g>
<!-- Node18 -->
<g id="node18" class="node"><title>Node18</title>
<polygon fill="white" stroke="#bfbfbf" points="835,-0.5 835,-19.5 879,-19.5 879,-0.5 835,-0.5"/>
<text text-anchor="middle" x="857" y="-7.5" font-family="Helvetica,sans-Serif" font-size="10.00">cmath</text>
</g>
<!-- Node17&#45;&gt;Node18 -->
<g id="edge21" class="edge"><title>Node17&#45;&gt;Node18</title>
<path fill="none" stroke="midnightblue" d="M857,-56.083C857,-49.0059 857,-38.8611 857,-29.9865"/>
<polygon fill="midnightblue" stroke="midnightblue" points="860.5,-29.751 857,-19.7511 853.5,-29.7511 860.5,-29.751"/>
</g>
<!-- Node19&#45;&gt;Node5 -->
<g id="edge27" class="edge"><title>Node19&#45;&gt;Node5</title>
<path fill="none" stroke="midnightblue" d="M620.637,-118.281C633.022,-99.1256 662.791,-53.0828 679.012,-27.9944"/>
<polygon fill="midnightblue" stroke="midnightblue" points="682.011,-29.8028 684.501,-19.5048 676.132,-26.0021 682.011,-29.8028"/>
</g>
<!-- Node19&#45;&gt;Node7 -->
<g id="edge28" class="edge"><title>Node19&#45;&gt;Node7</title>
<path fill="none" stroke="midnightblue" d="M604.398,-118.403C592.748,-108.958 573.814,-93.6056 559.665,-82.1342"/>
<polygon fill="midnightblue" stroke="midnightblue" points="561.555,-79.16 551.583,-75.5806 557.146,-84.5973 561.555,-79.16"/>
</g>
<!-- Node19&#45;&gt;Node8 -->
<g id="edge29" class="edge"><title>Node19&#45;&gt;Node8</title>
<path fill="none" stroke="midnightblue" d="M673.511,-118.485C756.527,-106.165 899.46,-83.9704 908,-76 920.47,-64.3626 923.9,-44.7047 924.558,-30.0477"/>
<polygon fill="midnightblue" stroke="midnightblue" points="928.06,-29.6313 924.61,-19.6139 921.06,-29.5962 928.06,-29.6313"/>
</g>
<!-- Node19&#45;&gt;Node9 -->
<g id="edge30" class="edge"><title>Node19&#45;&gt;Node9</title>
<path fill="none" stroke="midnightblue" d="M595.085,-118.403C571.551,-108.245 532.19,-91.2547 505.207,-79.6074"/>
<polygon fill="midnightblue" stroke="midnightblue" points="506.447,-76.3303 495.878,-75.5806 503.672,-82.7572 506.447,-76.3303"/>
</g>
<!-- Node19&#45;&gt;Node10 -->
<g id="edge32" class="edge"><title>Node19&#45;&gt;Node10</title>
<path fill="none" stroke="midnightblue" d="M615.075,-118.281C615.237,-99.5475 615.62,-55.098 615.839,-29.6822"/>
<polygon fill="midnightblue" stroke="midnightblue" points="619.34,-29.5346 615.927,-19.5048 612.341,-29.4742 619.34,-29.5346"/>
</g>
<!-- Node19&#45;&gt;Node11 -->
<g id="edge34" class="edge"><title>Node19&#45;&gt;Node11</title>
<path fill="none" stroke="midnightblue" d="M555.412,-120.852C487.518,-113.281 373.152,-98.8133 266.246,-76.0191"/>
<polygon fill="midnightblue" stroke="midnightblue" points="266.771,-72.5518 256.257,-73.8599 265.292,-79.3937 266.771,-72.5518"/>
</g>
<!-- Node19&#45;&gt;Node14 -->
<g id="edge31" class="edge"><title>Node19&#45;&gt;Node14</title>
<path fill="none" stroke="midnightblue" d="M613.04,-118.348C609.089,-103.055 598.638,-71.4086 577,-56 538.858,-28.8385 403.468,-17.26 335.11,-13.0561"/>
<polygon fill="midnightblue" stroke="midnightblue" points="334.928,-9.53941 324.739,-12.4435 334.515,-16.5272 334.928,-9.53941"/>
</g>
<!-- Node19&#45;&gt;Node17 -->
<g id="edge25" class="edge"><title>Node19&#45;&gt;Node17</title>
<path fill="none" stroke="midnightblue" d="M649.416,-118.467C692.33,-107.827 765.76,-89.6215 812.798,-77.9593"/>
<polygon fill="midnightblue" stroke="midnightblue" points="813.839,-81.3071 822.703,-75.5034 812.155,-74.5128 813.839,-81.3071"/>
</g>
<!-- Node20 -->
<g id="node20" class="node"><title>Node20</title>
<polygon fill="white" stroke="#bfbfbf" points="700,-56.5 700,-75.5 738,-75.5 738,-56.5 700,-56.5"/>
<text text-anchor="middle" x="719" y="-63.5" font-family="Helvetica,sans-Serif" font-size="10.00">array</text>
</g>
<!-- Node19&#45;&gt;Node20 -->
<g id="edge26" class="edge"><title>Node19&#45;&gt;Node20</title>
<path fill="none" stroke="midnightblue" d="M629.901,-118.403C646.968,-108.557 675.161,-92.2915 695.262,-80.6949"/>
<polygon fill="midnightblue" stroke="midnightblue" points="697.214,-83.6095 704.127,-75.5806 693.716,-77.5462 697.214,-83.6095"/>
</g>
<!-- Node21 -->
<g id="node21" class="node"><title>Node21</title>
<polygon fill="white" stroke="#bfbfbf" points="756,-56.5 756,-75.5 796,-75.5 796,-56.5 756,-56.5"/>
<text text-anchor="middle" x="776" y="-63.5" font-family="Helvetica,sans-Serif" font-size="10.00">utility</text>
</g>
<!-- Node19&#45;&gt;Node21 -->
<g id="edge33" class="edge"><title>Node19&#45;&gt;Node21</title>
<path fill="none" stroke="midnightblue" d="M638.067,-118.403C666.469,-107.819 714.773,-89.8175 746.024,-78.171"/>
<polygon fill="midnightblue" stroke="midnightblue" points="747.377,-81.4023 755.525,-74.6304 744.932,-74.8429 747.377,-81.4023"/>
</g>
<!-- Node22&#45;&gt;Node8 -->
<g id="edge36" class="edge"><title>Node22&#45;&gt;Node8</title>
<path fill="none" stroke="midnightblue" d="M937.485,-118.181C940.927,-104.683 946.263,-78.136 942,-56 940.21,-46.7047 936.517,-36.8887 932.939,-28.8048"/>
<polygon fill="midnightblue" stroke="midnightblue" points="936.056,-27.2089 928.621,-19.6611 929.727,-30.1981 936.056,-27.2089"/>
</g>
</g>
</svg>
