<?xml version="1.0" encoding="UTF-8" standalone="no"?>
<!DOCTYPE svg PUBLIC "-//W3C//DTD SVG 1.1//EN"
 "http://www.w3.org/Graphics/SVG/1.1/DTD/svg11.dtd">
<!-- Generated by graphviz version 2.36.0 (20140111.2315)
 -->
<!-- Title: stride::ContactPoolType::IdSubscriptArray&lt; T &gt; Pages: 1 -->
<svg width="156pt" height="346pt"
 viewBox="0.00 0.00 156.00 346.00" xmlns="http://www.w3.org/2000/svg" xmlns:xlink="http://www.w3.org/1999/xlink">
<g id="graph0" class="graph" transform="scale(1 1) rotate(0) translate(4 342)">
<title>stride::ContactPoolType::IdSubscriptArray&lt; T &gt;</title>
<polygon fill="white" stroke="none" points="-4,4 -4,-342 152,-342 152,4 -4,4"/>
<!-- Node1 -->
<g id="node1" class="node"><title>Node1</title>
<polygon fill="#bfbfbf" stroke="black" points="13,-1 13,-135 135,-135 135,-1 13,-1"/>
<text text-anchor="start" x="21" y="-123" font-family="Helvetica,sans-Serif" font-size="10.00">stride::ContactPoolType</text>
<text text-anchor="middle" x="74" y="-112" font-family="Helvetica,sans-Serif" font-size="10.00">::IdSubscriptArray&lt; T &gt;</text>
<polyline fill="none" stroke="black" points="13,-105 135,-105 "/>
<text text-anchor="middle" x="74" y="-93" font-family="Helvetica,sans-Serif" font-size="10.00"> </text>
<polyline fill="none" stroke="black" points="13,-86 135,-86 "/>
<text text-anchor="start" x="21" y="-74" font-family="Helvetica,sans-Serif" font-size="10.00">+ IdSubscriptArray()</text>
<text text-anchor="start" x="21" y="-63" font-family="Helvetica,sans-Serif" font-size="10.00">+ IdSubscriptArray()</text>
<text text-anchor="start" x="21" y="-52" font-family="Helvetica,sans-Serif" font-size="10.00">+ IdSubscriptArray()</text>
<text text-anchor="start" x="21" y="-41" font-family="Helvetica,sans-Serif" font-size="10.00">+ operator[]()</text>
<text text-anchor="start" x="21" y="-30" font-family="Helvetica,sans-Serif" font-size="10.00">+ operator[]()</text>
<text text-anchor="start" x="21" y="-19" font-family="Helvetica,sans-Serif" font-size="10.00">+ at()</text>
<text text-anchor="start" x="21" y="-8" font-family="Helvetica,sans-Serif" font-size="10.00">+ at()</text>
</g>
<!-- Node2 -->
<g id="node2" class="node"><title>Node2</title>
<g id="a_node2"><a xlink:title="STL class. ">
<polygon fill="white" stroke="#bfbfbf" points="-0.5,-174.5 -0.5,-231.5 148.5,-231.5 148.5,-174.5 -0.5,-174.5"/>
<text text-anchor="middle" x="74" y="-219.5" font-family="Helvetica,sans-Serif" font-size="10.00">std::array&lt; T, NumOfTypes()&gt;</text>
<polyline fill="none" stroke="#bfbfbf" points="-0.5,-212.5 148.5,-212.5 "/>
<text text-anchor="middle" x="74" y="-200.5" font-family="Helvetica,sans-Serif" font-size="10.00"> </text>
<polyline fill="none" stroke="#bfbfbf" points="-0.5,-193.5 148.5,-193.5 "/>
<text text-anchor="middle" x="74" y="-181.5" font-family="Helvetica,sans-Serif" font-size="10.00"> </text>
</a>
</g>
</g>
<!-- Node2&#45;&gt;Node1 -->
<g id="edge1" class="edge"><title>Node2&#45;&gt;Node1</title>
<path fill="none" stroke="midnightblue" d="M74,-164.234C74,-155.145 74,-145.17 74,-135.203"/>
<polygon fill="none" stroke="midnightblue" points="70.5001,-164.442 74,-174.442 77.5001,-164.442 70.5001,-164.442"/>
</g>
<!-- Node3 -->
<g id="node3" class="node"><title>Node3</title>
<polygon fill="white" stroke="#bfbfbf" points="59.5,-280.5 59.5,-337.5 88.5,-337.5 88.5,-280.5 59.5,-280.5"/>
<text text-anchor="middle" x="74" y="-325.5" font-family="Helvetica,sans-Serif" font-size="10.00">T</text>
<polyline fill="none" stroke="#bfbfbf" points="59.5,-318.5 88.5,-318.5 "/>
<text text-anchor="middle" x="74" y="-306.5" font-family="Helvetica,sans-Serif" font-size="10.00"> </text>
<polyline fill="none" stroke="#bfbfbf" points="59.5,-299.5 88.5,-299.5 "/>
<text text-anchor="middle" x="74" y="-287.5" font-family="Helvetica,sans-Serif" font-size="10.00"> </text>
</g>
<!-- Node3&#45;&gt;Node2 -->
<g id="edge2" class="edge"><title>Node3&#45;&gt;Node2</title>
<path fill="none" stroke="#404040" d="M74,-280.403C74,-269.237 74,-256.13 74,-243.956"/>
<polygon fill="none" stroke="#404040" points="74.0001,-243.726 70,-237.726 74,-231.726 78,-237.726 74.0001,-243.726"/>
<text text-anchor="middle" x="98.5" y="-253.5" font-family="Helvetica,sans-Serif" font-size="10.00"> +elements</text>
</g>
</g>
</svg>
