<?xml version="1.0" encoding="UTF-8" standalone="no"?>
<!DOCTYPE svg PUBLIC "-//W3C//DTD SVG 1.1//EN"
 "http://www.w3.org/Graphics/SVG/1.1/DTD/svg11.dtd">
<!-- Generated by graphviz version 2.36.0 (20140111.2315)
 -->
<!-- Title: stride::output::InfectedFile Pages: 1 -->
<svg width="138pt" height="602pt"
 viewBox="0.00 0.00 138.00 602.00" xmlns="http://www.w3.org/2000/svg" xmlns:xlink="http://www.w3.org/1999/xlink">
<g id="graph0" class="graph" transform="scale(1 1) rotate(0) translate(4 598)">
<title>stride::output::InfectedFile</title>
<polygon fill="white" stroke="none" points="-4,4 -4,-598 134,-598 134,4 -4,4"/>
<!-- Node1 -->
<g id="node1" class="node"><title>Node1</title>
<polygon fill="#bfbfbf" stroke="black" points="-0.5,-0.5 -0.5,-79.5 130.5,-79.5 130.5,-0.5 -0.5,-0.5"/>
<text text-anchor="middle" x="65" y="-67.5" font-family="Helvetica,sans-Serif" font-size="10.00">stride::output::InfectedFile</text>
<polyline fill="none" stroke="black" points="-0.5,-60.5 130.5,-60.5 "/>
<text text-anchor="middle" x="65" y="-48.5" font-family="Helvetica,sans-Serif" font-size="10.00"> </text>
<polyline fill="none" stroke="black" points="-0.5,-41.5 130.5,-41.5 "/>
<text text-anchor="start" x="7.5" y="-29.5" font-family="Helvetica,sans-Serif" font-size="10.00">+ InfectedFile()</text>
<text text-anchor="start" x="7.5" y="-18.5" font-family="Helvetica,sans-Serif" font-size="10.00">+ ~InfectedFile()</text>
<text text-anchor="start" x="7.5" y="-7.5" font-family="Helvetica,sans-Serif" font-size="10.00">+ Print()</text>
</g>
<!-- Node2 -->
<g id="node2" class="node"><title>Node2</title>
<g id="a_node2"><a xlink:title="STL class. ">
<polygon fill="white" stroke="#bfbfbf" points="28,-128.5 28,-185.5 102,-185.5 102,-128.5 28,-128.5"/>
<text text-anchor="middle" x="65" y="-173.5" font-family="Helvetica,sans-Serif" font-size="10.00">std::ofstream</text>
<polyline fill="none" stroke="#bfbfbf" points="28,-166.5 102,-166.5 "/>
<text text-anchor="middle" x="65" y="-154.5" font-family="Helvetica,sans-Serif" font-size="10.00"> </text>
<polyline fill="none" stroke="#bfbfbf" points="28,-147.5 102,-147.5 "/>
<text text-anchor="middle" x="65" y="-135.5" font-family="Helvetica,sans-Serif" font-size="10.00"> </text>
</a>
</g>
</g>
<!-- Node2&#45;&gt;Node1 -->
<g id="edge1" class="edge"><title>Node2&#45;&gt;Node1</title>
<path fill="none" stroke="#404040" d="M65,-128.455C65,-117.491 65,-104.511 65,-91.9527"/>
<polygon fill="none" stroke="#404040" points="65.0001,-91.6258 61,-85.6258 65,-79.6258 69,-85.6257 65.0001,-91.6258"/>
<text text-anchor="middle" x="91.5" y="-101.5" font-family="Helvetica,sans-Serif" font-size="10.00"> &#45;m_fstream</text>
</g>
<!-- Node3 -->
<g id="node3" class="node"><title>Node3</title>
<g id="a_node3"><a xlink:title="STL class. ">
<polygon fill="white" stroke="#bfbfbf" points="13.5,-225 13.5,-293 116.5,-293 116.5,-225 13.5,-225"/>
<text text-anchor="start" x="21.5" y="-281" font-family="Helvetica,sans-Serif" font-size="10.00">std::basic_ofstream</text>
<text text-anchor="middle" x="65" y="-270" font-family="Helvetica,sans-Serif" font-size="10.00">&lt; char &gt;</text>
<polyline fill="none" stroke="#bfbfbf" points="13.5,-263 116.5,-263 "/>
<text text-anchor="middle" x="65" y="-251" font-family="Helvetica,sans-Serif" font-size="10.00"> </text>
<polyline fill="none" stroke="#bfbfbf" points="13.5,-244 116.5,-244 "/>
<text text-anchor="middle" x="65" y="-232" font-family="Helvetica,sans-Serif" font-size="10.00"> </text>
</a>
</g>
</g>
<!-- Node3&#45;&gt;Node2 -->
<g id="edge2" class="edge"><title>Node3&#45;&gt;Node2</title>
<path fill="none" stroke="midnightblue" d="M65,-214.857C65,-204.952 65,-194.682 65,-185.64"/>
<polygon fill="none" stroke="midnightblue" points="61.5001,-214.979 65,-224.979 68.5001,-214.979 61.5001,-214.979"/>
</g>
<!-- Node4 -->
<g id="node4" class="node"><title>Node4</title>
<g id="a_node4"><a xlink:title="STL class. ">
<polygon fill="white" stroke="#bfbfbf" points="15,-333 15,-401 115,-401 115,-333 15,-333"/>
<text text-anchor="start" x="23" y="-389" font-family="Helvetica,sans-Serif" font-size="10.00">std::basic_ostream</text>
<text text-anchor="middle" x="65" y="-378" font-family="Helvetica,sans-Serif" font-size="10.00">&lt; Char &gt;</text>
<polyline fill="none" stroke="#bfbfbf" points="15,-371 115,-371 "/>
<text text-anchor="middle" x="65" y="-359" font-family="Helvetica,sans-Serif" font-size="10.00"> </text>
<polyline fill="none" stroke="#bfbfbf" points="15,-352 115,-352 "/>
<text text-anchor="middle" x="65" y="-340" font-family="Helvetica,sans-Serif" font-size="10.00"> </text>
</a>
</g>
</g>
<!-- Node4&#45;&gt;Node3 -->
<g id="edge3" class="edge"><title>Node4&#45;&gt;Node3</title>
<path fill="none" stroke="midnightblue" d="M65,-322.696C65,-312.828 65,-302.495 65,-293.13"/>
<polygon fill="none" stroke="midnightblue" points="61.5001,-322.752 65,-332.752 68.5001,-322.752 61.5001,-322.752"/>
</g>
<!-- Node5 -->
<g id="node5" class="node"><title>Node5</title>
<g id="a_node5"><a xlink:title="STL class. ">
<polygon fill="white" stroke="#bfbfbf" points="7,-440.5 7,-497.5 123,-497.5 123,-440.5 7,-440.5"/>
<text text-anchor="middle" x="65" y="-485.5" font-family="Helvetica,sans-Serif" font-size="10.00">std::basic_ios&lt; Char &gt;</text>
<polyline fill="none" stroke="#bfbfbf" points="7,-478.5 123,-478.5 "/>
<text text-anchor="middle" x="65" y="-466.5" font-family="Helvetica,sans-Serif" font-size="10.00"> </text>
<polyline fill="none" stroke="#bfbfbf" points="7,-459.5 123,-459.5 "/>
<text text-anchor="middle" x="65" y="-447.5" font-family="Helvetica,sans-Serif" font-size="10.00"> </text>
</a>
</g>
</g>
<!-- Node5&#45;&gt;Node4 -->
<g id="edge4" class="edge"><title>Node5&#45;&gt;Node4</title>
<path fill="none" stroke="midnightblue" d="M65,-430.337C65,-420.755 65,-410.528 65,-401.187"/>
<polygon fill="none" stroke="midnightblue" points="61.5001,-430.41 65,-440.41 68.5001,-430.41 61.5001,-430.41"/>
</g>
<!-- Node6 -->
<g id="node6" class="node"><title>Node6</title>
<g id="a_node6"><a xlink:title="STL class. ">
<polygon fill="white" stroke="#bfbfbf" points="27.5,-536.5 27.5,-593.5 102.5,-593.5 102.5,-536.5 27.5,-536.5"/>
<text text-anchor="middle" x="65" y="-581.5" font-family="Helvetica,sans-Serif" font-size="10.00">std::ios_base</text>
<polyline fill="none" stroke="#bfbfbf" points="27.5,-574.5 102.5,-574.5 "/>
<text text-anchor="middle" x="65" y="-562.5" font-family="Helvetica,sans-Serif" font-size="10.00"> </text>
<polyline fill="none" stroke="#bfbfbf" points="27.5,-555.5 102.5,-555.5 "/>
<text text-anchor="middle" x="65" y="-543.5" font-family="Helvetica,sans-Serif" font-size="10.00"> </text>
</a>
</g>
</g>
<!-- Node6&#45;&gt;Node5 -->
<g id="edge5" class="edge"><title>Node6&#45;&gt;Node5</title>
<path fill="none" stroke="midnightblue" d="M65,-526.277C65,-516.772 65,-506.741 65,-497.822"/>
<polygon fill="none" stroke="midnightblue" points="61.5001,-526.305 65,-536.305 68.5001,-526.305 61.5001,-526.305"/>
</g>
</g>
</svg>
