<?xml version="1.0" encoding="UTF-8" standalone="no"?>
<!DOCTYPE svg PUBLIC "-//W3C//DTD SVG 1.1//EN"
 "http://www.w3.org/Graphics/SVG/1.1/DTD/svg11.dtd">
<!-- Generated by graphviz version 2.36.0 (20140111.2315)
 -->
<!-- Title: ContactPoolType.cpp Pages: 1 -->
<svg width="411pt" height="140pt"
 viewBox="0.00 0.00 411.00 140.00" xmlns="http://www.w3.org/2000/svg" xmlns:xlink="http://www.w3.org/1999/xlink">
<g id="graph0" class="graph" transform="scale(1 1) rotate(0) translate(4 136)">
<title>ContactPoolType.cpp</title>
<polygon fill="white" stroke="none" points="-4,4 -4,-136 407,-136 407,4 -4,4"/>
<!-- Node1 -->
<g id="node1" class="node"><title>Node1</title>
<polygon fill="#bfbfbf" stroke="black" points="230.5,-112.5 230.5,-131.5 341.5,-131.5 341.5,-112.5 230.5,-112.5"/>
<text text-anchor="middle" x="286" y="-119.5" font-family="Helvetica,sans-Serif" font-size="10.00">ContactPoolType.cpp</text>
</g>
<!-- Node2 -->
<g id="node2" class="node"><title>Node2</title>
<g id="a_node2"><a xlink:href="../../d6/d22/a00245.html" target="_top" xlink:title="Definition of ContactPoolType. ">
<polygon fill="white" stroke="black" points="102.5,-56.5 102.5,-75.5 203.5,-75.5 203.5,-56.5 102.5,-56.5"/>
<text text-anchor="middle" x="153" y="-63.5" font-family="Helvetica,sans-Serif" font-size="10.00">ContactPoolType.h</text>
</a>
</g>
</g>
<!-- Node1&#45;&gt;Node2 -->
<g id="edge1" class="edge"><title>Node1&#45;&gt;Node2</title>
<path fill="none" stroke="midnightblue" d="M264.926,-112.444C242.94,-103.517 208.266,-89.4387 183.336,-79.3168"/>
<polygon fill="midnightblue" stroke="midnightblue" points="184.558,-76.0355 173.976,-75.5164 181.924,-82.5213 184.558,-76.0355"/>
</g>
<!-- Node8 -->
<g id="node8" class="node"><title>Node8</title>
<polygon fill="white" stroke="#bfbfbf" points="221.5,-56.5 221.5,-75.5 350.5,-75.5 350.5,-56.5 221.5,-56.5"/>
<text text-anchor="middle" x="286" y="-63.5" font-family="Helvetica,sans-Serif" font-size="10.00">boost/algorithm/string.hpp</text>
</g>
<!-- Node1&#45;&gt;Node8 -->
<g id="edge7" class="edge"><title>Node1&#45;&gt;Node8</title>
<path fill="none" stroke="midnightblue" d="M286,-112.083C286,-105.006 286,-94.8611 286,-85.9865"/>
<polygon fill="midnightblue" stroke="midnightblue" points="289.5,-85.751 286,-75.7511 282.5,-85.7511 289.5,-85.751"/>
</g>
<!-- Node9 -->
<g id="node9" class="node"><title>Node9</title>
<polygon fill="white" stroke="#bfbfbf" points="368.5,-56.5 368.5,-75.5 403.5,-75.5 403.5,-56.5 368.5,-56.5"/>
<text text-anchor="middle" x="386" y="-63.5" font-family="Helvetica,sans-Serif" font-size="10.00">map</text>
</g>
<!-- Node1&#45;&gt;Node9 -->
<g id="edge8" class="edge"><title>Node1&#45;&gt;Node9</title>
<path fill="none" stroke="midnightblue" d="M302.067,-112.324C317.958,-103.743 342.507,-90.486 360.958,-80.5224"/>
<polygon fill="midnightblue" stroke="midnightblue" points="362.837,-83.4857 369.973,-75.6545 359.511,-77.3264 362.837,-83.4857"/>
</g>
<!-- Node3 -->
<g id="node3" class="node"><title>Node3</title>
<polygon fill="white" stroke="#bfbfbf" points="-0.5,-0.5 -0.5,-19.5 48.5,-19.5 48.5,-0.5 -0.5,-0.5"/>
<text text-anchor="middle" x="24" y="-7.5" font-family="Helvetica,sans-Serif" font-size="10.00">cstddef</text>
</g>
<!-- Node2&#45;&gt;Node3 -->
<g id="edge2" class="edge"><title>Node2&#45;&gt;Node3</title>
<path fill="none" stroke="midnightblue" d="M132.56,-56.4435C111.33,-47.5566 77.901,-33.5632 53.745,-23.4514"/>
<polygon fill="midnightblue" stroke="midnightblue" points="54.9207,-20.1493 44.3448,-19.5164 52.2177,-26.6064 54.9207,-20.1493"/>
</g>
<!-- Node4 -->
<g id="node4" class="node"><title>Node4</title>
<polygon fill="white" stroke="#bfbfbf" points="66.5,-0.5 66.5,-19.5 107.5,-19.5 107.5,-0.5 66.5,-0.5"/>
<text text-anchor="middle" x="87" y="-7.5" font-family="Helvetica,sans-Serif" font-size="10.00">string</text>
</g>
<!-- Node2&#45;&gt;Node4 -->
<g id="edge3" class="edge"><title>Node2&#45;&gt;Node4</title>
<path fill="none" stroke="midnightblue" d="M142.396,-56.324C132.544,-48.2631 117.649,-36.0765 105.785,-26.3695"/>
<polygon fill="midnightblue" stroke="midnightblue" points="107.753,-23.4575 97.797,-19.8339 103.32,-28.8752 107.753,-23.4575"/>
</g>
<!-- Node5 -->
<g id="node5" class="node"><title>Node5</title>
<polygon fill="white" stroke="#bfbfbf" points="126,-0.5 126,-19.5 180,-19.5 180,-0.5 126,-0.5"/>
<text text-anchor="middle" x="153" y="-7.5" font-family="Helvetica,sans-Serif" font-size="10.00">iostream</text>
</g>
<!-- Node2&#45;&gt;Node5 -->
<g id="edge4" class="edge"><title>Node2&#45;&gt;Node5</title>
<path fill="none" stroke="midnightblue" d="M153,-56.083C153,-49.0059 153,-38.8611 153,-29.9865"/>
<polygon fill="midnightblue" stroke="midnightblue" points="156.5,-29.751 153,-19.7511 149.5,-29.7511 156.5,-29.751"/>
</g>
<!-- Node6 -->
<g id="node6" class="node"><title>Node6</title>
<polygon fill="white" stroke="#bfbfbf" points="198.5,-0.5 198.5,-19.5 245.5,-19.5 245.5,-0.5 198.5,-0.5"/>
<text text-anchor="middle" x="222" y="-7.5" font-family="Helvetica,sans-Serif" font-size="10.00">iterator</text>
</g>
<!-- Node2&#45;&gt;Node6 -->
<g id="edge5" class="edge"><title>Node2&#45;&gt;Node6</title>
<path fill="none" stroke="midnightblue" d="M164.086,-56.324C174.486,-48.1849 190.261,-35.8395 202.722,-26.0874"/>
<polygon fill="midnightblue" stroke="midnightblue" points="204.994,-28.7533 210.712,-19.8339 200.68,-23.2407 204.994,-28.7533"/>
</g>
<!-- Node7 -->
<g id="node7" class="node"><title>Node7</title>
<polygon fill="white" stroke="#bfbfbf" points="264,-0.5 264,-19.5 308,-19.5 308,-0.5 264,-0.5"/>
<text text-anchor="middle" x="286" y="-7.5" font-family="Helvetica,sans-Serif" font-size="10.00">vector</text>
</g>
<!-- Node2&#45;&gt;Node7 -->
<g id="edge6" class="edge"><title>Node2&#45;&gt;Node7</title>
<path fill="none" stroke="midnightblue" d="M174.074,-56.4435C196.06,-47.5171 230.734,-33.4387 255.664,-23.3168"/>
<polygon fill="midnightblue" stroke="midnightblue" points="257.076,-26.5213 265.024,-19.5164 254.442,-20.0355 257.076,-26.5213"/>
</g>
</g>
</svg>
