<?xml version="1.0" encoding="UTF-8" standalone="no"?>
<!DOCTYPE svg PUBLIC "-//W3C//DTD SVG 1.1//EN"
 "http://www.w3.org/Graphics/SVG/1.1/DTD/svg11.dtd">
<!-- Generated by graphviz version 2.36.0 (20140111.2315)
 -->
<!-- Title: gengeopop::GeoGridProtoReader::ParseLocation Pages: 1 -->
<svg width="748pt" height="714pt"
 viewBox="0.00 0.00 748.00 714.00" xmlns="http://www.w3.org/2000/svg" xmlns:xlink="http://www.w3.org/1999/xlink">
<g id="graph0" class="graph" transform="scale(1 1) rotate(0) translate(4 710)">
<title>gengeopop::GeoGridProtoReader::ParseLocation</title>
<polygon fill="white" stroke="none" points="-4,4 -4,-710 744,-710 744,4 -4,4"/>
<!-- Node1 -->
<g id="node1" class="node"><title>Node1</title>
<polygon fill="#bfbfbf" stroke="black" points="0.5,-343 0.5,-373 161.5,-373 161.5,-343 0.5,-343"/>
<text text-anchor="start" x="8.5" y="-361" font-family="Helvetica,sans-Serif" font-size="10.00">gengeopop::GeoGridProtoReader</text>
<text text-anchor="middle" x="81" y="-350" font-family="Helvetica,sans-Serif" font-size="10.00">::ParseLocation</text>
</g>
<!-- Node2 -->
<g id="node2" class="node"><title>Node2</title>
<g id="a_node2"><a xlink:href="../../d4/d63/a00082.html#af51162270a0c084022903489941101ab" target="_top" xlink:title="proto::GeoGrid_Location\l::commutes">
<polygon fill="white" stroke="black" points="218,-676 218,-706 340,-706 340,-676 218,-676"/>
<text text-anchor="start" x="226" y="-694" font-family="Helvetica,sans-Serif" font-size="10.00">proto::GeoGrid_Location</text>
<text text-anchor="middle" x="279" y="-683" font-family="Helvetica,sans-Serif" font-size="10.00">::commutes</text>
</a>
</g>
</g>
<!-- Node1&#45;&gt;Node2 -->
<g id="edge1" class="edge"><title>Node1&#45;&gt;Node2</title>
<path fill="none" stroke="midnightblue" d="M83.1314,-373.024C87.669,-422.483 108.888,-581.853 198,-666 201.303,-669.119 204.99,-671.849 208.918,-674.238"/>
<polygon fill="midnightblue" stroke="midnightblue" points="207.37,-677.379 217.848,-678.944 210.633,-671.186 207.37,-677.379"/>
</g>
<!-- Node3 -->
<g id="node3" class="node"><title>Node3</title>
<g id="a_node3"><a xlink:href="../../d4/d63/a00082.html#a61d7217103491dd110c59c46cc32aa25" target="_top" xlink:title="proto::GeoGrid_Location\l::commutes_size">
<polygon fill="white" stroke="black" points="218,-627 218,-657 340,-657 340,-627 218,-627"/>
<text text-anchor="start" x="226" y="-645" font-family="Helvetica,sans-Serif" font-size="10.00">proto::GeoGrid_Location</text>
<text text-anchor="middle" x="279" y="-634" font-family="Helvetica,sans-Serif" font-size="10.00">::commutes_size</text>
</a>
</g>
</g>
<!-- Node1&#45;&gt;Node3 -->
<g id="edge2" class="edge"><title>Node1&#45;&gt;Node3</title>
<path fill="none" stroke="midnightblue" d="M84.3423,-373.109C92.0074,-417.402 120.461,-548.125 198,-617 201.243,-619.881 204.816,-622.43 208.598,-624.685"/>
<polygon fill="midnightblue" stroke="midnightblue" points="207.256,-627.932 217.744,-629.433 210.481,-621.719 207.256,-627.932"/>
</g>
<!-- Node4 -->
<g id="node4" class="node"><title>Node4</title>
<g id="a_node4"><a xlink:href="../../d4/d63/a00082.html#aadf531763d2e4f044e98f688958d8353" target="_top" xlink:title="proto::GeoGrid_Location\l::contactcenters">
<polygon fill="white" stroke="black" points="218,-578 218,-608 340,-608 340,-578 218,-578"/>
<text text-anchor="start" x="226" y="-596" font-family="Helvetica,sans-Serif" font-size="10.00">proto::GeoGrid_Location</text>
<text text-anchor="middle" x="279" y="-585" font-family="Helvetica,sans-Serif" font-size="10.00">::contactcenters</text>
</a>
</g>
</g>
<!-- Node1&#45;&gt;Node4 -->
<g id="edge3" class="edge"><title>Node1&#45;&gt;Node4</title>
<path fill="none" stroke="midnightblue" d="M86.1011,-373.255C97.2584,-411.827 131.85,-514.013 198,-568 201.297,-570.691 204.886,-573.094 208.655,-575.239"/>
<polygon fill="midnightblue" stroke="midnightblue" points="207.221,-578.435 217.729,-579.79 210.36,-572.178 207.221,-578.435"/>
</g>
<!-- Node5 -->
<g id="node5" class="node"><title>Node5</title>
<g id="a_node5"><a xlink:href="../../d4/d63/a00082.html#a9af8ca81e0d174f95d789faa3c185d2a" target="_top" xlink:title="proto::GeoGrid_Location\l::contactcenters_size">
<polygon fill="white" stroke="black" points="218,-529 218,-559 340,-559 340,-529 218,-529"/>
<text text-anchor="start" x="226" y="-547" font-family="Helvetica,sans-Serif" font-size="10.00">proto::GeoGrid_Location</text>
<text text-anchor="middle" x="279" y="-536" font-family="Helvetica,sans-Serif" font-size="10.00">::contactcenters_size</text>
</a>
</g>
</g>
<!-- Node1&#45;&gt;Node5 -->
<g id="edge4" class="edge"><title>Node1&#45;&gt;Node5</title>
<path fill="none" stroke="midnightblue" d="M88.8719,-373.389C103.932,-405.364 142.948,-479.309 198,-519 201.386,-521.441 205.018,-523.649 208.798,-525.646"/>
<polygon fill="midnightblue" stroke="midnightblue" points="207.305,-528.811 217.841,-529.931 210.302,-522.486 207.305,-528.811"/>
</g>
<!-- Node6 -->
<g id="node6" class="node"><title>Node6</title>
<g id="a_node6"><a xlink:href="../../d4/d63/a00082.html#a20327f38bc0288016b3eeb04997e66fd" target="_top" xlink:title="proto::GeoGrid_Location\l::coordinate">
<polygon fill="white" stroke="black" points="218,-480 218,-510 340,-510 340,-480 218,-480"/>
<text text-anchor="start" x="226" y="-498" font-family="Helvetica,sans-Serif" font-size="10.00">proto::GeoGrid_Location</text>
<text text-anchor="middle" x="279" y="-487" font-family="Helvetica,sans-Serif" font-size="10.00">::coordinate</text>
</a>
</g>
</g>
<!-- Node1&#45;&gt;Node6 -->
<g id="edge5" class="edge"><title>Node1&#45;&gt;Node6</title>
<path fill="none" stroke="midnightblue" d="M93.853,-373.359C113.154,-397.359 153.698,-443.722 198,-470 201.59,-472.13 205.381,-474.096 209.281,-475.909"/>
<polygon fill="midnightblue" stroke="midnightblue" points="207.968,-479.154 218.539,-479.865 210.719,-472.717 207.968,-479.154"/>
</g>
<!-- Node7 -->
<g id="node7" class="node"><title>Node7</title>
<g id="a_node7"><a xlink:href="../../d4/d63/a00082.html#a9f787c871e478cd4706979b0d78edce4" target="_top" xlink:title="proto::GeoGrid_Location::id">
<polygon fill="white" stroke="black" points="211,-441.5 211,-460.5 347,-460.5 347,-441.5 211,-441.5"/>
<text text-anchor="middle" x="279" y="-448.5" font-family="Helvetica,sans-Serif" font-size="10.00">proto::GeoGrid_Location::id</text>
</a>
</g>
</g>
<!-- Node1&#45;&gt;Node7 -->
<g id="edge6" class="edge"><title>Node1&#45;&gt;Node7</title>
<path fill="none" stroke="midnightblue" d="M101.863,-373.273C124.139,-389.719 161.889,-415.59 198,-431 204.79,-433.897 212.089,-436.439 219.419,-438.65"/>
<polygon fill="midnightblue" stroke="midnightblue" points="218.812,-442.116 229.386,-441.464 220.713,-435.379 218.812,-442.116"/>
</g>
<!-- Node8 -->
<g id="node8" class="node"><title>Node8</title>
<g id="a_node8"><a xlink:href="../../d4/d63/a00082.html#ae5d5287002d2a97e9c59fc974e850df8" target="_top" xlink:title="proto::GeoGrid_Location\l::name">
<polygon fill="white" stroke="black" points="218,-392 218,-422 340,-422 340,-392 218,-392"/>
<text text-anchor="start" x="226" y="-410" font-family="Helvetica,sans-Serif" font-size="10.00">proto::GeoGrid_Location</text>
<text text-anchor="middle" x="279" y="-399" font-family="Helvetica,sans-Serif" font-size="10.00">::name</text>
</a>
</g>
</g>
<!-- Node1&#45;&gt;Node8 -->
<g id="edge7" class="edge"><title>Node1&#45;&gt;Node8</title>
<path fill="none" stroke="midnightblue" d="M142.138,-373.035C163.021,-378.255 186.615,-384.154 208.21,-389.553"/>
<polygon fill="midnightblue" stroke="midnightblue" points="207.425,-392.964 217.975,-391.994 209.123,-386.173 207.425,-392.964"/>
</g>
<!-- Node9 -->
<g id="node9" class="node"><title>Node9</title>
<g id="a_node9"><a xlink:href="../../d3/de7/a00039.html#a351fab1f7eb8f7035fa432b2a3d7c104" target="_top" xlink:title="Create a ContactCenter based on the provided protobuf ContactCenter. ">
<polygon fill="white" stroke="black" points="198.5,-343 198.5,-373 359.5,-373 359.5,-343 198.5,-343"/>
<text text-anchor="start" x="206.5" y="-361" font-family="Helvetica,sans-Serif" font-size="10.00">gengeopop::GeoGridProtoReader</text>
<text text-anchor="middle" x="279" y="-350" font-family="Helvetica,sans-Serif" font-size="10.00">::ParseContactCenter</text>
</a>
</g>
</g>
<!-- Node1&#45;&gt;Node9 -->
<g id="edge8" class="edge"><title>Node1&#45;&gt;Node9</title>
<path fill="none" stroke="midnightblue" d="M161.721,-358C170.405,-358 179.287,-358 188.082,-358"/>
<polygon fill="midnightblue" stroke="midnightblue" points="188.35,-361.5 198.35,-358 188.35,-354.5 188.35,-361.5"/>
</g>
<!-- Node19 -->
<g id="node19" class="node"><title>Node19</title>
<g id="a_node19"><a xlink:href="../../d3/de7/a00039.html#ab4b797ef7bd19d8122192fcbdcba8f50" target="_top" xlink:title="Create a Coordinate based on the provided protobuf Coordinate. ">
<polygon fill="white" stroke="black" points="198.5,-294 198.5,-324 359.5,-324 359.5,-294 198.5,-294"/>
<text text-anchor="start" x="206.5" y="-312" font-family="Helvetica,sans-Serif" font-size="10.00">gengeopop::GeoGridProtoReader</text>
<text text-anchor="middle" x="279" y="-301" font-family="Helvetica,sans-Serif" font-size="10.00">::ParseCoordinate</text>
</a>
</g>
</g>
<!-- Node1&#45;&gt;Node19 -->
<g id="edge18" class="edge"><title>Node1&#45;&gt;Node19</title>
<path fill="none" stroke="midnightblue" d="M142.138,-342.965C163.021,-337.745 186.615,-331.846 208.21,-326.447"/>
<polygon fill="midnightblue" stroke="midnightblue" points="209.123,-329.827 217.975,-324.006 207.425,-323.036 209.123,-329.827"/>
</g>
<!-- Node22 -->
<g id="node22" class="node"><title>Node22</title>
<g id="a_node22"><a xlink:href="../../d4/d63/a00082.html#a8f722f8a9c6609c033a0654fd3bef9d8" target="_top" xlink:title="proto::GeoGrid_Location\l::population">
<polygon fill="white" stroke="black" points="218,-245 218,-275 340,-275 340,-245 218,-245"/>
<text text-anchor="start" x="226" y="-263" font-family="Helvetica,sans-Serif" font-size="10.00">proto::GeoGrid_Location</text>
<text text-anchor="middle" x="279" y="-252" font-family="Helvetica,sans-Serif" font-size="10.00">::population</text>
</a>
</g>
</g>
<!-- Node1&#45;&gt;Node22 -->
<g id="edge21" class="edge"><title>Node1&#45;&gt;Node22</title>
<path fill="none" stroke="midnightblue" d="M102.448,-342.827C124.926,-326.71 162.566,-301.349 198,-285 202.955,-282.714 208.175,-280.561 213.475,-278.552"/>
<polygon fill="midnightblue" stroke="midnightblue" points="214.846,-281.778 223.065,-275.092 212.47,-275.193 214.846,-281.778"/>
</g>
<!-- Node23 -->
<g id="node23" class="node"><title>Node23</title>
<g id="a_node23"><a xlink:href="../../d2/d1f/a00083.html#a84004e570416a8aaae361bb53f57d8f6" target="_top" xlink:title="proto::GeoGrid_Location\l_Commute::proportion">
<polygon fill="white" stroke="black" points="218,-196 218,-226 340,-226 340,-196 218,-196"/>
<text text-anchor="start" x="226" y="-214" font-family="Helvetica,sans-Serif" font-size="10.00">proto::GeoGrid_Location</text>
<text text-anchor="middle" x="279" y="-203" font-family="Helvetica,sans-Serif" font-size="10.00">_Commute::proportion</text>
</a>
</g>
</g>
<!-- Node1&#45;&gt;Node23 -->
<g id="edge22" class="edge"><title>Node1&#45;&gt;Node23</title>
<path fill="none" stroke="midnightblue" d="M92.3317,-342.895C110.659,-317.22 151.352,-265.035 198,-236 201.378,-233.897 204.947,-231.959 208.628,-230.173"/>
<polygon fill="midnightblue" stroke="midnightblue" points="210.234,-233.29 217.962,-226.043 207.401,-226.889 210.234,-233.29"/>
</g>
<!-- Node24 -->
<g id="node24" class="node"><title>Node24</title>
<g id="a_node24"><a xlink:href="../../d4/d63/a00082.html#aefd4205f29912c851f50c5cc9858b96c" target="_top" xlink:title="proto::GeoGrid_Location\l::province">
<polygon fill="white" stroke="black" points="218,-147 218,-177 340,-177 340,-147 218,-147"/>
<text text-anchor="start" x="226" y="-165" font-family="Helvetica,sans-Serif" font-size="10.00">proto::GeoGrid_Location</text>
<text text-anchor="middle" x="279" y="-154" font-family="Helvetica,sans-Serif" font-size="10.00">::province</text>
</a>
</g>
</g>
<!-- Node1&#45;&gt;Node24 -->
<g id="edge23" class="edge"><title>Node1&#45;&gt;Node24</title>
<path fill="none" stroke="midnightblue" d="M88.061,-342.924C102.192,-309.685 140.545,-229.672 198,-187 201.258,-184.58 204.756,-182.391 208.402,-180.411"/>
<polygon fill="midnightblue" stroke="midnightblue" points="210.241,-183.409 217.721,-175.907 207.195,-177.107 210.241,-183.409"/>
</g>
<!-- Node25 -->
<g id="node25" class="node"><title>Node25</title>
<g id="a_node25"><a xlink:href="../../d4/d63/a00082.html#a288f9df809ad80a45aac18077a76116b" target="_top" xlink:title="proto::GeoGrid_Location\l::submunicipalities">
<polygon fill="white" stroke="black" points="218,-98 218,-128 340,-128 340,-98 218,-98"/>
<text text-anchor="start" x="226" y="-116" font-family="Helvetica,sans-Serif" font-size="10.00">proto::GeoGrid_Location</text>
<text text-anchor="middle" x="279" y="-105" font-family="Helvetica,sans-Serif" font-size="10.00">::submunicipalities</text>
</a>
</g>
</g>
<!-- Node1&#45;&gt;Node25 -->
<g id="edge24" class="edge"><title>Node1&#45;&gt;Node25</title>
<path fill="none" stroke="midnightblue" d="M85.5896,-342.792C95.822,-302.81 128.957,-193.92 198,-137 201.273,-134.302 204.842,-131.907 208.597,-129.782"/>
<polygon fill="midnightblue" stroke="midnightblue" points="210.241,-132.873 217.645,-125.294 207.131,-126.602 210.241,-132.873"/>
</g>
<!-- Node26 -->
<g id="node26" class="node"><title>Node26</title>
<g id="a_node26"><a xlink:href="../../d4/d63/a00082.html#aa6b681cff1e7752484cf41af78dcaf5b" target="_top" xlink:title="proto::GeoGrid_Location\l::submunicipalities_size">
<polygon fill="white" stroke="black" points="218,-49 218,-79 340,-79 340,-49 218,-49"/>
<text text-anchor="start" x="226" y="-67" font-family="Helvetica,sans-Serif" font-size="10.00">proto::GeoGrid_Location</text>
<text text-anchor="middle" x="279" y="-56" font-family="Helvetica,sans-Serif" font-size="10.00">::submunicipalities_size</text>
</a>
</g>
</g>
<!-- Node1&#45;&gt;Node26 -->
<g id="edge25" class="edge"><title>Node1&#45;&gt;Node26</title>
<path fill="none" stroke="midnightblue" d="M83.9964,-342.871C90.825,-297.258 117.466,-159.815 198,-88 201.226,-85.1229 204.786,-82.5903 208.558,-80.3612"/>
<polygon fill="midnightblue" stroke="midnightblue" points="210.379,-83.3615 217.687,-75.6911 207.19,-77.1296 210.379,-83.3615"/>
</g>
<!-- Node27 -->
<g id="node27" class="node"><title>Node27</title>
<g id="a_node27"><a xlink:href="../../d2/d1f/a00083.html#a7c9df75a7447c72721d84f192a2c19b7" target="_top" xlink:title="proto::GeoGrid_Location\l_Commute::to">
<polygon fill="white" stroke="black" points="218,-0 218,-30 340,-30 340,-0 218,-0"/>
<text text-anchor="start" x="226" y="-18" font-family="Helvetica,sans-Serif" font-size="10.00">proto::GeoGrid_Location</text>
<text text-anchor="middle" x="279" y="-7" font-family="Helvetica,sans-Serif" font-size="10.00">_Commute::to</text>
</a>
</g>
</g>
<!-- Node1&#45;&gt;Node27 -->
<g id="edge26" class="edge"><title>Node1&#45;&gt;Node27</title>
<path fill="none" stroke="midnightblue" d="M82.8845,-342.767C86.6736,-291.865 105.88,-125.986 198,-39 201.291,-35.8921 204.97,-33.1852 208.892,-30.8279"/>
<polygon fill="midnightblue" stroke="midnightblue" points="210.543,-33.9143 217.811,-26.2055 207.322,-27.6993 210.543,-33.9143"/>
</g>
<!-- Node10 -->
<g id="node10" class="node"><title>Node10</title>
<g id="a_node10"><a xlink:href="../../df/d5d/a00084.html#a527127a37e7e5f5735eb829bf959da9d" target="_top" xlink:title="proto::GeoGrid_Location\l_ContactCenter::type">
<polygon fill="white" stroke="black" points="416,-490 416,-520 538,-520 538,-490 416,-490"/>
<text text-anchor="start" x="424" y="-508" font-family="Helvetica,sans-Serif" font-size="10.00">proto::GeoGrid_Location</text>
<text text-anchor="middle" x="477" y="-497" font-family="Helvetica,sans-Serif" font-size="10.00">_ContactCenter::type</text>
</a>
</g>
</g>
<!-- Node9&#45;&gt;Node10 -->
<g id="edge9" class="edge"><title>Node9&#45;&gt;Node10</title>
<path fill="none" stroke="midnightblue" d="M346.122,-373.016C351.164,-375.798 355.883,-379.094 360,-383 393.358,-414.651 362.642,-448.349 396,-480 399.295,-483.127 402.977,-485.863 406.901,-488.257"/>
<polygon fill="midnightblue" stroke="midnightblue" points="405.347,-491.394 415.824,-492.97 408.617,-485.205 405.347,-491.394"/>
</g>
<!-- Node11 -->
<g id="node11" class="node"><title>Node11</title>
<g id="a_node11"><a xlink:href="../../df/d5d/a00084.html#a836da18e7ce8173b075a1fa72d33ea84" target="_top" xlink:title="proto::GeoGrid_Location\l_ContactCenter::id">
<polygon fill="white" stroke="black" points="416,-441 416,-471 538,-471 538,-441 416,-441"/>
<text text-anchor="start" x="424" y="-459" font-family="Helvetica,sans-Serif" font-size="10.00">proto::GeoGrid_Location</text>
<text text-anchor="middle" x="477" y="-448" font-family="Helvetica,sans-Serif" font-size="10.00">_ContactCenter::id</text>
</a>
</g>
</g>
<!-- Node9&#45;&gt;Node11 -->
<g id="edge10" class="edge"><title>Node9&#45;&gt;Node11</title>
<path fill="none" stroke="midnightblue" d="M342.143,-373.071C348.448,-375.856 354.533,-379.138 360,-383 381.779,-398.388 374.221,-415.612 396,-431 399.409,-433.409 403.059,-435.592 406.853,-437.569"/>
<polygon fill="midnightblue" stroke="midnightblue" points="405.38,-440.744 415.92,-441.819 408.351,-434.406 405.38,-440.744"/>
</g>
<!-- Node12 -->
<g id="node12" class="node"><title>Node12</title>
<g id="a_node12"><a xlink:href="../../df/d5d/a00084.html#a2fba27d68b28b8f526346d0fe1d3cdd6" target="_top" xlink:title="proto::GeoGrid_Location\l_ContactCenter::pools_size">
<polygon fill="white" stroke="black" points="408,-392 408,-422 546,-422 546,-392 408,-392"/>
<text text-anchor="start" x="416" y="-410" font-family="Helvetica,sans-Serif" font-size="10.00">proto::GeoGrid_Location</text>
<text text-anchor="middle" x="477" y="-399" font-family="Helvetica,sans-Serif" font-size="10.00">_ContactCenter::pools_size</text>
</a>
</g>
</g>
<!-- Node9&#45;&gt;Node12 -->
<g id="edge11" class="edge"><title>Node9&#45;&gt;Node12</title>
<path fill="none" stroke="midnightblue" d="M340.138,-373.035C361.021,-378.255 384.615,-384.154 406.21,-389.553"/>
<polygon fill="midnightblue" stroke="midnightblue" points="405.425,-392.964 415.975,-391.994 407.123,-386.173 405.425,-392.964"/>
</g>
<!-- Node13 -->
<g id="node13" class="node"><title>Node13</title>
<g id="a_node13"><a xlink:href="../../df/d5d/a00084.html#ad72f8f06adf64bedd21c233827dc8d65" target="_top" xlink:title="proto::GeoGrid_Location\l_ContactCenter::pools">
<polygon fill="white" stroke="black" points="416,-343 416,-373 538,-373 538,-343 416,-343"/>
<text text-anchor="start" x="424" y="-361" font-family="Helvetica,sans-Serif" font-size="10.00">proto::GeoGrid_Location</text>
<text text-anchor="middle" x="477" y="-350" font-family="Helvetica,sans-Serif" font-size="10.00">_ContactCenter::pools</text>
</a>
</g>
</g>
<!-- Node9&#45;&gt;Node13 -->
<g id="edge12" class="edge"><title>Node9&#45;&gt;Node13</title>
<path fill="none" stroke="midnightblue" d="M359.721,-358C374.962,-358 390.816,-358 405.735,-358"/>
<polygon fill="midnightblue" stroke="midnightblue" points="405.895,-361.5 415.895,-358 405.895,-354.5 405.895,-361.5"/>
</g>
<!-- Node14 -->
<g id="node14" class="node"><title>Node14</title>
<g id="a_node14"><a xlink:href="../../d3/de7/a00039.html#a19e0ff14a2aef228d926d53132fa767b" target="_top" xlink:title="Create a ContactPool based on the provided protobuf ContactPool. ">
<polygon fill="white" stroke="black" points="396.5,-294 396.5,-324 557.5,-324 557.5,-294 396.5,-294"/>
<text text-anchor="start" x="404.5" y="-312" font-family="Helvetica,sans-Serif" font-size="10.00">gengeopop::GeoGridProtoReader</text>
<text text-anchor="middle" x="477" y="-301" font-family="Helvetica,sans-Serif" font-size="10.00">::ParseContactPool</text>
</a>
</g>
</g>
<!-- Node9&#45;&gt;Node14 -->
<g id="edge13" class="edge"><title>Node9&#45;&gt;Node14</title>
<path fill="none" stroke="midnightblue" d="M340.138,-342.965C361.021,-337.745 384.615,-331.846 406.21,-326.447"/>
<polygon fill="midnightblue" stroke="midnightblue" points="407.123,-329.827 415.975,-324.006 405.425,-323.036 407.123,-329.827"/>
</g>
<!-- Node15 -->
<g id="node15" class="node"><title>Node15</title>
<g id="a_node15"><a xlink:href="../../df/d13/a00085.html#af18dfe27121c6513a6edf82892651fab" target="_top" xlink:title="proto::GeoGrid_Location\l_ContactCenter_ContactPool\l::people_size">
<polygon fill="white" stroke="black" points="594.5,-375.5 594.5,-416.5 739.5,-416.5 739.5,-375.5 594.5,-375.5"/>
<text text-anchor="start" x="602.5" y="-404.5" font-family="Helvetica,sans-Serif" font-size="10.00">proto::GeoGrid_Location</text>
<text text-anchor="start" x="602.5" y="-393.5" font-family="Helvetica,sans-Serif" font-size="10.00">_ContactCenter_ContactPool</text>
<text text-anchor="middle" x="667" y="-382.5" font-family="Helvetica,sans-Serif" font-size="10.00">::people_size</text>
</a>
</g>
</g>
<!-- Node14&#45;&gt;Node15 -->
<g id="edge14" class="edge"><title>Node14&#45;&gt;Node15</title>
<path fill="none" stroke="midnightblue" d="M535.992,-324.007C543.599,-326.868 551.13,-330.185 558,-334 576.46,-344.25 576.096,-353.807 594,-365 597.188,-366.993 600.526,-368.917 603.945,-370.763"/>
<polygon fill="midnightblue" stroke="midnightblue" points="602.64,-374.027 613.137,-375.464 605.827,-367.795 602.64,-374.027"/>
</g>
<!-- Node16 -->
<g id="node16" class="node"><title>Node16</title>
<g id="a_node16"><a xlink:href="../../df/d13/a00085.html#a0de33357e50cb2549d9aad7b987dcc5a" target="_top" xlink:title="proto::GeoGrid_Location\l_ContactCenter_ContactPool\l::people">
<polygon fill="white" stroke="black" points="594.5,-315.5 594.5,-356.5 739.5,-356.5 739.5,-315.5 594.5,-315.5"/>
<text text-anchor="start" x="602.5" y="-344.5" font-family="Helvetica,sans-Serif" font-size="10.00">proto::GeoGrid_Location</text>
<text text-anchor="start" x="602.5" y="-333.5" font-family="Helvetica,sans-Serif" font-size="10.00">_ContactCenter_ContactPool</text>
<text text-anchor="middle" x="667" y="-322.5" font-family="Helvetica,sans-Serif" font-size="10.00">::people</text>
</a>
</g>
</g>
<!-- Node14&#45;&gt;Node16 -->
<g id="edge15" class="edge"><title>Node14&#45;&gt;Node16</title>
<path fill="none" stroke="midnightblue" d="M557.729,-320.45C566.6,-321.724 575.644,-323.023 584.536,-324.3"/>
<polygon fill="midnightblue" stroke="midnightblue" points="584.098,-327.773 594.494,-325.73 585.093,-320.844 584.098,-327.773"/>
</g>
<!-- Node17 -->
<g id="node17" class="node"><title>Node17</title>
<g id="a_node17"><a xlink:href="../../d4/d3a/a00101.html#a1d78d0a3fd422a09f39e87d83c391d47" target="_top" xlink:title="Add the given Person. ">
<polygon fill="white" stroke="black" points="616.5,-267 616.5,-297 717.5,-297 717.5,-267 616.5,-267"/>
<text text-anchor="start" x="624.5" y="-285" font-family="Helvetica,sans-Serif" font-size="10.00">stride::ContactPool</text>
<text text-anchor="middle" x="667" y="-274" font-family="Helvetica,sans-Serif" font-size="10.00">::AddMember</text>
</a>
</g>
</g>
<!-- Node14&#45;&gt;Node17 -->
<g id="edge16" class="edge"><title>Node14&#45;&gt;Node17</title>
<path fill="none" stroke="midnightblue" d="M557.729,-297.55C574.066,-295.203 590.991,-292.773 606.47,-290.55"/>
<polygon fill="midnightblue" stroke="midnightblue" points="607.01,-294.008 616.411,-289.122 606.015,-287.079 607.01,-294.008"/>
</g>
<!-- Node18 -->
<g id="node18" class="node"><title>Node18</title>
<g id="a_node18"><a xlink:href="../../d4/d3a/a00101.html#a3b2da2fe2ebe5e75bcf8a13893f8d10a" target="_top" xlink:title="Get the pool id. ">
<polygon fill="white" stroke="black" points="616.5,-218 616.5,-248 717.5,-248 717.5,-218 616.5,-218"/>
<text text-anchor="start" x="624.5" y="-236" font-family="Helvetica,sans-Serif" font-size="10.00">stride::ContactPool</text>
<text text-anchor="middle" x="667" y="-225" font-family="Helvetica,sans-Serif" font-size="10.00">::GetId</text>
</a>
</g>
</g>
<!-- Node14&#45;&gt;Node18 -->
<g id="edge17" class="edge"><title>Node14&#45;&gt;Node18</title>
<path fill="none" stroke="midnightblue" d="M534.423,-293.898C542.503,-291.012 550.583,-287.713 558,-284 575.648,-275.164 576.492,-267.111 594,-258 598.182,-255.824 602.594,-253.769 607.091,-251.844"/>
<polygon fill="midnightblue" stroke="midnightblue" points="608.44,-255.075 616.396,-248.079 605.813,-248.586 608.44,-255.075"/>
</g>
<!-- Node20 -->
<g id="node20" class="node"><title>Node20</title>
<g id="a_node20"><a xlink:href="../../da/d2a/a00086.html#a03d2590a2f44bf79ad4872b5bcfb3b6d" target="_top" xlink:title="proto::GeoGrid_Location\l_Coordinate::longitude">
<polygon fill="white" stroke="black" points="416,-245 416,-275 538,-275 538,-245 416,-245"/>
<text text-anchor="start" x="424" y="-263" font-family="Helvetica,sans-Serif" font-size="10.00">proto::GeoGrid_Location</text>
<text text-anchor="middle" x="477" y="-252" font-family="Helvetica,sans-Serif" font-size="10.00">_Coordinate::longitude</text>
</a>
</g>
</g>
<!-- Node19&#45;&gt;Node20 -->
<g id="edge19" class="edge"><title>Node19&#45;&gt;Node20</title>
<path fill="none" stroke="midnightblue" d="M340.138,-293.965C361.021,-288.745 384.615,-282.846 406.21,-277.447"/>
<polygon fill="midnightblue" stroke="midnightblue" points="407.123,-280.827 415.975,-275.006 405.425,-274.036 407.123,-280.827"/>
</g>
<!-- Node21 -->
<g id="node21" class="node"><title>Node21</title>
<g id="a_node21"><a xlink:href="../../da/d2a/a00086.html#a6bc5976b2e0d0f05f1a134544844b6bc" target="_top" xlink:title="proto::GeoGrid_Location\l_Coordinate::latitude">
<polygon fill="white" stroke="black" points="416,-196 416,-226 538,-226 538,-196 416,-196"/>
<text text-anchor="start" x="424" y="-214" font-family="Helvetica,sans-Serif" font-size="10.00">proto::GeoGrid_Location</text>
<text text-anchor="middle" x="477" y="-203" font-family="Helvetica,sans-Serif" font-size="10.00">_Coordinate::latitude</text>
</a>
</g>
</g>
<!-- Node19&#45;&gt;Node21 -->
<g id="edge20" class="edge"><title>Node19&#45;&gt;Node21</title>
<path fill="none" stroke="midnightblue" d="M342.143,-293.929C348.448,-291.144 354.533,-287.862 360,-284 381.779,-268.612 374.221,-251.388 396,-236 399.409,-233.591 403.059,-231.408 406.853,-229.431"/>
<polygon fill="midnightblue" stroke="midnightblue" points="408.351,-232.594 415.92,-225.181 405.38,-226.256 408.351,-232.594"/>
</g>
</g>
</svg>
