<?xml version="1.0" encoding="UTF-8" standalone="no"?>
<!DOCTYPE svg PUBLIC "-//W3C//DTD SVG 1.1//EN"
 "http://www.w3.org/Graphics/SVG/1.1/DTD/svg11.dtd">
<!-- Generated by graphviz version 2.36.0 (20140111.2315)
 -->
<!-- Title: gengeopop::GeoGridProtoReader::ParseContactPool Pages: 1 -->
<svg width="352pt" height="206pt"
 viewBox="0.00 0.00 352.00 206.00" xmlns="http://www.w3.org/2000/svg" xmlns:xlink="http://www.w3.org/1999/xlink">
<g id="graph0" class="graph" transform="scale(1 1) rotate(0) translate(4 202)">
<title>gengeopop::GeoGridProtoReader::ParseContactPool</title>
<polygon fill="white" stroke="none" points="-4,4 -4,-202 348,-202 348,4 -4,4"/>
<!-- Node1 -->
<g id="node1" class="node"><title>Node1</title>
<polygon fill="#bfbfbf" stroke="black" points="0.5,-92 0.5,-122 161.5,-122 161.5,-92 0.5,-92"/>
<text text-anchor="start" x="8.5" y="-110" font-family="Helvetica,sans-Serif" font-size="10.00">gengeopop::GeoGridProtoReader</text>
<text text-anchor="middle" x="81" y="-99" font-family="Helvetica,sans-Serif" font-size="10.00">::ParseContactPool</text>
</g>
<!-- Node2 -->
<g id="node2" class="node"><title>Node2</title>
<g id="a_node2"><a xlink:href="../../d4/d3a/a00101.html#a1d78d0a3fd422a09f39e87d83c391d47" target="_top" xlink:title="Add the given Person. ">
<polygon fill="white" stroke="black" points="220.5,-168 220.5,-198 321.5,-198 321.5,-168 220.5,-168"/>
<text text-anchor="start" x="228.5" y="-186" font-family="Helvetica,sans-Serif" font-size="10.00">stride::ContactPool</text>
<text text-anchor="middle" x="271" y="-175" font-family="Helvetica,sans-Serif" font-size="10.00">::AddMember</text>
</a>
</g>
</g>
<!-- Node1&#45;&gt;Node2 -->
<g id="edge1" class="edge"><title>Node1&#45;&gt;Node2</title>
<path fill="none" stroke="midnightblue" d="M114.706,-122.217C137.785,-132.747 169.537,-146.822 198,-158 203.523,-160.169 209.321,-162.345 215.127,-164.46"/>
<polygon fill="midnightblue" stroke="midnightblue" points="214.265,-167.869 224.86,-167.947 216.626,-161.279 214.265,-167.869"/>
</g>
<!-- Node3 -->
<g id="node3" class="node"><title>Node3</title>
<g id="a_node3"><a xlink:href="../../d4/d3a/a00101.html#ab0f72fc64a2ccb4885b91680def969e0" target="_top" xlink:title="Get the pool id. ">
<polygon fill="white" stroke="black" points="220.5,-119 220.5,-149 321.5,-149 321.5,-119 220.5,-119"/>
<text text-anchor="start" x="228.5" y="-137" font-family="Helvetica,sans-Serif" font-size="10.00">stride::ContactPool</text>
<text text-anchor="middle" x="271" y="-126" font-family="Helvetica,sans-Serif" font-size="10.00">::GetId</text>
</a>
</g>
</g>
<!-- Node1&#45;&gt;Node3 -->
<g id="edge2" class="edge"><title>Node1&#45;&gt;Node3</title>
<path fill="none" stroke="midnightblue" d="M161.729,-118.45C178.066,-120.797 194.991,-123.227 210.47,-125.45"/>
<polygon fill="midnightblue" stroke="midnightblue" points="210.015,-128.921 220.411,-126.878 211.01,-121.992 210.015,-128.921"/>
</g>
<!-- Node4 -->
<g id="node4" class="node"><title>Node4</title>
<g id="a_node4"><a xlink:href="../../df/d13/a00085.html#a0de33357e50cb2549d9aad7b987dcc5a" target="_top" xlink:title="proto::GeoGrid_Location\l_ContactCenter_ContactPool\l::people">
<polygon fill="white" stroke="black" points="198.5,-59.5 198.5,-100.5 343.5,-100.5 343.5,-59.5 198.5,-59.5"/>
<text text-anchor="start" x="206.5" y="-88.5" font-family="Helvetica,sans-Serif" font-size="10.00">proto::GeoGrid_Location</text>
<text text-anchor="start" x="206.5" y="-77.5" font-family="Helvetica,sans-Serif" font-size="10.00">_ContactCenter_ContactPool</text>
<text text-anchor="middle" x="271" y="-66.5" font-family="Helvetica,sans-Serif" font-size="10.00">::people</text>
</a>
</g>
</g>
<!-- Node1&#45;&gt;Node4 -->
<g id="edge3" class="edge"><title>Node1&#45;&gt;Node4</title>
<path fill="none" stroke="midnightblue" d="M161.729,-95.5496C170.6,-94.2756 179.644,-92.9766 188.536,-91.6996"/>
<polygon fill="midnightblue" stroke="midnightblue" points="189.093,-95.1556 198.494,-90.2695 188.098,-88.2267 189.093,-95.1556"/>
</g>
<!-- Node5 -->
<g id="node5" class="node"><title>Node5</title>
<g id="a_node5"><a xlink:href="../../df/d13/a00085.html#af18dfe27121c6513a6edf82892651fab" target="_top" xlink:title="proto::GeoGrid_Location\l_ContactCenter_ContactPool\l::people_size">
<polygon fill="white" stroke="black" points="198.5,0.5 198.5,-40.5 343.5,-40.5 343.5,0.5 198.5,0.5"/>
<text text-anchor="start" x="206.5" y="-28.5" font-family="Helvetica,sans-Serif" font-size="10.00">proto::GeoGrid_Location</text>
<text text-anchor="start" x="206.5" y="-17.5" font-family="Helvetica,sans-Serif" font-size="10.00">_ContactCenter_ContactPool</text>
<text text-anchor="middle" x="271" y="-6.5" font-family="Helvetica,sans-Serif" font-size="10.00">::people_size</text>
</a>
</g>
</g>
<!-- Node1&#45;&gt;Node5 -->
<g id="edge4" class="edge"><title>Node1&#45;&gt;Node5</title>
<path fill="none" stroke="midnightblue" d="M111.32,-91.9666C134.63,-80.1675 168.164,-63.5306 198,-50 201.885,-48.2382 205.904,-46.4558 209.965,-44.6845"/>
<polygon fill="midnightblue" stroke="midnightblue" points="211.676,-47.7583 219.474,-40.5865 208.906,-41.3298 211.676,-47.7583"/>
</g>
</g>
</svg>
