<?xml version="1.0" encoding="UTF-8" standalone="no"?>
<!DOCTYPE svg PUBLIC "-//W3C//DTD SVG 1.1//EN"
 "http://www.w3.org/Graphics/SVG/1.1/DTD/svg11.dtd">
<!-- Generated by graphviz version 2.36.0 (20140111.2315)
 -->
<!-- Title: gengeopop::GeoGridProtoReader::ParseContactCenter Pages: 1 -->
<svg width="550pt" height="278pt"
 viewBox="0.00 0.00 550.00 278.00" xmlns="http://www.w3.org/2000/svg" xmlns:xlink="http://www.w3.org/1999/xlink">
<g id="graph0" class="graph" transform="scale(1 1) rotate(0) translate(4 274)">
<title>gengeopop::GeoGridProtoReader::ParseContactCenter</title>
<polygon fill="white" stroke="none" points="-4,4 -4,-274 546,-274 546,4 -4,4"/>
<!-- Node1 -->
<g id="node1" class="node"><title>Node1</title>
<polygon fill="#bfbfbf" stroke="black" points="0.5,-98 0.5,-128 161.5,-128 161.5,-98 0.5,-98"/>
<text text-anchor="start" x="8.5" y="-116" font-family="Helvetica,sans-Serif" font-size="10.00">gengeopop::GeoGridProtoReader</text>
<text text-anchor="middle" x="81" y="-105" font-family="Helvetica,sans-Serif" font-size="10.00">::ParseContactCenter</text>
</g>
<!-- Node2 -->
<g id="node2" class="node"><title>Node2</title>
<g id="a_node2"><a xlink:href="../../df/d5d/a00084.html#a836da18e7ce8173b075a1fa72d33ea84" target="_top" xlink:title="proto::GeoGrid_Location\l_ContactCenter::id">
<polygon fill="white" stroke="black" points="218,-196 218,-226 340,-226 340,-196 218,-196"/>
<text text-anchor="start" x="226" y="-214" font-family="Helvetica,sans-Serif" font-size="10.00">proto::GeoGrid_Location</text>
<text text-anchor="middle" x="279" y="-203" font-family="Helvetica,sans-Serif" font-size="10.00">_ContactCenter::id</text>
</a>
</g>
</g>
<!-- Node1&#45;&gt;Node2 -->
<g id="edge1" class="edge"><title>Node1&#45;&gt;Node2</title>
<path fill="none" stroke="midnightblue" d="M102.448,-128.173C124.926,-144.29 162.566,-169.651 198,-186 202.955,-188.286 208.175,-190.439 213.475,-192.448"/>
<polygon fill="midnightblue" stroke="midnightblue" points="212.47,-195.807 223.065,-195.908 214.846,-189.222 212.47,-195.807"/>
</g>
<!-- Node3 -->
<g id="node3" class="node"><title>Node3</title>
<g id="a_node3"><a xlink:href="../../d3/de7/a00039.html#a19e0ff14a2aef228d926d53132fa767b" target="_top" xlink:title="Create a ContactPool based on the provided protobuf ContactPool. ">
<polygon fill="white" stroke="black" points="198.5,-147 198.5,-177 359.5,-177 359.5,-147 198.5,-147"/>
<text text-anchor="start" x="206.5" y="-165" font-family="Helvetica,sans-Serif" font-size="10.00">gengeopop::GeoGridProtoReader</text>
<text text-anchor="middle" x="279" y="-154" font-family="Helvetica,sans-Serif" font-size="10.00">::ParseContactPool</text>
</a>
</g>
</g>
<!-- Node1&#45;&gt;Node3 -->
<g id="edge2" class="edge"><title>Node1&#45;&gt;Node3</title>
<path fill="none" stroke="midnightblue" d="M142.138,-128.035C163.021,-133.255 186.615,-139.154 208.21,-144.553"/>
<polygon fill="midnightblue" stroke="midnightblue" points="207.425,-147.964 217.975,-146.994 209.123,-141.173 207.425,-147.964"/>
</g>
<!-- Node8 -->
<g id="node8" class="node"><title>Node8</title>
<g id="a_node8"><a xlink:href="../../df/d5d/a00084.html#ad72f8f06adf64bedd21c233827dc8d65" target="_top" xlink:title="proto::GeoGrid_Location\l_ContactCenter::pools">
<polygon fill="white" stroke="black" points="218,-98 218,-128 340,-128 340,-98 218,-98"/>
<text text-anchor="start" x="226" y="-116" font-family="Helvetica,sans-Serif" font-size="10.00">proto::GeoGrid_Location</text>
<text text-anchor="middle" x="279" y="-105" font-family="Helvetica,sans-Serif" font-size="10.00">_ContactCenter::pools</text>
</a>
</g>
</g>
<!-- Node1&#45;&gt;Node8 -->
<g id="edge7" class="edge"><title>Node1&#45;&gt;Node8</title>
<path fill="none" stroke="midnightblue" d="M161.721,-113C176.962,-113 192.816,-113 207.735,-113"/>
<polygon fill="midnightblue" stroke="midnightblue" points="207.895,-116.5 217.895,-113 207.895,-109.5 207.895,-116.5"/>
</g>
<!-- Node9 -->
<g id="node9" class="node"><title>Node9</title>
<g id="a_node9"><a xlink:href="../../df/d5d/a00084.html#a2fba27d68b28b8f526346d0fe1d3cdd6" target="_top" xlink:title="proto::GeoGrid_Location\l_ContactCenter::pools_size">
<polygon fill="white" stroke="black" points="210,-49 210,-79 348,-79 348,-49 210,-49"/>
<text text-anchor="start" x="218" y="-67" font-family="Helvetica,sans-Serif" font-size="10.00">proto::GeoGrid_Location</text>
<text text-anchor="middle" x="279" y="-56" font-family="Helvetica,sans-Serif" font-size="10.00">_ContactCenter::pools_size</text>
</a>
</g>
</g>
<!-- Node1&#45;&gt;Node9 -->
<g id="edge8" class="edge"><title>Node1&#45;&gt;Node9</title>
<path fill="none" stroke="midnightblue" d="M142.138,-97.9654C163.021,-92.7446 186.615,-86.8463 208.21,-81.4474"/>
<polygon fill="midnightblue" stroke="midnightblue" points="209.123,-84.8271 217.975,-79.0062 207.425,-78.0361 209.123,-84.8271"/>
</g>
<!-- Node10 -->
<g id="node10" class="node"><title>Node10</title>
<g id="a_node10"><a xlink:href="../../df/d5d/a00084.html#a527127a37e7e5f5735eb829bf959da9d" target="_top" xlink:title="proto::GeoGrid_Location\l_ContactCenter::type">
<polygon fill="white" stroke="black" points="218,-0 218,-30 340,-30 340,-0 218,-0"/>
<text text-anchor="start" x="226" y="-18" font-family="Helvetica,sans-Serif" font-size="10.00">proto::GeoGrid_Location</text>
<text text-anchor="middle" x="279" y="-7" font-family="Helvetica,sans-Serif" font-size="10.00">_ContactCenter::type</text>
</a>
</g>
</g>
<!-- Node1&#45;&gt;Node10 -->
<g id="edge9" class="edge"><title>Node1&#45;&gt;Node10</title>
<path fill="none" stroke="midnightblue" d="M101.969,-97.8199C124.337,-81.4136 162.168,-55.4184 198,-39 202.305,-37.0275 206.813,-35.1677 211.403,-33.4239"/>
<polygon fill="midnightblue" stroke="midnightblue" points="212.675,-36.6863 220.9,-30.0087 210.306,-30.0993 212.675,-36.6863"/>
</g>
<!-- Node4 -->
<g id="node4" class="node"><title>Node4</title>
<g id="a_node4"><a xlink:href="../../df/d13/a00085.html#af18dfe27121c6513a6edf82892651fab" target="_top" xlink:title="proto::GeoGrid_Location\l_ContactCenter_ContactPool\l::people_size">
<polygon fill="white" stroke="black" points="396.5,-228.5 396.5,-269.5 541.5,-269.5 541.5,-228.5 396.5,-228.5"/>
<text text-anchor="start" x="404.5" y="-257.5" font-family="Helvetica,sans-Serif" font-size="10.00">proto::GeoGrid_Location</text>
<text text-anchor="start" x="404.5" y="-246.5" font-family="Helvetica,sans-Serif" font-size="10.00">_ContactCenter_ContactPool</text>
<text text-anchor="middle" x="469" y="-235.5" font-family="Helvetica,sans-Serif" font-size="10.00">::people_size</text>
</a>
</g>
</g>
<!-- Node3&#45;&gt;Node4 -->
<g id="edge3" class="edge"><title>Node3&#45;&gt;Node4</title>
<path fill="none" stroke="midnightblue" d="M337.992,-177.007C345.599,-179.868 353.13,-183.185 360,-187 378.46,-197.25 378.096,-206.807 396,-218 399.188,-219.993 402.526,-221.917 405.945,-223.763"/>
<polygon fill="midnightblue" stroke="midnightblue" points="404.64,-227.027 415.137,-228.464 407.827,-220.795 404.64,-227.027"/>
</g>
<!-- Node5 -->
<g id="node5" class="node"><title>Node5</title>
<g id="a_node5"><a xlink:href="../../df/d13/a00085.html#a0de33357e50cb2549d9aad7b987dcc5a" target="_top" xlink:title="proto::GeoGrid_Location\l_ContactCenter_ContactPool\l::people">
<polygon fill="white" stroke="black" points="396.5,-168.5 396.5,-209.5 541.5,-209.5 541.5,-168.5 396.5,-168.5"/>
<text text-anchor="start" x="404.5" y="-197.5" font-family="Helvetica,sans-Serif" font-size="10.00">proto::GeoGrid_Location</text>
<text text-anchor="start" x="404.5" y="-186.5" font-family="Helvetica,sans-Serif" font-size="10.00">_ContactCenter_ContactPool</text>
<text text-anchor="middle" x="469" y="-175.5" font-family="Helvetica,sans-Serif" font-size="10.00">::people</text>
</a>
</g>
</g>
<!-- Node3&#45;&gt;Node5 -->
<g id="edge4" class="edge"><title>Node3&#45;&gt;Node5</title>
<path fill="none" stroke="midnightblue" d="M359.729,-173.45C368.6,-174.724 377.644,-176.023 386.536,-177.3"/>
<polygon fill="midnightblue" stroke="midnightblue" points="386.098,-180.773 396.494,-178.73 387.093,-173.844 386.098,-180.773"/>
</g>
<!-- Node6 -->
<g id="node6" class="node"><title>Node6</title>
<g id="a_node6"><a xlink:href="../../d4/d3a/a00101.html#a1d78d0a3fd422a09f39e87d83c391d47" target="_top" xlink:title="Add the given Person. ">
<polygon fill="white" stroke="black" points="418.5,-120 418.5,-150 519.5,-150 519.5,-120 418.5,-120"/>
<text text-anchor="start" x="426.5" y="-138" font-family="Helvetica,sans-Serif" font-size="10.00">stride::ContactPool</text>
<text text-anchor="middle" x="469" y="-127" font-family="Helvetica,sans-Serif" font-size="10.00">::AddMember</text>
</a>
</g>
</g>
<!-- Node3&#45;&gt;Node6 -->
<g id="edge5" class="edge"><title>Node3&#45;&gt;Node6</title>
<path fill="none" stroke="midnightblue" d="M359.729,-150.55C376.066,-148.203 392.991,-145.773 408.47,-143.55"/>
<polygon fill="midnightblue" stroke="midnightblue" points="409.01,-147.008 418.411,-142.122 408.015,-140.079 409.01,-147.008"/>
</g>
<!-- Node7 -->
<g id="node7" class="node"><title>Node7</title>
<g id="a_node7"><a xlink:href="../../d4/d3a/a00101.html#a3b2da2fe2ebe5e75bcf8a13893f8d10a" target="_top" xlink:title="Get the pool id. ">
<polygon fill="white" stroke="black" points="418.5,-71 418.5,-101 519.5,-101 519.5,-71 418.5,-71"/>
<text text-anchor="start" x="426.5" y="-89" font-family="Helvetica,sans-Serif" font-size="10.00">stride::ContactPool</text>
<text text-anchor="middle" x="469" y="-78" font-family="Helvetica,sans-Serif" font-size="10.00">::GetId</text>
</a>
</g>
</g>
<!-- Node3&#45;&gt;Node7 -->
<g id="edge6" class="edge"><title>Node3&#45;&gt;Node7</title>
<path fill="none" stroke="midnightblue" d="M336.423,-146.898C344.503,-144.012 352.583,-140.713 360,-137 377.648,-128.164 378.492,-120.111 396,-111 400.182,-108.824 404.594,-106.769 409.091,-104.844"/>
<polygon fill="midnightblue" stroke="midnightblue" points="410.44,-108.075 418.396,-101.079 407.813,-101.586 410.44,-108.075"/>
</g>
</g>
</svg>
