<?xml version="1.0" encoding="UTF-8" standalone="no"?>
<!DOCTYPE svg PUBLIC "-//W3C//DTD SVG 1.1//EN"
 "http://www.w3.org/Graphics/SVG/1.1/DTD/svg11.dtd">
<!-- Generated by graphviz version 2.36.0 (20140111.2315)
 -->
<!-- Title: gengeopop::GeoGridProtoReader::Read Pages: 1 -->
<svg width="946pt" height="791pt"
 viewBox="0.00 0.00 946.00 791.00" xmlns="http://www.w3.org/2000/svg" xmlns:xlink="http://www.w3.org/1999/xlink">
<g id="graph0" class="graph" transform="scale(1 1) rotate(0) translate(4 787)">
<title>gengeopop::GeoGridProtoReader::Read</title>
<polygon fill="white" stroke="none" points="-4,4 -4,-787 942,-787 942,4 -4,4"/>
<!-- Node1 -->
<g id="node1" class="node"><title>Node1</title>
<polygon fill="#bfbfbf" stroke="black" points="0.5,-415 0.5,-445 161.5,-445 161.5,-415 0.5,-415"/>
<text text-anchor="start" x="8.5" y="-433" font-family="Helvetica,sans-Serif" font-size="10.00">gengeopop::GeoGridProtoReader</text>
<text text-anchor="middle" x="81" y="-422" font-family="Helvetica,sans-Serif" font-size="10.00">::Read</text>
</g>
<!-- Node2 -->
<g id="node2" class="node"><title>Node2</title>
<g id="a_node2"><a xlink:href="../../dd/d32/a00041.html#af173ec28b1fb8313b64c8a14308b9710" target="_top" xlink:title="Add the commutes that were found to their respective Locations symmetrically. ">
<polygon fill="white" stroke="black" points="210.5,-584 210.5,-614 347.5,-614 347.5,-584 210.5,-584"/>
<text text-anchor="start" x="218.5" y="-602" font-family="Helvetica,sans-Serif" font-size="10.00">gengeopop::GeoGridReader</text>
<text text-anchor="middle" x="279" y="-591" font-family="Helvetica,sans-Serif" font-size="10.00">::AddCommutes</text>
</a>
</g>
</g>
<!-- Node1&#45;&gt;Node2 -->
<g id="edge1" class="edge"><title>Node1&#45;&gt;Node2</title>
<path fill="none" stroke="midnightblue" d="M90.0577,-445.08C106.448,-474.326 146.521,-538.949 198,-574 200.915,-575.985 203.995,-577.818 207.182,-579.51"/>
<polygon fill="midnightblue" stroke="midnightblue" points="205.871,-582.762 216.403,-583.915 208.889,-576.446 205.871,-582.762"/>
</g>
<!-- Node3 -->
<g id="node3" class="node"><title>Node3</title>
<g id="a_node3"><a xlink:href="../../dd/d32/a00041.html#a6544f0fb22a2b053a9480f45f06fdcb9" target="_top" xlink:title="Add the SubMunicipalities that were found while looping of the Locations to their parent municipality...">
<polygon fill="white" stroke="black" points="210.5,-535 210.5,-565 347.5,-565 347.5,-535 210.5,-535"/>
<text text-anchor="start" x="218.5" y="-553" font-family="Helvetica,sans-Serif" font-size="10.00">gengeopop::GeoGridReader</text>
<text text-anchor="middle" x="279" y="-542" font-family="Helvetica,sans-Serif" font-size="10.00">::AddSubMunicipalities</text>
</a>
</g>
</g>
<!-- Node1&#45;&gt;Node3 -->
<g id="edge2" class="edge"><title>Node1&#45;&gt;Node3</title>
<path fill="none" stroke="midnightblue" d="M96.7363,-445.309C117.518,-466.089 157.446,-503.132 198,-525 202.183,-527.255 206.6,-529.342 211.124,-531.267"/>
<polygon fill="midnightblue" stroke="midnightblue" points="209.933,-534.56 220.519,-534.991 212.513,-528.052 209.933,-534.56"/>
</g>
<!-- Node4 -->
<g id="node4" class="node"><title>Node4</title>
<g id="a_node4"><a xlink:href="../../d0/d5e/a00136.html#afab3ab2a1a33004f9e25d4873c3c1921" target="_top" xlink:title="Get the id. ">
<polygon fill="white" stroke="black" points="225.5,-496.5 225.5,-515.5 332.5,-515.5 332.5,-496.5 225.5,-496.5"/>
<text text-anchor="middle" x="279" y="-503.5" font-family="Helvetica,sans-Serif" font-size="10.00">stride::Person::GetId</text>
</a>
</g>
</g>
<!-- Node1&#45;&gt;Node4 -->
<g id="edge3" class="edge"><title>Node1&#45;&gt;Node4</title>
<path fill="none" stroke="midnightblue" d="M108.443,-445.119C131.485,-457.77 166.113,-475.542 198,-487 205.099,-489.551 212.676,-491.858 220.232,-493.914"/>
<polygon fill="midnightblue" stroke="midnightblue" points="219.551,-497.353 230.109,-496.471 221.305,-490.576 219.551,-497.353"/>
</g>
<!-- Node5 -->
<g id="node5" class="node"><title>Node5</title>
<g id="a_node5"><a xlink:href="../../d8/d53/a00081.html#a3b5d0b66ec5382518acb9fc346d600a7" target="_top" xlink:title="proto::GeoGrid::locations">
<polygon fill="white" stroke="black" points="216.5,-458.5 216.5,-477.5 341.5,-477.5 341.5,-458.5 216.5,-458.5"/>
<text text-anchor="middle" x="279" y="-465.5" font-family="Helvetica,sans-Serif" font-size="10.00">proto::GeoGrid::locations</text>
</a>
</g>
</g>
<!-- Node1&#45;&gt;Node5 -->
<g id="edge4" class="edge"><title>Node1&#45;&gt;Node5</title>
<path fill="none" stroke="midnightblue" d="M159.464,-445.019C179.328,-448.87 200.37,-452.949 219.125,-456.585"/>
<polygon fill="midnightblue" stroke="midnightblue" points="218.512,-460.032 228.995,-458.499 219.844,-453.16 218.512,-460.032"/>
</g>
<!-- Node6 -->
<g id="node6" class="node"><title>Node6</title>
<g id="a_node6"><a xlink:href="../../d8/d53/a00081.html#aa4e4cc38da711b133be850b95d4cf2cb" target="_top" xlink:title="proto::GeoGrid::locations_size">
<polygon fill="white" stroke="black" points="204.5,-420.5 204.5,-439.5 353.5,-439.5 353.5,-420.5 204.5,-420.5"/>
<text text-anchor="middle" x="279" y="-427.5" font-family="Helvetica,sans-Serif" font-size="10.00">proto::GeoGrid::locations_size</text>
</a>
</g>
</g>
<!-- Node1&#45;&gt;Node6 -->
<g id="edge5" class="edge"><title>Node1&#45;&gt;Node6</title>
<path fill="none" stroke="midnightblue" d="M161.721,-430C172.403,-430 183.385,-430 194.136,-430"/>
<polygon fill="midnightblue" stroke="midnightblue" points="194.355,-433.5 204.355,-430 194.355,-426.5 194.355,-433.5"/>
</g>
<!-- Node7 -->
<g id="node7" class="node"><title>Node7</title>
<g id="a_node7"><a xlink:href="../../d3/de7/a00039.html#a0adca811808bc9edf494cd38b6ca0bae" target="_top" xlink:title="Create a Location based on the provided protobuf Location. ">
<polygon fill="white" stroke="black" points="198.5,-371 198.5,-401 359.5,-401 359.5,-371 198.5,-371"/>
<text text-anchor="start" x="206.5" y="-389" font-family="Helvetica,sans-Serif" font-size="10.00">gengeopop::GeoGridProtoReader</text>
<text text-anchor="middle" x="279" y="-378" font-family="Helvetica,sans-Serif" font-size="10.00">::ParseLocation</text>
</a>
</g>
</g>
<!-- Node1&#45;&gt;Node7 -->
<g id="edge6" class="edge"><title>Node1&#45;&gt;Node7</title>
<path fill="none" stroke="midnightblue" d="M148.904,-414.981C165.683,-411.214 183.819,-407.143 201.045,-403.276"/>
<polygon fill="midnightblue" stroke="midnightblue" points="202.075,-406.632 211.065,-401.026 200.541,-399.802 202.075,-406.632"/>
</g>
<!-- Node34 -->
<g id="node34" class="node"><title>Node34</title>
<g id="a_node34"><a xlink:href="../../d3/de7/a00039.html#ace84e5989875f9deb376a2ed83d7a4c3" target="_top" xlink:title="Create a Person based on the provided protobuf Person. ">
<polygon fill="white" stroke="black" points="198.5,-322 198.5,-352 359.5,-352 359.5,-322 198.5,-322"/>
<text text-anchor="start" x="206.5" y="-340" font-family="Helvetica,sans-Serif" font-size="10.00">gengeopop::GeoGridProtoReader</text>
<text text-anchor="middle" x="279" y="-329" font-family="Helvetica,sans-Serif" font-size="10.00">::ParsePerson</text>
</a>
</g>
</g>
<!-- Node1&#45;&gt;Node34 -->
<g id="edge33" class="edge"><title>Node1&#45;&gt;Node34</title>
<path fill="none" stroke="midnightblue" d="M103.798,-414.816C126.485,-399.556 163.462,-376.177 198,-361 202.414,-359.06 207.031,-357.22 211.724,-355.485"/>
<polygon fill="midnightblue" stroke="midnightblue" points="213.149,-358.694 221.422,-352.075 210.827,-352.09 213.149,-358.694"/>
</g>
<!-- Node37 -->
<g id="node37" class="node"><title>Node37</title>
<g id="a_node37"><a xlink:href="../../d8/d53/a00081.html#af24fe8aeed116df8e4dc62d33c871653" target="_top" xlink:title="proto::GeoGrid::persons">
<polygon fill="white" stroke="black" points="218.5,-283.5 218.5,-302.5 339.5,-302.5 339.5,-283.5 218.5,-283.5"/>
<text text-anchor="middle" x="279" y="-290.5" font-family="Helvetica,sans-Serif" font-size="10.00">proto::GeoGrid::persons</text>
</a>
</g>
</g>
<!-- Node1&#45;&gt;Node37 -->
<g id="edge36" class="edge"><title>Node1&#45;&gt;Node37</title>
<path fill="none" stroke="midnightblue" d="M92.541,-414.656C110.881,-389.19 151.21,-338.392 198,-312 201.954,-309.77 206.159,-307.801 210.493,-306.062"/>
<polygon fill="midnightblue" stroke="midnightblue" points="211.901,-309.276 220.138,-302.612 209.544,-302.685 211.901,-309.276"/>
</g>
<!-- Node38 -->
<g id="node38" class="node"><title>Node38</title>
<g id="a_node38"><a xlink:href="../../d8/d53/a00081.html#a2305009892d1e70cf58a9ff9b422a21d" target="_top" xlink:title="proto::GeoGrid::persons_size">
<polygon fill="white" stroke="black" points="207,-245.5 207,-264.5 351,-264.5 351,-245.5 207,-245.5"/>
<text text-anchor="middle" x="279" y="-252.5" font-family="Helvetica,sans-Serif" font-size="10.00">proto::GeoGrid::persons_size</text>
</a>
</g>
</g>
<!-- Node1&#45;&gt;Node38 -->
<g id="edge37" class="edge"><title>Node1&#45;&gt;Node38</title>
<path fill="none" stroke="midnightblue" d="M88.7955,-414.788C103.711,-383.234 142.469,-310.565 198,-274 201.104,-271.956 204.403,-270.132 207.827,-268.503"/>
<polygon fill="midnightblue" stroke="midnightblue" points="209.241,-271.706 217.13,-264.633 206.553,-265.243 209.241,-271.706"/>
</g>
<!-- Node8 -->
<g id="node8" class="node"><title>Node8</title>
<g id="a_node8"><a xlink:href="../../d4/d63/a00082.html#a9f787c871e478cd4706979b0d78edce4" target="_top" xlink:title="proto::GeoGrid_Location::id">
<polygon fill="white" stroke="black" points="409,-763.5 409,-782.5 545,-782.5 545,-763.5 409,-763.5"/>
<text text-anchor="middle" x="477" y="-770.5" font-family="Helvetica,sans-Serif" font-size="10.00">proto::GeoGrid_Location::id</text>
</a>
</g>
</g>
<!-- Node7&#45;&gt;Node8 -->
<g id="edge7" class="edge"><title>Node7&#45;&gt;Node8</title>
<path fill="none" stroke="midnightblue" d="M349.068,-401.16C353.151,-403.922 356.865,-407.173 360,-411 456.863,-529.227 295.755,-637.627 396,-753 397.373,-754.581 398.851,-756.046 400.416,-757.404"/>
<polygon fill="midnightblue" stroke="midnightblue" points="398.697,-760.473 408.898,-763.336 402.709,-754.737 398.697,-760.473"/>
</g>
<!-- Node9 -->
<g id="node9" class="node"><title>Node9</title>
<g id="a_node9"><a xlink:href="../../d4/d63/a00082.html#ae5d5287002d2a97e9c59fc974e850df8" target="_top" xlink:title="proto::GeoGrid_Location\l::name">
<polygon fill="white" stroke="black" points="416,-714 416,-744 538,-744 538,-714 416,-714"/>
<text text-anchor="start" x="424" y="-732" font-family="Helvetica,sans-Serif" font-size="10.00">proto::GeoGrid_Location</text>
<text text-anchor="middle" x="477" y="-721" font-family="Helvetica,sans-Serif" font-size="10.00">::name</text>
</a>
</g>
</g>
<!-- Node7&#45;&gt;Node9 -->
<g id="edge8" class="edge"><title>Node7&#45;&gt;Node9</title>
<path fill="none" stroke="midnightblue" d="M348.993,-401.222C353.093,-403.969 356.831,-407.2 360,-411 444.028,-511.763 311.972,-603.237 396,-704 399.154,-707.782 402.872,-711.001 406.951,-713.74"/>
<polygon fill="midnightblue" stroke="midnightblue" points="405.333,-716.846 415.762,-718.714 408.774,-710.75 405.333,-716.846"/>
</g>
<!-- Node10 -->
<g id="node10" class="node"><title>Node10</title>
<g id="a_node10"><a xlink:href="../../d4/d63/a00082.html#aefd4205f29912c851f50c5cc9858b96c" target="_top" xlink:title="proto::GeoGrid_Location\l::province">
<polygon fill="white" stroke="black" points="416,-665 416,-695 538,-695 538,-665 416,-665"/>
<text text-anchor="start" x="424" y="-683" font-family="Helvetica,sans-Serif" font-size="10.00">proto::GeoGrid_Location</text>
<text text-anchor="middle" x="477" y="-672" font-family="Helvetica,sans-Serif" font-size="10.00">::province</text>
</a>
</g>
</g>
<!-- Node7&#45;&gt;Node10 -->
<g id="edge9" class="edge"><title>Node7&#45;&gt;Node10</title>
<path fill="none" stroke="midnightblue" d="M348.525,-401.07C352.792,-403.848 356.691,-407.128 360,-411 431.22,-494.33 324.78,-571.67 396,-655 399.2,-658.744 402.951,-661.934 407.053,-664.653"/>
<polygon fill="midnightblue" stroke="midnightblue" points="405.464,-667.774 415.901,-669.596 408.878,-661.663 405.464,-667.774"/>
</g>
<!-- Node11 -->
<g id="node11" class="node"><title>Node11</title>
<g id="a_node11"><a xlink:href="../../d4/d63/a00082.html#a8f722f8a9c6609c033a0654fd3bef9d8" target="_top" xlink:title="proto::GeoGrid_Location\l::population">
<polygon fill="white" stroke="black" points="416,-616 416,-646 538,-646 538,-616 416,-616"/>
<text text-anchor="start" x="424" y="-634" font-family="Helvetica,sans-Serif" font-size="10.00">proto::GeoGrid_Location</text>
<text text-anchor="middle" x="477" y="-623" font-family="Helvetica,sans-Serif" font-size="10.00">::population</text>
</a>
</g>
</g>
<!-- Node7&#45;&gt;Node11 -->
<g id="edge10" class="edge"><title>Node7&#45;&gt;Node11</title>
<path fill="none" stroke="midnightblue" d="M348.37,-401.205C352.672,-403.952 356.622,-407.189 360,-411 418.458,-476.952 337.542,-540.048 396,-606 399.125,-609.525 402.739,-612.559 406.668,-615.169"/>
<polygon fill="midnightblue" stroke="midnightblue" points="405.272,-618.398 415.707,-620.231 408.692,-612.291 405.272,-618.398"/>
</g>
<!-- Node12 -->
<g id="node12" class="node"><title>Node12</title>
<g id="a_node12"><a xlink:href="../../d3/de7/a00039.html#ab4b797ef7bd19d8122192fcbdcba8f50" target="_top" xlink:title="Create a Coordinate based on the provided protobuf Coordinate. ">
<polygon fill="white" stroke="black" points="396.5,-567 396.5,-597 557.5,-597 557.5,-567 396.5,-567"/>
<text text-anchor="start" x="404.5" y="-585" font-family="Helvetica,sans-Serif" font-size="10.00">gengeopop::GeoGridProtoReader</text>
<text text-anchor="middle" x="477" y="-574" font-family="Helvetica,sans-Serif" font-size="10.00">::ParseCoordinate</text>
</a>
</g>
</g>
<!-- Node7&#45;&gt;Node12 -->
<g id="edge11" class="edge"><title>Node7&#45;&gt;Node12</title>
<path fill="none" stroke="midnightblue" d="M347.747,-401.202C352.249,-403.948 356.411,-407.184 360,-411 405.791,-459.68 350.209,-508.32 396,-557 397.234,-558.312 398.535,-559.555 399.895,-560.733"/>
<polygon fill="midnightblue" stroke="midnightblue" points="398.104,-563.758 408.253,-566.798 402.215,-558.092 398.104,-563.758"/>
</g>
<!-- Node15 -->
<g id="node15" class="node"><title>Node15</title>
<g id="a_node15"><a xlink:href="../../d4/d63/a00082.html#a20327f38bc0288016b3eeb04997e66fd" target="_top" xlink:title="proto::GeoGrid_Location\l::coordinate">
<polygon fill="white" stroke="black" points="416,-518 416,-548 538,-548 538,-518 416,-518"/>
<text text-anchor="start" x="424" y="-536" font-family="Helvetica,sans-Serif" font-size="10.00">proto::GeoGrid_Location</text>
<text text-anchor="middle" x="477" y="-525" font-family="Helvetica,sans-Serif" font-size="10.00">::coordinate</text>
</a>
</g>
</g>
<!-- Node7&#45;&gt;Node15 -->
<g id="edge14" class="edge"><title>Node7&#45;&gt;Node15</title>
<path fill="none" stroke="midnightblue" d="M346.122,-401.016C351.164,-403.798 355.883,-407.094 360,-411 393.358,-442.651 362.642,-476.349 396,-508 399.295,-511.127 402.977,-513.863 406.901,-516.257"/>
<polygon fill="midnightblue" stroke="midnightblue" points="405.347,-519.394 415.824,-520.97 408.617,-513.205 405.347,-519.394"/>
</g>
<!-- Node16 -->
<g id="node16" class="node"><title>Node16</title>
<g id="a_node16"><a xlink:href="../../d4/d63/a00082.html#a9af8ca81e0d174f95d789faa3c185d2a" target="_top" xlink:title="proto::GeoGrid_Location\l::contactcenters_size">
<polygon fill="white" stroke="black" points="416,-469 416,-499 538,-499 538,-469 416,-469"/>
<text text-anchor="start" x="424" y="-487" font-family="Helvetica,sans-Serif" font-size="10.00">proto::GeoGrid_Location</text>
<text text-anchor="middle" x="477" y="-476" font-family="Helvetica,sans-Serif" font-size="10.00">::contactcenters_size</text>
</a>
</g>
</g>
<!-- Node7&#45;&gt;Node16 -->
<g id="edge15" class="edge"><title>Node7&#45;&gt;Node16</title>
<path fill="none" stroke="midnightblue" d="M342.143,-401.071C348.448,-403.856 354.533,-407.138 360,-411 381.779,-426.388 374.221,-443.612 396,-459 399.409,-461.409 403.059,-463.592 406.853,-465.569"/>
<polygon fill="midnightblue" stroke="midnightblue" points="405.38,-468.744 415.92,-469.819 408.351,-462.406 405.38,-468.744"/>
</g>
<!-- Node17 -->
<g id="node17" class="node"><title>Node17</title>
<g id="a_node17"><a xlink:href="../../d4/d63/a00082.html#aadf531763d2e4f044e98f688958d8353" target="_top" xlink:title="proto::GeoGrid_Location\l::contactcenters">
<polygon fill="white" stroke="black" points="416,-420 416,-450 538,-450 538,-420 416,-420"/>
<text text-anchor="start" x="424" y="-438" font-family="Helvetica,sans-Serif" font-size="10.00">proto::GeoGrid_Location</text>
<text text-anchor="middle" x="477" y="-427" font-family="Helvetica,sans-Serif" font-size="10.00">::contactcenters</text>
</a>
</g>
</g>
<!-- Node7&#45;&gt;Node17 -->
<g id="edge16" class="edge"><title>Node7&#45;&gt;Node17</title>
<path fill="none" stroke="midnightblue" d="M340.138,-401.035C361.021,-406.255 384.615,-412.154 406.21,-417.553"/>
<polygon fill="midnightblue" stroke="midnightblue" points="405.425,-420.964 415.975,-419.994 407.123,-414.173 405.425,-420.964"/>
</g>
<!-- Node18 -->
<g id="node18" class="node"><title>Node18</title>
<g id="a_node18"><a xlink:href="../../d3/de7/a00039.html#a351fab1f7eb8f7035fa432b2a3d7c104" target="_top" xlink:title="Create a ContactCenter based on the provided protobuf ContactCenter. ">
<polygon fill="white" stroke="black" points="396.5,-371 396.5,-401 557.5,-401 557.5,-371 396.5,-371"/>
<text text-anchor="start" x="404.5" y="-389" font-family="Helvetica,sans-Serif" font-size="10.00">gengeopop::GeoGridProtoReader</text>
<text text-anchor="middle" x="477" y="-378" font-family="Helvetica,sans-Serif" font-size="10.00">::ParseContactCenter</text>
</a>
</g>
</g>
<!-- Node7&#45;&gt;Node18 -->
<g id="edge17" class="edge"><title>Node7&#45;&gt;Node18</title>
<path fill="none" stroke="midnightblue" d="M359.721,-386C368.405,-386 377.287,-386 386.082,-386"/>
<polygon fill="midnightblue" stroke="midnightblue" points="386.35,-389.5 396.35,-386 386.35,-382.5 386.35,-389.5"/>
</g>
<!-- Node28 -->
<g id="node28" class="node"><title>Node28</title>
<g id="a_node28"><a xlink:href="../../d4/d63/a00082.html#a61d7217103491dd110c59c46cc32aa25" target="_top" xlink:title="proto::GeoGrid_Location\l::commutes_size">
<polygon fill="white" stroke="black" points="416,-322 416,-352 538,-352 538,-322 416,-322"/>
<text text-anchor="start" x="424" y="-340" font-family="Helvetica,sans-Serif" font-size="10.00">proto::GeoGrid_Location</text>
<text text-anchor="middle" x="477" y="-329" font-family="Helvetica,sans-Serif" font-size="10.00">::commutes_size</text>
</a>
</g>
</g>
<!-- Node7&#45;&gt;Node28 -->
<g id="edge27" class="edge"><title>Node7&#45;&gt;Node28</title>
<path fill="none" stroke="midnightblue" d="M340.138,-370.965C361.021,-365.745 384.615,-359.846 406.21,-354.447"/>
<polygon fill="midnightblue" stroke="midnightblue" points="407.123,-357.827 415.975,-352.006 405.425,-351.036 407.123,-357.827"/>
</g>
<!-- Node29 -->
<g id="node29" class="node"><title>Node29</title>
<g id="a_node29"><a xlink:href="../../d4/d63/a00082.html#af51162270a0c084022903489941101ab" target="_top" xlink:title="proto::GeoGrid_Location\l::commutes">
<polygon fill="white" stroke="black" points="416,-273 416,-303 538,-303 538,-273 416,-273"/>
<text text-anchor="start" x="424" y="-291" font-family="Helvetica,sans-Serif" font-size="10.00">proto::GeoGrid_Location</text>
<text text-anchor="middle" x="477" y="-280" font-family="Helvetica,sans-Serif" font-size="10.00">::commutes</text>
</a>
</g>
</g>
<!-- Node7&#45;&gt;Node29 -->
<g id="edge28" class="edge"><title>Node7&#45;&gt;Node29</title>
<path fill="none" stroke="midnightblue" d="M342.182,-370.983C348.479,-368.188 354.552,-364.889 360,-361 381.993,-345.298 373.917,-327.576 396,-312 399.305,-309.669 402.839,-307.561 406.514,-305.655"/>
<polygon fill="midnightblue" stroke="midnightblue" points="408.278,-308.695 415.886,-301.322 405.34,-302.342 408.278,-308.695"/>
</g>
<!-- Node30 -->
<g id="node30" class="node"><title>Node30</title>
<g id="a_node30"><a xlink:href="../../d2/d1f/a00083.html#a7c9df75a7447c72721d84f192a2c19b7" target="_top" xlink:title="proto::GeoGrid_Location\l_Commute::to">
<polygon fill="white" stroke="black" points="416,-224 416,-254 538,-254 538,-224 416,-224"/>
<text text-anchor="start" x="424" y="-242" font-family="Helvetica,sans-Serif" font-size="10.00">proto::GeoGrid_Location</text>
<text text-anchor="middle" x="477" y="-231" font-family="Helvetica,sans-Serif" font-size="10.00">_Commute::to</text>
</a>
</g>
</g>
<!-- Node7&#45;&gt;Node30 -->
<g id="edge29" class="edge"><title>Node7&#45;&gt;Node30</title>
<path fill="none" stroke="midnightblue" d="M346.136,-370.999C351.175,-368.214 355.89,-364.913 360,-361 393.607,-329.006 362.211,-294.802 396,-263 399.296,-259.897 402.979,-257.195 406.903,-254.84"/>
<polygon fill="midnightblue" stroke="midnightblue" points="408.554,-257.927 415.827,-250.223 405.338,-251.71 408.554,-257.927"/>
</g>
<!-- Node31 -->
<g id="node31" class="node"><title>Node31</title>
<g id="a_node31"><a xlink:href="../../d2/d1f/a00083.html#a84004e570416a8aaae361bb53f57d8f6" target="_top" xlink:title="proto::GeoGrid_Location\l_Commute::proportion">
<polygon fill="white" stroke="black" points="416,-175 416,-205 538,-205 538,-175 416,-175"/>
<text text-anchor="start" x="424" y="-193" font-family="Helvetica,sans-Serif" font-size="10.00">proto::GeoGrid_Location</text>
<text text-anchor="middle" x="477" y="-182" font-family="Helvetica,sans-Serif" font-size="10.00">_Commute::proportion</text>
</a>
</g>
</g>
<!-- Node7&#45;&gt;Node31 -->
<g id="edge30" class="edge"><title>Node7&#45;&gt;Node31</title>
<path fill="none" stroke="midnightblue" d="M347.753,-370.804C352.254,-368.057 356.414,-364.818 360,-361 406.048,-311.969 349.672,-262.767 396,-214 399.176,-210.657 402.796,-207.775 406.703,-205.289"/>
<polygon fill="midnightblue" stroke="midnightblue" points="408.513,-208.29 415.65,-200.459 405.188,-202.13 408.513,-208.29"/>
</g>
<!-- Node32 -->
<g id="node32" class="node"><title>Node32</title>
<g id="a_node32"><a xlink:href="../../d4/d63/a00082.html#aa6b681cff1e7752484cf41af78dcaf5b" target="_top" xlink:title="proto::GeoGrid_Location\l::submunicipalities_size">
<polygon fill="white" stroke="black" points="416,-126 416,-156 538,-156 538,-126 416,-126"/>
<text text-anchor="start" x="424" y="-144" font-family="Helvetica,sans-Serif" font-size="10.00">proto::GeoGrid_Location</text>
<text text-anchor="middle" x="477" y="-133" font-family="Helvetica,sans-Serif" font-size="10.00">::submunicipalities_size</text>
</a>
</g>
</g>
<!-- Node7&#45;&gt;Node32 -->
<g id="edge31" class="edge"><title>Node7&#45;&gt;Node32</title>
<path fill="none" stroke="midnightblue" d="M348.374,-370.799C352.675,-368.05 356.624,-364.813 360,-361 418.718,-294.694 336.904,-230.97 396,-165 399.132,-161.503 402.752,-158.507 406.685,-155.941"/>
<polygon fill="midnightblue" stroke="midnightblue" points="408.644,-158.859 415.73,-150.982 405.279,-152.72 408.644,-158.859"/>
</g>
<!-- Node33 -->
<g id="node33" class="node"><title>Node33</title>
<g id="a_node33"><a xlink:href="../../d4/d63/a00082.html#a288f9df809ad80a45aac18077a76116b" target="_top" xlink:title="proto::GeoGrid_Location\l::submunicipalities">
<polygon fill="white" stroke="black" points="416,-77 416,-107 538,-107 538,-77 416,-77"/>
<text text-anchor="start" x="424" y="-95" font-family="Helvetica,sans-Serif" font-size="10.00">proto::GeoGrid_Location</text>
<text text-anchor="middle" x="477" y="-84" font-family="Helvetica,sans-Serif" font-size="10.00">::submunicipalities</text>
</a>
</g>
</g>
<!-- Node7&#45;&gt;Node33 -->
<g id="edge32" class="edge"><title>Node7&#45;&gt;Node33</title>
<path fill="none" stroke="midnightblue" d="M348.527,-370.932C352.794,-368.154 356.692,-364.873 360,-361 431.481,-277.314 324.042,-199.276 396,-116 399.209,-112.287 402.967,-109.136 407.074,-106.463"/>
<polygon fill="midnightblue" stroke="midnightblue" points="408.832,-109.491 415.928,-101.623 405.475,-103.349 408.832,-109.491"/>
</g>
<!-- Node13 -->
<g id="node13" class="node"><title>Node13</title>
<g id="a_node13"><a xlink:href="../../da/d2a/a00086.html#a03d2590a2f44bf79ad4872b5bcfb3b6d" target="_top" xlink:title="proto::GeoGrid_Location\l_Coordinate::longitude">
<polygon fill="white" stroke="black" points="614,-591 614,-621 736,-621 736,-591 614,-591"/>
<text text-anchor="start" x="622" y="-609" font-family="Helvetica,sans-Serif" font-size="10.00">proto::GeoGrid_Location</text>
<text text-anchor="middle" x="675" y="-598" font-family="Helvetica,sans-Serif" font-size="10.00">_Coordinate::longitude</text>
</a>
</g>
</g>
<!-- Node12&#45;&gt;Node13 -->
<g id="edge12" class="edge"><title>Node12&#45;&gt;Node13</title>
<path fill="none" stroke="midnightblue" d="M557.721,-591.762C572.962,-593.628 588.816,-595.569 603.735,-597.396"/>
<polygon fill="midnightblue" stroke="midnightblue" points="603.544,-600.899 613.895,-598.64 604.394,-593.951 603.544,-600.899"/>
</g>
<!-- Node14 -->
<g id="node14" class="node"><title>Node14</title>
<g id="a_node14"><a xlink:href="../../da/d2a/a00086.html#a6bc5976b2e0d0f05f1a134544844b6bc" target="_top" xlink:title="proto::GeoGrid_Location\l_Coordinate::latitude">
<polygon fill="white" stroke="black" points="614,-542 614,-572 736,-572 736,-542 614,-542"/>
<text text-anchor="start" x="622" y="-560" font-family="Helvetica,sans-Serif" font-size="10.00">proto::GeoGrid_Location</text>
<text text-anchor="middle" x="675" y="-549" font-family="Helvetica,sans-Serif" font-size="10.00">_Coordinate::latitude</text>
</a>
</g>
</g>
<!-- Node12&#45;&gt;Node14 -->
<g id="edge13" class="edge"><title>Node12&#45;&gt;Node14</title>
<path fill="none" stroke="midnightblue" d="M557.721,-571.832C572.962,-569.887 588.816,-567.865 603.735,-565.962"/>
<polygon fill="midnightblue" stroke="midnightblue" points="604.418,-569.404 613.895,-564.666 603.532,-562.46 604.418,-569.404"/>
</g>
<!-- Node19 -->
<g id="node19" class="node"><title>Node19</title>
<g id="a_node19"><a xlink:href="../../df/d5d/a00084.html#a527127a37e7e5f5735eb829bf959da9d" target="_top" xlink:title="proto::GeoGrid_Location\l_ContactCenter::type">
<polygon fill="white" stroke="black" points="614,-469 614,-499 736,-499 736,-469 614,-469"/>
<text text-anchor="start" x="622" y="-487" font-family="Helvetica,sans-Serif" font-size="10.00">proto::GeoGrid_Location</text>
<text text-anchor="middle" x="675" y="-476" font-family="Helvetica,sans-Serif" font-size="10.00">_ContactCenter::type</text>
</a>
</g>
</g>
<!-- Node18&#45;&gt;Node19 -->
<g id="edge18" class="edge"><title>Node18&#45;&gt;Node19</title>
<path fill="none" stroke="midnightblue" d="M542.221,-401.099C547.788,-403.628 553.142,-406.573 558,-410 580.083,-425.576 572.007,-443.298 594,-459 597.397,-461.426 601.038,-463.621 604.825,-465.609"/>
<polygon fill="midnightblue" stroke="midnightblue" points="603.341,-468.779 613.879,-469.877 606.326,-462.447 603.341,-468.779"/>
</g>
<!-- Node20 -->
<g id="node20" class="node"><title>Node20</title>
<g id="a_node20"><a xlink:href="../../df/d5d/a00084.html#a836da18e7ce8173b075a1fa72d33ea84" target="_top" xlink:title="proto::GeoGrid_Location\l_ContactCenter::id">
<polygon fill="white" stroke="black" points="614,-420 614,-450 736,-450 736,-420 614,-420"/>
<text text-anchor="start" x="622" y="-438" font-family="Helvetica,sans-Serif" font-size="10.00">proto::GeoGrid_Location</text>
<text text-anchor="middle" x="675" y="-427" font-family="Helvetica,sans-Serif" font-size="10.00">_ContactCenter::id</text>
</a>
</g>
</g>
<!-- Node18&#45;&gt;Node20 -->
<g id="edge19" class="edge"><title>Node18&#45;&gt;Node20</title>
<path fill="none" stroke="midnightblue" d="M538.138,-401.035C559.021,-406.255 582.615,-412.154 604.21,-417.553"/>
<polygon fill="midnightblue" stroke="midnightblue" points="603.425,-420.964 613.975,-419.994 605.123,-414.173 603.425,-420.964"/>
</g>
<!-- Node21 -->
<g id="node21" class="node"><title>Node21</title>
<g id="a_node21"><a xlink:href="../../df/d5d/a00084.html#a2fba27d68b28b8f526346d0fe1d3cdd6" target="_top" xlink:title="proto::GeoGrid_Location\l_ContactCenter::pools_size">
<polygon fill="white" stroke="black" points="606,-371 606,-401 744,-401 744,-371 606,-371"/>
<text text-anchor="start" x="614" y="-389" font-family="Helvetica,sans-Serif" font-size="10.00">proto::GeoGrid_Location</text>
<text text-anchor="middle" x="675" y="-378" font-family="Helvetica,sans-Serif" font-size="10.00">_ContactCenter::pools_size</text>
</a>
</g>
</g>
<!-- Node18&#45;&gt;Node21 -->
<g id="edge20" class="edge"><title>Node18&#45;&gt;Node21</title>
<path fill="none" stroke="midnightblue" d="M557.721,-386C570.223,-386 583.138,-386 595.61,-386"/>
<polygon fill="midnightblue" stroke="midnightblue" points="595.964,-389.5 605.964,-386 595.964,-382.5 595.964,-389.5"/>
</g>
<!-- Node22 -->
<g id="node22" class="node"><title>Node22</title>
<g id="a_node22"><a xlink:href="../../df/d5d/a00084.html#ad72f8f06adf64bedd21c233827dc8d65" target="_top" xlink:title="proto::GeoGrid_Location\l_ContactCenter::pools">
<polygon fill="white" stroke="black" points="614,-322 614,-352 736,-352 736,-322 614,-322"/>
<text text-anchor="start" x="622" y="-340" font-family="Helvetica,sans-Serif" font-size="10.00">proto::GeoGrid_Location</text>
<text text-anchor="middle" x="675" y="-329" font-family="Helvetica,sans-Serif" font-size="10.00">_ContactCenter::pools</text>
</a>
</g>
</g>
<!-- Node18&#45;&gt;Node22 -->
<g id="edge21" class="edge"><title>Node18&#45;&gt;Node22</title>
<path fill="none" stroke="midnightblue" d="M538.138,-370.965C559.021,-365.745 582.615,-359.846 604.21,-354.447"/>
<polygon fill="midnightblue" stroke="midnightblue" points="605.123,-357.827 613.975,-352.006 603.425,-351.036 605.123,-357.827"/>
</g>
<!-- Node23 -->
<g id="node23" class="node"><title>Node23</title>
<g id="a_node23"><a xlink:href="../../d3/de7/a00039.html#a19e0ff14a2aef228d926d53132fa767b" target="_top" xlink:title="Create a ContactPool based on the provided protobuf ContactPool. ">
<polygon fill="white" stroke="black" points="594.5,-273 594.5,-303 755.5,-303 755.5,-273 594.5,-273"/>
<text text-anchor="start" x="602.5" y="-291" font-family="Helvetica,sans-Serif" font-size="10.00">gengeopop::GeoGridProtoReader</text>
<text text-anchor="middle" x="675" y="-280" font-family="Helvetica,sans-Serif" font-size="10.00">::ParseContactPool</text>
</a>
</g>
</g>
<!-- Node18&#45;&gt;Node23 -->
<g id="edge22" class="edge"><title>Node18&#45;&gt;Node23</title>
<path fill="none" stroke="midnightblue" d="M540.182,-370.983C546.479,-368.188 552.552,-364.889 558,-361 579.993,-345.298 571.917,-327.576 594,-312 596.125,-310.501 598.346,-309.094 600.637,-307.774"/>
<polygon fill="midnightblue" stroke="midnightblue" points="602.469,-310.768 609.779,-303.099 599.282,-304.536 602.469,-310.768"/>
</g>
<!-- Node24 -->
<g id="node24" class="node"><title>Node24</title>
<g id="a_node24"><a xlink:href="../../df/d13/a00085.html#af18dfe27121c6513a6edf82892651fab" target="_top" xlink:title="proto::GeoGrid_Location\l_ContactCenter_ContactPool\l::people_size">
<polygon fill="white" stroke="black" points="792.5,-354.5 792.5,-395.5 937.5,-395.5 937.5,-354.5 792.5,-354.5"/>
<text text-anchor="start" x="800.5" y="-383.5" font-family="Helvetica,sans-Serif" font-size="10.00">proto::GeoGrid_Location</text>
<text text-anchor="start" x="800.5" y="-372.5" font-family="Helvetica,sans-Serif" font-size="10.00">_ContactCenter_ContactPool</text>
<text text-anchor="middle" x="865" y="-361.5" font-family="Helvetica,sans-Serif" font-size="10.00">::people_size</text>
</a>
</g>
</g>
<!-- Node23&#45;&gt;Node24 -->
<g id="edge23" class="edge"><title>Node23&#45;&gt;Node24</title>
<path fill="none" stroke="midnightblue" d="M736.58,-303.067C743.311,-305.644 749.922,-308.608 756,-312 774.693,-322.433 773.938,-332.509 792,-344 795.111,-345.979 798.37,-347.887 801.711,-349.716"/>
<polygon fill="midnightblue" stroke="midnightblue" points="800.21,-352.88 810.7,-354.368 803.428,-346.663 800.21,-352.88"/>
</g>
<!-- Node25 -->
<g id="node25" class="node"><title>Node25</title>
<g id="a_node25"><a xlink:href="../../df/d13/a00085.html#a0de33357e50cb2549d9aad7b987dcc5a" target="_top" xlink:title="proto::GeoGrid_Location\l_ContactCenter_ContactPool\l::people">
<polygon fill="white" stroke="black" points="792.5,-294.5 792.5,-335.5 937.5,-335.5 937.5,-294.5 792.5,-294.5"/>
<text text-anchor="start" x="800.5" y="-323.5" font-family="Helvetica,sans-Serif" font-size="10.00">proto::GeoGrid_Location</text>
<text text-anchor="start" x="800.5" y="-312.5" font-family="Helvetica,sans-Serif" font-size="10.00">_ContactCenter_ContactPool</text>
<text text-anchor="middle" x="865" y="-301.5" font-family="Helvetica,sans-Serif" font-size="10.00">::people</text>
</a>
</g>
</g>
<!-- Node23&#45;&gt;Node25 -->
<g id="edge24" class="edge"><title>Node23&#45;&gt;Node25</title>
<path fill="none" stroke="midnightblue" d="M755.729,-299.45C764.6,-300.724 773.644,-302.023 782.536,-303.3"/>
<polygon fill="midnightblue" stroke="midnightblue" points="782.098,-306.773 792.494,-304.73 783.093,-299.844 782.098,-306.773"/>
</g>
<!-- Node26 -->
<g id="node26" class="node"><title>Node26</title>
<g id="a_node26"><a xlink:href="../../d4/d3a/a00101.html#a1d78d0a3fd422a09f39e87d83c391d47" target="_top" xlink:title="Add the given Person. ">
<polygon fill="white" stroke="black" points="814.5,-246 814.5,-276 915.5,-276 915.5,-246 814.5,-246"/>
<text text-anchor="start" x="822.5" y="-264" font-family="Helvetica,sans-Serif" font-size="10.00">stride::ContactPool</text>
<text text-anchor="middle" x="865" y="-253" font-family="Helvetica,sans-Serif" font-size="10.00">::AddMember</text>
</a>
</g>
</g>
<!-- Node23&#45;&gt;Node26 -->
<g id="edge25" class="edge"><title>Node23&#45;&gt;Node26</title>
<path fill="none" stroke="midnightblue" d="M755.729,-276.55C772.066,-274.203 788.991,-271.773 804.47,-269.55"/>
<polygon fill="midnightblue" stroke="midnightblue" points="805.01,-273.008 814.411,-268.122 804.015,-266.079 805.01,-273.008"/>
</g>
<!-- Node27 -->
<g id="node27" class="node"><title>Node27</title>
<g id="a_node27"><a xlink:href="../../d4/d3a/a00101.html#a3b2da2fe2ebe5e75bcf8a13893f8d10a" target="_top" xlink:title="Get the pool id. ">
<polygon fill="white" stroke="black" points="814.5,-197 814.5,-227 915.5,-227 915.5,-197 814.5,-197"/>
<text text-anchor="start" x="822.5" y="-215" font-family="Helvetica,sans-Serif" font-size="10.00">stride::ContactPool</text>
<text text-anchor="middle" x="865" y="-204" font-family="Helvetica,sans-Serif" font-size="10.00">::GetId</text>
</a>
</g>
</g>
<!-- Node23&#45;&gt;Node27 -->
<g id="edge26" class="edge"><title>Node23&#45;&gt;Node27</title>
<path fill="none" stroke="midnightblue" d="M707.641,-272.788C730.76,-261.926 763.005,-247.299 792,-236 796.788,-234.134 801.788,-232.28 806.825,-230.477"/>
<polygon fill="midnightblue" stroke="midnightblue" points="808.229,-233.693 816.509,-227.083 805.914,-227.087 808.229,-233.693"/>
</g>
<!-- Node35 -->
<g id="node35" class="node"><title>Node35</title>
<g id="a_node35"><a xlink:href="../../d1/d1e/a00087.html#a4af5dc5058c3aa6cf84838094d6514af" target="_top" xlink:title="proto::GeoGrid_Person::id">
<polygon fill="white" stroke="black" points="412,-38.5 412,-57.5 542,-57.5 542,-38.5 412,-38.5"/>
<text text-anchor="middle" x="477" y="-45.5" font-family="Helvetica,sans-Serif" font-size="10.00">proto::GeoGrid_Person::id</text>
</a>
</g>
</g>
<!-- Node34&#45;&gt;Node35 -->
<g id="edge34" class="edge"><title>Node34&#45;&gt;Node35</title>
<path fill="none" stroke="midnightblue" d="M348.527,-321.932C352.794,-319.154 356.692,-315.873 360,-312 431.481,-228.314 321.647,-148.144 396,-67 398.08,-64.7306 400.376,-62.7086 402.839,-60.9086"/>
<polygon fill="midnightblue" stroke="midnightblue" points="404.962,-63.7189 411.776,-55.6065 401.39,-57.6985 404.962,-63.7189"/>
</g>
<!-- Node36 -->
<g id="node36" class="node"><title>Node36</title>
<g id="a_node36"><a xlink:href="../../d1/d1e/a00087.html#aff796dcc38d801c94f34280e473cd3d4" target="_top" xlink:title="proto::GeoGrid_Person::age">
<polygon fill="white" stroke="black" points="408,-0.5 408,-19.5 546,-19.5 546,-0.5 408,-0.5"/>
<text text-anchor="middle" x="477" y="-7.5" font-family="Helvetica,sans-Serif" font-size="10.00">proto::GeoGrid_Person::age</text>
</a>
</g>
</g>
<!-- Node34&#45;&gt;Node36 -->
<g id="edge35" class="edge"><title>Node34&#45;&gt;Node36</title>
<path fill="none" stroke="midnightblue" d="M348.975,-321.763C353.079,-319.019 356.823,-315.793 360,-312 441.411,-214.798 311.251,-123.306 396,-29 397.181,-27.686 398.434,-26.4547 399.751,-25.3011"/>
<polygon fill="midnightblue" stroke="midnightblue" points="401.782,-28.1514 407.912,-19.5097 397.731,-22.4428 401.782,-28.1514"/>
</g>
</g>
</svg>
