<?xml version="1.0" encoding="UTF-8" standalone="no"?>
<!DOCTYPE svg PUBLIC "-//W3C//DTD SVG 1.1//EN"
 "http://www.w3.org/Graphics/SVG/1.1/DTD/svg11.dtd">
<!-- Generated by graphviz version 2.36.0 (20140111.2315)
 -->
<!-- Title: SummaryFile.cpp Pages: 1 -->
<svg width="704pt" height="152pt"
 viewBox="0.00 0.00 704.00 152.00" xmlns="http://www.w3.org/2000/svg" xmlns:xlink="http://www.w3.org/1999/xlink">
<g id="graph0" class="graph" transform="scale(1 1) rotate(0) translate(4 148)">
<title>SummaryFile.cpp</title>
<polygon fill="white" stroke="none" points="-4,4 -4,-148 700,-148 700,4 -4,4"/>
<!-- Node1 -->
<g id="node1" class="node"><title>Node1</title>
<polygon fill="#bfbfbf" stroke="black" points="389.5,-124.5 389.5,-143.5 482.5,-143.5 482.5,-124.5 389.5,-124.5"/>
<text text-anchor="middle" x="436" y="-131.5" font-family="Helvetica,sans-Serif" font-size="10.00">SummaryFile.cpp</text>
</g>
<!-- Node2 -->
<g id="node2" class="node"><title>Node2</title>
<g id="a_node2"><a xlink:href="../../d0/dd6/a00415.html" target="_top" xlink:title="Header for the SummaryFile class. ">
<polygon fill="white" stroke="black" points="134.5,-68.5 134.5,-87.5 217.5,-87.5 217.5,-68.5 134.5,-68.5"/>
<text text-anchor="middle" x="176" y="-75.5" font-family="Helvetica,sans-Serif" font-size="10.00">SummaryFile.h</text>
</a>
</g>
</g>
<!-- Node1&#45;&gt;Node2 -->
<g id="edge1" class="edge"><title>Node1&#45;&gt;Node2</title>
<path fill="none" stroke="midnightblue" d="M394.802,-124.444C349.351,-115.004 276.158,-99.802 227.091,-89.6111"/>
<polygon fill="midnightblue" stroke="midnightblue" points="227.508,-86.1232 217.005,-87.5164 226.084,-92.9769 227.508,-86.1232"/>
</g>
<!-- Node6 -->
<g id="node6" class="node"><title>Node6</title>
<g id="a_node6"><a xlink:href="../../df/da9/a00263.html" target="_top" xlink:title="Interface for install directory queries. ">
<polygon fill="white" stroke="black" points="399,-68.5 399,-87.5 473,-87.5 473,-68.5 399,-68.5"/>
<text text-anchor="middle" x="436" y="-75.5" font-family="Helvetica,sans-Serif" font-size="10.00">util/FileSys.h</text>
</a>
</g>
</g>
<!-- Node1&#45;&gt;Node6 -->
<g id="edge5" class="edge"><title>Node1&#45;&gt;Node6</title>
<path fill="none" stroke="midnightblue" d="M436,-124.083C436,-117.006 436,-106.861 436,-97.9865"/>
<polygon fill="midnightblue" stroke="midnightblue" points="439.5,-97.751 436,-87.7511 432.5,-97.7511 439.5,-97.751"/>
</g>
<!-- Node9 -->
<g id="node9" class="node"><title>Node9</title>
<polygon fill="white" stroke="#bfbfbf" points="595.5,-1 595.5,-31 696.5,-31 696.5,-1 595.5,-1"/>
<text text-anchor="start" x="603.5" y="-19" font-family="Helvetica,sans-Serif" font-size="10.00">boost/property_tree</text>
<text text-anchor="middle" x="646" y="-8" font-family="Helvetica,sans-Serif" font-size="10.00">/ptree.hpp</text>
</g>
<!-- Node1&#45;&gt;Node9 -->
<g id="edge11" class="edge"><title>Node1&#45;&gt;Node9</title>
<path fill="none" stroke="midnightblue" d="M451.442,-124.47C485.008,-105.929 565.314,-61.5695 611.578,-36.0139"/>
<polygon fill="midnightblue" stroke="midnightblue" points="613.292,-39.0657 620.353,-31.1668 609.908,-32.9383 613.292,-39.0657"/>
</g>
<!-- Node3 -->
<g id="node3" class="node"><title>Node3</title>
<polygon fill="white" stroke="#bfbfbf" points="-0.5,-1 -0.5,-31 100.5,-31 100.5,-1 -0.5,-1"/>
<text text-anchor="start" x="7.5" y="-19" font-family="Helvetica,sans-Serif" font-size="10.00">boost/property_tree</text>
<text text-anchor="middle" x="50" y="-8" font-family="Helvetica,sans-Serif" font-size="10.00">/ptree_fwd.hpp</text>
</g>
<!-- Node2&#45;&gt;Node3 -->
<g id="edge2" class="edge"><title>Node2&#45;&gt;Node3</title>
<path fill="none" stroke="midnightblue" d="M157.947,-68.4035C140.005,-59.8596 111.914,-46.483 88.886,-35.5171"/>
<polygon fill="midnightblue" stroke="midnightblue" points="90.2291,-32.2802 79.6957,-31.1408 87.2195,-38.6002 90.2291,-32.2802"/>
</g>
<!-- Node4 -->
<g id="node4" class="node"><title>Node4</title>
<polygon fill="white" stroke="#bfbfbf" points="119,-6.5 119,-25.5 169,-25.5 169,-6.5 119,-6.5"/>
<text text-anchor="middle" x="144" y="-13.5" font-family="Helvetica,sans-Serif" font-size="10.00">fstream</text>
</g>
<!-- Node2&#45;&gt;Node4 -->
<g id="edge3" class="edge"><title>Node2&#45;&gt;Node4</title>
<path fill="none" stroke="midnightblue" d="M171.415,-68.4035C166.71,-59.5816 159.257,-45.6075 153.309,-34.4548"/>
<polygon fill="midnightblue" stroke="midnightblue" points="156.37,-32.7571 148.576,-25.5806 150.194,-36.0512 156.37,-32.7571"/>
</g>
<!-- Node5 -->
<g id="node5" class="node"><title>Node5</title>
<polygon fill="white" stroke="#bfbfbf" points="187.5,-6.5 187.5,-25.5 228.5,-25.5 228.5,-6.5 187.5,-6.5"/>
<text text-anchor="middle" x="208" y="-13.5" font-family="Helvetica,sans-Serif" font-size="10.00">string</text>
</g>
<!-- Node2&#45;&gt;Node5 -->
<g id="edge4" class="edge"><title>Node2&#45;&gt;Node5</title>
<path fill="none" stroke="midnightblue" d="M180.585,-68.4035C185.29,-59.5816 192.743,-45.6075 198.691,-34.4548"/>
<polygon fill="midnightblue" stroke="midnightblue" points="201.806,-36.0512 203.424,-25.5806 195.63,-32.7571 201.806,-36.0512"/>
</g>
<!-- Node6&#45;&gt;Node5 -->
<g id="edge10" class="edge"><title>Node6&#45;&gt;Node5</title>
<path fill="none" stroke="midnightblue" d="M398.884,-71.5177C358.297,-64.858 291.737,-51.9725 237,-32 235.353,-31.3989 233.68,-30.724 232.012,-30.002"/>
<polygon fill="midnightblue" stroke="midnightblue" points="233.251,-26.7143 222.722,-25.5359 230.218,-33.0232 233.251,-26.7143"/>
</g>
<!-- Node7 -->
<g id="node7" class="node"><title>Node7</title>
<polygon fill="white" stroke="#bfbfbf" points="246.5,-6.5 246.5,-25.5 353.5,-25.5 353.5,-6.5 246.5,-6.5"/>
<text text-anchor="middle" x="300" y="-13.5" font-family="Helvetica,sans-Serif" font-size="10.00">boost/filesystem.hpp</text>
</g>
<!-- Node6&#45;&gt;Node7 -->
<g id="edge6" class="edge"><title>Node6&#45;&gt;Node7</title>
<path fill="none" stroke="midnightblue" d="M416.515,-68.4035C393.59,-58.2896 355.315,-41.4036 328.925,-29.761"/>
<polygon fill="midnightblue" stroke="midnightblue" points="330.011,-26.4148 319.449,-25.5806 327.186,-32.8193 330.011,-26.4148"/>
</g>
<!-- Node8 -->
<g id="node8" class="node"><title>Node8</title>
<polygon fill="white" stroke="#bfbfbf" points="371.5,-6.5 371.5,-25.5 500.5,-25.5 500.5,-6.5 371.5,-6.5"/>
<text text-anchor="middle" x="436" y="-13.5" font-family="Helvetica,sans-Serif" font-size="10.00">boost/filesystem/path.hpp</text>
</g>
<!-- Node6&#45;&gt;Node8 -->
<g id="edge7" class="edge"><title>Node6&#45;&gt;Node8</title>
<path fill="none" stroke="midnightblue" d="M436,-68.4035C436,-59.9381 436,-46.7283 436,-35.8199"/>
<polygon fill="midnightblue" stroke="midnightblue" points="439.5,-35.5806 436,-25.5806 432.5,-35.5806 439.5,-35.5806"/>
</g>
<!-- Node6&#45;&gt;Node9 -->
<g id="edge8" class="edge"><title>Node6&#45;&gt;Node9</title>
<path fill="none" stroke="midnightblue" d="M466.088,-68.4035C497.558,-59.412 547.761,-45.0683 587.149,-33.8147"/>
<polygon fill="midnightblue" stroke="midnightblue" points="588.258,-37.1379 596.911,-31.0253 586.335,-30.4073 588.258,-37.1379"/>
</g>
<!-- Node10 -->
<g id="node10" class="node"><title>Node10</title>
<polygon fill="white" stroke="#bfbfbf" points="518.5,-6.5 518.5,-25.5 577.5,-25.5 577.5,-6.5 518.5,-6.5"/>
<text text-anchor="middle" x="548" y="-13.5" font-family="Helvetica,sans-Serif" font-size="10.00">functional</text>
</g>
<!-- Node6&#45;&gt;Node10 -->
<g id="edge9" class="edge"><title>Node6&#45;&gt;Node10</title>
<path fill="none" stroke="midnightblue" d="M452.047,-68.4035C470.593,-58.4678 501.34,-41.9966 523.022,-30.3812"/>
<polygon fill="midnightblue" stroke="midnightblue" points="524.821,-33.388 531.983,-25.5806 521.515,-27.2177 524.821,-33.388"/>
</g>
</g>
</svg>
