<?xml version="1.0" encoding="UTF-8" standalone="no"?>
<!DOCTYPE svg PUBLIC "-//W3C//DTD SVG 1.1//EN"
 "http://www.w3.org/Graphics/SVG/1.1/DTD/svg11.dtd">
<!-- Generated by graphviz version 2.36.0 (20140111.2315)
 -->
<!-- Title: gengeopop::WorkplacePopulator::AssignActive Pages: 1 -->
<svg width="504pt" height="77pt"
 viewBox="0.00 0.00 504.00 77.00" xmlns="http://www.w3.org/2000/svg" xmlns:xlink="http://www.w3.org/1999/xlink">
<g id="graph0" class="graph" transform="scale(1 1) rotate(0) translate(4 73)">
<title>gengeopop::WorkplacePopulator::AssignActive</title>
<polygon fill="white" stroke="none" points="-4,4 -4,-73 500,-73 500,4 -4,4"/>
<!-- Node1 -->
<g id="node1" class="node"><title>Node1</title>
<polygon fill="#bfbfbf" stroke="black" points="0,-17 0,-47 158,-47 158,-17 0,-17"/>
<text text-anchor="start" x="8" y="-35" font-family="Helvetica,sans-Serif" font-size="10.00">gengeopop::WorkplacePopulator</text>
<text text-anchor="middle" x="79" y="-24" font-family="Helvetica,sans-Serif" font-size="10.00">::AssignActive</text>
</g>
<!-- Node2 -->
<g id="node2" class="node"><title>Node2</title>
<g id="a_node2"><a xlink:href="../../d1/d22/a00057.html#ad18d65985647c2afb90627fa7048be6a" target="_top" xlink:title="Convenience wrapper around m_rnManager. ">
<polygon fill="white" stroke="black" points="194.5,-39 194.5,-69 333.5,-69 333.5,-39 194.5,-39"/>
<text text-anchor="start" x="202.5" y="-57" font-family="Helvetica,sans-Serif" font-size="10.00">gengeopop::PartialPopulator</text>
<text text-anchor="middle" x="264" y="-46" font-family="Helvetica,sans-Serif" font-size="10.00">::MakeChoice</text>
</a>
</g>
</g>
<!-- Node1&#45;&gt;Node2 -->
<g id="edge1" class="edge"><title>Node1&#45;&gt;Node2</title>
<path fill="none" stroke="midnightblue" d="M158.139,-41.3938C166.797,-42.4347 175.619,-43.4951 184.284,-44.5369"/>
<polygon fill="midnightblue" stroke="midnightblue" points="184.019,-48.0301 194.365,-45.7488 184.855,-41.0802 184.019,-48.0301"/>
</g>
<!-- Node4 -->
<g id="node4" class="node"><title>Node4</title>
<g id="a_node4"><a xlink:href="../../d0/d5e/a00136.html#af901d3a2d62ad342a5067252e7da4608" target="_top" xlink:title="stride::Person::SetWorkId">
<polygon fill="white" stroke="black" points="199,-0.5 199,-19.5 329,-19.5 329,-0.5 199,-0.5"/>
<text text-anchor="middle" x="264" y="-7.5" font-family="Helvetica,sans-Serif" font-size="10.00">stride::Person::SetWorkId</text>
</a>
</g>
</g>
<!-- Node1&#45;&gt;Node4 -->
<g id="edge3" class="edge"><title>Node1&#45;&gt;Node4</title>
<path fill="none" stroke="midnightblue" d="M158.139,-22.6062C168.34,-21.3799 178.766,-20.1264 188.898,-18.9085"/>
<polygon fill="midnightblue" stroke="midnightblue" points="189.4,-22.3733 198.911,-17.7047 188.565,-15.4234 189.4,-22.3733"/>
</g>
<!-- Node3 -->
<g id="node3" class="node"><title>Node3</title>
<g id="a_node3"><a xlink:href="../../d1/db7/a00157.html#a6508932485d419a6e7ab3cac60754ae6" target="_top" xlink:title="Produce a random generator out of a distribution bound to sim&#39;s random engine. ">
<polygon fill="white" stroke="black" points="374,-39 374,-69 492,-69 492,-39 374,-39"/>
<text text-anchor="start" x="382" y="-57" font-family="Helvetica,sans-Serif" font-size="10.00">stride::util::RNManager</text>
<text text-anchor="middle" x="433" y="-46" font-family="Helvetica,sans-Serif" font-size="10.00">::GetGenerator</text>
</a>
</g>
</g>
<!-- Node2&#45;&gt;Node3 -->
<g id="edge2" class="edge"><title>Node2&#45;&gt;Node3</title>
<path fill="none" stroke="midnightblue" d="M333.889,-54C343.759,-54 353.909,-54 363.765,-54"/>
<polygon fill="midnightblue" stroke="midnightblue" points="363.907,-57.5001 373.906,-54 363.906,-50.5001 363.907,-57.5001"/>
</g>
<!-- Node5 -->
<g id="node5" class="node"><title>Node5</title>
<g id="a_node5"><a xlink:href="../../d0/d5e/a00136.html#a7a8e447907935f01c1e67164725728df" target="_top" xlink:title="stride::Person::SetPoolId">
<polygon fill="white" stroke="black" points="370,-0.5 370,-19.5 496,-19.5 496,-0.5 370,-0.5"/>
<text text-anchor="middle" x="433" y="-7.5" font-family="Helvetica,sans-Serif" font-size="10.00">stride::Person::SetPoolId</text>
</a>
</g>
</g>
<!-- Node4&#45;&gt;Node5 -->
<g id="edge4" class="edge"><title>Node4&#45;&gt;Node5</title>
<path fill="none" stroke="midnightblue" d="M329.089,-10C339.092,-10 349.489,-10 359.66,-10"/>
<polygon fill="midnightblue" stroke="midnightblue" points="359.734,-13.5001 369.734,-10 359.734,-6.5001 359.734,-13.5001"/>
</g>
</g>
</svg>
