<?xml version="1.0" encoding="UTF-8" standalone="no"?>
<!DOCTYPE svg PUBLIC "-//W3C//DTD SVG 1.1//EN"
 "http://www.w3.org/Graphics/SVG/1.1/DTD/svg11.dtd">
<!-- Generated by graphviz version 2.36.0 (20140111.2315)
 -->
<!-- Title: gengeopop::WorkplacePopulator::CalculateCommutingLocations Pages: 1 -->
<svg width="320pt" height="77pt"
 viewBox="0.00 0.00 320.00 77.00" xmlns="http://www.w3.org/2000/svg" xmlns:xlink="http://www.w3.org/1999/xlink">
<g id="graph0" class="graph" transform="scale(1 1) rotate(0) translate(4 73)">
<title>gengeopop::WorkplacePopulator::CalculateCommutingLocations</title>
<polygon fill="white" stroke="none" points="-4,4 -4,-73 316,-73 316,4 -4,4"/>
<!-- Node1 -->
<g id="node1" class="node"><title>Node1</title>
<polygon fill="#bfbfbf" stroke="black" points="0,-22 0,-52 158,-52 158,-22 0,-22"/>
<text text-anchor="start" x="8" y="-40" font-family="Helvetica,sans-Serif" font-size="10.00">gengeopop::WorkplacePopulator</text>
<text text-anchor="middle" x="79" y="-29" font-family="Helvetica,sans-Serif" font-size="10.00">::CalculateCommutingLocations</text>
</g>
<!-- Node2 -->
<g id="node2" class="node"><title>Node2</title>
<g id="a_node2"><a xlink:href="../../d3/dcc/a00264.html#a53951f1917941ac25ba6508b1b72771f" target="_top" xlink:title="ExcAssert">
<polygon fill="white" stroke="black" points="222,-49.5 222,-68.5 284,-68.5 284,-49.5 222,-49.5"/>
<text text-anchor="middle" x="253" y="-56.5" font-family="Helvetica,sans-Serif" font-size="10.00">ExcAssert</text>
</a>
</g>
</g>
<!-- Node1&#45;&gt;Node2 -->
<g id="edge1" class="edge"><title>Node1&#45;&gt;Node2</title>
<path fill="none" stroke="midnightblue" d="M158.199,-47.0022C176.689,-49.3672 195.665,-51.7943 211.668,-53.8413"/>
<polygon fill="midnightblue" stroke="midnightblue" points="211.357,-57.3299 221.721,-55.1271 212.245,-50.3865 211.357,-57.3299"/>
</g>
<!-- Node3 -->
<g id="node3" class="node"><title>Node3</title>
<g id="a_node3"><a xlink:href="../../d6/d7d/a00161.html#a6508932485d419a6e7ab3cac60754ae6" target="_top" xlink:title="Produce a random generator out of a distribution bound to sim&#39;s random engine. ">
<polygon fill="white" stroke="black" points="194,-0 194,-30 312,-30 312,-0 194,-0"/>
<text text-anchor="start" x="202" y="-18" font-family="Helvetica,sans-Serif" font-size="10.00">stride::util::RNManager</text>
<text text-anchor="middle" x="253" y="-7" font-family="Helvetica,sans-Serif" font-size="10.00">::GetGenerator</text>
</a>
</g>
</g>
<!-- Node1&#45;&gt;Node3 -->
<g id="edge2" class="edge"><title>Node1&#45;&gt;Node3</title>
<path fill="none" stroke="midnightblue" d="M158.199,-26.9978C166.716,-25.9084 175.336,-24.8058 183.722,-23.7333"/>
<polygon fill="midnightblue" stroke="midnightblue" points="184.335,-27.1834 193.81,-22.4429 183.447,-20.24 184.335,-27.1834"/>
</g>
</g>
</svg>
