<?xml version="1.0" encoding="UTF-8" standalone="no"?>
<!DOCTYPE svg PUBLIC "-//W3C//DTD SVG 1.1//EN"
 "http://www.w3.org/Graphics/SVG/1.1/DTD/svg11.dtd">
<!-- Generated by graphviz version 2.36.0 (20140111.2315)
 -->
<!-- Title: stride::python::Subject&lt; E, U &gt; Pages: 1 -->
<svg width="216pt" height="472pt"
 viewBox="0.00 0.00 216.00 472.00" xmlns="http://www.w3.org/2000/svg" xmlns:xlink="http://www.w3.org/1999/xlink">
<g id="graph0" class="graph" transform="scale(1 1) rotate(0) translate(4 468)">
<title>stride::python::Subject&lt; E, U &gt;</title>
<polygon fill="white" stroke="none" points="-4,4 -4,-468 212,-468 212,4 -4,4"/>
<!-- Node1 -->
<g id="node1" class="node"><title>Node1</title>
<polygon fill="#bfbfbf" stroke="black" points="30.5,-0.5 30.5,-123.5 145.5,-123.5 145.5,-0.5 30.5,-0.5"/>
<text text-anchor="start" x="38.5" y="-111.5" font-family="Helvetica,sans-Serif" font-size="10.00">stride::python::Subject</text>
<text text-anchor="middle" x="88" y="-100.5" font-family="Helvetica,sans-Serif" font-size="10.00">&lt; E, U &gt;</text>
<polyline fill="none" stroke="black" points="30.5,-93.5 145.5,-93.5 "/>
<text text-anchor="middle" x="88" y="-81.5" font-family="Helvetica,sans-Serif" font-size="10.00"> </text>
<polyline fill="none" stroke="black" points="30.5,-74.5 145.5,-74.5 "/>
<text text-anchor="start" x="38.5" y="-62.5" font-family="Helvetica,sans-Serif" font-size="10.00">+ Subject()</text>
<text text-anchor="start" x="38.5" y="-51.5" font-family="Helvetica,sans-Serif" font-size="10.00">+ ~Subject()</text>
<text text-anchor="start" x="38.5" y="-40.5" font-family="Helvetica,sans-Serif" font-size="10.00">+ Register()</text>
<text text-anchor="start" x="38.5" y="-29.5" font-family="Helvetica,sans-Serif" font-size="10.00">+ Unregister()</text>
<text text-anchor="start" x="38.5" y="-18.5" font-family="Helvetica,sans-Serif" font-size="10.00">+ UnregisterAll()</text>
<text text-anchor="start" x="38.5" y="-7.5" font-family="Helvetica,sans-Serif" font-size="10.00">+ Notify()</text>
</g>
<!-- Node2 -->
<g id="node2" class="node"><title>Node2</title>
<polygon fill="white" stroke="#bfbfbf" points="27.5,-173 27.5,-241 148.5,-241 148.5,-173 27.5,-173"/>
<text text-anchor="start" x="35.5" y="-229" font-family="Helvetica,sans-Serif" font-size="10.00">std::vector&lt; std::shared</text>
<text text-anchor="middle" x="88" y="-218" font-family="Helvetica,sans-Serif" font-size="10.00">_ptr&lt; U &gt; &gt;</text>
<polyline fill="none" stroke="#bfbfbf" points="27.5,-211 148.5,-211 "/>
<text text-anchor="middle" x="88" y="-199" font-family="Helvetica,sans-Serif" font-size="10.00"> </text>
<polyline fill="none" stroke="#bfbfbf" points="27.5,-192 148.5,-192 "/>
<text text-anchor="middle" x="88" y="-180" font-family="Helvetica,sans-Serif" font-size="10.00"> </text>
</g>
<!-- Node2&#45;&gt;Node1 -->
<g id="edge1" class="edge"><title>Node2&#45;&gt;Node1</title>
<path fill="none" stroke="#404040" d="M88,-172.833C88,-161.767 88,-148.96 88,-136.085"/>
<polygon fill="none" stroke="#404040" points="88.0001,-135.774 84,-129.774 88,-123.774 92,-129.774 88.0001,-135.774"/>
<text text-anchor="middle" x="119.5" y="-145.5" font-family="Helvetica,sans-Serif" font-size="10.00"> &#45;m_observers</text>
</g>
<!-- Node3 -->
<g id="node3" class="node"><title>Node3</title>
<polygon fill="white" stroke="#bfbfbf" points="0,-300.5 0,-357.5 88,-357.5 88,-300.5 0,-300.5"/>
<text text-anchor="middle" x="44" y="-345.5" font-family="Helvetica,sans-Serif" font-size="10.00">shared_ptr&lt; U &gt;</text>
<polyline fill="none" stroke="#bfbfbf" points="0,-338.5 88,-338.5 "/>
<text text-anchor="middle" x="44" y="-326.5" font-family="Helvetica,sans-Serif" font-size="10.00"> </text>
<polyline fill="none" stroke="#bfbfbf" points="0,-319.5 88,-319.5 "/>
<text text-anchor="middle" x="44" y="-307.5" font-family="Helvetica,sans-Serif" font-size="10.00"> </text>
</g>
<!-- Node3&#45;&gt;Node2 -->
<g id="edge2" class="edge"><title>Node3&#45;&gt;Node2</title>
<path fill="none" stroke="#404040" d="M49.9293,-300.465C52.9723,-287.933 57.0799,-273.023 62,-260 62.9564,-257.468 63.9977,-254.897 65.0956,-252.321"/>
<polygon fill="none" stroke="#404040" points="65.2224,-252.041 64.061,-244.924 70.1838,-241.115 71.3452,-248.232 65.2224,-252.041"/>
<text text-anchor="middle" x="86.5" y="-268.5" font-family="Helvetica,sans-Serif" font-size="10.00"> +elements</text>
</g>
<!-- Node4 -->
<g id="node4" class="node"><title>Node4</title>
<g id="a_node4"><a xlink:title="STL class. ">
<polygon fill="white" stroke="#bfbfbf" points="106.5,-300.5 106.5,-357.5 193.5,-357.5 193.5,-300.5 106.5,-300.5"/>
<text text-anchor="middle" x="150" y="-345.5" font-family="Helvetica,sans-Serif" font-size="10.00">std::vector&lt; T &gt;</text>
<polyline fill="none" stroke="#bfbfbf" points="106.5,-338.5 193.5,-338.5 "/>
<text text-anchor="middle" x="150" y="-326.5" font-family="Helvetica,sans-Serif" font-size="10.00"> </text>
<polyline fill="none" stroke="#bfbfbf" points="106.5,-319.5 193.5,-319.5 "/>
<text text-anchor="middle" x="150" y="-307.5" font-family="Helvetica,sans-Serif" font-size="10.00"> </text>
</a>
</g>
</g>
<!-- Node4&#45;&gt;Node2 -->
<g id="edge3" class="edge"><title>Node4&#45;&gt;Node2</title>
<path fill="none" stroke="orange" d="M131.107,-291.432C122.873,-275.497 113.289,-256.946 105.251,-241.388"/>
<polygon fill="orange" stroke="orange" points="128.076,-293.192 135.776,-300.47 134.295,-289.979 128.076,-293.192"/>
<text text-anchor="start" x="124" y="-274" font-family="Helvetica,sans-Serif" font-size="10.00"> &lt; std::shared_ptr&lt;</text>
<text text-anchor="middle" x="166" y="-263" font-family="Helvetica,sans-Serif" font-size="10.00"> U &gt; &gt;</text>
</g>
<!-- Node5 -->
<g id="node5" class="node"><title>Node5</title>
<polygon fill="white" stroke="#bfbfbf" points="135.5,-406.5 135.5,-463.5 164.5,-463.5 164.5,-406.5 135.5,-406.5"/>
<text text-anchor="middle" x="150" y="-451.5" font-family="Helvetica,sans-Serif" font-size="10.00">T</text>
<polyline fill="none" stroke="#bfbfbf" points="135.5,-444.5 164.5,-444.5 "/>
<text text-anchor="middle" x="150" y="-432.5" font-family="Helvetica,sans-Serif" font-size="10.00"> </text>
<polyline fill="none" stroke="#bfbfbf" points="135.5,-425.5 164.5,-425.5 "/>
<text text-anchor="middle" x="150" y="-413.5" font-family="Helvetica,sans-Serif" font-size="10.00"> </text>
</g>
<!-- Node5&#45;&gt;Node4 -->
<g id="edge4" class="edge"><title>Node5&#45;&gt;Node4</title>
<path fill="none" stroke="#404040" d="M150,-406.403C150,-395.237 150,-382.13 150,-369.956"/>
<polygon fill="none" stroke="#404040" points="150,-369.726 146,-363.726 150,-357.726 154,-363.726 150,-369.726"/>
<text text-anchor="middle" x="174.5" y="-379.5" font-family="Helvetica,sans-Serif" font-size="10.00"> +elements</text>
</g>
</g>
</svg>
