<?xml version="1.0" encoding="UTF-8" standalone="no"?>
<!DOCTYPE svg PUBLIC "-//W3C//DTD SVG 1.1//EN"
 "http://www.w3.org/Graphics/SVG/1.1/DTD/svg11.dtd">
<!-- Generated by graphviz version 2.36.0 (20140111.2315)
 -->
<!-- Title: calibration::TestCalibrationRunner Pages: 1 -->
<svg width="140pt" height="272pt"
 viewBox="0.00 0.00 140.00 272.00" xmlns="http://www.w3.org/2000/svg" xmlns:xlink="http://www.w3.org/1999/xlink">
<g id="graph0" class="graph" transform="scale(1 1) rotate(0) translate(4 268)">
<title>calibration::TestCalibrationRunner</title>
<polygon fill="white" stroke="none" points="-4,4 -4,-268 136,-268 136,4 -4,4"/>
<!-- Node1 -->
<g id="node1" class="node"><title>Node1</title>
<polygon fill="#bfbfbf" stroke="black" points="-0.5,-1 -0.5,-69 132.5,-69 132.5,-1 -0.5,-1"/>
<text text-anchor="start" x="7.5" y="-57" font-family="Helvetica,sans-Serif" font-size="10.00">calibration::TestCalibration</text>
<text text-anchor="middle" x="66" y="-46" font-family="Helvetica,sans-Serif" font-size="10.00">Runner</text>
<polyline fill="none" stroke="black" points="-0.5,-39 132.5,-39 "/>
<text text-anchor="middle" x="66" y="-27" font-family="Helvetica,sans-Serif" font-size="10.00"> </text>
<polyline fill="none" stroke="black" points="-0.5,-20 132.5,-20 "/>
<text text-anchor="start" x="7.5" y="-8" font-family="Helvetica,sans-Serif" font-size="10.00">+ TestCalibrationRunner()</text>
</g>
<!-- Node2 -->
<g id="node2" class="node"><title>Node2</title>
<g id="a_node2"><a xlink:href="../../de/d21/a00006.html" target="_top" xlink:title="A runner for the Calibration. ">
<polygon fill="white" stroke="black" points="9.5,-107 9.5,-263 122.5,-263 122.5,-107 9.5,-107"/>
<text text-anchor="start" x="17.5" y="-251" font-family="Helvetica,sans-Serif" font-size="10.00">calibration::Calibration</text>
<text text-anchor="middle" x="66" y="-240" font-family="Helvetica,sans-Serif" font-size="10.00">Runner</text>
<polyline fill="none" stroke="black" points="9.5,-233 122.5,-233 "/>
<text text-anchor="start" x="17.5" y="-221" font-family="Helvetica,sans-Serif" font-size="10.00"># configs</text>
<text text-anchor="start" x="17.5" y="-210" font-family="Helvetica,sans-Serif" font-size="10.00"># multipleResults</text>
<text text-anchor="start" x="17.5" y="-199" font-family="Helvetica,sans-Serif" font-size="10.00"># singleResults</text>
<text text-anchor="start" x="17.5" y="-188" font-family="Helvetica,sans-Serif" font-size="10.00"># calibrator</text>
<polyline fill="none" stroke="black" points="9.5,-181 122.5,-181 "/>
<text text-anchor="start" x="17.5" y="-169" font-family="Helvetica,sans-Serif" font-size="10.00">+ CalibrationRunner()</text>
<text text-anchor="start" x="17.5" y="-158" font-family="Helvetica,sans-Serif" font-size="10.00">+ Run()</text>
<text text-anchor="start" x="17.5" y="-147" font-family="Helvetica,sans-Serif" font-size="10.00">+ WriteResults()</text>
<text text-anchor="start" x="17.5" y="-136" font-family="Helvetica,sans-Serif" font-size="10.00">+ WriteBoxplots()</text>
<text text-anchor="start" x="17.5" y="-125" font-family="Helvetica,sans-Serif" font-size="10.00">+ DisplayBoxplots()</text>
<text text-anchor="start" x="17.5" y="-114" font-family="Helvetica,sans-Serif" font-size="10.00">+ DisplayBoxplots()</text>
</a>
</g>
</g>
<!-- Node2&#45;&gt;Node1 -->
<g id="edge1" class="edge"><title>Node2&#45;&gt;Node1</title>
<path fill="none" stroke="midnightblue" d="M66,-96.7001C66,-86.9319 66,-77.4833 66,-69.0658"/>
<polygon fill="none" stroke="midnightblue" points="62.5001,-96.9656 66,-106.966 69.5001,-96.9656 62.5001,-96.9656"/>
</g>
</g>
</svg>
