<?xml version="1.0" encoding="UTF-8" standalone="no"?>
<!DOCTYPE svg PUBLIC "-//W3C//DTD SVG 1.1//EN"
 "http://www.w3.org/Graphics/SVG/1.1/DTD/svg11.dtd">
<!-- Generated by graphviz version 2.36.0 (20140111.2315)
 -->
<!-- Title: proto::GeoGrid_Location_ContactCenter::add_pools Pages: 1 -->
<svg width="720pt" height="38pt"
 viewBox="0.00 0.00 720.00 38.00" xmlns="http://www.w3.org/2000/svg" xmlns:xlink="http://www.w3.org/1999/xlink">
<g id="graph0" class="graph" transform="scale(1 1) rotate(0) translate(4 34)">
<title>proto::GeoGrid_Location_ContactCenter::add_pools</title>
<polygon fill="white" stroke="none" points="-4,4 -4,-34 716,-34 716,4 -4,4"/>
<!-- Node1 -->
<g id="node1" class="node"><title>Node1</title>
<polygon fill="#bfbfbf" stroke="black" points="0,-0 0,-30 136,-30 136,-0 0,-0"/>
<text text-anchor="start" x="8" y="-18" font-family="Helvetica,sans-Serif" font-size="10.00">proto::GeoGrid_Location</text>
<text text-anchor="middle" x="68" y="-7" font-family="Helvetica,sans-Serif" font-size="10.00">_ContactCenter::add_pools</text>
</g>
<!-- Node2 -->
<g id="node2" class="node"><title>Node2</title>
<g id="a_node2"><a xlink:href="../../db/d3a/a00040.html#a1235f787a58d45e623cf5bf21819ccc1" target="_top" xlink:title="Create a ProtoBuf ContactCenter containing all the information needed to reconstruct a ContactCenter...">
<polygon fill="white" stroke="black" points="172.5,-0 172.5,-30 327.5,-30 327.5,-0 172.5,-0"/>
<text text-anchor="start" x="180.5" y="-18" font-family="Helvetica,sans-Serif" font-size="10.00">gengeopop::GeoGridProtoWriter</text>
<text text-anchor="middle" x="250" y="-7" font-family="Helvetica,sans-Serif" font-size="10.00">::WriteContactCenter</text>
</a>
</g>
</g>
<!-- Node1&#45;&gt;Node2 -->
<g id="edge1" class="edge"><title>Node1&#45;&gt;Node2</title>
<path fill="none" stroke="midnightblue" d="M146.091,-15C154.746,-15 163.564,-15 172.215,-15"/>
<polygon fill="midnightblue" stroke="midnightblue" points="146.025,-11.5001 136.025,-15 146.025,-18.5001 146.025,-11.5001"/>
</g>
<!-- Node3 -->
<g id="node3" class="node"><title>Node3</title>
<g id="a_node3"><a xlink:href="../../db/d3a/a00040.html#a2b0641108a2e713aa25c5969939a3c14" target="_top" xlink:title="Create a ProtoBuf Location containing all the information needed to reconstruct a Location...">
<polygon fill="white" stroke="black" points="364.5,-0 364.5,-30 519.5,-30 519.5,-0 364.5,-0"/>
<text text-anchor="start" x="372.5" y="-18" font-family="Helvetica,sans-Serif" font-size="10.00">gengeopop::GeoGridProtoWriter</text>
<text text-anchor="middle" x="442" y="-7" font-family="Helvetica,sans-Serif" font-size="10.00">::WriteLocation</text>
</a>
</g>
</g>
<!-- Node2&#45;&gt;Node3 -->
<g id="edge2" class="edge"><title>Node2&#45;&gt;Node3</title>
<path fill="none" stroke="midnightblue" d="M337.978,-15C346.758,-15 355.629,-15 364.29,-15"/>
<polygon fill="midnightblue" stroke="midnightblue" points="337.733,-11.5001 327.733,-15 337.733,-18.5001 337.733,-11.5001"/>
</g>
<!-- Node4 -->
<g id="node4" class="node"><title>Node4</title>
<g id="a_node4"><a xlink:href="../../db/d3a/a00040.html#a3163b8464f599d204597a01dfc47f08f" target="_top" xlink:title="Write the provided GeoGrid to the proved ostream in Protobuf format. ">
<polygon fill="white" stroke="black" points="556.5,-0 556.5,-30 711.5,-30 711.5,-0 556.5,-0"/>
<text text-anchor="start" x="564.5" y="-18" font-family="Helvetica,sans-Serif" font-size="10.00">gengeopop::GeoGridProtoWriter</text>
<text text-anchor="middle" x="634" y="-7" font-family="Helvetica,sans-Serif" font-size="10.00">::Write</text>
</a>
</g>
</g>
<!-- Node3&#45;&gt;Node4 -->
<g id="edge3" class="edge"><title>Node3&#45;&gt;Node4</title>
<path fill="none" stroke="midnightblue" d="M529.978,-15C538.758,-15 547.629,-15 556.29,-15"/>
<polygon fill="midnightblue" stroke="midnightblue" points="529.733,-11.5001 519.733,-15 529.733,-18.5001 529.733,-11.5001"/>
</g>
</g>
</svg>
