<?xml version="1.0" encoding="UTF-8" standalone="no"?>
<!DOCTYPE svg PUBLIC "-//W3C//DTD SVG 1.1//EN"
 "http://www.w3.org/Graphics/SVG/1.1/DTD/svg11.dtd">
<!-- Generated by graphviz version 2.36.0 (20140111.2315)
 -->
<!-- Title: stride::RegionSlicer Pages: 1 -->
<!--zoomable 474 -->
<svg id="main" version="1.1" xmlns="http://www.w3.org/2000/svg" xmlns:xlink="http://www.w3.org/1999/xlink" xml:space="preserve" onload="init(evt)">
<style type="text/css"><![CDATA[
.edge:hover path { stroke: red; }
.edge:hover polygon { stroke: red; fill: red; }
]]></style>
<script type="text/javascript"><![CDATA[
var edges = document.getElementsByTagName('g');
if (edges && edges.length) {
  for (var i=0;i<edges.length;i++) {
    if (edges[i].id.substr(0,4)=='edge') {
      edges[i].setAttribute('class','edge');
    }
  }
}
]]></script>
        <defs>
                <circle id="rim" cx="0" cy="0" r="7"/>
                <circle id="rim2" cx="0" cy="0" r="3.5"/>
                <g id="zoomPlus">
                        <use xlink:href="#rim" fill="#404040">
                                <set attributeName="fill" to="#808080" begin="zoomplus.mouseover" end="zoomplus.mouseout"/>
                        </use>
                        <path d="M-4,0h8M0,-4v8" fill="none" stroke="white" stroke-width="1.5" pointer-events="none"/>
                </g>
                <g id="zoomMin">
                        <use xlink:href="#rim" fill="#404040">
                                <set attributeName="fill" to="#808080" begin="zoomminus.mouseover" end="zoomminus.mouseout"/>
                        </use>
                        <path d="M-4,0h8" fill="none" stroke="white" stroke-width="1.5" pointer-events="none"/>
                </g>
                <g id="dirArrow">
                        <path fill="none" stroke="white" stroke-width="1.5" d="M0,-3.0v7 M-2.5,-0.5L0,-3.0L2.5,-0.5"/>
                </g>
               <g id="resetDef">
                       <use xlink:href="#rim2" fill="#404040">
                               <set attributeName="fill" to="#808080" begin="reset.mouseover" end="reset.mouseout"/>
                       </use>
               </g>
        </defs>

<script type="text/javascript">
var viewWidth = 204;
var viewHeight = 474;
var sectionId = 'dynsection-0';
</script>
<script xlink:href="../../svgpan.js"/>
<svg id="graph" class="graph">
<g id="viewport">
<title>stride::RegionSlicer</title>
<polygon fill="white" stroke="none" points="-4,4 -4,-470 200,-470 200,4 -4,4"/>
<!-- Node1 -->
<g id="node1" class="node"><title>Node1</title>
<polygon fill="#bfbfbf" stroke="black" points="15,-1 15,-69 117,-69 117,-1 15,-1"/>
<text text-anchor="middle" x="66" y="-57" font-family="Helvetica,sans-Serif" font-size="10.00">stride::RegionSlicer</text>
<polyline fill="none" stroke="black" points="15,-50 117,-50 "/>
<text text-anchor="middle" x="66" y="-38" font-family="Helvetica,sans-Serif" font-size="10.00"> </text>
<polyline fill="none" stroke="black" points="15,-31 117,-31 "/>
<text text-anchor="start" x="23" y="-19" font-family="Helvetica,sans-Serif" font-size="10.00">+ RegionSlicer()</text>
<text text-anchor="start" x="23" y="-8" font-family="Helvetica,sans-Serif" font-size="10.00">+ operator[]()</text>
</g>
<!-- Node2 -->
<g id="node2" class="node"><title>Node2</title>
<polygon fill="white" stroke="#bfbfbf" points="-0.5,-162.5 -0.5,-219.5 42.5,-219.5 42.5,-162.5 -0.5,-162.5"/>
<text text-anchor="middle" x="21" y="-207.5" font-family="Helvetica,sans-Serif" font-size="10.00">size_t</text>
<polyline fill="none" stroke="#bfbfbf" points="-0.5,-200.5 42.5,-200.5 "/>
<text text-anchor="middle" x="21" y="-188.5" font-family="Helvetica,sans-Serif" font-size="10.00"> </text>
<polyline fill="none" stroke="#bfbfbf" points="-0.5,-181.5 42.5,-181.5 "/>
<text text-anchor="middle" x="21" y="-169.5" font-family="Helvetica,sans-Serif" font-size="10.00"> </text>
</g>
<!-- Node2&#45;&gt;Node1 -->
<g id="edge1" class="edge"><title>Node2&#45;&gt;Node1</title>
<path fill="none" stroke="#404040" d="M20.0905,-162.358C20.2521,-141.371 22.3328,-112.112 31,-88 31.9784,-85.2782 33.1309,-82.5611 34.4107,-79.877"/>
<polygon fill="none" stroke="#404040" points="34.5376,-79.6437 33.8898,-72.4617 40.2701,-69.1014 40.9179,-76.2834 34.5376,-79.6437"/>
<text text-anchor="middle" x="60.5" y="-91.5" font-family="Helvetica,sans-Serif" font-size="10.00"> &#45;m_region_id</text>
</g>
<!-- Node3 -->
<g id="node3" class="node"><title>Node3</title>
<g id="a_node3"><a xlink:href="../../d1/d09/a00077.html" target="_top" xlink:title="An std::array modified to enable subscripting with the constact pool type indentifiers. ">
<polygon fill="white" stroke="black" points="61,-118.5 61,-263.5 183,-263.5 183,-118.5 61,-118.5"/>
<text text-anchor="start" x="69" y="-251.5" font-family="Helvetica,sans-Serif" font-size="10.00">stride::ContactPoolType</text>
<text text-anchor="middle" x="122" y="-240.5" font-family="Helvetica,sans-Serif" font-size="10.00">::IdSubscriptArray&lt; T &gt;</text>
<polyline fill="none" stroke="black" points="61,-233.5 183,-233.5 "/>
<text text-anchor="middle" x="122" y="-221.5" font-family="Helvetica,sans-Serif" font-size="10.00"> </text>
<polyline fill="none" stroke="black" points="61,-214.5 183,-214.5 "/>
<text text-anchor="start" x="69" y="-202.5" font-family="Helvetica,sans-Serif" font-size="10.00">+ IdSubscriptArray()</text>
<text text-anchor="start" x="69" y="-191.5" font-family="Helvetica,sans-Serif" font-size="10.00">+ IdSubscriptArray()</text>
<text text-anchor="start" x="69" y="-180.5" font-family="Helvetica,sans-Serif" font-size="10.00">+ IdSubscriptArray()</text>
<text text-anchor="start" x="69" y="-169.5" font-family="Helvetica,sans-Serif" font-size="10.00">+ IdSubscriptArray()</text>
<text text-anchor="start" x="69" y="-158.5" font-family="Helvetica,sans-Serif" font-size="10.00">+ operator[]()</text>
<text text-anchor="start" x="69" y="-147.5" font-family="Helvetica,sans-Serif" font-size="10.00">+ operator[]()</text>
<text text-anchor="start" x="69" y="-136.5" font-family="Helvetica,sans-Serif" font-size="10.00">+ at()</text>
<text text-anchor="start" x="69" y="-125.5" font-family="Helvetica,sans-Serif" font-size="10.00">+ at()</text>
</a>
</g>
</g>
<!-- Node3&#45;&gt;Node1 -->
<g id="edge2" class="edge"><title>Node3&#45;&gt;Node1</title>
<path fill="none" stroke="#404040" d="M100.774,-118.262C97.3765,-108.032 93.7409,-97.6966 90,-88 89.0259,-85.4751 87.9876,-82.8992 86.9098,-80.3118"/>
<polygon fill="none" stroke="#404040" points="86.785,-80.024 80.727,-76.1123 82.0078,-69.0159 88.0658,-72.9276 86.785,-80.024"/>
<text text-anchor="middle" x="143" y="-91.5" font-family="Helvetica,sans-Serif" font-size="10.00"> &#45;m_pool_sys_regions</text>
</g>
<!-- Node4 -->
<g id="node4" class="node"><title>Node4</title>
<g id="a_node4"><a xlink:title="STL class. ">
<polygon fill="white" stroke="#bfbfbf" points="47.5,-302.5 47.5,-359.5 196.5,-359.5 196.5,-302.5 47.5,-302.5"/>
<text text-anchor="middle" x="122" y="-347.5" font-family="Helvetica,sans-Serif" font-size="10.00">std::array&lt; T, NumOfTypes()&gt;</text>
<polyline fill="none" stroke="#bfbfbf" points="47.5,-340.5 196.5,-340.5 "/>
<text text-anchor="middle" x="122" y="-328.5" font-family="Helvetica,sans-Serif" font-size="10.00"> </text>
<polyline fill="none" stroke="#bfbfbf" points="47.5,-321.5 196.5,-321.5 "/>
<text text-anchor="middle" x="122" y="-309.5" font-family="Helvetica,sans-Serif" font-size="10.00"> </text>
</a>
</g>
</g>
<!-- Node4&#45;&gt;Node3 -->
<g id="edge3" class="edge"><title>Node4&#45;&gt;Node3</title>
<path fill="none" stroke="midnightblue" d="M122,-292.338C122,-283.368 122,-273.502 122,-263.564"/>
<polygon fill="none" stroke="midnightblue" points="118.5,-292.405 122,-302.405 125.5,-292.405 118.5,-292.405"/>
</g>
<!-- Node5 -->
<g id="node5" class="node"><title>Node5</title>
<polygon fill="white" stroke="#bfbfbf" points="107.5,-408.5 107.5,-465.5 136.5,-465.5 136.5,-408.5 107.5,-408.5"/>
<text text-anchor="middle" x="122" y="-453.5" font-family="Helvetica,sans-Serif" font-size="10.00">T</text>
<polyline fill="none" stroke="#bfbfbf" points="107.5,-446.5 136.5,-446.5 "/>
<text text-anchor="middle" x="122" y="-434.5" font-family="Helvetica,sans-Serif" font-size="10.00"> </text>
<polyline fill="none" stroke="#bfbfbf" points="107.5,-427.5 136.5,-427.5 "/>
<text text-anchor="middle" x="122" y="-415.5" font-family="Helvetica,sans-Serif" font-size="10.00"> </text>
</g>
<!-- Node5&#45;&gt;Node4 -->
<g id="edge4" class="edge"><title>Node5&#45;&gt;Node4</title>
<path fill="none" stroke="#404040" d="M122,-408.403C122,-397.237 122,-384.13 122,-371.956"/>
<polygon fill="none" stroke="#404040" points="122,-371.726 118,-365.726 122,-359.726 126,-365.726 122,-371.726"/>
<text text-anchor="middle" x="146.5" y="-381.5" font-family="Helvetica,sans-Serif" font-size="10.00"> +elements</text>
</g>
</g>
</svg>
        <g id="navigator" transform="translate(0 0)" fill="#404254">
                <rect fill="#f2f5e9" fill-opacity="0.5" stroke="#606060" stroke-width=".5" x="0" y="0" width="60" height="60"/>
                <use id="zoomplus" xlink:href="#zoomPlus" x="17" y="9" onmousedown="handleZoom(evt,'in')"/>
                <use id="zoomminus" xlink:href="#zoomMin" x="42" y="9" onmousedown="handleZoom(evt,'out')"/>
                <use id="reset" xlink:href="#resetDef" x="30" y="36" onmousedown="handleReset()"/>
                <g id="arrowUp" xlink:href="#dirArrow" transform="translate(30 24)" onmousedown="handlePan(0,-1)">
                  <use xlink:href="#rim" fill="#404040">
                        <set attributeName="fill" to="#808080" begin="arrowUp.mouseover" end="arrowUp.mouseout"/>
                  </use>
                  <path fill="none" stroke="white" stroke-width="1.5" d="M0,-3.0v7 M-2.5,-0.5L0,-3.0L2.5,-0.5"/>
                </g>
                <g id="arrowRight" xlink:href="#dirArrow" transform="rotate(90) translate(36 -43)" onmousedown="handlePan(1,0)">
                  <use xlink:href="#rim" fill="#404040">
                        <set attributeName="fill" to="#808080" begin="arrowRight.mouseover" end="arrowRight.mouseout"/>
                  </use>
                  <path fill="none" stroke="white" stroke-width="1.5" d="M0,-3.0v7 M-2.5,-0.5L0,-3.0L2.5,-0.5"/>
                </g>
                <g id="arrowDown" xlink:href="#dirArrow" transform="rotate(180) translate(-30 -48)" onmousedown="handlePan(0,1)">
                  <use xlink:href="#rim" fill="#404040">
                        <set attributeName="fill" to="#808080" begin="arrowDown.mouseover" end="arrowDown.mouseout"/>
                  </use>
                  <path fill="none" stroke="white" stroke-width="1.5" d="M0,-3.0v7 M-2.5,-0.5L0,-3.0L2.5,-0.5"/>
                </g>
                <g id="arrowLeft" xlink:href="#dirArrow" transform="rotate(270) translate(-36 17)" onmousedown="handlePan(-1,0)">
                  <use xlink:href="#rim" fill="#404040">
                        <set attributeName="fill" to="#808080" begin="arrowLeft.mouseover" end="arrowLeft.mouseout"/>
                  </use>
                  <path fill="none" stroke="white" stroke-width="1.5" d="M0,-3.0v7 M-2.5,-0.5L0,-3.0L2.5,-0.5"/>
                </g>
        </g>
        <svg viewBox="0 0 15 15" width="100%" height="30px" preserveAspectRatio="xMaxYMin meet">
         <g id="arrow_out" transform="scale(0.3 0.3)">
          <a xlink:href="a01232_org.svg" target="_base">
           <rect id="button" ry="5" rx="5" y="6" x="6" height="38" width="38"
                fill="#f2f5e9" fill-opacity="0.5" stroke="#606060" stroke-width="1.0"/>
           <path id="arrow"
             d="M 11.500037,31.436501 C 11.940474,20.09759 22.043105,11.32322 32.158766,21.979434 L 37.068811,17.246167 C 37.068811,17.246167 37.088388,32 37.088388,32 L 22.160133,31.978069 C 22.160133,31.978069 26.997745,27.140456 26.997745,27.140456 C 18.528582,18.264221 13.291696,25.230495 11.500037,31.436501 z"
             style="fill:#404040;"/>
          </a>
         </g>
        </svg>
</svg>
