<?xml version="1.0" encoding="UTF-8" standalone="no"?>
<!DOCTYPE svg PUBLIC "-//W3C//DTD SVG 1.1//EN"
 "http://www.w3.org/Graphics/SVG/1.1/DTD/svg11.dtd">
<!-- Generated by graphviz version 2.36.0 (20140111.2315)
 -->
<!-- Title: gengeopop::ContactCenter::begin Pages: 1 -->
<svg width="530pt" height="38pt"
 viewBox="0.00 0.00 530.00 38.00" xmlns="http://www.w3.org/2000/svg" xmlns:xlink="http://www.w3.org/1999/xlink">
<g id="graph0" class="graph" transform="scale(1 1) rotate(0) translate(4 34)">
<title>gengeopop::ContactCenter::begin</title>
<polygon fill="white" stroke="none" points="-4,4 -4,-34 526,-34 526,4 -4,4"/>
<!-- Node1 -->
<g id="node1" class="node"><title>Node1</title>
<polygon fill="#bfbfbf" stroke="black" points="0,-0 0,-30 134,-30 134,-0 0,-0"/>
<text text-anchor="start" x="8" y="-18" font-family="Helvetica,sans-Serif" font-size="10.00">gengeopop::ContactCenter</text>
<text text-anchor="middle" x="67" y="-7" font-family="Helvetica,sans-Serif" font-size="10.00">::begin</text>
</g>
<!-- Node2 -->
<g id="node2" class="node"><title>Node2</title>
<g id="a_node2"><a xlink:href="../../d6/d2c/a00072.html#ae813a532362b485b1f15cf400f54ff5d" target="_top" xlink:title="Fills the m_workplacesInCity map. ">
<polygon fill="white" stroke="black" points="170,-0 170,-30 328,-30 328,-0 170,-0"/>
<text text-anchor="start" x="178" y="-18" font-family="Helvetica,sans-Serif" font-size="10.00">gengeopop::WorkplacePopulator</text>
<text text-anchor="middle" x="249" y="-7" font-family="Helvetica,sans-Serif" font-size="10.00">::CalculateWorkplacesInCity</text>
</a>
</g>
</g>
<!-- Node1&#45;&gt;Node2 -->
<g id="edge1" class="edge"><title>Node1&#45;&gt;Node2</title>
<path fill="none" stroke="midnightblue" d="M144.22,-15C152.681,-15 161.309,-15 169.794,-15"/>
<polygon fill="midnightblue" stroke="midnightblue" points="144.003,-11.5001 134.003,-15 144.003,-18.5001 144.003,-11.5001"/>
</g>
<!-- Node3 -->
<g id="node3" class="node"><title>Node3</title>
<g id="a_node3"><a xlink:href="../../d6/d2c/a00072.html#ace51c5ac0d05c5fca400d8f93a26ec87" target="_top" xlink:title="Populates the workplaces in geogrid with persons. ">
<polygon fill="white" stroke="black" points="364,-0 364,-30 522,-30 522,-0 364,-0"/>
<text text-anchor="start" x="372" y="-18" font-family="Helvetica,sans-Serif" font-size="10.00">gengeopop::WorkplacePopulator</text>
<text text-anchor="middle" x="443" y="-7" font-family="Helvetica,sans-Serif" font-size="10.00">::Apply</text>
</a>
</g>
</g>
<!-- Node2&#45;&gt;Node3 -->
<g id="edge2" class="edge"><title>Node2&#45;&gt;Node3</title>
<path fill="none" stroke="midnightblue" d="M338.153,-15C346.769,-15 355.47,-15 363.975,-15"/>
<polygon fill="midnightblue" stroke="midnightblue" points="338.094,-11.5001 328.094,-15 338.094,-18.5001 338.094,-11.5001"/>
</g>
</g>
</svg>
