<?xml version="1.0" encoding="UTF-8" standalone="no"?>
<!DOCTYPE svg PUBLIC "-//W3C//DTD SVG 1.1//EN"
 "http://www.w3.org/Graphics/SVG/1.1/DTD/svg11.dtd">
<!-- Generated by graphviz version 2.36.0 (20140111.2315)
 -->
<!-- Title: gengeopop::Collector&lt; InsertIter, T &gt; Pages: 1 -->
<svg width="116pt" height="194pt"
 viewBox="0.00 0.00 116.00 194.00" xmlns="http://www.w3.org/2000/svg" xmlns:xlink="http://www.w3.org/1999/xlink">
<g id="graph0" class="graph" transform="scale(1 1) rotate(0) translate(4 190)">
<title>gengeopop::Collector&lt; InsertIter, T &gt;</title>
<polygon fill="white" stroke="none" points="-4,4 -4,-190 112,-190 112,4 -4,4"/>
<!-- Node1 -->
<g id="node1" class="node"><title>Node1</title>
<polygon fill="#bfbfbf" stroke="black" points="-0.5,-0.5 -0.5,-79.5 108.5,-79.5 108.5,-0.5 -0.5,-0.5"/>
<text text-anchor="start" x="7.5" y="-67.5" font-family="Helvetica,sans-Serif" font-size="10.00">gengeopop::Collector</text>
<text text-anchor="middle" x="54" y="-56.5" font-family="Helvetica,sans-Serif" font-size="10.00">&lt; InsertIter, T &gt;</text>
<polyline fill="none" stroke="black" points="-0.5,-49.5 108.5,-49.5 "/>
<text text-anchor="middle" x="54" y="-37.5" font-family="Helvetica,sans-Serif" font-size="10.00"> </text>
<polyline fill="none" stroke="black" points="-0.5,-30.5 108.5,-30.5 "/>
<text text-anchor="start" x="7.5" y="-18.5" font-family="Helvetica,sans-Serif" font-size="10.00">+ Collector()</text>
<text text-anchor="start" x="7.5" y="-7.5" font-family="Helvetica,sans-Serif" font-size="10.00">+ operator()()</text>
</g>
<!-- Node2 -->
<g id="node2" class="node"><title>Node2</title>
<polygon fill="white" stroke="#bfbfbf" points="26,-128.5 26,-185.5 82,-185.5 82,-128.5 26,-128.5"/>
<text text-anchor="middle" x="54" y="-173.5" font-family="Helvetica,sans-Serif" font-size="10.00">InsertIter</text>
<polyline fill="none" stroke="#bfbfbf" points="26,-166.5 82,-166.5 "/>
<text text-anchor="middle" x="54" y="-154.5" font-family="Helvetica,sans-Serif" font-size="10.00"> </text>
<polyline fill="none" stroke="#bfbfbf" points="26,-147.5 82,-147.5 "/>
<text text-anchor="middle" x="54" y="-135.5" font-family="Helvetica,sans-Serif" font-size="10.00"> </text>
</g>
<!-- Node2&#45;&gt;Node1 -->
<g id="edge1" class="edge"><title>Node2&#45;&gt;Node1</title>
<path fill="none" stroke="#404040" d="M54,-128.455C54,-117.491 54,-104.511 54,-91.9527"/>
<polygon fill="none" stroke="#404040" points="54.0001,-91.6258 50,-85.6258 54,-79.6258 58,-85.6257 54.0001,-91.6258"/>
<text text-anchor="middle" x="70.5" y="-101.5" font-family="Helvetica,sans-Serif" font-size="10.00"> &#45;m_ins</text>
</g>
</g>
</svg>
