<?xml version="1.0" encoding="UTF-8" standalone="no"?>
<!DOCTYPE svg PUBLIC "-//W3C//DTD SVG 1.1//EN"
 "http://www.w3.org/Graphics/SVG/1.1/DTD/svg11.dtd">
<!-- Generated by graphviz version 2.36.0 (20140111.2315)
 -->
<!-- Title: calibration::ConfigFileCalibrationRunner Pages: 1 -->
<svg width="164pt" height="272pt"
 viewBox="0.00 0.00 164.00 272.00" xmlns="http://www.w3.org/2000/svg" xmlns:xlink="http://www.w3.org/1999/xlink">
<g id="graph0" class="graph" transform="scale(1 1) rotate(0) translate(4 268)">
<title>calibration::ConfigFileCalibrationRunner</title>
<polygon fill="white" stroke="none" points="-4,4 -4,-268 160,-268 160,4 -4,4"/>
<!-- Node1 -->
<g id="node1" class="node"><title>Node1</title>
<polygon fill="#bfbfbf" stroke="black" points="-1,-1 -1,-69 157,-69 157,-1 -1,-1"/>
<text text-anchor="start" x="7" y="-57" font-family="Helvetica,sans-Serif" font-size="10.00">calibration::ConfigFileCalibration</text>
<text text-anchor="middle" x="78" y="-46" font-family="Helvetica,sans-Serif" font-size="10.00">Runner</text>
<polyline fill="none" stroke="black" points="-1,-39 157,-39 "/>
<text text-anchor="middle" x="78" y="-27" font-family="Helvetica,sans-Serif" font-size="10.00"> </text>
<polyline fill="none" stroke="black" points="-1,-20 157,-20 "/>
<text text-anchor="start" x="7" y="-8" font-family="Helvetica,sans-Serif" font-size="10.00">+ ConfigFileCalibrationRunner()</text>
</g>
<!-- Node2 -->
<g id="node2" class="node"><title>Node2</title>
<g id="a_node2"><a xlink:href="../../de/d21/a00006.html" target="_top" xlink:title="A runner for the Calibration. ">
<polygon fill="white" stroke="black" points="21.5,-107 21.5,-263 134.5,-263 134.5,-107 21.5,-107"/>
<text text-anchor="start" x="29.5" y="-251" font-family="Helvetica,sans-Serif" font-size="10.00">calibration::Calibration</text>
<text text-anchor="middle" x="78" y="-240" font-family="Helvetica,sans-Serif" font-size="10.00">Runner</text>
<polyline fill="none" stroke="black" points="21.5,-233 134.5,-233 "/>
<text text-anchor="start" x="29.5" y="-221" font-family="Helvetica,sans-Serif" font-size="10.00"># configs</text>
<text text-anchor="start" x="29.5" y="-210" font-family="Helvetica,sans-Serif" font-size="10.00"># multipleResults</text>
<text text-anchor="start" x="29.5" y="-199" font-family="Helvetica,sans-Serif" font-size="10.00"># singleResults</text>
<text text-anchor="start" x="29.5" y="-188" font-family="Helvetica,sans-Serif" font-size="10.00"># calibrator</text>
<polyline fill="none" stroke="black" points="21.5,-181 134.5,-181 "/>
<text text-anchor="start" x="29.5" y="-169" font-family="Helvetica,sans-Serif" font-size="10.00">+ CalibrationRunner()</text>
<text text-anchor="start" x="29.5" y="-158" font-family="Helvetica,sans-Serif" font-size="10.00">+ Run()</text>
<text text-anchor="start" x="29.5" y="-147" font-family="Helvetica,sans-Serif" font-size="10.00">+ WriteResults()</text>
<text text-anchor="start" x="29.5" y="-136" font-family="Helvetica,sans-Serif" font-size="10.00">+ WriteBoxplots()</text>
<text text-anchor="start" x="29.5" y="-125" font-family="Helvetica,sans-Serif" font-size="10.00">+ DisplayBoxplots()</text>
<text text-anchor="start" x="29.5" y="-114" font-family="Helvetica,sans-Serif" font-size="10.00">+ DisplayBoxplots()</text>
</a>
</g>
</g>
<!-- Node2&#45;&gt;Node1 -->
<g id="edge1" class="edge"><title>Node2&#45;&gt;Node1</title>
<path fill="none" stroke="midnightblue" d="M78,-96.7001C78,-86.9319 78,-77.4833 78,-69.0658"/>
<polygon fill="none" stroke="midnightblue" points="74.5001,-96.9656 78,-106.966 81.5001,-96.9656 74.5001,-96.9656"/>
</g>
</g>
</svg>
