<?xml version="1.0" encoding="UTF-8" standalone="no"?>
<!DOCTYPE svg PUBLIC "-//W3C//DTD SVG 1.1//EN"
 "http://www.w3.org/Graphics/SVG/1.1/DTD/svg11.dtd">
<!-- Generated by graphviz version 2.36.0 (20140111.2315)
 -->
<!-- Title: Infector.cpp Pages: 1 -->
<!--zoomable 444 -->
<svg id="main" version="1.1" xmlns="http://www.w3.org/2000/svg" xmlns:xlink="http://www.w3.org/1999/xlink" xml:space="preserve" onload="init(evt)">
<style type="text/css"><![CDATA[
.edge:hover path { stroke: red; }
.edge:hover polygon { stroke: red; fill: red; }
]]></style>
<script type="text/javascript"><![CDATA[
var edges = document.getElementsByTagName('g');
if (edges && edges.length) {
  for (var i=0;i<edges.length;i++) {
    if (edges[i].id.substr(0,4)=='edge') {
      edges[i].setAttribute('class','edge');
    }
  }
}
]]></script>
        <defs>
                <circle id="rim" cx="0" cy="0" r="7"/>
                <circle id="rim2" cx="0" cy="0" r="3.5"/>
                <g id="zoomPlus">
                        <use xlink:href="#rim" fill="#404040">
                                <set attributeName="fill" to="#808080" begin="zoomplus.mouseover" end="zoomplus.mouseout"/>
                        </use>
                        <path d="M-4,0h8M0,-4v8" fill="none" stroke="white" stroke-width="1.5" pointer-events="none"/>
                </g>
                <g id="zoomMin">
                        <use xlink:href="#rim" fill="#404040">
                                <set attributeName="fill" to="#808080" begin="zoomminus.mouseover" end="zoomminus.mouseout"/>
                        </use>
                        <path d="M-4,0h8" fill="none" stroke="white" stroke-width="1.5" pointer-events="none"/>
                </g>
                <g id="dirArrow">
                        <path fill="none" stroke="white" stroke-width="1.5" d="M0,-3.0v7 M-2.5,-0.5L0,-3.0L2.5,-0.5"/>
                </g>
               <g id="resetDef">
                       <use xlink:href="#rim2" fill="#404040">
                               <set attributeName="fill" to="#808080" begin="reset.mouseover" end="reset.mouseout"/>
                       </use>
               </g>
        </defs>

<script type="text/javascript">
var viewWidth = 1861;
var viewHeight = 444;
var sectionId = 'dynsection-0';
</script>
<script xlink:href="../../svgpan.js"/>
<svg id="graph" class="graph">
<g id="viewport">
<title>Infector.cpp</title>
<polygon fill="white" stroke="none" points="-4,4 -4,-440 1857,-440 1857,4 -4,4"/>
<!-- Node1 -->
<g id="node1" class="node"><title>Node1</title>
<polygon fill="#bfbfbf" stroke="black" points="929,-416.5 929,-435.5 997,-435.5 997,-416.5 929,-416.5"/>
<text text-anchor="middle" x="963" y="-423.5" font-family="Helvetica,sans-Serif" font-size="10.00">Infector.cpp</text>
</g>
<!-- Node2 -->
<g id="node2" class="node"><title>Node2</title>
<g id="a_node2"><a xlink:href="../../d8/df7/a00331.html" target="_top" xlink:title="Header for the Infector class. ">
<polygon fill="white" stroke="black" points="699,-248.5 699,-267.5 757,-267.5 757,-248.5 699,-248.5"/>
<text text-anchor="middle" x="728" y="-255.5" font-family="Helvetica,sans-Serif" font-size="10.00">Infector.h</text>
</a>
</g>
</g>
<!-- Node1&#45;&gt;Node2 -->
<g id="edge1" class="edge"><title>Node1&#45;&gt;Node2</title>
<path fill="none" stroke="midnightblue" d="M950.696,-416.309C912.546,-389.36 795.965,-307.01 748.466,-273.457"/>
<polygon fill="midnightblue" stroke="midnightblue" points="750.369,-270.516 740.182,-267.605 746.33,-276.233 750.369,-270.516"/>
</g>
<!-- Node9 -->
<g id="node9" class="node"><title>Node9</title>
<g id="a_node9"><a xlink:href="../../dd/de3/a00201.html" target="_top" xlink:title="Header file for the Calendar class. ">
<polygon fill="white" stroke="black" points="613,-186.5 613,-205.5 717,-205.5 717,-186.5 613,-186.5"/>
<text text-anchor="middle" x="665" y="-193.5" font-family="Helvetica,sans-Serif" font-size="10.00">calendar/Calendar.h</text>
</a>
</g>
</g>
<!-- Node1&#45;&gt;Node9 -->
<g id="edge41" class="edge"><title>Node1&#45;&gt;Node9</title>
<path fill="none" stroke="midnightblue" d="M955.446,-416.242C944.245,-403.424 922.359,-379.013 902,-360 844.521,-306.321 830.851,-291 765,-248 742.179,-233.098 714.449,-219.258 693.983,-209.766"/>
<polygon fill="midnightblue" stroke="midnightblue" points="695.405,-206.568 684.854,-205.597 692.496,-212.935 695.405,-206.568"/>
</g>
<!-- Node33 -->
<g id="node33" class="node"><title>Node33</title>
<g id="a_node33"><a xlink:href="../../d6/d08/a00244.html" target="_top" xlink:title="Header for the core ContactPool class. ">
<polygon fill="white" stroke="black" points="1303,-186.5 1303,-205.5 1403,-205.5 1403,-186.5 1303,-186.5"/>
<text text-anchor="middle" x="1353" y="-193.5" font-family="Helvetica,sans-Serif" font-size="10.00">pool/ContactPool.h</text>
</a>
</g>
</g>
<!-- Node1&#45;&gt;Node33 -->
<g id="edge42" class="edge"><title>Node1&#45;&gt;Node33</title>
<path fill="none" stroke="midnightblue" d="M968.443,-416.334C982.643,-394.4 1023.06,-336.148 1071,-304 1110.93,-277.226 1127.97,-284.823 1173,-268 1225.93,-248.229 1287,-223.791 1322.68,-209.352"/>
<polygon fill="midnightblue" stroke="midnightblue" points="1324.08,-212.558 1332.03,-205.557 1321.45,-206.071 1324.08,-212.558"/>
</g>
<!-- Node36 -->
<g id="node36" class="node"><title>Node36</title>
<g id="a_node36"><a xlink:href="../../d6/d80/a00371.html" target="_top" xlink:title="Header file for the Person class. ">
<polygon fill="white" stroke="black" points="1161,-360.5 1161,-379.5 1235,-379.5 1235,-360.5 1161,-360.5"/>
<text text-anchor="middle" x="1198" y="-367.5" font-family="Helvetica,sans-Serif" font-size="10.00">pop/Person.h</text>
</a>
</g>
</g>
<!-- Node1&#45;&gt;Node36 -->
<g id="edge50" class="edge"><title>Node1&#45;&gt;Node36</title>
<path fill="none" stroke="midnightblue" d="M997.171,-417.148C1037.65,-407.847 1105.3,-392.301 1150.77,-381.854"/>
<polygon fill="midnightblue" stroke="midnightblue" points="1151.72,-385.226 1160.68,-379.576 1150.15,-378.404 1151.72,-385.226"/>
</g>
<!-- Node3 -->
<g id="node3" class="node"><title>Node3</title>
<g id="a_node3"><a xlink:href="../../d2/dc8/a00242.html" target="_top" xlink:title="Header for the ContactLogMode class. ">
<polygon fill="white" stroke="black" points="1193.5,-118.5 1193.5,-137.5 1292.5,-137.5 1292.5,-118.5 1193.5,-118.5"/>
<text text-anchor="middle" x="1243" y="-125.5" font-family="Helvetica,sans-Serif" font-size="10.00">ContactLogMode.h</text>
</a>
</g>
</g>
<!-- Node2&#45;&gt;Node3 -->
<g id="edge2" class="edge"><title>Node2&#45;&gt;Node3</title>
<path fill="none" stroke="midnightblue" d="M757.162,-250.031C790.015,-241.931 844.851,-227.658 891,-212 926.873,-199.828 933.643,-190.643 970,-180 1042.1,-158.895 1127.56,-144.589 1183.41,-136.623"/>
<polygon fill="midnightblue" stroke="midnightblue" points="1184.07,-140.065 1193.48,-135.21 1183.09,-133.133 1184.07,-140.065"/>
</g>
<!-- Node5 -->
<g id="node5" class="node"><title>Node5</title>
<g id="a_node5"><a xlink:href="../../df/d70/a00431.html" target="_top" xlink:title="Header for the TransmissionProfile class. ">
<polygon fill="white" stroke="black" points="735.5,-186.5 735.5,-205.5 846.5,-205.5 846.5,-186.5 735.5,-186.5"/>
<text text-anchor="middle" x="791" y="-193.5" font-family="Helvetica,sans-Serif" font-size="10.00">TransmissionProfile.h</text>
</a>
</g>
</g>
<!-- Node2&#45;&gt;Node5 -->
<g id="edge4" class="edge"><title>Node2&#45;&gt;Node5</title>
<path fill="none" stroke="midnightblue" d="M737.026,-248.403C746.757,-239.136 762.458,-224.183 774.423,-212.788"/>
<polygon fill="midnightblue" stroke="midnightblue" points="777.163,-215.012 781.99,-205.581 772.335,-209.943 777.163,-215.012"/>
</g>
<!-- Node7 -->
<g id="node7" class="node"><title>Node7</title>
<g id="a_node7"><a xlink:href="../../d0/dc5/a00343.html" target="_top" xlink:title="Header file for LocalDiscussion info policy. ">
<polygon fill="white" stroke="black" points="419,-181 419,-211 557,-211 557,-181 419,-181"/>
<text text-anchor="start" x="427" y="-199" font-family="Helvetica,sans-Serif" font-size="10.00">behaviour/information</text>
<text text-anchor="middle" x="488" y="-188" font-family="Helvetica,sans-Serif" font-size="10.00">_policies/LocalDiscussion.h</text>
</a>
</g>
</g>
<!-- Node2&#45;&gt;Node7 -->
<g id="edge6" class="edge"><title>Node2&#45;&gt;Node7</title>
<path fill="none" stroke="midnightblue" d="M698.571,-249.643C662.813,-240.703 601.402,-225.35 554.097,-213.524"/>
<polygon fill="midnightblue" stroke="midnightblue" points="554.782,-210.088 544.231,-211.058 553.084,-216.879 554.782,-210.088"/>
</g>
<!-- Node8 -->
<g id="node8" class="node"><title>Node8</title>
<g id="a_node8"><a xlink:href="../../dd/db5/a00365.html" target="_top" xlink:title="behaviour/information\l_policies/NoLocalInformation.h">
<polygon fill="white" stroke="black" points="146.5,-181 146.5,-211 297.5,-211 297.5,-181 146.5,-181"/>
<text text-anchor="start" x="154.5" y="-199" font-family="Helvetica,sans-Serif" font-size="10.00">behaviour/information</text>
<text text-anchor="middle" x="222" y="-188" font-family="Helvetica,sans-Serif" font-size="10.00">_policies/NoLocalInformation.h</text>
</a>
</g>
</g>
<!-- Node2&#45;&gt;Node8 -->
<g id="edge7" class="edge"><title>Node2&#45;&gt;Node8</title>
<path fill="none" stroke="midnightblue" d="M698.75,-254.596C631.504,-248.917 460.538,-233.61 307.565,-212.165"/>
<polygon fill="midnightblue" stroke="midnightblue" points="307.907,-208.679 297.516,-210.744 306.927,-215.61 307.907,-208.679"/>
</g>
<!-- Node2&#45;&gt;Node9 -->
<g id="edge8" class="edge"><title>Node2&#45;&gt;Node9</title>
<path fill="none" stroke="midnightblue" d="M718.974,-248.403C709.243,-239.136 693.542,-224.183 681.577,-212.788"/>
<polygon fill="midnightblue" stroke="midnightblue" points="683.665,-209.943 674.01,-205.581 678.837,-215.012 683.665,-209.943"/>
</g>
<!-- Node13 -->
<g id="node13" class="node"><title>Node13</title>
<polygon fill="white" stroke="#bfbfbf" points="950,-118.5 950,-137.5 1002,-137.5 1002,-118.5 950,-118.5"/>
<text text-anchor="middle" x="976" y="-125.5" font-family="Helvetica,sans-Serif" font-size="10.00">memory</text>
</g>
<!-- Node2&#45;&gt;Node13 -->
<g id="edge39" class="edge"><title>Node2&#45;&gt;Node13</title>
<path fill="none" stroke="midnightblue" d="M757.238,-249.255C783.641,-241.659 823.125,-228.784 855,-212 876.396,-200.734 879.138,-193.791 899,-180 917.387,-167.234 938.618,-153.225 954.124,-143.125"/>
<polygon fill="midnightblue" stroke="midnightblue" points="956.046,-146.05 962.527,-137.669 952.233,-140.179 956.046,-146.05"/>
</g>
<!-- Node15 -->
<g id="node15" class="node"><title>Node15</title>
<g id="a_node15"><a xlink:href="../../de/df3/a00185.html" target="_top" xlink:title="Contact profile. ">
<polygon fill="white" stroke="black" points="979,-186.5 979,-205.5 1119,-205.5 1119,-186.5 979,-186.5"/>
<text text-anchor="middle" x="1049" y="-193.5" font-family="Helvetica,sans-Serif" font-size="10.00">contact/AgeContactProfile.h</text>
</a>
</g>
</g>
<!-- Node2&#45;&gt;Node15 -->
<g id="edge15" class="edge"><title>Node2&#45;&gt;Node15</title>
<path fill="none" stroke="midnightblue" d="M757.053,-251.57C810.339,-241.609 924.525,-220.266 993.241,-207.422"/>
<polygon fill="midnightblue" stroke="midnightblue" points="994.262,-210.792 1003.45,-205.514 992.976,-203.911 994.262,-210.792"/>
</g>
<!-- Node22 -->
<g id="node22" class="node"><title>Node22</title>
<g id="a_node22"><a xlink:href="../../d9/d21/a00240.html" target="_top" xlink:title="Header for the ContactHandler class. ">
<polygon fill="white" stroke="black" points="0,-186.5 0,-205.5 128,-205.5 128,-186.5 0,-186.5"/>
<text text-anchor="middle" x="64" y="-193.5" font-family="Helvetica,sans-Serif" font-size="10.00">contact/ContactHandler.h</text>
</a>
</g>
</g>
<!-- Node2&#45;&gt;Node22 -->
<g id="edge25" class="edge"><title>Node2&#45;&gt;Node22</title>
<path fill="none" stroke="midnightblue" d="M698.957,-256.092C612.838,-253.119 351.508,-242.082 137,-212 128.527,-210.812 119.561,-209.237 110.922,-207.554"/>
<polygon fill="midnightblue" stroke="midnightblue" points="111.474,-204.095 100.979,-205.545 110.088,-210.956 111.474,-204.095"/>
</g>
<!-- Node32 -->
<g id="node32" class="node"><title>Node32</title>
<polygon fill="white" stroke="#bfbfbf" points="315.5,-186.5 315.5,-205.5 400.5,-205.5 400.5,-186.5 315.5,-186.5"/>
<text text-anchor="middle" x="358" y="-193.5" font-family="Helvetica,sans-Serif" font-size="10.00">spdlog/spdlog.h</text>
</g>
<!-- Node2&#45;&gt;Node32 -->
<g id="edge40" class="edge"><title>Node2&#45;&gt;Node32</title>
<path fill="none" stroke="midnightblue" d="M698.822,-254.255C642.538,-248.655 515.234,-234.508 410,-212 404.961,-210.922 399.694,-209.618 394.529,-208.233"/>
<polygon fill="midnightblue" stroke="midnightblue" points="395.38,-204.837 384.807,-205.511 393.493,-211.578 395.38,-204.837"/>
</g>
<!-- Node4 -->
<g id="node4" class="node"><title>Node4</title>
<polygon fill="white" stroke="#bfbfbf" points="1079.5,-0.5 1079.5,-19.5 1120.5,-19.5 1120.5,-0.5 1079.5,-0.5"/>
<text text-anchor="middle" x="1100" y="-7.5" font-family="Helvetica,sans-Serif" font-size="10.00">string</text>
</g>
<!-- Node3&#45;&gt;Node4 -->
<g id="edge3" class="edge"><title>Node3&#45;&gt;Node4</title>
<path fill="none" stroke="midnightblue" d="M1232.73,-118.402C1216.67,-104.975 1184.57,-78.2574 1157,-56 1144.46,-45.8758 1130.23,-34.6424 1119.13,-25.9318"/>
<polygon fill="midnightblue" stroke="midnightblue" points="1121.02,-22.9648 1110.98,-19.5562 1116.7,-28.4766 1121.02,-22.9648"/>
</g>
<!-- Node6 -->
<g id="node6" class="node"><title>Node6</title>
<polygon fill="white" stroke="#bfbfbf" points="830.5,-113 830.5,-143 931.5,-143 931.5,-113 830.5,-113"/>
<text text-anchor="start" x="838.5" y="-131" font-family="Helvetica,sans-Serif" font-size="10.00">boost/property_tree</text>
<text text-anchor="middle" x="881" y="-120" font-family="Helvetica,sans-Serif" font-size="10.00">/ptree.hpp</text>
</g>
<!-- Node5&#45;&gt;Node6 -->
<g id="edge5" class="edge"><title>Node5&#45;&gt;Node6</title>
<path fill="none" stroke="midnightblue" d="M802.766,-186.372C815.506,-177.029 836.277,-161.797 853.216,-149.375"/>
<polygon fill="midnightblue" stroke="midnightblue" points="855.667,-151.918 861.662,-143.181 851.528,-146.273 855.667,-151.918"/>
</g>
<!-- Node9&#45;&gt;Node6 -->
<g id="edge10" class="edge"><title>Node9&#45;&gt;Node6</title>
<path fill="none" stroke="midnightblue" d="M693.238,-186.372C726.657,-176.16 783.096,-158.915 825.39,-145.992"/>
<polygon fill="midnightblue" stroke="midnightblue" points="826.457,-149.326 834.998,-143.056 824.411,-142.631 826.457,-149.326"/>
</g>
<!-- Node10 -->
<g id="node10" class="node"><title>Node10</title>
<polygon fill="white" stroke="#bfbfbf" points="507.5,-113 507.5,-143 636.5,-143 636.5,-113 507.5,-113"/>
<text text-anchor="start" x="515.5" y="-131" font-family="Helvetica,sans-Serif" font-size="10.00">boost/date_time/gregorian</text>
<text text-anchor="middle" x="572" y="-120" font-family="Helvetica,sans-Serif" font-size="10.00">/gregorian.hpp</text>
</g>
<!-- Node9&#45;&gt;Node10 -->
<g id="edge9" class="edge"><title>Node9&#45;&gt;Node10</title>
<path fill="none" stroke="midnightblue" d="M652.842,-186.372C639.556,-176.943 617.819,-161.517 600.229,-149.034"/>
<polygon fill="midnightblue" stroke="midnightblue" points="602.164,-146.115 591.983,-143.181 598.112,-151.823 602.164,-146.115"/>
</g>
<!-- Node11 -->
<g id="node11" class="node"><title>Node11</title>
<polygon fill="white" stroke="#bfbfbf" points="693,-118.5 693,-137.5 749,-137.5 749,-118.5 693,-118.5"/>
<text text-anchor="middle" x="721" y="-125.5" font-family="Helvetica,sans-Serif" font-size="10.00">algorithm</text>
</g>
<!-- Node9&#45;&gt;Node11 -->
<g id="edge11" class="edge"><title>Node9&#45;&gt;Node11</title>
<path fill="none" stroke="midnightblue" d="M672.321,-186.372C681.076,-176.053 695.926,-158.551 706.928,-145.585"/>
<polygon fill="midnightblue" stroke="midnightblue" points="709.697,-147.731 713.498,-137.841 704.36,-143.202 709.697,-147.731"/>
</g>
<!-- Node12 -->
<g id="node12" class="node"><title>Node12</title>
<polygon fill="white" stroke="#bfbfbf" points="767.5,-118.5 767.5,-137.5 812.5,-137.5 812.5,-118.5 767.5,-118.5"/>
<text text-anchor="middle" x="790" y="-125.5" font-family="Helvetica,sans-Serif" font-size="10.00">cstdlib</text>
</g>
<!-- Node9&#45;&gt;Node12 -->
<g id="edge12" class="edge"><title>Node9&#45;&gt;Node12</title>
<path fill="none" stroke="midnightblue" d="M681.342,-186.372C702.584,-175.156 739.899,-155.453 764.785,-142.314"/>
<polygon fill="midnightblue" stroke="midnightblue" points="766.446,-145.395 773.654,-137.63 763.177,-139.205 766.446,-145.395"/>
</g>
<!-- Node9&#45;&gt;Node13 -->
<g id="edge13" class="edge"><title>Node9&#45;&gt;Node13</title>
<path fill="none" stroke="midnightblue" d="M697.822,-186.453C706.917,-184.215 716.815,-181.899 726,-180 820.45,-160.471 847.328,-170.721 940,-144 942.653,-143.235 945.375,-142.333 948.075,-141.357"/>
<polygon fill="midnightblue" stroke="midnightblue" points="949.579,-144.527 957.606,-137.612 947.018,-138.012 949.579,-144.527"/>
</g>
<!-- Node14 -->
<g id="node14" class="node"><title>Node14</title>
<polygon fill="white" stroke="#bfbfbf" points="1105,-56.5 1105,-75.5 1149,-75.5 1149,-56.5 1105,-56.5"/>
<text text-anchor="middle" x="1127" y="-63.5" font-family="Helvetica,sans-Serif" font-size="10.00">vector</text>
</g>
<!-- Node9&#45;&gt;Node14 -->
<g id="edge14" class="edge"><title>Node9&#45;&gt;Node14</title>
<path fill="none" stroke="midnightblue" d="M664.039,-186.355C662.67,-169.241 662.375,-131.06 684,-112 744.647,-58.5464 965.603,-84.4639 1046,-76 1061.97,-74.3192 1079.69,-72.3604 1094.48,-70.7002"/>
<polygon fill="midnightblue" stroke="midnightblue" points="1095.12,-74.1506 1104.66,-69.5523 1094.33,-67.1947 1095.12,-74.1506"/>
</g>
<!-- Node15&#45;&gt;Node6 -->
<g id="edge23" class="edge"><title>Node15&#45;&gt;Node6</title>
<path fill="none" stroke="midnightblue" d="M1027.04,-186.372C1001.54,-176.354 958.805,-159.566 926.134,-146.731"/>
<polygon fill="midnightblue" stroke="midnightblue" points="927.367,-143.455 916.779,-143.056 924.807,-149.97 927.367,-143.455"/>
</g>
<!-- Node16 -->
<g id="node16" class="node"><title>Node16</title>
<g id="a_node16"><a xlink:href="../../de/dbc/a00249.html" target="_top" xlink:title="Definition of ContactPoolType. ">
<polygon fill="white" stroke="black" points="1693,-118.5 1693,-137.5 1815,-137.5 1815,-118.5 1693,-118.5"/>
<text text-anchor="middle" x="1754" y="-125.5" font-family="Helvetica,sans-Serif" font-size="10.00">pool/ContactPoolType.h</text>
</a>
</g>
</g>
<!-- Node15&#45;&gt;Node16 -->
<g id="edge16" class="edge"><title>Node15&#45;&gt;Node16</title>
<path fill="none" stroke="midnightblue" d="M1111.79,-186.469C1129.32,-184.218 1148.39,-181.892 1166,-180 1352.23,-159.994 1572.3,-142.556 1682.94,-134.218"/>
<polygon fill="midnightblue" stroke="midnightblue" points="1683.26,-137.704 1692.97,-133.464 1682.74,-130.723 1683.26,-137.704"/>
</g>
<!-- Node20 -->
<g id="node20" class="node"><title>Node20</title>
<g id="a_node20"><a xlink:href="../../dc/d52/a00183.html" target="_top" xlink:title="Helpers for age. ">
<polygon fill="white" stroke="black" points="1020.5,-118.5 1020.5,-137.5 1081.5,-137.5 1081.5,-118.5 1020.5,-118.5"/>
<text text-anchor="middle" x="1051" y="-125.5" font-family="Helvetica,sans-Serif" font-size="10.00">pop/Age.h</text>
</a>
</g>
</g>
<!-- Node15&#45;&gt;Node20 -->
<g id="edge22" class="edge"><title>Node15&#45;&gt;Node20</title>
<path fill="none" stroke="midnightblue" d="M1049.26,-186.372C1049.56,-176.643 1050.04,-160.528 1050.43,-147.85"/>
<polygon fill="midnightblue" stroke="midnightblue" points="1053.93,-147.943 1050.73,-137.841 1046.93,-147.73 1053.93,-147.943"/>
</g>
<!-- Node21 -->
<g id="node21" class="node"><title>Node21</title>
<polygon fill="white" stroke="#bfbfbf" points="1412,-118.5 1412,-137.5 1450,-137.5 1450,-118.5 1412,-118.5"/>
<text text-anchor="middle" x="1431" y="-125.5" font-family="Helvetica,sans-Serif" font-size="10.00">array</text>
</g>
<!-- Node15&#45;&gt;Node21 -->
<g id="edge24" class="edge"><title>Node15&#45;&gt;Node21</title>
<path fill="none" stroke="midnightblue" d="M1111.85,-186.471C1209.61,-173.127 1388.35,-148.38 1402,-144 1403.86,-143.403 1405.75,-142.694 1407.62,-141.915"/>
<polygon fill="midnightblue" stroke="midnightblue" points="1409.13,-145.073 1416.66,-137.619 1406.12,-138.751 1409.13,-145.073"/>
</g>
<!-- Node16&#45;&gt;Node4 -->
<g id="edge18" class="edge"><title>Node16&#45;&gt;Node4</title>
<path fill="none" stroke="midnightblue" d="M1749.33,-118.298C1740.39,-102.626 1719.2,-69.988 1691,-56 1640.6,-30.9977 1245,-15.8726 1130.78,-11.9954"/>
<polygon fill="midnightblue" stroke="midnightblue" points="1130.74,-8.49214 1120.63,-11.6554 1130.5,-15.4882 1130.74,-8.49214"/>
</g>
<!-- Node16&#45;&gt;Node14 -->
<g id="edge21" class="edge"><title>Node16&#45;&gt;Node14</title>
<path fill="none" stroke="midnightblue" d="M1692.74,-121.138C1561.77,-108.605 1258.4,-79.5744 1159.1,-70.0717"/>
<polygon fill="midnightblue" stroke="midnightblue" points="1159.36,-66.5811 1149.08,-69.1125 1158.7,-73.5493 1159.36,-66.5811"/>
</g>
<!-- Node17 -->
<g id="node17" class="node"><title>Node17</title>
<polygon fill="white" stroke="#bfbfbf" points="1738.5,-56.5 1738.5,-75.5 1787.5,-75.5 1787.5,-56.5 1738.5,-56.5"/>
<text text-anchor="middle" x="1763" y="-63.5" font-family="Helvetica,sans-Serif" font-size="10.00">cstddef</text>
</g>
<!-- Node16&#45;&gt;Node17 -->
<g id="edge17" class="edge"><title>Node16&#45;&gt;Node17</title>
<path fill="none" stroke="midnightblue" d="M1755.29,-118.403C1756.57,-109.849 1758.58,-96.4497 1760.23,-85.4762"/>
<polygon fill="midnightblue" stroke="midnightblue" points="1763.69,-85.9892 1761.71,-75.5806 1756.77,-84.9507 1763.69,-85.9892"/>
</g>
<!-- Node18 -->
<g id="node18" class="node"><title>Node18</title>
<polygon fill="white" stroke="#bfbfbf" points="1628,-56.5 1628,-75.5 1682,-75.5 1682,-56.5 1628,-56.5"/>
<text text-anchor="middle" x="1655" y="-63.5" font-family="Helvetica,sans-Serif" font-size="10.00">iostream</text>
</g>
<!-- Node16&#45;&gt;Node18 -->
<g id="edge19" class="edge"><title>Node16&#45;&gt;Node18</title>
<path fill="none" stroke="midnightblue" d="M1739.82,-118.403C1723.64,-108.601 1696.97,-92.4385 1677.86,-80.8526"/>
<polygon fill="midnightblue" stroke="midnightblue" points="1679.52,-77.7705 1669.16,-75.5806 1675.9,-83.7569 1679.52,-77.7705"/>
</g>
<!-- Node19 -->
<g id="node19" class="node"><title>Node19</title>
<polygon fill="white" stroke="#bfbfbf" points="1805.5,-56.5 1805.5,-75.5 1852.5,-75.5 1852.5,-56.5 1805.5,-56.5"/>
<text text-anchor="middle" x="1829" y="-63.5" font-family="Helvetica,sans-Serif" font-size="10.00">iterator</text>
</g>
<!-- Node16&#45;&gt;Node19 -->
<g id="edge20" class="edge"><title>Node16&#45;&gt;Node19</title>
<path fill="none" stroke="midnightblue" d="M1764.75,-118.403C1776.55,-108.958 1795.74,-93.6056 1810.08,-82.1342"/>
<polygon fill="midnightblue" stroke="midnightblue" points="1812.65,-84.5606 1818.27,-75.5806 1808.28,-79.0945 1812.65,-84.5606"/>
</g>
<!-- Node23 -->
<g id="node23" class="node"><title>Node23</title>
<g id="a_node23"><a xlink:href="../../d9/d0a/a00390.html" target="_top" xlink:title="Interface of RNManager. ">
<polygon fill="white" stroke="black" points="396.5,-118.5 396.5,-137.5 489.5,-137.5 489.5,-118.5 396.5,-118.5"/>
<text text-anchor="middle" x="443" y="-125.5" font-family="Helvetica,sans-Serif" font-size="10.00">util/RNManager.h</text>
</a>
</g>
</g>
<!-- Node22&#45;&gt;Node23 -->
<g id="edge26" class="edge"><title>Node22&#45;&gt;Node23</title>
<path fill="none" stroke="midnightblue" d="M104.109,-186.477C114.782,-184.286 126.315,-181.987 137,-180 223.772,-163.86 324.845,-147.485 386.352,-137.789"/>
<polygon fill="midnightblue" stroke="midnightblue" points="386.912,-141.244 396.247,-136.234 385.824,-134.329 386.912,-141.244"/>
</g>
<!-- Node31 -->
<g id="node31" class="node"><title>Node31</title>
<polygon fill="white" stroke="#bfbfbf" points="67.5,-56.5 67.5,-75.5 126.5,-75.5 126.5,-56.5 67.5,-56.5"/>
<text text-anchor="middle" x="97" y="-63.5" font-family="Helvetica,sans-Serif" font-size="10.00">functional</text>
</g>
<!-- Node22&#45;&gt;Node31 -->
<g id="edge38" class="edge"><title>Node22&#45;&gt;Node31</title>
<path fill="none" stroke="midnightblue" d="M66.2682,-186.202C71.616,-165.459 85.1035,-113.144 92.3022,-85.2216"/>
<polygon fill="midnightblue" stroke="midnightblue" points="95.6954,-86.0796 94.8028,-75.5224 88.9171,-84.332 95.6954,-86.0796"/>
</g>
<!-- Node23&#45;&gt;Node4 -->
<g id="edge36" class="edge"><title>Node23&#45;&gt;Node4</title>
<path fill="none" stroke="midnightblue" d="M471.669,-118.467C480.1,-116.152 489.376,-113.792 498,-112 607.478,-89.2467 636.662,-94.1279 747,-76 866.496,-56.3675 1007.99,-29.0853 1069.22,-17.0806"/>
<polygon fill="midnightblue" stroke="midnightblue" points="1070.22,-20.4507 1079.36,-15.0884 1068.87,-13.5821 1070.22,-20.4507"/>
</g>
<!-- Node23&#45;&gt;Node14 -->
<g id="edge37" class="edge"><title>Node23&#45;&gt;Node14</title>
<path fill="none" stroke="midnightblue" d="M470.176,-118.428C478.971,-115.967 488.824,-113.537 498,-112 738.728,-71.6864 802.867,-97.4825 1046,-76 1061.99,-74.5871 1079.72,-72.6587 1094.5,-70.9493"/>
<polygon fill="midnightblue" stroke="midnightblue" points="1095.16,-74.3966 1104.68,-69.7538 1094.34,-67.4444 1095.16,-74.3966"/>
</g>
<!-- Node24 -->
<g id="node24" class="node"><title>Node24</title>
<g id="a_node24"><a xlink:href="../../d9/dc1/a00388.html" target="_top" xlink:title="Interface of Random Engine Type. ">
<polygon fill="white" stroke="black" points="945,-56.5 945,-75.5 1037,-75.5 1037,-56.5 945,-56.5"/>
<text text-anchor="middle" x="991" y="-63.5" font-family="Helvetica,sans-Serif" font-size="10.00">RNEngineType.h</text>
</a>
</g>
</g>
<!-- Node23&#45;&gt;Node24 -->
<g id="edge27" class="edge"><title>Node23&#45;&gt;Node24</title>
<path fill="none" stroke="midnightblue" d="M470.481,-118.49C479.207,-116.062 488.942,-113.636 498,-112 580.531,-97.098 823.738,-78.7647 934.68,-70.8921"/>
<polygon fill="midnightblue" stroke="midnightblue" points="934.947,-74.3821 944.675,-70.1857 934.453,-67.3995 934.947,-74.3821"/>
</g>
<!-- Node25 -->
<g id="node25" class="node"><title>Node25</title>
<polygon fill="white" stroke="#bfbfbf" points="253,-56.5 253,-75.5 331,-75.5 331,-56.5 253,-56.5"/>
<text text-anchor="middle" x="292" y="-63.5" font-family="Helvetica,sans-Serif" font-size="10.00">trng/lcg64.hpp</text>
</g>
<!-- Node23&#45;&gt;Node25 -->
<g id="edge29" class="edge"><title>Node23&#45;&gt;Node25</title>
<path fill="none" stroke="midnightblue" d="M421.365,-118.403C395.576,-108.156 352.289,-90.9561 322.96,-79.3021"/>
<polygon fill="midnightblue" stroke="midnightblue" points="324.18,-76.0207 313.594,-75.5806 321.595,-82.526 324.18,-76.0207"/>
</g>
<!-- Node26 -->
<g id="node26" class="node"><title>Node26</title>
<polygon fill="white" stroke="#bfbfbf" points="349,-56.5 349,-75.5 451,-75.5 451,-56.5 349,-56.5"/>
<text text-anchor="middle" x="400" y="-63.5" font-family="Helvetica,sans-Serif" font-size="10.00">trng/lcg64_shift.hpp</text>
</g>
<!-- Node23&#45;&gt;Node26 -->
<g id="edge30" class="edge"><title>Node23&#45;&gt;Node26</title>
<path fill="none" stroke="midnightblue" d="M436.839,-118.403C430.389,-109.403 420.096,-95.0408 412.027,-83.7824"/>
<polygon fill="midnightblue" stroke="midnightblue" points="414.82,-81.6699 406.149,-75.5806 409.13,-85.7476 414.82,-81.6699"/>
</g>
<!-- Node27 -->
<g id="node27" class="node"><title>Node27</title>
<polygon fill="white" stroke="#bfbfbf" points="469.5,-56.5 469.5,-75.5 546.5,-75.5 546.5,-56.5 469.5,-56.5"/>
<text text-anchor="middle" x="508" y="-63.5" font-family="Helvetica,sans-Serif" font-size="10.00">trng/mrg2.hpp</text>
</g>
<!-- Node23&#45;&gt;Node27 -->
<g id="edge31" class="edge"><title>Node23&#45;&gt;Node27</title>
<path fill="none" stroke="midnightblue" d="M452.313,-118.403C462.449,-109.047 478.864,-93.8948 491.252,-82.4599"/>
<polygon fill="midnightblue" stroke="midnightblue" points="493.73,-84.9352 498.704,-75.5806 488.982,-79.7916 493.73,-84.9352"/>
</g>
<!-- Node28 -->
<g id="node28" class="node"><title>Node28</title>
<polygon fill="white" stroke="#bfbfbf" points="564.5,-56.5 564.5,-75.5 641.5,-75.5 641.5,-56.5 564.5,-56.5"/>
<text text-anchor="middle" x="603" y="-63.5" font-family="Helvetica,sans-Serif" font-size="10.00">trng/mrg3.hpp</text>
</g>
<!-- Node23&#45;&gt;Node28 -->
<g id="edge32" class="edge"><title>Node23&#45;&gt;Node28</title>
<path fill="none" stroke="midnightblue" d="M465.924,-118.403C493.37,-108.111 539.516,-90.8064 570.599,-79.1504"/>
<polygon fill="midnightblue" stroke="midnightblue" points="571.984,-82.369 580.118,-75.5806 569.526,-75.8147 571.984,-82.369"/>
</g>
<!-- Node29 -->
<g id="node29" class="node"><title>Node29</title>
<polygon fill="white" stroke="#bfbfbf" points="659.5,-56.5 659.5,-75.5 738.5,-75.5 738.5,-56.5 659.5,-56.5"/>
<text text-anchor="middle" x="699" y="-63.5" font-family="Helvetica,sans-Serif" font-size="10.00">trng/yarn2.hpp</text>
</g>
<!-- Node23&#45;&gt;Node29 -->
<g id="edge33" class="edge"><title>Node23&#45;&gt;Node29</title>
<path fill="none" stroke="midnightblue" d="M473.194,-118.497C481.236,-116.306 489.931,-114.002 498,-112 549.353,-99.2561 608.489,-86.2111 649.257,-77.4702"/>
<polygon fill="midnightblue" stroke="midnightblue" points="650.162,-80.8558 659.21,-75.3434 648.699,-74.0104 650.162,-80.8558"/>
</g>
<!-- Node30 -->
<g id="node30" class="node"><title>Node30</title>
<polygon fill="white" stroke="#bfbfbf" points="155.5,-56.5 155.5,-75.5 234.5,-75.5 234.5,-56.5 155.5,-56.5"/>
<text text-anchor="middle" x="195" y="-63.5" font-family="Helvetica,sans-Serif" font-size="10.00">trng/yarn3.hpp</text>
</g>
<!-- Node23&#45;&gt;Node30 -->
<g id="edge34" class="edge"><title>Node23&#45;&gt;Node30</title>
<path fill="none" stroke="midnightblue" d="M407.731,-118.467C363.66,-107.805 288.187,-89.5452 239.996,-77.886"/>
<polygon fill="midnightblue" stroke="midnightblue" points="240.69,-74.4531 230.147,-75.5034 239.044,-81.2568 240.69,-74.4531"/>
</g>
<!-- Node23&#45;&gt;Node31 -->
<g id="edge35" class="edge"><title>Node23&#45;&gt;Node31</title>
<path fill="none" stroke="midnightblue" d="M396.416,-119.172C337.912,-109.302 234.469,-91.72 146,-76 142.948,-75.4576 139.789,-74.8907 136.615,-74.3167"/>
<polygon fill="midnightblue" stroke="midnightblue" points="136.994,-70.8283 126.529,-72.4808 135.74,-77.7151 136.994,-70.8283"/>
</g>
<!-- Node24&#45;&gt;Node4 -->
<g id="edge28" class="edge"><title>Node24&#45;&gt;Node4</title>
<path fill="none" stroke="midnightblue" d="M1008.51,-56.324C1026.07,-47.6247 1053.33,-34.1202 1073.53,-24.113"/>
<polygon fill="midnightblue" stroke="midnightblue" points="1075.12,-27.23 1082.53,-19.6545 1072.02,-20.9575 1075.12,-27.23"/>
</g>
<!-- Node33&#45;&gt;Node3 -->
<g id="edge43" class="edge"><title>Node33&#45;&gt;Node3</title>
<path fill="none" stroke="midnightblue" d="M1338.62,-186.372C1320.17,-175.304 1287.95,-155.972 1266.06,-142.838"/>
<polygon fill="midnightblue" stroke="midnightblue" points="1267.76,-139.774 1257.38,-137.63 1264.16,-145.777 1267.76,-139.774"/>
</g>
<!-- Node33&#45;&gt;Node13 -->
<g id="edge46" class="edge"><title>Node33&#45;&gt;Node13</title>
<path fill="none" stroke="midnightblue" d="M1322.54,-186.498C1313.41,-184.156 1303.34,-181.775 1294,-180 1169.44,-156.335 1133.34,-177.295 1011,-144 1008.34,-143.276 1005.62,-142.391 1002.93,-141.415"/>
<polygon fill="midnightblue" stroke="midnightblue" points="1004.05,-138.093 993.463,-137.614 1001.44,-144.589 1004.05,-138.093"/>
</g>
<!-- Node33&#45;&gt;Node14 -->
<g id="edge49" class="edge"><title>Node33&#45;&gt;Node14</title>
<path fill="none" stroke="midnightblue" d="M1320.9,-186.488C1275.13,-174.172 1195.34,-151.982 1184,-144 1162.17,-128.635 1145.31,-102.27 1135.77,-84.7372"/>
<polygon fill="midnightblue" stroke="midnightblue" points="1138.73,-82.8449 1131.01,-75.5849 1132.51,-86.0723 1138.73,-82.8449"/>
</g>
<!-- Node33&#45;&gt;Node16 -->
<g id="edge44" class="edge"><title>Node33&#45;&gt;Node16</title>
<path fill="none" stroke="midnightblue" d="M1403.38,-186.708C1476.66,-174.647 1612.53,-152.284 1691.9,-139.221"/>
<polygon fill="midnightblue" stroke="midnightblue" points="1692.94,-142.597 1702.24,-137.519 1691.8,-135.69 1692.94,-142.597"/>
</g>
<!-- Node33&#45;&gt;Node21 -->
<g id="edge45" class="edge"><title>Node33&#45;&gt;Node21</title>
<path fill="none" stroke="midnightblue" d="M1363.2,-186.372C1375.74,-175.758 1397.26,-157.545 1412.7,-144.485"/>
<polygon fill="midnightblue" stroke="midnightblue" points="1415.18,-146.972 1420.55,-137.841 1410.66,-141.629 1415.18,-146.972"/>
</g>
<!-- Node34 -->
<g id="node34" class="node"><title>Node34</title>
<polygon fill="white" stroke="#bfbfbf" points="1468,-118.5 1468,-137.5 1506,-137.5 1506,-118.5 1468,-118.5"/>
<text text-anchor="middle" x="1487" y="-125.5" font-family="Helvetica,sans-Serif" font-size="10.00">tuple</text>
</g>
<!-- Node33&#45;&gt;Node34 -->
<g id="edge47" class="edge"><title>Node33&#45;&gt;Node34</title>
<path fill="none" stroke="midnightblue" d="M1371.5,-186.396C1392.75,-176.445 1428.6,-159.449 1459,-144 1460.13,-143.424 1461.29,-142.83 1462.46,-142.226"/>
<polygon fill="midnightblue" stroke="midnightblue" points="1464.15,-145.289 1471.37,-137.53 1460.89,-139.097 1464.15,-145.289"/>
</g>
<!-- Node35 -->
<g id="node35" class="node"><title>Node35</title>
<polygon fill="white" stroke="#bfbfbf" points="1310.5,-118.5 1310.5,-137.5 1393.5,-137.5 1393.5,-118.5 1310.5,-118.5"/>
<text text-anchor="middle" x="1352" y="-125.5" font-family="Helvetica,sans-Serif" font-size="10.00">unordered_map</text>
</g>
<!-- Node33&#45;&gt;Node35 -->
<g id="edge48" class="edge"><title>Node33&#45;&gt;Node35</title>
<path fill="none" stroke="midnightblue" d="M1352.87,-186.372C1352.72,-176.643 1352.48,-160.528 1352.29,-147.85"/>
<polygon fill="midnightblue" stroke="midnightblue" points="1355.79,-147.787 1352.13,-137.841 1348.79,-147.893 1355.79,-147.787"/>
</g>
<!-- Node36&#45;&gt;Node6 -->
<g id="edge71" class="edge"><title>Node36&#45;&gt;Node6</title>
<path fill="none" stroke="midnightblue" d="M1160.96,-360.682C1134.48,-353.628 1098.78,-341.783 1071,-324 995.157,-275.445 926.968,-191.158 897.047,-151.216"/>
<polygon fill="midnightblue" stroke="midnightblue" points="899.854,-149.126 891.09,-143.172 894.228,-153.292 899.854,-149.126"/>
</g>
<!-- Node36&#45;&gt;Node16 -->
<g id="edge52" class="edge"><title>Node36&#45;&gt;Node16</title>
<path fill="none" stroke="midnightblue" d="M1235.21,-363.544C1346.15,-346.495 1671.08,-290.621 1738,-212 1753.2,-194.139 1755.66,-166.228 1755.36,-147.778"/>
<polygon fill="midnightblue" stroke="midnightblue" points="1758.85,-147.52 1754.91,-137.687 1751.86,-147.835 1758.85,-147.52"/>
</g>
<!-- Node37 -->
<g id="node37" class="node"><title>Node37</title>
<g id="a_node37"><a xlink:href="../../dc/d0f/a00303.html" target="_top" xlink:title="Header for the Health class. ">
<polygon fill="white" stroke="black" points="1080,-304.5 1080,-323.5 1170,-323.5 1170,-304.5 1080,-304.5"/>
<text text-anchor="middle" x="1125" y="-311.5" font-family="Helvetica,sans-Serif" font-size="10.00">disease/Health.h</text>
</a>
</g>
</g>
<!-- Node36&#45;&gt;Node37 -->
<g id="edge51" class="edge"><title>Node36&#45;&gt;Node37</title>
<path fill="none" stroke="midnightblue" d="M1186.27,-360.324C1175.16,-352.107 1158.26,-339.602 1145.02,-329.807"/>
<polygon fill="midnightblue" stroke="midnightblue" points="1147.06,-326.967 1136.94,-323.834 1142.9,-332.595 1147.06,-326.967"/>
</g>
<!-- Node38 -->
<g id="node38" class="node"><title>Node38</title>
<g id="a_node38"><a xlink:href="../../d2/d41/a00318.html" target="_top" xlink:title="Container for the contact pools of various type (household, work, ...). ">
<polygon fill="white" stroke="black" points="1457.5,-248.5 1457.5,-267.5 1576.5,-267.5 1576.5,-248.5 1457.5,-248.5"/>
<text text-anchor="middle" x="1517" y="-255.5" font-family="Helvetica,sans-Serif" font-size="10.00">pool/IdSubscriptArray.h</text>
</a>
</g>
</g>
<!-- Node36&#45;&gt;Node38 -->
<g id="edge53" class="edge"><title>Node36&#45;&gt;Node38</title>
<path fill="none" stroke="midnightblue" d="M1235.03,-362.02C1272.06,-354.524 1330.34,-341.318 1379,-324 1419.89,-309.448 1464.98,-286.891 1492.13,-272.541"/>
<polygon fill="midnightblue" stroke="midnightblue" points="1494.11,-275.452 1501.29,-267.655 1490.82,-269.277 1494.11,-275.452"/>
</g>
<!-- Node42 -->
<g id="node42" class="node"><title>Node42</title>
<g id="a_node42"><a xlink:href="../../dd/d07/a00433.html" target="_top" xlink:title="pool/TravellerIndex.h">
<polygon fill="white" stroke="black" points="1263.5,-304.5 1263.5,-323.5 1370.5,-323.5 1370.5,-304.5 1263.5,-304.5"/>
<text text-anchor="middle" x="1317" y="-311.5" font-family="Helvetica,sans-Serif" font-size="10.00">pool/TravellerIndex.h</text>
</a>
</g>
</g>
<!-- Node36&#45;&gt;Node42 -->
<g id="edge61" class="edge"><title>Node36&#45;&gt;Node42</title>
<path fill="none" stroke="midnightblue" d="M1216.86,-360.444C1236.27,-351.636 1266.73,-337.812 1288.96,-327.722"/>
<polygon fill="midnightblue" stroke="midnightblue" points="1290.57,-330.836 1298.23,-323.516 1287.68,-324.462 1290.57,-330.836"/>
</g>
<!-- Node45 -->
<g id="node45" class="node"><title>Node45</title>
<g id="a_node45"><a xlink:href="../../d0/dc5/a00435.html" target="_top" xlink:title="pool/TravellerProfile.h">
<polygon fill="white" stroke="black" points="1053.5,-248.5 1053.5,-267.5 1164.5,-267.5 1164.5,-248.5 1053.5,-248.5"/>
<text text-anchor="middle" x="1109" y="-255.5" font-family="Helvetica,sans-Serif" font-size="10.00">pool/TravellerProfile.h</text>
</a>
</g>
</g>
<!-- Node36&#45;&gt;Node45 -->
<g id="edge66" class="edge"><title>Node36&#45;&gt;Node45</title>
<path fill="none" stroke="midnightblue" d="M1197.37,-360.142C1196.01,-346.761 1191.81,-321.138 1179,-304 1168.81,-290.367 1153.17,-279.752 1139.26,-272.264"/>
<polygon fill="midnightblue" stroke="midnightblue" points="1140.5,-268.967 1129.99,-267.581 1137.34,-275.215 1140.5,-268.967"/>
</g>
<!-- Node38&#45;&gt;Node16 -->
<g id="edge55" class="edge"><title>Node38&#45;&gt;Node16</title>
<path fill="none" stroke="midnightblue" d="M1576.85,-255.944C1618.34,-252.366 1672.77,-241.692 1711,-212 1731.89,-195.773 1743.61,-166.559 1749.37,-147.476"/>
<polygon fill="midnightblue" stroke="midnightblue" points="1752.81,-148.156 1752.1,-137.585 1746.07,-146.296 1752.81,-148.156"/>
</g>
<!-- Node38&#45;&gt;Node18 -->
<g id="edge59" class="edge"><title>Node38&#45;&gt;Node18</title>
<path fill="none" stroke="midnightblue" d="M1573.61,-248.438C1614.37,-240.982 1664.32,-228.733 1677,-212 1691.84,-192.404 1671.78,-119.87 1661.02,-85.4096"/>
<polygon fill="midnightblue" stroke="midnightblue" points="1664.29,-84.1355 1657.91,-75.6745 1657.62,-86.2653 1664.29,-84.1355"/>
</g>
<!-- Node38&#45;&gt;Node21 -->
<g id="edge56" class="edge"><title>Node38&#45;&gt;Node21</title>
<path fill="none" stroke="midnightblue" d="M1496.63,-248.4C1481.48,-240.956 1461.51,-228.743 1450,-212 1436.75,-192.722 1432.62,-165.561 1431.4,-147.63"/>
<polygon fill="midnightblue" stroke="midnightblue" points="1434.89,-147.419 1430.95,-137.583 1427.9,-147.728 1434.89,-147.419"/>
</g>
<!-- Node38&#45;&gt;Node33 -->
<g id="edge54" class="edge"><title>Node38&#45;&gt;Node33</title>
<path fill="none" stroke="midnightblue" d="M1493.5,-248.403C1465.37,-238.111 1418.07,-220.806 1386.21,-209.15"/>
<polygon fill="midnightblue" stroke="midnightblue" points="1387.05,-205.73 1376.45,-205.581 1384.64,-212.303 1387.05,-205.73"/>
</g>
<!-- Node39 -->
<g id="node39" class="node"><title>Node39</title>
<polygon fill="white" stroke="#bfbfbf" points="1459.5,-186.5 1459.5,-205.5 1500.5,-205.5 1500.5,-186.5 1459.5,-186.5"/>
<text text-anchor="middle" x="1480" y="-193.5" font-family="Helvetica,sans-Serif" font-size="10.00">bitset</text>
</g>
<!-- Node38&#45;&gt;Node39 -->
<g id="edge57" class="edge"><title>Node38&#45;&gt;Node39</title>
<path fill="none" stroke="midnightblue" d="M1511.7,-248.403C1506.2,-239.493 1497.47,-225.325 1490.56,-214.118"/>
<polygon fill="midnightblue" stroke="midnightblue" points="1493.52,-212.255 1485.29,-205.581 1487.56,-215.929 1493.52,-212.255"/>
</g>
<!-- Node40 -->
<g id="node40" class="node"><title>Node40</title>
<polygon fill="white" stroke="#bfbfbf" points="1518.5,-186.5 1518.5,-205.5 1591.5,-205.5 1591.5,-186.5 1518.5,-186.5"/>
<text text-anchor="middle" x="1555" y="-193.5" font-family="Helvetica,sans-Serif" font-size="10.00">initializer_list</text>
</g>
<!-- Node38&#45;&gt;Node40 -->
<g id="edge58" class="edge"><title>Node38&#45;&gt;Node40</title>
<path fill="none" stroke="midnightblue" d="M1522.44,-248.403C1528.09,-239.493 1537.06,-225.325 1544.16,-214.118"/>
<polygon fill="midnightblue" stroke="midnightblue" points="1547.17,-215.901 1549.57,-205.581 1541.26,-212.156 1547.17,-215.901"/>
</g>
<!-- Node41 -->
<g id="node41" class="node"><title>Node41</title>
<polygon fill="white" stroke="#bfbfbf" points="1609.5,-186.5 1609.5,-205.5 1668.5,-205.5 1668.5,-186.5 1609.5,-186.5"/>
<text text-anchor="middle" x="1639" y="-193.5" font-family="Helvetica,sans-Serif" font-size="10.00">stdexcept</text>
</g>
<!-- Node38&#45;&gt;Node41 -->
<g id="edge60" class="edge"><title>Node38&#45;&gt;Node41</title>
<path fill="none" stroke="midnightblue" d="M1534.48,-248.403C1554.86,-238.379 1588.78,-221.701 1612.42,-210.07"/>
<polygon fill="midnightblue" stroke="midnightblue" points="1614.12,-213.135 1621.55,-205.581 1611.03,-206.853 1614.12,-213.135"/>
</g>
<!-- Node42&#45;&gt;Node33 -->
<g id="edge62" class="edge"><title>Node42&#45;&gt;Node33</title>
<path fill="none" stroke="midnightblue" d="M1307.37,-304.128C1294.97,-291.576 1276.12,-267.94 1286,-248 1294.09,-231.668 1310.2,-219.147 1324.59,-210.598"/>
<polygon fill="midnightblue" stroke="midnightblue" points="1326.64,-213.461 1333.7,-205.555 1323.25,-207.337 1326.64,-213.461"/>
</g>
<!-- Node42&#45;&gt;Node38 -->
<g id="edge63" class="edge"><title>Node42&#45;&gt;Node38</title>
<path fill="none" stroke="midnightblue" d="M1348.69,-304.444C1383.07,-295.162 1438.08,-280.309 1475.79,-270.127"/>
<polygon fill="midnightblue" stroke="midnightblue" points="1476.72,-273.502 1485.46,-267.516 1474.89,-266.744 1476.72,-273.502"/>
</g>
<!-- Node43 -->
<g id="node43" class="node"><title>Node43</title>
<polygon fill="white" stroke="#bfbfbf" points="1356.5,-248.5 1356.5,-267.5 1439.5,-267.5 1439.5,-248.5 1356.5,-248.5"/>
<text text-anchor="middle" x="1398" y="-255.5" font-family="Helvetica,sans-Serif" font-size="10.00">spdlog/logger.h</text>
</g>
<!-- Node42&#45;&gt;Node43 -->
<g id="edge64" class="edge"><title>Node42&#45;&gt;Node43</title>
<path fill="none" stroke="midnightblue" d="M1330.01,-304.324C1342.53,-295.979 1361.68,-283.212 1376.47,-273.352"/>
<polygon fill="midnightblue" stroke="midnightblue" points="1378.64,-276.114 1385.02,-267.655 1374.76,-270.289 1378.64,-276.114"/>
</g>
<!-- Node44 -->
<g id="node44" class="node"><title>Node44</title>
<polygon fill="white" stroke="#bfbfbf" points="1295.5,-248.5 1295.5,-267.5 1338.5,-267.5 1338.5,-248.5 1295.5,-248.5"/>
<text text-anchor="middle" x="1317" y="-255.5" font-family="Helvetica,sans-Serif" font-size="10.00">queue</text>
</g>
<!-- Node42&#45;&gt;Node44 -->
<g id="edge65" class="edge"><title>Node42&#45;&gt;Node44</title>
<path fill="none" stroke="midnightblue" d="M1317,-304.083C1317,-297.006 1317,-286.861 1317,-277.986"/>
<polygon fill="midnightblue" stroke="midnightblue" points="1320.5,-277.751 1317,-267.751 1313.5,-277.751 1320.5,-277.751"/>
</g>
<!-- Node45&#45;&gt;Node14 -->
<g id="edge70" class="edge"><title>Node45&#45;&gt;Node14</title>
<path fill="none" stroke="midnightblue" d="M1113.88,-248.372C1118.56,-239.552 1125.31,-225.299 1128,-212 1137,-167.526 1132.83,-113.795 1129.58,-85.8917"/>
<polygon fill="midnightblue" stroke="midnightblue" points="1133,-85.0986 1128.28,-75.6165 1126.06,-85.9765 1133,-85.0986"/>
</g>
<!-- Node45&#45;&gt;Node23 -->
<g id="edge69" class="edge"><title>Node45&#45;&gt;Node23</title>
<path fill="none" stroke="midnightblue" d="M1053.21,-256.231C939.297,-253.982 683.943,-245.272 604,-212 583.615,-203.516 584.864,-191.474 566,-180 538.626,-163.349 504.838,-149.779 479.606,-140.834"/>
<polygon fill="midnightblue" stroke="midnightblue" points="480.64,-137.488 470.045,-137.52 478.348,-144.102 480.64,-137.488"/>
</g>
<!-- Node45&#45;&gt;Node33 -->
<g id="edge67" class="edge"><title>Node45&#45;&gt;Node33</title>
<path fill="none" stroke="midnightblue" d="M1144.49,-248.482C1181.75,-239.512 1242.03,-224.925 1294,-212 1299.06,-210.741 1304.37,-209.41 1309.63,-208.081"/>
<polygon fill="midnightblue" stroke="midnightblue" points="1310.79,-211.396 1319.63,-205.548 1309.08,-204.611 1310.79,-211.396"/>
</g>
<!-- Node46 -->
<g id="node46" class="node"><title>Node46</title>
<polygon fill="white" stroke="#bfbfbf" points="1175,-186.5 1175,-205.5 1285,-205.5 1285,-186.5 1175,-186.5"/>
<text text-anchor="middle" x="1230" y="-193.5" font-family="Helvetica,sans-Serif" font-size="10.00">trng/discrete_dist.hpp</text>
</g>
<!-- Node45&#45;&gt;Node46 -->
<g id="edge68" class="edge"><title>Node45&#45;&gt;Node46</title>
<path fill="none" stroke="midnightblue" d="M1126.34,-248.403C1146.55,-238.379 1180.19,-221.701 1203.64,-210.07"/>
<polygon fill="midnightblue" stroke="midnightblue" points="1205.29,-213.159 1212.7,-205.581 1202.18,-206.887 1205.29,-213.159"/>
</g>
</g>
</svg>
        <g id="navigator" transform="translate(0 0)" fill="#404254">
                <rect fill="#f2f5e9" fill-opacity="0.5" stroke="#606060" stroke-width=".5" x="0" y="0" width="60" height="60"/>
                <use id="zoomplus" xlink:href="#zoomPlus" x="17" y="9" onmousedown="handleZoom(evt,'in')"/>
                <use id="zoomminus" xlink:href="#zoomMin" x="42" y="9" onmousedown="handleZoom(evt,'out')"/>
                <use id="reset" xlink:href="#resetDef" x="30" y="36" onmousedown="handleReset()"/>
                <g id="arrowUp" xlink:href="#dirArrow" transform="translate(30 24)" onmousedown="handlePan(0,-1)">
                  <use xlink:href="#rim" fill="#404040">
                        <set attributeName="fill" to="#808080" begin="arrowUp.mouseover" end="arrowUp.mouseout"/>
                  </use>
                  <path fill="none" stroke="white" stroke-width="1.5" d="M0,-3.0v7 M-2.5,-0.5L0,-3.0L2.5,-0.5"/>
                </g>
                <g id="arrowRight" xlink:href="#dirArrow" transform="rotate(90) translate(36 -43)" onmousedown="handlePan(1,0)">
                  <use xlink:href="#rim" fill="#404040">
                        <set attributeName="fill" to="#808080" begin="arrowRight.mouseover" end="arrowRight.mouseout"/>
                  </use>
                  <path fill="none" stroke="white" stroke-width="1.5" d="M0,-3.0v7 M-2.5,-0.5L0,-3.0L2.5,-0.5"/>
                </g>
                <g id="arrowDown" xlink:href="#dirArrow" transform="rotate(180) translate(-30 -48)" onmousedown="handlePan(0,1)">
                  <use xlink:href="#rim" fill="#404040">
                        <set attributeName="fill" to="#808080" begin="arrowDown.mouseover" end="arrowDown.mouseout"/>
                  </use>
                  <path fill="none" stroke="white" stroke-width="1.5" d="M0,-3.0v7 M-2.5,-0.5L0,-3.0L2.5,-0.5"/>
                </g>
                <g id="arrowLeft" xlink:href="#dirArrow" transform="rotate(270) translate(-36 17)" onmousedown="handlePan(-1,0)">
                  <use xlink:href="#rim" fill="#404040">
                        <set attributeName="fill" to="#808080" begin="arrowLeft.mouseover" end="arrowLeft.mouseout"/>
                  </use>
                  <path fill="none" stroke="white" stroke-width="1.5" d="M0,-3.0v7 M-2.5,-0.5L0,-3.0L2.5,-0.5"/>
                </g>
        </g>
        <svg viewBox="0 0 15 15" width="100%" height="30px" preserveAspectRatio="xMaxYMin meet">
         <g id="arrow_out" transform="scale(0.3 0.3)">
          <a xlink:href="a00714_org.svg" target="_base">
           <rect id="button" ry="5" rx="5" y="6" x="6" height="38" width="38"
                fill="#f2f5e9" fill-opacity="0.5" stroke="#606060" stroke-width="1.0"/>
           <path id="arrow"
             d="M 11.500037,31.436501 C 11.940474,20.09759 22.043105,11.32322 32.158766,21.979434 L 37.068811,17.246167 C 37.068811,17.246167 37.088388,32 37.088388,32 L 22.160133,31.978069 C 22.160133,31.978069 26.997745,27.140456 26.997745,27.140456 C 18.528582,18.264221 13.291696,25.230495 11.500037,31.436501 z"
             style="fill:#404040;"/>
          </a>
         </g>
        </svg>
</svg>
