<?xml version="1.0" encoding="UTF-8" standalone="no"?>
<!DOCTYPE svg PUBLIC "-//W3C//DTD SVG 1.1//EN"
 "http://www.w3.org/Graphics/SVG/1.1/DTD/svg11.dtd">
<!-- Generated by graphviz version 2.36.0 (20140111.2315)
 -->
<!-- Title: stride::viewers::AdoptedViewer Pages: 1 -->
<svg width="380pt" height="752pt"
 viewBox="0.00 0.00 380.00 752.00" xmlns="http://www.w3.org/2000/svg" xmlns:xlink="http://www.w3.org/1999/xlink">
<g id="graph0" class="graph" transform="scale(1 1) rotate(0) translate(4 748)">
<title>stride::viewers::AdoptedViewer</title>
<polygon fill="white" stroke="none" points="-4,4 -4,-748 376,-748 376,4 -4,4"/>
<!-- Node1 -->
<g id="node1" class="node"><title>Node1</title>
<polygon fill="#bfbfbf" stroke="black" points="143,-0.5 143,-79.5 265,-79.5 265,-0.5 143,-0.5"/>
<text text-anchor="start" x="151" y="-67.5" font-family="Helvetica,sans-Serif" font-size="10.00">stride::viewers::Adopted</text>
<text text-anchor="middle" x="204" y="-56.5" font-family="Helvetica,sans-Serif" font-size="10.00">Viewer</text>
<polyline fill="none" stroke="black" points="143,-49.5 265,-49.5 "/>
<text text-anchor="middle" x="204" y="-37.5" font-family="Helvetica,sans-Serif" font-size="10.00"> </text>
<polyline fill="none" stroke="black" points="143,-30.5 265,-30.5 "/>
<text text-anchor="start" x="151" y="-18.5" font-family="Helvetica,sans-Serif" font-size="10.00">+ AdoptedViewer()</text>
<text text-anchor="start" x="151" y="-7.5" font-family="Helvetica,sans-Serif" font-size="10.00">+ Update()</text>
</g>
<!-- Node2 -->
<g id="node2" class="node"><title>Node2</title>
<g id="a_node2"><a xlink:href="../../d0/de8/a00133.html" target="_top" xlink:title="Produces a file with daily count of person having adopted a belief. ">
<polygon fill="white" stroke="black" points="-0.5,-129 -0.5,-219 130.5,-219 130.5,-129 -0.5,-129"/>
<text text-anchor="middle" x="65" y="-207" font-family="Helvetica,sans-Serif" font-size="10.00">stride::output::AdoptedFile</text>
<polyline fill="none" stroke="black" points="-0.5,-200 130.5,-200 "/>
<text text-anchor="middle" x="65" y="-188" font-family="Helvetica,sans-Serif" font-size="10.00"> </text>
<polyline fill="none" stroke="black" points="-0.5,-181 130.5,-181 "/>
<text text-anchor="start" x="7.5" y="-169" font-family="Helvetica,sans-Serif" font-size="10.00">+ AdoptedFile()</text>
<text text-anchor="start" x="7.5" y="-158" font-family="Helvetica,sans-Serif" font-size="10.00">+ ~AdoptedFile()</text>
<text text-anchor="start" x="7.5" y="-147" font-family="Helvetica,sans-Serif" font-size="10.00">+ Print()</text>
<text text-anchor="start" x="7.5" y="-136" font-family="Helvetica,sans-Serif" font-size="10.00">&#45; Initialize()</text>
</a>
</g>
</g>
<!-- Node2&#45;&gt;Node1 -->
<g id="edge1" class="edge"><title>Node2&#45;&gt;Node1</title>
<path fill="none" stroke="#404040" d="M98.3836,-128.971C107.215,-118.379 117.068,-107.414 127,-98 130.838,-94.3619 134.911,-90.7482 139.101,-87.2089"/>
<polygon fill="none" stroke="#404040" points="139.122,-87.192 141.237,-80.2981 148.414,-79.5993 146.299,-86.4932 139.122,-87.192"/>
<text text-anchor="middle" x="163.5" y="-101.5" font-family="Helvetica,sans-Serif" font-size="10.00"> &#45;m_adopted_file</text>
</g>
<!-- Node3 -->
<g id="node3" class="node"><title>Node3</title>
<g id="a_node3"><a xlink:title="STL class. ">
<polygon fill="white" stroke="#bfbfbf" points="28,-268.5 28,-325.5 102,-325.5 102,-268.5 28,-268.5"/>
<text text-anchor="middle" x="65" y="-313.5" font-family="Helvetica,sans-Serif" font-size="10.00">std::ofstream</text>
<polyline fill="none" stroke="#bfbfbf" points="28,-306.5 102,-306.5 "/>
<text text-anchor="middle" x="65" y="-294.5" font-family="Helvetica,sans-Serif" font-size="10.00"> </text>
<polyline fill="none" stroke="#bfbfbf" points="28,-287.5 102,-287.5 "/>
<text text-anchor="middle" x="65" y="-275.5" font-family="Helvetica,sans-Serif" font-size="10.00"> </text>
</a>
</g>
</g>
<!-- Node3&#45;&gt;Node2 -->
<g id="edge2" class="edge"><title>Node3&#45;&gt;Node2</title>
<path fill="none" stroke="#404040" d="M65,-268.24C65,-257.242 65,-244.179 65,-231.364"/>
<polygon fill="none" stroke="#404040" points="65.0001,-231.23 61,-225.23 65,-219.23 69,-225.23 65.0001,-231.23"/>
<text text-anchor="middle" x="91.5" y="-241.5" font-family="Helvetica,sans-Serif" font-size="10.00"> &#45;m_fstream</text>
</g>
<!-- Node4 -->
<g id="node4" class="node"><title>Node4</title>
<g id="a_node4"><a xlink:title="STL class. ">
<polygon fill="white" stroke="#bfbfbf" points="13.5,-375 13.5,-443 116.5,-443 116.5,-375 13.5,-375"/>
<text text-anchor="start" x="21.5" y="-431" font-family="Helvetica,sans-Serif" font-size="10.00">std::basic_ofstream</text>
<text text-anchor="middle" x="65" y="-420" font-family="Helvetica,sans-Serif" font-size="10.00">&lt; char &gt;</text>
<polyline fill="none" stroke="#bfbfbf" points="13.5,-413 116.5,-413 "/>
<text text-anchor="middle" x="65" y="-401" font-family="Helvetica,sans-Serif" font-size="10.00"> </text>
<polyline fill="none" stroke="#bfbfbf" points="13.5,-394 116.5,-394 "/>
<text text-anchor="middle" x="65" y="-382" font-family="Helvetica,sans-Serif" font-size="10.00"> </text>
</a>
</g>
</g>
<!-- Node4&#45;&gt;Node3 -->
<g id="edge3" class="edge"><title>Node4&#45;&gt;Node3</title>
<path fill="none" stroke="midnightblue" d="M65,-364.743C65,-351.634 65,-337.591 65,-325.784"/>
<polygon fill="none" stroke="midnightblue" points="61.5001,-364.996 65,-374.996 68.5001,-364.996 61.5001,-364.996"/>
</g>
<!-- Node5 -->
<g id="node5" class="node"><title>Node5</title>
<g id="a_node5"><a xlink:title="STL class. ">
<polygon fill="white" stroke="#bfbfbf" points="15,-483 15,-551 115,-551 115,-483 15,-483"/>
<text text-anchor="start" x="23" y="-539" font-family="Helvetica,sans-Serif" font-size="10.00">std::basic_ostream</text>
<text text-anchor="middle" x="65" y="-528" font-family="Helvetica,sans-Serif" font-size="10.00">&lt; Char &gt;</text>
<polyline fill="none" stroke="#bfbfbf" points="15,-521 115,-521 "/>
<text text-anchor="middle" x="65" y="-509" font-family="Helvetica,sans-Serif" font-size="10.00"> </text>
<polyline fill="none" stroke="#bfbfbf" points="15,-502 115,-502 "/>
<text text-anchor="middle" x="65" y="-490" font-family="Helvetica,sans-Serif" font-size="10.00"> </text>
</a>
</g>
</g>
<!-- Node5&#45;&gt;Node4 -->
<g id="edge4" class="edge"><title>Node5&#45;&gt;Node4</title>
<path fill="none" stroke="midnightblue" d="M65,-472.696C65,-462.828 65,-452.495 65,-443.13"/>
<polygon fill="none" stroke="midnightblue" points="61.5001,-472.752 65,-482.752 68.5001,-472.752 61.5001,-472.752"/>
</g>
<!-- Node6 -->
<g id="node6" class="node"><title>Node6</title>
<g id="a_node6"><a xlink:title="STL class. ">
<polygon fill="white" stroke="#bfbfbf" points="7,-590.5 7,-647.5 123,-647.5 123,-590.5 7,-590.5"/>
<text text-anchor="middle" x="65" y="-635.5" font-family="Helvetica,sans-Serif" font-size="10.00">std::basic_ios&lt; Char &gt;</text>
<polyline fill="none" stroke="#bfbfbf" points="7,-628.5 123,-628.5 "/>
<text text-anchor="middle" x="65" y="-616.5" font-family="Helvetica,sans-Serif" font-size="10.00"> </text>
<polyline fill="none" stroke="#bfbfbf" points="7,-609.5 123,-609.5 "/>
<text text-anchor="middle" x="65" y="-597.5" font-family="Helvetica,sans-Serif" font-size="10.00"> </text>
</a>
</g>
</g>
<!-- Node6&#45;&gt;Node5 -->
<g id="edge5" class="edge"><title>Node6&#45;&gt;Node5</title>
<path fill="none" stroke="midnightblue" d="M65,-580.337C65,-570.755 65,-560.528 65,-551.187"/>
<polygon fill="none" stroke="midnightblue" points="61.5001,-580.41 65,-590.41 68.5001,-580.41 61.5001,-580.41"/>
</g>
<!-- Node7 -->
<g id="node7" class="node"><title>Node7</title>
<g id="a_node7"><a xlink:title="STL class. ">
<polygon fill="white" stroke="#bfbfbf" points="27.5,-686.5 27.5,-743.5 102.5,-743.5 102.5,-686.5 27.5,-686.5"/>
<text text-anchor="middle" x="65" y="-731.5" font-family="Helvetica,sans-Serif" font-size="10.00">std::ios_base</text>
<polyline fill="none" stroke="#bfbfbf" points="27.5,-724.5 102.5,-724.5 "/>
<text text-anchor="middle" x="65" y="-712.5" font-family="Helvetica,sans-Serif" font-size="10.00"> </text>
<polyline fill="none" stroke="#bfbfbf" points="27.5,-705.5 102.5,-705.5 "/>
<text text-anchor="middle" x="65" y="-693.5" font-family="Helvetica,sans-Serif" font-size="10.00"> </text>
</a>
</g>
</g>
<!-- Node7&#45;&gt;Node6 -->
<g id="edge6" class="edge"><title>Node7&#45;&gt;Node6</title>
<path fill="none" stroke="midnightblue" d="M65,-676.277C65,-666.772 65,-656.741 65,-647.822"/>
<polygon fill="none" stroke="midnightblue" points="61.5001,-676.305 65,-686.305 68.5001,-676.305 61.5001,-676.305"/>
</g>
<!-- Node8 -->
<g id="node8" class="node"><title>Node8</title>
<polygon fill="white" stroke="#bfbfbf" points="148.5,-140 148.5,-208 259.5,-208 259.5,-140 148.5,-140"/>
<text text-anchor="start" x="156.5" y="-196" font-family="Helvetica,sans-Serif" font-size="10.00">std::vector&lt; unsigned</text>
<text text-anchor="middle" x="204" y="-185" font-family="Helvetica,sans-Serif" font-size="10.00"> int &gt;</text>
<polyline fill="none" stroke="#bfbfbf" points="148.5,-178 259.5,-178 "/>
<text text-anchor="middle" x="204" y="-166" font-family="Helvetica,sans-Serif" font-size="10.00"> </text>
<polyline fill="none" stroke="#bfbfbf" points="148.5,-159 259.5,-159 "/>
<text text-anchor="middle" x="204" y="-147" font-family="Helvetica,sans-Serif" font-size="10.00"> </text>
</g>
<!-- Node8&#45;&gt;Node1 -->
<g id="edge7" class="edge"><title>Node8&#45;&gt;Node1</title>
<path fill="none" stroke="#404040" d="M204,-139.691C204,-125.348 204,-108.249 204,-92.3461"/>
<polygon fill="none" stroke="#404040" points="204,-91.9238 200,-85.9238 204,-79.9238 208,-85.9238 204,-91.9238"/>
<text text-anchor="middle" x="231.5" y="-101.5" font-family="Helvetica,sans-Serif" font-size="10.00"> &#45;m_adopted</text>
</g>
<!-- Node9 -->
<g id="node9" class="node"><title>Node9</title>
<polygon fill="white" stroke="#bfbfbf" points="144.5,-268.5 144.5,-325.5 213.5,-325.5 213.5,-268.5 144.5,-268.5"/>
<text text-anchor="middle" x="179" y="-313.5" font-family="Helvetica,sans-Serif" font-size="10.00">unsigned int</text>
<polyline fill="none" stroke="#bfbfbf" points="144.5,-306.5 213.5,-306.5 "/>
<text text-anchor="middle" x="179" y="-294.5" font-family="Helvetica,sans-Serif" font-size="10.00"> </text>
<polyline fill="none" stroke="#bfbfbf" points="144.5,-287.5 213.5,-287.5 "/>
<text text-anchor="middle" x="179" y="-275.5" font-family="Helvetica,sans-Serif" font-size="10.00"> </text>
</g>
<!-- Node9&#45;&gt;Node8 -->
<g id="edge8" class="edge"><title>Node9&#45;&gt;Node8</title>
<path fill="none" stroke="#404040" d="M184.736,-268.24C187.676,-254.007 191.332,-236.313 194.666,-220.177"/>
<polygon fill="none" stroke="#404040" points="194.707,-219.976 192.004,-213.29 197.136,-208.224 199.839,-214.909 194.707,-219.976"/>
<text text-anchor="middle" x="215.5" y="-241.5" font-family="Helvetica,sans-Serif" font-size="10.00"> +elements</text>
</g>
<!-- Node10 -->
<g id="node10" class="node"><title>Node10</title>
<g id="a_node10"><a xlink:title="STL class. ">
<polygon fill="white" stroke="#bfbfbf" points="231.5,-268.5 231.5,-325.5 318.5,-325.5 318.5,-268.5 231.5,-268.5"/>
<text text-anchor="middle" x="275" y="-313.5" font-family="Helvetica,sans-Serif" font-size="10.00">std::vector&lt; T &gt;</text>
<polyline fill="none" stroke="#bfbfbf" points="231.5,-306.5 318.5,-306.5 "/>
<text text-anchor="middle" x="275" y="-294.5" font-family="Helvetica,sans-Serif" font-size="10.00"> </text>
<polyline fill="none" stroke="#bfbfbf" points="231.5,-287.5 318.5,-287.5 "/>
<text text-anchor="middle" x="275" y="-275.5" font-family="Helvetica,sans-Serif" font-size="10.00"> </text>
</a>
</g>
</g>
<!-- Node10&#45;&gt;Node8 -->
<g id="edge9" class="edge"><title>Node10&#45;&gt;Node8</title>
<path fill="none" stroke="orange" d="M253.586,-259.459C249.413,-252.341 245.07,-244.937 241,-238 235.287,-228.263 229.074,-217.682 223.4,-208.021"/>
<polygon fill="orange" stroke="orange" points="250.671,-261.409 258.748,-268.266 256.71,-257.868 250.671,-261.409"/>
<text text-anchor="middle" x="285" y="-241.5" font-family="Helvetica,sans-Serif" font-size="10.00"> &lt; unsigned int &gt;</text>
</g>
<!-- Node11 -->
<g id="node11" class="node"><title>Node11</title>
<polygon fill="white" stroke="#bfbfbf" points="260.5,-380.5 260.5,-437.5 289.5,-437.5 289.5,-380.5 260.5,-380.5"/>
<text text-anchor="middle" x="275" y="-425.5" font-family="Helvetica,sans-Serif" font-size="10.00">T</text>
<polyline fill="none" stroke="#bfbfbf" points="260.5,-418.5 289.5,-418.5 "/>
<text text-anchor="middle" x="275" y="-406.5" font-family="Helvetica,sans-Serif" font-size="10.00"> </text>
<polyline fill="none" stroke="#bfbfbf" points="260.5,-399.5 289.5,-399.5 "/>
<text text-anchor="middle" x="275" y="-387.5" font-family="Helvetica,sans-Serif" font-size="10.00"> </text>
</g>
<!-- Node11&#45;&gt;Node10 -->
<g id="edge10" class="edge"><title>Node11&#45;&gt;Node10</title>
<path fill="none" stroke="#404040" d="M275,-380.242C275,-367.475 275,-352.088 275,-338.094"/>
<polygon fill="none" stroke="#404040" points="275,-337.749 271,-331.749 275,-325.749 279,-331.749 275,-337.749"/>
<text text-anchor="middle" x="299.5" y="-347.5" font-family="Helvetica,sans-Serif" font-size="10.00"> +elements</text>
</g>
<!-- Node12 -->
<g id="node12" class="node"><title>Node12</title>
<polygon fill="white" stroke="#bfbfbf" points="277.5,-140 277.5,-208 372.5,-208 372.5,-140 277.5,-140"/>
<text text-anchor="start" x="285.5" y="-196" font-family="Helvetica,sans-Serif" font-size="10.00">shared_ptr&lt; stride</text>
<text text-anchor="middle" x="325" y="-185" font-family="Helvetica,sans-Serif" font-size="10.00">::SimRunner &gt;</text>
<polyline fill="none" stroke="#bfbfbf" points="277.5,-178 372.5,-178 "/>
<text text-anchor="middle" x="325" y="-166" font-family="Helvetica,sans-Serif" font-size="10.00"> </text>
<polyline fill="none" stroke="#bfbfbf" points="277.5,-159 372.5,-159 "/>
<text text-anchor="middle" x="325" y="-147" font-family="Helvetica,sans-Serif" font-size="10.00"> </text>
</g>
<!-- Node12&#45;&gt;Node1 -->
<g id="edge11" class="edge"><title>Node12&#45;&gt;Node1</title>
<path fill="none" stroke="#404040" d="M298.918,-139.837C288.124,-126.546 275.278,-111.267 263,-98 260.019,-94.7792 256.901,-91.508 253.722,-88.2451"/>
<polygon fill="none" stroke="#404040" points="253.667,-88.1891 246.602,-86.7451 245.217,-79.6681 252.282,-81.1121 253.667,-88.1891"/>
<text text-anchor="middle" x="297.5" y="-101.5" font-family="Helvetica,sans-Serif" font-size="10.00"> &#45;m_runner</text>
</g>
</g>
</svg>
