<?xml version="1.0" encoding="UTF-8" standalone="no"?>
<!DOCTYPE svg PUBLIC "-//W3C//DTD SVG 1.1//EN"
 "http://www.w3.org/Graphics/SVG/1.1/DTD/svg11.dtd">
<!-- Generated by graphviz version 2.36.0 (20140111.2315)
 -->
<!-- Title: stride::util::Subject&lt; E &gt; Pages: 1 -->
<!--zoomable 602 -->
<svg id="main" version="1.1" xmlns="http://www.w3.org/2000/svg" xmlns:xlink="http://www.w3.org/1999/xlink" xml:space="preserve" onload="init(evt)">
<style type="text/css"><![CDATA[
.edge:hover path { stroke: red; }
.edge:hover polygon { stroke: red; fill: red; }
]]></style>
<script type="text/javascript"><![CDATA[
var edges = document.getElementsByTagName('g');
if (edges && edges.length) {
  for (var i=0;i<edges.length;i++) {
    if (edges[i].id.substr(0,4)=='edge') {
      edges[i].setAttribute('class','edge');
    }
  }
}
]]></script>
        <defs>
                <circle id="rim" cx="0" cy="0" r="7"/>
                <circle id="rim2" cx="0" cy="0" r="3.5"/>
                <g id="zoomPlus">
                        <use xlink:href="#rim" fill="#404040">
                                <set attributeName="fill" to="#808080" begin="zoomplus.mouseover" end="zoomplus.mouseout"/>
                        </use>
                        <path d="M-4,0h8M0,-4v8" fill="none" stroke="white" stroke-width="1.5" pointer-events="none"/>
                </g>
                <g id="zoomMin">
                        <use xlink:href="#rim" fill="#404040">
                                <set attributeName="fill" to="#808080" begin="zoomminus.mouseover" end="zoomminus.mouseout"/>
                        </use>
                        <path d="M-4,0h8" fill="none" stroke="white" stroke-width="1.5" pointer-events="none"/>
                </g>
                <g id="dirArrow">
                        <path fill="none" stroke="white" stroke-width="1.5" d="M0,-3.0v7 M-2.5,-0.5L0,-3.0L2.5,-0.5"/>
                </g>
               <g id="resetDef">
                       <use xlink:href="#rim2" fill="#404040">
                               <set attributeName="fill" to="#808080" begin="reset.mouseover" end="reset.mouseout"/>
                       </use>
               </g>
        </defs>

<script type="text/javascript">
var viewWidth = 457;
var viewHeight = 602;
var sectionId = 'dynsection-1';
</script>
<script xlink:href="../../svgpan.js"/>
<svg id="graph" class="graph">
<g id="viewport">
<title>stride::util::Subject&lt; E &gt;</title>
<polygon fill="white" stroke="none" points="-4,4 -4,-598 453,-598 453,4 -4,4"/>
<!-- Node1 -->
<g id="node1" class="node"><title>Node1</title>
<polygon fill="#bfbfbf" stroke="black" points="170.5,-1 170.5,-113 293.5,-113 293.5,-1 170.5,-1"/>
<text text-anchor="middle" x="232" y="-101" font-family="Helvetica,sans-Serif" font-size="10.00">stride::util::Subject&lt; E &gt;</text>
<polyline fill="none" stroke="black" points="170.5,-94 293.5,-94 "/>
<text text-anchor="middle" x="232" y="-82" font-family="Helvetica,sans-Serif" font-size="10.00"> </text>
<polyline fill="none" stroke="black" points="170.5,-75 293.5,-75 "/>
<text text-anchor="start" x="178.5" y="-63" font-family="Helvetica,sans-Serif" font-size="10.00">+ Subject()</text>
<text text-anchor="start" x="178.5" y="-52" font-family="Helvetica,sans-Serif" font-size="10.00">+ ~Subject()</text>
<text text-anchor="start" x="178.5" y="-41" font-family="Helvetica,sans-Serif" font-size="10.00">+ Register()</text>
<text text-anchor="start" x="178.5" y="-30" font-family="Helvetica,sans-Serif" font-size="10.00">+ Unregister()</text>
<text text-anchor="start" x="178.5" y="-19" font-family="Helvetica,sans-Serif" font-size="10.00">+ UnregisterAll()</text>
<text text-anchor="start" x="178.5" y="-8" font-family="Helvetica,sans-Serif" font-size="10.00">+ Notify()</text>
</g>
<!-- Node2 -->
<g id="node2" class="node"><title>Node2</title>
<polygon fill="white" stroke="#bfbfbf" points="161.5,-162.5 161.5,-263.5 302.5,-263.5 302.5,-162.5 161.5,-162.5"/>
<text text-anchor="start" x="169.5" y="-251.5" font-family="Helvetica,sans-Serif" font-size="10.00">std::map&lt; std::weak</text>
<text text-anchor="start" x="169.5" y="-240.5" font-family="Helvetica,sans-Serif" font-size="10.00">_ptr&lt; const void &gt;,</text>
<text text-anchor="start" x="169.5" y="-229.5" font-family="Helvetica,sans-Serif" font-size="10.00"> CallbackType, std::owner</text>
<text text-anchor="start" x="169.5" y="-218.5" font-family="Helvetica,sans-Serif" font-size="10.00">_less&lt; std::weak_ptr&lt; const</text>
<text text-anchor="middle" x="232" y="-207.5" font-family="Helvetica,sans-Serif" font-size="10.00"> void &gt; &gt; &gt;</text>
<polyline fill="none" stroke="#bfbfbf" points="161.5,-200.5 302.5,-200.5 "/>
<text text-anchor="middle" x="232" y="-188.5" font-family="Helvetica,sans-Serif" font-size="10.00"> </text>
<polyline fill="none" stroke="#bfbfbf" points="161.5,-181.5 302.5,-181.5 "/>
<text text-anchor="middle" x="232" y="-169.5" font-family="Helvetica,sans-Serif" font-size="10.00"> </text>
</g>
<!-- Node2&#45;&gt;Node1 -->
<g id="edge1" class="edge"><title>Node2&#45;&gt;Node1</title>
<path fill="none" stroke="#404040" d="M232,-162.426C232,-150.621 232,-137.828 232,-125.376"/>
<polygon fill="none" stroke="#404040" points="232,-125.086 228,-119.086 232,-113.086 236,-119.086 232,-125.086"/>
<text text-anchor="middle" x="263.5" y="-135.5" font-family="Helvetica,sans-Serif" font-size="10.00"> &#45;m_observers</text>
</g>
<!-- Node3 -->
<g id="node3" class="node"><title>Node3</title>
<polygon fill="white" stroke="#bfbfbf" points="75.5,-313 75.5,-381 184.5,-381 184.5,-313 75.5,-313"/>
<text text-anchor="start" x="83.5" y="-369" font-family="Helvetica,sans-Serif" font-size="10.00">std::weak_ptr&lt; const</text>
<text text-anchor="middle" x="130" y="-358" font-family="Helvetica,sans-Serif" font-size="10.00"> void &gt;</text>
<polyline fill="none" stroke="#bfbfbf" points="75.5,-351 184.5,-351 "/>
<text text-anchor="middle" x="130" y="-339" font-family="Helvetica,sans-Serif" font-size="10.00"> </text>
<polyline fill="none" stroke="#bfbfbf" points="75.5,-332 184.5,-332 "/>
<text text-anchor="start" x="83.5" y="-320" font-family="Helvetica,sans-Serif" font-size="10.00">+ operator&#45;&gt;()</text>
</g>
<!-- Node3&#45;&gt;Node2 -->
<g id="edge2" class="edge"><title>Node3&#45;&gt;Node2</title>
<path fill="none" stroke="#404040" d="M155.739,-312.691C164.999,-300.707 175.747,-286.798 186.2,-273.271"/>
<polygon fill="none" stroke="#404040" points="186.396,-273.017 186.899,-265.824 193.733,-263.522 193.23,-270.715 186.396,-273.017"/>
<text text-anchor="middle" x="193.5" y="-285.5" font-family="Helvetica,sans-Serif" font-size="10.00"> +keys</text>
</g>
<!-- Node4 -->
<g id="node4" class="node"><title>Node4</title>
<g id="a_node4"><a xlink:href="../../d6/dad/a00941.html" target="_top" xlink:title="{const void\n||}">
<polygon fill="white" stroke="black" points="0,-430.5 0,-487.5 62,-487.5 62,-430.5 0,-430.5"/>
<text text-anchor="middle" x="31" y="-475.5" font-family="Helvetica,sans-Serif" font-size="10.00">const void</text>
<polyline fill="none" stroke="black" points="0,-468.5 62,-468.5 "/>
<text text-anchor="middle" x="31" y="-456.5" font-family="Helvetica,sans-Serif" font-size="10.00"> </text>
<polyline fill="none" stroke="black" points="0,-449.5 62,-449.5 "/>
<text text-anchor="middle" x="31" y="-437.5" font-family="Helvetica,sans-Serif" font-size="10.00"> </text>
</a>
</g>
</g>
<!-- Node4&#45;&gt;Node3 -->
<g id="edge3" class="edge"><title>Node4&#45;&gt;Node3</title>
<path fill="none" stroke="#404040" d="M55.9819,-430.242C66.8725,-418.142 79.8814,-403.687 91.9336,-390.296"/>
<polygon fill="none" stroke="#404040" points="92.0593,-390.156 93.0999,-383.021 100.087,-381.237 99.0463,-388.372 92.0593,-390.156"/>
<text text-anchor="middle" x="91.5" y="-403.5" font-family="Helvetica,sans-Serif" font-size="10.00"> +ptr</text>
</g>
<!-- Node5 -->
<g id="node5" class="node"><title>Node5</title>
<g id="a_node5"><a xlink:title="STL class. ">
<polygon fill="white" stroke="#bfbfbf" points="80,-430.5 80,-487.5 180,-487.5 180,-430.5 80,-430.5"/>
<text text-anchor="middle" x="130" y="-475.5" font-family="Helvetica,sans-Serif" font-size="10.00">std::weak_ptr&lt; T &gt;</text>
<polyline fill="none" stroke="#bfbfbf" points="80,-468.5 180,-468.5 "/>
<text text-anchor="middle" x="130" y="-456.5" font-family="Helvetica,sans-Serif" font-size="10.00"> </text>
<polyline fill="none" stroke="#bfbfbf" points="80,-449.5 180,-449.5 "/>
<text text-anchor="start" x="88" y="-437.5" font-family="Helvetica,sans-Serif" font-size="10.00">+ operator&#45;&gt;()</text>
</a>
</g>
</g>
<!-- Node5&#45;&gt;Node3 -->
<g id="edge4" class="edge"><title>Node5&#45;&gt;Node3</title>
<path fill="none" stroke="orange" d="M130,-420.024C130,-407.408 130,-393.466 130,-381.237"/>
<polygon fill="orange" stroke="orange" points="126.5,-420.242 130,-430.242 133.5,-420.242 126.5,-420.242"/>
<text text-anchor="middle" x="163.5" y="-403.5" font-family="Helvetica,sans-Serif" font-size="10.00"> &lt; const void &gt;</text>
</g>
<!-- Node6 -->
<g id="node6" class="node"><title>Node6</title>
<polygon fill="white" stroke="#bfbfbf" points="137.5,-536.5 137.5,-593.5 166.5,-593.5 166.5,-536.5 137.5,-536.5"/>
<text text-anchor="middle" x="152" y="-581.5" font-family="Helvetica,sans-Serif" font-size="10.00">T</text>
<polyline fill="none" stroke="#bfbfbf" points="137.5,-574.5 166.5,-574.5 "/>
<text text-anchor="middle" x="152" y="-562.5" font-family="Helvetica,sans-Serif" font-size="10.00"> </text>
<polyline fill="none" stroke="#bfbfbf" points="137.5,-555.5 166.5,-555.5 "/>
<text text-anchor="middle" x="152" y="-543.5" font-family="Helvetica,sans-Serif" font-size="10.00"> </text>
</g>
<!-- Node6&#45;&gt;Node5 -->
<g id="edge5" class="edge"><title>Node6&#45;&gt;Node5</title>
<path fill="none" stroke="#404040" d="M137.426,-536.916C134.795,-530.853 132.435,-524.336 131,-518 129.692,-512.226 128.932,-506.046 128.538,-499.951"/>
<polygon fill="none" stroke="#404040" points="128.531,-499.71 124.358,-493.829 128.182,-487.715 132.355,-493.596 128.531,-499.71"/>
<text text-anchor="middle" x="141.5" y="-509.5" font-family="Helvetica,sans-Serif" font-size="10.00"> +ptr</text>
</g>
<!-- Node8 -->
<g id="node8" class="node"><title>Node8</title>
<g id="a_node8"><a xlink:title="STL class. ">
<polygon fill="white" stroke="#bfbfbf" points="198,-430.5 198,-487.5 290,-487.5 290,-430.5 198,-430.5"/>
<text text-anchor="middle" x="244" y="-475.5" font-family="Helvetica,sans-Serif" font-size="10.00">std::map&lt; K, T &gt;</text>
<polyline fill="none" stroke="#bfbfbf" points="198,-468.5 290,-468.5 "/>
<text text-anchor="middle" x="244" y="-456.5" font-family="Helvetica,sans-Serif" font-size="10.00"> </text>
<polyline fill="none" stroke="#bfbfbf" points="198,-449.5 290,-449.5 "/>
<text text-anchor="middle" x="244" y="-437.5" font-family="Helvetica,sans-Serif" font-size="10.00"> </text>
</a>
</g>
</g>
<!-- Node6&#45;&gt;Node8 -->
<g id="edge9" class="edge"><title>Node6&#45;&gt;Node8</title>
<path fill="none" stroke="#404040" d="M166.546,-540.178C173.651,-529.301 182.67,-516.528 192,-506 194.973,-502.645 198.179,-499.295 201.489,-496.018"/>
<polygon fill="none" stroke="#404040" points="201.695,-495.822 203.294,-488.791 210.4,-487.563 208.8,-494.594 201.695,-495.822"/>
<text text-anchor="middle" x="216.5" y="-509.5" font-family="Helvetica,sans-Serif" font-size="10.00"> +elements</text>
</g>
<!-- Node7 -->
<g id="node7" class="node"><title>Node7</title>
<g id="a_node7"><a xlink:href="../../de/db9/a00937.html" target="_top" xlink:title="{CallbackType\n||}">
<polygon fill="white" stroke="black" points="371.5,-318.5 371.5,-375.5 448.5,-375.5 448.5,-318.5 371.5,-318.5"/>
<text text-anchor="middle" x="410" y="-363.5" font-family="Helvetica,sans-Serif" font-size="10.00">CallbackType</text>
<polyline fill="none" stroke="black" points="371.5,-356.5 448.5,-356.5 "/>
<text text-anchor="middle" x="410" y="-344.5" font-family="Helvetica,sans-Serif" font-size="10.00"> </text>
<polyline fill="none" stroke="black" points="371.5,-337.5 448.5,-337.5 "/>
<text text-anchor="middle" x="410" y="-325.5" font-family="Helvetica,sans-Serif" font-size="10.00"> </text>
</a>
</g>
</g>
<!-- Node7&#45;&gt;Node2 -->
<g id="edge6" class="edge"><title>Node7&#45;&gt;Node2</title>
<path fill="none" stroke="#404040" d="M372.685,-318.328C354.037,-304.499 330.755,-287.234 308.532,-270.754"/>
<polygon fill="none" stroke="#404040" points="308.392,-270.65 301.19,-270.289 298.753,-263.503 305.955,-263.864 308.392,-270.65"/>
<text text-anchor="middle" x="361.5" y="-285.5" font-family="Helvetica,sans-Serif" font-size="10.00"> +elements</text>
</g>
<!-- Node8&#45;&gt;Node2 -->
<g id="edge7" class="edge"><title>Node8&#45;&gt;Node2</title>
<path fill="none" stroke="orange" d="M242.151,-420.398C240.085,-378.39 236.731,-310.205 234.449,-263.795"/>
<polygon fill="orange" stroke="orange" points="238.66,-420.668 242.647,-430.484 245.651,-420.325 238.66,-420.668"/>
<text text-anchor="start" x="241" y="-361" font-family="Helvetica,sans-Serif" font-size="10.00"> &lt; std::weak_ptr&lt; const</text>
<text text-anchor="start" x="241" y="-350" font-family="Helvetica,sans-Serif" font-size="10.00"> void &gt;, CallbackType,</text>
<text text-anchor="start" x="241" y="-339" font-family="Helvetica,sans-Serif" font-size="10.00"> std::owner_less&lt; std::</text>
<text text-anchor="middle" x="301.5" y="-328" font-family="Helvetica,sans-Serif" font-size="10.00">weak_ptr&lt; const void &gt; &gt; &gt;</text>
</g>
<!-- Node9 -->
<g id="node9" class="node"><title>Node9</title>
<polygon fill="white" stroke="#bfbfbf" points="231.5,-536.5 231.5,-593.5 260.5,-593.5 260.5,-536.5 231.5,-536.5"/>
<text text-anchor="middle" x="246" y="-581.5" font-family="Helvetica,sans-Serif" font-size="10.00">K</text>
<polyline fill="none" stroke="#bfbfbf" points="231.5,-574.5 260.5,-574.5 "/>
<text text-anchor="middle" x="246" y="-562.5" font-family="Helvetica,sans-Serif" font-size="10.00"> </text>
<polyline fill="none" stroke="#bfbfbf" points="231.5,-555.5 260.5,-555.5 "/>
<text text-anchor="middle" x="246" y="-543.5" font-family="Helvetica,sans-Serif" font-size="10.00"> </text>
</g>
<!-- Node9&#45;&gt;Node8 -->
<g id="edge8" class="edge"><title>Node9&#45;&gt;Node8</title>
<path fill="none" stroke="#404040" d="M245.469,-536.403C245.255,-525.237 245.003,-512.13 244.768,-499.956"/>
<polygon fill="none" stroke="#404040" points="244.764,-499.724 240.649,-493.802 244.533,-487.726 248.648,-493.648 244.764,-499.724"/>
<text text-anchor="middle" x="261.5" y="-509.5" font-family="Helvetica,sans-Serif" font-size="10.00"> +keys</text>
</g>
</g>
</svg>
        <g id="navigator" transform="translate(0 0)" fill="#404254">
                <rect fill="#f2f5e9" fill-opacity="0.5" stroke="#606060" stroke-width=".5" x="0" y="0" width="60" height="60"/>
                <use id="zoomplus" xlink:href="#zoomPlus" x="17" y="9" onmousedown="handleZoom(evt,'in')"/>
                <use id="zoomminus" xlink:href="#zoomMin" x="42" y="9" onmousedown="handleZoom(evt,'out')"/>
                <use id="reset" xlink:href="#resetDef" x="30" y="36" onmousedown="handleReset()"/>
                <g id="arrowUp" xlink:href="#dirArrow" transform="translate(30 24)" onmousedown="handlePan(0,-1)">
                  <use xlink:href="#rim" fill="#404040">
                        <set attributeName="fill" to="#808080" begin="arrowUp.mouseover" end="arrowUp.mouseout"/>
                  </use>
                  <path fill="none" stroke="white" stroke-width="1.5" d="M0,-3.0v7 M-2.5,-0.5L0,-3.0L2.5,-0.5"/>
                </g>
                <g id="arrowRight" xlink:href="#dirArrow" transform="rotate(90) translate(36 -43)" onmousedown="handlePan(1,0)">
                  <use xlink:href="#rim" fill="#404040">
                        <set attributeName="fill" to="#808080" begin="arrowRight.mouseover" end="arrowRight.mouseout"/>
                  </use>
                  <path fill="none" stroke="white" stroke-width="1.5" d="M0,-3.0v7 M-2.5,-0.5L0,-3.0L2.5,-0.5"/>
                </g>
                <g id="arrowDown" xlink:href="#dirArrow" transform="rotate(180) translate(-30 -48)" onmousedown="handlePan(0,1)">
                  <use xlink:href="#rim" fill="#404040">
                        <set attributeName="fill" to="#808080" begin="arrowDown.mouseover" end="arrowDown.mouseout"/>
                  </use>
                  <path fill="none" stroke="white" stroke-width="1.5" d="M0,-3.0v7 M-2.5,-0.5L0,-3.0L2.5,-0.5"/>
                </g>
                <g id="arrowLeft" xlink:href="#dirArrow" transform="rotate(270) translate(-36 17)" onmousedown="handlePan(-1,0)">
                  <use xlink:href="#rim" fill="#404040">
                        <set attributeName="fill" to="#808080" begin="arrowLeft.mouseover" end="arrowLeft.mouseout"/>
                  </use>
                  <path fill="none" stroke="white" stroke-width="1.5" d="M0,-3.0v7 M-2.5,-0.5L0,-3.0L2.5,-0.5"/>
                </g>
        </g>
        <svg viewBox="0 0 15 15" width="100%" height="30px" preserveAspectRatio="xMaxYMin meet">
         <g id="arrow_out" transform="scale(0.3 0.3)">
          <a xlink:href="a01347_org.svg" target="_base">
           <rect id="button" ry="5" rx="5" y="6" x="6" height="38" width="38"
                fill="#f2f5e9" fill-opacity="0.5" stroke="#606060" stroke-width="1.0"/>
           <path id="arrow"
             d="M 11.500037,31.436501 C 11.940474,20.09759 22.043105,11.32322 32.158766,21.979434 L 37.068811,17.246167 C 37.068811,17.246167 37.088388,32 37.088388,32 L 22.160133,31.978069 C 22.160133,31.978069 26.997745,27.140456 26.997745,27.140456 C 18.528582,18.264221 13.291696,25.230495 11.500037,31.436501 z"
             style="fill:#404040;"/>
          </a>
         </g>
        </svg>
</svg>
