<?xml version="1.0" encoding="UTF-8" standalone="no"?>
<!DOCTYPE svg PUBLIC "-//W3C//DTD SVG 1.1//EN"
 "http://www.w3.org/Graphics/SVG/1.1/DTD/svg11.dtd">
<!-- Generated by graphviz version 2.36.0 (20140111.2315)
 -->
<!-- Title: stride::Population::Create Pages: 1 -->
<svg width="398pt" height="136pt"
 viewBox="0.00 0.00 398.00 136.00" xmlns="http://www.w3.org/2000/svg" xmlns:xlink="http://www.w3.org/1999/xlink">
<g id="graph0" class="graph" transform="scale(1 1) rotate(0) translate(4 132)">
<title>stride::Population::Create</title>
<polygon fill="white" stroke="none" points="-4,4 -4,-132 394,-132 394,4 -4,4"/>
<!-- Node1 -->
<g id="node1" class="node"><title>Node1</title>
<polygon fill="#bfbfbf" stroke="black" points="0,-49 0,-79 92,-79 92,-49 0,-49"/>
<text text-anchor="start" x="8" y="-67" font-family="Helvetica,sans-Serif" font-size="10.00">stride::Population</text>
<text text-anchor="middle" x="46" y="-56" font-family="Helvetica,sans-Serif" font-size="10.00">::Create</text>
</g>
<!-- Node2 -->
<g id="node2" class="node"><title>Node2</title>
<g id="a_node2"><a xlink:href="../../d9/d77/a00095.html#a9837dd9796e5b2a40c37984537c1375f" target="_top" xlink:title="Empty controller: used as taget for delegation. ">
<polygon fill="white" stroke="black" points="128.5,-98 128.5,-128 239.5,-128 239.5,-98 128.5,-98"/>
<text text-anchor="start" x="136.5" y="-116" font-family="Helvetica,sans-Serif" font-size="10.00">stride::BaseController</text>
<text text-anchor="middle" x="184" y="-105" font-family="Helvetica,sans-Serif" font-size="10.00">::BaseController</text>
</a>
</g>
</g>
<!-- Node1&#45;&gt;Node2 -->
<g id="edge1" class="edge"><title>Node1&#45;&gt;Node2</title>
<path fill="none" stroke="midnightblue" d="M98.4455,-82.5355C112.491,-87.5959 127.539,-93.0177 140.99,-97.8641"/>
<polygon fill="midnightblue" stroke="midnightblue" points="99.5086,-79.1984 88.9142,-79.1014 97.1358,-85.7839 99.5086,-79.1984"/>
</g>
<!-- Node3 -->
<g id="node3" class="node"><title>Node3</title>
<g id="a_node3"><a xlink:href="../../de/d5e/a00007.html#a26ee572195c295b6735b370ca3dab8b0" target="_top" xlink:title="Run count simulations for each config by varying the seed and return the infected counts after each t...">
<polygon fill="white" stroke="black" points="129.5,-49 129.5,-79 238.5,-79 238.5,-49 129.5,-49"/>
<text text-anchor="start" x="137.5" y="-67" font-family="Helvetica,sans-Serif" font-size="10.00">calibration::Calibrator</text>
<text text-anchor="middle" x="184" y="-56" font-family="Helvetica,sans-Serif" font-size="10.00">::RunMultiple</text>
</a>
</g>
</g>
<!-- Node1&#45;&gt;Node3 -->
<g id="edge2" class="edge"><title>Node1&#45;&gt;Node3</title>
<path fill="none" stroke="midnightblue" d="M102.537,-64C111.417,-64 120.59,-64 129.423,-64"/>
<polygon fill="midnightblue" stroke="midnightblue" points="102.286,-60.5001 92.286,-64 102.286,-67.5001 102.286,-60.5001"/>
</g>
<!-- Node5 -->
<g id="node5" class="node"><title>Node5</title>
<g id="a_node5"><a xlink:href="../../de/d5e/a00007.html#a83f2d479f8ff86e01a3d1f2c2aeadb39" target="_top" xlink:title="Run one simulation for each config and return the infected counts after each timestep. ">
<polygon fill="white" stroke="black" points="129.5,-0 129.5,-30 238.5,-30 238.5,-0 129.5,-0"/>
<text text-anchor="start" x="137.5" y="-18" font-family="Helvetica,sans-Serif" font-size="10.00">calibration::Calibrator</text>
<text text-anchor="middle" x="184" y="-7" font-family="Helvetica,sans-Serif" font-size="10.00">::RunSingle</text>
</a>
</g>
</g>
<!-- Node1&#45;&gt;Node5 -->
<g id="edge4" class="edge"><title>Node1&#45;&gt;Node5</title>
<path fill="none" stroke="midnightblue" d="M98.4455,-45.4645C112.491,-40.4041 127.539,-34.9823 140.99,-30.1359"/>
<polygon fill="midnightblue" stroke="midnightblue" points="97.1358,-42.2161 88.9142,-48.8986 99.5086,-48.8016 97.1358,-42.2161"/>
</g>
<!-- Node4 -->
<g id="node4" class="node"><title>Node4</title>
<g id="a_node4"><a xlink:href="../../de/d21/a00006.html#a15b5bc2c7261304c0613ffad908e5a2b" target="_top" xlink:title="Run the Calibrator. ">
<polygon fill="white" stroke="black" points="276.5,-24 276.5,-54 389.5,-54 389.5,-24 276.5,-24"/>
<text text-anchor="start" x="284.5" y="-42" font-family="Helvetica,sans-Serif" font-size="10.00">calibration::Calibration</text>
<text text-anchor="middle" x="333" y="-31" font-family="Helvetica,sans-Serif" font-size="10.00">Runner::Run</text>
</a>
</g>
</g>
<!-- Node3&#45;&gt;Node4 -->
<g id="edge3" class="edge"><title>Node3&#45;&gt;Node4</title>
<path fill="none" stroke="midnightblue" d="M248.993,-53.1168C258.03,-51.5799 267.263,-50.0098 276.131,-48.5016"/>
<polygon fill="midnightblue" stroke="midnightblue" points="248.174,-49.7057 238.903,-54.8329 249.348,-56.6066 248.174,-49.7057"/>
</g>
<!-- Node5&#45;&gt;Node4 -->
<g id="edge5" class="edge"><title>Node5&#45;&gt;Node4</title>
<path fill="none" stroke="midnightblue" d="M248.993,-25.4479C258.03,-26.9233 267.263,-28.4306 276.131,-29.8785"/>
<polygon fill="midnightblue" stroke="midnightblue" points="249.336,-21.9576 238.903,-23.8004 248.208,-28.8661 249.336,-21.9576"/>
</g>
</g>
</svg>
