<?xml version="1.0" encoding="UTF-8" standalone="no"?>
<!DOCTYPE svg PUBLIC "-//W3C//DTD SVG 1.1//EN"
 "http://www.w3.org/Graphics/SVG/1.1/DTD/svg11.dtd">
<!-- Generated by graphviz version 2.36.0 (20140111.2315)
 -->
<!-- Title: stride::python::Subject::UnregisterAll Pages: 1 -->
<svg width="276pt" height="38pt"
 viewBox="0.00 0.00 276.00 38.00" xmlns="http://www.w3.org/2000/svg" xmlns:xlink="http://www.w3.org/1999/xlink">
<g id="graph0" class="graph" transform="scale(1 1) rotate(0) translate(4 34)">
<title>stride::python::Subject::UnregisterAll</title>
<polygon fill="white" stroke="none" points="-4,4 -4,-34 272,-34 272,4 -4,4"/>
<!-- Node1 -->
<g id="node1" class="node"><title>Node1</title>
<polygon fill="#bfbfbf" stroke="black" points="0.5,-0 0.5,-30 115.5,-30 115.5,-0 0.5,-0"/>
<text text-anchor="start" x="8.5" y="-18" font-family="Helvetica,sans-Serif" font-size="10.00">stride::python::Subject</text>
<text text-anchor="middle" x="58" y="-7" font-family="Helvetica,sans-Serif" font-size="10.00">::UnregisterAll</text>
</g>
<!-- Node2 -->
<g id="node2" class="node"><title>Node2</title>
<g id="a_node2"><a xlink:href="../../d4/ddd/a00138.html#aabb071d7acedf11c6c76e8036bf4edca" target="_top" xlink:title="stride::python::Subject\l::~Subject">
<polygon fill="white" stroke="black" points="152.5,-0 152.5,-30 267.5,-30 267.5,-0 152.5,-0"/>
<text text-anchor="start" x="160.5" y="-18" font-family="Helvetica,sans-Serif" font-size="10.00">stride::python::Subject</text>
<text text-anchor="middle" x="210" y="-7" font-family="Helvetica,sans-Serif" font-size="10.00">::~Subject</text>
</a>
</g>
</g>
<!-- Node1&#45;&gt;Node2 -->
<g id="edge1" class="edge"><title>Node1&#45;&gt;Node2</title>
<path fill="none" stroke="midnightblue" d="M125.916,-15C134.694,-15 143.622,-15 152.211,-15"/>
<polygon fill="midnightblue" stroke="midnightblue" points="125.709,-11.5001 115.709,-15 125.709,-18.5001 125.709,-11.5001"/>
</g>
</g>
</svg>
