<?xml version="1.0" encoding="UTF-8" standalone="no"?>
<!DOCTYPE svg PUBLIC "-//W3C//DTD SVG 1.1//EN"
 "http://www.w3.org/Graphics/SVG/1.1/DTD/svg11.dtd">
<!-- Generated by graphviz version 2.36.0 (20140111.2315)
 -->
<!-- Title: stride::Population::UpdateRegion Pages: 1 -->
<svg width="242pt" height="38pt"
 viewBox="0.00 0.00 242.00 38.00" xmlns="http://www.w3.org/2000/svg" xmlns:xlink="http://www.w3.org/1999/xlink">
<g id="graph0" class="graph" transform="scale(1 1) rotate(0) translate(4 34)">
<title>stride::Population::UpdateRegion</title>
<polygon fill="white" stroke="none" points="-4,4 -4,-34 238,-34 238,4 -4,4"/>
<!-- Node1 -->
<g id="node1" class="node"><title>Node1</title>
<polygon fill="#bfbfbf" stroke="black" points="0,-0 0,-30 92,-30 92,-0 0,-0"/>
<text text-anchor="start" x="8" y="-18" font-family="Helvetica,sans-Serif" font-size="10.00">stride::Population</text>
<text text-anchor="middle" x="46" y="-7" font-family="Helvetica,sans-Serif" font-size="10.00">::UpdateRegion</text>
</g>
<!-- Node2 -->
<g id="node2" class="node"><title>Node2</title>
<g id="a_node2"><a xlink:href="../../d4/ddd/a00138.html#a9cdbd05dd5d7b55fb3e0dc25a90cd4f4" target="_top" xlink:title="Add a new contact pool of a given type in in the given region, the same constraints on the region app...">
<polygon fill="white" stroke="black" points="128,-0 128,-30 234,-30 234,-0 128,-0"/>
<text text-anchor="start" x="136" y="-18" font-family="Helvetica,sans-Serif" font-size="10.00">stride::Population</text>
<text text-anchor="middle" x="181" y="-7" font-family="Helvetica,sans-Serif" font-size="10.00">::CreateContactPool</text>
</a>
</g>
</g>
<!-- Node1&#45;&gt;Node2 -->
<g id="edge1" class="edge"><title>Node1&#45;&gt;Node2</title>
<path fill="none" stroke="midnightblue" d="M102.162,-15C110.603,-15 119.296,-15 127.674,-15"/>
<polygon fill="midnightblue" stroke="midnightblue" points="102.028,-11.5001 92.0277,-15 102.028,-18.5001 102.028,-11.5001"/>
</g>
</g>
</svg>
