<?xml version="1.0" encoding="UTF-8" standalone="no"?>
<!DOCTYPE svg PUBLIC "-//W3C//DTD SVG 1.1//EN"
 "http://www.w3.org/Graphics/SVG/1.1/DTD/svg11.dtd">
<!-- Generated by graphviz version 2.36.0 (20140111.2315)
 -->
<!-- Title: NoLocalInformation.h Pages: 1 -->
<svg width="258pt" height="196pt"
 viewBox="0.00 0.00 258.00 196.00" xmlns="http://www.w3.org/2000/svg" xmlns:xlink="http://www.w3.org/1999/xlink">
<g id="graph0" class="graph" transform="scale(1 1) rotate(0) translate(4 192)">
<title>NoLocalInformation.h</title>
<polygon fill="white" stroke="none" points="-4,4 -4,-192 254,-192 254,4 -4,4"/>
<!-- Node1 -->
<g id="node1" class="node"><title>Node1</title>
<polygon fill="#bfbfbf" stroke="black" points="107,-168.5 107,-187.5 217,-187.5 217,-168.5 107,-168.5"/>
<text text-anchor="middle" x="162" y="-175.5" font-family="Helvetica,sans-Serif" font-size="10.00">NoLocalInformation.h</text>
</g>
<!-- Node2 -->
<g id="node2" class="node"><title>Node2</title>
<g id="a_node2"><a xlink:href="../../dc/d50/a00332.html" target="_top" xlink:title="Header for the Infector class. ">
<polygon fill="white" stroke="black" points="96,-112.5 96,-131.5 154,-131.5 154,-112.5 96,-112.5"/>
<text text-anchor="middle" x="125" y="-119.5" font-family="Helvetica,sans-Serif" font-size="10.00">Infector.h</text>
</a>
</g>
</g>
<!-- Node1&#45;&gt;Node2 -->
<g id="edge1" class="edge"><title>Node1&#45;&gt;Node2</title>
<path fill="none" stroke="midnightblue" d="M150.054,-159.566C143.688,-150.275 136.133,-139.248 130.996,-131.751"/>
<polygon fill="midnightblue" stroke="midnightblue" points="147.351,-161.812 155.89,-168.083 153.125,-157.855 147.351,-161.812"/>
</g>
<!-- Node7 -->
<g id="node7" class="node"><title>Node7</title>
<g id="a_node7"><a xlink:href="../../d9/de6/a00404.html" target="_top" xlink:title="Implementation for the Simulator class. ">
<polygon fill="white" stroke="black" points="172.5,-112.5 172.5,-131.5 225.5,-131.5 225.5,-112.5 172.5,-112.5"/>
<text text-anchor="middle" x="199" y="-119.5" font-family="Helvetica,sans-Serif" font-size="10.00">Sim.cpp</text>
</a>
</g>
</g>
<!-- Node1&#45;&gt;Node7 -->
<g id="edge6" class="edge"><title>Node1&#45;&gt;Node7</title>
<path fill="none" stroke="midnightblue" d="M173.946,-159.566C180.312,-150.275 187.867,-139.248 193.004,-131.751"/>
<polygon fill="midnightblue" stroke="midnightblue" points="170.875,-157.855 168.11,-168.083 176.649,-161.812 170.875,-157.855"/>
</g>
<!-- Node3 -->
<g id="node3" class="node"><title>Node3</title>
<g id="a_node3"><a xlink:href="../../dd/dbb/a00330.html" target="_top" xlink:title="Implementation of Infector algorithms. ">
<polygon fill="white" stroke="black" points="0,-56.5 0,-75.5 68,-75.5 68,-56.5 0,-56.5"/>
<text text-anchor="middle" x="34" y="-63.5" font-family="Helvetica,sans-Serif" font-size="10.00">Infector.cpp</text>
</a>
</g>
</g>
<!-- Node2&#45;&gt;Node3 -->
<g id="edge2" class="edge"><title>Node2&#45;&gt;Node3</title>
<path fill="none" stroke="midnightblue" d="M101.706,-107.177C84.9611,-97.2407 62.8996,-84.1492 48.5844,-75.6545"/>
<polygon fill="midnightblue" stroke="midnightblue" points="99.9933,-110.231 110.379,-112.324 103.566,-104.211 99.9933,-110.231"/>
</g>
<!-- Node4 -->
<g id="node4" class="node"><title>Node4</title>
<g id="a_node4"><a xlink:href="../../da/d75/a00334.html" target="_top" xlink:title="Header for the InfectorMap. ">
<polygon fill="white" stroke="black" points="86.5,-56.5 86.5,-75.5 163.5,-75.5 163.5,-56.5 86.5,-56.5"/>
<text text-anchor="middle" x="125" y="-63.5" font-family="Helvetica,sans-Serif" font-size="10.00">InfectorMap.h</text>
</a>
</g>
</g>
<!-- Node2&#45;&gt;Node4 -->
<g id="edge3" class="edge"><title>Node2&#45;&gt;Node4</title>
<path fill="none" stroke="midnightblue" d="M125,-101.805C125,-92.9102 125,-82.7798 125,-75.7511"/>
<polygon fill="midnightblue" stroke="midnightblue" points="121.5,-102.083 125,-112.083 128.5,-102.083 121.5,-102.083"/>
</g>
<!-- Node6 -->
<g id="node6" class="node"><title>Node6</title>
<g id="a_node6"><a xlink:href="../../db/d10/a00350.html" target="_top" xlink:title="Implementation of Infector algorithms. ">
<polygon fill="white" stroke="black" points="182,-56.5 182,-75.5 250,-75.5 250,-56.5 182,-56.5"/>
<text text-anchor="middle" x="216" y="-63.5" font-family="Helvetica,sans-Serif" font-size="10.00">LogPolicy.h</text>
</a>
</g>
</g>
<!-- Node2&#45;&gt;Node6 -->
<g id="edge5" class="edge"><title>Node2&#45;&gt;Node6</title>
<path fill="none" stroke="midnightblue" d="M148.294,-107.177C165.039,-97.2407 187.1,-84.1492 201.416,-75.6545"/>
<polygon fill="midnightblue" stroke="midnightblue" points="146.434,-104.211 139.621,-112.324 150.007,-110.231 146.434,-104.211"/>
</g>
<!-- Node5 -->
<g id="node5" class="node"><title>Node5</title>
<g id="a_node5"><a xlink:href="../../d1/d8b/a00406.html" target="_top" xlink:title="Implementation for the SimBuilder class. ">
<polygon fill="white" stroke="black" points="83.5,-0.5 83.5,-19.5 166.5,-19.5 166.5,-0.5 83.5,-0.5"/>
<text text-anchor="middle" x="125" y="-7.5" font-family="Helvetica,sans-Serif" font-size="10.00">SimBuilder.cpp</text>
</a>
</g>
</g>
<!-- Node4&#45;&gt;Node5 -->
<g id="edge4" class="edge"><title>Node4&#45;&gt;Node5</title>
<path fill="none" stroke="midnightblue" d="M125,-45.8045C125,-36.9102 125,-26.7798 125,-19.7511"/>
<polygon fill="midnightblue" stroke="midnightblue" points="121.5,-46.083 125,-56.083 128.5,-46.083 121.5,-46.083"/>
</g>
</g>
</svg>
