<?xml version="1.0" encoding="UTF-8" standalone="no"?>
<!DOCTYPE svg PUBLIC "-//W3C//DTD SVG 1.1//EN"
 "http://www.w3.org/Graphics/SVG/1.1/DTD/svg11.dtd">
<!-- Generated by graphviz version 2.36.0 (20140111.2315)
 -->
<!-- Title: stride::HBM Pages: 1 -->
<svg width="410pt" height="226pt"
 viewBox="0.00 0.00 410.00 226.00" xmlns="http://www.w3.org/2000/svg" xmlns:xlink="http://www.w3.org/1999/xlink">
<g id="graph0" class="graph" transform="scale(1 1) rotate(0) translate(4 222)">
<title>stride::HBM</title>
<polygon fill="white" stroke="none" points="-4,4 -4,-222 406,-222 406,4 -4,4"/>
<!-- Node1 -->
<g id="node1" class="node"><title>Node1</title>
<polygon fill="#bfbfbf" stroke="black" points="107.5,-0.5 107.5,-57.5 176.5,-57.5 176.5,-0.5 107.5,-0.5"/>
<text text-anchor="middle" x="142" y="-45.5" font-family="Helvetica,sans-Serif" font-size="10.00">stride::HBM</text>
<polyline fill="none" stroke="black" points="107.5,-38.5 176.5,-38.5 "/>
<text text-anchor="middle" x="142" y="-26.5" font-family="Helvetica,sans-Serif" font-size="10.00"> </text>
<polyline fill="none" stroke="black" points="107.5,-19.5 176.5,-19.5 "/>
<text text-anchor="start" x="115.5" y="-7.5" font-family="Helvetica,sans-Serif" font-size="10.00">+ HBM()</text>
</g>
<!-- Node2 -->
<g id="node2" class="node"><title>Node2</title>
<g id="a_node2"><a xlink:href="../../d9/df8/a00096.html" target="_top" xlink:title="Base class for all belief policies. ">
<polygon fill="white" stroke="black" points="0,-138.5 0,-217.5 86,-217.5 86,-138.5 0,-138.5"/>
<text text-anchor="middle" x="43" y="-205.5" font-family="Helvetica,sans-Serif" font-size="10.00">stride::Belief</text>
<polyline fill="none" stroke="black" points="0,-198.5 86,-198.5 "/>
<text text-anchor="middle" x="43" y="-186.5" font-family="Helvetica,sans-Serif" font-size="10.00"> </text>
<polyline fill="none" stroke="black" points="0,-179.5 86,-179.5 "/>
<text text-anchor="start" x="8" y="-167.5" font-family="Helvetica,sans-Serif" font-size="10.00">+ Belief()</text>
<text text-anchor="start" x="8" y="-156.5" font-family="Helvetica,sans-Serif" font-size="10.00">+ ~Belief()</text>
<text text-anchor="start" x="8" y="-145.5" font-family="Helvetica,sans-Serif" font-size="10.00">+ HasAdopted()</text>
</a>
</g>
</g>
<!-- Node2&#45;&gt;Node1 -->
<g id="edge1" class="edge"><title>Node2&#45;&gt;Node1</title>
<path fill="none" stroke="midnightblue" d="M74.7721,-129.823C90.8006,-106.023 109.686,-77.9807 123.353,-57.6873"/>
<polygon fill="none" stroke="midnightblue" points="71.6941,-128.128 69.0111,-138.377 77.5002,-132.038 71.6941,-128.128"/>
</g>
<!-- Node3 -->
<g id="node3" class="node"><title>Node3</title>
<polygon fill="white" stroke="#bfbfbf" points="104.5,-149.5 104.5,-206.5 179.5,-206.5 179.5,-149.5 104.5,-149.5"/>
<text text-anchor="middle" x="142" y="-194.5" font-family="Helvetica,sans-Serif" font-size="10.00">VariableState</text>
<polyline fill="none" stroke="#bfbfbf" points="104.5,-187.5 179.5,-187.5 "/>
<text text-anchor="middle" x="142" y="-175.5" font-family="Helvetica,sans-Serif" font-size="10.00"> </text>
<polyline fill="none" stroke="#bfbfbf" points="104.5,-168.5 179.5,-168.5 "/>
<text text-anchor="middle" x="142" y="-156.5" font-family="Helvetica,sans-Serif" font-size="10.00"> </text>
</g>
<!-- Node3&#45;&gt;Node1 -->
<g id="edge2" class="edge"><title>Node3&#45;&gt;Node1</title>
<path fill="none" stroke="#404040" d="M142,-149.35C142,-126.868 142,-94.8549 142,-69.6431"/>
<polygon fill="none" stroke="#404040" points="142,-69.5256 138,-63.5256 142,-57.5256 146,-63.5256 142,-69.5256"/>
<text text-anchor="middle" x="202.5" y="-112" font-family="Helvetica,sans-Serif" font-size="10.00"> &#45;m_perceived_benefit</text>
<text text-anchor="middle" x="202.5" y="-101" font-family="Helvetica,sans-Serif" font-size="10.00">&#45;m_perceived_susceptibility</text>
<text text-anchor="middle" x="202.5" y="-90" font-family="Helvetica,sans-Serif" font-size="10.00">&#45;m_perceived_severity</text>
<text text-anchor="middle" x="202.5" y="-79" font-family="Helvetica,sans-Serif" font-size="10.00">&#45;m_perceived_barriers</text>
</g>
<!-- Node4 -->
<g id="node4" class="node"><title>Node4</title>
<polygon fill="white" stroke="#bfbfbf" points="251.5,-149.5 251.5,-206.5 320.5,-206.5 320.5,-149.5 251.5,-149.5"/>
<text text-anchor="middle" x="286" y="-194.5" font-family="Helvetica,sans-Serif" font-size="10.00">unsigned int</text>
<polyline fill="none" stroke="#bfbfbf" points="251.5,-187.5 320.5,-187.5 "/>
<text text-anchor="middle" x="286" y="-175.5" font-family="Helvetica,sans-Serif" font-size="10.00"> </text>
<polyline fill="none" stroke="#bfbfbf" points="251.5,-168.5 320.5,-168.5 "/>
<text text-anchor="middle" x="286" y="-156.5" font-family="Helvetica,sans-Serif" font-size="10.00"> </text>
</g>
<!-- Node4&#45;&gt;Node1 -->
<g id="edge3" class="edge"><title>Node4&#45;&gt;Node1</title>
<path fill="none" stroke="#404040" d="M286.842,-149.422C286.063,-127.132 281.477,-96.2371 264,-76 244.969,-53.9638 214.262,-42.4588 188.417,-36.4653"/>
<polygon fill="none" stroke="#404040" points="188.32,-36.4453 181.634,-39.1459 176.569,-34.0125 183.256,-31.312 188.32,-36.4453"/>
<text text-anchor="middle" x="343" y="-106.5" font-family="Helvetica,sans-Serif" font-size="10.00"> &#45;m_num_contacts</text>
<text text-anchor="middle" x="343" y="-95.5" font-family="Helvetica,sans-Serif" font-size="10.00">&#45;m_num_contacts_adopted</text>
<text text-anchor="middle" x="343" y="-84.5" font-family="Helvetica,sans-Serif" font-size="10.00">&#45;m_num_contacts_infected</text>
</g>
</g>
</svg>
