<?xml version="1.0" encoding="UTF-8" standalone="no"?>
<!DOCTYPE svg PUBLIC "-//W3C//DTD SVG 1.1//EN"
 "http://www.w3.org/Graphics/SVG/1.1/DTD/svg11.dtd">
<!-- Generated by graphviz version 2.36.0 (20140111.2315)
 -->
<!-- Title: stride::util::Any::emplace Pages: 1 -->
<svg width="494pt" height="38pt"
 viewBox="0.00 0.00 494.00 38.00" xmlns="http://www.w3.org/2000/svg" xmlns:xlink="http://www.w3.org/1999/xlink">
<g id="graph0" class="graph" transform="scale(1 1) rotate(0) translate(4 34)">
<title>stride::util::Any::emplace</title>
<polygon fill="white" stroke="none" points="-4,4 -4,-34 490,-34 490,4 -4,4"/>
<!-- Node1 -->
<g id="node1" class="node"><title>Node1</title>
<polygon fill="#bfbfbf" stroke="black" points="0.5,-0 0.5,-30 89.5,-30 89.5,-0 0.5,-0"/>
<text text-anchor="start" x="8.5" y="-18" font-family="Helvetica,sans-Serif" font-size="10.00">stride::util::Any::</text>
<text text-anchor="middle" x="45" y="-7" font-family="Helvetica,sans-Serif" font-size="10.00">emplace</text>
</g>
<!-- Node2 -->
<g id="node2" class="node"><title>Node2</title>
<g id="a_node2"><a xlink:href="../../d4/ddd/a00138.html#a452f55c55c494f5db179d36dd7e8161b" target="_top" xlink:title="Initialize beliefs container (including this in SetBeliefPolicy function slows you down due to guardi...">
<polygon fill="white" stroke="black" points="126,-0 126,-30 218,-30 218,-0 126,-0"/>
<text text-anchor="start" x="134" y="-18" font-family="Helvetica,sans-Serif" font-size="10.00">stride::Population</text>
<text text-anchor="middle" x="172" y="-7" font-family="Helvetica,sans-Serif" font-size="10.00">::InitBeliefPolicy</text>
</a>
</g>
</g>
<!-- Node1&#45;&gt;Node2 -->
<g id="edge1" class="edge"><title>Node1&#45;&gt;Node2</title>
<path fill="none" stroke="midnightblue" d="M99.7677,-15C108.453,-15 117.367,-15 125.822,-15"/>
<polygon fill="midnightblue" stroke="midnightblue" points="99.719,-11.5001 89.7189,-15 99.7189,-18.5001 99.719,-11.5001"/>
</g>
<!-- Node3 -->
<g id="node3" class="node"><title>Node3</title>
<g id="a_node3"><a xlink:href="../../d1/d84/a00097.html#a0f7876d2c8d1a4c2bc8057da26f82df5" target="_top" xlink:title="Seeds the population with Health data. ">
<polygon fill="white" stroke="black" points="254,-0 254,-30 356,-30 356,-0 254,-0"/>
<text text-anchor="start" x="262" y="-18" font-family="Helvetica,sans-Serif" font-size="10.00">stride::BeliefSeeder</text>
<text text-anchor="middle" x="305" y="-7" font-family="Helvetica,sans-Serif" font-size="10.00">::Seed</text>
</a>
</g>
</g>
<!-- Node2&#45;&gt;Node3 -->
<g id="edge2" class="edge"><title>Node2&#45;&gt;Node3</title>
<path fill="none" stroke="midnightblue" d="M228.291,-15C236.788,-15 245.52,-15 253.896,-15"/>
<polygon fill="midnightblue" stroke="midnightblue" points="228.083,-11.5001 218.083,-15 228.083,-18.5001 228.083,-11.5001"/>
</g>
<!-- Node4 -->
<g id="node4" class="node"><title>Node4</title>
<g id="a_node4"><a xlink:href="../../d2/d82/a00142.html#a94ce5fb3cae915f0bdb261498f31c444" target="_top" xlink:title="Build the simulator and return it afterwards. ">
<polygon fill="white" stroke="black" points="392,-0 392,-30 486,-30 486,-0 392,-0"/>
<text text-anchor="start" x="400" y="-18" font-family="Helvetica,sans-Serif" font-size="10.00">stride::SimBuilder</text>
<text text-anchor="middle" x="439" y="-7" font-family="Helvetica,sans-Serif" font-size="10.00">::Build</text>
</a>
</g>
</g>
<!-- Node3&#45;&gt;Node4 -->
<g id="edge3" class="edge"><title>Node3&#45;&gt;Node4</title>
<path fill="none" stroke="midnightblue" d="M366.525,-15C375.005,-15 383.606,-15 391.763,-15"/>
<polygon fill="midnightblue" stroke="midnightblue" points="366.28,-11.5001 356.28,-15 366.28,-18.5001 366.28,-11.5001"/>
</g>
</g>
</svg>
