<?xml version="1.0" encoding="UTF-8" standalone="no"?>
<!DOCTYPE svg PUBLIC "-//W3C//DTD SVG 1.1//EN"
 "http://www.w3.org/Graphics/SVG/1.1/DTD/svg11.dtd">
<!-- Generated by graphviz version 2.36.0 (20140111.2315)
 -->
<!-- Title: stride::util::NestedIterator&lt; T, OutItType, InnerItType, P, R, is_const_iterator &gt; Pages: 1 -->
<svg width="148pt" height="382pt"
 viewBox="0.00 0.00 148.00 382.00" xmlns="http://www.w3.org/2000/svg" xmlns:xlink="http://www.w3.org/1999/xlink">
<g id="graph0" class="graph" transform="scale(1 1) rotate(0) translate(4 378)">
<title>stride::util::NestedIterator&lt; T, OutItType, InnerItType, P, R, is_const_iterator &gt;</title>
<polygon fill="white" stroke="none" points="-4,4 -4,-378 144,-378 144,4 -4,4"/>
<!-- Node1 -->
<g id="node1" class="node"><title>Node1</title>
<polygon fill="#bfbfbf" stroke="black" points="0,-1 0,-245 140,-245 140,-1 0,-1"/>
<text text-anchor="start" x="8" y="-233" font-family="Helvetica,sans-Serif" font-size="10.00">stride::util::NestedIterator</text>
<text text-anchor="start" x="8" y="-222" font-family="Helvetica,sans-Serif" font-size="10.00">&lt; T, OutItType, InnerItType,</text>
<text text-anchor="middle" x="70" y="-211" font-family="Helvetica,sans-Serif" font-size="10.00"> P, R, is_const_iterator &gt;</text>
<polyline fill="none" stroke="black" points="0,-204 140,-204 "/>
<text text-anchor="start" x="8" y="-192" font-family="Helvetica,sans-Serif" font-size="10.00">&#45; m_innerIsValid</text>
<text text-anchor="start" x="8" y="-181" font-family="Helvetica,sans-Serif" font-size="10.00">&#45; m_innerIterator</text>
<text text-anchor="start" x="8" y="-170" font-family="Helvetica,sans-Serif" font-size="10.00">&#45; m_outerIterator</text>
<text text-anchor="start" x="8" y="-159" font-family="Helvetica,sans-Serif" font-size="10.00">&#45; m_outerEnd</text>
<text text-anchor="start" x="8" y="-148" font-family="Helvetica,sans-Serif" font-size="10.00">&#45; m_outerBegin</text>
<text text-anchor="start" x="8" y="-137" font-family="Helvetica,sans-Serif" font-size="10.00">&#45; m_helper</text>
<polyline fill="none" stroke="black" points="0,-130 140,-130 "/>
<text text-anchor="start" x="8" y="-118" font-family="Helvetica,sans-Serif" font-size="10.00">+ NestedIterator()</text>
<text text-anchor="start" x="8" y="-107" font-family="Helvetica,sans-Serif" font-size="10.00">+ NestedIterator()</text>
<text text-anchor="start" x="8" y="-96" font-family="Helvetica,sans-Serif" font-size="10.00">+ NestedIterator()</text>
<text text-anchor="start" x="8" y="-85" font-family="Helvetica,sans-Serif" font-size="10.00">+ operator*()</text>
<text text-anchor="start" x="8" y="-74" font-family="Helvetica,sans-Serif" font-size="10.00">+ operator&#45;&gt;()</text>
<text text-anchor="start" x="8" y="-63" font-family="Helvetica,sans-Serif" font-size="10.00">+ operator++()</text>
<text text-anchor="start" x="8" y="-52" font-family="Helvetica,sans-Serif" font-size="10.00">+ operator++()</text>
<text text-anchor="start" x="8" y="-41" font-family="Helvetica,sans-Serif" font-size="10.00">+ operator&#45;&#45;()</text>
<text text-anchor="start" x="8" y="-30" font-family="Helvetica,sans-Serif" font-size="10.00">+ operator&#45;&#45;()</text>
<text text-anchor="start" x="8" y="-19" font-family="Helvetica,sans-Serif" font-size="10.00">+ operator==()</text>
<text text-anchor="start" x="8" y="-8" font-family="Helvetica,sans-Serif" font-size="10.00">+ operator!=()</text>
</g>
<!-- Node2 -->
<g id="node2" class="node"><title>Node2</title>
<polygon fill="white" stroke="#bfbfbf" points="15,-283 15,-373 125,-373 125,-283 15,-283"/>
<text text-anchor="start" x="23" y="-361" font-family="Helvetica,sans-Serif" font-size="10.00">std::iterator&lt; std</text>
<text text-anchor="start" x="23" y="-350" font-family="Helvetica,sans-Serif" font-size="10.00">::bidirectional_iterator</text>
<text text-anchor="start" x="23" y="-339" font-family="Helvetica,sans-Serif" font-size="10.00">_tag, T, std::ptrdiff_t,</text>
<text text-anchor="middle" x="70" y="-328" font-family="Helvetica,sans-Serif" font-size="10.00"> P, R &gt;</text>
<polyline fill="none" stroke="#bfbfbf" points="15,-321 125,-321 "/>
<text text-anchor="middle" x="70" y="-309" font-family="Helvetica,sans-Serif" font-size="10.00"> </text>
<polyline fill="none" stroke="#bfbfbf" points="15,-302 125,-302 "/>
<text text-anchor="middle" x="70" y="-290" font-family="Helvetica,sans-Serif" font-size="10.00"> </text>
</g>
<!-- Node2&#45;&gt;Node1 -->
<g id="edge1" class="edge"><title>Node2&#45;&gt;Node1</title>
<path fill="none" stroke="midnightblue" d="M70,-272.702C70,-264.04 70,-254.788 70,-245.296"/>
<polygon fill="none" stroke="midnightblue" points="66.5001,-272.952 70,-282.952 73.5001,-272.952 66.5001,-272.952"/>
</g>
</g>
</svg>
