<?xml version="1.0" encoding="UTF-8" standalone="no"?>
<!DOCTYPE svg PUBLIC "-//W3C//DTD SVG 1.1//EN"
 "http://www.w3.org/Graphics/SVG/1.1/DTD/svg11.dtd">
<!-- Generated by graphviz version 2.36.0 (20140111.2315)
 -->
<!-- Title: stride::LOG_POLICY&lt; ContactLogMode::Id::All &gt;::Contact Pages: 1 -->
<svg width="280pt" height="115pt"
 viewBox="0.00 0.00 280.00 115.00" xmlns="http://www.w3.org/2000/svg" xmlns:xlink="http://www.w3.org/1999/xlink">
<g id="graph0" class="graph" transform="scale(1 1) rotate(0) translate(4 111)">
<title>stride::LOG_POLICY&lt; ContactLogMode::Id::All &gt;::Contact</title>
<polygon fill="white" stroke="none" points="-4,4 -4,-111 276,-111 276,4 -4,4"/>
<!-- Node1 -->
<g id="node1" class="node"><title>Node1</title>
<polygon fill="#bfbfbf" stroke="black" points="0,-38.5 0,-79.5 114,-79.5 114,-38.5 0,-38.5"/>
<text text-anchor="start" x="8" y="-67.5" font-family="Helvetica,sans-Serif" font-size="10.00">stride::LOG_POLICY</text>
<text text-anchor="start" x="8" y="-56.5" font-family="Helvetica,sans-Serif" font-size="10.00">&lt; ContactLogMode::Id</text>
<text text-anchor="middle" x="57" y="-45.5" font-family="Helvetica,sans-Serif" font-size="10.00">::All &gt;::Contact</text>
</g>
<!-- Node2 -->
<g id="node2" class="node"><title>Node2</title>
<g id="a_node2"><a xlink:href="../../d0/d5e/a00136.html#ad85ecf5500764ae2c025f7e2aab8003c" target="_top" xlink:title="Get the age. ">
<polygon fill="white" stroke="black" points="153,-87.5 153,-106.5 269,-106.5 269,-87.5 153,-87.5"/>
<text text-anchor="middle" x="211" y="-94.5" font-family="Helvetica,sans-Serif" font-size="10.00">stride::Person::GetAge</text>
</a>
</g>
</g>
<!-- Node1&#45;&gt;Node2 -->
<g id="edge1" class="edge"><title>Node1&#45;&gt;Node2</title>
<path fill="none" stroke="midnightblue" d="M114.167,-73.0418C129.696,-76.9241 146.413,-81.1032 161.468,-84.867"/>
<polygon fill="midnightblue" stroke="midnightblue" points="161.04,-88.3676 171.59,-87.3976 162.738,-81.5766 161.04,-88.3676"/>
</g>
<!-- Node3 -->
<g id="node3" class="node"><title>Node3</title>
<g id="a_node3"><a xlink:href="../../d0/d5e/a00136.html#afab3ab2a1a33004f9e25d4873c3c1921" target="_top" xlink:title="Get the id. ">
<polygon fill="white" stroke="black" points="157.5,-49.5 157.5,-68.5 264.5,-68.5 264.5,-49.5 157.5,-49.5"/>
<text text-anchor="middle" x="211" y="-56.5" font-family="Helvetica,sans-Serif" font-size="10.00">stride::Person::GetId</text>
</a>
</g>
</g>
<!-- Node1&#45;&gt;Node3 -->
<g id="edge2" class="edge"><title>Node1&#45;&gt;Node3</title>
<path fill="none" stroke="midnightblue" d="M114.167,-59C124.87,-59 136.137,-59 147.035,-59"/>
<polygon fill="midnightblue" stroke="midnightblue" points="147.34,-62.5001 157.34,-59 147.34,-55.5001 147.34,-62.5001"/>
</g>
<!-- Node4 -->
<g id="node4" class="node"><title>Node4</title>
<g id="a_node4"><a xlink:href="../../d0/d5e/a00136.html#a5942b9a4f5226e8810dc8b63fb250f3e" target="_top" xlink:title="Does this person participates in the social contact study? ">
<polygon fill="white" stroke="black" points="150,-0 150,-30 272,-30 272,-0 150,-0"/>
<text text-anchor="start" x="158" y="-18" font-family="Helvetica,sans-Serif" font-size="10.00">stride::Person::IsSurvey</text>
<text text-anchor="middle" x="211" y="-7" font-family="Helvetica,sans-Serif" font-size="10.00">Participant</text>
</a>
</g>
</g>
<!-- Node1&#45;&gt;Node4 -->
<g id="edge3" class="edge"><title>Node1&#45;&gt;Node4</title>
<path fill="none" stroke="midnightblue" d="M114.167,-42.741C125.287,-39.5222 137.015,-36.1272 148.307,-32.8586"/>
<polygon fill="midnightblue" stroke="midnightblue" points="149.458,-36.1691 158.09,-30.0264 147.512,-29.4451 149.458,-36.1691"/>
</g>
</g>
</svg>
