<?xml version="1.0" encoding="UTF-8" standalone="no"?>
<!DOCTYPE svg PUBLIC "-//W3C//DTD SVG 1.1//EN"
 "http://www.w3.org/Graphics/SVG/1.1/DTD/svg11.dtd">
<!-- Generated by graphviz version 2.36.0 (20140111.2315)
 -->
<!-- Title: stride::Person::GetId Pages: 1 -->
<svg width="640pt" height="522pt"
 viewBox="0.00 0.00 640.00 522.00" xmlns="http://www.w3.org/2000/svg" xmlns:xlink="http://www.w3.org/1999/xlink">
<g id="graph0" class="graph" transform="scale(1 1) rotate(0) translate(4 518)">
<title>stride::Person::GetId</title>
<polygon fill="white" stroke="none" points="-4,4 -4,-518 636,-518 636,4 -4,4"/>
<!-- Node1 -->
<g id="node1" class="node"><title>Node1</title>
<polygon fill="#bfbfbf" stroke="black" points="0.5,-246.5 0.5,-265.5 107.5,-265.5 107.5,-246.5 0.5,-246.5"/>
<text text-anchor="middle" x="54" y="-253.5" font-family="Helvetica,sans-Serif" font-size="10.00">stride::Person::GetId</text>
</g>
<!-- Node2 -->
<g id="node2" class="node"><title>Node2</title>
<g id="a_node2"><a xlink:href="../../dc/dfe/a00125.html#ac571c931677ef5dd82de6cc46a085dbd" target="_top" xlink:title="stride::LOG_POLICY\l\&lt; ContactLogMode::Id\l::All \&gt;::Contact">
<polygon fill="white" stroke="black" points="169,-472.5 169,-513.5 283,-513.5 283,-472.5 169,-472.5"/>
<text text-anchor="start" x="177" y="-501.5" font-family="Helvetica,sans-Serif" font-size="10.00">stride::LOG_POLICY</text>
<text text-anchor="start" x="177" y="-490.5" font-family="Helvetica,sans-Serif" font-size="10.00">&lt; ContactLogMode::Id</text>
<text text-anchor="middle" x="226" y="-479.5" font-family="Helvetica,sans-Serif" font-size="10.00">::All &gt;::Contact</text>
</a>
</g>
</g>
<!-- Node1&#45;&gt;Node2 -->
<g id="edge1" class="edge"><title>Node1&#45;&gt;Node2</title>
<path fill="none" stroke="midnightblue" d="M58.2295,-275.612C65.8684,-315.982 88.7286,-409.018 144,-462 151.065,-468.773 159.765,-474.105 168.813,-478.291"/>
<polygon fill="midnightblue" stroke="midnightblue" points="61.6633,-274.93 56.4643,-265.699 54.7717,-276.158 61.6633,-274.93"/>
</g>
<!-- Node3 -->
<g id="node3" class="node"><title>Node3</title>
<g id="a_node3"><a xlink:href="../../d7/d12/a00126.html#a027a20be44f26ed2efddc2198158cc04" target="_top" xlink:title="stride::LOG_POLICY\l\&lt; ContactLogMode::Id\l::Susceptibles \&gt;::Contact">
<polygon fill="white" stroke="black" points="162,-412.5 162,-453.5 290,-453.5 290,-412.5 162,-412.5"/>
<text text-anchor="start" x="170" y="-441.5" font-family="Helvetica,sans-Serif" font-size="10.00">stride::LOG_POLICY</text>
<text text-anchor="start" x="170" y="-430.5" font-family="Helvetica,sans-Serif" font-size="10.00">&lt; ContactLogMode::Id</text>
<text text-anchor="middle" x="226" y="-419.5" font-family="Helvetica,sans-Serif" font-size="10.00">::Susceptibles &gt;::Contact</text>
</a>
</g>
</g>
<!-- Node1&#45;&gt;Node3 -->
<g id="edge2" class="edge"><title>Node1&#45;&gt;Node3</title>
<path fill="none" stroke="midnightblue" d="M61.8893,-275.452C73.8706,-306.621 101.413,-367.813 144,-403 149.318,-407.394 155.34,-411.177 161.641,-414.428"/>
<polygon fill="midnightblue" stroke="midnightblue" points="65.0585,-273.932 58.3012,-265.772 58.4948,-276.365 65.0585,-273.932"/>
</g>
<!-- Node4 -->
<g id="node4" class="node"><title>Node4</title>
<g id="a_node4"><a xlink:href="../../de/d8c/a00036.html#a34a17d9a7742cc392ec09fa6dbddd402" target="_top" xlink:title="Actually perform the read and return the GeoGrid. ">
<polygon fill="white" stroke="black" points="144,-364 144,-394 308,-394 308,-364 144,-364"/>
<text text-anchor="start" x="152" y="-382" font-family="Helvetica,sans-Serif" font-size="10.00">gengeopop::GeoGridJSONReader</text>
<text text-anchor="middle" x="226" y="-371" font-family="Helvetica,sans-Serif" font-size="10.00">::Read</text>
</a>
</g>
</g>
<!-- Node1&#45;&gt;Node4 -->
<g id="edge3" class="edge"><title>Node1&#45;&gt;Node4</title>
<path fill="none" stroke="midnightblue" d="M66.8176,-274.07C82.1004,-296.055 110.74,-332.849 144,-354 150.085,-357.87 156.808,-361.174 163.702,-363.988"/>
<polygon fill="midnightblue" stroke="midnightblue" points="69.6163,-271.96 61.111,-265.643 63.8202,-275.885 69.6163,-271.96"/>
</g>
<!-- Node5 -->
<g id="node5" class="node"><title>Node5</title>
<g id="a_node5"><a xlink:href="../../d3/de7/a00039.html#ad9d1285450862c08629d6f8456976413" target="_top" xlink:title="Actually perform the read and return the GeoGrid. ">
<polygon fill="white" stroke="black" points="145.5,-315 145.5,-345 306.5,-345 306.5,-315 145.5,-315"/>
<text text-anchor="start" x="153.5" y="-333" font-family="Helvetica,sans-Serif" font-size="10.00">gengeopop::GeoGridProtoReader</text>
<text text-anchor="middle" x="226" y="-322" font-family="Helvetica,sans-Serif" font-size="10.00">::Read</text>
</a>
</g>
</g>
<!-- Node1&#45;&gt;Node5 -->
<g id="edge4" class="edge"><title>Node1&#45;&gt;Node5</title>
<path fill="none" stroke="midnightblue" d="M79.235,-271.109C96.7601,-281.591 121.258,-295.349 144,-305 152.535,-308.622 161.775,-311.975 170.856,-314.973"/>
<polygon fill="midnightblue" stroke="midnightblue" points="80.6365,-267.865 70.2718,-265.669 77.0048,-273.85 80.6365,-267.865"/>
</g>
<!-- Node6 -->
<g id="node6" class="node"><title>Node6</title>
<g id="a_node6"><a xlink:href="../../dd/d42/a00109.html#adc5b1f152367382afe3dade9421357da" target="_top" xlink:title="Build the simulator. ">
<polygon fill="white" stroke="black" points="169.5,-266 169.5,-296 282.5,-296 282.5,-266 169.5,-266"/>
<text text-anchor="start" x="177.5" y="-284" font-family="Helvetica,sans-Serif" font-size="10.00">stride::DiseaseSeeder</text>
<text text-anchor="middle" x="226" y="-273" font-family="Helvetica,sans-Serif" font-size="10.00">::Seed</text>
</a>
</g>
</g>
<!-- Node1&#45;&gt;Node6 -->
<g id="edge5" class="edge"><title>Node1&#45;&gt;Node6</title>
<path fill="none" stroke="midnightblue" d="M118.117,-265.282C134.89,-267.749 152.883,-270.395 169.233,-272.799"/>
<polygon fill="midnightblue" stroke="midnightblue" points="118.26,-261.765 107.857,-263.773 117.242,-268.691 118.26,-261.765"/>
</g>
<!-- Node8 -->
<g id="node8" class="node"><title>Node8</title>
<g id="a_node8"><a xlink:href="../../d7/dce/a00143.html#a81b191380f9a2c93768ff0efcec47f6b" target="_top" xlink:title="Seeds the population with survey participants. ">
<polygon fill="white" stroke="black" points="172,-217 172,-247 280,-247 280,-217 172,-217"/>
<text text-anchor="start" x="180" y="-235" font-family="Helvetica,sans-Serif" font-size="10.00">stride::SurveySeeder</text>
<text text-anchor="middle" x="226" y="-224" font-family="Helvetica,sans-Serif" font-size="10.00">::Seed</text>
</a>
</g>
</g>
<!-- Node1&#45;&gt;Node8 -->
<g id="edge7" class="edge"><title>Node1&#45;&gt;Node8</title>
<path fill="none" stroke="midnightblue" d="M118.091,-247.093C135.783,-244.595 154.834,-241.906 171.883,-239.499"/>
<polygon fill="midnightblue" stroke="midnightblue" points="117.27,-243.674 107.857,-248.538 118.248,-250.605 117.27,-243.674"/>
</g>
<!-- Node11 -->
<g id="node11" class="node"><title>Node11</title>
<g id="a_node11"><a xlink:href="../../df/dcd/a00127.html#a52603e3ed1e5a67a20110c339ce25872" target="_top" xlink:title="stride::LOG_POLICY\l\&lt; ContactLogMode::Id\l::Transmissions \&gt;::Trans">
<polygon fill="white" stroke="black" points="163,-157.5 163,-198.5 289,-198.5 289,-157.5 163,-157.5"/>
<text text-anchor="start" x="171" y="-186.5" font-family="Helvetica,sans-Serif" font-size="10.00">stride::LOG_POLICY</text>
<text text-anchor="start" x="171" y="-175.5" font-family="Helvetica,sans-Serif" font-size="10.00">&lt; ContactLogMode::Id</text>
<text text-anchor="middle" x="226" y="-164.5" font-family="Helvetica,sans-Serif" font-size="10.00">::Transmissions &gt;::Trans</text>
</a>
</g>
</g>
<!-- Node1&#45;&gt;Node11 -->
<g id="edge10" class="edge"><title>Node1&#45;&gt;Node11</title>
<path fill="none" stroke="midnightblue" d="M80.0826,-241.25C97.6564,-231.222 121.865,-218.009 144,-208 151.105,-204.787 158.666,-201.642 166.204,-198.669"/>
<polygon fill="midnightblue" stroke="midnightblue" points="77.9724,-238.427 71.0573,-246.454 81.4688,-244.491 77.9724,-238.427"/>
</g>
<!-- Node12 -->
<g id="node12" class="node"><title>Node12</title>
<g id="a_node12"><a xlink:href="../../dc/dfe/a00125.html#a2a1c733f931d13419e338a64a759f6c9" target="_top" xlink:title="stride::LOG_POLICY\l\&lt; ContactLogMode::Id\l::All \&gt;::Trans">
<polygon fill="white" stroke="black" points="169,-97.5 169,-138.5 283,-138.5 283,-97.5 169,-97.5"/>
<text text-anchor="start" x="177" y="-126.5" font-family="Helvetica,sans-Serif" font-size="10.00">stride::LOG_POLICY</text>
<text text-anchor="start" x="177" y="-115.5" font-family="Helvetica,sans-Serif" font-size="10.00">&lt; ContactLogMode::Id</text>
<text text-anchor="middle" x="226" y="-104.5" font-family="Helvetica,sans-Serif" font-size="10.00">::All &gt;::Trans</text>
</a>
</g>
</g>
<!-- Node1&#45;&gt;Node12 -->
<g id="edge11" class="edge"><title>Node1&#45;&gt;Node12</title>
<path fill="none" stroke="midnightblue" d="M65.7095,-237.766C80.5149,-214.015 109.368,-172.626 144,-148 151.455,-142.699 159.956,-138.221 168.582,-134.474"/>
<polygon fill="midnightblue" stroke="midnightblue" points="62.6113,-236.125 60.4116,-246.489 68.5942,-239.759 62.6113,-236.125"/>
</g>
<!-- Node13 -->
<g id="node13" class="node"><title>Node13</title>
<g id="a_node13"><a xlink:href="../../db/d3a/a00040.html#aeeb27df99670bf86ed6564b1affdd986" target="_top" xlink:title="Create a ProtoBuf Person containing all the information needed to reconstruct a Person. ">
<polygon fill="white" stroke="black" points="148.5,-49 148.5,-79 303.5,-79 303.5,-49 148.5,-49"/>
<text text-anchor="start" x="156.5" y="-67" font-family="Helvetica,sans-Serif" font-size="10.00">gengeopop::GeoGridProtoWriter</text>
<text text-anchor="middle" x="226" y="-56" font-family="Helvetica,sans-Serif" font-size="10.00">::WritePerson</text>
</a>
</g>
</g>
<!-- Node1&#45;&gt;Node13 -->
<g id="edge12" class="edge"><title>Node1&#45;&gt;Node13</title>
<path fill="none" stroke="midnightblue" d="M59.9574,-236.396C69.8446,-201.325 95.3667,-127.8 144,-88 148.2,-84.5631 152.877,-81.6184 157.807,-79.0953"/>
<polygon fill="midnightblue" stroke="midnightblue" points="56.5004,-235.775 57.2872,-246.34 63.2609,-237.59 56.5004,-235.775"/>
</g>
<!-- Node15 -->
<g id="node15" class="node"><title>Node15</title>
<g id="a_node15"><a xlink:href="../../d1/dc6/a00037.html#a0e11b2f67f86e812421761f61fd7274f" target="_top" xlink:title="Create a Boost Property Tree containing all the information needed to reconstruct a Person...">
<polygon fill="white" stroke="black" points="146.5,-0 146.5,-30 305.5,-30 305.5,-0 146.5,-0"/>
<text text-anchor="start" x="154.5" y="-18" font-family="Helvetica,sans-Serif" font-size="10.00">gengeopop::GeoGridJSONWriter</text>
<text text-anchor="middle" x="226" y="-7" font-family="Helvetica,sans-Serif" font-size="10.00">::WritePerson</text>
</a>
</g>
</g>
<!-- Node1&#45;&gt;Node15 -->
<g id="edge14" class="edge"><title>Node1&#45;&gt;Node15</title>
<path fill="none" stroke="midnightblue" d="M57.3971,-236.136C63.5959,-193.589 84.0959,-93.1312 144,-39 147.809,-35.5583 152.09,-32.6091 156.644,-30.082"/>
<polygon fill="midnightblue" stroke="midnightblue" points="53.9238,-235.704 56.06,-246.081 60.8614,-236.637 53.9238,-235.704"/>
</g>
<!-- Node7 -->
<g id="node7" class="node"><title>Node7</title>
<g id="a_node7"><a xlink:href="../../d5/db1/a00140.html#a94ce5fb3cae915f0bdb261498f31c444" target="_top" xlink:title="Build the simulator and return it afterwards. ">
<polygon fill="white" stroke="black" points="377,-266 377,-296 471,-296 471,-266 377,-266"/>
<text text-anchor="start" x="385" y="-284" font-family="Helvetica,sans-Serif" font-size="10.00">stride::SimBuilder</text>
<text text-anchor="middle" x="424" y="-273" font-family="Helvetica,sans-Serif" font-size="10.00">::Build</text>
</a>
</g>
</g>
<!-- Node6&#45;&gt;Node7 -->
<g id="edge6" class="edge"><title>Node6&#45;&gt;Node7</title>
<path fill="none" stroke="midnightblue" d="M292.984,-281C320.51,-281 351.821,-281 376.818,-281"/>
<polygon fill="midnightblue" stroke="midnightblue" points="292.641,-277.5 282.641,-281 292.641,-284.5 292.641,-277.5"/>
</g>
<!-- Node9 -->
<g id="node9" class="node"><title>Node9</title>
<g id="a_node9"><a xlink:href="../../d1/dd6/a00108.html#a98f2494729bf1d46e947b302f3e1b3b1" target="_top" xlink:title="Build Population and return it afterwards. ">
<polygon fill="white" stroke="black" points="361.5,-217 361.5,-247 486.5,-247 486.5,-217 361.5,-217"/>
<text text-anchor="start" x="369.5" y="-235" font-family="Helvetica,sans-Serif" font-size="10.00">stride::DefaultPopBuilder</text>
<text text-anchor="middle" x="424" y="-224" font-family="Helvetica,sans-Serif" font-size="10.00">::Build</text>
</a>
</g>
</g>
<!-- Node8&#45;&gt;Node9 -->
<g id="edge8" class="edge"><title>Node8&#45;&gt;Node9</title>
<path fill="none" stroke="midnightblue" d="M290.267,-232C313.01,-232 338.62,-232 361.233,-232"/>
<polygon fill="midnightblue" stroke="midnightblue" points="290.04,-228.5 280.04,-232 290.04,-235.5 290.04,-228.5"/>
</g>
<!-- Node10 -->
<g id="node10" class="node"><title>Node10</title>
<g id="a_node10"><a xlink:href="../../d2/df5/a00137.html#ac9658f1a5fa801de6742a46efb85fb9c" target="_top" xlink:title="Create a Population for the given region parameters. ">
<polygon fill="white" stroke="black" points="540,-217 540,-247 632,-247 632,-217 540,-217"/>
<text text-anchor="start" x="548" y="-235" font-family="Helvetica,sans-Serif" font-size="10.00">stride::Population</text>
<text text-anchor="middle" x="586" y="-224" font-family="Helvetica,sans-Serif" font-size="10.00">::CreateRegion</text>
</a>
</g>
</g>
<!-- Node9&#45;&gt;Node10 -->
<g id="edge9" class="edge"><title>Node9&#45;&gt;Node10</title>
<path fill="none" stroke="midnightblue" d="M497.279,-232C511.708,-232 526.475,-232 539.679,-232"/>
<polygon fill="midnightblue" stroke="midnightblue" points="496.86,-228.5 486.86,-232 496.86,-235.5 496.86,-228.5"/>
</g>
<!-- Node14 -->
<g id="node14" class="node"><title>Node14</title>
<g id="a_node14"><a xlink:href="../../db/d3a/a00040.html#a3163b8464f599d204597a01dfc47f08f" target="_top" xlink:title="Write the provided GeoGrid to the proved ostream in Protobuf format. ">
<polygon fill="white" stroke="black" points="346.5,-49 346.5,-79 501.5,-79 501.5,-49 346.5,-49"/>
<text text-anchor="start" x="354.5" y="-67" font-family="Helvetica,sans-Serif" font-size="10.00">gengeopop::GeoGridProtoWriter</text>
<text text-anchor="middle" x="424" y="-56" font-family="Helvetica,sans-Serif" font-size="10.00">::Write</text>
</a>
</g>
</g>
<!-- Node13&#45;&gt;Node14 -->
<g id="edge13" class="edge"><title>Node13&#45;&gt;Node14</title>
<path fill="none" stroke="midnightblue" d="M313.931,-64C324.762,-64 335.775,-64 346.432,-64"/>
<polygon fill="midnightblue" stroke="midnightblue" points="313.621,-60.5001 303.621,-64 313.621,-67.5001 313.621,-60.5001"/>
</g>
<!-- Node16 -->
<g id="node16" class="node"><title>Node16</title>
<g id="a_node16"><a xlink:href="../../d1/dc6/a00037.html#a06da89c72da72992bbd517973c9513eb" target="_top" xlink:title="Write the provided GeoGrid to the proved ostream in JSON format. ">
<polygon fill="white" stroke="black" points="344.5,-0 344.5,-30 503.5,-30 503.5,-0 344.5,-0"/>
<text text-anchor="start" x="352.5" y="-18" font-family="Helvetica,sans-Serif" font-size="10.00">gengeopop::GeoGridJSONWriter</text>
<text text-anchor="middle" x="424" y="-7" font-family="Helvetica,sans-Serif" font-size="10.00">::Write</text>
</a>
</g>
</g>
<!-- Node15&#45;&gt;Node16 -->
<g id="edge15" class="edge"><title>Node15&#45;&gt;Node16</title>
<path fill="none" stroke="midnightblue" d="M315.855,-15C325.372,-15 335.005,-15 344.391,-15"/>
<polygon fill="midnightblue" stroke="midnightblue" points="315.591,-11.5001 305.591,-15 315.591,-18.5001 315.591,-11.5001"/>
</g>
</g>
</svg>
