<?xml version="1.0" encoding="UTF-8" standalone="no"?>
<!DOCTYPE svg PUBLIC "-//W3C//DTD SVG 1.1//EN"
 "http://www.w3.org/Graphics/SVG/1.1/DTD/svg11.dtd">
<!-- Generated by graphviz version 2.36.0 (20140111.2315)
 -->
<!-- Title: stride::Person::IsSurveyParticipant Pages: 1 -->
<svg width="584pt" height="158pt"
 viewBox="0.00 0.00 584.00 158.00" xmlns="http://www.w3.org/2000/svg" xmlns:xlink="http://www.w3.org/1999/xlink">
<g id="graph0" class="graph" transform="scale(1 1) rotate(0) translate(4 154)">
<title>stride::Person::IsSurveyParticipant</title>
<polygon fill="white" stroke="none" points="-4,4 -4,-154 580,-154 580,4 -4,4"/>
<!-- Node1 -->
<g id="node1" class="node"><title>Node1</title>
<polygon fill="#bfbfbf" stroke="black" points="0,-54 0,-84 122,-84 122,-54 0,-54"/>
<text text-anchor="start" x="8" y="-72" font-family="Helvetica,sans-Serif" font-size="10.00">stride::Person::IsSurvey</text>
<text text-anchor="middle" x="61" y="-61" font-family="Helvetica,sans-Serif" font-size="10.00">Participant</text>
</g>
<!-- Node2 -->
<g id="node2" class="node"><title>Node2</title>
<g id="a_node2"><a xlink:href="../../dc/dfe/a00125.html#ac571c931677ef5dd82de6cc46a085dbd" target="_top" xlink:title="stride::LOG_POLICY\l\&lt; ContactLogMode::Id\l::All \&gt;::Contact">
<polygon fill="white" stroke="black" points="165,-108.5 165,-149.5 279,-149.5 279,-108.5 165,-108.5"/>
<text text-anchor="start" x="173" y="-137.5" font-family="Helvetica,sans-Serif" font-size="10.00">stride::LOG_POLICY</text>
<text text-anchor="start" x="173" y="-126.5" font-family="Helvetica,sans-Serif" font-size="10.00">&lt; ContactLogMode::Id</text>
<text text-anchor="middle" x="222" y="-115.5" font-family="Helvetica,sans-Serif" font-size="10.00">::All &gt;::Contact</text>
</a>
</g>
</g>
<!-- Node1&#45;&gt;Node2 -->
<g id="edge1" class="edge"><title>Node1&#45;&gt;Node2</title>
<path fill="none" stroke="midnightblue" d="M111.548,-87.6975C128.979,-94.2749 148.659,-101.701 166.476,-108.425"/>
<polygon fill="midnightblue" stroke="midnightblue" points="112.714,-84.3966 102.122,-84.1405 110.243,-90.9458 112.714,-84.3966"/>
</g>
<!-- Node3 -->
<g id="node3" class="node"><title>Node3</title>
<g id="a_node3"><a xlink:href="../../d7/d12/a00126.html#a027a20be44f26ed2efddc2198158cc04" target="_top" xlink:title="stride::LOG_POLICY\l\&lt; ContactLogMode::Id\l::Susceptibles \&gt;::Contact">
<polygon fill="white" stroke="black" points="158,-48.5 158,-89.5 286,-89.5 286,-48.5 158,-48.5"/>
<text text-anchor="start" x="166" y="-77.5" font-family="Helvetica,sans-Serif" font-size="10.00">stride::LOG_POLICY</text>
<text text-anchor="start" x="166" y="-66.5" font-family="Helvetica,sans-Serif" font-size="10.00">&lt; ContactLogMode::Id</text>
<text text-anchor="middle" x="222" y="-55.5" font-family="Helvetica,sans-Serif" font-size="10.00">::Susceptibles &gt;::Contact</text>
</a>
</g>
</g>
<!-- Node1&#45;&gt;Node3 -->
<g id="edge2" class="edge"><title>Node1&#45;&gt;Node3</title>
<path fill="none" stroke="midnightblue" d="M132.377,-69C140.872,-69 149.508,-69 157.89,-69"/>
<polygon fill="midnightblue" stroke="midnightblue" points="132.111,-65.5001 122.111,-69 132.111,-72.5001 132.111,-65.5001"/>
</g>
<!-- Node4 -->
<g id="node4" class="node"><title>Node4</title>
<g id="a_node4"><a xlink:href="../../d7/dce/a00143.html#a81b191380f9a2c93768ff0efcec47f6b" target="_top" xlink:title="Seeds the population with survey participants. ">
<polygon fill="white" stroke="black" points="168,-0 168,-30 276,-30 276,-0 168,-0"/>
<text text-anchor="start" x="176" y="-18" font-family="Helvetica,sans-Serif" font-size="10.00">stride::SurveySeeder</text>
<text text-anchor="middle" x="222" y="-7" font-family="Helvetica,sans-Serif" font-size="10.00">::Seed</text>
</a>
</g>
</g>
<!-- Node1&#45;&gt;Node4 -->
<g id="edge3" class="edge"><title>Node1&#45;&gt;Node4</title>
<path fill="none" stroke="midnightblue" d="M115.797,-50.7294C135.603,-44.0028 157.794,-36.4661 176.672,-30.0549"/>
<polygon fill="midnightblue" stroke="midnightblue" points="114.634,-47.428 106.29,-53.958 116.885,-54.0562 114.634,-47.428"/>
</g>
<!-- Node5 -->
<g id="node5" class="node"><title>Node5</title>
<g id="a_node5"><a xlink:href="../../d1/dd6/a00108.html#a98f2494729bf1d46e947b302f3e1b3b1" target="_top" xlink:title="Build Population and return it afterwards. ">
<polygon fill="white" stroke="black" points="322.5,-0 322.5,-30 447.5,-30 447.5,-0 322.5,-0"/>
<text text-anchor="start" x="330.5" y="-18" font-family="Helvetica,sans-Serif" font-size="10.00">stride::DefaultPopBuilder</text>
<text text-anchor="middle" x="385" y="-7" font-family="Helvetica,sans-Serif" font-size="10.00">::Build</text>
</a>
</g>
</g>
<!-- Node4&#45;&gt;Node5 -->
<g id="edge4" class="edge"><title>Node4&#45;&gt;Node5</title>
<path fill="none" stroke="midnightblue" d="M286.373,-15C298.173,-15 310.487,-15 322.238,-15"/>
<polygon fill="midnightblue" stroke="midnightblue" points="286.164,-11.5001 276.164,-15 286.164,-18.5001 286.164,-11.5001"/>
</g>
<!-- Node6 -->
<g id="node6" class="node"><title>Node6</title>
<g id="a_node6"><a xlink:href="../../d2/df5/a00137.html#ac9658f1a5fa801de6742a46efb85fb9c" target="_top" xlink:title="Create a Population for the given region parameters. ">
<polygon fill="white" stroke="black" points="484,-0 484,-30 576,-30 576,-0 484,-0"/>
<text text-anchor="start" x="492" y="-18" font-family="Helvetica,sans-Serif" font-size="10.00">stride::Population</text>
<text text-anchor="middle" x="530" y="-7" font-family="Helvetica,sans-Serif" font-size="10.00">::CreateRegion</text>
</a>
</g>
</g>
<!-- Node5&#45;&gt;Node6 -->
<g id="edge5" class="edge"><title>Node5&#45;&gt;Node6</title>
<path fill="none" stroke="midnightblue" d="M458.137,-15C466.888,-15 475.626,-15 483.828,-15"/>
<polygon fill="midnightblue" stroke="midnightblue" points="457.89,-11.5001 447.89,-15 457.89,-18.5001 457.89,-11.5001"/>
</g>
</g>
</svg>
