<?xml version="1.0" encoding="UTF-8" standalone="no"?>
<!DOCTYPE svg PUBLIC "-//W3C//DTD SVG 1.1//EN"
 "http://www.w3.org/Graphics/SVG/1.1/DTD/svg11.dtd">
<!-- Generated by graphviz version 2.36.0 (20140111.2315)
 -->
<!-- Title: stride::Person::GetHealth Pages: 1 -->
<!--zoomable 230 -->
<svg id="main" version="1.1" xmlns="http://www.w3.org/2000/svg" xmlns:xlink="http://www.w3.org/1999/xlink" xml:space="preserve" onload="init(evt)">
<style type="text/css"><![CDATA[
.edge:hover path { stroke: red; }
.edge:hover polygon { stroke: red; fill: red; }
]]></style>
<script type="text/javascript"><![CDATA[
var edges = document.getElementsByTagName('g');
if (edges && edges.length) {
  for (var i=0;i<edges.length;i++) {
    if (edges[i].id.substr(0,4)=='edge') {
      edges[i].setAttribute('class','edge');
    }
  }
}
]]></script>
        <defs>
                <circle id="rim" cx="0" cy="0" r="7"/>
                <circle id="rim2" cx="0" cy="0" r="3.5"/>
                <g id="zoomPlus">
                        <use xlink:href="#rim" fill="#404040">
                                <set attributeName="fill" to="#808080" begin="zoomplus.mouseover" end="zoomplus.mouseout"/>
                        </use>
                        <path d="M-4,0h8M0,-4v8" fill="none" stroke="white" stroke-width="1.5" pointer-events="none"/>
                </g>
                <g id="zoomMin">
                        <use xlink:href="#rim" fill="#404040">
                                <set attributeName="fill" to="#808080" begin="zoomminus.mouseover" end="zoomminus.mouseout"/>
                        </use>
                        <path d="M-4,0h8" fill="none" stroke="white" stroke-width="1.5" pointer-events="none"/>
                </g>
                <g id="dirArrow">
                        <path fill="none" stroke="white" stroke-width="1.5" d="M0,-3.0v7 M-2.5,-0.5L0,-3.0L2.5,-0.5"/>
                </g>
               <g id="resetDef">
                       <use xlink:href="#rim2" fill="#404040">
                               <set attributeName="fill" to="#808080" begin="reset.mouseover" end="reset.mouseout"/>
                       </use>
               </g>
        </defs>

<script type="text/javascript">
var viewWidth = 732;
var viewHeight = 230;
var sectionId = 'dynsection-4';
</script>
<script xlink:href="../../svgpan.js"/>
<svg id="graph" class="graph">
<g id="viewport">
<title>stride::Person::GetHealth</title>
<polygon fill="white" stroke="none" points="-4,4 -4,-225.652 728,-225.652 728,4 -4,4"/>
<!-- Node1 -->
<g id="node1" class="node"><title>Node1</title>
<polygon fill="#bfbfbf" stroke="black" points="0,-93.1522 0,-112.152 128,-112.152 128,-93.1522 0,-93.1522"/>
<text text-anchor="middle" x="64" y="-100.152" font-family="Helvetica,sans-Serif" font-size="10.00">stride::Person::GetHealth</text>
</g>
<!-- Node2 -->
<g id="node2" class="node"><title>Node2</title>
<g id="a_node2"><a xlink:href="../../d7/d12/a00126.html#a027a20be44f26ed2efddc2198158cc04" target="_top" xlink:title="stride::LOG_POLICY\l\&lt; ContactLogMode::Id\l::Susceptibles \&gt;::Contact">
<polygon fill="white" stroke="black" points="165,-180.152 165,-221.152 293,-221.152 293,-180.152 165,-180.152"/>
<text text-anchor="start" x="173" y="-209.152" font-family="Helvetica,sans-Serif" font-size="10.00">stride::LOG_POLICY</text>
<text text-anchor="start" x="173" y="-198.152" font-family="Helvetica,sans-Serif" font-size="10.00">&lt; ContactLogMode::Id</text>
<text text-anchor="middle" x="229" y="-187.152" font-family="Helvetica,sans-Serif" font-size="10.00">::Susceptibles &gt;::Contact</text>
</a>
</g>
</g>
<!-- Node1&#45;&gt;Node2 -->
<g id="edge1" class="edge"><title>Node1&#45;&gt;Node2</title>
<path fill="none" stroke="midnightblue" d="M85.8878,-118.49C105.488,-132.987 135.913,-154.567 164,-170.652 169.644,-173.884 175.694,-177.064 181.74,-180.074"/>
<polygon fill="midnightblue" stroke="midnightblue" points="87.7986,-115.549 77.691,-112.373 83.6119,-121.159 87.7986,-115.549"/>
</g>
<!-- Node3 -->
<g id="node3" class="node"><title>Node3</title>
<g id="a_node3"><a xlink:href="../../d4/d98/a00120.html#a45b455fb644270329ae1d53aad9de4db" target="_top" xlink:title="stride::Infector::Exec">
<polygon fill="white" stroke="black" points="175,-142.152 175,-161.152 283,-161.152 283,-142.152 175,-142.152"/>
<text text-anchor="middle" x="229" y="-149.152" font-family="Helvetica,sans-Serif" font-size="10.00">stride::Infector::Exec</text>
</a>
</g>
</g>
<!-- Node1&#45;&gt;Node3 -->
<g id="edge2" class="edge"><title>Node1&#45;&gt;Node3</title>
<path fill="none" stroke="midnightblue" d="M106.682,-115.182C134.571,-123.566 170.708,-134.429 196.265,-142.112"/>
<polygon fill="midnightblue" stroke="midnightblue" points="107.399,-111.743 96.815,-112.216 105.384,-118.447 107.399,-111.743"/>
</g>
<!-- Node4 -->
<g id="node4" class="node"><title>Node4</title>
<g id="a_node4"><a xlink:href="../../d8/dfa/a00121.html#a3e10dc57119090c30ba818420bbd7b94" target="_top" xlink:title="stride::Infector\&lt; LL,\l TIC, NoLocalInformation,\l true \&gt;::Exec">
<polygon fill="white" stroke="black" points="164,-82.1522 164,-123.152 294,-123.152 294,-82.1522 164,-82.1522"/>
<text text-anchor="start" x="172" y="-111.152" font-family="Helvetica,sans-Serif" font-size="10.00">stride::Infector&lt; LL,</text>
<text text-anchor="start" x="172" y="-100.152" font-family="Helvetica,sans-Serif" font-size="10.00"> TIC, NoLocalInformation,</text>
<text text-anchor="middle" x="229" y="-89.1522" font-family="Helvetica,sans-Serif" font-size="10.00"> true &gt;::Exec</text>
</a>
</g>
</g>
<!-- Node1&#45;&gt;Node4 -->
<g id="edge3" class="edge"><title>Node1&#45;&gt;Node4</title>
<path fill="none" stroke="midnightblue" d="M138.027,-102.652C146.621,-102.652 155.342,-102.652 163.802,-102.652"/>
<polygon fill="midnightblue" stroke="midnightblue" points="138.02,-99.1523 128.02,-102.652 138.02,-106.152 138.02,-99.1523"/>
</g>
<!-- Node5 -->
<g id="node5" class="node"><title>Node5</title>
<g id="a_node5"><a xlink:href="../../d4/d3e/a00116.html#a8188dc69064103c5ac7e95193356a0c3" target="_top" xlink:title="Random immunization. ">
<polygon fill="white" stroke="black" points="180,-33.6522 180,-63.6522 278,-63.6522 278,-33.6522 180,-33.6522"/>
<text text-anchor="start" x="188" y="-51.6522" font-family="Helvetica,sans-Serif" font-size="10.00">stride::Immunizer::</text>
<text text-anchor="middle" x="229" y="-40.6522" font-family="Helvetica,sans-Serif" font-size="10.00">Random</text>
</a>
</g>
</g>
<!-- Node1&#45;&gt;Node5 -->
<g id="edge4" class="edge"><title>Node1&#45;&gt;Node5</title>
<path fill="none" stroke="midnightblue" d="M103.475,-89.9059C127.187,-82.0503 157.712,-71.9378 182.605,-63.6912"/>
<polygon fill="midnightblue" stroke="midnightblue" points="102.158,-86.6551 93.7659,-93.1224 104.359,-93.3 102.158,-86.6551"/>
</g>
<!-- Node7 -->
<g id="node7" class="node"><title>Node7</title>
<g id="a_node7"><a xlink:href="../../dd/d42/a00109.html#adc5b1f152367382afe3dade9421357da" target="_top" xlink:title="Build the simulator. ">
<polygon fill="white" stroke="black" points="480.5,-11.6522 480.5,-41.6522 593.5,-41.6522 593.5,-11.6522 480.5,-11.6522"/>
<text text-anchor="start" x="488.5" y="-29.6522" font-family="Helvetica,sans-Serif" font-size="10.00">stride::DiseaseSeeder</text>
<text text-anchor="middle" x="537" y="-18.6522" font-family="Helvetica,sans-Serif" font-size="10.00">::Seed</text>
</a>
</g>
</g>
<!-- Node1&#45;&gt;Node7 -->
<g id="edge8" class="edge"><title>Node1&#45;&gt;Node7</title>
<path fill="none" stroke="midnightblue" d="M79.6922,-85.3922C97.3934,-66.0666 129.133,-35.8587 164,-23.6522 270.829,13.7472 405.727,-1.46433 480.199,-14.7818"/>
<polygon fill="midnightblue" stroke="midnightblue" points="77.0249,-83.1247 72.9973,-92.9242 82.2569,-87.7752 77.0249,-83.1247"/>
</g>
<!-- Node6 -->
<g id="node6" class="node"><title>Node6</title>
<g id="a_node6"><a xlink:href="../../dd/d42/a00109.html#accb4b7832c08a4cc98973caf5aebf7f5" target="_top" xlink:title="Seed for vaccination/natural immunity. ">
<polygon fill="white" stroke="black" points="330.5,-33.6522 330.5,-63.6522 443.5,-63.6522 443.5,-33.6522 330.5,-33.6522"/>
<text text-anchor="start" x="338.5" y="-51.6522" font-family="Helvetica,sans-Serif" font-size="10.00">stride::DiseaseSeeder</text>
<text text-anchor="middle" x="387" y="-40.6522" font-family="Helvetica,sans-Serif" font-size="10.00">::Vaccinate</text>
</a>
</g>
</g>
<!-- Node5&#45;&gt;Node6 -->
<g id="edge5" class="edge"><title>Node5&#45;&gt;Node6</title>
<path fill="none" stroke="midnightblue" d="M288.402,-48.6522C302.165,-48.6522 316.799,-48.6522 330.433,-48.6522"/>
<polygon fill="midnightblue" stroke="midnightblue" points="288.078,-45.1523 278.078,-48.6522 288.078,-52.1523 288.078,-45.1523"/>
</g>
<!-- Node6&#45;&gt;Node7 -->
<g id="edge6" class="edge"><title>Node6&#45;&gt;Node7</title>
<path fill="none" stroke="midnightblue" d="M453.481,-38.9186C462.381,-37.5955 471.449,-36.2477 480.158,-34.9531"/>
<polygon fill="midnightblue" stroke="midnightblue" points="452.907,-35.4653 443.531,-40.3977 453.937,-42.3892 452.907,-35.4653"/>
</g>
<!-- Node8 -->
<g id="node8" class="node"><title>Node8</title>
<g id="a_node8"><a xlink:href="../../d5/db1/a00140.html#a94ce5fb3cae915f0bdb261498f31c444" target="_top" xlink:title="Build the simulator and return it afterwards. ">
<polygon fill="white" stroke="black" points="630,-11.6522 630,-41.6522 724,-41.6522 724,-11.6522 630,-11.6522"/>
<text text-anchor="start" x="638" y="-29.6522" font-family="Helvetica,sans-Serif" font-size="10.00">stride::SimBuilder</text>
<text text-anchor="middle" x="677" y="-18.6522" font-family="Helvetica,sans-Serif" font-size="10.00">::Build</text>
</a>
</g>
</g>
<!-- Node7&#45;&gt;Node8 -->
<g id="edge7" class="edge"><title>Node7&#45;&gt;Node8</title>
<path fill="none" stroke="midnightblue" d="M603.928,-26.6522C612.669,-26.6522 621.475,-26.6522 629.784,-26.6522"/>
<polygon fill="midnightblue" stroke="midnightblue" points="603.732,-23.1523 593.732,-26.6522 603.732,-30.1523 603.732,-23.1523"/>
</g>
</g>
</svg>
        <g id="navigator" transform="translate(0 0)" fill="#404254">
                <rect fill="#f2f5e9" fill-opacity="0.5" stroke="#606060" stroke-width=".5" x="0" y="0" width="60" height="60"/>
                <use id="zoomplus" xlink:href="#zoomPlus" x="17" y="9" onmousedown="handleZoom(evt,'in')"/>
                <use id="zoomminus" xlink:href="#zoomMin" x="42" y="9" onmousedown="handleZoom(evt,'out')"/>
                <use id="reset" xlink:href="#resetDef" x="30" y="36" onmousedown="handleReset()"/>
                <g id="arrowUp" xlink:href="#dirArrow" transform="translate(30 24)" onmousedown="handlePan(0,-1)">
                  <use xlink:href="#rim" fill="#404040">
                        <set attributeName="fill" to="#808080" begin="arrowUp.mouseover" end="arrowUp.mouseout"/>
                  </use>
                  <path fill="none" stroke="white" stroke-width="1.5" d="M0,-3.0v7 M-2.5,-0.5L0,-3.0L2.5,-0.5"/>
                </g>
                <g id="arrowRight" xlink:href="#dirArrow" transform="rotate(90) translate(36 -43)" onmousedown="handlePan(1,0)">
                  <use xlink:href="#rim" fill="#404040">
                        <set attributeName="fill" to="#808080" begin="arrowRight.mouseover" end="arrowRight.mouseout"/>
                  </use>
                  <path fill="none" stroke="white" stroke-width="1.5" d="M0,-3.0v7 M-2.5,-0.5L0,-3.0L2.5,-0.5"/>
                </g>
                <g id="arrowDown" xlink:href="#dirArrow" transform="rotate(180) translate(-30 -48)" onmousedown="handlePan(0,1)">
                  <use xlink:href="#rim" fill="#404040">
                        <set attributeName="fill" to="#808080" begin="arrowDown.mouseover" end="arrowDown.mouseout"/>
                  </use>
                  <path fill="none" stroke="white" stroke-width="1.5" d="M0,-3.0v7 M-2.5,-0.5L0,-3.0L2.5,-0.5"/>
                </g>
                <g id="arrowLeft" xlink:href="#dirArrow" transform="rotate(270) translate(-36 17)" onmousedown="handlePan(-1,0)">
                  <use xlink:href="#rim" fill="#404040">
                        <set attributeName="fill" to="#808080" begin="arrowLeft.mouseover" end="arrowLeft.mouseout"/>
                  </use>
                  <path fill="none" stroke="white" stroke-width="1.5" d="M0,-3.0v7 M-2.5,-0.5L0,-3.0L2.5,-0.5"/>
                </g>
        </g>
        <svg viewBox="0 0 15 15" width="100%" height="30px" preserveAspectRatio="xMaxYMin meet">
         <g id="arrow_out" transform="scale(0.3 0.3)">
          <a xlink:href="a00136_a53081dbb062c019153b8be62083d59a2_icgraph_org.svg" target="_base">
           <rect id="button" ry="5" rx="5" y="6" x="6" height="38" width="38"
                fill="#f2f5e9" fill-opacity="0.5" stroke="#606060" stroke-width="1.0"/>
           <path id="arrow"
             d="M 11.500037,31.436501 C 11.940474,20.09759 22.043105,11.32322 32.158766,21.979434 L 37.068811,17.246167 C 37.068811,17.246167 37.088388,32 37.088388,32 L 22.160133,31.978069 C 22.160133,31.978069 26.997745,27.140456 26.997745,27.140456 C 18.528582,18.264221 13.291696,25.230495 11.500037,31.436501 z"
             style="fill:#404040;"/>
          </a>
         </g>
        </svg>
</svg>
