<?xml version="1.0" encoding="UTF-8" standalone="no"?>
<!DOCTYPE svg PUBLIC "-//W3C//DTD SVG 1.1//EN"
 "http://www.w3.org/Graphics/SVG/1.1/DTD/svg11.dtd">
<!-- Generated by graphviz version 2.36.0 (20140111.2315)
 -->
<!-- Title: stride::Person::IsInPool Pages: 1 -->
<svg width="294pt" height="87pt"
 viewBox="0.00 0.00 294.00 87.00" xmlns="http://www.w3.org/2000/svg" xmlns:xlink="http://www.w3.org/1999/xlink">
<g id="graph0" class="graph" transform="scale(1 1) rotate(0) translate(4 83)">
<title>stride::Person::IsInPool</title>
<polygon fill="white" stroke="none" points="-4,4 -4,-83 290,-83 290,4 -4,4"/>
<!-- Node1 -->
<g id="node1" class="node"><title>Node1</title>
<polygon fill="#bfbfbf" stroke="black" points="0.5,-34.5 0.5,-53.5 119.5,-53.5 119.5,-34.5 0.5,-34.5"/>
<text text-anchor="middle" x="60" y="-41.5" font-family="Helvetica,sans-Serif" font-size="10.00">stride::Person::IsInPool</text>
</g>
<!-- Node2 -->
<g id="node2" class="node"><title>Node2</title>
<g id="a_node2"><a xlink:href="../../d4/d98/a00120.html#a45b455fb644270329ae1d53aad9de4db" target="_top" xlink:title="stride::Infector::Exec">
<polygon fill="white" stroke="black" points="167,-59.5 167,-78.5 275,-78.5 275,-59.5 167,-59.5"/>
<text text-anchor="middle" x="221" y="-66.5" font-family="Helvetica,sans-Serif" font-size="10.00">stride::Infector::Exec</text>
</a>
</g>
</g>
<!-- Node1&#45;&gt;Node2 -->
<g id="edge1" class="edge"><title>Node1&#45;&gt;Node2</title>
<path fill="none" stroke="midnightblue" d="M129.989,-54.8473C142.301,-56.7832 154.955,-58.7728 166.743,-60.6262"/>
<polygon fill="midnightblue" stroke="midnightblue" points="130.176,-51.3339 119.754,-53.238 129.089,-58.2489 130.176,-51.3339"/>
</g>
<!-- Node3 -->
<g id="node3" class="node"><title>Node3</title>
<g id="a_node3"><a xlink:href="../../d8/dfa/a00121.html#a3e10dc57119090c30ba818420bbd7b94" target="_top" xlink:title="stride::Infector\&lt; LL,\l TIC, NoLocalInformation,\l true \&gt;::Exec">
<polygon fill="white" stroke="black" points="156,0.5 156,-40.5 286,-40.5 286,0.5 156,0.5"/>
<text text-anchor="start" x="164" y="-28.5" font-family="Helvetica,sans-Serif" font-size="10.00">stride::Infector&lt; LL,</text>
<text text-anchor="start" x="164" y="-17.5" font-family="Helvetica,sans-Serif" font-size="10.00"> TIC, NoLocalInformation,</text>
<text text-anchor="middle" x="221" y="-6.5" font-family="Helvetica,sans-Serif" font-size="10.00"> true &gt;::Exec</text>
</a>
</g>
</g>
<!-- Node1&#45;&gt;Node3 -->
<g id="edge2" class="edge"><title>Node1&#45;&gt;Node3</title>
<path fill="none" stroke="midnightblue" d="M129.811,-33.6135C138.466,-32.307 147.294,-30.9745 155.874,-29.6794"/>
<polygon fill="midnightblue" stroke="midnightblue" points="129.12,-30.1781 119.754,-35.1315 130.164,-37.0997 129.12,-30.1781"/>
</g>
</g>
</svg>
