<?xml version="1.0" encoding="UTF-8" standalone="no"?>
<!DOCTYPE svg PUBLIC "-//W3C//DTD SVG 1.1//EN"
 "http://www.w3.org/Graphics/SVG/1.1/DTD/svg11.dtd">
<!-- Generated by graphviz version 2.36.0 (20140111.2315)
 -->
<!-- Title: stride::Person::SetWorkId Pages: 1 -->
<svg width="526pt" height="38pt"
 viewBox="0.00 0.00 526.00 38.00" xmlns="http://www.w3.org/2000/svg" xmlns:xlink="http://www.w3.org/1999/xlink">
<g id="graph0" class="graph" transform="scale(1 1) rotate(0) translate(4 34)">
<title>stride::Person::SetWorkId</title>
<polygon fill="white" stroke="none" points="-4,4 -4,-34 522,-34 522,4 -4,4"/>
<!-- Node1 -->
<g id="node1" class="node"><title>Node1</title>
<polygon fill="#bfbfbf" stroke="black" points="0,-5.5 0,-24.5 130,-24.5 130,-5.5 0,-5.5"/>
<text text-anchor="middle" x="65" y="-12.5" font-family="Helvetica,sans-Serif" font-size="10.00">stride::Person::SetWorkId</text>
</g>
<!-- Node2 -->
<g id="node2" class="node"><title>Node2</title>
<g id="a_node2"><a xlink:href="../../d6/d2c/a00072.html#a5ad89eccae3e00345e123b1e65ec7ebe" target="_top" xlink:title="Assign a workplace to an active person. ">
<polygon fill="white" stroke="black" points="166,-0 166,-30 324,-30 324,-0 166,-0"/>
<text text-anchor="start" x="174" y="-18" font-family="Helvetica,sans-Serif" font-size="10.00">gengeopop::WorkplacePopulator</text>
<text text-anchor="middle" x="245" y="-7" font-family="Helvetica,sans-Serif" font-size="10.00">::AssignActive</text>
</a>
</g>
</g>
<!-- Node1&#45;&gt;Node2 -->
<g id="edge1" class="edge"><title>Node1&#45;&gt;Node2</title>
<path fill="none" stroke="midnightblue" d="M140.258,-15C148.751,-15 157.429,-15 165.97,-15"/>
<polygon fill="midnightblue" stroke="midnightblue" points="140.011,-11.5001 130.011,-15 140.011,-18.5001 140.011,-11.5001"/>
</g>
<!-- Node3 -->
<g id="node3" class="node"><title>Node3</title>
<g id="a_node3"><a xlink:href="../../d6/d2c/a00072.html#ace51c5ac0d05c5fca400d8f93a26ec87" target="_top" xlink:title="Populates the workplaces in geogrid with persons. ">
<polygon fill="white" stroke="black" points="360,-0 360,-30 518,-30 518,-0 360,-0"/>
<text text-anchor="start" x="368" y="-18" font-family="Helvetica,sans-Serif" font-size="10.00">gengeopop::WorkplacePopulator</text>
<text text-anchor="middle" x="439" y="-7" font-family="Helvetica,sans-Serif" font-size="10.00">::Apply</text>
</a>
</g>
</g>
<!-- Node2&#45;&gt;Node3 -->
<g id="edge2" class="edge"><title>Node2&#45;&gt;Node3</title>
<path fill="none" stroke="midnightblue" d="M334.153,-15C342.769,-15 351.47,-15 359.975,-15"/>
<polygon fill="midnightblue" stroke="midnightblue" points="334.094,-11.5001 324.094,-15 334.094,-18.5001 334.094,-11.5001"/>
</g>
</g>
</svg>
