<?xml version="1.0" encoding="UTF-8" standalone="no"?>
<!DOCTYPE svg PUBLIC "-//W3C//DTD SVG 1.1//EN"
 "http://www.w3.org/Graphics/SVG/1.1/DTD/svg11.dtd">
<!-- Generated by graphviz version 2.36.0 (20140111.2315)
 -->
<!-- Title: stride::TravellerIndex::StartTravel Pages: 1 -->
<svg width="412pt" height="175pt"
 viewBox="0.00 0.00 412.00 175.00" xmlns="http://www.w3.org/2000/svg" xmlns:xlink="http://www.w3.org/1999/xlink">
<g id="graph0" class="graph" transform="scale(1 1) rotate(0) translate(4 171)">
<title>stride::TravellerIndex::StartTravel</title>
<polygon fill="white" stroke="none" points="-4,4 -4,-171 408,-171 408,4 -4,4"/>
<!-- Node1 -->
<g id="node1" class="node"><title>Node1</title>
<polygon fill="#bfbfbf" stroke="black" points="0,-66 0,-96 108,-96 108,-66 0,-66"/>
<text text-anchor="start" x="8" y="-84" font-family="Helvetica,sans-Serif" font-size="10.00">stride::TravellerIndex</text>
<text text-anchor="middle" x="54" y="-73" font-family="Helvetica,sans-Serif" font-size="10.00">::StartTravel</text>
</g>
<!-- Node2 -->
<g id="node2" class="node"><title>Node2</title>
<g id="a_node2"><a xlink:href="../../d4/d3a/a00101.html#ad3651d6f186ce2ea7e0f7a746a2d4f94" target="_top" xlink:title="Add the given Person as an expat. ">
<polygon fill="white" stroke="black" points="154.5,-137 154.5,-167 255.5,-167 255.5,-137 154.5,-137"/>
<text text-anchor="start" x="162.5" y="-155" font-family="Helvetica,sans-Serif" font-size="10.00">stride::ContactPool</text>
<text text-anchor="middle" x="205" y="-144" font-family="Helvetica,sans-Serif" font-size="10.00">::AddExpat</text>
</a>
</g>
</g>
<!-- Node1&#45;&gt;Node2 -->
<g id="edge1" class="edge"><title>Node1&#45;&gt;Node2</title>
<path fill="none" stroke="midnightblue" d="M82.7661,-96.0989C100.176,-105.379 123.188,-117.306 144,-127 148.14,-128.928 152.47,-130.872 156.827,-132.777"/>
<polygon fill="midnightblue" stroke="midnightblue" points="155.776,-136.135 166.345,-136.868 158.539,-129.703 155.776,-136.135"/>
</g>
<!-- Node4 -->
<g id="node4" class="node"><title>Node4</title>
<g id="a_node4"><a xlink:href="../../d4/d3a/a00101.html#ab0f72fc64a2ccb4885b91680def969e0" target="_top" xlink:title="Get the pool id. ">
<polygon fill="white" stroke="black" points="154.5,-88 154.5,-118 255.5,-118 255.5,-88 154.5,-88"/>
<text text-anchor="start" x="162.5" y="-106" font-family="Helvetica,sans-Serif" font-size="10.00">stride::ContactPool</text>
<text text-anchor="middle" x="205" y="-95" font-family="Helvetica,sans-Serif" font-size="10.00">::GetId</text>
</a>
</g>
</g>
<!-- Node1&#45;&gt;Node4 -->
<g id="edge3" class="edge"><title>Node1&#45;&gt;Node4</title>
<path fill="none" stroke="midnightblue" d="M108.372,-88.8804C120.114,-90.6142 132.62,-92.4607 144.585,-94.2273"/>
<polygon fill="midnightblue" stroke="midnightblue" points="144.075,-97.6899 154.479,-95.6882 145.097,-90.7649 144.075,-97.6899"/>
</g>
<!-- Node5 -->
<g id="node5" class="node"><title>Node5</title>
<g id="a_node5"><a xlink:href="../../d2/df5/a00137.html#afab3ab2a1a33004f9e25d4873c3c1921" target="_top" xlink:title="Get the id. ">
<polygon fill="white" stroke="black" points="151.5,-49.5 151.5,-68.5 258.5,-68.5 258.5,-49.5 151.5,-49.5"/>
<text text-anchor="middle" x="205" y="-56.5" font-family="Helvetica,sans-Serif" font-size="10.00">stride::Person::GetId</text>
</a>
</g>
</g>
<!-- Node1&#45;&gt;Node5 -->
<g id="edge4" class="edge"><title>Node1&#45;&gt;Node5</title>
<path fill="none" stroke="midnightblue" d="M108.372,-73.1196C119.048,-71.5432 130.356,-69.8736 141.314,-68.2556"/>
<polygon fill="midnightblue" stroke="midnightblue" points="141.87,-71.7116 151.251,-66.7884 140.847,-64.7867 141.87,-71.7116"/>
</g>
<!-- Node6 -->
<g id="node6" class="node"><title>Node6</title>
<g id="a_node6"><a xlink:href="../../dc/d8e/a00473.html#a0cf9d3425b406cd76acdc02ef9c0286d" target="_top" xlink:title="Converts a ContactPoolType::Id value to corresponding name. ">
<polygon fill="white" stroke="black" points="144,-0 144,-30 266,-30 266,-0 144,-0"/>
<text text-anchor="start" x="152" y="-18" font-family="Helvetica,sans-Serif" font-size="10.00">stride::ContactPoolType</text>
<text text-anchor="middle" x="205" y="-7" font-family="Helvetica,sans-Serif" font-size="10.00">::ToString</text>
</a>
</g>
</g>
<!-- Node1&#45;&gt;Node6 -->
<g id="edge5" class="edge"><title>Node1&#45;&gt;Node6</title>
<path fill="none" stroke="midnightblue" d="M87.003,-65.9105C103.888,-58.037 124.992,-48.3347 144,-40 148.418,-38.0627 153.034,-36.0752 157.658,-34.1084"/>
<polygon fill="midnightblue" stroke="midnightblue" points="159.249,-37.2361 167.101,-30.123 156.527,-30.7869 159.249,-37.2361"/>
</g>
<!-- Node3 -->
<g id="node3" class="node"><title>Node3</title>
<g id="a_node3"><a xlink:href="../../d4/d3a/a00101.html#a1d78d0a3fd422a09f39e87d83c391d47" target="_top" xlink:title="Add the given Person. ">
<polygon fill="white" stroke="black" points="302.5,-137 302.5,-167 403.5,-167 403.5,-137 302.5,-137"/>
<text text-anchor="start" x="310.5" y="-155" font-family="Helvetica,sans-Serif" font-size="10.00">stride::ContactPool</text>
<text text-anchor="middle" x="353" y="-144" font-family="Helvetica,sans-Serif" font-size="10.00">::AddMember</text>
</a>
</g>
</g>
<!-- Node2&#45;&gt;Node3 -->
<g id="edge2" class="edge"><title>Node2&#45;&gt;Node3</title>
<path fill="none" stroke="midnightblue" d="M255.837,-152C267.582,-152 280.221,-152 292.35,-152"/>
<polygon fill="midnightblue" stroke="midnightblue" points="292.388,-155.5 302.388,-152 292.388,-148.5 292.388,-155.5"/>
</g>
</g>
</svg>
