<?xml version="1.0" encoding="UTF-8" standalone="no"?>
<!DOCTYPE svg PUBLIC "-//W3C//DTD SVG 1.1//EN"
 "http://www.w3.org/Graphics/SVG/1.1/DTD/svg11.dtd">
<!-- Generated by graphviz version 2.36.0 (20140111.2315)
 -->
<!-- Title: stride::TravellerIndex::ReturnTravelers Pages: 1 -->
<svg width="456pt" height="175pt"
 viewBox="0.00 0.00 456.00 175.00" xmlns="http://www.w3.org/2000/svg" xmlns:xlink="http://www.w3.org/1999/xlink">
<g id="graph0" class="graph" transform="scale(1 1) rotate(0) translate(4 171)">
<title>stride::TravellerIndex::ReturnTravelers</title>
<polygon fill="white" stroke="none" points="-4,4 -4,-171 452,-171 452,4 -4,4"/>
<!-- Node1 -->
<g id="node1" class="node"><title>Node1</title>
<polygon fill="#bfbfbf" stroke="black" points="0,-71 0,-101 108,-101 108,-71 0,-71"/>
<text text-anchor="start" x="8" y="-89" font-family="Helvetica,sans-Serif" font-size="10.00">stride::TravellerIndex</text>
<text text-anchor="middle" x="54" y="-78" font-family="Helvetica,sans-Serif" font-size="10.00">::ReturnTravelers</text>
</g>
<!-- Node2 -->
<g id="node2" class="node"><title>Node2</title>
<g id="a_node2"><a xlink:href="../../d4/d3a/a00101.html#ab0f72fc64a2ccb4885b91680def969e0" target="_top" xlink:title="Get the pool id. ">
<polygon fill="white" stroke="black" points="154.5,-137 154.5,-167 255.5,-167 255.5,-137 154.5,-137"/>
<text text-anchor="start" x="162.5" y="-155" font-family="Helvetica,sans-Serif" font-size="10.00">stride::ContactPool</text>
<text text-anchor="middle" x="205" y="-144" font-family="Helvetica,sans-Serif" font-size="10.00">::GetId</text>
</a>
</g>
</g>
<!-- Node1&#45;&gt;Node2 -->
<g id="edge1" class="edge"><title>Node1&#45;&gt;Node2</title>
<path fill="none" stroke="midnightblue" d="M87.003,-101.09C103.888,-108.963 124.992,-118.665 144,-127 148.418,-128.937 153.034,-130.925 157.658,-132.892"/>
<polygon fill="midnightblue" stroke="midnightblue" points="156.527,-136.213 167.101,-136.877 159.249,-129.764 156.527,-136.213"/>
</g>
<!-- Node3 -->
<g id="node3" class="node"><title>Node3</title>
<g id="a_node3"><a xlink:href="../../d2/df5/a00137.html#afab3ab2a1a33004f9e25d4873c3c1921" target="_top" xlink:title="Get the id. ">
<polygon fill="white" stroke="black" points="151.5,-98.5 151.5,-117.5 258.5,-117.5 258.5,-98.5 151.5,-98.5"/>
<text text-anchor="middle" x="205" y="-105.5" font-family="Helvetica,sans-Serif" font-size="10.00">stride::Person::GetId</text>
</a>
</g>
</g>
<!-- Node1&#45;&gt;Node3 -->
<g id="edge2" class="edge"><title>Node1&#45;&gt;Node3</title>
<path fill="none" stroke="midnightblue" d="M108.372,-93.8804C119.048,-95.4568 130.356,-97.1264 141.314,-98.7444"/>
<polygon fill="midnightblue" stroke="midnightblue" points="140.847,-102.213 151.251,-100.212 141.87,-95.2884 140.847,-102.213"/>
</g>
<!-- Node4 -->
<g id="node4" class="node"><title>Node4</title>
<g id="a_node4"><a xlink:href="../../d4/d3a/a00101.html#a106d5c1481ce4a17ae661deaec39f015" target="_top" xlink:title="Remove an expat from the contactpool. ">
<polygon fill="white" stroke="black" points="154.5,-49 154.5,-79 255.5,-79 255.5,-49 154.5,-49"/>
<text text-anchor="start" x="162.5" y="-67" font-family="Helvetica,sans-Serif" font-size="10.00">stride::ContactPool</text>
<text text-anchor="middle" x="205" y="-56" font-family="Helvetica,sans-Serif" font-size="10.00">::RemoveExpat</text>
</a>
</g>
</g>
<!-- Node1&#45;&gt;Node4 -->
<g id="edge3" class="edge"><title>Node1&#45;&gt;Node4</title>
<path fill="none" stroke="midnightblue" d="M108.372,-78.1196C120.114,-76.3858 132.62,-74.5393 144.585,-72.7727"/>
<polygon fill="midnightblue" stroke="midnightblue" points="145.097,-76.2351 154.479,-71.3118 144.075,-69.3101 145.097,-76.2351"/>
</g>
<!-- Node6 -->
<g id="node6" class="node"><title>Node6</title>
<g id="a_node6"><a xlink:href="../../dc/d8e/a00473.html#a0cf9d3425b406cd76acdc02ef9c0286d" target="_top" xlink:title="Converts a ContactPoolType::Id value to corresponding name. ">
<polygon fill="white" stroke="black" points="144,-0 144,-30 266,-30 266,-0 144,-0"/>
<text text-anchor="start" x="152" y="-18" font-family="Helvetica,sans-Serif" font-size="10.00">stride::ContactPoolType</text>
<text text-anchor="middle" x="205" y="-7" font-family="Helvetica,sans-Serif" font-size="10.00">::ToString</text>
</a>
</g>
</g>
<!-- Node1&#45;&gt;Node6 -->
<g id="edge5" class="edge"><title>Node1&#45;&gt;Node6</title>
<path fill="none" stroke="midnightblue" d="M82.7661,-70.9011C100.176,-61.6213 123.188,-49.6942 144,-40 148.14,-38.0717 152.47,-36.1283 156.827,-34.2228"/>
<polygon fill="midnightblue" stroke="midnightblue" points="158.539,-37.2965 166.345,-30.1324 155.776,-30.8653 158.539,-37.2965"/>
</g>
<!-- Node5 -->
<g id="node5" class="node"><title>Node5</title>
<g id="a_node5"><a xlink:href="../../d4/d3a/a00101.html#aee9017051ee9365c0de4acd9272bcdbc" target="_top" xlink:title="Update the m_expats data after removing a element from m_members itAfterRemovedPerson is the iterator...">
<polygon fill="white" stroke="black" points="302.5,-49 302.5,-79 447.5,-79 447.5,-49 302.5,-49"/>
<text text-anchor="start" x="310.5" y="-67" font-family="Helvetica,sans-Serif" font-size="10.00">stride::ContactPool</text>
<text text-anchor="middle" x="375" y="-56" font-family="Helvetica,sans-Serif" font-size="10.00">::UpdateExpatsAfterRemoval</text>
</a>
</g>
</g>
<!-- Node4&#45;&gt;Node5 -->
<g id="edge4" class="edge"><title>Node4&#45;&gt;Node5</title>
<path fill="none" stroke="midnightblue" d="M255.951,-64C267.361,-64 279.78,-64 292.138,-64"/>
<polygon fill="midnightblue" stroke="midnightblue" points="292.48,-67.5001 302.48,-64 292.48,-60.5001 292.48,-67.5001"/>
</g>
</g>
</svg>
