<?xml version="1.0" encoding="UTF-8" standalone="no"?>
<!DOCTYPE svg PUBLIC "-//W3C//DTD SVG 1.1//EN"
 "http://www.w3.org/Graphics/SVG/1.1/DTD/svg11.dtd">
<!-- Generated by graphviz version 2.36.0 (20140111.2315)
 -->
<!-- Title: ContactHandler.h Pages: 1 -->
<!--zoomable 196 -->
<svg id="main" version="1.1" xmlns="http://www.w3.org/2000/svg" xmlns:xlink="http://www.w3.org/1999/xlink" xml:space="preserve" onload="init(evt)">
<style type="text/css"><![CDATA[
.edge:hover path { stroke: red; }
.edge:hover polygon { stroke: red; fill: red; }
]]></style>
<script type="text/javascript"><![CDATA[
var edges = document.getElementsByTagName('g');
if (edges && edges.length) {
  for (var i=0;i<edges.length;i++) {
    if (edges[i].id.substr(0,4)=='edge') {
      edges[i].setAttribute('class','edge');
    }
  }
}
]]></script>
        <defs>
                <circle id="rim" cx="0" cy="0" r="7"/>
                <circle id="rim2" cx="0" cy="0" r="3.5"/>
                <g id="zoomPlus">
                        <use xlink:href="#rim" fill="#404040">
                                <set attributeName="fill" to="#808080" begin="zoomplus.mouseover" end="zoomplus.mouseout"/>
                        </use>
                        <path d="M-4,0h8M0,-4v8" fill="none" stroke="white" stroke-width="1.5" pointer-events="none"/>
                </g>
                <g id="zoomMin">
                        <use xlink:href="#rim" fill="#404040">
                                <set attributeName="fill" to="#808080" begin="zoomminus.mouseover" end="zoomminus.mouseout"/>
                        </use>
                        <path d="M-4,0h8" fill="none" stroke="white" stroke-width="1.5" pointer-events="none"/>
                </g>
                <g id="dirArrow">
                        <path fill="none" stroke="white" stroke-width="1.5" d="M0,-3.0v7 M-2.5,-0.5L0,-3.0L2.5,-0.5"/>
                </g>
               <g id="resetDef">
                       <use xlink:href="#rim2" fill="#404040">
                               <set attributeName="fill" to="#808080" begin="reset.mouseover" end="reset.mouseout"/>
                       </use>
               </g>
        </defs>

<script type="text/javascript">
var viewWidth = 1767;
var viewHeight = 196;
var sectionId = 'dynsection-1';
</script>
<script xlink:href="../../svgpan.js"/>
<svg id="graph" class="graph">
<g id="viewport">
<title>ContactHandler.h</title>
<polygon fill="white" stroke="none" points="-4,4 -4,-192 1763,-192 1763,4 -4,4"/>
<!-- Node1 -->
<g id="node1" class="node"><title>Node1</title>
<polygon fill="#bfbfbf" stroke="black" points="260.5,-168.5 260.5,-187.5 353.5,-187.5 353.5,-168.5 260.5,-168.5"/>
<text text-anchor="middle" x="307" y="-175.5" font-family="Helvetica,sans-Serif" font-size="10.00">ContactHandler.h</text>
</g>
<!-- Node2 -->
<g id="node2" class="node"><title>Node2</title>
<g id="a_node2"><a xlink:href="../../d8/dfc/a00327.html" target="_top" xlink:title="Header for the Infector class. ">
<polygon fill="white" stroke="black" points="157,-112.5 157,-131.5 215,-131.5 215,-112.5 157,-112.5"/>
<text text-anchor="middle" x="186" y="-119.5" font-family="Helvetica,sans-Serif" font-size="10.00">Infector.h</text>
</a>
</g>
</g>
<!-- Node1&#45;&gt;Node2 -->
<g id="edge1" class="edge"><title>Node1&#45;&gt;Node2</title>
<path fill="none" stroke="midnightblue" d="M278.694,-164.368C256.035,-154.255 224.874,-140.349 205.083,-131.516"/>
<polygon fill="midnightblue" stroke="midnightblue" points="277.269,-167.564 287.827,-168.444 280.122,-161.172 277.269,-167.564"/>
</g>
<!-- Node7 -->
<g id="node7" class="node"><title>Node7</title>
<g id="a_node7"><a xlink:href="../../da/d50/a00301.html" target="_top" xlink:title="Header file for the HealthSeeder. ">
<polygon fill="white" stroke="black" points="265,-112.5 265,-131.5 349,-131.5 349,-112.5 265,-112.5"/>
<text text-anchor="middle" x="307" y="-119.5" font-family="Helvetica,sans-Serif" font-size="10.00">HealthSeeder.h</text>
</a>
</g>
</g>
<!-- Node1&#45;&gt;Node7 -->
<g id="edge6" class="edge"><title>Node1&#45;&gt;Node7</title>
<path fill="none" stroke="midnightblue" d="M307,-157.805C307,-148.91 307,-138.78 307,-131.751"/>
<polygon fill="midnightblue" stroke="midnightblue" points="303.5,-158.083 307,-168.083 310.5,-158.083 303.5,-158.083"/>
</g>
<!-- Node9 -->
<g id="node9" class="node"><title>Node9</title>
<g id="a_node9"><a xlink:href="../../d9/dad/a00394.html" target="_top" xlink:title="Header for the Simulator class. ">
<polygon fill="white" stroke="black" points="990,-112.5 990,-131.5 1032,-131.5 1032,-112.5 990,-112.5"/>
<text text-anchor="middle" x="1011" y="-119.5" font-family="Helvetica,sans-Serif" font-size="10.00">Sim.h</text>
</a>
</g>
</g>
<!-- Node1&#45;&gt;Node9 -->
<g id="edge9" class="edge"><title>Node1&#45;&gt;Node9</title>
<path fill="none" stroke="midnightblue" d="M363.859,-172.639C510.278,-161.408 895.403,-131.867 989.858,-124.622"/>
<polygon fill="midnightblue" stroke="midnightblue" points="363.44,-169.16 353.737,-173.415 363.975,-176.14 363.44,-169.16"/>
</g>
<!-- Node3 -->
<g id="node3" class="node"><title>Node3</title>
<g id="a_node3"><a xlink:href="../../de/dc8/a00325.html" target="_top" xlink:title="Implementation of Infector algorithms. ">
<polygon fill="white" stroke="black" points="0,-56.5 0,-75.5 68,-75.5 68,-56.5 0,-56.5"/>
<text text-anchor="middle" x="34" y="-63.5" font-family="Helvetica,sans-Serif" font-size="10.00">Infector.cpp</text>
</a>
</g>
</g>
<!-- Node2&#45;&gt;Node3 -->
<g id="edge2" class="edge"><title>Node2&#45;&gt;Node3</title>
<path fill="none" stroke="midnightblue" d="M152.332,-109.039C123.732,-98.8786 83.388,-84.5457 57.9722,-75.5164"/>
<polygon fill="midnightblue" stroke="midnightblue" points="151.32,-112.394 161.915,-112.444 153.664,-105.798 151.32,-112.394"/>
</g>
<!-- Node4 -->
<g id="node4" class="node"><title>Node4</title>
<g id="a_node4"><a xlink:href="../../dd/d4e/a00329.html" target="_top" xlink:title="Header for the InfectorMap. ">
<polygon fill="white" stroke="black" points="86.5,-56.5 86.5,-75.5 163.5,-75.5 163.5,-56.5 86.5,-56.5"/>
<text text-anchor="middle" x="125" y="-63.5" font-family="Helvetica,sans-Serif" font-size="10.00">InfectorMap.h</text>
</a>
</g>
</g>
<!-- Node2&#45;&gt;Node4 -->
<g id="edge3" class="edge"><title>Node2&#45;&gt;Node4</title>
<path fill="none" stroke="midnightblue" d="M168.533,-105.537C157.656,-95.9087 144.056,-83.8694 134.979,-75.8339"/>
<polygon fill="midnightblue" stroke="midnightblue" points="166.392,-108.316 176.199,-112.324 171.032,-103.075 166.392,-108.316"/>
</g>
<!-- Node6 -->
<g id="node6" class="node"><title>Node6</title>
<g id="a_node6"><a xlink:href="../../d8/d8e/a00344.html" target="_top" xlink:title="Implementation of Infector algorithms. ">
<polygon fill="white" stroke="black" points="182,-56.5 182,-75.5 250,-75.5 250,-56.5 182,-56.5"/>
<text text-anchor="middle" x="216" y="-63.5" font-family="Helvetica,sans-Serif" font-size="10.00">LogPolicy.h</text>
</a>
</g>
</g>
<!-- Node2&#45;&gt;Node6 -->
<g id="edge5" class="edge"><title>Node2&#45;&gt;Node6</title>
<path fill="none" stroke="midnightblue" d="M195.847,-103.275C200.975,-94.0454 207.016,-83.1703 211.138,-75.7511"/>
<polygon fill="midnightblue" stroke="midnightblue" points="192.751,-101.642 190.954,-112.083 198.87,-105.041 192.751,-101.642"/>
</g>
<!-- Node5 -->
<g id="node5" class="node"><title>Node5</title>
<g id="a_node5"><a xlink:href="../../db/dbc/a00395.html" target="_top" xlink:title="Implementation for the SimBuilder class. ">
<polygon fill="white" stroke="black" points="236.5,-0.5 236.5,-19.5 319.5,-19.5 319.5,-0.5 236.5,-0.5"/>
<text text-anchor="middle" x="278" y="-7.5" font-family="Helvetica,sans-Serif" font-size="10.00">SimBuilder.cpp</text>
</a>
</g>
</g>
<!-- Node4&#45;&gt;Node5 -->
<g id="edge4" class="edge"><title>Node4&#45;&gt;Node5</title>
<path fill="none" stroke="midnightblue" d="M158.889,-53.0392C187.677,-42.8786 228.287,-28.5457 253.87,-19.5164"/>
<polygon fill="midnightblue" stroke="midnightblue" points="157.508,-49.8148 149.243,-56.4435 159.838,-56.4157 157.508,-49.8148"/>
</g>
<!-- Node7&#45;&gt;Node5 -->
<g id="edge8" class="edge"><title>Node7&#45;&gt;Node5</title>
<path fill="none" stroke="midnightblue" d="M302.169,-102.674C295.828,-78.6248 284.957,-37.3881 280.265,-19.5914"/>
<polygon fill="midnightblue" stroke="midnightblue" points="298.791,-103.591 304.724,-112.368 305.559,-101.807 298.791,-103.591"/>
</g>
<!-- Node8 -->
<g id="node8" class="node"><title>Node8</title>
<g id="a_node8"><a xlink:href="../../db/da2/a00300.html" target="_top" xlink:title="Implementation for HelthSeeder class. ">
<polygon fill="white" stroke="black" points="306.5,-56.5 306.5,-75.5 401.5,-75.5 401.5,-56.5 306.5,-56.5"/>
<text text-anchor="middle" x="354" y="-63.5" font-family="Helvetica,sans-Serif" font-size="10.00">HealthSeeder.cpp</text>
</a>
</g>
</g>
<!-- Node7&#45;&gt;Node8 -->
<g id="edge7" class="edge"><title>Node7&#45;&gt;Node8</title>
<path fill="none" stroke="midnightblue" d="M321.421,-104.431C329.658,-94.9673 339.654,-83.4827 346.383,-75.7511"/>
<polygon fill="midnightblue" stroke="midnightblue" points="318.686,-102.242 314.761,-112.083 323.966,-106.838 318.686,-102.242"/>
</g>
<!-- Node9&#45;&gt;Node5 -->
<g id="edge16" class="edge"><title>Node9&#45;&gt;Node5</title>
<path fill="none" stroke="midnightblue" d="M979.664,-120.105C876.765,-116.914 550.052,-104.717 449,-76 430.262,-70.6752 427.933,-63.6073 410,-56 375.34,-41.297 334.084,-27.8526 307.033,-19.5626"/>
<polygon fill="midnightblue" stroke="midnightblue" points="979.626,-123.605 989.727,-120.41 979.838,-116.608 979.626,-123.605"/>
</g>
<!-- Node10 -->
<g id="node10" class="node"><title>Node10</title>
<g id="a_node10"><a xlink:href="../../d3/db1/a00200.html" target="_top" xlink:title="Calibrator.cpp">
<polygon fill="white" stroke="black" points="458.5,-56.5 458.5,-75.5 535.5,-75.5 535.5,-56.5 458.5,-56.5"/>
<text text-anchor="middle" x="497" y="-63.5" font-family="Helvetica,sans-Serif" font-size="10.00">Calibrator.cpp</text>
</a>
</g>
</g>
<!-- Node9&#45;&gt;Node10 -->
<g id="edge10" class="edge"><title>Node9&#45;&gt;Node10</title>
<path fill="none" stroke="midnightblue" d="M979.313,-118.918C903.842,-113.748 707.609,-99.0492 545,-76 541.978,-75.5716 538.857,-75.0858 535.724,-74.567"/>
<polygon fill="midnightblue" stroke="midnightblue" points="979.34,-122.428 989.553,-119.612 979.813,-115.444 979.34,-122.428"/>
</g>
<!-- Node11 -->
<g id="node11" class="node"><title>Node11</title>
<g id="a_node11"><a xlink:href="../../d9/d39/a00257.html" target="_top" xlink:title="Implementation for the DiseaseSeeder class. ">
<polygon fill="white" stroke="black" points="554,-56.5 554,-75.5 656,-75.5 656,-56.5 554,-56.5"/>
<text text-anchor="middle" x="605" y="-63.5" font-family="Helvetica,sans-Serif" font-size="10.00">DiseaseSeeder.cpp</text>
</a>
</g>
</g>
<!-- Node9&#45;&gt;Node11 -->
<g id="edge11" class="edge"><title>Node9&#45;&gt;Node11</title>
<path fill="none" stroke="midnightblue" d="M979.853,-117.156C919.199,-109.626 781.014,-92.2438 665,-76 662.079,-75.591 659.08,-75.1639 656.053,-74.7274"/>
<polygon fill="midnightblue" stroke="midnightblue" points="979.563,-120.647 989.918,-118.404 980.424,-113.7 979.563,-120.647"/>
</g>
<!-- Node12 -->
<g id="node12" class="node"><title>Node12</title>
<g id="a_node12"><a xlink:href="../../d9/d5e/a00295.html" target="_top" xlink:title="GuiControllerBackend.cpp">
<polygon fill="white" stroke="black" points="674.5,-56.5 674.5,-75.5 805.5,-75.5 805.5,-56.5 674.5,-56.5"/>
<text text-anchor="middle" x="740" y="-63.5" font-family="Helvetica,sans-Serif" font-size="10.00">GuiControllerBackend.cpp</text>
</a>
</g>
</g>
<!-- Node9&#45;&gt;Node12 -->
<g id="edge12" class="edge"><title>Node9&#45;&gt;Node12</title>
<path fill="none" stroke="midnightblue" d="M979.832,-114.789C931.388,-105.136 837.905,-86.5087 783.053,-75.5788"/>
<polygon fill="midnightblue" stroke="midnightblue" points="979.244,-118.241 989.735,-116.763 980.612,-111.376 979.244,-118.241"/>
</g>
<!-- Node13 -->
<g id="node13" class="node"><title>Node13</title>
<g id="a_node13"><a xlink:href="../../d1/d53/a00399.html" target="_top" xlink:title="SimWorker.cpp">
<polygon fill="white" stroke="black" points="824,-56.5 824,-75.5 908,-75.5 908,-56.5 824,-56.5"/>
<text text-anchor="middle" x="866" y="-63.5" font-family="Helvetica,sans-Serif" font-size="10.00">SimWorker.cpp</text>
</a>
</g>
</g>
<!-- Node9&#45;&gt;Node13 -->
<g id="edge13" class="edge"><title>Node9&#45;&gt;Node13</title>
<path fill="none" stroke="midnightblue" d="M980.455,-109.625C953.154,-99.4574 913.752,-84.7835 889.027,-75.5756"/>
<polygon fill="midnightblue" stroke="midnightblue" points="979.323,-112.938 989.916,-113.148 981.766,-106.378 979.323,-112.938"/>
</g>
<!-- Node14 -->
<g id="node14" class="node"><title>Node14</title>
<g id="a_node14"><a xlink:href="../../d3/dc9/a00355.html" target="_top" xlink:title="MapViewer.cpp">
<polygon fill="white" stroke="black" points="926,-56.5 926,-75.5 1010,-75.5 1010,-56.5 926,-56.5"/>
<text text-anchor="middle" x="968" y="-63.5" font-family="Helvetica,sans-Serif" font-size="10.00">MapViewer.cpp</text>
</a>
</g>
</g>
<!-- Node9&#45;&gt;Node14 -->
<g id="edge14" class="edge"><title>Node9&#45;&gt;Node14</title>
<path fill="none" stroke="midnightblue" d="M997.578,-104.144C990.086,-94.7357 981.063,-83.4046 974.968,-75.7511"/>
<polygon fill="midnightblue" stroke="midnightblue" points="994.932,-106.44 1003.9,-112.083 1000.41,-102.08 994.932,-106.44"/>
</g>
<!-- Node15 -->
<g id="node15" class="node"><title>Node15</title>
<g id="a_node15"><a xlink:href="../../da/dbf/a00393.html" target="_top" xlink:title="Implementation for the Simulator class. ">
<polygon fill="white" stroke="black" points="1027.5,-56.5 1027.5,-75.5 1080.5,-75.5 1080.5,-56.5 1027.5,-56.5"/>
<text text-anchor="middle" x="1054" y="-63.5" font-family="Helvetica,sans-Serif" font-size="10.00">Sim.cpp</text>
</a>
</g>
</g>
<!-- Node9&#45;&gt;Node15 -->
<g id="edge15" class="edge"><title>Node9&#45;&gt;Node15</title>
<path fill="none" stroke="midnightblue" d="M1024.42,-104.144C1031.91,-94.7357 1040.94,-83.4046 1047.03,-75.7511"/>
<polygon fill="midnightblue" stroke="midnightblue" points="1021.59,-102.08 1018.1,-112.083 1027.07,-106.44 1021.59,-102.08"/>
</g>
<!-- Node16 -->
<g id="node16" class="node"><title>Node16</title>
<g id="a_node16"><a xlink:href="../../d7/d93/a00397.html" target="_top" xlink:title="Implementation for SimRunner. ">
<polygon fill="white" stroke="black" points="1098,-56.5 1098,-75.5 1182,-75.5 1182,-56.5 1098,-56.5"/>
<text text-anchor="middle" x="1140" y="-63.5" font-family="Helvetica,sans-Serif" font-size="10.00">SimRunner.cpp</text>
</a>
</g>
</g>
<!-- Node9&#45;&gt;Node16 -->
<g id="edge17" class="edge"><title>Node9&#45;&gt;Node16</title>
<path fill="none" stroke="midnightblue" d="M1040.85,-108.503C1065.04,-98.3795 1098.46,-84.388 1119.66,-75.5164"/>
<polygon fill="midnightblue" stroke="midnightblue" points="1039.31,-105.354 1031.44,-112.444 1042.02,-111.811 1039.31,-105.354"/>
</g>
<!-- Node17 -->
<g id="node17" class="node"><title>Node17</title>
<g id="a_node17"><a xlink:href="../../dd/d4c/a00177.html" target="_top" xlink:title="Definition of Observer for SimEvents for commandline interface usage. ">
<polygon fill="white" stroke="black" points="1200.5,-56.5 1200.5,-75.5 1301.5,-75.5 1301.5,-56.5 1200.5,-56.5"/>
<text text-anchor="middle" x="1251" y="-63.5" font-family="Helvetica,sans-Serif" font-size="10.00">AdoptedViewer.cpp</text>
</a>
</g>
</g>
<!-- Node9&#45;&gt;Node17 -->
<g id="edge18" class="edge"><title>Node9&#45;&gt;Node17</title>
<path fill="none" stroke="midnightblue" d="M1042.11,-114.001C1085.91,-104.145 1165.7,-86.1921 1212.98,-75.5555"/>
<polygon fill="midnightblue" stroke="midnightblue" points="1041.29,-110.598 1032.3,-116.208 1042.82,-117.427 1041.29,-110.598"/>
</g>
<!-- Node18 -->
<g id="node18" class="node"><title>Node18</title>
<g id="a_node18"><a xlink:href="../../dc/d31/a00208.html" target="_top" xlink:title="Definition of Observer for SimEvents for commandline interface usage. ">
<polygon fill="white" stroke="black" points="1319.5,-56.5 1319.5,-75.5 1396.5,-75.5 1396.5,-56.5 1319.5,-56.5"/>
<text text-anchor="middle" x="1358" y="-63.5" font-family="Helvetica,sans-Serif" font-size="10.00">CliViewer.cpp</text>
</a>
</g>
</g>
<!-- Node9&#45;&gt;Node18 -->
<g id="edge19" class="edge"><title>Node9&#45;&gt;Node18</title>
<path fill="none" stroke="midnightblue" d="M1042.1,-116.695C1096.51,-109.08 1212.46,-92.4783 1310,-76 1313.01,-75.4915 1316.12,-74.9481 1319.25,-74.3896"/>
<polygon fill="midnightblue" stroke="midnightblue" points="1041.49,-113.247 1032.07,-118.095 1042.45,-120.18 1041.49,-113.247"/>
</g>
<!-- Node19 -->
<g id="node19" class="node"><title>Node19</title>
<g id="a_node19"><a xlink:href="../../de/d55/a00323.html" target="_top" xlink:title="Definition of Observer for SimEvents for commandline interface usage. ">
<polygon fill="white" stroke="black" points="1414.5,-56.5 1414.5,-75.5 1515.5,-75.5 1515.5,-56.5 1414.5,-56.5"/>
<text text-anchor="middle" x="1465" y="-63.5" font-family="Helvetica,sans-Serif" font-size="10.00">InfectedViewer.cpp</text>
</a>
</g>
</g>
<!-- Node9&#45;&gt;Node19 -->
<g id="edge20" class="edge"><title>Node9&#45;&gt;Node19</title>
<path fill="none" stroke="midnightblue" d="M1042.68,-117.764C1109.65,-110.839 1270.52,-93.7605 1405,-76 1408.03,-75.6001 1411.14,-75.1752 1414.28,-74.7363"/>
<polygon fill="midnightblue" stroke="midnightblue" points="1041.98,-114.318 1032.39,-118.825 1042.69,-121.281 1041.98,-114.318"/>
</g>
<!-- Node20 -->
<g id="node20" class="node"><title>Node20</title>
<g id="a_node20"><a xlink:href="../../d3/d30/a00370.html" target="_top" xlink:title="Definition of Observer for SimEvents for commandline interface usage. ">
<polygon fill="white" stroke="black" points="1533.5,-56.5 1533.5,-75.5 1634.5,-75.5 1634.5,-56.5 1533.5,-56.5"/>
<text text-anchor="middle" x="1584" y="-63.5" font-family="Helvetica,sans-Serif" font-size="10.00">PersonsViewer.cpp</text>
</a>
</g>
</g>
<!-- Node9&#45;&gt;Node20 -->
<g id="edge21" class="edge"><title>Node9&#45;&gt;Node20</title>
<path fill="none" stroke="midnightblue" d="M1042.46,-118.916C1122.81,-113.446 1342.12,-97.5975 1524,-76 1527.03,-75.6398 1530.15,-75.2457 1533.29,-74.8301"/>
<polygon fill="midnightblue" stroke="midnightblue" points="1041.8,-115.452 1032.06,-119.618 1042.27,-122.436 1041.8,-115.452"/>
</g>
<!-- Node21 -->
<g id="node21" class="node"><title>Node21</title>
<g id="a_node21"><a xlink:href="../../d4/dbc/a00414.html" target="_top" xlink:title="Definition of Observer for SimEvents for commandline interface usage. ">
<polygon fill="white" stroke="black" points="1652.5,-56.5 1652.5,-75.5 1759.5,-75.5 1759.5,-56.5 1652.5,-56.5"/>
<text text-anchor="middle" x="1706" y="-63.5" font-family="Helvetica,sans-Serif" font-size="10.00">SummaryViewer.cpp</text>
</a>
</g>
</g>
<!-- Node9&#45;&gt;Node21 -->
<g id="edge22" class="edge"><title>Node9&#45;&gt;Node21</title>
<path fill="none" stroke="midnightblue" d="M1042.08,-119.568C1134.06,-115.163 1412.85,-100.602 1643,-76 1646.08,-75.6712 1649.23,-75.3066 1652.42,-74.9181"/>
<polygon fill="midnightblue" stroke="midnightblue" points="1041.87,-116.074 1032.05,-120.043 1042.21,-123.066 1041.87,-116.074"/>
</g>
</g>
</svg>
        <g id="navigator" transform="translate(0 0)" fill="#404254">
                <rect fill="#f2f5e9" fill-opacity="0.5" stroke="#606060" stroke-width=".5" x="0" y="0" width="60" height="60"/>
                <use id="zoomplus" xlink:href="#zoomPlus" x="17" y="9" onmousedown="handleZoom(evt,'in')"/>
                <use id="zoomminus" xlink:href="#zoomMin" x="42" y="9" onmousedown="handleZoom(evt,'out')"/>
                <use id="reset" xlink:href="#resetDef" x="30" y="36" onmousedown="handleReset()"/>
                <g id="arrowUp" xlink:href="#dirArrow" transform="translate(30 24)" onmousedown="handlePan(0,-1)">
                  <use xlink:href="#rim" fill="#404040">
                        <set attributeName="fill" to="#808080" begin="arrowUp.mouseover" end="arrowUp.mouseout"/>
                  </use>
                  <path fill="none" stroke="white" stroke-width="1.5" d="M0,-3.0v7 M-2.5,-0.5L0,-3.0L2.5,-0.5"/>
                </g>
                <g id="arrowRight" xlink:href="#dirArrow" transform="rotate(90) translate(36 -43)" onmousedown="handlePan(1,0)">
                  <use xlink:href="#rim" fill="#404040">
                        <set attributeName="fill" to="#808080" begin="arrowRight.mouseover" end="arrowRight.mouseout"/>
                  </use>
                  <path fill="none" stroke="white" stroke-width="1.5" d="M0,-3.0v7 M-2.5,-0.5L0,-3.0L2.5,-0.5"/>
                </g>
                <g id="arrowDown" xlink:href="#dirArrow" transform="rotate(180) translate(-30 -48)" onmousedown="handlePan(0,1)">
                  <use xlink:href="#rim" fill="#404040">
                        <set attributeName="fill" to="#808080" begin="arrowDown.mouseover" end="arrowDown.mouseout"/>
                  </use>
                  <path fill="none" stroke="white" stroke-width="1.5" d="M0,-3.0v7 M-2.5,-0.5L0,-3.0L2.5,-0.5"/>
                </g>
                <g id="arrowLeft" xlink:href="#dirArrow" transform="rotate(270) translate(-36 17)" onmousedown="handlePan(-1,0)">
                  <use xlink:href="#rim" fill="#404040">
                        <set attributeName="fill" to="#808080" begin="arrowLeft.mouseover" end="arrowLeft.mouseout"/>
                  </use>
                  <path fill="none" stroke="white" stroke-width="1.5" d="M0,-3.0v7 M-2.5,-0.5L0,-3.0L2.5,-0.5"/>
                </g>
        </g>
        <svg viewBox="0 0 15 15" width="100%" height="30px" preserveAspectRatio="xMaxYMin meet">
         <g id="arrow_out" transform="scale(0.3 0.3)">
          <a xlink:href="a00573_org.svg" target="_base">
           <rect id="button" ry="5" rx="5" y="6" x="6" height="38" width="38"
                fill="#f2f5e9" fill-opacity="0.5" stroke="#606060" stroke-width="1.0"/>
           <path id="arrow"
             d="M 11.500037,31.436501 C 11.940474,20.09759 22.043105,11.32322 32.158766,21.979434 L 37.068811,17.246167 C 37.068811,17.246167 37.088388,32 37.088388,32 L 22.160133,31.978069 C 22.160133,31.978069 26.997745,27.140456 26.997745,27.140456 C 18.528582,18.264221 13.291696,25.230495 11.500037,31.436501 z"
             style="fill:#404040;"/>
          </a>
         </g>
        </svg>
</svg>
