<?xml version="1.0" encoding="UTF-8" standalone="no"?>
<!DOCTYPE svg PUBLIC "-//W3C//DTD SVG 1.1//EN"
 "http://www.w3.org/Graphics/SVG/1.1/DTD/svg11.dtd">
<!-- Generated by graphviz version 2.36.0 (20140111.2315)
 -->
<!-- Title: stride::BaseController::MakeLogger Pages: 1 -->
<svg width="392pt" height="87pt"
 viewBox="0.00 0.00 392.00 87.00" xmlns="http://www.w3.org/2000/svg" xmlns:xlink="http://www.w3.org/1999/xlink">
<g id="graph0" class="graph" transform="scale(1 1) rotate(0) translate(4 83)">
<title>stride::BaseController::MakeLogger</title>
<polygon fill="white" stroke="none" points="-4,4 -4,-83 388,-83 388,4 -4,4"/>
<!-- Node1 -->
<g id="node1" class="node"><title>Node1</title>
<polygon fill="#bfbfbf" stroke="black" points="0.5,-24 0.5,-54 111.5,-54 111.5,-24 0.5,-24"/>
<text text-anchor="start" x="8.5" y="-42" font-family="Helvetica,sans-Serif" font-size="10.00">stride::BaseController</text>
<text text-anchor="middle" x="56" y="-31" font-family="Helvetica,sans-Serif" font-size="10.00">::MakeLogger</text>
</g>
<!-- Node2 -->
<g id="node2" class="node"><title>Node2</title>
<g id="a_node2"><a xlink:href="../../d3/d65/a00154.html#a750e3b3e045bb2e17639b4d014d33974" target="_top" xlink:title="Interpret prefix (directory or filename prefix) and return appropriate path. ">
<polygon fill="white" stroke="black" points="150,-49 150,-79 248,-79 248,-49 150,-49"/>
<text text-anchor="start" x="158" y="-67" font-family="Helvetica,sans-Serif" font-size="10.00">stride::util::FileSys</text>
<text text-anchor="middle" x="199" y="-56" font-family="Helvetica,sans-Serif" font-size="10.00">::BuildPath</text>
</a>
</g>
</g>
<!-- Node1&#45;&gt;Node2 -->
<g id="edge1" class="edge"><title>Node1&#45;&gt;Node2</title>
<path fill="none" stroke="midnightblue" d="M111.514,-48.6657C120.734,-50.3003 130.338,-52.0032 139.651,-53.6544"/>
<polygon fill="midnightblue" stroke="midnightblue" points="139.152,-57.1205 149.61,-55.4202 140.375,-50.228 139.152,-57.1205"/>
</g>
<!-- Node4 -->
<g id="node4" class="node"><title>Node4</title>
<g id="a_node4"><a xlink:href="../../d1/db7/a00157.html#a106af93dd3f814adf8b87ffaaf3ef3bb" target="_top" xlink:title="Return a (not&#45;yet&#45;registered) commandline logger, without registering it. ">
<polygon fill="white" stroke="black" points="148.5,-0 148.5,-30 249.5,-30 249.5,-0 148.5,-0"/>
<text text-anchor="start" x="156.5" y="-18" font-family="Helvetica,sans-Serif" font-size="10.00">stride::util::LogUtils</text>
<text text-anchor="middle" x="199" y="-7" font-family="Helvetica,sans-Serif" font-size="10.00">::CreateCliLogger</text>
</a>
</g>
</g>
<!-- Node1&#45;&gt;Node4 -->
<g id="edge3" class="edge"><title>Node1&#45;&gt;Node4</title>
<path fill="none" stroke="midnightblue" d="M111.514,-29.721C120.298,-28.2259 129.431,-26.6713 138.328,-25.1569"/>
<polygon fill="midnightblue" stroke="midnightblue" points="138.971,-28.5979 148.242,-23.4694 137.797,-21.6971 138.971,-28.5979"/>
</g>
<!-- Node3 -->
<g id="node3" class="node"><title>Node3</title>
<g id="a_node3"><a xlink:href="../../d3/d65/a00154.html#a33c582aaa9397e6ba22efc14b1a44189" target="_top" xlink:title="String represents a directory path (relative or absolute) iff it contains at least one / (may be a tr...">
<polygon fill="white" stroke="black" points="286,-49 286,-79 384,-79 384,-49 286,-49"/>
<text text-anchor="start" x="294" y="-67" font-family="Helvetica,sans-Serif" font-size="10.00">stride::util::FileSys</text>
<text text-anchor="middle" x="335" y="-56" font-family="Helvetica,sans-Serif" font-size="10.00">::IsDirectoryString</text>
</a>
</g>
</g>
<!-- Node2&#45;&gt;Node3 -->
<g id="edge2" class="edge"><title>Node2&#45;&gt;Node3</title>
<path fill="none" stroke="midnightblue" d="M248.377,-64C257.201,-64 266.493,-64 275.571,-64"/>
<polygon fill="midnightblue" stroke="midnightblue" points="275.694,-67.5001 285.694,-64 275.694,-60.5001 275.694,-67.5001"/>
</g>
</g>
</svg>
