<?xml version="1.0" encoding="UTF-8" standalone="no"?>
<!DOCTYPE svg PUBLIC "-//W3C//DTD SVG 1.1//EN"
 "http://www.w3.org/Graphics/SVG/1.1/DTD/svg11.dtd">
<!-- Generated by graphviz version 2.36.0 (20140111.2315)
 -->
<!-- Title: stride::BaseController::CheckEnv Pages: 1 -->
<svg width="254pt" height="38pt"
 viewBox="0.00 0.00 254.00 38.00" xmlns="http://www.w3.org/2000/svg" xmlns:xlink="http://www.w3.org/1999/xlink">
<g id="graph0" class="graph" transform="scale(1 1) rotate(0) translate(4 34)">
<title>stride::BaseController::CheckEnv</title>
<polygon fill="white" stroke="none" points="-4,4 -4,-34 250,-34 250,4 -4,4"/>
<!-- Node1 -->
<g id="node1" class="node"><title>Node1</title>
<polygon fill="#bfbfbf" stroke="black" points="0.5,-0 0.5,-30 111.5,-30 111.5,-0 0.5,-0"/>
<text text-anchor="start" x="8.5" y="-18" font-family="Helvetica,sans-Serif" font-size="10.00">stride::BaseController</text>
<text text-anchor="middle" x="56" y="-7" font-family="Helvetica,sans-Serif" font-size="10.00">::CheckEnv</text>
</g>
<!-- Node2 -->
<g id="node2" class="node"><title>Node2</title>
<g id="a_node2"><a xlink:href="../../d3/d65/a00154.html#a9dde9db2fbf4a2f6fa9e3116b5fe2949" target="_top" xlink:title="Verify that current dir is root dir and all install dirs are present. ">
<polygon fill="white" stroke="black" points="148,-0 148,-30 246,-30 246,-0 148,-0"/>
<text text-anchor="start" x="156" y="-18" font-family="Helvetica,sans-Serif" font-size="10.00">stride::util::FileSys</text>
<text text-anchor="middle" x="197" y="-7" font-family="Helvetica,sans-Serif" font-size="10.00">::CheckInstallEnv</text>
</a>
</g>
</g>
<!-- Node1&#45;&gt;Node2 -->
<g id="edge1" class="edge"><title>Node1&#45;&gt;Node2</title>
<path fill="none" stroke="midnightblue" d="M111.538,-15C120.175,-15 129.136,-15 137.852,-15"/>
<polygon fill="midnightblue" stroke="midnightblue" points="137.938,-18.5001 147.937,-15 137.937,-11.5001 137.938,-18.5001"/>
</g>
</g>
</svg>
