<?xml version="1.0" encoding="UTF-8" standalone="no"?>
<!DOCTYPE svg PUBLIC "-//W3C//DTD SVG 1.1//EN"
 "http://www.w3.org/Graphics/SVG/1.1/DTD/svg11.dtd">
<!-- Generated by graphviz version 2.36.0 (20140111.2315)
 -->
<!-- Title: stride::BaseController::GetOutputPrefix Pages: 1 -->
<svg width="424pt" height="38pt"
 viewBox="0.00 0.00 424.00 38.00" xmlns="http://www.w3.org/2000/svg" xmlns:xlink="http://www.w3.org/1999/xlink">
<g id="graph0" class="graph" transform="scale(1 1) rotate(0) translate(4 34)">
<title>stride::BaseController::GetOutputPrefix</title>
<polygon fill="white" stroke="none" points="-4,4 -4,-34 420,-34 420,4 -4,4"/>
<!-- Node1 -->
<g id="node1" class="node"><title>Node1</title>
<polygon fill="#bfbfbf" stroke="black" points="0.5,-0 0.5,-30 111.5,-30 111.5,-0 0.5,-0"/>
<text text-anchor="start" x="8.5" y="-18" font-family="Helvetica,sans-Serif" font-size="10.00">stride::BaseController</text>
<text text-anchor="middle" x="56" y="-7" font-family="Helvetica,sans-Serif" font-size="10.00">::GetOutputPrefix</text>
</g>
<!-- Node2 -->
<g id="node2" class="node"><title>Node2</title>
<g id="a_node2"><a xlink:href="../../d9/da4/a00078.html#a69589d1327149e595d3242dab0805035" target="_top" xlink:title="Launch the simulation with the stored configuration. ">
<polygon fill="white" stroke="black" points="148,-5.5 148,-24.5 242,-24.5 242,-5.5 148,-5.5"/>
<text text-anchor="middle" x="195" y="-12.5" font-family="Helvetica,sans-Serif" font-size="10.00">Launcher::Launch</text>
</a>
</g>
</g>
<!-- Node1&#45;&gt;Node2 -->
<g id="edge1" class="edge"><title>Node1&#45;&gt;Node2</title>
<path fill="none" stroke="midnightblue" d="M121.719,-15C130.452,-15 139.267,-15 147.594,-15"/>
<polygon fill="midnightblue" stroke="midnightblue" points="121.54,-11.5001 111.54,-15 121.54,-18.5001 121.54,-11.5001"/>
</g>
<!-- Node3 -->
<g id="node3" class="node"><title>Node3</title>
<g id="a_node3"><a xlink:href="../../db/ddc/a00353.html#ae0509bb7817eee297e8f3c9dbd675b00" target="_top" xlink:title="LaunchGui">
<polygon fill="white" stroke="black" points="278.5,-5.5 278.5,-24.5 341.5,-24.5 341.5,-5.5 278.5,-5.5"/>
<text text-anchor="middle" x="310" y="-12.5" font-family="Helvetica,sans-Serif" font-size="10.00">LaunchGui</text>
</a>
</g>
</g>
<!-- Node2&#45;&gt;Node3 -->
<g id="edge2" class="edge"><title>Node2&#45;&gt;Node3</title>
<path fill="none" stroke="midnightblue" d="M252.386,-15C261.374,-15 270.367,-15 278.453,-15"/>
<polygon fill="midnightblue" stroke="midnightblue" points="252.288,-11.5001 242.287,-15 252.287,-18.5001 252.288,-11.5001"/>
</g>
<!-- Node4 -->
<g id="node4" class="node"><title>Node4</title>
<g id="a_node4"><a xlink:href="../../db/ddc/a00353.html#a81ce304348a420752ee080480d2b3095" target="_top" xlink:title="main">
<polygon fill="white" stroke="black" points="378,-5.5 378,-24.5 416,-24.5 416,-5.5 378,-5.5"/>
<text text-anchor="middle" x="397" y="-12.5" font-family="Helvetica,sans-Serif" font-size="10.00">main</text>
</a>
</g>
</g>
<!-- Node3&#45;&gt;Node4 -->
<g id="edge3" class="edge"><title>Node3&#45;&gt;Node4</title>
<path fill="none" stroke="midnightblue" d="M351.897,-15C361.059,-15 370.319,-15 377.974,-15"/>
<polygon fill="midnightblue" stroke="midnightblue" points="351.687,-11.5001 341.687,-15 351.687,-18.5001 351.687,-11.5001"/>
</g>
</g>
</svg>
