<?xml version="1.0" encoding="UTF-8" standalone="no"?>
<!DOCTYPE svg PUBLIC "-//W3C//DTD SVG 1.1//EN"
 "http://www.w3.org/Graphics/SVG/1.1/DTD/svg11.dtd">
<!-- Generated by graphviz version 2.36.0 (20140111.2315)
 -->
<!-- Title: stride::BaseController::LogSetup Pages: 1 -->
<svg width="444pt" height="430pt"
 viewBox="0.00 0.00 444.00 430.00" xmlns="http://www.w3.org/2000/svg" xmlns:xlink="http://www.w3.org/1999/xlink">
<g id="graph0" class="graph" transform="scale(1 1) rotate(0) translate(4 426)">
<title>stride::BaseController::LogSetup</title>
<polygon fill="white" stroke="none" points="-4,4 -4,-426 440,-426 440,4 -4,4"/>
<!-- Node1 -->
<g id="node1" class="node"><title>Node1</title>
<polygon fill="#bfbfbf" stroke="black" points="0.5,-196 0.5,-226 111.5,-226 111.5,-196 0.5,-196"/>
<text text-anchor="start" x="8.5" y="-214" font-family="Helvetica,sans-Serif" font-size="10.00">stride::BaseController</text>
<text text-anchor="middle" x="56" y="-203" font-family="Helvetica,sans-Serif" font-size="10.00">::LogSetup</text>
</g>
<!-- Node2 -->
<g id="node2" class="node"><title>Node2</title>
<g id="a_node2"><a xlink:href="../../da/d01/a00153.html#aacc5928eeee467f5e0c21c7ec5aaaf5a" target="_top" xlink:title="Return config dir (only relevant when use_install_dirs mode is active) ">
<polygon fill="white" stroke="black" points="165,-392 165,-422 263,-422 263,-392 165,-392"/>
<text text-anchor="start" x="173" y="-410" font-family="Helvetica,sans-Serif" font-size="10.00">stride::util::FileSys</text>
<text text-anchor="middle" x="214" y="-399" font-family="Helvetica,sans-Serif" font-size="10.00">::GetConfigDir</text>
</a>
</g>
</g>
<!-- Node1&#45;&gt;Node2 -->
<g id="edge1" class="edge"><title>Node1&#45;&gt;Node2</title>
<path fill="none" stroke="midnightblue" d="M61.0717,-226.061C70.695,-258.921 97.8845,-337.648 148,-382 150.49,-384.204 153.195,-386.222 156.04,-388.07"/>
<polygon fill="midnightblue" stroke="midnightblue" points="154.498,-391.219 164.921,-393.116 157.956,-385.133 154.498,-391.219"/>
</g>
<!-- Node4 -->
<g id="node4" class="node"><title>Node4</title>
<g id="a_node4"><a xlink:href="../../da/d01/a00153.html#a39efd4d2a1344ebc5d26759693d3d546" target="_top" xlink:title="Get path to the current directory. ">
<polygon fill="white" stroke="black" points="165,-343 165,-373 263,-373 263,-343 165,-343"/>
<text text-anchor="start" x="173" y="-361" font-family="Helvetica,sans-Serif" font-size="10.00">stride::util::FileSys</text>
<text text-anchor="middle" x="214" y="-350" font-family="Helvetica,sans-Serif" font-size="10.00">::GetCurrentDir</text>
</a>
</g>
</g>
<!-- Node1&#45;&gt;Node4 -->
<g id="edge3" class="edge"><title>Node1&#45;&gt;Node4</title>
<path fill="none" stroke="midnightblue" d="M64.6865,-226.306C78.2157,-251.814 108.62,-303.153 148,-333 150.474,-334.875 153.105,-336.625 155.837,-338.257"/>
<polygon fill="midnightblue" stroke="midnightblue" points="154.37,-341.441 164.838,-343.073 157.672,-335.269 154.37,-341.441"/>
</g>
<!-- Node5 -->
<g id="node5" class="node"><title>Node5</title>
<g id="a_node5"><a xlink:href="../../da/d01/a00153.html#aafd39e698c442fd0917915d085c9aa1a" target="_top" xlink:title="/// Return data dir (only relevant when use_install_dirs mode is active) ">
<polygon fill="white" stroke="black" points="165,-294 165,-324 263,-324 263,-294 165,-294"/>
<text text-anchor="start" x="173" y="-312" font-family="Helvetica,sans-Serif" font-size="10.00">stride::util::FileSys</text>
<text text-anchor="middle" x="214" y="-301" font-family="Helvetica,sans-Serif" font-size="10.00">::GetDataDir</text>
</a>
</g>
</g>
<!-- Node1&#45;&gt;Node5 -->
<g id="edge5" class="edge"><title>Node1&#45;&gt;Node5</title>
<path fill="none" stroke="midnightblue" d="M72.6527,-226.095C89.9544,-242.144 119.201,-267.449 148,-284 151.597,-286.067 155.397,-288.029 159.282,-289.878"/>
<polygon fill="midnightblue" stroke="midnightblue" points="157.886,-293.087 168.443,-293.979 160.746,-286.698 157.886,-293.087"/>
</g>
<!-- Node6 -->
<g id="node6" class="node"><title>Node6</title>
<g id="a_node6"><a xlink:href="../../da/d01/a00153.html#ad4bcf3a836909fad40dbff80ae4157c8" target="_top" xlink:title="Get path of the executable. ">
<polygon fill="white" stroke="black" points="165,-245 165,-275 263,-275 263,-245 165,-245"/>
<text text-anchor="start" x="173" y="-263" font-family="Helvetica,sans-Serif" font-size="10.00">stride::util::FileSys</text>
<text text-anchor="middle" x="214" y="-252" font-family="Helvetica,sans-Serif" font-size="10.00">::GetExecPath</text>
</a>
</g>
</g>
<!-- Node1&#45;&gt;Node6 -->
<g id="edge7" class="edge"><title>Node1&#45;&gt;Node6</title>
<path fill="none" stroke="midnightblue" d="M105.078,-226.101C121.018,-231.108 138.924,-236.732 155.5,-241.939"/>
<polygon fill="midnightblue" stroke="midnightblue" points="154.491,-245.291 165.081,-244.948 156.589,-238.613 154.491,-245.291"/>
</g>
<!-- Node7 -->
<g id="node7" class="node"><title>Node7</title>
<g id="a_node7"><a xlink:href="../../da/d01/a00153.html#a01b3eb32bba2b55a62086271185f8832" target="_top" xlink:title="Return install root dir (only relevant when use_install_dirs mode is active) ">
<polygon fill="white" stroke="black" points="165,-196 165,-226 263,-226 263,-196 165,-196"/>
<text text-anchor="start" x="173" y="-214" font-family="Helvetica,sans-Serif" font-size="10.00">stride::util::FileSys</text>
<text text-anchor="middle" x="214" y="-203" font-family="Helvetica,sans-Serif" font-size="10.00">::GetRootDir</text>
</a>
</g>
</g>
<!-- Node1&#45;&gt;Node7 -->
<g id="edge9" class="edge"><title>Node1&#45;&gt;Node7</title>
<path fill="none" stroke="midnightblue" d="M111.561,-211C125.56,-211 140.67,-211 154.843,-211"/>
<polygon fill="midnightblue" stroke="midnightblue" points="154.969,-214.5 164.969,-211 154.968,-207.5 154.969,-214.5"/>
</g>
<!-- Node8 -->
<g id="node8" class="node"><title>Node8</title>
<g id="a_node8"><a xlink:href="../../da/d1e/a00149.html#aea2c9d397f10f54b7ae47f4b0f181799" target="_top" xlink:title="stride::util::ConfigInfo\l::GitRevision">
<polygon fill="white" stroke="black" points="159,-147 159,-177 269,-177 269,-147 159,-147"/>
<text text-anchor="start" x="167" y="-165" font-family="Helvetica,sans-Serif" font-size="10.00">stride::util::ConfigInfo</text>
<text text-anchor="middle" x="214" y="-154" font-family="Helvetica,sans-Serif" font-size="10.00">::GitRevision</text>
</a>
</g>
</g>
<!-- Node1&#45;&gt;Node8 -->
<g id="edge11" class="edge"><title>Node1&#45;&gt;Node8</title>
<path fill="none" stroke="midnightblue" d="M105.078,-195.899C121.018,-190.892 138.924,-185.268 155.5,-180.061"/>
<polygon fill="midnightblue" stroke="midnightblue" points="156.589,-183.387 165.081,-177.052 154.491,-176.709 156.589,-183.387"/>
</g>
<!-- Node9 -->
<g id="node9" class="node"><title>Node9</title>
<g id="a_node9"><a xlink:href="../../da/d1e/a00149.html#ad6fc5f3f3e32a15f059c64b74dfea905" target="_top" xlink:title="stride::util::ConfigInfo\l::HaveOpenMP">
<polygon fill="white" stroke="black" points="159,-98 159,-128 269,-128 269,-98 159,-98"/>
<text text-anchor="start" x="167" y="-116" font-family="Helvetica,sans-Serif" font-size="10.00">stride::util::ConfigInfo</text>
<text text-anchor="middle" x="214" y="-105" font-family="Helvetica,sans-Serif" font-size="10.00">::HaveOpenMP</text>
</a>
</g>
</g>
<!-- Node1&#45;&gt;Node9 -->
<g id="edge12" class="edge"><title>Node1&#45;&gt;Node9</title>
<path fill="none" stroke="midnightblue" d="M72.6527,-195.905C89.9544,-179.856 119.201,-154.551 148,-138 151.597,-135.933 155.397,-133.971 159.282,-132.122"/>
<polygon fill="midnightblue" stroke="midnightblue" points="160.746,-135.302 168.443,-128.021 157.886,-128.913 160.746,-135.302"/>
</g>
<!-- Node10 -->
<g id="node10" class="node"><title>Node10</title>
<g id="a_node10"><a xlink:href="../../da/d1e/a00149.html#a6b4240ce29160e778c69f9e246e1747d" target="_top" xlink:title="stride::util::ConfigInfo\l::NumberAvailableThreads">
<polygon fill="white" stroke="black" points="148,-49 148,-79 280,-79 280,-49 148,-49"/>
<text text-anchor="start" x="156" y="-67" font-family="Helvetica,sans-Serif" font-size="10.00">stride::util::ConfigInfo</text>
<text text-anchor="middle" x="214" y="-56" font-family="Helvetica,sans-Serif" font-size="10.00">::NumberAvailableThreads</text>
</a>
</g>
</g>
<!-- Node1&#45;&gt;Node10 -->
<g id="edge13" class="edge"><title>Node1&#45;&gt;Node10</title>
<path fill="none" stroke="midnightblue" d="M64.6865,-195.694C78.2157,-170.186 108.62,-118.847 148,-89 150.427,-87.1605 153.006,-85.441 155.683,-83.8357"/>
<polygon fill="midnightblue" stroke="midnightblue" points="157.354,-86.9109 164.501,-79.09 154.037,-80.7467 157.354,-86.9109"/>
</g>
<!-- Node11 -->
<g id="node11" class="node"><title>Node11</title>
<g id="a_node11"><a xlink:href="../../db/d2c/a00466.html#a025f9ff3cf2df8c0c8b95e48724d9b7c" target="_top" xlink:title="Converts a LogMode value to corresponding name. ">
<polygon fill="white" stroke="black" points="153.5,-0 153.5,-30 274.5,-30 274.5,-0 153.5,-0"/>
<text text-anchor="start" x="161.5" y="-18" font-family="Helvetica,sans-Serif" font-size="10.00">stride::ContactLogMode</text>
<text text-anchor="middle" x="214" y="-7" font-family="Helvetica,sans-Serif" font-size="10.00">::ToString</text>
</a>
</g>
</g>
<!-- Node1&#45;&gt;Node11 -->
<g id="edge14" class="edge"><title>Node1&#45;&gt;Node11</title>
<path fill="none" stroke="midnightblue" d="M61.0717,-195.939C70.695,-163.079 97.8845,-84.3519 148,-40 149.901,-38.3173 151.928,-36.7424 154.047,-35.2691"/>
<polygon fill="midnightblue" stroke="midnightblue" points="155.872,-38.2556 162.606,-30.0757 152.241,-32.2712 155.872,-38.2556"/>
</g>
<!-- Node3 -->
<g id="node3" class="node"><title>Node3</title>
<g id="a_node3"><a xlink:href="../../da/d01/a00153.html#a811a1d113f57785952045d9541c95db5" target="_top" xlink:title="Return paths. ">
<polygon fill="white" stroke="black" points="316,-299.5 316,-318.5 436,-318.5 436,-299.5 316,-299.5"/>
<text text-anchor="middle" x="376" y="-306.5" font-family="Helvetica,sans-Serif" font-size="10.00">stride::util::FileSys::Get</text>
</a>
</g>
</g>
<!-- Node2&#45;&gt;Node3 -->
<g id="edge2" class="edge"><title>Node2&#45;&gt;Node3</title>
<path fill="none" stroke="midnightblue" d="M259.49,-391.862C266.51,-388.916 273.568,-385.608 280,-382 308.946,-365.764 338.715,-341.407 357.036,-325.361"/>
<polygon fill="midnightblue" stroke="midnightblue" points="359.457,-327.892 364.604,-318.632 354.805,-322.661 359.457,-327.892"/>
</g>
<!-- Node4&#45;&gt;Node3 -->
<g id="edge4" class="edge"><title>Node4&#45;&gt;Node3</title>
<path fill="none" stroke="midnightblue" d="M263.005,-343.298C285.675,-336.356 312.449,-328.156 334.133,-321.515"/>
<polygon fill="midnightblue" stroke="midnightblue" points="335.168,-324.859 343.705,-318.584 333.119,-318.166 335.168,-324.859"/>
</g>
<!-- Node5&#45;&gt;Node3 -->
<g id="edge6" class="edge"><title>Node5&#45;&gt;Node3</title>
<path fill="none" stroke="midnightblue" d="M263.005,-309C276.412,-309 291.254,-309 305.63,-309"/>
<polygon fill="midnightblue" stroke="midnightblue" points="305.988,-312.5 315.988,-309 305.988,-305.5 305.988,-312.5"/>
</g>
<!-- Node6&#45;&gt;Node3 -->
<g id="edge8" class="edge"><title>Node6&#45;&gt;Node3</title>
<path fill="none" stroke="midnightblue" d="M263.005,-274.702C285.675,-281.644 312.449,-289.844 334.133,-296.485"/>
<polygon fill="midnightblue" stroke="midnightblue" points="333.119,-299.834 343.705,-299.416 335.168,-293.141 333.119,-299.834"/>
</g>
<!-- Node7&#45;&gt;Node3 -->
<g id="edge10" class="edge"><title>Node7&#45;&gt;Node3</title>
<path fill="none" stroke="midnightblue" d="M259.49,-226.138C266.51,-229.084 273.568,-232.392 280,-236 308.946,-252.236 338.715,-276.593 357.036,-292.639"/>
<polygon fill="midnightblue" stroke="midnightblue" points="354.805,-295.339 364.604,-299.368 359.457,-290.108 354.805,-295.339"/>
</g>
</g>
</svg>
