<?xml version="1.0" encoding="UTF-8" standalone="no"?>
<!DOCTYPE svg PUBLIC "-//W3C//DTD SVG 1.1//EN"
 "http://www.w3.org/Graphics/SVG/1.1/DTD/svg11.dtd">
<!-- Generated by graphviz version 2.36.0 (20140111.2315)
 -->
<!-- Title: stride::BaseController::BaseController Pages: 1 -->
<svg width="432pt" height="104pt"
 viewBox="0.00 0.00 432.00 104.00" xmlns="http://www.w3.org/2000/svg" xmlns:xlink="http://www.w3.org/1999/xlink">
<g id="graph0" class="graph" transform="scale(1 1) rotate(0) translate(4 100)">
<title>stride::BaseController::BaseController</title>
<polygon fill="white" stroke="none" points="-4,4 -4,-100 428,-100 428,4 -4,4"/>
<!-- Node1 -->
<g id="node1" class="node"><title>Node1</title>
<polygon fill="#bfbfbf" stroke="black" points="0.5,-41 0.5,-71 111.5,-71 111.5,-41 0.5,-41"/>
<text text-anchor="start" x="8.5" y="-59" font-family="Helvetica,sans-Serif" font-size="10.00">stride::BaseController</text>
<text text-anchor="middle" x="56" y="-48" font-family="Helvetica,sans-Serif" font-size="10.00">::BaseController</text>
</g>
<!-- Node2 -->
<g id="node2" class="node"><title>Node2</title>
<g id="a_node2"><a xlink:href="../../d2/df5/a00137.html#a7cfcedae698db0dc471770044de4834d" target="_top" xlink:title="Create an empty Population with NoBelief policy, used in gengeopop. ">
<polygon fill="white" stroke="black" points="161,-66 161,-96 253,-96 253,-66 161,-66"/>
<text text-anchor="start" x="169" y="-84" font-family="Helvetica,sans-Serif" font-size="10.00">stride::Population</text>
<text text-anchor="middle" x="207" y="-73" font-family="Helvetica,sans-Serif" font-size="10.00">::Create</text>
</a>
</g>
</g>
<!-- Node1&#45;&gt;Node2 -->
<g id="edge1" class="edge"><title>Node1&#45;&gt;Node2</title>
<path fill="none" stroke="midnightblue" d="M111.636,-65.1671C124.35,-67.3003 137.897,-69.5733 150.642,-71.7117"/>
<polygon fill="midnightblue" stroke="midnightblue" points="150.218,-75.1895 160.66,-73.3926 151.377,-68.286 150.218,-75.1895"/>
</g>
<!-- Node3 -->
<g id="node3" class="node"><title>Node3</title>
<g id="a_node3"><a xlink:href="../../d1/db7/a00157.html#a8c78f40f38b8a3fc25e2c21be2de505a" target="_top" xlink:title="Initalize with data in Info. ">
<polygon fill="white" stroke="black" points="148,-17 148,-47 266,-47 266,-17 148,-17"/>
<text text-anchor="start" x="156" y="-35" font-family="Helvetica,sans-Serif" font-size="10.00">stride::util::RNManager</text>
<text text-anchor="middle" x="207" y="-24" font-family="Helvetica,sans-Serif" font-size="10.00">::Initialize</text>
</a>
</g>
</g>
<!-- Node1&#45;&gt;Node3 -->
<g id="edge2" class="edge"><title>Node1&#45;&gt;Node3</title>
<path fill="none" stroke="midnightblue" d="M111.636,-47.1996C120.205,-45.8193 129.152,-44.3782 137.977,-42.9567"/>
<polygon fill="midnightblue" stroke="midnightblue" points="138.547,-46.4102 147.863,-41.3644 137.433,-39.4993 138.547,-46.4102"/>
</g>
<!-- Node4 -->
<g id="node4" class="node"><title>Node4</title>
<g id="a_node4"><a xlink:href="../../db/de0/a00465.html#af529300a78547c29c95b81ad8ac62afe" target="_top" xlink:title="Converts a string with name to Id. ">
<polygon fill="white" stroke="black" points="302,-39 302,-69 424,-69 424,-39 302,-39"/>
<text text-anchor="start" x="310" y="-57" font-family="Helvetica,sans-Serif" font-size="10.00">stride::ContactPoolType</text>
<text text-anchor="middle" x="363" y="-46" font-family="Helvetica,sans-Serif" font-size="10.00">::ToType</text>
</a>
</g>
</g>
<!-- Node3&#45;&gt;Node4 -->
<g id="edge3" class="edge"><title>Node3&#45;&gt;Node4</title>
<path fill="none" stroke="midnightblue" d="M266.221,-40.3173C274.608,-41.5154 283.312,-42.7588 291.9,-43.9857"/>
<polygon fill="midnightblue" stroke="midnightblue" points="291.509,-47.4653 301.903,-45.4147 292.499,-40.5356 291.509,-47.4653"/>
</g>
<!-- Node5 -->
<g id="node5" class="node"><title>Node5</title>
<g id="a_node5"><a xlink:href="../../d0/d29/a00470.html#a0c42ba6e336bed67e5a0bdd053802c2a" target="_top" xlink:title="stride::util::para_seed">
<polygon fill="white" stroke="black" points="308,-0.5 308,-19.5 418,-19.5 418,-0.5 308,-0.5"/>
<text text-anchor="middle" x="363" y="-7.5" font-family="Helvetica,sans-Serif" font-size="10.00">stride::util::para_seed</text>
</a>
</g>
</g>
<!-- Node3&#45;&gt;Node5 -->
<g id="edge4" class="edge"><title>Node3&#45;&gt;Node5</title>
<path fill="none" stroke="midnightblue" d="M266.221,-23.6827C276.548,-22.2074 287.356,-20.6634 297.837,-19.1661"/>
<polygon fill="midnightblue" stroke="midnightblue" points="298.355,-22.6278 307.76,-17.7486 297.365,-15.6981 298.355,-22.6278"/>
</g>
</g>
</svg>
