<?xml version="1.0" encoding="UTF-8" standalone="no"?>
<!DOCTYPE svg PUBLIC "-//W3C//DTD SVG 1.1//EN"
 "http://www.w3.org/Graphics/SVG/1.1/DTD/svg11.dtd">
<!-- Generated by graphviz version 2.36.0 (20140111.2315)
 -->
<!-- Title: stride::util::CSV::GetColumnCount Pages: 1 -->
<svg width="306pt" height="87pt"
 viewBox="0.00 0.00 306.00 87.00" xmlns="http://www.w3.org/2000/svg" xmlns:xlink="http://www.w3.org/1999/xlink">
<g id="graph0" class="graph" transform="scale(1 1) rotate(0) translate(4 83)">
<title>stride::util::CSV::GetColumnCount</title>
<polygon fill="white" stroke="none" points="-4,4 -4,-83 302,-83 302,4 -4,4"/>
<!-- Node1 -->
<g id="node1" class="node"><title>Node1</title>
<polygon fill="#bfbfbf" stroke="black" points="0,-24 0,-54 92,-54 92,-24 0,-24"/>
<text text-anchor="start" x="8" y="-42" font-family="Helvetica,sans-Serif" font-size="10.00">stride::util::CSV::</text>
<text text-anchor="middle" x="46" y="-31" font-family="Helvetica,sans-Serif" font-size="10.00">GetColumnCount</text>
</g>
<!-- Node2 -->
<g id="node2" class="node"><title>Node2</title>
<g id="a_node2"><a xlink:href="../../dd/db2/a00151.html#ab60a313ff2e75d0ae07bc7624c27a861" target="_top" xlink:title="CSVRow initialized with values. Should no be called by user code. CSV has convenience functions...">
<polygon fill="white" stroke="black" points="159.5,-49 159.5,-79 266.5,-79 266.5,-49 159.5,-49"/>
<text text-anchor="start" x="167.5" y="-67" font-family="Helvetica,sans-Serif" font-size="10.00">stride::util::CSVRow</text>
<text text-anchor="middle" x="213" y="-56" font-family="Helvetica,sans-Serif" font-size="10.00">::CSVRow</text>
</a>
</g>
</g>
<!-- Node1&#45;&gt;Node2 -->
<g id="edge1" class="edge"><title>Node1&#45;&gt;Node2</title>
<path fill="none" stroke="midnightblue" d="M102.105,-47.3492C120.569,-50.1468 141.098,-53.2572 159.368,-56.0254"/>
<polygon fill="midnightblue" stroke="midnightblue" points="102.498,-43.869 92.087,-45.8314 101.45,-50.79 102.498,-43.869"/>
</g>
<!-- Node3 -->
<g id="node3" class="node"><title>Node3</title>
<g id="a_node3"><a xlink:href="../../dc/de2/a00024.html#a50eaa47a39752b6388d031767f81d40b" target="_top" xlink:title="Add the found Commutes to the provided GeoGrid. ">
<polygon fill="white" stroke="black" points="128,-0 128,-30 298,-30 298,-0 128,-0"/>
<text text-anchor="start" x="136" y="-18" font-family="Helvetica,sans-Serif" font-size="10.00">gengeopop::CommutesCSVReader</text>
<text text-anchor="middle" x="213" y="-7" font-family="Helvetica,sans-Serif" font-size="10.00">::FillGeoGrid</text>
</a>
</g>
</g>
<!-- Node1&#45;&gt;Node3 -->
<g id="edge2" class="edge"><title>Node1&#45;&gt;Node3</title>
<path fill="none" stroke="midnightblue" d="M102.032,-30.9954C110.379,-29.7812 119.15,-28.5055 127.944,-27.2263"/>
<polygon fill="midnightblue" stroke="midnightblue" points="101.479,-27.5389 92.087,-32.4419 102.487,-34.466 101.479,-27.5389"/>
</g>
</g>
</svg>
