<?xml version="1.0" encoding="UTF-8" standalone="no"?>
<!DOCTYPE svg PUBLIC "-//W3C//DTD SVG 1.1//EN"
 "http://www.w3.org/Graphics/SVG/1.1/DTD/svg11.dtd">
<!-- Generated by graphviz version 2.36.0 (20140111.2315)
 -->
<!-- Title: stride::util::CSV::AddRows Pages: 1 -->
<svg width="366pt" height="38pt"
 viewBox="0.00 0.00 366.00 38.00" xmlns="http://www.w3.org/2000/svg" xmlns:xlink="http://www.w3.org/1999/xlink">
<g id="graph0" class="graph" transform="scale(1 1) rotate(0) translate(4 34)">
<title>stride::util::CSV::AddRows</title>
<polygon fill="white" stroke="none" points="-4,4 -4,-34 362,-34 362,4 -4,4"/>
<!-- Node1 -->
<g id="node1" class="node"><title>Node1</title>
<polygon fill="#bfbfbf" stroke="black" points="0,-0 0,-30 92,-30 92,-0 0,-0"/>
<text text-anchor="start" x="8" y="-18" font-family="Helvetica,sans-Serif" font-size="10.00">stride::util::CSV::</text>
<text text-anchor="middle" x="46" y="-7" font-family="Helvetica,sans-Serif" font-size="10.00">AddRows</text>
</g>
<!-- Node2 -->
<g id="node2" class="node"><title>Node2</title>
<g id="a_node2"><a xlink:href="../../d9/d7d/a00150.html#a1ae467f9599974c0f180c529f8a9f298" target="_top" xlink:title="Add row of values. Will all be converted to string with StringUtils::ToString. ">
<polygon fill="white" stroke="black" points="128,-0 128,-30 220,-30 220,-0 128,-0"/>
<text text-anchor="start" x="136" y="-18" font-family="Helvetica,sans-Serif" font-size="10.00">stride::util::CSV::</text>
<text text-anchor="middle" x="174" y="-7" font-family="Helvetica,sans-Serif" font-size="10.00">AddRow</text>
</a>
</g>
</g>
<!-- Node1&#45;&gt;Node2 -->
<g id="edge1" class="edge"><title>Node1&#45;&gt;Node2</title>
<path fill="none" stroke="midnightblue" d="M92.133,-15C100.366,-15 109.043,-15 117.535,-15"/>
<polygon fill="midnightblue" stroke="midnightblue" points="117.759,-18.5001 127.759,-15 117.759,-11.5001 117.759,-18.5001"/>
</g>
<!-- Node3 -->
<g id="node3" class="node"><title>Node3</title>
<g id="a_node3"><a xlink:href="../../d0/d29/a00470.html#a256d75fffdad0f4f49c6e58c69f76e20" target="_top" xlink:title="Builds a string representation of a value of type T. ">
<polygon fill="white" stroke="black" points="256,-5.5 256,-24.5 358,-24.5 358,-5.5 256,-5.5"/>
<text text-anchor="middle" x="307" y="-12.5" font-family="Helvetica,sans-Serif" font-size="10.00">stride::util::ToString</text>
</a>
</g>
</g>
<!-- Node2&#45;&gt;Node3 -->
<g id="edge2" class="edge"><title>Node2&#45;&gt;Node3</title>
<path fill="none" stroke="midnightblue" d="M220.083,-15C228.381,-15 237.166,-15 245.825,-15"/>
<polygon fill="midnightblue" stroke="midnightblue" points="245.896,-18.5001 255.896,-15 245.896,-11.5001 245.896,-18.5001"/>
</g>
</g>
</svg>
