<?xml version="1.0" encoding="UTF-8" standalone="no"?>
<!DOCTYPE svg PUBLIC "-//W3C//DTD SVG 1.1//EN"
 "http://www.w3.org/Graphics/SVG/1.1/DTD/svg11.dtd">
<!-- Generated by graphviz version 2.36.0 (20140111.2315)
 -->
<!-- Title: stride::util::CSV::CSV Pages: 1 -->
<!--zoomable 134 -->
<svg id="main" version="1.1" xmlns="http://www.w3.org/2000/svg" xmlns:xlink="http://www.w3.org/1999/xlink" xml:space="preserve" onload="init(evt)">
<style type="text/css"><![CDATA[
.edge:hover path { stroke: red; }
.edge:hover polygon { stroke: red; fill: red; }
]]></style>
<script type="text/javascript"><![CDATA[
var edges = document.getElementsByTagName('g');
if (edges && edges.length) {
  for (var i=0;i<edges.length;i++) {
    if (edges[i].id.substr(0,4)=='edge') {
      edges[i].setAttribute('class','edge');
    }
  }
}
]]></script>
        <defs>
                <circle id="rim" cx="0" cy="0" r="7"/>
                <circle id="rim2" cx="0" cy="0" r="3.5"/>
                <g id="zoomPlus">
                        <use xlink:href="#rim" fill="#404040">
                                <set attributeName="fill" to="#808080" begin="zoomplus.mouseover" end="zoomplus.mouseout"/>
                        </use>
                        <path d="M-4,0h8M0,-4v8" fill="none" stroke="white" stroke-width="1.5" pointer-events="none"/>
                </g>
                <g id="zoomMin">
                        <use xlink:href="#rim" fill="#404040">
                                <set attributeName="fill" to="#808080" begin="zoomminus.mouseover" end="zoomminus.mouseout"/>
                        </use>
                        <path d="M-4,0h8" fill="none" stroke="white" stroke-width="1.5" pointer-events="none"/>
                </g>
                <g id="dirArrow">
                        <path fill="none" stroke="white" stroke-width="1.5" d="M0,-3.0v7 M-2.5,-0.5L0,-3.0L2.5,-0.5"/>
                </g>
               <g id="resetDef">
                       <use xlink:href="#rim2" fill="#404040">
                               <set attributeName="fill" to="#808080" begin="reset.mouseover" end="reset.mouseout"/>
                       </use>
               </g>
        </defs>

<script type="text/javascript">
var viewWidth = 524;
var viewHeight = 134;
var sectionId = 'dynsection-2';
</script>
<script xlink:href="../../svgpan.js"/>
<svg id="graph" class="graph">
<g id="viewport">
<title>stride::util::CSV::CSV</title>
<polygon fill="white" stroke="none" points="-4,4 -4,-130 520,-130 520,4 -4,4"/>
<!-- Node1 -->
<g id="node1" class="node"><title>Node1</title>
<polygon fill="#bfbfbf" stroke="black" points="0.5,-49.5 0.5,-68.5 113.5,-68.5 113.5,-49.5 0.5,-49.5"/>
<text text-anchor="middle" x="57" y="-56.5" font-family="Helvetica,sans-Serif" font-size="10.00">stride::util::CSV::CSV</text>
</g>
<!-- Node2 -->
<g id="node2" class="node"><title>Node2</title>
<g id="a_node2"><a xlink:href="../../d9/d7d/a00150.html#a2f3c33a76164f6cbc6e31aab6f8b560d" target="_top" xlink:title="stride::util::CSV::\lReadFromStream">
<polygon fill="white" stroke="black" points="150,-44 150,-74 244,-74 244,-44 150,-44"/>
<text text-anchor="start" x="158" y="-62" font-family="Helvetica,sans-Serif" font-size="10.00">stride::util::CSV::</text>
<text text-anchor="middle" x="197" y="-51" font-family="Helvetica,sans-Serif" font-size="10.00">ReadFromStream</text>
</a>
</g>
</g>
<!-- Node1&#45;&gt;Node2 -->
<g id="edge1" class="edge"><title>Node1&#45;&gt;Node2</title>
<path fill="none" stroke="midnightblue" d="M113.732,-59C122.241,-59 131.03,-59 139.554,-59"/>
<polygon fill="midnightblue" stroke="midnightblue" points="139.784,-62.5001 149.784,-59 139.784,-55.5001 139.784,-62.5001"/>
</g>
<!-- Node3 -->
<g id="node3" class="node"><title>Node3</title>
<g id="a_node3"><a xlink:href="../../d7/db5/a00472.html#a01882a252a5e262d442f9a8b8f64e3ef" target="_top" xlink:title="Trim characters at both ends of string. ">
<polygon fill="white" stroke="black" points="283.5,-87.5 283.5,-106.5 368.5,-106.5 368.5,-87.5 283.5,-87.5"/>
<text text-anchor="middle" x="326" y="-94.5" font-family="Helvetica,sans-Serif" font-size="10.00">stride::util::Trim</text>
</a>
</g>
</g>
<!-- Node2&#45;&gt;Node3 -->
<g id="edge2" class="edge"><title>Node2&#45;&gt;Node3</title>
<path fill="none" stroke="midnightblue" d="M244.209,-72.8264C256.969,-76.6442 270.736,-80.7636 283.228,-84.5014"/>
<polygon fill="midnightblue" stroke="midnightblue" points="282.346,-87.8906 292.929,-87.4041 284.352,-81.1843 282.346,-87.8906"/>
</g>
<!-- Node6 -->
<g id="node6" class="node"><title>Node6</title>
<g id="a_node6"><a xlink:href="../../d7/db5/a00472.html#a600b27c06281da416f50a129c50b19f2" target="_top" xlink:title="Split a string (in order of occurence) by splitting it on the given delimiters. ">
<polygon fill="white" stroke="black" points="283.5,-49.5 283.5,-68.5 368.5,-68.5 368.5,-49.5 283.5,-49.5"/>
<text text-anchor="middle" x="326" y="-56.5" font-family="Helvetica,sans-Serif" font-size="10.00">stride::util::Split</text>
</a>
</g>
</g>
<!-- Node2&#45;&gt;Node6 -->
<g id="edge5" class="edge"><title>Node2&#45;&gt;Node6</title>
<path fill="none" stroke="midnightblue" d="M244.209,-59C253.584,-59 263.504,-59 273.061,-59"/>
<polygon fill="midnightblue" stroke="midnightblue" points="273.248,-62.5001 283.248,-59 273.248,-55.5001 273.248,-62.5001"/>
</g>
<!-- Node7 -->
<g id="node7" class="node"><title>Node7</title>
<g id="a_node7"><a xlink:href="../../d9/d7d/a00150.html#a1ae467f9599974c0f180c529f8a9f298" target="_top" xlink:title="Add row of values. Will all be converted to string with StringUtils::ToString. ">
<polygon fill="white" stroke="black" points="280,-0 280,-30 372,-30 372,-0 280,-0"/>
<text text-anchor="start" x="288" y="-18" font-family="Helvetica,sans-Serif" font-size="10.00">stride::util::CSV::</text>
<text text-anchor="middle" x="326" y="-7" font-family="Helvetica,sans-Serif" font-size="10.00">AddRow</text>
</a>
</g>
</g>
<!-- Node2&#45;&gt;Node7 -->
<g id="edge6" class="edge"><title>Node2&#45;&gt;Node7</title>
<path fill="none" stroke="midnightblue" d="M241.351,-43.9808C251.153,-40.5849 261.669,-36.9414 271.824,-33.4233"/>
<polygon fill="midnightblue" stroke="midnightblue" points="273.11,-36.6818 281.413,-30.1009 270.818,-30.0675 273.11,-36.6818"/>
</g>
<!-- Node4 -->
<g id="node4" class="node"><title>Node4</title>
<g id="a_node4"><a xlink:href="../../d7/db5/a00472.html#a2c5aacbb4d606af3e43a96e8aad692cf" target="_top" xlink:title="Trim characters at left end of string. ">
<polygon fill="white" stroke="black" points="411.5,-106.5 411.5,-125.5 512.5,-125.5 512.5,-106.5 411.5,-106.5"/>
<text text-anchor="middle" x="462" y="-113.5" font-family="Helvetica,sans-Serif" font-size="10.00">stride::util::TrimLeft</text>
</a>
</g>
</g>
<!-- Node3&#45;&gt;Node4 -->
<g id="edge3" class="edge"><title>Node3&#45;&gt;Node4</title>
<path fill="none" stroke="midnightblue" d="M368.664,-102.908C379.016,-104.375 390.316,-105.978 401.346,-107.542"/>
<polygon fill="midnightblue" stroke="midnightblue" points="400.973,-111.024 411.365,-108.962 401.956,-104.093 400.973,-111.024"/>
</g>
<!-- Node5 -->
<g id="node5" class="node"><title>Node5</title>
<g id="a_node5"><a xlink:href="../../d7/db5/a00472.html#a9fa614ccd671679a0e1feff6e0f6da33" target="_top" xlink:title="Trim characters at right end of string. ">
<polygon fill="white" stroke="black" points="408,-68.5 408,-87.5 516,-87.5 516,-68.5 408,-68.5"/>
<text text-anchor="middle" x="462" y="-75.5" font-family="Helvetica,sans-Serif" font-size="10.00">stride::util::TrimRight</text>
</a>
</g>
</g>
<!-- Node3&#45;&gt;Node5 -->
<g id="edge4" class="edge"><title>Node3&#45;&gt;Node5</title>
<path fill="none" stroke="midnightblue" d="M368.664,-91.0924C377.999,-89.7689 388.103,-88.3362 398.085,-86.9207"/>
<polygon fill="midnightblue" stroke="midnightblue" points="398.585,-90.385 407.995,-85.5157 397.602,-83.4543 398.585,-90.385"/>
</g>
<!-- Node8 -->
<g id="node8" class="node"><title>Node8</title>
<g id="a_node8"><a xlink:href="../../d7/db5/a00472.html#a256d75fffdad0f4f49c6e58c69f76e20" target="_top" xlink:title="Builds a string representation of a value of type T. ">
<polygon fill="white" stroke="black" points="411,-5.5 411,-24.5 513,-24.5 513,-5.5 411,-5.5"/>
<text text-anchor="middle" x="462" y="-12.5" font-family="Helvetica,sans-Serif" font-size="10.00">stride::util::ToString</text>
</a>
</g>
</g>
<!-- Node7&#45;&gt;Node8 -->
<g id="edge7" class="edge"><title>Node7&#45;&gt;Node8</title>
<path fill="none" stroke="midnightblue" d="M372.366,-15C381.399,-15 391.02,-15 400.467,-15"/>
<polygon fill="midnightblue" stroke="midnightblue" points="400.615,-18.5001 410.615,-15 400.615,-11.5001 400.615,-18.5001"/>
</g>
</g>
</svg>
        <g id="navigator" transform="translate(0 0)" fill="#404254">
                <rect fill="#f2f5e9" fill-opacity="0.5" stroke="#606060" stroke-width=".5" x="0" y="0" width="60" height="60"/>
                <use id="zoomplus" xlink:href="#zoomPlus" x="17" y="9" onmousedown="handleZoom(evt,'in')"/>
                <use id="zoomminus" xlink:href="#zoomMin" x="42" y="9" onmousedown="handleZoom(evt,'out')"/>
                <use id="reset" xlink:href="#resetDef" x="30" y="36" onmousedown="handleReset()"/>
                <g id="arrowUp" xlink:href="#dirArrow" transform="translate(30 24)" onmousedown="handlePan(0,-1)">
                  <use xlink:href="#rim" fill="#404040">
                        <set attributeName="fill" to="#808080" begin="arrowUp.mouseover" end="arrowUp.mouseout"/>
                  </use>
                  <path fill="none" stroke="white" stroke-width="1.5" d="M0,-3.0v7 M-2.5,-0.5L0,-3.0L2.5,-0.5"/>
                </g>
                <g id="arrowRight" xlink:href="#dirArrow" transform="rotate(90) translate(36 -43)" onmousedown="handlePan(1,0)">
                  <use xlink:href="#rim" fill="#404040">
                        <set attributeName="fill" to="#808080" begin="arrowRight.mouseover" end="arrowRight.mouseout"/>
                  </use>
                  <path fill="none" stroke="white" stroke-width="1.5" d="M0,-3.0v7 M-2.5,-0.5L0,-3.0L2.5,-0.5"/>
                </g>
                <g id="arrowDown" xlink:href="#dirArrow" transform="rotate(180) translate(-30 -48)" onmousedown="handlePan(0,1)">
                  <use xlink:href="#rim" fill="#404040">
                        <set attributeName="fill" to="#808080" begin="arrowDown.mouseover" end="arrowDown.mouseout"/>
                  </use>
                  <path fill="none" stroke="white" stroke-width="1.5" d="M0,-3.0v7 M-2.5,-0.5L0,-3.0L2.5,-0.5"/>
                </g>
                <g id="arrowLeft" xlink:href="#dirArrow" transform="rotate(270) translate(-36 17)" onmousedown="handlePan(-1,0)">
                  <use xlink:href="#rim" fill="#404040">
                        <set attributeName="fill" to="#808080" begin="arrowLeft.mouseover" end="arrowLeft.mouseout"/>
                  </use>
                  <path fill="none" stroke="white" stroke-width="1.5" d="M0,-3.0v7 M-2.5,-0.5L0,-3.0L2.5,-0.5"/>
                </g>
        </g>
        <svg viewBox="0 0 15 15" width="100%" height="30px" preserveAspectRatio="xMaxYMin meet">
         <g id="arrow_out" transform="scale(0.3 0.3)">
          <a xlink:href="a00150_ac8d180042e0dd5717d655d9cbd1dc59b_cgraph_org.svg" target="_base">
           <rect id="button" ry="5" rx="5" y="6" x="6" height="38" width="38"
                fill="#f2f5e9" fill-opacity="0.5" stroke="#606060" stroke-width="1.0"/>
           <path id="arrow"
             d="M 11.500037,31.436501 C 11.940474,20.09759 22.043105,11.32322 32.158766,21.979434 L 37.068811,17.246167 C 37.068811,17.246167 37.088388,32 37.088388,32 L 22.160133,31.978069 C 22.160133,31.978069 26.997745,27.140456 26.997745,27.140456 C 18.528582,18.264221 13.291696,25.230495 11.500037,31.436501 z"
             style="fill:#404040;"/>
          </a>
         </g>
        </svg>
</svg>
