<?xml version="1.0" encoding="UTF-8" standalone="no"?>
<!DOCTYPE svg PUBLIC "-//W3C//DTD SVG 1.1//EN"
 "http://www.w3.org/Graphics/SVG/1.1/DTD/svg11.dtd">
<!-- Generated by graphviz version 2.36.0 (20140111.2315)
 -->
<!-- Title: stride::TravellerProfile::AddTravelRecreation Pages: 1 -->
<svg width="400pt" height="38pt"
 viewBox="0.00 0.00 400.00 38.00" xmlns="http://www.w3.org/2000/svg" xmlns:xlink="http://www.w3.org/1999/xlink">
<g id="graph0" class="graph" transform="scale(1 1) rotate(0) translate(4 34)">
<title>stride::TravellerProfile::AddTravelRecreation</title>
<polygon fill="white" stroke="none" points="-4,4 -4,-34 396,-34 396,4 -4,4"/>
<!-- Node1 -->
<g id="node1" class="node"><title>Node1</title>
<polygon fill="#bfbfbf" stroke="black" points="0,-0 0,-30 114,-30 114,-0 0,-0"/>
<text text-anchor="start" x="8" y="-18" font-family="Helvetica,sans-Serif" font-size="10.00">stride::TravellerProfile</text>
<text text-anchor="middle" x="57" y="-7" font-family="Helvetica,sans-Serif" font-size="10.00">::AddTravelRecreation</text>
</g>
<!-- Node2 -->
<g id="node2" class="node"><title>Node2</title>
<g id="a_node2"><a xlink:href="../../dd/db2/a00151.html#a054950caec73fe87d50736d61377d182" target="_top" xlink:title="Build and return the TravellerProfile. ">
<polygon fill="white" stroke="black" points="150,-0 150,-30 262,-30 262,-0 150,-0"/>
<text text-anchor="start" x="158" y="-18" font-family="Helvetica,sans-Serif" font-size="10.00">stride::TravellerProfile</text>
<text text-anchor="middle" x="206" y="-7" font-family="Helvetica,sans-Serif" font-size="10.00">Builder::Build</text>
</a>
</g>
</g>
<!-- Node1&#45;&gt;Node2 -->
<g id="edge1" class="edge"><title>Node1&#45;&gt;Node2</title>
<path fill="none" stroke="midnightblue" d="M124.646,-15C133.109,-15 141.695,-15 149.949,-15"/>
<polygon fill="midnightblue" stroke="midnightblue" points="124.414,-11.5001 114.414,-15 124.414,-18.5001 124.414,-11.5001"/>
</g>
<!-- Node3 -->
<g id="node3" class="node"><title>Node3</title>
<g id="a_node3"><a xlink:href="../../d2/d82/a00142.html#a94ce5fb3cae915f0bdb261498f31c444" target="_top" xlink:title="Build the simulator and return it afterwards. ">
<polygon fill="white" stroke="black" points="298,-0 298,-30 392,-30 392,-0 298,-0"/>
<text text-anchor="start" x="306" y="-18" font-family="Helvetica,sans-Serif" font-size="10.00">stride::SimBuilder</text>
<text text-anchor="middle" x="345" y="-7" font-family="Helvetica,sans-Serif" font-size="10.00">::Build</text>
</a>
</g>
</g>
<!-- Node2&#45;&gt;Node3 -->
<g id="edge2" class="edge"><title>Node2&#45;&gt;Node3</title>
<path fill="none" stroke="midnightblue" d="M272.603,-15C281.079,-15 289.614,-15 297.688,-15"/>
<polygon fill="midnightblue" stroke="midnightblue" points="272.328,-11.5001 262.328,-15 272.328,-18.5001 272.328,-11.5001"/>
</g>
</g>
</svg>
