<?xml version="1.0" encoding="UTF-8" standalone="no"?>
<!DOCTYPE svg PUBLIC "-//W3C//DTD SVG 1.1//EN"
 "http://www.w3.org/Graphics/SVG/1.1/DTD/svg11.dtd">
<!-- Generated by graphviz version 2.36.0 (20140111.2315)
 -->
<!-- Title: stride::SimWorker Pages: 1 -->
<svg width="173pt" height="196pt"
 viewBox="0.00 0.00 173.00 196.00" xmlns="http://www.w3.org/2000/svg" xmlns:xlink="http://www.w3.org/1999/xlink">
<g id="graph0" class="graph" transform="scale(1 1) rotate(0) translate(4 192)">
<title>stride::SimWorker</title>
<polygon fill="white" stroke="none" points="-4,4 -4,-192 169,-192 169,4 -4,4"/>
<!-- Node1 -->
<g id="node1" class="node"><title>Node1</title>
<polygon fill="#bfbfbf" stroke="black" points="24.5,-1 24.5,-69 119.5,-69 119.5,-1 24.5,-1"/>
<text text-anchor="middle" x="72" y="-57" font-family="Helvetica,sans-Serif" font-size="10.00">stride::SimWorker</text>
<polyline fill="none" stroke="black" points="24.5,-50 119.5,-50 "/>
<text text-anchor="middle" x="72" y="-38" font-family="Helvetica,sans-Serif" font-size="10.00"> </text>
<polyline fill="none" stroke="black" points="24.5,-31 119.5,-31 "/>
<text text-anchor="start" x="32.5" y="-19" font-family="Helvetica,sans-Serif" font-size="10.00">+ SimWorker()</text>
<text text-anchor="start" x="32.5" y="-8" font-family="Helvetica,sans-Serif" font-size="10.00">+ Work()</text>
</g>
<!-- Node2 -->
<g id="node2" class="node"><title>Node2</title>
<g id="a_node2"><a xlink:href="../../d9/dec/a00090.html" target="_top" xlink:title="{QObject\n||}">
<polygon fill="white" stroke="black" points="-0.5,-124.5 -0.5,-181.5 52.5,-181.5 52.5,-124.5 -0.5,-124.5"/>
<text text-anchor="middle" x="26" y="-169.5" font-family="Helvetica,sans-Serif" font-size="10.00">QObject</text>
<polyline fill="none" stroke="black" points="-0.5,-162.5 52.5,-162.5 "/>
<text text-anchor="middle" x="26" y="-150.5" font-family="Helvetica,sans-Serif" font-size="10.00"> </text>
<polyline fill="none" stroke="black" points="-0.5,-143.5 52.5,-143.5 "/>
<text text-anchor="middle" x="26" y="-131.5" font-family="Helvetica,sans-Serif" font-size="10.00"> </text>
</a>
</g>
</g>
<!-- Node2&#45;&gt;Node1 -->
<g id="edge1" class="edge"><title>Node2&#45;&gt;Node1</title>
<path fill="none" stroke="midnightblue" d="M40.8638,-114.517C46.6302,-99.976 53.1798,-83.4595 58.7792,-69.3393"/>
<polygon fill="none" stroke="midnightblue" points="37.4509,-113.629 37.0181,-124.215 43.958,-116.21 37.4509,-113.629"/>
</g>
<!-- Node3 -->
<g id="node3" class="node"><title>Node3</title>
<polygon fill="white" stroke="#bfbfbf" points="70.5,-119 70.5,-187 165.5,-187 165.5,-119 70.5,-119"/>
<text text-anchor="start" x="78.5" y="-175" font-family="Helvetica,sans-Serif" font-size="10.00">shared_ptr&lt; stride</text>
<text text-anchor="middle" x="118" y="-164" font-family="Helvetica,sans-Serif" font-size="10.00">::SimRunner &gt;</text>
<polyline fill="none" stroke="#bfbfbf" points="70.5,-157 165.5,-157 "/>
<text text-anchor="middle" x="118" y="-145" font-family="Helvetica,sans-Serif" font-size="10.00"> </text>
<polyline fill="none" stroke="#bfbfbf" points="70.5,-138 165.5,-138 "/>
<text text-anchor="middle" x="118" y="-126" font-family="Helvetica,sans-Serif" font-size="10.00"> </text>
</g>
<!-- Node3&#45;&gt;Node1 -->
<g id="edge2" class="edge"><title>Node3&#45;&gt;Node1</title>
<path fill="none" stroke="#404040" d="M104.818,-118.759C100.103,-106.867 94.7089,-93.266 89.6754,-80.5727"/>
<polygon fill="none" stroke="#404040" points="89.6072,-80.4007 83.6772,-76.2978 85.1837,-69.2458 91.1138,-73.3487 89.6072,-80.4007"/>
<text text-anchor="middle" x="119.5" y="-91.5" font-family="Helvetica,sans-Serif" font-size="10.00"> &#45;m_runner</text>
</g>
</g>
</svg>
