<?xml version="1.0" encoding="UTF-8" standalone="no"?>
<!DOCTYPE svg PUBLIC "-//W3C//DTD SVG 1.1//EN"
 "http://www.w3.org/Graphics/SVG/1.1/DTD/svg11.dtd">
<!-- Generated by graphviz version 2.36.0 (20140111.2315)
 -->
<!-- Title: stride::AgeContactProfile Pages: 1 -->
<svg width="134pt" height="184pt"
 viewBox="0.00 0.00 134.00 184.00" xmlns="http://www.w3.org/2000/svg" xmlns:xlink="http://www.w3.org/1999/xlink">
<g id="graph0" class="graph" transform="scale(1 1) rotate(0) translate(4 180)">
<title>stride::AgeContactProfile</title>
<polygon fill="white" stroke="none" points="-4,4 -4,-180 130,-180 130,4 -4,4"/>
<!-- Node1 -->
<g id="node1" class="node"><title>Node1</title>
<polygon fill="#bfbfbf" stroke="black" points="0,-1 0,-69 126,-69 126,-1 0,-1"/>
<text text-anchor="middle" x="63" y="-57" font-family="Helvetica,sans-Serif" font-size="10.00">stride::AgeContactProfile</text>
<polyline fill="none" stroke="black" points="0,-50 126,-50 "/>
<text text-anchor="middle" x="63" y="-38" font-family="Helvetica,sans-Serif" font-size="10.00"> </text>
<polyline fill="none" stroke="black" points="0,-31 126,-31 "/>
<text text-anchor="start" x="8" y="-19" font-family="Helvetica,sans-Serif" font-size="10.00">+ AgeContactProfile()</text>
<text text-anchor="start" x="8" y="-8" font-family="Helvetica,sans-Serif" font-size="10.00">+ AgeContactProfile()</text>
</g>
<!-- Node2 -->
<g id="node2" class="node"><title>Node2</title>
<g id="a_node2"><a xlink:title="STL class. ">
<polygon fill="white" stroke="#bfbfbf" points="10,-107 10,-175 116,-175 116,-107 10,-107"/>
<text text-anchor="start" x="18" y="-163" font-family="Helvetica,sans-Serif" font-size="10.00">std::array&lt; double,</text>
<text text-anchor="middle" x="63" y="-152" font-family="Helvetica,sans-Serif" font-size="10.00"> MaximumAge()+1 &gt;</text>
<polyline fill="none" stroke="#bfbfbf" points="10,-145 116,-145 "/>
<text text-anchor="start" x="18" y="-133" font-family="Helvetica,sans-Serif" font-size="10.00">+ elements</text>
<polyline fill="none" stroke="#bfbfbf" points="10,-126 116,-126 "/>
<text text-anchor="middle" x="63" y="-114" font-family="Helvetica,sans-Serif" font-size="10.00"> </text>
</a>
</g>
</g>
<!-- Node2&#45;&gt;Node1 -->
<g id="edge1" class="edge"><title>Node2&#45;&gt;Node1</title>
<path fill="none" stroke="midnightblue" d="M63,-96.6737C63,-87.5025 63,-77.9608 63,-69.2336"/>
<polygon fill="none" stroke="midnightblue" points="59.5001,-96.8078 63,-106.808 66.5001,-96.8078 59.5001,-96.8078"/>
</g>
</g>
</svg>
