<?xml version="1.0" encoding="UTF-8" standalone="no"?>
<!DOCTYPE svg PUBLIC "-//W3C//DTD SVG 1.1//EN"
 "http://www.w3.org/Graphics/SVG/1.1/DTD/svg11.dtd">
<!-- Generated by graphviz version 2.36.0 (20140111.2315)
 -->
<!-- Title: Backend Pages: 1 -->
<svg width="1056pt" height="682pt"
 viewBox="0.00 0.00 1056.00 682.00" xmlns="http://www.w3.org/2000/svg" xmlns:xlink="http://www.w3.org/1999/xlink">
<g id="graph0" class="graph" transform="scale(1 1) rotate(0) translate(4 678)">
<title>Backend</title>
<polygon fill="white" stroke="none" points="-4,4 -4,-678 1052,-678 1052,4 -4,4"/>
<!-- Node1 -->
<g id="node1" class="node"><title>Node1</title>
<polygon fill="#bfbfbf" stroke="black" points="348,-1 348,-289 522,-289 522,-1 348,-1"/>
<text text-anchor="middle" x="435" y="-277" font-family="Helvetica,sans-Serif" font-size="10.00">Backend</text>
<polyline fill="none" stroke="black" points="348,-270 522,-270 "/>
<text text-anchor="middle" x="435" y="-258" font-family="Helvetica,sans-Serif" font-size="10.00"> </text>
<polyline fill="none" stroke="black" points="348,-251 522,-251 "/>
<text text-anchor="start" x="356" y="-239" font-family="Helvetica,sans-Serif" font-size="10.00">+ Backend()</text>
<text text-anchor="start" x="356" y="-228" font-family="Helvetica,sans-Serif" font-size="10.00">+ Backend()</text>
<text text-anchor="start" x="356" y="-217" font-family="Helvetica,sans-Serif" font-size="10.00">+ operator=()</text>
<text text-anchor="start" x="356" y="-206" font-family="Helvetica,sans-Serif" font-size="10.00">+ LoadGeoGridFromFile()</text>
<text text-anchor="start" x="356" y="-195" font-family="Helvetica,sans-Serif" font-size="10.00">+ SetGeoGrids()</text>
<text text-anchor="start" x="356" y="-184" font-family="Helvetica,sans-Serif" font-size="10.00">+ SaveMarker()</text>
<text text-anchor="start" x="356" y="-173" font-family="Helvetica,sans-Serif" font-size="10.00">+ LoadGeoGridFromCommandLine()</text>
<text text-anchor="start" x="356" y="-162" font-family="Helvetica,sans-Serif" font-size="10.00">+ SetObjects()</text>
<text text-anchor="start" x="356" y="-151" font-family="Helvetica,sans-Serif" font-size="10.00">+ OnMarkerClicked()</text>
<text text-anchor="start" x="356" y="-140" font-family="Helvetica,sans-Serif" font-size="10.00">+ OnExtraMarkerClicked()</text>
<text text-anchor="start" x="356" y="-129" font-family="Helvetica,sans-Serif" font-size="10.00">and 10 more...</text>
<text text-anchor="start" x="356" y="-118" font-family="Helvetica,sans-Serif" font-size="10.00">&#45; PlaceMarker()</text>
<text text-anchor="start" x="356" y="-107" font-family="Helvetica,sans-Serif" font-size="10.00">&#45; PlaceMarkers()</text>
<text text-anchor="start" x="356" y="-96" font-family="Helvetica,sans-Serif" font-size="10.00">&#45; UpdateColorOfMarkers()</text>
<text text-anchor="start" x="356" y="-85" font-family="Helvetica,sans-Serif" font-size="10.00">&#45; EmitLocations()</text>
<text text-anchor="start" x="356" y="-74" font-family="Helvetica,sans-Serif" font-size="10.00">&#45; ToggleSelectionOfLocation()</text>
<text text-anchor="start" x="356" y="-63" font-family="Helvetica,sans-Serif" font-size="10.00">&#45; AddCommuteLine()</text>
<text text-anchor="start" x="356" y="-52" font-family="Helvetica,sans-Serif" font-size="10.00">&#45; HideCommuteLine()</text>
<text text-anchor="start" x="356" y="-41" font-family="Helvetica,sans-Serif" font-size="10.00">&#45; HideCommuteBetween()</text>
<text text-anchor="start" x="356" y="-30" font-family="Helvetica,sans-Serif" font-size="10.00">&#45; ShowCommute()</text>
<text text-anchor="start" x="356" y="-19" font-family="Helvetica,sans-Serif" font-size="10.00">&#45; SetHealthColorOf()</text>
<text text-anchor="start" x="356" y="-8" font-family="Helvetica,sans-Serif" font-size="10.00">&#45; GetLocationInRegion()</text>
</g>
<!-- Node2 -->
<g id="node2" class="node"><title>Node2</title>
<g id="a_node2"><a xlink:href="../../d9/dec/a00090.html" target="_top" xlink:title="{QObject\n||}">
<polygon fill="white" stroke="black" points="-0.5,-359.5 -0.5,-416.5 52.5,-416.5 52.5,-359.5 -0.5,-359.5"/>
<text text-anchor="middle" x="26" y="-404.5" font-family="Helvetica,sans-Serif" font-size="10.00">QObject</text>
<polyline fill="none" stroke="black" points="-0.5,-397.5 52.5,-397.5 "/>
<text text-anchor="middle" x="26" y="-385.5" font-family="Helvetica,sans-Serif" font-size="10.00"> </text>
<polyline fill="none" stroke="black" points="-0.5,-378.5 52.5,-378.5 "/>
<text text-anchor="middle" x="26" y="-366.5" font-family="Helvetica,sans-Serif" font-size="10.00"> </text>
</a>
</g>
</g>
<!-- Node2&#45;&gt;Node1 -->
<g id="edge1" class="edge"><title>Node2&#45;&gt;Node1</title>
<path fill="none" stroke="midnightblue" d="M55.8307,-352.364C57.5307,-350.837 59.2581,-349.372 61,-348 150.702,-277.325 268.62,-218.282 347.862,-182.634"/>
<polygon fill="none" stroke="midnightblue" points="53.3483,-349.896 48.5934,-359.363 58.2147,-354.927 53.3483,-349.896"/>
</g>
<!-- Node3 -->
<g id="node3" class="node"><title>Node3</title>
<g id="a_node3"><a xlink:href="../../dd/d9c/a00487.html" target="_top" xlink:title="{double\n||}">
<polygon fill="white" stroke="black" points="70.5,-359.5 70.5,-416.5 115.5,-416.5 115.5,-359.5 70.5,-359.5"/>
<text text-anchor="middle" x="93" y="-404.5" font-family="Helvetica,sans-Serif" font-size="10.00">double</text>
<polyline fill="none" stroke="black" points="70.5,-397.5 115.5,-397.5 "/>
<text text-anchor="middle" x="93" y="-385.5" font-family="Helvetica,sans-Serif" font-size="10.00"> </text>
<polyline fill="none" stroke="black" points="70.5,-378.5 115.5,-378.5 "/>
<text text-anchor="middle" x="93" y="-366.5" font-family="Helvetica,sans-Serif" font-size="10.00"> </text>
</a>
</g>
</g>
<!-- Node3&#45;&gt;Node1 -->
<g id="edge2" class="edge"><title>Node3&#45;&gt;Node1</title>
<path fill="none" stroke="#404040" d="M113.502,-359.384C116.853,-355.42 120.409,-351.502 124,-348 145.128,-327.396 152.703,-324.751 177,-308 229.035,-272.125 288.708,-234.443 337.551,-204.458"/>
<polygon fill="none" stroke="#404040" points="337.569,-204.447 340.596,-197.903 347.802,-198.18 344.774,-204.725 337.569,-204.447"/>
<text text-anchor="middle" x="218" y="-316.5" font-family="Helvetica,sans-Serif" font-size="10.00"> &#45;m_colorExponent</text>
</g>
<!-- Node4 -->
<g id="node4" class="node"><title>Node4</title>
<polygon fill="white" stroke="#bfbfbf" points="133.5,-354 133.5,-422 282.5,-422 282.5,-354 133.5,-354"/>
<text text-anchor="start" x="141.5" y="-410" font-family="Helvetica,sans-Serif" font-size="10.00">std::vector&lt; std::shared</text>
<text text-anchor="middle" x="208" y="-399" font-family="Helvetica,sans-Serif" font-size="10.00">_ptr&lt; gengeopop::GeoGrid &gt; &gt;</text>
<polyline fill="none" stroke="#bfbfbf" points="133.5,-392 282.5,-392 "/>
<text text-anchor="middle" x="208" y="-380" font-family="Helvetica,sans-Serif" font-size="10.00"> </text>
<polyline fill="none" stroke="#bfbfbf" points="133.5,-373 282.5,-373 "/>
<text text-anchor="middle" x="208" y="-361" font-family="Helvetica,sans-Serif" font-size="10.00"> </text>
</g>
<!-- Node4&#45;&gt;Node1 -->
<g id="edge3" class="edge"><title>Node4&#45;&gt;Node1</title>
<path fill="none" stroke="#404040" d="M239.087,-353.995C264.999,-326.486 303.343,-285.777 339.255,-247.65"/>
<polygon fill="none" stroke="#404040" points="339.61,-247.273 340.812,-240.163 347.838,-238.538 346.635,-245.648 339.61,-247.273"/>
<text text-anchor="middle" x="302.5" y="-316.5" font-family="Helvetica,sans-Serif" font-size="10.00"> &#45;m_grids</text>
</g>
<!-- Node5 -->
<g id="node5" class="node"><title>Node5</title>
<polygon fill="white" stroke="#bfbfbf" points="169.5,-499 169.5,-567 288.5,-567 288.5,-499 169.5,-499"/>
<text text-anchor="start" x="177.5" y="-555" font-family="Helvetica,sans-Serif" font-size="10.00">shared_ptr&lt; gengeopop</text>
<text text-anchor="middle" x="229" y="-544" font-family="Helvetica,sans-Serif" font-size="10.00">::GeoGrid &gt;</text>
<polyline fill="none" stroke="#bfbfbf" points="169.5,-537 288.5,-537 "/>
<text text-anchor="middle" x="229" y="-525" font-family="Helvetica,sans-Serif" font-size="10.00"> </text>
<polyline fill="none" stroke="#bfbfbf" points="169.5,-518 288.5,-518 "/>
<text text-anchor="middle" x="229" y="-506" font-family="Helvetica,sans-Serif" font-size="10.00"> </text>
</g>
<!-- Node5&#45;&gt;Node4 -->
<g id="edge4" class="edge"><title>Node5&#45;&gt;Node4</title>
<path fill="none" stroke="#404040" d="M224.129,-498.833C221.327,-479.749 217.765,-455.492 214.701,-434.631"/>
<polygon fill="none" stroke="#404040" points="214.661,-434.355 209.831,-429 212.917,-422.482 217.746,-427.837 214.661,-434.355"/>
<text text-anchor="middle" x="245.5" y="-460.5" font-family="Helvetica,sans-Serif" font-size="10.00"> +elements</text>
</g>
<!-- Node6 -->
<g id="node6" class="node"><title>Node6</title>
<g id="a_node6"><a xlink:title="STL class. ">
<polygon fill="white" stroke="#bfbfbf" points="58.5,-504.5 58.5,-561.5 145.5,-561.5 145.5,-504.5 58.5,-504.5"/>
<text text-anchor="middle" x="102" y="-549.5" font-family="Helvetica,sans-Serif" font-size="10.00">std::vector&lt; T &gt;</text>
<polyline fill="none" stroke="#bfbfbf" points="58.5,-542.5 145.5,-542.5 "/>
<text text-anchor="middle" x="102" y="-530.5" font-family="Helvetica,sans-Serif" font-size="10.00"> </text>
<polyline fill="none" stroke="#bfbfbf" points="58.5,-523.5 145.5,-523.5 "/>
<text text-anchor="middle" x="102" y="-511.5" font-family="Helvetica,sans-Serif" font-size="10.00"> </text>
</a>
</g>
</g>
<!-- Node6&#45;&gt;Node4 -->
<g id="edge5" class="edge"><title>Node6&#45;&gt;Node4</title>
<path fill="none" stroke="orange" d="M93.8069,-494.065C92.3737,-478.2 93.5174,-460.193 102,-446 104.653,-441.561 121.107,-432.031 140.29,-422.011"/>
<polygon fill="orange" stroke="orange" points="90.3507,-494.634 95.0695,-504.12 97.2962,-493.761 90.3507,-494.634"/>
<text text-anchor="start" x="102" y="-466" font-family="Helvetica,sans-Serif" font-size="10.00"> &lt; std::shared_ptr&lt;</text>
<text text-anchor="middle" x="157.5" y="-455" font-family="Helvetica,sans-Serif" font-size="10.00"> gengeopop::GeoGrid &gt; &gt;</text>
</g>
<!-- Node7 -->
<g id="node7" class="node"><title>Node7</title>
<polygon fill="white" stroke="#bfbfbf" points="366.5,-616.5 366.5,-673.5 395.5,-673.5 395.5,-616.5 366.5,-616.5"/>
<text text-anchor="middle" x="381" y="-661.5" font-family="Helvetica,sans-Serif" font-size="10.00">T</text>
<polyline fill="none" stroke="#bfbfbf" points="366.5,-654.5 395.5,-654.5 "/>
<text text-anchor="middle" x="381" y="-642.5" font-family="Helvetica,sans-Serif" font-size="10.00"> </text>
<polyline fill="none" stroke="#bfbfbf" points="366.5,-635.5 395.5,-635.5 "/>
<text text-anchor="middle" x="381" y="-623.5" font-family="Helvetica,sans-Serif" font-size="10.00"> </text>
</g>
<!-- Node7&#45;&gt;Node6 -->
<g id="edge6" class="edge"><title>Node7&#45;&gt;Node6</title>
<path fill="none" stroke="#404040" d="M366.394,-640.072C330.422,-630.164 235.026,-602.474 160,-568 158.807,-567.452 157.607,-566.886 156.402,-566.305"/>
<polygon fill="none" stroke="#404040" points="156.213,-566.209 149.05,-567.04 145.527,-560.748 152.69,-559.917 156.213,-566.209"/>
<text text-anchor="middle" x="256.5" y="-589.5" font-family="Helvetica,sans-Serif" font-size="10.00"> +elements</text>
</g>
<!-- Node11 -->
<g id="node11" class="node"><title>Node11</title>
<g id="a_node11"><a xlink:title="STL class. ">
<polygon fill="white" stroke="#bfbfbf" points="574,-504.5 574,-561.5 666,-561.5 666,-504.5 574,-504.5"/>
<text text-anchor="middle" x="620" y="-549.5" font-family="Helvetica,sans-Serif" font-size="10.00">std::map&lt; K, T &gt;</text>
<polyline fill="none" stroke="#bfbfbf" points="574,-542.5 666,-542.5 "/>
<text text-anchor="middle" x="620" y="-530.5" font-family="Helvetica,sans-Serif" font-size="10.00"> </text>
<polyline fill="none" stroke="#bfbfbf" points="574,-523.5 666,-523.5 "/>
<text text-anchor="middle" x="620" y="-511.5" font-family="Helvetica,sans-Serif" font-size="10.00"> </text>
</a>
</g>
</g>
<!-- Node7&#45;&gt;Node11 -->
<g id="edge12" class="edge"><title>Node7&#45;&gt;Node11</title>
<path fill="none" stroke="#404040" d="M395.591,-637.285C428.018,-622.36 507.553,-585.754 562.655,-560.393"/>
<polygon fill="none" stroke="#404040" points="562.772,-560.339 566.55,-554.197 573.673,-555.322 569.895,-561.464 562.772,-560.339"/>
<text text-anchor="middle" x="525.5" y="-589.5" font-family="Helvetica,sans-Serif" font-size="10.00"> +elements</text>
</g>
<!-- Node8 -->
<g id="node8" class="node"><title>Node8</title>
<polygon fill="white" stroke="#bfbfbf" points="300.5,-348.5 300.5,-427.5 439.5,-427.5 439.5,-348.5 300.5,-348.5"/>
<text text-anchor="start" x="308.5" y="-415.5" font-family="Helvetica,sans-Serif" font-size="10.00">std::map&lt; std::tuple</text>
<text text-anchor="start" x="308.5" y="-404.5" font-family="Helvetica,sans-Serif" font-size="10.00">&lt; int, unsigned int,</text>
<text text-anchor="middle" x="370" y="-393.5" font-family="Helvetica,sans-Serif" font-size="10.00"> unsigned int &gt;, QObject * &gt;</text>
<polyline fill="none" stroke="#bfbfbf" points="300.5,-386.5 439.5,-386.5 "/>
<text text-anchor="middle" x="370" y="-374.5" font-family="Helvetica,sans-Serif" font-size="10.00"> </text>
<polyline fill="none" stroke="#bfbfbf" points="300.5,-367.5 439.5,-367.5 "/>
<text text-anchor="middle" x="370" y="-355.5" font-family="Helvetica,sans-Serif" font-size="10.00"> </text>
</g>
<!-- Node8&#45;&gt;Node1 -->
<g id="edge7" class="edge"><title>Node8&#45;&gt;Node1</title>
<path fill="none" stroke="#404040" d="M380.443,-348.279C384.103,-334.712 388.468,-318.525 393.114,-301.301"/>
<polygon fill="none" stroke="#404040" points="393.245,-300.816 390.945,-293.981 396.37,-289.23 398.669,-296.065 393.245,-300.816"/>
<text text-anchor="middle" x="425" y="-316.5" font-family="Helvetica,sans-Serif" font-size="10.00"> &#45;m_commutes</text>
</g>
<!-- Node9 -->
<g id="node9" class="node"><title>Node9</title>
<polygon fill="white" stroke="#bfbfbf" points="446.5,-504.5 446.5,-561.5 505.5,-561.5 505.5,-504.5 446.5,-504.5"/>
<text text-anchor="middle" x="476" y="-549.5" font-family="Helvetica,sans-Serif" font-size="10.00">QObject *</text>
<polyline fill="none" stroke="#bfbfbf" points="446.5,-542.5 505.5,-542.5 "/>
<text text-anchor="middle" x="476" y="-530.5" font-family="Helvetica,sans-Serif" font-size="10.00"> </text>
<polyline fill="none" stroke="#bfbfbf" points="446.5,-523.5 505.5,-523.5 "/>
<text text-anchor="middle" x="476" y="-511.5" font-family="Helvetica,sans-Serif" font-size="10.00"> </text>
</g>
<!-- Node9&#45;&gt;Node1 -->
<g id="edge13" class="edge"><title>Node9&#45;&gt;Node1</title>
<path fill="none" stroke="#404040" d="M475.185,-504.332C473.731,-461.95 470.052,-378.457 462,-308 461.75,-305.811 461.49,-303.607 461.222,-301.39"/>
<polygon fill="none" stroke="#404040" points="461.215,-301.337 456.494,-295.887 459.709,-289.432 464.43,-294.883 461.215,-301.337"/>
<text text-anchor="middle" x="491.5" y="-385.5" font-family="Helvetica,sans-Serif" font-size="10.00"> &#45;m_map</text>
</g>
<!-- Node9&#45;&gt;Node8 -->
<g id="edge8" class="edge"><title>Node9&#45;&gt;Node8</title>
<path fill="none" stroke="#404040" d="M446.286,-511.832C434.852,-503.027 422.317,-491.978 413,-480 403.434,-467.702 395.315,-452.932 388.796,-438.903"/>
<polygon fill="none" stroke="#404040" points="388.771,-438.845 382.685,-434.978 383.914,-427.872 390,-431.74 388.771,-438.845"/>
<text text-anchor="middle" x="437.5" y="-460.5" font-family="Helvetica,sans-Serif" font-size="10.00"> +elements</text>
</g>
<!-- Node17 -->
<g id="node17" class="node"><title>Node17</title>
<polygon fill="white" stroke="#bfbfbf" points="625.5,-354 625.5,-422 744.5,-422 744.5,-354 625.5,-354"/>
<text text-anchor="start" x="633.5" y="-410" font-family="Helvetica,sans-Serif" font-size="10.00">std::map&lt; std::tuple</text>
<text text-anchor="middle" x="685" y="-399" font-family="Helvetica,sans-Serif" font-size="10.00">&lt; int, int &gt;, QObject * &gt;</text>
<polyline fill="none" stroke="#bfbfbf" points="625.5,-392 744.5,-392 "/>
<text text-anchor="middle" x="685" y="-380" font-family="Helvetica,sans-Serif" font-size="10.00"> </text>
<polyline fill="none" stroke="#bfbfbf" points="625.5,-373 744.5,-373 "/>
<text text-anchor="middle" x="685" y="-361" font-family="Helvetica,sans-Serif" font-size="10.00"> </text>
</g>
<!-- Node9&#45;&gt;Node17 -->
<g id="edge21" class="edge"><title>Node9&#45;&gt;Node17</title>
<path fill="none" stroke="#404040" d="M480.284,-504.245C484.631,-485.28 493.226,-460.962 510,-446 533.01,-425.475 547.585,-437.244 577,-428 588.962,-424.241 601.566,-419.974 613.773,-415.677"/>
<polygon fill="none" stroke="#404040" points="614.018,-415.59 618.328,-409.808 625.323,-411.563 621.013,-417.345 614.018,-415.59"/>
<text text-anchor="middle" x="534.5" y="-460.5" font-family="Helvetica,sans-Serif" font-size="10.00"> +elements</text>
</g>
<!-- Node10 -->
<g id="node10" class="node"><title>Node10</title>
<polygon fill="white" stroke="#bfbfbf" points="307,-499 307,-567 409,-567 409,-499 307,-499"/>
<text text-anchor="start" x="315" y="-555" font-family="Helvetica,sans-Serif" font-size="10.00">tuple&lt; int, unsigned</text>
<text text-anchor="middle" x="358" y="-544" font-family="Helvetica,sans-Serif" font-size="10.00"> int, unsigned int &gt;</text>
<polyline fill="none" stroke="#bfbfbf" points="307,-537 409,-537 "/>
<text text-anchor="middle" x="358" y="-525" font-family="Helvetica,sans-Serif" font-size="10.00"> </text>
<polyline fill="none" stroke="#bfbfbf" points="307,-518 409,-518 "/>
<text text-anchor="middle" x="358" y="-506" font-family="Helvetica,sans-Serif" font-size="10.00"> </text>
</g>
<!-- Node10&#45;&gt;Node8 -->
<g id="edge9" class="edge"><title>Node10&#45;&gt;Node8</title>
<path fill="none" stroke="#404040" d="M357.004,-498.843C356.876,-482.838 357.236,-463.381 359,-446 359.206,-443.966 359.449,-441.897 359.721,-439.811"/>
<polygon fill="none" stroke="#404040" points="359.743,-439.666 356.692,-433.132 361.55,-427.803 364.601,-434.337 359.743,-439.666"/>
<text text-anchor="middle" x="374.5" y="-460.5" font-family="Helvetica,sans-Serif" font-size="10.00"> +keys</text>
</g>
<!-- Node11&#45;&gt;Node8 -->
<g id="edge10" class="edge"><title>Node11&#45;&gt;Node8</title>
<path fill="none" stroke="orange" d="M589.767,-496.171C585.665,-490.857 581.626,-485.363 578,-480 568.304,-465.659 573.134,-455.994 559,-446 520.341,-418.664 499.201,-442.093 454,-428 449.242,-426.516 444.404,-424.82 439.576,-422.985"/>
<polygon fill="orange" stroke="orange" points="587.266,-498.652 596.211,-504.329 592.759,-494.313 587.266,-498.652"/>
<text text-anchor="start" x="578" y="-471.5" font-family="Helvetica,sans-Serif" font-size="10.00"> &lt; std::tuple&lt; int,</text>
<text text-anchor="start" x="578" y="-460.5" font-family="Helvetica,sans-Serif" font-size="10.00"> unsigned int, unsigned</text>
<text text-anchor="middle" x="628.5" y="-449.5" font-family="Helvetica,sans-Serif" font-size="10.00"> int &gt;, QObject * &gt;</text>
</g>
<!-- Node11&#45;&gt;Node17 -->
<g id="edge22" class="edge"><title>Node11&#45;&gt;Node17</title>
<path fill="none" stroke="orange" d="M671.196,-497.051C675.896,-491.871 680.007,-486.173 683,-480 691.616,-462.225 692.295,-440.113 690.733,-422.136"/>
<polygon fill="orange" stroke="orange" points="668.567,-494.73 663.95,-504.266 673.506,-499.69 668.567,-494.73"/>
<text text-anchor="start" x="692" y="-466" font-family="Helvetica,sans-Serif" font-size="10.00"> &lt; std::tuple&lt; int,</text>
<text text-anchor="middle" x="732.5" y="-455" font-family="Helvetica,sans-Serif" font-size="10.00"> int &gt;, QObject * &gt;</text>
</g>
<!-- Node12 -->
<g id="node12" class="node"><title>Node12</title>
<polygon fill="white" stroke="#bfbfbf" points="742.5,-616.5 742.5,-673.5 771.5,-673.5 771.5,-616.5 742.5,-616.5"/>
<text text-anchor="middle" x="757" y="-661.5" font-family="Helvetica,sans-Serif" font-size="10.00">K</text>
<polyline fill="none" stroke="#bfbfbf" points="742.5,-654.5 771.5,-654.5 "/>
<text text-anchor="middle" x="757" y="-642.5" font-family="Helvetica,sans-Serif" font-size="10.00"> </text>
<polyline fill="none" stroke="#bfbfbf" points="742.5,-635.5 771.5,-635.5 "/>
<text text-anchor="middle" x="757" y="-623.5" font-family="Helvetica,sans-Serif" font-size="10.00"> </text>
</g>
<!-- Node12&#45;&gt;Node11 -->
<g id="edge11" class="edge"><title>Node12&#45;&gt;Node11</title>
<path fill="none" stroke="#404040" d="M742.339,-632.228C723.772,-617.321 690.951,-590.968 663.975,-569.309"/>
<polygon fill="none" stroke="#404040" points="663.696,-569.084 656.513,-568.447 654.339,-561.571 661.522,-562.209 663.696,-569.084"/>
<text text-anchor="middle" x="712.5" y="-589.5" font-family="Helvetica,sans-Serif" font-size="10.00"> +keys</text>
</g>
<!-- Node16 -->
<g id="node16" class="node"><title>Node16</title>
<g id="a_node16"><a xlink:title="STL class. ">
<polygon fill="white" stroke="#bfbfbf" points="858,-504.5 858,-561.5 932,-561.5 932,-504.5 858,-504.5"/>
<text text-anchor="middle" x="895" y="-549.5" font-family="Helvetica,sans-Serif" font-size="10.00">std::set&lt; K &gt;</text>
<polyline fill="none" stroke="#bfbfbf" points="858,-542.5 932,-542.5 "/>
<text text-anchor="middle" x="895" y="-530.5" font-family="Helvetica,sans-Serif" font-size="10.00"> </text>
<polyline fill="none" stroke="#bfbfbf" points="858,-523.5 932,-523.5 "/>
<text text-anchor="middle" x="895" y="-511.5" font-family="Helvetica,sans-Serif" font-size="10.00"> </text>
</a>
</g>
</g>
<!-- Node12&#45;&gt;Node16 -->
<g id="edge18" class="edge"><title>Node12&#45;&gt;Node16</title>
<path fill="none" stroke="#404040" d="M771.508,-632.436C790.121,-617.6 823.258,-591.186 850.523,-569.453"/>
<polygon fill="none" stroke="#404040" points="850.881,-569.168 853.079,-562.3 860.264,-561.688 858.066,-568.556 850.881,-569.168"/>
<text text-anchor="middle" x="841.5" y="-589.5" font-family="Helvetica,sans-Serif" font-size="10.00"> +keys</text>
</g>
<!-- Node13 -->
<g id="node13" class="node"><title>Node13</title>
<polygon fill="white" stroke="#bfbfbf" points="533.5,-359.5 533.5,-416.5 568.5,-416.5 568.5,-359.5 533.5,-359.5"/>
<text text-anchor="middle" x="551" y="-404.5" font-family="Helvetica,sans-Serif" font-size="10.00">bool</text>
<polyline fill="none" stroke="#bfbfbf" points="533.5,-397.5 568.5,-397.5 "/>
<text text-anchor="middle" x="551" y="-385.5" font-family="Helvetica,sans-Serif" font-size="10.00"> </text>
<polyline fill="none" stroke="#bfbfbf" points="533.5,-378.5 568.5,-378.5 "/>
<text text-anchor="middle" x="551" y="-366.5" font-family="Helvetica,sans-Serif" font-size="10.00"> </text>
</g>
<!-- Node13&#45;&gt;Node1 -->
<g id="edge14" class="edge"><title>Node13&#45;&gt;Node1</title>
<path fill="none" stroke="#404040" d="M537.693,-359.354C530.167,-343.718 520.093,-322.788 509.189,-300.134"/>
<polygon fill="none" stroke="#404040" points="509.157,-300.068 502.951,-296.397 503.953,-289.256 510.159,-292.927 509.157,-300.068"/>
<text text-anchor="middle" x="568.5" y="-316.5" font-family="Helvetica,sans-Serif" font-size="10.00"> &#45;m_showCommutes</text>
</g>
<!-- Node14 -->
<g id="node14" class="node"><title>Node14</title>
<polygon fill="white" stroke="#bfbfbf" points="837,-354 837,-422 931,-422 931,-354 837,-354"/>
<text text-anchor="start" x="845" y="-410" font-family="Helvetica,sans-Serif" font-size="10.00">std::set&lt; std::pair</text>
<text text-anchor="middle" x="884" y="-399" font-family="Helvetica,sans-Serif" font-size="10.00">&lt; int, int &gt; &gt;</text>
<polyline fill="none" stroke="#bfbfbf" points="837,-392 931,-392 "/>
<text text-anchor="middle" x="884" y="-380" font-family="Helvetica,sans-Serif" font-size="10.00"> </text>
<polyline fill="none" stroke="#bfbfbf" points="837,-373 931,-373 "/>
<text text-anchor="middle" x="884" y="-361" font-family="Helvetica,sans-Serif" font-size="10.00"> </text>
</g>
<!-- Node14&#45;&gt;Node1 -->
<g id="edge15" class="edge"><title>Node14&#45;&gt;Node1</title>
<path fill="none" stroke="#404040" d="M836.798,-361.664C765.037,-323.147 626.922,-249.014 532.869,-198.531"/>
<polygon fill="none" stroke="#404040" points="532.771,-198.478 525.593,-199.165 522.198,-192.803 529.376,-192.116 532.771,-198.478"/>
<text text-anchor="middle" x="811" y="-322" font-family="Helvetica,sans-Serif" font-size="10.00"> &#45;m_unselection</text>
<text text-anchor="middle" x="811" y="-311" font-family="Helvetica,sans-Serif" font-size="10.00">&#45;m_selection</text>
</g>
<!-- Node15 -->
<g id="node15" class="node"><title>Node15</title>
<polygon fill="white" stroke="#bfbfbf" points="970.5,-504.5 970.5,-561.5 1047.5,-561.5 1047.5,-504.5 970.5,-504.5"/>
<text text-anchor="middle" x="1009" y="-549.5" font-family="Helvetica,sans-Serif" font-size="10.00">pair&lt; int, int &gt;</text>
<polyline fill="none" stroke="#bfbfbf" points="970.5,-542.5 1047.5,-542.5 "/>
<text text-anchor="middle" x="1009" y="-530.5" font-family="Helvetica,sans-Serif" font-size="10.00"> </text>
<polyline fill="none" stroke="#bfbfbf" points="970.5,-523.5 1047.5,-523.5 "/>
<text text-anchor="middle" x="1009" y="-511.5" font-family="Helvetica,sans-Serif" font-size="10.00"> </text>
</g>
<!-- Node15&#45;&gt;Node14 -->
<g id="edge16" class="edge"><title>Node15&#45;&gt;Node14</title>
<path fill="none" stroke="#404040" d="M1007.53,-504.358C1005.3,-486.162 999.91,-462.707 987,-446 975.365,-430.943 958.569,-419.299 941.905,-410.577"/>
<polygon fill="none" stroke="#404040" points="941.81,-410.53 934.663,-411.489 931.029,-405.26 938.176,-404.302 941.81,-410.53"/>
<text text-anchor="middle" x="1018.5" y="-460.5" font-family="Helvetica,sans-Serif" font-size="10.00"> +keys</text>
</g>
<!-- Node16&#45;&gt;Node14 -->
<g id="edge17" class="edge"><title>Node16&#45;&gt;Node14</title>
<path fill="none" stroke="orange" d="M886.905,-494.144C886.131,-489.401 885.464,-484.601 885,-480 883.082,-460.979 882.754,-439.609 882.941,-422.36"/>
<polygon fill="orange" stroke="orange" points="883.522,-495.112 888.729,-504.339 890.413,-493.879 883.522,-495.112"/>
<text text-anchor="middle" x="936" y="-460.5" font-family="Helvetica,sans-Serif" font-size="10.00"> &lt; std::pair&lt; int, int &gt; &gt;</text>
</g>
<!-- Node17&#45;&gt;Node1 -->
<g id="edge19" class="edge"><title>Node17&#45;&gt;Node1</title>
<path fill="none" stroke="#404040" d="M658.626,-353.794C646.676,-339.313 632.09,-322.393 618,-308 590.947,-280.367 559.963,-251.878 531.276,-226.644"/>
<polygon fill="none" stroke="#404040" points="531.081,-226.473 523.931,-225.532 522.05,-218.57 529.2,-219.511 531.081,-226.473"/>
<text text-anchor="middle" x="665.5" y="-316.5" font-family="Helvetica,sans-Serif" font-size="10.00"> &#45;m_markers</text>
</g>
<!-- Node18 -->
<g id="node18" class="node"><title>Node18</title>
<polygon fill="white" stroke="#bfbfbf" points="756.5,-504.5 756.5,-561.5 839.5,-561.5 839.5,-504.5 756.5,-504.5"/>
<text text-anchor="middle" x="798" y="-549.5" font-family="Helvetica,sans-Serif" font-size="10.00">tuple&lt; int, int &gt;</text>
<polyline fill="none" stroke="#bfbfbf" points="756.5,-542.5 839.5,-542.5 "/>
<text text-anchor="middle" x="798" y="-530.5" font-family="Helvetica,sans-Serif" font-size="10.00"> </text>
<polyline fill="none" stroke="#bfbfbf" points="756.5,-523.5 839.5,-523.5 "/>
<text text-anchor="middle" x="798" y="-511.5" font-family="Helvetica,sans-Serif" font-size="10.00"> </text>
</g>
<!-- Node18&#45;&gt;Node17 -->
<g id="edge20" class="edge"><title>Node18&#45;&gt;Node17</title>
<path fill="none" stroke="#404040" d="M796.576,-504.177C794.437,-486.131 789.277,-462.916 777,-446 770.826,-437.493 762.956,-429.981 754.427,-423.437"/>
<polygon fill="none" stroke="#404040" points="754.366,-423.394 747.158,-423.19 744.573,-416.458 751.781,-416.662 754.366,-423.394"/>
<text text-anchor="middle" x="807.5" y="-460.5" font-family="Helvetica,sans-Serif" font-size="10.00"> +keys</text>
</g>
</g>
</svg>
