<?xml version="1.0" encoding="UTF-8" standalone="no"?>
<!DOCTYPE svg PUBLIC "-//W3C//DTD SVG 1.1//EN"
 "http://www.w3.org/Graphics/SVG/1.1/DTD/svg11.dtd">
<!-- Generated by graphviz version 2.36.0 (20140111.2315)
 -->
<!-- Title: CalibrationRunner.h Pages: 1 -->
<svg width="473pt" height="140pt"
 viewBox="0.00 0.00 473.00 140.00" xmlns="http://www.w3.org/2000/svg" xmlns:xlink="http://www.w3.org/1999/xlink">
<g id="graph0" class="graph" transform="scale(1 1) rotate(0) translate(4 136)">
<title>CalibrationRunner.h</title>
<polygon fill="white" stroke="none" points="-4,4 -4,-136 469,-136 469,4 -4,4"/>
<!-- Node1 -->
<g id="node1" class="node"><title>Node1</title>
<polygon fill="#bfbfbf" stroke="black" points="152.5,-112.5 152.5,-131.5 255.5,-131.5 255.5,-112.5 152.5,-112.5"/>
<text text-anchor="middle" x="204" y="-119.5" font-family="Helvetica,sans-Serif" font-size="10.00">CalibrationRunner.h</text>
</g>
<!-- Node2 -->
<g id="node2" class="node"><title>Node2</title>
<g id="a_node2"><a xlink:href="../../d7/da0/a00198.html" target="_top" xlink:title="CalibrationRunner.cpp">
<polygon fill="white" stroke="black" points="-0.5,-56.5 -0.5,-75.5 112.5,-75.5 112.5,-56.5 -0.5,-56.5"/>
<text text-anchor="middle" x="56" y="-63.5" font-family="Helvetica,sans-Serif" font-size="10.00">CalibrationRunner.cpp</text>
</a>
</g>
</g>
<!-- Node1&#45;&gt;Node2 -->
<g id="edge1" class="edge"><title>Node1&#45;&gt;Node2</title>
<path fill="none" stroke="midnightblue" d="M170.853,-108.906C143.028,-98.7536 103.98,-84.5063 79.3413,-75.5164"/>
<polygon fill="midnightblue" stroke="midnightblue" points="169.955,-112.304 180.549,-112.444 172.354,-105.728 169.955,-112.304"/>
</g>
<!-- Node3 -->
<g id="node3" class="node"><title>Node3</title>
<g id="a_node3"><a xlink:href="../../d9/d01/a00227.html" target="_top" xlink:title="ConfigFileCalibrationRunner.h">
<polygon fill="white" stroke="black" points="130.5,-56.5 130.5,-75.5 277.5,-75.5 277.5,-56.5 130.5,-56.5"/>
<text text-anchor="middle" x="204" y="-63.5" font-family="Helvetica,sans-Serif" font-size="10.00">ConfigFileCalibrationRunner.h</text>
</a>
</g>
</g>
<!-- Node1&#45;&gt;Node3 -->
<g id="edge2" class="edge"><title>Node1&#45;&gt;Node3</title>
<path fill="none" stroke="midnightblue" d="M204,-101.805C204,-92.9102 204,-82.7798 204,-75.7511"/>
<polygon fill="midnightblue" stroke="midnightblue" points="200.5,-102.083 204,-112.083 207.5,-102.083 200.5,-102.083"/>
</g>
<!-- Node6 -->
<g id="node6" class="node"><title>Node6</title>
<g id="a_node6"><a xlink:href="../../db/d4f/a00420.html" target="_top" xlink:title="TestCalibrationRunner.h">
<polygon fill="white" stroke="black" points="296,-56.5 296,-75.5 418,-75.5 418,-56.5 296,-56.5"/>
<text text-anchor="middle" x="357" y="-63.5" font-family="Helvetica,sans-Serif" font-size="10.00">TestCalibrationRunner.h</text>
</a>
</g>
</g>
<!-- Node1&#45;&gt;Node6 -->
<g id="edge5" class="edge"><title>Node1&#45;&gt;Node6</title>
<path fill="none" stroke="midnightblue" d="M237.889,-109.039C266.677,-98.8786 307.287,-84.5457 332.87,-75.5164"/>
<polygon fill="midnightblue" stroke="midnightblue" points="236.508,-105.815 228.243,-112.444 238.838,-112.416 236.508,-105.815"/>
</g>
<!-- Node4 -->
<g id="node4" class="node"><title>Node4</title>
<g id="a_node4"><a xlink:href="../../dc/d55/a00226.html" target="_top" xlink:title="ConfigFileCalibrationRunner.cpp">
<polygon fill="white" stroke="black" points="82,-0.5 82,-19.5 240,-19.5 240,-0.5 82,-0.5"/>
<text text-anchor="middle" x="161" y="-7.5" font-family="Helvetica,sans-Serif" font-size="10.00">ConfigFileCalibrationRunner.cpp</text>
</a>
</g>
</g>
<!-- Node3&#45;&gt;Node4 -->
<g id="edge3" class="edge"><title>Node3&#45;&gt;Node4</title>
<path fill="none" stroke="midnightblue" d="M190.578,-48.144C183.086,-38.7357 174.063,-27.4046 167.968,-19.7511"/>
<polygon fill="midnightblue" stroke="midnightblue" points="187.932,-50.4404 196.899,-56.083 193.408,-46.0799 187.932,-50.4404"/>
</g>
<!-- Node5 -->
<g id="node5" class="node"><title>Node5</title>
<g id="a_node5"><a xlink:href="../../d1/dc6/a00347.html" target="_top" xlink:title="main.cpp">
<polygon fill="white" stroke="black" points="258,-0.5 258,-19.5 314,-19.5 314,-0.5 258,-0.5"/>
<text text-anchor="middle" x="286" y="-7.5" font-family="Helvetica,sans-Serif" font-size="10.00">main.cpp</text>
</a>
</g>
</g>
<!-- Node3&#45;&gt;Node5 -->
<g id="edge4" class="edge"><title>Node3&#45;&gt;Node5</title>
<path fill="none" stroke="midnightblue" d="M225.833,-50.6221C240.813,-40.7574 260.197,-27.9919 272.858,-19.6545"/>
<polygon fill="midnightblue" stroke="midnightblue" points="223.601,-47.9009 217.175,-56.324 227.451,-53.7471 223.601,-47.9009"/>
</g>
<!-- Node6&#45;&gt;Node5 -->
<g id="edge6" class="edge"><title>Node6&#45;&gt;Node5</title>
<path fill="none" stroke="midnightblue" d="M337.41,-50.1008C324.632,-40.3824 308.387,-28.0269 297.615,-19.8339"/>
<polygon fill="midnightblue" stroke="midnightblue" points="335.514,-53.0561 345.593,-56.324 339.752,-47.4844 335.514,-53.0561"/>
</g>
<!-- Node7 -->
<g id="node7" class="node"><title>Node7</title>
<g id="a_node7"><a xlink:href="../../d3/d29/a00419.html" target="_top" xlink:title="TestCalibrationRunner.cpp">
<polygon fill="white" stroke="black" points="332.5,-0.5 332.5,-19.5 465.5,-19.5 465.5,-0.5 332.5,-0.5"/>
<text text-anchor="middle" x="399" y="-7.5" font-family="Helvetica,sans-Serif" font-size="10.00">TestCalibrationRunner.cpp</text>
</a>
</g>
</g>
<!-- Node6&#45;&gt;Node7 -->
<g id="edge7" class="edge"><title>Node6&#45;&gt;Node7</title>
<path fill="none" stroke="midnightblue" d="M370.11,-48.144C377.428,-38.7357 386.241,-27.4046 392.194,-19.7511"/>
<polygon fill="midnightblue" stroke="midnightblue" points="367.312,-46.0406 363.935,-56.083 372.838,-50.3383 367.312,-46.0406"/>
</g>
</g>
</svg>
