<?xml version="1.0" encoding="UTF-8" standalone="no"?>
<!DOCTYPE svg PUBLIC "-//W3C//DTD SVG 1.1//EN"
 "http://www.w3.org/Graphics/SVG/1.1/DTD/svg11.dtd">
<!-- Generated by graphviz version 2.36.0 (20140111.2315)
 -->
<!-- Title: CSVRow.cpp Pages: 1 -->
<!--zoomable 252 -->
<svg id="main" version="1.1" xmlns="http://www.w3.org/2000/svg" xmlns:xlink="http://www.w3.org/1999/xlink" xml:space="preserve" onload="init(evt)">
<style type="text/css"><![CDATA[
.edge:hover path { stroke: red; }
.edge:hover polygon { stroke: red; fill: red; }
]]></style>
<script type="text/javascript"><![CDATA[
var edges = document.getElementsByTagName('g');
if (edges && edges.length) {
  for (var i=0;i<edges.length;i++) {
    if (edges[i].id.substr(0,4)=='edge') {
      edges[i].setAttribute('class','edge');
    }
  }
}
]]></script>
        <defs>
                <circle id="rim" cx="0" cy="0" r="7"/>
                <circle id="rim2" cx="0" cy="0" r="3.5"/>
                <g id="zoomPlus">
                        <use xlink:href="#rim" fill="#404040">
                                <set attributeName="fill" to="#808080" begin="zoomplus.mouseover" end="zoomplus.mouseout"/>
                        </use>
                        <path d="M-4,0h8M0,-4v8" fill="none" stroke="white" stroke-width="1.5" pointer-events="none"/>
                </g>
                <g id="zoomMin">
                        <use xlink:href="#rim" fill="#404040">
                                <set attributeName="fill" to="#808080" begin="zoomminus.mouseover" end="zoomminus.mouseout"/>
                        </use>
                        <path d="M-4,0h8" fill="none" stroke="white" stroke-width="1.5" pointer-events="none"/>
                </g>
                <g id="dirArrow">
                        <path fill="none" stroke="white" stroke-width="1.5" d="M0,-3.0v7 M-2.5,-0.5L0,-3.0L2.5,-0.5"/>
                </g>
               <g id="resetDef">
                       <use xlink:href="#rim2" fill="#404040">
                               <set attributeName="fill" to="#808080" begin="reset.mouseover" end="reset.mouseout"/>
                       </use>
               </g>
        </defs>

<script type="text/javascript">
var viewWidth = 1063;
var viewHeight = 252;
var sectionId = 'dynsection-0';
</script>
<script xlink:href="../../svgpan.js"/>
<svg id="graph" class="graph">
<g id="viewport">
<title>CSVRow.cpp</title>
<polygon fill="white" stroke="none" points="-4,4 -4,-248 1059,-248 1059,4 -4,4"/>
<!-- Node1 -->
<g id="node1" class="node"><title>Node1</title>
<polygon fill="#bfbfbf" stroke="black" points="643.5,-224.5 643.5,-243.5 720.5,-243.5 720.5,-224.5 643.5,-224.5"/>
<text text-anchor="middle" x="682" y="-231.5" font-family="Helvetica,sans-Serif" font-size="10.00">CSVRow.cpp</text>
</g>
<!-- Node2 -->
<g id="node2" class="node"><title>Node2</title>
<g id="a_node2"><a xlink:href="../../d7/d03/a00254.html" target="_top" xlink:title="Header file of base class for config that needs to be read from a file. ">
<polygon fill="white" stroke="black" points="568,-112.5 568,-131.5 634,-131.5 634,-112.5 568,-112.5"/>
<text text-anchor="middle" x="601" y="-119.5" font-family="Helvetica,sans-Serif" font-size="10.00">CSVRow.h</text>
</a>
</g>
</g>
<!-- Node1&#45;&gt;Node2 -->
<g id="edge1" class="edge"><title>Node1&#45;&gt;Node2</title>
<path fill="none" stroke="midnightblue" d="M675.644,-224.368C662.218,-206.135 630.768,-163.426 613.279,-139.675"/>
<polygon fill="midnightblue" stroke="midnightblue" points="616.074,-137.568 607.326,-131.591 610.438,-141.719 616.074,-137.568"/>
</g>
<!-- Node15 -->
<g id="node15" class="node"><title>Node15</title>
<g id="a_node15"><a xlink:href="../../dc/ded/a00252.html" target="_top" xlink:title="Header file of base class for config that needs to be read from a file. ">
<polygon fill="white" stroke="black" points="687,-168.5 687,-187.5 733,-187.5 733,-168.5 687,-168.5"/>
<text text-anchor="middle" x="710" y="-175.5" font-family="Helvetica,sans-Serif" font-size="10.00">CSV.h</text>
</a>
</g>
</g>
<!-- Node1&#45;&gt;Node15 -->
<g id="edge15" class="edge"><title>Node1&#45;&gt;Node15</title>
<path fill="none" stroke="midnightblue" d="M686.624,-224.083C690.456,-216.691 696.024,-205.953 700.765,-196.811"/>
<polygon fill="midnightblue" stroke="midnightblue" points="703.966,-198.24 705.462,-187.751 697.752,-195.018 703.966,-198.24"/>
</g>
<!-- Node3 -->
<g id="node3" class="node"><title>Node3</title>
<g id="a_node3"><a xlink:href="../../d4/dbc/a00414.html" target="_top" xlink:title="Miscellaneous string utilities. ">
<polygon fill="white" stroke="black" points="301,-56.5 301,-75.5 387,-75.5 387,-56.5 301,-56.5"/>
<text text-anchor="middle" x="344" y="-63.5" font-family="Helvetica,sans-Serif" font-size="10.00">util/StringUtils.h</text>
</a>
</g>
</g>
<!-- Node2&#45;&gt;Node3 -->
<g id="edge2" class="edge"><title>Node2&#45;&gt;Node3</title>
<path fill="none" stroke="midnightblue" d="M567.928,-114.051C523.953,-104.811 445.818,-88.3936 394.458,-77.602"/>
<polygon fill="midnightblue" stroke="midnightblue" points="395.067,-74.1536 384.561,-75.5225 393.627,-81.004 395.067,-74.1536"/>
</g>
<!-- Node8 -->
<g id="node8" class="node"><title>Node8</title>
<polygon fill="white" stroke="#bfbfbf" points="483,-0.5 483,-19.5 537,-19.5 537,-0.5 483,-0.5"/>
<text text-anchor="middle" x="510" y="-7.5" font-family="Helvetica,sans-Serif" font-size="10.00">iostream</text>
</g>
<!-- Node2&#45;&gt;Node8 -->
<g id="edge13" class="edge"><title>Node2&#45;&gt;Node8</title>
<path fill="none" stroke="midnightblue" d="M567.723,-116.815C523.808,-110.531 450.162,-97.094 434,-76 417.659,-54.6724 448.847,-35.3773 476.072,-23.4511"/>
<polygon fill="midnightblue" stroke="midnightblue" points="477.564,-26.6213 485.453,-19.5487 474.875,-20.1583 477.564,-26.6213"/>
</g>
<!-- Node12 -->
<g id="node12" class="node"><title>Node12</title>
<polygon fill="white" stroke="#bfbfbf" points="645.5,-56.5 645.5,-75.5 774.5,-75.5 774.5,-56.5 645.5,-56.5"/>
<text text-anchor="middle" x="710" y="-63.5" font-family="Helvetica,sans-Serif" font-size="10.00">boost/filesystem/path.hpp</text>
</g>
<!-- Node2&#45;&gt;Node12 -->
<g id="edge11" class="edge"><title>Node2&#45;&gt;Node12</title>
<path fill="none" stroke="midnightblue" d="M618.513,-112.324C636.072,-103.625 663.331,-90.1202 683.531,-80.113"/>
<polygon fill="midnightblue" stroke="midnightblue" points="685.124,-83.23 692.531,-75.6545 682.016,-76.9575 685.124,-83.23"/>
</g>
<!-- Node13 -->
<g id="node13" class="node"><title>Node13</title>
<polygon fill="white" stroke="#bfbfbf" points="443,-56.5 443,-75.5 557,-75.5 557,-56.5 443,-56.5"/>
<text text-anchor="middle" x="500" y="-63.5" font-family="Helvetica,sans-Serif" font-size="10.00">boost/lexical_cast.hpp</text>
</g>
<!-- Node2&#45;&gt;Node13 -->
<g id="edge12" class="edge"><title>Node2&#45;&gt;Node13</title>
<path fill="none" stroke="midnightblue" d="M584.773,-112.324C568.649,-103.703 543.7,-90.3643 525.036,-80.3855"/>
<polygon fill="midnightblue" stroke="midnightblue" points="526.656,-77.283 516.187,-75.6545 523.356,-83.456 526.656,-77.283"/>
</g>
<!-- Node14 -->
<g id="node14" class="node"><title>Node14</title>
<polygon fill="white" stroke="#bfbfbf" points="575,-56.5 575,-75.5 627,-75.5 627,-56.5 575,-56.5"/>
<text text-anchor="middle" x="601" y="-63.5" font-family="Helvetica,sans-Serif" font-size="10.00">ostream</text>
</g>
<!-- Node2&#45;&gt;Node14 -->
<g id="edge14" class="edge"><title>Node2&#45;&gt;Node14</title>
<path fill="none" stroke="midnightblue" d="M601,-112.083C601,-105.006 601,-94.8611 601,-85.9865"/>
<polygon fill="midnightblue" stroke="midnightblue" points="604.5,-85.751 601,-75.7511 597.5,-85.7511 604.5,-85.751"/>
</g>
<!-- Node4 -->
<g id="node4" class="node"><title>Node4</title>
<polygon fill="white" stroke="#bfbfbf" points="-0.5,-0.5 -0.5,-19.5 128.5,-19.5 128.5,-0.5 -0.5,-0.5"/>
<text text-anchor="middle" x="64" y="-7.5" font-family="Helvetica,sans-Serif" font-size="10.00">boost/algorithm/string.hpp</text>
</g>
<!-- Node3&#45;&gt;Node4 -->
<g id="edge3" class="edge"><title>Node3&#45;&gt;Node4</title>
<path fill="none" stroke="midnightblue" d="M300.864,-56.6808C251.72,-47.2032 171.345,-31.7022 118.059,-21.4257"/>
<polygon fill="midnightblue" stroke="midnightblue" points="118.592,-17.964 108.11,-19.5069 117.266,-24.8373 118.592,-17.964"/>
</g>
<!-- Node5 -->
<g id="node5" class="node"><title>Node5</title>
<polygon fill="white" stroke="#bfbfbf" points="147,-0.5 147,-19.5 203,-19.5 203,-0.5 147,-0.5"/>
<text text-anchor="middle" x="175" y="-7.5" font-family="Helvetica,sans-Serif" font-size="10.00">algorithm</text>
</g>
<!-- Node3&#45;&gt;Node5 -->
<g id="edge4" class="edge"><title>Node3&#45;&gt;Node5</title>
<path fill="none" stroke="midnightblue" d="M317.221,-56.4435C288.667,-47.3196 243.267,-32.8133 211.463,-22.6509"/>
<polygon fill="midnightblue" stroke="midnightblue" points="212.244,-19.2262 201.653,-19.5164 210.114,-25.8941 212.244,-19.2262"/>
</g>
<!-- Node6 -->
<g id="node6" class="node"><title>Node6</title>
<polygon fill="white" stroke="#bfbfbf" points="221,-0.5 221,-19.5 267,-19.5 267,-0.5 221,-0.5"/>
<text text-anchor="middle" x="244" y="-7.5" font-family="Helvetica,sans-Serif" font-size="10.00">cctype</text>
</g>
<!-- Node3&#45;&gt;Node6 -->
<g id="edge5" class="edge"><title>Node3&#45;&gt;Node6</title>
<path fill="none" stroke="midnightblue" d="M327.933,-56.324C312.042,-47.7428 287.493,-34.486 269.042,-24.5224"/>
<polygon fill="midnightblue" stroke="midnightblue" points="270.489,-21.3264 260.027,-19.6545 267.163,-27.4857 270.489,-21.3264"/>
</g>
<!-- Node7 -->
<g id="node7" class="node"><title>Node7</title>
<polygon fill="white" stroke="#bfbfbf" points="285,-0.5 285,-19.5 335,-19.5 335,-0.5 285,-0.5"/>
<text text-anchor="middle" x="310" y="-7.5" font-family="Helvetica,sans-Serif" font-size="10.00">iomanip</text>
</g>
<!-- Node3&#45;&gt;Node7 -->
<g id="edge6" class="edge"><title>Node3&#45;&gt;Node7</title>
<path fill="none" stroke="midnightblue" d="M338.386,-56.083C333.633,-48.5341 326.682,-37.4948 320.848,-28.2298"/>
<polygon fill="midnightblue" stroke="midnightblue" points="323.8,-26.3486 315.51,-19.7511 317.876,-30.0783 323.8,-26.3486"/>
</g>
<!-- Node3&#45;&gt;Node8 -->
<g id="edge7" class="edge"><title>Node3&#45;&gt;Node8</title>
<path fill="none" stroke="midnightblue" d="M370.303,-56.4435C398.351,-47.3196 442.944,-32.8133 474.184,-22.6509"/>
<polygon fill="midnightblue" stroke="midnightblue" points="475.393,-25.9383 483.82,-19.5164 473.228,-19.2816 475.393,-25.9383"/>
</g>
<!-- Node9 -->
<g id="node9" class="node"><title>Node9</title>
<polygon fill="white" stroke="#bfbfbf" points="353,-0.5 353,-19.5 405,-19.5 405,-0.5 353,-0.5"/>
<text text-anchor="middle" x="379" y="-7.5" font-family="Helvetica,sans-Serif" font-size="10.00">sstream</text>
</g>
<!-- Node3&#45;&gt;Node9 -->
<g id="edge8" class="edge"><title>Node3&#45;&gt;Node9</title>
<path fill="none" stroke="midnightblue" d="M349.78,-56.083C354.672,-48.5341 361.827,-37.4948 367.833,-28.2298"/>
<polygon fill="midnightblue" stroke="midnightblue" points="370.826,-30.0463 373.328,-19.7511 364.952,-26.239 370.826,-30.0463"/>
</g>
<!-- Node10 -->
<g id="node10" class="node"><title>Node10</title>
<polygon fill="white" stroke="#bfbfbf" points="423.5,-0.5 423.5,-19.5 464.5,-19.5 464.5,-0.5 423.5,-0.5"/>
<text text-anchor="middle" x="444" y="-7.5" font-family="Helvetica,sans-Serif" font-size="10.00">string</text>
</g>
<!-- Node3&#45;&gt;Node10 -->
<g id="edge9" class="edge"><title>Node3&#45;&gt;Node10</title>
<path fill="none" stroke="midnightblue" d="M360.067,-56.324C375.958,-47.7428 400.507,-34.486 418.958,-24.5224"/>
<polygon fill="midnightblue" stroke="midnightblue" points="420.837,-27.4857 427.973,-19.6545 417.511,-21.3264 420.837,-27.4857"/>
</g>
<!-- Node11 -->
<g id="node11" class="node"><title>Node11</title>
<polygon fill="white" stroke="#bfbfbf" points="651,-0.5 651,-19.5 695,-19.5 695,-0.5 651,-0.5"/>
<text text-anchor="middle" x="673" y="-7.5" font-family="Helvetica,sans-Serif" font-size="10.00">vector</text>
</g>
<!-- Node3&#45;&gt;Node11 -->
<g id="edge10" class="edge"><title>Node3&#45;&gt;Node11</title>
<path fill="none" stroke="midnightblue" d="M387.011,-57.9404C453.886,-46.9639 581.287,-26.0532 640.831,-16.2801"/>
<polygon fill="midnightblue" stroke="midnightblue" points="641.493,-19.7183 650.794,-14.6447 640.359,-12.8107 641.493,-19.7183"/>
</g>
<!-- Node15&#45;&gt;Node2 -->
<g id="edge16" class="edge"><title>Node15&#45;&gt;Node2</title>
<path fill="none" stroke="midnightblue" d="M692.487,-168.324C674.928,-159.625 647.669,-146.12 627.469,-136.113"/>
<polygon fill="midnightblue" stroke="midnightblue" points="628.984,-132.958 618.469,-131.655 625.876,-139.23 628.984,-132.958"/>
</g>
<!-- Node15&#45;&gt;Node3 -->
<g id="edge17" class="edge"><title>Node15&#45;&gt;Node3</title>
<path fill="none" stroke="midnightblue" d="M686.968,-170.167C657.35,-161.373 604.326,-145.605 559,-132 496.935,-113.37 424.852,-91.5375 381.909,-78.5103"/>
<polygon fill="midnightblue" stroke="midnightblue" points="382.748,-75.1075 372.163,-75.5531 380.716,-81.806 382.748,-75.1075"/>
</g>
<!-- Node15&#45;&gt;Node11 -->
<g id="edge21" class="edge"><title>Node15&#45;&gt;Node11</title>
<path fill="none" stroke="midnightblue" d="M722.467,-168.314C749.808,-148.185 810.487,-96.9423 783,-56 765.816,-30.404 731.22,-19.3571 705.39,-14.5953"/>
<polygon fill="midnightblue" stroke="midnightblue" points="705.712,-11.102 695.282,-12.9634 704.596,-18.0125 705.712,-11.102"/>
</g>
<!-- Node15&#45;&gt;Node12 -->
<g id="edge19" class="edge"><title>Node15&#45;&gt;Node12</title>
<path fill="none" stroke="midnightblue" d="M710,-168.368C710,-150.617 710,-109.666 710,-85.5974"/>
<polygon fill="midnightblue" stroke="midnightblue" points="713.5,-85.5914 710,-75.5914 706.5,-85.5915 713.5,-85.5914"/>
</g>
<!-- Node16 -->
<g id="node16" class="node"><title>Node16</title>
<polygon fill="white" stroke="#bfbfbf" points="831.5,-112.5 831.5,-131.5 986.5,-131.5 986.5,-112.5 831.5,-112.5"/>
<text text-anchor="middle" x="909" y="-119.5" font-family="Helvetica,sans-Serif" font-size="10.00">boost/filesystem/operations.hpp</text>
</g>
<!-- Node15&#45;&gt;Node16 -->
<g id="edge18" class="edge"><title>Node15&#45;&gt;Node16</title>
<path fill="none" stroke="midnightblue" d="M733.217,-170.7C766.109,-161.774 826.796,-145.307 867.532,-134.253"/>
<polygon fill="midnightblue" stroke="midnightblue" points="868.696,-137.563 877.43,-131.567 866.862,-130.808 868.696,-137.563"/>
</g>
<!-- Node17 -->
<g id="node17" class="node"><title>Node17</title>
<polygon fill="white" stroke="#bfbfbf" points="1005,-112.5 1005,-131.5 1055,-131.5 1055,-112.5 1005,-112.5"/>
<text text-anchor="middle" x="1030" y="-119.5" font-family="Helvetica,sans-Serif" font-size="10.00">fstream</text>
</g>
<!-- Node15&#45;&gt;Node17 -->
<g id="edge20" class="edge"><title>Node15&#45;&gt;Node17</title>
<path fill="none" stroke="midnightblue" d="M733.038,-174.119C781.688,-167.869 898.368,-152.006 995,-132 995.1,-131.979 995.2,-131.959 995.3,-131.938"/>
<polygon fill="midnightblue" stroke="midnightblue" points="995.853,-135.401 1004.83,-129.777 994.305,-128.574 995.853,-135.401"/>
</g>
</g>
</svg>
        <g id="navigator" transform="translate(0 0)" fill="#404254">
                <rect fill="#f2f5e9" fill-opacity="0.5" stroke="#606060" stroke-width=".5" x="0" y="0" width="60" height="60"/>
                <use id="zoomplus" xlink:href="#zoomPlus" x="17" y="9" onmousedown="handleZoom(evt,'in')"/>
                <use id="zoomminus" xlink:href="#zoomMin" x="42" y="9" onmousedown="handleZoom(evt,'out')"/>
                <use id="reset" xlink:href="#resetDef" x="30" y="36" onmousedown="handleReset()"/>
                <g id="arrowUp" xlink:href="#dirArrow" transform="translate(30 24)" onmousedown="handlePan(0,-1)">
                  <use xlink:href="#rim" fill="#404040">
                        <set attributeName="fill" to="#808080" begin="arrowUp.mouseover" end="arrowUp.mouseout"/>
                  </use>
                  <path fill="none" stroke="white" stroke-width="1.5" d="M0,-3.0v7 M-2.5,-0.5L0,-3.0L2.5,-0.5"/>
                </g>
                <g id="arrowRight" xlink:href="#dirArrow" transform="rotate(90) translate(36 -43)" onmousedown="handlePan(1,0)">
                  <use xlink:href="#rim" fill="#404040">
                        <set attributeName="fill" to="#808080" begin="arrowRight.mouseover" end="arrowRight.mouseout"/>
                  </use>
                  <path fill="none" stroke="white" stroke-width="1.5" d="M0,-3.0v7 M-2.5,-0.5L0,-3.0L2.5,-0.5"/>
                </g>
                <g id="arrowDown" xlink:href="#dirArrow" transform="rotate(180) translate(-30 -48)" onmousedown="handlePan(0,1)">
                  <use xlink:href="#rim" fill="#404040">
                        <set attributeName="fill" to="#808080" begin="arrowDown.mouseover" end="arrowDown.mouseout"/>
                  </use>
                  <path fill="none" stroke="white" stroke-width="1.5" d="M0,-3.0v7 M-2.5,-0.5L0,-3.0L2.5,-0.5"/>
                </g>
                <g id="arrowLeft" xlink:href="#dirArrow" transform="rotate(270) translate(-36 17)" onmousedown="handlePan(-1,0)">
                  <use xlink:href="#rim" fill="#404040">
                        <set attributeName="fill" to="#808080" begin="arrowLeft.mouseover" end="arrowLeft.mouseout"/>
                  </use>
                  <path fill="none" stroke="white" stroke-width="1.5" d="M0,-3.0v7 M-2.5,-0.5L0,-3.0L2.5,-0.5"/>
                </g>
        </g>
        <svg viewBox="0 0 15 15" width="100%" height="30px" preserveAspectRatio="xMaxYMin meet">
         <g id="arrow_out" transform="scale(0.3 0.3)">
          <a xlink:href="a00606_org.svg" target="_base">
           <rect id="button" ry="5" rx="5" y="6" x="6" height="38" width="38"
                fill="#f2f5e9" fill-opacity="0.5" stroke="#606060" stroke-width="1.0"/>
           <path id="arrow"
             d="M 11.500037,31.436501 C 11.940474,20.09759 22.043105,11.32322 32.158766,21.979434 L 37.068811,17.246167 C 37.068811,17.246167 37.088388,32 37.088388,32 L 22.160133,31.978069 C 22.160133,31.978069 26.997745,27.140456 26.997745,27.140456 C 18.528582,18.264221 13.291696,25.230495 11.500037,31.436501 z"
             style="fill:#404040;"/>
          </a>
         </g>
        </svg>
</svg>
