<?xml version="1.0" encoding="UTF-8" standalone="no"?>
<!DOCTYPE svg PUBLIC "-//W3C//DTD SVG 1.1//EN"
 "http://www.w3.org/Graphics/SVG/1.1/DTD/svg11.dtd">
<!-- Generated by graphviz version 2.36.0 (20140111.2315)
 -->
<!-- Title: gengeopop::CommutesCSVReader Pages: 1 -->
<svg width="178pt" height="238pt"
 viewBox="0.00 0.00 178.00 238.00" xmlns="http://www.w3.org/2000/svg" xmlns:xlink="http://www.w3.org/1999/xlink">
<g id="graph0" class="graph" transform="scale(1 1) rotate(0) translate(4 234)">
<title>gengeopop::CommutesCSVReader</title>
<polygon fill="white" stroke="none" points="-4,4 -4,-234 174,-234 174,4 -4,4"/>
<!-- Node1 -->
<g id="node1" class="node"><title>Node1</title>
<polygon fill="#bfbfbf" stroke="black" points="0,-1 0,-113 170,-113 170,-1 0,-1"/>
<text text-anchor="middle" x="85" y="-101" font-family="Helvetica,sans-Serif" font-size="10.00">gengeopop::CommutesCSVReader</text>
<polyline fill="none" stroke="black" points="0,-94 170,-94 "/>
<text text-anchor="start" x="8" y="-82" font-family="Helvetica,sans-Serif" font-size="10.00">&#45; m_reader</text>
<polyline fill="none" stroke="black" points="0,-75 170,-75 "/>
<text text-anchor="start" x="8" y="-63" font-family="Helvetica,sans-Serif" font-size="10.00">+ CommutesCSVReader()</text>
<text text-anchor="start" x="8" y="-52" font-family="Helvetica,sans-Serif" font-size="10.00">+ FillGeoGrid()</text>
<text text-anchor="start" x="8" y="-41" font-family="Helvetica,sans-Serif" font-size="10.00">&#45; MunicipalityTotal()</text>
<text text-anchor="start" x="8" y="-30" font-family="Helvetica,sans-Serif" font-size="10.00">&#45; AddCommute()</text>
<text text-anchor="start" x="8" y="-19" font-family="Helvetica,sans-Serif" font-size="10.00">&#45; AddCommuteFrom()</text>
<text text-anchor="start" x="8" y="-8" font-family="Helvetica,sans-Serif" font-size="10.00">&#45; AddCommuteTo()</text>
</g>
<!-- Node2 -->
<g id="node2" class="node"><title>Node2</title>
<g id="a_node2"><a xlink:href="../../d3/dfe/a00025.html" target="_top" xlink:title="Create an abstract Reader which fills a GeoGrid with the Commutes found in a given file...">
<polygon fill="white" stroke="black" points="10.5,-150.5 10.5,-229.5 159.5,-229.5 159.5,-150.5 10.5,-150.5"/>
<text text-anchor="middle" x="85" y="-217.5" font-family="Helvetica,sans-Serif" font-size="10.00">gengeopop::CommutesReader</text>
<polyline fill="none" stroke="black" points="10.5,-210.5 159.5,-210.5 "/>
<text text-anchor="start" x="18.5" y="-198.5" font-family="Helvetica,sans-Serif" font-size="10.00"># m_inputStream</text>
<polyline fill="none" stroke="black" points="10.5,-191.5 159.5,-191.5 "/>
<text text-anchor="start" x="18.5" y="-179.5" font-family="Helvetica,sans-Serif" font-size="10.00">+ CommutesReader()</text>
<text text-anchor="start" x="18.5" y="-168.5" font-family="Helvetica,sans-Serif" font-size="10.00">+ FillGeoGrid()</text>
<text text-anchor="start" x="18.5" y="-157.5" font-family="Helvetica,sans-Serif" font-size="10.00">+ ~CommutesReader()</text>
</a>
</g>
</g>
<!-- Node2&#45;&gt;Node1 -->
<g id="edge1" class="edge"><title>Node2&#45;&gt;Node1</title>
<path fill="none" stroke="midnightblue" d="M85,-140.315C85,-131.514 85,-122.28 85,-113.307"/>
<polygon fill="none" stroke="midnightblue" points="81.5001,-140.404 85,-150.404 88.5001,-140.404 81.5001,-140.404"/>
</g>
</g>
</svg>
