<?xml version="1.0" encoding="UTF-8" standalone="no"?>
<!DOCTYPE svg PUBLIC "-//W3C//DTD SVG 1.1//EN"
 "http://www.w3.org/Graphics/SVG/1.1/DTD/svg11.dtd">
<!-- Generated by graphviz version 2.36.0 (20140111.2315)
 -->
<!-- Title: College.h Pages: 1 -->
<svg width="716pt" height="84pt"
 viewBox="0.00 0.00 716.00 84.00" xmlns="http://www.w3.org/2000/svg" xmlns:xlink="http://www.w3.org/1999/xlink">
<g id="graph0" class="graph" transform="scale(1 1) rotate(0) translate(4 80)">
<title>College.h</title>
<polygon fill="white" stroke="none" points="-4,4 -4,-80 712,-80 712,4 -4,4"/>
<!-- Node1 -->
<g id="node1" class="node"><title>Node1</title>
<polygon fill="#bfbfbf" stroke="black" points="325,-56.5 325,-75.5 383,-75.5 383,-56.5 325,-56.5"/>
<text text-anchor="middle" x="354" y="-63.5" font-family="Helvetica,sans-Serif" font-size="10.00">College.h</text>
</g>
<!-- Node2 -->
<g id="node2" class="node"><title>Node2</title>
<g id="a_node2"><a xlink:href="../../d3/dd1/a00214.html" target="_top" xlink:title="College.cpp">
<polygon fill="white" stroke="black" points="0,-0.5 0,-19.5 68,-19.5 68,-0.5 0,-0.5"/>
<text text-anchor="middle" x="34" y="-7.5" font-family="Helvetica,sans-Serif" font-size="10.00">College.cpp</text>
</a>
</g>
</g>
<!-- Node1&#45;&gt;Node2 -->
<g id="edge1" class="edge"><title>Node1&#45;&gt;Node2</title>
<path fill="none" stroke="midnightblue" d="M314.683,-59.186C260.899,-51.1022 161.426,-35.6846 77,-20 74.1505,-19.4706 71.1995,-18.9001 68.2399,-18.3123"/>
<polygon fill="midnightblue" stroke="midnightblue" points="314.404,-62.6832 324.812,-60.7029 315.441,-55.7604 314.404,-62.6832"/>
</g>
<!-- Node3 -->
<g id="node3" class="node"><title>Node3</title>
<g id="a_node3"><a xlink:href="../../d6/d43/a00216.html" target="_top" xlink:title="CollegeGenerator.cpp">
<polygon fill="white" stroke="black" points="86.5,-0.5 86.5,-19.5 197.5,-19.5 197.5,-0.5 86.5,-0.5"/>
<text text-anchor="middle" x="142" y="-7.5" font-family="Helvetica,sans-Serif" font-size="10.00">CollegeGenerator.cpp</text>
</a>
</g>
</g>
<!-- Node1&#45;&gt;Node3 -->
<g id="edge2" class="edge"><title>Node1&#45;&gt;Node3</title>
<path fill="none" stroke="midnightblue" d="M315.045,-55.0774C275.056,-44.8916 213.473,-29.2054 175.57,-19.5509"/>
<polygon fill="midnightblue" stroke="midnightblue" points="314.412,-58.528 324.967,-57.6048 316.14,-51.7446 314.412,-58.528"/>
</g>
<!-- Node4 -->
<g id="node4" class="node"><title>Node4</title>
<g id="a_node4"><a xlink:href="../../d0/dcd/a00280.html" target="_top" xlink:title="GeoGridJSONReader.cpp">
<polygon fill="white" stroke="black" points="216,-0.5 216,-19.5 346,-19.5 346,-0.5 216,-0.5"/>
<text text-anchor="middle" x="281" y="-7.5" font-family="Helvetica,sans-Serif" font-size="10.00">GeoGridJSONReader.cpp</text>
</a>
</g>
</g>
<!-- Node1&#45;&gt;Node4 -->
<g id="edge3" class="edge"><title>Node1&#45;&gt;Node4</title>
<path fill="none" stroke="midnightblue" d="M333.858,-50.1008C320.721,-40.3824 304.018,-28.0269 292.942,-19.8339"/>
<polygon fill="midnightblue" stroke="midnightblue" points="332.15,-53.1907 342.271,-56.324 336.313,-47.5631 332.15,-53.1907"/>
</g>
<!-- Node5 -->
<g id="node5" class="node"><title>Node5</title>
<g id="a_node5"><a xlink:href="../../d5/d7b/a00286.html" target="_top" xlink:title="GeoGridProtoReader.cpp">
<polygon fill="white" stroke="black" points="364,-0.5 364,-19.5 490,-19.5 490,-0.5 364,-0.5"/>
<text text-anchor="middle" x="427" y="-7.5" font-family="Helvetica,sans-Serif" font-size="10.00">GeoGridProtoReader.cpp</text>
</a>
</g>
</g>
<!-- Node1&#45;&gt;Node5 -->
<g id="edge4" class="edge"><title>Node1&#45;&gt;Node5</title>
<path fill="none" stroke="midnightblue" d="M374.142,-50.1008C387.279,-40.3824 403.982,-28.0269 415.058,-19.8339"/>
<polygon fill="midnightblue" stroke="midnightblue" points="371.687,-47.5631 365.729,-56.324 375.85,-53.1907 371.687,-47.5631"/>
</g>
<!-- Node6 -->
<g id="node6" class="node"><title>Node6</title>
<g id="a_node6"><a xlink:href="../../dc/d9a/a00218.html" target="_top" xlink:title="CollegePopulator.cpp">
<polygon fill="white" stroke="black" points="508,-0.5 508,-19.5 618,-19.5 618,-0.5 508,-0.5"/>
<text text-anchor="middle" x="563" y="-7.5" font-family="Helvetica,sans-Serif" font-size="10.00">CollegePopulator.cpp</text>
</a>
</g>
</g>
<!-- Node1&#45;&gt;Node6 -->
<g id="edge5" class="edge"><title>Node1&#45;&gt;Node6</title>
<path fill="none" stroke="midnightblue" d="M392.866,-54.9581C432.353,-44.7557 492.848,-29.1254 530.056,-19.5118"/>
<polygon fill="midnightblue" stroke="midnightblue" points="391.867,-51.6012 383.061,-57.4915 393.618,-58.3786 391.867,-51.6012"/>
</g>
<!-- Node7 -->
<g id="node7" class="node"><title>Node7</title>
<g id="a_node7"><a xlink:href="../../da/d15/a00188.html" target="_top" xlink:title="backend.cpp">
<polygon fill="white" stroke="black" points="636,-0.5 636,-19.5 708,-19.5 708,-0.5 636,-0.5"/>
<text text-anchor="middle" x="672" y="-7.5" font-family="Helvetica,sans-Serif" font-size="10.00">backend.cpp</text>
</a>
</g>
</g>
<!-- Node1&#45;&gt;Node7 -->
<g id="edge6" class="edge"><title>Node1&#45;&gt;Node7</title>
<path fill="none" stroke="midnightblue" d="M393.149,-58.9757C446.226,-50.7103 543.933,-35.1484 627,-20 629.822,-19.4854 632.74,-18.9376 635.671,-18.3761"/>
<polygon fill="midnightblue" stroke="midnightblue" points="392.491,-55.5359 383.147,-60.5292 393.565,-62.453 392.491,-55.5359"/>
</g>
</g>
</svg>
