<?xml version="1.0" encoding="UTF-8" standalone="no"?>
<!DOCTYPE svg PUBLIC "-//W3C//DTD SVG 1.1//EN"
 "http://www.w3.org/Graphics/SVG/1.1/DTD/svg11.dtd">
<!-- Generated by graphviz version 2.36.0 (20140111.2315)
 -->
<!-- Title: stride::SurveySeeder::Seed Pages: 1 -->
<svg width="296pt" height="389pt"
 viewBox="0.00 0.00 296.00 389.00" xmlns="http://www.w3.org/2000/svg" xmlns:xlink="http://www.w3.org/1999/xlink">
<g id="graph0" class="graph" transform="scale(1 1) rotate(0) translate(4 385)">
<title>stride::SurveySeeder::Seed</title>
<polygon fill="white" stroke="none" points="-4,4 -4,-385 292,-385 292,4 -4,4"/>
<!-- Node1 -->
<g id="node1" class="node"><title>Node1</title>
<polygon fill="#bfbfbf" stroke="black" points="0,-180 0,-210 108,-210 108,-180 0,-180"/>
<text text-anchor="start" x="8" y="-198" font-family="Helvetica,sans-Serif" font-size="10.00">stride::SurveySeeder</text>
<text text-anchor="middle" x="54" y="-187" font-family="Helvetica,sans-Serif" font-size="10.00">::Seed</text>
</g>
<!-- Node2 -->
<g id="node2" class="node"><title>Node2</title>
<g id="a_node2"><a xlink:href="../../d2/df5/a00137.html#ad85ecf5500764ae2c025f7e2aab8003c" target="_top" xlink:title="Get the age. ">
<polygon fill="white" stroke="black" points="158,-361.5 158,-380.5 274,-380.5 274,-361.5 158,-361.5"/>
<text text-anchor="middle" x="216" y="-368.5" font-family="Helvetica,sans-Serif" font-size="10.00">stride::Person::GetAge</text>
</a>
</g>
</g>
<!-- Node1&#45;&gt;Node2 -->
<g id="edge1" class="edge"><title>Node1&#45;&gt;Node2</title>
<path fill="none" stroke="midnightblue" d="M59.2912,-210.011C68.9886,-241.183 95.6041,-313.171 144,-351 146.948,-353.304 150.148,-355.343 153.504,-357.147"/>
<polygon fill="midnightblue" stroke="midnightblue" points="152.141,-360.373 162.686,-361.395 155.08,-354.02 152.141,-360.373"/>
</g>
<!-- Node3 -->
<g id="node3" class="node"><title>Node3</title>
<g id="a_node3"><a xlink:href="../../d4/ddd/a00138.html#a314f886a6abeb0e08aac8fee085e76bd" target="_top" xlink:title="stride::Population\l::GetContactLogger">
<polygon fill="white" stroke="black" points="165,-312 165,-342 267,-342 267,-312 165,-312"/>
<text text-anchor="start" x="173" y="-330" font-family="Helvetica,sans-Serif" font-size="10.00">stride::Population</text>
<text text-anchor="middle" x="216" y="-319" font-family="Helvetica,sans-Serif" font-size="10.00">::GetContactLogger</text>
</a>
</g>
</g>
<!-- Node1&#45;&gt;Node3 -->
<g id="edge2" class="edge"><title>Node1&#45;&gt;Node3</title>
<path fill="none" stroke="midnightblue" d="M63.961,-210.358C78.1457,-233.401 107.899,-276.888 144,-302 147.659,-304.545 151.604,-306.856 155.693,-308.95"/>
<polygon fill="midnightblue" stroke="midnightblue" points="154.277,-312.151 164.82,-313.193 157.228,-305.804 154.277,-312.151"/>
</g>
<!-- Node4 -->
<g id="node4" class="node"><title>Node4</title>
<g id="a_node4"><a xlink:href="../../d2/df5/a00137.html#ada6071b93ce9d5b5611a2151e14d0740" target="_top" xlink:title="Return person&#39;s gender. ">
<polygon fill="white" stroke="black" points="150.5,-273.5 150.5,-292.5 281.5,-292.5 281.5,-273.5 150.5,-273.5"/>
<text text-anchor="middle" x="216" y="-280.5" font-family="Helvetica,sans-Serif" font-size="10.00">stride::Person::GetGender</text>
</a>
</g>
</g>
<!-- Node1&#45;&gt;Node4 -->
<g id="edge3" class="edge"><title>Node1&#45;&gt;Node4</title>
<path fill="none" stroke="midnightblue" d="M70.7892,-210.075C87.6669,-225.427 115.822,-248.916 144,-263 149.563,-265.78 155.57,-268.226 161.653,-270.363"/>
<polygon fill="midnightblue" stroke="midnightblue" points="160.629,-273.71 171.221,-273.472 162.792,-267.053 160.629,-273.71"/>
</g>
<!-- Node5 -->
<g id="node5" class="node"><title>Node5</title>
<g id="a_node5"><a xlink:href="../../d6/d7d/a00161.html#a6508932485d419a6e7ab3cac60754ae6" target="_top" xlink:title="Produce a random generator out of a distribution bound to sim&#39;s random engine. ">
<polygon fill="white" stroke="black" points="157,-224 157,-254 275,-254 275,-224 157,-224"/>
<text text-anchor="start" x="165" y="-242" font-family="Helvetica,sans-Serif" font-size="10.00">stride::util::RNManager</text>
<text text-anchor="middle" x="216" y="-231" font-family="Helvetica,sans-Serif" font-size="10.00">::GetGenerator</text>
</a>
</g>
</g>
<!-- Node1&#45;&gt;Node5 -->
<g id="edge4" class="edge"><title>Node1&#45;&gt;Node5</title>
<path fill="none" stroke="midnightblue" d="M108.278,-209.651C121.738,-213.353 136.338,-217.368 150.293,-221.205"/>
<polygon fill="midnightblue" stroke="midnightblue" points="149.745,-224.685 160.315,-223.962 151.601,-217.935 149.745,-224.685"/>
</g>
<!-- Node6 -->
<g id="node6" class="node"><title>Node6</title>
<g id="a_node6"><a xlink:href="../../d2/df5/a00137.html#afab3ab2a1a33004f9e25d4873c3c1921" target="_top" xlink:title="Get the id. ">
<polygon fill="white" stroke="black" points="162.5,-185.5 162.5,-204.5 269.5,-204.5 269.5,-185.5 162.5,-185.5"/>
<text text-anchor="middle" x="216" y="-192.5" font-family="Helvetica,sans-Serif" font-size="10.00">stride::Person::GetId</text>
</a>
</g>
</g>
<!-- Node1&#45;&gt;Node6 -->
<g id="edge5" class="edge"><title>Node1&#45;&gt;Node6</title>
<path fill="none" stroke="midnightblue" d="M108.278,-195C122.323,-195 137.609,-195 152.109,-195"/>
<polygon fill="midnightblue" stroke="midnightblue" points="152.499,-198.5 162.499,-195 152.499,-191.5 152.499,-198.5"/>
</g>
<!-- Node7 -->
<g id="node7" class="node"><title>Node7</title>
<g id="a_node7"><a xlink:href="../../d2/df5/a00137.html#ace277043dfb3a2052adf508dd0179567" target="_top" xlink:title="Get ID of contactpool_type. ">
<polygon fill="white" stroke="black" points="152.5,-147.5 152.5,-166.5 279.5,-166.5 279.5,-147.5 152.5,-147.5"/>
<text text-anchor="middle" x="216" y="-154.5" font-family="Helvetica,sans-Serif" font-size="10.00">stride::Person::GetPoolId</text>
</a>
</g>
</g>
<!-- Node1&#45;&gt;Node7 -->
<g id="edge6" class="edge"><title>Node1&#45;&gt;Node7</title>
<path fill="none" stroke="midnightblue" d="M108.278,-182.347C126.61,-177.993 147.056,-173.137 165.108,-168.849"/>
<polygon fill="midnightblue" stroke="midnightblue" points="165.942,-172.249 174.862,-166.533 164.324,-165.438 165.942,-172.249"/>
</g>
<!-- Node8 -->
<g id="node8" class="node"><title>Node8</title>
<g id="a_node8"><a xlink:href="../../d2/df5/a00137.html#a5942b9a4f5226e8810dc8b63fb250f3e" target="_top" xlink:title="Does this person participates in the social contact study? ">
<polygon fill="white" stroke="black" points="155,-98 155,-128 277,-128 277,-98 155,-98"/>
<text text-anchor="start" x="163" y="-116" font-family="Helvetica,sans-Serif" font-size="10.00">stride::Person::IsSurvey</text>
<text text-anchor="middle" x="216" y="-105" font-family="Helvetica,sans-Serif" font-size="10.00">Participant</text>
</a>
</g>
</g>
<!-- Node1&#45;&gt;Node8 -->
<g id="edge7" class="edge"><title>Node1&#45;&gt;Node8</title>
<path fill="none" stroke="midnightblue" d="M75.4187,-179.985C92.9616,-167.567 119.266,-150.073 144,-138 148.509,-135.799 153.262,-133.696 158.084,-131.712"/>
<polygon fill="midnightblue" stroke="midnightblue" points="159.376,-134.965 167.399,-128.045 156.812,-128.451 159.376,-134.965"/>
</g>
<!-- Node9 -->
<g id="node9" class="node"><title>Node9</title>
<g id="a_node9"><a xlink:href="../../d2/df5/a00137.html#a6c27c93e351ca63aa6e3a055cd9110b2" target="_top" xlink:title="Participate in social contact study and log person details. ">
<polygon fill="white" stroke="black" points="151,-49 151,-79 281,-79 281,-49 151,-49"/>
<text text-anchor="start" x="159" y="-67" font-family="Helvetica,sans-Serif" font-size="10.00">stride::Person::Participate</text>
<text text-anchor="middle" x="216" y="-56" font-family="Helvetica,sans-Serif" font-size="10.00">InSurvey</text>
</a>
</g>
</g>
<!-- Node1&#45;&gt;Node9 -->
<g id="edge8" class="edge"><title>Node1&#45;&gt;Node9</title>
<path fill="none" stroke="midnightblue" d="M63.9965,-179.789C78.2275,-156.966 108.041,-113.89 144,-89 146.74,-87.1034 149.639,-85.3366 152.637,-83.6926"/>
<polygon fill="midnightblue" stroke="midnightblue" points="154.463,-86.6941 161.873,-79.1216 151.358,-80.4204 154.463,-86.6941"/>
</g>
<!-- Node10 -->
<g id="node10" class="node"><title>Node10</title>
<g id="a_node10"><a xlink:href="../../d1/dc1/a00092.html#a0e279c31f261b01f7798355e27401bfe" target="_top" xlink:title="Returns the number of elements. ">
<polygon fill="white" stroke="black" points="144.5,-0 144.5,-30 287.5,-30 287.5,-0 144.5,-0"/>
<text text-anchor="start" x="152.5" y="-18" font-family="Helvetica,sans-Serif" font-size="10.00">stride::util::SegmentedVector</text>
<text text-anchor="middle" x="216" y="-7" font-family="Helvetica,sans-Serif" font-size="10.00">::size</text>
</a>
</g>
</g>
<!-- Node1&#45;&gt;Node10 -->
<g id="edge9" class="edge"><title>Node1&#45;&gt;Node10</title>
<path fill="none" stroke="midnightblue" d="M59.6711,-179.859C69.9162,-149.094 97.251,-78.904 144,-40 146.022,-38.3177 148.164,-36.7454 150.396,-35.2762"/>
<polygon fill="midnightblue" stroke="midnightblue" points="152.459,-38.127 159.381,-30.1059 148.968,-32.0597 152.459,-38.127"/>
</g>
</g>
</svg>
