<?xml version="1.0" encoding="UTF-8" standalone="no"?>
<!DOCTYPE svg PUBLIC "-//W3C//DTD SVG 1.1//EN"
 "http://www.w3.org/Graphics/SVG/1.1/DTD/svg11.dtd">
<!-- Generated by graphviz version 2.36.0 (20140111.2315)
 -->
<!-- Title: stride::viewers::CliViewer::Update Pages: 1 -->
<svg width="358pt" height="38pt"
 viewBox="0.00 0.00 358.00 38.00" xmlns="http://www.w3.org/2000/svg" xmlns:xlink="http://www.w3.org/1999/xlink">
<g id="graph0" class="graph" transform="scale(1 1) rotate(0) translate(4 34)">
<title>stride::viewers::CliViewer::Update</title>
<polygon fill="white" stroke="none" points="-4,4 -4,-34 354,-34 354,4 -4,4"/>
<!-- Node1 -->
<g id="node1" class="node"><title>Node1</title>
<polygon fill="#bfbfbf" stroke="black" points="0,-0 0,-30 128,-30 128,-0 0,-0"/>
<text text-anchor="start" x="8" y="-18" font-family="Helvetica,sans-Serif" font-size="10.00">stride::viewers::CliViewer</text>
<text text-anchor="middle" x="64" y="-7" font-family="Helvetica,sans-Serif" font-size="10.00">::Update</text>
</g>
<!-- Node2 -->
<g id="node2" class="node"><title>Node2</title>
<g id="a_node2"><a xlink:href="../../d9/d77/a00095.html#acbdf31ef7f947010a3c1cba494aa7fd0" target="_top" xlink:title="Register the viewers of the SimRunner. ">
<polygon fill="white" stroke="black" points="164.5,-0 164.5,-30 275.5,-30 275.5,-0 164.5,-0"/>
<text text-anchor="start" x="172.5" y="-18" font-family="Helvetica,sans-Serif" font-size="10.00">stride::BaseController</text>
<text text-anchor="middle" x="220" y="-7" font-family="Helvetica,sans-Serif" font-size="10.00">::RegisterViewers</text>
</a>
</g>
</g>
<!-- Node1&#45;&gt;Node2 -->
<g id="edge1" class="edge"><title>Node1&#45;&gt;Node2</title>
<path fill="none" stroke="midnightblue" d="M138.258,-15C146.974,-15 155.754,-15 164.15,-15"/>
<polygon fill="midnightblue" stroke="midnightblue" points="138.082,-11.5001 128.082,-15 138.082,-18.5001 138.082,-11.5001"/>
</g>
<!-- Node3 -->
<g id="node3" class="node"><title>Node3</title>
<g id="a_node3"><a xlink:href="../../d3/dc9/a00355.html#a3c04138a5bfe5d72780bb7e82a18e627" target="_top" xlink:title="Main program of the stride simulator. ">
<polygon fill="white" stroke="black" points="312,-5.5 312,-24.5 350,-24.5 350,-5.5 312,-5.5"/>
<text text-anchor="middle" x="331" y="-12.5" font-family="Helvetica,sans-Serif" font-size="10.00">main</text>
</a>
</g>
</g>
<!-- Node2&#45;&gt;Node3 -->
<g id="edge2" class="edge"><title>Node2&#45;&gt;Node3</title>
<path fill="none" stroke="midnightblue" d="M286.068,-15C295.407,-15 304.315,-15 311.639,-15"/>
<polygon fill="midnightblue" stroke="midnightblue" points="285.819,-11.5001 275.819,-15 285.819,-18.5001 285.819,-11.5001"/>
</g>
</g>
</svg>
