<?xml version="1.0" encoding="UTF-8" standalone="no"?>
<!DOCTYPE svg PUBLIC "-//W3C//DTD SVG 1.1//EN"
 "http://www.w3.org/Graphics/SVG/1.1/DTD/svg11.dtd">
<!-- Generated by graphviz version 2.36.0 (20140111.2315)
 -->
<!-- Title: CSV.cpp Pages: 1 -->
<svg width="690pt" height="252pt"
 viewBox="0.00 0.00 690.00 252.00" xmlns="http://www.w3.org/2000/svg" xmlns:xlink="http://www.w3.org/1999/xlink">
<g id="graph0" class="graph" transform="scale(1 1) rotate(0) translate(4 248)">
<title>CSV.cpp</title>
<polygon fill="white" stroke="none" points="-4,4 -4,-248 686,-248 686,4 -4,4"/>
<!-- Node1 -->
<g id="node1" class="node"><title>Node1</title>
<polygon fill="#bfbfbf" stroke="black" points="423,-224.5 423,-243.5 479,-243.5 479,-224.5 423,-224.5"/>
<text text-anchor="middle" x="451" y="-231.5" font-family="Helvetica,sans-Serif" font-size="10.00">CSV.cpp</text>
</g>
<!-- Node2 -->
<g id="node2" class="node"><title>Node2</title>
<g id="a_node2"><a xlink:href="../../d0/d1f/a00247.html" target="_top" xlink:title="Header file of base class for config that needs to be read from a file. ">
<polygon fill="white" stroke="black" points="372,-168.5 372,-187.5 418,-187.5 418,-168.5 372,-168.5"/>
<text text-anchor="middle" x="395" y="-175.5" font-family="Helvetica,sans-Serif" font-size="10.00">CSV.h</text>
</a>
</g>
</g>
<!-- Node1&#45;&gt;Node2 -->
<g id="edge1" class="edge"><title>Node1&#45;&gt;Node2</title>
<path fill="none" stroke="midnightblue" d="M442.003,-224.324C433.806,-216.42 421.494,-204.548 411.528,-194.938"/>
<polygon fill="midnightblue" stroke="midnightblue" points="413.789,-192.256 404.161,-187.834 408.93,-197.295 413.789,-192.256"/>
</g>
<!-- Node18 -->
<g id="node18" class="node"><title>Node18</title>
<polygon fill="white" stroke="#bfbfbf" points="436.5,-168.5 436.5,-187.5 579.5,-187.5 579.5,-168.5 436.5,-168.5"/>
<text text-anchor="middle" x="508" y="-175.5" font-family="Helvetica,sans-Serif" font-size="10.00">boost/filesystem/fstream.hpp</text>
</g>
<!-- Node1&#45;&gt;Node18 -->
<g id="edge21" class="edge"><title>Node1&#45;&gt;Node18</title>
<path fill="none" stroke="midnightblue" d="M460.158,-224.324C468.501,-216.42 481.032,-204.548 491.177,-194.938"/>
<polygon fill="midnightblue" stroke="midnightblue" points="493.823,-197.252 498.675,-187.834 489.009,-192.171 493.823,-197.252"/>
</g>
<!-- Node3 -->
<g id="node3" class="node"><title>Node3</title>
<g id="a_node3"><a xlink:href="../../de/dbc/a00249.html" target="_top" xlink:title="Header file of base class for config that needs to be read from a file. ">
<polygon fill="white" stroke="black" points="332,-112.5 332,-131.5 398,-131.5 398,-112.5 332,-112.5"/>
<text text-anchor="middle" x="365" y="-119.5" font-family="Helvetica,sans-Serif" font-size="10.00">CSVRow.h</text>
</a>
</g>
</g>
<!-- Node2&#45;&gt;Node3 -->
<g id="edge2" class="edge"><title>Node2&#45;&gt;Node3</title>
<path fill="none" stroke="midnightblue" d="M390.046,-168.083C385.896,-160.613 379.847,-149.724 374.733,-140.52"/>
<polygon fill="midnightblue" stroke="midnightblue" points="377.778,-138.793 369.862,-131.751 371.659,-142.192 377.778,-138.793"/>
</g>
<!-- Node4 -->
<g id="node4" class="node"><title>Node4</title>
<g id="a_node4"><a xlink:href="../../de/de8/a00405.html" target="_top" xlink:title="Miscellaneous string utilities. ">
<polygon fill="white" stroke="black" points="209,-56.5 209,-75.5 295,-75.5 295,-56.5 209,-56.5"/>
<text text-anchor="middle" x="252" y="-63.5" font-family="Helvetica,sans-Serif" font-size="10.00">util/StringUtils.h</text>
</a>
</g>
</g>
<!-- Node2&#45;&gt;Node4 -->
<g id="edge16" class="edge"><title>Node2&#45;&gt;Node4</title>
<path fill="none" stroke="midnightblue" d="M379.576,-168.462C364.622,-159.932 341.542,-146.094 323,-132 302.758,-116.614 281.499,-96.5581 267.581,-82.8174"/>
<polygon fill="midnightblue" stroke="midnightblue" points="269.846,-80.1324 260.298,-75.5399 264.898,-85.0841 269.846,-80.1324"/>
</g>
<!-- Node12 -->
<g id="node12" class="node"><title>Node12</title>
<polygon fill="white" stroke="#bfbfbf" points="0,-0.5 0,-19.5 44,-19.5 44,-0.5 0,-0.5"/>
<text text-anchor="middle" x="22" y="-7.5" font-family="Helvetica,sans-Serif" font-size="10.00">vector</text>
</g>
<!-- Node2&#45;&gt;Node12 -->
<g id="edge20" class="edge"><title>Node2&#45;&gt;Node12</title>
<path fill="none" stroke="midnightblue" d="M375.731,-168.425C314.466,-141.159 123.897,-56.3482 50.8751,-23.8506"/>
<polygon fill="midnightblue" stroke="midnightblue" points="51.9365,-20.492 41.3773,-19.6237 49.0903,-26.8873 51.9365,-20.492"/>
</g>
<!-- Node13 -->
<g id="node13" class="node"><title>Node13</title>
<polygon fill="white" stroke="#bfbfbf" points="553.5,-56.5 553.5,-75.5 682.5,-75.5 682.5,-56.5 553.5,-56.5"/>
<text text-anchor="middle" x="618" y="-63.5" font-family="Helvetica,sans-Serif" font-size="10.00">boost/filesystem/path.hpp</text>
</g>
<!-- Node2&#45;&gt;Node13 -->
<g id="edge18" class="edge"><title>Node2&#45;&gt;Node13</title>
<path fill="none" stroke="midnightblue" d="M399.351,-168.361C406.879,-154.317 423.694,-126.636 446,-112 465.113,-99.4587 519.692,-86.3648 562.297,-77.5565"/>
<polygon fill="midnightblue" stroke="midnightblue" points="563.187,-80.9472 572.288,-75.5232 561.791,-74.0878 563.187,-80.9472"/>
</g>
<!-- Node16 -->
<g id="node16" class="node"><title>Node16</title>
<polygon fill="white" stroke="#bfbfbf" points="454.5,-112.5 454.5,-131.5 609.5,-131.5 609.5,-112.5 454.5,-112.5"/>
<text text-anchor="middle" x="532" y="-119.5" font-family="Helvetica,sans-Serif" font-size="10.00">boost/filesystem/operations.hpp</text>
</g>
<!-- Node2&#45;&gt;Node16 -->
<g id="edge17" class="edge"><title>Node2&#45;&gt;Node16</title>
<path fill="none" stroke="midnightblue" d="M416.708,-168.444C439.355,-159.517 475.072,-145.439 500.752,-135.317"/>
<polygon fill="midnightblue" stroke="midnightblue" points="502.374,-138.44 510.394,-131.516 499.807,-131.927 502.374,-138.44"/>
</g>
<!-- Node17 -->
<g id="node17" class="node"><title>Node17</title>
<polygon fill="white" stroke="#bfbfbf" points="628,-112.5 628,-131.5 678,-131.5 678,-112.5 628,-112.5"/>
<text text-anchor="middle" x="653" y="-119.5" font-family="Helvetica,sans-Serif" font-size="10.00">fstream</text>
</g>
<!-- Node2&#45;&gt;Node17 -->
<g id="edge19" class="edge"><title>Node2&#45;&gt;Node17</title>
<path fill="none" stroke="midnightblue" d="M418.02,-170.473C421.358,-169.599 424.76,-168.748 428,-168 511.747,-148.678 534.115,-150.712 618,-132 618.1,-131.978 618.199,-131.956 618.299,-131.933"/>
<polygon fill="midnightblue" stroke="midnightblue" points="618.886,-135.391 627.812,-129.684 617.275,-128.579 618.886,-135.391"/>
</g>
<!-- Node3&#45;&gt;Node4 -->
<g id="edge3" class="edge"><title>Node3&#45;&gt;Node4</title>
<path fill="none" stroke="midnightblue" d="M347.095,-112.444C328.746,-103.675 299.995,-89.9355 278.906,-79.8579"/>
<polygon fill="midnightblue" stroke="midnightblue" points="280.353,-76.6703 269.821,-75.5164 277.335,-82.9862 280.353,-76.6703"/>
</g>
<!-- Node9 -->
<g id="node9" class="node"><title>Node9</title>
<polygon fill="white" stroke="#bfbfbf" points="545,-0.5 545,-19.5 599,-19.5 599,-0.5 545,-0.5"/>
<text text-anchor="middle" x="572" y="-7.5" font-family="Helvetica,sans-Serif" font-size="10.00">iostream</text>
</g>
<!-- Node3&#45;&gt;Node9 -->
<g id="edge14" class="edge"><title>Node3&#45;&gt;Node9</title>
<path fill="none" stroke="midnightblue" d="M357.225,-112.488C345.965,-99.1091 327.926,-72.9422 342,-56 369.879,-22.4405 492.344,-29.1592 535,-20 535.101,-19.9783 535.202,-19.9566 535.303,-19.9347"/>
<polygon fill="midnightblue" stroke="midnightblue" points="535.976,-23.371 544.961,-17.7561 534.436,-16.5426 535.976,-23.371"/>
</g>
<!-- Node3&#45;&gt;Node13 -->
<g id="edge12" class="edge"><title>Node3&#45;&gt;Node13</title>
<path fill="none" stroke="midnightblue" d="M398.075,-113.94C441.307,-104.713 517.431,-88.4653 567.796,-77.7155"/>
<polygon fill="midnightblue" stroke="midnightblue" points="568.771,-81.0864 577.82,-75.576 567.309,-74.2406 568.771,-81.0864"/>
</g>
<!-- Node14 -->
<g id="node14" class="node"><title>Node14</title>
<polygon fill="white" stroke="#bfbfbf" points="351,-56.5 351,-75.5 465,-75.5 465,-56.5 351,-56.5"/>
<text text-anchor="middle" x="408" y="-63.5" font-family="Helvetica,sans-Serif" font-size="10.00">boost/lexical_cast.hpp</text>
</g>
<!-- Node3&#45;&gt;Node14 -->
<g id="edge13" class="edge"><title>Node3&#45;&gt;Node14</title>
<path fill="none" stroke="midnightblue" d="M372.101,-112.083C378.237,-104.377 387.27,-93.0333 394.739,-83.6531"/>
<polygon fill="midnightblue" stroke="midnightblue" points="397.54,-85.7542 401.032,-75.7511 392.064,-81.3936 397.54,-85.7542"/>
</g>
<!-- Node15 -->
<g id="node15" class="node"><title>Node15</title>
<polygon fill="white" stroke="#bfbfbf" points="483,-56.5 483,-75.5 535,-75.5 535,-56.5 483,-56.5"/>
<text text-anchor="middle" x="509" y="-63.5" font-family="Helvetica,sans-Serif" font-size="10.00">ostream</text>
</g>
<!-- Node3&#45;&gt;Node15 -->
<g id="edge15" class="edge"><title>Node3&#45;&gt;Node15</title>
<path fill="none" stroke="midnightblue" d="M387.817,-112.444C411.832,-103.438 449.829,-89.1891 476.869,-79.049"/>
<polygon fill="midnightblue" stroke="midnightblue" points="478.155,-82.3049 486.29,-75.5164 475.697,-75.7506 478.155,-82.3049"/>
</g>
<!-- Node5 -->
<g id="node5" class="node"><title>Node5</title>
<polygon fill="white" stroke="#bfbfbf" points="323.5,-0.5 323.5,-19.5 452.5,-19.5 452.5,-0.5 323.5,-0.5"/>
<text text-anchor="middle" x="388" y="-7.5" font-family="Helvetica,sans-Serif" font-size="10.00">boost/algorithm/string.hpp</text>
</g>
<!-- Node4&#45;&gt;Node5 -->
<g id="edge4" class="edge"><title>Node4&#45;&gt;Node5</title>
<path fill="none" stroke="midnightblue" d="M273.55,-56.4435C296.031,-47.5171 331.488,-33.4387 356.98,-23.3168"/>
<polygon fill="midnightblue" stroke="midnightblue" points="358.549,-26.4598 366.551,-19.5164 355.965,-19.9539 358.549,-26.4598"/>
</g>
<!-- Node6 -->
<g id="node6" class="node"><title>Node6</title>
<polygon fill="white" stroke="#bfbfbf" points="471,-0.5 471,-19.5 527,-19.5 527,-0.5 471,-0.5"/>
<text text-anchor="middle" x="499" y="-7.5" font-family="Helvetica,sans-Serif" font-size="10.00">algorithm</text>
</g>
<!-- Node4&#45;&gt;Node6 -->
<g id="edge5" class="edge"><title>Node4&#45;&gt;Node6</title>
<path fill="none" stroke="midnightblue" d="M292.903,-56.4517C335.076,-47.5774 402.713,-33.1758 461,-20 461.099,-19.9776 461.199,-19.9551 461.298,-19.9326"/>
<polygon fill="midnightblue" stroke="midnightblue" points="461.832,-23.4012 470.793,-17.7484 460.263,-16.5793 461.832,-23.4012"/>
</g>
<!-- Node7 -->
<g id="node7" class="node"><title>Node7</title>
<polygon fill="white" stroke="#bfbfbf" points="62,-0.5 62,-19.5 108,-19.5 108,-0.5 62,-0.5"/>
<text text-anchor="middle" x="85" y="-7.5" font-family="Helvetica,sans-Serif" font-size="10.00">cctype</text>
</g>
<!-- Node4&#45;&gt;Node7 -->
<g id="edge6" class="edge"><title>Node4&#45;&gt;Node7</title>
<path fill="none" stroke="midnightblue" d="M225.538,-56.4435C196.326,-46.9976 149.272,-31.7826 117.755,-21.5916"/>
<polygon fill="midnightblue" stroke="midnightblue" points="118.703,-18.2195 108.111,-18.473 116.549,-24.88 118.703,-18.2195"/>
</g>
<!-- Node8 -->
<g id="node8" class="node"><title>Node8</title>
<polygon fill="white" stroke="#bfbfbf" points="126,-0.5 126,-19.5 176,-19.5 176,-0.5 126,-0.5"/>
<text text-anchor="middle" x="151" y="-7.5" font-family="Helvetica,sans-Serif" font-size="10.00">iomanip</text>
</g>
<!-- Node4&#45;&gt;Node8 -->
<g id="edge7" class="edge"><title>Node4&#45;&gt;Node8</title>
<path fill="none" stroke="midnightblue" d="M235.773,-56.324C219.649,-47.7034 194.7,-34.3643 176.036,-24.3855"/>
<polygon fill="midnightblue" stroke="midnightblue" points="177.656,-21.283 167.187,-19.6545 174.356,-27.456 177.656,-21.283"/>
</g>
<!-- Node4&#45;&gt;Node9 -->
<g id="edge8" class="edge"><title>Node4&#45;&gt;Node9</title>
<path fill="none" stroke="midnightblue" d="M295.121,-58.1891C372.886,-45.9001 529.147,-21.1752 535,-20 535.101,-19.9797 535.203,-19.9592 535.304,-19.9387"/>
<polygon fill="midnightblue" stroke="midnightblue" points="535.948,-23.3806 544.978,-17.8401 534.464,-16.5398 535.948,-23.3806"/>
</g>
<!-- Node10 -->
<g id="node10" class="node"><title>Node10</title>
<polygon fill="white" stroke="#bfbfbf" points="194,-0.5 194,-19.5 246,-19.5 246,-0.5 194,-0.5"/>
<text text-anchor="middle" x="220" y="-7.5" font-family="Helvetica,sans-Serif" font-size="10.00">sstream</text>
</g>
<!-- Node4&#45;&gt;Node10 -->
<g id="edge9" class="edge"><title>Node4&#45;&gt;Node10</title>
<path fill="none" stroke="midnightblue" d="M246.716,-56.083C242.289,-48.6127 235.837,-37.7244 230.382,-28.5199"/>
<polygon fill="midnightblue" stroke="midnightblue" points="233.295,-26.5697 225.186,-19.7511 227.273,-30.1383 233.295,-26.5697"/>
</g>
<!-- Node11 -->
<g id="node11" class="node"><title>Node11</title>
<polygon fill="white" stroke="#bfbfbf" points="264.5,-0.5 264.5,-19.5 305.5,-19.5 305.5,-0.5 264.5,-0.5"/>
<text text-anchor="middle" x="285" y="-7.5" font-family="Helvetica,sans-Serif" font-size="10.00">string</text>
</g>
<!-- Node4&#45;&gt;Node11 -->
<g id="edge10" class="edge"><title>Node4&#45;&gt;Node11</title>
<path fill="none" stroke="midnightblue" d="M257.449,-56.083C262.014,-48.6127 268.668,-37.7244 274.293,-28.5199"/>
<polygon fill="midnightblue" stroke="midnightblue" points="277.424,-30.109 279.652,-19.7511 271.451,-26.4588 277.424,-30.109"/>
</g>
<!-- Node4&#45;&gt;Node12 -->
<g id="edge11" class="edge"><title>Node4&#45;&gt;Node12</title>
<path fill="none" stroke="midnightblue" d="M211.047,-56.4926C172.821,-48.384 113.978,-35.4763 54.2813,-20.2195"/>
<polygon fill="midnightblue" stroke="midnightblue" points="54.8639,-16.7554 44.3069,-17.6501 53.1176,-23.5341 54.8639,-16.7554"/>
</g>
</g>
</svg>
