<?xml version="1.0" encoding="UTF-8" standalone="no"?>
<!DOCTYPE svg PUBLIC "-//W3C//DTD SVG 1.1//EN"
 "http://www.w3.org/Graphics/SVG/1.1/DTD/svg11.dtd">
<!-- Generated by graphviz version 2.36.0 (20140111.2315)
 -->
<!-- Title: FileSys.h Pages: 1 -->
<!--zoomable 84 -->
<svg id="main" version="1.1" xmlns="http://www.w3.org/2000/svg" xmlns:xlink="http://www.w3.org/1999/xlink" xml:space="preserve" onload="init(evt)">
<style type="text/css"><![CDATA[
.edge:hover path { stroke: red; }
.edge:hover polygon { stroke: red; fill: red; }
]]></style>
<script type="text/javascript"><![CDATA[
var edges = document.getElementsByTagName('g');
if (edges && edges.length) {
  for (var i=0;i<edges.length;i++) {
    if (edges[i].id.substr(0,4)=='edge') {
      edges[i].setAttribute('class','edge');
    }
  }
}
]]></script>
        <defs>
                <circle id="rim" cx="0" cy="0" r="7"/>
                <circle id="rim2" cx="0" cy="0" r="3.5"/>
                <g id="zoomPlus">
                        <use xlink:href="#rim" fill="#404040">
                                <set attributeName="fill" to="#808080" begin="zoomplus.mouseover" end="zoomplus.mouseout"/>
                        </use>
                        <path d="M-4,0h8M0,-4v8" fill="none" stroke="white" stroke-width="1.5" pointer-events="none"/>
                </g>
                <g id="zoomMin">
                        <use xlink:href="#rim" fill="#404040">
                                <set attributeName="fill" to="#808080" begin="zoomminus.mouseover" end="zoomminus.mouseout"/>
                        </use>
                        <path d="M-4,0h8" fill="none" stroke="white" stroke-width="1.5" pointer-events="none"/>
                </g>
                <g id="dirArrow">
                        <path fill="none" stroke="white" stroke-width="1.5" d="M0,-3.0v7 M-2.5,-0.5L0,-3.0L2.5,-0.5"/>
                </g>
               <g id="resetDef">
                       <use xlink:href="#rim2" fill="#404040">
                               <set attributeName="fill" to="#808080" begin="reset.mouseover" end="reset.mouseout"/>
                       </use>
               </g>
        </defs>

<script type="text/javascript">
var viewWidth = 2406;
var viewHeight = 84;
var sectionId = 'dynsection-1';
</script>
<script xlink:href="../../svgpan.js"/>
<svg id="graph" class="graph">
<g id="viewport">
<title>FileSys.h</title>
<polygon fill="white" stroke="none" points="-4,4 -4,-80 2402,-80 2402,4 -4,4"/>
<!-- Node1 -->
<g id="node1" class="node"><title>Node1</title>
<polygon fill="#bfbfbf" stroke="black" points="1205,-56.5 1205,-75.5 1263,-75.5 1263,-56.5 1205,-56.5"/>
<text text-anchor="middle" x="1234" y="-63.5" font-family="Helvetica,sans-Serif" font-size="10.00">FileSys.h</text>
</g>
<!-- Node2 -->
<g id="node2" class="node"><title>Node2</title>
<g id="a_node2"><a xlink:href="../../d3/db1/a00200.html" target="_top" xlink:title="Implementation file for the Calendar class. ">
<polygon fill="white" stroke="black" points="0,-0.5 0,-19.5 74,-19.5 74,-0.5 0,-0.5"/>
<text text-anchor="middle" x="37" y="-7.5" font-family="Helvetica,sans-Serif" font-size="10.00">Calendar.cpp</text>
</a>
</g>
</g>
<!-- Node1&#45;&gt;Node2 -->
<g id="edge1" class="edge"><title>Node1&#45;&gt;Node2</title>
<path fill="none" stroke="midnightblue" d="M1194.8,-64.2797C1019.38,-60.9319 305.394,-45.9465 83,-20 80.0902,-19.6605 77.0892,-19.2385 74.08,-18.764"/>
<polygon fill="midnightblue" stroke="midnightblue" points="1194.8,-67.7803 1204.86,-64.4703 1194.93,-60.7816 1194.8,-67.7803"/>
</g>
<!-- Node3 -->
<g id="node3" class="node"><title>Node3</title>
<g id="a_node3"><a xlink:href="../../d1/da8/a00230.html" target="_top" xlink:title="ConfigFileCalibrationRunner.cpp">
<polygon fill="white" stroke="black" points="92,-0.5 92,-19.5 250,-19.5 250,-0.5 92,-0.5"/>
<text text-anchor="middle" x="171" y="-7.5" font-family="Helvetica,sans-Serif" font-size="10.00">ConfigFileCalibrationRunner.cpp</text>
</a>
</g>
</g>
<!-- Node1&#45;&gt;Node3 -->
<g id="edge2" class="edge"><title>Node1&#45;&gt;Node3</title>
<path fill="none" stroke="midnightblue" d="M1194.81,-63.9766C1062.79,-60.3613 622.203,-46.9334 259,-20 256.09,-19.7842 253.127,-19.5509 250.136,-19.3038"/>
<polygon fill="midnightblue" stroke="midnightblue" points="1194.76,-67.4764 1204.85,-64.2488 1194.95,-60.479 1194.76,-67.4764"/>
</g>
<!-- Node4 -->
<g id="node4" class="node"><title>Node4</title>
<g id="a_node4"><a xlink:href="../../dc/d6a/a00261.html" target="_top" xlink:title="Implementation for the DiseaseSeeder class. ">
<polygon fill="white" stroke="black" points="268,-0.5 268,-19.5 370,-19.5 370,-0.5 268,-0.5"/>
<text text-anchor="middle" x="319" y="-7.5" font-family="Helvetica,sans-Serif" font-size="10.00">DiseaseSeeder.cpp</text>
</a>
</g>
</g>
<!-- Node1&#45;&gt;Node4 -->
<g id="edge3" class="edge"><title>Node1&#45;&gt;Node4</title>
<path fill="none" stroke="midnightblue" d="M1194.45,-64.2723C1072.61,-61.7406 692.312,-51.6692 379,-20 376.066,-19.7034 373.055,-19.364 370.021,-18.9948"/>
<polygon fill="midnightblue" stroke="midnightblue" points="1194.69,-67.7779 1204.76,-64.4813 1194.84,-60.7794 1194.69,-67.7779"/>
</g>
<!-- Node5 -->
<g id="node5" class="node"><title>Node5</title>
<g id="a_node5"><a xlink:href="../../da/dee/a00383.html" target="_top" xlink:title="ReaderFactory.cpp">
<polygon fill="white" stroke="black" points="388,-0.5 388,-19.5 488,-19.5 488,-0.5 388,-0.5"/>
<text text-anchor="middle" x="438" y="-7.5" font-family="Helvetica,sans-Serif" font-size="10.00">ReaderFactory.cpp</text>
</a>
</g>
</g>
<!-- Node1&#45;&gt;Node5 -->
<g id="edge4" class="edge"><title>Node1&#45;&gt;Node5</title>
<path fill="none" stroke="midnightblue" d="M1194.78,-63.8539C1084.58,-60.3642 762.8,-48.3289 497,-20 494.115,-19.6925 491.155,-19.3447 488.172,-18.9689"/>
<polygon fill="midnightblue" stroke="midnightblue" points="1194.67,-67.3522 1204.78,-64.1652 1194.89,-60.3555 1194.67,-67.3522"/>
</g>
<!-- Node6 -->
<g id="node6" class="node"><title>Node6</title>
<g id="a_node6"><a xlink:href="../../d3/d93/a00341.html" target="_top" xlink:title="Launcher.cpp">
<polygon fill="white" stroke="black" points="506.5,-0.5 506.5,-19.5 581.5,-19.5 581.5,-0.5 506.5,-0.5"/>
<text text-anchor="middle" x="544" y="-7.5" font-family="Helvetica,sans-Serif" font-size="10.00">Launcher.cpp</text>
</a>
</g>
</g>
<!-- Node1&#45;&gt;Node6 -->
<g id="edge5" class="edge"><title>Node1&#45;&gt;Node6</title>
<path fill="none" stroke="midnightblue" d="M1194.98,-63.951C1094.36,-60.8834 818.04,-50.1583 590,-20 587.257,-19.6373 584.431,-19.2121 581.593,-18.7475"/>
<polygon fill="midnightblue" stroke="midnightblue" points="1194.89,-67.4498 1204.99,-64.2484 1195.1,-60.4529 1194.89,-67.4498"/>
</g>
<!-- Node7 -->
<g id="node7" class="node"><title>Node7</title>
<g id="a_node7"><a xlink:href="../../db/dd9/a00179.html" target="_top" xlink:title="AdoptedFile.cpp">
<polygon fill="white" stroke="black" points="599.5,-0.5 599.5,-19.5 686.5,-19.5 686.5,-0.5 599.5,-0.5"/>
<text text-anchor="middle" x="643" y="-7.5" font-family="Helvetica,sans-Serif" font-size="10.00">AdoptedFile.cpp</text>
</a>
</g>
</g>
<!-- Node1&#45;&gt;Node7 -->
<g id="edge6" class="edge"><title>Node1&#45;&gt;Node7</title>
<path fill="none" stroke="midnightblue" d="M1194.56,-62.8497C1105.45,-57.7403 881.86,-43.5105 696,-20 692.944,-19.6135 689.796,-19.1771 686.629,-18.71"/>
<polygon fill="midnightblue" stroke="midnightblue" points="1194.57,-66.3556 1204.75,-63.4276 1194.96,-59.3668 1194.57,-66.3556"/>
</g>
<!-- Node8 -->
<g id="node8" class="node"><title>Node8</title>
<g id="a_node8"><a xlink:href="../../de/dc8/a00325.html" target="_top" xlink:title="Implementation of the CasesFile class. ">
<polygon fill="white" stroke="black" points="705,-0.5 705,-19.5 791,-19.5 791,-0.5 705,-0.5"/>
<text text-anchor="middle" x="748" y="-7.5" font-family="Helvetica,sans-Serif" font-size="10.00">InfectedFile.cpp</text>
</a>
</g>
</g>
<!-- Node1&#45;&gt;Node8 -->
<g id="edge7" class="edge"><title>Node1&#45;&gt;Node8</title>
<path fill="none" stroke="midnightblue" d="M1194.88,-61.8422C1118.68,-55.4935 945.126,-40.059 800,-20 797.096,-19.5986 794.105,-19.1569 791.095,-18.6913"/>
<polygon fill="midnightblue" stroke="midnightblue" points="1194.71,-65.3406 1204.97,-62.6772 1195.29,-58.3645 1194.71,-65.3406"/>
</g>
<!-- Node9 -->
<g id="node9" class="node"><title>Node9</title>
<g id="a_node9"><a xlink:href="../../db/d7e/a00372.html" target="_top" xlink:title="Implementation of the CasesFile class. ">
<polygon fill="white" stroke="black" points="809.5,-0.5 809.5,-19.5 896.5,-19.5 896.5,-0.5 809.5,-0.5"/>
<text text-anchor="middle" x="853" y="-7.5" font-family="Helvetica,sans-Serif" font-size="10.00">PersonsFile.cpp</text>
</a>
</g>
</g>
<!-- Node1&#45;&gt;Node9 -->
<g id="edge8" class="edge"><title>Node1&#45;&gt;Node9</title>
<path fill="none" stroke="midnightblue" d="M1194.83,-60.0985C1133.1,-52.2724 1009.48,-36.1814 905,-20 902.284,-19.5793 899.49,-19.1336 896.674,-18.6746"/>
<polygon fill="midnightblue" stroke="midnightblue" points="1194.54,-63.5902 1204.9,-61.3722 1195.42,-56.6455 1194.54,-63.5902"/>
</g>
<!-- Node10 -->
<g id="node10" class="node"><title>Node10</title>
<g id="a_node10"><a xlink:href="../../d8/de7/a00417.html" target="_top" xlink:title="Implementation of the SummaryFile class. ">
<polygon fill="white" stroke="black" points="914.5,-0.5 914.5,-19.5 1007.5,-19.5 1007.5,-0.5 914.5,-0.5"/>
<text text-anchor="middle" x="961" y="-7.5" font-family="Helvetica,sans-Serif" font-size="10.00">SummaryFile.cpp</text>
</a>
</g>
</g>
<!-- Node1&#45;&gt;Node10 -->
<g id="edge9" class="edge"><title>Node1&#45;&gt;Node10</title>
<path fill="none" stroke="midnightblue" d="M1194.9,-57.2658C1144.4,-47.2772 1056.78,-29.9462 1004.31,-19.5676"/>
<polygon fill="midnightblue" stroke="midnightblue" points="1194.3,-60.714 1204.78,-59.2211 1195.65,-53.8471 1194.3,-60.714"/>
</g>
<!-- Node11 -->
<g id="node11" class="node"><title>Node11</title>
<g id="a_node11"><a xlink:href="../../d4/d82/a00436.html" target="_top" xlink:title="TravellerProfileBuilder.cpp">
<polygon fill="white" stroke="black" points="1025.5,-0.5 1025.5,-19.5 1156.5,-19.5 1156.5,-0.5 1025.5,-0.5"/>
<text text-anchor="middle" x="1091" y="-7.5" font-family="Helvetica,sans-Serif" font-size="10.00">TravellerProfileBuilder.cpp</text>
</a>
</g>
</g>
<!-- Node1&#45;&gt;Node11 -->
<g id="edge10" class="edge"><title>Node1&#45;&gt;Node11</title>
<path fill="none" stroke="midnightblue" d="M1201.97,-52.9058C1175.09,-42.7536 1137.36,-28.5063 1113.55,-19.5164"/>
<polygon fill="midnightblue" stroke="midnightblue" points="1200.75,-56.1851 1211.34,-56.4435 1203.22,-49.6364 1200.75,-56.1851"/>
</g>
<!-- Node12 -->
<g id="node12" class="node"><title>Node12</title>
<g id="a_node12"><a xlink:href="../../dd/d4c/a00177.html" target="_top" xlink:title="Base Class for PopBuilders: Implementation. ">
<polygon fill="white" stroke="black" points="1174.5,-0.5 1174.5,-19.5 1293.5,-19.5 1293.5,-0.5 1174.5,-0.5"/>
<text text-anchor="middle" x="1234" y="-7.5" font-family="Helvetica,sans-Serif" font-size="10.00">AbstractPopBuilder.cpp</text>
</a>
</g>
</g>
<!-- Node1&#45;&gt;Node12 -->
<g id="edge11" class="edge"><title>Node1&#45;&gt;Node12</title>
<path fill="none" stroke="midnightblue" d="M1234,-45.8045C1234,-36.9102 1234,-26.7798 1234,-19.7511"/>
<polygon fill="midnightblue" stroke="midnightblue" points="1230.5,-46.083 1234,-56.083 1237.5,-46.083 1230.5,-46.083"/>
</g>
<!-- Node13 -->
<g id="node13" class="node"><title>Node13</title>
<g id="a_node13"><a xlink:href="../../d0/d2f/a00259.html" target="_top" xlink:title="Initialize populations: implementation. ">
<polygon fill="white" stroke="black" points="1312,-0.5 1312,-19.5 1426,-19.5 1426,-0.5 1312,-0.5"/>
<text text-anchor="middle" x="1369" y="-7.5" font-family="Helvetica,sans-Serif" font-size="10.00">DefaultPopBuilder.cpp</text>
</a>
</g>
</g>
<!-- Node1&#45;&gt;Node13 -->
<g id="edge12" class="edge"><title>Node1&#45;&gt;Node13</title>
<path fill="none" stroke="midnightblue" d="M1264.91,-52.6377C1290.24,-42.504 1325.43,-28.4274 1347.71,-19.5164"/>
<polygon fill="midnightblue" stroke="midnightblue" points="1263.38,-49.4799 1255.39,-56.4435 1265.98,-55.9792 1263.38,-49.4799"/>
</g>
<!-- Node14 -->
<g id="node14" class="node"><title>Node14</title>
<g id="a_node14"><a xlink:href="../../d9/d2a/a00270.html" target="_top" xlink:title="Initialize populations: implementation. ">
<polygon fill="white" stroke="black" points="1444.5,-0.5 1444.5,-19.5 1545.5,-19.5 1545.5,-0.5 1444.5,-0.5"/>
<text text-anchor="middle" x="1495" y="-7.5" font-family="Helvetica,sans-Serif" font-size="10.00">GenPopBuilder.cpp</text>
</a>
</g>
</g>
<!-- Node1&#45;&gt;Node14 -->
<g id="edge13" class="edge"><title>Node1&#45;&gt;Node14</title>
<path fill="none" stroke="midnightblue" d="M1272.99,-56.9326C1321.5,-46.8957 1403.98,-29.8318 1453.59,-19.5678"/>
<polygon fill="midnightblue" stroke="midnightblue" points="1272.26,-53.5091 1263.18,-58.9627 1273.68,-60.364 1272.26,-53.5091"/>
</g>
<!-- Node15 -->
<g id="node15" class="node"><title>Node15</title>
<g id="a_node15"><a xlink:href="../../de/d55/a00323.html" target="_top" xlink:title="Initialize populations: implementation. ">
<polygon fill="white" stroke="black" points="1564,-0.5 1564,-19.5 1674,-19.5 1674,-0.5 1564,-0.5"/>
<text text-anchor="middle" x="1619" y="-7.5" font-family="Helvetica,sans-Serif" font-size="10.00">ImportPopBuilder.cpp</text>
</a>
</g>
</g>
<!-- Node1&#45;&gt;Node15 -->
<g id="edge14" class="edge"><title>Node1&#45;&gt;Node15</title>
<path fill="none" stroke="midnightblue" d="M1273.26,-59.4938C1342.13,-49.834 1484.87,-29.8125 1563.7,-18.7558"/>
<polygon fill="midnightblue" stroke="midnightblue" points="1272.67,-56.0417 1263.25,-60.8969 1273.64,-62.9739 1272.67,-56.0417"/>
</g>
<!-- Node16 -->
<g id="node16" class="node"><title>Node16</title>
<g id="a_node16"><a xlink:href="../../d6/db8/a00376.html" target="_top" xlink:title="Core Population class. ">
<polygon fill="white" stroke="black" points="1692.5,-0.5 1692.5,-19.5 1773.5,-19.5 1773.5,-0.5 1692.5,-0.5"/>
<text text-anchor="middle" x="1733" y="-7.5" font-family="Helvetica,sans-Serif" font-size="10.00">Population.cpp</text>
</a>
</g>
</g>
<!-- Node1&#45;&gt;Node16 -->
<g id="edge15" class="edge"><title>Node1&#45;&gt;Node16</title>
<path fill="none" stroke="midnightblue" d="M1273.62,-62.0764C1352.02,-56.0602 1532.39,-41.0694 1683,-20 1686.06,-19.5723 1689.21,-19.0933 1692.38,-18.5851"/>
<polygon fill="midnightblue" stroke="midnightblue" points="1272.95,-58.6169 1263.25,-62.8654 1273.49,-65.5967 1272.95,-58.6169"/>
</g>
<!-- Node17 -->
<g id="node17" class="node"><title>Node17</title>
<g id="a_node17"><a xlink:href="../../d7/d6e/a00190.html" target="_top" xlink:title="Header for the command line controller. ">
<polygon fill="white" stroke="black" points="1792,-0.5 1792,-19.5 1892,-19.5 1892,-0.5 1792,-0.5"/>
<text text-anchor="middle" x="1842" y="-7.5" font-family="Helvetica,sans-Serif" font-size="10.00">BaseController.cpp</text>
</a>
</g>
</g>
<!-- Node1&#45;&gt;Node17 -->
<g id="edge16" class="edge"><title>Node1&#45;&gt;Node17</title>
<path fill="none" stroke="midnightblue" d="M1273.21,-62.6846C1363.28,-57.1687 1591.82,-42.0467 1782,-20 1785.24,-19.624 1788.58,-19.2071 1791.94,-18.7647"/>
<polygon fill="midnightblue" stroke="midnightblue" points="1272.95,-59.1942 1263.18,-63.2944 1273.37,-66.1813 1272.95,-59.1942"/>
</g>
<!-- Node18 -->
<g id="node18" class="node"><title>Node18</title>
<g id="a_node18"><a xlink:href="../../da/de7/a00210.html" target="_top" xlink:title="Header for the command line controller. ">
<polygon fill="white" stroke="black" points="1910.5,-0.5 1910.5,-19.5 1999.5,-19.5 1999.5,-0.5 1910.5,-0.5"/>
<text text-anchor="middle" x="1955" y="-7.5" font-family="Helvetica,sans-Serif" font-size="10.00">CliController.cpp</text>
</a>
</g>
</g>
<!-- Node1&#45;&gt;Node18 -->
<g id="edge17" class="edge"><title>Node1&#45;&gt;Node18</title>
<path fill="none" stroke="midnightblue" d="M1273.27,-63.6924C1376.45,-59.967 1663.57,-47.7277 1901,-20 1904.02,-19.6472 1907.13,-19.242 1910.26,-18.803"/>
<polygon fill="midnightblue" stroke="midnightblue" points="1272.89,-60.2037 1263.02,-64.0562 1273.14,-67.1993 1272.89,-60.2037"/>
</g>
<!-- Node19 -->
<g id="node19" class="node"><title>Node19</title>
<g id="a_node19"><a xlink:href="../../d3/dc9/a00355.html" target="_top" xlink:title="Main program: command line handling. ">
<polygon fill="white" stroke="black" points="2017,-0.5 2017,-19.5 2073,-19.5 2073,-0.5 2017,-0.5"/>
<text text-anchor="middle" x="2045" y="-7.5" font-family="Helvetica,sans-Serif" font-size="10.00">main.cpp</text>
</a>
</g>
</g>
<!-- Node1&#45;&gt;Node19 -->
<g id="edge18" class="edge"><title>Node1&#45;&gt;Node19</title>
<path fill="none" stroke="midnightblue" d="M1273.34,-65.2103C1387.56,-65.2858 1728.79,-61.7244 2008,-20 2010.88,-19.5701 2013.86,-19.0221 2016.82,-18.4093"/>
<polygon fill="midnightblue" stroke="midnightblue" points="1273.02,-61.7098 1263.01,-65.1928 1273,-68.7098 1273.02,-61.7098"/>
</g>
<!-- Node20 -->
<g id="node20" class="node"><title>Node20</title>
<g id="a_node20"><a xlink:href="../../d9/d95/a00400.html" target="_top" xlink:title="Implementation for the SimBuilder class. ">
<polygon fill="white" stroke="black" points="2091.5,-0.5 2091.5,-19.5 2174.5,-19.5 2174.5,-0.5 2091.5,-0.5"/>
<text text-anchor="middle" x="2133" y="-7.5" font-family="Helvetica,sans-Serif" font-size="10.00">SimBuilder.cpp</text>
</a>
</g>
</g>
<!-- Node1&#45;&gt;Node20 -->
<g id="edge19" class="edge"><title>Node1&#45;&gt;Node20</title>
<path fill="none" stroke="midnightblue" d="M1273.63,-64.5581C1394.87,-62.85 1771.35,-54.8987 2081,-20 2084.37,-19.6203 2087.85,-19.1624 2091.34,-18.6568"/>
<polygon fill="midnightblue" stroke="midnightblue" points="1273.31,-61.062 1263.36,-64.6963 1273.41,-68.0613 1273.31,-61.062"/>
</g>
<!-- Node21 -->
<g id="node21" class="node"><title>Node21</title>
<g id="a_node21"><a xlink:href="../../d5/d35/a00266.html" target="_top" xlink:title="Utilities for interaction with filesystem. ">
<polygon fill="white" stroke="black" points="2193,-0.5 2193,-19.5 2261,-19.5 2261,-0.5 2193,-0.5"/>
<text text-anchor="middle" x="2227" y="-7.5" font-family="Helvetica,sans-Serif" font-size="10.00">FileSys.cpp</text>
</a>
</g>
</g>
<!-- Node1&#45;&gt;Node21 -->
<g id="edge20" class="edge"><title>Node1&#45;&gt;Node21</title>
<path fill="none" stroke="midnightblue" d="M1273.55,-65.3035C1404.01,-65.8405 1832.39,-63.9041 2183,-20 2186.25,-19.5931 2189.62,-19.0775 2192.98,-18.4997"/>
<polygon fill="midnightblue" stroke="midnightblue" points="1273.28,-61.8022 1263.26,-65.2532 1273.25,-68.8021 1273.28,-61.8022"/>
</g>
<!-- Node22 -->
<g id="node22" class="node"><title>Node22</title>
<g id="a_node22"><a xlink:href="../../db/d95/a00391.html" target="_top" xlink:title="Implementation of ptree utils. ">
<polygon fill="white" stroke="black" points="2279.5,-0.5 2279.5,-19.5 2398.5,-19.5 2398.5,-0.5 2279.5,-0.5"/>
<text text-anchor="middle" x="2339" y="-7.5" font-family="Helvetica,sans-Serif" font-size="10.00">RunConfigManager.cpp</text>
</a>
</g>
</g>
<!-- Node1&#45;&gt;Node22 -->
<g id="edge21" class="edge"><title>Node1&#45;&gt;Node22</title>
<path fill="none" stroke="midnightblue" d="M1273.37,-64.5128C1410.87,-62.5512 1882.37,-53.6352 2270,-20 2273.01,-19.7389 2276.09,-19.443 2279.2,-19.1215"/>
<polygon fill="midnightblue" stroke="midnightblue" points="1273.26,-61.0139 1263.31,-64.6523 1273.36,-68.0132 1273.26,-61.0139"/>
</g>
</g>
</svg>
        <g id="navigator" transform="translate(0 0)" fill="#404254">
                <rect fill="#f2f5e9" fill-opacity="0.5" stroke="#606060" stroke-width=".5" x="0" y="0" width="60" height="60"/>
                <use id="zoomplus" xlink:href="#zoomPlus" x="17" y="9" onmousedown="handleZoom(evt,'in')"/>
                <use id="zoomminus" xlink:href="#zoomMin" x="42" y="9" onmousedown="handleZoom(evt,'out')"/>
                <use id="reset" xlink:href="#resetDef" x="30" y="36" onmousedown="handleReset()"/>
                <g id="arrowUp" xlink:href="#dirArrow" transform="translate(30 24)" onmousedown="handlePan(0,-1)">
                  <use xlink:href="#rim" fill="#404040">
                        <set attributeName="fill" to="#808080" begin="arrowUp.mouseover" end="arrowUp.mouseout"/>
                  </use>
                  <path fill="none" stroke="white" stroke-width="1.5" d="M0,-3.0v7 M-2.5,-0.5L0,-3.0L2.5,-0.5"/>
                </g>
                <g id="arrowRight" xlink:href="#dirArrow" transform="rotate(90) translate(36 -43)" onmousedown="handlePan(1,0)">
                  <use xlink:href="#rim" fill="#404040">
                        <set attributeName="fill" to="#808080" begin="arrowRight.mouseover" end="arrowRight.mouseout"/>
                  </use>
                  <path fill="none" stroke="white" stroke-width="1.5" d="M0,-3.0v7 M-2.5,-0.5L0,-3.0L2.5,-0.5"/>
                </g>
                <g id="arrowDown" xlink:href="#dirArrow" transform="rotate(180) translate(-30 -48)" onmousedown="handlePan(0,1)">
                  <use xlink:href="#rim" fill="#404040">
                        <set attributeName="fill" to="#808080" begin="arrowDown.mouseover" end="arrowDown.mouseout"/>
                  </use>
                  <path fill="none" stroke="white" stroke-width="1.5" d="M0,-3.0v7 M-2.5,-0.5L0,-3.0L2.5,-0.5"/>
                </g>
                <g id="arrowLeft" xlink:href="#dirArrow" transform="rotate(270) translate(-36 17)" onmousedown="handlePan(-1,0)">
                  <use xlink:href="#rim" fill="#404040">
                        <set attributeName="fill" to="#808080" begin="arrowLeft.mouseover" end="arrowLeft.mouseout"/>
                  </use>
                  <path fill="none" stroke="white" stroke-width="1.5" d="M0,-3.0v7 M-2.5,-0.5L0,-3.0L2.5,-0.5"/>
                </g>
        </g>
        <svg viewBox="0 0 15 15" width="100%" height="30px" preserveAspectRatio="xMaxYMin meet">
         <g id="arrow_out" transform="scale(0.3 0.3)">
          <a xlink:href="a00621_org.svg" target="_base">
           <rect id="button" ry="5" rx="5" y="6" x="6" height="38" width="38"
                fill="#f2f5e9" fill-opacity="0.5" stroke="#606060" stroke-width="1.0"/>
           <path id="arrow"
             d="M 11.500037,31.436501 C 11.940474,20.09759 22.043105,11.32322 32.158766,21.979434 L 37.068811,17.246167 C 37.068811,17.246167 37.088388,32 37.088388,32 L 22.160133,31.978069 C 22.160133,31.978069 26.997745,27.140456 26.997745,27.140456 C 18.528582,18.264221 13.291696,25.230495 11.500037,31.436501 z"
             style="fill:#404040;"/>
          </a>
         </g>
        </svg>
</svg>
