<?xml version="1.0" encoding="UTF-8" standalone="no"?>
<!DOCTYPE svg PUBLIC "-//W3C//DTD SVG 1.1//EN"
 "http://www.w3.org/Graphics/SVG/1.1/DTD/svg11.dtd">
<!-- Generated by graphviz version 2.36.0 (20140111.2315)
 -->
<!-- Title: ContactPoolListModel Pages: 1 -->
<svg width="1182pt" height="1624pt"
 viewBox="0.00 0.00 1181.85 1624.00" xmlns="http://www.w3.org/2000/svg" xmlns:xlink="http://www.w3.org/1999/xlink">
<g id="graph0" class="graph" transform="scale(1 1) rotate(0) translate(4 1620)">
<title>ContactPoolListModel</title>
<polygon fill="white" stroke="none" points="-4,4 -4,-1620 1177.85,-1620 1177.85,4 -4,4"/>
<!-- Node1 -->
<g id="node1" class="node"><title>Node1</title>
<polygon fill="#bfbfbf" stroke="black" points="506.853,-1 506.853,-113 634.853,-113 634.853,-1 506.853,-1"/>
<text text-anchor="middle" x="570.853" y="-101" font-family="Helvetica,sans-Serif" font-size="10.00">ContactPoolListModel</text>
<polyline fill="none" stroke="black" points="506.853,-94 634.853,-94 "/>
<text text-anchor="middle" x="570.853" y="-82" font-family="Helvetica,sans-Serif" font-size="10.00"> </text>
<polyline fill="none" stroke="black" points="506.853,-75 634.853,-75 "/>
<text text-anchor="start" x="514.853" y="-63" font-family="Helvetica,sans-Serif" font-size="10.00">+ ContactPoolListModel()</text>
<text text-anchor="start" x="514.853" y="-52" font-family="Helvetica,sans-Serif" font-size="10.00">+ data()</text>
<text text-anchor="start" x="514.853" y="-41" font-family="Helvetica,sans-Serif" font-size="10.00">+ rowCount()</text>
<text text-anchor="start" x="514.853" y="-30" font-family="Helvetica,sans-Serif" font-size="10.00">+ columnCount()</text>
<text text-anchor="start" x="514.853" y="-19" font-family="Helvetica,sans-Serif" font-size="10.00">+ roleNames()</text>
<text text-anchor="start" x="514.853" y="-8" font-family="Helvetica,sans-Serif" font-size="10.00">+ SetPools()</text>
</g>
<!-- Node2 -->
<g id="node2" class="node"><title>Node2</title>
<g id="a_node2"><a xlink:href="../../db/dab/a00089.html" target="_top" xlink:title="{QAbstractListModel\n||}">
<polygon fill="white" stroke="black" points="482.353,-168.5 482.353,-225.5 585.353,-225.5 585.353,-168.5 482.353,-168.5"/>
<text text-anchor="middle" x="533.853" y="-213.5" font-family="Helvetica,sans-Serif" font-size="10.00">QAbstractListModel</text>
<polyline fill="none" stroke="black" points="482.353,-206.5 585.353,-206.5 "/>
<text text-anchor="middle" x="533.853" y="-194.5" font-family="Helvetica,sans-Serif" font-size="10.00"> </text>
<polyline fill="none" stroke="black" points="482.353,-187.5 585.353,-187.5 "/>
<text text-anchor="middle" x="533.853" y="-175.5" font-family="Helvetica,sans-Serif" font-size="10.00"> </text>
</a>
</g>
</g>
<!-- Node2&#45;&gt;Node1 -->
<g id="edge1" class="edge"><title>Node2&#45;&gt;Node1</title>
<path fill="none" stroke="midnightblue" d="M543.864,-158.66C547.614,-144.677 551.956,-128.479 556.048,-113.219"/>
<polygon fill="none" stroke="midnightblue" points="540.461,-157.84 541.252,-168.405 547.222,-159.653 540.461,-157.84"/>
</g>
<!-- Node3 -->
<g id="node3" class="node"><title>Node3</title>
<polygon fill="white" stroke="#bfbfbf" points="603.853,-163 603.853,-231 699.853,-231 699.853,-163 603.853,-163"/>
<text text-anchor="start" x="611.853" y="-219" font-family="Helvetica,sans-Serif" font-size="10.00">std::vector&lt; stride</text>
<text text-anchor="middle" x="651.853" y="-208" font-family="Helvetica,sans-Serif" font-size="10.00">::ContactPool * &gt;</text>
<polyline fill="none" stroke="#bfbfbf" points="603.853,-201 699.853,-201 "/>
<text text-anchor="middle" x="651.853" y="-189" font-family="Helvetica,sans-Serif" font-size="10.00"> </text>
<polyline fill="none" stroke="#bfbfbf" points="603.853,-182 699.853,-182 "/>
<text text-anchor="middle" x="651.853" y="-170" font-family="Helvetica,sans-Serif" font-size="10.00"> </text>
</g>
<!-- Node3&#45;&gt;Node1 -->
<g id="edge2" class="edge"><title>Node3&#45;&gt;Node1</title>
<path fill="none" stroke="#404040" d="M632.452,-162.946C625.477,-151.063 617.345,-137.208 609.319,-123.534"/>
<polygon fill="none" stroke="#404040" points="609.298,-123.498 602.811,-120.349 603.223,-113.149 609.71,-116.299 609.298,-123.498"/>
<text text-anchor="middle" x="643.353" y="-135.5" font-family="Helvetica,sans-Serif" font-size="10.00"> &#45;m_pools</text>
</g>
<!-- Node4 -->
<g id="node4" class="node"><title>Node4</title>
<g id="a_node4"><a xlink:href="../../d4/d3a/a00101.html" target="_top" xlink:title="Represents a group of Persons that potentially have contacts. ">
<polygon fill="white" stroke="black" points="892.353,-280.5 892.353,-469.5 1043.35,-469.5 1043.35,-280.5 892.353,-280.5"/>
<text text-anchor="middle" x="967.853" y="-457.5" font-family="Helvetica,sans-Serif" font-size="10.00">stride::ContactPool</text>
<polyline fill="none" stroke="black" points="892.353,-450.5 1043.35,-450.5 "/>
<text text-anchor="middle" x="967.853" y="-438.5" font-family="Helvetica,sans-Serif" font-size="10.00"> </text>
<polyline fill="none" stroke="black" points="892.353,-431.5 1043.35,-431.5 "/>
<text text-anchor="start" x="900.353" y="-419.5" font-family="Helvetica,sans-Serif" font-size="10.00">+ ContactPool()</text>
<text text-anchor="start" x="900.353" y="-408.5" font-family="Helvetica,sans-Serif" font-size="10.00">+ ContactPool()</text>
<text text-anchor="start" x="900.353" y="-397.5" font-family="Helvetica,sans-Serif" font-size="10.00">+ AddMember()</text>
<text text-anchor="start" x="900.353" y="-386.5" font-family="Helvetica,sans-Serif" font-size="10.00">+ AddExpat()</text>
<text text-anchor="start" x="900.353" y="-375.5" font-family="Helvetica,sans-Serif" font-size="10.00">+ GetMember()</text>
<text text-anchor="start" x="900.353" y="-364.5" font-family="Helvetica,sans-Serif" font-size="10.00">+ RemoveMember()</text>
<text text-anchor="start" x="900.353" y="-353.5" font-family="Helvetica,sans-Serif" font-size="10.00">+ RemoveExpat()</text>
<text text-anchor="start" x="900.353" y="-342.5" font-family="Helvetica,sans-Serif" font-size="10.00">+ GetPool()</text>
<text text-anchor="start" x="900.353" y="-331.5" font-family="Helvetica,sans-Serif" font-size="10.00">+ GetSize()</text>
<text text-anchor="start" x="900.353" y="-320.5" font-family="Helvetica,sans-Serif" font-size="10.00">+ GetId()</text>
<text text-anchor="start" x="900.353" y="-309.5" font-family="Helvetica,sans-Serif" font-size="10.00">and 11 more...</text>
<text text-anchor="start" x="900.353" y="-298.5" font-family="Helvetica,sans-Serif" font-size="10.00">&#45; UpdateExpatsAfterRemoval()</text>
<text text-anchor="start" x="900.353" y="-287.5" font-family="Helvetica,sans-Serif" font-size="10.00">&#45; Swap()</text>
</a>
</g>
</g>
<!-- Node4&#45;&gt;Node3 -->
<g id="edge3" class="edge"><title>Node4&#45;&gt;Node3</title>
<path fill="none" stroke="#404040" d="M892.163,-331.844C836.421,-300.798 761.716,-259.19 710.48,-230.653"/>
<polygon fill="none" stroke="#404040" points="710.401,-230.609 703.213,-231.184 699.918,-224.77 707.106,-224.195 710.401,-230.609"/>
<text text-anchor="middle" x="788.353" y="-253.5" font-family="Helvetica,sans-Serif" font-size="10.00"> +elements</text>
</g>
<!-- Node5 -->
<g id="node5" class="node"><title>Node5</title>
<polygon fill="white" stroke="#bfbfbf" points="632.853,-524 632.853,-592 728.853,-592 728.853,-524 632.853,-524"/>
<text text-anchor="start" x="640.853" y="-580" font-family="Helvetica,sans-Serif" font-size="10.00">std::vector&lt; stride</text>
<text text-anchor="middle" x="680.853" y="-569" font-family="Helvetica,sans-Serif" font-size="10.00">::Person * &gt;</text>
<polyline fill="none" stroke="#bfbfbf" points="632.853,-562 728.853,-562 "/>
<text text-anchor="middle" x="680.853" y="-550" font-family="Helvetica,sans-Serif" font-size="10.00"> </text>
<polyline fill="none" stroke="#bfbfbf" points="632.853,-543 728.853,-543 "/>
<text text-anchor="middle" x="680.853" y="-531" font-family="Helvetica,sans-Serif" font-size="10.00"> </text>
</g>
<!-- Node5&#45;&gt;Node4 -->
<g id="edge4" class="edge"><title>Node5&#45;&gt;Node4</title>
<path fill="none" stroke="#404040" d="M728.89,-526.705C770.542,-500.437 831.831,-461.784 881.91,-430.201"/>
<polygon fill="none" stroke="#404040" points="881.941,-430.182 884.882,-423.598 892.091,-423.78 889.15,-430.364 881.941,-430.182"/>
<text text-anchor="middle" x="820.353" y="-491.5" font-family="Helvetica,sans-Serif" font-size="10.00"> &#45;m_members</text>
</g>
<!-- Node6 -->
<g id="node6" class="node"><title>Node6</title>
<g id="a_node6"><a xlink:href="../../d2/df5/a00137.html" target="_top" xlink:title="Store and handle person data. ">
<polygon fill="white" stroke="black" points="618.853,-668.5 618.853,-835.5 698.853,-835.5 698.853,-668.5 618.853,-668.5"/>
<text text-anchor="middle" x="658.853" y="-823.5" font-family="Helvetica,sans-Serif" font-size="10.00">stride::Person</text>
<polyline fill="none" stroke="black" points="618.853,-816.5 698.853,-816.5 "/>
<text text-anchor="middle" x="658.853" y="-804.5" font-family="Helvetica,sans-Serif" font-size="10.00"> </text>
<polyline fill="none" stroke="black" points="618.853,-797.5 698.853,-797.5 "/>
<text text-anchor="start" x="626.853" y="-785.5" font-family="Helvetica,sans-Serif" font-size="10.00">+ Person()</text>
<text text-anchor="start" x="626.853" y="-774.5" font-family="Helvetica,sans-Serif" font-size="10.00">+ Person()</text>
<text text-anchor="start" x="626.853" y="-763.5" font-family="Helvetica,sans-Serif" font-size="10.00">+ operator!=()</text>
<text text-anchor="start" x="626.853" y="-752.5" font-family="Helvetica,sans-Serif" font-size="10.00">+ GetAge()</text>
<text text-anchor="start" x="626.853" y="-741.5" font-family="Helvetica,sans-Serif" font-size="10.00">+ GetBelief()</text>
<text text-anchor="start" x="626.853" y="-730.5" font-family="Helvetica,sans-Serif" font-size="10.00">+ GetBelief()</text>
<text text-anchor="start" x="626.853" y="-719.5" font-family="Helvetica,sans-Serif" font-size="10.00">+ GetPoolId()</text>
<text text-anchor="start" x="626.853" y="-708.5" font-family="Helvetica,sans-Serif" font-size="10.00">+ GetGender()</text>
<text text-anchor="start" x="626.853" y="-697.5" font-family="Helvetica,sans-Serif" font-size="10.00">+ GetHealth()</text>
<text text-anchor="start" x="626.853" y="-686.5" font-family="Helvetica,sans-Serif" font-size="10.00">+ GetHealth()</text>
<text text-anchor="start" x="626.853" y="-675.5" font-family="Helvetica,sans-Serif" font-size="10.00">and 27 more...</text>
</a>
</g>
</g>
<!-- Node6&#45;&gt;Node5 -->
<g id="edge5" class="edge"><title>Node6&#45;&gt;Node5</title>
<path fill="none" stroke="#404040" d="M668.311,-668.46C670.833,-646.45 673.465,-623.475 675.663,-604.291"/>
<polygon fill="none" stroke="#404040" points="675.674,-604.201 672.383,-597.785 677.04,-592.279 680.331,-598.696 675.674,-604.201"/>
<text text-anchor="middle" x="698.353" y="-630.5" font-family="Helvetica,sans-Serif" font-size="10.00"> +elements</text>
</g>
<!-- Node25 -->
<g id="node25" class="node"><title>Node25</title>
<polygon fill="white" stroke="#bfbfbf" points="911.353,-518.5 911.353,-597.5 1024.35,-597.5 1024.35,-518.5 911.353,-518.5"/>
<text text-anchor="start" x="919.353" y="-585.5" font-family="Helvetica,sans-Serif" font-size="10.00">std::unordered_map</text>
<text text-anchor="start" x="919.353" y="-574.5" font-family="Helvetica,sans-Serif" font-size="10.00">&lt; const stride::Person</text>
<text text-anchor="middle" x="967.853" y="-563.5" font-family="Helvetica,sans-Serif" font-size="10.00"> *, std::size_t &gt;</text>
<polyline fill="none" stroke="#bfbfbf" points="911.353,-556.5 1024.35,-556.5 "/>
<text text-anchor="middle" x="967.853" y="-544.5" font-family="Helvetica,sans-Serif" font-size="10.00"> </text>
<polyline fill="none" stroke="#bfbfbf" points="911.353,-537.5 1024.35,-537.5 "/>
<text text-anchor="middle" x="967.853" y="-525.5" font-family="Helvetica,sans-Serif" font-size="10.00"> </text>
</g>
<!-- Node6&#45;&gt;Node25 -->
<g id="edge27" class="edge"><title>Node6&#45;&gt;Node25</title>
<path fill="none" stroke="#404040" d="M698.933,-726.096C750.105,-694.3 839.377,-638.83 900.941,-600.576"/>
<polygon fill="none" stroke="#404040" points="901.142,-600.452 904.127,-593.887 911.335,-594.118 908.349,-600.682 901.142,-600.452"/>
<text text-anchor="middle" x="883.353" y="-630.5" font-family="Helvetica,sans-Serif" font-size="10.00"> +keys</text>
</g>
<!-- Node7 -->
<g id="node7" class="node"><title>Node7</title>
<g id="a_node7"><a xlink:href="../../db/d8e/a00482.html" target="_top" xlink:title="{double\n||}">
<polygon fill="white" stroke="black" points="843.353,-966.5 843.353,-1023.5 888.353,-1023.5 888.353,-966.5 843.353,-966.5"/>
<text text-anchor="middle" x="865.853" y="-1011.5" font-family="Helvetica,sans-Serif" font-size="10.00">double</text>
<polyline fill="none" stroke="black" points="843.353,-1004.5 888.353,-1004.5 "/>
<text text-anchor="middle" x="865.853" y="-992.5" font-family="Helvetica,sans-Serif" font-size="10.00"> </text>
<polyline fill="none" stroke="black" points="843.353,-985.5 888.353,-985.5 "/>
<text text-anchor="middle" x="865.853" y="-973.5" font-family="Helvetica,sans-Serif" font-size="10.00"> </text>
</a>
</g>
</g>
<!-- Node7&#45;&gt;Node6 -->
<g id="edge6" class="edge"><title>Node7&#45;&gt;Node6</title>
<path fill="none" stroke="#404040" d="M861.872,-966.228C856.202,-935.568 843.162,-886.288 814.853,-854 785.806,-820.87 743.356,-794.345 710.07,-776.806"/>
<polygon fill="none" stroke="#404040" points="709.84,-776.688 702.675,-777.505 699.165,-771.206 706.33,-770.389 709.84,-776.688"/>
<text text-anchor="middle" x="846.853" y="-862.5" font-family="Helvetica,sans-Serif" font-size="10.00"> &#45;m_age</text>
</g>
<!-- Node8 -->
<g id="node8" class="node"><title>Node8</title>
<g id="a_node8"><a xlink:href="../../d1/d09/a00077.html" target="_top" xlink:title="{stride::ContactPoolType\l::IdSubscriptArray\&lt; unsigned int \&gt;\n||+ IdSubscriptArray()\l+ IdSubscriptArray()\l+ IdSubscriptArray()\l+ IdSubscriptArray()\l+ operator[]()\l+ operator[]()\l+ at()\l+ at()\l}">
<polygon fill="white" stroke="black" points="233.853,-922.5 233.853,-1067.5 399.853,-1067.5 399.853,-922.5 233.853,-922.5"/>
<text text-anchor="start" x="241.853" y="-1055.5" font-family="Helvetica,sans-Serif" font-size="10.00">stride::ContactPoolType</text>
<text text-anchor="middle" x="316.853" y="-1044.5" font-family="Helvetica,sans-Serif" font-size="10.00">::IdSubscriptArray&lt; unsigned int &gt;</text>
<polyline fill="none" stroke="black" points="233.853,-1037.5 399.853,-1037.5 "/>
<text text-anchor="middle" x="316.853" y="-1025.5" font-family="Helvetica,sans-Serif" font-size="10.00"> </text>
<polyline fill="none" stroke="black" points="233.853,-1018.5 399.853,-1018.5 "/>
<text text-anchor="start" x="241.853" y="-1006.5" font-family="Helvetica,sans-Serif" font-size="10.00">+ IdSubscriptArray()</text>
<text text-anchor="start" x="241.853" y="-995.5" font-family="Helvetica,sans-Serif" font-size="10.00">+ IdSubscriptArray()</text>
<text text-anchor="start" x="241.853" y="-984.5" font-family="Helvetica,sans-Serif" font-size="10.00">+ IdSubscriptArray()</text>
<text text-anchor="start" x="241.853" y="-973.5" font-family="Helvetica,sans-Serif" font-size="10.00">+ IdSubscriptArray()</text>
<text text-anchor="start" x="241.853" y="-962.5" font-family="Helvetica,sans-Serif" font-size="10.00">+ operator[]()</text>
<text text-anchor="start" x="241.853" y="-951.5" font-family="Helvetica,sans-Serif" font-size="10.00">+ operator[]()</text>
<text text-anchor="start" x="241.853" y="-940.5" font-family="Helvetica,sans-Serif" font-size="10.00">+ at()</text>
<text text-anchor="start" x="241.853" y="-929.5" font-family="Helvetica,sans-Serif" font-size="10.00">+ at()</text>
</a>
</g>
</g>
<!-- Node8&#45;&gt;Node6 -->
<g id="edge7" class="edge"><title>Node8&#45;&gt;Node6</title>
<path fill="none" stroke="#404040" d="M352.174,-922.184C368.542,-896.432 390.503,-869.866 417.853,-854 483.573,-815.875 520.613,-871.376 587.853,-836 595.698,-831.872 603.046,-826.484 609.817,-820.434"/>
<polygon fill="none" stroke="#404040" points="610.072,-820.186 611.592,-813.137 618.683,-811.829 617.163,-818.878 610.072,-820.186"/>
<text text-anchor="middle" x="445.853" y="-862.5" font-family="Helvetica,sans-Serif" font-size="10.00"> &#45;m_pool_ids</text>
</g>
<!-- Node9 -->
<g id="node9" class="node"><title>Node9</title>
<g id="a_node9"><a xlink:title="STL class. ">
<polygon fill="white" stroke="#bfbfbf" points="229.353,-1353 229.353,-1421 336.353,-1421 336.353,-1353 229.353,-1353"/>
<text text-anchor="start" x="237.353" y="-1409" font-family="Helvetica,sans-Serif" font-size="10.00">std::array&lt; unsigned</text>
<text text-anchor="middle" x="282.853" y="-1398" font-family="Helvetica,sans-Serif" font-size="10.00"> int, NumOfTypes()&gt;</text>
<polyline fill="none" stroke="#bfbfbf" points="229.353,-1391 336.353,-1391 "/>
<text text-anchor="middle" x="282.853" y="-1379" font-family="Helvetica,sans-Serif" font-size="10.00"> </text>
<polyline fill="none" stroke="#bfbfbf" points="229.353,-1372 336.353,-1372 "/>
<text text-anchor="middle" x="282.853" y="-1360" font-family="Helvetica,sans-Serif" font-size="10.00"> </text>
</a>
</g>
</g>
<!-- Node9&#45;&gt;Node8 -->
<g id="edge8" class="edge"><title>Node9&#45;&gt;Node8</title>
<path fill="none" stroke="midnightblue" d="M286.635,-1342.62C292.433,-1276.12 303.581,-1148.24 310.595,-1067.78"/>
<polygon fill="none" stroke="midnightblue" points="283.134,-1342.48 285.752,-1352.75 290.107,-1343.09 283.134,-1342.48"/>
</g>
<!-- Node10 -->
<g id="node10" class="node"><title>Node10</title>
<polygon fill="white" stroke="#bfbfbf" points="302.353,-1558.5 302.353,-1615.5 331.353,-1615.5 331.353,-1558.5 302.353,-1558.5"/>
<text text-anchor="middle" x="316.853" y="-1603.5" font-family="Helvetica,sans-Serif" font-size="10.00">T</text>
<polyline fill="none" stroke="#bfbfbf" points="302.353,-1596.5 331.353,-1596.5 "/>
<text text-anchor="middle" x="316.853" y="-1584.5" font-family="Helvetica,sans-Serif" font-size="10.00"> </text>
<polyline fill="none" stroke="#bfbfbf" points="302.353,-1577.5 331.353,-1577.5 "/>
<text text-anchor="middle" x="316.853" y="-1565.5" font-family="Helvetica,sans-Serif" font-size="10.00"> </text>
</g>
<!-- Node10&#45;&gt;Node9 -->
<g id="edge9" class="edge"><title>Node10&#45;&gt;Node9</title>
<path fill="none" stroke="#404040" d="M302.311,-1563.92C298.196,-1556.6 294.202,-1548.21 291.853,-1540 281.858,-1505.04 280.005,-1463.77 280.431,-1433.06"/>
<polygon fill="none" stroke="#404040" points="280.432,-1433.01 276.577,-1426.91 280.721,-1421.01 284.575,-1427.1 280.432,-1433.01"/>
<text text-anchor="middle" x="316.353" y="-1531.5" font-family="Helvetica,sans-Serif" font-size="10.00"> +elements</text>
</g>
<!-- Node12 -->
<g id="node12" class="node"><title>Node12</title>
<g id="a_node12"><a xlink:title="STL class. ">
<polygon fill="white" stroke="#bfbfbf" points="304.353,-1446.5 304.353,-1503.5 453.353,-1503.5 453.353,-1446.5 304.353,-1446.5"/>
<text text-anchor="middle" x="378.853" y="-1491.5" font-family="Helvetica,sans-Serif" font-size="10.00">std::array&lt; T, NumOfTypes()&gt;</text>
<polyline fill="none" stroke="#bfbfbf" points="304.353,-1484.5 453.353,-1484.5 "/>
<text text-anchor="middle" x="378.853" y="-1472.5" font-family="Helvetica,sans-Serif" font-size="10.00"> </text>
<polyline fill="none" stroke="#bfbfbf" points="304.353,-1465.5 453.353,-1465.5 "/>
<text text-anchor="middle" x="378.853" y="-1453.5" font-family="Helvetica,sans-Serif" font-size="10.00"> </text>
</a>
</g>
</g>
<!-- Node10&#45;&gt;Node12 -->
<g id="edge12" class="edge"><title>Node10&#45;&gt;Node12</title>
<path fill="none" stroke="#404040" d="M331.389,-1560.21C339.108,-1546.52 348.745,-1529.42 357.315,-1514.21"/>
<polygon fill="none" stroke="#404040" points="357.432,-1514.01 356.893,-1506.81 363.324,-1503.55 363.863,-1510.74 357.432,-1514.01"/>
<text text-anchor="middle" x="372.353" y="-1531.5" font-family="Helvetica,sans-Serif" font-size="10.00"> +elements</text>
</g>
<!-- Node24 -->
<g id="node24" class="node"><title>Node24</title>
<g id="a_node24"><a xlink:title="STL class. ">
<polygon fill="white" stroke="#bfbfbf" points="492.353,-723.5 492.353,-780.5 579.353,-780.5 579.353,-723.5 492.353,-723.5"/>
<text text-anchor="middle" x="535.853" y="-768.5" font-family="Helvetica,sans-Serif" font-size="10.00">std::vector&lt; T &gt;</text>
<polyline fill="none" stroke="#bfbfbf" points="492.353,-761.5 579.353,-761.5 "/>
<text text-anchor="middle" x="535.853" y="-749.5" font-family="Helvetica,sans-Serif" font-size="10.00"> </text>
<polyline fill="none" stroke="#bfbfbf" points="492.353,-742.5 579.353,-742.5 "/>
<text text-anchor="middle" x="535.853" y="-730.5" font-family="Helvetica,sans-Serif" font-size="10.00"> </text>
</a>
</g>
</g>
<!-- Node10&#45;&gt;Node24 -->
<g id="edge25" class="edge"><title>Node10&#45;&gt;Node24</title>
<path fill="none" stroke="#404040" d="M302.129,-1584.14C240.05,-1575.91 2.85306,-1540.26 2.85306,-1476 2.85306,-1476 2.85306,-1476 2.85306,-994 2.85306,-948.76 -8.55917,-927.492 21.8531,-894 83.7343,-825.852 359.893,-778.465 479.886,-760.731"/>
<polygon fill="none" stroke="#404040" points="480.148,-760.693 485.507,-755.869 492.022,-758.96 486.662,-763.785 480.148,-760.693"/>
<text text-anchor="middle" x="27.3531" y="-1258.5" font-family="Helvetica,sans-Serif" font-size="10.00"> +elements</text>
</g>
<!-- Node26 -->
<g id="node26" class="node"><title>Node26</title>
<g id="a_node26"><a xlink:title="STL class. ">
<polygon fill="white" stroke="#bfbfbf" points="471.353,-1441 471.353,-1509 574.353,-1509 574.353,-1441 471.353,-1441"/>
<text text-anchor="start" x="479.353" y="-1497" font-family="Helvetica,sans-Serif" font-size="10.00">std::unordered_map</text>
<text text-anchor="middle" x="522.853" y="-1486" font-family="Helvetica,sans-Serif" font-size="10.00">&lt; K, T &gt;</text>
<polyline fill="none" stroke="#bfbfbf" points="471.353,-1479 574.353,-1479 "/>
<text text-anchor="middle" x="522.853" y="-1467" font-family="Helvetica,sans-Serif" font-size="10.00"> </text>
<polyline fill="none" stroke="#bfbfbf" points="471.353,-1460 574.353,-1460 "/>
<text text-anchor="middle" x="522.853" y="-1448" font-family="Helvetica,sans-Serif" font-size="10.00"> </text>
</a>
</g>
</g>
<!-- Node10&#45;&gt;Node26 -->
<g id="edge31" class="edge"><title>Node10&#45;&gt;Node26</title>
<path fill="none" stroke="#404040" d="M331.74,-1578.36C356.439,-1565.64 407.653,-1539.14 460.694,-1510.58"/>
<polygon fill="none" stroke="#404040" points="460.76,-1510.55 464.14,-1504.18 471.32,-1504.85 467.94,-1511.22 460.76,-1510.55"/>
<text text-anchor="middle" x="451.353" y="-1531.5" font-family="Helvetica,sans-Serif" font-size="10.00"> +elements</text>
</g>
<!-- Node11 -->
<g id="node11" class="node"><title>Node11</title>
<g id="a_node11"><a xlink:href="../../d1/d09/a00077.html" target="_top" xlink:title="An std::array modified to enable subscripting with the constact pool type indentifiers. ">
<polygon fill="white" stroke="black" points="312.853,-1188.5 312.853,-1333.5 434.853,-1333.5 434.853,-1188.5 312.853,-1188.5"/>
<text text-anchor="start" x="320.853" y="-1321.5" font-family="Helvetica,sans-Serif" font-size="10.00">stride::ContactPoolType</text>
<text text-anchor="middle" x="373.853" y="-1310.5" font-family="Helvetica,sans-Serif" font-size="10.00">::IdSubscriptArray&lt; T &gt;</text>
<polyline fill="none" stroke="black" points="312.853,-1303.5 434.853,-1303.5 "/>
<text text-anchor="middle" x="373.853" y="-1291.5" font-family="Helvetica,sans-Serif" font-size="10.00"> </text>
<polyline fill="none" stroke="black" points="312.853,-1284.5 434.853,-1284.5 "/>
<text text-anchor="start" x="320.853" y="-1272.5" font-family="Helvetica,sans-Serif" font-size="10.00">+ IdSubscriptArray()</text>
<text text-anchor="start" x="320.853" y="-1261.5" font-family="Helvetica,sans-Serif" font-size="10.00">+ IdSubscriptArray()</text>
<text text-anchor="start" x="320.853" y="-1250.5" font-family="Helvetica,sans-Serif" font-size="10.00">+ IdSubscriptArray()</text>
<text text-anchor="start" x="320.853" y="-1239.5" font-family="Helvetica,sans-Serif" font-size="10.00">+ IdSubscriptArray()</text>
<text text-anchor="start" x="320.853" y="-1228.5" font-family="Helvetica,sans-Serif" font-size="10.00">+ operator[]()</text>
<text text-anchor="start" x="320.853" y="-1217.5" font-family="Helvetica,sans-Serif" font-size="10.00">+ operator[]()</text>
<text text-anchor="start" x="320.853" y="-1206.5" font-family="Helvetica,sans-Serif" font-size="10.00">+ at()</text>
<text text-anchor="start" x="320.853" y="-1195.5" font-family="Helvetica,sans-Serif" font-size="10.00">+ at()</text>
</a>
</g>
</g>
<!-- Node11&#45;&gt;Node8 -->
<g id="edge10" class="edge"><title>Node11&#45;&gt;Node8</title>
<path fill="none" stroke="orange" d="M356.234,-1178.39C348.596,-1143.02 339.732,-1101.97 332.35,-1067.78"/>
<polygon fill="orange" stroke="orange" points="352.821,-1179.17 358.353,-1188.21 359.663,-1177.7 352.821,-1179.17"/>
<text text-anchor="middle" x="390.853" y="-1139.5" font-family="Helvetica,sans-Serif" font-size="10.00"> &lt; unsigned int &gt;</text>
</g>
<!-- Node12&#45;&gt;Node11 -->
<g id="edge11" class="edge"><title>Node12&#45;&gt;Node11</title>
<path fill="none" stroke="midnightblue" d="M377.956,-1435.97C377.286,-1407.54 376.349,-1367.82 375.54,-1333.51"/>
<polygon fill="none" stroke="midnightblue" points="374.464,-1436.37 378.199,-1446.28 381.463,-1436.2 374.464,-1436.37"/>
</g>
<!-- Node13 -->
<g id="node13" class="node"><title>Node13</title>
<polygon fill="white" stroke="#bfbfbf" points="180.353,-966.5 180.353,-1023.5 215.353,-1023.5 215.353,-966.5 180.353,-966.5"/>
<text text-anchor="middle" x="197.853" y="-1011.5" font-family="Helvetica,sans-Serif" font-size="10.00">char</text>
<polyline fill="none" stroke="#bfbfbf" points="180.353,-1004.5 215.353,-1004.5 "/>
<text text-anchor="middle" x="197.853" y="-992.5" font-family="Helvetica,sans-Serif" font-size="10.00"> </text>
<polyline fill="none" stroke="#bfbfbf" points="180.353,-985.5 215.353,-985.5 "/>
<text text-anchor="middle" x="197.853" y="-973.5" font-family="Helvetica,sans-Serif" font-size="10.00"> </text>
</g>
<!-- Node13&#45;&gt;Node6 -->
<g id="edge13" class="edge"><title>Node13&#45;&gt;Node6</title>
<path fill="none" stroke="#404040" d="M198.49,-966.47C200.441,-944.266 206.591,-913.607 224.853,-894 261.735,-854.401 286.856,-864.942 339.853,-854 393.968,-842.828 538.534,-860.917 587.853,-836 595.766,-832.002 603.156,-826.697 609.951,-820.695"/>
<polygon fill="none" stroke="#404040" points="610.197,-820.458 611.745,-813.415 618.841,-812.135 617.293,-819.178 610.197,-820.458"/>
<text text-anchor="middle" x="364.353" y="-862.5" font-family="Helvetica,sans-Serif" font-size="10.00"> &#45;m_gender</text>
</g>
<!-- Node14 -->
<g id="node14" class="node"><title>Node14</title>
<g id="a_node14"><a xlink:href="../../d5/d1e/a00103.html" target="_top" xlink:title="Specialisation of IdSubscriptArray foor booleans. ">
<polygon fill="white" stroke="black" points="31.3531,-933.5 31.3531,-1056.5 162.353,-1056.5 162.353,-933.5 31.3531,-933.5"/>
<text text-anchor="start" x="39.3531" y="-1044.5" font-family="Helvetica,sans-Serif" font-size="10.00">stride::ContactPoolType</text>
<text text-anchor="middle" x="96.8531" y="-1033.5" font-family="Helvetica,sans-Serif" font-size="10.00">::IdSubscriptArray&lt; bool &gt;</text>
<polyline fill="none" stroke="black" points="31.3531,-1026.5 162.353,-1026.5 "/>
<text text-anchor="middle" x="96.8531" y="-1014.5" font-family="Helvetica,sans-Serif" font-size="10.00"> </text>
<polyline fill="none" stroke="black" points="31.3531,-1007.5 162.353,-1007.5 "/>
<text text-anchor="start" x="39.3531" y="-995.5" font-family="Helvetica,sans-Serif" font-size="10.00">+ IdSubscriptArray()</text>
<text text-anchor="start" x="39.3531" y="-984.5" font-family="Helvetica,sans-Serif" font-size="10.00">+ IdSubscriptArray()</text>
<text text-anchor="start" x="39.3531" y="-973.5" font-family="Helvetica,sans-Serif" font-size="10.00">+ operator[]()</text>
<text text-anchor="start" x="39.3531" y="-962.5" font-family="Helvetica,sans-Serif" font-size="10.00">+ operator[]()</text>
<text text-anchor="start" x="39.3531" y="-951.5" font-family="Helvetica,sans-Serif" font-size="10.00">+ at()</text>
<text text-anchor="start" x="39.3531" y="-940.5" font-family="Helvetica,sans-Serif" font-size="10.00">+ at()</text>
</a>
</g>
</g>
<!-- Node14&#45;&gt;Node6 -->
<g id="edge14" class="edge"><title>Node14&#45;&gt;Node6</title>
<path fill="none" stroke="#404040" d="M120.08,-933.172C134.606,-903.934 156.424,-871.51 186.853,-854 264.167,-809.511 507.689,-875.121 587.853,-836 595.703,-832.169 603.026,-827.03 609.759,-821.177"/>
<polygon fill="none" stroke="#404040" points="609.867,-821.074 611.462,-814.041 618.567,-812.809 616.972,-819.841 609.867,-821.074"/>
<text text-anchor="middle" x="214.853" y="-862.5" font-family="Helvetica,sans-Serif" font-size="10.00"> &#45;m_in_pools</text>
</g>
<!-- Node15 -->
<g id="node15" class="node"><title>Node15</title>
<g id="a_node15"><a xlink:title="STL class. ">
<polygon fill="white" stroke="#bfbfbf" points="69.8531,-1232.5 69.8531,-1289.5 209.853,-1289.5 209.853,-1232.5 69.8531,-1232.5"/>
<text text-anchor="middle" x="139.853" y="-1277.5" font-family="Helvetica,sans-Serif" font-size="10.00">std::bitset&lt; NumOfTypes()&gt;</text>
<polyline fill="none" stroke="#bfbfbf" points="69.8531,-1270.5 209.853,-1270.5 "/>
<text text-anchor="middle" x="139.853" y="-1258.5" font-family="Helvetica,sans-Serif" font-size="10.00"> </text>
<polyline fill="none" stroke="#bfbfbf" points="69.8531,-1251.5 209.853,-1251.5 "/>
<text text-anchor="middle" x="139.853" y="-1239.5" font-family="Helvetica,sans-Serif" font-size="10.00"> </text>
</a>
</g>
</g>
<!-- Node15&#45;&gt;Node14 -->
<g id="edge15" class="edge"><title>Node15&#45;&gt;Node14</title>
<path fill="none" stroke="midnightblue" d="M133.688,-1222.15C126.644,-1178.9 115.021,-1107.54 106.715,-1056.54"/>
<polygon fill="none" stroke="midnightblue" points="130.27,-1222.94 135.333,-1232.25 137.179,-1221.81 130.27,-1222.94"/>
</g>
<!-- Node16 -->
<g id="node16" class="node"><title>Node16</title>
<polygon fill="white" stroke="#bfbfbf" points="638.353,-966.5 638.353,-1023.5 667.353,-1023.5 667.353,-966.5 638.353,-966.5"/>
<text text-anchor="middle" x="652.853" y="-1011.5" font-family="Helvetica,sans-Serif" font-size="10.00">int</text>
<polyline fill="none" stroke="#bfbfbf" points="638.353,-1004.5 667.353,-1004.5 "/>
<text text-anchor="middle" x="652.853" y="-992.5" font-family="Helvetica,sans-Serif" font-size="10.00"> </text>
<polyline fill="none" stroke="#bfbfbf" points="638.353,-985.5 667.353,-985.5 "/>
<text text-anchor="middle" x="652.853" y="-973.5" font-family="Helvetica,sans-Serif" font-size="10.00"> </text>
</g>
<!-- Node16&#45;&gt;Node6 -->
<g id="edge16" class="edge"><title>Node16&#45;&gt;Node6</title>
<path fill="none" stroke="#404040" d="M644.904,-966.402C637.767,-938.186 629.088,-893.079 633.853,-854 634.105,-851.935 634.385,-849.852 634.689,-847.755"/>
<polygon fill="none" stroke="#404040" points="634.733,-847.491 631.762,-840.92 636.685,-835.651 639.656,-842.222 634.733,-847.491"/>
<text text-anchor="middle" x="647.853" y="-862.5" font-family="Helvetica,sans-Serif" font-size="10.00"> &#45;m_id</text>
</g>
<!-- Node17 -->
<g id="node17" class="node"><title>Node17</title>
<polygon fill="white" stroke="#bfbfbf" points="685.353,-966.5 685.353,-1023.5 720.353,-1023.5 720.353,-966.5 685.353,-966.5"/>
<text text-anchor="middle" x="702.853" y="-1011.5" font-family="Helvetica,sans-Serif" font-size="10.00">bool</text>
<polyline fill="none" stroke="#bfbfbf" points="685.353,-1004.5 720.353,-1004.5 "/>
<text text-anchor="middle" x="702.853" y="-992.5" font-family="Helvetica,sans-Serif" font-size="10.00"> </text>
<polyline fill="none" stroke="#bfbfbf" points="685.353,-985.5 720.353,-985.5 "/>
<text text-anchor="middle" x="702.853" y="-973.5" font-family="Helvetica,sans-Serif" font-size="10.00"> </text>
</g>
<!-- Node17&#45;&gt;Node6 -->
<g id="edge17" class="edge"><title>Node17&#45;&gt;Node6</title>
<path fill="none" stroke="#404040" d="M697.806,-966.354C692.513,-937.366 683.9,-890.188 676.117,-847.557"/>
<polygon fill="none" stroke="#404040" points="676.102,-847.477 671.089,-842.293 673.947,-835.672 678.959,-840.856 676.102,-847.477"/>
<text text-anchor="middle" x="718.353" y="-868" font-family="Helvetica,sans-Serif" font-size="10.00"> &#45;m_isTravelling</text>
<text text-anchor="middle" x="718.353" y="-857" font-family="Helvetica,sans-Serif" font-size="10.00">&#45;m_is_participant</text>
</g>
<!-- Node18 -->
<g id="node18" class="node"><title>Node18</title>
<g id="a_node18"><a xlink:href="../../d9/df8/a00096.html" target="_top" xlink:title="Base class for all belief policies. ">
<polygon fill="white" stroke="black" points="738.853,-955.5 738.853,-1034.5 824.853,-1034.5 824.853,-955.5 738.853,-955.5"/>
<text text-anchor="middle" x="781.853" y="-1022.5" font-family="Helvetica,sans-Serif" font-size="10.00">stride::Belief</text>
<polyline fill="none" stroke="black" points="738.853,-1015.5 824.853,-1015.5 "/>
<text text-anchor="middle" x="781.853" y="-1003.5" font-family="Helvetica,sans-Serif" font-size="10.00"> </text>
<polyline fill="none" stroke="black" points="738.853,-996.5 824.853,-996.5 "/>
<text text-anchor="start" x="746.853" y="-984.5" font-family="Helvetica,sans-Serif" font-size="10.00">+ Belief()</text>
<text text-anchor="start" x="746.853" y="-973.5" font-family="Helvetica,sans-Serif" font-size="10.00">+ ~Belief()</text>
<text text-anchor="start" x="746.853" y="-962.5" font-family="Helvetica,sans-Serif" font-size="10.00">+ HasAdopted()</text>
</a>
</g>
</g>
<!-- Node18&#45;&gt;Node6 -->
<g id="edge18" class="edge"><title>Node18&#45;&gt;Node6</title>
<path fill="none" stroke="#404040" d="M782.143,-955.494C780.906,-926.208 775.974,-885.687 759.853,-854 747.581,-829.878 727.415,-807.966 708.317,-790.765"/>
<polygon fill="none" stroke="#404040" points="708.116,-790.59 700.964,-789.666 699.066,-782.71 706.218,-783.633 708.116,-790.59"/>
<text text-anchor="middle" x="789.353" y="-862.5" font-family="Helvetica,sans-Serif" font-size="10.00"> &#45;m_belief</text>
</g>
<!-- Node19 -->
<g id="node19" class="node"><title>Node19</title>
<g id="a_node19"><a xlink:href="../../d8/d17/a00114.html" target="_top" xlink:title="Holds a person&#39;s health data. ">
<polygon fill="white" stroke="black" points="477.353,-895 477.353,-1095 620.353,-1095 620.353,-895 477.353,-895"/>
<text text-anchor="middle" x="548.853" y="-1083" font-family="Helvetica,sans-Serif" font-size="10.00">stride::Health</text>
<polyline fill="none" stroke="black" points="477.353,-1076 620.353,-1076 "/>
<text text-anchor="middle" x="548.853" y="-1064" font-family="Helvetica,sans-Serif" font-size="10.00"> </text>
<polyline fill="none" stroke="black" points="477.353,-1057 620.353,-1057 "/>
<text text-anchor="start" x="485.353" y="-1045" font-family="Helvetica,sans-Serif" font-size="10.00">+ Health()</text>
<text text-anchor="start" x="485.353" y="-1034" font-family="Helvetica,sans-Serif" font-size="10.00">+ GetEndInfectiousness()</text>
<text text-anchor="start" x="485.353" y="-1023" font-family="Helvetica,sans-Serif" font-size="10.00">+ GetEndSymptomatic()</text>
<text text-anchor="start" x="485.353" y="-1012" font-family="Helvetica,sans-Serif" font-size="10.00">+ GetStartInfectiousness()</text>
<text text-anchor="start" x="485.353" y="-1001" font-family="Helvetica,sans-Serif" font-size="10.00">+ GetStartSymptomatic()</text>
<text text-anchor="start" x="485.353" y="-990" font-family="Helvetica,sans-Serif" font-size="10.00">+ IsImmune()</text>
<text text-anchor="start" x="485.353" y="-979" font-family="Helvetica,sans-Serif" font-size="10.00">+ IsInfected()</text>
<text text-anchor="start" x="485.353" y="-968" font-family="Helvetica,sans-Serif" font-size="10.00">+ IsInfectious()</text>
<text text-anchor="start" x="485.353" y="-957" font-family="Helvetica,sans-Serif" font-size="10.00">+ IsRecovered()</text>
<text text-anchor="start" x="485.353" y="-946" font-family="Helvetica,sans-Serif" font-size="10.00">+ IsSusceptible()</text>
<text text-anchor="start" x="485.353" y="-935" font-family="Helvetica,sans-Serif" font-size="10.00">and 6 more...</text>
<text text-anchor="start" x="485.353" y="-924" font-family="Helvetica,sans-Serif" font-size="10.00">&#45; GetDiseaseCounter()</text>
<text text-anchor="start" x="485.353" y="-913" font-family="Helvetica,sans-Serif" font-size="10.00">&#45; IncrementDiseaseCounter()</text>
<text text-anchor="start" x="485.353" y="-902" font-family="Helvetica,sans-Serif" font-size="10.00">&#45; ResetDiseaseCounter()</text>
</a>
</g>
</g>
<!-- Node19&#45;&gt;Node6 -->
<g id="edge19" class="edge"><title>Node19&#45;&gt;Node6</title>
<path fill="none" stroke="#404040" d="M567.61,-894.724C571.782,-880.732 576.812,-866.776 582.853,-854 590.436,-837.962 600.809,-821.981 611.454,-807.62"/>
<polygon fill="none" stroke="#404040" points="611.551,-807.492 612.014,-800.296 618.835,-797.956 618.372,-805.152 611.551,-807.492"/>
<text text-anchor="middle" x="605.853" y="-862.5" font-family="Helvetica,sans-Serif" font-size="10.00"> &#45;m_health</text>
</g>
<!-- Node20 -->
<g id="node20" class="node"><title>Node20</title>
<polygon fill="white" stroke="#bfbfbf" points="485.853,-1232.5 485.853,-1289.5 559.853,-1289.5 559.853,-1232.5 485.853,-1232.5"/>
<text text-anchor="middle" x="522.853" y="-1277.5" font-family="Helvetica,sans-Serif" font-size="10.00">HealthStatus</text>
<polyline fill="none" stroke="#bfbfbf" points="485.853,-1270.5 559.853,-1270.5 "/>
<text text-anchor="middle" x="522.853" y="-1258.5" font-family="Helvetica,sans-Serif" font-size="10.00"> </text>
<polyline fill="none" stroke="#bfbfbf" points="485.853,-1251.5 559.853,-1251.5 "/>
<text text-anchor="middle" x="522.853" y="-1239.5" font-family="Helvetica,sans-Serif" font-size="10.00"> </text>
</g>
<!-- Node20&#45;&gt;Node19 -->
<g id="edge20" class="edge"><title>Node20&#45;&gt;Node19</title>
<path fill="none" stroke="#404040" d="M525.586,-1232.25C528.519,-1202.47 533.364,-1153.27 537.876,-1107.46"/>
<polygon fill="none" stroke="#404040" points="537.9,-1107.21 534.508,-1100.85 539.076,-1095.27 542.469,-1101.63 537.9,-1107.21"/>
<text text-anchor="middle" x="560.353" y="-1139.5" font-family="Helvetica,sans-Serif" font-size="10.00"> &#45;m_status</text>
</g>
<!-- Node21 -->
<g id="node21" class="node"><title>Node21</title>
<polygon fill="white" stroke="#bfbfbf" points="577.853,-1232.5 577.853,-1289.5 671.853,-1289.5 671.853,-1232.5 577.853,-1232.5"/>
<text text-anchor="middle" x="624.853" y="-1277.5" font-family="Helvetica,sans-Serif" font-size="10.00">unsigned short int</text>
<polyline fill="none" stroke="#bfbfbf" points="577.853,-1270.5 671.853,-1270.5 "/>
<text text-anchor="middle" x="624.853" y="-1258.5" font-family="Helvetica,sans-Serif" font-size="10.00"> </text>
<polyline fill="none" stroke="#bfbfbf" points="577.853,-1251.5 671.853,-1251.5 "/>
<text text-anchor="middle" x="624.853" y="-1239.5" font-family="Helvetica,sans-Serif" font-size="10.00"> </text>
</g>
<!-- Node21&#45;&gt;Node19 -->
<g id="edge21" class="edge"><title>Node21&#45;&gt;Node19</title>
<path fill="none" stroke="#404040" d="M618.475,-1232.4C611.521,-1202.92 599.783,-1154.92 587.853,-1114 587.185,-1111.71 586.502,-1109.39 585.806,-1107.06"/>
<polygon fill="none" stroke="#404040" points="585.723,-1106.79 580.152,-1102.21 582.235,-1095.31 587.806,-1099.89 585.723,-1106.79"/>
<text text-anchor="middle" x="656.353" y="-1161.5" font-family="Helvetica,sans-Serif" font-size="10.00"> &#45;m_start_symptomatic</text>
<text text-anchor="middle" x="656.353" y="-1150.5" font-family="Helvetica,sans-Serif" font-size="10.00">&#45;m_disease_counter</text>
<text text-anchor="middle" x="656.353" y="-1139.5" font-family="Helvetica,sans-Serif" font-size="10.00">&#45;m_end_symptomatic</text>
<text text-anchor="middle" x="656.353" y="-1128.5" font-family="Helvetica,sans-Serif" font-size="10.00">&#45;m_end_infectiousness</text>
<text text-anchor="middle" x="656.353" y="-1117.5" font-family="Helvetica,sans-Serif" font-size="10.00">&#45;m_start_infectiousness</text>
</g>
<!-- Node22 -->
<g id="node22" class="node"><title>Node22</title>
<polygon fill="white" stroke="#bfbfbf" points="1077.35,-966.5 1077.35,-1023.5 1120.35,-1023.5 1120.35,-966.5 1077.35,-966.5"/>
<text text-anchor="middle" x="1098.85" y="-1011.5" font-family="Helvetica,sans-Serif" font-size="10.00">size_t</text>
<polyline fill="none" stroke="#bfbfbf" points="1077.35,-1004.5 1120.35,-1004.5 "/>
<text text-anchor="middle" x="1098.85" y="-992.5" font-family="Helvetica,sans-Serif" font-size="10.00"> </text>
<polyline fill="none" stroke="#bfbfbf" points="1077.35,-985.5 1120.35,-985.5 "/>
<text text-anchor="middle" x="1098.85" y="-973.5" font-family="Helvetica,sans-Serif" font-size="10.00"> </text>
</g>
<!-- Node22&#45;&gt;Node4 -->
<g id="edge33" class="edge"><title>Node22&#45;&gt;Node4</title>
<path fill="none" stroke="#404040" d="M1099.01,-966.277C1098.88,-909.726 1096.31,-777.179 1076.85,-668 1064.66,-599.602 1055.56,-583.661 1032.85,-518 1028.65,-505.837 1023.77,-493.302 1018.6,-480.951"/>
<polygon fill="none" stroke="#404040" points="1018.5,-480.715 1012.47,-476.765 1013.8,-469.677 1019.83,-473.627 1018.5,-480.715"/>
<text text-anchor="middle" x="1112.85" y="-641.5" font-family="Helvetica,sans-Serif" font-size="10.00"> &#45;m_pool_id</text>
<text text-anchor="middle" x="1112.85" y="-630.5" font-family="Helvetica,sans-Serif" font-size="10.00">&#45;m_capacity</text>
<text text-anchor="middle" x="1112.85" y="-619.5" font-family="Helvetica,sans-Serif" font-size="10.00">&#45;m_index_immune</text>
</g>
<!-- Node22&#45;&gt;Node6 -->
<g id="edge22" class="edge"><title>Node22&#45;&gt;Node6</title>
<path fill="none" stroke="#404040" d="M1096.46,-966.33C1092.94,-943.418 1084.26,-911.831 1062.85,-894 1025.12,-862.577 1001.05,-889.538 953.853,-876 865.596,-850.684 768.184,-806.707 710.325,-778.769"/>
<polygon fill="none" stroke="#404040" points="710.087,-778.654 702.942,-779.627 699.295,-773.406 706.44,-772.432 710.087,-778.654"/>
<text text-anchor="middle" x="976.853" y="-862.5" font-family="Helvetica,sans-Serif" font-size="10.00"> &#45;m_region</text>
</g>
<!-- Node22&#45;&gt;Node25 -->
<g id="edge28" class="edge"><title>Node22&#45;&gt;Node25</title>
<path fill="none" stroke="#404040" d="M1090.49,-966.245C1083.96,-945.838 1074.11,-917.658 1062.85,-894 1049.91,-866.815 1038.87,-864.02 1027.85,-836 991.308,-743.033 1003.99,-713.408 981.853,-616 981.366,-613.857 980.862,-611.671 980.347,-609.464"/>
<polygon fill="none" stroke="#404040" points="980.299,-609.265 975.02,-604.353 977.524,-597.59 982.803,-602.502 980.299,-609.265"/>
<text text-anchor="middle" x="1052.35" y="-749.5" font-family="Helvetica,sans-Serif" font-size="10.00"> +elements</text>
</g>
<!-- Node23 -->
<g id="node23" class="node"><title>Node23</title>
<polygon fill="white" stroke="#bfbfbf" points="418.353,-966.5 418.353,-1023.5 459.353,-1023.5 459.353,-966.5 418.353,-966.5"/>
<text text-anchor="middle" x="438.853" y="-1011.5" font-family="Helvetica,sans-Serif" font-size="10.00">friend</text>
<polyline fill="none" stroke="#bfbfbf" points="418.353,-1004.5 459.353,-1004.5 "/>
<text text-anchor="middle" x="438.853" y="-992.5" font-family="Helvetica,sans-Serif" font-size="10.00"> </text>
<polyline fill="none" stroke="#bfbfbf" points="418.353,-985.5 459.353,-985.5 "/>
<text text-anchor="middle" x="438.853" y="-973.5" font-family="Helvetica,sans-Serif" font-size="10.00"> </text>
</g>
<!-- Node23&#45;&gt;Node6 -->
<g id="edge23" class="edge"><title>Node23&#45;&gt;Node6</title>
<path fill="none" stroke="#404040" d="M443.859,-966.161C448.297,-945.46 455.951,-916.946 467.853,-894 478.336,-873.79 480.431,-865.879 499.853,-854 533.909,-833.171 553.459,-856.266 587.853,-836 595.603,-831.433 602.919,-825.709 609.695,-819.413"/>
<polygon fill="none" stroke="#404040" points="610.101,-819.008 611.519,-811.938 618.591,-810.529 617.173,-817.599 610.101,-819.008"/>
<text text-anchor="middle" x="535.353" y="-862.5" font-family="Helvetica,sans-Serif" font-size="10.00"> +TravellerIndex</text>
</g>
<!-- Node24&#45;&gt;Node3 -->
<g id="edge34" class="edge"><title>Node24&#45;&gt;Node3</title>
<path fill="none" stroke="orange" d="M540.262,-713.244C543.652,-686.093 548.777,-648.662 554.853,-616 581.728,-471.532 624.775,-301.532 643.118,-231.114"/>
<polygon fill="orange" stroke="orange" points="536.75,-713.125 539.005,-723.478 543.698,-713.979 536.75,-713.125"/>
<text text-anchor="middle" x="636.853" y="-491.5" font-family="Helvetica,sans-Serif" font-size="10.00"> &lt; stride::ContactPool * &gt;</text>
</g>
<!-- Node24&#45;&gt;Node5 -->
<g id="edge24" class="edge"><title>Node24&#45;&gt;Node5</title>
<path fill="none" stroke="orange" d="M539.911,-713.073C544.735,-683.823 555.213,-643.799 577.853,-616 592.114,-598.489 613.255,-585.475 632.678,-576.339"/>
<polygon fill="orange" stroke="orange" points="536.397,-712.911 538.378,-723.319 543.32,-713.947 536.397,-712.911"/>
<text text-anchor="middle" x="622.353" y="-630.5" font-family="Helvetica,sans-Serif" font-size="10.00"> &lt; stride::Person * &gt;</text>
</g>
<!-- Node25&#45;&gt;Node4 -->
<g id="edge26" class="edge"><title>Node25&#45;&gt;Node4</title>
<path fill="none" stroke="#404040" d="M967.853,-518.171C967.853,-507.308 967.853,-494.951 967.853,-482.164"/>
<polygon fill="none" stroke="#404040" points="967.853,-481.807 963.853,-475.807 967.853,-469.807 971.853,-475.807 967.853,-481.807"/>
<text text-anchor="middle" x="992.353" y="-491.5" font-family="Helvetica,sans-Serif" font-size="10.00"> &#45;m_expats</text>
</g>
<!-- Node26&#45;&gt;Node25 -->
<g id="edge29" class="edge"><title>Node26&#45;&gt;Node25</title>
<path fill="none" stroke="orange" d="M577.94,-1435C660.931,-1373.12 816.816,-1244.18 896.853,-1096 987.356,-928.448 979.105,-689.965 971.704,-597.604"/>
<polygon fill="orange" stroke="orange" points="575.85,-1432.19 569.897,-1440.95 580.016,-1437.81 575.85,-1432.19"/>
<text text-anchor="start" x="960.853" y="-998" font-family="Helvetica,sans-Serif" font-size="10.00"> &lt; const stride::Person</text>
<text text-anchor="middle" x="1010.85" y="-987" font-family="Helvetica,sans-Serif" font-size="10.00"> *, std::size_t &gt;</text>
</g>
<!-- Node27 -->
<g id="node27" class="node"><title>Node27</title>
<polygon fill="white" stroke="#bfbfbf" points="508.353,-1558.5 508.353,-1615.5 537.353,-1615.5 537.353,-1558.5 508.353,-1558.5"/>
<text text-anchor="middle" x="522.853" y="-1603.5" font-family="Helvetica,sans-Serif" font-size="10.00">K</text>
<polyline fill="none" stroke="#bfbfbf" points="508.353,-1596.5 537.353,-1596.5 "/>
<text text-anchor="middle" x="522.853" y="-1584.5" font-family="Helvetica,sans-Serif" font-size="10.00"> </text>
<polyline fill="none" stroke="#bfbfbf" points="508.353,-1577.5 537.353,-1577.5 "/>
<text text-anchor="middle" x="522.853" y="-1565.5" font-family="Helvetica,sans-Serif" font-size="10.00"> </text>
</g>
<!-- Node27&#45;&gt;Node26 -->
<g id="edge30" class="edge"><title>Node27&#45;&gt;Node26</title>
<path fill="none" stroke="#404040" d="M522.853,-1558.24C522.853,-1547.07 522.853,-1533.9 522.853,-1521.4"/>
<polygon fill="none" stroke="#404040" points="522.853,-1521.24 518.853,-1515.24 522.853,-1509.24 526.853,-1515.24 522.853,-1521.24"/>
<text text-anchor="middle" x="538.353" y="-1531.5" font-family="Helvetica,sans-Serif" font-size="10.00"> +keys</text>
</g>
<!-- Node28 -->
<g id="node28" class="node"><title>Node28</title>
<polygon fill="white" stroke="#bfbfbf" points="1119.35,-529.5 1119.35,-586.5 1148.35,-586.5 1148.35,-529.5 1119.35,-529.5"/>
<text text-anchor="middle" x="1133.85" y="-574.5" font-family="Helvetica,sans-Serif" font-size="10.00">Id</text>
<polyline fill="none" stroke="#bfbfbf" points="1119.35,-567.5 1148.35,-567.5 "/>
<text text-anchor="middle" x="1133.85" y="-555.5" font-family="Helvetica,sans-Serif" font-size="10.00"> </text>
<polyline fill="none" stroke="#bfbfbf" points="1119.35,-548.5 1148.35,-548.5 "/>
<text text-anchor="middle" x="1133.85" y="-536.5" font-family="Helvetica,sans-Serif" font-size="10.00"> </text>
</g>
<!-- Node28&#45;&gt;Node4 -->
<g id="edge32" class="edge"><title>Node28&#45;&gt;Node4</title>
<path fill="none" stroke="#404040" d="M1125.66,-529.173C1120.91,-515.903 1114.03,-500.283 1104.85,-488 1090.38,-468.631 1071.86,-450.585 1053.14,-434.88"/>
<polygon fill="none" stroke="#404040" points="1052.95,-434.722 1045.77,-434.02 1043.66,-427.125 1050.84,-427.827 1052.95,-434.722"/>
<text text-anchor="middle" x="1142.85" y="-491.5" font-family="Helvetica,sans-Serif" font-size="10.00"> &#45;m_pool_type</text>
</g>
</g>
</svg>
