<?xml version="1.0" encoding="UTF-8" standalone="no"?>
<!DOCTYPE svg PUBLIC "-//W3C//DTD SVG 1.1//EN"
 "http://www.w3.org/Graphics/SVG/1.1/DTD/svg11.dtd">
<!-- Generated by graphviz version 2.36.0 (20140111.2315)
 -->
<!-- Title: stride::util::SVIterator&lt; T, N, Safe, P, R, is_const_iterator &gt; Pages: 1 -->
<svg width="248pt" height="350pt"
 viewBox="0.00 0.00 248.00 350.00" xmlns="http://www.w3.org/2000/svg" xmlns:xlink="http://www.w3.org/1999/xlink">
<g id="graph0" class="graph" transform="scale(1 1) rotate(0) translate(4 346)">
<title>stride::util::SVIterator&lt; T, N, Safe, P, R, is_const_iterator &gt;</title>
<polygon fill="white" stroke="none" points="-4,4 -4,-346 244,-346 244,4 -4,4"/>
<!-- Node1 -->
<g id="node1" class="node"><title>Node1</title>
<polygon fill="#bfbfbf" stroke="black" points="106.5,-1 106.5,-201 217.5,-201 217.5,-1 106.5,-1"/>
<text text-anchor="start" x="114.5" y="-189" font-family="Helvetica,sans-Serif" font-size="10.00">stride::util::SVIterator</text>
<text text-anchor="start" x="114.5" y="-178" font-family="Helvetica,sans-Serif" font-size="10.00">&lt; T, N, Safe, P, R, is</text>
<text text-anchor="middle" x="162" y="-167" font-family="Helvetica,sans-Serif" font-size="10.00">_const_iterator &gt;</text>
<polyline fill="none" stroke="black" points="106.5,-160 217.5,-160 "/>
<text text-anchor="middle" x="162" y="-148" font-family="Helvetica,sans-Serif" font-size="10.00"> </text>
<polyline fill="none" stroke="black" points="106.5,-141 217.5,-141 "/>
<text text-anchor="start" x="114.5" y="-129" font-family="Helvetica,sans-Serif" font-size="10.00">+ SVIterator()</text>
<text text-anchor="start" x="114.5" y="-118" font-family="Helvetica,sans-Serif" font-size="10.00">+ SVIterator()</text>
<text text-anchor="start" x="114.5" y="-107" font-family="Helvetica,sans-Serif" font-size="10.00">+ operator*()</text>
<text text-anchor="start" x="114.5" y="-96" font-family="Helvetica,sans-Serif" font-size="10.00">+ operator&#45;&gt;()</text>
<text text-anchor="start" x="114.5" y="-85" font-family="Helvetica,sans-Serif" font-size="10.00">+ operator++()</text>
<text text-anchor="start" x="114.5" y="-74" font-family="Helvetica,sans-Serif" font-size="10.00">+ operator++()</text>
<text text-anchor="start" x="114.5" y="-63" font-family="Helvetica,sans-Serif" font-size="10.00">+ operator&#45;&#45;()</text>
<text text-anchor="start" x="114.5" y="-52" font-family="Helvetica,sans-Serif" font-size="10.00">+ operator&#45;&#45;()</text>
<text text-anchor="start" x="114.5" y="-41" font-family="Helvetica,sans-Serif" font-size="10.00">+ operator==()</text>
<text text-anchor="start" x="114.5" y="-30" font-family="Helvetica,sans-Serif" font-size="10.00">+ operator!=()</text>
<text text-anchor="start" x="114.5" y="-19" font-family="Helvetica,sans-Serif" font-size="10.00">and 10 more...</text>
<text text-anchor="start" x="114.5" y="-8" font-family="Helvetica,sans-Serif" font-size="10.00">&#45; SVIterator()</text>
</g>
<!-- Node2 -->
<g id="node2" class="node"><title>Node2</title>
<polygon fill="white" stroke="#bfbfbf" points="-0.5,-251 -0.5,-341 126.5,-341 126.5,-251 -0.5,-251"/>
<text text-anchor="start" x="7.5" y="-329" font-family="Helvetica,sans-Serif" font-size="10.00">std::iterator&lt; std</text>
<text text-anchor="start" x="7.5" y="-318" font-family="Helvetica,sans-Serif" font-size="10.00">::random_access_iterator</text>
<text text-anchor="start" x="7.5" y="-307" font-family="Helvetica,sans-Serif" font-size="10.00">_tag, T, std::ptrdiff_t,</text>
<text text-anchor="middle" x="63" y="-296" font-family="Helvetica,sans-Serif" font-size="10.00"> P, R &gt;</text>
<polyline fill="none" stroke="#bfbfbf" points="-0.5,-289 126.5,-289 "/>
<text text-anchor="middle" x="63" y="-277" font-family="Helvetica,sans-Serif" font-size="10.00"> </text>
<polyline fill="none" stroke="#bfbfbf" points="-0.5,-270 126.5,-270 "/>
<text text-anchor="middle" x="63" y="-258" font-family="Helvetica,sans-Serif" font-size="10.00"> </text>
</g>
<!-- Node2&#45;&gt;Node1 -->
<g id="edge1" class="edge"><title>Node2&#45;&gt;Node1</title>
<path fill="none" stroke="midnightblue" d="M90.3259,-241.728C96.8296,-229.049 103.977,-215.115 111.162,-201.108"/>
<polygon fill="none" stroke="midnightblue" points="87.1626,-240.227 85.7126,-250.722 93.391,-243.422 87.1626,-240.227"/>
</g>
<!-- Node3 -->
<g id="node3" class="node"><title>Node3</title>
<polygon fill="white" stroke="#bfbfbf" points="144.5,-267.5 144.5,-324.5 179.5,-324.5 179.5,-267.5 144.5,-267.5"/>
<text text-anchor="middle" x="162" y="-312.5" font-family="Helvetica,sans-Serif" font-size="10.00">type</text>
<polyline fill="none" stroke="#bfbfbf" points="144.5,-305.5 179.5,-305.5 "/>
<text text-anchor="middle" x="162" y="-293.5" font-family="Helvetica,sans-Serif" font-size="10.00"> </text>
<polyline fill="none" stroke="#bfbfbf" points="144.5,-286.5 179.5,-286.5 "/>
<text text-anchor="middle" x="162" y="-274.5" font-family="Helvetica,sans-Serif" font-size="10.00"> </text>
</g>
<!-- Node3&#45;&gt;Node1 -->
<g id="edge2" class="edge"><title>Node3&#45;&gt;Node1</title>
<path fill="none" stroke="#404040" d="M162,-267.348C162,-252.605 162,-233.388 162,-213.295"/>
<polygon fill="none" stroke="#404040" points="162,-213.049 158,-207.049 162,-201.049 166,-207.049 162,-213.049"/>
<text text-anchor="middle" x="174.5" y="-223.5" font-family="Helvetica,sans-Serif" font-size="10.00"> &#45;m_c</text>
</g>
<!-- Node4 -->
<g id="node4" class="node"><title>Node4</title>
<polygon fill="white" stroke="#bfbfbf" points="197.5,-267.5 197.5,-324.5 240.5,-324.5 240.5,-267.5 197.5,-267.5"/>
<text text-anchor="middle" x="219" y="-312.5" font-family="Helvetica,sans-Serif" font-size="10.00">size_t</text>
<polyline fill="none" stroke="#bfbfbf" points="197.5,-305.5 240.5,-305.5 "/>
<text text-anchor="middle" x="219" y="-293.5" font-family="Helvetica,sans-Serif" font-size="10.00"> </text>
<polyline fill="none" stroke="#bfbfbf" points="197.5,-286.5 240.5,-286.5 "/>
<text text-anchor="middle" x="219" y="-274.5" font-family="Helvetica,sans-Serif" font-size="10.00"> </text>
</g>
<!-- Node4&#45;&gt;Node1 -->
<g id="edge3" class="edge"><title>Node4&#45;&gt;Node1</title>
<path fill="none" stroke="#404040" d="M210.833,-267.348C206.438,-252.466 200.697,-233.027 194.702,-212.729"/>
<polygon fill="none" stroke="#404040" points="194.652,-212.557 189.116,-207.936 191.253,-201.049 196.788,-205.67 194.652,-212.557"/>
<text text-anchor="middle" x="210.5" y="-223.5" font-family="Helvetica,sans-Serif" font-size="10.00"> &#45;m_p</text>
</g>
</g>
</svg>
