<?xml version="1.0" encoding="UTF-8" standalone="no"?>
<!DOCTYPE svg PUBLIC "-//W3C//DTD SVG 1.1//EN"
 "http://www.w3.org/Graphics/SVG/1.1/DTD/svg11.dtd">
<!-- Generated by graphviz version 2.36.0 (20140111.2315)
 -->
<!-- Title: gengeopop::GenGeoPopController::UsePopulation Pages: 1 -->
<svg width="322pt" height="38pt"
 viewBox="0.00 0.00 322.00 38.00" xmlns="http://www.w3.org/2000/svg" xmlns:xlink="http://www.w3.org/1999/xlink">
<g id="graph0" class="graph" transform="scale(1 1) rotate(0) translate(4 34)">
<title>gengeopop::GenGeoPopController::UsePopulation</title>
<polygon fill="white" stroke="none" points="-4,4 -4,-34 318,-34 318,4 -4,4"/>
<!-- Node1 -->
<g id="node1" class="node"><title>Node1</title>
<polygon fill="#bfbfbf" stroke="black" points="0.5,-0 0.5,-30 165.5,-30 165.5,-0 0.5,-0"/>
<text text-anchor="start" x="8.5" y="-18" font-family="Helvetica,sans-Serif" font-size="10.00">gengeopop::GenGeoPopController</text>
<text text-anchor="middle" x="83" y="-7" font-family="Helvetica,sans-Serif" font-size="10.00">::UsePopulation</text>
</g>
<!-- Node2 -->
<g id="node2" class="node"><title>Node2</title>
<g id="a_node2"><a xlink:href="../../dd/d6d/a00111.html#a788b0ff4e222be4a8ec8b598b99e5b8a" target="_top" xlink:title="Creates a population by generating it. ">
<polygon fill="white" stroke="black" points="202,-0 202,-30 314,-30 314,-0 202,-0"/>
<text text-anchor="start" x="210" y="-18" font-family="Helvetica,sans-Serif" font-size="10.00">stride::GenPopBuilder</text>
<text text-anchor="middle" x="258" y="-7" font-family="Helvetica,sans-Serif" font-size="10.00">::Build</text>
</a>
</g>
</g>
<!-- Node1&#45;&gt;Node2 -->
<g id="edge1" class="edge"><title>Node1&#45;&gt;Node2</title>
<path fill="none" stroke="midnightblue" d="M175.743,-15C184.64,-15 193.463,-15 201.833,-15"/>
<polygon fill="midnightblue" stroke="midnightblue" points="175.687,-11.5001 165.687,-15 175.687,-18.5001 175.687,-11.5001"/>
</g>
</g>
</svg>
