<?xml version="1.0" encoding="UTF-8" standalone="no"?>
<!DOCTYPE svg PUBLIC "-//W3C//DTD SVG 1.1//EN"
 "http://www.w3.org/Graphics/SVG/1.1/DTD/svg11.dtd">
<!-- Generated by graphviz version 2.36.0 (20140111.2315)
 -->
<!-- Title: gengeopop::GenGeoPopController::GenPop Pages: 1 -->
<svg width="450pt" height="38pt"
 viewBox="0.00 0.00 450.00 38.00" xmlns="http://www.w3.org/2000/svg" xmlns:xlink="http://www.w3.org/1999/xlink">
<g id="graph0" class="graph" transform="scale(1 1) rotate(0) translate(4 34)">
<title>gengeopop::GenGeoPopController::GenPop</title>
<polygon fill="white" stroke="none" points="-4,4 -4,-34 446,-34 446,4 -4,4"/>
<!-- Node1 -->
<g id="node1" class="node"><title>Node1</title>
<polygon fill="#bfbfbf" stroke="black" points="0.5,-0 0.5,-30 165.5,-30 165.5,-0 0.5,-0"/>
<text text-anchor="start" x="8.5" y="-18" font-family="Helvetica,sans-Serif" font-size="10.00">gengeopop::GenGeoPopController</text>
<text text-anchor="middle" x="83" y="-7" font-family="Helvetica,sans-Serif" font-size="10.00">::GenPop</text>
</g>
<!-- Node2 -->
<g id="node2" class="node"><title>Node2</title>
<g id="a_node2"><a xlink:href="../../d4/d81/a00110.html#a1a9f0c9424522454bc5f99419734993c" target="_top" xlink:title="Creates a population by generating it. ">
<polygon fill="white" stroke="black" points="202,-0 202,-30 314,-30 314,-0 202,-0"/>
<text text-anchor="start" x="210" y="-18" font-family="Helvetica,sans-Serif" font-size="10.00">stride::GenPopBuilder</text>
<text text-anchor="middle" x="258" y="-7" font-family="Helvetica,sans-Serif" font-size="10.00">::Build</text>
</a>
</g>
</g>
<!-- Node1&#45;&gt;Node2 -->
<g id="edge1" class="edge"><title>Node1&#45;&gt;Node2</title>
<path fill="none" stroke="midnightblue" d="M175.743,-15C184.64,-15 193.463,-15 201.833,-15"/>
<polygon fill="midnightblue" stroke="midnightblue" points="175.687,-11.5001 165.687,-15 175.687,-18.5001 175.687,-11.5001"/>
</g>
<!-- Node3 -->
<g id="node3" class="node"><title>Node3</title>
<g id="a_node3"><a xlink:href="../../d2/df5/a00137.html#ac9658f1a5fa801de6742a46efb85fb9c" target="_top" xlink:title="Create a Population for the given region parameters. ">
<polygon fill="white" stroke="black" points="350,-0 350,-30 442,-30 442,-0 350,-0"/>
<text text-anchor="start" x="358" y="-18" font-family="Helvetica,sans-Serif" font-size="10.00">stride::Population</text>
<text text-anchor="middle" x="396" y="-7" font-family="Helvetica,sans-Serif" font-size="10.00">::CreateRegion</text>
</a>
</g>
</g>
<!-- Node2&#45;&gt;Node3 -->
<g id="edge2" class="edge"><title>Node2&#45;&gt;Node3</title>
<path fill="none" stroke="midnightblue" d="M324.336,-15C332.922,-15 341.564,-15 349.714,-15"/>
<polygon fill="midnightblue" stroke="midnightblue" points="324.316,-11.5001 314.316,-15 324.316,-18.5001 324.316,-11.5001"/>
</g>
</g>
</svg>
