<?xml version="1.0" encoding="UTF-8" standalone="no"?>
<!DOCTYPE svg PUBLIC "-//W3C//DTD SVG 1.1//EN"
 "http://www.w3.org/Graphics/SVG/1.1/DTD/svg11.dtd">
<!-- Generated by graphviz version 2.36.0 (20140111.2315)
 -->
<!-- Title: stride::DaysOffInterface Pages: 1 -->
<svg width="499pt" height="204pt"
 viewBox="0.00 0.00 499.00 204.00" xmlns="http://www.w3.org/2000/svg" xmlns:xlink="http://www.w3.org/1999/xlink">
<g id="graph0" class="graph" transform="scale(1 1) rotate(0) translate(4 200)">
<title>stride::DaysOffInterface</title>
<polygon fill="white" stroke="none" points="-4,4 -4,-200 495,-200 495,4 -4,4"/>
<!-- Node1 -->
<g id="node1" class="node"><title>Node1</title>
<polygon fill="#bfbfbf" stroke="black" points="169,-116.5 169,-195.5 291,-195.5 291,-116.5 169,-116.5"/>
<text text-anchor="middle" x="230" y="-183.5" font-family="Helvetica,sans-Serif" font-size="10.00">stride::DaysOffInterface</text>
<polyline fill="none" stroke="black" points="169,-176.5 291,-176.5 "/>
<text text-anchor="middle" x="230" y="-164.5" font-family="Helvetica,sans-Serif" font-size="10.00"> </text>
<polyline fill="none" stroke="black" points="169,-157.5 291,-157.5 "/>
<text text-anchor="start" x="177" y="-145.5" font-family="Helvetica,sans-Serif" font-size="10.00">+ IsWorkOff()</text>
<text text-anchor="start" x="177" y="-134.5" font-family="Helvetica,sans-Serif" font-size="10.00">+ IsSchoolOff()</text>
<text text-anchor="start" x="177" y="-123.5" font-family="Helvetica,sans-Serif" font-size="10.00">+ ~DaysOffInterface()</text>
</g>
<!-- Node2 -->
<g id="node2" class="node"><title>Node2</title>
<g id="a_node2"><a xlink:href="../../d5/d1e/a00103.html" target="_top" xlink:title="No days off work or school. ">
<polygon fill="white" stroke="black" points="-0.5,-0.5 -0.5,-79.5 94.5,-79.5 94.5,-0.5 -0.5,-0.5"/>
<text text-anchor="middle" x="47" y="-67.5" font-family="Helvetica,sans-Serif" font-size="10.00">stride::DaysOffAll</text>
<polyline fill="none" stroke="black" points="-0.5,-60.5 94.5,-60.5 "/>
<text text-anchor="middle" x="47" y="-48.5" font-family="Helvetica,sans-Serif" font-size="10.00"> </text>
<polyline fill="none" stroke="black" points="-0.5,-41.5 94.5,-41.5 "/>
<text text-anchor="start" x="7.5" y="-29.5" font-family="Helvetica,sans-Serif" font-size="10.00">+ DaysOffAll()</text>
<text text-anchor="start" x="7.5" y="-18.5" font-family="Helvetica,sans-Serif" font-size="10.00">+ IsWorkOff()</text>
<text text-anchor="start" x="7.5" y="-7.5" font-family="Helvetica,sans-Serif" font-size="10.00">+ IsSchoolOff()</text>
</a>
</g>
</g>
<!-- Node1&#45;&gt;Node2 -->
<g id="edge1" class="edge"><title>Node1&#45;&gt;Node2</title>
<path fill="none" stroke="midnightblue" d="M159.956,-114.902C141.278,-103.866 121.228,-91.7064 103,-80 100.308,-78.2714 97.5617,-76.4736 94.8013,-74.6405"/>
<polygon fill="none" stroke="midnightblue" points="158.32,-118 168.714,-120.054 161.869,-111.967 158.32,-118"/>
</g>
<!-- Node3 -->
<g id="node3" class="node"><title>Node3</title>
<g id="a_node3"><a xlink:href="../../d3/d32/a00105.html" target="_top" xlink:title="No days off work or school. ">
<polygon fill="white" stroke="black" points="112.5,-0.5 112.5,-79.5 219.5,-79.5 219.5,-0.5 112.5,-0.5"/>
<text text-anchor="middle" x="166" y="-67.5" font-family="Helvetica,sans-Serif" font-size="10.00">stride::DaysOffNone</text>
<polyline fill="none" stroke="black" points="112.5,-60.5 219.5,-60.5 "/>
<text text-anchor="middle" x="166" y="-48.5" font-family="Helvetica,sans-Serif" font-size="10.00"> </text>
<polyline fill="none" stroke="black" points="112.5,-41.5 219.5,-41.5 "/>
<text text-anchor="start" x="120.5" y="-29.5" font-family="Helvetica,sans-Serif" font-size="10.00">+ DaysOffNone()</text>
<text text-anchor="start" x="120.5" y="-18.5" font-family="Helvetica,sans-Serif" font-size="10.00">+ IsWorkOff()</text>
<text text-anchor="start" x="120.5" y="-7.5" font-family="Helvetica,sans-Serif" font-size="10.00">+ IsSchoolOff()</text>
</a>
</g>
</g>
<!-- Node1&#45;&gt;Node3 -->
<g id="edge2" class="edge"><title>Node1&#45;&gt;Node3</title>
<path fill="none" stroke="midnightblue" d="M203.385,-107.593C198.142,-98.2535 192.701,-88.5603 187.645,-79.5555"/>
<polygon fill="none" stroke="midnightblue" points="200.385,-109.398 208.333,-116.405 206.489,-105.972 200.385,-109.398"/>
</g>
<!-- Node4 -->
<g id="node4" class="node"><title>Node4</title>
<g id="a_node4"><a xlink:href="../../d7/d70/a00106.html" target="_top" xlink:title="Schools closed. ">
<polygon fill="white" stroke="black" points="237.5,-0.5 237.5,-79.5 350.5,-79.5 350.5,-0.5 237.5,-0.5"/>
<text text-anchor="middle" x="294" y="-67.5" font-family="Helvetica,sans-Serif" font-size="10.00">stride::DaysOffSchool</text>
<polyline fill="none" stroke="black" points="237.5,-60.5 350.5,-60.5 "/>
<text text-anchor="start" x="245.5" y="-48.5" font-family="Helvetica,sans-Serif" font-size="10.00">&#45; m_calendar</text>
<polyline fill="none" stroke="black" points="237.5,-41.5 350.5,-41.5 "/>
<text text-anchor="start" x="245.5" y="-29.5" font-family="Helvetica,sans-Serif" font-size="10.00">+ DaysOffSchool()</text>
<text text-anchor="start" x="245.5" y="-18.5" font-family="Helvetica,sans-Serif" font-size="10.00">+ IsWorkOff()</text>
<text text-anchor="start" x="245.5" y="-7.5" font-family="Helvetica,sans-Serif" font-size="10.00">+ IsSchoolOff()</text>
</a>
</g>
</g>
<!-- Node1&#45;&gt;Node4 -->
<g id="edge3" class="edge"><title>Node1&#45;&gt;Node4</title>
<path fill="none" stroke="midnightblue" d="M256.615,-107.593C261.858,-98.2535 267.299,-88.5603 272.355,-79.5555"/>
<polygon fill="none" stroke="midnightblue" points="253.511,-105.972 251.667,-116.405 259.615,-109.398 253.511,-105.972"/>
</g>
<!-- Node5 -->
<g id="node5" class="node"><title>Node5</title>
<g id="a_node5"><a xlink:href="../../df/d98/a00107.html" target="_top" xlink:title="Standard situation for days off from work and school. ">
<polygon fill="white" stroke="black" points="369,-0.5 369,-79.5 491,-79.5 491,-0.5 369,-0.5"/>
<text text-anchor="middle" x="430" y="-67.5" font-family="Helvetica,sans-Serif" font-size="10.00">stride::DaysOffStandard</text>
<polyline fill="none" stroke="black" points="369,-60.5 491,-60.5 "/>
<text text-anchor="start" x="377" y="-48.5" font-family="Helvetica,sans-Serif" font-size="10.00">&#45; m_calendar</text>
<polyline fill="none" stroke="black" points="369,-41.5 491,-41.5 "/>
<text text-anchor="start" x="377" y="-29.5" font-family="Helvetica,sans-Serif" font-size="10.00">+ DaysOffStandard()</text>
<text text-anchor="start" x="377" y="-18.5" font-family="Helvetica,sans-Serif" font-size="10.00">+ IsWorkOff()</text>
<text text-anchor="start" x="377" y="-7.5" font-family="Helvetica,sans-Serif" font-size="10.00">+ IsSchoolOff()</text>
</a>
</g>
</g>
<!-- Node1&#45;&gt;Node5 -->
<g id="edge4" class="edge"><title>Node1&#45;&gt;Node5</title>
<path fill="none" stroke="midnightblue" d="M299.919,-115.146C322.408,-102.327 347.135,-88.233 368.936,-75.8062"/>
<polygon fill="none" stroke="midnightblue" points="298.048,-112.184 291.093,-120.177 301.514,-118.265 298.048,-112.184"/>
</g>
</g>
</svg>
