<?xml version="1.0" encoding="UTF-8" standalone="no"?>
<!DOCTYPE svg PUBLIC "-//W3C//DTD SVG 1.1//EN"
 "http://www.w3.org/Graphics/SVG/1.1/DTD/svg11.dtd">
<!-- Generated by graphviz version 2.36.0 (20140111.2315)
 -->
<!-- Title: Imitation.h Pages: 1 -->
<svg width="244pt" height="140pt"
 viewBox="0.00 0.00 244.00 140.00" xmlns="http://www.w3.org/2000/svg" xmlns:xlink="http://www.w3.org/1999/xlink">
<g id="graph0" class="graph" transform="scale(1 1) rotate(0) translate(4 136)">
<title>Imitation.h</title>
<polygon fill="white" stroke="none" points="-4,4 -4,-136 240,-136 240,4 -4,4"/>
<!-- Node1 -->
<g id="node1" class="node"><title>Node1</title>
<polygon fill="#bfbfbf" stroke="black" points="115,-112.5 115,-131.5 177,-131.5 177,-112.5 115,-112.5"/>
<text text-anchor="middle" x="146" y="-119.5" font-family="Helvetica,sans-Serif" font-size="10.00">Imitation.h</text>
</g>
<!-- Node2 -->
<g id="node2" class="node"><title>Node2</title>
<g id="a_node2"><a xlink:href="../../dc/d57/a00194.html" target="_top" xlink:title="Header file for the HealthSeeder. ">
<polygon fill="white" stroke="black" points="57,-56.5 57,-75.5 137,-75.5 137,-56.5 57,-56.5"/>
<text text-anchor="middle" x="97" y="-63.5" font-family="Helvetica,sans-Serif" font-size="10.00">BeliefSeeder.h</text>
</a>
</g>
</g>
<!-- Node1&#45;&gt;Node2 -->
<g id="edge1" class="edge"><title>Node1&#45;&gt;Node2</title>
<path fill="none" stroke="midnightblue" d="M130.966,-104.431C122.378,-94.9673 111.957,-83.4827 104.941,-75.7511"/>
<polygon fill="midnightblue" stroke="midnightblue" points="128.597,-107.029 137.909,-112.083 133.781,-102.325 128.597,-107.029"/>
</g>
<!-- Node5 -->
<g id="node5" class="node"><title>Node5</title>
<g id="a_node5"><a xlink:href="../../da/dee/a00383.html" target="_top" xlink:title="Core Population class. ">
<polygon fill="white" stroke="black" points="155.5,-56.5 155.5,-75.5 236.5,-75.5 236.5,-56.5 155.5,-56.5"/>
<text text-anchor="middle" x="196" y="-63.5" font-family="Helvetica,sans-Serif" font-size="10.00">Population.cpp</text>
</a>
</g>
</g>
<!-- Node1&#45;&gt;Node5 -->
<g id="edge4" class="edge"><title>Node1&#45;&gt;Node5</title>
<path fill="none" stroke="midnightblue" d="M161.076,-104.718C169.889,-95.1997 180.666,-83.5608 187.897,-75.7511"/>
<polygon fill="midnightblue" stroke="midnightblue" points="158.482,-102.367 154.256,-112.083 163.619,-107.123 158.482,-102.367"/>
</g>
<!-- Node3 -->
<g id="node3" class="node"><title>Node3</title>
<g id="a_node3"><a xlink:href="../../dd/df4/a00193.html" target="_top" xlink:title="Implementation for BeliefSeeder class. ">
<polygon fill="white" stroke="black" points="-0.5,-0.5 -0.5,-19.5 90.5,-19.5 90.5,-0.5 -0.5,-0.5"/>
<text text-anchor="middle" x="45" y="-7.5" font-family="Helvetica,sans-Serif" font-size="10.00">BeliefSeeder.cpp</text>
</a>
</g>
</g>
<!-- Node2&#45;&gt;Node3 -->
<g id="edge2" class="edge"><title>Node2&#45;&gt;Node3</title>
<path fill="none" stroke="midnightblue" d="M81.3206,-48.7175C72.1553,-39.1997 60.9474,-27.5608 53.427,-19.7511"/>
<polygon fill="midnightblue" stroke="midnightblue" points="78.9557,-51.3075 88.4133,-56.083 83.9979,-46.452 78.9557,-51.3075"/>
</g>
<!-- Node4 -->
<g id="node4" class="node"><title>Node4</title>
<g id="a_node4"><a xlink:href="../../d1/d8b/a00406.html" target="_top" xlink:title="Implementation for the SimBuilder class. ">
<polygon fill="white" stroke="black" points="108.5,-0.5 108.5,-19.5 191.5,-19.5 191.5,-0.5 108.5,-0.5"/>
<text text-anchor="middle" x="150" y="-7.5" font-family="Helvetica,sans-Serif" font-size="10.00">SimBuilder.cpp</text>
</a>
</g>
</g>
<!-- Node2&#45;&gt;Node4 -->
<g id="edge3" class="edge"><title>Node2&#45;&gt;Node4</title>
<path fill="none" stroke="midnightblue" d="M112.981,-48.7175C122.322,-39.1997 133.746,-27.5608 141.411,-19.7511"/>
<polygon fill="midnightblue" stroke="midnightblue" points="110.259,-46.4945 105.752,-56.083 115.254,-51.3978 110.259,-46.4945"/>
</g>
</g>
</svg>
