<?xml version="1.0" encoding="UTF-8" standalone="no"?>
<!DOCTYPE svg PUBLIC "-//W3C//DTD SVG 1.1//EN"
 "http://www.w3.org/Graphics/SVG/1.1/DTD/svg11.dtd">
<!-- Generated by graphviz version 2.36.0 (20140111.2315)
 -->
<!-- Title: stride::util::CSVRow Pages: 1 -->
<!--zoomable 758 -->
<svg id="main" version="1.1" xmlns="http://www.w3.org/2000/svg" xmlns:xlink="http://www.w3.org/1999/xlink" xml:space="preserve" onload="init(evt)">
<style type="text/css"><![CDATA[
.edge:hover path { stroke: red; }
.edge:hover polygon { stroke: red; fill: red; }
]]></style>
<script type="text/javascript"><![CDATA[
var edges = document.getElementsByTagName('g');
if (edges && edges.length) {
  for (var i=0;i<edges.length;i++) {
    if (edges[i].id.substr(0,4)=='edge') {
      edges[i].setAttribute('class','edge');
    }
  }
}
]]></script>
        <defs>
                <circle id="rim" cx="0" cy="0" r="7"/>
                <circle id="rim2" cx="0" cy="0" r="3.5"/>
                <g id="zoomPlus">
                        <use xlink:href="#rim" fill="#404040">
                                <set attributeName="fill" to="#808080" begin="zoomplus.mouseover" end="zoomplus.mouseout"/>
                        </use>
                        <path d="M-4,0h8M0,-4v8" fill="none" stroke="white" stroke-width="1.5" pointer-events="none"/>
                </g>
                <g id="zoomMin">
                        <use xlink:href="#rim" fill="#404040">
                                <set attributeName="fill" to="#808080" begin="zoomminus.mouseover" end="zoomminus.mouseout"/>
                        </use>
                        <path d="M-4,0h8" fill="none" stroke="white" stroke-width="1.5" pointer-events="none"/>
                </g>
                <g id="dirArrow">
                        <path fill="none" stroke="white" stroke-width="1.5" d="M0,-3.0v7 M-2.5,-0.5L0,-3.0L2.5,-0.5"/>
                </g>
               <g id="resetDef">
                       <use xlink:href="#rim2" fill="#404040">
                               <set attributeName="fill" to="#808080" begin="reset.mouseover" end="reset.mouseout"/>
                       </use>
               </g>
        </defs>

<script type="text/javascript">
var viewWidth = 294;
var viewHeight = 758;
var sectionId = 'dynsection-0';
</script>
<script xlink:href="../../svgpan.js"/>
<svg id="graph" class="graph">
<g id="viewport">
<title>stride::util::CSVRow</title>
<polygon fill="white" stroke="none" points="-4,4 -4,-754 290,-754 290,4 -4,4"/>
<!-- Node1 -->
<g id="node1" class="node"><title>Node1</title>
<polygon fill="#bfbfbf" stroke="black" points="145.5,-1 145.5,-135 252.5,-135 252.5,-1 145.5,-1"/>
<text text-anchor="middle" x="199" y="-123" font-family="Helvetica,sans-Serif" font-size="10.00">stride::util::CSVRow</text>
<polyline fill="none" stroke="black" points="145.5,-116 252.5,-116 "/>
<text text-anchor="middle" x="199" y="-104" font-family="Helvetica,sans-Serif" font-size="10.00"> </text>
<polyline fill="none" stroke="black" points="145.5,-97 252.5,-97 "/>
<text text-anchor="start" x="153.5" y="-85" font-family="Helvetica,sans-Serif" font-size="10.00">+ CSVRow()</text>
<text text-anchor="start" x="153.5" y="-74" font-family="Helvetica,sans-Serif" font-size="10.00">+ CSVRow()</text>
<text text-anchor="start" x="153.5" y="-63" font-family="Helvetica,sans-Serif" font-size="10.00">+ operator=()</text>
<text text-anchor="start" x="153.5" y="-52" font-family="Helvetica,sans-Serif" font-size="10.00">+ GetValue()</text>
<text text-anchor="start" x="153.5" y="-41" font-family="Helvetica,sans-Serif" font-size="10.00">+ GetValue()</text>
<text text-anchor="start" x="153.5" y="-30" font-family="Helvetica,sans-Serif" font-size="10.00">+ operator==()</text>
<text text-anchor="start" x="153.5" y="-19" font-family="Helvetica,sans-Serif" font-size="10.00">+ GetValue()</text>
<text text-anchor="start" x="153.5" y="-8" font-family="Helvetica,sans-Serif" font-size="10.00">+ GetValue()</text>
</g>
<!-- Node2 -->
<g id="node2" class="node"><title>Node2</title>
<g id="a_node2"><a xlink:href="../../dd/db2/a00151.html" target="_top" xlink:title="A collection of CSVRow elements. ">
<polygon fill="white" stroke="black" points="75.5,-184.5 75.5,-373.5 184.5,-373.5 184.5,-184.5 75.5,-184.5"/>
<text text-anchor="middle" x="130" y="-361.5" font-family="Helvetica,sans-Serif" font-size="10.00">stride::util::CSV</text>
<polyline fill="none" stroke="black" points="75.5,-354.5 184.5,-354.5 "/>
<text text-anchor="middle" x="130" y="-342.5" font-family="Helvetica,sans-Serif" font-size="10.00"> </text>
<polyline fill="none" stroke="black" points="75.5,-335.5 184.5,-335.5 "/>
<text text-anchor="start" x="83.5" y="-323.5" font-family="Helvetica,sans-Serif" font-size="10.00">+ CSV()</text>
<text text-anchor="start" x="83.5" y="-312.5" font-family="Helvetica,sans-Serif" font-size="10.00">+ CSV()</text>
<text text-anchor="start" x="83.5" y="-301.5" font-family="Helvetica,sans-Serif" font-size="10.00">+ CSV()</text>
<text text-anchor="start" x="83.5" y="-290.5" font-family="Helvetica,sans-Serif" font-size="10.00">+ CSV()</text>
<text text-anchor="start" x="83.5" y="-279.5" font-family="Helvetica,sans-Serif" font-size="10.00">+ GetColumnCount()</text>
<text text-anchor="start" x="83.5" y="-268.5" font-family="Helvetica,sans-Serif" font-size="10.00">+ operator==()</text>
<text text-anchor="start" x="83.5" y="-257.5" font-family="Helvetica,sans-Serif" font-size="10.00">+ AddRow()</text>
<text text-anchor="start" x="83.5" y="-246.5" font-family="Helvetica,sans-Serif" font-size="10.00">+ AddRow()</text>
<text text-anchor="start" x="83.5" y="-235.5" font-family="Helvetica,sans-Serif" font-size="10.00">+ AddRows()</text>
<text text-anchor="start" x="83.5" y="-224.5" font-family="Helvetica,sans-Serif" font-size="10.00">+ Write()</text>
<text text-anchor="start" x="83.5" y="-213.5" font-family="Helvetica,sans-Serif" font-size="10.00">+ GetIndexForLabel()</text>
<text text-anchor="start" x="83.5" y="-202.5" font-family="Helvetica,sans-Serif" font-size="10.00">+ GetLabels()</text>
<text text-anchor="start" x="83.5" y="-191.5" font-family="Helvetica,sans-Serif" font-size="10.00">&#45; ReadFromStream()</text>
</a>
</g>
</g>
<!-- Node2&#45;&gt;Node1 -->
<g id="edge1" class="edge"><title>Node2&#45;&gt;Node1</title>
<path fill="none" stroke="#404040" d="M160.968,-184.199C165.095,-171.699 169.29,-158.993 173.313,-146.806"/>
<polygon fill="none" stroke="#404040" points="173.348,-146.699 171.431,-139.747 177.11,-135.304 179.028,-142.255 173.348,-146.699"/>
<text text-anchor="middle" x="195.5" y="-157.5" font-family="Helvetica,sans-Serif" font-size="10.00"> #m_parent</text>
</g>
<!-- Node3 -->
<g id="node3" class="node"><title>Node3</title>
<g id="a_node3"><a xlink:title="STL class. ">
<polygon fill="white" stroke="#bfbfbf" points="0,-498.5 0,-555.5 122,-555.5 122,-498.5 0,-498.5"/>
<text text-anchor="middle" x="61" y="-543.5" font-family="Helvetica,sans-Serif" font-size="10.00">std::vector&lt; CSVRow &gt;</text>
<polyline fill="none" stroke="#bfbfbf" points="0,-536.5 122,-536.5 "/>
<text text-anchor="middle" x="61" y="-524.5" font-family="Helvetica,sans-Serif" font-size="10.00"> </text>
<polyline fill="none" stroke="#bfbfbf" points="0,-517.5 122,-517.5 "/>
<text text-anchor="middle" x="61" y="-505.5" font-family="Helvetica,sans-Serif" font-size="10.00"> </text>
</a>
</g>
</g>
<!-- Node3&#45;&gt;Node2 -->
<g id="edge2" class="edge"><title>Node3&#45;&gt;Node2</title>
<path fill="none" stroke="darkgreen" d="M66.3929,-488.44C69.6199,-468.528 74.222,-443.753 80,-422 84.1936,-406.212 89.3198,-389.669 94.6732,-373.681"/>
<polygon fill="none" stroke="darkgreen" points="62.9278,-487.945 64.8318,-498.367 69.8429,-489.032 62.9278,-487.945"/>
</g>
<!-- Node4 -->
<g id="node4" class="node"><title>Node4</title>
<polygon fill="white" stroke="#bfbfbf" points="84.5,-686.5 84.5,-743.5 113.5,-743.5 113.5,-686.5 84.5,-686.5"/>
<text text-anchor="middle" x="99" y="-731.5" font-family="Helvetica,sans-Serif" font-size="10.00">T</text>
<polyline fill="none" stroke="#bfbfbf" points="84.5,-724.5 113.5,-724.5 "/>
<text text-anchor="middle" x="99" y="-712.5" font-family="Helvetica,sans-Serif" font-size="10.00"> </text>
<polyline fill="none" stroke="#bfbfbf" points="84.5,-705.5 113.5,-705.5 "/>
<text text-anchor="middle" x="99" y="-693.5" font-family="Helvetica,sans-Serif" font-size="10.00"> </text>
</g>
<!-- Node4&#45;&gt;Node3 -->
<g id="edge3" class="edge"><title>Node4&#45;&gt;Node3</title>
<path fill="none" stroke="#404040" d="M84.4014,-696.959C77.1118,-687.359 69.0095,-674.76 65,-662 55.393,-631.427 54.9634,-594.976 56.618,-567.815"/>
<polygon fill="none" stroke="#404040" points="56.6314,-567.636 53.0934,-561.353 57.5328,-555.67 61.0708,-561.954 56.6314,-567.636"/>
<text text-anchor="middle" x="89.5" y="-653.5" font-family="Helvetica,sans-Serif" font-size="10.00"> +elements</text>
</g>
<!-- Node9 -->
<g id="node9" class="node"><title>Node9</title>
<g id="a_node9"><a xlink:title="STL class. ">
<polygon fill="white" stroke="#bfbfbf" points="93.5,-574.5 93.5,-631.5 180.5,-631.5 180.5,-574.5 93.5,-574.5"/>
<text text-anchor="middle" x="137" y="-619.5" font-family="Helvetica,sans-Serif" font-size="10.00">std::vector&lt; T &gt;</text>
<polyline fill="none" stroke="#bfbfbf" points="93.5,-612.5 180.5,-612.5 "/>
<text text-anchor="middle" x="137" y="-600.5" font-family="Helvetica,sans-Serif" font-size="10.00"> </text>
<polyline fill="none" stroke="#bfbfbf" points="93.5,-593.5 180.5,-593.5 "/>
<text text-anchor="middle" x="137" y="-581.5" font-family="Helvetica,sans-Serif" font-size="10.00"> </text>
</a>
</g>
</g>
<!-- Node4&#45;&gt;Node9 -->
<g id="edge9" class="edge"><title>Node4&#45;&gt;Node9</title>
<path fill="none" stroke="#404040" d="M108.589,-686.242C113.089,-673.215 118.532,-657.459 123.445,-643.239"/>
<polygon fill="none" stroke="#404040" points="123.496,-643.091 121.674,-636.114 127.414,-631.749 129.236,-638.726 123.496,-643.091"/>
<text text-anchor="middle" x="145.5" y="-653.5" font-family="Helvetica,sans-Serif" font-size="10.00"> +elements</text>
</g>
<!-- Node5 -->
<g id="node5" class="node"><title>Node5</title>
<g id="a_node5"><a xlink:href="../../da/d05/a00489.html" target="_top" xlink:title="{size_t\n||}">
<polygon fill="white" stroke="black" points="89.5,-422.5 89.5,-479.5 132.5,-479.5 132.5,-422.5 89.5,-422.5"/>
<text text-anchor="middle" x="111" y="-467.5" font-family="Helvetica,sans-Serif" font-size="10.00">size_t</text>
<polyline fill="none" stroke="black" points="89.5,-460.5 132.5,-460.5 "/>
<text text-anchor="middle" x="111" y="-448.5" font-family="Helvetica,sans-Serif" font-size="10.00"> </text>
<polyline fill="none" stroke="black" points="89.5,-441.5 132.5,-441.5 "/>
<text text-anchor="middle" x="111" y="-429.5" font-family="Helvetica,sans-Serif" font-size="10.00"> </text>
</a>
</g>
</g>
<!-- Node5&#45;&gt;Node2 -->
<g id="edge4" class="edge"><title>Node5&#45;&gt;Node2</title>
<path fill="none" stroke="#404040" d="M110.678,-422.226C110.779,-412.635 111.13,-401.831 112,-392 112.182,-389.943 112.379,-387.867 112.591,-385.777"/>
<polygon fill="none" stroke="#404040" points="112.609,-385.608 109.298,-379.202 113.939,-373.682 117.249,-380.088 112.609,-385.608"/>
<text text-anchor="middle" x="145.5" y="-395.5" font-family="Helvetica,sans-Serif" font-size="10.00"> #columnCount</text>
</g>
<!-- Node6 -->
<g id="node6" class="node"><title>Node6</title>
<polygon fill="white" stroke="#bfbfbf" points="160.5,-422.5 160.5,-479.5 285.5,-479.5 285.5,-422.5 160.5,-422.5"/>
<text text-anchor="middle" x="223" y="-467.5" font-family="Helvetica,sans-Serif" font-size="10.00">std::vector&lt; std::string &gt;</text>
<polyline fill="none" stroke="#bfbfbf" points="160.5,-460.5 285.5,-460.5 "/>
<text text-anchor="middle" x="223" y="-448.5" font-family="Helvetica,sans-Serif" font-size="10.00"> </text>
<polyline fill="none" stroke="#bfbfbf" points="160.5,-441.5 285.5,-441.5 "/>
<text text-anchor="middle" x="223" y="-429.5" font-family="Helvetica,sans-Serif" font-size="10.00"> </text>
</g>
<!-- Node6&#45;&gt;Node1 -->
<g id="edge10" class="edge"><title>Node6&#45;&gt;Node1</title>
<path fill="none" stroke="#404040" d="M230.695,-422.459C232.069,-416.424 233.289,-410.035 234,-404 234.624,-398.703 234.112,-397.332 234,-392 231.777,-286.152 241.287,-258.45 224,-154 223.639,-151.819 223.24,-149.614 222.807,-147.396"/>
<polygon fill="none" stroke="#404040" points="222.762,-147.185 217.579,-142.171 220.214,-135.459 225.397,-140.472 222.762,-147.185"/>
<text text-anchor="middle" x="260.5" y="-276.5" font-family="Helvetica,sans-Serif" font-size="10.00"> #m_values</text>
</g>
<!-- Node6&#45;&gt;Node2 -->
<g id="edge5" class="edge"><title>Node6&#45;&gt;Node2</title>
<path fill="none" stroke="#404040" d="M207.851,-422.308C201.904,-411.437 194.676,-398.225 187.048,-384.282"/>
<polygon fill="none" stroke="#404040" points="186.911,-384.031 180.522,-380.687 181.152,-373.504 187.541,-376.848 186.911,-384.031"/>
<text text-anchor="middle" x="213" y="-395.5" font-family="Helvetica,sans-Serif" font-size="10.00"> #labels</text>
</g>
<!-- Node7 -->
<g id="node7" class="node"><title>Node7</title>
<g id="a_node7"><a xlink:title="STL class. ">
<polygon fill="white" stroke="#bfbfbf" points="203,-574.5 203,-631.5 263,-631.5 263,-574.5 203,-574.5"/>
<text text-anchor="middle" x="233" y="-619.5" font-family="Helvetica,sans-Serif" font-size="10.00">std::string</text>
<polyline fill="none" stroke="#bfbfbf" points="203,-612.5 263,-612.5 "/>
<text text-anchor="middle" x="233" y="-600.5" font-family="Helvetica,sans-Serif" font-size="10.00"> </text>
<polyline fill="none" stroke="#bfbfbf" points="203,-593.5 263,-593.5 "/>
<text text-anchor="middle" x="233" y="-581.5" font-family="Helvetica,sans-Serif" font-size="10.00"> </text>
</a>
</g>
</g>
<!-- Node7&#45;&gt;Node6 -->
<g id="edge6" class="edge"><title>Node7&#45;&gt;Node6</title>
<path fill="none" stroke="#404040" d="M231.166,-574.488C229.62,-551.302 227.389,-517.829 225.649,-491.733"/>
<polygon fill="none" stroke="#404040" points="225.638,-491.565 221.247,-485.844 224.839,-479.591 229.23,-485.312 225.638,-491.565"/>
<text text-anchor="middle" x="254.5" y="-524.5" font-family="Helvetica,sans-Serif" font-size="10.00"> +elements</text>
</g>
<!-- Node8 -->
<g id="node8" class="node"><title>Node8</title>
<g id="a_node8"><a xlink:title="STL class. ">
<polygon fill="white" stroke="#bfbfbf" points="185.5,-681 185.5,-749 280.5,-749 280.5,-681 185.5,-681"/>
<text text-anchor="start" x="193.5" y="-737" font-family="Helvetica,sans-Serif" font-size="10.00">std::basic_string&lt;</text>
<text text-anchor="middle" x="233" y="-726" font-family="Helvetica,sans-Serif" font-size="10.00"> char &gt;</text>
<polyline fill="none" stroke="#bfbfbf" points="185.5,-719 280.5,-719 "/>
<text text-anchor="middle" x="233" y="-707" font-family="Helvetica,sans-Serif" font-size="10.00"> </text>
<polyline fill="none" stroke="#bfbfbf" points="185.5,-700 280.5,-700 "/>
<text text-anchor="middle" x="233" y="-688" font-family="Helvetica,sans-Serif" font-size="10.00"> </text>
</a>
</g>
</g>
<!-- Node8&#45;&gt;Node7 -->
<g id="edge7" class="edge"><title>Node8&#45;&gt;Node7</title>
<path fill="none" stroke="midnightblue" d="M233,-670.743C233,-657.634 233,-643.591 233,-631.784"/>
<polygon fill="none" stroke="midnightblue" points="229.5,-670.996 233,-680.996 236.5,-670.996 229.5,-670.996"/>
</g>
<!-- Node9&#45;&gt;Node6 -->
<g id="edge8" class="edge"><title>Node9&#45;&gt;Node6</title>
<path fill="none" stroke="orange" d="M137.92,-564.131C140.001,-543.195 145.276,-517.545 158,-498 162.45,-491.164 168.302,-485.036 174.672,-479.652"/>
<polygon fill="orange" stroke="orange" points="134.416,-564.042 137.118,-574.287 141.394,-564.594 134.416,-564.042"/>
<text text-anchor="middle" x="190.5" y="-524.5" font-family="Helvetica,sans-Serif" font-size="10.00"> &lt; std::string &gt;</text>
</g>
</g>
</svg>
        <g id="navigator" transform="translate(0 0)" fill="#404254">
                <rect fill="#f2f5e9" fill-opacity="0.5" stroke="#606060" stroke-width=".5" x="0" y="0" width="60" height="60"/>
                <use id="zoomplus" xlink:href="#zoomPlus" x="17" y="9" onmousedown="handleZoom(evt,'in')"/>
                <use id="zoomminus" xlink:href="#zoomMin" x="42" y="9" onmousedown="handleZoom(evt,'out')"/>
                <use id="reset" xlink:href="#resetDef" x="30" y="36" onmousedown="handleReset()"/>
                <g id="arrowUp" xlink:href="#dirArrow" transform="translate(30 24)" onmousedown="handlePan(0,-1)">
                  <use xlink:href="#rim" fill="#404040">
                        <set attributeName="fill" to="#808080" begin="arrowUp.mouseover" end="arrowUp.mouseout"/>
                  </use>
                  <path fill="none" stroke="white" stroke-width="1.5" d="M0,-3.0v7 M-2.5,-0.5L0,-3.0L2.5,-0.5"/>
                </g>
                <g id="arrowRight" xlink:href="#dirArrow" transform="rotate(90) translate(36 -43)" onmousedown="handlePan(1,0)">
                  <use xlink:href="#rim" fill="#404040">
                        <set attributeName="fill" to="#808080" begin="arrowRight.mouseover" end="arrowRight.mouseout"/>
                  </use>
                  <path fill="none" stroke="white" stroke-width="1.5" d="M0,-3.0v7 M-2.5,-0.5L0,-3.0L2.5,-0.5"/>
                </g>
                <g id="arrowDown" xlink:href="#dirArrow" transform="rotate(180) translate(-30 -48)" onmousedown="handlePan(0,1)">
                  <use xlink:href="#rim" fill="#404040">
                        <set attributeName="fill" to="#808080" begin="arrowDown.mouseover" end="arrowDown.mouseout"/>
                  </use>
                  <path fill="none" stroke="white" stroke-width="1.5" d="M0,-3.0v7 M-2.5,-0.5L0,-3.0L2.5,-0.5"/>
                </g>
                <g id="arrowLeft" xlink:href="#dirArrow" transform="rotate(270) translate(-36 17)" onmousedown="handlePan(-1,0)">
                  <use xlink:href="#rim" fill="#404040">
                        <set attributeName="fill" to="#808080" begin="arrowLeft.mouseover" end="arrowLeft.mouseout"/>
                  </use>
                  <path fill="none" stroke="white" stroke-width="1.5" d="M0,-3.0v7 M-2.5,-0.5L0,-3.0L2.5,-0.5"/>
                </g>
        </g>
        <svg viewBox="0 0 15 15" width="100%" height="30px" preserveAspectRatio="xMaxYMin meet">
         <g id="arrow_out" transform="scale(0.3 0.3)">
          <a xlink:href="a01308_org.svg" target="_base">
           <rect id="button" ry="5" rx="5" y="6" x="6" height="38" width="38"
                fill="#f2f5e9" fill-opacity="0.5" stroke="#606060" stroke-width="1.0"/>
           <path id="arrow"
             d="M 11.500037,31.436501 C 11.940474,20.09759 22.043105,11.32322 32.158766,21.979434 L 37.068811,17.246167 C 37.068811,17.246167 37.088388,32 37.088388,32 L 22.160133,31.978069 C 22.160133,31.978069 26.997745,27.140456 26.997745,27.140456 C 18.528582,18.264221 13.291696,25.230495 11.500037,31.436501 z"
             style="fill:#404040;"/>
          </a>
         </g>
        </svg>
</svg>
