<?xml version="1.0" encoding="UTF-8" standalone="no"?>
<!DOCTYPE svg PUBLIC "-//W3C//DTD SVG 1.1//EN"
 "http://www.w3.org/Graphics/SVG/1.1/DTD/svg11.dtd">
<!-- Generated by graphviz version 2.36.0 (20140111.2315)
 -->
<!-- Title: LaunchGui Pages: 1 -->
<svg width="388pt" height="234pt"
 viewBox="0.00 0.00 388.00 234.00" xmlns="http://www.w3.org/2000/svg" xmlns:xlink="http://www.w3.org/1999/xlink">
<g id="graph0" class="graph" transform="scale(1 1) rotate(0) translate(4 230)">
<title>LaunchGui</title>
<polygon fill="white" stroke="none" points="-4,4 -4,-230 384,-230 384,4 -4,4"/>
<!-- Node1 -->
<g id="node1" class="node"><title>Node1</title>
<polygon fill="#bfbfbf" stroke="black" points="0.5,-84.5 0.5,-103.5 63.5,-103.5 63.5,-84.5 0.5,-84.5"/>
<text text-anchor="middle" x="32" y="-91.5" font-family="Helvetica,sans-Serif" font-size="10.00">LaunchGui</text>
</g>
<!-- Node2 -->
<g id="node2" class="node"><title>Node2</title>
<g id="a_node2"><a xlink:href="../../d9/da4/a00078.html#a69589d1327149e595d3242dab0805035" target="_top" xlink:title="Launch the simulation with the stored configuration. ">
<polygon fill="white" stroke="black" points="117,-103.5 117,-122.5 211,-122.5 211,-103.5 117,-103.5"/>
<text text-anchor="middle" x="164" y="-110.5" font-family="Helvetica,sans-Serif" font-size="10.00">Launcher::Launch</text>
</a>
</g>
</g>
<!-- Node1&#45;&gt;Node2 -->
<g id="edge1" class="edge"><title>Node1&#45;&gt;Node2</title>
<path fill="none" stroke="midnightblue" d="M63.8082,-98.5027C76.6803,-100.384 92.0534,-102.631 106.809,-104.788"/>
<polygon fill="midnightblue" stroke="midnightblue" points="106.487,-108.278 116.888,-106.261 107.499,-101.351 106.487,-108.278"/>
</g>
<!-- Node8 -->
<g id="node8" class="node"><title>Node8</title>
<g id="a_node8"><a xlink:href="../../d9/da4/a00078.html#ad2ccb8d2bf932012100890a1f3e5311c" target="_top" xlink:title="Set the Qt RootObject. ">
<polygon fill="white" stroke="black" points="100.5,-65.5 100.5,-84.5 227.5,-84.5 227.5,-65.5 100.5,-65.5"/>
<text text-anchor="middle" x="164" y="-72.5" font-family="Helvetica,sans-Serif" font-size="10.00">Launcher::SetRootObject</text>
</a>
</g>
</g>
<!-- Node1&#45;&gt;Node8 -->
<g id="edge7" class="edge"><title>Node1&#45;&gt;Node8</title>
<path fill="none" stroke="midnightblue" d="M63.8082,-89.4973C71.9137,-88.3126 81.0108,-86.983 90.3211,-85.6223"/>
<polygon fill="midnightblue" stroke="midnightblue" points="91.0819,-89.0484 100.471,-84.1389 90.0695,-82.122 91.0819,-89.0484"/>
</g>
<!-- Node3 -->
<g id="node3" class="node"><title>Node3</title>
<g id="a_node3"><a xlink:href="../../dd/da7/a00168.html#a5f6eefbc6871a229b1c45dbbd98b41fe" target="_top" xlink:title="Returns string with the time stamp after eliminating newline. ">
<polygon fill="white" stroke="black" points="264,-196 264,-226 380,-226 380,-196 264,-196"/>
<text text-anchor="start" x="272" y="-214" font-family="Helvetica,sans-Serif" font-size="10.00">stride::util::TimeStamp</text>
<text text-anchor="middle" x="322" y="-203" font-family="Helvetica,sans-Serif" font-size="10.00">::ToTag</text>
</a>
</g>
</g>
<!-- Node2&#45;&gt;Node3 -->
<g id="edge2" class="edge"><title>Node2&#45;&gt;Node3</title>
<path fill="none" stroke="midnightblue" d="M176.307,-122.65C194.118,-137.539 230.171,-166.435 264,-186 267.23,-187.868 270.626,-189.687 274.084,-191.436"/>
<polygon fill="midnightblue" stroke="midnightblue" points="272.784,-194.695 283.312,-195.889 275.826,-188.391 272.784,-194.695"/>
</g>
<!-- Node4 -->
<g id="node4" class="node"><title>Node4</title>
<g id="a_node4"><a xlink:href="../../d9/d77/a00095.html#a904f58a60d934c8726f100a820c5322b" target="_top" xlink:title="Register a viewer of type T with given args. ">
<polygon fill="white" stroke="black" points="266.5,-147 266.5,-177 377.5,-177 377.5,-147 266.5,-147"/>
<text text-anchor="start" x="274.5" y="-165" font-family="Helvetica,sans-Serif" font-size="10.00">stride::BaseController</text>
<text text-anchor="middle" x="322" y="-154" font-family="Helvetica,sans-Serif" font-size="10.00">::RegisterViewer</text>
</a>
</g>
</g>
<!-- Node2&#45;&gt;Node4 -->
<g id="edge3" class="edge"><title>Node2&#45;&gt;Node4</title>
<path fill="none" stroke="midnightblue" d="M195.449,-122.564C214.768,-128.632 240.38,-136.677 263.431,-143.917"/>
<polygon fill="midnightblue" stroke="midnightblue" points="262.538,-147.305 273.127,-146.963 264.636,-140.627 262.538,-147.305"/>
</g>
<!-- Node5 -->
<g id="node5" class="node"><title>Node5</title>
<g id="a_node5"><a xlink:href="../../d9/d77/a00095.html#ad6ad5a418fa38c9e42fa93f88c522860" target="_top" xlink:title="Get the prefix path for output files. ">
<polygon fill="white" stroke="black" points="266.5,-98 266.5,-128 377.5,-128 377.5,-98 266.5,-98"/>
<text text-anchor="start" x="274.5" y="-116" font-family="Helvetica,sans-Serif" font-size="10.00">stride::BaseController</text>
<text text-anchor="middle" x="322" y="-105" font-family="Helvetica,sans-Serif" font-size="10.00">::GetOutputPrefix</text>
</a>
</g>
</g>
<!-- Node2&#45;&gt;Node5 -->
<g id="edge4" class="edge"><title>Node2&#45;&gt;Node5</title>
<path fill="none" stroke="midnightblue" d="M211.383,-113C225.394,-113 241.043,-113 256.032,-113"/>
<polygon fill="midnightblue" stroke="midnightblue" points="256.274,-116.5 266.274,-113 256.274,-109.5 256.274,-116.5"/>
</g>
<!-- Node6 -->
<g id="node6" class="node"><title>Node6</title>
<g id="a_node6"><a xlink:href="../../d9/d77/a00095.html#aeeb79289441333395c55b949a8c775dd" target="_top" xlink:title="Returns the logger. ">
<polygon fill="white" stroke="black" points="266.5,-49 266.5,-79 377.5,-79 377.5,-49 266.5,-49"/>
<text text-anchor="start" x="274.5" y="-67" font-family="Helvetica,sans-Serif" font-size="10.00">stride::BaseController</text>
<text text-anchor="middle" x="322" y="-56" font-family="Helvetica,sans-Serif" font-size="10.00">::GetLogger</text>
</a>
</g>
</g>
<!-- Node2&#45;&gt;Node6 -->
<g id="edge5" class="edge"><title>Node2&#45;&gt;Node6</title>
<path fill="none" stroke="midnightblue" d="M197.086,-103.453C207.009,-100.465 217.967,-97.1308 228,-94 240.012,-90.2516 252.87,-86.1569 265.076,-82.2312"/>
<polygon fill="midnightblue" stroke="midnightblue" points="266.254,-85.5292 274.697,-79.129 264.105,-78.867 266.254,-85.5292"/>
</g>
<!-- Node7 -->
<g id="node7" class="node"><title>Node7</title>
<g id="a_node7"><a xlink:href="../../d9/d77/a00095.html#a69f449954b557b6418f36996253034a0" target="_top" xlink:title="Actual run of the simulator. ">
<polygon fill="white" stroke="black" points="266.5,-0 266.5,-30 377.5,-30 377.5,-0 266.5,-0"/>
<text text-anchor="start" x="274.5" y="-18" font-family="Helvetica,sans-Serif" font-size="10.00">stride::BaseController</text>
<text text-anchor="middle" x="322" y="-7" font-family="Helvetica,sans-Serif" font-size="10.00">::Control</text>
</a>
</g>
</g>
<!-- Node2&#45;&gt;Node7 -->
<g id="edge6" class="edge"><title>Node2&#45;&gt;Node7</title>
<path fill="none" stroke="midnightblue" d="M210.538,-103.436C216.744,-100.97 222.769,-97.8776 228,-94 251.173,-76.824 241.903,-58.5393 264,-40 265.956,-38.3592 268.036,-36.8083 270.201,-35.3447"/>
<polygon fill="midnightblue" stroke="midnightblue" points="272.118,-38.2762 278.888,-30.1269 268.514,-32.2754 272.118,-38.2762"/>
</g>
</g>
</svg>
