<?xml version="1.0" encoding="UTF-8" standalone="no"?>
<!DOCTYPE svg PUBLIC "-//W3C//DTD SVG 1.1//EN"
 "http://www.w3.org/Graphics/SVG/1.1/DTD/svg11.dtd">
<!-- Generated by graphviz version 2.36.0 (20140111.2315)
 -->
<!-- Title: CommutesListModel Pages: 1 -->
<svg width="130pt" height="216pt"
 viewBox="0.00 0.00 130.00 216.00" xmlns="http://www.w3.org/2000/svg" xmlns:xlink="http://www.w3.org/1999/xlink">
<g id="graph0" class="graph" transform="scale(1 1) rotate(0) translate(4 212)">
<title>CommutesListModel</title>
<polygon fill="white" stroke="none" points="-4,4 -4,-212 126,-212 126,4 -4,4"/>
<!-- Node1 -->
<g id="node1" class="node"><title>Node1</title>
<polygon fill="#bfbfbf" stroke="black" points="0,-1 0,-113 122,-113 122,-1 0,-1"/>
<text text-anchor="middle" x="61" y="-101" font-family="Helvetica,sans-Serif" font-size="10.00">CommutesListModel</text>
<polyline fill="none" stroke="black" points="0,-94 122,-94 "/>
<text text-anchor="start" x="8" y="-82" font-family="Helvetica,sans-Serif" font-size="10.00">&#45; m_location</text>
<polyline fill="none" stroke="black" points="0,-75 122,-75 "/>
<text text-anchor="start" x="8" y="-63" font-family="Helvetica,sans-Serif" font-size="10.00">+ CommutesListModel()</text>
<text text-anchor="start" x="8" y="-52" font-family="Helvetica,sans-Serif" font-size="10.00">+ data()</text>
<text text-anchor="start" x="8" y="-41" font-family="Helvetica,sans-Serif" font-size="10.00">+ rowCount()</text>
<text text-anchor="start" x="8" y="-30" font-family="Helvetica,sans-Serif" font-size="10.00">+ columnCount()</text>
<text text-anchor="start" x="8" y="-19" font-family="Helvetica,sans-Serif" font-size="10.00">+ roleNames()</text>
<text text-anchor="start" x="8" y="-8" font-family="Helvetica,sans-Serif" font-size="10.00">+ SetCommutes()</text>
</g>
<!-- Node2 -->
<g id="node2" class="node"><title>Node2</title>
<g id="a_node2"><a xlink:href="../../db/dab/a00089.html" target="_top" xlink:title="{QAbstractListModel\n||}">
<polygon fill="white" stroke="black" points="9.5,-150.5 9.5,-207.5 112.5,-207.5 112.5,-150.5 9.5,-150.5"/>
<text text-anchor="middle" x="61" y="-195.5" font-family="Helvetica,sans-Serif" font-size="10.00">QAbstractListModel</text>
<polyline fill="none" stroke="black" points="9.5,-188.5 112.5,-188.5 "/>
<text text-anchor="middle" x="61" y="-176.5" font-family="Helvetica,sans-Serif" font-size="10.00"> </text>
<polyline fill="none" stroke="black" points="9.5,-169.5 112.5,-169.5 "/>
<text text-anchor="middle" x="61" y="-157.5" font-family="Helvetica,sans-Serif" font-size="10.00"> </text>
</a>
</g>
</g>
<!-- Node2&#45;&gt;Node1 -->
<g id="edge1" class="edge"><title>Node2&#45;&gt;Node1</title>
<path fill="none" stroke="midnightblue" d="M61,-140.398C61,-131.802 61,-122.49 61,-113.324"/>
<polygon fill="none" stroke="midnightblue" points="57.5001,-140.47 61,-150.47 64.5001,-140.47 57.5001,-140.47"/>
</g>
</g>
</svg>
