<?xml version="1.0" encoding="UTF-8" standalone="no"?>
<!DOCTYPE svg PUBLIC "-//W3C//DTD SVG 1.1//EN"
 "http://www.w3.org/Graphics/SVG/1.1/DTD/svg11.dtd">
<!-- Generated by graphviz version 2.36.0 (20140111.2315)
 -->
<!-- Title: LocationViewerBackend Pages: 1 -->
<svg width="144pt" height="194pt"
 viewBox="0.00 0.00 144.00 194.00" xmlns="http://www.w3.org/2000/svg" xmlns:xlink="http://www.w3.org/1999/xlink">
<g id="graph0" class="graph" transform="scale(1 1) rotate(0) translate(4 190)">
<title>LocationViewerBackend</title>
<polygon fill="white" stroke="none" points="-4,4 -4,-190 140,-190 140,4 -4,4"/>
<!-- Node1 -->
<g id="node1" class="node"><title>Node1</title>
<polygon fill="#bfbfbf" stroke="black" points="-0.5,-1 -0.5,-91 136.5,-91 136.5,-1 -0.5,-1"/>
<text text-anchor="middle" x="68" y="-79" font-family="Helvetica,sans-Serif" font-size="10.00">LocationViewerBackend</text>
<polyline fill="none" stroke="black" points="-0.5,-72 136.5,-72 "/>
<text text-anchor="start" x="7.5" y="-60" font-family="Helvetica,sans-Serif" font-size="10.00">&#45; m_locations</text>
<polyline fill="none" stroke="black" points="-0.5,-53 136.5,-53 "/>
<text text-anchor="start" x="7.5" y="-41" font-family="Helvetica,sans-Serif" font-size="10.00">+ LocationViewerBackend()</text>
<text text-anchor="start" x="7.5" y="-30" font-family="Helvetica,sans-Serif" font-size="10.00">+ ShowLocations()</text>
<text text-anchor="start" x="7.5" y="-19" font-family="Helvetica,sans-Serif" font-size="10.00">+ UpdateInfected()</text>
<text text-anchor="start" x="7.5" y="-8" font-family="Helvetica,sans-Serif" font-size="10.00">&#45; NISToProvince()</text>
</g>
<!-- Node2 -->
<g id="node2" class="node"><title>Node2</title>
<g id="a_node2"><a xlink:href="../../d9/dec/a00090.html" target="_top" xlink:title="{QObject\n||}">
<polygon fill="white" stroke="black" points="41.5,-128.5 41.5,-185.5 94.5,-185.5 94.5,-128.5 41.5,-128.5"/>
<text text-anchor="middle" x="68" y="-173.5" font-family="Helvetica,sans-Serif" font-size="10.00">QObject</text>
<polyline fill="none" stroke="black" points="41.5,-166.5 94.5,-166.5 "/>
<text text-anchor="middle" x="68" y="-154.5" font-family="Helvetica,sans-Serif" font-size="10.00"> </text>
<polyline fill="none" stroke="black" points="41.5,-147.5 94.5,-147.5 "/>
<text text-anchor="middle" x="68" y="-135.5" font-family="Helvetica,sans-Serif" font-size="10.00"> </text>
</a>
</g>
</g>
<!-- Node2&#45;&gt;Node1 -->
<g id="edge1" class="edge"><title>Node2&#45;&gt;Node1</title>
<path fill="none" stroke="midnightblue" d="M68,-118.484C68,-109.643 68,-100.139 68,-91.0399"/>
<polygon fill="none" stroke="midnightblue" points="64.5001,-118.495 68,-128.495 71.5001,-118.495 64.5001,-118.495"/>
</g>
</g>
</svg>
