<?xml version="1.0" encoding="UTF-8" standalone="no"?>
<!DOCTYPE svg PUBLIC "-//W3C//DTD SVG 1.1//EN"
 "http://www.w3.org/Graphics/SVG/1.1/DTD/svg11.dtd">
<!-- Generated by graphviz version 2.36.0 (20140111.2315)
 -->
<!-- Title: gengeopop::Location::operator== Pages: 1 -->
<!--zoomable 479 -->
<svg id="main" version="1.1" xmlns="http://www.w3.org/2000/svg" xmlns:xlink="http://www.w3.org/1999/xlink" xml:space="preserve" onload="init(evt)">
<style type="text/css"><![CDATA[
.edge:hover path { stroke: red; }
.edge:hover polygon { stroke: red; fill: red; }
]]></style>
<script type="text/javascript"><![CDATA[
var edges = document.getElementsByTagName('g');
if (edges && edges.length) {
  for (var i=0;i<edges.length;i++) {
    if (edges[i].id.substr(0,4)=='edge') {
      edges[i].setAttribute('class','edge');
    }
  }
}
]]></script>
        <defs>
                <circle id="rim" cx="0" cy="0" r="7"/>
                <circle id="rim2" cx="0" cy="0" r="3.5"/>
                <g id="zoomPlus">
                        <use xlink:href="#rim" fill="#404040">
                                <set attributeName="fill" to="#808080" begin="zoomplus.mouseover" end="zoomplus.mouseout"/>
                        </use>
                        <path d="M-4,0h8M0,-4v8" fill="none" stroke="white" stroke-width="1.5" pointer-events="none"/>
                </g>
                <g id="zoomMin">
                        <use xlink:href="#rim" fill="#404040">
                                <set attributeName="fill" to="#808080" begin="zoomminus.mouseover" end="zoomminus.mouseout"/>
                        </use>
                        <path d="M-4,0h8" fill="none" stroke="white" stroke-width="1.5" pointer-events="none"/>
                </g>
                <g id="dirArrow">
                        <path fill="none" stroke="white" stroke-width="1.5" d="M0,-3.0v7 M-2.5,-0.5L0,-3.0L2.5,-0.5"/>
                </g>
               <g id="resetDef">
                       <use xlink:href="#rim2" fill="#404040">
                               <set attributeName="fill" to="#808080" begin="reset.mouseover" end="reset.mouseout"/>
                       </use>
               </g>
        </defs>

<script type="text/javascript">
var viewWidth = 308;
var viewHeight = 479;
var sectionId = 'dynsection-12';
</script>
<script xlink:href="../../svgpan.js"/>
<svg id="graph" class="graph">
<g id="viewport">
<title>gengeopop::Location::operator==</title>
<polygon fill="white" stroke="none" points="-4,4 -4,-475 304,-475 304,4 -4,4"/>
<!-- Node1 -->
<g id="node1" class="node"><title>Node1</title>
<polygon fill="#bfbfbf" stroke="black" points="0.5,-220 0.5,-250 107.5,-250 107.5,-220 0.5,-220"/>
<text text-anchor="start" x="8.5" y="-238" font-family="Helvetica,sans-Serif" font-size="10.00">gengeopop::Location</text>
<text text-anchor="middle" x="54" y="-227" font-family="Helvetica,sans-Serif" font-size="10.00">::operator==</text>
</g>
<!-- Node2 -->
<g id="node2" class="node"><title>Node2</title>
<g id="a_node2"><a xlink:href="../../d4/d6d/a00055.html#a1dd958d2c84928686ecaaae26d68692e" target="_top" xlink:title="Gets all contact centers at this location. ">
<polygon fill="white" stroke="black" points="168.5,-441 168.5,-471 275.5,-471 275.5,-441 168.5,-441"/>
<text text-anchor="start" x="176.5" y="-459" font-family="Helvetica,sans-Serif" font-size="10.00">gengeopop::Location</text>
<text text-anchor="middle" x="222" y="-448" font-family="Helvetica,sans-Serif" font-size="10.00">::GetContactCenters</text>
</a>
</g>
</g>
<!-- Node1&#45;&gt;Node2 -->
<g id="edge1" class="edge"><title>Node1&#45;&gt;Node2</title>
<path fill="none" stroke="midnightblue" d="M57.5905,-250.224C64.6132,-286.825 87.4297,-380.451 144,-431 148.431,-434.96 153.499,-438.293 158.873,-441.1"/>
<polygon fill="midnightblue" stroke="midnightblue" points="157.596,-444.364 168.146,-445.342 160.508,-437.999 157.596,-444.364"/>
</g>
<!-- Node3 -->
<g id="node3" class="node"><title>Node3</title>
<g id="a_node3"><a xlink:href="../../d4/d6d/a00055.html#a7f72aa5f710ec1e18079485d1b28d84c" target="_top" xlink:title="Gets the Coordinate of this location. ">
<polygon fill="white" stroke="black" points="168.5,-392 168.5,-422 275.5,-422 275.5,-392 168.5,-392"/>
<text text-anchor="start" x="176.5" y="-410" font-family="Helvetica,sans-Serif" font-size="10.00">gengeopop::Location</text>
<text text-anchor="middle" x="222" y="-399" font-family="Helvetica,sans-Serif" font-size="10.00">::GetCoordinate</text>
</a>
</g>
</g>
<!-- Node1&#45;&gt;Node3 -->
<g id="edge2" class="edge"><title>Node1&#45;&gt;Node3</title>
<path fill="none" stroke="midnightblue" d="M60.1505,-250.365C70.9179,-280.168 98.64,-346.051 144,-382 148.587,-385.635 153.719,-388.749 159.097,-391.415"/>
<polygon fill="midnightblue" stroke="midnightblue" points="157.767,-394.654 168.328,-395.493 160.595,-388.251 157.767,-394.654"/>
</g>
<!-- Node4 -->
<g id="node4" class="node"><title>Node4</title>
<g id="a_node4"><a xlink:href="../../d4/d6d/a00055.html#af18f7d0f363b53b9140d6ca9f98a0ebe" target="_top" xlink:title="Gets the ID. ">
<polygon fill="white" stroke="black" points="168.5,-343 168.5,-373 275.5,-373 275.5,-343 168.5,-343"/>
<text text-anchor="start" x="176.5" y="-361" font-family="Helvetica,sans-Serif" font-size="10.00">gengeopop::Location</text>
<text text-anchor="middle" x="222" y="-350" font-family="Helvetica,sans-Serif" font-size="10.00">::GetID</text>
</a>
</g>
</g>
<!-- Node1&#45;&gt;Node4 -->
<g id="edge3" class="edge"><title>Node1&#45;&gt;Node4</title>
<path fill="none" stroke="midnightblue" d="M64.9338,-250.204C79.7017,-271.655 109.447,-310.671 144,-333 148.648,-336.004 153.688,-338.675 158.889,-341.045"/>
<polygon fill="midnightblue" stroke="midnightblue" points="157.798,-344.382 168.376,-344.992 160.487,-337.919 157.798,-344.382"/>
</g>
<!-- Node5 -->
<g id="node5" class="node"><title>Node5</title>
<g id="a_node5"><a xlink:href="../../d4/d6d/a00055.html#a5b17f1f7922740d45b5234bcc418cdbe" target="_top" xlink:title="Gets a vector with the outgoing cities which people are commuting to + the proportion. ">
<polygon fill="white" stroke="black" points="144,-294 144,-324 300,-324 300,-294 144,-294"/>
<text text-anchor="start" x="152" y="-312" font-family="Helvetica,sans-Serif" font-size="10.00">gengeopop::Location</text>
<text text-anchor="middle" x="222" y="-301" font-family="Helvetica,sans-Serif" font-size="10.00">::GetIncomingCommuningCities</text>
</a>
</g>
</g>
<!-- Node1&#45;&gt;Node5 -->
<g id="edge4" class="edge"><title>Node1&#45;&gt;Node5</title>
<path fill="none" stroke="midnightblue" d="M79.3022,-250.021C96.8462,-260.454 121.339,-274.188 144,-284 149.288,-286.29 154.857,-288.487 160.482,-290.563"/>
<polygon fill="midnightblue" stroke="midnightblue" points="159.366,-293.881 169.961,-293.937 161.714,-287.286 159.366,-293.881"/>
</g>
<!-- Node6 -->
<g id="node6" class="node"><title>Node6</title>
<g id="a_node6"><a xlink:href="../../d4/d6d/a00055.html#ad9bf44e4cca3f0273630488ba83b94a5" target="_top" xlink:title="Gets the name. ">
<polygon fill="white" stroke="black" points="168.5,-245 168.5,-275 275.5,-275 275.5,-245 168.5,-245"/>
<text text-anchor="start" x="176.5" y="-263" font-family="Helvetica,sans-Serif" font-size="10.00">gengeopop::Location</text>
<text text-anchor="middle" x="222" y="-252" font-family="Helvetica,sans-Serif" font-size="10.00">::GetName</text>
</a>
</g>
</g>
<!-- Node1&#45;&gt;Node6 -->
<g id="edge5" class="edge"><title>Node1&#45;&gt;Node6</title>
<path fill="none" stroke="midnightblue" d="M107.523,-242.91C123.57,-245.327 141.382,-248.009 158.047,-250.519"/>
<polygon fill="midnightblue" stroke="midnightblue" points="157.839,-254.027 168.248,-252.055 158.881,-247.105 157.839,-254.027"/>
</g>
<!-- Node7 -->
<g id="node7" class="node"><title>Node7</title>
<g id="a_node7"><a xlink:href="../../d4/d6d/a00055.html#adb3d6b6efb77e0cc16a3e8d3917dd4ff" target="_top" xlink:title="gengeopop::Location\l::GetOutgoingCommuningCities">
<polygon fill="white" stroke="black" points="144.5,-196 144.5,-226 299.5,-226 299.5,-196 144.5,-196"/>
<text text-anchor="start" x="152.5" y="-214" font-family="Helvetica,sans-Serif" font-size="10.00">gengeopop::Location</text>
<text text-anchor="middle" x="222" y="-203" font-family="Helvetica,sans-Serif" font-size="10.00">::GetOutgoingCommuningCities</text>
</a>
</g>
</g>
<!-- Node1&#45;&gt;Node7 -->
<g id="edge6" class="edge"><title>Node1&#45;&gt;Node7</title>
<path fill="none" stroke="midnightblue" d="M107.523,-227.406C116.103,-226.166 125.188,-224.852 134.332,-223.53"/>
<polygon fill="midnightblue" stroke="midnightblue" points="134.86,-226.99 144.256,-222.095 133.858,-220.062 134.86,-226.99"/>
</g>
<!-- Node8 -->
<g id="node8" class="node"><title>Node8</title>
<g id="a_node8"><a xlink:href="../../d4/d6d/a00055.html#aff984a0117147c06bb1fd057e899e7f5" target="_top" xlink:title="Gets the parent of this sub&#45;municipality. ">
<polygon fill="white" stroke="black" points="168.5,-147 168.5,-177 275.5,-177 275.5,-147 168.5,-147"/>
<text text-anchor="start" x="176.5" y="-165" font-family="Helvetica,sans-Serif" font-size="10.00">gengeopop::Location</text>
<text text-anchor="middle" x="222" y="-154" font-family="Helvetica,sans-Serif" font-size="10.00">::GetParent</text>
</a>
</g>
</g>
<!-- Node1&#45;&gt;Node8 -->
<g id="edge7" class="edge"><title>Node1&#45;&gt;Node8</title>
<path fill="none" stroke="midnightblue" d="M80.0989,-219.881C97.6043,-209.733 121.727,-196.529 144,-187 149.298,-184.733 154.874,-182.551 160.503,-180.485"/>
<polygon fill="midnightblue" stroke="midnightblue" points="161.731,-183.763 169.987,-177.123 159.392,-177.166 161.731,-183.763"/>
</g>
<!-- Node9 -->
<g id="node9" class="node"><title>Node9</title>
<g id="a_node9"><a xlink:href="../../d4/d6d/a00055.html#a4cf7386a60badc7b409e72347382544f" target="_top" xlink:title="Gets the absolute population. ">
<polygon fill="white" stroke="black" points="168.5,-98 168.5,-128 275.5,-128 275.5,-98 168.5,-98"/>
<text text-anchor="start" x="176.5" y="-116" font-family="Helvetica,sans-Serif" font-size="10.00">gengeopop::Location</text>
<text text-anchor="middle" x="222" y="-105" font-family="Helvetica,sans-Serif" font-size="10.00">::GetPopulation</text>
</a>
</g>
</g>
<!-- Node1&#45;&gt;Node9 -->
<g id="edge8" class="edge"><title>Node1&#45;&gt;Node9</title>
<path fill="none" stroke="midnightblue" d="M64.9707,-219.955C79.7836,-198.728 109.583,-160.116 144,-138 148.656,-135.008 153.701,-132.345 158.906,-129.981"/>
<polygon fill="midnightblue" stroke="midnightblue" points="160.503,-133.108 168.396,-126.041 157.819,-126.643 160.503,-133.108"/>
</g>
<!-- Node10 -->
<g id="node10" class="node"><title>Node10</title>
<g id="a_node10"><a xlink:href="../../d4/d6d/a00055.html#a737a8e3872d2ce005648f09ca3a7900e" target="_top" xlink:title="Gets the province. ">
<polygon fill="white" stroke="black" points="168.5,-49 168.5,-79 275.5,-79 275.5,-49 168.5,-49"/>
<text text-anchor="start" x="176.5" y="-67" font-family="Helvetica,sans-Serif" font-size="10.00">gengeopop::Location</text>
<text text-anchor="middle" x="222" y="-56" font-family="Helvetica,sans-Serif" font-size="10.00">::GetProvince</text>
</a>
</g>
</g>
<!-- Node1&#45;&gt;Node10 -->
<g id="edge9" class="edge"><title>Node1&#45;&gt;Node10</title>
<path fill="none" stroke="midnightblue" d="M60.1807,-219.739C71.0009,-190.138 98.8115,-124.701 144,-89 148.592,-85.3718 153.728,-82.2625 159.109,-79.5993"/>
<polygon fill="midnightblue" stroke="midnightblue" points="160.606,-82.7642 168.342,-75.5255 157.781,-76.3597 160.606,-82.7642"/>
</g>
<!-- Node11 -->
<g id="node11" class="node"><title>Node11</title>
<g id="a_node11"><a xlink:href="../../d4/d6d/a00055.html#a1e94c691f7a5e438938dd3bde6f505f6" target="_top" xlink:title="Gets the sub&#45;municipalities of this location. ">
<polygon fill="white" stroke="black" points="164.5,-0 164.5,-30 279.5,-30 279.5,-0 164.5,-0"/>
<text text-anchor="start" x="172.5" y="-18" font-family="Helvetica,sans-Serif" font-size="10.00">gengeopop::Location</text>
<text text-anchor="middle" x="222" y="-7" font-family="Helvetica,sans-Serif" font-size="10.00">::GetSubMunicipalities</text>
</a>
</g>
</g>
<!-- Node1&#45;&gt;Node11 -->
<g id="edge10" class="edge"><title>Node1&#45;&gt;Node11</title>
<path fill="none" stroke="midnightblue" d="M57.615,-219.852C64.6922,-183.435 87.6204,-90.2809 144,-40 147.396,-36.9714 151.165,-34.3089 155.157,-31.9685"/>
<polygon fill="midnightblue" stroke="midnightblue" points="156.89,-35.0135 164.198,-27.3421 153.701,-28.782 156.89,-35.0135"/>
</g>
</g>
</svg>
        <g id="navigator" transform="translate(0 0)" fill="#404254">
                <rect fill="#f2f5e9" fill-opacity="0.5" stroke="#606060" stroke-width=".5" x="0" y="0" width="60" height="60"/>
                <use id="zoomplus" xlink:href="#zoomPlus" x="17" y="9" onmousedown="handleZoom(evt,'in')"/>
                <use id="zoomminus" xlink:href="#zoomMin" x="42" y="9" onmousedown="handleZoom(evt,'out')"/>
                <use id="reset" xlink:href="#resetDef" x="30" y="36" onmousedown="handleReset()"/>
                <g id="arrowUp" xlink:href="#dirArrow" transform="translate(30 24)" onmousedown="handlePan(0,-1)">
                  <use xlink:href="#rim" fill="#404040">
                        <set attributeName="fill" to="#808080" begin="arrowUp.mouseover" end="arrowUp.mouseout"/>
                  </use>
                  <path fill="none" stroke="white" stroke-width="1.5" d="M0,-3.0v7 M-2.5,-0.5L0,-3.0L2.5,-0.5"/>
                </g>
                <g id="arrowRight" xlink:href="#dirArrow" transform="rotate(90) translate(36 -43)" onmousedown="handlePan(1,0)">
                  <use xlink:href="#rim" fill="#404040">
                        <set attributeName="fill" to="#808080" begin="arrowRight.mouseover" end="arrowRight.mouseout"/>
                  </use>
                  <path fill="none" stroke="white" stroke-width="1.5" d="M0,-3.0v7 M-2.5,-0.5L0,-3.0L2.5,-0.5"/>
                </g>
                <g id="arrowDown" xlink:href="#dirArrow" transform="rotate(180) translate(-30 -48)" onmousedown="handlePan(0,1)">
                  <use xlink:href="#rim" fill="#404040">
                        <set attributeName="fill" to="#808080" begin="arrowDown.mouseover" end="arrowDown.mouseout"/>
                  </use>
                  <path fill="none" stroke="white" stroke-width="1.5" d="M0,-3.0v7 M-2.5,-0.5L0,-3.0L2.5,-0.5"/>
                </g>
                <g id="arrowLeft" xlink:href="#dirArrow" transform="rotate(270) translate(-36 17)" onmousedown="handlePan(-1,0)">
                  <use xlink:href="#rim" fill="#404040">
                        <set attributeName="fill" to="#808080" begin="arrowLeft.mouseover" end="arrowLeft.mouseout"/>
                  </use>
                  <path fill="none" stroke="white" stroke-width="1.5" d="M0,-3.0v7 M-2.5,-0.5L0,-3.0L2.5,-0.5"/>
                </g>
        </g>
        <svg viewBox="0 0 15 15" width="100%" height="30px" preserveAspectRatio="xMaxYMin meet">
         <g id="arrow_out" transform="scale(0.3 0.3)">
          <a xlink:href="a00055_ac19509ddc7bdcdd44dc8d85e27949056_cgraph_org.svg" target="_base">
           <rect id="button" ry="5" rx="5" y="6" x="6" height="38" width="38"
                fill="#f2f5e9" fill-opacity="0.5" stroke="#606060" stroke-width="1.0"/>
           <path id="arrow"
             d="M 11.500037,31.436501 C 11.940474,20.09759 22.043105,11.32322 32.158766,21.979434 L 37.068811,17.246167 C 37.068811,17.246167 37.088388,32 37.088388,32 L 22.160133,31.978069 C 22.160133,31.978069 26.997745,27.140456 26.997745,27.140456 C 18.528582,18.264221 13.291696,25.230495 11.500037,31.436501 z"
             style="fill:#404040;"/>
          </a>
         </g>
        </svg>
</svg>
