<?xml version="1.0" encoding="UTF-8" standalone="no"?>
<!DOCTYPE svg PUBLIC "-//W3C//DTD SVG 1.1//EN"
 "http://www.w3.org/Graphics/SVG/1.1/DTD/svg11.dtd">
<!-- Generated by graphviz version 2.36.0 (20140111.2315)
 -->
<!-- Title: gengeopop::Location::GetPopulation Pages: 1 -->
<svg width="260pt" height="87pt"
 viewBox="0.00 0.00 260.00 87.00" xmlns="http://www.w3.org/2000/svg" xmlns:xlink="http://www.w3.org/1999/xlink">
<g id="graph0" class="graph" transform="scale(1 1) rotate(0) translate(4 83)">
<title>gengeopop::Location::GetPopulation</title>
<polygon fill="white" stroke="none" points="-4,4 -4,-83 256,-83 256,4 -4,4"/>
<!-- Node1 -->
<g id="node1" class="node"><title>Node1</title>
<polygon fill="#bfbfbf" stroke="black" points="0.5,-24 0.5,-54 107.5,-54 107.5,-24 0.5,-24"/>
<text text-anchor="start" x="8.5" y="-42" font-family="Helvetica,sans-Serif" font-size="10.00">gengeopop::Location</text>
<text text-anchor="middle" x="54" y="-31" font-family="Helvetica,sans-Serif" font-size="10.00">::GetPopulation</text>
</g>
<!-- Node2 -->
<g id="node2" class="node"><title>Node2</title>
<g id="a_node2"><a xlink:href="../../d4/d6d/a00055.html#a0b45c2977f2b3082c3aacf4b6661e6f1" target="_top" xlink:title="Gets the ratio of infected persons in all contactPools of this location. ">
<polygon fill="white" stroke="black" points="144.5,-49 144.5,-79 251.5,-79 251.5,-49 144.5,-49"/>
<text text-anchor="start" x="152.5" y="-67" font-family="Helvetica,sans-Serif" font-size="10.00">gengeopop::Location</text>
<text text-anchor="middle" x="198" y="-56" font-family="Helvetica,sans-Serif" font-size="10.00">::GetInfectedRatio</text>
</a>
</g>
</g>
<!-- Node1&#45;&gt;Node2 -->
<g id="edge1" class="edge"><title>Node1&#45;&gt;Node2</title>
<path fill="none" stroke="midnightblue" d="M117.994,-50.0905C126.704,-51.624 135.578,-53.1862 144.08,-54.6831"/>
<polygon fill="midnightblue" stroke="midnightblue" points="118.331,-46.5961 107.876,-48.3091 117.117,-53.49 118.331,-46.5961"/>
</g>
<!-- Node3 -->
<g id="node3" class="node"><title>Node3</title>
<g id="a_node3"><a xlink:href="../../d4/d6d/a00055.html#ac19509ddc7bdcdd44dc8d85e27949056" target="_top" xlink:title="Perform a full compare of the given locations. ">
<polygon fill="white" stroke="black" points="144.5,-0 144.5,-30 251.5,-30 251.5,-0 144.5,-0"/>
<text text-anchor="start" x="152.5" y="-18" font-family="Helvetica,sans-Serif" font-size="10.00">gengeopop::Location</text>
<text text-anchor="middle" x="198" y="-7" font-family="Helvetica,sans-Serif" font-size="10.00">::operator==</text>
</a>
</g>
</g>
<!-- Node1&#45;&gt;Node3 -->
<g id="edge2" class="edge"><title>Node1&#45;&gt;Node3</title>
<path fill="none" stroke="midnightblue" d="M117.994,-28.3531C126.704,-26.8809 135.578,-25.3812 144.08,-23.9442"/>
<polygon fill="midnightblue" stroke="midnightblue" points="117.152,-24.9456 107.876,-30.0633 118.319,-31.8478 117.152,-24.9456"/>
</g>
</g>
</svg>
