<?xml version="1.0" encoding="UTF-8" standalone="no"?>
<!DOCTYPE svg PUBLIC "-//W3C//DTD SVG 1.1//EN"
 "http://www.w3.org/Graphics/SVG/1.1/DTD/svg11.dtd">
<!-- Generated by graphviz version 2.36.0 (20140111.2315)
 -->
<!-- Title: stride::DiseaseSeeder Pages: 1 -->
<svg width="999pt" height="624pt"
 viewBox="0.00 0.00 999.00 624.00" xmlns="http://www.w3.org/2000/svg" xmlns:xlink="http://www.w3.org/1999/xlink">
<g id="graph0" class="graph" transform="scale(1 1) rotate(0) translate(4 620)">
<title>stride::DiseaseSeeder</title>
<polygon fill="white" stroke="none" points="-4,4 -4,-620 995,-620 995,4 -4,4"/>
<!-- Node1 -->
<g id="node1" class="node"><title>Node1</title>
<polygon fill="#bfbfbf" stroke="black" points="383.5,-0.5 383.5,-79.5 496.5,-79.5 496.5,-0.5 383.5,-0.5"/>
<text text-anchor="middle" x="440" y="-67.5" font-family="Helvetica,sans-Serif" font-size="10.00">stride::DiseaseSeeder</text>
<polyline fill="none" stroke="black" points="383.5,-60.5 496.5,-60.5 "/>
<text text-anchor="middle" x="440" y="-48.5" font-family="Helvetica,sans-Serif" font-size="10.00"> </text>
<polyline fill="none" stroke="black" points="383.5,-41.5 496.5,-41.5 "/>
<text text-anchor="start" x="391.5" y="-29.5" font-family="Helvetica,sans-Serif" font-size="10.00">+ DiseaseSeeder()</text>
<text text-anchor="start" x="391.5" y="-18.5" font-family="Helvetica,sans-Serif" font-size="10.00">+ Seed()</text>
<text text-anchor="start" x="391.5" y="-7.5" font-family="Helvetica,sans-Serif" font-size="10.00">&#45; Vaccinate()</text>
</g>
<!-- Node2 -->
<g id="node2" class="node"><title>Node2</title>
<polygon fill="white" stroke="#bfbfbf" points="370,-178.5 370,-235.5 418,-235.5 418,-178.5 370,-178.5"/>
<text text-anchor="middle" x="394" y="-223.5" font-family="Helvetica,sans-Serif" font-size="10.00">ptree &amp;</text>
<polyline fill="none" stroke="#bfbfbf" points="370,-216.5 418,-216.5 "/>
<text text-anchor="middle" x="394" y="-204.5" font-family="Helvetica,sans-Serif" font-size="10.00"> </text>
<polyline fill="none" stroke="#bfbfbf" points="370,-197.5 418,-197.5 "/>
<text text-anchor="middle" x="394" y="-185.5" font-family="Helvetica,sans-Serif" font-size="10.00"> </text>
</g>
<!-- Node2&#45;&gt;Node1 -->
<g id="edge1" class="edge"><title>Node2&#45;&gt;Node1</title>
<path fill="none" stroke="#404040" d="M393.048,-178.188C393.113,-155.927 395.087,-124.206 404,-98 404.857,-95.4791 405.847,-92.9561 406.938,-90.4512"/>
<polygon fill="none" stroke="#404040" points="406.96,-90.4055 406.034,-83.2541 412.279,-79.6484 413.205,-86.7997 406.96,-90.4055"/>
<text text-anchor="middle" x="434" y="-101.5" font-family="Helvetica,sans-Serif" font-size="10.00"> &#45;m_config_pt</text>
</g>
<!-- Node3 -->
<g id="node3" class="node"><title>Node3</title>
<g id="a_node3"><a xlink:href="../../d6/d7d/a00161.html" target="_top" xlink:title="Manages random number generation in parallel (OpenMP) calculations. ">
<polygon fill="white" stroke="black" points="436,-129 436,-285 554,-285 554,-129 436,-129"/>
<text text-anchor="middle" x="495" y="-273" font-family="Helvetica,sans-Serif" font-size="10.00">stride::util::RNManager</text>
<polyline fill="none" stroke="black" points="436,-266 554,-266 "/>
<text text-anchor="middle" x="495" y="-254" font-family="Helvetica,sans-Serif" font-size="10.00"> </text>
<polyline fill="none" stroke="black" points="436,-247 554,-247 "/>
<text text-anchor="start" x="444" y="-235" font-family="Helvetica,sans-Serif" font-size="10.00">+ RNManager()</text>
<text text-anchor="start" x="444" y="-224" font-family="Helvetica,sans-Serif" font-size="10.00">+ RNManager()</text>
<text text-anchor="start" x="444" y="-213" font-family="Helvetica,sans-Serif" font-size="10.00">+ RNManager()</text>
<text text-anchor="start" x="444" y="-202" font-family="Helvetica,sans-Serif" font-size="10.00">+ operator=()</text>
<text text-anchor="start" x="444" y="-191" font-family="Helvetica,sans-Serif" font-size="10.00">+ operator=()</text>
<text text-anchor="start" x="444" y="-180" font-family="Helvetica,sans-Serif" font-size="10.00">+ GetInfo()</text>
<text text-anchor="start" x="444" y="-169" font-family="Helvetica,sans-Serif" font-size="10.00">+ GetGenerator()</text>
<text text-anchor="start" x="444" y="-158" font-family="Helvetica,sans-Serif" font-size="10.00">+ RandomShuffle()</text>
<text text-anchor="start" x="444" y="-147" font-family="Helvetica,sans-Serif" font-size="10.00">+ Initialize()</text>
<text text-anchor="start" x="444" y="-136" font-family="Helvetica,sans-Serif" font-size="10.00">+ Initialize()</text>
</a>
</g>
</g>
<!-- Node3&#45;&gt;Node1 -->
<g id="edge2" class="edge"><title>Node3&#45;&gt;Node1</title>
<path fill="none" stroke="#404040" d="M474.1,-128.945C470.908,-118.483 467.503,-107.934 464,-98 463.177,-95.6663 462.308,-93.2907 461.407,-90.8999"/>
<polygon fill="none" stroke="#404040" points="461.397,-90.8727 455.484,-86.7445 457.02,-79.699 462.933,-83.8272 461.397,-90.8727"/>
<text text-anchor="middle" x="503.5" y="-101.5" font-family="Helvetica,sans-Serif" font-size="10.00"> &#45;m_rn_manager</text>
</g>
<!-- Node4 -->
<g id="node4" class="node"><title>Node4</title>
<polygon fill="white" stroke="#bfbfbf" points="254.5,-335 254.5,-403 349.5,-403 349.5,-335 254.5,-335"/>
<text text-anchor="start" x="262.5" y="-391" font-family="Helvetica,sans-Serif" font-size="10.00">std::vector&lt; trng::</text>
<text text-anchor="middle" x="302" y="-380" font-family="Helvetica,sans-Serif" font-size="10.00">mrg3 &gt;</text>
<polyline fill="none" stroke="#bfbfbf" points="254.5,-373 349.5,-373 "/>
<text text-anchor="middle" x="302" y="-361" font-family="Helvetica,sans-Serif" font-size="10.00"> </text>
<polyline fill="none" stroke="#bfbfbf" points="254.5,-354 349.5,-354 "/>
<text text-anchor="middle" x="302" y="-342" font-family="Helvetica,sans-Serif" font-size="10.00"> </text>
</g>
<!-- Node4&#45;&gt;Node3 -->
<g id="edge3" class="edge"><title>Node4&#45;&gt;Node3</title>
<path fill="none" stroke="#404040" d="M349.653,-335.79C365.016,-325.524 382.166,-314.188 398,-304 410.757,-295.792 415.443,-295.826 427,-286 427.094,-285.92 427.188,-285.84 427.282,-285.76"/>
<polygon fill="none" stroke="#404040" points="427.042,-285.975 428.831,-278.989 435.968,-277.954 434.179,-284.939 427.042,-285.975"/>
<text text-anchor="middle" x="419" y="-307.5" font-family="Helvetica,sans-Serif" font-size="10.00"> &#45;m_mrg3</text>
</g>
<!-- Node5 -->
<g id="node5" class="node"><title>Node5</title>
<polygon fill="white" stroke="#bfbfbf" points="85,-452.5 85,-509.5 123,-509.5 123,-452.5 85,-452.5"/>
<text text-anchor="middle" x="104" y="-497.5" font-family="Helvetica,sans-Serif" font-size="10.00">mrg3</text>
<polyline fill="none" stroke="#bfbfbf" points="85,-490.5 123,-490.5 "/>
<text text-anchor="middle" x="104" y="-478.5" font-family="Helvetica,sans-Serif" font-size="10.00"> </text>
<polyline fill="none" stroke="#bfbfbf" points="85,-471.5 123,-471.5 "/>
<text text-anchor="middle" x="104" y="-459.5" font-family="Helvetica,sans-Serif" font-size="10.00"> </text>
</g>
<!-- Node5&#45;&gt;Node4 -->
<g id="edge4" class="edge"><title>Node5&#45;&gt;Node4</title>
<path fill="none" stroke="#404040" d="M97.3428,-452.385C96.4346,-441.693 97.746,-430.104 105,-422 124.04,-400.728 199.837,-411.757 242.801,-403.329"/>
<polygon fill="none" stroke="#404040" points="242.883,-403.307 247.65,-397.896 254.478,-400.215 249.712,-405.626 242.883,-403.307"/>
<text text-anchor="middle" x="129.5" y="-425.5" font-family="Helvetica,sans-Serif" font-size="10.00"> +elements</text>
</g>
<!-- Node6 -->
<g id="node6" class="node"><title>Node6</title>
<g id="a_node6"><a xlink:title="STL class. ">
<polygon fill="white" stroke="#bfbfbf" points="451.5,-452.5 451.5,-509.5 538.5,-509.5 538.5,-452.5 451.5,-452.5"/>
<text text-anchor="middle" x="495" y="-497.5" font-family="Helvetica,sans-Serif" font-size="10.00">std::vector&lt; T &gt;</text>
<polyline fill="none" stroke="#bfbfbf" points="451.5,-490.5 538.5,-490.5 "/>
<text text-anchor="middle" x="495" y="-478.5" font-family="Helvetica,sans-Serif" font-size="10.00"> </text>
<polyline fill="none" stroke="#bfbfbf" points="451.5,-471.5 538.5,-471.5 "/>
<text text-anchor="middle" x="495" y="-459.5" font-family="Helvetica,sans-Serif" font-size="10.00"> </text>
</a>
</g>
</g>
<!-- Node6&#45;&gt;Node4 -->
<g id="edge5" class="edge"><title>Node6&#45;&gt;Node4</title>
<path fill="none" stroke="orange" d="M441.487,-464.352C419.717,-456.81 394.832,-446.629 374,-434 359.841,-425.417 345.866,-413.901 334.049,-403.004"/>
<polygon fill="orange" stroke="orange" points="440.651,-467.764 451.245,-467.632 442.881,-461.128 440.651,-467.764"/>
<text text-anchor="middle" x="407" y="-425.5" font-family="Helvetica,sans-Serif" font-size="10.00"> &lt; trng::mrg3 &gt;</text>
</g>
<!-- Node9 -->
<g id="node9" class="node"><title>Node9</title>
<polygon fill="white" stroke="#bfbfbf" points="367.5,-335 367.5,-403 462.5,-403 462.5,-335 367.5,-335"/>
<text text-anchor="start" x="375.5" y="-391" font-family="Helvetica,sans-Serif" font-size="10.00">std::vector&lt; trng::</text>
<text text-anchor="middle" x="415" y="-380" font-family="Helvetica,sans-Serif" font-size="10.00">mrg2 &gt;</text>
<polyline fill="none" stroke="#bfbfbf" points="367.5,-373 462.5,-373 "/>
<text text-anchor="middle" x="415" y="-361" font-family="Helvetica,sans-Serif" font-size="10.00"> </text>
<polyline fill="none" stroke="#bfbfbf" points="367.5,-354 462.5,-354 "/>
<text text-anchor="middle" x="415" y="-342" font-family="Helvetica,sans-Serif" font-size="10.00"> </text>
</g>
<!-- Node6&#45;&gt;Node9 -->
<g id="edge10" class="edge"><title>Node6&#45;&gt;Node9</title>
<path fill="none" stroke="orange" d="M460.487,-444.643C457.511,-441.134 454.635,-437.554 452,-434 444.892,-424.412 438.065,-413.343 432.253,-403.136"/>
<polygon fill="orange" stroke="orange" points="457.874,-446.972 467.104,-452.173 463.132,-442.351 457.874,-446.972"/>
<text text-anchor="middle" x="485" y="-425.5" font-family="Helvetica,sans-Serif" font-size="10.00"> &lt; trng::mrg2 &gt;</text>
</g>
<!-- Node11 -->
<g id="node11" class="node"><title>Node11</title>
<polygon fill="white" stroke="#bfbfbf" points="46.5,-335 46.5,-403 141.5,-403 141.5,-335 46.5,-335"/>
<text text-anchor="start" x="54.5" y="-391" font-family="Helvetica,sans-Serif" font-size="10.00">std::vector&lt; trng::</text>
<text text-anchor="middle" x="94" y="-380" font-family="Helvetica,sans-Serif" font-size="10.00">lcg64_shift &gt;</text>
<polyline fill="none" stroke="#bfbfbf" points="46.5,-373 141.5,-373 "/>
<text text-anchor="middle" x="94" y="-361" font-family="Helvetica,sans-Serif" font-size="10.00"> </text>
<polyline fill="none" stroke="#bfbfbf" points="46.5,-354 141.5,-354 "/>
<text text-anchor="middle" x="94" y="-342" font-family="Helvetica,sans-Serif" font-size="10.00"> </text>
</g>
<!-- Node6&#45;&gt;Node11 -->
<g id="edge13" class="edge"><title>Node6&#45;&gt;Node11</title>
<path fill="none" stroke="orange" d="M441.359,-471.284C406.28,-465.642 359.445,-458.215 318,-452 261.622,-443.546 244.314,-454.19 191,-434 171.377,-426.569 151.689,-414.613 135.228,-403.035"/>
<polygon fill="orange" stroke="orange" points="440.957,-474.765 451.386,-472.9 442.071,-467.854 440.957,-474.765"/>
<text text-anchor="middle" x="236.5" y="-425.5" font-family="Helvetica,sans-Serif" font-size="10.00"> &lt; trng::lcg64_shift &gt;</text>
</g>
<!-- Node14 -->
<g id="node14" class="node"><title>Node14</title>
<polygon fill="white" stroke="#bfbfbf" points="811.5,-335 811.5,-403 906.5,-403 906.5,-335 811.5,-335"/>
<text text-anchor="start" x="819.5" y="-391" font-family="Helvetica,sans-Serif" font-size="10.00">std::vector&lt; trng::</text>
<text text-anchor="middle" x="859" y="-380" font-family="Helvetica,sans-Serif" font-size="10.00">lcg64 &gt;</text>
<polyline fill="none" stroke="#bfbfbf" points="811.5,-373 906.5,-373 "/>
<text text-anchor="middle" x="859" y="-361" font-family="Helvetica,sans-Serif" font-size="10.00"> </text>
<polyline fill="none" stroke="#bfbfbf" points="811.5,-354 906.5,-354 "/>
<text text-anchor="middle" x="859" y="-342" font-family="Helvetica,sans-Serif" font-size="10.00"> </text>
</g>
<!-- Node6&#45;&gt;Node14 -->
<g id="edge17" class="edge"><title>Node6&#45;&gt;Node14</title>
<path fill="none" stroke="orange" d="M549.015,-473.428C615.717,-464.846 725.012,-449.129 763,-434 782.168,-426.367 801.452,-414.515 817.656,-403.076"/>
<polygon fill="orange" stroke="orange" points="548.17,-470.007 538.693,-474.743 549.055,-476.951 548.17,-470.007"/>
<text text-anchor="middle" x="819.5" y="-425.5" font-family="Helvetica,sans-Serif" font-size="10.00"> &lt; trng::lcg64 &gt;</text>
</g>
<!-- Node16 -->
<g id="node16" class="node"><title>Node16</title>
<polygon fill="white" stroke="#bfbfbf" points="640.5,-335 640.5,-403 735.5,-403 735.5,-335 640.5,-335"/>
<text text-anchor="start" x="648.5" y="-391" font-family="Helvetica,sans-Serif" font-size="10.00">std::vector&lt; trng::</text>
<text text-anchor="middle" x="688" y="-380" font-family="Helvetica,sans-Serif" font-size="10.00">yarn2 &gt;</text>
<polyline fill="none" stroke="#bfbfbf" points="640.5,-373 735.5,-373 "/>
<text text-anchor="middle" x="688" y="-361" font-family="Helvetica,sans-Serif" font-size="10.00"> </text>
<polyline fill="none" stroke="#bfbfbf" points="640.5,-354 735.5,-354 "/>
<text text-anchor="middle" x="688" y="-342" font-family="Helvetica,sans-Serif" font-size="10.00"> </text>
</g>
<!-- Node6&#45;&gt;Node16 -->
<g id="edge20" class="edge"><title>Node6&#45;&gt;Node16</title>
<path fill="none" stroke="orange" d="M548.089,-461.701C567.217,-454.209 588.606,-444.758 607,-434 622.007,-425.223 637.27,-413.909 650.442,-403.241"/>
<polygon fill="orange" stroke="orange" points="546.702,-458.484 538.614,-465.328 549.204,-465.022 546.702,-458.484"/>
<text text-anchor="middle" x="658" y="-425.5" font-family="Helvetica,sans-Serif" font-size="10.00"> &lt; trng::yarn2 &gt;</text>
</g>
<!-- Node19 -->
<g id="node19" class="node"><title>Node19</title>
<polygon fill="white" stroke="#bfbfbf" points="527.5,-335 527.5,-403 622.5,-403 622.5,-335 527.5,-335"/>
<text text-anchor="start" x="535.5" y="-391" font-family="Helvetica,sans-Serif" font-size="10.00">std::vector&lt; trng::</text>
<text text-anchor="middle" x="575" y="-380" font-family="Helvetica,sans-Serif" font-size="10.00">yarn3 &gt;</text>
<polyline fill="none" stroke="#bfbfbf" points="527.5,-373 622.5,-373 "/>
<text text-anchor="middle" x="575" y="-361" font-family="Helvetica,sans-Serif" font-size="10.00"> </text>
<polyline fill="none" stroke="#bfbfbf" points="527.5,-354 622.5,-354 "/>
<text text-anchor="middle" x="575" y="-342" font-family="Helvetica,sans-Serif" font-size="10.00"> </text>
</g>
<!-- Node6&#45;&gt;Node19 -->
<g id="edge24" class="edge"><title>Node6&#45;&gt;Node19</title>
<path fill="none" stroke="orange" d="M521.25,-443.906C530.777,-430.806 541.489,-416.078 550.828,-403.237"/>
<polygon fill="orange" stroke="orange" points="518.239,-442.096 515.187,-452.242 523.9,-446.214 518.239,-442.096"/>
<text text-anchor="middle" x="569" y="-425.5" font-family="Helvetica,sans-Serif" font-size="10.00"> &lt; trng::yarn3 &gt;</text>
</g>
<!-- Node7 -->
<g id="node7" class="node"><title>Node7</title>
<polygon fill="white" stroke="#bfbfbf" points="480.5,-558.5 480.5,-615.5 509.5,-615.5 509.5,-558.5 480.5,-558.5"/>
<text text-anchor="middle" x="495" y="-603.5" font-family="Helvetica,sans-Serif" font-size="10.00">T</text>
<polyline fill="none" stroke="#bfbfbf" points="480.5,-596.5 509.5,-596.5 "/>
<text text-anchor="middle" x="495" y="-584.5" font-family="Helvetica,sans-Serif" font-size="10.00"> </text>
<polyline fill="none" stroke="#bfbfbf" points="480.5,-577.5 509.5,-577.5 "/>
<text text-anchor="middle" x="495" y="-565.5" font-family="Helvetica,sans-Serif" font-size="10.00"> </text>
</g>
<!-- Node7&#45;&gt;Node6 -->
<g id="edge6" class="edge"><title>Node7&#45;&gt;Node6</title>
<path fill="none" stroke="#404040" d="M495,-558.403C495,-547.237 495,-534.13 495,-521.956"/>
<polygon fill="none" stroke="#404040" points="495,-521.726 491,-515.726 495,-509.726 499,-515.726 495,-521.726"/>
<text text-anchor="middle" x="519.5" y="-531.5" font-family="Helvetica,sans-Serif" font-size="10.00"> +elements</text>
</g>
<!-- Node8 -->
<g id="node8" class="node"><title>Node8</title>
<polygon fill="white" stroke="#bfbfbf" points="159.5,-340.5 159.5,-397.5 236.5,-397.5 236.5,-340.5 159.5,-340.5"/>
<text text-anchor="middle" x="198" y="-385.5" font-family="Helvetica,sans-Serif" font-size="10.00">unsigned long</text>
<polyline fill="none" stroke="#bfbfbf" points="159.5,-378.5 236.5,-378.5 "/>
<text text-anchor="middle" x="198" y="-366.5" font-family="Helvetica,sans-Serif" font-size="10.00"> </text>
<polyline fill="none" stroke="#bfbfbf" points="159.5,-359.5 236.5,-359.5 "/>
<text text-anchor="middle" x="198" y="-347.5" font-family="Helvetica,sans-Serif" font-size="10.00"> </text>
</g>
<!-- Node8&#45;&gt;Node3 -->
<g id="edge7" class="edge"><title>Node8&#45;&gt;Node3</title>
<path fill="none" stroke="#404040" d="M233.711,-340.454C237.427,-338.112 241.227,-335.912 245,-334 283.738,-314.364 295.983,-314.989 338,-304 373.688,-294.667 389.345,-304.305 425.027,-286.234"/>
<polygon fill="none" stroke="#404040" points="425.151,-286.165 428.469,-279.763 435.655,-280.363 432.337,-286.766 425.151,-286.165"/>
<text text-anchor="middle" x="358.5" y="-307.5" font-family="Helvetica,sans-Serif" font-size="10.00"> &#45;m_seed</text>
</g>
<!-- Node9&#45;&gt;Node3 -->
<g id="edge8" class="edge"><title>Node9&#45;&gt;Node3</title>
<path fill="none" stroke="#404040" d="M431.576,-334.848C437.282,-323.436 443.969,-310.061 450.822,-296.355"/>
<polygon fill="none" stroke="#404040" points="450.972,-296.057 450.077,-288.901 456.338,-285.323 457.233,-292.479 450.972,-296.057"/>
<text text-anchor="middle" x="467" y="-307.5" font-family="Helvetica,sans-Serif" font-size="10.00"> &#45;m_mrg2</text>
</g>
<!-- Node10 -->
<g id="node10" class="node"><title>Node10</title>
<polygon fill="white" stroke="#bfbfbf" points="271,-452.5 271,-509.5 309,-509.5 309,-452.5 271,-452.5"/>
<text text-anchor="middle" x="290" y="-497.5" font-family="Helvetica,sans-Serif" font-size="10.00">mrg2</text>
<polyline fill="none" stroke="#bfbfbf" points="271,-490.5 309,-490.5 "/>
<text text-anchor="middle" x="290" y="-478.5" font-family="Helvetica,sans-Serif" font-size="10.00"> </text>
<polyline fill="none" stroke="#bfbfbf" points="271,-471.5 309,-471.5 "/>
<text text-anchor="middle" x="290" y="-459.5" font-family="Helvetica,sans-Serif" font-size="10.00"> </text>
</g>
<!-- Node10&#45;&gt;Node9 -->
<g id="edge9" class="edge"><title>Node10&#45;&gt;Node9</title>
<path fill="none" stroke="#404040" d="M283.862,-452.264C283.131,-441.805 284.431,-430.415 291,-422 307.971,-400.258 325.469,-412.622 355.946,-403.81"/>
<polygon fill="none" stroke="#404040" points="356,-403.791 360.287,-397.992 367.288,-399.719 363.001,-405.518 356,-403.791"/>
<text text-anchor="middle" x="315.5" y="-425.5" font-family="Helvetica,sans-Serif" font-size="10.00"> +elements</text>
</g>
<!-- Node11&#45;&gt;Node3 -->
<g id="edge11" class="edge"><title>Node11&#45;&gt;Node3</title>
<path fill="none" stroke="#404040" d="M141.658,-337.39C164.427,-324.479 192.633,-310.866 220,-304 261.724,-293.532 369.645,-305.105 424.679,-285.612"/>
<polygon fill="none" stroke="#404040" points="424.865,-285.532 428.801,-279.489 435.892,-280.798 431.956,-286.841 424.865,-285.532"/>
<text text-anchor="middle" x="253.5" y="-307.5" font-family="Helvetica,sans-Serif" font-size="10.00"> &#45;m_lcg64_shift</text>
</g>
<!-- Node12 -->
<g id="node12" class="node"><title>Node12</title>
<polygon fill="white" stroke="#bfbfbf" points="0,-452.5 0,-509.5 64,-509.5 64,-452.5 0,-452.5"/>
<text text-anchor="middle" x="32" y="-497.5" font-family="Helvetica,sans-Serif" font-size="10.00">lcg64_shift</text>
<polyline fill="none" stroke="#bfbfbf" points="0,-490.5 64,-490.5 "/>
<text text-anchor="middle" x="32" y="-478.5" font-family="Helvetica,sans-Serif" font-size="10.00"> </text>
<polyline fill="none" stroke="#bfbfbf" points="0,-471.5 64,-471.5 "/>
<text text-anchor="middle" x="32" y="-459.5" font-family="Helvetica,sans-Serif" font-size="10.00"> </text>
</g>
<!-- Node12&#45;&gt;Node11 -->
<g id="edge12" class="edge"><title>Node12&#45;&gt;Node11</title>
<path fill="none" stroke="#404040" d="M27.8895,-452.37C27.5653,-442.384 28.6148,-431.289 33,-422 34.5826,-418.647 36.4965,-415.43 38.6555,-412.355"/>
<polygon fill="none" stroke="#404040" points="38.6836,-412.32 39.3851,-405.143 46.2798,-403.03 45.5783,-410.207 38.6836,-412.32"/>
<text text-anchor="middle" x="57.5" y="-425.5" font-family="Helvetica,sans-Serif" font-size="10.00"> +elements</text>
</g>
<!-- Node13 -->
<g id="node13" class="node"><title>Node13</title>
<polygon fill="white" stroke="#bfbfbf" points="480.5,-340.5 480.5,-397.5 509.5,-397.5 509.5,-340.5 480.5,-340.5"/>
<text text-anchor="middle" x="495" y="-385.5" font-family="Helvetica,sans-Serif" font-size="10.00">Id</text>
<polyline fill="none" stroke="#bfbfbf" points="480.5,-378.5 509.5,-378.5 "/>
<text text-anchor="middle" x="495" y="-366.5" font-family="Helvetica,sans-Serif" font-size="10.00"> </text>
<polyline fill="none" stroke="#bfbfbf" points="480.5,-359.5 509.5,-359.5 "/>
<text text-anchor="middle" x="495" y="-347.5" font-family="Helvetica,sans-Serif" font-size="10.00"> </text>
</g>
<!-- Node13&#45;&gt;Node3 -->
<g id="edge14" class="edge"><title>Node13&#45;&gt;Node3</title>
<path fill="none" stroke="#404040" d="M495,-340.495C495,-328.178 495,-312.887 495,-297.118"/>
<polygon fill="none" stroke="#404040" points="495,-297.008 491,-291.008 495,-285.008 499,-291.008 495,-297.008"/>
<text text-anchor="middle" x="521" y="-307.5" font-family="Helvetica,sans-Serif" font-size="10.00"> &#45;m_type_id</text>
</g>
<!-- Node14&#45;&gt;Node3 -->
<g id="edge15" class="edge"><title>Node14&#45;&gt;Node3</title>
<path fill="none" stroke="#404040" d="M836.53,-334.958C827.538,-323.797 816.368,-312.122 804,-304 730.731,-255.886 631.981,-230.759 566.033,-218.473"/>
<polygon fill="none" stroke="#404040" points="565.924,-218.453 559.31,-221.326 554.115,-216.325 560.729,-213.453 565.924,-218.453"/>
<text text-anchor="middle" x="840.5" y="-307.5" font-family="Helvetica,sans-Serif" font-size="10.00"> &#45;m_lcg64</text>
</g>
<!-- Node15 -->
<g id="node15" class="node"><title>Node15</title>
<polygon fill="white" stroke="#bfbfbf" points="936,-452.5 936,-509.5 976,-509.5 976,-452.5 936,-452.5"/>
<text text-anchor="middle" x="956" y="-497.5" font-family="Helvetica,sans-Serif" font-size="10.00">lcg64</text>
<polyline fill="none" stroke="#bfbfbf" points="936,-490.5 976,-490.5 "/>
<text text-anchor="middle" x="956" y="-478.5" font-family="Helvetica,sans-Serif" font-size="10.00"> </text>
<polyline fill="none" stroke="#bfbfbf" points="936,-471.5 976,-471.5 "/>
<text text-anchor="middle" x="956" y="-459.5" font-family="Helvetica,sans-Serif" font-size="10.00"> </text>
</g>
<!-- Node15&#45;&gt;Node14 -->
<g id="edge16" class="edge"><title>Node15&#45;&gt;Node14</title>
<path fill="none" stroke="#404040" d="M949.238,-452.271C945.823,-442.05 940.898,-430.824 934,-422 928.951,-415.542 922.88,-409.571 916.406,-404.153"/>
<polygon fill="none" stroke="#404040" points="916.183,-403.98 908.99,-403.459 906.705,-396.62 913.897,-397.14 916.183,-403.98"/>
<text text-anchor="middle" x="966.5" y="-425.5" font-family="Helvetica,sans-Serif" font-size="10.00"> +elements</text>
</g>
<!-- Node16&#45;&gt;Node3 -->
<g id="edge18" class="edge"><title>Node16&#45;&gt;Node3</title>
<path fill="none" stroke="#404040" d="M648.01,-334.848C623.707,-314.7 592.02,-288.431 563.789,-265.028"/>
<polygon fill="none" stroke="#404040" points="563.602,-264.872 556.43,-264.122 554.364,-257.214 561.536,-257.964 563.602,-264.872"/>
<text text-anchor="middle" x="643" y="-307.5" font-family="Helvetica,sans-Serif" font-size="10.00"> &#45;m_yarn2</text>
</g>
<!-- Node17 -->
<g id="node17" class="node"><title>Node17</title>
<polygon fill="white" stroke="#bfbfbf" points="863.5,-452.5 863.5,-509.5 904.5,-509.5 904.5,-452.5 863.5,-452.5"/>
<text text-anchor="middle" x="884" y="-497.5" font-family="Helvetica,sans-Serif" font-size="10.00">yarn2</text>
<polyline fill="none" stroke="#bfbfbf" points="863.5,-490.5 904.5,-490.5 "/>
<text text-anchor="middle" x="884" y="-478.5" font-family="Helvetica,sans-Serif" font-size="10.00"> </text>
<polyline fill="none" stroke="#bfbfbf" points="863.5,-471.5 904.5,-471.5 "/>
<text text-anchor="middle" x="884" y="-459.5" font-family="Helvetica,sans-Serif" font-size="10.00"> </text>
</g>
<!-- Node17&#45;&gt;Node16 -->
<g id="edge19" class="edge"><title>Node17&#45;&gt;Node16</title>
<path fill="none" stroke="#404040" d="M879.769,-452.489C876.667,-441.417 871.297,-429.515 862,-422 823.563,-390.929 797.604,-417.854 747.166,-404.259"/>
<polygon fill="none" stroke="#404040" points="747.082,-404.233 740.148,-406.213 735.654,-400.574 742.588,-398.594 747.082,-404.233"/>
<text text-anchor="middle" x="896.5" y="-425.5" font-family="Helvetica,sans-Serif" font-size="10.00"> +elements</text>
</g>
<!-- Node18 -->
<g id="node18" class="node"><title>Node18</title>
<polygon fill="white" stroke="#bfbfbf" points="753.5,-340.5 753.5,-397.5 782.5,-397.5 782.5,-340.5 753.5,-340.5"/>
<text text-anchor="middle" x="768" y="-385.5" font-family="Helvetica,sans-Serif" font-size="10.00">int</text>
<polyline fill="none" stroke="#bfbfbf" points="753.5,-378.5 782.5,-378.5 "/>
<text text-anchor="middle" x="768" y="-366.5" font-family="Helvetica,sans-Serif" font-size="10.00"> </text>
<polyline fill="none" stroke="#bfbfbf" points="753.5,-359.5 782.5,-359.5 "/>
<text text-anchor="middle" x="768" y="-347.5" font-family="Helvetica,sans-Serif" font-size="10.00"> </text>
</g>
<!-- Node18&#45;&gt;Node3 -->
<g id="edge21" class="edge"><title>Node18&#45;&gt;Node3</title>
<path fill="none" stroke="#404040" d="M753.383,-344.061C750.546,-340.432 747.39,-336.928 744,-334 691.048,-288.275 618.606,-254.044 565.511,-232.888"/>
<polygon fill="none" stroke="#404040" points="565.326,-232.816 558.281,-234.355 554.151,-228.443 561.196,-226.905 565.326,-232.816"/>
<text text-anchor="middle" x="760.5" y="-307.5" font-family="Helvetica,sans-Serif" font-size="10.00"> &#45;m_stream_count</text>
</g>
<!-- Node19&#45;&gt;Node3 -->
<g id="edge22" class="edge"><title>Node19&#45;&gt;Node3</title>
<path fill="none" stroke="#404040" d="M563.071,-334.715C559.199,-324.709 554.686,-313.792 550,-304 548.694,-301.271 547.341,-298.515 545.951,-295.744"/>
<polygon fill="none" stroke="#404040" points="545.922,-295.688 539.619,-292.184 540.43,-285.019 546.732,-288.523 545.922,-295.688"/>
<text text-anchor="middle" x="578" y="-307.5" font-family="Helvetica,sans-Serif" font-size="10.00"> &#45;m_yarn3</text>
</g>
<!-- Node20 -->
<g id="node20" class="node"><title>Node20</title>
<polygon fill="white" stroke="#bfbfbf" points="701.5,-452.5 701.5,-509.5 742.5,-509.5 742.5,-452.5 701.5,-452.5"/>
<text text-anchor="middle" x="722" y="-497.5" font-family="Helvetica,sans-Serif" font-size="10.00">yarn3</text>
<polyline fill="none" stroke="#bfbfbf" points="701.5,-490.5 742.5,-490.5 "/>
<text text-anchor="middle" x="722" y="-478.5" font-family="Helvetica,sans-Serif" font-size="10.00"> </text>
<polyline fill="none" stroke="#bfbfbf" points="701.5,-471.5 742.5,-471.5 "/>
<text text-anchor="middle" x="722" y="-459.5" font-family="Helvetica,sans-Serif" font-size="10.00"> </text>
</g>
<!-- Node20&#45;&gt;Node19 -->
<g id="edge23" class="edge"><title>Node20&#45;&gt;Node19</title>
<path fill="none" stroke="#404040" d="M717.208,-452.349C714.019,-441.522 708.734,-429.843 700,-422 678.999,-403.14 663.825,-413.396 634.338,-404.473"/>
<polygon fill="none" stroke="#404040" points="634.053,-404.368 627.041,-406.052 622.79,-400.228 629.801,-398.543 634.053,-404.368"/>
<text text-anchor="middle" x="734.5" y="-425.5" font-family="Helvetica,sans-Serif" font-size="10.00"> +elements</text>
</g>
</g>
</svg>
