<?xml version="1.0" encoding="UTF-8" standalone="no"?>
<!DOCTYPE svg PUBLIC "-//W3C//DTD SVG 1.1//EN"
 "http://www.w3.org/Graphics/SVG/1.1/DTD/svg11.dtd">
<!-- Generated by graphviz version 2.36.0 (20140111.2315)
 -->
<!-- Title: stride::Belief Pages: 1 -->
<svg width="549pt" height="248pt"
 viewBox="0.00 0.00 549.00 248.00" xmlns="http://www.w3.org/2000/svg" xmlns:xlink="http://www.w3.org/1999/xlink">
<g id="graph0" class="graph" transform="scale(1 1) rotate(0) translate(4 244)">
<title>stride::Belief</title>
<polygon fill="white" stroke="none" points="-4,4 -4,-244 545,-244 545,4 -4,4"/>
<!-- Node1 -->
<g id="node1" class="node"><title>Node1</title>
<polygon fill="#bfbfbf" stroke="black" points="239,-160.5 239,-239.5 325,-239.5 325,-160.5 239,-160.5"/>
<text text-anchor="middle" x="282" y="-227.5" font-family="Helvetica,sans-Serif" font-size="10.00">stride::Belief</text>
<polyline fill="none" stroke="black" points="239,-220.5 325,-220.5 "/>
<text text-anchor="middle" x="282" y="-208.5" font-family="Helvetica,sans-Serif" font-size="10.00"> </text>
<polyline fill="none" stroke="black" points="239,-201.5 325,-201.5 "/>
<text text-anchor="start" x="247" y="-189.5" font-family="Helvetica,sans-Serif" font-size="10.00">+ Belief()</text>
<text text-anchor="start" x="247" y="-178.5" font-family="Helvetica,sans-Serif" font-size="10.00">+ ~Belief()</text>
<text text-anchor="start" x="247" y="-167.5" font-family="Helvetica,sans-Serif" font-size="10.00">+ HasAdopted()</text>
</g>
<!-- Node2 -->
<g id="node2" class="node"><title>Node2</title>
<g id="a_node2"><a xlink:href="../../d3/d00/a00113.html" target="_top" xlink:title="{stride::HBM\n|&#45; m_num_contacts\l&#45; m_num_contacts_infected\l&#45; m_num_contacts_adopted\l&#45; m_perceived_severity\l&#45; m_perceived_susceptibility\l&#45; m_perceived_benefit\l&#45; m_perceived_barriers\l|+ HBM()\l}">
<polygon fill="white" stroke="black" points="0,-0.5 0,-123.5 140,-123.5 140,-0.5 0,-0.5"/>
<text text-anchor="middle" x="70" y="-111.5" font-family="Helvetica,sans-Serif" font-size="10.00">stride::HBM</text>
<polyline fill="none" stroke="black" points="0,-104.5 140,-104.5 "/>
<text text-anchor="start" x="8" y="-92.5" font-family="Helvetica,sans-Serif" font-size="10.00">&#45; m_num_contacts</text>
<text text-anchor="start" x="8" y="-81.5" font-family="Helvetica,sans-Serif" font-size="10.00">&#45; m_num_contacts_infected</text>
<text text-anchor="start" x="8" y="-70.5" font-family="Helvetica,sans-Serif" font-size="10.00">&#45; m_num_contacts_adopted</text>
<text text-anchor="start" x="8" y="-59.5" font-family="Helvetica,sans-Serif" font-size="10.00">&#45; m_perceived_severity</text>
<text text-anchor="start" x="8" y="-48.5" font-family="Helvetica,sans-Serif" font-size="10.00">&#45; m_perceived_susceptibility</text>
<text text-anchor="start" x="8" y="-37.5" font-family="Helvetica,sans-Serif" font-size="10.00">&#45; m_perceived_benefit</text>
<text text-anchor="start" x="8" y="-26.5" font-family="Helvetica,sans-Serif" font-size="10.00">&#45; m_perceived_barriers</text>
<polyline fill="none" stroke="black" points="0,-19.5 140,-19.5 "/>
<text text-anchor="start" x="8" y="-7.5" font-family="Helvetica,sans-Serif" font-size="10.00">+ HBM()</text>
</a>
</g>
</g>
<!-- Node1&#45;&gt;Node2 -->
<g id="edge1" class="edge"><title>Node1&#45;&gt;Node2</title>
<path fill="none" stroke="midnightblue" d="M229.886,-171.877C204.911,-158.312 174.875,-141.156 149,-124 146.112,-122.085 143.192,-120.097 140.265,-118.058"/>
<polygon fill="none" stroke="midnightblue" points="228.378,-175.041 238.841,-176.706 231.7,-168.879 228.378,-175.041"/>
</g>
<!-- Node3 -->
<g id="node3" class="node"><title>Node3</title>
<g id="a_node3"><a xlink:href="../../d4/d3e/a00116.html" target="_top" xlink:title="{stride::Imitation\n|&#45; m_accept\l&#45; m_accept_threshold\l&#45; m_no_accept_threshold\l|+ Imitation()\l+ Imitation()\l+ HasAdopted()\l}">
<polygon fill="white" stroke="black" points="158,-11.5 158,-112.5 284,-112.5 284,-11.5 158,-11.5"/>
<text text-anchor="middle" x="221" y="-100.5" font-family="Helvetica,sans-Serif" font-size="10.00">stride::Imitation</text>
<polyline fill="none" stroke="black" points="158,-93.5 284,-93.5 "/>
<text text-anchor="start" x="166" y="-81.5" font-family="Helvetica,sans-Serif" font-size="10.00">&#45; m_accept</text>
<text text-anchor="start" x="166" y="-70.5" font-family="Helvetica,sans-Serif" font-size="10.00">&#45; m_accept_threshold</text>
<text text-anchor="start" x="166" y="-59.5" font-family="Helvetica,sans-Serif" font-size="10.00">&#45; m_no_accept_threshold</text>
<polyline fill="none" stroke="black" points="158,-52.5 284,-52.5 "/>
<text text-anchor="start" x="166" y="-40.5" font-family="Helvetica,sans-Serif" font-size="10.00">+ Imitation()</text>
<text text-anchor="start" x="166" y="-29.5" font-family="Helvetica,sans-Serif" font-size="10.00">+ Imitation()</text>
<text text-anchor="start" x="166" y="-18.5" font-family="Helvetica,sans-Serif" font-size="10.00">+ HasAdopted()</text>
</a>
</g>
</g>
<!-- Node1&#45;&gt;Node3 -->
<g id="edge2" class="edge"><title>Node1&#45;&gt;Node3</title>
<path fill="none" stroke="midnightblue" d="M260.534,-151.142C254.979,-138.757 248.985,-125.392 243.384,-112.905"/>
<polygon fill="none" stroke="midnightblue" points="257.397,-152.7 264.683,-160.392 263.784,-149.835 257.397,-152.7"/>
</g>
<!-- Node4 -->
<g id="node4" class="node"><title>Node4</title>
<g id="a_node4"><a xlink:href="../../d6/db3/a00130.html" target="_top" xlink:title="No beliefs w.r.t vaccination. ">
<polygon fill="white" stroke="black" points="302,-33.5 302,-90.5 386,-90.5 386,-33.5 302,-33.5"/>
<text text-anchor="middle" x="344" y="-78.5" font-family="Helvetica,sans-Serif" font-size="10.00">stride::NoBelief</text>
<polyline fill="none" stroke="black" points="302,-71.5 386,-71.5 "/>
<text text-anchor="middle" x="344" y="-59.5" font-family="Helvetica,sans-Serif" font-size="10.00"> </text>
<polyline fill="none" stroke="black" points="302,-52.5 386,-52.5 "/>
<text text-anchor="start" x="310" y="-40.5" font-family="Helvetica,sans-Serif" font-size="10.00">+ NoBelief()</text>
</a>
</g>
</g>
<!-- Node1&#45;&gt;Node4 -->
<g id="edge3" class="edge"><title>Node1&#45;&gt;Node4</title>
<path fill="none" stroke="midnightblue" d="M303.859,-151.051C313.037,-130.918 323.39,-108.209 331.283,-90.8961"/>
<polygon fill="none" stroke="midnightblue" points="300.564,-149.841 299.601,-160.392 306.934,-152.744 300.564,-149.841"/>
</g>
<!-- Node5 -->
<g id="node5" class="node"><title>Node5</title>
<g id="a_node5"><a xlink:href="../../d9/db6/a00146.html" target="_top" xlink:title="{stride::Threshold\n|&#45; m_is_aware\l&#45; m_num_contacts\l&#45; m_num_contacts_infected\l&#45; m_num_contacts_adopted\l&#45; m_threshold_infected\l&#45; m_threshold_adopted\l|+ Threshold()\l}">
<polygon fill="white" stroke="black" points="404.5,-6 404.5,-118 541.5,-118 541.5,-6 404.5,-6"/>
<text text-anchor="middle" x="473" y="-106" font-family="Helvetica,sans-Serif" font-size="10.00">stride::Threshold</text>
<polyline fill="none" stroke="black" points="404.5,-99 541.5,-99 "/>
<text text-anchor="start" x="412.5" y="-87" font-family="Helvetica,sans-Serif" font-size="10.00">&#45; m_is_aware</text>
<text text-anchor="start" x="412.5" y="-76" font-family="Helvetica,sans-Serif" font-size="10.00">&#45; m_num_contacts</text>
<text text-anchor="start" x="412.5" y="-65" font-family="Helvetica,sans-Serif" font-size="10.00">&#45; m_num_contacts_infected</text>
<text text-anchor="start" x="412.5" y="-54" font-family="Helvetica,sans-Serif" font-size="10.00">&#45; m_num_contacts_adopted</text>
<text text-anchor="start" x="412.5" y="-43" font-family="Helvetica,sans-Serif" font-size="10.00">&#45; m_threshold_infected</text>
<text text-anchor="start" x="412.5" y="-32" font-family="Helvetica,sans-Serif" font-size="10.00">&#45; m_threshold_adopted</text>
<polyline fill="none" stroke="black" points="404.5,-25 541.5,-25 "/>
<text text-anchor="start" x="412.5" y="-13" font-family="Helvetica,sans-Serif" font-size="10.00">+ Threshold()</text>
</a>
</g>
</g>
<!-- Node1&#45;&gt;Node5 -->
<g id="edge4" class="edge"><title>Node1&#45;&gt;Node5</title>
<path fill="none" stroke="midnightblue" d="M333.61,-165.49C352.771,-152.776 374.564,-137.987 394,-124 397.376,-121.571 400.812,-119.061 404.27,-116.507"/>
<polygon fill="none" stroke="midnightblue" points="331.422,-162.741 325.01,-171.176 335.282,-168.581 331.422,-162.741"/>
</g>
</g>
</svg>
