<?xml version="1.0" encoding="UTF-8" standalone="no"?>
<!DOCTYPE svg PUBLIC "-//W3C//DTD SVG 1.1//EN"
 "http://www.w3.org/Graphics/SVG/1.1/DTD/svg11.dtd">
<!-- Generated by graphviz version 2.36.0 (20140111.2315)
 -->
<!-- Title: gengeopop::SecondaryCommunity Pages: 1 -->
<svg width="174pt" height="464pt"
 viewBox="0.00 0.00 174.00 464.00" xmlns="http://www.w3.org/2000/svg" xmlns:xlink="http://www.w3.org/1999/xlink">
<g id="graph0" class="graph" transform="scale(1 1) rotate(0) translate(4 460)">
<title>gengeopop::SecondaryCommunity</title>
<polygon fill="white" stroke="none" points="-4,4 -4,-460 170,-460 170,4 -4,4"/>
<!-- Node1 -->
<g id="node1" class="node"><title>Node1</title>
<polygon fill="#bfbfbf" stroke="black" points="-0.5,-0.5 -0.5,-79.5 166.5,-79.5 166.5,-0.5 -0.5,-0.5"/>
<text text-anchor="middle" x="83" y="-67.5" font-family="Helvetica,sans-Serif" font-size="10.00">gengeopop::SecondaryCommunity</text>
<polyline fill="none" stroke="black" points="-0.5,-60.5 166.5,-60.5 "/>
<text text-anchor="middle" x="83" y="-48.5" font-family="Helvetica,sans-Serif" font-size="10.00"> </text>
<polyline fill="none" stroke="black" points="-0.5,-41.5 166.5,-41.5 "/>
<text text-anchor="start" x="7.5" y="-29.5" font-family="Helvetica,sans-Serif" font-size="10.00">+ SecondaryCommunity()</text>
<text text-anchor="start" x="7.5" y="-18.5" font-family="Helvetica,sans-Serif" font-size="10.00">+ GetType()</text>
<text text-anchor="start" x="7.5" y="-7.5" font-family="Helvetica,sans-Serif" font-size="10.00">+ Fill()</text>
</g>
<!-- Node2 -->
<g id="node2" class="node"><title>Node2</title>
<g id="a_node2"><a xlink:href="../../d7/de0/a00022.html" target="_top" xlink:title="Models a Community as ContactCenter. ">
<polygon fill="white" stroke="black" points="23,-116.5 23,-217.5 143,-217.5 143,-116.5 23,-116.5"/>
<text text-anchor="middle" x="83" y="-205.5" font-family="Helvetica,sans-Serif" font-size="10.00">gengeopop::Community</text>
<polyline fill="none" stroke="black" points="23,-198.5 143,-198.5 "/>
<text text-anchor="middle" x="83" y="-186.5" font-family="Helvetica,sans-Serif" font-size="10.00"> </text>
<polyline fill="none" stroke="black" points="23,-179.5 143,-179.5 "/>
<text text-anchor="start" x="31" y="-167.5" font-family="Helvetica,sans-Serif" font-size="10.00">+ Community()</text>
<text text-anchor="start" x="31" y="-156.5" font-family="Helvetica,sans-Serif" font-size="10.00">+ AddHouseHold()</text>
<text text-anchor="start" x="31" y="-145.5" font-family="Helvetica,sans-Serif" font-size="10.00">+ GetType()</text>
<text text-anchor="start" x="31" y="-134.5" font-family="Helvetica,sans-Serif" font-size="10.00">+ GetPoolSize()</text>
<text text-anchor="start" x="31" y="-123.5" font-family="Helvetica,sans-Serif" font-size="10.00">+ GetMaxPools()</text>
</a>
</g>
</g>
<!-- Node2&#45;&gt;Node1 -->
<g id="edge1" class="edge"><title>Node2&#45;&gt;Node1</title>
<path fill="none" stroke="midnightblue" d="M83,-106.186C83,-97.2207 83,-88.1815 83,-79.8082"/>
<polygon fill="none" stroke="midnightblue" points="79.5001,-106.237 83,-116.238 86.5001,-106.238 79.5001,-106.237"/>
</g>
<!-- Node3 -->
<g id="node3" class="node"><title>Node3</title>
<g id="a_node3"><a xlink:href="../../d6/d5b/a00026.html" target="_top" xlink:title="A ContactCenter contains multiple ContactPools. ">
<polygon fill="white" stroke="black" points="13,-255 13,-455 153,-455 153,-255 13,-255"/>
<text text-anchor="middle" x="83" y="-443" font-family="Helvetica,sans-Serif" font-size="10.00">gengeopop::ContactCenter</text>
<polyline fill="none" stroke="black" points="13,-436 153,-436 "/>
<text text-anchor="start" x="21" y="-424" font-family="Helvetica,sans-Serif" font-size="10.00"># m_pools</text>
<text text-anchor="start" x="21" y="-413" font-family="Helvetica,sans-Serif" font-size="10.00"># m_id</text>
<polyline fill="none" stroke="black" points="13,-406 153,-406 "/>
<text text-anchor="start" x="21" y="-394" font-family="Helvetica,sans-Serif" font-size="10.00">+ ContactCenter()</text>
<text text-anchor="start" x="21" y="-383" font-family="Helvetica,sans-Serif" font-size="10.00">+ GetType()</text>
<text text-anchor="start" x="21" y="-372" font-family="Helvetica,sans-Serif" font-size="10.00">+ GetPoolSize()</text>
<text text-anchor="start" x="21" y="-361" font-family="Helvetica,sans-Serif" font-size="10.00">+ GetMaxPools()</text>
<text text-anchor="start" x="21" y="-350" font-family="Helvetica,sans-Serif" font-size="10.00">+ Fill()</text>
<text text-anchor="start" x="21" y="-339" font-family="Helvetica,sans-Serif" font-size="10.00">+ GetId()</text>
<text text-anchor="start" x="21" y="-328" font-family="Helvetica,sans-Serif" font-size="10.00">+ GetPopulationAndInfected</text>
<text text-anchor="start" x="21" y="-317" font-family="Helvetica,sans-Serif" font-size="10.00">Count()</text>
<text text-anchor="start" x="21" y="-306" font-family="Helvetica,sans-Serif" font-size="10.00">+ AddPool()</text>
<text text-anchor="start" x="21" y="-295" font-family="Helvetica,sans-Serif" font-size="10.00">+ GetPools()</text>
<text text-anchor="start" x="21" y="-284" font-family="Helvetica,sans-Serif" font-size="10.00">+ begin()</text>
<text text-anchor="start" x="21" y="-273" font-family="Helvetica,sans-Serif" font-size="10.00">+ end()</text>
<text text-anchor="start" x="21" y="-262" font-family="Helvetica,sans-Serif" font-size="10.00">+ ~ContactCenter()</text>
</a>
</g>
</g>
<!-- Node3&#45;&gt;Node2 -->
<g id="edge2" class="edge"><title>Node3&#45;&gt;Node2</title>
<path fill="none" stroke="midnightblue" d="M83,-244.58C83,-235.285 83,-226.215 83,-217.759"/>
<polygon fill="none" stroke="midnightblue" points="79.5001,-244.738 83,-254.738 86.5001,-244.738 79.5001,-244.738"/>
</g>
</g>
</svg>
