<?xml version="1.0" encoding="UTF-8" standalone="no"?>
<!DOCTYPE svg PUBLIC "-//W3C//DTD SVG 1.1//EN"
 "http://www.w3.org/Graphics/SVG/1.1/DTD/svg11.dtd">
<!-- Generated by graphviz version 2.36.0 (20140111.2315)
 -->
<!-- Title: SurveySeeder.h Pages: 1 -->
<svg width="878pt" height="208pt"
 viewBox="0.00 0.00 878.00 208.00" xmlns="http://www.w3.org/2000/svg" xmlns:xlink="http://www.w3.org/1999/xlink">
<g id="graph0" class="graph" transform="scale(1 1) rotate(0) translate(4 204)">
<title>SurveySeeder.h</title>
<polygon fill="white" stroke="none" points="-4,4 -4,-204 874,-204 874,4 -4,4"/>
<!-- Node1 -->
<g id="node1" class="node"><title>Node1</title>
<polygon fill="#bfbfbf" stroke="black" points="522,-180.5 522,-199.5 608,-199.5 608,-180.5 522,-180.5"/>
<text text-anchor="middle" x="565" y="-187.5" font-family="Helvetica,sans-Serif" font-size="10.00">SurveySeeder.h</text>
</g>
<!-- Node2 -->
<g id="node2" class="node"><title>Node2</title>
<g id="a_node2"><a xlink:href="../../d9/da1/a00396.html" target="_top" xlink:title="Interface of RNManager. ">
<polygon fill="white" stroke="black" points="403.5,-118.5 403.5,-137.5 496.5,-137.5 496.5,-118.5 403.5,-118.5"/>
<text text-anchor="middle" x="450" y="-125.5" font-family="Helvetica,sans-Serif" font-size="10.00">util/RNManager.h</text>
</a>
</g>
</g>
<!-- Node1&#45;&gt;Node2 -->
<g id="edge1" class="edge"><title>Node1&#45;&gt;Node2</title>
<path fill="none" stroke="midnightblue" d="M548.523,-180.403C529.395,-170.423 497.627,-153.849 475.348,-142.225"/>
<polygon fill="midnightblue" stroke="midnightblue" points="476.931,-139.103 466.446,-137.581 473.693,-145.309 476.931,-139.103"/>
</g>
<!-- Node13 -->
<g id="node13" class="node"><title>Node13</title>
<polygon fill="white" stroke="#bfbfbf" points="514.5,-113 514.5,-143 615.5,-143 615.5,-113 514.5,-113"/>
<text text-anchor="start" x="522.5" y="-131" font-family="Helvetica,sans-Serif" font-size="10.00">boost/property_tree</text>
<text text-anchor="middle" x="565" y="-120" font-family="Helvetica,sans-Serif" font-size="10.00">/ptree_fwd.hpp</text>
</g>
<!-- Node1&#45;&gt;Node13 -->
<g id="edge13" class="edge"><title>Node1&#45;&gt;Node13</title>
<path fill="none" stroke="midnightblue" d="M565,-180.403C565,-173.341 565,-162.975 565,-153.399"/>
<polygon fill="midnightblue" stroke="midnightblue" points="568.5,-153.141 565,-143.141 561.5,-153.141 568.5,-153.141"/>
</g>
<!-- Node14 -->
<g id="node14" class="node"><title>Node14</title>
<polygon fill="white" stroke="#bfbfbf" points="634,-118.5 634,-137.5 686,-137.5 686,-118.5 634,-118.5"/>
<text text-anchor="middle" x="660" y="-125.5" font-family="Helvetica,sans-Serif" font-size="10.00">memory</text>
</g>
<!-- Node1&#45;&gt;Node14 -->
<g id="edge14" class="edge"><title>Node1&#45;&gt;Node14</title>
<path fill="none" stroke="midnightblue" d="M578.611,-180.403C594.061,-170.646 619.49,-154.585 637.816,-143.011"/>
<polygon fill="midnightblue" stroke="midnightblue" points="639.828,-145.88 646.414,-137.581 636.09,-139.961 639.828,-145.88"/>
</g>
<!-- Node3 -->
<g id="node3" class="node"><title>Node3</title>
<g id="a_node3"><a xlink:href="../../d9/dad/a00394.html" target="_top" xlink:title="Interface of Random Engine Type. ">
<polygon fill="white" stroke="black" points="0,-56.5 0,-75.5 92,-75.5 92,-56.5 0,-56.5"/>
<text text-anchor="middle" x="46" y="-63.5" font-family="Helvetica,sans-Serif" font-size="10.00">RNEngineType.h</text>
</a>
</g>
</g>
<!-- Node2&#45;&gt;Node3 -->
<g id="edge2" class="edge"><title>Node2&#45;&gt;Node3</title>
<path fill="none" stroke="midnightblue" d="M403.258,-120.096C337.082,-110.316 212.292,-91.8511 106,-76 104.74,-75.8121 103.465,-75.6219 102.18,-75.43"/>
<polygon fill="midnightblue" stroke="midnightblue" points="102.594,-71.9531 92.1866,-73.9361 101.559,-78.8762 102.594,-71.9531"/>
</g>
<!-- Node4 -->
<g id="node4" class="node"><title>Node4</title>
<polygon fill="white" stroke="#bfbfbf" points="62.5,-0.5 62.5,-19.5 103.5,-19.5 103.5,-0.5 62.5,-0.5"/>
<text text-anchor="middle" x="83" y="-7.5" font-family="Helvetica,sans-Serif" font-size="10.00">string</text>
</g>
<!-- Node2&#45;&gt;Node4 -->
<g id="edge11" class="edge"><title>Node2&#45;&gt;Node4</title>
<path fill="none" stroke="midnightblue" d="M403.217,-123.255C327.833,-116.576 183.441,-100.922 139,-76 119.177,-64.8837 103.091,-43.9285 93.3287,-28.8114"/>
<polygon fill="midnightblue" stroke="midnightblue" points="96.0636,-26.576 87.851,-19.8824 90.0969,-30.2365 96.0636,-26.576"/>
</g>
<!-- Node5 -->
<g id="node5" class="node"><title>Node5</title>
<polygon fill="white" stroke="#bfbfbf" points="148,-56.5 148,-75.5 226,-75.5 226,-56.5 148,-56.5"/>
<text text-anchor="middle" x="187" y="-63.5" font-family="Helvetica,sans-Serif" font-size="10.00">trng/lcg64.hpp</text>
</g>
<!-- Node2&#45;&gt;Node5 -->
<g id="edge4" class="edge"><title>Node2&#45;&gt;Node5</title>
<path fill="none" stroke="midnightblue" d="M412.598,-118.467C365.666,-107.76 285.153,-89.3922 234.077,-77.74"/>
<polygon fill="midnightblue" stroke="midnightblue" points="234.801,-74.3154 224.273,-75.5034 233.244,-81.14 234.801,-74.3154"/>
</g>
<!-- Node6 -->
<g id="node6" class="node"><title>Node6</title>
<polygon fill="white" stroke="#bfbfbf" points="244,-56.5 244,-75.5 346,-75.5 346,-56.5 244,-56.5"/>
<text text-anchor="middle" x="295" y="-63.5" font-family="Helvetica,sans-Serif" font-size="10.00">trng/lcg64_shift.hpp</text>
</g>
<!-- Node2&#45;&gt;Node6 -->
<g id="edge5" class="edge"><title>Node2&#45;&gt;Node6</title>
<path fill="none" stroke="midnightblue" d="M427.792,-118.403C401.319,-108.156 356.886,-90.9561 326.78,-79.3021"/>
<polygon fill="midnightblue" stroke="midnightblue" points="327.756,-75.9266 317.167,-75.5806 325.229,-82.4546 327.756,-75.9266"/>
</g>
<!-- Node7 -->
<g id="node7" class="node"><title>Node7</title>
<polygon fill="white" stroke="#bfbfbf" points="364.5,-56.5 364.5,-75.5 441.5,-75.5 441.5,-56.5 364.5,-56.5"/>
<text text-anchor="middle" x="403" y="-63.5" font-family="Helvetica,sans-Serif" font-size="10.00">trng/mrg2.hpp</text>
</g>
<!-- Node2&#45;&gt;Node7 -->
<g id="edge6" class="edge"><title>Node2&#45;&gt;Node7</title>
<path fill="none" stroke="midnightblue" d="M443.266,-118.403C436.216,-109.403 424.965,-95.0408 416.146,-83.7824"/>
<polygon fill="midnightblue" stroke="midnightblue" points="418.643,-81.2946 409.721,-75.5806 413.133,-85.6112 418.643,-81.2946"/>
</g>
<!-- Node8 -->
<g id="node8" class="node"><title>Node8</title>
<polygon fill="white" stroke="#bfbfbf" points="459.5,-56.5 459.5,-75.5 536.5,-75.5 536.5,-56.5 459.5,-56.5"/>
<text text-anchor="middle" x="498" y="-63.5" font-family="Helvetica,sans-Serif" font-size="10.00">trng/mrg3.hpp</text>
</g>
<!-- Node2&#45;&gt;Node8 -->
<g id="edge7" class="edge"><title>Node2&#45;&gt;Node8</title>
<path fill="none" stroke="midnightblue" d="M456.877,-118.403C464.149,-109.314 475.795,-94.7559 484.841,-83.4489"/>
<polygon fill="midnightblue" stroke="midnightblue" points="487.622,-85.5757 491.136,-75.5806 482.155,-81.2029 487.622,-85.5757"/>
</g>
<!-- Node9 -->
<g id="node9" class="node"><title>Node9</title>
<polygon fill="white" stroke="#bfbfbf" points="554.5,-56.5 554.5,-75.5 633.5,-75.5 633.5,-56.5 554.5,-56.5"/>
<text text-anchor="middle" x="594" y="-63.5" font-family="Helvetica,sans-Serif" font-size="10.00">trng/yarn2.hpp</text>
</g>
<!-- Node2&#45;&gt;Node9 -->
<g id="edge8" class="edge"><title>Node2&#45;&gt;Node9</title>
<path fill="none" stroke="midnightblue" d="M470.632,-118.403C495.119,-108.2 536.147,-91.1055 564.109,-79.4544"/>
<polygon fill="midnightblue" stroke="midnightblue" points="565.522,-82.6576 573.407,-75.5806 562.83,-76.196 565.522,-82.6576"/>
</g>
<!-- Node10 -->
<g id="node10" class="node"><title>Node10</title>
<polygon fill="white" stroke="#bfbfbf" points="651.5,-56.5 651.5,-75.5 730.5,-75.5 730.5,-56.5 651.5,-56.5"/>
<text text-anchor="middle" x="691" y="-63.5" font-family="Helvetica,sans-Serif" font-size="10.00">trng/yarn3.hpp</text>
</g>
<!-- Node2&#45;&gt;Node10 -->
<g id="edge9" class="edge"><title>Node2&#45;&gt;Node10</title>
<path fill="none" stroke="midnightblue" d="M481.362,-118.463C489.384,-116.316 498.004,-114.043 506,-112 553.13,-99.9576 607.21,-86.8897 644.674,-77.9549"/>
<polygon fill="midnightblue" stroke="midnightblue" points="645.863,-81.2697 654.781,-75.5488 644.242,-74.46 645.863,-81.2697"/>
</g>
<!-- Node11 -->
<g id="node11" class="node"><title>Node11</title>
<polygon fill="white" stroke="#bfbfbf" points="748.5,-56.5 748.5,-75.5 807.5,-75.5 807.5,-56.5 748.5,-56.5"/>
<text text-anchor="middle" x="778" y="-63.5" font-family="Helvetica,sans-Serif" font-size="10.00">functional</text>
</g>
<!-- Node2&#45;&gt;Node11 -->
<g id="edge10" class="edge"><title>Node2&#45;&gt;Node11</title>
<path fill="none" stroke="midnightblue" d="M479.5,-118.456C488.007,-116.167 497.333,-113.825 506,-112 605.432,-91.0661 634.365,-95.4931 738.281,-76.0024"/>
<polygon fill="midnightblue" stroke="midnightblue" points="739.069,-79.4153 748.237,-74.1055 737.759,-72.539 739.069,-79.4153"/>
</g>
<!-- Node12 -->
<g id="node12" class="node"><title>Node12</title>
<polygon fill="white" stroke="#bfbfbf" points="826,-56.5 826,-75.5 870,-75.5 870,-56.5 826,-56.5"/>
<text text-anchor="middle" x="848" y="-63.5" font-family="Helvetica,sans-Serif" font-size="10.00">vector</text>
</g>
<!-- Node2&#45;&gt;Node12 -->
<g id="edge12" class="edge"><title>Node2&#45;&gt;Node12</title>
<path fill="none" stroke="midnightblue" d="M478.59,-118.479C487.327,-116.11 497.003,-113.718 506,-112 639.049,-86.5965 678.102,-102.094 815.653,-75.7226"/>
<polygon fill="midnightblue" stroke="midnightblue" points="816.588,-79.1061 825.729,-73.7504 815.243,-72.2365 816.588,-79.1061"/>
</g>
<!-- Node3&#45;&gt;Node4 -->
<g id="edge3" class="edge"><title>Node3&#45;&gt;Node4</title>
<path fill="none" stroke="midnightblue" d="M52.1098,-56.083C57.2822,-48.5341 64.8461,-37.4948 71.1944,-28.2298"/>
<polygon fill="midnightblue" stroke="midnightblue" points="74.2388,-29.9787 77.0039,-19.7511 68.4643,-26.0221 74.2388,-29.9787"/>
</g>
</g>
</svg>
