<?xml version="1.0" encoding="UTF-8" standalone="no"?>
<!DOCTYPE svg PUBLIC "-//W3C//DTD SVG 1.1//EN"
 "http://www.w3.org/Graphics/SVG/1.1/DTD/svg11.dtd">
<!-- Generated by graphviz version 2.36.0 (20140111.2315)
 -->
<!-- Title: stride::SimBuilder::ReadAgeContactPtree Pages: 1 -->
<svg width="420pt" height="87pt"
 viewBox="0.00 0.00 420.00 87.00" xmlns="http://www.w3.org/2000/svg" xmlns:xlink="http://www.w3.org/1999/xlink">
<g id="graph0" class="graph" transform="scale(1 1) rotate(0) translate(4 83)">
<title>stride::SimBuilder::ReadAgeContactPtree</title>
<polygon fill="white" stroke="none" points="-4,4 -4,-83 416,-83 416,4 -4,4"/>
<!-- Node1 -->
<g id="node1" class="node"><title>Node1</title>
<polygon fill="#bfbfbf" stroke="black" points="0.5,-24 0.5,-54 121.5,-54 121.5,-24 0.5,-24"/>
<text text-anchor="start" x="8.5" y="-42" font-family="Helvetica,sans-Serif" font-size="10.00">stride::SimBuilder</text>
<text text-anchor="middle" x="61" y="-31" font-family="Helvetica,sans-Serif" font-size="10.00">::ReadAgeContactPtree</text>
</g>
<!-- Node2 -->
<g id="node2" class="node"><title>Node2</title>
<g id="a_node2"><a xlink:href="../../da/d01/a00153.html#aafd39e698c442fd0917915d085c9aa1a" target="_top" xlink:title="/// Return data dir (only relevant when use_install_dirs mode is active) ">
<polygon fill="white" stroke="black" points="158,-49 158,-79 256,-79 256,-49 158,-49"/>
<text text-anchor="start" x="166" y="-67" font-family="Helvetica,sans-Serif" font-size="10.00">stride::util::FileSys</text>
<text text-anchor="middle" x="207" y="-56" font-family="Helvetica,sans-Serif" font-size="10.00">::GetDataDir</text>
</a>
</g>
</g>
<!-- Node1&#45;&gt;Node2 -->
<g id="edge1" class="edge"><title>Node1&#45;&gt;Node2</title>
<path fill="none" stroke="midnightblue" d="M121.818,-49.3851C130.482,-50.8893 139.389,-52.4356 148.016,-53.9334"/>
<polygon fill="midnightblue" stroke="midnightblue" points="147.533,-57.4018 157.984,-55.664 148.731,-50.5049 147.533,-57.4018"/>
</g>
<!-- Node4 -->
<g id="node4" class="node"><title>Node4</title>
<g id="a_node4"><a xlink:href="../../da/d01/a00153.html#a2e80d7e6f1045279269a967ad8476422" target="_top" xlink:title="Read ptree from file at path. ">
<polygon fill="white" stroke="black" points="158,-0 158,-30 256,-30 256,-0 158,-0"/>
<text text-anchor="start" x="166" y="-18" font-family="Helvetica,sans-Serif" font-size="10.00">stride::util::FileSys</text>
<text text-anchor="middle" x="207" y="-7" font-family="Helvetica,sans-Serif" font-size="10.00">::ReadPtreeFile</text>
</a>
</g>
</g>
<!-- Node1&#45;&gt;Node4 -->
<g id="edge3" class="edge"><title>Node1&#45;&gt;Node4</title>
<path fill="none" stroke="midnightblue" d="M121.818,-29.0303C130.482,-27.5863 139.389,-26.1019 148.016,-24.664"/>
<polygon fill="midnightblue" stroke="midnightblue" points="148.696,-28.099 157.984,-23.0026 147.545,-21.1943 148.696,-28.099"/>
</g>
<!-- Node3 -->
<g id="node3" class="node"><title>Node3</title>
<g id="a_node3"><a xlink:href="../../da/d01/a00153.html#a811a1d113f57785952045d9541c95db5" target="_top" xlink:title="Return paths. ">
<polygon fill="white" stroke="black" points="292,-54.5 292,-73.5 412,-73.5 412,-54.5 292,-54.5"/>
<text text-anchor="middle" x="352" y="-61.5" font-family="Helvetica,sans-Serif" font-size="10.00">stride::util::FileSys::Get</text>
</a>
</g>
</g>
<!-- Node2&#45;&gt;Node3 -->
<g id="edge2" class="edge"><title>Node2&#45;&gt;Node3</title>
<path fill="none" stroke="midnightblue" d="M256.015,-64C264.296,-64 273.05,-64 281.759,-64"/>
<polygon fill="midnightblue" stroke="midnightblue" points="281.932,-67.5001 291.932,-64 281.932,-60.5001 281.932,-67.5001"/>
</g>
</g>
</svg>
