<?xml version="1.0" encoding="UTF-8" standalone="no"?>
<!DOCTYPE svg PUBLIC "-//W3C//DTD SVG 1.1//EN"
 "http://www.w3.org/Graphics/SVG/1.1/DTD/svg11.dtd">
<!-- Generated by graphviz version 2.36.0 (20140111.2315)
 -->
<!-- Title: AgeContactProfile.cpp Pages: 1 -->
<svg width="477pt" height="208pt"
 viewBox="0.00 0.00 477.00 208.00" xmlns="http://www.w3.org/2000/svg" xmlns:xlink="http://www.w3.org/1999/xlink">
<g id="graph0" class="graph" transform="scale(1 1) rotate(0) translate(4 204)">
<title>AgeContactProfile.cpp</title>
<polygon fill="white" stroke="none" points="-4,4 -4,-204 473,-204 473,4 -4,4"/>
<!-- Node1 -->
<g id="node1" class="node"><title>Node1</title>
<polygon fill="#bfbfbf" stroke="black" points="254.5,-180.5 254.5,-199.5 369.5,-199.5 369.5,-180.5 254.5,-180.5"/>
<text text-anchor="middle" x="312" y="-187.5" font-family="Helvetica,sans-Serif" font-size="10.00">AgeContactProfile.cpp</text>
</g>
<!-- Node2 -->
<g id="node2" class="node"><title>Node2</title>
<g id="a_node2"><a xlink:href="../../d8/d64/a00181.html" target="_top" xlink:title="Contact profile. ">
<polygon fill="white" stroke="black" points="260,-124.5 260,-143.5 364,-143.5 364,-124.5 260,-124.5"/>
<text text-anchor="middle" x="312" y="-131.5" font-family="Helvetica,sans-Serif" font-size="10.00">AgeContactProfile.h</text>
</a>
</g>
</g>
<!-- Node1&#45;&gt;Node2 -->
<g id="edge1" class="edge"><title>Node1&#45;&gt;Node2</title>
<path fill="none" stroke="midnightblue" d="M312,-180.083C312,-173.006 312,-162.861 312,-153.986"/>
<polygon fill="midnightblue" stroke="midnightblue" points="315.5,-153.751 312,-143.751 308.5,-153.751 315.5,-153.751"/>
</g>
<!-- Node3 -->
<g id="node3" class="node"><title>Node3</title>
<g id="a_node3"><a xlink:href="../../d6/d22/a00245.html" target="_top" xlink:title="Definition of ContactPoolType. ">
<polygon fill="white" stroke="black" points="92,-62.5 92,-81.5 214,-81.5 214,-62.5 92,-62.5"/>
<text text-anchor="middle" x="153" y="-69.5" font-family="Helvetica,sans-Serif" font-size="10.00">pool/ContactPoolType.h</text>
</a>
</g>
</g>
<!-- Node2&#45;&gt;Node3 -->
<g id="edge2" class="edge"><title>Node2&#45;&gt;Node3</title>
<path fill="none" stroke="midnightblue" d="M289.219,-124.403C261.945,-114.111 216.087,-96.8064 185.199,-85.1504"/>
<polygon fill="midnightblue" stroke="midnightblue" points="186.33,-81.8366 175.739,-81.5806 183.859,-88.3858 186.33,-81.8366"/>
</g>
<!-- Node9 -->
<g id="node9" class="node"><title>Node9</title>
<g id="a_node9"><a xlink:href="../../db/dd9/a00179.html" target="_top" xlink:title="Helpers for age. ">
<polygon fill="white" stroke="black" points="232.5,-62.5 232.5,-81.5 293.5,-81.5 293.5,-62.5 232.5,-62.5"/>
<text text-anchor="middle" x="263" y="-69.5" font-family="Helvetica,sans-Serif" font-size="10.00">pop/Age.h</text>
</a>
</g>
</g>
<!-- Node2&#45;&gt;Node9 -->
<g id="edge8" class="edge"><title>Node2&#45;&gt;Node9</title>
<path fill="none" stroke="midnightblue" d="M304.979,-124.403C297.557,-115.314 285.667,-100.756 276.433,-89.4489"/>
<polygon fill="midnightblue" stroke="midnightblue" points="279.044,-87.1121 270.007,-81.5806 273.622,-91.5398 279.044,-87.1121"/>
</g>
<!-- Node10 -->
<g id="node10" class="node"><title>Node10</title>
<polygon fill="white" stroke="#bfbfbf" points="311.5,-57 311.5,-87 412.5,-87 412.5,-57 311.5,-57"/>
<text text-anchor="start" x="319.5" y="-75" font-family="Helvetica,sans-Serif" font-size="10.00">boost/property_tree</text>
<text text-anchor="middle" x="362" y="-64" font-family="Helvetica,sans-Serif" font-size="10.00">/ptree.hpp</text>
</g>
<!-- Node2&#45;&gt;Node10 -->
<g id="edge9" class="edge"><title>Node2&#45;&gt;Node10</title>
<path fill="none" stroke="midnightblue" d="M319.164,-124.403C325.556,-116.733 335.194,-105.167 343.71,-94.9478"/>
<polygon fill="midnightblue" stroke="midnightblue" points="346.503,-97.0637 350.216,-87.1408 341.125,-92.5824 346.503,-97.0637"/>
</g>
<!-- Node11 -->
<g id="node11" class="node"><title>Node11</title>
<polygon fill="white" stroke="#bfbfbf" points="431,-62.5 431,-81.5 469,-81.5 469,-62.5 431,-62.5"/>
<text text-anchor="middle" x="450" y="-69.5" font-family="Helvetica,sans-Serif" font-size="10.00">array</text>
</g>
<!-- Node2&#45;&gt;Node11 -->
<g id="edge10" class="edge"><title>Node2&#45;&gt;Node11</title>
<path fill="none" stroke="midnightblue" d="M334.37,-124.415C356.576,-115.742 391.472,-101.701 421,-88 422.35,-87.3737 423.728,-86.7182 425.114,-86.0459"/>
<polygon fill="midnightblue" stroke="midnightblue" points="426.8,-89.1155 434.167,-81.5008 423.66,-82.8595 426.8,-89.1155"/>
</g>
<!-- Node4 -->
<g id="node4" class="node"><title>Node4</title>
<polygon fill="white" stroke="#bfbfbf" points="-0.5,-0.5 -0.5,-19.5 48.5,-19.5 48.5,-0.5 -0.5,-0.5"/>
<text text-anchor="middle" x="24" y="-7.5" font-family="Helvetica,sans-Serif" font-size="10.00">cstddef</text>
</g>
<!-- Node3&#45;&gt;Node4 -->
<g id="edge3" class="edge"><title>Node3&#45;&gt;Node4</title>
<path fill="none" stroke="midnightblue" d="M134.517,-62.4035C112.868,-52.3341 76.7872,-35.5522 51.7675,-23.9151"/>
<polygon fill="midnightblue" stroke="midnightblue" points="52.9916,-20.6244 42.4483,-19.5806 50.0394,-26.9715 52.9916,-20.6244"/>
</g>
<!-- Node5 -->
<g id="node5" class="node"><title>Node5</title>
<polygon fill="white" stroke="#bfbfbf" points="66.5,-0.5 66.5,-19.5 107.5,-19.5 107.5,-0.5 66.5,-0.5"/>
<text text-anchor="middle" x="87" y="-7.5" font-family="Helvetica,sans-Serif" font-size="10.00">string</text>
</g>
<!-- Node3&#45;&gt;Node5 -->
<g id="edge4" class="edge"><title>Node3&#45;&gt;Node5</title>
<path fill="none" stroke="midnightblue" d="M143.544,-62.4035C133.252,-53.047 116.584,-37.8948 104.006,-26.4599"/>
<polygon fill="midnightblue" stroke="midnightblue" points="106.192,-23.7176 96.4386,-19.5806 101.484,-28.8971 106.192,-23.7176"/>
</g>
<!-- Node6 -->
<g id="node6" class="node"><title>Node6</title>
<polygon fill="white" stroke="#bfbfbf" points="126,-0.5 126,-19.5 180,-19.5 180,-0.5 126,-0.5"/>
<text text-anchor="middle" x="153" y="-7.5" font-family="Helvetica,sans-Serif" font-size="10.00">iostream</text>
</g>
<!-- Node3&#45;&gt;Node6 -->
<g id="edge5" class="edge"><title>Node3&#45;&gt;Node6</title>
<path fill="none" stroke="midnightblue" d="M153,-62.4035C153,-53.9381 153,-40.7283 153,-29.8199"/>
<polygon fill="midnightblue" stroke="midnightblue" points="156.5,-29.5806 153,-19.5806 149.5,-29.5806 156.5,-29.5806"/>
</g>
<!-- Node7 -->
<g id="node7" class="node"><title>Node7</title>
<polygon fill="white" stroke="#bfbfbf" points="198.5,-0.5 198.5,-19.5 245.5,-19.5 245.5,-0.5 198.5,-0.5"/>
<text text-anchor="middle" x="222" y="-7.5" font-family="Helvetica,sans-Serif" font-size="10.00">iterator</text>
</g>
<!-- Node3&#45;&gt;Node7 -->
<g id="edge6" class="edge"><title>Node3&#45;&gt;Node7</title>
<path fill="none" stroke="midnightblue" d="M162.886,-62.4035C173.646,-53.047 191.071,-37.8948 204.221,-26.4599"/>
<polygon fill="midnightblue" stroke="midnightblue" points="206.883,-28.7835 212.132,-19.5806 202.29,-23.5013 206.883,-28.7835"/>
</g>
<!-- Node8 -->
<g id="node8" class="node"><title>Node8</title>
<polygon fill="white" stroke="#bfbfbf" points="264,-0.5 264,-19.5 308,-19.5 308,-0.5 264,-0.5"/>
<text text-anchor="middle" x="286" y="-7.5" font-family="Helvetica,sans-Serif" font-size="10.00">vector</text>
</g>
<!-- Node3&#45;&gt;Node8 -->
<g id="edge7" class="edge"><title>Node3&#45;&gt;Node8</title>
<path fill="none" stroke="midnightblue" d="M172.056,-62.4035C194.475,-52.2896 231.905,-35.4036 257.713,-23.761"/>
<polygon fill="midnightblue" stroke="midnightblue" points="259.304,-26.8832 266.98,-19.5806 256.425,-20.5025 259.304,-26.8832"/>
</g>
</g>
</svg>
