<?xml version="1.0" encoding="UTF-8" standalone="no"?>
<!DOCTYPE svg PUBLIC "-//W3C//DTD SVG 1.1//EN"
 "http://www.w3.org/Graphics/SVG/1.1/DTD/svg11.dtd">
<!-- Generated by graphviz version 2.36.0 (20140111.2315)
 -->
<!-- Title: InfectedFile.h Pages: 1 -->
<svg width="522pt" height="140pt"
 viewBox="0.00 0.00 522.00 140.00" xmlns="http://www.w3.org/2000/svg" xmlns:xlink="http://www.w3.org/1999/xlink">
<g id="graph0" class="graph" transform="scale(1 1) rotate(0) translate(4 136)">
<title>InfectedFile.h</title>
<polygon fill="white" stroke="none" points="-4,4 -4,-136 518,-136 518,4 -4,4"/>
<!-- Node1 -->
<g id="node1" class="node"><title>Node1</title>
<polygon fill="#bfbfbf" stroke="black" points="147,-112.5 147,-131.5 223,-131.5 223,-112.5 147,-112.5"/>
<text text-anchor="middle" x="185" y="-119.5" font-family="Helvetica,sans-Serif" font-size="10.00">InfectedFile.h</text>
</g>
<!-- Node2 -->
<g id="node2" class="node"><title>Node2</title>
<g id="a_node2"><a xlink:href="../../db/d53/a00321.html" target="_top" xlink:title="Implementation of the CasesFile class. ">
<polygon fill="white" stroke="black" points="89,-56.5 89,-75.5 175,-75.5 175,-56.5 89,-56.5"/>
<text text-anchor="middle" x="132" y="-63.5" font-family="Helvetica,sans-Serif" font-size="10.00">InfectedFile.cpp</text>
</a>
</g>
</g>
<!-- Node1&#45;&gt;Node2 -->
<g id="edge1" class="edge"><title>Node1&#45;&gt;Node2</title>
<path fill="none" stroke="midnightblue" d="M169.019,-104.718C159.678,-95.1997 148.254,-83.5608 140.589,-75.7511"/>
<polygon fill="midnightblue" stroke="midnightblue" points="166.746,-107.398 176.248,-112.083 171.741,-102.494 166.746,-107.398"/>
</g>
<!-- Node3 -->
<g id="node3" class="node"><title>Node3</title>
<g id="a_node3"><a xlink:href="../../d4/d8f/a00324.html" target="_top" xlink:title="Observer for Cases output. ">
<polygon fill="white" stroke="black" points="193,-56.5 193,-75.5 283,-75.5 283,-56.5 193,-56.5"/>
<text text-anchor="middle" x="238" y="-63.5" font-family="Helvetica,sans-Serif" font-size="10.00">InfectedViewer.h</text>
</a>
</g>
</g>
<!-- Node1&#45;&gt;Node3 -->
<g id="edge2" class="edge"><title>Node1&#45;&gt;Node3</title>
<path fill="none" stroke="midnightblue" d="M200.981,-104.718C210.322,-95.1997 221.746,-83.5608 229.411,-75.7511"/>
<polygon fill="midnightblue" stroke="midnightblue" points="198.259,-102.494 193.752,-112.083 203.254,-107.398 198.259,-102.494"/>
</g>
<!-- Node4 -->
<g id="node4" class="node"><title>Node4</title>
<g id="a_node4"><a xlink:href="../../d3/db1/a00200.html" target="_top" xlink:title="Calibrator.cpp">
<polygon fill="white" stroke="black" points="-0.5,-0.5 -0.5,-19.5 76.5,-19.5 76.5,-0.5 -0.5,-0.5"/>
<text text-anchor="middle" x="38" y="-7.5" font-family="Helvetica,sans-Serif" font-size="10.00">Calibrator.cpp</text>
</a>
</g>
</g>
<!-- Node3&#45;&gt;Node4 -->
<g id="edge3" class="edge"><title>Node3&#45;&gt;Node4</title>
<path fill="none" stroke="midnightblue" d="M196.626,-53.8291C158.864,-43.6333 103.86,-28.7823 69.5423,-19.5164"/>
<polygon fill="midnightblue" stroke="midnightblue" points="195.743,-57.2158 206.309,-56.4435 197.567,-50.4578 195.743,-57.2158"/>
</g>
<!-- Node5 -->
<g id="node5" class="node"><title>Node5</title>
<g id="a_node5"><a xlink:href="../../d4/dce/a00337.html" target="_top" xlink:title="Launcher.cpp">
<polygon fill="white" stroke="black" points="94.5,-0.5 94.5,-19.5 169.5,-19.5 169.5,-0.5 94.5,-0.5"/>
<text text-anchor="middle" x="132" y="-7.5" font-family="Helvetica,sans-Serif" font-size="10.00">Launcher.cpp</text>
</a>
</g>
</g>
<!-- Node3&#45;&gt;Node5 -->
<g id="edge4" class="edge"><title>Node3&#45;&gt;Node5</title>
<path fill="none" stroke="midnightblue" d="M211.944,-51.7261C192.316,-41.7271 165.972,-28.3065 148.988,-19.6545"/>
<polygon fill="midnightblue" stroke="midnightblue" points="210.47,-54.9033 220.969,-56.324 213.648,-48.666 210.47,-54.9033"/>
</g>
<!-- Node6 -->
<g id="node6" class="node"><title>Node6</title>
<g id="a_node6"><a xlink:href="../../d8/d00/a00186.html" target="_top" xlink:title="Header for the command line controller. ">
<polygon fill="white" stroke="black" points="188,-0.5 188,-19.5 288,-19.5 288,-0.5 188,-0.5"/>
<text text-anchor="middle" x="238" y="-7.5" font-family="Helvetica,sans-Serif" font-size="10.00">BaseController.cpp</text>
</a>
</g>
</g>
<!-- Node3&#45;&gt;Node6 -->
<g id="edge5" class="edge"><title>Node3&#45;&gt;Node6</title>
<path fill="none" stroke="midnightblue" d="M238,-45.8045C238,-36.9102 238,-26.7798 238,-19.7511"/>
<polygon fill="midnightblue" stroke="midnightblue" points="234.5,-46.083 238,-56.083 241.5,-46.083 234.5,-46.083"/>
</g>
<!-- Node7 -->
<g id="node7" class="node"><title>Node7</title>
<g id="a_node7"><a xlink:href="../../d5/df1/a00206.html" target="_top" xlink:title="Header for the command line controller. ">
<polygon fill="white" stroke="black" points="306.5,-0.5 306.5,-19.5 395.5,-19.5 395.5,-0.5 306.5,-0.5"/>
<text text-anchor="middle" x="351" y="-7.5" font-family="Helvetica,sans-Serif" font-size="10.00">CliController.cpp</text>
</a>
</g>
</g>
<!-- Node3&#45;&gt;Node7 -->
<g id="edge6" class="edge"><title>Node3&#45;&gt;Node7</title>
<path fill="none" stroke="midnightblue" d="M265.003,-52.096C286.114,-42.0073 314.862,-28.2697 333.179,-19.5164"/>
<polygon fill="midnightblue" stroke="midnightblue" points="263.419,-48.9738 255.905,-56.4435 266.437,-55.2897 263.419,-48.9738"/>
</g>
<!-- Node8 -->
<g id="node8" class="node"><title>Node8</title>
<g id="a_node8"><a xlink:href="../../de/d55/a00323.html" target="_top" xlink:title="Definition of Observer for SimEvents for commandline interface usage. ">
<polygon fill="white" stroke="black" points="413.5,-0.5 413.5,-19.5 514.5,-19.5 514.5,-0.5 413.5,-0.5"/>
<text text-anchor="middle" x="464" y="-7.5" font-family="Helvetica,sans-Serif" font-size="10.00">InfectedViewer.cpp</text>
</a>
</g>
</g>
<!-- Node3&#45;&gt;Node8 -->
<g id="edge7" class="edge"><title>Node3&#45;&gt;Node8</title>
<path fill="none" stroke="midnightblue" d="M283.667,-54.0884C326.364,-43.8865 389.248,-28.8612 428.357,-19.5164"/>
<polygon fill="midnightblue" stroke="midnightblue" points="282.723,-50.7153 273.81,-56.4435 284.35,-57.5237 282.723,-50.7153"/>
</g>
</g>
</svg>
