<?xml version="1.0" encoding="UTF-8" standalone="no"?>
<!DOCTYPE svg PUBLIC "-//W3C//DTD SVG 1.1//EN"
 "http://www.w3.org/Graphics/SVG/1.1/DTD/svg11.dtd">
<!-- Generated by graphviz version 2.36.0 (20140111.2315)
 -->
<!-- Title: Id.h Pages: 1 -->
<!--zoomable 308 -->
<svg id="main" version="1.1" xmlns="http://www.w3.org/2000/svg" xmlns:xlink="http://www.w3.org/1999/xlink" xml:space="preserve" onload="init(evt)">
<style type="text/css"><![CDATA[
.edge:hover path { stroke: red; }
.edge:hover polygon { stroke: red; fill: red; }
]]></style>
<script type="text/javascript"><![CDATA[
var edges = document.getElementsByTagName('g');
if (edges && edges.length) {
  for (var i=0;i<edges.length;i++) {
    if (edges[i].id.substr(0,4)=='edge') {
      edges[i].setAttribute('class','edge');
    }
  }
}
]]></script>
        <defs>
                <circle id="rim" cx="0" cy="0" r="7"/>
                <circle id="rim2" cx="0" cy="0" r="3.5"/>
                <g id="zoomPlus">
                        <use xlink:href="#rim" fill="#404040">
                                <set attributeName="fill" to="#808080" begin="zoomplus.mouseover" end="zoomplus.mouseout"/>
                        </use>
                        <path d="M-4,0h8M0,-4v8" fill="none" stroke="white" stroke-width="1.5" pointer-events="none"/>
                </g>
                <g id="zoomMin">
                        <use xlink:href="#rim" fill="#404040">
                                <set attributeName="fill" to="#808080" begin="zoomminus.mouseover" end="zoomminus.mouseout"/>
                        </use>
                        <path d="M-4,0h8" fill="none" stroke="white" stroke-width="1.5" pointer-events="none"/>
                </g>
                <g id="dirArrow">
                        <path fill="none" stroke="white" stroke-width="1.5" d="M0,-3.0v7 M-2.5,-0.5L0,-3.0L2.5,-0.5"/>
                </g>
               <g id="resetDef">
                       <use xlink:href="#rim2" fill="#404040">
                               <set attributeName="fill" to="#808080" begin="reset.mouseover" end="reset.mouseout"/>
                       </use>
               </g>
        </defs>

<script type="text/javascript">
var viewWidth = 1868;
var viewHeight = 308;
var sectionId = 'dynsection-1';
</script>
<script xlink:href="../../svgpan.js"/>
<svg id="graph" class="graph">
<g id="viewport">
<title>Id.h</title>
<polygon fill="white" stroke="none" points="-4,4 -4,-304 1864.24,-304 1864.24,4 -4,4"/>
<!-- Node1 -->
<g id="node1" class="node"><title>Node1</title>
<polygon fill="#bfbfbf" stroke="black" points="1108.5,-280.5 1108.5,-299.5 1141.5,-299.5 1141.5,-280.5 1108.5,-280.5"/>
<text text-anchor="middle" x="1125" y="-287.5" font-family="Helvetica,sans-Serif" font-size="10.00">Id.h</text>
</g>
<!-- Node2 -->
<g id="node2" class="node"><title>Node2</title>
<g id="a_node2"><a xlink:href="../../d7/df2/a00312.html" target="_top" xlink:title="Implementation of EventId. ">
<polygon fill="white" stroke="black" points="893,-224.5 893,-243.5 937,-243.5 937,-224.5 893,-224.5"/>
<text text-anchor="middle" x="915" y="-231.5" font-family="Helvetica,sans-Serif" font-size="10.00">Id.cpp</text>
</a>
</g>
</g>
<!-- Node1&#45;&gt;Node2 -->
<g id="edge1" class="edge"><title>Node1&#45;&gt;Node2</title>
<path fill="none" stroke="midnightblue" d="M1098.41,-282.163C1056.57,-271.404 976.116,-250.716 937.184,-240.705"/>
<polygon fill="midnightblue" stroke="midnightblue" points="1097.61,-285.571 1108.17,-284.672 1099.36,-278.792 1097.61,-285.571"/>
</g>
<!-- Node3 -->
<g id="node3" class="node"><title>Node3</title>
<g id="a_node3"><a xlink:href="../../de/de8/a00405.html" target="_top" xlink:title="Definition of Subject/Observer for SimEvents. ">
<polygon fill="white" stroke="black" points="1068,-224.5 1068,-243.5 1126,-243.5 1126,-224.5 1068,-224.5"/>
<text text-anchor="middle" x="1097" y="-231.5" font-family="Helvetica,sans-Serif" font-size="10.00">Subject.h</text>
</a>
</g>
</g>
<!-- Node1&#45;&gt;Node3 -->
<g id="edge2" class="edge"><title>Node1&#45;&gt;Node3</title>
<path fill="none" stroke="midnightblue" d="M1115.66,-270.983C1110.91,-261.817 1105.34,-251.092 1101.54,-243.751"/>
<polygon fill="midnightblue" stroke="midnightblue" points="1112.67,-272.817 1120.38,-280.083 1118.88,-269.594 1112.67,-272.817"/>
</g>
<!-- Node5 -->
<g id="node5" class="node"><title>Node5</title>
<g id="a_node5"><a xlink:href="../../d9/dd1/a00398.html" target="_top" xlink:title="Header for the SimRunner class. ">
<polygon fill="white" stroke="black" points="1117,-168.5 1117,-187.5 1191,-187.5 1191,-168.5 1117,-168.5"/>
<text text-anchor="middle" x="1154" y="-175.5" font-family="Helvetica,sans-Serif" font-size="10.00">SimRunner.h</text>
</a>
</g>
</g>
<!-- Node1&#45;&gt;Node5 -->
<g id="edge63" class="edge"><title>Node1&#45;&gt;Node5</title>
<path fill="none" stroke="midnightblue" d="M1129.83,-270.674C1136.17,-246.625 1147.04,-205.388 1151.73,-187.591"/>
<polygon fill="midnightblue" stroke="midnightblue" points="1126.44,-269.807 1127.28,-280.368 1133.21,-271.591 1126.44,-269.807"/>
</g>
<!-- Node22 -->
<g id="node22" class="node"><title>Node22</title>
<g id="a_node22"><a xlink:href="../../d9/d90/a00178.html" target="_top" xlink:title="Observer for Adopted output. ">
<polygon fill="white" stroke="black" points="819.5,-112.5 819.5,-131.5 910.5,-131.5 910.5,-112.5 819.5,-112.5"/>
<text text-anchor="middle" x="865" y="-119.5" font-family="Helvetica,sans-Serif" font-size="10.00">AdoptedViewer.h</text>
</a>
</g>
</g>
<!-- Node1&#45;&gt;Node22 -->
<g id="edge64" class="edge"><title>Node1&#45;&gt;Node22</title>
<path fill="none" stroke="midnightblue" d="M1099.21,-276.998C1081.39,-268.42 1057.33,-256.266 1037,-244 973.853,-205.9 903.269,-152.59 876.302,-131.795"/>
<polygon fill="midnightblue" stroke="midnightblue" points="1097.88,-280.237 1108.41,-281.375 1100.88,-273.917 1097.88,-280.237"/>
</g>
<!-- Node24 -->
<g id="node24" class="node"><title>Node24</title>
<g id="a_node24"><a xlink:href="../../d3/de5/a00209.html" target="_top" xlink:title="Observer for SimEvents for commandline interface usage. ">
<polygon fill="white" stroke="black" points="977.5,-112.5 977.5,-131.5 1044.5,-131.5 1044.5,-112.5 977.5,-112.5"/>
<text text-anchor="middle" x="1011" y="-119.5" font-family="Helvetica,sans-Serif" font-size="10.00">CliViewer.h</text>
</a>
</g>
</g>
<!-- Node1&#45;&gt;Node24 -->
<g id="edge65" class="edge"><title>Node1&#45;&gt;Node24</title>
<path fill="none" stroke="midnightblue" d="M1099.8,-275.043C1086.71,-267.033 1070.99,-256.161 1059,-244 1038.06,-222.754 1032.95,-215.75 1022,-188 1014.44,-168.836 1012.07,-144.486 1011.33,-131.718"/>
<polygon fill="midnightblue" stroke="midnightblue" points="1098.39,-278.274 1108.78,-280.347 1101.95,-272.247 1098.39,-278.274"/>
</g>
<!-- Node26 -->
<g id="node26" class="node"><title>Node26</title>
<g id="a_node26"><a xlink:href="../../d4/d8f/a00324.html" target="_top" xlink:title="Observer for Cases output. ">
<polygon fill="white" stroke="black" points="1244,-112.5 1244,-131.5 1334,-131.5 1334,-112.5 1244,-112.5"/>
<text text-anchor="middle" x="1289" y="-119.5" font-family="Helvetica,sans-Serif" font-size="10.00">InfectedViewer.h</text>
</a>
</g>
</g>
<!-- Node1&#45;&gt;Node26 -->
<g id="edge66" class="edge"><title>Node1&#45;&gt;Node26</title>
<path fill="none" stroke="midnightblue" d="M1141.15,-272.651C1175.45,-237.939 1254.52,-157.898 1280.54,-131.568"/>
<polygon fill="midnightblue" stroke="midnightblue" points="1138.36,-270.501 1133.82,-280.075 1143.34,-275.421 1138.36,-270.501"/>
</g>
<!-- Node28 -->
<g id="node28" class="node"><title>Node28</title>
<g id="a_node28"><a xlink:href="../../d6/d80/a00371.html" target="_top" xlink:title="Observer for Persons output. ">
<polygon fill="white" stroke="black" points="1749.5,-112.5 1749.5,-131.5 1840.5,-131.5 1840.5,-112.5 1749.5,-112.5"/>
<text text-anchor="middle" x="1795" y="-119.5" font-family="Helvetica,sans-Serif" font-size="10.00">PersonsViewer.h</text>
</a>
</g>
</g>
<!-- Node1&#45;&gt;Node28 -->
<g id="edge67" class="edge"><title>Node1&#45;&gt;Node28</title>
<path fill="none" stroke="midnightblue" d="M1151.33,-282.477C1256,-256.544 1642.71,-160.732 1760.64,-131.514"/>
<polygon fill="midnightblue" stroke="midnightblue" points="1150.43,-279.094 1141.56,-284.897 1152.11,-285.889 1150.43,-279.094"/>
</g>
<!-- Node30 -->
<g id="node30" class="node"><title>Node30</title>
<g id="a_node30"><a xlink:href="../../d0/dd6/a00415.html" target="_top" xlink:title="Observer for Persons output. ">
<polygon fill="white" stroke="black" points="1462.5,-112.5 1462.5,-131.5 1559.5,-131.5 1559.5,-112.5 1462.5,-112.5"/>
<text text-anchor="middle" x="1511" y="-119.5" font-family="Helvetica,sans-Serif" font-size="10.00">SummaryViewer.h</text>
</a>
</g>
</g>
<!-- Node1&#45;&gt;Node30 -->
<g id="edge68" class="edge"><title>Node1&#45;&gt;Node30</title>
<path fill="none" stroke="midnightblue" d="M1150.89,-277.866C1223.17,-246.78 1426.09,-159.517 1490.86,-131.662"/>
<polygon fill="midnightblue" stroke="midnightblue" points="1149.39,-274.701 1141.59,-281.867 1152.16,-281.132 1149.39,-274.701"/>
</g>
<!-- Node4 -->
<g id="node4" class="node"><title>Node4</title>
<g id="a_node4"><a xlink:href="../../d9/de6/a00404.html" target="_top" xlink:title="Definition of Subject/Observer for SimEvents. ">
<polygon fill="white" stroke="black" points="1031,-168.5 1031,-187.5 1099,-187.5 1099,-168.5 1031,-168.5"/>
<text text-anchor="middle" x="1065" y="-175.5" font-family="Helvetica,sans-Serif" font-size="10.00">Subject.cpp</text>
</a>
</g>
</g>
<!-- Node3&#45;&gt;Node4 -->
<g id="edge3" class="edge"><title>Node3&#45;&gt;Node4</title>
<path fill="none" stroke="midnightblue" d="M1086.5,-215.275C1081.03,-206.045 1074.58,-195.17 1070.19,-187.751"/>
<polygon fill="midnightblue" stroke="midnightblue" points="1083.61,-217.264 1091.72,-224.083 1089.63,-213.696 1083.61,-217.264"/>
</g>
<!-- Node3&#45;&gt;Node5 -->
<g id="edge4" class="edge"><title>Node3&#45;&gt;Node5</title>
<path fill="none" stroke="midnightblue" d="M1113.62,-217.253C1123.73,-207.673 1136.28,-195.791 1144.68,-187.834"/>
<polygon fill="midnightblue" stroke="midnightblue" points="1111.01,-214.906 1106.16,-224.324 1115.82,-219.987 1111.01,-214.906"/>
</g>
<!-- Node6 -->
<g id="node6" class="node"><title>Node6</title>
<g id="a_node6"><a xlink:href="../../d3/db1/a00200.html" target="_top" xlink:title="Calibrator.cpp">
<polygon fill="white" stroke="black" points="1180.5,-56.5 1180.5,-75.5 1257.5,-75.5 1257.5,-56.5 1180.5,-56.5"/>
<text text-anchor="middle" x="1219" y="-63.5" font-family="Helvetica,sans-Serif" font-size="10.00">Calibrator.cpp</text>
</a>
</g>
</g>
<!-- Node5&#45;&gt;Node6 -->
<g id="edge5" class="edge"><title>Node5&#45;&gt;Node6</title>
<path fill="none" stroke="midnightblue" d="M1171.71,-161.311C1179.99,-153.222 1189.44,-142.8 1196,-132 1207.18,-113.581 1214.01,-88.9285 1217.08,-75.9147"/>
<polygon fill="midnightblue" stroke="midnightblue" points="1169.16,-158.897 1164.26,-168.289 1173.95,-164.005 1169.16,-158.897"/>
</g>
<!-- Node7 -->
<g id="node7" class="node"><title>Node7</title>
<g id="a_node7"><a xlink:href="../../db/d7b/a00296.html" target="_top" xlink:title="GuiControllerBackend.h">
<polygon fill="white" stroke="black" points="308,-112.5 308,-131.5 428,-131.5 428,-112.5 308,-112.5"/>
<text text-anchor="middle" x="368" y="-119.5" font-family="Helvetica,sans-Serif" font-size="10.00">GuiControllerBackend.h</text>
</a>
</g>
</g>
<!-- Node5&#45;&gt;Node7 -->
<g id="edge6" class="edge"><title>Node5&#45;&gt;Node7</title>
<path fill="none" stroke="midnightblue" d="M1106.88,-168.043C814.753,-132.258 737.464,-156.157 448,-132 441.593,-131.465 434.906,-130.832 428.245,-130.153"/>
<polygon fill="midnightblue" stroke="midnightblue" points="1106.56,-171.531 1116.91,-169.286 1107.42,-164.584 1106.56,-171.531"/>
</g>
<!-- Node13 -->
<g id="node13" class="node"><title>Node13</title>
<g id="a_node13"><a xlink:href="../../d9/d95/a00400.html" target="_top" xlink:title="SimWorker.h">
<polygon fill="white" stroke="black" points="457,-112.5 457,-131.5 531,-131.5 531,-112.5 457,-112.5"/>
<text text-anchor="middle" x="494" y="-119.5" font-family="Helvetica,sans-Serif" font-size="10.00">SimWorker.h</text>
</a>
</g>
</g>
<!-- Node5&#45;&gt;Node13 -->
<g id="edge12" class="edge"><title>Node5&#45;&gt;Node13</title>
<path fill="none" stroke="midnightblue" d="M1106.79,-168.012C865.983,-137.18 801.871,-155.14 564,-132 553.268,-130.956 541.643,-129.566 531.007,-128.192"/>
<polygon fill="midnightblue" stroke="midnightblue" points="1106.54,-171.509 1116.91,-169.323 1107.44,-164.567 1106.54,-171.509"/>
</g>
<!-- Node15 -->
<g id="node15" class="node"><title>Node15</title>
<g id="a_node15"><a xlink:href="../../d6/de1/a00356.html" target="_top" xlink:title="MapViewer.h">
<polygon fill="white" stroke="black" points="573,-112.5 573,-131.5 647,-131.5 647,-112.5 573,-112.5"/>
<text text-anchor="middle" x="610" y="-119.5" font-family="Helvetica,sans-Serif" font-size="10.00">MapViewer.h</text>
</a>
</g>
</g>
<!-- Node5&#45;&gt;Node15 -->
<g id="edge15" class="edge"><title>Node5&#45;&gt;Node15</title>
<path fill="none" stroke="midnightblue" d="M1106.81,-167.97C926.48,-142.755 878.537,-148.631 701,-132 683.297,-130.342 663.666,-128.412 647.183,-126.765"/>
<polygon fill="midnightblue" stroke="midnightblue" points="1106.51,-171.463 1116.9,-169.394 1107.49,-164.531 1106.51,-171.463"/>
</g>
<!-- Node16 -->
<g id="node16" class="node"><title>Node16</title>
<g id="a_node16"><a xlink:href="../../d3/dc9/a00355.html" target="_top" xlink:title="MapViewer.cpp">
<polygon fill="white" stroke="black" points="592,-56.5 592,-75.5 676,-75.5 676,-56.5 592,-56.5"/>
<text text-anchor="middle" x="634" y="-63.5" font-family="Helvetica,sans-Serif" font-size="10.00">MapViewer.cpp</text>
</a>
</g>
</g>
<!-- Node5&#45;&gt;Node16 -->
<g id="edge19" class="edge"><title>Node5&#45;&gt;Node16</title>
<path fill="none" stroke="midnightblue" d="M1106.69,-167.946C961.109,-146.965 918.389,-169.421 780,-132 729.914,-118.457 675.097,-90.0162 649.186,-75.669"/>
<polygon fill="midnightblue" stroke="midnightblue" points="1106.48,-171.453 1116.89,-169.462 1107.51,-164.53 1106.48,-171.453"/>
</g>
<!-- Node17 -->
<g id="node17" class="node"><title>Node17</title>
<g id="a_node17"><a xlink:href="../../d8/d00/a00186.html" target="_top" xlink:title="Header for the command line controller. ">
<polygon fill="white" stroke="black" points="1062,-56.5 1062,-75.5 1162,-75.5 1162,-56.5 1062,-56.5"/>
<text text-anchor="middle" x="1112" y="-63.5" font-family="Helvetica,sans-Serif" font-size="10.00">BaseController.cpp</text>
</a>
</g>
</g>
<!-- Node5&#45;&gt;Node17 -->
<g id="edge20" class="edge"><title>Node5&#45;&gt;Node17</title>
<path fill="none" stroke="midnightblue" d="M1126.17,-163.274C1114.26,-155.806 1101.6,-145.341 1095,-132 1085.69,-113.183 1097.87,-88.6924 1105.93,-75.8095"/>
<polygon fill="midnightblue" stroke="midnightblue" points="1124.61,-166.413 1135.02,-168.398 1128.12,-160.357 1124.61,-166.413"/>
</g>
<!-- Node18 -->
<g id="node18" class="node"><title>Node18</title>
<g id="a_node18"><a xlink:href="../../d6/daa/a00187.html" target="_top" xlink:title="BaseController.h">
<polygon fill="white" stroke="black" points="181.5,-112.5 181.5,-131.5 270.5,-131.5 270.5,-112.5 181.5,-112.5"/>
<text text-anchor="middle" x="226" y="-119.5" font-family="Helvetica,sans-Serif" font-size="10.00">BaseController.h</text>
</a>
</g>
</g>
<!-- Node5&#45;&gt;Node18 -->
<g id="edge21" class="edge"><title>Node5&#45;&gt;Node18</title>
<path fill="none" stroke="midnightblue" d="M1106.79,-168.052C748.879,-126.004 654.328,-161.764 299,-132 289.838,-131.233 280.055,-130.185 270.726,-129.075"/>
<polygon fill="midnightblue" stroke="midnightblue" points="1106.58,-171.55 1116.92,-169.253 1107.4,-164.599 1106.58,-171.55"/>
</g>
<!-- Node20 -->
<g id="node20" class="node"><title>Node20</title>
<g id="a_node20"><a xlink:href="../../d5/df1/a00206.html" target="_top" xlink:title="Header for the command line controller. ">
<polygon fill="white" stroke="black" points="1279.5,-0.5 1279.5,-19.5 1368.5,-19.5 1368.5,-0.5 1279.5,-0.5"/>
<text text-anchor="middle" x="1324" y="-7.5" font-family="Helvetica,sans-Serif" font-size="10.00">CliController.cpp</text>
</a>
</g>
</g>
<!-- Node5&#45;&gt;Node20 -->
<g id="edge30" class="edge"><title>Node5&#45;&gt;Node20</title>
<path fill="none" stroke="midnightblue" d="M1201.27,-175.215C1295.38,-171.118 1502.72,-159.219 1568,-132 1604.45,-116.801 1620.02,-111.657 1637,-76 1640.82,-67.9749 1642.82,-62.7178 1637,-56 1602.8,-16.5329 1446.57,-10.8737 1368.57,-10.5701"/>
<polygon fill="midnightblue" stroke="midnightblue" points="1201.02,-171.723 1191.18,-175.644 1201.32,-178.716 1201.02,-171.723"/>
</g>
<!-- Node21 -->
<g id="node21" class="node"><title>Node21</title>
<g id="a_node21"><a xlink:href="../../d7/d93/a00397.html" target="_top" xlink:title="Implementation for SimRunner. ">
<polygon fill="white" stroke="black" points="1104,-112.5 1104,-131.5 1188,-131.5 1188,-112.5 1104,-112.5"/>
<text text-anchor="middle" x="1146" y="-119.5" font-family="Helvetica,sans-Serif" font-size="10.00">SimRunner.cpp</text>
</a>
</g>
</g>
<!-- Node5&#45;&gt;Node21 -->
<g id="edge31" class="edge"><title>Node5&#45;&gt;Node21</title>
<path fill="none" stroke="midnightblue" d="M1151.2,-158.101C1149.87,-149.136 1148.35,-138.858 1147.3,-131.751"/>
<polygon fill="midnightblue" stroke="midnightblue" points="1147.75,-158.704 1152.68,-168.083 1154.68,-157.678 1147.75,-158.704"/>
</g>
<!-- Node5&#45;&gt;Node22 -->
<g id="edge32" class="edge"><title>Node5&#45;&gt;Node22</title>
<path fill="none" stroke="midnightblue" d="M1106.84,-167.794C1032.5,-153.669 957.47,-139.868 910.708,-131.322"/>
<polygon fill="midnightblue" stroke="midnightblue" points="1106.37,-171.267 1116.85,-169.698 1107.68,-164.39 1106.37,-171.267"/>
</g>
<!-- Node23 -->
<g id="node23" class="node"><title>Node23</title>
<g id="a_node23"><a xlink:href="../../dd/d4c/a00177.html" target="_top" xlink:title="Definition of Observer for SimEvents for commandline interface usage. ">
<polygon fill="white" stroke="black" points="694.5,-56.5 694.5,-75.5 795.5,-75.5 795.5,-56.5 694.5,-56.5"/>
<text text-anchor="middle" x="745" y="-63.5" font-family="Helvetica,sans-Serif" font-size="10.00">AdoptedViewer.cpp</text>
</a>
</g>
</g>
<!-- Node5&#45;&gt;Node23 -->
<g id="edge37" class="edge"><title>Node5&#45;&gt;Node23</title>
<path fill="none" stroke="midnightblue" d="M1106.75,-167.977C973.925,-149.226 927.034,-188.94 810,-132 783.021,-118.874 760.612,-89.9718 750.611,-75.5437"/>
<polygon fill="midnightblue" stroke="midnightblue" points="1106.48,-171.475 1116.88,-169.497 1107.51,-164.552 1106.48,-171.475"/>
</g>
<!-- Node5&#45;&gt;Node24 -->
<g id="edge38" class="edge"><title>Node5&#45;&gt;Node24</title>
<path fill="none" stroke="midnightblue" d="M1121.97,-164.906C1095.09,-154.754 1057.36,-140.506 1033.55,-131.516"/>
<polygon fill="midnightblue" stroke="midnightblue" points="1120.75,-168.185 1131.34,-168.444 1123.22,-161.636 1120.75,-168.185"/>
</g>
<!-- Node25 -->
<g id="node25" class="node"><title>Node25</title>
<g id="a_node25"><a xlink:href="../../dc/d31/a00208.html" target="_top" xlink:title="Definition of Observer for SimEvents for commandline interface usage. ">
<polygon fill="white" stroke="black" points="890.5,-56.5 890.5,-75.5 967.5,-75.5 967.5,-56.5 890.5,-56.5"/>
<text text-anchor="middle" x="929" y="-63.5" font-family="Helvetica,sans-Serif" font-size="10.00">CliViewer.cpp</text>
</a>
</g>
</g>
<!-- Node5&#45;&gt;Node25 -->
<g id="edge43" class="edge"><title>Node5&#45;&gt;Node25</title>
<path fill="none" stroke="midnightblue" d="M1106.99,-167.598C1055.66,-157.024 979.231,-140.255 968,-132 948.277,-117.502 936.626,-89.7586 931.729,-75.6701"/>
<polygon fill="midnightblue" stroke="midnightblue" points="1106.39,-171.048 1116.89,-169.626 1107.8,-164.191 1106.39,-171.048"/>
</g>
<!-- Node5&#45;&gt;Node26 -->
<g id="edge44" class="edge"><title>Node5&#45;&gt;Node26</title>
<path fill="none" stroke="midnightblue" d="M1184.91,-164.638C1210.24,-154.504 1245.43,-140.427 1267.71,-131.516"/>
<polygon fill="midnightblue" stroke="midnightblue" points="1183.38,-161.48 1175.39,-168.444 1185.98,-167.979 1183.38,-161.48"/>
</g>
<!-- Node27 -->
<g id="node27" class="node"><title>Node27</title>
<g id="a_node27"><a xlink:href="../../de/d55/a00323.html" target="_top" xlink:title="Definition of Observer for SimEvents for commandline interface usage. ">
<polygon fill="white" stroke="black" points="1352.5,-56.5 1352.5,-75.5 1453.5,-75.5 1453.5,-56.5 1352.5,-56.5"/>
<text text-anchor="middle" x="1403" y="-63.5" font-family="Helvetica,sans-Serif" font-size="10.00">InfectedViewer.cpp</text>
</a>
</g>
</g>
<!-- Node5&#45;&gt;Node27 -->
<g id="edge50" class="edge"><title>Node5&#45;&gt;Node27</title>
<path fill="none" stroke="midnightblue" d="M1201.23,-173.471C1241.29,-168.742 1299.08,-157.706 1343,-132 1367.65,-117.57 1388.16,-89.7957 1397.52,-75.6854"/>
<polygon fill="midnightblue" stroke="midnightblue" points="1200.75,-170.003 1191.19,-174.569 1201.51,-176.961 1200.75,-170.003"/>
</g>
<!-- Node5&#45;&gt;Node28 -->
<g id="edge51" class="edge"><title>Node5&#45;&gt;Node28</title>
<path fill="none" stroke="midnightblue" d="M1201.12,-174.497C1300.18,-168.984 1537.18,-154.468 1735,-132 1739.61,-131.477 1744.4,-130.868 1749.18,-130.218"/>
<polygon fill="midnightblue" stroke="midnightblue" points="1200.92,-171.003 1191.13,-175.049 1201.31,-177.992 1200.92,-171.003"/>
</g>
<!-- Node29 -->
<g id="node29" class="node"><title>Node29</title>
<g id="a_node29"><a xlink:href="../../d3/d30/a00370.html" target="_top" xlink:title="Definition of Observer for SimEvents for commandline interface usage. ">
<polygon fill="white" stroke="black" points="1711.5,-56.5 1711.5,-75.5 1812.5,-75.5 1812.5,-56.5 1711.5,-56.5"/>
<text text-anchor="middle" x="1762" y="-63.5" font-family="Helvetica,sans-Serif" font-size="10.00">PersonsViewer.cpp</text>
</a>
</g>
</g>
<!-- Node5&#45;&gt;Node29 -->
<g id="edge56" class="edge"><title>Node5&#45;&gt;Node29</title>
<path fill="none" stroke="midnightblue" d="M1201.47,-177.206C1316.96,-177.054 1609.51,-172.553 1697,-132 1724.22,-119.383 1746.52,-90.242 1756.44,-75.6514"/>
<polygon fill="midnightblue" stroke="midnightblue" points="1201.18,-173.706 1191.18,-177.209 1201.18,-180.706 1201.18,-173.706"/>
</g>
<!-- Node5&#45;&gt;Node30 -->
<g id="edge57" class="edge"><title>Node5&#45;&gt;Node30</title>
<path fill="none" stroke="midnightblue" d="M1201.18,-169.863C1269.04,-159.598 1393.57,-140.762 1462.28,-130.369"/>
<polygon fill="midnightblue" stroke="midnightblue" points="1200.56,-166.418 1191.19,-171.374 1201.61,-173.339 1200.56,-166.418"/>
</g>
<!-- Node31 -->
<g id="node31" class="node"><title>Node31</title>
<g id="a_node31"><a xlink:href="../../d4/dbc/a00414.html" target="_top" xlink:title="Definition of Observer for SimEvents for commandline interface usage. ">
<polygon fill="white" stroke="black" points="1471.5,-56.5 1471.5,-75.5 1578.5,-75.5 1578.5,-56.5 1471.5,-56.5"/>
<text text-anchor="middle" x="1525" y="-63.5" font-family="Helvetica,sans-Serif" font-size="10.00">SummaryViewer.cpp</text>
</a>
</g>
</g>
<!-- Node5&#45;&gt;Node31 -->
<g id="edge62" class="edge"><title>Node5&#45;&gt;Node31</title>
<path fill="none" stroke="midnightblue" d="M1201.17,-169.761C1245.17,-162.393 1312.35,-149.56 1369,-132 1420.85,-115.93 1479.23,-89.1413 1507.62,-75.5178"/>
<polygon fill="midnightblue" stroke="midnightblue" points="1200.35,-166.349 1191.06,-171.427 1201.49,-173.256 1200.35,-166.349"/>
</g>
<!-- Node8 -->
<g id="node8" class="node"><title>Node8</title>
<g id="a_node8"><a xlink:href="../../d4/d5b/a00294.html" target="_top" xlink:title="GuiController.h">
<polygon fill="white" stroke="black" points="28,-56.5 28,-75.5 110,-75.5 110,-56.5 28,-56.5"/>
<text text-anchor="middle" x="69" y="-63.5" font-family="Helvetica,sans-Serif" font-size="10.00">GuiController.h</text>
</a>
</g>
</g>
<!-- Node7&#45;&gt;Node8 -->
<g id="edge7" class="edge"><title>Node7&#45;&gt;Node8</title>
<path fill="none" stroke="midnightblue" d="M310.774,-110.665C252.155,-100.078 162.452,-83.8776 110.378,-74.473"/>
<polygon fill="midnightblue" stroke="midnightblue" points="310.16,-114.11 320.623,-112.444 311.404,-107.222 310.16,-114.11"/>
</g>
<!-- Node12 -->
<g id="node12" class="node"><title>Node12</title>
<g id="a_node12"><a xlink:href="../../d9/d5e/a00295.html" target="_top" xlink:title="GuiControllerBackend.cpp">
<polygon fill="white" stroke="black" points="302.5,-56.5 302.5,-75.5 433.5,-75.5 433.5,-56.5 302.5,-56.5"/>
<text text-anchor="middle" x="368" y="-63.5" font-family="Helvetica,sans-Serif" font-size="10.00">GuiControllerBackend.cpp</text>
</a>
</g>
</g>
<!-- Node7&#45;&gt;Node12 -->
<g id="edge11" class="edge"><title>Node7&#45;&gt;Node12</title>
<path fill="none" stroke="midnightblue" d="M368,-101.805C368,-92.9102 368,-82.7798 368,-75.7511"/>
<polygon fill="midnightblue" stroke="midnightblue" points="364.5,-102.083 368,-112.083 371.5,-102.083 364.5,-102.083"/>
</g>
<!-- Node9 -->
<g id="node9" class="node"><title>Node9</title>
<g id="a_node9"><a xlink:href="../../d6/d82/a00293.html" target="_top" xlink:title="GuiController.cpp">
<polygon fill="white" stroke="black" points="0,-0.5 0,-19.5 92,-19.5 92,-0.5 0,-0.5"/>
<text text-anchor="middle" x="46" y="-7.5" font-family="Helvetica,sans-Serif" font-size="10.00">GuiController.cpp</text>
</a>
</g>
</g>
<!-- Node8&#45;&gt;Node9 -->
<g id="edge8" class="edge"><title>Node8&#45;&gt;Node9</title>
<path fill="none" stroke="midnightblue" d="M61.2012,-46.6897C57.325,-37.589 52.8208,-27.0141 49.7273,-19.7511"/>
<polygon fill="midnightblue" stroke="midnightblue" points="58.0633,-48.2543 65.202,-56.083 64.5034,-45.5112 58.0633,-48.2543"/>
</g>
<!-- Node10 -->
<g id="node10" class="node"><title>Node10</title>
<g id="a_node10"><a xlink:href="../../d4/dce/a00337.html" target="_top" xlink:title="Launcher.cpp">
<polygon fill="white" stroke="black" points="786.5,-0.5 786.5,-19.5 861.5,-19.5 861.5,-0.5 786.5,-0.5"/>
<text text-anchor="middle" x="824" y="-7.5" font-family="Helvetica,sans-Serif" font-size="10.00">Launcher.cpp</text>
</a>
</g>
</g>
<!-- Node8&#45;&gt;Node10 -->
<g id="edge9" class="edge"><title>Node8&#45;&gt;Node10</title>
<path fill="none" stroke="midnightblue" d="M120.463,-59.4353C132.448,-58.2231 145.164,-57.0042 157,-56 396.388,-35.6894 684.741,-18.8028 786.356,-13.0825"/>
<polygon fill="midnightblue" stroke="midnightblue" points="119.75,-55.9901 110.16,-60.4933 120.465,-62.9534 119.75,-55.9901"/>
</g>
<!-- Node11 -->
<g id="node11" class="node"><title>Node11</title>
<g id="a_node11"><a xlink:href="../../d0/d48/a00351.html" target="_top" xlink:title="Main program: command line handling. ">
<polygon fill="white" stroke="black" points="110,-0.5 110,-19.5 166,-19.5 166,-0.5 110,-0.5"/>
<text text-anchor="middle" x="138" y="-7.5" font-family="Helvetica,sans-Serif" font-size="10.00">main.cpp</text>
</a>
</g>
</g>
<!-- Node8&#45;&gt;Node11 -->
<g id="edge10" class="edge"><title>Node8&#45;&gt;Node11</title>
<path fill="none" stroke="midnightblue" d="M88.0379,-50.1008C100.456,-40.3824 116.243,-28.0269 126.712,-19.8339"/>
<polygon fill="midnightblue" stroke="midnightblue" points="85.804,-47.4046 80.086,-56.324 90.1182,-52.9171 85.804,-47.4046"/>
</g>
<!-- Node13&#45;&gt;Node12 -->
<g id="edge13" class="edge"><title>Node13&#45;&gt;Node12</title>
<path fill="none" stroke="midnightblue" d="M464.84,-108.503C441.219,-98.3795 408.572,-84.388 387.872,-75.5164"/>
<polygon fill="midnightblue" stroke="midnightblue" points="463.465,-111.721 474.035,-112.444 466.222,-105.287 463.465,-111.721"/>
</g>
<!-- Node14 -->
<g id="node14" class="node"><title>Node14</title>
<g id="a_node14"><a xlink:href="../../d1/d53/a00399.html" target="_top" xlink:title="SimWorker.cpp">
<polygon fill="white" stroke="black" points="452,-56.5 452,-75.5 536,-75.5 536,-56.5 452,-56.5"/>
<text text-anchor="middle" x="494" y="-63.5" font-family="Helvetica,sans-Serif" font-size="10.00">SimWorker.cpp</text>
</a>
</g>
</g>
<!-- Node13&#45;&gt;Node14 -->
<g id="edge14" class="edge"><title>Node13&#45;&gt;Node14</title>
<path fill="none" stroke="midnightblue" d="M494,-101.805C494,-92.9102 494,-82.7798 494,-75.7511"/>
<polygon fill="midnightblue" stroke="midnightblue" points="490.5,-102.083 494,-112.083 497.5,-102.083 490.5,-102.083"/>
</g>
<!-- Node15&#45;&gt;Node10 -->
<g id="edge16" class="edge"><title>Node15&#45;&gt;Node10</title>
<path fill="none" stroke="midnightblue" d="M594.086,-104.25C582.68,-90.1835 571.233,-70.1678 583,-56 608.427,-25.3856 725.301,-15.4856 786.456,-12.3729"/>
<polygon fill="midnightblue" stroke="midnightblue" points="591.759,-106.907 600.974,-112.135 597.031,-102.301 591.759,-106.907"/>
</g>
<!-- Node15&#45;&gt;Node11 -->
<g id="edge18" class="edge"><title>Node15&#45;&gt;Node11</title>
<path fill="none" stroke="midnightblue" d="M563.03,-114.737C555.339,-113.776 547.451,-112.829 540,-112 455.038,-102.548 222.927,-130.42 157,-76 140.135,-62.0792 137.747,-34.074 137.702,-19.7995"/>
<polygon fill="midnightblue" stroke="midnightblue" points="562.612,-118.212 572.973,-116 563.494,-111.267 562.612,-118.212"/>
</g>
<!-- Node15&#45;&gt;Node16 -->
<g id="edge17" class="edge"><title>Node15&#45;&gt;Node16</title>
<path fill="none" stroke="midnightblue" d="M618.138,-102.69C622.183,-93.589 626.883,-83.0141 630.111,-75.7511"/>
<polygon fill="midnightblue" stroke="midnightblue" points="614.826,-101.523 613.963,-112.083 621.223,-104.366 614.826,-101.523"/>
</g>
<!-- Node18&#45;&gt;Node8 -->
<g id="edge22" class="edge"><title>Node18&#45;&gt;Node8</title>
<path fill="none" stroke="midnightblue" d="M191.611,-109.172C162.048,-99.0039 120.127,-84.5852 93.7607,-75.5164"/>
<polygon fill="midnightblue" stroke="midnightblue" points="190.528,-112.501 201.123,-112.444 192.805,-105.881 190.528,-112.501"/>
</g>
<!-- Node18&#45;&gt;Node10 -->
<g id="edge23" class="edge"><title>Node18&#45;&gt;Node10</title>
<path fill="none" stroke="midnightblue" d="M237.886,-104.134C249.851,-88.6485 269.822,-66.5571 293,-56 381.09,-15.8775 679.942,-11.2807 786.156,-10.9399"/>
<polygon fill="midnightblue" stroke="midnightblue" points="234.939,-102.232 231.801,-112.351 240.565,-106.397 234.939,-102.232"/>
</g>
<!-- Node18&#45;&gt;Node11 -->
<g id="edge29" class="edge"><title>Node18&#45;&gt;Node11</title>
<path fill="none" stroke="midnightblue" d="M170.861,-116.69C116.128,-111.13 37.7541,-99.2691 19,-76 13.422,-69.0791 13.947,-63.313 19,-56 29.6097,-40.645 78.0722,-25.9521 109.786,-17.7389"/>
<polygon fill="midnightblue" stroke="midnightblue" points="170.835,-120.203 181.127,-117.687 171.512,-113.236 170.835,-120.203"/>
</g>
<!-- Node18&#45;&gt;Node17 -->
<g id="edge24" class="edge"><title>Node18&#45;&gt;Node17</title>
<path fill="none" stroke="midnightblue" d="M280.914,-113.814C287.01,-113.14 293.133,-112.517 299,-112 599.151,-85.5494 675.221,-93.9486 976,-76 1004.46,-74.3015 1036.26,-72.2079 1061.95,-70.4675"/>
<polygon fill="midnightblue" stroke="midnightblue" points="280.265,-110.365 270.731,-114.986 281.066,-117.319 280.265,-110.365"/>
</g>
<!-- Node19 -->
<g id="node19" class="node"><title>Node19</title>
<g id="a_node19"><a xlink:href="../../de/dd2/a00207.html" target="_top" xlink:title="Header for the command line controller. ">
<polygon fill="white" stroke="black" points="166.5,-56.5 166.5,-75.5 245.5,-75.5 245.5,-56.5 166.5,-56.5"/>
<text text-anchor="middle" x="206" y="-63.5" font-family="Helvetica,sans-Serif" font-size="10.00">CliController.h</text>
</a>
</g>
</g>
<!-- Node18&#45;&gt;Node19 -->
<g id="edge25" class="edge"><title>Node18&#45;&gt;Node19</title>
<path fill="none" stroke="midnightblue" d="M219.218,-102.69C215.848,-93.589 211.931,-83.0141 209.241,-75.7511"/>
<polygon fill="midnightblue" stroke="midnightblue" points="215.942,-103.921 222.697,-112.083 222.506,-101.49 215.942,-103.921"/>
</g>
<!-- Node19&#45;&gt;Node10 -->
<g id="edge26" class="edge"><title>Node19&#45;&gt;Node10</title>
<path fill="none" stroke="midnightblue" d="M256.056,-56.5049C257.383,-56.3287 258.7,-56.1599 260,-56 457.424,-31.7172 695.415,-17.6938 786.265,-12.893"/>
<polygon fill="midnightblue" stroke="midnightblue" points="255.159,-53.0974 245.756,-57.9781 256.151,-60.0269 255.159,-53.0974"/>
</g>
<!-- Node19&#45;&gt;Node11 -->
<g id="edge28" class="edge"><title>Node19&#45;&gt;Node11</title>
<path fill="none" stroke="midnightblue" d="M187.238,-50.1008C175,-40.3824 159.441,-28.0269 149.124,-19.8339"/>
<polygon fill="midnightblue" stroke="midnightblue" points="185.067,-52.846 195.075,-56.324 189.42,-47.3642 185.067,-52.846"/>
</g>
<!-- Node19&#45;&gt;Node20 -->
<g id="edge27" class="edge"><title>Node19&#45;&gt;Node20</title>
<path fill="none" stroke="midnightblue" d="M255.786,-59.3351C267.947,-58.0935 280.932,-56.8868 293,-56 674.262,-27.984 1136.22,-15.4082 1279.48,-11.9971"/>
<polygon fill="midnightblue" stroke="midnightblue" points="255.383,-55.8581 245.802,-60.38 256.112,-62.82 255.383,-55.8581"/>
</g>
<!-- Node22&#45;&gt;Node10 -->
<g id="edge33" class="edge"><title>Node22&#45;&gt;Node10</title>
<path fill="none" stroke="midnightblue" d="M858.074,-102.76C854.978,-94.582 851.291,-84.8125 848,-76 840.508,-55.9412 831.832,-32.3518 827.24,-19.8391"/>
<polygon fill="midnightblue" stroke="midnightblue" points="854.904,-104.271 861.722,-112.38 861.449,-101.789 854.904,-104.271"/>
</g>
<!-- Node22&#45;&gt;Node17 -->
<g id="edge34" class="edge"><title>Node22&#45;&gt;Node17</title>
<path fill="none" stroke="midnightblue" d="M914.027,-110.281C960.704,-100.077 1030.03,-84.9203 1073.05,-75.5164"/>
<polygon fill="midnightblue" stroke="midnightblue" points="913.16,-106.888 904.138,-112.444 914.655,-113.727 913.16,-106.888"/>
</g>
<!-- Node22&#45;&gt;Node20 -->
<g id="edge35" class="edge"><title>Node22&#45;&gt;Node20</title>
<path fill="none" stroke="midnightblue" d="M864.206,-102.144C864.688,-87.3022 867.997,-67.2976 881,-56 910.689,-30.2051 1173.11,-16.9845 1279.49,-12.6469"/>
<polygon fill="midnightblue" stroke="midnightblue" points="860.706,-102.282 864.275,-112.258 867.706,-102.234 860.706,-102.282"/>
</g>
<!-- Node22&#45;&gt;Node23 -->
<g id="edge36" class="edge"><title>Node22&#45;&gt;Node23</title>
<path fill="none" stroke="midnightblue" d="M836.627,-108.232C814.18,-98.1312 783.465,-84.3091 763.925,-75.5164"/>
<polygon fill="midnightblue" stroke="midnightblue" points="835.43,-111.532 845.986,-112.444 838.303,-105.148 835.43,-111.532"/>
</g>
<!-- Node24&#45;&gt;Node10 -->
<g id="edge39" class="edge"><title>Node24&#45;&gt;Node10</title>
<path fill="none" stroke="midnightblue" d="M1005.61,-102.936C1000.33,-88.2673 990.888,-68.097 976,-56 943.214,-29.3599 895.097,-18.4882 861.821,-14.0531"/>
<polygon fill="midnightblue" stroke="midnightblue" points="1002.29,-104.041 1008.73,-112.45 1008.94,-101.857 1002.29,-104.041"/>
</g>
<!-- Node24&#45;&gt;Node17 -->
<g id="edge40" class="edge"><title>Node24&#45;&gt;Node17</title>
<path fill="none" stroke="midnightblue" d="M1036.08,-107.59C1054.76,-97.6052 1079.7,-84.2672 1095.81,-75.6545"/>
<polygon fill="midnightblue" stroke="midnightblue" points="1034.4,-104.522 1027.23,-112.324 1037.7,-110.696 1034.4,-104.522"/>
</g>
<!-- Node24&#45;&gt;Node20 -->
<g id="edge41" class="edge"><title>Node24&#45;&gt;Node20</title>
<path fill="none" stroke="midnightblue" d="M1017.82,-102.821C1024.46,-87.7807 1036.03,-67.1416 1053,-56 1089.48,-32.0542 1212.29,-19.3483 1279.36,-14.0491"/>
<polygon fill="midnightblue" stroke="midnightblue" points="1014.55,-101.573 1014.02,-112.154 1021.04,-104.217 1014.55,-101.573"/>
</g>
<!-- Node24&#45;&gt;Node25 -->
<g id="edge42" class="edge"><title>Node24&#45;&gt;Node25</title>
<path fill="none" stroke="midnightblue" d="M989.167,-106.622C974.187,-96.7574 954.803,-83.9919 942.142,-75.6545"/>
<polygon fill="midnightblue" stroke="midnightblue" points="987.549,-109.747 997.825,-112.324 991.399,-103.901 987.549,-109.747"/>
</g>
<!-- Node26&#45;&gt;Node6 -->
<g id="edge45" class="edge"><title>Node26&#45;&gt;Node6</title>
<path fill="none" stroke="midnightblue" d="M1269.69,-106.101C1257.09,-96.3824 1241.07,-84.0269 1230.45,-75.8339"/>
<polygon fill="midnightblue" stroke="midnightblue" points="1267.7,-108.987 1277.75,-112.324 1271.97,-103.445 1267.7,-108.987"/>
</g>
<!-- Node26&#45;&gt;Node10 -->
<g id="edge46" class="edge"><title>Node26&#45;&gt;Node10</title>
<path fill="none" stroke="midnightblue" d="M1287.62,-101.966C1285.46,-87.0205 1279.95,-66.9631 1266,-56 1234.5,-31.2461 963.039,-17.0333 861.829,-12.555"/>
<polygon fill="midnightblue" stroke="midnightblue" points="1284.17,-102.592 1288.71,-112.164 1291.13,-101.849 1284.17,-102.592"/>
</g>
<!-- Node26&#45;&gt;Node17 -->
<g id="edge47" class="edge"><title>Node26&#45;&gt;Node17</title>
<path fill="none" stroke="midnightblue" d="M1251.1,-109.436C1217.72,-99.2551 1169.9,-84.664 1139.91,-75.5164"/>
<polygon fill="midnightblue" stroke="midnightblue" points="1250.37,-112.873 1260.95,-112.444 1252.41,-106.178 1250.37,-112.873"/>
</g>
<!-- Node26&#45;&gt;Node20 -->
<g id="edge48" class="edge"><title>Node26&#45;&gt;Node20</title>
<path fill="none" stroke="midnightblue" d="M1294.83,-102.674C1302.48,-78.6248 1315.6,-37.3881 1321.27,-19.5914"/>
<polygon fill="midnightblue" stroke="midnightblue" points="1291.44,-101.778 1291.75,-112.368 1298.11,-103.9 1291.44,-101.778"/>
</g>
<!-- Node26&#45;&gt;Node27 -->
<g id="edge49" class="edge"><title>Node26&#45;&gt;Node27</title>
<path fill="none" stroke="midnightblue" d="M1316.24,-108.096C1337.54,-98.0073 1366.54,-84.2697 1385.02,-75.5164"/>
<polygon fill="midnightblue" stroke="midnightblue" points="1314.6,-105 1307.06,-112.444 1317.6,-111.326 1314.6,-105"/>
</g>
<!-- Node28&#45;&gt;Node10 -->
<g id="edge52" class="edge"><title>Node28&#45;&gt;Node10</title>
<path fill="none" stroke="midnightblue" d="M1810.3,-104.657C1821.93,-90.2533 1833.92,-69.5137 1821,-56 1804.11,-38.3281 1041.71,-16.8301 861.765,-11.9962"/>
<polygon fill="midnightblue" stroke="midnightblue" points="1807.58,-102.451 1803.68,-112.304 1812.87,-107.031 1807.58,-102.451"/>
</g>
<!-- Node28&#45;&gt;Node17 -->
<g id="edge53" class="edge"><title>Node28&#45;&gt;Node17</title>
<path fill="none" stroke="midnightblue" d="M1739.04,-118.401C1629.79,-113.009 1380.56,-99.14 1172,-76 1168.75,-75.6399 1165.42,-75.2351 1162.05,-74.8016"/>
<polygon fill="midnightblue" stroke="midnightblue" points="1739.01,-121.904 1749.17,-118.897 1739.35,-114.912 1739.01,-121.904"/>
</g>
<!-- Node28&#45;&gt;Node20 -->
<g id="edge54" class="edge"><title>Node28&#45;&gt;Node20</title>
<path fill="none" stroke="midnightblue" d="M1821.85,-107.578C1844.71,-94.4458 1871.42,-73.8702 1855,-56 1822.37,-20.4892 1490.66,-12.9721 1368.69,-11.4052"/>
<polygon fill="midnightblue" stroke="midnightblue" points="1820.16,-104.517 1813.07,-112.39 1823.52,-110.656 1820.16,-104.517"/>
</g>
<!-- Node28&#45;&gt;Node29 -->
<g id="edge55" class="edge"><title>Node28&#45;&gt;Node29</title>
<path fill="none" stroke="midnightblue" d="M1784.17,-103.275C1778.53,-94.0454 1771.88,-83.1703 1767.35,-75.7511"/>
<polygon fill="midnightblue" stroke="midnightblue" points="1781.35,-105.375 1789.55,-112.083 1787.32,-101.725 1781.35,-105.375"/>
</g>
<!-- Node30&#45;&gt;Node10 -->
<g id="edge58" class="edge"><title>Node30&#45;&gt;Node10</title>
<path fill="none" stroke="midnightblue" d="M1544.09,-108.521C1572.4,-96.0736 1605.83,-75.9759 1587,-56 1561.87,-29.3425 1012.12,-15.1863 861.731,-11.8035"/>
<polygon fill="midnightblue" stroke="midnightblue" points="1542.63,-105.338 1534.77,-112.438 1545.34,-111.792 1542.63,-105.338"/>
</g>
<!-- Node30&#45;&gt;Node17 -->
<g id="edge59" class="edge"><title>Node30&#45;&gt;Node17</title>
<path fill="none" stroke="midnightblue" d="M1452.37,-113.523C1384.75,-104.829 1270.27,-89.8918 1172,-76 1168.77,-75.543 1165.44,-75.0646 1162.08,-74.5769"/>
<polygon fill="midnightblue" stroke="midnightblue" points="1452.04,-117.01 1462.41,-114.812 1452.93,-110.067 1452.04,-117.01"/>
</g>
<!-- Node30&#45;&gt;Node20 -->
<g id="edge60" class="edge"><title>Node30&#45;&gt;Node20</title>
<path fill="none" stroke="midnightblue" d="M1563.05,-109.791C1601.15,-99.2295 1642.71,-81.2433 1621,-56 1589,-18.781 1443.46,-11.9667 1368.67,-10.9667"/>
<polygon fill="midnightblue" stroke="midnightblue" points="1561.75,-106.515 1552.97,-112.445 1563.53,-113.284 1561.75,-106.515"/>
</g>
<!-- Node30&#45;&gt;Node31 -->
<g id="edge61" class="edge"><title>Node30&#45;&gt;Node31</title>
<path fill="none" stroke="midnightblue" d="M1515.82,-102.396C1518.17,-93.362 1520.87,-82.936 1522.73,-75.7511"/>
<polygon fill="midnightblue" stroke="midnightblue" points="1512.43,-101.525 1513.31,-112.083 1519.21,-103.281 1512.43,-101.525"/>
</g>
</g>
</svg>
        <g id="navigator" transform="translate(0 0)" fill="#404254">
                <rect fill="#f2f5e9" fill-opacity="0.5" stroke="#606060" stroke-width=".5" x="0" y="0" width="60" height="60"/>
                <use id="zoomplus" xlink:href="#zoomPlus" x="17" y="9" onmousedown="handleZoom(evt,'in')"/>
                <use id="zoomminus" xlink:href="#zoomMin" x="42" y="9" onmousedown="handleZoom(evt,'out')"/>
                <use id="reset" xlink:href="#resetDef" x="30" y="36" onmousedown="handleReset()"/>
                <g id="arrowUp" xlink:href="#dirArrow" transform="translate(30 24)" onmousedown="handlePan(0,-1)">
                  <use xlink:href="#rim" fill="#404040">
                        <set attributeName="fill" to="#808080" begin="arrowUp.mouseover" end="arrowUp.mouseout"/>
                  </use>
                  <path fill="none" stroke="white" stroke-width="1.5" d="M0,-3.0v7 M-2.5,-0.5L0,-3.0L2.5,-0.5"/>
                </g>
                <g id="arrowRight" xlink:href="#dirArrow" transform="rotate(90) translate(36 -43)" onmousedown="handlePan(1,0)">
                  <use xlink:href="#rim" fill="#404040">
                        <set attributeName="fill" to="#808080" begin="arrowRight.mouseover" end="arrowRight.mouseout"/>
                  </use>
                  <path fill="none" stroke="white" stroke-width="1.5" d="M0,-3.0v7 M-2.5,-0.5L0,-3.0L2.5,-0.5"/>
                </g>
                <g id="arrowDown" xlink:href="#dirArrow" transform="rotate(180) translate(-30 -48)" onmousedown="handlePan(0,1)">
                  <use xlink:href="#rim" fill="#404040">
                        <set attributeName="fill" to="#808080" begin="arrowDown.mouseover" end="arrowDown.mouseout"/>
                  </use>
                  <path fill="none" stroke="white" stroke-width="1.5" d="M0,-3.0v7 M-2.5,-0.5L0,-3.0L2.5,-0.5"/>
                </g>
                <g id="arrowLeft" xlink:href="#dirArrow" transform="rotate(270) translate(-36 17)" onmousedown="handlePan(-1,0)">
                  <use xlink:href="#rim" fill="#404040">
                        <set attributeName="fill" to="#808080" begin="arrowLeft.mouseover" end="arrowLeft.mouseout"/>
                  </use>
                  <path fill="none" stroke="white" stroke-width="1.5" d="M0,-3.0v7 M-2.5,-0.5L0,-3.0L2.5,-0.5"/>
                </g>
        </g>
        <svg viewBox="0 0 15 15" width="100%" height="30px" preserveAspectRatio="xMaxYMin meet">
         <g id="arrow_out" transform="scale(0.3 0.3)">
          <a xlink:href="a00688_org.svg" target="_base">
           <rect id="button" ry="5" rx="5" y="6" x="6" height="38" width="38"
                fill="#f2f5e9" fill-opacity="0.5" stroke="#606060" stroke-width="1.0"/>
           <path id="arrow"
             d="M 11.500037,31.436501 C 11.940474,20.09759 22.043105,11.32322 32.158766,21.979434 L 37.068811,17.246167 C 37.068811,17.246167 37.088388,32 37.088388,32 L 22.160133,31.978069 C 22.160133,31.978069 26.997745,27.140456 26.997745,27.140456 C 18.528582,18.264221 13.291696,25.230495 11.500037,31.436501 z"
             style="fill:#404040;"/>
          </a>
         </g>
        </svg>
</svg>
