<?xml version="1.0" encoding="UTF-8" standalone="no"?>
<!DOCTYPE svg PUBLIC "-//W3C//DTD SVG 1.1//EN"
 "http://www.w3.org/Graphics/SVG/1.1/DTD/svg11.dtd">
<!-- Generated by graphviz version 2.36.0 (20140111.2315)
 -->
<!-- Title: TimeStamp.h Pages: 1 -->
<svg width="385pt" height="84pt"
 viewBox="0.00 0.00 385.00 84.00" xmlns="http://www.w3.org/2000/svg" xmlns:xlink="http://www.w3.org/1999/xlink">
<g id="graph0" class="graph" transform="scale(1 1) rotate(0) translate(4 80)">
<title>TimeStamp.h</title>
<polygon fill="white" stroke="none" points="-4,4 -4,-80 381,-80 381,4 -4,4"/>
<!-- Node1 -->
<g id="node1" class="node"><title>Node1</title>
<polygon fill="#bfbfbf" stroke="black" points="153.5,-56.5 153.5,-75.5 228.5,-75.5 228.5,-56.5 153.5,-56.5"/>
<text text-anchor="middle" x="191" y="-63.5" font-family="Helvetica,sans-Serif" font-size="10.00">TimeStamp.h</text>
</g>
<!-- Node2 -->
<g id="node2" class="node"><title>Node2</title>
<polygon fill="white" stroke="#bfbfbf" points="0,-0.5 0,-19.5 56,-19.5 56,-0.5 0,-0.5"/>
<text text-anchor="middle" x="28" y="-7.5" font-family="Helvetica,sans-Serif" font-size="10.00">algorithm</text>
</g>
<!-- Node1&#45;&gt;Node2 -->
<g id="edge1" class="edge"><title>Node1&#45;&gt;Node2</title>
<path fill="none" stroke="midnightblue" d="M165.172,-56.4435C137.751,-47.3591 94.2225,-32.9388 63.5676,-22.7831"/>
<polygon fill="midnightblue" stroke="midnightblue" points="64.3003,-19.3389 53.707,-19.5164 62.0989,-25.9837 64.3003,-19.3389"/>
</g>
<!-- Node3 -->
<g id="node3" class="node"><title>Node3</title>
<polygon fill="white" stroke="#bfbfbf" points="74,-0.5 74,-19.5 120,-19.5 120,-0.5 74,-0.5"/>
<text text-anchor="middle" x="97" y="-7.5" font-family="Helvetica,sans-Serif" font-size="10.00">chrono</text>
</g>
<!-- Node1&#45;&gt;Node3 -->
<g id="edge2" class="edge"><title>Node1&#45;&gt;Node3</title>
<path fill="none" stroke="midnightblue" d="M175.897,-56.324C161.097,-47.8215 138.306,-34.7288 121.018,-24.7975"/>
<polygon fill="midnightblue" stroke="midnightblue" points="122.48,-21.6009 112.065,-19.6545 118.993,-27.6707 122.48,-21.6009"/>
</g>
<!-- Node4 -->
<g id="node4" class="node"><title>Node4</title>
<polygon fill="white" stroke="#bfbfbf" points="138.5,-0.5 138.5,-19.5 179.5,-19.5 179.5,-0.5 138.5,-0.5"/>
<text text-anchor="middle" x="159" y="-7.5" font-family="Helvetica,sans-Serif" font-size="10.00">ctime</text>
</g>
<!-- Node1&#45;&gt;Node4 -->
<g id="edge3" class="edge"><title>Node1&#45;&gt;Node4</title>
<path fill="none" stroke="midnightblue" d="M185.716,-56.083C181.289,-48.6127 174.837,-37.7244 169.382,-28.5199"/>
<polygon fill="midnightblue" stroke="midnightblue" points="172.295,-26.5697 164.186,-19.7511 166.273,-30.1383 172.295,-26.5697"/>
</g>
<!-- Node5 -->
<g id="node5" class="node"><title>Node5</title>
<polygon fill="white" stroke="#bfbfbf" points="198,-0.5 198,-19.5 248,-19.5 248,-0.5 198,-0.5"/>
<text text-anchor="middle" x="223" y="-7.5" font-family="Helvetica,sans-Serif" font-size="10.00">iomanip</text>
</g>
<!-- Node1&#45;&gt;Node5 -->
<g id="edge4" class="edge"><title>Node1&#45;&gt;Node5</title>
<path fill="none" stroke="midnightblue" d="M196.284,-56.083C200.711,-48.6127 207.163,-37.7244 212.618,-28.5199"/>
<polygon fill="midnightblue" stroke="midnightblue" points="215.727,-30.1383 217.814,-19.7511 209.705,-26.5697 215.727,-30.1383"/>
</g>
<!-- Node6 -->
<g id="node6" class="node"><title>Node6</title>
<polygon fill="white" stroke="#bfbfbf" points="266,-0.5 266,-19.5 318,-19.5 318,-0.5 266,-0.5"/>
<text text-anchor="middle" x="292" y="-7.5" font-family="Helvetica,sans-Serif" font-size="10.00">sstream</text>
</g>
<!-- Node1&#45;&gt;Node6 -->
<g id="edge5" class="edge"><title>Node1&#45;&gt;Node6</title>
<path fill="none" stroke="midnightblue" d="M207.227,-56.324C223.351,-47.7034 248.3,-34.3643 266.964,-24.3855"/>
<polygon fill="midnightblue" stroke="midnightblue" points="268.644,-27.456 275.813,-19.6545 265.344,-21.283 268.644,-27.456"/>
</g>
<!-- Node7 -->
<g id="node7" class="node"><title>Node7</title>
<polygon fill="white" stroke="#bfbfbf" points="336.5,-0.5 336.5,-19.5 377.5,-19.5 377.5,-0.5 336.5,-0.5"/>
<text text-anchor="middle" x="357" y="-7.5" font-family="Helvetica,sans-Serif" font-size="10.00">string</text>
</g>
<!-- Node1&#45;&gt;Node7 -->
<g id="edge6" class="edge"><title>Node1&#45;&gt;Node7</title>
<path fill="none" stroke="midnightblue" d="M217.303,-56.4435C247.001,-46.7829 295.248,-31.088 326.552,-20.9046"/>
<polygon fill="midnightblue" stroke="midnightblue" points="327.649,-24.2285 336.076,-17.8067 325.484,-17.5718 327.649,-24.2285"/>
</g>
</g>
</svg>
