<?xml version="1.0" encoding="UTF-8" standalone="no"?>
<!DOCTYPE svg PUBLIC "-//W3C//DTD SVG 1.1//EN"
 "http://www.w3.org/Graphics/SVG/1.1/DTD/svg11.dtd">
<!-- Generated by graphviz version 2.36.0 (20140111.2315)
 -->
<!-- Title: calibration::CalibrationRunner::DisplayBoxplots Pages: 1 -->
<svg width="648pt" height="87pt"
 viewBox="0.00 0.00 648.00 87.00" xmlns="http://www.w3.org/2000/svg" xmlns:xlink="http://www.w3.org/1999/xlink">
<g id="graph0" class="graph" transform="scale(1 1) rotate(0) translate(4 83)">
<title>calibration::CalibrationRunner::DisplayBoxplots</title>
<polygon fill="white" stroke="none" points="-4,4 -4,-83 644,-83 644,4 -4,4"/>
<!-- Node1 -->
<g id="node1" class="node"><title>Node1</title>
<polygon fill="#bfbfbf" stroke="black" points="0.5,-24 0.5,-54 125.5,-54 125.5,-24 0.5,-24"/>
<text text-anchor="start" x="8.5" y="-42" font-family="Helvetica,sans-Serif" font-size="10.00">calibration::Calibration</text>
<text text-anchor="middle" x="63" y="-31" font-family="Helvetica,sans-Serif" font-size="10.00">Runner::DisplayBoxplots</text>
</g>
<!-- Node2 -->
<g id="node2" class="node"><title>Node2</title>
<g id="a_node2"><a xlink:href="../../d1/d7c/a00003.html#a07b21a6e037c8324b63e2ec67d566968" target="_top" xlink:title="Compute the information for the last step in a list of testcase results. ">
<polygon fill="white" stroke="black" points="182.5,-49 182.5,-79 285.5,-79 285.5,-49 182.5,-49"/>
<text text-anchor="start" x="190.5" y="-67" font-family="Helvetica,sans-Serif" font-size="10.00">calibration::Boxplot</text>
<text text-anchor="middle" x="234" y="-56" font-family="Helvetica,sans-Serif" font-size="10.00">::CalculateLastStep</text>
</a>
</g>
</g>
<!-- Node1&#45;&gt;Node2 -->
<g id="edge1" class="edge"><title>Node1&#45;&gt;Node2</title>
<path fill="none" stroke="midnightblue" d="M125.97,-48.1671C141.048,-50.3977 157.159,-52.781 172.184,-55.0035"/>
<polygon fill="midnightblue" stroke="midnightblue" points="171.981,-58.5115 182.386,-56.5127 173.006,-51.5869 171.981,-58.5115"/>
</g>
<!-- Node4 -->
<g id="node4" class="node"><title>Node4</title>
<g id="a_node4"><a xlink:href="../../dd/dad/a00005.html#a4e2764ccb029510b2676d0fb811ffe5d" target="_top" xlink:title="Display the boxplots. ">
<polygon fill="white" stroke="black" points="162.5,-0 162.5,-30 305.5,-30 305.5,-0 162.5,-0"/>
<text text-anchor="start" x="170.5" y="-18" font-family="Helvetica,sans-Serif" font-size="10.00">calibration::BoxplotGenerator</text>
<text text-anchor="middle" x="234" y="-7" font-family="Helvetica,sans-Serif" font-size="10.00">::Display</text>
</a>
</g>
</g>
<!-- Node1&#45;&gt;Node4 -->
<g id="edge3" class="edge"><title>Node1&#45;&gt;Node4</title>
<path fill="none" stroke="midnightblue" d="M125.97,-30.1996C134.594,-28.9748 143.556,-27.7021 152.459,-26.4378"/>
<polygon fill="midnightblue" stroke="midnightblue" points="153.056,-29.8882 162.465,-25.0169 152.072,-22.9577 153.056,-29.8882"/>
</g>
<!-- Node3 -->
<g id="node3" class="node"><title>Node3</title>
<g id="a_node3"><a xlink:href="../../d1/d7c/a00003.html#ab82c8f0821323b55645f69efc0db8325" target="_top" xlink:title="Compute the information for each step in a list of testcase results. ">
<polygon fill="white" stroke="black" points="364,-49 364,-79 464,-79 464,-49 364,-49"/>
<text text-anchor="start" x="372" y="-67" font-family="Helvetica,sans-Serif" font-size="10.00">calibration::Boxplot</text>
<text text-anchor="middle" x="414" y="-56" font-family="Helvetica,sans-Serif" font-size="10.00">::Calculate</text>
</a>
</g>
</g>
<!-- Node2&#45;&gt;Node3 -->
<g id="edge2" class="edge"><title>Node2&#45;&gt;Node3</title>
<path fill="none" stroke="midnightblue" d="M285.532,-64C306.738,-64 331.553,-64 353.624,-64"/>
<polygon fill="midnightblue" stroke="midnightblue" points="353.879,-67.5001 363.878,-64 353.878,-60.5001 353.879,-67.5001"/>
</g>
<!-- Node5 -->
<g id="node5" class="node"><title>Node5</title>
<g id="a_node5"><a xlink:href="../../dd/dad/a00005.html#a9089af8bf6151c4476cc8faa7d9de52c" target="_top" xlink:title="Generate the actual plots. ">
<polygon fill="white" stroke="black" points="342.5,-0 342.5,-30 485.5,-30 485.5,-0 342.5,-0"/>
<text text-anchor="start" x="350.5" y="-18" font-family="Helvetica,sans-Serif" font-size="10.00">calibration::BoxplotGenerator</text>
<text text-anchor="middle" x="414" y="-7" font-family="Helvetica,sans-Serif" font-size="10.00">::GeneratePlots</text>
</a>
</g>
</g>
<!-- Node4&#45;&gt;Node5 -->
<g id="edge4" class="edge"><title>Node4&#45;&gt;Node5</title>
<path fill="none" stroke="midnightblue" d="M305.606,-15C314.421,-15 323.488,-15 332.441,-15"/>
<polygon fill="midnightblue" stroke="midnightblue" points="332.479,-18.5001 342.479,-15 332.479,-11.5001 332.479,-18.5001"/>
</g>
<!-- Node6 -->
<g id="node6" class="node"><title>Node6</title>
<g id="a_node6"><a xlink:href="../../dd/d63/a00455.html#ac1b3f16cd4479b750a5295e835beed3f" target="_top" xlink:title="gengeopop::kd::Median">
<polygon fill="white" stroke="black" points="522,-5.5 522,-24.5 640,-24.5 640,-5.5 522,-5.5"/>
<text text-anchor="middle" x="581" y="-12.5" font-family="Helvetica,sans-Serif" font-size="10.00">gengeopop::kd::Median</text>
</a>
</g>
</g>
<!-- Node5&#45;&gt;Node6 -->
<g id="edge5" class="edge"><title>Node5&#45;&gt;Node6</title>
<path fill="none" stroke="midnightblue" d="M485.932,-15C494.44,-15 503.114,-15 511.585,-15"/>
<polygon fill="midnightblue" stroke="midnightblue" points="511.791,-18.5001 521.791,-15 511.791,-11.5001 511.791,-18.5001"/>
</g>
</g>
</svg>
