<?xml version="1.0" encoding="UTF-8" standalone="no"?>
<!DOCTYPE svg PUBLIC "-//W3C//DTD SVG 1.1//EN"
 "http://www.w3.org/Graphics/SVG/1.1/DTD/svg11.dtd">
<!-- Generated by graphviz version 2.36.0 (20140111.2315)
 -->
<!-- Title: calibration::CalibrationRunner::WriteResults Pages: 1 -->
<svg width="564pt" height="126pt"
 viewBox="0.00 0.00 564.00 126.00" xmlns="http://www.w3.org/2000/svg" xmlns:xlink="http://www.w3.org/1999/xlink">
<g id="graph0" class="graph" transform="scale(1 1) rotate(0) translate(4 122)">
<title>calibration::CalibrationRunner::WriteResults</title>
<polygon fill="white" stroke="none" points="-4,4 -4,-122 560,-122 560,4 -4,4"/>
<!-- Node1 -->
<g id="node1" class="node"><title>Node1</title>
<polygon fill="#bfbfbf" stroke="black" points="0.5,-44 0.5,-74 113.5,-74 113.5,-44 0.5,-44"/>
<text text-anchor="start" x="8.5" y="-62" font-family="Helvetica,sans-Serif" font-size="10.00">calibration::Calibration</text>
<text text-anchor="middle" x="57" y="-51" font-family="Helvetica,sans-Serif" font-size="10.00">Runner::WriteResults</text>
</g>
<!-- Node2 -->
<g id="node2" class="node"><title>Node2</title>
<g id="a_node2"><a xlink:href="../../de/d5e/a00007.html#af8b178d65d86a347c098be6cc9f031cc" target="_top" xlink:title="Write the mean and standard deviation for each step in the results obtained by RunMultiple to a file...">
<polygon fill="white" stroke="black" points="150.5,-88 150.5,-118 263.5,-118 263.5,-88 150.5,-88"/>
<text text-anchor="start" x="158.5" y="-106" font-family="Helvetica,sans-Serif" font-size="10.00">calibration::Calibrator</text>
<text text-anchor="middle" x="207" y="-95" font-family="Helvetica,sans-Serif" font-size="10.00">::WriteMultipleResults</text>
</a>
</g>
</g>
<!-- Node1&#45;&gt;Node2 -->
<g id="edge1" class="edge"><title>Node1&#45;&gt;Node2</title>
<path fill="none" stroke="midnightblue" d="M108.519,-74.0192C120.479,-77.5748 133.351,-81.4018 145.697,-85.0721"/>
<polygon fill="midnightblue" stroke="midnightblue" points="144.875,-88.4789 155.457,-87.9738 146.869,-81.7691 144.875,-88.4789"/>
</g>
<!-- Node3 -->
<g id="node3" class="node"><title>Node3</title>
<g id="a_node3"><a xlink:href="../../de/d5e/a00007.html#ab944c0ca970d0cbe6f0edb885fd47aa0" target="_top" xlink:title="Combines the content of the two other write functions. ">
<polygon fill="white" stroke="black" points="300.5,-44 300.5,-74 409.5,-74 409.5,-44 300.5,-44"/>
<text text-anchor="start" x="308.5" y="-62" font-family="Helvetica,sans-Serif" font-size="10.00">calibration::Calibrator</text>
<text text-anchor="middle" x="355" y="-51" font-family="Helvetica,sans-Serif" font-size="10.00">::WriteResults</text>
</a>
</g>
</g>
<!-- Node1&#45;&gt;Node3 -->
<g id="edge4" class="edge"><title>Node1&#45;&gt;Node3</title>
<path fill="none" stroke="midnightblue" d="M113.675,-59C163.759,-59 237.328,-59 289.859,-59"/>
<polygon fill="midnightblue" stroke="midnightblue" points="290.072,-62.5001 300.072,-59 290.072,-55.5001 290.072,-62.5001"/>
</g>
<!-- Node5 -->
<g id="node5" class="node"><title>Node5</title>
<g id="a_node5"><a xlink:href="../../de/d5e/a00007.html#a046ac3c5adc99f520480f49480ef0d86" target="_top" xlink:title="Write the exact results obtained by RunSingle to a file. ">
<polygon fill="white" stroke="black" points="152.5,-0 152.5,-30 261.5,-30 261.5,-0 152.5,-0"/>
<text text-anchor="start" x="160.5" y="-18" font-family="Helvetica,sans-Serif" font-size="10.00">calibration::Calibrator</text>
<text text-anchor="middle" x="207" y="-7" font-family="Helvetica,sans-Serif" font-size="10.00">::WriteSingleResults</text>
</a>
</g>
</g>
<!-- Node1&#45;&gt;Node5 -->
<g id="edge5" class="edge"><title>Node1&#45;&gt;Node5</title>
<path fill="none" stroke="midnightblue" d="M108.519,-43.9808C120.479,-40.4252 133.351,-36.5982 145.697,-32.9279"/>
<polygon fill="midnightblue" stroke="midnightblue" points="146.869,-36.2309 155.457,-30.0262 144.875,-29.5211 146.869,-36.2309"/>
</g>
<!-- Node2&#45;&gt;Node3 -->
<g id="edge2" class="edge"><title>Node2&#45;&gt;Node3</title>
<path fill="none" stroke="midnightblue" d="M257.837,-87.9808C269.569,-84.4448 282.193,-80.6405 294.31,-76.9888"/>
<polygon fill="midnightblue" stroke="midnightblue" points="295.328,-80.3376 303.892,-74.1009 293.308,-73.6354 295.328,-80.3376"/>
</g>
<!-- Node4 -->
<g id="node4" class="node"><title>Node4</title>
<g id="a_node4"><a xlink:href="../../de/d5e/a00007.html#acffd4064a0ca1fe9e249167bb0acbcec" target="_top" xlink:title="Compute the mean and standard deviation of the given numbers and return (mean, stdev). ">
<polygon fill="white" stroke="black" points="446.5,-44 446.5,-74 555.5,-74 555.5,-44 446.5,-44"/>
<text text-anchor="start" x="454.5" y="-62" font-family="Helvetica,sans-Serif" font-size="10.00">calibration::Calibrator</text>
<text text-anchor="middle" x="501" y="-51" font-family="Helvetica,sans-Serif" font-size="10.00">::FindMeanStdev</text>
</a>
</g>
</g>
<!-- Node3&#45;&gt;Node4 -->
<g id="edge3" class="edge"><title>Node3&#45;&gt;Node4</title>
<path fill="none" stroke="midnightblue" d="M409.62,-59C418.241,-59 427.239,-59 436.073,-59"/>
<polygon fill="midnightblue" stroke="midnightblue" points="436.335,-62.5001 446.335,-59 436.335,-55.5001 436.335,-62.5001"/>
</g>
<!-- Node5&#45;&gt;Node3 -->
<g id="edge6" class="edge"><title>Node5&#45;&gt;Node3</title>
<path fill="none" stroke="midnightblue" d="M257.837,-30.0192C269.569,-33.5552 282.193,-37.3595 294.31,-41.0112"/>
<polygon fill="midnightblue" stroke="midnightblue" points="293.308,-44.3646 303.892,-43.8991 295.328,-37.6624 293.308,-44.3646"/>
</g>
</g>
</svg>
