<?xml version="1.0" encoding="UTF-8" standalone="no"?>
<!DOCTYPE svg PUBLIC "-//W3C//DTD SVG 1.1//EN"
 "http://www.w3.org/Graphics/SVG/1.1/DTD/svg11.dtd">
<!-- Generated by graphviz version 2.36.0 (20140111.2315)
 -->
<!-- Title: calibration::CalibrationRunner::Run Pages: 1 -->
<svg width="738pt" height="209pt"
 viewBox="0.00 0.00 738.00 209.00" xmlns="http://www.w3.org/2000/svg" xmlns:xlink="http://www.w3.org/1999/xlink">
<g id="graph0" class="graph" transform="scale(1 1) rotate(0) translate(4 205)">
<title>calibration::CalibrationRunner::Run</title>
<polygon fill="white" stroke="none" points="-4,4 -4,-205 734,-205 734,4 -4,4"/>
<!-- Node1 -->
<g id="node1" class="node"><title>Node1</title>
<polygon fill="#bfbfbf" stroke="black" points="0.5,-97 0.5,-127 113.5,-127 113.5,-97 0.5,-97"/>
<text text-anchor="start" x="8.5" y="-115" font-family="Helvetica,sans-Serif" font-size="10.00">calibration::Calibration</text>
<text text-anchor="middle" x="57" y="-104" font-family="Helvetica,sans-Serif" font-size="10.00">Runner::Run</text>
</g>
<!-- Node2 -->
<g id="node2" class="node"><title>Node2</title>
<g id="a_node2"><a xlink:href="../../de/d5e/a00007.html#a411d0e7a89bbfa60244f9c09e4d5f24d" target="_top" xlink:title="Print the mean and standard deviation for the last step in the results obtained by RunMultiple to the...">
<polygon fill="white" stroke="black" points="150,-171 150,-201 260,-201 260,-171 150,-171"/>
<text text-anchor="start" x="158" y="-189" font-family="Helvetica,sans-Serif" font-size="10.00">calibration::Calibrator</text>
<text text-anchor="middle" x="205" y="-178" font-family="Helvetica,sans-Serif" font-size="10.00">::PrintMultipleResults</text>
</a>
</g>
</g>
<!-- Node1&#45;&gt;Node2 -->
<g id="edge1" class="edge"><title>Node1&#45;&gt;Node2</title>
<path fill="none" stroke="midnightblue" d="M85.5697,-127.201C103.737,-137.09 128.125,-150.122 150,-161 153.746,-162.863 157.659,-164.762 161.591,-166.64"/>
<polygon fill="midnightblue" stroke="midnightblue" points="160.196,-169.852 170.734,-170.953 163.183,-163.521 160.196,-169.852"/>
</g>
<!-- Node5 -->
<g id="node5" class="node"><title>Node5</title>
<g id="a_node5"><a xlink:href="../../de/d5e/a00007.html#a59b412664cfb379fde0037473c6eddd8" target="_top" xlink:title="Print the exact results obtained at the last step by RunSingle to the Logger. ">
<polygon fill="white" stroke="black" points="150.5,-122 150.5,-152 259.5,-152 259.5,-122 150.5,-122"/>
<text text-anchor="start" x="158.5" y="-140" font-family="Helvetica,sans-Serif" font-size="10.00">calibration::Calibrator</text>
<text text-anchor="middle" x="205" y="-129" font-family="Helvetica,sans-Serif" font-size="10.00">::PrintSingleResults</text>
</a>
</g>
</g>
<!-- Node1&#45;&gt;Node5 -->
<g id="edge4" class="edge"><title>Node1&#45;&gt;Node5</title>
<path fill="none" stroke="midnightblue" d="M113.613,-121.523C122.395,-123.027 131.534,-124.591 140.48,-126.123"/>
<polygon fill="midnightblue" stroke="midnightblue" points="140.022,-129.596 150.469,-127.834 141.203,-122.696 140.022,-129.596"/>
</g>
<!-- Node6 -->
<g id="node6" class="node"><title>Node6</title>
<g id="a_node6"><a xlink:href="../../de/d5e/a00007.html#a26ee572195c295b6735b370ca3dab8b0" target="_top" xlink:title="Run count simulations for each config by varying the seed and return the infected counts after each t...">
<polygon fill="white" stroke="black" points="150.5,-73 150.5,-103 259.5,-103 259.5,-73 150.5,-73"/>
<text text-anchor="start" x="158.5" y="-91" font-family="Helvetica,sans-Serif" font-size="10.00">calibration::Calibrator</text>
<text text-anchor="middle" x="205" y="-80" font-family="Helvetica,sans-Serif" font-size="10.00">::RunMultiple</text>
</a>
</g>
</g>
<!-- Node1&#45;&gt;Node6 -->
<g id="edge5" class="edge"><title>Node1&#45;&gt;Node6</title>
<path fill="none" stroke="midnightblue" d="M113.613,-102.858C122.395,-101.414 131.534,-99.9122 140.48,-98.4416"/>
<polygon fill="midnightblue" stroke="midnightblue" points="141.169,-101.875 150.469,-96.7996 140.034,-94.9681 141.169,-101.875"/>
</g>
<!-- Node13 -->
<g id="node13" class="node"><title>Node13</title>
<g id="a_node13"><a xlink:href="../../de/d5e/a00007.html#a83f2d479f8ff86e01a3d1f2c2aeadb39" target="_top" xlink:title="Run one simulation for each config and return the infected counts after each timestep. ">
<polygon fill="white" stroke="black" points="150.5,-24 150.5,-54 259.5,-54 259.5,-24 150.5,-24"/>
<text text-anchor="start" x="158.5" y="-42" font-family="Helvetica,sans-Serif" font-size="10.00">calibration::Calibrator</text>
<text text-anchor="middle" x="205" y="-31" font-family="Helvetica,sans-Serif" font-size="10.00">::RunSingle</text>
</a>
</g>
</g>
<!-- Node1&#45;&gt;Node13 -->
<g id="edge12" class="edge"><title>Node1&#45;&gt;Node13</title>
<path fill="none" stroke="midnightblue" d="M85.112,-96.906C103.298,-86.9441 127.88,-73.7893 150,-63 153.282,-61.3991 156.695,-59.7795 160.14,-58.1772"/>
<polygon fill="midnightblue" stroke="midnightblue" points="161.627,-61.346 169.262,-54.0013 158.713,-54.9812 161.627,-61.346"/>
</g>
<!-- Node3 -->
<g id="node3" class="node"><title>Node3</title>
<g id="a_node3"><a xlink:href="../../de/d5e/a00007.html#a6051757f0d88bc0b388bff42f5c25869" target="_top" xlink:title="Print the mean and standard deviation of the given numbers, name and step. ">
<polygon fill="white" stroke="black" points="302.5,-171 302.5,-201 411.5,-201 411.5,-171 302.5,-171"/>
<text text-anchor="start" x="310.5" y="-189" font-family="Helvetica,sans-Serif" font-size="10.00">calibration::Calibrator</text>
<text text-anchor="middle" x="357" y="-178" font-family="Helvetica,sans-Serif" font-size="10.00">::PrintStep</text>
</a>
</g>
</g>
<!-- Node2&#45;&gt;Node3 -->
<g id="edge2" class="edge"><title>Node2&#45;&gt;Node3</title>
<path fill="none" stroke="midnightblue" d="M260.153,-186C270.583,-186 281.596,-186 292.296,-186"/>
<polygon fill="midnightblue" stroke="midnightblue" points="292.429,-189.5 302.429,-186 292.429,-182.5 292.429,-189.5"/>
</g>
<!-- Node4 -->
<g id="node4" class="node"><title>Node4</title>
<g id="a_node4"><a xlink:href="../../de/d5e/a00007.html#acffd4064a0ca1fe9e249167bb0acbcec" target="_top" xlink:title="Compute the mean and standard deviation of the given numbers and return (mean, stdev). ">
<polygon fill="white" stroke="black" points="458.5,-171 458.5,-201 567.5,-201 567.5,-171 458.5,-171"/>
<text text-anchor="start" x="466.5" y="-189" font-family="Helvetica,sans-Serif" font-size="10.00">calibration::Calibrator</text>
<text text-anchor="middle" x="513" y="-178" font-family="Helvetica,sans-Serif" font-size="10.00">::FindMeanStdev</text>
</a>
</g>
</g>
<!-- Node3&#45;&gt;Node4 -->
<g id="edge3" class="edge"><title>Node3&#45;&gt;Node4</title>
<path fill="none" stroke="midnightblue" d="M411.862,-186C423.652,-186 436.241,-186 448.373,-186"/>
<polygon fill="midnightblue" stroke="midnightblue" points="448.429,-189.5 458.429,-186 448.429,-182.5 448.429,-189.5"/>
</g>
<!-- Node7 -->
<g id="node7" class="node"><title>Node7</title>
<g id="a_node7"><a xlink:href="../../de/d5e/a00007.html#a89dcd5e99936c5704336e7e52b72da55" target="_top" xlink:title="calibration::Calibrator\l::CreateRNManager">
<polygon fill="white" stroke="black" points="302.5,-98 302.5,-128 411.5,-128 411.5,-98 302.5,-98"/>
<text text-anchor="start" x="310.5" y="-116" font-family="Helvetica,sans-Serif" font-size="10.00">calibration::Calibrator</text>
<text text-anchor="middle" x="357" y="-105" font-family="Helvetica,sans-Serif" font-size="10.00">::CreateRNManager</text>
</a>
</g>
</g>
<!-- Node6&#45;&gt;Node7 -->
<g id="edge6" class="edge"><title>Node6&#45;&gt;Node7</title>
<path fill="none" stroke="midnightblue" d="M259.73,-96.955C270.349,-98.7249 281.589,-100.598 292.497,-102.416"/>
<polygon fill="midnightblue" stroke="midnightblue" points="291.954,-105.874 302.393,-104.066 293.105,-98.9691 291.954,-105.874"/>
</g>
<!-- Node11 -->
<g id="node11" class="node"><title>Node11</title>
<g id="a_node11"><a xlink:href="../../d2/df5/a00137.html#a7cfcedae698db0dc471770044de4834d" target="_top" xlink:title="Create an empty Population with NoBelief policy, used in gengeopop. ">
<polygon fill="white" stroke="black" points="311,-49 311,-79 403,-79 403,-49 311,-49"/>
<text text-anchor="start" x="319" y="-67" font-family="Helvetica,sans-Serif" font-size="10.00">stride::Population</text>
<text text-anchor="middle" x="357" y="-56" font-family="Helvetica,sans-Serif" font-size="10.00">::Create</text>
</a>
</g>
</g>
<!-- Node6&#45;&gt;Node11 -->
<g id="edge10" class="edge"><title>Node6&#45;&gt;Node11</title>
<path fill="none" stroke="midnightblue" d="M259.73,-79.4032C272.994,-77.281 287.225,-75.004 300.568,-72.8692"/>
<polygon fill="midnightblue" stroke="midnightblue" points="301.246,-76.3053 310.567,-71.2692 300.14,-69.3932 301.246,-76.3053"/>
</g>
<!-- Node12 -->
<g id="node12" class="node"><title>Node12</title>
<g id="a_node12"><a xlink:href="../../d7/d3f/a00173.html#ac539c7549cc8c19530813f0bdb35a14d" target="_top" xlink:title="Let viewer perform update. ">
<polygon fill="white" stroke="black" points="296,-0 296,-30 418,-30 418,-0 296,-0"/>
<text text-anchor="start" x="304" y="-18" font-family="Helvetica,sans-Serif" font-size="10.00">stride::viewers::Infected</text>
<text text-anchor="middle" x="357" y="-7" font-family="Helvetica,sans-Serif" font-size="10.00">Viewer::Update</text>
</a>
</g>
</g>
<!-- Node6&#45;&gt;Node12 -->
<g id="edge11" class="edge"><title>Node6&#45;&gt;Node12</title>
<path fill="none" stroke="midnightblue" d="M240.679,-72.9111C247.189,-69.8081 253.872,-66.4343 260,-63 276.775,-53.5993 278.981,-47.9523 296,-39 299.123,-37.3572 302.384,-35.7558 305.703,-34.2104"/>
<polygon fill="midnightblue" stroke="midnightblue" points="307.423,-37.276 315.139,-30.0156 304.58,-30.8795 307.423,-37.276"/>
</g>
<!-- Node8 -->
<g id="node8" class="node"><title>Node8</title>
<g id="a_node8"><a xlink:href="../../d6/d7d/a00161.html#a8c78f40f38b8a3fc25e2c21be2de505a" target="_top" xlink:title="Initalize with data in Info. ">
<polygon fill="white" stroke="black" points="454,-98 454,-128 572,-128 572,-98 454,-98"/>
<text text-anchor="start" x="462" y="-116" font-family="Helvetica,sans-Serif" font-size="10.00">stride::util::RNManager</text>
<text text-anchor="middle" x="513" y="-105" font-family="Helvetica,sans-Serif" font-size="10.00">::Initialize</text>
</a>
</g>
</g>
<!-- Node7&#45;&gt;Node8 -->
<g id="edge7" class="edge"><title>Node7&#45;&gt;Node8</title>
<path fill="none" stroke="midnightblue" d="M411.862,-113C422.181,-113 433.112,-113 443.813,-113"/>
<polygon fill="midnightblue" stroke="midnightblue" points="443.975,-116.5 453.975,-113 443.975,-109.5 443.975,-116.5"/>
</g>
<!-- Node9 -->
<g id="node9" class="node"><title>Node9</title>
<g id="a_node9"><a xlink:href="../../d9/d34/a00476.html#af529300a78547c29c95b81ad8ac62afe" target="_top" xlink:title="Converts a string with name to Id. ">
<polygon fill="white" stroke="black" points="608,-120 608,-150 730,-150 730,-120 608,-120"/>
<text text-anchor="start" x="616" y="-138" font-family="Helvetica,sans-Serif" font-size="10.00">stride::ContactPoolType</text>
<text text-anchor="middle" x="669" y="-127" font-family="Helvetica,sans-Serif" font-size="10.00">::ToType</text>
</a>
</g>
</g>
<!-- Node8&#45;&gt;Node9 -->
<g id="edge8" class="edge"><title>Node8&#45;&gt;Node9</title>
<path fill="none" stroke="midnightblue" d="M572.221,-121.317C580.608,-122.515 589.312,-123.759 597.9,-124.986"/>
<polygon fill="midnightblue" stroke="midnightblue" points="597.509,-128.465 607.903,-126.415 598.499,-121.536 597.509,-128.465"/>
</g>
<!-- Node10 -->
<g id="node10" class="node"><title>Node10</title>
<g id="a_node10"><a xlink:href="../../d3/d58/a00481.html#a0c42ba6e336bed67e5a0bdd053802c2a" target="_top" xlink:title="stride::util::para_seed">
<polygon fill="white" stroke="black" points="614,-81.5 614,-100.5 724,-100.5 724,-81.5 614,-81.5"/>
<text text-anchor="middle" x="669" y="-88.5" font-family="Helvetica,sans-Serif" font-size="10.00">stride::util::para_seed</text>
</a>
</g>
</g>
<!-- Node8&#45;&gt;Node10 -->
<g id="edge9" class="edge"><title>Node8&#45;&gt;Node10</title>
<path fill="none" stroke="midnightblue" d="M572.221,-104.683C582.548,-103.207 593.356,-101.663 603.837,-100.166"/>
<polygon fill="midnightblue" stroke="midnightblue" points="604.355,-103.628 613.76,-98.7486 603.365,-96.6981 604.355,-103.628"/>
</g>
<!-- Node13&#45;&gt;Node7 -->
<g id="edge13" class="edge"><title>Node13&#45;&gt;Node7</title>
<path fill="none" stroke="midnightblue" d="M242.482,-54.0841C248.431,-56.8641 254.457,-59.8804 260,-63 276.976,-72.5538 278.913,-78.6458 296,-88 299.519,-89.9263 303.217,-91.7996 306.977,-93.5976"/>
<polygon fill="midnightblue" stroke="midnightblue" points="305.835,-96.9237 316.385,-97.8989 308.745,-90.5576 305.835,-96.9237"/>
</g>
<!-- Node13&#45;&gt;Node11 -->
<g id="edge14" class="edge"><title>Node13&#45;&gt;Node11</title>
<path fill="none" stroke="midnightblue" d="M259.73,-47.955C272.994,-50.1656 287.225,-52.5375 300.568,-54.7613"/>
<polygon fill="midnightblue" stroke="midnightblue" points="300.128,-58.2362 310.567,-56.4279 301.279,-51.3314 300.128,-58.2362"/>
</g>
<!-- Node13&#45;&gt;Node12 -->
<g id="edge15" class="edge"><title>Node13&#45;&gt;Node12</title>
<path fill="none" stroke="midnightblue" d="M259.73,-30.4032C268.128,-29.0595 276.915,-27.6536 285.618,-26.2611"/>
<polygon fill="midnightblue" stroke="midnightblue" points="286.447,-29.6731 295.768,-24.6371 285.341,-22.761 286.447,-29.6731"/>
</g>
</g>
</svg>
