<?xml version="1.0" encoding="UTF-8" standalone="no"?>
<!DOCTYPE svg PUBLIC "-//W3C//DTD SVG 1.1//EN"
 "http://www.w3.org/Graphics/SVG/1.1/DTD/svg11.dtd">
<!-- Generated by graphviz version 2.36.0 (20140111.2315)
 -->
<!-- Title: stride::ContactPoolType::ToString Pages: 1 -->
<svg width="274pt" height="87pt"
 viewBox="0.00 0.00 274.00 87.00" xmlns="http://www.w3.org/2000/svg" xmlns:xlink="http://www.w3.org/1999/xlink">
<g id="graph0" class="graph" transform="scale(1 1) rotate(0) translate(4 83)">
<title>stride::ContactPoolType::ToString</title>
<polygon fill="white" stroke="none" points="-4,4 -4,-83 270,-83 270,4 -4,4"/>
<!-- Node1 -->
<g id="node1" class="node"><title>Node1</title>
<polygon fill="#bfbfbf" stroke="black" points="0,-24 0,-54 122,-54 122,-24 0,-24"/>
<text text-anchor="start" x="8" y="-42" font-family="Helvetica,sans-Serif" font-size="10.00">stride::ContactPoolType</text>
<text text-anchor="middle" x="61" y="-31" font-family="Helvetica,sans-Serif" font-size="10.00">::ToString</text>
</g>
<!-- Node2 -->
<g id="node2" class="node"><title>Node2</title>
<g id="a_node2"><a xlink:href="../../db/d48/a00148.html#ae00519895ddcbbe9a683856d8bdd0ab4" target="_top" xlink:title="Returns the travels at the given day. ">
<polygon fill="white" stroke="black" points="158,-49 158,-79 266,-79 266,-49 158,-49"/>
<text text-anchor="start" x="166" y="-67" font-family="Helvetica,sans-Serif" font-size="10.00">stride::TravellerIndex</text>
<text text-anchor="middle" x="212" y="-56" font-family="Helvetica,sans-Serif" font-size="10.00">::ReturnTravelers</text>
</a>
</g>
</g>
<!-- Node1&#45;&gt;Node2 -->
<g id="edge1" class="edge"><title>Node1&#45;&gt;Node2</title>
<path fill="none" stroke="midnightblue" d="M132.215,-50.781C140.821,-52.2249 149.503,-53.6817 157.801,-55.074"/>
<polygon fill="midnightblue" stroke="midnightblue" points="132.616,-47.2994 122.175,-49.0964 131.457,-54.203 132.616,-47.2994"/>
</g>
<!-- Node3 -->
<g id="node3" class="node"><title>Node3</title>
<g id="a_node3"><a xlink:href="../../db/d48/a00148.html#a2a3ea8982180232be8593d7fdcf80f37" target="_top" xlink:title="Stores the information when the travel is started. ">
<polygon fill="white" stroke="black" points="158,-0 158,-30 266,-30 266,-0 158,-0"/>
<text text-anchor="start" x="166" y="-18" font-family="Helvetica,sans-Serif" font-size="10.00">stride::TravellerIndex</text>
<text text-anchor="middle" x="212" y="-7" font-family="Helvetica,sans-Serif" font-size="10.00">::StartTravel</text>
</a>
</g>
</g>
<!-- Node1&#45;&gt;Node3 -->
<g id="edge2" class="edge"><title>Node1&#45;&gt;Node3</title>
<path fill="none" stroke="midnightblue" d="M132.215,-27.6903C140.821,-26.3041 149.503,-24.9055 157.801,-23.569"/>
<polygon fill="midnightblue" stroke="midnightblue" points="131.491,-24.2617 122.175,-29.3075 132.604,-31.1726 131.491,-24.2617"/>
</g>
</g>
</svg>
