<?xml version="1.0" encoding="UTF-8" standalone="no"?>
<!DOCTYPE svg PUBLIC "-//W3C//DTD SVG 1.1//EN"
 "http://www.w3.org/Graphics/SVG/1.1/DTD/svg11.dtd">
<!-- Generated by graphviz version 2.36.0 (20140111.2315)
 -->
<!-- Title: stride::viewers::CliViewer Pages: 1 -->
<svg width="221pt" height="196pt"
 viewBox="0.00 0.00 221.00 196.00" xmlns="http://www.w3.org/2000/svg" xmlns:xlink="http://www.w3.org/1999/xlink">
<g id="graph0" class="graph" transform="scale(1 1) rotate(0) translate(4 192)">
<title>stride::viewers::CliViewer</title>
<polygon fill="white" stroke="none" points="-4,4 -4,-192 217,-192 217,4 -4,4"/>
<!-- Node1 -->
<g id="node1" class="node"><title>Node1</title>
<polygon fill="#bfbfbf" stroke="black" points="44,-1 44,-69 172,-69 172,-1 44,-1"/>
<text text-anchor="middle" x="108" y="-57" font-family="Helvetica,sans-Serif" font-size="10.00">stride::viewers::CliViewer</text>
<polyline fill="none" stroke="black" points="44,-50 172,-50 "/>
<text text-anchor="middle" x="108" y="-38" font-family="Helvetica,sans-Serif" font-size="10.00"> </text>
<polyline fill="none" stroke="black" points="44,-31 172,-31 "/>
<text text-anchor="start" x="52" y="-19" font-family="Helvetica,sans-Serif" font-size="10.00">+ CliViewer()</text>
<text text-anchor="start" x="52" y="-8" font-family="Helvetica,sans-Serif" font-size="10.00">+ Update()</text>
</g>
<!-- Node2 -->
<g id="node2" class="node"><title>Node2</title>
<polygon fill="white" stroke="#bfbfbf" points="0,-119 0,-187 100,-187 100,-119 0,-119"/>
<text text-anchor="start" x="8" y="-175" font-family="Helvetica,sans-Serif" font-size="10.00">shared_ptr&lt; spdlog</text>
<text text-anchor="middle" x="50" y="-164" font-family="Helvetica,sans-Serif" font-size="10.00">::logger &gt;</text>
<polyline fill="none" stroke="#bfbfbf" points="0,-157 100,-157 "/>
<text text-anchor="middle" x="50" y="-145" font-family="Helvetica,sans-Serif" font-size="10.00"> </text>
<polyline fill="none" stroke="#bfbfbf" points="0,-138 100,-138 "/>
<text text-anchor="middle" x="50" y="-126" font-family="Helvetica,sans-Serif" font-size="10.00"> </text>
</g>
<!-- Node2&#45;&gt;Node1 -->
<g id="edge1" class="edge"><title>Node2&#45;&gt;Node1</title>
<path fill="none" stroke="#404040" d="M66.6205,-118.759C72.627,-106.746 79.5059,-92.9883 85.9078,-80.1844"/>
<polygon fill="none" stroke="#404040" points="86.0105,-79.9789 85.1161,-72.8235 91.3771,-69.2458 92.2715,-76.4012 86.0105,-79.9789"/>
<text text-anchor="middle" x="104" y="-91.5" font-family="Helvetica,sans-Serif" font-size="10.00"> &#45;m_logger</text>
</g>
<!-- Node3 -->
<g id="node3" class="node"><title>Node3</title>
<polygon fill="white" stroke="#bfbfbf" points="118.5,-119 118.5,-187 213.5,-187 213.5,-119 118.5,-119"/>
<text text-anchor="start" x="126.5" y="-175" font-family="Helvetica,sans-Serif" font-size="10.00">shared_ptr&lt; stride</text>
<text text-anchor="middle" x="166" y="-164" font-family="Helvetica,sans-Serif" font-size="10.00">::SimRunner &gt;</text>
<polyline fill="none" stroke="#bfbfbf" points="118.5,-157 213.5,-157 "/>
<text text-anchor="middle" x="166" y="-145" font-family="Helvetica,sans-Serif" font-size="10.00"> </text>
<polyline fill="none" stroke="#bfbfbf" points="118.5,-138 213.5,-138 "/>
<text text-anchor="middle" x="166" y="-126" font-family="Helvetica,sans-Serif" font-size="10.00"> </text>
</g>
<!-- Node3&#45;&gt;Node1 -->
<g id="edge2" class="edge"><title>Node3&#45;&gt;Node1</title>
<path fill="none" stroke="#404040" d="M149.38,-118.759C143.373,-106.746 136.494,-92.9883 130.092,-80.1844"/>
<polygon fill="none" stroke="#404040" points="129.99,-79.9789 123.728,-76.4012 124.623,-69.2458 130.884,-72.8235 129.99,-79.9789"/>
<text text-anchor="middle" x="162.5" y="-91.5" font-family="Helvetica,sans-Serif" font-size="10.00"> &#45;m_runner</text>
</g>
</g>
</svg>
