<?xml version="1.0" encoding="UTF-8" standalone="no"?>
<!DOCTYPE svg PUBLIC "-//W3C//DTD SVG 1.1//EN"
 "http://www.w3.org/Graphics/SVG/1.1/DTD/svg11.dtd">
<!-- Generated by graphviz version 2.36.0 (20140111.2315)
 -->
<!-- Title: LogUtils.cpp Pages: 1 -->
<svg width="363pt" height="140pt"
 viewBox="0.00 0.00 363.00 140.00" xmlns="http://www.w3.org/2000/svg" xmlns:xlink="http://www.w3.org/1999/xlink">
<g id="graph0" class="graph" transform="scale(1 1) rotate(0) translate(4 136)">
<title>LogUtils.cpp</title>
<polygon fill="white" stroke="none" points="-4,4 -4,-136 359,-136 359,4 -4,4"/>
<!-- Node1 -->
<g id="node1" class="node"><title>Node1</title>
<polygon fill="#bfbfbf" stroke="black" points="153.5,-112.5 153.5,-131.5 224.5,-131.5 224.5,-112.5 153.5,-112.5"/>
<text text-anchor="middle" x="189" y="-119.5" font-family="Helvetica,sans-Serif" font-size="10.00">LogUtils.cpp</text>
</g>
<!-- Node2 -->
<g id="node2" class="node"><title>Node2</title>
<g id="a_node2"><a xlink:href="../../d2/daf/a00346.html" target="_top" xlink:title="Logging (spdlog) utilities. ">
<polygon fill="white" stroke="black" points="82.5,-56.5 82.5,-75.5 143.5,-75.5 143.5,-56.5 82.5,-56.5"/>
<text text-anchor="middle" x="113" y="-63.5" font-family="Helvetica,sans-Serif" font-size="10.00">LogUtils.h</text>
</a>
</g>
</g>
<!-- Node1&#45;&gt;Node2 -->
<g id="edge1" class="edge"><title>Node1&#45;&gt;Node2</title>
<path fill="none" stroke="midnightblue" d="M176.789,-112.324C165.224,-104.107 147.625,-91.6017 133.839,-81.8069"/>
<polygon fill="midnightblue" stroke="midnightblue" points="135.612,-78.7729 125.433,-75.8339 131.557,-84.4791 135.612,-78.7729"/>
</g>
<!-- Node6 -->
<g id="node6" class="node"><title>Node6</title>
<polygon fill="white" stroke="#bfbfbf" points="162,-56.5 162,-75.5 216,-75.5 216,-56.5 162,-56.5"/>
<text text-anchor="middle" x="189" y="-63.5" font-family="Helvetica,sans-Serif" font-size="10.00">iostream</text>
</g>
<!-- Node1&#45;&gt;Node6 -->
<g id="edge5" class="edge"><title>Node1&#45;&gt;Node6</title>
<path fill="none" stroke="midnightblue" d="M189,-112.083C189,-105.006 189,-94.8611 189,-85.9865"/>
<polygon fill="midnightblue" stroke="midnightblue" points="192.5,-85.751 189,-75.7511 185.5,-85.7511 192.5,-85.751"/>
</g>
<!-- Node7 -->
<g id="node7" class="node"><title>Node7</title>
<polygon fill="white" stroke="#bfbfbf" points="234.5,-56.5 234.5,-75.5 355.5,-75.5 355.5,-56.5 234.5,-56.5"/>
<text text-anchor="middle" x="295" y="-63.5" font-family="Helvetica,sans-Serif" font-size="10.00">spdlog/sinks/null_sink.h</text>
</g>
<!-- Node1&#45;&gt;Node7 -->
<g id="edge6" class="edge"><title>Node1&#45;&gt;Node7</title>
<path fill="none" stroke="midnightblue" d="M206.031,-112.324C223.03,-103.664 249.376,-90.2424 268.993,-80.249"/>
<polygon fill="midnightblue" stroke="midnightblue" points="270.69,-83.3125 278.012,-75.6545 267.512,-77.0752 270.69,-83.3125"/>
</g>
<!-- Node3 -->
<g id="node3" class="node"><title>Node3</title>
<polygon fill="white" stroke="#bfbfbf" points="0,-0.5 0,-19.5 52,-19.5 52,-0.5 0,-0.5"/>
<text text-anchor="middle" x="26" y="-7.5" font-family="Helvetica,sans-Serif" font-size="10.00">memory</text>
</g>
<!-- Node2&#45;&gt;Node3 -->
<g id="edge2" class="edge"><title>Node2&#45;&gt;Node3</title>
<path fill="none" stroke="midnightblue" d="M99.0219,-56.324C85.4504,-47.9002 64.6198,-34.9709 48.675,-25.0741"/>
<polygon fill="midnightblue" stroke="midnightblue" points="50.2856,-21.9544 39.9434,-19.6545 46.594,-27.9019 50.2856,-21.9544"/>
</g>
<!-- Node4 -->
<g id="node4" class="node"><title>Node4</title>
<polygon fill="white" stroke="#bfbfbf" points="70.5,-0.5 70.5,-19.5 155.5,-19.5 155.5,-0.5 70.5,-0.5"/>
<text text-anchor="middle" x="113" y="-7.5" font-family="Helvetica,sans-Serif" font-size="10.00">spdlog/spdlog.h</text>
</g>
<!-- Node2&#45;&gt;Node4 -->
<g id="edge3" class="edge"><title>Node2&#45;&gt;Node4</title>
<path fill="none" stroke="midnightblue" d="M113,-56.083C113,-49.0059 113,-38.8611 113,-29.9865"/>
<polygon fill="midnightblue" stroke="midnightblue" points="116.5,-29.751 113,-19.7511 109.5,-29.7511 116.5,-29.751"/>
</g>
<!-- Node5 -->
<g id="node5" class="node"><title>Node5</title>
<polygon fill="white" stroke="#bfbfbf" points="173.5,-0.5 173.5,-19.5 214.5,-19.5 214.5,-0.5 173.5,-0.5"/>
<text text-anchor="middle" x="194" y="-7.5" font-family="Helvetica,sans-Serif" font-size="10.00">string</text>
</g>
<!-- Node2&#45;&gt;Node5 -->
<g id="edge4" class="edge"><title>Node2&#45;&gt;Node5</title>
<path fill="none" stroke="midnightblue" d="M126.014,-56.324C138.532,-47.979 157.682,-35.2122 172.471,-25.3524"/>
<polygon fill="midnightblue" stroke="midnightblue" points="174.639,-28.1137 181.018,-19.6545 170.756,-22.2894 174.639,-28.1137"/>
</g>
</g>
</svg>
