<?xml version="1.0" encoding="UTF-8" standalone="no"?>
<!DOCTYPE svg PUBLIC "-//W3C//DTD SVG 1.1//EN"
 "http://www.w3.org/Graphics/SVG/1.1/DTD/svg11.dtd">
<!-- Generated by graphviz version 2.36.0 (20140111.2315)
 -->
<!-- Title: gengeopop::GeoGridGenerator Pages: 1 -->
<!--zoomable 690 -->
<svg id="main" version="1.1" xmlns="http://www.w3.org/2000/svg" xmlns:xlink="http://www.w3.org/1999/xlink" xml:space="preserve" onload="init(evt)">
<style type="text/css"><![CDATA[
.edge:hover path { stroke: red; }
.edge:hover polygon { stroke: red; fill: red; }
]]></style>
<script type="text/javascript"><![CDATA[
var edges = document.getElementsByTagName('g');
if (edges && edges.length) {
  for (var i=0;i<edges.length;i++) {
    if (edges[i].id.substr(0,4)=='edge') {
      edges[i].setAttribute('class','edge');
    }
  }
}
]]></script>
        <defs>
                <circle id="rim" cx="0" cy="0" r="7"/>
                <circle id="rim2" cx="0" cy="0" r="3.5"/>
                <g id="zoomPlus">
                        <use xlink:href="#rim" fill="#404040">
                                <set attributeName="fill" to="#808080" begin="zoomplus.mouseover" end="zoomplus.mouseout"/>
                        </use>
                        <path d="M-4,0h8M0,-4v8" fill="none" stroke="white" stroke-width="1.5" pointer-events="none"/>
                </g>
                <g id="zoomMin">
                        <use xlink:href="#rim" fill="#404040">
                                <set attributeName="fill" to="#808080" begin="zoomminus.mouseover" end="zoomminus.mouseout"/>
                        </use>
                        <path d="M-4,0h8" fill="none" stroke="white" stroke-width="1.5" pointer-events="none"/>
                </g>
                <g id="dirArrow">
                        <path fill="none" stroke="white" stroke-width="1.5" d="M0,-3.0v7 M-2.5,-0.5L0,-3.0L2.5,-0.5"/>
                </g>
               <g id="resetDef">
                       <use xlink:href="#rim2" fill="#404040">
                               <set attributeName="fill" to="#808080" begin="reset.mouseover" end="reset.mouseout"/>
                       </use>
               </g>
        </defs>

<script type="text/javascript">
var viewWidth = 779;
var viewHeight = 690;
var sectionId = 'dynsection-0';
</script>
<script xlink:href="../../svgpan.js"/>
<svg id="graph" class="graph">
<g id="viewport">
<title>gengeopop::GeoGridGenerator</title>
<polygon fill="white" stroke="none" points="-4,4 -4,-686 775,-686 775,4 -4,4"/>
<!-- Node1 -->
<g id="node1" class="node"><title>Node1</title>
<polygon fill="#bfbfbf" stroke="black" points="221.5,-1 221.5,-91 370.5,-91 370.5,-1 221.5,-1"/>
<text text-anchor="middle" x="296" y="-79" font-family="Helvetica,sans-Serif" font-size="10.00">gengeopop::GeoGridGenerator</text>
<polyline fill="none" stroke="black" points="221.5,-72 370.5,-72 "/>
<text text-anchor="middle" x="296" y="-60" font-family="Helvetica,sans-Serif" font-size="10.00"> </text>
<polyline fill="none" stroke="black" points="221.5,-53 370.5,-53 "/>
<text text-anchor="start" x="229.5" y="-41" font-family="Helvetica,sans-Serif" font-size="10.00">+ GeoGridGenerator()</text>
<text text-anchor="start" x="229.5" y="-30" font-family="Helvetica,sans-Serif" font-size="10.00">+ AddPartialGenerator()</text>
<text text-anchor="start" x="229.5" y="-19" font-family="Helvetica,sans-Serif" font-size="10.00">+ GenerateGeoGrid()</text>
<text text-anchor="start" x="229.5" y="-8" font-family="Helvetica,sans-Serif" font-size="10.00">+ GetGeoGrid()</text>
</g>
<!-- Node2 -->
<g id="node2" class="node"><title>Node2</title>
<polygon fill="white" stroke="#bfbfbf" points="0,-379 0,-447 184,-447 184,-379 0,-379"/>
<text text-anchor="start" x="8" y="-435" font-family="Helvetica,sans-Serif" font-size="10.00">std::vector&lt; std::shared</text>
<text text-anchor="middle" x="92" y="-424" font-family="Helvetica,sans-Serif" font-size="10.00">_ptr&lt; gengeopop::PartialGenerator &gt; &gt;</text>
<polyline fill="none" stroke="#bfbfbf" points="0,-417 184,-417 "/>
<text text-anchor="middle" x="92" y="-405" font-family="Helvetica,sans-Serif" font-size="10.00"> </text>
<polyline fill="none" stroke="#bfbfbf" points="0,-398 184,-398 "/>
<text text-anchor="middle" x="92" y="-386" font-family="Helvetica,sans-Serif" font-size="10.00"> </text>
</g>
<!-- Node2&#45;&gt;Node1 -->
<g id="edge1" class="edge"><title>Node2&#45;&gt;Node1</title>
<path fill="none" stroke="#404040" d="M86.2239,-378.722C78.5365,-323.104 71.6062,-210.435 126,-140 147.427,-112.255 179.576,-91.6879 210.17,-77.0526"/>
<polygon fill="none" stroke="#404040" points="210.44,-76.9287 214.227,-70.7917 221.348,-71.9267 217.561,-78.0636 210.44,-76.9287"/>
<text text-anchor="middle" x="173" y="-172.5" font-family="Helvetica,sans-Serif" font-size="10.00"> &#45;m_partialGenerators</text>
</g>
<!-- Node3 -->
<g id="node3" class="node"><title>Node3</title>
<polygon fill="white" stroke="#bfbfbf" points="32.5,-507 32.5,-575 151.5,-575 151.5,-507 32.5,-507"/>
<text text-anchor="start" x="40.5" y="-563" font-family="Helvetica,sans-Serif" font-size="10.00">shared_ptr&lt; gengeopop</text>
<text text-anchor="middle" x="92" y="-552" font-family="Helvetica,sans-Serif" font-size="10.00">::PartialGenerator &gt;</text>
<polyline fill="none" stroke="#bfbfbf" points="32.5,-545 151.5,-545 "/>
<text text-anchor="middle" x="92" y="-533" font-family="Helvetica,sans-Serif" font-size="10.00"> </text>
<polyline fill="none" stroke="#bfbfbf" points="32.5,-526 151.5,-526 "/>
<text text-anchor="middle" x="92" y="-514" font-family="Helvetica,sans-Serif" font-size="10.00"> </text>
</g>
<!-- Node3&#45;&gt;Node2 -->
<g id="edge2" class="edge"><title>Node3&#45;&gt;Node2</title>
<path fill="none" stroke="#404040" d="M92,-506.895C92,-492.397 92,-475.148 92,-459.473"/>
<polygon fill="none" stroke="#404040" points="92.0001,-459.321 88,-453.321 92,-447.321 96,-453.321 92.0001,-459.321"/>
<text text-anchor="middle" x="116.5" y="-474.5" font-family="Helvetica,sans-Serif" font-size="10.00"> +elements</text>
</g>
<!-- Node4 -->
<g id="node4" class="node"><title>Node4</title>
<g id="a_node4"><a xlink:title="STL class. ">
<polygon fill="white" stroke="#bfbfbf" points="242.5,-512.5 242.5,-569.5 329.5,-569.5 329.5,-512.5 242.5,-512.5"/>
<text text-anchor="middle" x="286" y="-557.5" font-family="Helvetica,sans-Serif" font-size="10.00">std::vector&lt; T &gt;</text>
<polyline fill="none" stroke="#bfbfbf" points="242.5,-550.5 329.5,-550.5 "/>
<text text-anchor="middle" x="286" y="-538.5" font-family="Helvetica,sans-Serif" font-size="10.00"> </text>
<polyline fill="none" stroke="#bfbfbf" points="242.5,-531.5 329.5,-531.5 "/>
<text text-anchor="middle" x="286" y="-519.5" font-family="Helvetica,sans-Serif" font-size="10.00"> </text>
</a>
</g>
</g>
<!-- Node4&#45;&gt;Node2 -->
<g id="edge3" class="edge"><title>Node4&#45;&gt;Node2</title>
<path fill="none" stroke="orange" d="M233.407,-512.502C219.716,-504.913 205.128,-496.436 192,-488 172.559,-475.506 151.899,-460.529 134.437,-447.327"/>
<polygon fill="orange" stroke="orange" points="231.799,-515.612 242.25,-517.352 235.165,-509.475 231.799,-515.612"/>
<text text-anchor="start" x="192" y="-480" font-family="Helvetica,sans-Serif" font-size="10.00"> &lt; std::shared_ptr&lt;</text>
<text text-anchor="middle" x="264.5" y="-469" font-family="Helvetica,sans-Serif" font-size="10.00"> gengeopop::PartialGenerator &gt; &gt;</text>
</g>
<!-- Node10 -->
<g id="node10" class="node"><title>Node10</title>
<polygon fill="white" stroke="#bfbfbf" points="428,-379 428,-447 588,-447 588,-379 428,-379"/>
<text text-anchor="start" x="436" y="-435" font-family="Helvetica,sans-Serif" font-size="10.00">std::vector&lt; std::shared</text>
<text text-anchor="middle" x="508" y="-424" font-family="Helvetica,sans-Serif" font-size="10.00">_ptr&lt; gengeopop::Household &gt; &gt;</text>
<polyline fill="none" stroke="#bfbfbf" points="428,-417 588,-417 "/>
<text text-anchor="middle" x="508" y="-405" font-family="Helvetica,sans-Serif" font-size="10.00"> </text>
<polyline fill="none" stroke="#bfbfbf" points="428,-398 588,-398 "/>
<text text-anchor="middle" x="508" y="-386" font-family="Helvetica,sans-Serif" font-size="10.00"> </text>
</g>
<!-- Node4&#45;&gt;Node10 -->
<g id="edge11" class="edge"><title>Node4&#45;&gt;Node10</title>
<path fill="none" stroke="orange" d="M325.771,-505.96C342.715,-492.459 363.13,-477.455 383,-466 397.05,-457.9 412.608,-450.389 427.839,-443.737"/>
<polygon fill="orange" stroke="orange" points="323.326,-503.436 317.749,-512.445 327.726,-508.88 323.326,-503.436"/>
<text text-anchor="start" x="383" y="-480" font-family="Helvetica,sans-Serif" font-size="10.00"> &lt; std::shared_ptr&lt;</text>
<text text-anchor="middle" x="443.5" y="-469" font-family="Helvetica,sans-Serif" font-size="10.00"> gengeopop::Household &gt; &gt;</text>
</g>
<!-- Node5 -->
<g id="node5" class="node"><title>Node5</title>
<polygon fill="white" stroke="#bfbfbf" points="271.5,-624.5 271.5,-681.5 300.5,-681.5 300.5,-624.5 271.5,-624.5"/>
<text text-anchor="middle" x="286" y="-669.5" font-family="Helvetica,sans-Serif" font-size="10.00">T</text>
<polyline fill="none" stroke="#bfbfbf" points="271.5,-662.5 300.5,-662.5 "/>
<text text-anchor="middle" x="286" y="-650.5" font-family="Helvetica,sans-Serif" font-size="10.00"> </text>
<polyline fill="none" stroke="#bfbfbf" points="271.5,-643.5 300.5,-643.5 "/>
<text text-anchor="middle" x="286" y="-631.5" font-family="Helvetica,sans-Serif" font-size="10.00"> </text>
</g>
<!-- Node5&#45;&gt;Node4 -->
<g id="edge4" class="edge"><title>Node5&#45;&gt;Node4</title>
<path fill="none" stroke="#404040" d="M286,-624.242C286,-611.475 286,-596.088 286,-582.094"/>
<polygon fill="none" stroke="#404040" points="286,-581.749 282,-575.749 286,-569.749 290,-575.749 286,-581.749"/>
<text text-anchor="middle" x="310.5" y="-597.5" font-family="Helvetica,sans-Serif" font-size="10.00"> +elements</text>
</g>
<!-- Node6 -->
<g id="node6" class="node"><title>Node6</title>
<polygon fill="white" stroke="#bfbfbf" points="381.5,-141 381.5,-209 500.5,-209 500.5,-141 381.5,-141"/>
<text text-anchor="start" x="389.5" y="-197" font-family="Helvetica,sans-Serif" font-size="10.00">shared_ptr&lt; gengeopop</text>
<text text-anchor="middle" x="441" y="-186" font-family="Helvetica,sans-Serif" font-size="10.00">::GeoGrid &gt;</text>
<polyline fill="none" stroke="#bfbfbf" points="381.5,-179 500.5,-179 "/>
<text text-anchor="middle" x="441" y="-167" font-family="Helvetica,sans-Serif" font-size="10.00"> </text>
<polyline fill="none" stroke="#bfbfbf" points="381.5,-160 500.5,-160 "/>
<text text-anchor="middle" x="441" y="-148" font-family="Helvetica,sans-Serif" font-size="10.00"> </text>
</g>
<!-- Node6&#45;&gt;Node1 -->
<g id="edge5" class="edge"><title>Node6&#45;&gt;Node1</title>
<path fill="none" stroke="#404040" d="M412.749,-140.919C403.362,-130.607 392.594,-119.464 382,-110 377.738,-106.193 373.254,-102.388 368.662,-98.6395"/>
<polygon fill="none" stroke="#404040" points="368.511,-98.5187 361.325,-97.9099 359.124,-91.043 366.309,-91.6519 368.511,-98.5187"/>
<text text-anchor="middle" x="422" y="-113.5" font-family="Helvetica,sans-Serif" font-size="10.00"> &#45;m_geoGrid</text>
</g>
<!-- Node7 -->
<g id="node7" class="node"><title>Node7</title>
<g id="a_node7"><a xlink:href="../../db/df3/a00034.html" target="_top" xlink:title="Configuration data when generating a GeoGrid. ">
<polygon fill="white" stroke="black" points="229,-141 229,-209 363,-209 363,-141 229,-141"/>
<text text-anchor="middle" x="296" y="-197" font-family="Helvetica,sans-Serif" font-size="10.00">gengeopop::GeoGridConfig</text>
<polyline fill="none" stroke="black" points="229,-190 363,-190 "/>
<text text-anchor="middle" x="296" y="-178" font-family="Helvetica,sans-Serif" font-size="10.00"> </text>
<polyline fill="none" stroke="black" points="229,-171 363,-171 "/>
<text text-anchor="start" x="237" y="-159" font-family="Helvetica,sans-Serif" font-size="10.00">+ GeoGridConfig()</text>
<text text-anchor="start" x="237" y="-148" font-family="Helvetica,sans-Serif" font-size="10.00">+ Calculate()</text>
</a>
</g>
</g>
<!-- Node7&#45;&gt;Node1 -->
<g id="edge6" class="edge"><title>Node7&#45;&gt;Node1</title>
<path fill="none" stroke="#404040" d="M296,-140.964C296,-129.49 296,-116.278 296,-103.454"/>
<polygon fill="none" stroke="#404040" points="296,-103.347 292,-97.3474 296,-91.3474 300,-97.3474 296,-103.347"/>
<text text-anchor="middle" x="337" y="-113.5" font-family="Helvetica,sans-Serif" font-size="10.00"> &#45;m_geoGridConfig</text>
</g>
<!-- Node8 -->
<g id="node8" class="node"><title>Node8</title>
<g id="a_node8"><a xlink:href="../../db/d8e/a00482.html" target="_top" xlink:title="{double\n||}">
<polygon fill="white" stroke="black" points="606.5,-384.5 606.5,-441.5 651.5,-441.5 651.5,-384.5 606.5,-384.5"/>
<text text-anchor="middle" x="629" y="-429.5" font-family="Helvetica,sans-Serif" font-size="10.00">double</text>
<polyline fill="none" stroke="black" points="606.5,-422.5 651.5,-422.5 "/>
<text text-anchor="middle" x="629" y="-410.5" font-family="Helvetica,sans-Serif" font-size="10.00"> </text>
<polyline fill="none" stroke="black" points="606.5,-403.5 651.5,-403.5 "/>
<text text-anchor="middle" x="629" y="-391.5" font-family="Helvetica,sans-Serif" font-size="10.00"> </text>
</a>
</g>
</g>
<!-- Node8&#45;&gt;Node7 -->
<g id="edge7" class="edge"><title>Node8&#45;&gt;Node7</title>
<path fill="none" stroke="#404040" d="M635.093,-384.229C642.207,-343.541 648.171,-268.211 606,-228 588.749,-211.551 428.643,-215.497 375.162,-209.456"/>
<polygon fill="none" stroke="#404040" points="374.951,-209.421 368.379,-212.388 363.112,-207.462 369.685,-204.495 374.951,-209.421"/>
<text text-anchor="start" x="641" y="-352" font-family="Helvetica,sans-Serif" font-size="10.00"> +fraction_1826_years</text>
<text text-anchor="middle" x="706" y="-341" font-family="Helvetica,sans-Serif" font-size="10.00">_WhichAreStudents</text>
<text text-anchor="start" x="641" y="-330" font-family="Helvetica,sans-Serif" font-size="10.00">+fraction_1865_years</text>
<text text-anchor="middle" x="706" y="-319" font-family="Helvetica,sans-Serif" font-size="10.00">_active</text>
<text text-anchor="middle" x="706" y="-308" font-family="Helvetica,sans-Serif" font-size="10.00">+meanCommunitySize</text>
<text text-anchor="middle" x="706" y="-297" font-family="Helvetica,sans-Serif" font-size="10.00">+meanCollegeSize</text>
<text text-anchor="start" x="641" y="-286" font-family="Helvetica,sans-Serif" font-size="10.00">+fraction_student_commuting</text>
<text text-anchor="middle" x="706" y="-275" font-family="Helvetica,sans-Serif" font-size="10.00">People</text>
<text text-anchor="start" x="641" y="-264" font-family="Helvetica,sans-Serif" font-size="10.00">+fraction_active_commuting</text>
<text text-anchor="middle" x="706" y="-253" font-family="Helvetica,sans-Serif" font-size="10.00">People</text>
<text text-anchor="middle" x="706" y="-242" font-family="Helvetica,sans-Serif" font-size="10.00">+meanK12SchoolSize</text>
<text text-anchor="middle" x="706" y="-231" font-family="Helvetica,sans-Serif" font-size="10.00">+meanWorkplaceSchoolSize</text>
</g>
<!-- Node9 -->
<g id="node9" class="node"><title>Node9</title>
<polygon fill="white" stroke="#bfbfbf" points="235.5,-384 235.5,-442 264.5,-442 264.5,-384 235.5,-384"/>
<polyline fill="none" stroke="#bfbfbf" points="235.5,-422 264.5,-422 "/>
<text text-anchor="middle" x="250" y="-410" font-family="Helvetica,sans-Serif" font-size="10.00"> </text>
<polyline fill="none" stroke="#bfbfbf" points="235.5,-403 264.5,-403 "/>
<text text-anchor="middle" x="250" y="-391" font-family="Helvetica,sans-Serif" font-size="10.00"> </text>
</g>
<!-- Node9&#45;&gt;Node7 -->
<g id="edge8" class="edge"><title>Node9&#45;&gt;Node7</title>
<path fill="none" stroke="#404040" d="M235.155,-401.491C224.008,-394.02 208.125,-384.242 193,-378 162.51,-365.417 141.299,-385.999 121,-360 102.948,-336.879 103.287,-251.382 121,-228 138.842,-204.447 156.65,-218.327 185,-210 195.438,-206.934 206.409,-203.649 217.224,-200.375"/>
<polygon fill="none" stroke="#404040" points="217.384,-200.326 221.962,-194.754 228.866,-196.836 224.288,-202.408 217.384,-200.326"/>
<text text-anchor="middle" x="136.5" y="-291.5" font-family="Helvetica,sans-Serif" font-size="10.00"> +input</text>
</g>
<!-- Node9&#45;&gt;Node7 -->
<g id="edge12" class="edge"><title>Node9&#45;&gt;Node7</title>
<path fill="none" stroke="#404040" d="M235.177,-403.939C215.245,-392.753 181.54,-372.493 175,-360 147.79,-308.025 142.729,-276.993 175,-228 185.111,-212.65 200.804,-201.812 217.576,-194.167"/>
<polygon fill="none" stroke="#404040" points="217.608,-194.154 221.635,-188.172 228.705,-189.589 224.678,-195.571 217.608,-194.154"/>
<text text-anchor="middle" x="202" y="-291.5" font-family="Helvetica,sans-Serif" font-size="10.00"> +calculated</text>
</g>
<!-- Node9&#45;&gt;Node7 -->
<g id="edge13" class="edge"><title>Node9&#45;&gt;Node7</title>
<path fill="none" stroke="#404040" d="M244.563,-383.811C238.681,-346.755 232.541,-280.24 252,-228 253.084,-225.091 254.408,-222.232 255.911,-219.443"/>
<polygon fill="none" stroke="#404040" points="256.055,-219.216 255.884,-212.007 262.473,-209.077 262.644,-216.286 256.055,-219.216"/>
<text text-anchor="middle" x="278" y="-291.5" font-family="Helvetica,sans-Serif" font-size="10.00"> +generated</text>
</g>
<!-- Node9&#45;&gt;Node7 -->
<g id="edge14" class="edge"><title>Node9&#45;&gt;Node7</title>
<path fill="none" stroke="#404040" d="M264.644,-402.948C277.74,-393.906 296.054,-378.684 304,-360 322.914,-315.528 316.706,-259.431 308.447,-220.938"/>
<polygon fill="none" stroke="#404040" points="308.413,-220.79 303.17,-215.84 305.723,-209.096 310.966,-214.046 308.413,-220.79"/>
<text text-anchor="middle" x="343" y="-291.5" font-family="Helvetica,sans-Serif" font-size="10.00"> +constants</text>
</g>
<!-- Node10&#45;&gt;Node7 -->
<g id="edge9" class="edge"><title>Node10&#45;&gt;Node7</title>
<path fill="none" stroke="#404040" d="M514.792,-378.802C521.103,-337.62 524.497,-267.973 486,-228 470.085,-211.475 411.095,-215.953 374.927,-209.827"/>
<polygon fill="none" stroke="#404040" points="374.896,-209.821 368.16,-212.395 363.193,-207.167 369.929,-204.593 374.896,-209.821"/>
<text text-anchor="middle" x="560.5" y="-291.5" font-family="Helvetica,sans-Serif" font-size="10.00"> +household_types</text>
</g>
<!-- Node11 -->
<g id="node11" class="node"><title>Node11</title>
<polygon fill="white" stroke="#bfbfbf" points="448.5,-507 448.5,-575 567.5,-575 567.5,-507 448.5,-507"/>
<text text-anchor="start" x="456.5" y="-563" font-family="Helvetica,sans-Serif" font-size="10.00">shared_ptr&lt; gengeopop</text>
<text text-anchor="middle" x="508" y="-552" font-family="Helvetica,sans-Serif" font-size="10.00">::Household &gt;</text>
<polyline fill="none" stroke="#bfbfbf" points="448.5,-545 567.5,-545 "/>
<text text-anchor="middle" x="508" y="-533" font-family="Helvetica,sans-Serif" font-size="10.00"> </text>
<polyline fill="none" stroke="#bfbfbf" points="448.5,-526 567.5,-526 "/>
<text text-anchor="middle" x="508" y="-514" font-family="Helvetica,sans-Serif" font-size="10.00"> </text>
</g>
<!-- Node11&#45;&gt;Node10 -->
<g id="edge10" class="edge"><title>Node11&#45;&gt;Node10</title>
<path fill="none" stroke="#404040" d="M508,-506.895C508,-492.397 508,-475.148 508,-459.473"/>
<polygon fill="none" stroke="#404040" points="508,-459.321 504,-453.321 508,-447.321 512,-453.321 508,-459.321"/>
<text text-anchor="middle" x="532.5" y="-474.5" font-family="Helvetica,sans-Serif" font-size="10.00"> +elements</text>
</g>
<!-- Node12 -->
<g id="node12" class="node"><title>Node12</title>
<polygon fill="white" stroke="#bfbfbf" points="380.5,-384.5 380.5,-441.5 409.5,-441.5 409.5,-384.5 380.5,-384.5"/>
<text text-anchor="middle" x="395" y="-429.5" font-family="Helvetica,sans-Serif" font-size="10.00">int</text>
<polyline fill="none" stroke="#bfbfbf" points="380.5,-422.5 409.5,-422.5 "/>
<text text-anchor="middle" x="395" y="-410.5" font-family="Helvetica,sans-Serif" font-size="10.00"> </text>
<polyline fill="none" stroke="#bfbfbf" points="380.5,-403.5 409.5,-403.5 "/>
<text text-anchor="middle" x="395" y="-391.5" font-family="Helvetica,sans-Serif" font-size="10.00"> </text>
</g>
<!-- Node12&#45;&gt;Node7 -->
<g id="edge15" class="edge"><title>Node12&#45;&gt;Node7</title>
<path fill="none" stroke="#404040" d="M398.454,-384.457C401.819,-346.352 402.746,-276.746 373,-228 370.79,-224.379 368.222,-220.953 365.392,-217.721"/>
<polygon fill="none" stroke="#404040" points="365.285,-217.613 358.215,-216.194 356.806,-209.121 363.876,-210.541 365.285,-217.613"/>
<text text-anchor="middle" x="443" y="-346.5" font-family="Helvetica,sans-Serif" font-size="10.00"> +contactCenters</text>
<text text-anchor="middle" x="443" y="-335.5" font-family="Helvetica,sans-Serif" font-size="10.00">+contactPools</text>
<text text-anchor="start" x="401" y="-324.5" font-family="Helvetica,sans-Serif" font-size="10.00">+_1865_and_years</text>
<text text-anchor="middle" x="443" y="-313.5" font-family="Helvetica,sans-Serif" font-size="10.00">_active</text>
<text text-anchor="start" x="401" y="-302.5" font-family="Helvetica,sans-Serif" font-size="10.00">+_1826_years_and</text>
<text text-anchor="middle" x="443" y="-291.5" font-family="Helvetica,sans-Serif" font-size="10.00">_student</text>
<text text-anchor="middle" x="443" y="-280.5" font-family="Helvetica,sans-Serif" font-size="10.00">+households</text>
<text text-anchor="middle" x="443" y="-269.5" font-family="Helvetica,sans-Serif" font-size="10.00">+_1865_years</text>
<text text-anchor="middle" x="443" y="-258.5" font-family="Helvetica,sans-Serif" font-size="10.00">+_1826_years</text>
<text text-anchor="middle" x="443" y="-247.5" font-family="Helvetica,sans-Serif" font-size="10.00">+compulsoryPupils</text>
<text text-anchor="middle" x="443" y="-236.5" font-family="Helvetica,sans-Serif" font-size="10.00">+populationSize</text>
</g>
</g>
</svg>
        <g id="navigator" transform="translate(0 0)" fill="#404254">
                <rect fill="#f2f5e9" fill-opacity="0.5" stroke="#606060" stroke-width=".5" x="0" y="0" width="60" height="60"/>
                <use id="zoomplus" xlink:href="#zoomPlus" x="17" y="9" onmousedown="handleZoom(evt,'in')"/>
                <use id="zoomminus" xlink:href="#zoomMin" x="42" y="9" onmousedown="handleZoom(evt,'out')"/>
                <use id="reset" xlink:href="#resetDef" x="30" y="36" onmousedown="handleReset()"/>
                <g id="arrowUp" xlink:href="#dirArrow" transform="translate(30 24)" onmousedown="handlePan(0,-1)">
                  <use xlink:href="#rim" fill="#404040">
                        <set attributeName="fill" to="#808080" begin="arrowUp.mouseover" end="arrowUp.mouseout"/>
                  </use>
                  <path fill="none" stroke="white" stroke-width="1.5" d="M0,-3.0v7 M-2.5,-0.5L0,-3.0L2.5,-0.5"/>
                </g>
                <g id="arrowRight" xlink:href="#dirArrow" transform="rotate(90) translate(36 -43)" onmousedown="handlePan(1,0)">
                  <use xlink:href="#rim" fill="#404040">
                        <set attributeName="fill" to="#808080" begin="arrowRight.mouseover" end="arrowRight.mouseout"/>
                  </use>
                  <path fill="none" stroke="white" stroke-width="1.5" d="M0,-3.0v7 M-2.5,-0.5L0,-3.0L2.5,-0.5"/>
                </g>
                <g id="arrowDown" xlink:href="#dirArrow" transform="rotate(180) translate(-30 -48)" onmousedown="handlePan(0,1)">
                  <use xlink:href="#rim" fill="#404040">
                        <set attributeName="fill" to="#808080" begin="arrowDown.mouseover" end="arrowDown.mouseout"/>
                  </use>
                  <path fill="none" stroke="white" stroke-width="1.5" d="M0,-3.0v7 M-2.5,-0.5L0,-3.0L2.5,-0.5"/>
                </g>
                <g id="arrowLeft" xlink:href="#dirArrow" transform="rotate(270) translate(-36 17)" onmousedown="handlePan(-1,0)">
                  <use xlink:href="#rim" fill="#404040">
                        <set attributeName="fill" to="#808080" begin="arrowLeft.mouseover" end="arrowLeft.mouseout"/>
                  </use>
                  <path fill="none" stroke="white" stroke-width="1.5" d="M0,-3.0v7 M-2.5,-0.5L0,-3.0L2.5,-0.5"/>
                </g>
        </g>
        <svg viewBox="0 0 15 15" width="100%" height="30px" preserveAspectRatio="xMaxYMin meet">
         <g id="arrow_out" transform="scale(0.3 0.3)">
          <a xlink:href="a00969_org.svg" target="_base">
           <rect id="button" ry="5" rx="5" y="6" x="6" height="38" width="38"
                fill="#f2f5e9" fill-opacity="0.5" stroke="#606060" stroke-width="1.0"/>
           <path id="arrow"
             d="M 11.500037,31.436501 C 11.940474,20.09759 22.043105,11.32322 32.158766,21.979434 L 37.068811,17.246167 C 37.068811,17.246167 37.088388,32 37.088388,32 L 22.160133,31.978069 C 22.160133,31.978069 26.997745,27.140456 26.997745,27.140456 C 18.528582,18.264221 13.291696,25.230495 11.500037,31.436501 z"
             style="fill:#404040;"/>
          </a>
         </g>
        </svg>
</svg>
