<?xml version="1.0" encoding="UTF-8" standalone="no"?>
<!DOCTYPE svg PUBLIC "-//W3C//DTD SVG 1.1//EN"
 "http://www.w3.org/Graphics/SVG/1.1/DTD/svg11.dtd">
<!-- Generated by graphviz version 2.36.0 (20140111.2315)
 -->
<!-- Title: stride::util::FileSys::GetCurrentDir Pages: 1 -->
<svg width="254pt" height="38pt"
 viewBox="0.00 0.00 254.00 38.00" xmlns="http://www.w3.org/2000/svg" xmlns:xlink="http://www.w3.org/1999/xlink">
<g id="graph0" class="graph" transform="scale(1 1) rotate(0) translate(4 34)">
<title>stride::util::FileSys::GetCurrentDir</title>
<polygon fill="white" stroke="none" points="-4,4 -4,-34 250,-34 250,4 -4,4"/>
<!-- Node1 -->
<g id="node1" class="node"><title>Node1</title>
<polygon fill="#bfbfbf" stroke="black" points="0,-0 0,-30 98,-30 98,-0 0,-0"/>
<text text-anchor="start" x="8" y="-18" font-family="Helvetica,sans-Serif" font-size="10.00">stride::util::FileSys</text>
<text text-anchor="middle" x="49" y="-7" font-family="Helvetica,sans-Serif" font-size="10.00">::GetCurrentDir</text>
</g>
<!-- Node2 -->
<g id="node2" class="node"><title>Node2</title>
<g id="a_node2"><a xlink:href="../../d9/d77/a00095.html#ad3e11456e1c2d064aa7307045761ca04" target="_top" xlink:title="Logs info on setup for cli environment to stride_logger. ">
<polygon fill="white" stroke="black" points="134.5,-0 134.5,-30 245.5,-30 245.5,-0 134.5,-0"/>
<text text-anchor="start" x="142.5" y="-18" font-family="Helvetica,sans-Serif" font-size="10.00">stride::BaseController</text>
<text text-anchor="middle" x="190" y="-7" font-family="Helvetica,sans-Serif" font-size="10.00">::LogSetup</text>
</a>
</g>
</g>
<!-- Node1&#45;&gt;Node2 -->
<g id="edge1" class="edge"><title>Node1&#45;&gt;Node2</title>
<path fill="none" stroke="midnightblue" d="M108.473,-15C116.995,-15 125.745,-15 134.191,-15"/>
<polygon fill="midnightblue" stroke="midnightblue" points="108.225,-11.5001 98.2254,-15 108.225,-18.5001 108.225,-11.5001"/>
</g>
</g>
</svg>
