<?xml version="1.0" encoding="UTF-8" standalone="no"?>
<!DOCTYPE svg PUBLIC "-//W3C//DTD SVG 1.1//EN"
 "http://www.w3.org/Graphics/SVG/1.1/DTD/svg11.dtd">
<!-- Generated by graphviz version 2.36.0 (20140111.2315)
 -->
<!-- Title: stride::util::FileSys::Get Pages: 1 -->
<!--zoomable 577 -->
<svg id="main" version="1.1" xmlns="http://www.w3.org/2000/svg" xmlns:xlink="http://www.w3.org/1999/xlink" xml:space="preserve" onload="init(evt)">
<style type="text/css"><![CDATA[
.edge:hover path { stroke: red; }
.edge:hover polygon { stroke: red; fill: red; }
]]></style>
<script type="text/javascript"><![CDATA[
var edges = document.getElementsByTagName('g');
if (edges && edges.length) {
  for (var i=0;i<edges.length;i++) {
    if (edges[i].id.substr(0,4)=='edge') {
      edges[i].setAttribute('class','edge');
    }
  }
}
]]></script>
        <defs>
                <circle id="rim" cx="0" cy="0" r="7"/>
                <circle id="rim2" cx="0" cy="0" r="3.5"/>
                <g id="zoomPlus">
                        <use xlink:href="#rim" fill="#404040">
                                <set attributeName="fill" to="#808080" begin="zoomplus.mouseover" end="zoomplus.mouseout"/>
                        </use>
                        <path d="M-4,0h8M0,-4v8" fill="none" stroke="white" stroke-width="1.5" pointer-events="none"/>
                </g>
                <g id="zoomMin">
                        <use xlink:href="#rim" fill="#404040">
                                <set attributeName="fill" to="#808080" begin="zoomminus.mouseover" end="zoomminus.mouseout"/>
                        </use>
                        <path d="M-4,0h8" fill="none" stroke="white" stroke-width="1.5" pointer-events="none"/>
                </g>
                <g id="dirArrow">
                        <path fill="none" stroke="white" stroke-width="1.5" d="M0,-3.0v7 M-2.5,-0.5L0,-3.0L2.5,-0.5"/>
                </g>
               <g id="resetDef">
                       <use xlink:href="#rim2" fill="#404040">
                               <set attributeName="fill" to="#808080" begin="reset.mouseover" end="reset.mouseout"/>
                       </use>
               </g>
        </defs>

<script type="text/javascript">
var viewWidth = 952;
var viewHeight = 577;
var sectionId = 'dynsection-20';
</script>
<script xlink:href="../../svgpan.js"/>
<svg id="graph" class="graph">
<g id="viewport">
<title>stride::util::FileSys::Get</title>
<polygon fill="white" stroke="none" points="-4,4 -4,-573 948,-573 948,4 -4,4"/>
<!-- Node1 -->
<g id="node1" class="node"><title>Node1</title>
<polygon fill="#bfbfbf" stroke="black" points="0,-397.5 0,-416.5 120,-416.5 120,-397.5 0,-397.5"/>
<text text-anchor="middle" x="60" y="-404.5" font-family="Helvetica,sans-Serif" font-size="10.00">stride::util::FileSys::Get</text>
</g>
<!-- Node2 -->
<g id="node2" class="node"><title>Node2</title>
<g id="a_node2"><a xlink:href="../../d3/d65/a00154.html#a0f8044e9840a5f9184b330f039c6d270" target="_top" xlink:title="Return bin dir (only relevant when use_install_dirs mode is active) ">
<polygon fill="white" stroke="black" points="156,-539 156,-569 254,-569 254,-539 156,-539"/>
<text text-anchor="start" x="164" y="-557" font-family="Helvetica,sans-Serif" font-size="10.00">stride::util::FileSys</text>
<text text-anchor="middle" x="205" y="-546" font-family="Helvetica,sans-Serif" font-size="10.00">::GetBinDir</text>
</a>
</g>
</g>
<!-- Node1&#45;&gt;Node2 -->
<g id="edge1" class="edge"><title>Node1&#45;&gt;Node2</title>
<path fill="none" stroke="midnightblue" d="M71.7982,-425.457C87.6193,-451.256 119.242,-498.372 156,-529 160.403,-532.669 165.433,-536.009 170.542,-538.968"/>
<polygon fill="midnightblue" stroke="midnightblue" points="74.6816,-423.46 66.5306,-416.691 68.6816,-427.065 74.6816,-423.46"/>
</g>
<!-- Node3 -->
<g id="node3" class="node"><title>Node3</title>
<g id="a_node3"><a xlink:href="../../d3/d65/a00154.html#aacc5928eeee467f5e0c21c7ec5aaaf5a" target="_top" xlink:title="Return config dir (only relevant when use_install_dirs mode is active) ">
<polygon fill="white" stroke="black" points="156,-490 156,-520 254,-520 254,-490 156,-490"/>
<text text-anchor="start" x="164" y="-508" font-family="Helvetica,sans-Serif" font-size="10.00">stride::util::FileSys</text>
<text text-anchor="middle" x="205" y="-497" font-family="Helvetica,sans-Serif" font-size="10.00">::GetConfigDir</text>
</a>
</g>
</g>
<!-- Node1&#45;&gt;Node3 -->
<g id="edge2" class="edge"><title>Node1&#45;&gt;Node3</title>
<path fill="none" stroke="midnightblue" d="M79.9855,-423.185C98.6622,-438.715 128.321,-462.349 156,-480 161.387,-483.435 167.299,-486.81 173.077,-489.913"/>
<polygon fill="midnightblue" stroke="midnightblue" points="82.1334,-420.418 72.2237,-416.67 77.6331,-425.78 82.1334,-420.418"/>
</g>
<!-- Node6 -->
<g id="node6" class="node"><title>Node6</title>
<g id="a_node6"><a xlink:href="../../d3/d65/a00154.html#a39efd4d2a1344ebc5d26759693d3d546" target="_top" xlink:title="Get path to the current directory. ">
<polygon fill="white" stroke="black" points="156,-441 156,-471 254,-471 254,-441 156,-441"/>
<text text-anchor="start" x="164" y="-459" font-family="Helvetica,sans-Serif" font-size="10.00">stride::util::FileSys</text>
<text text-anchor="middle" x="205" y="-448" font-family="Helvetica,sans-Serif" font-size="10.00">::GetCurrentDir</text>
</a>
</g>
</g>
<!-- Node1&#45;&gt;Node6 -->
<g id="edge5" class="edge"><title>Node1&#45;&gt;Node6</title>
<path fill="none" stroke="midnightblue" d="M98.3823,-419.809C117.295,-426.29 140.366,-434.195 160.117,-440.963"/>
<polygon fill="midnightblue" stroke="midnightblue" points="99.5059,-416.495 88.9113,-416.564 97.2368,-423.117 99.5059,-416.495"/>
</g>
<!-- Node7 -->
<g id="node7" class="node"><title>Node7</title>
<g id="a_node7"><a xlink:href="../../d3/d65/a00154.html#aafd39e698c442fd0917915d085c9aa1a" target="_top" xlink:title="/// Return data dir (only relevant when use_install_dirs mode is active) ">
<polygon fill="white" stroke="black" points="156,-269 156,-299 254,-299 254,-269 156,-269"/>
<text text-anchor="start" x="164" y="-287" font-family="Helvetica,sans-Serif" font-size="10.00">stride::util::FileSys</text>
<text text-anchor="middle" x="205" y="-276" font-family="Helvetica,sans-Serif" font-size="10.00">::GetDataDir</text>
</a>
</g>
</g>
<!-- Node1&#45;&gt;Node7 -->
<g id="edge7" class="edge"><title>Node1&#45;&gt;Node7</title>
<path fill="none" stroke="midnightblue" d="M80.0459,-390.618C107.867,-366.688 159.24,-322.5 186.286,-299.236"/>
<polygon fill="midnightblue" stroke="midnightblue" points="77.52,-388.174 72.221,-397.348 82.0847,-393.481 77.52,-388.174"/>
</g>
<!-- Node23 -->
<g id="node23" class="node"><title>Node23</title>
<g id="a_node23"><a xlink:href="../../d3/d65/a00154.html#ad4bcf3a836909fad40dbff80ae4157c8" target="_top" xlink:title="Get path of the executable. ">
<polygon fill="white" stroke="black" points="156,-392 156,-422 254,-422 254,-392 156,-392"/>
<text text-anchor="start" x="164" y="-410" font-family="Helvetica,sans-Serif" font-size="10.00">stride::util::FileSys</text>
<text text-anchor="middle" x="205" y="-399" font-family="Helvetica,sans-Serif" font-size="10.00">::GetExecPath</text>
</a>
</g>
</g>
<!-- Node1&#45;&gt;Node23 -->
<g id="edge28" class="edge"><title>Node1&#45;&gt;Node23</title>
<path fill="none" stroke="midnightblue" d="M130.451,-407C139.052,-407 147.693,-407 155.875,-407"/>
<polygon fill="midnightblue" stroke="midnightblue" points="130.403,-403.5 120.403,-407 130.403,-410.5 130.403,-403.5"/>
</g>
<!-- Node24 -->
<g id="node24" class="node"><title>Node24</title>
<g id="a_node24"><a xlink:href="../../d3/d65/a00154.html#a01b3eb32bba2b55a62086271185f8832" target="_top" xlink:title="Return install root dir (only relevant when use_install_dirs mode is active) ">
<polygon fill="white" stroke="black" points="156,-343 156,-373 254,-373 254,-343 156,-343"/>
<text text-anchor="start" x="164" y="-361" font-family="Helvetica,sans-Serif" font-size="10.00">stride::util::FileSys</text>
<text text-anchor="middle" x="205" y="-350" font-family="Helvetica,sans-Serif" font-size="10.00">::GetRootDir</text>
</a>
</g>
</g>
<!-- Node1&#45;&gt;Node24 -->
<g id="edge30" class="edge"><title>Node1&#45;&gt;Node24</title>
<path fill="none" stroke="midnightblue" d="M98.3823,-394.191C117.295,-387.71 140.366,-379.805 160.117,-373.037"/>
<polygon fill="midnightblue" stroke="midnightblue" points="97.2368,-390.883 88.9113,-397.436 99.5059,-397.505 97.2368,-390.883"/>
</g>
<!-- Node25 -->
<g id="node25" class="node"><title>Node25</title>
<g id="a_node25"><a xlink:href="../../d3/d65/a00154.html#a59f5c71c35d9170db7fc3d37ca8a36ba" target="_top" xlink:title="Return tests dir (only relevant when use_install_dirs mode is active) ">
<polygon fill="white" stroke="black" points="156,-220 156,-250 254,-250 254,-220 156,-220"/>
<text text-anchor="start" x="164" y="-238" font-family="Helvetica,sans-Serif" font-size="10.00">stride::util::FileSys</text>
<text text-anchor="middle" x="205" y="-227" font-family="Helvetica,sans-Serif" font-size="10.00">::GetTestsDir</text>
</a>
</g>
</g>
<!-- Node1&#45;&gt;Node25 -->
<g id="edge32" class="edge"><title>Node1&#45;&gt;Node25</title>
<path fill="none" stroke="midnightblue" d="M69.1345,-387.956C83.0241,-357.338 113.942,-296.782 156,-259 159.604,-255.762 163.725,-252.85 168.003,-250.264"/>
<polygon fill="midnightblue" stroke="midnightblue" points="65.7795,-386.89 64.9415,-397.451 72.1829,-389.718 65.7795,-386.89"/>
</g>
<!-- Node4 -->
<g id="node4" class="node"><title>Node4</title>
<g id="a_node4"><a xlink:href="../../d4/dee/a00008.html#a840ab2341a3e5eca99f3507e9b79da18" target="_top" xlink:title="Setup, creates a ptree based on the filenames in configFiles. ">
<polygon fill="white" stroke="black" points="290,-490 290,-520 466,-520 466,-490 290,-490"/>
<text text-anchor="start" x="298" y="-508" font-family="Helvetica,sans-Serif" font-size="10.00">calibration::ConfigFileCalibration</text>
<text text-anchor="middle" x="378" y="-497" font-family="Helvetica,sans-Serif" font-size="10.00">Runner::ConfigFileCalibrationRunner</text>
</a>
</g>
</g>
<!-- Node3&#45;&gt;Node4 -->
<g id="edge3" class="edge"><title>Node3&#45;&gt;Node4</title>
<path fill="none" stroke="midnightblue" d="M264.284,-505C272.512,-505 281.116,-505 289.744,-505"/>
<polygon fill="midnightblue" stroke="midnightblue" points="264.088,-501.5 254.088,-505 264.088,-508.5 264.088,-501.5"/>
</g>
<!-- Node5 -->
<g id="node5" class="node"><title>Node5</title>
<g id="a_node5"><a xlink:href="../../d9/d77/a00095.html#ad3e11456e1c2d064aa7307045761ca04" target="_top" xlink:title="Logs info on setup for cli environment to stride_logger. ">
<polygon fill="white" stroke="black" points="322.5,-441 322.5,-471 433.5,-471 433.5,-441 322.5,-441"/>
<text text-anchor="start" x="330.5" y="-459" font-family="Helvetica,sans-Serif" font-size="10.00">stride::BaseController</text>
<text text-anchor="middle" x="378" y="-448" font-family="Helvetica,sans-Serif" font-size="10.00">::LogSetup</text>
</a>
</g>
</g>
<!-- Node3&#45;&gt;Node5 -->
<g id="edge4" class="edge"><title>Node3&#45;&gt;Node5</title>
<path fill="none" stroke="midnightblue" d="M264.067,-487.553C272.751,-484.991 281.605,-482.407 290,-480 300.392,-477.02 311.503,-473.903 322.19,-470.94"/>
<polygon fill="midnightblue" stroke="midnightblue" points="262.963,-484.229 254.368,-490.424 264.95,-490.941 262.963,-484.229"/>
</g>
<!-- Node6&#45;&gt;Node5 -->
<g id="edge6" class="edge"><title>Node6&#45;&gt;Node5</title>
<path fill="none" stroke="midnightblue" d="M264.298,-456C283.086,-456 303.831,-456 322.346,-456"/>
<polygon fill="midnightblue" stroke="midnightblue" points="264.088,-452.5 254.088,-456 264.088,-459.5 264.088,-452.5"/>
</g>
<!-- Node7&#45;&gt;Node5 -->
<g id="edge22" class="edge"><title>Node7&#45;&gt;Node5</title>
<path fill="none" stroke="midnightblue" d="M232.029,-306.54C239.874,-314.32 247.988,-323.487 254,-333 278.788,-372.226 256.026,-399.395 290,-431 298.975,-439.349 310.557,-444.931 322.325,-448.658"/>
<polygon fill="midnightblue" stroke="midnightblue" points="234.024,-303.608 224.361,-299.261 229.204,-308.685 234.024,-303.608"/>
</g>
<!-- Node8 -->
<g id="node8" class="node"><title>Node8</title>
<g id="a_node8"><a xlink:href="../../d0/d4a/a00147.html#a054950caec73fe87d50736d61377d182" target="_top" xlink:title="Build and return the TravellerProfile. ">
<polygon fill="white" stroke="black" points="322,-294 322,-324 434,-324 434,-294 322,-294"/>
<text text-anchor="start" x="330" y="-312" font-family="Helvetica,sans-Serif" font-size="10.00">stride::TravellerProfile</text>
<text text-anchor="middle" x="378" y="-301" font-family="Helvetica,sans-Serif" font-size="10.00">Builder::Build</text>
</a>
</g>
</g>
<!-- Node7&#45;&gt;Node8 -->
<g id="edge8" class="edge"><title>Node7&#45;&gt;Node8</title>
<path fill="none" stroke="midnightblue" d="M264.201,-292.509C282.808,-295.229 303.341,-298.231 321.733,-300.92"/>
<polygon fill="midnightblue" stroke="midnightblue" points="264.489,-289.014 254.088,-291.03 263.477,-295.94 264.489,-289.014"/>
</g>
<!-- Node10 -->
<g id="node10" class="node"><title>Node10</title>
<g id="a_node10"><a xlink:href="../../df/d03/a00062.html#a76eb18fa73415d684668d13833ba13c1" target="_top" xlink:title="Create a CitiesReader based on the filename of the input file, relative to the data directory...">
<polygon fill="white" stroke="black" points="311,-245 311,-275 445,-275 445,-245 311,-245"/>
<text text-anchor="start" x="319" y="-263" font-family="Helvetica,sans-Serif" font-size="10.00">gengeopop::ReaderFactory</text>
<text text-anchor="middle" x="378" y="-252" font-family="Helvetica,sans-Serif" font-size="10.00">::CreateCitiesReader</text>
</a>
</g>
</g>
<!-- Node7&#45;&gt;Node10 -->
<g id="edge10" class="edge"><title>Node7&#45;&gt;Node10</title>
<path fill="none" stroke="midnightblue" d="M264.23,-275.827C279.205,-273.726 295.427,-271.449 310.774,-269.295"/>
<polygon fill="midnightblue" stroke="midnightblue" points="263.505,-272.395 254.088,-277.251 264.478,-279.327 263.505,-272.395"/>
</g>
<!-- Node11 -->
<g id="node11" class="node"><title>Node11</title>
<g id="a_node11"><a xlink:href="../../df/d03/a00062.html#aafc60dfb9e6337c0c57ec46cd9e02d71" target="_top" xlink:title="Create a CommutesReader based on an absolute Boost Filesystem Path pointing to the input file...">
<polygon fill="white" stroke="black" points="311,-196 311,-226 445,-226 445,-196 311,-196"/>
<text text-anchor="start" x="319" y="-214" font-family="Helvetica,sans-Serif" font-size="10.00">gengeopop::ReaderFactory</text>
<text text-anchor="middle" x="378" y="-203" font-family="Helvetica,sans-Serif" font-size="10.00">::CreateCommutesReader</text>
</a>
</g>
</g>
<!-- Node7&#45;&gt;Node11 -->
<g id="edge11" class="edge"><title>Node7&#45;&gt;Node11</title>
<path fill="none" stroke="midnightblue" d="M245.225,-264.017C248.216,-262.358 251.169,-260.674 254,-259 270.552,-249.211 272.51,-242.992 290,-235 297.268,-231.679 305.093,-228.729 312.965,-226.133"/>
<polygon fill="midnightblue" stroke="midnightblue" points="243.357,-261.048 236.231,-268.888 246.691,-267.204 243.357,-261.048"/>
</g>
<!-- Node16 -->
<g id="node16" class="node"><title>Node16</title>
<g id="a_node16"><a xlink:href="../../df/d03/a00062.html#afd1bf47bd92f5bf43cd032da257454b5" target="_top" xlink:title="Create a HouseholdReader based on the filename of the input file, relative to the data directory...">
<polygon fill="white" stroke="black" points="311,-147 311,-177 445,-177 445,-147 311,-147"/>
<text text-anchor="start" x="319" y="-165" font-family="Helvetica,sans-Serif" font-size="10.00">gengeopop::ReaderFactory</text>
<text text-anchor="middle" x="378" y="-154" font-family="Helvetica,sans-Serif" font-size="10.00">::CreateHouseholdReader</text>
</a>
</g>
</g>
<!-- Node7&#45;&gt;Node16 -->
<g id="edge16" class="edge"><title>Node7&#45;&gt;Node16</title>
<path fill="none" stroke="midnightblue" d="M249.596,-263.043C251.144,-261.758 252.62,-260.41 254,-259 279.296,-233.14 262.121,-209.052 290,-186 296.158,-180.908 303.316,-176.892 310.83,-173.726"/>
<polygon fill="midnightblue" stroke="midnightblue" points="247.453,-260.273 241.377,-268.953 251.539,-265.956 247.453,-260.273"/>
</g>
<!-- Node17 -->
<g id="node17" class="node"><title>Node17</title>
<g id="a_node17"><a xlink:href="../../df/d03/a00062.html#ab65132d784c62a45167c2dd8e7b097d8" target="_top" xlink:title="Create a SubMunicipalitiesReader based on the filename of the input file, relative to the data direct...">
<polygon fill="white" stroke="black" points="298,-98 298,-128 458,-128 458,-98 298,-98"/>
<text text-anchor="start" x="306" y="-116" font-family="Helvetica,sans-Serif" font-size="10.00">gengeopop::ReaderFactory</text>
<text text-anchor="middle" x="378" y="-105" font-family="Helvetica,sans-Serif" font-size="10.00">::CreateSubMunicipalitiesReader</text>
</a>
</g>
</g>
<!-- Node7&#45;&gt;Node17 -->
<g id="edge18" class="edge"><title>Node7&#45;&gt;Node17</title>
<path fill="none" stroke="midnightblue" d="M250.891,-262.391C251.989,-261.309 253.03,-260.179 254,-259 289.933,-215.355 249.671,-176.619 290,-137 293.465,-133.596 297.366,-130.665 301.548,-128.141"/>
<polygon fill="midnightblue" stroke="midnightblue" points="248.49,-259.832 242.947,-268.861 252.911,-265.26 248.49,-259.832"/>
</g>
<!-- Node18 -->
<g id="node18" class="node"><title>Node18</title>
<g id="a_node18"><a xlink:href="../../d1/d44/a00098.html#acfc5f6f917fe7d81ead2fecdeb85eb70" target="_top" xlink:title="stride::Calendar::Initialize\lHolidays">
<polygon fill="white" stroke="black" points="314,-49 314,-79 442,-79 442,-49 314,-49"/>
<text text-anchor="start" x="322" y="-67" font-family="Helvetica,sans-Serif" font-size="10.00">stride::Calendar::Initialize</text>
<text text-anchor="middle" x="378" y="-56" font-family="Helvetica,sans-Serif" font-size="10.00">Holidays</text>
</a>
</g>
</g>
<!-- Node7&#45;&gt;Node18 -->
<g id="edge20" class="edge"><title>Node7&#45;&gt;Node18</title>
<path fill="none" stroke="midnightblue" d="M251.441,-262.038C252.346,-261.065 253.201,-260.053 254,-259 300.944,-197.127 236.801,-144.585 290,-88 296.547,-81.0365 304.913,-76.0289 313.861,-72.4405"/>
<polygon fill="midnightblue" stroke="midnightblue" points="248.96,-259.558 243.706,-268.759 253.55,-264.843 248.96,-259.558"/>
</g>
<!-- Node20 -->
<g id="node20" class="node"><title>Node20</title>
<g id="a_node20"><a xlink:href="../../d1/dd6/a00108.html#a3738040e683004b9ecefc9ba7608eba4" target="_top" xlink:title="Generates pop&#39;s individuals and return pop. ">
<polygon fill="white" stroke="black" points="315.5,-0 315.5,-30 440.5,-30 440.5,-0 315.5,-0"/>
<text text-anchor="start" x="323.5" y="-18" font-family="Helvetica,sans-Serif" font-size="10.00">stride::DefaultPopBuilder</text>
<text text-anchor="middle" x="378" y="-7" font-family="Helvetica,sans-Serif" font-size="10.00">::MakePersons</text>
</a>
</g>
</g>
<!-- Node7&#45;&gt;Node20 -->
<g id="edge23" class="edge"><title>Node7&#45;&gt;Node20</title>
<path fill="none" stroke="midnightblue" d="M251.506,-262.086C252.391,-261.099 253.225,-260.07 254,-259 312.084,-178.733 223.787,-112.704 290,-39 296.806,-31.4238 305.765,-26.1477 315.344,-22.492"/>
<polygon fill="midnightblue" stroke="midnightblue" points="249.014,-259.618 243.872,-268.882 253.668,-264.847 249.014,-259.618"/>
</g>
<!-- Node21 -->
<g id="node21" class="node"><title>Node21</title>
<g id="a_node21"><a xlink:href="../../d5/db1/a00140.html#ad551b02c507948570f07af10d85d29ce" target="_top" xlink:title="Get the contact configuration data. ">
<polygon fill="white" stroke="black" points="317.5,-392 317.5,-422 438.5,-422 438.5,-392 317.5,-392"/>
<text text-anchor="start" x="325.5" y="-410" font-family="Helvetica,sans-Serif" font-size="10.00">stride::SimBuilder</text>
<text text-anchor="middle" x="378" y="-399" font-family="Helvetica,sans-Serif" font-size="10.00">::ReadAgeContactPtree</text>
</a>
</g>
</g>
<!-- Node7&#45;&gt;Node21 -->
<g id="edge24" class="edge"><title>Node7&#45;&gt;Node21</title>
<path fill="none" stroke="midnightblue" d="M229.273,-306.416C237.362,-314.552 246.325,-323.968 254,-333 271.499,-353.593 267.827,-366.553 290,-382 298.124,-387.66 307.518,-392.048 317.065,-395.447"/>
<polygon fill="midnightblue" stroke="midnightblue" points="231.716,-303.91 222.152,-299.352 226.787,-308.88 231.716,-303.91"/>
</g>
<!-- Node22 -->
<g id="node22" class="node"><title>Node22</title>
<g id="a_node22"><a xlink:href="../../d5/db1/a00140.html#adffa42c6b8b171616fcdfb4805260c92" target="_top" xlink:title="Get the disease configuration data. ">
<polygon fill="white" stroke="black" points="325.5,-343 325.5,-373 430.5,-373 430.5,-343 325.5,-343"/>
<text text-anchor="start" x="333.5" y="-361" font-family="Helvetica,sans-Serif" font-size="10.00">stride::SimBuilder</text>
<text text-anchor="middle" x="378" y="-350" font-family="Helvetica,sans-Serif" font-size="10.00">::ReadDiseasePtree</text>
</a>
</g>
</g>
<!-- Node7&#45;&gt;Node22 -->
<g id="edge26" class="edge"><title>Node7&#45;&gt;Node22</title>
<path fill="none" stroke="midnightblue" d="M236.994,-304.571C252.447,-314.172 271.702,-325.178 290,-333 301.127,-337.756 313.431,-341.913 325.198,-345.401"/>
<polygon fill="midnightblue" stroke="midnightblue" points="238.694,-301.505 228.372,-299.116 234.951,-307.42 238.694,-301.505"/>
</g>
<!-- Node9 -->
<g id="node9" class="node"><title>Node9</title>
<g id="a_node9"><a xlink:href="../../d5/db1/a00140.html#a94ce5fb3cae915f0bdb261498f31c444" target="_top" xlink:title="Build the simulator and return it afterwards. ">
<polygon fill="white" stroke="black" points="538,-343 538,-373 632,-373 632,-343 538,-343"/>
<text text-anchor="start" x="546" y="-361" font-family="Helvetica,sans-Serif" font-size="10.00">stride::SimBuilder</text>
<text text-anchor="middle" x="585" y="-350" font-family="Helvetica,sans-Serif" font-size="10.00">::Build</text>
</a>
</g>
</g>
<!-- Node8&#45;&gt;Node9 -->
<g id="edge9" class="edge"><title>Node8&#45;&gt;Node9</title>
<path fill="none" stroke="midnightblue" d="M444.301,-324.609C474.694,-331.873 510.136,-340.345 537.716,-346.937"/>
<polygon fill="midnightblue" stroke="midnightblue" points="444.746,-321.116 434.206,-322.196 443.118,-327.924 444.746,-321.116"/>
</g>
<!-- Node12 -->
<g id="node12" class="node"><title>Node12</title>
<g id="a_node12"><a xlink:href="../../d0/d33/a00027.html#a5d80eb0492fba3112f7fb0571d386e30" target="_top" xlink:title="Reads the data files. ">
<polygon fill="white" stroke="black" points="502.5,-147 502.5,-177 667.5,-177 667.5,-147 502.5,-147"/>
<text text-anchor="start" x="510.5" y="-165" font-family="Helvetica,sans-Serif" font-size="10.00">gengeopop::GenGeoPopController</text>
<text text-anchor="middle" x="585" y="-154" font-family="Helvetica,sans-Serif" font-size="10.00">::ReadDataFiles</text>
</a>
</g>
</g>
<!-- Node11&#45;&gt;Node12 -->
<g id="edge12" class="edge"><title>Node11&#45;&gt;Node12</title>
<path fill="none" stroke="midnightblue" d="M451.812,-193.596C474.49,-188.176 499.289,-182.248 521.219,-177.006"/>
<polygon fill="midnightblue" stroke="midnightblue" points="450.812,-190.236 441.9,-195.965 452.44,-197.045 450.812,-190.236"/>
</g>
<!-- Node13 -->
<g id="node13" class="node"><title>Node13</title>
<g id="a_node13"><a xlink:href="../../d4/d81/a00110.html#a1a9f0c9424522454bc5f99419734993c" target="_top" xlink:title="Creates a population by generating it. ">
<polygon fill="white" stroke="black" points="704,-169 704,-199 816,-199 816,-169 704,-169"/>
<text text-anchor="start" x="712" y="-187" font-family="Helvetica,sans-Serif" font-size="10.00">stride::GenPopBuilder</text>
<text text-anchor="middle" x="760" y="-176" font-family="Helvetica,sans-Serif" font-size="10.00">::Build</text>
</a>
</g>
</g>
<!-- Node12&#45;&gt;Node13 -->
<g id="edge13" class="edge"><title>Node12&#45;&gt;Node13</title>
<path fill="none" stroke="midnightblue" d="M677.743,-173.667C686.64,-174.798 695.463,-175.92 703.833,-176.984"/>
<polygon fill="midnightblue" stroke="midnightblue" points="678.049,-170.178 667.687,-172.388 677.166,-177.122 678.049,-170.178"/>
</g>
<!-- Node15 -->
<g id="node15" class="node"><title>Node15</title>
<g id="a_node15"><a xlink:href="../../d3/dc9/a00355.html#a0ddf1224851353fc92bfbff6f499fa97" target="_top" xlink:title="main">
<polygon fill="white" stroke="black" points="741,-130.5 741,-149.5 779,-149.5 779,-130.5 741,-130.5"/>
<text text-anchor="middle" x="760" y="-137.5" font-family="Helvetica,sans-Serif" font-size="10.00">main</text>
</a>
</g>
</g>
<!-- Node12&#45;&gt;Node15 -->
<g id="edge15" class="edge"><title>Node12&#45;&gt;Node15</title>
<path fill="none" stroke="midnightblue" d="M677.676,-150.342C701.815,-147.272 725.414,-144.271 740.919,-142.299"/>
<polygon fill="midnightblue" stroke="midnightblue" points="677.166,-146.878 667.687,-151.612 678.049,-153.822 677.166,-146.878"/>
</g>
<!-- Node14 -->
<g id="node14" class="node"><title>Node14</title>
<g id="a_node14"><a xlink:href="../../d2/df5/a00137.html#ac9658f1a5fa801de6742a46efb85fb9c" target="_top" xlink:title="Create a Population for the given region parameters. ">
<polygon fill="white" stroke="black" points="852,-169 852,-199 944,-199 944,-169 852,-169"/>
<text text-anchor="start" x="860" y="-187" font-family="Helvetica,sans-Serif" font-size="10.00">stride::Population</text>
<text text-anchor="middle" x="898" y="-176" font-family="Helvetica,sans-Serif" font-size="10.00">::CreateRegion</text>
</a>
</g>
</g>
<!-- Node13&#45;&gt;Node14 -->
<g id="edge14" class="edge"><title>Node13&#45;&gt;Node14</title>
<path fill="none" stroke="midnightblue" d="M826.336,-184C834.922,-184 843.564,-184 851.714,-184"/>
<polygon fill="midnightblue" stroke="midnightblue" points="826.316,-180.5 816.316,-184 826.316,-187.5 826.316,-180.5"/>
</g>
<!-- Node16&#45;&gt;Node12 -->
<g id="edge17" class="edge"><title>Node16&#45;&gt;Node12</title>
<path fill="none" stroke="midnightblue" d="M455.639,-162C470.822,-162 486.816,-162 502.164,-162"/>
<polygon fill="midnightblue" stroke="midnightblue" points="455.275,-158.5 445.275,-162 455.274,-165.5 455.275,-158.5"/>
</g>
<!-- Node17&#45;&gt;Node12 -->
<g id="edge19" class="edge"><title>Node17&#45;&gt;Node12</title>
<path fill="none" stroke="midnightblue" d="M451.812,-130.404C474.49,-135.824 499.289,-141.752 521.219,-146.994"/>
<polygon fill="midnightblue" stroke="midnightblue" points="452.44,-126.955 441.9,-128.035 450.812,-133.764 452.44,-126.955"/>
</g>
<!-- Node19 -->
<g id="node19" class="node"><title>Node19</title>
<g id="a_node19"><a xlink:href="../../d1/d44/a00098.html#a2f1b3543ea350957ea793e6b2d3ae851" target="_top" xlink:title="Constructor. ">
<polygon fill="white" stroke="black" points="519.5,-54.5 519.5,-73.5 650.5,-73.5 650.5,-54.5 519.5,-54.5"/>
<text text-anchor="middle" x="585" y="-61.5" font-family="Helvetica,sans-Serif" font-size="10.00">stride::Calendar::Calendar</text>
</a>
</g>
</g>
<!-- Node18&#45;&gt;Node19 -->
<g id="edge21" class="edge"><title>Node18&#45;&gt;Node19</title>
<path fill="none" stroke="midnightblue" d="M452.396,-64C474.241,-64 498.009,-64 519.26,-64"/>
<polygon fill="midnightblue" stroke="midnightblue" points="452.18,-60.5001 442.179,-64 452.179,-67.5001 452.18,-60.5001"/>
</g>
<!-- Node21&#45;&gt;Node9 -->
<g id="edge25" class="edge"><title>Node21&#45;&gt;Node9</title>
<path fill="none" stroke="midnightblue" d="M448.413,-390.409C477.951,-383.348 511.595,-375.306 537.98,-369"/>
<polygon fill="midnightblue" stroke="midnightblue" points="447.482,-387.032 438.57,-392.761 449.11,-393.841 447.482,-387.032"/>
</g>
<!-- Node22&#45;&gt;Node9 -->
<g id="edge27" class="edge"><title>Node22&#45;&gt;Node9</title>
<path fill="none" stroke="midnightblue" d="M441.046,-358C472.199,-358 509.289,-358 537.882,-358"/>
<polygon fill="midnightblue" stroke="midnightblue" points="440.73,-354.5 430.73,-358 440.73,-361.5 440.73,-354.5"/>
</g>
<!-- Node23&#45;&gt;Node5 -->
<g id="edge29" class="edge"><title>Node23&#45;&gt;Node5</title>
<path fill="none" stroke="midnightblue" d="M263.83,-423.571C283.465,-429.198 305.282,-435.449 324.479,-440.95"/>
<polygon fill="midnightblue" stroke="midnightblue" points="264.665,-420.17 254.088,-420.78 262.737,-426.899 264.665,-420.17"/>
</g>
<!-- Node24&#45;&gt;Node5 -->
<g id="edge31" class="edge"><title>Node24&#45;&gt;Node5</title>
<path fill="none" stroke="midnightblue" d="M249.867,-378.763C251.295,-379.806 252.678,-380.885 254,-382 274.662,-399.417 267.827,-415.553 290,-431 299.542,-437.648 310.837,-442.541 322.074,-446.139"/>
<polygon fill="midnightblue" stroke="midnightblue" points="251.598,-375.714 241.309,-373.19 247.779,-381.58 251.598,-375.714"/>
</g>
</g>
</svg>
        <g id="navigator" transform="translate(0 0)" fill="#404254">
                <rect fill="#f2f5e9" fill-opacity="0.5" stroke="#606060" stroke-width=".5" x="0" y="0" width="60" height="60"/>
                <use id="zoomplus" xlink:href="#zoomPlus" x="17" y="9" onmousedown="handleZoom(evt,'in')"/>
                <use id="zoomminus" xlink:href="#zoomMin" x="42" y="9" onmousedown="handleZoom(evt,'out')"/>
                <use id="reset" xlink:href="#resetDef" x="30" y="36" onmousedown="handleReset()"/>
                <g id="arrowUp" xlink:href="#dirArrow" transform="translate(30 24)" onmousedown="handlePan(0,-1)">
                  <use xlink:href="#rim" fill="#404040">
                        <set attributeName="fill" to="#808080" begin="arrowUp.mouseover" end="arrowUp.mouseout"/>
                  </use>
                  <path fill="none" stroke="white" stroke-width="1.5" d="M0,-3.0v7 M-2.5,-0.5L0,-3.0L2.5,-0.5"/>
                </g>
                <g id="arrowRight" xlink:href="#dirArrow" transform="rotate(90) translate(36 -43)" onmousedown="handlePan(1,0)">
                  <use xlink:href="#rim" fill="#404040">
                        <set attributeName="fill" to="#808080" begin="arrowRight.mouseover" end="arrowRight.mouseout"/>
                  </use>
                  <path fill="none" stroke="white" stroke-width="1.5" d="M0,-3.0v7 M-2.5,-0.5L0,-3.0L2.5,-0.5"/>
                </g>
                <g id="arrowDown" xlink:href="#dirArrow" transform="rotate(180) translate(-30 -48)" onmousedown="handlePan(0,1)">
                  <use xlink:href="#rim" fill="#404040">
                        <set attributeName="fill" to="#808080" begin="arrowDown.mouseover" end="arrowDown.mouseout"/>
                  </use>
                  <path fill="none" stroke="white" stroke-width="1.5" d="M0,-3.0v7 M-2.5,-0.5L0,-3.0L2.5,-0.5"/>
                </g>
                <g id="arrowLeft" xlink:href="#dirArrow" transform="rotate(270) translate(-36 17)" onmousedown="handlePan(-1,0)">
                  <use xlink:href="#rim" fill="#404040">
                        <set attributeName="fill" to="#808080" begin="arrowLeft.mouseover" end="arrowLeft.mouseout"/>
                  </use>
                  <path fill="none" stroke="white" stroke-width="1.5" d="M0,-3.0v7 M-2.5,-0.5L0,-3.0L2.5,-0.5"/>
                </g>
        </g>
        <svg viewBox="0 0 15 15" width="100%" height="30px" preserveAspectRatio="xMaxYMin meet">
         <g id="arrow_out" transform="scale(0.3 0.3)">
          <a xlink:href="a00154_a811a1d113f57785952045d9541c95db5_icgraph_org.svg" target="_base">
           <rect id="button" ry="5" rx="5" y="6" x="6" height="38" width="38"
                fill="#f2f5e9" fill-opacity="0.5" stroke="#606060" stroke-width="1.0"/>
           <path id="arrow"
             d="M 11.500037,31.436501 C 11.940474,20.09759 22.043105,11.32322 32.158766,21.979434 L 37.068811,17.246167 C 37.068811,17.246167 37.088388,32 37.088388,32 L 22.160133,31.978069 C 22.160133,31.978069 26.997745,27.140456 26.997745,27.140456 C 18.528582,18.264221 13.291696,25.230495 11.500037,31.436501 z"
             style="fill:#404040;"/>
          </a>
         </g>
        </svg>
</svg>
