<?xml version="1.0" encoding="UTF-8" standalone="no"?>
<!DOCTYPE svg PUBLIC "-//W3C//DTD SVG 1.1//EN"
 "http://www.w3.org/Graphics/SVG/1.1/DTD/svg11.dtd">
<!-- Generated by graphviz version 2.36.0 (20140111.2315)
 -->
<!-- Title: stride::output::SummaryFile::Initialize Pages: 1 -->
<svg width="320pt" height="38pt"
 viewBox="0.00 0.00 320.00 38.00" xmlns="http://www.w3.org/2000/svg" xmlns:xlink="http://www.w3.org/1999/xlink">
<g id="graph0" class="graph" transform="scale(1 1) rotate(0) translate(4 34)">
<title>stride::output::SummaryFile::Initialize</title>
<polygon fill="white" stroke="none" points="-4,4 -4,-34 316,-34 316,4 -4,4"/>
<!-- Node1 -->
<g id="node1" class="node"><title>Node1</title>
<polygon fill="#bfbfbf" stroke="black" points="0.5,-0 0.5,-30 137.5,-30 137.5,-0 0.5,-0"/>
<text text-anchor="start" x="8.5" y="-18" font-family="Helvetica,sans-Serif" font-size="10.00">stride::output::SummaryFile</text>
<text text-anchor="middle" x="69" y="-7" font-family="Helvetica,sans-Serif" font-size="10.00">::Initialize</text>
</g>
<!-- Node2 -->
<g id="node2" class="node"><title>Node2</title>
<g id="a_node2"><a xlink:href="../../d5/d5b/a00135.html#a1f848c3aa92042b2fa7d399ad31b0e33" target="_top" xlink:title="Constructor: initialize. ">
<polygon fill="white" stroke="black" points="174.5,-0 174.5,-30 311.5,-30 311.5,-0 174.5,-0"/>
<text text-anchor="start" x="182.5" y="-18" font-family="Helvetica,sans-Serif" font-size="10.00">stride::output::SummaryFile</text>
<text text-anchor="middle" x="243" y="-7" font-family="Helvetica,sans-Serif" font-size="10.00">::SummaryFile</text>
</a>
</g>
</g>
<!-- Node1&#45;&gt;Node2 -->
<g id="edge1" class="edge"><title>Node1&#45;&gt;Node2</title>
<path fill="none" stroke="midnightblue" d="M148.134,-15C156.846,-15 165.666,-15 174.233,-15"/>
<polygon fill="midnightblue" stroke="midnightblue" points="147.979,-11.5001 137.979,-15 147.979,-18.5001 147.979,-11.5001"/>
</g>
</g>
</svg>
