<?xml version="1.0" encoding="UTF-8" standalone="no"?>
<!DOCTYPE svg PUBLIC "-//W3C//DTD SVG 1.1//EN"
 "http://www.w3.org/Graphics/SVG/1.1/DTD/svg11.dtd">
<!-- Generated by graphviz version 2.36.0 (20140111.2315)
 -->
<!-- Title: GeoGridReaderFactory.h Pages: 1 -->
<svg width="362pt" height="84pt"
 viewBox="0.00 0.00 362.00 84.00" xmlns="http://www.w3.org/2000/svg" xmlns:xlink="http://www.w3.org/1999/xlink">
<g id="graph0" class="graph" transform="scale(1 1) rotate(0) translate(4 80)">
<title>GeoGridReaderFactory.h</title>
<polygon fill="white" stroke="none" points="-4,4 -4,-80 358,-80 358,4 -4,4"/>
<!-- Node1 -->
<g id="node1" class="node"><title>Node1</title>
<polygon fill="#bfbfbf" stroke="black" points="127.5,-56.5 127.5,-75.5 252.5,-75.5 252.5,-56.5 127.5,-56.5"/>
<text text-anchor="middle" x="190" y="-63.5" font-family="Helvetica,sans-Serif" font-size="10.00">GeoGridReaderFactory.h</text>
</g>
<!-- Node2 -->
<g id="node2" class="node"><title>Node2</title>
<g id="a_node2"><a xlink:href="../../d6/d82/a00293.html" target="_top" xlink:title="GeoGridReaderFactory.cpp">
<polygon fill="white" stroke="black" points="0,-0.5 0,-19.5 136,-19.5 136,-0.5 0,-0.5"/>
<text text-anchor="middle" x="68" y="-7.5" font-family="Helvetica,sans-Serif" font-size="10.00">GeoGridReaderFactory.cpp</text>
</a>
</g>
</g>
<!-- Node1&#45;&gt;Node2 -->
<g id="edge1" class="edge"><title>Node1&#45;&gt;Node2</title>
<path fill="none" stroke="midnightblue" d="M161.461,-52.3678C138.614,-42.2553 107.195,-28.3486 87.2408,-19.5164"/>
<polygon fill="midnightblue" stroke="midnightblue" points="160.108,-55.5965 170.669,-56.4435 162.941,-49.1955 160.108,-55.5965"/>
</g>
<!-- Node3 -->
<g id="node3" class="node"><title>Node3</title>
<g id="a_node3"><a xlink:href="../../da/d15/a00188.html" target="_top" xlink:title="backend.cpp">
<polygon fill="white" stroke="black" points="154,-0.5 154,-19.5 226,-19.5 226,-0.5 154,-0.5"/>
<text text-anchor="middle" x="190" y="-7.5" font-family="Helvetica,sans-Serif" font-size="10.00">backend.cpp</text>
</a>
</g>
</g>
<!-- Node1&#45;&gt;Node3 -->
<g id="edge2" class="edge"><title>Node1&#45;&gt;Node3</title>
<path fill="none" stroke="midnightblue" d="M190,-45.8045C190,-36.9102 190,-26.7798 190,-19.7511"/>
<polygon fill="midnightblue" stroke="midnightblue" points="186.5,-46.083 190,-56.083 193.5,-46.083 186.5,-46.083"/>
</g>
<!-- Node4 -->
<g id="node4" class="node"><title>Node4</title>
<g id="a_node4"><a xlink:href="../../d4/d8f/a00324.html" target="_top" xlink:title="Initialize populations: implementation. ">
<polygon fill="white" stroke="black" points="244,-0.5 244,-19.5 354,-19.5 354,-0.5 244,-0.5"/>
<text text-anchor="middle" x="299" y="-7.5" font-family="Helvetica,sans-Serif" font-size="10.00">ImportPopBuilder.cpp</text>
</a>
</g>
</g>
<!-- Node1&#45;&gt;Node4 -->
<g id="edge3" class="edge"><title>Node1&#45;&gt;Node4</title>
<path fill="none" stroke="midnightblue" d="M216.519,-51.8622C236.73,-41.8492 263.987,-28.3458 281.531,-19.6545"/>
<polygon fill="midnightblue" stroke="midnightblue" points="214.92,-48.7485 207.513,-56.324 218.027,-55.0209 214.92,-48.7485"/>
</g>
</g>
</svg>
