<?xml version="1.0" encoding="UTF-8" standalone="no"?>
<!DOCTYPE svg PUBLIC "-//W3C//DTD SVG 1.1//EN"
 "http://www.w3.org/Graphics/SVG/1.1/DTD/svg11.dtd">
<!-- Generated by graphviz version 2.36.0 (20140111.2315)
 -->
<!-- Title: calibration::Calibrator::WriteResults Pages: 1 -->
<svg width="418pt" height="126pt"
 viewBox="0.00 0.00 418.00 126.00" xmlns="http://www.w3.org/2000/svg" xmlns:xlink="http://www.w3.org/1999/xlink">
<g id="graph0" class="graph" transform="scale(1 1) rotate(0) translate(4 122)">
<title>calibration::Calibrator::WriteResults</title>
<polygon fill="white" stroke="none" points="-4,4 -4,-122 414,-122 414,4 -4,4"/>
<!-- Node1 -->
<g id="node1" class="node"><title>Node1</title>
<polygon fill="#bfbfbf" stroke="black" points="0.5,-44 0.5,-74 109.5,-74 109.5,-44 0.5,-44"/>
<text text-anchor="start" x="8.5" y="-62" font-family="Helvetica,sans-Serif" font-size="10.00">calibration::Calibrator</text>
<text text-anchor="middle" x="55" y="-51" font-family="Helvetica,sans-Serif" font-size="10.00">::WriteResults</text>
</g>
<!-- Node2 -->
<g id="node2" class="node"><title>Node2</title>
<g id="a_node2"><a xlink:href="../../de/d5e/a00007.html#af8b178d65d86a347c098be6cc9f031cc" target="_top" xlink:title="Write the mean and standard deviation for each step in the results obtained by RunMultiple to a file...">
<polygon fill="white" stroke="black" points="146.5,-88 146.5,-118 259.5,-118 259.5,-88 146.5,-88"/>
<text text-anchor="start" x="154.5" y="-106" font-family="Helvetica,sans-Serif" font-size="10.00">calibration::Calibrator</text>
<text text-anchor="middle" x="203" y="-95" font-family="Helvetica,sans-Serif" font-size="10.00">::WriteMultipleResults</text>
</a>
</g>
</g>
<!-- Node1&#45;&gt;Node2 -->
<g id="edge1" class="edge"><title>Node1&#45;&gt;Node2</title>
<path fill="none" stroke="midnightblue" d="M115.77,-77.0129C127.769,-80.6292 140.262,-84.3941 151.892,-87.8991"/>
<polygon fill="midnightblue" stroke="midnightblue" points="116.421,-73.5537 105.837,-74.0192 114.401,-80.2559 116.421,-73.5537"/>
</g>
<!-- Node3 -->
<g id="node3" class="node"><title>Node3</title>
<g id="a_node3"><a xlink:href="../../de/d21/a00006.html#ac596212f606c487e3ed6c642c544577b" target="_top" xlink:title="Write the results to their respective files (based on testcase name) ">
<polygon fill="white" stroke="black" points="296.5,-44 296.5,-74 409.5,-74 409.5,-44 296.5,-44"/>
<text text-anchor="start" x="304.5" y="-62" font-family="Helvetica,sans-Serif" font-size="10.00">calibration::Calibration</text>
<text text-anchor="middle" x="353" y="-51" font-family="Helvetica,sans-Serif" font-size="10.00">Runner::WriteResults</text>
</a>
</g>
</g>
<!-- Node1&#45;&gt;Node3 -->
<g id="edge3" class="edge"><title>Node1&#45;&gt;Node3</title>
<path fill="none" stroke="midnightblue" d="M119.815,-59C172.353,-59 246.096,-59 296.283,-59"/>
<polygon fill="midnightblue" stroke="midnightblue" points="119.603,-55.5001 109.603,-59 119.603,-62.5001 119.603,-55.5001"/>
</g>
<!-- Node4 -->
<g id="node4" class="node"><title>Node4</title>
<g id="a_node4"><a xlink:href="../../de/d5e/a00007.html#a046ac3c5adc99f520480f49480ef0d86" target="_top" xlink:title="Write the exact results obtained by RunSingle to a file. ">
<polygon fill="white" stroke="black" points="148.5,-0 148.5,-30 257.5,-30 257.5,-0 148.5,-0"/>
<text text-anchor="start" x="156.5" y="-18" font-family="Helvetica,sans-Serif" font-size="10.00">calibration::Calibrator</text>
<text text-anchor="middle" x="203" y="-7" font-family="Helvetica,sans-Serif" font-size="10.00">::WriteSingleResults</text>
</a>
</g>
</g>
<!-- Node1&#45;&gt;Node4 -->
<g id="edge4" class="edge"><title>Node1&#45;&gt;Node4</title>
<path fill="none" stroke="midnightblue" d="M115.77,-40.9871C127.769,-37.3708 140.262,-33.6059 151.892,-30.1009"/>
<polygon fill="midnightblue" stroke="midnightblue" points="114.401,-37.7441 105.837,-43.9808 116.421,-44.4463 114.401,-37.7441"/>
</g>
<!-- Node2&#45;&gt;Node3 -->
<g id="edge2" class="edge"><title>Node2&#45;&gt;Node3</title>
<path fill="none" stroke="midnightblue" d="M264.279,-85.0793C276.624,-81.4092 289.496,-77.5821 301.457,-74.0262"/>
<polygon fill="midnightblue" stroke="midnightblue" points="263.107,-81.7761 254.519,-87.9808 265.102,-88.4859 263.107,-81.7761"/>
</g>
<!-- Node4&#45;&gt;Node3 -->
<g id="edge5" class="edge"><title>Node4&#45;&gt;Node3</title>
<path fill="none" stroke="midnightblue" d="M264.279,-32.9207C276.624,-36.5908 289.496,-40.4179 301.457,-43.9738"/>
<polygon fill="midnightblue" stroke="midnightblue" points="265.102,-29.5141 254.519,-30.0192 263.107,-36.2239 265.102,-29.5141"/>
</g>
</g>
</svg>
