<?xml version="1.0" encoding="UTF-8" standalone="no"?>
<!DOCTYPE svg PUBLIC "-//W3C//DTD SVG 1.1//EN"
 "http://www.w3.org/Graphics/SVG/1.1/DTD/svg11.dtd">
<!-- Generated by graphviz version 2.36.0 (20140111.2315)
 -->
<!-- Title: calibration::Calibrator::PrintMultipleResults Pages: 1 -->
<svg width="410pt" height="38pt"
 viewBox="0.00 0.00 410.00 38.00" xmlns="http://www.w3.org/2000/svg" xmlns:xlink="http://www.w3.org/1999/xlink">
<g id="graph0" class="graph" transform="scale(1 1) rotate(0) translate(4 34)">
<title>calibration::Calibrator::PrintMultipleResults</title>
<polygon fill="white" stroke="none" points="-4,4 -4,-34 406,-34 406,4 -4,4"/>
<!-- Node1 -->
<g id="node1" class="node"><title>Node1</title>
<polygon fill="#bfbfbf" stroke="black" points="0,-0 0,-30 110,-30 110,-0 0,-0"/>
<text text-anchor="start" x="8" y="-18" font-family="Helvetica,sans-Serif" font-size="10.00">calibration::Calibrator</text>
<text text-anchor="middle" x="55" y="-7" font-family="Helvetica,sans-Serif" font-size="10.00">::PrintMultipleResults</text>
</g>
<!-- Node2 -->
<g id="node2" class="node"><title>Node2</title>
<g id="a_node2"><a xlink:href="../../de/d5e/a00007.html#a6051757f0d88bc0b388bff42f5c25869" target="_top" xlink:title="Print the mean and standard deviation of the given numbers, name and step. ">
<polygon fill="white" stroke="black" points="146.5,-0 146.5,-30 255.5,-30 255.5,-0 146.5,-0"/>
<text text-anchor="start" x="154.5" y="-18" font-family="Helvetica,sans-Serif" font-size="10.00">calibration::Calibrator</text>
<text text-anchor="middle" x="201" y="-7" font-family="Helvetica,sans-Serif" font-size="10.00">::PrintStep</text>
</a>
</g>
</g>
<!-- Node1&#45;&gt;Node2 -->
<g id="edge1" class="edge"><title>Node1&#45;&gt;Node2</title>
<path fill="none" stroke="midnightblue" d="M110.03,-15C118.519,-15 127.365,-15 136.052,-15"/>
<polygon fill="midnightblue" stroke="midnightblue" points="136.146,-18.5001 146.146,-15 136.146,-11.5001 136.146,-18.5001"/>
</g>
<!-- Node3 -->
<g id="node3" class="node"><title>Node3</title>
<g id="a_node3"><a xlink:href="../../de/d5e/a00007.html#acffd4064a0ca1fe9e249167bb0acbcec" target="_top" xlink:title="Compute the mean and standard deviation of the given numbers and return (mean, stdev). ">
<polygon fill="white" stroke="black" points="292.5,-0 292.5,-30 401.5,-30 401.5,-0 292.5,-0"/>
<text text-anchor="start" x="300.5" y="-18" font-family="Helvetica,sans-Serif" font-size="10.00">calibration::Calibrator</text>
<text text-anchor="middle" x="347" y="-7" font-family="Helvetica,sans-Serif" font-size="10.00">::FindMeanStdev</text>
</a>
</g>
</g>
<!-- Node2&#45;&gt;Node3 -->
<g id="edge2" class="edge"><title>Node2&#45;&gt;Node3</title>
<path fill="none" stroke="midnightblue" d="M255.62,-15C264.241,-15 273.239,-15 282.073,-15"/>
<polygon fill="midnightblue" stroke="midnightblue" points="282.335,-18.5001 292.335,-15 282.335,-11.5001 282.335,-18.5001"/>
</g>
</g>
</svg>
