<?xml version="1.0" encoding="UTF-8" standalone="no"?>
<!DOCTYPE svg PUBLIC "-//W3C//DTD SVG 1.1//EN"
 "http://www.w3.org/Graphics/SVG/1.1/DTD/svg11.dtd">
<!-- Generated by graphviz version 2.36.0 (20140111.2315)
 -->
<!-- Title: calibration::Calibrator::PrintMultipleResultsAtStep Pages: 1 -->
<svg width="440pt" height="38pt"
 viewBox="0.00 0.00 440.00 38.00" xmlns="http://www.w3.org/2000/svg" xmlns:xlink="http://www.w3.org/1999/xlink">
<g id="graph0" class="graph" transform="scale(1 1) rotate(0) translate(4 34)">
<title>calibration::Calibrator::PrintMultipleResultsAtStep</title>
<polygon fill="white" stroke="none" points="-4,4 -4,-34 436,-34 436,4 -4,4"/>
<!-- Node1 -->
<g id="node1" class="node"><title>Node1</title>
<polygon fill="#bfbfbf" stroke="black" points="0,-0 0,-30 140,-30 140,-0 0,-0"/>
<text text-anchor="start" x="8" y="-18" font-family="Helvetica,sans-Serif" font-size="10.00">calibration::Calibrator</text>
<text text-anchor="middle" x="70" y="-7" font-family="Helvetica,sans-Serif" font-size="10.00">::PrintMultipleResultsAtStep</text>
</g>
<!-- Node2 -->
<g id="node2" class="node"><title>Node2</title>
<g id="a_node2"><a xlink:href="../../de/d5e/a00007.html#a6051757f0d88bc0b388bff42f5c25869" target="_top" xlink:title="Print the mean and standard deviation of the given numbers, name and step. ">
<polygon fill="white" stroke="black" points="176.5,-0 176.5,-30 285.5,-30 285.5,-0 176.5,-0"/>
<text text-anchor="start" x="184.5" y="-18" font-family="Helvetica,sans-Serif" font-size="10.00">calibration::Calibrator</text>
<text text-anchor="middle" x="231" y="-7" font-family="Helvetica,sans-Serif" font-size="10.00">::PrintStep</text>
</a>
</g>
</g>
<!-- Node1&#45;&gt;Node2 -->
<g id="edge1" class="edge"><title>Node1&#45;&gt;Node2</title>
<path fill="none" stroke="midnightblue" d="M140.277,-15C148.845,-15 157.573,-15 166.055,-15"/>
<polygon fill="midnightblue" stroke="midnightblue" points="166.253,-18.5001 176.253,-15 166.253,-11.5001 166.253,-18.5001"/>
</g>
<!-- Node3 -->
<g id="node3" class="node"><title>Node3</title>
<g id="a_node3"><a xlink:href="../../de/d5e/a00007.html#acffd4064a0ca1fe9e249167bb0acbcec" target="_top" xlink:title="Compute the mean and standard deviation of the given numbers and return (mean, stdev). ">
<polygon fill="white" stroke="black" points="322.5,-0 322.5,-30 431.5,-30 431.5,-0 322.5,-0"/>
<text text-anchor="start" x="330.5" y="-18" font-family="Helvetica,sans-Serif" font-size="10.00">calibration::Calibrator</text>
<text text-anchor="middle" x="377" y="-7" font-family="Helvetica,sans-Serif" font-size="10.00">::FindMeanStdev</text>
</a>
</g>
</g>
<!-- Node2&#45;&gt;Node3 -->
<g id="edge2" class="edge"><title>Node2&#45;&gt;Node3</title>
<path fill="none" stroke="midnightblue" d="M285.62,-15C294.241,-15 303.239,-15 312.073,-15"/>
<polygon fill="midnightblue" stroke="midnightblue" points="312.335,-18.5001 322.335,-15 312.335,-11.5001 312.335,-18.5001"/>
</g>
</g>
</svg>
