<?xml version="1.0" encoding="UTF-8" standalone="no"?>
<!DOCTYPE svg PUBLIC "-//W3C//DTD SVG 1.1//EN"
 "http://www.w3.org/Graphics/SVG/1.1/DTD/svg11.dtd">
<!-- Generated by graphviz version 2.36.0 (20140111.2315)
 -->
<!-- Title: calibration::Calibrator::CreateRNManager Pages: 1 -->
<svg width="414pt" height="87pt"
 viewBox="0.00 0.00 414.00 87.00" xmlns="http://www.w3.org/2000/svg" xmlns:xlink="http://www.w3.org/1999/xlink">
<g id="graph0" class="graph" transform="scale(1 1) rotate(0) translate(4 83)">
<title>calibration::Calibrator::CreateRNManager</title>
<polygon fill="white" stroke="none" points="-4,4 -4,-83 410,-83 410,4 -4,4"/>
<!-- Node1 -->
<g id="node1" class="node"><title>Node1</title>
<polygon fill="#bfbfbf" stroke="black" points="0.5,-24 0.5,-54 109.5,-54 109.5,-24 0.5,-24"/>
<text text-anchor="start" x="8.5" y="-42" font-family="Helvetica,sans-Serif" font-size="10.00">calibration::Calibrator</text>
<text text-anchor="middle" x="55" y="-31" font-family="Helvetica,sans-Serif" font-size="10.00">::CreateRNManager</text>
</g>
<!-- Node2 -->
<g id="node2" class="node"><title>Node2</title>
<g id="a_node2"><a xlink:href="../../de/d5e/a00007.html#a26ee572195c295b6735b370ca3dab8b0" target="_top" xlink:title="Run count simulations for each config by varying the seed and return the infected counts after each t...">
<polygon fill="white" stroke="black" points="146.5,-49 146.5,-79 255.5,-79 255.5,-49 146.5,-49"/>
<text text-anchor="start" x="154.5" y="-67" font-family="Helvetica,sans-Serif" font-size="10.00">calibration::Calibrator</text>
<text text-anchor="middle" x="201" y="-56" font-family="Helvetica,sans-Serif" font-size="10.00">::RunMultiple</text>
</a>
</g>
</g>
<!-- Node1&#45;&gt;Node2 -->
<g id="edge1" class="edge"><title>Node1&#45;&gt;Node2</title>
<path fill="none" stroke="midnightblue" d="M119.593,-50.0405C128.519,-51.5901 137.619,-53.1699 146.335,-54.6831"/>
<polygon fill="midnightblue" stroke="midnightblue" points="120.072,-46.5713 109.62,-48.3091 118.874,-53.4681 120.072,-46.5713"/>
</g>
<!-- Node4 -->
<g id="node4" class="node"><title>Node4</title>
<g id="a_node4"><a xlink:href="../../de/d5e/a00007.html#a83f2d479f8ff86e01a3d1f2c2aeadb39" target="_top" xlink:title="Run one simulation for each config and return the infected counts after each timestep. ">
<polygon fill="white" stroke="black" points="146.5,-0 146.5,-30 255.5,-30 255.5,-0 146.5,-0"/>
<text text-anchor="start" x="154.5" y="-18" font-family="Helvetica,sans-Serif" font-size="10.00">calibration::Calibrator</text>
<text text-anchor="middle" x="201" y="-7" font-family="Helvetica,sans-Serif" font-size="10.00">::RunSingle</text>
</a>
</g>
</g>
<!-- Node1&#45;&gt;Node4 -->
<g id="edge3" class="edge"><title>Node1&#45;&gt;Node4</title>
<path fill="none" stroke="midnightblue" d="M119.593,-28.4011C128.519,-26.9135 137.619,-25.3969 146.335,-23.9442"/>
<polygon fill="midnightblue" stroke="midnightblue" points="118.909,-24.9668 109.62,-30.0633 120.06,-31.8716 118.909,-24.9668"/>
</g>
<!-- Node3 -->
<g id="node3" class="node"><title>Node3</title>
<g id="a_node3"><a xlink:href="../../de/d21/a00006.html#a15b5bc2c7261304c0613ffad908e5a2b" target="_top" xlink:title="Run the Calibrator. ">
<polygon fill="white" stroke="black" points="292.5,-24 292.5,-54 405.5,-54 405.5,-24 292.5,-24"/>
<text text-anchor="start" x="300.5" y="-42" font-family="Helvetica,sans-Serif" font-size="10.00">calibration::Calibration</text>
<text text-anchor="middle" x="349" y="-31" font-family="Helvetica,sans-Serif" font-size="10.00">Runner::Run</text>
</a>
</g>
</g>
<!-- Node2&#45;&gt;Node3 -->
<g id="edge2" class="edge"><title>Node2&#45;&gt;Node3</title>
<path fill="none" stroke="midnightblue" d="M265.421,-53.1402C274.273,-51.6244 283.317,-50.0758 292.019,-48.5858"/>
<polygon fill="midnightblue" stroke="midnightblue" points="264.802,-49.6952 255.536,-54.8329 265.983,-56.5948 264.802,-49.6952"/>
</g>
<!-- Node4&#45;&gt;Node3 -->
<g id="edge4" class="edge"><title>Node4&#45;&gt;Node3</title>
<path fill="none" stroke="midnightblue" d="M265.421,-25.4254C274.273,-26.8806 283.317,-28.3672 292.019,-29.7976"/>
<polygon fill="midnightblue" stroke="midnightblue" points="265.971,-21.9689 255.536,-23.8004 264.836,-28.8762 265.971,-21.9689"/>
</g>
</g>
</svg>
