<?xml version="1.0" encoding="UTF-8" standalone="no"?>
<!DOCTYPE svg PUBLIC "-//W3C//DTD SVG 1.1//EN"
 "http://www.w3.org/Graphics/SVG/1.1/DTD/svg11.dtd">
<!-- Generated by graphviz version 2.36.0 (20140111.2315)
 -->
<!-- Title: calibration::Calibrator::PrintStep Pages: 1 -->
<svg width="444pt" height="87pt"
 viewBox="0.00 0.00 444.00 87.00" xmlns="http://www.w3.org/2000/svg" xmlns:xlink="http://www.w3.org/1999/xlink">
<g id="graph0" class="graph" transform="scale(1 1) rotate(0) translate(4 83)">
<title>calibration::Calibrator::PrintStep</title>
<polygon fill="white" stroke="none" points="-4,4 -4,-83 440,-83 440,4 -4,4"/>
<!-- Node1 -->
<g id="node1" class="node"><title>Node1</title>
<polygon fill="#bfbfbf" stroke="black" points="0.5,-24 0.5,-54 109.5,-54 109.5,-24 0.5,-24"/>
<text text-anchor="start" x="8.5" y="-42" font-family="Helvetica,sans-Serif" font-size="10.00">calibration::Calibrator</text>
<text text-anchor="middle" x="55" y="-31" font-family="Helvetica,sans-Serif" font-size="10.00">::PrintStep</text>
</g>
<!-- Node2 -->
<g id="node2" class="node"><title>Node2</title>
<g id="a_node2"><a xlink:href="../../de/d5e/a00007.html#a411d0e7a89bbfa60244f9c09e4d5f24d" target="_top" xlink:title="Print the mean and standard deviation for the last step in the results obtained by RunMultiple to the...">
<polygon fill="white" stroke="black" points="161,-49 161,-79 271,-79 271,-49 161,-49"/>
<text text-anchor="start" x="169" y="-67" font-family="Helvetica,sans-Serif" font-size="10.00">calibration::Calibrator</text>
<text text-anchor="middle" x="216" y="-56" font-family="Helvetica,sans-Serif" font-size="10.00">::PrintMultipleResults</text>
</a>
</g>
</g>
<!-- Node1&#45;&gt;Node2 -->
<g id="edge1" class="edge"><title>Node1&#45;&gt;Node2</title>
<path fill="none" stroke="midnightblue" d="M120.054,-49.0713C133.618,-51.204 147.806,-53.4348 160.955,-55.5023"/>
<polygon fill="midnightblue" stroke="midnightblue" points="120.252,-45.5597 109.83,-47.4639 119.165,-52.4747 120.252,-45.5597"/>
</g>
<!-- Node4 -->
<g id="node4" class="node"><title>Node4</title>
<g id="a_node4"><a xlink:href="../../de/d5e/a00007.html#ad11877c75ed07f1576fd185ec33027d6" target="_top" xlink:title="Print the mean and standard deviation for each step in the results obtained by RunMultiple to the Log...">
<polygon fill="white" stroke="black" points="146,-0 146,-30 286,-30 286,-0 146,-0"/>
<text text-anchor="start" x="154" y="-18" font-family="Helvetica,sans-Serif" font-size="10.00">calibration::Calibrator</text>
<text text-anchor="middle" x="216" y="-7" font-family="Helvetica,sans-Serif" font-size="10.00">::PrintMultipleResultsAtStep</text>
</a>
</g>
</g>
<!-- Node1&#45;&gt;Node4 -->
<g id="edge3" class="edge"><title>Node1&#45;&gt;Node4</title>
<path fill="none" stroke="midnightblue" d="M119.727,-29.3809C128.278,-28.0902 137.082,-26.7612 145.723,-25.4569"/>
<polygon fill="midnightblue" stroke="midnightblue" points="119.196,-25.9213 109.83,-30.8747 120.241,-32.8429 119.196,-25.9213"/>
</g>
<!-- Node3 -->
<g id="node3" class="node"><title>Node3</title>
<g id="a_node3"><a xlink:href="../../de/d21/a00006.html#a15b5bc2c7261304c0613ffad908e5a2b" target="_top" xlink:title="Run the Calibrator. ">
<polygon fill="white" stroke="black" points="322.5,-49 322.5,-79 435.5,-79 435.5,-49 322.5,-49"/>
<text text-anchor="start" x="330.5" y="-67" font-family="Helvetica,sans-Serif" font-size="10.00">calibration::Calibration</text>
<text text-anchor="middle" x="379" y="-56" font-family="Helvetica,sans-Serif" font-size="10.00">Runner::Run</text>
</a>
</g>
</g>
<!-- Node2&#45;&gt;Node3 -->
<g id="edge2" class="edge"><title>Node2&#45;&gt;Node3</title>
<path fill="none" stroke="midnightblue" d="M281.314,-64C294.926,-64 309.181,-64 322.435,-64"/>
<polygon fill="midnightblue" stroke="midnightblue" points="281.059,-60.5001 271.059,-64 281.059,-67.5001 281.059,-60.5001"/>
</g>
</g>
</svg>
