<?xml version="1.0" encoding="UTF-8" standalone="no"?>
<!DOCTYPE svg PUBLIC "-//W3C//DTD SVG 1.1//EN"
 "http://www.w3.org/Graphics/SVG/1.1/DTD/svg11.dtd">
<!-- Generated by graphviz version 2.36.0 (20140111.2315)
 -->
<!-- Title: proto::GeoGrid_Location_Coordinate::set_longitude Pages: 1 -->
<svg width="332pt" height="38pt"
 viewBox="0.00 0.00 332.00 38.00" xmlns="http://www.w3.org/2000/svg" xmlns:xlink="http://www.w3.org/1999/xlink">
<g id="graph0" class="graph" transform="scale(1 1) rotate(0) translate(4 34)">
<title>proto::GeoGrid_Location_Coordinate::set_longitude</title>
<polygon fill="white" stroke="none" points="-4,4 -4,-34 328,-34 328,4 -4,4"/>
<!-- Node1 -->
<g id="node1" class="node"><title>Node1</title>
<polygon fill="#bfbfbf" stroke="black" points="0.5,-0 0.5,-30 133.5,-30 133.5,-0 0.5,-0"/>
<text text-anchor="start" x="8.5" y="-18" font-family="Helvetica,sans-Serif" font-size="10.00">proto::GeoGrid_Location</text>
<text text-anchor="middle" x="67" y="-7" font-family="Helvetica,sans-Serif" font-size="10.00">_Coordinate::set_longitude</text>
</g>
<!-- Node2 -->
<g id="node2" class="node"><title>Node2</title>
<g id="a_node2"><a xlink:href="../../da/d2a/a00086.html#abc74541cc879e27256db7d1f1cb21440" target="_top" xlink:title="proto::GeoGrid_Location\l_Coordinate::set_has_longitude">
<polygon fill="white" stroke="black" points="170,-0 170,-30 324,-30 324,-0 170,-0"/>
<text text-anchor="start" x="178" y="-18" font-family="Helvetica,sans-Serif" font-size="10.00">proto::GeoGrid_Location</text>
<text text-anchor="middle" x="247" y="-7" font-family="Helvetica,sans-Serif" font-size="10.00">_Coordinate::set_has_longitude</text>
</a>
</g>
</g>
<!-- Node1&#45;&gt;Node2 -->
<g id="edge1" class="edge"><title>Node1&#45;&gt;Node2</title>
<path fill="none" stroke="midnightblue" d="M133.522,-15C142.001,-15 150.786,-15 159.538,-15"/>
<polygon fill="midnightblue" stroke="midnightblue" points="159.776,-18.5001 169.776,-15 159.776,-11.5001 159.776,-18.5001"/>
</g>
</g>
</svg>
