<?xml version="1.0" encoding="UTF-8" standalone="no"?>
<!DOCTYPE svg PUBLIC "-//W3C//DTD SVG 1.1//EN"
 "http://www.w3.org/Graphics/SVG/1.1/DTD/svg11.dtd">
<!-- Generated by graphviz version 2.36.0 (20140111.2315)
 -->
<!-- Title: proto::GeoGrid_Location_Coordinate::set_has_longitude Pages: 1 -->
<svg width="908pt" height="38pt"
 viewBox="0.00 0.00 908.00 38.00" xmlns="http://www.w3.org/2000/svg" xmlns:xlink="http://www.w3.org/1999/xlink">
<g id="graph0" class="graph" transform="scale(1 1) rotate(0) translate(4 34)">
<title>proto::GeoGrid_Location_Coordinate::set_has_longitude</title>
<polygon fill="white" stroke="none" points="-4,4 -4,-34 904,-34 904,4 -4,4"/>
<!-- Node1 -->
<g id="node1" class="node"><title>Node1</title>
<polygon fill="#bfbfbf" stroke="black" points="0,-0 0,-30 154,-30 154,-0 0,-0"/>
<text text-anchor="start" x="8" y="-18" font-family="Helvetica,sans-Serif" font-size="10.00">proto::GeoGrid_Location</text>
<text text-anchor="middle" x="77" y="-7" font-family="Helvetica,sans-Serif" font-size="10.00">_Coordinate::set_has_longitude</text>
</g>
<!-- Node2 -->
<g id="node2" class="node"><title>Node2</title>
<g id="a_node2"><a xlink:href="../../da/d2a/a00086.html#a41462bd58d029d61dcb0fb40238b0285" target="_top" xlink:title="proto::GeoGrid_Location\l_Coordinate::set_longitude">
<polygon fill="white" stroke="black" points="190.5,-0 190.5,-30 323.5,-30 323.5,-0 190.5,-0"/>
<text text-anchor="start" x="198.5" y="-18" font-family="Helvetica,sans-Serif" font-size="10.00">proto::GeoGrid_Location</text>
<text text-anchor="middle" x="257" y="-7" font-family="Helvetica,sans-Serif" font-size="10.00">_Coordinate::set_longitude</text>
</a>
</g>
</g>
<!-- Node1&#45;&gt;Node2 -->
<g id="edge1" class="edge"><title>Node1&#45;&gt;Node2</title>
<path fill="none" stroke="midnightblue" d="M164.267,-15C173.04,-15 181.849,-15 190.351,-15"/>
<polygon fill="midnightblue" stroke="midnightblue" points="164.004,-11.5001 154.004,-15 164.004,-18.5001 164.004,-11.5001"/>
</g>
<!-- Node3 -->
<g id="node3" class="node"><title>Node3</title>
<g id="a_node3"><a xlink:href="../../db/d3a/a00040.html#a7909bc4f9f4d5d20737a5f1777b90fa4" target="_top" xlink:title="Create a ProtoBuf Coordinate containing all the information needed to reconstruct a Coordinate...">
<polygon fill="white" stroke="black" points="360.5,-0 360.5,-30 515.5,-30 515.5,-0 360.5,-0"/>
<text text-anchor="start" x="368.5" y="-18" font-family="Helvetica,sans-Serif" font-size="10.00">gengeopop::GeoGridProtoWriter</text>
<text text-anchor="middle" x="438" y="-7" font-family="Helvetica,sans-Serif" font-size="10.00">::WriteCoordinate</text>
</a>
</g>
</g>
<!-- Node2&#45;&gt;Node3 -->
<g id="edge2" class="edge"><title>Node2&#45;&gt;Node3</title>
<path fill="none" stroke="midnightblue" d="M333.864,-15C342.665,-15 351.645,-15 360.455,-15"/>
<polygon fill="midnightblue" stroke="midnightblue" points="333.637,-11.5001 323.637,-15 333.637,-18.5001 333.637,-11.5001"/>
</g>
<!-- Node4 -->
<g id="node4" class="node"><title>Node4</title>
<g id="a_node4"><a xlink:href="../../db/d3a/a00040.html#a2b0641108a2e713aa25c5969939a3c14" target="_top" xlink:title="Create a ProtoBuf Location containing all the information needed to reconstruct a Location...">
<polygon fill="white" stroke="black" points="552.5,-0 552.5,-30 707.5,-30 707.5,-0 552.5,-0"/>
<text text-anchor="start" x="560.5" y="-18" font-family="Helvetica,sans-Serif" font-size="10.00">gengeopop::GeoGridProtoWriter</text>
<text text-anchor="middle" x="630" y="-7" font-family="Helvetica,sans-Serif" font-size="10.00">::WriteLocation</text>
</a>
</g>
</g>
<!-- Node3&#45;&gt;Node4 -->
<g id="edge3" class="edge"><title>Node3&#45;&gt;Node4</title>
<path fill="none" stroke="midnightblue" d="M525.978,-15C534.758,-15 543.629,-15 552.29,-15"/>
<polygon fill="midnightblue" stroke="midnightblue" points="525.733,-11.5001 515.733,-15 525.733,-18.5001 525.733,-11.5001"/>
</g>
<!-- Node5 -->
<g id="node5" class="node"><title>Node5</title>
<g id="a_node5"><a xlink:href="../../db/d3a/a00040.html#a3163b8464f599d204597a01dfc47f08f" target="_top" xlink:title="Write the provided GeoGrid to the proved ostream in Protobuf format. ">
<polygon fill="white" stroke="black" points="744.5,-0 744.5,-30 899.5,-30 899.5,-0 744.5,-0"/>
<text text-anchor="start" x="752.5" y="-18" font-family="Helvetica,sans-Serif" font-size="10.00">gengeopop::GeoGridProtoWriter</text>
<text text-anchor="middle" x="822" y="-7" font-family="Helvetica,sans-Serif" font-size="10.00">::Write</text>
</a>
</g>
</g>
<!-- Node4&#45;&gt;Node5 -->
<g id="edge4" class="edge"><title>Node4&#45;&gt;Node5</title>
<path fill="none" stroke="midnightblue" d="M717.978,-15C726.758,-15 735.629,-15 744.29,-15"/>
<polygon fill="midnightblue" stroke="midnightblue" points="717.733,-11.5001 707.733,-15 717.733,-18.5001 717.733,-11.5001"/>
</g>
</g>
</svg>
