<?xml version="1.0" encoding="UTF-8" standalone="no"?>
<!DOCTYPE svg PUBLIC "-//W3C//DTD SVG 1.1//EN"
 "http://www.w3.org/Graphics/SVG/1.1/DTD/svg11.dtd">
<!-- Generated by graphviz version 2.36.0 (20140111.2315)
 -->
<!-- Title: proto::GeoGrid_Location_Coordinate::clear_latitude Pages: 1 -->
<svg width="300pt" height="48pt"
 viewBox="0.00 0.00 300.00 48.00" xmlns="http://www.w3.org/2000/svg" xmlns:xlink="http://www.w3.org/1999/xlink">
<g id="graph0" class="graph" transform="scale(1 1) rotate(0) translate(4 44)">
<title>proto::GeoGrid_Location_Coordinate::clear_latitude</title>
<polygon fill="white" stroke="none" points="-4,4 -4,-44 296,-44 296,4 -4,4"/>
<!-- Node1 -->
<g id="node1" class="node"><title>Node1</title>
<polygon fill="#bfbfbf" stroke="black" points="0.5,-5 0.5,-35 133.5,-35 133.5,-5 0.5,-5"/>
<text text-anchor="start" x="8.5" y="-23" font-family="Helvetica,sans-Serif" font-size="10.00">proto::GeoGrid_Location</text>
<text text-anchor="middle" x="67" y="-12" font-family="Helvetica,sans-Serif" font-size="10.00">_Coordinate::clear_latitude</text>
</g>
<!-- Node2 -->
<g id="node2" class="node"><title>Node2</title>
<g id="a_node2"><a xlink:href="../../da/d2a/a00086.html#ac1c8a6f8a2b32e00e5717d727e39667f" target="_top" xlink:title="proto::GeoGrid_Location\l_Coordinate::clear_has\l_latitude">
<polygon fill="white" stroke="black" points="170,0.5 170,-40.5 292,-40.5 292,0.5 170,0.5"/>
<text text-anchor="start" x="178" y="-28.5" font-family="Helvetica,sans-Serif" font-size="10.00">proto::GeoGrid_Location</text>
<text text-anchor="start" x="178" y="-17.5" font-family="Helvetica,sans-Serif" font-size="10.00">_Coordinate::clear_has</text>
<text text-anchor="middle" x="231" y="-6.5" font-family="Helvetica,sans-Serif" font-size="10.00">_latitude</text>
</a>
</g>
</g>
<!-- Node1&#45;&gt;Node2 -->
<g id="edge1" class="edge"><title>Node1&#45;&gt;Node2</title>
<path fill="none" stroke="midnightblue" d="M133.892,-20C142.454,-20 151.251,-20 159.879,-20"/>
<polygon fill="midnightblue" stroke="midnightblue" points="159.907,-23.5001 169.907,-20 159.907,-16.5001 159.907,-23.5001"/>
</g>
</g>
</svg>
