<?xml version="1.0" encoding="UTF-8" standalone="no"?>
<!DOCTYPE svg PUBLIC "-//W3C//DTD SVG 1.1//EN"
 "http://www.w3.org/Graphics/SVG/1.1/DTD/svg11.dtd">
<!-- Generated by graphviz version 2.36.0 (20140111.2315)
 -->
<!-- Title: proto::GeoGrid_Location_Coordinate::CopyFrom Pages: 1 -->
<svg width="312pt" height="332pt"
 viewBox="0.00 0.00 312.00 332.00" xmlns="http://www.w3.org/2000/svg" xmlns:xlink="http://www.w3.org/1999/xlink">
<g id="graph0" class="graph" transform="scale(1 1) rotate(0) translate(4 328)">
<title>proto::GeoGrid_Location_Coordinate::CopyFrom</title>
<polygon fill="white" stroke="none" points="-4,4 -4,-328 308,-328 308,4 -4,4"/>
<!-- Node1 -->
<g id="node1" class="node"><title>Node1</title>
<polygon fill="#bfbfbf" stroke="black" points="0,-137 0,-167 122,-167 122,-137 0,-137"/>
<text text-anchor="start" x="8" y="-155" font-family="Helvetica,sans-Serif" font-size="10.00">proto::GeoGrid_Location</text>
<text text-anchor="middle" x="61" y="-144" font-family="Helvetica,sans-Serif" font-size="10.00">_Coordinate::CopyFrom</text>
</g>
<!-- Node2 -->
<g id="node2" class="node"><title>Node2</title>
<g id="a_node2"><a xlink:href="../../da/d2a/a00086.html#a65e1b052d5bf62b34761be097e59ae78" target="_top" xlink:title="proto::GeoGrid_Location\l_Coordinate::operator=">
<polygon fill="white" stroke="black" points="170,-294 170,-324 292,-324 292,-294 170,-294"/>
<text text-anchor="start" x="178" y="-312" font-family="Helvetica,sans-Serif" font-size="10.00">proto::GeoGrid_Location</text>
<text text-anchor="middle" x="231" y="-301" font-family="Helvetica,sans-Serif" font-size="10.00">_Coordinate::operator=</text>
</a>
</g>
</g>
<!-- Node1&#45;&gt;Node2 -->
<g id="edge1" class="edge"><title>Node1&#45;&gt;Node2</title>
<path fill="none" stroke="midnightblue" d="M73.9307,-176.601C89.4241,-206.108 119.147,-255.187 158,-284 163.208,-287.862 169.06,-291.162 175.119,-293.973"/>
<polygon fill="midnightblue" stroke="midnightblue" points="76.8969,-174.714 69.2293,-167.402 70.6638,-177.9 76.8969,-174.714"/>
</g>
<!-- Node3 -->
<g id="node3" class="node"><title>Node3</title>
<g id="a_node3"><a xlink:href="../../df/d13/a00085.html#a41b5db80bf17f6972ae10a9fda54eca8" target="_top" xlink:title="proto::GeoGrid_Location\l_ContactCenter_ContactPool\l::operator=">
<polygon fill="white" stroke="black" points="158.5,-234.5 158.5,-275.5 303.5,-275.5 303.5,-234.5 158.5,-234.5"/>
<text text-anchor="start" x="166.5" y="-263.5" font-family="Helvetica,sans-Serif" font-size="10.00">proto::GeoGrid_Location</text>
<text text-anchor="start" x="166.5" y="-252.5" font-family="Helvetica,sans-Serif" font-size="10.00">_ContactCenter_ContactPool</text>
<text text-anchor="middle" x="231" y="-241.5" font-family="Helvetica,sans-Serif" font-size="10.00">::operator=</text>
</a>
</g>
</g>
<!-- Node1&#45;&gt;Node3 -->
<g id="edge2" class="edge"><title>Node1&#45;&gt;Node3</title>
<path fill="none" stroke="midnightblue" d="M86.8329,-173.713C105.52,-189.329 132.237,-210.165 158,-225 163.75,-228.311 169.937,-231.454 176.183,-234.371"/>
<polygon fill="midnightblue" stroke="midnightblue" points="88.9869,-170.951 79.0935,-167.16 84.4634,-176.293 88.9869,-170.951"/>
</g>
<!-- Node4 -->
<g id="node4" class="node"><title>Node4</title>
<g id="a_node4"><a xlink:href="../../df/d5d/a00084.html#a47ce53850be3cdfbd26b3fd492c36566" target="_top" xlink:title="proto::GeoGrid_Location\l_ContactCenter::operator=">
<polygon fill="white" stroke="black" points="164.5,-186 164.5,-216 297.5,-216 297.5,-186 164.5,-186"/>
<text text-anchor="start" x="172.5" y="-204" font-family="Helvetica,sans-Serif" font-size="10.00">proto::GeoGrid_Location</text>
<text text-anchor="middle" x="231" y="-193" font-family="Helvetica,sans-Serif" font-size="10.00">_ContactCenter::operator=</text>
</a>
</g>
</g>
<!-- Node1&#45;&gt;Node4 -->
<g id="edge3" class="edge"><title>Node1&#45;&gt;Node4</title>
<path fill="none" stroke="midnightblue" d="M123.601,-169.967C141.601,-175.217 161.082,-180.899 178.395,-185.948"/>
<polygon fill="midnightblue" stroke="midnightblue" points="124.356,-166.542 113.776,-167.101 122.396,-173.262 124.356,-166.542"/>
</g>
<!-- Node5 -->
<g id="node5" class="node"><title>Node5</title>
<g id="a_node5"><a xlink:href="../../d2/d1f/a00083.html#ae2927e94036ec15b8a29a619ff34d126" target="_top" xlink:title="proto::GeoGrid_Location\l_Commute::operator=">
<polygon fill="white" stroke="black" points="170,-137 170,-167 292,-167 292,-137 170,-137"/>
<text text-anchor="start" x="178" y="-155" font-family="Helvetica,sans-Serif" font-size="10.00">proto::GeoGrid_Location</text>
<text text-anchor="middle" x="231" y="-144" font-family="Helvetica,sans-Serif" font-size="10.00">_Commute::operator=</text>
</a>
</g>
</g>
<!-- Node1&#45;&gt;Node5 -->
<g id="edge4" class="edge"><title>Node1&#45;&gt;Node5</title>
<path fill="none" stroke="midnightblue" d="M132.517,-152C144.97,-152 157.829,-152 169.961,-152"/>
<polygon fill="midnightblue" stroke="midnightblue" points="132.177,-148.5 122.177,-152 132.177,-155.5 132.177,-148.5"/>
</g>
<!-- Node6 -->
<g id="node6" class="node"><title>Node6</title>
<g id="a_node6"><a xlink:href="../../d4/d63/a00082.html#af965c169cda71029ea71d695aa940072" target="_top" xlink:title="proto::GeoGrid_Location\l::operator=">
<polygon fill="white" stroke="black" points="170,-88 170,-118 292,-118 292,-88 170,-88"/>
<text text-anchor="start" x="178" y="-106" font-family="Helvetica,sans-Serif" font-size="10.00">proto::GeoGrid_Location</text>
<text text-anchor="middle" x="231" y="-95" font-family="Helvetica,sans-Serif" font-size="10.00">::operator=</text>
</a>
</g>
</g>
<!-- Node1&#45;&gt;Node6 -->
<g id="edge5" class="edge"><title>Node1&#45;&gt;Node6</title>
<path fill="none" stroke="midnightblue" d="M123.601,-134.033C141.601,-128.783 161.082,-123.101 178.395,-118.052"/>
<polygon fill="midnightblue" stroke="midnightblue" points="122.396,-130.738 113.776,-136.899 124.356,-137.458 122.396,-130.738"/>
</g>
<!-- Node7 -->
<g id="node7" class="node"><title>Node7</title>
<g id="a_node7"><a xlink:href="../../d1/d1e/a00087.html#ae5cc9cb90500da056dfeaaec02b62ba6" target="_top" xlink:title="proto::GeoGrid_Person\l::operator=">
<polygon fill="white" stroke="black" points="173,-39 173,-69 289,-69 289,-39 173,-39"/>
<text text-anchor="start" x="181" y="-57" font-family="Helvetica,sans-Serif" font-size="10.00">proto::GeoGrid_Person</text>
<text text-anchor="middle" x="231" y="-46" font-family="Helvetica,sans-Serif" font-size="10.00">::operator=</text>
</a>
</g>
</g>
<!-- Node1&#45;&gt;Node7 -->
<g id="edge6" class="edge"><title>Node1&#45;&gt;Node7</title>
<path fill="none" stroke="midnightblue" d="M86.2319,-130.11C104.803,-114.227 131.638,-93.1344 158,-79 164.88,-75.3109 172.414,-71.9944 179.933,-69.0747"/>
<polygon fill="midnightblue" stroke="midnightblue" points="83.8101,-127.577 78.5586,-136.779 88.4022,-132.861 83.8101,-127.577"/>
</g>
<!-- Node8 -->
<g id="node8" class="node"><title>Node8</title>
<g id="a_node8"><a xlink:href="../../d8/d53/a00081.html#a61ddeb423f13fff30f6bd927e0448247" target="_top" xlink:title="proto::GeoGrid::operator=">
<polygon fill="white" stroke="black" points="167,-0.5 167,-19.5 295,-19.5 295,-0.5 167,-0.5"/>
<text text-anchor="middle" x="231" y="-7.5" font-family="Helvetica,sans-Serif" font-size="10.00">proto::GeoGrid::operator=</text>
</a>
</g>
</g>
<!-- Node1&#45;&gt;Node8 -->
<g id="edge7" class="edge"><title>Node1&#45;&gt;Node8</title>
<path fill="none" stroke="midnightblue" d="M74.8243,-127.645C90.6865,-99.8875 120.275,-55.1239 158,-30 164.479,-25.6853 171.876,-22.2945 179.404,-19.6315"/>
<polygon fill="midnightblue" stroke="midnightblue" points="71.5938,-126.253 69.7952,-136.694 77.7123,-129.654 71.5938,-126.253"/>
</g>
</g>
</svg>
