<?xml version="1.0" encoding="UTF-8" standalone="no"?>
<!DOCTYPE svg PUBLIC "-//W3C//DTD SVG 1.1//EN"
 "http://www.w3.org/Graphics/SVG/1.1/DTD/svg11.dtd">
<!-- Generated by graphviz version 2.36.0 (20140111.2315)
 -->
<!-- Title: protobuf_geogrid_2eproto::InitDefaultsGeoGrid_Location Pages: 1 -->
<svg width="322pt" height="38pt"
 viewBox="0.00 0.00 322.00 38.00" xmlns="http://www.w3.org/2000/svg" xmlns:xlink="http://www.w3.org/1999/xlink">
<g id="graph0" class="graph" transform="scale(1 1) rotate(0) translate(4 34)">
<title>protobuf_geogrid_2eproto::InitDefaultsGeoGrid_Location</title>
<polygon fill="white" stroke="none" points="-4,4 -4,-34 318,-34 318,4 -4,4"/>
<!-- Node1 -->
<g id="node1" class="node"><title>Node1</title>
<polygon fill="#bfbfbf" stroke="black" points="0.5,-0 0.5,-30 151.5,-30 151.5,-0 0.5,-0"/>
<text text-anchor="start" x="8.5" y="-18" font-family="Helvetica,sans-Serif" font-size="10.00">protobuf_geogrid_2eproto</text>
<text text-anchor="middle" x="76" y="-7" font-family="Helvetica,sans-Serif" font-size="10.00">::InitDefaultsGeoGrid_Location</text>
</g>
<!-- Node2 -->
<g id="node2" class="node"><title>Node2</title>
<g id="a_node2"><a xlink:href="../../dc/ddf/a00469.html#ab1e6b33e8d6317151fdaff6a8258d97e" target="_top" xlink:title="protobuf_geogrid_2eproto\l::InitDefaults">
<polygon fill="white" stroke="black" points="188,-0 188,-30 314,-30 314,-0 188,-0"/>
<text text-anchor="start" x="196" y="-18" font-family="Helvetica,sans-Serif" font-size="10.00">protobuf_geogrid_2eproto</text>
<text text-anchor="middle" x="251" y="-7" font-family="Helvetica,sans-Serif" font-size="10.00">::InitDefaults</text>
</a>
</g>
</g>
<!-- Node1&#45;&gt;Node2 -->
<g id="edge1" class="edge"><title>Node1&#45;&gt;Node2</title>
<path fill="none" stroke="midnightblue" d="M161.861,-15C170.61,-15 179.381,-15 187.816,-15"/>
<polygon fill="midnightblue" stroke="midnightblue" points="161.623,-11.5001 151.623,-15 161.623,-18.5001 161.623,-11.5001"/>
</g>
</g>
</svg>
