<?xml version="1.0" encoding="UTF-8" standalone="no"?>
<!DOCTYPE svg PUBLIC "-//W3C//DTD SVG 1.1//EN"
 "http://www.w3.org/Graphics/SVG/1.1/DTD/svg11.dtd">
<!-- Generated by graphviz version 2.36.0 (20140111.2315)
 -->
<!-- Title: protobuf_geogrid_2eproto::InitDefaults Pages: 1 -->
<svg width="322pt" height="375pt"
 viewBox="0.00 0.00 322.00 375.00" xmlns="http://www.w3.org/2000/svg" xmlns:xlink="http://www.w3.org/1999/xlink">
<g id="graph0" class="graph" transform="scale(1 1) rotate(0) translate(4 371)">
<title>protobuf_geogrid_2eproto::InitDefaults</title>
<polygon fill="white" stroke="none" points="-4,4 -4,-371 318,-371 318,4 -4,4"/>
<!-- Node1 -->
<g id="node1" class="node"><title>Node1</title>
<polygon fill="#bfbfbf" stroke="black" points="0,-174 0,-204 126,-204 126,-174 0,-174"/>
<text text-anchor="start" x="8" y="-192" font-family="Helvetica,sans-Serif" font-size="10.00">protobuf_geogrid_2eproto</text>
<text text-anchor="middle" x="63" y="-181" font-family="Helvetica,sans-Serif" font-size="10.00">::InitDefaults</text>
</g>
<!-- Node2 -->
<g id="node2" class="node"><title>Node2</title>
<g id="a_node2"><a xlink:href="../../dc/ddf/a00469.html#aba7f6e8ed94859f4b0998ee29f116d15" target="_top" xlink:title="protobuf_geogrid_2eproto\l::InitDefaultsGeoGrid">
<polygon fill="white" stroke="black" points="175,-337 175,-367 301,-367 301,-337 175,-337"/>
<text text-anchor="start" x="183" y="-355" font-family="Helvetica,sans-Serif" font-size="10.00">protobuf_geogrid_2eproto</text>
<text text-anchor="middle" x="238" y="-344" font-family="Helvetica,sans-Serif" font-size="10.00">::InitDefaultsGeoGrid</text>
</a>
</g>
</g>
<!-- Node1&#45;&gt;Node2 -->
<g id="edge1" class="edge"><title>Node1&#45;&gt;Node2</title>
<path fill="none" stroke="midnightblue" d="M70.8118,-204.266C84.2066,-232.585 116.663,-293.419 162,-327 164.511,-328.86 167.168,-330.587 169.926,-332.189"/>
<polygon fill="midnightblue" stroke="midnightblue" points="168.531,-335.408 179.021,-336.896 171.749,-329.191 168.531,-335.408"/>
</g>
<!-- Node3 -->
<g id="node3" class="node"><title>Node3</title>
<g id="a_node3"><a xlink:href="../../dc/ddf/a00469.html#a50d59069e44637f9a6b8af307ea7910e" target="_top" xlink:title="protobuf_geogrid_2eproto\l::InitDefaultsGeoGrid_Location">
<polygon fill="white" stroke="black" points="162.5,-288 162.5,-318 313.5,-318 313.5,-288 162.5,-288"/>
<text text-anchor="start" x="170.5" y="-306" font-family="Helvetica,sans-Serif" font-size="10.00">protobuf_geogrid_2eproto</text>
<text text-anchor="middle" x="238" y="-295" font-family="Helvetica,sans-Serif" font-size="10.00">::InitDefaultsGeoGrid_Location</text>
</a>
</g>
</g>
<!-- Node1&#45;&gt;Node3 -->
<g id="edge2" class="edge"><title>Node1&#45;&gt;Node3</title>
<path fill="none" stroke="midnightblue" d="M77.0998,-204.327C94.6162,-223.943 127.486,-257.8 162,-278 165.598,-280.106 169.398,-282.064 173.302,-283.88"/>
<polygon fill="midnightblue" stroke="midnightblue" points="171.982,-287.122 182.551,-287.861 174.75,-280.692 171.982,-287.122"/>
</g>
<!-- Node4 -->
<g id="node4" class="node"><title>Node4</title>
<g id="a_node4"><a xlink:href="../../dc/ddf/a00469.html#a4429c5667e3e5c15529586b3dea3dcaf" target="_top" xlink:title="protobuf_geogrid_2eproto\l::InitDefaultsGeoGrid_Location\l_Commute">
<polygon fill="white" stroke="black" points="162.5,-228.5 162.5,-269.5 313.5,-269.5 313.5,-228.5 162.5,-228.5"/>
<text text-anchor="start" x="170.5" y="-257.5" font-family="Helvetica,sans-Serif" font-size="10.00">protobuf_geogrid_2eproto</text>
<text text-anchor="start" x="170.5" y="-246.5" font-family="Helvetica,sans-Serif" font-size="10.00">::InitDefaultsGeoGrid_Location</text>
<text text-anchor="middle" x="238" y="-235.5" font-family="Helvetica,sans-Serif" font-size="10.00">_Commute</text>
</a>
</g>
</g>
<!-- Node1&#45;&gt;Node4 -->
<g id="edge3" class="edge"><title>Node1&#45;&gt;Node4</title>
<path fill="none" stroke="midnightblue" d="M107.655,-204.141C125.975,-210.494 147.724,-218.037 168.111,-225.108"/>
<polygon fill="midnightblue" stroke="midnightblue" points="167.08,-228.455 177.675,-228.425 169.374,-221.841 167.08,-228.455"/>
</g>
<!-- Node5 -->
<g id="node5" class="node"><title>Node5</title>
<g id="a_node5"><a xlink:href="../../dc/ddf/a00469.html#aee927ddfc69122c25f092700da48e231" target="_top" xlink:title="protobuf_geogrid_2eproto\l::InitDefaultsGeoGrid_Location\l_ContactCenter">
<polygon fill="white" stroke="black" points="162.5,-168.5 162.5,-209.5 313.5,-209.5 313.5,-168.5 162.5,-168.5"/>
<text text-anchor="start" x="170.5" y="-197.5" font-family="Helvetica,sans-Serif" font-size="10.00">protobuf_geogrid_2eproto</text>
<text text-anchor="start" x="170.5" y="-186.5" font-family="Helvetica,sans-Serif" font-size="10.00">::InitDefaultsGeoGrid_Location</text>
<text text-anchor="middle" x="238" y="-175.5" font-family="Helvetica,sans-Serif" font-size="10.00">_ContactCenter</text>
</a>
</g>
</g>
<!-- Node1&#45;&gt;Node5 -->
<g id="edge4" class="edge"><title>Node1&#45;&gt;Node5</title>
<path fill="none" stroke="midnightblue" d="M126.457,-189C134.805,-189 143.477,-189 152.127,-189"/>
<polygon fill="midnightblue" stroke="midnightblue" points="152.252,-192.5 162.252,-189 152.252,-185.5 152.252,-192.5"/>
</g>
<!-- Node6 -->
<g id="node6" class="node"><title>Node6</title>
<g id="a_node6"><a xlink:href="../../dc/ddf/a00469.html#aa4b90e51b8a295ae87da2511f4411fcf" target="_top" xlink:title="protobuf_geogrid_2eproto\l::InitDefaultsGeoGrid_Location\l_ContactCenter_ContactPool">
<polygon fill="white" stroke="black" points="162.5,-108.5 162.5,-149.5 313.5,-149.5 313.5,-108.5 162.5,-108.5"/>
<text text-anchor="start" x="170.5" y="-137.5" font-family="Helvetica,sans-Serif" font-size="10.00">protobuf_geogrid_2eproto</text>
<text text-anchor="start" x="170.5" y="-126.5" font-family="Helvetica,sans-Serif" font-size="10.00">::InitDefaultsGeoGrid_Location</text>
<text text-anchor="middle" x="238" y="-115.5" font-family="Helvetica,sans-Serif" font-size="10.00">_ContactCenter_ContactPool</text>
</a>
</g>
</g>
<!-- Node1&#45;&gt;Node6 -->
<g id="edge5" class="edge"><title>Node1&#45;&gt;Node6</title>
<path fill="none" stroke="midnightblue" d="M107.655,-173.859C125.975,-167.506 147.724,-159.963 168.111,-152.892"/>
<polygon fill="midnightblue" stroke="midnightblue" points="169.374,-156.159 177.675,-149.575 167.08,-149.545 169.374,-156.159"/>
</g>
<!-- Node7 -->
<g id="node7" class="node"><title>Node7</title>
<g id="a_node7"><a xlink:href="../../dc/ddf/a00469.html#a767666239a509158eb7e118dca268994" target="_top" xlink:title="protobuf_geogrid_2eproto\l::InitDefaultsGeoGrid_Location\l_Coordinate">
<polygon fill="white" stroke="black" points="162.5,-48.5 162.5,-89.5 313.5,-89.5 313.5,-48.5 162.5,-48.5"/>
<text text-anchor="start" x="170.5" y="-77.5" font-family="Helvetica,sans-Serif" font-size="10.00">protobuf_geogrid_2eproto</text>
<text text-anchor="start" x="170.5" y="-66.5" font-family="Helvetica,sans-Serif" font-size="10.00">::InitDefaultsGeoGrid_Location</text>
<text text-anchor="middle" x="238" y="-55.5" font-family="Helvetica,sans-Serif" font-size="10.00">_Coordinate</text>
</a>
</g>
</g>
<!-- Node1&#45;&gt;Node7 -->
<g id="edge6" class="edge"><title>Node1&#45;&gt;Node7</title>
<path fill="none" stroke="midnightblue" d="M77.2521,-173.803C94.9333,-154.292 127.981,-120.408 162,-99 164.73,-97.2821 167.575,-95.6306 170.492,-94.0477"/>
<polygon fill="midnightblue" stroke="midnightblue" points="172.091,-97.1608 179.416,-89.506 168.917,-90.9221 172.091,-97.1608"/>
</g>
<!-- Node8 -->
<g id="node8" class="node"><title>Node8</title>
<g id="a_node8"><a xlink:href="../../dc/ddf/a00469.html#a7e5e27af9c23f1b7d6f3ac2052e03706" target="_top" xlink:title="protobuf_geogrid_2eproto\l::InitDefaultsGeoGrid_Person">
<polygon fill="white" stroke="black" points="165.5,-0 165.5,-30 310.5,-30 310.5,-0 165.5,-0"/>
<text text-anchor="start" x="173.5" y="-18" font-family="Helvetica,sans-Serif" font-size="10.00">protobuf_geogrid_2eproto</text>
<text text-anchor="middle" x="238" y="-7" font-family="Helvetica,sans-Serif" font-size="10.00">::InitDefaultsGeoGrid_Person</text>
</a>
</g>
</g>
<!-- Node1&#45;&gt;Node8 -->
<g id="edge7" class="edge"><title>Node1&#45;&gt;Node8</title>
<path fill="none" stroke="midnightblue" d="M69.8213,-173.769C82.1417,-143.547 113.744,-75.7528 162,-39 163.812,-37.6203 165.705,-36.3185 167.662,-35.0904"/>
<polygon fill="midnightblue" stroke="midnightblue" points="169.526,-38.0594 176.591,-30.164 166.144,-31.9303 169.526,-38.0594"/>
</g>
</g>
</svg>
