<?xml version="1.0" encoding="UTF-8" standalone="no"?>
<!DOCTYPE svg PUBLIC "-//W3C//DTD SVG 1.1//EN"
 "http://www.w3.org/Graphics/SVG/1.1/DTD/svg11.dtd">
<!-- Generated by graphviz version 2.36.0 (20140111.2315)
 -->
<!-- Title: stride::Person Pages: 1 -->
<svg width="992pt" height="1290pt"
 viewBox="0.00 0.00 992.00 1290.00" xmlns="http://www.w3.org/2000/svg" xmlns:xlink="http://www.w3.org/1999/xlink">
<g id="graph0" class="graph" transform="scale(1 1) rotate(0) translate(4 1286)">
<title>stride::Person</title>
<polygon fill="white" stroke="none" points="-4,4 -4,-1286 988,-1286 988,4 -4,4"/>
<!-- Node1 -->
<g id="node1" class="node"><title>Node1</title>
<polygon fill="#bfbfbf" stroke="black" points="413,-356.5 413,-523.5 493,-523.5 493,-356.5 413,-356.5"/>
<text text-anchor="middle" x="453" y="-511.5" font-family="Helvetica,sans-Serif" font-size="10.00">stride::Person</text>
<polyline fill="none" stroke="black" points="413,-504.5 493,-504.5 "/>
<text text-anchor="middle" x="453" y="-492.5" font-family="Helvetica,sans-Serif" font-size="10.00"> </text>
<polyline fill="none" stroke="black" points="413,-485.5 493,-485.5 "/>
<text text-anchor="start" x="421" y="-473.5" font-family="Helvetica,sans-Serif" font-size="10.00">+ Person()</text>
<text text-anchor="start" x="421" y="-462.5" font-family="Helvetica,sans-Serif" font-size="10.00">+ Person()</text>
<text text-anchor="start" x="421" y="-451.5" font-family="Helvetica,sans-Serif" font-size="10.00">+ operator!=()</text>
<text text-anchor="start" x="421" y="-440.5" font-family="Helvetica,sans-Serif" font-size="10.00">+ GetAge()</text>
<text text-anchor="start" x="421" y="-429.5" font-family="Helvetica,sans-Serif" font-size="10.00">+ GetBelief()</text>
<text text-anchor="start" x="421" y="-418.5" font-family="Helvetica,sans-Serif" font-size="10.00">+ GetBelief()</text>
<text text-anchor="start" x="421" y="-407.5" font-family="Helvetica,sans-Serif" font-size="10.00">+ GetPoolId()</text>
<text text-anchor="start" x="421" y="-396.5" font-family="Helvetica,sans-Serif" font-size="10.00">+ GetGender()</text>
<text text-anchor="start" x="421" y="-385.5" font-family="Helvetica,sans-Serif" font-size="10.00">+ GetHealth()</text>
<text text-anchor="start" x="421" y="-374.5" font-family="Helvetica,sans-Serif" font-size="10.00">+ GetHealth()</text>
<text text-anchor="start" x="421" y="-363.5" font-family="Helvetica,sans-Serif" font-size="10.00">and 25 more...</text>
</g>
<!-- Node4 -->
<g id="node4" class="node"><title>Node4</title>
<polygon fill="white" stroke="#bfbfbf" points="576,-229 576,-297 672,-297 672,-229 576,-229"/>
<text text-anchor="start" x="584" y="-285" font-family="Helvetica,sans-Serif" font-size="10.00">std::vector&lt; stride</text>
<text text-anchor="middle" x="624" y="-274" font-family="Helvetica,sans-Serif" font-size="10.00">::Person * &gt;</text>
<polyline fill="none" stroke="#bfbfbf" points="576,-267 672,-267 "/>
<text text-anchor="middle" x="624" y="-255" font-family="Helvetica,sans-Serif" font-size="10.00"> </text>
<polyline fill="none" stroke="#bfbfbf" points="576,-248 672,-248 "/>
<text text-anchor="middle" x="624" y="-236" font-family="Helvetica,sans-Serif" font-size="10.00"> </text>
</g>
<!-- Node1&#45;&gt;Node4 -->
<g id="edge4" class="edge"><title>Node1&#45;&gt;Node4</title>
<path fill="none" stroke="#404040" d="M493.092,-397.97C520.171,-370.258 555.81,-333.785 583.065,-305.893"/>
<polygon fill="none" stroke="#404040" points="583.211,-305.743 584.543,-298.656 591.597,-297.161 590.265,-304.247 583.211,-305.743"/>
<text text-anchor="middle" x="593.5" y="-324.5" font-family="Helvetica,sans-Serif" font-size="10.00"> +elements</text>
</g>
<!-- Node2 -->
<g id="node2" class="node"><title>Node2</title>
<g id="a_node2"><a xlink:href="../../d5/d26/a00474.html" target="_top" xlink:title="{double\n||}">
<polygon fill="white" stroke="black" points="752.5,-654.5 752.5,-711.5 797.5,-711.5 797.5,-654.5 752.5,-654.5"/>
<text text-anchor="middle" x="775" y="-699.5" font-family="Helvetica,sans-Serif" font-size="10.00">double</text>
<polyline fill="none" stroke="black" points="752.5,-692.5 797.5,-692.5 "/>
<text text-anchor="middle" x="775" y="-680.5" font-family="Helvetica,sans-Serif" font-size="10.00"> </text>
<polyline fill="none" stroke="black" points="752.5,-673.5 797.5,-673.5 "/>
<text text-anchor="middle" x="775" y="-661.5" font-family="Helvetica,sans-Serif" font-size="10.00"> </text>
</a>
</g>
</g>
<!-- Node2&#45;&gt;Node1 -->
<g id="edge1" class="edge"><title>Node2&#45;&gt;Node1</title>
<path fill="none" stroke="#404040" d="M773.103,-654.122C770.111,-631.711 762.464,-600.943 743,-582 722.437,-561.988 707.554,-574.873 681,-564 646.272,-549.78 559.938,-501.834 504.035,-470.173"/>
<polygon fill="none" stroke="#404040" points="503.721,-469.995 496.528,-470.513 493.284,-464.073 500.476,-463.555 503.721,-469.995"/>
<text text-anchor="middle" x="699" y="-550.5" font-family="Helvetica,sans-Serif" font-size="10.00"> &#45;m_age</text>
</g>
<!-- Node3 -->
<g id="node3" class="node"><title>Node3</title>
<g id="a_node3"><a xlink:href="../../d4/d3a/a00101.html" target="_top" xlink:title="Represents a group of Persons that potentially have contacts. ">
<polygon fill="white" stroke="black" points="567,-1 567,-179 677,-179 677,-1 567,-1"/>
<text text-anchor="middle" x="622" y="-167" font-family="Helvetica,sans-Serif" font-size="10.00">stride::ContactPool</text>
<polyline fill="none" stroke="black" points="567,-160 677,-160 "/>
<text text-anchor="middle" x="622" y="-148" font-family="Helvetica,sans-Serif" font-size="10.00"> </text>
<polyline fill="none" stroke="black" points="567,-141 677,-141 "/>
<text text-anchor="start" x="575" y="-129" font-family="Helvetica,sans-Serif" font-size="10.00">+ ContactPool()</text>
<text text-anchor="start" x="575" y="-118" font-family="Helvetica,sans-Serif" font-size="10.00">+ ContactPool()</text>
<text text-anchor="start" x="575" y="-107" font-family="Helvetica,sans-Serif" font-size="10.00">+ AddMember()</text>
<text text-anchor="start" x="575" y="-96" font-family="Helvetica,sans-Serif" font-size="10.00">+ GetMember()</text>
<text text-anchor="start" x="575" y="-85" font-family="Helvetica,sans-Serif" font-size="10.00">+ RemoveMember()</text>
<text text-anchor="start" x="575" y="-74" font-family="Helvetica,sans-Serif" font-size="10.00">+ GetPool()</text>
<text text-anchor="start" x="575" y="-63" font-family="Helvetica,sans-Serif" font-size="10.00">+ GetSize()</text>
<text text-anchor="start" x="575" y="-52" font-family="Helvetica,sans-Serif" font-size="10.00">+ GetId()</text>
<text text-anchor="start" x="575" y="-41" font-family="Helvetica,sans-Serif" font-size="10.00">+ GetCapacity()</text>
<text text-anchor="start" x="575" y="-30" font-family="Helvetica,sans-Serif" font-size="10.00">+ GetUsedCapacity()</text>
<text text-anchor="start" x="575" y="-19" font-family="Helvetica,sans-Serif" font-size="10.00">and 8 more...</text>
<text text-anchor="start" x="575" y="-8" font-family="Helvetica,sans-Serif" font-size="10.00">&#45; SortMembers()</text>
</a>
</g>
</g>
<!-- Node3&#45;&gt;Node1 -->
<g id="edge2" class="edge"><title>Node3&#45;&gt;Node1</title>
<path fill="none" stroke="#404040" d="M566.614,-121.791C529.817,-145.564 484.311,-182.123 462,-228 444.745,-263.48 440.405,-306.412 441.172,-344.264"/>
<polygon fill="none" stroke="#404040" points="441.176,-344.366 445.381,-350.224 441.591,-356.359 437.386,-350.5 441.176,-344.366"/>
<text text-anchor="middle" x="514.5" y="-260.5" font-family="Helvetica,sans-Serif" font-size="10.00"> &#45;m_visitingContactPool</text>
</g>
<!-- Node4&#45;&gt;Node3 -->
<g id="edge3" class="edge"><title>Node4&#45;&gt;Node3</title>
<path fill="none" stroke="#404040" d="M623.311,-228.991C623.195,-222.686 623.085,-216.139 623,-210 622.916,-203.894 622.837,-197.613 622.765,-191.276"/>
<polygon fill="none" stroke="#404040" points="622.763,-191.056 618.698,-185.1 622.633,-179.057 626.698,-185.013 622.763,-191.056"/>
<text text-anchor="middle" x="653.5" y="-201.5" font-family="Helvetica,sans-Serif" font-size="10.00"> &#45;m_members</text>
</g>
<!-- Node5 -->
<g id="node5" class="node"><title>Node5</title>
<g id="a_node5"><a xlink:title="STL class. ">
<polygon fill="white" stroke="#bfbfbf" points="701.5,-1036.5 701.5,-1093.5 788.5,-1093.5 788.5,-1036.5 701.5,-1036.5"/>
<text text-anchor="middle" x="745" y="-1081.5" font-family="Helvetica,sans-Serif" font-size="10.00">std::vector&lt; T &gt;</text>
<polyline fill="none" stroke="#bfbfbf" points="701.5,-1074.5 788.5,-1074.5 "/>
<text text-anchor="middle" x="745" y="-1062.5" font-family="Helvetica,sans-Serif" font-size="10.00"> </text>
<polyline fill="none" stroke="#bfbfbf" points="701.5,-1055.5 788.5,-1055.5 "/>
<text text-anchor="middle" x="745" y="-1043.5" font-family="Helvetica,sans-Serif" font-size="10.00"> </text>
</a>
</g>
</g>
<!-- Node5&#45;&gt;Node4 -->
<g id="edge5" class="edge"><title>Node5&#45;&gt;Node4</title>
<path fill="none" stroke="orange" d="M785.404,-1029.54C829.831,-987.571 895,-912.178 895,-831 895,-831 895,-831 895,-439 895,-383.98 920.352,-354.452 881,-316 849.242,-284.968 724.283,-311.554 682,-298 678.666,-296.931 675.316,-295.646 672.001,-294.21"/>
<polygon fill="orange" stroke="orange" points="782.87,-1027.11 777.918,-1036.48 787.63,-1032.24 782.87,-1027.11"/>
<text text-anchor="middle" x="939.5" y="-680.5" font-family="Helvetica,sans-Serif" font-size="10.00"> &lt; stride::Person * &gt;</text>
</g>
<!-- Node6 -->
<g id="node6" class="node"><title>Node6</title>
<polygon fill="white" stroke="#bfbfbf" points="208.5,-1224.5 208.5,-1281.5 237.5,-1281.5 237.5,-1224.5 208.5,-1224.5"/>
<text text-anchor="middle" x="223" y="-1269.5" font-family="Helvetica,sans-Serif" font-size="10.00">T</text>
<polyline fill="none" stroke="#bfbfbf" points="208.5,-1262.5 237.5,-1262.5 "/>
<text text-anchor="middle" x="223" y="-1250.5" font-family="Helvetica,sans-Serif" font-size="10.00"> </text>
<polyline fill="none" stroke="#bfbfbf" points="208.5,-1243.5 237.5,-1243.5 "/>
<text text-anchor="middle" x="223" y="-1231.5" font-family="Helvetica,sans-Serif" font-size="10.00"> </text>
</g>
<!-- Node6&#45;&gt;Node5 -->
<g id="edge6" class="edge"><title>Node6&#45;&gt;Node5</title>
<path fill="none" stroke="#404040" d="M237.506,-1246.83C302.935,-1223.52 572.472,-1127.48 689.901,-1085.63"/>
<polygon fill="none" stroke="#404040" points="690.143,-1085.55 694.452,-1079.77 701.447,-1081.52 697.137,-1087.3 690.143,-1085.55"/>
<text text-anchor="middle" x="410.5" y="-1197.5" font-family="Helvetica,sans-Serif" font-size="10.00"> +elements</text>
</g>
<!-- Node11 -->
<g id="node11" class="node"><title>Node11</title>
<g id="a_node11"><a xlink:title="STL class. ">
<polygon fill="white" stroke="#bfbfbf" points="67.5,-1031 67.5,-1099 174.5,-1099 174.5,-1031 67.5,-1031"/>
<text text-anchor="start" x="75.5" y="-1087" font-family="Helvetica,sans-Serif" font-size="10.00">std::array&lt; unsigned</text>
<text text-anchor="middle" x="121" y="-1076" font-family="Helvetica,sans-Serif" font-size="10.00"> int, NumOfTypes()&gt;</text>
<polyline fill="none" stroke="#bfbfbf" points="67.5,-1069 174.5,-1069 "/>
<text text-anchor="middle" x="121" y="-1057" font-family="Helvetica,sans-Serif" font-size="10.00"> </text>
<polyline fill="none" stroke="#bfbfbf" points="67.5,-1050 174.5,-1050 "/>
<text text-anchor="middle" x="121" y="-1038" font-family="Helvetica,sans-Serif" font-size="10.00"> </text>
</a>
</g>
</g>
<!-- Node6&#45;&gt;Node11 -->
<g id="edge12" class="edge"><title>Node6&#45;&gt;Node11</title>
<path fill="none" stroke="#404040" d="M208.218,-1243.36C188.731,-1231.09 155.045,-1206.67 139,-1176 128.7,-1156.31 124.019,-1132.16 121.988,-1111.5"/>
<polygon fill="none" stroke="#404040" points="121.984,-1111.45 117.532,-1105.78 121.057,-1099.49 125.509,-1105.16 121.984,-1111.45"/>
<text text-anchor="middle" x="186.5" y="-1197.5" font-family="Helvetica,sans-Serif" font-size="10.00"> +elements</text>
</g>
<!-- Node13 -->
<g id="node13" class="node"><title>Node13</title>
<g id="a_node13"><a xlink:title="STL class. ">
<polygon fill="white" stroke="#bfbfbf" points="148.5,-1118.5 148.5,-1175.5 297.5,-1175.5 297.5,-1118.5 148.5,-1118.5"/>
<text text-anchor="middle" x="223" y="-1163.5" font-family="Helvetica,sans-Serif" font-size="10.00">std::array&lt; T, NumOfTypes()&gt;</text>
<polyline fill="none" stroke="#bfbfbf" points="148.5,-1156.5 297.5,-1156.5 "/>
<text text-anchor="middle" x="223" y="-1144.5" font-family="Helvetica,sans-Serif" font-size="10.00"> </text>
<polyline fill="none" stroke="#bfbfbf" points="148.5,-1137.5 297.5,-1137.5 "/>
<text text-anchor="middle" x="223" y="-1125.5" font-family="Helvetica,sans-Serif" font-size="10.00"> </text>
</a>
</g>
</g>
<!-- Node6&#45;&gt;Node13 -->
<g id="edge15" class="edge"><title>Node6&#45;&gt;Node13</title>
<path fill="none" stroke="#404040" d="M223,-1224.4C223,-1213.24 223,-1200.13 223,-1187.96"/>
<polygon fill="none" stroke="#404040" points="223,-1187.73 219,-1181.73 223,-1175.73 227,-1181.73 223,-1187.73"/>
<text text-anchor="middle" x="247.5" y="-1197.5" font-family="Helvetica,sans-Serif" font-size="10.00"> +elements</text>
</g>
<!-- Node7 -->
<g id="node7" class="node"><title>Node7</title>
<polygon fill="white" stroke="#bfbfbf" points="-0.5,-654.5 -0.5,-711.5 28.5,-711.5 28.5,-654.5 -0.5,-654.5"/>
<text text-anchor="middle" x="14" y="-699.5" font-family="Helvetica,sans-Serif" font-size="10.00">int</text>
<polyline fill="none" stroke="#bfbfbf" points="-0.5,-692.5 28.5,-692.5 "/>
<text text-anchor="middle" x="14" y="-680.5" font-family="Helvetica,sans-Serif" font-size="10.00"> </text>
<polyline fill="none" stroke="#bfbfbf" points="-0.5,-673.5 28.5,-673.5 "/>
<text text-anchor="middle" x="14" y="-661.5" font-family="Helvetica,sans-Serif" font-size="10.00"> </text>
</g>
<!-- Node7&#45;&gt;Node1 -->
<g id="edge19" class="edge"><title>Node7&#45;&gt;Node1</title>
<path fill="none" stroke="#404040" d="M15.6226,-654.117C17.9988,-632.861 23.8144,-603.656 38,-582 54.1707,-557.314 64.5472,-555.083 91,-542 194.801,-490.662 328.67,-461.963 401.022,-449.187"/>
<polygon fill="none" stroke="#404040" points="401.119,-449.17 406.351,-444.208 412.944,-447.128 407.712,-452.091 401.119,-449.17"/>
<text text-anchor="middle" x="148" y="-556" font-family="Helvetica,sans-Serif" font-size="10.00"> &#45;m_travelDaysRemaining</text>
<text text-anchor="middle" x="148" y="-545" font-family="Helvetica,sans-Serif" font-size="10.00">&#45;m_id</text>
</g>
<!-- Node7&#45;&gt;Node3 -->
<g id="edge7" class="edge"><title>Node7&#45;&gt;Node3</title>
<path fill="none" stroke="#404040" d="M15.7408,-654.3C18.7799,-624.371 27.1202,-576.363 50,-542 183.89,-340.911 436.481,-188.794 556.056,-124.54"/>
<polygon fill="none" stroke="#404040" points="556.27,-124.426 559.682,-118.074 566.859,-118.78 563.446,-125.133 556.27,-124.426"/>
<text text-anchor="middle" x="290.5" y="-324.5" font-family="Helvetica,sans-Serif" font-size="10.00"> &#45;m_pool_id</text>
</g>
<!-- Node8 -->
<g id="node8" class="node"><title>Node8</title>
<polygon fill="white" stroke="#bfbfbf" points="691.5,-234.5 691.5,-291.5 720.5,-291.5 720.5,-234.5 691.5,-234.5"/>
<text text-anchor="middle" x="706" y="-279.5" font-family="Helvetica,sans-Serif" font-size="10.00">Id</text>
<polyline fill="none" stroke="#bfbfbf" points="691.5,-272.5 720.5,-272.5 "/>
<text text-anchor="middle" x="706" y="-260.5" font-family="Helvetica,sans-Serif" font-size="10.00"> </text>
<polyline fill="none" stroke="#bfbfbf" points="691.5,-253.5 720.5,-253.5 "/>
<text text-anchor="middle" x="706" y="-241.5" font-family="Helvetica,sans-Serif" font-size="10.00"> </text>
</g>
<!-- Node8&#45;&gt;Node3 -->
<g id="edge8" class="edge"><title>Node8&#45;&gt;Node3</title>
<path fill="none" stroke="#404040" d="M697.828,-234.452C694.095,-222.983 689.317,-209.651 684,-198 682.797,-195.363 681.548,-192.707 680.262,-190.041"/>
<polygon fill="none" stroke="#404040" points="680.136,-189.787 673.88,-186.201 674.784,-179.046 681.04,-182.633 680.136,-189.787"/>
<text text-anchor="middle" x="721" y="-201.5" font-family="Helvetica,sans-Serif" font-size="10.00"> &#45;m_pool_type</text>
</g>
<!-- Node9 -->
<g id="node9" class="node"><title>Node9</title>
<polygon fill="white" stroke="#bfbfbf" points="815.5,-654.5 815.5,-711.5 858.5,-711.5 858.5,-654.5 815.5,-654.5"/>
<text text-anchor="middle" x="837" y="-699.5" font-family="Helvetica,sans-Serif" font-size="10.00">size_t</text>
<polyline fill="none" stroke="#bfbfbf" points="815.5,-692.5 858.5,-692.5 "/>
<text text-anchor="middle" x="837" y="-680.5" font-family="Helvetica,sans-Serif" font-size="10.00"> </text>
<polyline fill="none" stroke="#bfbfbf" points="815.5,-673.5 858.5,-673.5 "/>
<text text-anchor="middle" x="837" y="-661.5" font-family="Helvetica,sans-Serif" font-size="10.00"> </text>
</g>
<!-- Node9&#45;&gt;Node1 -->
<g id="edge25" class="edge"><title>Node9&#45;&gt;Node1</title>
<path fill="none" stroke="#404040" d="M835.488,-654.057C832.783,-631.607 825.476,-600.818 806,-582 784.135,-560.873 766.465,-578.968 740,-564 727.687,-557.036 728.953,-549.565 717,-542 649.203,-499.089 560.318,-469.791 504.937,-454.222"/>
<polygon fill="none" stroke="#404040" points="504.878,-454.206 498.03,-456.467 493.309,-451.017 500.156,-448.755 504.878,-454.206"/>
<text text-anchor="middle" x="763" y="-550.5" font-family="Helvetica,sans-Serif" font-size="10.00"> &#45;m_region</text>
</g>
<!-- Node9&#45;&gt;Node3 -->
<g id="edge9" class="edge"><title>Node9&#45;&gt;Node3</title>
<path fill="none" stroke="#404040" d="M838.951,-654.292C843.126,-576.422 846.121,-351.323 756,-198 739.486,-169.904 712.593,-146.272 687.217,-128.422"/>
<polygon fill="none" stroke="#404040" points="687.142,-128.372 679.931,-128.305 677.219,-121.623 684.43,-121.69 687.142,-128.372"/>
<text text-anchor="middle" x="851" y="-330" font-family="Helvetica,sans-Serif" font-size="10.00"> &#45;m_capacity</text>
<text text-anchor="middle" x="851" y="-319" font-family="Helvetica,sans-Serif" font-size="10.00">&#45;m_index_immune</text>
</g>
<!-- Node10 -->
<g id="node10" class="node"><title>Node10</title>
<g id="a_node10"><a xlink:href="../../d1/d09/a00077.html" target="_top" xlink:title="{stride::ContactPoolType\l::IdSubscriptArray\&lt; unsigned int \&gt;\n||+ IdSubscriptArray()\l+ IdSubscriptArray()\l+ IdSubscriptArray()\l+ operator[]()\l+ operator[]()\l+ at()\l+ at()\l}">
<polygon fill="white" stroke="black" points="47,-616 47,-750 213,-750 213,-616 47,-616"/>
<text text-anchor="start" x="55" y="-738" font-family="Helvetica,sans-Serif" font-size="10.00">stride::ContactPoolType</text>
<text text-anchor="middle" x="130" y="-727" font-family="Helvetica,sans-Serif" font-size="10.00">::IdSubscriptArray&lt; unsigned int &gt;</text>
<polyline fill="none" stroke="black" points="47,-720 213,-720 "/>
<text text-anchor="middle" x="130" y="-708" font-family="Helvetica,sans-Serif" font-size="10.00"> </text>
<polyline fill="none" stroke="black" points="47,-701 213,-701 "/>
<text text-anchor="start" x="55" y="-689" font-family="Helvetica,sans-Serif" font-size="10.00">+ IdSubscriptArray()</text>
<text text-anchor="start" x="55" y="-678" font-family="Helvetica,sans-Serif" font-size="10.00">+ IdSubscriptArray()</text>
<text text-anchor="start" x="55" y="-667" font-family="Helvetica,sans-Serif" font-size="10.00">+ IdSubscriptArray()</text>
<text text-anchor="start" x="55" y="-656" font-family="Helvetica,sans-Serif" font-size="10.00">+ operator[]()</text>
<text text-anchor="start" x="55" y="-645" font-family="Helvetica,sans-Serif" font-size="10.00">+ operator[]()</text>
<text text-anchor="start" x="55" y="-634" font-family="Helvetica,sans-Serif" font-size="10.00">+ at()</text>
<text text-anchor="start" x="55" y="-623" font-family="Helvetica,sans-Serif" font-size="10.00">+ at()</text>
</a>
</g>
</g>
<!-- Node10&#45;&gt;Node1 -->
<g id="edge10" class="edge"><title>Node10&#45;&gt;Node1</title>
<path fill="none" stroke="#404040" d="M166.364,-615.876C182.896,-590.303 204.308,-562.356 229,-542 280.543,-499.508 352.839,-471.21 401.216,-455.64"/>
<polygon fill="none" stroke="#404040" points="401.22,-455.639 405.748,-450.026 412.67,-452.047 408.142,-457.66 401.22,-455.639"/>
<text text-anchor="middle" x="257" y="-550.5" font-family="Helvetica,sans-Serif" font-size="10.00"> &#45;m_pool_ids</text>
</g>
<!-- Node11&#45;&gt;Node10 -->
<g id="edge11" class="edge"><title>Node11&#45;&gt;Node10</title>
<path fill="none" stroke="midnightblue" d="M122.022,-1020.87C123.588,-954.745 126.594,-827.828 128.435,-750.059"/>
<polygon fill="none" stroke="midnightblue" points="118.521,-1020.86 121.783,-1030.94 125.519,-1021.03 118.521,-1020.86"/>
</g>
<!-- Node12 -->
<g id="node12" class="node"><title>Node12</title>
<g id="a_node12"><a xlink:href="../../d1/d09/a00077.html" target="_top" xlink:title="An std::array modified to enable subscripting with the constact pool type indentifiers. ">
<polygon fill="white" stroke="black" points="149,-877 149,-1011 271,-1011 271,-877 149,-877"/>
<text text-anchor="start" x="157" y="-999" font-family="Helvetica,sans-Serif" font-size="10.00">stride::ContactPoolType</text>
<text text-anchor="middle" x="210" y="-988" font-family="Helvetica,sans-Serif" font-size="10.00">::IdSubscriptArray&lt; T &gt;</text>
<polyline fill="none" stroke="black" points="149,-981 271,-981 "/>
<text text-anchor="middle" x="210" y="-969" font-family="Helvetica,sans-Serif" font-size="10.00"> </text>
<polyline fill="none" stroke="black" points="149,-962 271,-962 "/>
<text text-anchor="start" x="157" y="-950" font-family="Helvetica,sans-Serif" font-size="10.00">+ IdSubscriptArray()</text>
<text text-anchor="start" x="157" y="-939" font-family="Helvetica,sans-Serif" font-size="10.00">+ IdSubscriptArray()</text>
<text text-anchor="start" x="157" y="-928" font-family="Helvetica,sans-Serif" font-size="10.00">+ IdSubscriptArray()</text>
<text text-anchor="start" x="157" y="-917" font-family="Helvetica,sans-Serif" font-size="10.00">+ operator[]()</text>
<text text-anchor="start" x="157" y="-906" font-family="Helvetica,sans-Serif" font-size="10.00">+ operator[]()</text>
<text text-anchor="start" x="157" y="-895" font-family="Helvetica,sans-Serif" font-size="10.00">+ at()</text>
<text text-anchor="start" x="157" y="-884" font-family="Helvetica,sans-Serif" font-size="10.00">+ at()</text>
</a>
</g>
</g>
<!-- Node12&#45;&gt;Node10 -->
<g id="edge13" class="edge"><title>Node12&#45;&gt;Node10</title>
<path fill="none" stroke="orange" d="M186.595,-867.228C175.157,-830.197 161.519,-786.041 150.496,-750.356"/>
<polygon fill="orange" stroke="orange" points="183.31,-868.452 189.606,-876.973 189.998,-866.386 183.31,-868.452"/>
<text text-anchor="middle" x="219" y="-827.5" font-family="Helvetica,sans-Serif" font-size="10.00"> &lt; unsigned int &gt;</text>
</g>
<!-- Node13&#45;&gt;Node12 -->
<g id="edge14" class="edge"><title>Node13&#45;&gt;Node12</title>
<path fill="none" stroke="midnightblue" d="M220.554,-1108.18C218.788,-1080.88 216.358,-1043.3 214.275,-1011.09"/>
<polygon fill="none" stroke="midnightblue" points="217.081,-1108.72 221.22,-1118.47 224.067,-1108.27 217.081,-1108.72"/>
</g>
<!-- Node14 -->
<g id="node14" class="node"><title>Node14</title>
<polygon fill="white" stroke="#bfbfbf" points="231.5,-654.5 231.5,-711.5 266.5,-711.5 266.5,-654.5 231.5,-654.5"/>
<text text-anchor="middle" x="249" y="-699.5" font-family="Helvetica,sans-Serif" font-size="10.00">char</text>
<polyline fill="none" stroke="#bfbfbf" points="231.5,-692.5 266.5,-692.5 "/>
<text text-anchor="middle" x="249" y="-680.5" font-family="Helvetica,sans-Serif" font-size="10.00"> </text>
<polyline fill="none" stroke="#bfbfbf" points="231.5,-673.5 266.5,-673.5 "/>
<text text-anchor="middle" x="249" y="-661.5" font-family="Helvetica,sans-Serif" font-size="10.00"> </text>
</g>
<!-- Node14&#45;&gt;Node1 -->
<g id="edge16" class="edge"><title>Node14&#45;&gt;Node1</title>
<path fill="none" stroke="#404040" d="M252.127,-654.153C255.424,-633.187 262.029,-604.339 275,-582 304.711,-530.83 360.767,-491.195 402.065,-467.158"/>
<polygon fill="none" stroke="#404040" points="402.317,-467.014 405.56,-460.574 412.753,-461.09 409.51,-467.531 402.317,-467.014"/>
<text text-anchor="middle" x="329.5" y="-550.5" font-family="Helvetica,sans-Serif" font-size="10.00"> &#45;m_gender</text>
</g>
<!-- Node15 -->
<g id="node15" class="node"><title>Node15</title>
<g id="a_node15"><a xlink:href="../../d9/dcc/a00102.html" target="_top" xlink:title="Specialisation of IdSubscriptArray foor booleans. ">
<polygon fill="white" stroke="black" points="284.5,-621.5 284.5,-744.5 415.5,-744.5 415.5,-621.5 284.5,-621.5"/>
<text text-anchor="start" x="292.5" y="-732.5" font-family="Helvetica,sans-Serif" font-size="10.00">stride::ContactPoolType</text>
<text text-anchor="middle" x="350" y="-721.5" font-family="Helvetica,sans-Serif" font-size="10.00">::IdSubscriptArray&lt; bool &gt;</text>
<polyline fill="none" stroke="black" points="284.5,-714.5 415.5,-714.5 "/>
<text text-anchor="middle" x="350" y="-702.5" font-family="Helvetica,sans-Serif" font-size="10.00"> </text>
<polyline fill="none" stroke="black" points="284.5,-695.5 415.5,-695.5 "/>
<text text-anchor="start" x="292.5" y="-683.5" font-family="Helvetica,sans-Serif" font-size="10.00">+ IdSubscriptArray()</text>
<text text-anchor="start" x="292.5" y="-672.5" font-family="Helvetica,sans-Serif" font-size="10.00">+ IdSubscriptArray()</text>
<text text-anchor="start" x="292.5" y="-661.5" font-family="Helvetica,sans-Serif" font-size="10.00">+ operator[]()</text>
<text text-anchor="start" x="292.5" y="-650.5" font-family="Helvetica,sans-Serif" font-size="10.00">+ operator[]()</text>
<text text-anchor="start" x="292.5" y="-639.5" font-family="Helvetica,sans-Serif" font-size="10.00">+ at()</text>
<text text-anchor="start" x="292.5" y="-628.5" font-family="Helvetica,sans-Serif" font-size="10.00">+ at()</text>
</a>
</g>
</g>
<!-- Node15&#45;&gt;Node1 -->
<g id="edge17" class="edge"><title>Node15&#45;&gt;Node1</title>
<path fill="none" stroke="#404040" d="M355.601,-621.269C359.473,-595.968 366.002,-566.774 377,-542 384.234,-525.704 394.532,-509.578 405.22,-495.156"/>
<polygon fill="none" stroke="#404040" points="405.35,-494.987 405.825,-487.792 412.649,-485.462 412.174,-492.658 405.35,-494.987"/>
<text text-anchor="middle" x="405" y="-550.5" font-family="Helvetica,sans-Serif" font-size="10.00"> &#45;m_in_pools</text>
</g>
<!-- Node16 -->
<g id="node16" class="node"><title>Node16</title>
<g id="a_node16"><a xlink:title="STL class. ">
<polygon fill="white" stroke="#bfbfbf" points="289,-915.5 289,-972.5 429,-972.5 429,-915.5 289,-915.5"/>
<text text-anchor="middle" x="359" y="-960.5" font-family="Helvetica,sans-Serif" font-size="10.00">std::bitset&lt; NumOfTypes()&gt;</text>
<polyline fill="none" stroke="#bfbfbf" points="289,-953.5 429,-953.5 "/>
<text text-anchor="middle" x="359" y="-941.5" font-family="Helvetica,sans-Serif" font-size="10.00"> </text>
<polyline fill="none" stroke="#bfbfbf" points="289,-934.5 429,-934.5 "/>
<text text-anchor="middle" x="359" y="-922.5" font-family="Helvetica,sans-Serif" font-size="10.00"> </text>
</a>
</g>
</g>
<!-- Node16&#45;&gt;Node15 -->
<g id="edge18" class="edge"><title>Node16&#45;&gt;Node15</title>
<path fill="none" stroke="midnightblue" d="M357.686,-905.173C356.222,-863.05 353.835,-794.366 352.109,-744.704"/>
<polygon fill="none" stroke="midnightblue" points="354.192,-905.41 358.037,-915.282 361.187,-905.167 354.192,-905.41"/>
</g>
<!-- Node17 -->
<g id="node17" class="node"><title>Node17</title>
<polygon fill="white" stroke="#bfbfbf" points="433.5,-654.5 433.5,-711.5 468.5,-711.5 468.5,-654.5 433.5,-654.5"/>
<text text-anchor="middle" x="451" y="-699.5" font-family="Helvetica,sans-Serif" font-size="10.00">bool</text>
<polyline fill="none" stroke="#bfbfbf" points="433.5,-692.5 468.5,-692.5 "/>
<text text-anchor="middle" x="451" y="-680.5" font-family="Helvetica,sans-Serif" font-size="10.00"> </text>
<polyline fill="none" stroke="#bfbfbf" points="433.5,-673.5 468.5,-673.5 "/>
<text text-anchor="middle" x="451" y="-661.5" font-family="Helvetica,sans-Serif" font-size="10.00"> </text>
</g>
<!-- Node17&#45;&gt;Node1 -->
<g id="edge20" class="edge"><title>Node17&#45;&gt;Node1</title>
<path fill="none" stroke="#404040" d="M445.324,-654.405C440.208,-626.19 433.923,-581.084 437,-542 437.163,-539.931 437.344,-537.841 437.542,-535.736"/>
<polygon fill="none" stroke="#404040" points="437.569,-535.485 434.227,-529.095 438.84,-523.553 442.182,-529.943 437.569,-535.485"/>
<text text-anchor="middle" x="474.5" y="-556" font-family="Helvetica,sans-Serif" font-size="10.00"> &#45;m_isTravelling</text>
<text text-anchor="middle" x="474.5" y="-545" font-family="Helvetica,sans-Serif" font-size="10.00">&#45;m_is_participant</text>
</g>
<!-- Node18 -->
<g id="node18" class="node"><title>Node18</title>
<g id="a_node18"><a xlink:href="../../d9/df8/a00096.html" target="_top" xlink:title="Base class for all belief policies. ">
<polygon fill="white" stroke="black" points="487,-643.5 487,-722.5 573,-722.5 573,-643.5 487,-643.5"/>
<text text-anchor="middle" x="530" y="-710.5" font-family="Helvetica,sans-Serif" font-size="10.00">stride::Belief</text>
<polyline fill="none" stroke="black" points="487,-703.5 573,-703.5 "/>
<text text-anchor="middle" x="530" y="-691.5" font-family="Helvetica,sans-Serif" font-size="10.00"> </text>
<polyline fill="none" stroke="black" points="487,-684.5 573,-684.5 "/>
<text text-anchor="start" x="495" y="-672.5" font-family="Helvetica,sans-Serif" font-size="10.00">+ Belief()</text>
<text text-anchor="start" x="495" y="-661.5" font-family="Helvetica,sans-Serif" font-size="10.00">+ ~Belief()</text>
<text text-anchor="start" x="495" y="-650.5" font-family="Helvetica,sans-Serif" font-size="10.00">+ HasAdopted()</text>
</a>
</g>
</g>
<!-- Node18&#45;&gt;Node1 -->
<g id="edge21" class="edge"><title>Node18&#45;&gt;Node1</title>
<path fill="none" stroke="#404040" d="M529.162,-643.337C527.561,-614.69 523.259,-575.056 512,-542 508.49,-531.695 503.863,-521.276 498.74,-511.244"/>
<polygon fill="none" stroke="#404040" points="498.672,-511.117 492.316,-507.711 493.016,-500.533 499.372,-503.94 498.672,-511.117"/>
<text text-anchor="middle" x="539.5" y="-550.5" font-family="Helvetica,sans-Serif" font-size="10.00"> &#45;m_belief</text>
</g>
<!-- Node19 -->
<g id="node19" class="node"><title>Node19</title>
<g id="a_node19"><a xlink:href="../../d3/d00/a00113.html" target="_top" xlink:title="Holds a person&#39;s health data. ">
<polygon fill="white" stroke="black" points="591.5,-583 591.5,-783 734.5,-783 734.5,-583 591.5,-583"/>
<text text-anchor="middle" x="663" y="-771" font-family="Helvetica,sans-Serif" font-size="10.00">stride::Health</text>
<polyline fill="none" stroke="black" points="591.5,-764 734.5,-764 "/>
<text text-anchor="middle" x="663" y="-752" font-family="Helvetica,sans-Serif" font-size="10.00"> </text>
<polyline fill="none" stroke="black" points="591.5,-745 734.5,-745 "/>
<text text-anchor="start" x="599.5" y="-733" font-family="Helvetica,sans-Serif" font-size="10.00">+ Health()</text>
<text text-anchor="start" x="599.5" y="-722" font-family="Helvetica,sans-Serif" font-size="10.00">+ GetEndInfectiousness()</text>
<text text-anchor="start" x="599.5" y="-711" font-family="Helvetica,sans-Serif" font-size="10.00">+ GetEndSymptomatic()</text>
<text text-anchor="start" x="599.5" y="-700" font-family="Helvetica,sans-Serif" font-size="10.00">+ GetStartInfectiousness()</text>
<text text-anchor="start" x="599.5" y="-689" font-family="Helvetica,sans-Serif" font-size="10.00">+ GetStartSymptomatic()</text>
<text text-anchor="start" x="599.5" y="-678" font-family="Helvetica,sans-Serif" font-size="10.00">+ IsImmune()</text>
<text text-anchor="start" x="599.5" y="-667" font-family="Helvetica,sans-Serif" font-size="10.00">+ IsInfected()</text>
<text text-anchor="start" x="599.5" y="-656" font-family="Helvetica,sans-Serif" font-size="10.00">+ IsInfectious()</text>
<text text-anchor="start" x="599.5" y="-645" font-family="Helvetica,sans-Serif" font-size="10.00">+ IsRecovered()</text>
<text text-anchor="start" x="599.5" y="-634" font-family="Helvetica,sans-Serif" font-size="10.00">+ IsSusceptible()</text>
<text text-anchor="start" x="599.5" y="-623" font-family="Helvetica,sans-Serif" font-size="10.00">and 6 more...</text>
<text text-anchor="start" x="599.5" y="-612" font-family="Helvetica,sans-Serif" font-size="10.00">&#45; GetDiseaseCounter()</text>
<text text-anchor="start" x="599.5" y="-601" font-family="Helvetica,sans-Serif" font-size="10.00">&#45; IncrementDiseaseCounter()</text>
<text text-anchor="start" x="599.5" y="-590" font-family="Helvetica,sans-Serif" font-size="10.00">&#45; ResetDiseaseCounter()</text>
</a>
</g>
</g>
<!-- Node19&#45;&gt;Node1 -->
<g id="edge22" class="edge"><title>Node19&#45;&gt;Node1</title>
<path fill="none" stroke="#404040" d="M597.715,-582.701C587.271,-568.64 576.2,-554.671 565,-542 545.978,-520.479 522.692,-498.857 502.29,-481.171"/>
<polygon fill="none" stroke="#404040" points="502.258,-481.143 495.099,-480.278 493.145,-473.337 500.304,-474.202 502.258,-481.143"/>
<text text-anchor="middle" x="606" y="-550.5" font-family="Helvetica,sans-Serif" font-size="10.00"> &#45;m_health</text>
</g>
<!-- Node20 -->
<g id="node20" class="node"><title>Node20</title>
<polygon fill="white" stroke="#bfbfbf" points="575,-915.5 575,-972.5 649,-972.5 649,-915.5 575,-915.5"/>
<text text-anchor="middle" x="612" y="-960.5" font-family="Helvetica,sans-Serif" font-size="10.00">HealthStatus</text>
<polyline fill="none" stroke="#bfbfbf" points="575,-953.5 649,-953.5 "/>
<text text-anchor="middle" x="612" y="-941.5" font-family="Helvetica,sans-Serif" font-size="10.00"> </text>
<polyline fill="none" stroke="#bfbfbf" points="575,-934.5 649,-934.5 "/>
<text text-anchor="middle" x="612" y="-922.5" font-family="Helvetica,sans-Serif" font-size="10.00"> </text>
</g>
<!-- Node20&#45;&gt;Node19 -->
<g id="edge23" class="edge"><title>Node20&#45;&gt;Node19</title>
<path fill="none" stroke="#404040" d="M617.458,-915.282C623.155,-886.352 632.456,-839.115 641.173,-794.847"/>
<polygon fill="none" stroke="#404040" points="641.174,-794.84 638.409,-788.18 643.493,-783.066 646.258,-789.726 641.174,-794.84"/>
<text text-anchor="middle" x="663.5" y="-827.5" font-family="Helvetica,sans-Serif" font-size="10.00"> &#45;m_status</text>
</g>
<!-- Node21 -->
<g id="node21" class="node"><title>Node21</title>
<polygon fill="white" stroke="#bfbfbf" points="667,-915.5 667,-972.5 761,-972.5 761,-915.5 667,-915.5"/>
<text text-anchor="middle" x="714" y="-960.5" font-family="Helvetica,sans-Serif" font-size="10.00">unsigned short int</text>
<polyline fill="none" stroke="#bfbfbf" points="667,-953.5 761,-953.5 "/>
<text text-anchor="middle" x="714" y="-941.5" font-family="Helvetica,sans-Serif" font-size="10.00"> </text>
<polyline fill="none" stroke="#bfbfbf" points="667,-934.5 761,-934.5 "/>
<text text-anchor="middle" x="714" y="-922.5" font-family="Helvetica,sans-Serif" font-size="10.00"> </text>
</g>
<!-- Node21&#45;&gt;Node19 -->
<g id="edge24" class="edge"><title>Node21&#45;&gt;Node19</title>
<path fill="none" stroke="#404040" d="M710.083,-915.337C705.908,-886.831 698.829,-841.157 691,-802 690.536,-799.677 690.058,-797.331 689.569,-794.967"/>
<polygon fill="none" stroke="#404040" points="689.529,-794.776 684.372,-789.735 687.041,-783.037 692.198,-788.077 689.529,-794.776"/>
<text text-anchor="middle" x="753.5" y="-849.5" font-family="Helvetica,sans-Serif" font-size="10.00"> &#45;m_start_symptomatic</text>
<text text-anchor="middle" x="753.5" y="-838.5" font-family="Helvetica,sans-Serif" font-size="10.00">&#45;m_disease_counter</text>
<text text-anchor="middle" x="753.5" y="-827.5" font-family="Helvetica,sans-Serif" font-size="10.00">&#45;m_end_symptomatic</text>
<text text-anchor="middle" x="753.5" y="-816.5" font-family="Helvetica,sans-Serif" font-size="10.00">&#45;m_end_infectiousness</text>
<text text-anchor="middle" x="753.5" y="-805.5" font-family="Helvetica,sans-Serif" font-size="10.00">&#45;m_start_infectiousness</text>
</g>
</g>
</svg>
