<?xml version="1.0" encoding="UTF-8" standalone="no"?>
<!DOCTYPE svg PUBLIC "-//W3C//DTD SVG 1.1//EN"
 "http://www.w3.org/Graphics/SVG/1.1/DTD/svg11.dtd">
<!-- Generated by graphviz version 2.36.0 (20140111.2315)
 -->
<!-- Title: gengeopop::GeoGridJSONReader::Read Pages: 1 -->
<svg width="772pt" height="224pt"
 viewBox="0.00 0.00 772.00 224.00" xmlns="http://www.w3.org/2000/svg" xmlns:xlink="http://www.w3.org/1999/xlink">
<g id="graph0" class="graph" transform="scale(1 1) rotate(0) translate(4 220)">
<title>gengeopop::GeoGridJSONReader::Read</title>
<polygon fill="white" stroke="none" points="-4,4 -4,-220 768,-220 768,4 -4,4"/>
<!-- Node1 -->
<g id="node1" class="node"><title>Node1</title>
<polygon fill="#bfbfbf" stroke="black" points="0,-93 0,-123 164,-123 164,-93 0,-93"/>
<text text-anchor="start" x="8" y="-111" font-family="Helvetica,sans-Serif" font-size="10.00">gengeopop::GeoGridJSONReader</text>
<text text-anchor="middle" x="82" y="-100" font-family="Helvetica,sans-Serif" font-size="10.00">::Read</text>
</g>
<!-- Node2 -->
<g id="node2" class="node"><title>Node2</title>
<g id="a_node2"><a xlink:href="../../dd/d32/a00041.html#af173ec28b1fb8313b64c8a14308b9710" target="_top" xlink:title="Add the commutes that were found to their respective Locations symmetrically. ">
<polygon fill="white" stroke="black" points="213.5,-186 213.5,-216 350.5,-216 350.5,-186 213.5,-186"/>
<text text-anchor="start" x="221.5" y="-204" font-family="Helvetica,sans-Serif" font-size="10.00">gengeopop::GeoGridReader</text>
<text text-anchor="middle" x="282" y="-193" font-family="Helvetica,sans-Serif" font-size="10.00">::AddCommutes</text>
</a>
</g>
</g>
<!-- Node1&#45;&gt;Node2 -->
<g id="edge1" class="edge"><title>Node1&#45;&gt;Node2</title>
<path fill="none" stroke="midnightblue" d="M105.494,-123.152C128.474,-138.124 165.569,-160.915 200,-176 205.354,-178.346 210.997,-180.565 216.709,-182.642"/>
<polygon fill="midnightblue" stroke="midnightblue" points="215.756,-186.016 226.351,-185.997 218.057,-179.405 215.756,-186.016"/>
</g>
<!-- Node3 -->
<g id="node3" class="node"><title>Node3</title>
<g id="a_node3"><a xlink:href="../../dd/d32/a00041.html#a6544f0fb22a2b053a9480f45f06fdcb9" target="_top" xlink:title="Add the SubMunicipalities that were found while looping of the Locations to their parent municipality...">
<polygon fill="white" stroke="black" points="213.5,-137 213.5,-167 350.5,-167 350.5,-137 213.5,-137"/>
<text text-anchor="start" x="221.5" y="-155" font-family="Helvetica,sans-Serif" font-size="10.00">gengeopop::GeoGridReader</text>
<text text-anchor="middle" x="282" y="-144" font-family="Helvetica,sans-Serif" font-size="10.00">::AddSubMunicipalities</text>
</a>
</g>
</g>
<!-- Node1&#45;&gt;Node3 -->
<g id="edge2" class="edge"><title>Node1&#45;&gt;Node3</title>
<path fill="none" stroke="midnightblue" d="M150.587,-123.019C167.537,-126.786 185.858,-130.857 203.26,-134.724"/>
<polygon fill="midnightblue" stroke="midnightblue" points="202.861,-138.221 213.382,-136.974 204.379,-131.388 202.861,-138.221"/>
</g>
<!-- Node4 -->
<g id="node4" class="node"><title>Node4</title>
<g id="a_node4"><a xlink:href="../../d2/df5/a00137.html#afab3ab2a1a33004f9e25d4873c3c1921" target="_top" xlink:title="Get the id. ">
<polygon fill="white" stroke="black" points="228.5,-98.5 228.5,-117.5 335.5,-117.5 335.5,-98.5 228.5,-98.5"/>
<text text-anchor="middle" x="282" y="-105.5" font-family="Helvetica,sans-Serif" font-size="10.00">stride::Person::GetId</text>
</a>
</g>
</g>
<!-- Node1&#45;&gt;Node4 -->
<g id="edge3" class="edge"><title>Node1&#45;&gt;Node4</title>
<path fill="none" stroke="midnightblue" d="M164.105,-108C182.059,-108 200.825,-108 217.934,-108"/>
<polygon fill="midnightblue" stroke="midnightblue" points="218.351,-111.5 228.351,-108 218.351,-104.5 218.351,-111.5"/>
</g>
<!-- Node5 -->
<g id="node5" class="node"><title>Node5</title>
<g id="a_node5"><a xlink:href="../../de/d8c/a00036.html#adaab40c2b8396d2333ca9cd6dd56da7c" target="_top" xlink:title="Create a Location based on the information stored in the provided boost property tree. ">
<polygon fill="white" stroke="black" points="200,-49 200,-79 364,-79 364,-49 200,-49"/>
<text text-anchor="start" x="208" y="-67" font-family="Helvetica,sans-Serif" font-size="10.00">gengeopop::GeoGridJSONReader</text>
<text text-anchor="middle" x="282" y="-56" font-family="Helvetica,sans-Serif" font-size="10.00">::ParseLocation</text>
</a>
</g>
</g>
<!-- Node1&#45;&gt;Node5 -->
<g id="edge4" class="edge"><title>Node1&#45;&gt;Node5</title>
<path fill="none" stroke="midnightblue" d="M150.587,-92.9808C167.537,-89.214 185.858,-85.1426 203.26,-81.2756"/>
<polygon fill="midnightblue" stroke="midnightblue" points="204.379,-84.6122 213.382,-79.0262 202.861,-77.7789 204.379,-84.6122"/>
</g>
<!-- Node9 -->
<g id="node9" class="node"><title>Node9</title>
<g id="a_node9"><a xlink:href="../../de/d8c/a00036.html#a1b92d3bfa883d35e78b2c39c0c2669ab" target="_top" xlink:title="Create a Person based on the information stored in the provided boost property tree. ">
<polygon fill="white" stroke="black" points="200,-0 200,-30 364,-30 364,-0 200,-0"/>
<text text-anchor="start" x="208" y="-18" font-family="Helvetica,sans-Serif" font-size="10.00">gengeopop::GeoGridJSONReader</text>
<text text-anchor="middle" x="282" y="-7" font-family="Helvetica,sans-Serif" font-size="10.00">::ParsePerson</text>
</a>
</g>
</g>
<!-- Node1&#45;&gt;Node9 -->
<g id="edge8" class="edge"><title>Node1&#45;&gt;Node9</title>
<path fill="none" stroke="midnightblue" d="M105.494,-92.8482C128.474,-77.8759 165.569,-55.0846 200,-40 205.354,-37.6543 210.997,-35.4347 216.709,-33.3585"/>
<polygon fill="midnightblue" stroke="midnightblue" points="218.057,-36.5955 226.351,-30.0028 215.756,-29.9844 218.057,-36.5955"/>
</g>
<!-- Node6 -->
<g id="node6" class="node"><title>Node6</title>
<g id="a_node6"><a xlink:href="../../de/d8c/a00036.html#a79a837a7ecbfb5b5aeccdc5ffb999291" target="_top" xlink:title="Create a Coordinate based on the information stored in the provided boost property tree...">
<polygon fill="white" stroke="black" points="400,-74 400,-104 564,-104 564,-74 400,-74"/>
<text text-anchor="start" x="408" y="-92" font-family="Helvetica,sans-Serif" font-size="10.00">gengeopop::GeoGridJSONReader</text>
<text text-anchor="middle" x="482" y="-81" font-family="Helvetica,sans-Serif" font-size="10.00">::ParseCoordinate</text>
</a>
</g>
</g>
<!-- Node5&#45;&gt;Node6 -->
<g id="edge5" class="edge"><title>Node5&#45;&gt;Node6</title>
<path fill="none" stroke="midnightblue" d="M364.105,-74.2406C372.549,-75.3067 381.172,-76.3955 389.719,-77.4746"/>
<polygon fill="midnightblue" stroke="midnightblue" points="389.341,-80.9545 399.7,-78.7349 390.217,-74.0097 389.341,-80.9545"/>
</g>
<!-- Node7 -->
<g id="node7" class="node"><title>Node7</title>
<g id="a_node7"><a xlink:href="../../de/d8c/a00036.html#afb3033a81be83438278779ea66f0ac7d" target="_top" xlink:title="Create a ContactCenter based on the information stored in the provided boost property tree...">
<polygon fill="white" stroke="black" points="400,-25 400,-55 564,-55 564,-25 400,-25"/>
<text text-anchor="start" x="408" y="-43" font-family="Helvetica,sans-Serif" font-size="10.00">gengeopop::GeoGridJSONReader</text>
<text text-anchor="middle" x="482" y="-32" font-family="Helvetica,sans-Serif" font-size="10.00">::ParseContactCenter</text>
</a>
</g>
</g>
<!-- Node5&#45;&gt;Node7 -->
<g id="edge6" class="edge"><title>Node5&#45;&gt;Node7</title>
<path fill="none" stroke="midnightblue" d="M364.105,-54.169C372.549,-53.1456 381.172,-52.1003 389.719,-51.0644"/>
<polygon fill="midnightblue" stroke="midnightblue" points="390.194,-54.5325 399.7,-49.8545 389.352,-47.5833 390.194,-54.5325"/>
</g>
<!-- Node8 -->
<g id="node8" class="node"><title>Node8</title>
<g id="a_node8"><a xlink:href="../../de/d8c/a00036.html#a5672d9dab3a04cd5663b67b8dadae157" target="_top" xlink:title="Create a ContactCenter based on the information stored in the provided boost property tree...">
<polygon fill="white" stroke="black" points="600,-25 600,-55 764,-55 764,-25 600,-25"/>
<text text-anchor="start" x="608" y="-43" font-family="Helvetica,sans-Serif" font-size="10.00">gengeopop::GeoGridJSONReader</text>
<text text-anchor="middle" x="682" y="-32" font-family="Helvetica,sans-Serif" font-size="10.00">::ParseContactPool</text>
</a>
</g>
</g>
<!-- Node7&#45;&gt;Node8 -->
<g id="edge7" class="edge"><title>Node7&#45;&gt;Node8</title>
<path fill="none" stroke="midnightblue" d="M564.105,-40C572.457,-40 580.985,-40 589.44,-40"/>
<polygon fill="midnightblue" stroke="midnightblue" points="589.7,-43.5001 599.7,-40 589.7,-36.5001 589.7,-43.5001"/>
</g>
</g>
</svg>
