<?xml version="1.0" encoding="UTF-8" standalone="no"?>
<!DOCTYPE svg PUBLIC "-//W3C//DTD SVG 1.1//EN"
 "http://www.w3.org/Graphics/SVG/1.1/DTD/svg11.dtd">
<!-- Generated by graphviz version 2.36.0 (20140111.2315)
 -->
<!-- Title: Backend::SetShowCommutes Pages: 1 -->
<svg width="910pt" height="158pt"
 viewBox="0.00 0.00 910.00 157.55" xmlns="http://www.w3.org/2000/svg" xmlns:xlink="http://www.w3.org/1999/xlink">
<g id="graph0" class="graph" transform="scale(1 1) rotate(0) translate(4 153.55)">
<title>Backend::SetShowCommutes</title>
<polygon fill="white" stroke="none" points="-4,4 -4,-153.55 906,-153.55 906,4 -4,4"/>
<!-- Node1 -->
<g id="node1" class="node"><title>Node1</title>
<polygon fill="#bfbfbf" stroke="black" points="0.5,-38.0501 0.5,-57.0501 149.5,-57.0501 149.5,-38.0501 0.5,-38.0501"/>
<text text-anchor="middle" x="75" y="-45.0501" font-family="Helvetica,sans-Serif" font-size="10.00">Backend::SetShowCommutes</text>
</g>
<!-- Node2 -->
<g id="node2" class="node"><title>Node2</title>
<g id="a_node2"><a xlink:href="../../d8/d84/a00001.html#a12718652247133e7a7dc8fba69fdd56d" target="_top" xlink:title="Removes all locations from selection and unselection + re&#45;render the map. ">
<polygon fill="white" stroke="black" points="186,-54.5501 186,-84.5501 328,-84.5501 328,-54.5501 186,-54.5501"/>
<text text-anchor="start" x="194" y="-72.5501" font-family="Helvetica,sans-Serif" font-size="10.00">Backend::ClearSelectionAnd</text>
<text text-anchor="middle" x="257" y="-61.5501" font-family="Helvetica,sans-Serif" font-size="10.00">Render</text>
</a>
</g>
</g>
<!-- Node1&#45;&gt;Node2 -->
<g id="edge1" class="edge"><title>Node1&#45;&gt;Node2</title>
<path fill="none" stroke="midnightblue" d="M149.732,-56.5618C158.316,-57.6109 167.103,-58.6849 175.768,-59.744"/>
<polygon fill="midnightblue" stroke="midnightblue" points="175.514,-63.2389 185.865,-60.978 176.363,-56.2906 175.514,-63.2389"/>
</g>
<!-- Node10 -->
<g id="node10" class="node"><title>Node10</title>
<g id="a_node10"><a xlink:href="../../d8/d84/a00001.html#a0ed26b4e4fdbffb693fc5a93db1fabe5" target="_top" xlink:title="Places the markers on the map, according to the current checked boxes. ">
<polygon fill="white" stroke="black" points="384.5,-16.0501 384.5,-35.0501 505.5,-35.0501 505.5,-16.0501 384.5,-16.0501"/>
<text text-anchor="middle" x="445" y="-23.0501" font-family="Helvetica,sans-Serif" font-size="10.00">Backend::PlaceMarkers</text>
</a>
</g>
</g>
<!-- Node1&#45;&gt;Node10 -->
<g id="edge10" class="edge"><title>Node1&#45;&gt;Node10</title>
<path fill="none" stroke="midnightblue" d="M149.586,-43.1509C215.089,-39.235 310.218,-33.5479 374.463,-29.7072"/>
<polygon fill="midnightblue" stroke="midnightblue" points="374.726,-33.1978 384.499,-29.1072 374.308,-26.2103 374.726,-33.1978"/>
</g>
<!-- Node3 -->
<g id="node3" class="node"><title>Node3</title>
<g id="a_node3"><a xlink:href="../../d8/d84/a00001.html#a613fb0cc751f55a428c18156fae84d15" target="_top" xlink:title="Sends a signal with the currently selected locations. ">
<polygon fill="white" stroke="black" points="383.5,-54.0501 383.5,-73.0501 506.5,-73.0501 506.5,-54.0501 383.5,-54.0501"/>
<text text-anchor="middle" x="445" y="-61.0501" font-family="Helvetica,sans-Serif" font-size="10.00">Backend::EmitLocations</text>
</a>
</g>
</g>
<!-- Node2&#45;&gt;Node3 -->
<g id="edge2" class="edge"><title>Node2&#45;&gt;Node3</title>
<path fill="none" stroke="midnightblue" d="M328.054,-67.2903C342.863,-66.8126 358.501,-66.3081 373.333,-65.8297"/>
<polygon fill="midnightblue" stroke="midnightblue" points="373.571,-69.3239 383.453,-65.5032 373.345,-62.3275 373.571,-69.3239"/>
</g>
<!-- Node5 -->
<g id="node5" class="node"><title>Node5</title>
<g id="a_node5"><a xlink:href="../../d8/d84/a00001.html#a711a658ab043057fa608d1db6a49df24" target="_top" xlink:title="Update colors of Markers based on the value of m_selection and m_unselection. ">
<polygon fill="white" stroke="black" points="364.5,-92.0501 364.5,-111.05 525.5,-111.05 525.5,-92.0501 364.5,-92.0501"/>
<text text-anchor="middle" x="445" y="-99.0501" font-family="Helvetica,sans-Serif" font-size="10.00">Backend::UpdateColorOfMarkers</text>
</a>
</g>
</g>
<!-- Node2&#45;&gt;Node5 -->
<g id="edge4" class="edge"><title>Node2&#45;&gt;Node5</title>
<path fill="none" stroke="midnightblue" d="M328.054,-81.6023C344.598,-84.4486 362.175,-87.4727 378.509,-90.2828"/>
<polygon fill="midnightblue" stroke="midnightblue" points="378.049,-93.7551 388.498,-92.0013 379.236,-86.8564 378.049,-93.7551"/>
</g>
<!-- Node4 -->
<g id="node4" class="node"><title>Node4</title>
<g id="a_node4"><a xlink:href="../../d8/d84/a00001.html#a0478e17f39806247ce5544cac69f528f" target="_top" xlink:title="Return the requested location. ">
<polygon fill="white" stroke="black" points="567,-54.0501 567,-73.0501 719,-73.0501 719,-54.0501 567,-54.0501"/>
<text text-anchor="middle" x="643" y="-61.0501" font-family="Helvetica,sans-Serif" font-size="10.00">Backend::GetLocationInRegion</text>
</a>
</g>
</g>
<!-- Node3&#45;&gt;Node4 -->
<g id="edge3" class="edge"><title>Node3&#45;&gt;Node4</title>
<path fill="none" stroke="midnightblue" d="M506.673,-63.5501C522.408,-63.5501 539.652,-63.5501 556.405,-63.5501"/>
<polygon fill="midnightblue" stroke="midnightblue" points="556.754,-67.0502 566.754,-63.5501 556.754,-60.0502 556.754,-67.0502"/>
</g>
<!-- Node5&#45;&gt;Node4 -->
<g id="edge5" class="edge"><title>Node5&#45;&gt;Node4</title>
<path fill="none" stroke="midnightblue" d="M495.206,-92.0101C521.767,-86.8605 554.749,-80.4661 582.718,-75.0436"/>
<polygon fill="midnightblue" stroke="midnightblue" points="583.623,-78.4334 592.774,-73.094 582.29,-71.5614 583.623,-78.4334"/>
</g>
<!-- Node6 -->
<g id="node6" class="node"><title>Node6</title>
<g id="a_node6"><a xlink:href="../../d8/d84/a00001.html#a0382cea391f86bd0759ec8bd2784a332" target="_top" xlink:title="Hides the commutes between the given 2 locations on the map. ">
<polygon fill="white" stroke="black" points="562,-130.05 562,-149.05 724,-149.05 724,-130.05 562,-130.05"/>
<text text-anchor="middle" x="643" y="-137.05" font-family="Helvetica,sans-Serif" font-size="10.00">Backend::HideCommuteBetween</text>
</a>
</g>
</g>
<!-- Node5&#45;&gt;Node6 -->
<g id="edge6" class="edge"><title>Node5&#45;&gt;Node6</title>
<path fill="none" stroke="midnightblue" d="M495.206,-111.09C521.767,-116.24 554.749,-122.634 582.718,-128.057"/>
<polygon fill="midnightblue" stroke="midnightblue" points="582.29,-131.539 592.774,-130.006 583.623,-124.667 582.29,-131.539"/>
</g>
<!-- Node8 -->
<g id="node8" class="node"><title>Node8</title>
<g id="a_node8"><a xlink:href="../../d8/d84/a00001.html#a852a5daca487b26cdb2416733cee3721" target="_top" xlink:title="Shows the commute from loc1 to loc2 on the map. ">
<polygon fill="white" stroke="black" points="579,-92.0501 579,-111.05 707,-111.05 707,-92.0501 579,-92.0501"/>
<text text-anchor="middle" x="643" y="-99.0501" font-family="Helvetica,sans-Serif" font-size="10.00">Backend::ShowCommute</text>
</a>
</g>
</g>
<!-- Node5&#45;&gt;Node8 -->
<g id="edge8" class="edge"><title>Node5&#45;&gt;Node8</title>
<path fill="none" stroke="midnightblue" d="M525.721,-101.55C539.963,-101.55 554.74,-101.55 568.788,-101.55"/>
<polygon fill="midnightblue" stroke="midnightblue" points="568.872,-105.05 578.872,-101.55 568.872,-98.0502 568.872,-105.05"/>
</g>
<!-- Node7 -->
<g id="node7" class="node"><title>Node7</title>
<g id="a_node7"><a xlink:href="../../d8/d84/a00001.html#acd9816e8f8840c71d0cbe46c2a826126" target="_top" xlink:title="Hides the commute line on the map. ">
<polygon fill="white" stroke="black" points="760,-130.05 760,-149.05 902,-149.05 902,-130.05 760,-130.05"/>
<text text-anchor="middle" x="831" y="-137.05" font-family="Helvetica,sans-Serif" font-size="10.00">Backend::HideCommuteLine</text>
</a>
</g>
</g>
<!-- Node6&#45;&gt;Node7 -->
<g id="edge7" class="edge"><title>Node6&#45;&gt;Node7</title>
<path fill="none" stroke="midnightblue" d="M724.23,-139.55C732.688,-139.55 741.29,-139.55 749.748,-139.55"/>
<polygon fill="midnightblue" stroke="midnightblue" points="749.975,-143.05 759.975,-139.55 749.975,-136.05 749.975,-143.05"/>
</g>
<!-- Node9 -->
<g id="node9" class="node"><title>Node9</title>
<g id="a_node9"><a xlink:href="../../d8/d84/a00001.html#adfeca0359eba8ac76a148ba3a6463178" target="_top" xlink:title="Add a line on the map for the given commute info. ">
<polygon fill="white" stroke="black" points="761.5,-35.0501 761.5,-54.0501 900.5,-54.0501 900.5,-35.0501 761.5,-35.0501"/>
<text text-anchor="middle" x="831" y="-42.0501" font-family="Helvetica,sans-Serif" font-size="10.00">Backend::AddCommuteLine</text>
</a>
</g>
</g>
<!-- Node8&#45;&gt;Node9 -->
<g id="edge9" class="edge"><title>Node8&#45;&gt;Node9</title>
<path fill="none" stroke="midnightblue" d="M688.246,-91.9679C699.94,-89.1832 712.505,-85.964 724,-82.5501 748.48,-75.2797 775.576,-65.5351 796.245,-57.7342"/>
<polygon fill="midnightblue" stroke="midnightblue" points="797.737,-60.9113 805.835,-54.0802 795.244,-54.37 797.737,-60.9113"/>
</g>
<!-- Node10&#45;&gt;Node4 -->
<g id="edge11" class="edge"><title>Node10&#45;&gt;Node4</title>
<path fill="none" stroke="midnightblue" d="M495.206,-35.09C521.767,-40.2397 554.749,-46.6341 582.718,-52.0565"/>
<polygon fill="midnightblue" stroke="midnightblue" points="582.29,-55.5388 592.774,-54.0062 583.623,-48.6668 582.29,-55.5388"/>
</g>
<!-- Node10&#45;&gt;Node9 -->
<g id="edge12" class="edge"><title>Node10&#45;&gt;Node9</title>
<path fill="none" stroke="midnightblue" d="M490.637,-15.9715C545.839,-5.61954 642.498,7.61727 724,-6.55008 750.77,-11.2035 779.717,-22.0051 800.586,-30.9073"/>
<polygon fill="midnightblue" stroke="midnightblue" points="799.289,-34.1598 809.853,-34.9619 802.095,-27.7468 799.289,-34.1598"/>
</g>
<!-- Node11 -->
<g id="node11" class="node"><title>Node11</title>
<g id="a_node11"><a xlink:href="../../d8/d84/a00001.html#a294338bb0db7d2ddf23be0ec8a916c24" target="_top" xlink:title="Places a marker at the given coordinate &#160;specialmarker Whether or not to display a special marker...">
<polygon fill="white" stroke="black" points="585,-16.0501 585,-35.0501 701,-35.0501 701,-16.0501 585,-16.0501"/>
<text text-anchor="middle" x="643" y="-23.0501" font-family="Helvetica,sans-Serif" font-size="10.00">Backend::PlaceMarker</text>
</a>
</g>
</g>
<!-- Node10&#45;&gt;Node11 -->
<g id="edge13" class="edge"><title>Node10&#45;&gt;Node11</title>
<path fill="none" stroke="midnightblue" d="M505.605,-25.5501C527.385,-25.5501 552.17,-25.5501 574.583,-25.5501"/>
<polygon fill="midnightblue" stroke="midnightblue" points="574.695,-29.0502 584.695,-25.5501 574.695,-22.0502 574.695,-29.0502"/>
</g>
</g>
</svg>
