<?xml version="1.0" encoding="UTF-8" standalone="no"?>
<!DOCTYPE svg PUBLIC "-//W3C//DTD SVG 1.1//EN"
 "http://www.w3.org/Graphics/SVG/1.1/DTD/svg11.dtd">
<!-- Generated by graphviz version 2.36.0 (20140111.2315)
 -->
<!-- Title: Backend::OnExtraMarkerClicked Pages: 1 -->
<svg width="742pt" height="135pt"
 viewBox="0.00 0.00 742.00 135.00" xmlns="http://www.w3.org/2000/svg" xmlns:xlink="http://www.w3.org/1999/xlink">
<g id="graph0" class="graph" transform="scale(1 1) rotate(0) translate(4 131)">
<title>Backend::OnExtraMarkerClicked</title>
<polygon fill="white" stroke="none" points="-4,4 -4,-131 738,-131 738,4 -4,4"/>
<!-- Node1 -->
<g id="node1" class="node"><title>Node1</title>
<polygon fill="#bfbfbf" stroke="black" points="0,-63.5 0,-82.5 160,-82.5 160,-63.5 0,-63.5"/>
<text text-anchor="middle" x="80" y="-70.5" font-family="Helvetica,sans-Serif" font-size="10.00">Backend::OnExtraMarkerClicked</text>
</g>
<!-- Node2 -->
<g id="node2" class="node"><title>Node2</title>
<g id="a_node2"><a xlink:href="../../d8/d84/a00001.html#a613fb0cc751f55a428c18156fae84d15" target="_top" xlink:title="Sends a signal with the currently selected locations. ">
<polygon fill="white" stroke="black" points="215.5,-107.5 215.5,-126.5 338.5,-126.5 338.5,-107.5 215.5,-107.5"/>
<text text-anchor="middle" x="277" y="-114.5" font-family="Helvetica,sans-Serif" font-size="10.00">Backend::EmitLocations</text>
</a>
</g>
</g>
<!-- Node1&#45;&gt;Node2 -->
<g id="edge1" class="edge"><title>Node1&#45;&gt;Node2</title>
<path fill="none" stroke="midnightblue" d="M123.312,-82.5473C152.826,-89.2069 192.4,-98.1363 223.863,-105.236"/>
<polygon fill="midnightblue" stroke="midnightblue" points="223.245,-108.684 233.77,-107.471 224.786,-101.856 223.245,-108.684"/>
</g>
<!-- Node4 -->
<g id="node4" class="node"><title>Node4</title>
<g id="a_node4"><a xlink:href="../../d8/d84/a00001.html#a09f0850d236439a5c5a2025dd1bab78c" target="_top" xlink:title="Adds the location to the selection if it is not yet in the list. ">
<polygon fill="white" stroke="black" points="211.5,-58 211.5,-88 342.5,-88 342.5,-58 211.5,-58"/>
<text text-anchor="start" x="219.5" y="-76" font-family="Helvetica,sans-Serif" font-size="10.00">Backend::ToggleSelection</text>
<text text-anchor="middle" x="277" y="-65" font-family="Helvetica,sans-Serif" font-size="10.00">OfLocation</text>
</a>
</g>
</g>
<!-- Node1&#45;&gt;Node4 -->
<g id="edge3" class="edge"><title>Node1&#45;&gt;Node4</title>
<path fill="none" stroke="midnightblue" d="M160.033,-73C173.662,-73 187.79,-73 201.3,-73"/>
<polygon fill="midnightblue" stroke="midnightblue" points="201.492,-76.5001 211.492,-73 201.492,-69.5001 201.492,-76.5001"/>
</g>
<!-- Node5 -->
<g id="node5" class="node"><title>Node5</title>
<g id="a_node5"><a xlink:href="../../d8/d84/a00001.html#a711a658ab043057fa608d1db6a49df24" target="_top" xlink:title="Update colors of Markers based on the value of m_selection and m_unselection. ">
<polygon fill="white" stroke="black" points="196.5,-19.5 196.5,-38.5 357.5,-38.5 357.5,-19.5 196.5,-19.5"/>
<text text-anchor="middle" x="277" y="-26.5" font-family="Helvetica,sans-Serif" font-size="10.00">Backend::UpdateColorOfMarkers</text>
</a>
</g>
</g>
<!-- Node1&#45;&gt;Node5 -->
<g id="edge4" class="edge"><title>Node1&#45;&gt;Node5</title>
<path fill="none" stroke="midnightblue" d="M123.312,-63.4527C152.826,-56.7931 192.4,-47.8637 223.863,-40.7642"/>
<polygon fill="midnightblue" stroke="midnightblue" points="224.786,-44.144 233.77,-38.5287 223.245,-37.3157 224.786,-44.144"/>
</g>
<!-- Node3 -->
<g id="node3" class="node"><title>Node3</title>
<g id="a_node3"><a xlink:href="../../d8/d84/a00001.html#a0478e17f39806247ce5544cac69f528f" target="_top" xlink:title="Return the requested location. ">
<polygon fill="white" stroke="black" points="399,-82.5 399,-101.5 551,-101.5 551,-82.5 399,-82.5"/>
<text text-anchor="middle" x="475" y="-89.5" font-family="Helvetica,sans-Serif" font-size="10.00">Backend::GetLocationInRegion</text>
</a>
</g>
</g>
<!-- Node2&#45;&gt;Node3 -->
<g id="edge2" class="edge"><title>Node2&#45;&gt;Node3</title>
<path fill="none" stroke="midnightblue" d="M338.673,-109.261C354.744,-107.211 372.39,-104.96 389.478,-102.781"/>
<polygon fill="midnightblue" stroke="midnightblue" points="389.982,-106.245 399.459,-101.508 389.097,-99.3012 389.982,-106.245"/>
</g>
<!-- Node5&#45;&gt;Node3 -->
<g id="edge5" class="edge"><title>Node5&#45;&gt;Node3</title>
<path fill="none" stroke="midnightblue" d="M326.817,-38.5214C337.255,-41.1296 348.111,-44.2846 358,-48 374.936,-54.3631 377.296,-60.0506 394,-67 405.015,-71.5824 417.179,-75.7939 428.627,-79.4019"/>
<polygon fill="midnightblue" stroke="midnightblue" points="427.87,-82.8304 438.457,-82.4114 429.92,-76.1371 427.87,-82.8304"/>
</g>
<!-- Node6 -->
<g id="node6" class="node"><title>Node6</title>
<g id="a_node6"><a xlink:href="../../d8/d84/a00001.html#a0382cea391f86bd0759ec8bd2784a332" target="_top" xlink:title="Hides the commutes between the given 2 locations on the map. ">
<polygon fill="white" stroke="black" points="394,-38.5 394,-57.5 556,-57.5 556,-38.5 394,-38.5"/>
<text text-anchor="middle" x="475" y="-45.5" font-family="Helvetica,sans-Serif" font-size="10.00">Backend::HideCommuteBetween</text>
</a>
</g>
</g>
<!-- Node5&#45;&gt;Node6 -->
<g id="edge6" class="edge"><title>Node5&#45;&gt;Node6</title>
<path fill="none" stroke="midnightblue" d="M357.721,-36.728C366.252,-37.5551 374.976,-38.4007 383.62,-39.2386"/>
<polygon fill="midnightblue" stroke="midnightblue" points="383.423,-42.7359 393.714,-40.2172 384.098,-35.7685 383.423,-42.7359"/>
</g>
<!-- Node8 -->
<g id="node8" class="node"><title>Node8</title>
<g id="a_node8"><a xlink:href="../../d8/d84/a00001.html#a852a5daca487b26cdb2416733cee3721" target="_top" xlink:title="Shows the commute from loc1 to loc2 on the map. ">
<polygon fill="white" stroke="black" points="411,-0.5 411,-19.5 539,-19.5 539,-0.5 411,-0.5"/>
<text text-anchor="middle" x="475" y="-7.5" font-family="Helvetica,sans-Serif" font-size="10.00">Backend::ShowCommute</text>
</a>
</g>
</g>
<!-- Node5&#45;&gt;Node8 -->
<g id="edge8" class="edge"><title>Node5&#45;&gt;Node8</title>
<path fill="none" stroke="midnightblue" d="M357.721,-21.272C371.963,-19.8913 386.74,-18.4589 400.788,-17.097"/>
<polygon fill="midnightblue" stroke="midnightblue" points="401.256,-20.5682 410.872,-16.1196 400.581,-13.6009 401.256,-20.5682"/>
</g>
<!-- Node7 -->
<g id="node7" class="node"><title>Node7</title>
<g id="a_node7"><a xlink:href="../../d8/d84/a00001.html#acd9816e8f8840c71d0cbe46c2a826126" target="_top" xlink:title="Hides the commute line on the map. ">
<polygon fill="white" stroke="black" points="592,-38.5 592,-57.5 734,-57.5 734,-38.5 592,-38.5"/>
<text text-anchor="middle" x="663" y="-45.5" font-family="Helvetica,sans-Serif" font-size="10.00">Backend::HideCommuteLine</text>
</a>
</g>
</g>
<!-- Node6&#45;&gt;Node7 -->
<g id="edge7" class="edge"><title>Node6&#45;&gt;Node7</title>
<path fill="none" stroke="midnightblue" d="M556.23,-48C564.688,-48 573.29,-48 581.748,-48"/>
<polygon fill="midnightblue" stroke="midnightblue" points="581.975,-51.5001 591.975,-48 581.975,-44.5001 581.975,-51.5001"/>
</g>
<!-- Node9 -->
<g id="node9" class="node"><title>Node9</title>
<g id="a_node9"><a xlink:href="../../d8/d84/a00001.html#adfeca0359eba8ac76a148ba3a6463178" target="_top" xlink:title="Add a line on the map for the given commute info. ">
<polygon fill="white" stroke="black" points="593.5,-0.5 593.5,-19.5 732.5,-19.5 732.5,-0.5 593.5,-0.5"/>
<text text-anchor="middle" x="663" y="-7.5" font-family="Helvetica,sans-Serif" font-size="10.00">Backend::AddCommuteLine</text>
</a>
</g>
</g>
<!-- Node8&#45;&gt;Node9 -->
<g id="edge9" class="edge"><title>Node8&#45;&gt;Node9</title>
<path fill="none" stroke="midnightblue" d="M539.231,-10C553.35,-10 568.492,-10 583.153,-10"/>
<polygon fill="midnightblue" stroke="midnightblue" points="583.209,-13.5001 593.209,-10 583.209,-6.5001 583.209,-13.5001"/>
</g>
</g>
</svg>
