<?xml version="1.0" encoding="UTF-8" standalone="no"?>
<!DOCTYPE svg PUBLIC "-//W3C//DTD SVG 1.1//EN"
 "http://www.w3.org/Graphics/SVG/1.1/DTD/svg11.dtd">
<!-- Generated by graphviz version 2.36.0 (20140111.2315)
 -->
<!-- Title: Backend::HideCommuteBetween Pages: 1 -->
<!--zoomable 229 -->
<svg id="main" version="1.1" xmlns="http://www.w3.org/2000/svg" xmlns:xlink="http://www.w3.org/1999/xlink" xml:space="preserve" onload="init(evt)">
<style type="text/css"><![CDATA[
.edge:hover path { stroke: red; }
.edge:hover polygon { stroke: red; fill: red; }
]]></style>
<script type="text/javascript"><![CDATA[
var edges = document.getElementsByTagName('g');
if (edges && edges.length) {
  for (var i=0;i<edges.length;i++) {
    if (edges[i].id.substr(0,4)=='edge') {
      edges[i].setAttribute('class','edge');
    }
  }
}
]]></script>
        <defs>
                <circle id="rim" cx="0" cy="0" r="7"/>
                <circle id="rim2" cx="0" cy="0" r="3.5"/>
                <g id="zoomPlus">
                        <use xlink:href="#rim" fill="#404040">
                                <set attributeName="fill" to="#808080" begin="zoomplus.mouseover" end="zoomplus.mouseout"/>
                        </use>
                        <path d="M-4,0h8M0,-4v8" fill="none" stroke="white" stroke-width="1.5" pointer-events="none"/>
                </g>
                <g id="zoomMin">
                        <use xlink:href="#rim" fill="#404040">
                                <set attributeName="fill" to="#808080" begin="zoomminus.mouseover" end="zoomminus.mouseout"/>
                        </use>
                        <path d="M-4,0h8" fill="none" stroke="white" stroke-width="1.5" pointer-events="none"/>
                </g>
                <g id="dirArrow">
                        <path fill="none" stroke="white" stroke-width="1.5" d="M0,-3.0v7 M-2.5,-0.5L0,-3.0L2.5,-0.5"/>
                </g>
               <g id="resetDef">
                       <use xlink:href="#rim2" fill="#404040">
                               <set attributeName="fill" to="#808080" begin="reset.mouseover" end="reset.mouseout"/>
                       </use>
               </g>
        </defs>

<script type="text/javascript">
var viewWidth = 750;
var viewHeight = 229;
var sectionId = 'dynsection-34';
</script>
<script xlink:href="../../svgpan.js"/>
<svg id="graph" class="graph">
<g id="viewport">
<title>Backend::HideCommuteBetween</title>
<polygon fill="white" stroke="none" points="-4,4 -4,-225 746,-225 746,4 -4,4"/>
<!-- Node1 -->
<g id="node1" class="node"><title>Node1</title>
<polygon fill="#bfbfbf" stroke="black" points="0,-95.5 0,-114.5 162,-114.5 162,-95.5 0,-95.5"/>
<text text-anchor="middle" x="81" y="-102.5" font-family="Helvetica,sans-Serif" font-size="10.00">Backend::HideCommuteBetween</text>
</g>
<!-- Node2 -->
<g id="node2" class="node"><title>Node2</title>
<g id="a_node2"><a xlink:href="../../d8/d84/a00001.html#a711a658ab043057fa608d1db6a49df24" target="_top" xlink:title="Update colors of Markers based on the value of m_selection and m_unselection. ">
<polygon fill="white" stroke="black" points="198.5,-95.5 198.5,-114.5 359.5,-114.5 359.5,-95.5 198.5,-95.5"/>
<text text-anchor="middle" x="279" y="-102.5" font-family="Helvetica,sans-Serif" font-size="10.00">Backend::UpdateColorOfMarkers</text>
</a>
</g>
</g>
<!-- Node1&#45;&gt;Node2 -->
<g id="edge1" class="edge"><title>Node1&#45;&gt;Node2</title>
<path fill="none" stroke="midnightblue" d="M172.167,-105C180.871,-105 189.659,-105 198.252,-105"/>
<polygon fill="midnightblue" stroke="midnightblue" points="172.003,-101.5 162.003,-105 172.003,-108.5 172.003,-101.5"/>
</g>
<!-- Node3 -->
<g id="node3" class="node"><title>Node3</title>
<g id="a_node3"><a xlink:href="../../d8/d84/a00001.html#a57957c86dc6eb450c9b4830001d4000e" target="_top" xlink:title="Removes all locations from selection and unselection but don&#39;t re&#45;render the map. ...">
<polygon fill="white" stroke="black" points="413.5,-114.5 413.5,-133.5 538.5,-133.5 538.5,-114.5 413.5,-114.5"/>
<text text-anchor="middle" x="476" y="-121.5" font-family="Helvetica,sans-Serif" font-size="10.00">Backend::ClearSelection</text>
</a>
</g>
</g>
<!-- Node2&#45;&gt;Node3 -->
<g id="edge2" class="edge"><title>Node2&#45;&gt;Node3</title>
<path fill="none" stroke="midnightblue" d="M369.737,-113.744C384.465,-115.179 399.431,-116.637 413.279,-117.986"/>
<polygon fill="midnightblue" stroke="midnightblue" points="369.888,-110.242 359.595,-112.755 369.209,-117.209 369.888,-110.242"/>
</g>
<!-- Node4 -->
<g id="node4" class="node"><title>Node4</title>
<g id="a_node4"><a xlink:href="../../d8/d84/a00001.html#a21d367f733a25f731ee2c9e55a3d796e" target="_top" xlink:title="Handles a click on a marker. ">
<polygon fill="white" stroke="black" points="598.5,-133.5 598.5,-152.5 735.5,-152.5 735.5,-133.5 598.5,-133.5"/>
<text text-anchor="middle" x="667" y="-140.5" font-family="Helvetica,sans-Serif" font-size="10.00">Backend::OnMarkerClicked</text>
</a>
</g>
</g>
<!-- Node2&#45;&gt;Node4 -->
<g id="edge8" class="edge"><title>Node2&#45;&gt;Node4</title>
<path fill="none" stroke="midnightblue" d="M311.7,-118.408C334.644,-127.359 366.651,-138.315 396,-143 464.276,-153.898 543.508,-152.238 598.404,-148.873"/>
<polygon fill="midnightblue" stroke="midnightblue" points="312.733,-115.052 302.148,-114.593 310.137,-121.553 312.733,-115.052"/>
</g>
<!-- Node6 -->
<g id="node6" class="node"><title>Node6</title>
<g id="a_node6"><a xlink:href="../../d8/d84/a00001.html#a12718652247133e7a7dc8fba69fdd56d" target="_top" xlink:title="Removes all locations from selection and unselection + re&#45;render the map. ">
<polygon fill="white" stroke="black" points="405,-191 405,-221 547,-221 547,-191 405,-191"/>
<text text-anchor="start" x="413" y="-209" font-family="Helvetica,sans-Serif" font-size="10.00">Backend::ClearSelectionAnd</text>
<text text-anchor="middle" x="476" y="-198" font-family="Helvetica,sans-Serif" font-size="10.00">Render</text>
</a>
</g>
</g>
<!-- Node2&#45;&gt;Node6 -->
<g id="edge5" class="edge"><title>Node2&#45;&gt;Node6</title>
<path fill="none" stroke="midnightblue" d="M302.107,-120.252C324.94,-135.588 361.94,-159.291 396,-176 407.064,-181.428 419.373,-186.524 430.918,-190.921"/>
<polygon fill="midnightblue" stroke="midnightblue" points="304.045,-117.337 293.803,-114.623 300.117,-123.132 304.045,-117.337"/>
</g>
<!-- Node8 -->
<g id="node8" class="node"><title>Node8</title>
<g id="a_node8"><a xlink:href="../../d8/d84/a00001.html#a99bb1003a584e978452b99901fc573ba" target="_top" xlink:title="Adds the location of the marker to the selection. ">
<polygon fill="white" stroke="black" points="396,-76.5 396,-95.5 556,-95.5 556,-76.5 396,-76.5"/>
<text text-anchor="middle" x="476" y="-83.5" font-family="Helvetica,sans-Serif" font-size="10.00">Backend::OnExtraMarkerClicked</text>
</a>
</g>
</g>
<!-- Node2&#45;&gt;Node8 -->
<g id="edge7" class="edge"><title>Node2&#45;&gt;Node8</title>
<path fill="none" stroke="midnightblue" d="M369.797,-96.2506C378.534,-95.3992 387.355,-94.5398 395.975,-93.6999"/>
<polygon fill="midnightblue" stroke="midnightblue" points="369.209,-92.7912 359.595,-97.2446 369.888,-99.7582 369.209,-92.7912"/>
</g>
<!-- Node9 -->
<g id="node9" class="node"><title>Node9</title>
<g id="a_node9"><a xlink:href="../../d8/d84/a00001.html#a5c6947858998d7709812d9bf825906dc" target="_top" xlink:title="Backend::SelectAll">
<polygon fill="white" stroke="black" points="426,-38.5 426,-57.5 526,-57.5 526,-38.5 426,-38.5"/>
<text text-anchor="middle" x="476" y="-45.5" font-family="Helvetica,sans-Serif" font-size="10.00">Backend::SelectAll</text>
</a>
</g>
</g>
<!-- Node2&#45;&gt;Node9 -->
<g id="edge9" class="edge"><title>Node2&#45;&gt;Node9</title>
<path fill="none" stroke="midnightblue" d="M316.58,-92.1793C339.299,-84.4261 369.182,-74.6041 396,-67 407.807,-63.6521 420.713,-60.3854 432.607,-57.5313"/>
<polygon fill="midnightblue" stroke="midnightblue" points="315.318,-88.912 306.998,-95.4716 317.593,-95.5322 315.318,-88.912"/>
</g>
<!-- Node10 -->
<g id="node10" class="node"><title>Node10</title>
<g id="a_node10"><a xlink:href="../../d8/d84/a00001.html#a74ab20ec1a62676534387b56c2b514d5" target="_top" xlink:title="The Same as SelectArea but does not clear selection first. ">
<polygon fill="white" stroke="black" points="406,-0.5 406,-19.5 546,-19.5 546,-0.5 406,-0.5"/>
<text text-anchor="middle" x="476" y="-7.5" font-family="Helvetica,sans-Serif" font-size="10.00">Backend::SelectExtraInArea</text>
</a>
</g>
</g>
<!-- Node2&#45;&gt;Node10 -->
<g id="edge10" class="edge"><title>Node2&#45;&gt;Node10</title>
<path fill="none" stroke="midnightblue" d="M299.695,-89.0198C321.848,-71.8064 359.516,-44.7709 396,-29 404.805,-25.1939 414.506,-22.0692 424.006,-19.5325"/>
<polygon fill="midnightblue" stroke="midnightblue" points="297.412,-86.3626 291.732,-95.3061 301.749,-91.8568 297.412,-86.3626"/>
</g>
<!-- Node3&#45;&gt;Node4 -->
<g id="edge3" class="edge"><title>Node3&#45;&gt;Node4</title>
<path fill="none" stroke="midnightblue" d="M548.618,-131.2C564.898,-132.836 582.142,-134.57 598.255,-136.19"/>
<polygon fill="midnightblue" stroke="midnightblue" points="548.924,-127.713 538.624,-130.195 548.224,-134.678 548.924,-127.713"/>
</g>
<!-- Node5 -->
<g id="node5" class="node"><title>Node5</title>
<g id="a_node5"><a xlink:href="../../d8/d84/a00001.html#a902157ea9e4cd13e6a25eed9135115e7" target="_top" xlink:title="Selects all locations in between. ">
<polygon fill="white" stroke="black" points="612.5,-38.5 612.5,-57.5 721.5,-57.5 721.5,-38.5 612.5,-38.5"/>
<text text-anchor="middle" x="667" y="-45.5" font-family="Helvetica,sans-Serif" font-size="10.00">Backend::SelectArea</text>
</a>
</g>
</g>
<!-- Node3&#45;&gt;Node5 -->
<g id="edge4" class="edge"><title>Node3&#45;&gt;Node5</title>
<path fill="none" stroke="midnightblue" d="M534.638,-111.866C541.911,-109.831 549.185,-107.542 556,-105 591.267,-91.844 629.72,-70.0386 650.523,-57.5569"/>
<polygon fill="midnightblue" stroke="midnightblue" points="533.535,-108.537 524.766,-114.482 535.329,-115.304 533.535,-108.537"/>
</g>
<!-- Node7 -->
<g id="node7" class="node"><title>Node7</title>
<g id="a_node7"><a xlink:href="../../d8/d84/a00001.html#a6ff4f267985cb8eea228352455ab6b67" target="_top" xlink:title="Backend::SetShowCommutes">
<polygon fill="white" stroke="black" points="592.5,-196.5 592.5,-215.5 741.5,-215.5 741.5,-196.5 592.5,-196.5"/>
<text text-anchor="middle" x="667" y="-203.5" font-family="Helvetica,sans-Serif" font-size="10.00">Backend::SetShowCommutes</text>
</a>
</g>
</g>
<!-- Node6&#45;&gt;Node7 -->
<g id="edge6" class="edge"><title>Node6&#45;&gt;Node7</title>
<path fill="none" stroke="midnightblue" d="M557.217,-206C568.827,-206 580.731,-206 592.207,-206"/>
<polygon fill="midnightblue" stroke="midnightblue" points="557.108,-202.5 547.108,-206 557.108,-209.5 557.108,-202.5"/>
</g>
<!-- Node10&#45;&gt;Node5 -->
<g id="edge11" class="edge"><title>Node10&#45;&gt;Node5</title>
<path fill="none" stroke="midnightblue" d="M534.742,-21.6095C561.622,-27.014 593.203,-33.3635 618.65,-38.4799"/>
<polygon fill="midnightblue" stroke="midnightblue" points="535.186,-18.1289 524.693,-19.589 533.807,-24.9916 535.186,-18.1289"/>
</g>
</g>
</svg>
        <g id="navigator" transform="translate(0 0)" fill="#404254">
                <rect fill="#f2f5e9" fill-opacity="0.5" stroke="#606060" stroke-width=".5" x="0" y="0" width="60" height="60"/>
                <use id="zoomplus" xlink:href="#zoomPlus" x="17" y="9" onmousedown="handleZoom(evt,'in')"/>
                <use id="zoomminus" xlink:href="#zoomMin" x="42" y="9" onmousedown="handleZoom(evt,'out')"/>
                <use id="reset" xlink:href="#resetDef" x="30" y="36" onmousedown="handleReset()"/>
                <g id="arrowUp" xlink:href="#dirArrow" transform="translate(30 24)" onmousedown="handlePan(0,-1)">
                  <use xlink:href="#rim" fill="#404040">
                        <set attributeName="fill" to="#808080" begin="arrowUp.mouseover" end="arrowUp.mouseout"/>
                  </use>
                  <path fill="none" stroke="white" stroke-width="1.5" d="M0,-3.0v7 M-2.5,-0.5L0,-3.0L2.5,-0.5"/>
                </g>
                <g id="arrowRight" xlink:href="#dirArrow" transform="rotate(90) translate(36 -43)" onmousedown="handlePan(1,0)">
                  <use xlink:href="#rim" fill="#404040">
                        <set attributeName="fill" to="#808080" begin="arrowRight.mouseover" end="arrowRight.mouseout"/>
                  </use>
                  <path fill="none" stroke="white" stroke-width="1.5" d="M0,-3.0v7 M-2.5,-0.5L0,-3.0L2.5,-0.5"/>
                </g>
                <g id="arrowDown" xlink:href="#dirArrow" transform="rotate(180) translate(-30 -48)" onmousedown="handlePan(0,1)">
                  <use xlink:href="#rim" fill="#404040">
                        <set attributeName="fill" to="#808080" begin="arrowDown.mouseover" end="arrowDown.mouseout"/>
                  </use>
                  <path fill="none" stroke="white" stroke-width="1.5" d="M0,-3.0v7 M-2.5,-0.5L0,-3.0L2.5,-0.5"/>
                </g>
                <g id="arrowLeft" xlink:href="#dirArrow" transform="rotate(270) translate(-36 17)" onmousedown="handlePan(-1,0)">
                  <use xlink:href="#rim" fill="#404040">
                        <set attributeName="fill" to="#808080" begin="arrowLeft.mouseover" end="arrowLeft.mouseout"/>
                  </use>
                  <path fill="none" stroke="white" stroke-width="1.5" d="M0,-3.0v7 M-2.5,-0.5L0,-3.0L2.5,-0.5"/>
                </g>
        </g>
        <svg viewBox="0 0 15 15" width="100%" height="30px" preserveAspectRatio="xMaxYMin meet">
         <g id="arrow_out" transform="scale(0.3 0.3)">
          <a xlink:href="a00001_a0382cea391f86bd0759ec8bd2784a332_icgraph_org.svg" target="_base">
           <rect id="button" ry="5" rx="5" y="6" x="6" height="38" width="38"
                fill="#f2f5e9" fill-opacity="0.5" stroke="#606060" stroke-width="1.0"/>
           <path id="arrow"
             d="M 11.500037,31.436501 C 11.940474,20.09759 22.043105,11.32322 32.158766,21.979434 L 37.068811,17.246167 C 37.068811,17.246167 37.088388,32 37.088388,32 L 22.160133,31.978069 C 22.160133,31.978069 26.997745,27.140456 26.997745,27.140456 C 18.528582,18.264221 13.291696,25.230495 11.500037,31.436501 z"
             style="fill:#404040;"/>
          </a>
         </g>
        </svg>
</svg>
