<?xml version="1.0" encoding="UTF-8" standalone="no"?>
<!DOCTYPE svg PUBLIC "-//W3C//DTD SVG 1.1//EN"
 "http://www.w3.org/Graphics/SVG/1.1/DTD/svg11.dtd">
<!-- Generated by graphviz version 2.36.0 (20140111.2315)
 -->
<!-- Title: Backend::UpdateInfected Pages: 1 -->
<svg width="474pt" height="38pt"
 viewBox="0.00 0.00 474.00 38.00" xmlns="http://www.w3.org/2000/svg" xmlns:xlink="http://www.w3.org/1999/xlink">
<g id="graph0" class="graph" transform="scale(1 1) rotate(0) translate(4 34)">
<title>Backend::UpdateInfected</title>
<polygon fill="white" stroke="none" points="-4,4 -4,-34 470,-34 470,4 -4,4"/>
<!-- Node1 -->
<g id="node1" class="node"><title>Node1</title>
<polygon fill="#bfbfbf" stroke="black" points="0,-5.5 0,-24.5 128,-24.5 128,-5.5 0,-5.5"/>
<text text-anchor="middle" x="64" y="-12.5" font-family="Helvetica,sans-Serif" font-size="10.00">Backend::UpdateInfected</text>
</g>
<!-- Node2 -->
<g id="node2" class="node"><title>Node2</title>
<g id="a_node2"><a xlink:href="../../d8/d84/a00001.html#a6e0af1d3dc19b33a41dec19fe3677fc4" target="_top" xlink:title="Backend::UpdateAllHealth\lColors">
<polygon fill="white" stroke="black" points="164,-0 164,-30 296,-30 296,-0 164,-0"/>
<text text-anchor="start" x="172" y="-18" font-family="Helvetica,sans-Serif" font-size="10.00">Backend::UpdateAllHealth</text>
<text text-anchor="middle" x="230" y="-7" font-family="Helvetica,sans-Serif" font-size="10.00">Colors</text>
</a>
</g>
</g>
<!-- Node1&#45;&gt;Node2 -->
<g id="edge1" class="edge"><title>Node1&#45;&gt;Node2</title>
<path fill="none" stroke="midnightblue" d="M138.598,-15C147.021,-15 155.564,-15 163.865,-15"/>
<polygon fill="midnightblue" stroke="midnightblue" points="138.407,-11.5001 128.407,-15 138.407,-18.5001 138.407,-11.5001"/>
</g>
<!-- Node3 -->
<g id="node3" class="node"><title>Node3</title>
<g id="a_node3"><a xlink:href="../../da/dec/a00080.html#a5cb7ce2da56bb785fb29c6ef2222d5e5" target="_top" xlink:title="Force the markers on the map to be updated. ">
<polygon fill="white" stroke="black" points="332.5,-5.5 332.5,-24.5 465.5,-24.5 465.5,-5.5 332.5,-5.5"/>
<text text-anchor="middle" x="399" y="-12.5" font-family="Helvetica,sans-Serif" font-size="10.00">Map::ForceUpdateMarkers</text>
</a>
</g>
</g>
<!-- Node2&#45;&gt;Node3 -->
<g id="edge2" class="edge"><title>Node2&#45;&gt;Node3</title>
<path fill="none" stroke="midnightblue" d="M306.192,-15C314.904,-15 323.737,-15 332.308,-15"/>
<polygon fill="midnightblue" stroke="midnightblue" points="306.045,-11.5001 296.045,-15 306.045,-18.5001 306.045,-11.5001"/>
</g>
</g>
</svg>
