<?xml version="1.0" encoding="UTF-8" standalone="no"?>
<!DOCTYPE svg PUBLIC "-//W3C//DTD SVG 1.1//EN"
 "http://www.w3.org/Graphics/SVG/1.1/DTD/svg11.dtd">
<!-- Generated by graphviz version 2.36.0 (20140111.2315)
 -->
<!-- Title: Backend::OnMarkerClicked Pages: 1 -->
<svg width="888pt" height="153pt"
 viewBox="0.00 0.00 888.00 153.00" xmlns="http://www.w3.org/2000/svg" xmlns:xlink="http://www.w3.org/1999/xlink">
<g id="graph0" class="graph" transform="scale(1 1) rotate(0) translate(4 149)">
<title>Backend::OnMarkerClicked</title>
<polygon fill="white" stroke="none" points="-4,4 -4,-149 884,-149 884,4 -4,4"/>
<!-- Node1 -->
<g id="node1" class="node"><title>Node1</title>
<polygon fill="#bfbfbf" stroke="black" points="0.5,-68.5 0.5,-87.5 137.5,-87.5 137.5,-68.5 0.5,-68.5"/>
<text text-anchor="middle" x="69" y="-75.5" font-family="Helvetica,sans-Serif" font-size="10.00">Backend::OnMarkerClicked</text>
</g>
<!-- Node2 -->
<g id="node2" class="node"><title>Node2</title>
<g id="a_node2"><a xlink:href="../../d8/d84/a00001.html#a57957c86dc6eb450c9b4830001d4000e" target="_top" xlink:title="Removes all locations from selection and unselection but don&#39;t re&#45;render the map. ...">
<polygon fill="white" stroke="black" points="177.5,-125.5 177.5,-144.5 302.5,-144.5 302.5,-125.5 177.5,-125.5"/>
<text text-anchor="middle" x="240" y="-132.5" font-family="Helvetica,sans-Serif" font-size="10.00">Backend::ClearSelection</text>
</a>
</g>
</g>
<!-- Node1&#45;&gt;Node2 -->
<g id="edge1" class="edge"><title>Node1&#45;&gt;Node2</title>
<path fill="none" stroke="midnightblue" d="M98.2868,-87.5405C126.437,-97.0349 169.819,-111.667 200.971,-122.174"/>
<polygon fill="midnightblue" stroke="midnightblue" points="200.027,-125.549 210.621,-125.428 202.264,-118.916 200.027,-125.549"/>
</g>
<!-- Node3 -->
<g id="node3" class="node"><title>Node3</title>
<g id="a_node3"><a xlink:href="../../d8/d84/a00001.html#a711a658ab043057fa608d1db6a49df24" target="_top" xlink:title="Update colors of Markers based on the value of m_selection and m_unselection. ">
<polygon fill="white" stroke="black" points="342.5,-87.5 342.5,-106.5 503.5,-106.5 503.5,-87.5 342.5,-87.5"/>
<text text-anchor="middle" x="423" y="-94.5" font-family="Helvetica,sans-Serif" font-size="10.00">Backend::UpdateColorOfMarkers</text>
</a>
</g>
</g>
<!-- Node1&#45;&gt;Node3 -->
<g id="edge11" class="edge"><title>Node1&#45;&gt;Node3</title>
<path fill="none" stroke="midnightblue" d="M137.869,-81.6634C193.109,-84.6451 271.551,-88.8792 332.025,-92.1434"/>
<polygon fill="midnightblue" stroke="midnightblue" points="332.158,-95.6556 342.332,-92.6997 332.535,-88.6657 332.158,-95.6556"/>
</g>
<!-- Node9 -->
<g id="node9" class="node"><title>Node9</title>
<g id="a_node9"><a xlink:href="../../d8/d84/a00001.html#a613fb0cc751f55a428c18156fae84d15" target="_top" xlink:title="Sends a signal with the currently selected locations. ">
<polygon fill="white" stroke="black" points="361.5,-49.5 361.5,-68.5 484.5,-68.5 484.5,-49.5 361.5,-49.5"/>
<text text-anchor="middle" x="423" y="-56.5" font-family="Helvetica,sans-Serif" font-size="10.00">Backend::EmitLocations</text>
</a>
</g>
</g>
<!-- Node1&#45;&gt;Node9 -->
<g id="edge8" class="edge"><title>Node1&#45;&gt;Node9</title>
<path fill="none" stroke="midnightblue" d="M137.869,-74.3366C199.184,-71.027 289.087,-66.1743 351.271,-62.8178"/>
<polygon fill="midnightblue" stroke="midnightblue" points="351.592,-66.3056 361.389,-62.2716 351.215,-59.3158 351.592,-66.3056"/>
</g>
<!-- Node10 -->
<g id="node10" class="node"><title>Node10</title>
<g id="a_node10"><a xlink:href="../../d8/d84/a00001.html#a09f0850d236439a5c5a2025dd1bab78c" target="_top" xlink:title="Adds the location to the selection if it is not yet in the list. ">
<polygon fill="white" stroke="black" points="174.5,-0 174.5,-30 305.5,-30 305.5,-0 174.5,-0"/>
<text text-anchor="start" x="182.5" y="-18" font-family="Helvetica,sans-Serif" font-size="10.00">Backend::ToggleSelection</text>
<text text-anchor="middle" x="240" y="-7" font-family="Helvetica,sans-Serif" font-size="10.00">OfLocation</text>
</a>
</g>
</g>
<!-- Node1&#45;&gt;Node10 -->
<g id="edge10" class="edge"><title>Node1&#45;&gt;Node10</title>
<path fill="none" stroke="midnightblue" d="M95.6675,-68.4317C120.33,-59.2378 158.268,-45.0954 188.918,-33.6696"/>
<polygon fill="midnightblue" stroke="midnightblue" points="190.44,-36.8376 198.587,-30.065 187.995,-30.2786 190.44,-36.8376"/>
</g>
<!-- Node2&#45;&gt;Node3 -->
<g id="edge2" class="edge"><title>Node2&#45;&gt;Node3</title>
<path fill="none" stroke="midnightblue" d="M286.674,-125.411C310.989,-120.306 341.08,-113.989 366.708,-108.608"/>
<polygon fill="midnightblue" stroke="midnightblue" points="367.587,-112 376.654,-106.52 366.149,-105.149 367.587,-112"/>
</g>
<!-- Node4 -->
<g id="node4" class="node"><title>Node4</title>
<g id="a_node4"><a xlink:href="../../d8/d84/a00001.html#a0478e17f39806247ce5544cac69f528f" target="_top" xlink:title="Return the requested location. ">
<polygon fill="white" stroke="black" points="545,-49.5 545,-68.5 697,-68.5 697,-49.5 545,-49.5"/>
<text text-anchor="middle" x="621" y="-56.5" font-family="Helvetica,sans-Serif" font-size="10.00">Backend::GetLocationInRegion</text>
</a>
</g>
</g>
<!-- Node3&#45;&gt;Node4 -->
<g id="edge3" class="edge"><title>Node3&#45;&gt;Node4</title>
<path fill="none" stroke="midnightblue" d="M473.206,-87.46C499.767,-82.3104 532.749,-75.916 560.718,-70.4935"/>
<polygon fill="midnightblue" stroke="midnightblue" points="561.623,-73.8833 570.774,-68.5439 560.29,-67.0113 561.623,-73.8833"/>
</g>
<!-- Node5 -->
<g id="node5" class="node"><title>Node5</title>
<g id="a_node5"><a xlink:href="../../d8/d84/a00001.html#a0382cea391f86bd0759ec8bd2784a332" target="_top" xlink:title="Hides the commutes between the given 2 locations on the map. ">
<polygon fill="white" stroke="black" points="540,-125.5 540,-144.5 702,-144.5 702,-125.5 540,-125.5"/>
<text text-anchor="middle" x="621" y="-132.5" font-family="Helvetica,sans-Serif" font-size="10.00">Backend::HideCommuteBetween</text>
</a>
</g>
</g>
<!-- Node3&#45;&gt;Node5 -->
<g id="edge4" class="edge"><title>Node3&#45;&gt;Node5</title>
<path fill="none" stroke="midnightblue" d="M473.206,-106.54C499.767,-111.69 532.749,-118.084 560.718,-123.506"/>
<polygon fill="midnightblue" stroke="midnightblue" points="560.29,-126.989 570.774,-125.456 561.623,-120.117 560.29,-126.989"/>
</g>
<!-- Node7 -->
<g id="node7" class="node"><title>Node7</title>
<g id="a_node7"><a xlink:href="../../d8/d84/a00001.html#a852a5daca487b26cdb2416733cee3721" target="_top" xlink:title="Shows the commute from loc1 to loc2 on the map. ">
<polygon fill="white" stroke="black" points="557,-87.5 557,-106.5 685,-106.5 685,-87.5 557,-87.5"/>
<text text-anchor="middle" x="621" y="-94.5" font-family="Helvetica,sans-Serif" font-size="10.00">Backend::ShowCommute</text>
</a>
</g>
</g>
<!-- Node3&#45;&gt;Node7 -->
<g id="edge6" class="edge"><title>Node3&#45;&gt;Node7</title>
<path fill="none" stroke="midnightblue" d="M503.721,-97C517.963,-97 532.74,-97 546.788,-97"/>
<polygon fill="midnightblue" stroke="midnightblue" points="546.872,-100.5 556.872,-97 546.872,-93.5001 546.872,-100.5"/>
</g>
<!-- Node6 -->
<g id="node6" class="node"><title>Node6</title>
<g id="a_node6"><a xlink:href="../../d8/d84/a00001.html#acd9816e8f8840c71d0cbe46c2a826126" target="_top" xlink:title="Hides the commute line on the map. ">
<polygon fill="white" stroke="black" points="738,-125.5 738,-144.5 880,-144.5 880,-125.5 738,-125.5"/>
<text text-anchor="middle" x="809" y="-132.5" font-family="Helvetica,sans-Serif" font-size="10.00">Backend::HideCommuteLine</text>
</a>
</g>
</g>
<!-- Node5&#45;&gt;Node6 -->
<g id="edge5" class="edge"><title>Node5&#45;&gt;Node6</title>
<path fill="none" stroke="midnightblue" d="M702.23,-135C710.688,-135 719.29,-135 727.748,-135"/>
<polygon fill="midnightblue" stroke="midnightblue" points="727.975,-138.5 737.975,-135 727.975,-131.5 727.975,-138.5"/>
</g>
<!-- Node8 -->
<g id="node8" class="node"><title>Node8</title>
<g id="a_node8"><a xlink:href="../../d8/d84/a00001.html#adfeca0359eba8ac76a148ba3a6463178" target="_top" xlink:title="Add a line on the map for the given commute info. ">
<polygon fill="white" stroke="black" points="739.5,-87.5 739.5,-106.5 878.5,-106.5 878.5,-87.5 739.5,-87.5"/>
<text text-anchor="middle" x="809" y="-94.5" font-family="Helvetica,sans-Serif" font-size="10.00">Backend::AddCommuteLine</text>
</a>
</g>
</g>
<!-- Node7&#45;&gt;Node8 -->
<g id="edge7" class="edge"><title>Node7&#45;&gt;Node8</title>
<path fill="none" stroke="midnightblue" d="M685.231,-97C699.35,-97 714.492,-97 729.153,-97"/>
<polygon fill="midnightblue" stroke="midnightblue" points="729.209,-100.5 739.209,-97 729.209,-93.5001 729.209,-100.5"/>
</g>
<!-- Node9&#45;&gt;Node4 -->
<g id="edge9" class="edge"><title>Node9&#45;&gt;Node4</title>
<path fill="none" stroke="midnightblue" d="M484.673,-59C500.408,-59 517.652,-59 534.405,-59"/>
<polygon fill="midnightblue" stroke="midnightblue" points="534.754,-62.5001 544.754,-59 534.754,-55.5001 534.754,-62.5001"/>
</g>
</g>
</svg>
