<?xml version="1.0" encoding="UTF-8" standalone="no"?>
<!DOCTYPE svg PUBLIC "-//W3C//DTD SVG 1.1//EN"
 "http://www.w3.org/Graphics/SVG/1.1/DTD/svg11.dtd">
<!-- Generated by graphviz version 2.36.0 (20140111.2315)
 -->
<!-- Title: Backend::ClearSelection Pages: 1 -->
<svg width="708pt" height="104pt"
 viewBox="0.00 0.00 708.00 104.00" xmlns="http://www.w3.org/2000/svg" xmlns:xlink="http://www.w3.org/1999/xlink">
<g id="graph0" class="graph" transform="scale(1 1) rotate(0) translate(4 100)">
<title>Backend::ClearSelection</title>
<polygon fill="white" stroke="none" points="-4,4 -4,-100 704,-100 704,4 -4,4"/>
<!-- Node1 -->
<g id="node1" class="node"><title>Node1</title>
<polygon fill="#bfbfbf" stroke="black" points="0.5,-38.5 0.5,-57.5 125.5,-57.5 125.5,-38.5 0.5,-38.5"/>
<text text-anchor="middle" x="63" y="-45.5" font-family="Helvetica,sans-Serif" font-size="10.00">Backend::ClearSelection</text>
</g>
<!-- Node2 -->
<g id="node2" class="node"><title>Node2</title>
<g id="a_node2"><a xlink:href="../../d8/d84/a00001.html#a711a658ab043057fa608d1db6a49df24" target="_top" xlink:title="Update colors of Markers based on the value of m_selection and m_unselection. ">
<polygon fill="white" stroke="black" points="162.5,-38.5 162.5,-57.5 323.5,-57.5 323.5,-38.5 162.5,-38.5"/>
<text text-anchor="middle" x="243" y="-45.5" font-family="Helvetica,sans-Serif" font-size="10.00">Backend::UpdateColorOfMarkers</text>
</a>
</g>
</g>
<!-- Node1&#45;&gt;Node2 -->
<g id="edge1" class="edge"><title>Node1&#45;&gt;Node2</title>
<path fill="none" stroke="midnightblue" d="M125.756,-48C134.365,-48 143.35,-48 152.344,-48"/>
<polygon fill="midnightblue" stroke="midnightblue" points="152.483,-51.5001 162.483,-48 152.483,-44.5001 152.483,-51.5001"/>
</g>
<!-- Node3 -->
<g id="node3" class="node"><title>Node3</title>
<g id="a_node3"><a xlink:href="../../d8/d84/a00001.html#a0478e17f39806247ce5544cac69f528f" target="_top" xlink:title="Return the requested location. ">
<polygon fill="white" stroke="black" points="365,-76.5 365,-95.5 517,-95.5 517,-76.5 365,-76.5"/>
<text text-anchor="middle" x="441" y="-83.5" font-family="Helvetica,sans-Serif" font-size="10.00">Backend::GetLocationInRegion</text>
</a>
</g>
</g>
<!-- Node2&#45;&gt;Node3 -->
<g id="edge2" class="edge"><title>Node2&#45;&gt;Node3</title>
<path fill="none" stroke="midnightblue" d="M293.206,-57.54C319.767,-62.6896 352.749,-69.084 380.718,-74.5065"/>
<polygon fill="midnightblue" stroke="midnightblue" points="380.29,-77.9887 390.774,-76.4561 381.623,-71.1167 380.29,-77.9887"/>
</g>
<!-- Node4 -->
<g id="node4" class="node"><title>Node4</title>
<g id="a_node4"><a xlink:href="../../d8/d84/a00001.html#a0382cea391f86bd0759ec8bd2784a332" target="_top" xlink:title="Hides the commutes between the given 2 locations on the map. ">
<polygon fill="white" stroke="black" points="360,-38.5 360,-57.5 522,-57.5 522,-38.5 360,-38.5"/>
<text text-anchor="middle" x="441" y="-45.5" font-family="Helvetica,sans-Serif" font-size="10.00">Backend::HideCommuteBetween</text>
</a>
</g>
</g>
<!-- Node2&#45;&gt;Node4 -->
<g id="edge3" class="edge"><title>Node2&#45;&gt;Node4</title>
<path fill="none" stroke="midnightblue" d="M323.721,-48C332.252,-48 340.976,-48 349.62,-48"/>
<polygon fill="midnightblue" stroke="midnightblue" points="349.714,-51.5001 359.714,-48 349.714,-44.5001 349.714,-51.5001"/>
</g>
<!-- Node6 -->
<g id="node6" class="node"><title>Node6</title>
<g id="a_node6"><a xlink:href="../../d8/d84/a00001.html#a852a5daca487b26cdb2416733cee3721" target="_top" xlink:title="Shows the commute from loc1 to loc2 on the map. ">
<polygon fill="white" stroke="black" points="377,-0.5 377,-19.5 505,-19.5 505,-0.5 377,-0.5"/>
<text text-anchor="middle" x="441" y="-7.5" font-family="Helvetica,sans-Serif" font-size="10.00">Backend::ShowCommute</text>
</a>
</g>
</g>
<!-- Node2&#45;&gt;Node6 -->
<g id="edge5" class="edge"><title>Node2&#45;&gt;Node6</title>
<path fill="none" stroke="midnightblue" d="M293.206,-38.46C319.767,-33.3104 352.749,-26.916 380.718,-21.4935"/>
<polygon fill="midnightblue" stroke="midnightblue" points="381.623,-24.8833 390.774,-19.5439 380.29,-18.0113 381.623,-24.8833"/>
</g>
<!-- Node5 -->
<g id="node5" class="node"><title>Node5</title>
<g id="a_node5"><a xlink:href="../../d8/d84/a00001.html#acd9816e8f8840c71d0cbe46c2a826126" target="_top" xlink:title="Hides the commute line on the map. ">
<polygon fill="white" stroke="black" points="558,-38.5 558,-57.5 700,-57.5 700,-38.5 558,-38.5"/>
<text text-anchor="middle" x="629" y="-45.5" font-family="Helvetica,sans-Serif" font-size="10.00">Backend::HideCommuteLine</text>
</a>
</g>
</g>
<!-- Node4&#45;&gt;Node5 -->
<g id="edge4" class="edge"><title>Node4&#45;&gt;Node5</title>
<path fill="none" stroke="midnightblue" d="M522.23,-48C530.688,-48 539.29,-48 547.748,-48"/>
<polygon fill="midnightblue" stroke="midnightblue" points="547.975,-51.5001 557.975,-48 547.975,-44.5001 547.975,-51.5001"/>
</g>
<!-- Node7 -->
<g id="node7" class="node"><title>Node7</title>
<g id="a_node7"><a xlink:href="../../d8/d84/a00001.html#adfeca0359eba8ac76a148ba3a6463178" target="_top" xlink:title="Add a line on the map for the given commute info. ">
<polygon fill="white" stroke="black" points="559.5,-0.5 559.5,-19.5 698.5,-19.5 698.5,-0.5 559.5,-0.5"/>
<text text-anchor="middle" x="629" y="-7.5" font-family="Helvetica,sans-Serif" font-size="10.00">Backend::AddCommuteLine</text>
</a>
</g>
</g>
<!-- Node6&#45;&gt;Node7 -->
<g id="edge6" class="edge"><title>Node6&#45;&gt;Node7</title>
<path fill="none" stroke="midnightblue" d="M505.231,-10C519.35,-10 534.492,-10 549.153,-10"/>
<polygon fill="midnightblue" stroke="midnightblue" points="549.209,-13.5001 559.209,-10 549.209,-6.5001 549.209,-13.5001"/>
</g>
</g>
</svg>
