<?xml version="1.0" encoding="UTF-8" standalone="no"?>
<!DOCTYPE svg PUBLIC "-//W3C//DTD SVG 1.1//EN"
 "http://www.w3.org/Graphics/SVG/1.1/DTD/svg11.dtd">
<!-- Generated by graphviz version 2.36.0 (20140111.2315)
 -->
<!-- Title: Backend::PlaceMarkers Pages: 1 -->
<svg width="508pt" height="153pt"
 viewBox="0.00 0.00 508.00 153.00" xmlns="http://www.w3.org/2000/svg" xmlns:xlink="http://www.w3.org/1999/xlink">
<g id="graph0" class="graph" transform="scale(1 1) rotate(0) translate(4 149)">
<title>Backend::PlaceMarkers</title>
<polygon fill="white" stroke="none" points="-4,4 -4,-149 504,-149 504,4 -4,4"/>
<!-- Node1 -->
<g id="node1" class="node"><title>Node1</title>
<polygon fill="#bfbfbf" stroke="black" points="0.5,-57.5 0.5,-76.5 121.5,-76.5 121.5,-57.5 0.5,-57.5"/>
<text text-anchor="middle" x="61" y="-64.5" font-family="Helvetica,sans-Serif" font-size="10.00">Backend::PlaceMarkers</text>
</g>
<!-- Node2 -->
<g id="node2" class="node"><title>Node2</title>
<g id="a_node2"><a xlink:href="../../d8/d84/a00001.html#a4c68caab686f34853c326b801fbadf4b" target="_top" xlink:title="Load a GeoGrid from JSON file, specified in the command line arguments. ">
<polygon fill="white" stroke="black" points="163,-115 163,-145 303,-145 303,-115 163,-115"/>
<text text-anchor="start" x="171" y="-133" font-family="Helvetica,sans-Serif" font-size="10.00">Backend::LoadGeoGridFrom</text>
<text text-anchor="middle" x="233" y="-122" font-family="Helvetica,sans-Serif" font-size="10.00">CommandLine</text>
</a>
</g>
</g>
<!-- Node1&#45;&gt;Node2 -->
<g id="edge1" class="edge"><title>Node1&#45;&gt;Node2</title>
<path fill="none" stroke="midnightblue" d="M94.5876,-80.3783C113.095,-87.8554 136.744,-97.2083 158,-105 167.04,-108.314 176.757,-111.712 186.081,-114.894"/>
<polygon fill="midnightblue" stroke="midnightblue" points="95.7333,-77.0661 85.1511,-76.5486 93.1009,-83.5523 95.7333,-77.0661"/>
</g>
<!-- Node3 -->
<g id="node3" class="node"><title>Node3</title>
<g id="a_node3"><a xlink:href="../../d8/d84/a00001.html#acb9ec493bbac930f2c20e69963459770" target="_top" xlink:title="Changes the geogrid to the given one. ">
<polygon fill="white" stroke="black" points="174.5,-76.5 174.5,-95.5 291.5,-95.5 291.5,-76.5 174.5,-76.5"/>
<text text-anchor="middle" x="233" y="-83.5" font-family="Helvetica,sans-Serif" font-size="10.00">Backend::SetGeoGrids</text>
</a>
</g>
</g>
<!-- Node1&#45;&gt;Node3 -->
<g id="edge2" class="edge"><title>Node1&#45;&gt;Node3</title>
<path fill="none" stroke="midnightblue" d="M132.051,-74.8293C146.112,-76.4007 160.735,-78.0351 174.318,-79.5532"/>
<polygon fill="midnightblue" stroke="midnightblue" points="132.263,-71.3312 121.936,-73.6987 131.485,-78.2879 132.263,-71.3312"/>
</g>
<!-- Node6 -->
<g id="node6" class="node"><title>Node6</title>
<g id="a_node6"><a xlink:href="../../d8/d84/a00001.html#af3d90629f93456f7ed430d53225d28cc" target="_top" xlink:title="Places the locations of the current GeoGrid on the map. ">
<polygon fill="white" stroke="black" points="178,-38.5 178,-57.5 288,-57.5 288,-38.5 178,-38.5"/>
<text text-anchor="middle" x="233" y="-45.5" font-family="Helvetica,sans-Serif" font-size="10.00">Backend::SetObjects</text>
</a>
</g>
</g>
<!-- Node1&#45;&gt;Node6 -->
<g id="edge5" class="edge"><title>Node1&#45;&gt;Node6</title>
<path fill="none" stroke="midnightblue" d="M131.92,-59.1854C147.296,-57.4669 163.353,-55.6723 177.989,-54.0365"/>
<polygon fill="midnightblue" stroke="midnightblue" points="131.485,-55.7121 121.936,-60.3013 132.263,-62.6688 131.485,-55.7121"/>
</g>
<!-- Node7 -->
<g id="node7" class="node"><title>Node7</title>
<g id="a_node7"><a xlink:href="../../d8/d84/a00001.html#a6ff4f267985cb8eea228352455ab6b67" target="_top" xlink:title="Backend::SetShowCommutes">
<polygon fill="white" stroke="black" points="158.5,-0.5 158.5,-19.5 307.5,-19.5 307.5,-0.5 158.5,-0.5"/>
<text text-anchor="middle" x="233" y="-7.5" font-family="Helvetica,sans-Serif" font-size="10.00">Backend::SetShowCommutes</text>
</a>
</g>
</g>
<!-- Node1&#45;&gt;Node7 -->
<g id="edge6" class="edge"><title>Node1&#45;&gt;Node7</title>
<path fill="none" stroke="midnightblue" d="M93.2681,-53.4694C111.862,-45.7145 136.035,-36.1359 158,-29 168.597,-25.5575 180.206,-22.3284 191.024,-19.5434"/>
<polygon fill="midnightblue" stroke="midnightblue" points="91.6833,-50.3392 83.8284,-57.4492 94.4027,-56.7894 91.6833,-50.3392"/>
</g>
<!-- Node4 -->
<g id="node4" class="node"><title>Node4</title>
<g id="a_node4"><a xlink:href="../../d8/d84/a00001.html#a76b9d9ea83aa45c28655644598ce1b27" target="_top" xlink:title="Loads a GeoGrid from JSON file. ">
<polygon fill="white" stroke="black" points="344,-95.5 344,-114.5 500,-114.5 500,-95.5 344,-95.5"/>
<text text-anchor="middle" x="422" y="-102.5" font-family="Helvetica,sans-Serif" font-size="10.00">Backend::LoadGeoGridFromFile</text>
</a>
</g>
</g>
<!-- Node3&#45;&gt;Node4 -->
<g id="edge3" class="edge"><title>Node3&#45;&gt;Node4</title>
<path fill="none" stroke="midnightblue" d="M301.9,-92.8989C315.555,-94.2864 330.001,-95.7541 343.943,-97.1706"/>
<polygon fill="midnightblue" stroke="midnightblue" points="301.935,-89.3845 291.632,-91.8557 301.227,-96.3487 301.935,-89.3845"/>
</g>
<!-- Node5 -->
<g id="node5" class="node"><title>Node5</title>
<g id="a_node5"><a xlink:href="../../da/dec/a00080.html#a13cbf50eb92e9c512412e2da30a313b8" target="_top" xlink:title="Shows the given geogrid in the mapviewer. ">
<polygon fill="white" stroke="black" points="373,-57.5 373,-76.5 471,-76.5 471,-57.5 373,-57.5"/>
<text text-anchor="middle" x="422" y="-64.5" font-family="Helvetica,sans-Serif" font-size="10.00">Map::SetGeoGrids</text>
</a>
</g>
</g>
<!-- Node3&#45;&gt;Node5 -->
<g id="edge4" class="edge"><title>Node3&#45;&gt;Node5</title>
<path fill="none" stroke="midnightblue" d="M301.597,-79.1318C325.237,-76.7299 351.276,-74.0842 372.988,-71.8782"/>
<polygon fill="midnightblue" stroke="midnightblue" points="301.227,-75.6513 291.632,-80.1443 301.935,-82.6155 301.227,-75.6513"/>
</g>
</g>
</svg>
