<?xml version="1.0" encoding="UTF-8" standalone="no"?>
<!DOCTYPE svg PUBLIC "-//W3C//DTD SVG 1.1//EN"
 "http://www.w3.org/Graphics/SVG/1.1/DTD/svg11.dtd">
<!-- Generated by graphviz version 2.36.0 (20140111.2315)
 -->
<!-- Title: Backend::SetGeoGrids Pages: 1 -->
<svg width="318pt" height="66pt"
 viewBox="0.00 0.00 318.00 66.00" xmlns="http://www.w3.org/2000/svg" xmlns:xlink="http://www.w3.org/1999/xlink">
<g id="graph0" class="graph" transform="scale(1 1) rotate(0) translate(4 62)">
<title>Backend::SetGeoGrids</title>
<polygon fill="white" stroke="none" points="-4,4 -4,-62 314,-62 314,4 -4,4"/>
<!-- Node1 -->
<g id="node1" class="node"><title>Node1</title>
<polygon fill="#bfbfbf" stroke="black" points="0.5,-19.5 0.5,-38.5 117.5,-38.5 117.5,-19.5 0.5,-19.5"/>
<text text-anchor="middle" x="59" y="-26.5" font-family="Helvetica,sans-Serif" font-size="10.00">Backend::SetGeoGrids</text>
</g>
<!-- Node2 -->
<g id="node2" class="node"><title>Node2</title>
<g id="a_node2"><a xlink:href="../../d8/d84/a00001.html#a76b9d9ea83aa45c28655644598ce1b27" target="_top" xlink:title="Loads a GeoGrid from JSON file. ">
<polygon fill="white" stroke="black" points="154,-38.5 154,-57.5 310,-57.5 310,-38.5 154,-38.5"/>
<text text-anchor="middle" x="232" y="-45.5" font-family="Helvetica,sans-Serif" font-size="10.00">Backend::LoadGeoGridFromFile</text>
</a>
</g>
</g>
<!-- Node1&#45;&gt;Node2 -->
<g id="edge1" class="edge"><title>Node1&#45;&gt;Node2</title>
<path fill="none" stroke="midnightblue" d="M128.056,-36.5618C136.504,-37.5004 145.189,-38.4655 153.762,-39.4181"/>
<polygon fill="midnightblue" stroke="midnightblue" points="128.218,-33.0583 117.893,-35.4325 127.445,-40.0155 128.218,-33.0583"/>
</g>
<!-- Node3 -->
<g id="node3" class="node"><title>Node3</title>
<g id="a_node3"><a xlink:href="../../da/dec/a00080.html#a13cbf50eb92e9c512412e2da30a313b8" target="_top" xlink:title="Shows the given geogrid in the mapviewer. ">
<polygon fill="white" stroke="black" points="183,-0.5 183,-19.5 281,-19.5 281,-0.5 183,-0.5"/>
<text text-anchor="middle" x="232" y="-7.5" font-family="Helvetica,sans-Serif" font-size="10.00">Map::SetGeoGrids</text>
</a>
</g>
</g>
<!-- Node1&#45;&gt;Node3 -->
<g id="edge2" class="edge"><title>Node1&#45;&gt;Node3</title>
<path fill="none" stroke="midnightblue" d="M127.956,-21.4494C146.318,-19.4091 165.81,-17.2434 182.841,-15.351"/>
<polygon fill="midnightblue" stroke="midnightblue" points="127.445,-17.9845 117.893,-22.5675 128.218,-24.9417 127.445,-17.9845"/>
</g>
</g>
</svg>
