<?xml version="1.0" encoding="UTF-8" standalone="no"?>
<!DOCTYPE svg PUBLIC "-//W3C//DTD SVG 1.1//EN"
 "http://www.w3.org/Graphics/SVG/1.1/DTD/svg11.dtd">
<!-- Generated by graphviz version 2.36.0 (20140111.2315)
 -->
<!-- Title: Backend::ShowCommute Pages: 1 -->
<svg width="716pt" height="229pt"
 viewBox="0.00 0.00 716.00 229.00" xmlns="http://www.w3.org/2000/svg" xmlns:xlink="http://www.w3.org/1999/xlink">
<g id="graph0" class="graph" transform="scale(1 1) rotate(0) translate(4 225)">
<title>Backend::ShowCommute</title>
<polygon fill="white" stroke="none" points="-4,4 -4,-225 712,-225 712,4 -4,4"/>
<!-- Node1 -->
<g id="node1" class="node"><title>Node1</title>
<polygon fill="#bfbfbf" stroke="black" points="0,-95.5 0,-114.5 128,-114.5 128,-95.5 0,-95.5"/>
<text text-anchor="middle" x="64" y="-102.5" font-family="Helvetica,sans-Serif" font-size="10.00">Backend::ShowCommute</text>
</g>
<!-- Node2 -->
<g id="node2" class="node"><title>Node2</title>
<g id="a_node2"><a xlink:href="../../d8/d84/a00001.html#a711a658ab043057fa608d1db6a49df24" target="_top" xlink:title="Update colors of Markers based on the value of m_selection and m_unselection. ">
<polygon fill="white" stroke="black" points="164.5,-95.5 164.5,-114.5 325.5,-114.5 325.5,-95.5 164.5,-95.5"/>
<text text-anchor="middle" x="245" y="-102.5" font-family="Helvetica,sans-Serif" font-size="10.00">Backend::UpdateColorOfMarkers</text>
</a>
</g>
</g>
<!-- Node1&#45;&gt;Node2 -->
<g id="edge1" class="edge"><title>Node1&#45;&gt;Node2</title>
<path fill="none" stroke="midnightblue" d="M138.377,-105C146.895,-105 155.615,-105 164.213,-105"/>
<polygon fill="midnightblue" stroke="midnightblue" points="138.109,-101.5 128.109,-105 138.109,-108.5 138.109,-101.5"/>
</g>
<!-- Node3 -->
<g id="node3" class="node"><title>Node3</title>
<g id="a_node3"><a xlink:href="../../d8/d84/a00001.html#a57957c86dc6eb450c9b4830001d4000e" target="_top" xlink:title="Removes all locations from selection and unselection but don&#39;t re&#45;render the map. ...">
<polygon fill="white" stroke="black" points="379.5,-114.5 379.5,-133.5 504.5,-133.5 504.5,-114.5 379.5,-114.5"/>
<text text-anchor="middle" x="442" y="-121.5" font-family="Helvetica,sans-Serif" font-size="10.00">Backend::ClearSelection</text>
</a>
</g>
</g>
<!-- Node2&#45;&gt;Node3 -->
<g id="edge2" class="edge"><title>Node2&#45;&gt;Node3</title>
<path fill="none" stroke="midnightblue" d="M335.737,-113.744C350.465,-115.179 365.431,-116.637 379.279,-117.986"/>
<polygon fill="midnightblue" stroke="midnightblue" points="335.888,-110.242 325.595,-112.755 335.209,-117.209 335.888,-110.242"/>
</g>
<!-- Node4 -->
<g id="node4" class="node"><title>Node4</title>
<g id="a_node4"><a xlink:href="../../d8/d84/a00001.html#a21d367f733a25f731ee2c9e55a3d796e" target="_top" xlink:title="Handles a click on a marker. ">
<polygon fill="white" stroke="black" points="564.5,-133.5 564.5,-152.5 701.5,-152.5 701.5,-133.5 564.5,-133.5"/>
<text text-anchor="middle" x="633" y="-140.5" font-family="Helvetica,sans-Serif" font-size="10.00">Backend::OnMarkerClicked</text>
</a>
</g>
</g>
<!-- Node2&#45;&gt;Node4 -->
<g id="edge8" class="edge"><title>Node2&#45;&gt;Node4</title>
<path fill="none" stroke="midnightblue" d="M277.7,-118.408C300.644,-127.359 332.651,-138.315 362,-143 430.276,-153.898 509.508,-152.238 564.404,-148.873"/>
<polygon fill="midnightblue" stroke="midnightblue" points="278.733,-115.052 268.148,-114.593 276.137,-121.553 278.733,-115.052"/>
</g>
<!-- Node6 -->
<g id="node6" class="node"><title>Node6</title>
<g id="a_node6"><a xlink:href="../../d8/d84/a00001.html#a12718652247133e7a7dc8fba69fdd56d" target="_top" xlink:title="Removes all locations from selection and unselection + re&#45;render the map. ">
<polygon fill="white" stroke="black" points="371,-191 371,-221 513,-221 513,-191 371,-191"/>
<text text-anchor="start" x="379" y="-209" font-family="Helvetica,sans-Serif" font-size="10.00">Backend::ClearSelectionAnd</text>
<text text-anchor="middle" x="442" y="-198" font-family="Helvetica,sans-Serif" font-size="10.00">Render</text>
</a>
</g>
</g>
<!-- Node2&#45;&gt;Node6 -->
<g id="edge5" class="edge"><title>Node2&#45;&gt;Node6</title>
<path fill="none" stroke="midnightblue" d="M268.107,-120.252C290.94,-135.588 327.94,-159.291 362,-176 373.064,-181.428 385.373,-186.524 396.918,-190.921"/>
<polygon fill="midnightblue" stroke="midnightblue" points="270.045,-117.337 259.803,-114.623 266.117,-123.132 270.045,-117.337"/>
</g>
<!-- Node8 -->
<g id="node8" class="node"><title>Node8</title>
<g id="a_node8"><a xlink:href="../../d8/d84/a00001.html#a99bb1003a584e978452b99901fc573ba" target="_top" xlink:title="Adds the location of the marker to the selection. ">
<polygon fill="white" stroke="black" points="362,-76.5 362,-95.5 522,-95.5 522,-76.5 362,-76.5"/>
<text text-anchor="middle" x="442" y="-83.5" font-family="Helvetica,sans-Serif" font-size="10.00">Backend::OnExtraMarkerClicked</text>
</a>
</g>
</g>
<!-- Node2&#45;&gt;Node8 -->
<g id="edge7" class="edge"><title>Node2&#45;&gt;Node8</title>
<path fill="none" stroke="midnightblue" d="M335.797,-96.2506C344.534,-95.3992 353.355,-94.5398 361.975,-93.6999"/>
<polygon fill="midnightblue" stroke="midnightblue" points="335.209,-92.7912 325.595,-97.2446 335.888,-99.7582 335.209,-92.7912"/>
</g>
<!-- Node9 -->
<g id="node9" class="node"><title>Node9</title>
<g id="a_node9"><a xlink:href="../../d8/d84/a00001.html#a5c6947858998d7709812d9bf825906dc" target="_top" xlink:title="Adds all locations of the grid to the selection and updates the visual appearance of these locations...">
<polygon fill="white" stroke="black" points="392,-38.5 392,-57.5 492,-57.5 492,-38.5 392,-38.5"/>
<text text-anchor="middle" x="442" y="-45.5" font-family="Helvetica,sans-Serif" font-size="10.00">Backend::SelectAll</text>
</a>
</g>
</g>
<!-- Node2&#45;&gt;Node9 -->
<g id="edge9" class="edge"><title>Node2&#45;&gt;Node9</title>
<path fill="none" stroke="midnightblue" d="M282.58,-92.1793C305.299,-84.4261 335.182,-74.6041 362,-67 373.807,-63.6521 386.713,-60.3854 398.607,-57.5313"/>
<polygon fill="midnightblue" stroke="midnightblue" points="281.318,-88.912 272.998,-95.4716 283.593,-95.5322 281.318,-88.912"/>
</g>
<!-- Node10 -->
<g id="node10" class="node"><title>Node10</title>
<g id="a_node10"><a xlink:href="../../d8/d84/a00001.html#a74ab20ec1a62676534387b56c2b514d5" target="_top" xlink:title="The Same as SelectArea but does not clear selection first. ">
<polygon fill="white" stroke="black" points="372,-0.5 372,-19.5 512,-19.5 512,-0.5 372,-0.5"/>
<text text-anchor="middle" x="442" y="-7.5" font-family="Helvetica,sans-Serif" font-size="10.00">Backend::SelectExtraInArea</text>
</a>
</g>
</g>
<!-- Node2&#45;&gt;Node10 -->
<g id="edge10" class="edge"><title>Node2&#45;&gt;Node10</title>
<path fill="none" stroke="midnightblue" d="M265.695,-89.0198C287.848,-71.8064 325.516,-44.7709 362,-29 370.805,-25.1939 380.506,-22.0692 390.006,-19.5325"/>
<polygon fill="midnightblue" stroke="midnightblue" points="263.412,-86.3626 257.732,-95.3061 267.749,-91.8568 263.412,-86.3626"/>
</g>
<!-- Node3&#45;&gt;Node4 -->
<g id="edge3" class="edge"><title>Node3&#45;&gt;Node4</title>
<path fill="none" stroke="midnightblue" d="M514.618,-131.2C530.898,-132.836 548.142,-134.57 564.255,-136.19"/>
<polygon fill="midnightblue" stroke="midnightblue" points="514.924,-127.713 504.624,-130.195 514.224,-134.678 514.924,-127.713"/>
</g>
<!-- Node5 -->
<g id="node5" class="node"><title>Node5</title>
<g id="a_node5"><a xlink:href="../../d8/d84/a00001.html#a902157ea9e4cd13e6a25eed9135115e7" target="_top" xlink:title="Selects all locations in between. ">
<polygon fill="white" stroke="black" points="578.5,-38.5 578.5,-57.5 687.5,-57.5 687.5,-38.5 578.5,-38.5"/>
<text text-anchor="middle" x="633" y="-45.5" font-family="Helvetica,sans-Serif" font-size="10.00">Backend::SelectArea</text>
</a>
</g>
</g>
<!-- Node3&#45;&gt;Node5 -->
<g id="edge4" class="edge"><title>Node3&#45;&gt;Node5</title>
<path fill="none" stroke="midnightblue" d="M500.638,-111.866C507.911,-109.831 515.185,-107.542 522,-105 557.267,-91.844 595.72,-70.0386 616.523,-57.5569"/>
<polygon fill="midnightblue" stroke="midnightblue" points="499.535,-108.537 490.766,-114.482 501.329,-115.304 499.535,-108.537"/>
</g>
<!-- Node7 -->
<g id="node7" class="node"><title>Node7</title>
<g id="a_node7"><a xlink:href="../../d8/d84/a00001.html#a6ff4f267985cb8eea228352455ab6b67" target="_top" xlink:title="Backend::SetShowCommutes">
<polygon fill="white" stroke="black" points="558.5,-196.5 558.5,-215.5 707.5,-215.5 707.5,-196.5 558.5,-196.5"/>
<text text-anchor="middle" x="633" y="-203.5" font-family="Helvetica,sans-Serif" font-size="10.00">Backend::SetShowCommutes</text>
</a>
</g>
</g>
<!-- Node6&#45;&gt;Node7 -->
<g id="edge6" class="edge"><title>Node6&#45;&gt;Node7</title>
<path fill="none" stroke="midnightblue" d="M523.217,-206C534.827,-206 546.731,-206 558.207,-206"/>
<polygon fill="midnightblue" stroke="midnightblue" points="523.108,-202.5 513.108,-206 523.108,-209.5 523.108,-202.5"/>
</g>
<!-- Node10&#45;&gt;Node5 -->
<g id="edge11" class="edge"><title>Node10&#45;&gt;Node5</title>
<path fill="none" stroke="midnightblue" d="M500.742,-21.6095C527.622,-27.014 559.203,-33.3635 584.65,-38.4799"/>
<polygon fill="midnightblue" stroke="midnightblue" points="501.186,-18.1289 490.693,-19.589 499.807,-24.9916 501.186,-18.1289"/>
</g>
</g>
</svg>
