<?xml version="1.0" encoding="UTF-8" standalone="no"?>
<!DOCTYPE svg PUBLIC "-//W3C//DTD SVG 1.1//EN"
 "http://www.w3.org/Graphics/SVG/1.1/DTD/svg11.dtd">
<!-- Generated by graphviz version 2.36.0 (20140111.2315)
 -->
<!-- Title: Backend::PlaceMarker Pages: 1 -->
<svg width="660pt" height="173pt"
 viewBox="0.00 0.00 660.00 173.00" xmlns="http://www.w3.org/2000/svg" xmlns:xlink="http://www.w3.org/1999/xlink">
<g id="graph0" class="graph" transform="scale(1 1) rotate(0) translate(4 169)">
<title>Backend::PlaceMarker</title>
<polygon fill="white" stroke="none" points="-4,4 -4,-169 656,-169 656,4 -4,4"/>
<!-- Node1 -->
<g id="node1" class="node"><title>Node1</title>
<polygon fill="#bfbfbf" stroke="black" points="0,-60.5 0,-79.5 116,-79.5 116,-60.5 0,-60.5"/>
<text text-anchor="middle" x="58" y="-67.5" font-family="Helvetica,sans-Serif" font-size="10.00">Backend::PlaceMarker</text>
</g>
<!-- Node2 -->
<g id="node2" class="node"><title>Node2</title>
<g id="a_node2"><a xlink:href="../../d8/d84/a00001.html#a0ed26b4e4fdbffb693fc5a93db1fabe5" target="_top" xlink:title="Places the markers on the map, according to the current checked boxes. ">
<polygon fill="white" stroke="black" points="152.5,-60.5 152.5,-79.5 273.5,-79.5 273.5,-60.5 152.5,-60.5"/>
<text text-anchor="middle" x="213" y="-67.5" font-family="Helvetica,sans-Serif" font-size="10.00">Backend::PlaceMarkers</text>
</a>
</g>
</g>
<!-- Node1&#45;&gt;Node2 -->
<g id="edge1" class="edge"><title>Node1&#45;&gt;Node2</title>
<path fill="none" stroke="midnightblue" d="M126.478,-70C135.141,-70 143.961,-70 152.484,-70"/>
<polygon fill="midnightblue" stroke="midnightblue" points="126.407,-66.5001 116.407,-70 126.407,-73.5001 126.407,-66.5001"/>
</g>
<!-- Node3 -->
<g id="node3" class="node"><title>Node3</title>
<g id="a_node3"><a xlink:href="../../d8/d84/a00001.html#acb9ec493bbac930f2c20e69963459770" target="_top" xlink:title="Changes the geogrid to the given one. ">
<polygon fill="white" stroke="black" points="326.5,-126.5 326.5,-145.5 443.5,-145.5 443.5,-126.5 326.5,-126.5"/>
<text text-anchor="middle" x="385" y="-133.5" font-family="Helvetica,sans-Serif" font-size="10.00">Backend::SetGeoGrids</text>
</a>
</g>
</g>
<!-- Node2&#45;&gt;Node3 -->
<g id="edge2" class="edge"><title>Node2&#45;&gt;Node3</title>
<path fill="none" stroke="midnightblue" d="M240.556,-84.3475C259.517,-94.1865 285.84,-107.033 310,-116 320.605,-119.936 332.326,-123.463 343.252,-126.419"/>
<polygon fill="midnightblue" stroke="midnightblue" points="242.102,-81.2061 231.622,-79.6514 238.845,-87.4022 242.102,-81.2061"/>
</g>
<!-- Node6 -->
<g id="node6" class="node"><title>Node6</title>
<g id="a_node6"><a xlink:href="../../d8/d84/a00001.html#a4c68caab686f34853c326b801fbadf4b" target="_top" xlink:title="Load a GeoGrid from JSON file, specified in the command line arguments. ">
<polygon fill="white" stroke="black" points="315,-77 315,-107 455,-107 455,-77 315,-77"/>
<text text-anchor="start" x="323" y="-95" font-family="Helvetica,sans-Serif" font-size="10.00">Backend::LoadGeoGridFrom</text>
<text text-anchor="middle" x="385" y="-84" font-family="Helvetica,sans-Serif" font-size="10.00">CommandLine</text>
</a>
</g>
</g>
<!-- Node2&#45;&gt;Node6 -->
<g id="edge5" class="edge"><title>Node2&#45;&gt;Node6</title>
<path fill="none" stroke="midnightblue" d="M283.973,-79.0553C294.131,-80.3699 304.586,-81.7228 314.73,-83.0356"/>
<polygon fill="midnightblue" stroke="midnightblue" points="284.302,-75.5688 273.936,-77.7564 283.404,-82.5109 284.302,-75.5688"/>
</g>
<!-- Node7 -->
<g id="node7" class="node"><title>Node7</title>
<g id="a_node7"><a xlink:href="../../d8/d84/a00001.html#af3d90629f93456f7ed430d53225d28cc" target="_top" xlink:title="Places the locations of the current GeoGrid on the map. ">
<polygon fill="white" stroke="black" points="330,-38.5 330,-57.5 440,-57.5 440,-38.5 330,-38.5"/>
<text text-anchor="middle" x="385" y="-45.5" font-family="Helvetica,sans-Serif" font-size="10.00">Backend::SetObjects</text>
</a>
</g>
</g>
<!-- Node2&#45;&gt;Node7 -->
<g id="edge6" class="edge"><title>Node2&#45;&gt;Node7</title>
<path fill="none" stroke="midnightblue" d="M283.92,-60.9515C299.296,-58.9616 315.353,-56.8837 329.989,-54.9896"/>
<polygon fill="midnightblue" stroke="midnightblue" points="283.404,-57.4891 273.936,-62.2436 284.302,-64.4312 283.404,-57.4891"/>
</g>
<!-- Node8 -->
<g id="node8" class="node"><title>Node8</title>
<g id="a_node8"><a xlink:href="../../d8/d84/a00001.html#a6ff4f267985cb8eea228352455ab6b67" target="_top" xlink:title="Backend::SetShowCommutes">
<polygon fill="white" stroke="black" points="310.5,-0.5 310.5,-19.5 459.5,-19.5 459.5,-0.5 310.5,-0.5"/>
<text text-anchor="middle" x="385" y="-7.5" font-family="Helvetica,sans-Serif" font-size="10.00">Backend::SetShowCommutes</text>
</a>
</g>
</g>
<!-- Node2&#45;&gt;Node8 -->
<g id="edge7" class="edge"><title>Node2&#45;&gt;Node8</title>
<path fill="none" stroke="midnightblue" d="M243.089,-56.204C261.896,-47.6293 287.058,-36.7937 310,-29 320.298,-25.5015 331.592,-22.2948 342.186,-19.552"/>
<polygon fill="midnightblue" stroke="midnightblue" points="241.493,-53.0859 233.879,-60.4538 244.426,-59.4418 241.493,-53.0859"/>
</g>
<!-- Node4 -->
<g id="node4" class="node"><title>Node4</title>
<g id="a_node4"><a xlink:href="../../d8/d84/a00001.html#a76b9d9ea83aa45c28655644598ce1b27" target="_top" xlink:title="Loads a GeoGrid from JSON file. ">
<polygon fill="white" stroke="black" points="496,-145.5 496,-164.5 652,-164.5 652,-145.5 496,-145.5"/>
<text text-anchor="middle" x="574" y="-152.5" font-family="Helvetica,sans-Serif" font-size="10.00">Backend::LoadGeoGridFromFile</text>
</a>
</g>
</g>
<!-- Node3&#45;&gt;Node4 -->
<g id="edge3" class="edge"><title>Node3&#45;&gt;Node4</title>
<path fill="none" stroke="midnightblue" d="M453.9,-142.899C467.555,-144.286 482.001,-145.754 495.943,-147.171"/>
<polygon fill="midnightblue" stroke="midnightblue" points="453.935,-139.385 443.632,-141.856 453.227,-146.349 453.935,-139.385"/>
</g>
<!-- Node5 -->
<g id="node5" class="node"><title>Node5</title>
<g id="a_node5"><a xlink:href="../../da/dec/a00080.html#a13cbf50eb92e9c512412e2da30a313b8" target="_top" xlink:title="Shows the given geogrid in the mapviewer. ">
<polygon fill="white" stroke="black" points="525,-107.5 525,-126.5 623,-126.5 623,-107.5 525,-107.5"/>
<text text-anchor="middle" x="574" y="-114.5" font-family="Helvetica,sans-Serif" font-size="10.00">Map::SetGeoGrids</text>
</a>
</g>
</g>
<!-- Node3&#45;&gt;Node5 -->
<g id="edge4" class="edge"><title>Node3&#45;&gt;Node5</title>
<path fill="none" stroke="midnightblue" d="M453.597,-129.132C477.237,-126.73 503.276,-124.084 524.988,-121.878"/>
<polygon fill="midnightblue" stroke="midnightblue" points="453.227,-125.651 443.632,-130.144 453.935,-132.615 453.227,-125.651"/>
</g>
</g>
</svg>
