<?xml version="1.0" encoding="UTF-8" standalone="no"?>
<!DOCTYPE svg PUBLIC "-//W3C//DTD SVG 1.1//EN"
 "http://www.w3.org/Graphics/SVG/1.1/DTD/svg11.dtd">
<!-- Generated by graphviz version 2.36.0 (20140111.2315)
 -->
<!-- Title: Backend::AddCommuteLine Pages: 1 -->
<!--zoomable 393 -->
<svg id="main" version="1.1" xmlns="http://www.w3.org/2000/svg" xmlns:xlink="http://www.w3.org/1999/xlink" xml:space="preserve" onload="init(evt)">
<style type="text/css"><![CDATA[
.edge:hover path { stroke: red; }
.edge:hover polygon { stroke: red; fill: red; }
]]></style>
<script type="text/javascript"><![CDATA[
var edges = document.getElementsByTagName('g');
if (edges && edges.length) {
  for (var i=0;i<edges.length;i++) {
    if (edges[i].id.substr(0,4)=='edge') {
      edges[i].setAttribute('class','edge');
    }
  }
}
]]></script>
        <defs>
                <circle id="rim" cx="0" cy="0" r="7"/>
                <circle id="rim2" cx="0" cy="0" r="3.5"/>
                <g id="zoomPlus">
                        <use xlink:href="#rim" fill="#404040">
                                <set attributeName="fill" to="#808080" begin="zoomplus.mouseover" end="zoomplus.mouseout"/>
                        </use>
                        <path d="M-4,0h8M0,-4v8" fill="none" stroke="white" stroke-width="1.5" pointer-events="none"/>
                </g>
                <g id="zoomMin">
                        <use xlink:href="#rim" fill="#404040">
                                <set attributeName="fill" to="#808080" begin="zoomminus.mouseover" end="zoomminus.mouseout"/>
                        </use>
                        <path d="M-4,0h8" fill="none" stroke="white" stroke-width="1.5" pointer-events="none"/>
                </g>
                <g id="dirArrow">
                        <path fill="none" stroke="white" stroke-width="1.5" d="M0,-3.0v7 M-2.5,-0.5L0,-3.0L2.5,-0.5"/>
                </g>
               <g id="resetDef">
                       <use xlink:href="#rim2" fill="#404040">
                               <set attributeName="fill" to="#808080" begin="reset.mouseover" end="reset.mouseout"/>
                       </use>
               </g>
        </defs>

<script type="text/javascript">
var viewWidth = 892;
var viewHeight = 393;
var sectionId = 'dynsection-31';
</script>
<script xlink:href="../../svgpan.js"/>
<svg id="graph" class="graph">
<g id="viewport">
<title>Backend::AddCommuteLine</title>
<polygon fill="white" stroke="none" points="-4,4 -4,-389 888,-389 888,4 -4,4"/>
<!-- Node1 -->
<g id="node1" class="node"><title>Node1</title>
<polygon fill="#bfbfbf" stroke="black" points="0.5,-227.5 0.5,-246.5 139.5,-246.5 139.5,-227.5 0.5,-227.5"/>
<text text-anchor="middle" x="70" y="-234.5" font-family="Helvetica,sans-Serif" font-size="10.00">Backend::AddCommuteLine</text>
</g>
<!-- Node2 -->
<g id="node2" class="node"><title>Node2</title>
<g id="a_node2"><a xlink:href="../../d8/d84/a00001.html#a0ed26b4e4fdbffb693fc5a93db1fabe5" target="_top" xlink:title="Places the markers on the map, according to the current checked boxes. ">
<polygon fill="white" stroke="black" points="179.5,-278.5 179.5,-297.5 300.5,-297.5 300.5,-278.5 179.5,-278.5"/>
<text text-anchor="middle" x="240" y="-285.5" font-family="Helvetica,sans-Serif" font-size="10.00">Backend::PlaceMarkers</text>
</a>
</g>
</g>
<!-- Node1&#45;&gt;Node2 -->
<g id="edge1" class="edge"><title>Node1&#45;&gt;Node2</title>
<path fill="none" stroke="midnightblue" d="M112.18,-249.501C141.605,-258.434 180.599,-270.271 207.542,-278.45"/>
<polygon fill="midnightblue" stroke="midnightblue" points="113.185,-246.149 102.6,-246.593 111.152,-252.847 113.185,-246.149"/>
</g>
<!-- Node9 -->
<g id="node9" class="node"><title>Node9</title>
<g id="a_node9"><a xlink:href="../../d8/d84/a00001.html#a852a5daca487b26cdb2416733cee3721" target="_top" xlink:title="Shows the commute from loc1 to loc2 on the map. ">
<polygon fill="white" stroke="black" points="176,-177.5 176,-196.5 304,-196.5 304,-177.5 176,-177.5"/>
<text text-anchor="middle" x="240" y="-184.5" font-family="Helvetica,sans-Serif" font-size="10.00">Backend::ShowCommute</text>
</a>
</g>
</g>
<!-- Node1&#45;&gt;Node9 -->
<g id="edge8" class="edge"><title>Node1&#45;&gt;Node9</title>
<path fill="none" stroke="midnightblue" d="M112.87,-224.539C141.956,-215.882 180.135,-204.519 206.838,-196.572"/>
<polygon fill="midnightblue" stroke="midnightblue" points="111.581,-221.271 102.995,-227.478 113.578,-227.98 111.581,-221.271"/>
</g>
<!-- Node3 -->
<g id="node3" class="node"><title>Node3</title>
<g id="a_node3"><a xlink:href="../../d8/d84/a00001.html#a4c68caab686f34853c326b801fbadf4b" target="_top" xlink:title="Load a GeoGrid from JSON file, specified in the command line arguments. ">
<polygon fill="white" stroke="black" points="351,-355 351,-385 491,-385 491,-355 351,-355"/>
<text text-anchor="start" x="359" y="-373" font-family="Helvetica,sans-Serif" font-size="10.00">Backend::LoadGeoGridFrom</text>
<text text-anchor="middle" x="421" y="-362" font-family="Helvetica,sans-Serif" font-size="10.00">CommandLine</text>
</a>
</g>
</g>
<!-- Node2&#45;&gt;Node3 -->
<g id="edge2" class="edge"><title>Node2&#45;&gt;Node3</title>
<path fill="none" stroke="midnightblue" d="M263.764,-303.036C283.36,-315.501 312.71,-333.053 340,-345 348.265,-348.618 357.218,-351.95 366.043,-354.922"/>
<polygon fill="midnightblue" stroke="midnightblue" points="265.536,-300.014 255.235,-297.538 261.744,-305.898 265.536,-300.014"/>
</g>
<!-- Node4 -->
<g id="node4" class="node"><title>Node4</title>
<g id="a_node4"><a xlink:href="../../d8/d84/a00001.html#acb9ec493bbac930f2c20e69963459770" target="_top" xlink:title="Changes the geogrid to the given one. ">
<polygon fill="white" stroke="black" points="362.5,-316.5 362.5,-335.5 479.5,-335.5 479.5,-316.5 362.5,-316.5"/>
<text text-anchor="middle" x="421" y="-323.5" font-family="Helvetica,sans-Serif" font-size="10.00">Backend::SetGeoGrids</text>
</a>
</g>
</g>
<!-- Node2&#45;&gt;Node4 -->
<g id="edge3" class="edge"><title>Node2&#45;&gt;Node4</title>
<path fill="none" stroke="midnightblue" d="M296.024,-299.681C321.408,-305.07 351.161,-311.386 375.156,-316.48"/>
<polygon fill="midnightblue" stroke="midnightblue" points="296.678,-296.242 286.169,-297.589 295.224,-303.089 296.678,-296.242"/>
</g>
<!-- Node7 -->
<g id="node7" class="node"><title>Node7</title>
<g id="a_node7"><a xlink:href="../../d8/d84/a00001.html#af3d90629f93456f7ed430d53225d28cc" target="_top" xlink:title="Places the locations of the current GeoGrid on the map. ">
<polygon fill="white" stroke="black" points="366,-278.5 366,-297.5 476,-297.5 476,-278.5 366,-278.5"/>
<text text-anchor="middle" x="421" y="-285.5" font-family="Helvetica,sans-Serif" font-size="10.00">Backend::SetObjects</text>
</a>
</g>
</g>
<!-- Node2&#45;&gt;Node7 -->
<g id="edge6" class="edge"><title>Node2&#45;&gt;Node7</title>
<path fill="none" stroke="midnightblue" d="M310.634,-288C328.942,-288 348.418,-288 365.784,-288"/>
<polygon fill="midnightblue" stroke="midnightblue" points="310.604,-284.5 300.604,-288 310.604,-291.5 310.604,-284.5"/>
</g>
<!-- Node8 -->
<g id="node8" class="node"><title>Node8</title>
<g id="a_node8"><a xlink:href="../../d8/d84/a00001.html#a6ff4f267985cb8eea228352455ab6b67" target="_top" xlink:title="Backend::SetShowCommutes">
<polygon fill="white" stroke="black" points="734.5,-218.5 734.5,-237.5 883.5,-237.5 883.5,-218.5 734.5,-218.5"/>
<text text-anchor="middle" x="809" y="-225.5" font-family="Helvetica,sans-Serif" font-size="10.00">Backend::SetShowCommutes</text>
</a>
</g>
</g>
<!-- Node2&#45;&gt;Node8 -->
<g id="edge7" class="edge"><title>Node2&#45;&gt;Node8</title>
<path fill="none" stroke="midnightblue" d="M295.878,-276.433C310.192,-273.7 325.633,-271.003 340,-269 478.74,-249.661 641.968,-237.817 734.379,-232.115"/>
<polygon fill="midnightblue" stroke="midnightblue" points="294.832,-273.071 285.686,-278.419 296.171,-279.941 294.832,-273.071"/>
</g>
<!-- Node5 -->
<g id="node5" class="node"><title>Node5</title>
<g id="a_node5"><a xlink:href="../../d8/d84/a00001.html#a76b9d9ea83aa45c28655644598ce1b27" target="_top" xlink:title="Loads a GeoGrid from JSON file. ">
<polygon fill="white" stroke="black" points="540,-335.5 540,-354.5 696,-354.5 696,-335.5 540,-335.5"/>
<text text-anchor="middle" x="618" y="-342.5" font-family="Helvetica,sans-Serif" font-size="10.00">Backend::LoadGeoGridFromFile</text>
</a>
</g>
</g>
<!-- Node4&#45;&gt;Node5 -->
<g id="edge4" class="edge"><title>Node4&#45;&gt;Node5</title>
<path fill="none" stroke="midnightblue" d="M490.097,-332.635C506.186,-334.203 523.454,-335.885 539.909,-337.489"/>
<polygon fill="midnightblue" stroke="midnightblue" points="490.007,-329.11 479.715,-331.624 489.328,-336.077 490.007,-329.11"/>
</g>
<!-- Node6 -->
<g id="node6" class="node"><title>Node6</title>
<g id="a_node6"><a xlink:href="../../da/dec/a00080.html#a13cbf50eb92e9c512412e2da30a313b8" target="_top" xlink:title="Shows the given geogrid in the mapviewer. ">
<polygon fill="white" stroke="black" points="569,-297.5 569,-316.5 667,-316.5 667,-297.5 569,-297.5"/>
<text text-anchor="middle" x="618" y="-304.5" font-family="Helvetica,sans-Serif" font-size="10.00">Map::SetGeoGrids</text>
</a>
</g>
</g>
<!-- Node4&#45;&gt;Node6 -->
<g id="edge5" class="edge"><title>Node4&#45;&gt;Node6</title>
<path fill="none" stroke="midnightblue" d="M489.908,-319.383C515.969,-316.844 545.145,-314.001 568.963,-311.68"/>
<polygon fill="midnightblue" stroke="midnightblue" points="489.328,-315.923 479.715,-320.376 490.007,-322.89 489.328,-315.923"/>
</g>
<!-- Node10 -->
<g id="node10" class="node"><title>Node10</title>
<g id="a_node10"><a xlink:href="../../d8/d84/a00001.html#a711a658ab043057fa608d1db6a49df24" target="_top" xlink:title="Update colors of Markers based on the value of m_selection and m_unselection. ">
<polygon fill="white" stroke="black" points="340.5,-114.5 340.5,-133.5 501.5,-133.5 501.5,-114.5 340.5,-114.5"/>
<text text-anchor="middle" x="421" y="-121.5" font-family="Helvetica,sans-Serif" font-size="10.00">Backend::UpdateColorOfMarkers</text>
</a>
</g>
</g>
<!-- Node9&#45;&gt;Node10 -->
<g id="edge9" class="edge"><title>Node9&#45;&gt;Node10</title>
<path fill="none" stroke="midnightblue" d="M277.815,-174.043C312.017,-162.005 362.158,-144.358 392.852,-133.555"/>
<polygon fill="midnightblue" stroke="midnightblue" points="276.457,-170.81 268.186,-177.432 278.781,-177.413 276.457,-170.81"/>
</g>
<!-- Node11 -->
<g id="node11" class="node"><title>Node11</title>
<g id="a_node11"><a xlink:href="../../d8/d84/a00001.html#a57957c86dc6eb450c9b4830001d4000e" target="_top" xlink:title="Removes all locations from selection and unselection but don&#39;t re&#45;render the map. ...">
<polygon fill="white" stroke="black" points="555.5,-114.5 555.5,-133.5 680.5,-133.5 680.5,-114.5 555.5,-114.5"/>
<text text-anchor="middle" x="618" y="-121.5" font-family="Helvetica,sans-Serif" font-size="10.00">Backend::ClearSelection</text>
</a>
</g>
</g>
<!-- Node10&#45;&gt;Node11 -->
<g id="edge10" class="edge"><title>Node10&#45;&gt;Node11</title>
<path fill="none" stroke="midnightblue" d="M511.737,-124C526.465,-124 541.431,-124 555.279,-124"/>
<polygon fill="midnightblue" stroke="midnightblue" points="511.595,-120.5 501.595,-124 511.595,-127.5 511.595,-120.5"/>
</g>
<!-- Node12 -->
<g id="node12" class="node"><title>Node12</title>
<g id="a_node12"><a xlink:href="../../d8/d84/a00001.html#a21d367f733a25f731ee2c9e55a3d796e" target="_top" xlink:title="Handles a click on a marker. ">
<polygon fill="white" stroke="black" points="740.5,-133.5 740.5,-152.5 877.5,-152.5 877.5,-133.5 740.5,-133.5"/>
<text text-anchor="middle" x="809" y="-140.5" font-family="Helvetica,sans-Serif" font-size="10.00">Backend::OnMarkerClicked</text>
</a>
</g>
</g>
<!-- Node10&#45;&gt;Node12 -->
<g id="edge16" class="edge"><title>Node10&#45;&gt;Node12</title>
<path fill="none" stroke="midnightblue" d="M479.3,-135.277C497.941,-138.438 518.779,-141.436 538,-143 606.796,-148.597 685.779,-147.755 740.469,-146.03"/>
<polygon fill="midnightblue" stroke="midnightblue" points="479.647,-131.785 469.194,-133.513 478.443,-138.681 479.647,-131.785"/>
</g>
<!-- Node14 -->
<g id="node14" class="node"><title>Node14</title>
<g id="a_node14"><a xlink:href="../../d8/d84/a00001.html#a12718652247133e7a7dc8fba69fdd56d" target="_top" xlink:title="Removes all locations from selection and unselection + re&#45;render the map. ">
<polygon fill="white" stroke="black" points="547,-191 547,-221 689,-221 689,-191 547,-191"/>
<text text-anchor="start" x="555" y="-209" font-family="Helvetica,sans-Serif" font-size="10.00">Backend::ClearSelectionAnd</text>
<text text-anchor="middle" x="618" y="-198" font-family="Helvetica,sans-Serif" font-size="10.00">Render</text>
</a>
</g>
</g>
<!-- Node10&#45;&gt;Node14 -->
<g id="edge13" class="edge"><title>Node10&#45;&gt;Node14</title>
<path fill="none" stroke="midnightblue" d="M451.714,-137.897C475.026,-148.659 508.377,-163.748 538,-176 550.201,-181.046 563.588,-186.253 575.818,-190.882"/>
<polygon fill="midnightblue" stroke="midnightblue" points="452.923,-134.599 442.378,-133.57 449.979,-140.951 452.923,-134.599"/>
</g>
<!-- Node15 -->
<g id="node15" class="node"><title>Node15</title>
<g id="a_node15"><a xlink:href="../../d8/d84/a00001.html#a99bb1003a584e978452b99901fc573ba" target="_top" xlink:title="Adds the location of the marker to the selection. ">
<polygon fill="white" stroke="black" points="538,-76.5 538,-95.5 698,-95.5 698,-76.5 538,-76.5"/>
<text text-anchor="middle" x="618" y="-83.5" font-family="Helvetica,sans-Serif" font-size="10.00">Backend::OnExtraMarkerClicked</text>
</a>
</g>
</g>
<!-- Node10&#45;&gt;Node15 -->
<g id="edge15" class="edge"><title>Node10&#45;&gt;Node15</title>
<path fill="none" stroke="midnightblue" d="M480.959,-112.511C508.782,-107.089 541.596,-100.694 568.025,-95.5439"/>
<polygon fill="midnightblue" stroke="midnightblue" points="480.101,-109.112 470.955,-114.46 481.44,-115.983 480.101,-109.112"/>
</g>
<!-- Node16 -->
<g id="node16" class="node"><title>Node16</title>
<g id="a_node16"><a xlink:href="../../d8/d84/a00001.html#a5c6947858998d7709812d9bf825906dc" target="_top" xlink:title="Backend::SelectAll">
<polygon fill="white" stroke="black" points="568,-38.5 568,-57.5 668,-57.5 668,-38.5 568,-38.5"/>
<text text-anchor="middle" x="618" y="-45.5" font-family="Helvetica,sans-Serif" font-size="10.00">Backend::SelectAll</text>
</a>
</g>
</g>
<!-- Node10&#45;&gt;Node16 -->
<g id="edge17" class="edge"><title>Node10&#45;&gt;Node16</title>
<path fill="none" stroke="midnightblue" d="M447.177,-109.604C470.209,-96.9301 505.537,-78.7168 538,-67 548.084,-63.3604 559.143,-60.2072 569.71,-57.5725"/>
<polygon fill="midnightblue" stroke="midnightblue" points="445.429,-106.571 438.397,-114.496 448.836,-112.686 445.429,-106.571"/>
</g>
<!-- Node17 -->
<g id="node17" class="node"><title>Node17</title>
<g id="a_node17"><a xlink:href="../../d8/d84/a00001.html#a74ab20ec1a62676534387b56c2b514d5" target="_top" xlink:title="The Same as SelectArea but does not clear selection first. ">
<polygon fill="white" stroke="black" points="548,-0.5 548,-19.5 688,-19.5 688,-0.5 548,-0.5"/>
<text text-anchor="middle" x="618" y="-7.5" font-family="Helvetica,sans-Serif" font-size="10.00">Backend::SelectExtraInArea</text>
</a>
</g>
</g>
<!-- Node10&#45;&gt;Node17 -->
<g id="edge18" class="edge"><title>Node10&#45;&gt;Node17</title>
<path fill="none" stroke="midnightblue" d="M437.989,-106.802C458.914,-85.3397 497.691,-49.0268 538,-29 545.706,-25.1713 554.225,-22.0885 562.733,-19.6134"/>
<polygon fill="midnightblue" stroke="midnightblue" points="435.261,-104.591 430.877,-114.236 440.319,-109.43 435.261,-104.591"/>
</g>
<!-- Node11&#45;&gt;Node12 -->
<g id="edge11" class="edge"><title>Node11&#45;&gt;Node12</title>
<path fill="none" stroke="midnightblue" d="M690.618,-131.2C706.898,-132.836 724.142,-134.57 740.255,-136.19"/>
<polygon fill="midnightblue" stroke="midnightblue" points="690.924,-127.713 680.624,-130.195 690.224,-134.678 690.924,-127.713"/>
</g>
<!-- Node13 -->
<g id="node13" class="node"><title>Node13</title>
<g id="a_node13"><a xlink:href="../../d8/d84/a00001.html#a902157ea9e4cd13e6a25eed9135115e7" target="_top" xlink:title="Selects all locations in between. ">
<polygon fill="white" stroke="black" points="754.5,-57.5 754.5,-76.5 863.5,-76.5 863.5,-57.5 754.5,-57.5"/>
<text text-anchor="middle" x="809" y="-64.5" font-family="Helvetica,sans-Serif" font-size="10.00">Backend::SelectArea</text>
</a>
</g>
</g>
<!-- Node11&#45;&gt;Node13 -->
<g id="edge12" class="edge"><title>Node11&#45;&gt;Node13</title>
<path fill="none" stroke="midnightblue" d="M671.675,-112.082C680.503,-109.87 689.54,-107.472 698,-105 727.284,-96.442 760.293,-84.759 782.444,-76.6149"/>
<polygon fill="midnightblue" stroke="midnightblue" points="670.717,-108.713 661.839,-114.494 672.385,-115.511 670.717,-108.713"/>
</g>
<!-- Node14&#45;&gt;Node8 -->
<g id="edge14" class="edge"><title>Node14&#45;&gt;Node8</title>
<path fill="none" stroke="midnightblue" d="M699.217,-215.337C710.827,-216.689 722.731,-218.074 734.207,-219.41"/>
<polygon fill="midnightblue" stroke="midnightblue" points="699.446,-211.84 689.108,-214.161 698.636,-218.794 699.446,-211.84"/>
</g>
<!-- Node17&#45;&gt;Node13 -->
<g id="edge19" class="edge"><title>Node17&#45;&gt;Node13</title>
<path fill="none" stroke="midnightblue" d="M671.675,-21.9184C680.503,-24.1301 689.54,-26.5275 698,-29 727.284,-37.558 760.293,-49.241 782.444,-57.3851"/>
<polygon fill="midnightblue" stroke="midnightblue" points="672.385,-18.4888 661.839,-19.5061 670.717,-25.2873 672.385,-18.4888"/>
</g>
</g>
</svg>
        <g id="navigator" transform="translate(0 0)" fill="#404254">
                <rect fill="#f2f5e9" fill-opacity="0.5" stroke="#606060" stroke-width=".5" x="0" y="0" width="60" height="60"/>
                <use id="zoomplus" xlink:href="#zoomPlus" x="17" y="9" onmousedown="handleZoom(evt,'in')"/>
                <use id="zoomminus" xlink:href="#zoomMin" x="42" y="9" onmousedown="handleZoom(evt,'out')"/>
                <use id="reset" xlink:href="#resetDef" x="30" y="36" onmousedown="handleReset()"/>
                <g id="arrowUp" xlink:href="#dirArrow" transform="translate(30 24)" onmousedown="handlePan(0,-1)">
                  <use xlink:href="#rim" fill="#404040">
                        <set attributeName="fill" to="#808080" begin="arrowUp.mouseover" end="arrowUp.mouseout"/>
                  </use>
                  <path fill="none" stroke="white" stroke-width="1.5" d="M0,-3.0v7 M-2.5,-0.5L0,-3.0L2.5,-0.5"/>
                </g>
                <g id="arrowRight" xlink:href="#dirArrow" transform="rotate(90) translate(36 -43)" onmousedown="handlePan(1,0)">
                  <use xlink:href="#rim" fill="#404040">
                        <set attributeName="fill" to="#808080" begin="arrowRight.mouseover" end="arrowRight.mouseout"/>
                  </use>
                  <path fill="none" stroke="white" stroke-width="1.5" d="M0,-3.0v7 M-2.5,-0.5L0,-3.0L2.5,-0.5"/>
                </g>
                <g id="arrowDown" xlink:href="#dirArrow" transform="rotate(180) translate(-30 -48)" onmousedown="handlePan(0,1)">
                  <use xlink:href="#rim" fill="#404040">
                        <set attributeName="fill" to="#808080" begin="arrowDown.mouseover" end="arrowDown.mouseout"/>
                  </use>
                  <path fill="none" stroke="white" stroke-width="1.5" d="M0,-3.0v7 M-2.5,-0.5L0,-3.0L2.5,-0.5"/>
                </g>
                <g id="arrowLeft" xlink:href="#dirArrow" transform="rotate(270) translate(-36 17)" onmousedown="handlePan(-1,0)">
                  <use xlink:href="#rim" fill="#404040">
                        <set attributeName="fill" to="#808080" begin="arrowLeft.mouseover" end="arrowLeft.mouseout"/>
                  </use>
                  <path fill="none" stroke="white" stroke-width="1.5" d="M0,-3.0v7 M-2.5,-0.5L0,-3.0L2.5,-0.5"/>
                </g>
        </g>
        <svg viewBox="0 0 15 15" width="100%" height="30px" preserveAspectRatio="xMaxYMin meet">
         <g id="arrow_out" transform="scale(0.3 0.3)">
          <a xlink:href="a00001_adfeca0359eba8ac76a148ba3a6463178_icgraph_org.svg" target="_base">
           <rect id="button" ry="5" rx="5" y="6" x="6" height="38" width="38"
                fill="#f2f5e9" fill-opacity="0.5" stroke="#606060" stroke-width="1.0"/>
           <path id="arrow"
             d="M 11.500037,31.436501 C 11.940474,20.09759 22.043105,11.32322 32.158766,21.979434 L 37.068811,17.246167 C 37.068811,17.246167 37.088388,32 37.088388,32 L 22.160133,31.978069 C 22.160133,31.978069 26.997745,27.140456 26.997745,27.140456 C 18.528582,18.264221 13.291696,25.230495 11.500037,31.436501 z"
             style="fill:#404040;"/>
          </a>
         </g>
        </svg>
</svg>
