<?xml version="1.0" encoding="UTF-8" standalone="no"?>
<!DOCTYPE svg PUBLIC "-//W3C//DTD SVG 1.1//EN"
 "http://www.w3.org/Graphics/SVG/1.1/DTD/svg11.dtd">
<!-- Generated by graphviz version 2.36.0 (20140111.2315)
 -->
<!-- Title: Backend::LocationsSelected Pages: 1 -->
<!--zoomable 192 -->
<svg id="main" version="1.1" xmlns="http://www.w3.org/2000/svg" xmlns:xlink="http://www.w3.org/1999/xlink" xml:space="preserve" onload="init(evt)">
<style type="text/css"><![CDATA[
.edge:hover path { stroke: red; }
.edge:hover polygon { stroke: red; fill: red; }
]]></style>
<script type="text/javascript"><![CDATA[
var edges = document.getElementsByTagName('g');
if (edges && edges.length) {
  for (var i=0;i<edges.length;i++) {
    if (edges[i].id.substr(0,4)=='edge') {
      edges[i].setAttribute('class','edge');
    }
  }
}
]]></script>
        <defs>
                <circle id="rim" cx="0" cy="0" r="7"/>
                <circle id="rim2" cx="0" cy="0" r="3.5"/>
                <g id="zoomPlus">
                        <use xlink:href="#rim" fill="#404040">
                                <set attributeName="fill" to="#808080" begin="zoomplus.mouseover" end="zoomplus.mouseout"/>
                        </use>
                        <path d="M-4,0h8M0,-4v8" fill="none" stroke="white" stroke-width="1.5" pointer-events="none"/>
                </g>
                <g id="zoomMin">
                        <use xlink:href="#rim" fill="#404040">
                                <set attributeName="fill" to="#808080" begin="zoomminus.mouseover" end="zoomminus.mouseout"/>
                        </use>
                        <path d="M-4,0h8" fill="none" stroke="white" stroke-width="1.5" pointer-events="none"/>
                </g>
                <g id="dirArrow">
                        <path fill="none" stroke="white" stroke-width="1.5" d="M0,-3.0v7 M-2.5,-0.5L0,-3.0L2.5,-0.5"/>
                </g>
               <g id="resetDef">
                       <use xlink:href="#rim2" fill="#404040">
                               <set attributeName="fill" to="#808080" begin="reset.mouseover" end="reset.mouseout"/>
                       </use>
               </g>
        </defs>

<script type="text/javascript">
var viewWidth = 692;
var viewHeight = 192;
var sectionId = 'dynsection-21';
</script>
<script xlink:href="../../svgpan.js"/>
<svg id="graph" class="graph">
<g id="viewport">
<title>Backend::LocationsSelected</title>
<polygon fill="white" stroke="none" points="-4,4 -4,-188 688,-188 688,4 -4,4"/>
<!-- Node1 -->
<g id="node1" class="node"><title>Node1</title>
<polygon fill="#bfbfbf" stroke="black" points="0.5,-76.5 0.5,-95.5 141.5,-95.5 141.5,-76.5 0.5,-76.5"/>
<text text-anchor="middle" x="71" y="-83.5" font-family="Helvetica,sans-Serif" font-size="10.00">Backend::LocationsSelected</text>
</g>
<!-- Node2 -->
<g id="node2" class="node"><title>Node2</title>
<g id="a_node2"><a xlink:href="../../d8/d84/a00001.html#a613fb0cc751f55a428c18156fae84d15" target="_top" xlink:title="Sends a signal with the currently selected locations. ">
<polygon fill="white" stroke="black" points="178.5,-76.5 178.5,-95.5 301.5,-95.5 301.5,-76.5 178.5,-76.5"/>
<text text-anchor="middle" x="240" y="-83.5" font-family="Helvetica,sans-Serif" font-size="10.00">Backend::EmitLocations</text>
</a>
</g>
</g>
<!-- Node1&#45;&gt;Node2 -->
<g id="edge1" class="edge"><title>Node1&#45;&gt;Node2</title>
<path fill="none" stroke="midnightblue" d="M151.894,-86C160.825,-86 169.812,-86 178.444,-86"/>
<polygon fill="midnightblue" stroke="midnightblue" points="151.855,-82.5001 141.855,-86 151.855,-89.5001 151.855,-82.5001"/>
</g>
<!-- Node3 -->
<g id="node3" class="node"><title>Node3</title>
<g id="a_node3"><a xlink:href="../../d8/d84/a00001.html#a21d367f733a25f731ee2c9e55a3d796e" target="_top" xlink:title="Handles a click on a marker. ">
<polygon fill="white" stroke="black" points="349.5,-164.5 349.5,-183.5 486.5,-183.5 486.5,-164.5 349.5,-164.5"/>
<text text-anchor="middle" x="418" y="-171.5" font-family="Helvetica,sans-Serif" font-size="10.00">Backend::OnMarkerClicked</text>
</a>
</g>
</g>
<!-- Node2&#45;&gt;Node3 -->
<g id="edge2" class="edge"><title>Node2&#45;&gt;Node3</title>
<path fill="none" stroke="midnightblue" d="M259.529,-102.111C278.169,-117.533 308.329,-140.404 338,-154 347.261,-158.244 357.561,-161.682 367.584,-164.433"/>
<polygon fill="midnightblue" stroke="midnightblue" points="261.719,-99.3801 251.818,-95.6099 257.207,-104.732 261.719,-99.3801"/>
</g>
<!-- Node4 -->
<g id="node4" class="node"><title>Node4</title>
<g id="a_node4"><a xlink:href="../../d8/d84/a00001.html#a12718652247133e7a7dc8fba69fdd56d" target="_top" xlink:title="Removes all locations from selection and unselection + re&#45;render the map. ">
<polygon fill="white" stroke="black" points="347,-115 347,-145 489,-145 489,-115 347,-115"/>
<text text-anchor="start" x="355" y="-133" font-family="Helvetica,sans-Serif" font-size="10.00">Backend::ClearSelectionAnd</text>
<text text-anchor="middle" x="418" y="-122" font-family="Helvetica,sans-Serif" font-size="10.00">Render</text>
</a>
</g>
</g>
<!-- Node2&#45;&gt;Node4 -->
<g id="edge3" class="edge"><title>Node2&#45;&gt;Node4</title>
<path fill="none" stroke="midnightblue" d="M289.105,-98.0261C309.981,-103.245 334.658,-109.414 356.739,-114.935"/>
<polygon fill="midnightblue" stroke="midnightblue" points="289.74,-94.5773 279.189,-95.5473 288.042,-101.368 289.74,-94.5773"/>
</g>
<!-- Node6 -->
<g id="node6" class="node"><title>Node6</title>
<g id="a_node6"><a xlink:href="../../d8/d84/a00001.html#a99bb1003a584e978452b99901fc573ba" target="_top" xlink:title="Adds the location of the marker to the selection. ">
<polygon fill="white" stroke="black" points="338,-76.5 338,-95.5 498,-95.5 498,-76.5 338,-76.5"/>
<text text-anchor="middle" x="418" y="-83.5" font-family="Helvetica,sans-Serif" font-size="10.00">Backend::OnExtraMarkerClicked</text>
</a>
</g>
</g>
<!-- Node2&#45;&gt;Node6 -->
<g id="edge5" class="edge"><title>Node2&#45;&gt;Node6</title>
<path fill="none" stroke="midnightblue" d="M311.619,-86C320.291,-86 329.196,-86 337.981,-86"/>
<polygon fill="midnightblue" stroke="midnightblue" points="311.569,-82.5001 301.569,-86 311.569,-89.5001 311.569,-82.5001"/>
</g>
<!-- Node7 -->
<g id="node7" class="node"><title>Node7</title>
<g id="a_node7"><a xlink:href="../../d8/d84/a00001.html#a74ab20ec1a62676534387b56c2b514d5" target="_top" xlink:title="The Same as SelectArea but does not clear selection first. ">
<polygon fill="white" stroke="black" points="348,-38.5 348,-57.5 488,-57.5 488,-38.5 348,-38.5"/>
<text text-anchor="middle" x="418" y="-45.5" font-family="Helvetica,sans-Serif" font-size="10.00">Backend::SelectExtraInArea</text>
</a>
</g>
</g>
<!-- Node2&#45;&gt;Node7 -->
<g id="edge6" class="edge"><title>Node2&#45;&gt;Node7</title>
<path fill="none" stroke="midnightblue" d="M295.433,-74.2474C320.319,-68.8742 349.419,-62.5914 372.907,-57.5201"/>
<polygon fill="midnightblue" stroke="midnightblue" points="294.448,-70.8793 285.412,-76.411 295.926,-77.7216 294.448,-70.8793"/>
</g>
<!-- Node9 -->
<g id="node9" class="node"><title>Node9</title>
<g id="a_node9"><a xlink:href="../../d8/d84/a00001.html#a5c6947858998d7709812d9bf825906dc" target="_top" xlink:title="Backend::SelectAll">
<polygon fill="white" stroke="black" points="368,-0.5 368,-19.5 468,-19.5 468,-0.5 368,-0.5"/>
<text text-anchor="middle" x="418" y="-7.5" font-family="Helvetica,sans-Serif" font-size="10.00">Backend::SelectAll</text>
</a>
</g>
</g>
<!-- Node2&#45;&gt;Node9 -->
<g id="edge8" class="edge"><title>Node2&#45;&gt;Node9</title>
<path fill="none" stroke="midnightblue" d="M262.737,-70.6895C281.788,-57.9049 310.636,-40.0453 338,-29 347.418,-25.1983 357.788,-22.0322 367.828,-19.4448"/>
<polygon fill="midnightblue" stroke="midnightblue" points="260.754,-67.8058 254.468,-76.3345 264.7,-73.5871 260.754,-67.8058"/>
</g>
<!-- Node5 -->
<g id="node5" class="node"><title>Node5</title>
<g id="a_node5"><a xlink:href="../../d8/d84/a00001.html#a6ff4f267985cb8eea228352455ab6b67" target="_top" xlink:title="Backend::SetShowCommutes">
<polygon fill="white" stroke="black" points="534.5,-120.5 534.5,-139.5 683.5,-139.5 683.5,-120.5 534.5,-120.5"/>
<text text-anchor="middle" x="609" y="-127.5" font-family="Helvetica,sans-Serif" font-size="10.00">Backend::SetShowCommutes</text>
</a>
</g>
</g>
<!-- Node4&#45;&gt;Node5 -->
<g id="edge4" class="edge"><title>Node4&#45;&gt;Node5</title>
<path fill="none" stroke="midnightblue" d="M499.217,-130C510.827,-130 522.731,-130 534.207,-130"/>
<polygon fill="midnightblue" stroke="midnightblue" points="499.108,-126.5 489.108,-130 499.108,-133.5 499.108,-126.5"/>
</g>
<!-- Node8 -->
<g id="node8" class="node"><title>Node8</title>
<g id="a_node8"><a xlink:href="../../d8/d84/a00001.html#a902157ea9e4cd13e6a25eed9135115e7" target="_top" xlink:title="Selects all locations in between. ">
<polygon fill="white" stroke="black" points="554.5,-38.5 554.5,-57.5 663.5,-57.5 663.5,-38.5 554.5,-38.5"/>
<text text-anchor="middle" x="609" y="-45.5" font-family="Helvetica,sans-Serif" font-size="10.00">Backend::SelectArea</text>
</a>
</g>
</g>
<!-- Node7&#45;&gt;Node8 -->
<g id="edge7" class="edge"><title>Node7&#45;&gt;Node8</title>
<path fill="none" stroke="midnightblue" d="M498.13,-48C517.037,-48 536.788,-48 554.245,-48"/>
<polygon fill="midnightblue" stroke="midnightblue" points="498.036,-44.5001 488.036,-48 498.036,-51.5001 498.036,-44.5001"/>
</g>
</g>
</svg>
        <g id="navigator" transform="translate(0 0)" fill="#404254">
                <rect fill="#f2f5e9" fill-opacity="0.5" stroke="#606060" stroke-width=".5" x="0" y="0" width="60" height="60"/>
                <use id="zoomplus" xlink:href="#zoomPlus" x="17" y="9" onmousedown="handleZoom(evt,'in')"/>
                <use id="zoomminus" xlink:href="#zoomMin" x="42" y="9" onmousedown="handleZoom(evt,'out')"/>
                <use id="reset" xlink:href="#resetDef" x="30" y="36" onmousedown="handleReset()"/>
                <g id="arrowUp" xlink:href="#dirArrow" transform="translate(30 24)" onmousedown="handlePan(0,-1)">
                  <use xlink:href="#rim" fill="#404040">
                        <set attributeName="fill" to="#808080" begin="arrowUp.mouseover" end="arrowUp.mouseout"/>
                  </use>
                  <path fill="none" stroke="white" stroke-width="1.5" d="M0,-3.0v7 M-2.5,-0.5L0,-3.0L2.5,-0.5"/>
                </g>
                <g id="arrowRight" xlink:href="#dirArrow" transform="rotate(90) translate(36 -43)" onmousedown="handlePan(1,0)">
                  <use xlink:href="#rim" fill="#404040">
                        <set attributeName="fill" to="#808080" begin="arrowRight.mouseover" end="arrowRight.mouseout"/>
                  </use>
                  <path fill="none" stroke="white" stroke-width="1.5" d="M0,-3.0v7 M-2.5,-0.5L0,-3.0L2.5,-0.5"/>
                </g>
                <g id="arrowDown" xlink:href="#dirArrow" transform="rotate(180) translate(-30 -48)" onmousedown="handlePan(0,1)">
                  <use xlink:href="#rim" fill="#404040">
                        <set attributeName="fill" to="#808080" begin="arrowDown.mouseover" end="arrowDown.mouseout"/>
                  </use>
                  <path fill="none" stroke="white" stroke-width="1.5" d="M0,-3.0v7 M-2.5,-0.5L0,-3.0L2.5,-0.5"/>
                </g>
                <g id="arrowLeft" xlink:href="#dirArrow" transform="rotate(270) translate(-36 17)" onmousedown="handlePan(-1,0)">
                  <use xlink:href="#rim" fill="#404040">
                        <set attributeName="fill" to="#808080" begin="arrowLeft.mouseover" end="arrowLeft.mouseout"/>
                  </use>
                  <path fill="none" stroke="white" stroke-width="1.5" d="M0,-3.0v7 M-2.5,-0.5L0,-3.0L2.5,-0.5"/>
                </g>
        </g>
        <svg viewBox="0 0 15 15" width="100%" height="30px" preserveAspectRatio="xMaxYMin meet">
         <g id="arrow_out" transform="scale(0.3 0.3)">
          <a xlink:href="a00001_a436bf6206647e6f6876c2aafdfd99a31_icgraph_org.svg" target="_base">
           <rect id="button" ry="5" rx="5" y="6" x="6" height="38" width="38"
                fill="#f2f5e9" fill-opacity="0.5" stroke="#606060" stroke-width="1.0"/>
           <path id="arrow"
             d="M 11.500037,31.436501 C 11.940474,20.09759 22.043105,11.32322 32.158766,21.979434 L 37.068811,17.246167 C 37.068811,17.246167 37.088388,32 37.088388,32 L 22.160133,31.978069 C 22.160133,31.978069 26.997745,27.140456 26.997745,27.140456 C 18.528582,18.264221 13.291696,25.230495 11.500037,31.436501 z"
             style="fill:#404040;"/>
          </a>
         </g>
        </svg>
</svg>
