<?xml version="1.0" encoding="UTF-8" standalone="no"?>
<!DOCTYPE svg PUBLIC "-//W3C//DTD SVG 1.1//EN"
 "http://www.w3.org/Graphics/SVG/1.1/DTD/svg11.dtd">
<!-- Generated by graphviz version 2.36.0 (20140111.2315)
 -->
<!-- Title: proto::GeoGrid_Location_ContactCenter_ContactPool Pages: 1 -->
<!--zoomable 514 -->
<svg id="main" version="1.1" xmlns="http://www.w3.org/2000/svg" xmlns:xlink="http://www.w3.org/1999/xlink" xml:space="preserve" onload="init(evt)">
<style type="text/css"><![CDATA[
.edge:hover path { stroke: red; }
.edge:hover polygon { stroke: red; fill: red; }
]]></style>
<script type="text/javascript"><![CDATA[
var edges = document.getElementsByTagName('g');
if (edges && edges.length) {
  for (var i=0;i<edges.length;i++) {
    if (edges[i].id.substr(0,4)=='edge') {
      edges[i].setAttribute('class','edge');
    }
  }
}
]]></script>
        <defs>
                <circle id="rim" cx="0" cy="0" r="7"/>
                <circle id="rim2" cx="0" cy="0" r="3.5"/>
                <g id="zoomPlus">
                        <use xlink:href="#rim" fill="#404040">
                                <set attributeName="fill" to="#808080" begin="zoomplus.mouseover" end="zoomplus.mouseout"/>
                        </use>
                        <path d="M-4,0h8M0,-4v8" fill="none" stroke="white" stroke-width="1.5" pointer-events="none"/>
                </g>
                <g id="zoomMin">
                        <use xlink:href="#rim" fill="#404040">
                                <set attributeName="fill" to="#808080" begin="zoomminus.mouseover" end="zoomminus.mouseout"/>
                        </use>
                        <path d="M-4,0h8" fill="none" stroke="white" stroke-width="1.5" pointer-events="none"/>
                </g>
                <g id="dirArrow">
                        <path fill="none" stroke="white" stroke-width="1.5" d="M0,-3.0v7 M-2.5,-0.5L0,-3.0L2.5,-0.5"/>
                </g>
               <g id="resetDef">
                       <use xlink:href="#rim2" fill="#404040">
                               <set attributeName="fill" to="#808080" begin="reset.mouseover" end="reset.mouseout"/>
                       </use>
               </g>
        </defs>

<script type="text/javascript">
var viewWidth = 949;
var viewHeight = 514;
var sectionId = 'dynsection-1';
</script>
<script xlink:href="../../svgpan.js"/>
<svg id="graph" class="graph">
<g id="viewport">
<title>proto::GeoGrid_Location_ContactCenter_ContactPool</title>
<polygon fill="white" stroke="none" points="-4,4 -4,-510 945,-510 945,4 -4,4"/>
<!-- Node1 -->
<g id="node1" class="node"><title>Node1</title>
<polygon fill="#bfbfbf" stroke="black" points="345,-1 345,-377 557,-377 557,-1 345,-1"/>
<text text-anchor="start" x="353" y="-365" font-family="Helvetica,sans-Serif" font-size="10.00">proto::GeoGrid_Location</text>
<text text-anchor="middle" x="451" y="-354" font-family="Helvetica,sans-Serif" font-size="10.00">_ContactCenter_ContactPool</text>
<polyline fill="none" stroke="black" points="345,-347 557,-347 "/>
<text text-anchor="middle" x="451" y="-335" font-family="Helvetica,sans-Serif" font-size="10.00"> </text>
<polyline fill="none" stroke="black" points="345,-328 557,-328 "/>
<text text-anchor="start" x="353" y="-316" font-family="Helvetica,sans-Serif" font-size="10.00">+ GeoGrid_Location_Contact</text>
<text text-anchor="start" x="353" y="-305" font-family="Helvetica,sans-Serif" font-size="10.00">Center_ContactPool()</text>
<text text-anchor="start" x="353" y="-294" font-family="Helvetica,sans-Serif" font-size="10.00">+ ~GeoGrid_Location_Contact</text>
<text text-anchor="start" x="353" y="-283" font-family="Helvetica,sans-Serif" font-size="10.00">Center_ContactPool()</text>
<text text-anchor="start" x="353" y="-272" font-family="Helvetica,sans-Serif" font-size="10.00">+ GeoGrid_Location_Contact</text>
<text text-anchor="start" x="353" y="-261" font-family="Helvetica,sans-Serif" font-size="10.00">Center_ContactPool()</text>
<text text-anchor="start" x="353" y="-250" font-family="Helvetica,sans-Serif" font-size="10.00">+ operator=()</text>
<text text-anchor="start" x="353" y="-239" font-family="Helvetica,sans-Serif" font-size="10.00">+ unknown_fields()</text>
<text text-anchor="start" x="353" y="-228" font-family="Helvetica,sans-Serif" font-size="10.00">+ mutable_unknown_fields()</text>
<text text-anchor="start" x="353" y="-217" font-family="Helvetica,sans-Serif" font-size="10.00">+ Swap()</text>
<text text-anchor="start" x="353" y="-206" font-family="Helvetica,sans-Serif" font-size="10.00">+ New()</text>
<text text-anchor="start" x="353" y="-195" font-family="Helvetica,sans-Serif" font-size="10.00">+ New()</text>
<text text-anchor="start" x="353" y="-184" font-family="Helvetica,sans-Serif" font-size="10.00">+ CopyFrom()</text>
<text text-anchor="start" x="353" y="-173" font-family="Helvetica,sans-Serif" font-size="10.00">and 22 more...</text>
<text text-anchor="start" x="353" y="-162" font-family="Helvetica,sans-Serif" font-size="10.00">+ descriptor()</text>
<text text-anchor="start" x="353" y="-151" font-family="Helvetica,sans-Serif" font-size="10.00">+ default_instance()</text>
<text text-anchor="start" x="353" y="-140" font-family="Helvetica,sans-Serif" font-size="10.00">+ InitAsDefaultInstance()</text>
<text text-anchor="start" x="353" y="-129" font-family="Helvetica,sans-Serif" font-size="10.00">+ internal_default_instance()</text>
<text text-anchor="start" x="353" y="-118" font-family="Helvetica,sans-Serif" font-size="10.00">&#45; SharedCtor()</text>
<text text-anchor="start" x="353" y="-107" font-family="Helvetica,sans-Serif" font-size="10.00">&#45; SharedDtor()</text>
<text text-anchor="start" x="353" y="-96" font-family="Helvetica,sans-Serif" font-size="10.00">&#45; SetCachedSize()</text>
<text text-anchor="start" x="353" y="-85" font-family="Helvetica,sans-Serif" font-size="10.00">&#45; InternalSwap()</text>
<text text-anchor="start" x="353" y="-74" font-family="Helvetica,sans-Serif" font-size="10.00">&#45; GetArenaNoVirtual()</text>
<text text-anchor="start" x="353" y="-63" font-family="Helvetica,sans-Serif" font-size="10.00">&#45; MaybeArenaPtr()</text>
<text text-anchor="start" x="353" y="-52" font-family="Helvetica,sans-Serif" font-size="10.00">&#45; set_has_id()</text>
<text text-anchor="start" x="353" y="-41" font-family="Helvetica,sans-Serif" font-size="10.00">&#45; clear_has_id()</text>
<text text-anchor="start" x="353" y="-30" font-family="Helvetica,sans-Serif" font-size="10.00">&#45; void::protobuf_geogrid</text>
<text text-anchor="start" x="353" y="-19" font-family="Helvetica,sans-Serif" font-size="10.00">_2eproto::InitDefaultsGeoGrid</text>
<text text-anchor="start" x="353" y="-8" font-family="Helvetica,sans-Serif" font-size="10.00">_Location_ContactCenter_ContactPoolImpl()</text>
</g>
<!-- Node2 -->
<g id="node2" class="node"><title>Node2</title>
<g id="a_node2"><a xlink:href="../../d9/da5/a00075.html" target="_top" xlink:title="{google::protobuf::Message\n||}">
<polygon fill="white" stroke="black" points="0,-442.5 0,-499.5 132,-499.5 132,-442.5 0,-442.5"/>
<text text-anchor="middle" x="66" y="-487.5" font-family="Helvetica,sans-Serif" font-size="10.00">google::protobuf::Message</text>
<polyline fill="none" stroke="black" points="0,-480.5 132,-480.5 "/>
<text text-anchor="middle" x="66" y="-468.5" font-family="Helvetica,sans-Serif" font-size="10.00"> </text>
<polyline fill="none" stroke="black" points="0,-461.5 132,-461.5 "/>
<text text-anchor="middle" x="66" y="-449.5" font-family="Helvetica,sans-Serif" font-size="10.00"> </text>
</a>
</g>
</g>
<!-- Node2&#45;&gt;Node1 -->
<g id="edge1" class="edge"><title>Node2&#45;&gt;Node1</title>
<path fill="none" stroke="midnightblue" d="M112.093,-436.478C169.279,-394.888 268.564,-322.681 344.938,-267.136"/>
<polygon fill="none" stroke="midnightblue" points="109.998,-433.674 103.969,-442.386 114.115,-439.335 109.998,-433.674"/>
</g>
<!-- Node3 -->
<g id="node3" class="node"><title>Node3</title>
<polygon fill="white" stroke="#bfbfbf" points="150,-442.5 150,-499.5 188,-499.5 188,-442.5 150,-442.5"/>
<text text-anchor="middle" x="169" y="-487.5" font-family="Helvetica,sans-Serif" font-size="10.00">int64</text>
<polyline fill="none" stroke="#bfbfbf" points="150,-480.5 188,-480.5 "/>
<text text-anchor="middle" x="169" y="-468.5" font-family="Helvetica,sans-Serif" font-size="10.00"> </text>
<polyline fill="none" stroke="#bfbfbf" points="150,-461.5 188,-461.5 "/>
<text text-anchor="middle" x="169" y="-449.5" font-family="Helvetica,sans-Serif" font-size="10.00"> </text>
</g>
<!-- Node3&#45;&gt;Node1 -->
<g id="edge2" class="edge"><title>Node3&#45;&gt;Node1</title>
<path fill="none" stroke="#404040" d="M188.25,-445.932C191.123,-442.545 194.096,-439.147 197,-436 240.806,-388.519 291.518,-338.505 336.056,-296.064"/>
<polygon fill="none" stroke="#404040" points="336.179,-295.947 337.773,-288.914 344.878,-287.68 343.284,-294.713 336.179,-295.947"/>
<text text-anchor="middle" x="240.5" y="-404.5" font-family="Helvetica,sans-Serif" font-size="10.00"> &#45;id_</text>
</g>
<!-- Node4 -->
<g id="node4" class="node"><title>Node4</title>
<polygon fill="white" stroke="#bfbfbf" points="206.5,-442.5 206.5,-499.5 281.5,-499.5 281.5,-442.5 206.5,-442.5"/>
<text text-anchor="middle" x="244" y="-487.5" font-family="Helvetica,sans-Serif" font-size="10.00">HasBits&lt; 1 &gt;</text>
<polyline fill="none" stroke="#bfbfbf" points="206.5,-480.5 281.5,-480.5 "/>
<text text-anchor="middle" x="244" y="-468.5" font-family="Helvetica,sans-Serif" font-size="10.00"> </text>
<polyline fill="none" stroke="#bfbfbf" points="206.5,-461.5 281.5,-461.5 "/>
<text text-anchor="middle" x="244" y="-449.5" font-family="Helvetica,sans-Serif" font-size="10.00"> </text>
</g>
<!-- Node4&#45;&gt;Node1 -->
<g id="edge3" class="edge"><title>Node4&#45;&gt;Node1</title>
<path fill="none" stroke="#404040" d="M264.414,-442.386C282.186,-418.347 309.47,-381.442 337.734,-343.211"/>
<polygon fill="none" stroke="#404040" points="337.802,-343.119 338.152,-335.916 344.935,-333.469 344.585,-340.672 337.802,-343.119"/>
<text text-anchor="middle" x="322" y="-404.5" font-family="Helvetica,sans-Serif" font-size="10.00"> &#45;_has_bits_</text>
</g>
<!-- Node5 -->
<g id="node5" class="node"><title>Node5</title>
<polygon fill="white" stroke="#bfbfbf" points="299.5,-442.5 299.5,-499.5 434.5,-499.5 434.5,-442.5 299.5,-442.5"/>
<text text-anchor="middle" x="367" y="-487.5" font-family="Helvetica,sans-Serif" font-size="10.00">InternalMetadataWithArena</text>
<polyline fill="none" stroke="#bfbfbf" points="299.5,-480.5 434.5,-480.5 "/>
<text text-anchor="middle" x="367" y="-468.5" font-family="Helvetica,sans-Serif" font-size="10.00"> </text>
<polyline fill="none" stroke="#bfbfbf" points="299.5,-461.5 434.5,-461.5 "/>
<text text-anchor="middle" x="367" y="-449.5" font-family="Helvetica,sans-Serif" font-size="10.00"> </text>
</g>
<!-- Node5&#45;&gt;Node1 -->
<g id="edge4" class="edge"><title>Node5&#45;&gt;Node1</title>
<path fill="none" stroke="#404040" d="M375.284,-442.386C379.527,-428.242 385.107,-409.644 391.317,-388.942"/>
<polygon fill="none" stroke="#404040" points="391.38,-388.734 389.273,-381.837 394.828,-377.24 396.935,-384.136 391.38,-388.734"/>
<text text-anchor="middle" x="435" y="-404.5" font-family="Helvetica,sans-Serif" font-size="10.00"> &#45;_internal_metadata_</text>
</g>
<!-- Node6 -->
<g id="node6" class="node"><title>Node6</title>
<polygon fill="white" stroke="#bfbfbf" points="452.5,-437 452.5,-505 619.5,-505 619.5,-437 452.5,-437"/>
<text text-anchor="start" x="460.5" y="-493" font-family="Helvetica,sans-Serif" font-size="10.00">static PROTOBUF_CONSTEXPR</text>
<text text-anchor="middle" x="536" y="-482" font-family="Helvetica,sans-Serif" font-size="10.00"> int const</text>
<polyline fill="none" stroke="#bfbfbf" points="452.5,-475 619.5,-475 "/>
<text text-anchor="middle" x="536" y="-463" font-family="Helvetica,sans-Serif" font-size="10.00"> </text>
<polyline fill="none" stroke="#bfbfbf" points="452.5,-456 619.5,-456 "/>
<text text-anchor="middle" x="536" y="-444" font-family="Helvetica,sans-Serif" font-size="10.00"> </text>
</g>
<!-- Node6&#45;&gt;Node1 -->
<g id="edge5" class="edge"><title>Node6&#45;&gt;Node1</title>
<path fill="none" stroke="#404040" d="M525.916,-436.781C521.855,-423.405 516.823,-406.827 511.301,-388.638"/>
<polygon fill="none" stroke="#404040" points="511.29,-388.601 505.719,-384.021 507.804,-377.118 513.374,-381.697 511.29,-388.601"/>
<text text-anchor="middle" x="574" y="-404.5" font-family="Helvetica,sans-Serif" font-size="10.00"> +kIndexInFileMessages</text>
</g>
<!-- Node7 -->
<g id="node7" class="node"><title>Node7</title>
<polygon fill="white" stroke="#bfbfbf" points="637.5,-437 637.5,-505 760.5,-505 760.5,-437 637.5,-437"/>
<text text-anchor="start" x="645.5" y="-493" font-family="Helvetica,sans-Serif" font-size="10.00">RepeatedField&lt; ::google</text>
<text text-anchor="middle" x="699" y="-482" font-family="Helvetica,sans-Serif" font-size="10.00">::protobuf::int64 &gt;</text>
<polyline fill="none" stroke="#bfbfbf" points="637.5,-475 760.5,-475 "/>
<text text-anchor="middle" x="699" y="-463" font-family="Helvetica,sans-Serif" font-size="10.00"> </text>
<polyline fill="none" stroke="#bfbfbf" points="637.5,-456 760.5,-456 "/>
<text text-anchor="middle" x="699" y="-444" font-family="Helvetica,sans-Serif" font-size="10.00"> </text>
</g>
<!-- Node7&#45;&gt;Node1 -->
<g id="edge6" class="edge"><title>Node7&#45;&gt;Node1</title>
<path fill="none" stroke="#404040" d="M669.577,-436.781C643.524,-407.366 603.756,-362.467 565.25,-318.992"/>
<polygon fill="none" stroke="#404040" points="565.015,-318.726 558.042,-316.887 557.058,-309.743 564.031,-311.582 565.015,-318.726"/>
<text text-anchor="middle" x="672" y="-404.5" font-family="Helvetica,sans-Serif" font-size="10.00"> &#45;people_</text>
</g>
<!-- Node8 -->
<g id="node8" class="node"><title>Node8</title>
<polygon fill="white" stroke="#bfbfbf" points="778.5,-442.5 778.5,-499.5 807.5,-499.5 807.5,-442.5 778.5,-442.5"/>
<text text-anchor="middle" x="793" y="-487.5" font-family="Helvetica,sans-Serif" font-size="10.00">int</text>
<polyline fill="none" stroke="#bfbfbf" points="778.5,-480.5 807.5,-480.5 "/>
<text text-anchor="middle" x="793" y="-468.5" font-family="Helvetica,sans-Serif" font-size="10.00"> </text>
<polyline fill="none" stroke="#bfbfbf" points="778.5,-461.5 807.5,-461.5 "/>
<text text-anchor="middle" x="793" y="-449.5" font-family="Helvetica,sans-Serif" font-size="10.00"> </text>
</g>
<!-- Node8&#45;&gt;Node1 -->
<g id="edge7" class="edge"><title>Node8&#45;&gt;Node1</title>
<path fill="none" stroke="#404040" d="M778.412,-447.307C775.49,-443.373 772.297,-439.445 769,-436 708.412,-372.701 630.779,-312.328 567.385,-267.233"/>
<polygon fill="none" stroke="#404040" points="567.136,-267.057 559.928,-266.858 557.338,-260.128 564.547,-260.327 567.136,-267.057"/>
<text text-anchor="middle" x="783" y="-404.5" font-family="Helvetica,sans-Serif" font-size="10.00"> &#45;_cached_size_</text>
</g>
<!-- Node9 -->
<g id="node9" class="node"><title>Node9</title>
<polygon fill="white" stroke="#bfbfbf" points="836.5,-442.5 836.5,-499.5 917.5,-499.5 917.5,-442.5 836.5,-442.5"/>
<text text-anchor="middle" x="877" y="-487.5" font-family="Helvetica,sans-Serif" font-size="10.00">static const int</text>
<polyline fill="none" stroke="#bfbfbf" points="836.5,-480.5 917.5,-480.5 "/>
<text text-anchor="middle" x="877" y="-468.5" font-family="Helvetica,sans-Serif" font-size="10.00"> </text>
<polyline fill="none" stroke="#bfbfbf" points="836.5,-461.5 917.5,-461.5 "/>
<text text-anchor="middle" x="877" y="-449.5" font-family="Helvetica,sans-Serif" font-size="10.00"> </text>
</g>
<!-- Node9&#45;&gt;Node1 -->
<g id="edge8" class="edge"><title>Node9&#45;&gt;Node1</title>
<path fill="none" stroke="#404040" d="M860.991,-442.391C851.341,-427.393 838.025,-409.26 823,-396 747.293,-329.188 646.296,-274.966 568.643,-238.952"/>
<polygon fill="none" stroke="#404040" points="568.266,-238.779 561.145,-239.91 557.361,-233.771 564.483,-232.64 568.266,-238.779"/>
<text text-anchor="middle" x="892.5" y="-410" font-family="Helvetica,sans-Serif" font-size="10.00"> +kIdFieldNumber</text>
<text text-anchor="middle" x="892.5" y="-399" font-family="Helvetica,sans-Serif" font-size="10.00">+kPeopleFieldNumber</text>
</g>
</g>
</svg>
        <g id="navigator" transform="translate(0 0)" fill="#404254">
                <rect fill="#f2f5e9" fill-opacity="0.5" stroke="#606060" stroke-width=".5" x="0" y="0" width="60" height="60"/>
                <use id="zoomplus" xlink:href="#zoomPlus" x="17" y="9" onmousedown="handleZoom(evt,'in')"/>
                <use id="zoomminus" xlink:href="#zoomMin" x="42" y="9" onmousedown="handleZoom(evt,'out')"/>
                <use id="reset" xlink:href="#resetDef" x="30" y="36" onmousedown="handleReset()"/>
                <g id="arrowUp" xlink:href="#dirArrow" transform="translate(30 24)" onmousedown="handlePan(0,-1)">
                  <use xlink:href="#rim" fill="#404040">
                        <set attributeName="fill" to="#808080" begin="arrowUp.mouseover" end="arrowUp.mouseout"/>
                  </use>
                  <path fill="none" stroke="white" stroke-width="1.5" d="M0,-3.0v7 M-2.5,-0.5L0,-3.0L2.5,-0.5"/>
                </g>
                <g id="arrowRight" xlink:href="#dirArrow" transform="rotate(90) translate(36 -43)" onmousedown="handlePan(1,0)">
                  <use xlink:href="#rim" fill="#404040">
                        <set attributeName="fill" to="#808080" begin="arrowRight.mouseover" end="arrowRight.mouseout"/>
                  </use>
                  <path fill="none" stroke="white" stroke-width="1.5" d="M0,-3.0v7 M-2.5,-0.5L0,-3.0L2.5,-0.5"/>
                </g>
                <g id="arrowDown" xlink:href="#dirArrow" transform="rotate(180) translate(-30 -48)" onmousedown="handlePan(0,1)">
                  <use xlink:href="#rim" fill="#404040">
                        <set attributeName="fill" to="#808080" begin="arrowDown.mouseover" end="arrowDown.mouseout"/>
                  </use>
                  <path fill="none" stroke="white" stroke-width="1.5" d="M0,-3.0v7 M-2.5,-0.5L0,-3.0L2.5,-0.5"/>
                </g>
                <g id="arrowLeft" xlink:href="#dirArrow" transform="rotate(270) translate(-36 17)" onmousedown="handlePan(-1,0)">
                  <use xlink:href="#rim" fill="#404040">
                        <set attributeName="fill" to="#808080" begin="arrowLeft.mouseover" end="arrowLeft.mouseout"/>
                  </use>
                  <path fill="none" stroke="white" stroke-width="1.5" d="M0,-3.0v7 M-2.5,-0.5L0,-3.0L2.5,-0.5"/>
                </g>
        </g>
        <svg viewBox="0 0 15 15" width="100%" height="30px" preserveAspectRatio="xMaxYMin meet">
         <g id="arrow_out" transform="scale(0.3 0.3)">
          <a xlink:href="a01127_org.svg" target="_base">
           <rect id="button" ry="5" rx="5" y="6" x="6" height="38" width="38"
                fill="#f2f5e9" fill-opacity="0.5" stroke="#606060" stroke-width="1.0"/>
           <path id="arrow"
             d="M 11.500037,31.436501 C 11.940474,20.09759 22.043105,11.32322 32.158766,21.979434 L 37.068811,17.246167 C 37.068811,17.246167 37.088388,32 37.088388,32 L 22.160133,31.978069 C 22.160133,31.978069 26.997745,27.140456 26.997745,27.140456 C 18.528582,18.264221 13.291696,25.230495 11.500037,31.436501 z"
             style="fill:#404040;"/>
          </a>
         </g>
        </svg>
</svg>
