<?xml version="1.0" encoding="UTF-8" standalone="no"?>
<!DOCTYPE svg PUBLIC "-//W3C//DTD SVG 1.1//EN"
 "http://www.w3.org/Graphics/SVG/1.1/DTD/svg11.dtd">
<!-- Generated by graphviz version 2.36.0 (20140111.2315)
 -->
<!-- Title: protobuf_geogrid_2eproto::TableStruct Pages: 1 -->
<!--zoomable 184 -->
<svg id="main" version="1.1" xmlns="http://www.w3.org/2000/svg" xmlns:xlink="http://www.w3.org/1999/xlink" xml:space="preserve" onload="init(evt)">
<style type="text/css"><![CDATA[
.edge:hover path { stroke: red; }
.edge:hover polygon { stroke: red; fill: red; }
]]></style>
<script type="text/javascript"><![CDATA[
var edges = document.getElementsByTagName('g');
if (edges && edges.length) {
  for (var i=0;i<edges.length;i++) {
    if (edges[i].id.substr(0,4)=='edge') {
      edges[i].setAttribute('class','edge');
    }
  }
}
]]></script>
        <defs>
                <circle id="rim" cx="0" cy="0" r="7"/>
                <circle id="rim2" cx="0" cy="0" r="3.5"/>
                <g id="zoomPlus">
                        <use xlink:href="#rim" fill="#404040">
                                <set attributeName="fill" to="#808080" begin="zoomplus.mouseover" end="zoomplus.mouseout"/>
                        </use>
                        <path d="M-4,0h8M0,-4v8" fill="none" stroke="white" stroke-width="1.5" pointer-events="none"/>
                </g>
                <g id="zoomMin">
                        <use xlink:href="#rim" fill="#404040">
                                <set attributeName="fill" to="#808080" begin="zoomminus.mouseover" end="zoomminus.mouseout"/>
                        </use>
                        <path d="M-4,0h8" fill="none" stroke="white" stroke-width="1.5" pointer-events="none"/>
                </g>
                <g id="dirArrow">
                        <path fill="none" stroke="white" stroke-width="1.5" d="M0,-3.0v7 M-2.5,-0.5L0,-3.0L2.5,-0.5"/>
                </g>
               <g id="resetDef">
                       <use xlink:href="#rim2" fill="#404040">
                               <set attributeName="fill" to="#808080" begin="reset.mouseover" end="reset.mouseout"/>
                       </use>
               </g>
        </defs>

<script type="text/javascript">
var viewWidth = 593;
var viewHeight = 184;
var sectionId = 'dynsection-0';
</script>
<script xlink:href="../../svgpan.js"/>
<svg id="graph" class="graph">
<g id="viewport">
<title>protobuf_geogrid_2eproto::TableStruct</title>
<polygon fill="white" stroke="none" points="-4,4 -4,-180 589,-180 589,4 -4,4"/>
<!-- Node1 -->
<g id="node1" class="node"><title>Node1</title>
<polygon fill="#bfbfbf" stroke="black" points="250,-1 250,-69 376,-69 376,-1 250,-1"/>
<text text-anchor="start" x="258" y="-57" font-family="Helvetica,sans-Serif" font-size="10.00">protobuf_geogrid_2eproto</text>
<text text-anchor="middle" x="313" y="-46" font-family="Helvetica,sans-Serif" font-size="10.00">::TableStruct</text>
<polyline fill="none" stroke="black" points="250,-39 376,-39 "/>
<text text-anchor="middle" x="313" y="-27" font-family="Helvetica,sans-Serif" font-size="10.00"> </text>
<polyline fill="none" stroke="black" points="250,-20 376,-20 "/>
<text text-anchor="middle" x="313" y="-8" font-family="Helvetica,sans-Serif" font-size="10.00"> </text>
</g>
<!-- Node2 -->
<g id="node2" class="node"><title>Node2</title>
<polygon fill="white" stroke="#bfbfbf" points="0,-118.5 0,-175.5 78,-175.5 78,-118.5 0,-118.5"/>
<text text-anchor="middle" x="39" y="-163.5" font-family="Helvetica,sans-Serif" font-size="10.00">FieldMetadata</text>
<polyline fill="none" stroke="#bfbfbf" points="0,-156.5 78,-156.5 "/>
<text text-anchor="middle" x="39" y="-144.5" font-family="Helvetica,sans-Serif" font-size="10.00"> </text>
<polyline fill="none" stroke="#bfbfbf" points="0,-137.5 78,-137.5 "/>
<text text-anchor="middle" x="39" y="-125.5" font-family="Helvetica,sans-Serif" font-size="10.00"> </text>
</g>
<!-- Node2&#45;&gt;Node1 -->
<g id="edge1" class="edge"><title>Node2&#45;&gt;Node1</title>
<path fill="none" stroke="#404040" d="M74.2828,-118.416C89.2677,-107.73 107.334,-96.1362 125,-88 160.632,-71.5895 202.512,-59.3831 237.689,-50.9362"/>
<polygon fill="none" stroke="#404040" points="238.144,-50.8301 243.079,-45.5719 249.831,-48.1046 244.896,-53.3628 238.144,-50.8301"/>
<text text-anchor="middle" x="161.5" y="-91.5" font-family="Helvetica,sans-Serif" font-size="10.00"> +field_metadata</text>
</g>
<!-- Node3 -->
<g id="node3" class="node"><title>Node3</title>
<polygon fill="white" stroke="#bfbfbf" points="96.5,-118.5 96.5,-175.5 183.5,-175.5 183.5,-118.5 96.5,-118.5"/>
<text text-anchor="middle" x="140" y="-163.5" font-family="Helvetica,sans-Serif" font-size="10.00">ParseTableField</text>
<polyline fill="none" stroke="#bfbfbf" points="96.5,-156.5 183.5,-156.5 "/>
<text text-anchor="middle" x="140" y="-144.5" font-family="Helvetica,sans-Serif" font-size="10.00"> </text>
<polyline fill="none" stroke="#bfbfbf" points="96.5,-137.5 183.5,-137.5 "/>
<text text-anchor="middle" x="140" y="-125.5" font-family="Helvetica,sans-Serif" font-size="10.00"> </text>
</g>
<!-- Node3&#45;&gt;Node1 -->
<g id="edge2" class="edge"><title>Node3&#45;&gt;Node1</title>
<path fill="none" stroke="#404040" d="M175.5,-118.442C188.871,-108.463 204.382,-97.355 219,-88 225.755,-83.6772 232.892,-79.3394 240.094,-75.1138"/>
<polygon fill="none" stroke="#404040" points="240.26,-75.0176 243.457,-68.5535 250.653,-69.0177 247.457,-75.4817 240.26,-75.0176"/>
<text text-anchor="middle" x="238.5" y="-91.5" font-family="Helvetica,sans-Serif" font-size="10.00"> +entries</text>
</g>
<!-- Node4 -->
<g id="node4" class="node"><title>Node4</title>
<polygon fill="white" stroke="#bfbfbf" points="202,-118.5 202,-175.5 296,-175.5 296,-118.5 202,-118.5"/>
<text text-anchor="middle" x="249" y="-163.5" font-family="Helvetica,sans-Serif" font-size="10.00">SerializationTable</text>
<polyline fill="none" stroke="#bfbfbf" points="202,-156.5 296,-156.5 "/>
<text text-anchor="middle" x="249" y="-144.5" font-family="Helvetica,sans-Serif" font-size="10.00"> </text>
<polyline fill="none" stroke="#bfbfbf" points="202,-137.5 296,-137.5 "/>
<text text-anchor="middle" x="249" y="-125.5" font-family="Helvetica,sans-Serif" font-size="10.00"> </text>
</g>
<!-- Node4&#45;&gt;Node1 -->
<g id="edge3" class="edge"><title>Node4&#45;&gt;Node1</title>
<path fill="none" stroke="#404040" d="M254.979,-118.46C257.797,-108.483 261.726,-97.372 267,-88 268.718,-84.9473 270.639,-81.9175 272.694,-78.9447"/>
<polygon fill="none" stroke="#404040" points="272.883,-78.6934 273.297,-71.4942 280.102,-69.1072 279.688,-76.3064 272.883,-78.6934"/>
<text text-anchor="middle" x="311" y="-91.5" font-family="Helvetica,sans-Serif" font-size="10.00"> +serialization_table</text>
</g>
<!-- Node5 -->
<g id="node5" class="node"><title>Node5</title>
<polygon fill="white" stroke="#bfbfbf" points="314.5,-118.5 314.5,-175.5 439.5,-175.5 439.5,-118.5 314.5,-118.5"/>
<text text-anchor="middle" x="377" y="-163.5" font-family="Helvetica,sans-Serif" font-size="10.00">AuxillaryParseTableField</text>
<polyline fill="none" stroke="#bfbfbf" points="314.5,-156.5 439.5,-156.5 "/>
<text text-anchor="middle" x="377" y="-144.5" font-family="Helvetica,sans-Serif" font-size="10.00"> </text>
<polyline fill="none" stroke="#bfbfbf" points="314.5,-137.5 439.5,-137.5 "/>
<text text-anchor="middle" x="377" y="-125.5" font-family="Helvetica,sans-Serif" font-size="10.00"> </text>
</g>
<!-- Node5&#45;&gt;Node1 -->
<g id="edge4" class="edge"><title>Node5&#45;&gt;Node1</title>
<path fill="none" stroke="#404040" d="M368.525,-118.336C364.98,-108.452 360.414,-97.4341 355,-88 353.267,-84.9805 351.364,-81.9545 349.353,-78.9651"/>
<polygon fill="none" stroke="#404040" points="349.2,-78.7512 342.451,-76.2114 342.199,-69.0047 348.948,-71.5445 349.2,-78.7512"/>
<text text-anchor="middle" x="373.5" y="-91.5" font-family="Helvetica,sans-Serif" font-size="10.00"> +aux</text>
</g>
<!-- Node6 -->
<g id="node6" class="node"><title>Node6</title>
<polygon fill="white" stroke="#bfbfbf" points="457.5,-118.5 457.5,-175.5 500.5,-175.5 500.5,-118.5 457.5,-118.5"/>
<text text-anchor="middle" x="479" y="-163.5" font-family="Helvetica,sans-Serif" font-size="10.00">uint32</text>
<polyline fill="none" stroke="#bfbfbf" points="457.5,-156.5 500.5,-156.5 "/>
<text text-anchor="middle" x="479" y="-144.5" font-family="Helvetica,sans-Serif" font-size="10.00"> </text>
<polyline fill="none" stroke="#bfbfbf" points="457.5,-137.5 500.5,-137.5 "/>
<text text-anchor="middle" x="479" y="-125.5" font-family="Helvetica,sans-Serif" font-size="10.00"> </text>
</g>
<!-- Node6&#45;&gt;Node1 -->
<g id="edge5" class="edge"><title>Node6&#45;&gt;Node1</title>
<path fill="none" stroke="#404040" d="M457.422,-125.582C454.336,-122.938 451.141,-120.339 448,-118 427.87,-103.005 404.876,-88.25 383.639,-75.48"/>
<polygon fill="none" stroke="#404040" points="383.364,-75.3165 376.162,-75.6898 373.048,-69.1859 380.25,-68.8126 383.364,-75.3165"/>
<text text-anchor="middle" x="440" y="-91.5" font-family="Helvetica,sans-Serif" font-size="10.00"> +offsets</text>
</g>
<!-- Node7 -->
<g id="node7" class="node"><title>Node7</title>
<polygon fill="white" stroke="#bfbfbf" points="519,-118.5 519,-175.5 585,-175.5 585,-118.5 519,-118.5"/>
<text text-anchor="middle" x="552" y="-163.5" font-family="Helvetica,sans-Serif" font-size="10.00">ParseTable</text>
<polyline fill="none" stroke="#bfbfbf" points="519,-156.5 585,-156.5 "/>
<text text-anchor="middle" x="552" y="-144.5" font-family="Helvetica,sans-Serif" font-size="10.00"> </text>
<polyline fill="none" stroke="#bfbfbf" points="519,-137.5 585,-137.5 "/>
<text text-anchor="middle" x="552" y="-125.5" font-family="Helvetica,sans-Serif" font-size="10.00"> </text>
</g>
<!-- Node7&#45;&gt;Node1 -->
<g id="edge6" class="edge"><title>Node7&#45;&gt;Node1</title>
<path fill="none" stroke="#404040" d="M518.918,-121.34C502.899,-110.157 483.045,-97.3695 464,-88 439.946,-76.1662 412.522,-65.8537 387.705,-57.6014"/>
<polygon fill="none" stroke="#404040" points="387.545,-57.5496 380.602,-59.4975 376.134,-53.8377 383.077,-51.8898 387.545,-57.5496"/>
<text text-anchor="middle" x="507" y="-91.5" font-family="Helvetica,sans-Serif" font-size="10.00"> +schema</text>
</g>
</g>
</svg>
        <g id="navigator" transform="translate(0 0)" fill="#404254">
                <rect fill="#f2f5e9" fill-opacity="0.5" stroke="#606060" stroke-width=".5" x="0" y="0" width="60" height="60"/>
                <use id="zoomplus" xlink:href="#zoomPlus" x="17" y="9" onmousedown="handleZoom(evt,'in')"/>
                <use id="zoomminus" xlink:href="#zoomMin" x="42" y="9" onmousedown="handleZoom(evt,'out')"/>
                <use id="reset" xlink:href="#resetDef" x="30" y="36" onmousedown="handleReset()"/>
                <g id="arrowUp" xlink:href="#dirArrow" transform="translate(30 24)" onmousedown="handlePan(0,-1)">
                  <use xlink:href="#rim" fill="#404040">
                        <set attributeName="fill" to="#808080" begin="arrowUp.mouseover" end="arrowUp.mouseout"/>
                  </use>
                  <path fill="none" stroke="white" stroke-width="1.5" d="M0,-3.0v7 M-2.5,-0.5L0,-3.0L2.5,-0.5"/>
                </g>
                <g id="arrowRight" xlink:href="#dirArrow" transform="rotate(90) translate(36 -43)" onmousedown="handlePan(1,0)">
                  <use xlink:href="#rim" fill="#404040">
                        <set attributeName="fill" to="#808080" begin="arrowRight.mouseover" end="arrowRight.mouseout"/>
                  </use>
                  <path fill="none" stroke="white" stroke-width="1.5" d="M0,-3.0v7 M-2.5,-0.5L0,-3.0L2.5,-0.5"/>
                </g>
                <g id="arrowDown" xlink:href="#dirArrow" transform="rotate(180) translate(-30 -48)" onmousedown="handlePan(0,1)">
                  <use xlink:href="#rim" fill="#404040">
                        <set attributeName="fill" to="#808080" begin="arrowDown.mouseover" end="arrowDown.mouseout"/>
                  </use>
                  <path fill="none" stroke="white" stroke-width="1.5" d="M0,-3.0v7 M-2.5,-0.5L0,-3.0L2.5,-0.5"/>
                </g>
                <g id="arrowLeft" xlink:href="#dirArrow" transform="rotate(270) translate(-36 17)" onmousedown="handlePan(-1,0)">
                  <use xlink:href="#rim" fill="#404040">
                        <set attributeName="fill" to="#808080" begin="arrowLeft.mouseover" end="arrowLeft.mouseout"/>
                  </use>
                  <path fill="none" stroke="white" stroke-width="1.5" d="M0,-3.0v7 M-2.5,-0.5L0,-3.0L2.5,-0.5"/>
                </g>
        </g>
        <svg viewBox="0 0 15 15" width="100%" height="30px" preserveAspectRatio="xMaxYMin meet">
         <g id="arrow_out" transform="scale(0.3 0.3)">
          <a xlink:href="a01155_org.svg" target="_base">
           <rect id="button" ry="5" rx="5" y="6" x="6" height="38" width="38"
                fill="#f2f5e9" fill-opacity="0.5" stroke="#606060" stroke-width="1.0"/>
           <path id="arrow"
             d="M 11.500037,31.436501 C 11.940474,20.09759 22.043105,11.32322 32.158766,21.979434 L 37.068811,17.246167 C 37.068811,17.246167 37.088388,32 37.088388,32 L 22.160133,31.978069 C 22.160133,31.978069 26.997745,27.140456 26.997745,27.140456 C 18.528582,18.264221 13.291696,25.230495 11.500037,31.436501 z"
             style="fill:#404040;"/>
          </a>
         </g>
        </svg>
</svg>
