<?xml version="1.0" encoding="UTF-8" standalone="no"?>
<!DOCTYPE svg PUBLIC "-//W3C//DTD SVG 1.1//EN"
 "http://www.w3.org/Graphics/SVG/1.1/DTD/svg11.dtd">
<!-- Generated by graphviz version 2.36.0 (20140111.2315)
 -->
<!-- Title: gengeopop::PrimaryCommunityPopulator Pages: 1 -->
<svg width="162pt" height="238pt"
 viewBox="0.00 0.00 162.00 238.00" xmlns="http://www.w3.org/2000/svg" xmlns:xlink="http://www.w3.org/1999/xlink">
<g id="graph0" class="graph" transform="scale(1 1) rotate(0) translate(4 234)">
<title>gengeopop::PrimaryCommunityPopulator</title>
<polygon fill="white" stroke="none" points="-4,4 -4,-234 158,-234 158,4 -4,4"/>
<!-- Node1 -->
<g id="node1" class="node"><title>Node1</title>
<polygon fill="#bfbfbf" stroke="black" points="0,-1 0,-69 154,-69 154,-1 0,-1"/>
<text text-anchor="start" x="8" y="-57" font-family="Helvetica,sans-Serif" font-size="10.00">gengeopop::PrimaryCommunity</text>
<text text-anchor="middle" x="77" y="-46" font-family="Helvetica,sans-Serif" font-size="10.00">Populator</text>
<polyline fill="none" stroke="black" points="0,-39 154,-39 "/>
<text text-anchor="middle" x="77" y="-27" font-family="Helvetica,sans-Serif" font-size="10.00"> </text>
<polyline fill="none" stroke="black" points="0,-20 154,-20 "/>
<text text-anchor="start" x="8" y="-8" font-family="Helvetica,sans-Serif" font-size="10.00">+ Apply()</text>
</g>
<!-- Node2 -->
<g id="node2" class="node"><title>Node2</title>
<g id="a_node2"><a xlink:href="../../d1/d22/a00057.html" target="_top" xlink:title="An interface for populators that provide a partial solution. ">
<polygon fill="white" stroke="black" points="3,-106.5 3,-229.5 151,-229.5 151,-106.5 3,-106.5"/>
<text text-anchor="middle" x="77" y="-217.5" font-family="Helvetica,sans-Serif" font-size="10.00">gengeopop::PartialPopulator</text>
<polyline fill="none" stroke="black" points="3,-210.5 151,-210.5 "/>
<text text-anchor="start" x="11" y="-198.5" font-family="Helvetica,sans-Serif" font-size="10.00"># m_rnManager</text>
<text text-anchor="start" x="11" y="-187.5" font-family="Helvetica,sans-Serif" font-size="10.00"># m_logger</text>
<polyline fill="none" stroke="black" points="3,-180.5 151,-180.5 "/>
<text text-anchor="start" x="11" y="-168.5" font-family="Helvetica,sans-Serif" font-size="10.00">+ PartialPopulator()</text>
<text text-anchor="start" x="11" y="-157.5" font-family="Helvetica,sans-Serif" font-size="10.00">+ Apply()</text>
<text text-anchor="start" x="11" y="-146.5" font-family="Helvetica,sans-Serif" font-size="10.00">+ ~PartialPopulator()</text>
<text text-anchor="start" x="11" y="-135.5" font-family="Helvetica,sans-Serif" font-size="10.00"># GetContactPoolInIncreasing</text>
<text text-anchor="start" x="11" y="-124.5" font-family="Helvetica,sans-Serif" font-size="10.00">Radius()</text>
<text text-anchor="start" x="11" y="-113.5" font-family="Helvetica,sans-Serif" font-size="10.00"># MakeChoice()</text>
</a>
</g>
</g>
<!-- Node2&#45;&gt;Node1 -->
<g id="edge1" class="edge"><title>Node2&#45;&gt;Node1</title>
<path fill="none" stroke="midnightblue" d="M77,-96.2108C77,-86.7613 77,-77.4595 77,-69.0991"/>
<polygon fill="none" stroke="midnightblue" points="73.5001,-96.4849 77,-106.485 80.5001,-96.485 73.5001,-96.4849"/>
</g>
</g>
</svg>
