<?xml version="1.0" encoding="UTF-8" standalone="no"?>
<!DOCTYPE svg PUBLIC "-//W3C//DTD SVG 1.1//EN"
 "http://www.w3.org/Graphics/SVG/1.1/DTD/svg11.dtd">
<!-- Generated by graphviz version 2.36.0 (20140111.2315)
 -->
<!-- Title: pop Pages: 1 -->
<svg width="296pt" height="260pt"
 viewBox="0.00 0.00 296.18 260.00" xmlns="http://www.w3.org/2000/svg" xmlns:xlink="http://www.w3.org/1999/xlink">
<g id="graph0" class="graph" transform="scale(1 1) rotate(0) translate(4 256)">
<title>pop</title>
<polygon fill="white" stroke="none" points="-4,4 -4,-256 292.184,-256 292.184,4 -4,4"/>
<g id="clust1" class="cluster"><title>clusterdir_a2a8aff9b00c67914e6daf05d7173af9</title>
<g id="a_clust1"><a xlink:href="dir_a2a8aff9b00c67914e6daf05d7173af9.html" target="_top" xlink:title="cpp">
<polygon fill="#ddddee" stroke="black" points="8,-136 8,-207 78,-207 78,-136 8,-136"/>
<text text-anchor="middle" x="43" y="-195" font-family="Helvetica,sans-Serif" font-size="10.00">cpp</text>
</a>
</g>
</g>
<!-- dir_d174127a4330655b353181aebfd9b441 -->
<g id="node1" class="node"><title>dir_d174127a4330655b353181aebfd9b441</title>
<g id="a_node1"><a xlink:href="dir_d174127a4330655b353181aebfd9b441.html" target="_top" xlink:title="pop">
<polygon fill="#eeeeff" stroke="black" points="70,-180 16,-180 16,-144 70,-144 70,-180"/>
<text text-anchor="middle" x="43" y="-159.5" font-family="Helvetica,sans-Serif" font-size="10.00">pop</text>
</a>
</g>
</g>
<!-- dir_daae16215ac7def5c531522e1dfab593 -->
<g id="node2" class="node"><title>dir_daae16215ac7def5c531522e1dfab593</title>
<g id="a_node2"><a xlink:href="dir_daae16215ac7def5c531522e1dfab593.html" target="_top" xlink:title="behaviour">
<polygon fill="white" stroke="red" points="86.25,-108 27.75,-108 27.75,-72 86.25,-72 86.25,-108"/>
<text text-anchor="middle" x="57" y="-87.5" font-family="Helvetica,sans-Serif" font-size="10.00">behaviour</text>
</a>
</g>
</g>
<!-- dir_d174127a4330655b353181aebfd9b441&#45;&gt;dir_daae16215ac7def5c531522e1dfab593 -->
<g id="edge17" class="edge"><title>dir_d174127a4330655b353181aebfd9b441&#45;&gt;dir_daae16215ac7def5c531522e1dfab593</title>
<path fill="none" stroke="black" d="M40.5449,-143.697C41.3002,-135.898 42.9554,-126.509 45.0504,-117.829"/>
<polygon fill="black" stroke="black" points="48.4483,-118.672 47.6841,-108.104 41.6917,-116.842 48.4483,-118.672"/>
<g id="a_edge17&#45;headlabel"><a xlink:href="dir_000002_000009.html" target="_top" xlink:title="2">
<text text-anchor="middle" x="50.2492" y="-120.383" font-family="Helvetica,sans-Serif" font-size="10.00">2</text>
</a>
</g>
</g>
<!-- dir_cf56009b1fcb470adac12e74ab7406a1 -->
<g id="node3" class="node"><title>dir_cf56009b1fcb470adac12e74ab7406a1</title>
<g id="a_node3"><a xlink:href="dir_cf56009b1fcb470adac12e74ab7406a1.html" target="_top" xlink:title="util">
<polygon fill="none" stroke="black" points="169,-36 115,-36 115,-0 169,-0 169,-36"/>
<text text-anchor="middle" x="142" y="-15.5" font-family="Helvetica,sans-Serif" font-size="10.00">util</text>
</a>
</g>
</g>
<!-- dir_d174127a4330655b353181aebfd9b441&#45;&gt;dir_cf56009b1fcb470adac12e74ab7406a1 -->
<g id="edge18" class="edge"><title>dir_d174127a4330655b353181aebfd9b441&#45;&gt;dir_cf56009b1fcb470adac12e74ab7406a1</title>
<path fill="none" stroke="black" d="M30.4608,-143.979C18.192,-125.056 3.32298,-94.2347 18,-72 37.1518,-42.9864 75.8061,-29.7992 104.894,-23.8401"/>
<polygon fill="black" stroke="black" points="105.54,-27.2801 114.737,-22.0196 104.267,-20.3968 105.54,-27.2801"/>
<g id="a_edge18&#45;headlabel"><a xlink:href="dir_000002_000006.html" target="_top" xlink:title="24">
<text text-anchor="middle" x="102.522" y="-28.2257" font-family="Helvetica,sans-Serif" font-size="10.00">24</text>
</a>
</g>
</g>
<!-- dir_d006795525347f4aaca311cb4e45f0bc -->
<g id="node4" class="node"><title>dir_d006795525347f4aaca311cb4e45f0bc</title>
<g id="a_node4"><a xlink:href="dir_d006795525347f4aaca311cb4e45f0bc.html" target="_top" xlink:title="contact">
<polygon fill="none" stroke="black" points="142,-180 88,-180 88,-144 142,-144 142,-180"/>
<text text-anchor="middle" x="115" y="-159.5" font-family="Helvetica,sans-Serif" font-size="10.00">contact</text>
</a>
</g>
</g>
<!-- dir_d174127a4330655b353181aebfd9b441&#45;&gt;dir_d006795525347f4aaca311cb4e45f0bc -->
<g id="edge19" class="edge"><title>dir_d174127a4330655b353181aebfd9b441&#45;&gt;dir_d006795525347f4aaca311cb4e45f0bc</title>
<path fill="none" stroke="black" d="M70.2812,-162C72.7377,-162 75.1942,-162 77.6507,-162"/>
<polygon fill="black" stroke="black" points="77.7495,-165.5 87.7495,-162 77.7495,-158.5 77.7495,-165.5"/>
<g id="a_edge19&#45;headlabel"><a xlink:href="dir_000002_000005.html" target="_top" xlink:title="1">
<text text-anchor="middle" x="74.1549" y="-165.839" font-family="Helvetica,sans-Serif" font-size="10.00">1</text>
</a>
</g>
</g>
<!-- dir_179761493184668a345a1ae0c0ebebb4 -->
<g id="node5" class="node"><title>dir_179761493184668a345a1ae0c0ebebb4</title>
<g id="a_node5"><a xlink:href="dir_179761493184668a345a1ae0c0ebebb4.html" target="_top" xlink:title="gengeopop">
<polygon fill="white" stroke="red" points="262,-180 198,-180 198,-144 262,-144 262,-180"/>
<text text-anchor="middle" x="230" y="-159.5" font-family="Helvetica,sans-Serif" font-size="10.00">gengeopop</text>
</a>
</g>
</g>
<!-- dir_d174127a4330655b353181aebfd9b441&#45;&gt;dir_179761493184668a345a1ae0c0ebebb4 -->
<g id="edge20" class="edge"><title>dir_d174127a4330655b353181aebfd9b441&#45;&gt;dir_179761493184668a345a1ae0c0ebebb4</title>
<path fill="none" stroke="black" d="M54.7802,-180.216C61.1698,-189.093 69.6635,-199.452 79,-207 82.4778,-209.812 83.6475,-210.473 88,-211.5 106.816,-215.942 156.184,-215.942 175,-211.5 189.148,-208.16 201.534,-198.102 210.952,-187.916"/>
<polygon fill="black" stroke="black" points="213.705,-190.083 217.556,-180.212 208.39,-185.527 213.705,-190.083"/>
<g id="a_edge20&#45;headlabel"><a xlink:href="dir_000002_000013.html" target="_top" xlink:title="5">
<text text-anchor="middle" x="213.522" y="-192.16" font-family="Helvetica,sans-Serif" font-size="10.00">5</text>
</a>
</g>
</g>
<!-- dir_64952374cc5fce1bffc8f3e140afcfae -->
<g id="node6" class="node"><title>dir_64952374cc5fce1bffc8f3e140afcfae</title>
<g id="a_node6"><a xlink:href="dir_64952374cc5fce1bffc8f3e140afcfae.html" target="_top" xlink:title="disease">
<polygon fill="none" stroke="black" points="169,-252 115,-252 115,-216 169,-216 169,-252"/>
<text text-anchor="middle" x="142" y="-231.5" font-family="Helvetica,sans-Serif" font-size="10.00">disease</text>
</a>
</g>
</g>
<!-- dir_d174127a4330655b353181aebfd9b441&#45;&gt;dir_64952374cc5fce1bffc8f3e140afcfae -->
<g id="edge21" class="edge"><title>dir_d174127a4330655b353181aebfd9b441&#45;&gt;dir_64952374cc5fce1bffc8f3e140afcfae</title>
<path fill="none" stroke="black" d="M46.0262,-180.215C51.4171,-189.157 60.1705,-199.708 70,-207 80.2455,-214.6 93.0352,-220.41 105.081,-224.59"/>
<polygon fill="black" stroke="black" points="104.362,-228.034 114.953,-227.721 106.479,-221.361 104.362,-228.034"/>
<g id="a_edge21&#45;headlabel"><a xlink:href="dir_000002_000020.html" target="_top" xlink:title="1">
<text text-anchor="middle" x="100.078" y="-227.153" font-family="Helvetica,sans-Serif" font-size="10.00">1</text>
</a>
</g>
</g>
<!-- dir_308570b072fca4c8ae418282e0c0e92b -->
<g id="node7" class="node"><title>dir_308570b072fca4c8ae418282e0c0e92b</title>
<g id="a_node7"><a xlink:href="dir_308570b072fca4c8ae418282e0c0e92b.html" target="_top" xlink:title="pool">
<polygon fill="none" stroke="black" points="197,-108 143,-108 143,-72 197,-72 197,-108"/>
<text text-anchor="middle" x="170" y="-87.5" font-family="Helvetica,sans-Serif" font-size="10.00">pool</text>
</a>
</g>
</g>
<!-- dir_d174127a4330655b353181aebfd9b441&#45;&gt;dir_308570b072fca4c8ae418282e0c0e92b -->
<g id="edge22" class="edge"><title>dir_d174127a4330655b353181aebfd9b441&#45;&gt;dir_308570b072fca4c8ae418282e0c0e92b</title>
<path fill="none" stroke="black" d="M57.816,-143.82C61.7304,-141.1 65.937,-138.398 70,-136 90.1269,-124.123 113.818,-112.477 133.231,-104.009"/>
<polygon fill="black" stroke="black" points="134.83,-107.133 142.667,-100.003 132.094,-100.689 134.83,-107.133"/>
<g id="a_edge22&#45;headlabel"><a xlink:href="dir_000002_000019.html" target="_top" xlink:title="14">
<text text-anchor="middle" x="132.63" y="-108.651" font-family="Helvetica,sans-Serif" font-size="10.00">14</text>
</a>
</g>
</g>
<!-- dir_daae16215ac7def5c531522e1dfab593&#45;&gt;dir_d174127a4330655b353181aebfd9b441 -->
<g id="edge2" class="edge"><title>dir_daae16215ac7def5c531522e1dfab593&#45;&gt;dir_d174127a4330655b353181aebfd9b441</title>
<path fill="none" stroke="black" d="M59.4742,-108.104C58.7342,-115.876 57.0905,-125.257 55.0031,-133.949"/>
<polygon fill="black" stroke="black" points="51.5988,-133.13 52.3764,-143.697 58.3578,-134.952 51.5988,-133.13"/>
<g id="a_edge2&#45;headlabel"><a xlink:href="dir_000009_000002.html" target="_top" xlink:title="1">
<text text-anchor="middle" x="49.7925" y="-126.421" font-family="Helvetica,sans-Serif" font-size="10.00">1</text>
</a>
</g>
</g>
<!-- dir_daae16215ac7def5c531522e1dfab593&#45;&gt;dir_cf56009b1fcb470adac12e74ab7406a1 -->
<g id="edge1" class="edge"><title>dir_daae16215ac7def5c531522e1dfab593&#45;&gt;dir_cf56009b1fcb470adac12e74ab7406a1</title>
<path fill="none" stroke="black" d="M78.0112,-71.6966C88.7163,-62.8807 101.89,-52.0321 113.496,-42.4742"/>
<polygon fill="black" stroke="black" points="115.736,-45.1632 121.23,-36.1043 111.286,-39.7597 115.736,-45.1632"/>
<g id="a_edge1&#45;headlabel"><a xlink:href="dir_000009_000006.html" target="_top" xlink:title="2">
<text text-anchor="middle" x="114.766" y="-47.14" font-family="Helvetica,sans-Serif" font-size="10.00">2</text>
</a>
</g>
</g>
<!-- dir_d006795525347f4aaca311cb4e45f0bc&#45;&gt;dir_d174127a4330655b353181aebfd9b441 -->
<g id="edge6" class="edge"><title>dir_d006795525347f4aaca311cb4e45f0bc&#45;&gt;dir_d174127a4330655b353181aebfd9b441</title>
<path fill="none" stroke="black" d="M87.7495,-162C85.293,-162 82.8366,-162 80.3801,-162"/>
<polygon fill="black" stroke="black" points="80.2813,-158.5 70.2812,-162 80.2812,-165.5 80.2813,-158.5"/>
<g id="a_edge6&#45;headlabel"><a xlink:href="dir_000005_000002.html" target="_top" xlink:title="2">
<text text-anchor="middle" x="83.8759" y="-153.161" font-family="Helvetica,sans-Serif" font-size="10.00">2</text>
</a>
</g>
</g>
<!-- dir_d006795525347f4aaca311cb4e45f0bc&#45;&gt;dir_daae16215ac7def5c531522e1dfab593 -->
<g id="edge3" class="edge"><title>dir_d006795525347f4aaca311cb4e45f0bc&#45;&gt;dir_daae16215ac7def5c531522e1dfab593</title>
<path fill="none" stroke="black" d="M100.663,-143.697C93.7095,-135.305 85.2298,-125.07 77.5994,-115.861"/>
<polygon fill="black" stroke="black" points="80.2475,-113.571 71.1722,-108.104 74.8573,-118.038 80.2475,-113.571"/>
<g id="a_edge3&#45;headlabel"><a xlink:href="dir_000005_000009.html" target="_top" xlink:title="2">
<text text-anchor="middle" x="84.7271" y="-112.028" font-family="Helvetica,sans-Serif" font-size="10.00">2</text>
</a>
</g>
</g>
<!-- dir_d006795525347f4aaca311cb4e45f0bc&#45;&gt;dir_cf56009b1fcb470adac12e74ab7406a1 -->
<g id="edge4" class="edge"><title>dir_d006795525347f4aaca311cb4e45f0bc&#45;&gt;dir_cf56009b1fcb470adac12e74ab7406a1</title>
<path fill="none" stroke="black" d="M118.257,-143.871C122.858,-119.67 131.312,-75.2108 136.791,-46.3932"/>
<polygon fill="black" stroke="black" points="140.302,-46.6671 138.732,-36.1893 133.425,-45.3594 140.302,-46.6671"/>
<g id="a_edge4&#45;headlabel"><a xlink:href="dir_000005_000006.html" target="_top" xlink:title="1">
<text text-anchor="middle" x="142.42" y="-48.2287" font-family="Helvetica,sans-Serif" font-size="10.00">1</text>
</a>
</g>
</g>
<!-- dir_d006795525347f4aaca311cb4e45f0bc&#45;&gt;dir_308570b072fca4c8ae418282e0c0e92b -->
<g id="edge5" class="edge"><title>dir_d006795525347f4aaca311cb4e45f0bc&#45;&gt;dir_308570b072fca4c8ae418282e0c0e92b</title>
<path fill="none" stroke="black" d="M122.68,-143.697C128.408,-135.305 136.257,-125.07 143.974,-115.861"/>
<polygon fill="black" stroke="black" points="146.784,-117.962 150.666,-108.104 141.484,-113.39 146.784,-117.962"/>
<g id="a_edge5&#45;headlabel"><a xlink:href="dir_000005_000019.html" target="_top" xlink:title="5">
<text text-anchor="middle" x="146.586" y="-120.039" font-family="Helvetica,sans-Serif" font-size="10.00">5</text>
</a>
</g>
</g>
<!-- dir_179761493184668a345a1ae0c0ebebb4&#45;&gt;dir_d174127a4330655b353181aebfd9b441 -->
<g id="edge9" class="edge"><title>dir_179761493184668a345a1ae0c0ebebb4&#45;&gt;dir_d174127a4330655b353181aebfd9b441</title>
<path fill="none" stroke="black" d="M217.556,-180.212C207.734,-192.537 192.754,-207.309 175,-211.5 156.184,-215.942 106.816,-215.942 88,-211.5 83.6475,-210.473 82.4778,-209.812 79,-207 72.4352,-201.693 66.2872,-194.996 60.9943,-188.402"/>
<polygon fill="black" stroke="black" points="63.6145,-186.065 54.7802,-180.216 58.0391,-190.297 63.6145,-186.065"/>
<g id="a_edge9&#45;headlabel"><a xlink:href="dir_000013_000002.html" target="_top" xlink:title="7">
<text text-anchor="middle" x="68.0494" y="-184.711" font-family="Helvetica,sans-Serif" font-size="10.00">7</text>
</a>
</g>
</g>
<!-- dir_179761493184668a345a1ae0c0ebebb4&#45;&gt;dir_cf56009b1fcb470adac12e74ab7406a1 -->
<g id="edge7" class="edge"><title>dir_179761493184668a345a1ae0c0ebebb4&#45;&gt;dir_cf56009b1fcb470adac12e74ab7406a1</title>
<path fill="none" stroke="black" d="M228.47,-143.678C226.12,-124.764 220.277,-94.2127 206,-72 198.541,-60.3952 187.724,-50.065 177.1,-41.6763"/>
<polygon fill="black" stroke="black" points="179.17,-38.8541 169.071,-35.651 174.968,-44.4528 179.17,-38.8541"/>
<g id="a_edge7&#45;headlabel"><a xlink:href="dir_000013_000006.html" target="_top" xlink:title="29">
<text text-anchor="middle" x="183.749" y="-36.2408" font-family="Helvetica,sans-Serif" font-size="10.00">29</text>
</a>
</g>
</g>
<!-- dir_179761493184668a345a1ae0c0ebebb4&#45;&gt;dir_308570b072fca4c8ae418282e0c0e92b -->
<g id="edge8" class="edge"><title>dir_179761493184668a345a1ae0c0ebebb4&#45;&gt;dir_308570b072fca4c8ae418282e0c0e92b</title>
<path fill="none" stroke="black" d="M215.169,-143.697C207.975,-135.305 199.203,-125.07 191.31,-115.861"/>
<polygon fill="black" stroke="black" points="193.826,-113.419 184.661,-108.104 188.511,-117.975 193.826,-113.419"/>
<g id="a_edge8&#45;headlabel"><a xlink:href="dir_000013_000019.html" target="_top" xlink:title="2">
<text text-anchor="middle" x="198.321" y="-111.801" font-family="Helvetica,sans-Serif" font-size="10.00">2</text>
</a>
</g>
</g>
<!-- dir_64952374cc5fce1bffc8f3e140afcfae&#45;&gt;dir_d174127a4330655b353181aebfd9b441 -->
<g id="edge16" class="edge"><title>dir_64952374cc5fce1bffc8f3e140afcfae&#45;&gt;dir_d174127a4330655b353181aebfd9b441</title>
<path fill="none" stroke="black" d="M114.707,-221.716C105.737,-217.871 96.0776,-212.992 88,-207 80.9351,-201.759 74.426,-194.834 68.5623,-188.034"/>
<polygon fill="black" stroke="black" points="71.0983,-185.611 61.9806,-180.215 65.7431,-190.119 71.0983,-185.611"/>
<g id="a_edge16&#45;headlabel"><a xlink:href="dir_000020_000002.html" target="_top" xlink:title="4">
<text text-anchor="middle" x="75.5853" y="-184.033" font-family="Helvetica,sans-Serif" font-size="10.00">4</text>
</a>
</g>
</g>
<!-- dir_64952374cc5fce1bffc8f3e140afcfae&#45;&gt;dir_cf56009b1fcb470adac12e74ab7406a1 -->
<g id="edge13" class="edge"><title>dir_64952374cc5fce1bffc8f3e140afcfae&#45;&gt;dir_cf56009b1fcb470adac12e74ab7406a1</title>
<path fill="none" stroke="black" d="M169.06,-231.462C203.023,-228.902 258.374,-222.425 271,-207 310.886,-158.273 273.393,-115.643 228,-72 213.521,-58.0793 194.786,-46.0069 178.5,-36.9149"/>
<polygon fill="black" stroke="black" points="179.706,-33.5887 169.245,-31.9147 176.379,-39.7474 179.706,-33.5887"/>
<g id="a_edge13&#45;headlabel"><a xlink:href="dir_000020_000006.html" target="_top" xlink:title="7">
<text text-anchor="middle" x="184.218" y="-30.2992" font-family="Helvetica,sans-Serif" font-size="10.00">7</text>
</a>
</g>
</g>
<!-- dir_64952374cc5fce1bffc8f3e140afcfae&#45;&gt;dir_d006795525347f4aaca311cb4e45f0bc -->
<g id="edge14" class="edge"><title>dir_64952374cc5fce1bffc8f3e140afcfae&#45;&gt;dir_d006795525347f4aaca311cb4e45f0bc</title>
<path fill="none" stroke="black" d="M135.326,-215.697C132.285,-207.813 128.617,-198.304 125.239,-189.546"/>
<polygon fill="black" stroke="black" points="128.462,-188.175 121.597,-180.104 121.931,-190.694 128.462,-188.175"/>
<g id="a_edge14&#45;headlabel"><a xlink:href="dir_000020_000005.html" target="_top" xlink:title="1">
<text text-anchor="middle" x="132.404" y="-188.007" font-family="Helvetica,sans-Serif" font-size="10.00">1</text>
</a>
</g>
</g>
<!-- dir_64952374cc5fce1bffc8f3e140afcfae&#45;&gt;dir_308570b072fca4c8ae418282e0c0e92b -->
<g id="edge15" class="edge"><title>dir_64952374cc5fce1bffc8f3e140afcfae&#45;&gt;dir_308570b072fca4c8ae418282e0c0e92b</title>
<path fill="none" stroke="black" d="M148.421,-215.783C149.371,-212.876 150.274,-209.871 151,-207 158.596,-176.976 163.863,-141.785 166.893,-118.103"/>
<polygon fill="black" stroke="black" points="170.377,-118.445 168.128,-108.092 163.43,-117.588 170.377,-118.445"/>
<g id="a_edge15&#45;headlabel"><a xlink:href="dir_000020_000019.html" target="_top" xlink:title="3">
<text text-anchor="middle" x="172.755" y="-119.861" font-family="Helvetica,sans-Serif" font-size="10.00">3</text>
</a>
</g>
</g>
<!-- dir_308570b072fca4c8ae418282e0c0e92b&#45;&gt;dir_d174127a4330655b353181aebfd9b441 -->
<g id="edge12" class="edge"><title>dir_308570b072fca4c8ae418282e0c0e92b&#45;&gt;dir_d174127a4330655b353181aebfd9b441</title>
<path fill="none" stroke="black" d="M142.912,-106.917C126.645,-115.044 105.911,-125.43 88,-136 85.0264,-137.755 81.976,-139.673 78.9192,-141.641"/>
<polygon fill="black" stroke="black" points="76.8134,-138.836 70.3465,-147.228 80.6354,-144.7 76.8134,-138.836"/>
<g id="a_edge12&#45;headlabel"><a xlink:href="dir_000019_000002.html" target="_top" xlink:title="6">
<text text-anchor="middle" x="78.2747" y="-131.995" font-family="Helvetica,sans-Serif" font-size="10.00">6</text>
</a>
</g>
</g>
<!-- dir_308570b072fca4c8ae418282e0c0e92b&#45;&gt;dir_cf56009b1fcb470adac12e74ab7406a1 -->
<g id="edge10" class="edge"><title>dir_308570b072fca4c8ae418282e0c0e92b&#45;&gt;dir_cf56009b1fcb470adac12e74ab7406a1</title>
<path fill="none" stroke="black" d="M163.079,-71.6966C159.925,-63.8132 156.122,-54.3042 152.619,-45.5464"/>
<polygon fill="black" stroke="black" points="155.805,-44.0892 148.842,-36.1043 149.306,-46.689 155.805,-44.0892"/>
<g id="a_edge10&#45;headlabel"><a xlink:href="dir_000019_000006.html" target="_top" xlink:title="9">
<text text-anchor="middle" x="159.777" y="-43.8723" font-family="Helvetica,sans-Serif" font-size="10.00">9</text>
</a>
</g>
</g>
<!-- dir_308570b072fca4c8ae418282e0c0e92b&#45;&gt;dir_d006795525347f4aaca311cb4e45f0bc -->
<g id="edge11" class="edge"><title>dir_308570b072fca4c8ae418282e0c0e92b&#45;&gt;dir_d006795525347f4aaca311cb4e45f0bc</title>
<path fill="none" stroke="black" d="M162.456,-108.104C156.762,-116.467 148.928,-126.694 141.209,-135.92"/>
<polygon fill="black" stroke="black" points="138.385,-133.835 134.511,-143.697 143.689,-138.403 138.385,-133.835"/>
<g id="a_edge11&#45;headlabel"><a xlink:href="dir_000019_000005.html" target="_top" xlink:title="1">
<text text-anchor="middle" x="138.579" y="-126.759" font-family="Helvetica,sans-Serif" font-size="10.00">1</text>
</a>
</g>
</g>
</g>
</svg>
