<?xml version="1.0" encoding="UTF-8" standalone="no"?>
<!DOCTYPE svg PUBLIC "-//W3C//DTD SVG 1.1//EN"
 "http://www.w3.org/Graphics/SVG/1.1/DTD/svg11.dtd">
<!-- Generated by graphviz version 2.36.0 (20140111.2315)
 -->
<!-- Title: guilauncher Pages: 1 -->
<svg width="273pt" height="367pt"
 viewBox="0.00 0.00 272.89 367.00" xmlns="http://www.w3.org/2000/svg" xmlns:xlink="http://www.w3.org/1999/xlink">
<g id="graph0" class="graph" transform="scale(1 1) rotate(0) translate(4 363)">
<title>guilauncher</title>
<polygon fill="white" stroke="none" points="-4,4 -4,-363 268.885,-363 268.885,4 -4,4"/>
<g id="clust1" class="cluster"><title>clusterdir_a2a8aff9b00c67914e6daf05d7173af9</title>
<g id="a_clust1"><a xlink:href="dir_a2a8aff9b00c67914e6daf05d7173af9.html" target="_top" xlink:title="cpp">
<polygon fill="#ddddee" stroke="black" points="80.3477,-280 80.3477,-351 162.348,-351 162.348,-280 80.3477,-280"/>
<text text-anchor="middle" x="121.348" y="-339" font-family="Helvetica,sans-Serif" font-size="10.00">cpp</text>
</a>
</g>
</g>
<!-- dir_5335ad58122d8b317bc58a7551fc92f8 -->
<g id="node1" class="node"><title>dir_5335ad58122d8b317bc58a7551fc92f8</title>
<g id="a_node1"><a xlink:href="dir_5335ad58122d8b317bc58a7551fc92f8.html" target="_top" xlink:title="guilauncher">
<polygon fill="#eeeeff" stroke="black" points="154.348,-324 88.3477,-324 88.3477,-288 154.348,-288 154.348,-324"/>
<text text-anchor="middle" x="121.348" y="-303.5" font-family="Helvetica,sans-Serif" font-size="10.00">guilauncher</text>
</a>
</g>
</g>
<!-- dir_e5f84963ccc55302ca6163b928f19348 -->
<g id="node2" class="node"><title>dir_e5f84963ccc55302ca6163b928f19348</title>
<g id="a_node2"><a xlink:href="dir_e5f84963ccc55302ca6163b928f19348.html" target="_top" xlink:title="sim">
<polygon fill="white" stroke="red" points="148.348,-252 94.3477,-252 94.3477,-216 148.348,-216 148.348,-252"/>
<text text-anchor="middle" x="121.348" y="-231.5" font-family="Helvetica,sans-Serif" font-size="10.00">sim</text>
</a>
</g>
</g>
<!-- dir_5335ad58122d8b317bc58a7551fc92f8&#45;&gt;dir_e5f84963ccc55302ca6163b928f19348 -->
<g id="edge9" class="edge"><title>dir_5335ad58122d8b317bc58a7551fc92f8&#45;&gt;dir_e5f84963ccc55302ca6163b928f19348</title>
<path fill="none" stroke="black" d="M121.348,-287.697C121.348,-279.983 121.348,-270.712 121.348,-262.112"/>
<polygon fill="black" stroke="black" points="124.848,-262.104 121.348,-252.104 117.848,-262.104 124.848,-262.104"/>
<g id="a_edge9&#45;headlabel"><a xlink:href="dir_000026_000008.html" target="_top" xlink:title="2">
<text text-anchor="middle" x="127.687" y="-263.199" font-family="Helvetica,sans-Serif" font-size="10.00">2</text>
</a>
</g>
</g>
<!-- dir_cf56009b1fcb470adac12e74ab7406a1 -->
<g id="node3" class="node"><title>dir_cf56009b1fcb470adac12e74ab7406a1</title>
<g id="a_node3"><a xlink:href="dir_cf56009b1fcb470adac12e74ab7406a1.html" target="_top" xlink:title="util">
<polygon fill="none" stroke="black" points="195.348,-36 141.348,-36 141.348,-0 195.348,-0 195.348,-36"/>
<text text-anchor="middle" x="168.348" y="-15.5" font-family="Helvetica,sans-Serif" font-size="10.00">util</text>
</a>
</g>
</g>
<!-- dir_5335ad58122d8b317bc58a7551fc92f8&#45;&gt;dir_cf56009b1fcb470adac12e74ab7406a1 -->
<g id="edge10" class="edge"><title>dir_5335ad58122d8b317bc58a7551fc92f8&#45;&gt;dir_cf56009b1fcb470adac12e74ab7406a1</title>
<path fill="none" stroke="black" d="M152.846,-287.87C186.764,-267.367 238.642,-229.505 259.348,-180 280.681,-128.995 232.143,-73.7624 198.078,-43.0666"/>
<polygon fill="black" stroke="black" points="200.036,-40.1287 190.207,-36.172 195.423,-45.3941 200.036,-40.1287"/>
<g id="a_edge10&#45;headlabel"><a xlink:href="dir_000026_000006.html" target="_top" xlink:title="2">
<text text-anchor="middle" x="204.61" y="-37.8616" font-family="Helvetica,sans-Serif" font-size="10.00">2</text>
</a>
</g>
</g>
<!-- dir_7c1ec81938689281765afd67c588f2a7 -->
<g id="node4" class="node"><title>dir_7c1ec81938689281765afd67c588f2a7</title>
<g id="a_node4"><a xlink:href="dir_7c1ec81938689281765afd67c588f2a7.html" target="_top" xlink:title="mapviewer">
<polygon fill="white" stroke="red" points="140.348,-108 76.3477,-108 76.3477,-72 140.348,-72 140.348,-108"/>
<text text-anchor="middle" x="108.348" y="-87.5" font-family="Helvetica,sans-Serif" font-size="10.00">mapviewer</text>
</a>
</g>
</g>
<!-- dir_5335ad58122d8b317bc58a7551fc92f8&#45;&gt;dir_7c1ec81938689281765afd67c588f2a7 -->
<g id="edge11" class="edge"><title>dir_5335ad58122d8b317bc58a7551fc92f8&#45;&gt;dir_7c1ec81938689281765afd67c588f2a7</title>
<path fill="none" stroke="black" d="M96.4176,-287.992C67.7454,-266.685 22.4311,-227.185 5.3477,-180 -0.0991059,-164.956 -2.98504,-157.659 5.3477,-144 18.6678,-122.166 44.1742,-108.945 66.4711,-101.169"/>
<polygon fill="black" stroke="black" points="67.6641,-104.462 76.1091,-98.0636 65.5176,-97.7987 67.6641,-104.462"/>
<g id="a_edge11&#45;headlabel"><a xlink:href="dir_000026_000007.html" target="_top" xlink:title="1">
<text text-anchor="middle" x="65.1133" y="-105.766" font-family="Helvetica,sans-Serif" font-size="10.00">1</text>
</a>
</g>
</g>
<!-- dir_416cd9c18b57e0cec85f7c142c9ff32b -->
<g id="node5" class="node"><title>dir_416cd9c18b57e0cec85f7c142c9ff32b</title>
<g id="a_node5"><a xlink:href="dir_416cd9c18b57e0cec85f7c142c9ff32b.html" target="_top" xlink:title="guicontroller">
<polygon fill="none" stroke="black" points="83.5977,-180 15.0977,-180 15.0977,-144 83.5977,-144 83.5977,-180"/>
<text text-anchor="middle" x="49.3477" y="-159.5" font-family="Helvetica,sans-Serif" font-size="10.00">guicontroller</text>
</a>
</g>
</g>
<!-- dir_5335ad58122d8b317bc58a7551fc92f8&#45;&gt;dir_416cd9c18b57e0cec85f7c142c9ff32b -->
<g id="edge12" class="edge"><title>dir_5335ad58122d8b317bc58a7551fc92f8&#45;&gt;dir_416cd9c18b57e0cec85f7c142c9ff32b</title>
<path fill="none" stroke="black" d="M108.378,-287.919C101.055,-277.809 92.0549,-264.559 85.3477,-252 74.599,-231.873 65.0517,-207.822 58.4945,-189.799"/>
<polygon fill="black" stroke="black" points="61.7334,-188.461 55.0817,-180.215 55.139,-190.81 61.7334,-188.461"/>
<g id="a_edge12&#45;headlabel"><a xlink:href="dir_000026_000022.html" target="_top" xlink:title="1">
<text text-anchor="middle" x="65.6139" y="-188.395" font-family="Helvetica,sans-Serif" font-size="10.00">1</text>
</a>
</g>
</g>
<!-- dir_2ae6c1d5e4b832eb120eff875630c108 -->
<g id="node6" class="node"><title>dir_2ae6c1d5e4b832eb120eff875630c108</title>
<g id="a_node6"><a xlink:href="dir_2ae6c1d5e4b832eb120eff875630c108.html" target="_top" xlink:title="viewers">
<polygon fill="none" stroke="black" points="250.348,-180 196.348,-180 196.348,-144 250.348,-144 250.348,-180"/>
<text text-anchor="middle" x="223.348" y="-159.5" font-family="Helvetica,sans-Serif" font-size="10.00">viewers</text>
</a>
</g>
</g>
<!-- dir_5335ad58122d8b317bc58a7551fc92f8&#45;&gt;dir_2ae6c1d5e4b832eb120eff875630c108 -->
<g id="edge13" class="edge"><title>dir_5335ad58122d8b317bc58a7551fc92f8&#45;&gt;dir_2ae6c1d5e4b832eb120eff875630c108</title>
<path fill="none" stroke="black" d="M133.651,-287.871C151.418,-263.137 184.385,-217.242 205.022,-188.512"/>
<polygon fill="black" stroke="black" points="208.009,-190.353 211,-180.189 202.324,-186.269 208.009,-190.353"/>
<g id="a_edge13&#45;headlabel"><a xlink:href="dir_000026_000004.html" target="_top" xlink:title="5">
<text text-anchor="middle" x="208.218" y="-192.429" font-family="Helvetica,sans-Serif" font-size="10.00">5</text>
</a>
</g>
</g>
<!-- dir_e5f84963ccc55302ca6163b928f19348&#45;&gt;dir_cf56009b1fcb470adac12e74ab7406a1 -->
<g id="edge1" class="edge"><title>dir_e5f84963ccc55302ca6163b928f19348&#45;&gt;dir_cf56009b1fcb470adac12e74ab7406a1</title>
<path fill="none" stroke="black" d="M127.414,-215.973C130.937,-205.657 135.273,-192.18 138.348,-180 150.104,-133.437 159.406,-78.2305 164.375,-46.0564"/>
<polygon fill="black" stroke="black" points="167.85,-46.4861 165.892,-36.0739 160.93,-45.4348 167.85,-46.4861"/>
<g id="a_edge1&#45;headlabel"><a xlink:href="dir_000008_000006.html" target="_top" xlink:title="19">
<text text-anchor="middle" x="170.118" y="-47.9663" font-family="Helvetica,sans-Serif" font-size="10.00">19</text>
</a>
</g>
</g>
<!-- dir_e5f84963ccc55302ca6163b928f19348&#45;&gt;dir_7c1ec81938689281765afd67c588f2a7 -->
<g id="edge2" class="edge"><title>dir_e5f84963ccc55302ca6163b928f19348&#45;&gt;dir_7c1ec81938689281765afd67c588f2a7</title>
<path fill="none" stroke="black" d="M115.195,-215.871C110.421,-191.67 106.059,-147.211 105.397,-118.393"/>
<polygon fill="black" stroke="black" points="108.895,-118.166 105.33,-108.189 101.895,-118.212 108.895,-118.166"/>
<g id="a_edge2&#45;headlabel"><a xlink:href="dir_000008_000007.html" target="_top" xlink:title="1">
<text text-anchor="middle" x="111.758" y="-119.243" font-family="Helvetica,sans-Serif" font-size="10.00">1</text>
</a>
</g>
</g>
<!-- dir_e5f84963ccc55302ca6163b928f19348&#45;&gt;dir_416cd9c18b57e0cec85f7c142c9ff32b -->
<g id="edge3" class="edge"><title>dir_e5f84963ccc55302ca6163b928f19348&#45;&gt;dir_416cd9c18b57e0cec85f7c142c9ff32b</title>
<path fill="none" stroke="black" d="M97.6342,-215.697C88.0408,-207.22 77.2016,-196.864 68.1557,-187.583"/>
<polygon fill="black" stroke="black" points="70.4727,-184.94 61.0457,-180.104 65.3996,-189.763 70.4727,-184.94"/>
<g id="a_edge3&#45;headlabel"><a xlink:href="dir_000008_000022.html" target="_top" xlink:title="1">
<text text-anchor="middle" x="75.0071" y="-183.089" font-family="Helvetica,sans-Serif" font-size="10.00">1</text>
</a>
</g>
</g>
<!-- dir_e5f84963ccc55302ca6163b928f19348&#45;&gt;dir_2ae6c1d5e4b832eb120eff875630c108 -->
<g id="edge4" class="edge"><title>dir_e5f84963ccc55302ca6163b928f19348&#45;&gt;dir_2ae6c1d5e4b832eb120eff875630c108</title>
<path fill="none" stroke="black" d="M140.645,-215.697C153.966,-205.858 171.902,-193.489 187.721,-183.207"/>
<polygon fill="black" stroke="black" points="189.72,-186.082 196.249,-177.738 185.942,-180.19 189.72,-186.082"/>
<g id="a_edge4&#45;headlabel"><a xlink:href="dir_000008_000004.html" target="_top" xlink:title="10">
<text text-anchor="middle" x="188.227" y="-187.913" font-family="Helvetica,sans-Serif" font-size="10.00">10</text>
</a>
</g>
</g>
<!-- dir_7c1ec81938689281765afd67c588f2a7&#45;&gt;dir_e5f84963ccc55302ca6163b928f19348 -->
<g id="edge5" class="edge"><title>dir_7c1ec81938689281765afd67c588f2a7&#45;&gt;dir_e5f84963ccc55302ca6163b928f19348</title>
<path fill="none" stroke="black" d="M114.512,-108.189C119.286,-132.424 123.644,-176.888 124.301,-205.679"/>
<polygon fill="black" stroke="black" points="120.802,-205.894 124.364,-215.871 127.802,-205.85 120.802,-205.894"/>
<g id="a_edge5&#45;headlabel"><a xlink:href="dir_000007_000008.html" target="_top" xlink:title="3">
<text text-anchor="middle" x="117.94" y="-199.817" font-family="Helvetica,sans-Serif" font-size="10.00">3</text>
</a>
</g>
</g>
<!-- dir_7c1ec81938689281765afd67c588f2a7&#45;&gt;dir_cf56009b1fcb470adac12e74ab7406a1 -->
<g id="edge6" class="edge"><title>dir_7c1ec81938689281765afd67c588f2a7&#45;&gt;dir_cf56009b1fcb470adac12e74ab7406a1</title>
<path fill="none" stroke="black" d="M123.179,-71.6966C130.372,-63.3046 139.144,-53.0705 147.038,-43.8613"/>
<polygon fill="black" stroke="black" points="149.836,-45.9747 153.687,-36.1043 144.521,-41.4191 149.836,-45.9747"/>
<g id="a_edge6&#45;headlabel"><a xlink:href="dir_000007_000006.html" target="_top" xlink:title="1">
<text text-anchor="middle" x="149.653" y="-48.0517" font-family="Helvetica,sans-Serif" font-size="10.00">1</text>
</a>
</g>
</g>
<!-- dir_416cd9c18b57e0cec85f7c142c9ff32b&#45;&gt;dir_e5f84963ccc55302ca6163b928f19348 -->
<g id="edge7" class="edge"><title>dir_416cd9c18b57e0cec85f7c142c9ff32b&#45;&gt;dir_e5f84963ccc55302ca6163b928f19348</title>
<path fill="none" stroke="black" d="M72.8358,-180.104C82.4095,-188.552 93.2528,-198.901 102.327,-208.199"/>
<polygon fill="black" stroke="black" points="100.035,-210.868 109.466,-215.697 105.105,-206.041 100.035,-210.868"/>
<g id="a_edge7&#45;headlabel"><a xlink:href="dir_000022_000008.html" target="_top" xlink:title="5">
<text text-anchor="middle" x="95.5002" y="-207.723" font-family="Helvetica,sans-Serif" font-size="10.00">5</text>
</a>
</g>
</g>
<!-- dir_416cd9c18b57e0cec85f7c142c9ff32b&#45;&gt;dir_7c1ec81938689281765afd67c588f2a7 -->
<g id="edge8" class="edge"><title>dir_416cd9c18b57e0cec85f7c142c9ff32b&#45;&gt;dir_7c1ec81938689281765afd67c588f2a7</title>
<path fill="none" stroke="black" d="M63.932,-143.697C71.0053,-135.305 79.6311,-125.07 87.3931,-115.861"/>
<polygon fill="black" stroke="black" points="90.1626,-118.006 93.9312,-108.104 84.8102,-113.495 90.1626,-118.006"/>
<g id="a_edge8&#45;headlabel"><a xlink:href="dir_000022_000007.html" target="_top" xlink:title="1">
<text text-anchor="middle" x="90.017" y="-120.085" font-family="Helvetica,sans-Serif" font-size="10.00">1</text>
</a>
</g>
</g>
<!-- dir_2ae6c1d5e4b832eb120eff875630c108&#45;&gt;dir_e5f84963ccc55302ca6163b928f19348 -->
<g id="edge14" class="edge"><title>dir_2ae6c1d5e4b832eb120eff875630c108&#45;&gt;dir_e5f84963ccc55302ca6163b928f19348</title>
<path fill="none" stroke="black" d="M204.406,-180.04C191.111,-189.875 173.101,-202.305 157.193,-212.651"/>
<polygon fill="black" stroke="black" points="155.142,-209.809 148.615,-218.155 158.922,-215.7 155.142,-209.809"/>
<g id="a_edge14&#45;headlabel"><a xlink:href="dir_000004_000008.html" target="_top" xlink:title="20">
<text text-anchor="middle" x="156.634" y="-202.978" font-family="Helvetica,sans-Serif" font-size="10.00">20</text>
</a>
</g>
</g>
</g>
</svg>
