<?xml version="1.0" encoding="UTF-8" standalone="no"?>
<!DOCTYPE svg PUBLIC "-//W3C//DTD SVG 1.1//EN"
 "http://www.w3.org/Graphics/SVG/1.1/DTD/svg11.dtd">
<!-- Generated by graphviz version 2.36.0 (20140111.2315)
 -->
<!-- Title: behaviour Pages: 1 -->
<svg width="406pt" height="183pt"
 viewBox="0.00 0.00 406.00 183.00" xmlns="http://www.w3.org/2000/svg" xmlns:xlink="http://www.w3.org/1999/xlink">
<g id="graph0" class="graph" transform="scale(1 1) rotate(0) translate(4 179)">
<title>behaviour</title>
<polygon fill="white" stroke="none" points="-4,4 -4,-179 402,-179 402,4 -4,4"/>
<g id="clust1" class="cluster"><title>clusterdir_a2a8aff9b00c67914e6daf05d7173af9</title>
<g id="a_clust1"><a xlink:href="dir_a2a8aff9b00c67914e6daf05d7173af9.html" target="_top" xlink:title="cpp">
<polygon fill="#ddddee" stroke="black" points="8,-8 8,-167 336,-167 336,-8 8,-8"/>
<text text-anchor="middle" x="172" y="-155" font-family="Helvetica,sans-Serif" font-size="10.00">cpp</text>
</a>
</g>
</g>
<g id="clust2" class="cluster"><title>clusterdir_daae16215ac7def5c531522e1dfab593</title>
<g id="a_clust2"><a xlink:href="dir_daae16215ac7def5c531522e1dfab593.html" target="_top">
<polygon fill="#eeeeff" stroke="black" points="16,-16 16,-140 328,-140 328,-16 16,-16"/>
</a>
</g>
</g>
<!-- dir_daae16215ac7def5c531522e1dfab593 -->
<g id="node1" class="node"><title>dir_daae16215ac7def5c531522e1dfab593</title>
<text text-anchor="middle" x="290" y="-111.5" font-family="Helvetica,sans-Serif" font-size="10.00">behaviour</text>
</g>
<!-- dir_d37f885605a0d18b58fa0cf77723ad22 -->
<g id="node3" class="node"><title>dir_d37f885605a0d18b58fa0cf77723ad22</title>
<g id="a_node3"><a xlink:href="dir_d37f885605a0d18b58fa0cf77723ad22.html" target="_top" xlink:title="belief_policies">
<polygon fill="white" stroke="black" points="320,-60 242,-60 242,-24 320,-24 320,-60"/>
<text text-anchor="middle" x="281" y="-39.5" font-family="Helvetica,sans-Serif" font-size="10.00">belief_policies</text>
</a>
</g>
</g>
<!-- dir_daae16215ac7def5c531522e1dfab593&#45;&gt;dir_d37f885605a0d18b58fa0cf77723ad22 -->
<g id="edge1" class="edge"><title>dir_daae16215ac7def5c531522e1dfab593&#45;&gt;dir_d37f885605a0d18b58fa0cf77723ad22</title>
<path fill="none" stroke="black" d="M287.775,-95.6966C286.783,-87.9827 285.592,-78.7125 284.486,-70.1124"/>
<polygon fill="black" stroke="black" points="287.946,-69.5763 283.199,-60.1043 281.003,-70.469 287.946,-69.5763"/>
<g id="a_edge1&#45;headlabel"><a xlink:href="dir_000009_000010.html" target="_top" xlink:title="2">
<text text-anchor="middle" x="291.22" y="-70.2796" font-family="Helvetica,sans-Serif" font-size="10.00">2</text>
</a>
</g>
</g>
<!-- dir_cf56009b1fcb470adac12e74ab7406a1 -->
<g id="node5" class="node"><title>dir_cf56009b1fcb470adac12e74ab7406a1</title>
<g id="a_node5"><a xlink:href="dir_cf56009b1fcb470adac12e74ab7406a1.html" target="_top" xlink:title="util">
<polygon fill="none" stroke="black" points="398,-60 344,-60 344,-24 398,-24 398,-60"/>
<text text-anchor="middle" x="371" y="-39.5" font-family="Helvetica,sans-Serif" font-size="10.00">util</text>
</a>
</g>
</g>
<!-- dir_daae16215ac7def5c531522e1dfab593&#45;&gt;dir_cf56009b1fcb470adac12e74ab7406a1 -->
<g id="edge2" class="edge"><title>dir_daae16215ac7def5c531522e1dfab593&#45;&gt;dir_cf56009b1fcb470adac12e74ab7406a1</title>
<path fill="none" stroke="black" d="M310.022,-95.6966C320.126,-86.9655 332.536,-76.2405 343.518,-66.7503"/>
<polygon fill="black" stroke="black" points="345.93,-69.2912 351.208,-60.1043 341.353,-63.9948 345.93,-69.2912"/>
<g id="a_edge2&#45;headlabel"><a xlink:href="dir_000009_000006.html" target="_top" xlink:title="2">
<text text-anchor="middle" x="345.067" y="-71.2897" font-family="Helvetica,sans-Serif" font-size="10.00">2</text>
</a>
</g>
</g>
<!-- dir_d174127a4330655b353181aebfd9b441 -->
<g id="node6" class="node"><title>dir_d174127a4330655b353181aebfd9b441</title>
<g id="a_node6"><a xlink:href="dir_d174127a4330655b353181aebfd9b441.html" target="_top" xlink:title="pop">
<polygon fill="none" stroke="black" points="398,-132 344,-132 344,-96 398,-96 398,-132"/>
<text text-anchor="middle" x="371" y="-111.5" font-family="Helvetica,sans-Serif" font-size="10.00">pop</text>
</a>
</g>
</g>
<!-- dir_daae16215ac7def5c531522e1dfab593&#45;&gt;dir_d174127a4330655b353181aebfd9b441 -->
<g id="edge3" class="edge"><title>dir_daae16215ac7def5c531522e1dfab593&#45;&gt;dir_d174127a4330655b353181aebfd9b441</title>
<path fill="none" stroke="black" d="M319.426,-114C324.085,-114 328.743,-114 333.402,-114"/>
<polygon fill="black" stroke="black" points="333.601,-117.5 343.601,-114 333.601,-110.5 333.601,-117.5"/>
<g id="a_edge3&#45;headlabel"><a xlink:href="dir_000009_000002.html" target="_top" xlink:title="1">
<text text-anchor="middle" x="330.007" y="-117.839" font-family="Helvetica,sans-Serif" font-size="10.00">1</text>
</a>
</g>
</g>
<!-- dir_6619f542450013781d0ff5d08067d16d -->
<g id="node2" class="node"><title>dir_6619f542450013781d0ff5d08067d16d</title>
<g id="a_node2"><a xlink:href="dir_6619f542450013781d0ff5d08067d16d.html" target="_top" xlink:title="behaviour_policies">
<polygon fill="white" stroke="black" points="242.25,-132 145.75,-132 145.75,-96 242.25,-96 242.25,-132"/>
<text text-anchor="middle" x="194" y="-111.5" font-family="Helvetica,sans-Serif" font-size="10.00">behaviour_policies</text>
</a>
</g>
</g>
<!-- dir_697403cd96b9981a35e127a5a5c069d8 -->
<g id="node4" class="node"><title>dir_697403cd96b9981a35e127a5a5c069d8</title>
<g id="a_node4"><a xlink:href="dir_697403cd96b9981a35e127a5a5c069d8.html" target="_top" xlink:title="information_policies">
<polygon fill="white" stroke="black" points="127.25,-132 24.75,-132 24.75,-96 127.25,-96 127.25,-132"/>
<text text-anchor="middle" x="76" y="-111.5" font-family="Helvetica,sans-Serif" font-size="10.00">information_policies</text>
</a>
</g>
</g>
<!-- dir_d174127a4330655b353181aebfd9b441&#45;&gt;dir_daae16215ac7def5c531522e1dfab593 -->
<g id="edge4" class="edge"><title>dir_d174127a4330655b353181aebfd9b441&#45;&gt;dir_daae16215ac7def5c531522e1dfab593</title>
<path fill="none" stroke="black" d="M343.601,-114C338.942,-114 334.284,-114 329.625,-114"/>
<polygon fill="black" stroke="black" points="329.426,-110.5 319.426,-114 329.426,-117.5 329.426,-110.5"/>
<g id="a_edge4&#45;headlabel"><a xlink:href="dir_000002_000009.html" target="_top" xlink:title="2">
<text text-anchor="middle" x="333.02" y="-105.161" font-family="Helvetica,sans-Serif" font-size="10.00">2</text>
</a>
</g>
</g>
<!-- dir_d174127a4330655b353181aebfd9b441&#45;&gt;dir_d37f885605a0d18b58fa0cf77723ad22 -->
<g id="edge5" class="edge"><title>dir_d174127a4330655b353181aebfd9b441&#45;&gt;dir_d37f885605a0d18b58fa0cf77723ad22</title>
<path fill="none" stroke="black" d="M348.753,-95.6966C337.418,-86.8807 323.47,-76.0321 311.181,-66.4742"/>
<polygon fill="black" stroke="black" points="313.034,-63.481 302.991,-60.1043 308.736,-69.0065 313.034,-63.481"/>
<g id="a_edge5&#45;headlabel"><a xlink:href="dir_000002_000010.html" target="_top" xlink:title="2">
<text text-anchor="middle" x="317.614" y="-60.9467" font-family="Helvetica,sans-Serif" font-size="10.00">2</text>
</a>
</g>
</g>
<!-- dir_d174127a4330655b353181aebfd9b441&#45;&gt;dir_cf56009b1fcb470adac12e74ab7406a1 -->
<g id="edge6" class="edge"><title>dir_d174127a4330655b353181aebfd9b441&#45;&gt;dir_cf56009b1fcb470adac12e74ab7406a1</title>
<path fill="none" stroke="black" d="M371,-95.6966C371,-87.9827 371,-78.7125 371,-70.1124"/>
<polygon fill="black" stroke="black" points="374.5,-70.1043 371,-60.1043 367.5,-70.1044 374.5,-70.1043"/>
<g id="a_edge6&#45;headlabel"><a xlink:href="dir_000002_000006.html" target="_top" xlink:title="24">
<text text-anchor="middle" x="377.339" y="-71.199" font-family="Helvetica,sans-Serif" font-size="10.00">24</text>
</a>
</g>
</g>
</g>
</svg>
