<?xml version="1.0" encoding="UTF-8" standalone="no"?>
<!DOCTYPE svg PUBLIC "-//W3C//DTD SVG 1.1//EN"
 "http://www.w3.org/Graphics/SVG/1.1/DTD/svg11.dtd">
<!-- Generated by graphviz version 2.36.0 (20140111.2315)
 -->
<!-- Title: viewers Pages: 1 -->
<svg width="208pt" height="223pt"
 viewBox="0.00 0.00 208.00 223.00" xmlns="http://www.w3.org/2000/svg" xmlns:xlink="http://www.w3.org/1999/xlink">
<g id="graph0" class="graph" transform="scale(1 1) rotate(0) translate(4 219)">
<title>viewers</title>
<polygon fill="white" stroke="none" points="-4,4 -4,-219 204,-219 204,4 -4,4"/>
<g id="clust1" class="cluster"><title>clusterdir_a2a8aff9b00c67914e6daf05d7173af9</title>
<g id="a_clust1"><a xlink:href="dir_a2a8aff9b00c67914e6daf05d7173af9.html" target="_top" xlink:title="cpp">
<polygon fill="#ddddee" stroke="black" points="74,-136 74,-207 144,-207 144,-136 74,-136"/>
<text text-anchor="middle" x="109" y="-195" font-family="Helvetica,sans-Serif" font-size="10.00">cpp</text>
</a>
</g>
</g>
<!-- dir_2ae6c1d5e4b832eb120eff875630c108 -->
<g id="node1" class="node"><title>dir_2ae6c1d5e4b832eb120eff875630c108</title>
<g id="a_node1"><a xlink:href="dir_2ae6c1d5e4b832eb120eff875630c108.html" target="_top" xlink:title="viewers">
<polygon fill="#eeeeff" stroke="black" points="136,-180 82,-180 82,-144 136,-144 136,-180"/>
<text text-anchor="middle" x="109" y="-159.5" font-family="Helvetica,sans-Serif" font-size="10.00">viewers</text>
</a>
</g>
</g>
<!-- dir_e5f84963ccc55302ca6163b928f19348 -->
<g id="node2" class="node"><title>dir_e5f84963ccc55302ca6163b928f19348</title>
<g id="a_node2"><a xlink:href="dir_e5f84963ccc55302ca6163b928f19348.html" target="_top" xlink:title="sim">
<polygon fill="white" stroke="red" points="164,-108 110,-108 110,-72 164,-72 164,-108"/>
<text text-anchor="middle" x="137" y="-87.5" font-family="Helvetica,sans-Serif" font-size="10.00">sim</text>
</a>
</g>
</g>
<!-- dir_2ae6c1d5e4b832eb120eff875630c108&#45;&gt;dir_e5f84963ccc55302ca6163b928f19348 -->
<g id="edge4" class="edge"><title>dir_2ae6c1d5e4b832eb120eff875630c108&#45;&gt;dir_e5f84963ccc55302ca6163b928f19348</title>
<path fill="none" stroke="black" d="M110.006,-143.697C112.371,-135.728 116.008,-126.1 119.935,-117.264"/>
<polygon fill="black" stroke="black" points="123.155,-118.641 124.263,-108.104 116.826,-115.65 123.155,-118.641"/>
<g id="a_edge4&#45;headlabel"><a xlink:href="dir_000004_000008.html" target="_top" xlink:title="20">
<text text-anchor="middle" x="124.187" y="-120.604" font-family="Helvetica,sans-Serif" font-size="10.00">20</text>
</a>
</g>
</g>
<!-- dir_b358e65754510cda43fac14f1ca8bfd9 -->
<g id="node3" class="node"><title>dir_b358e65754510cda43fac14f1ca8bfd9</title>
<g id="a_node3"><a xlink:href="dir_b358e65754510cda43fac14f1ca8bfd9.html" target="_top" xlink:title="output">
<polygon fill="none" stroke="black" points="54,-108 0,-108 0,-72 54,-72 54,-108"/>
<text text-anchor="middle" x="27" y="-87.5" font-family="Helvetica,sans-Serif" font-size="10.00">output</text>
</a>
</g>
</g>
<!-- dir_2ae6c1d5e4b832eb120eff875630c108&#45;&gt;dir_b358e65754510cda43fac14f1ca8bfd9 -->
<g id="edge5" class="edge"><title>dir_2ae6c1d5e4b832eb120eff875630c108&#45;&gt;dir_b358e65754510cda43fac14f1ca8bfd9</title>
<path fill="none" stroke="black" d="M88.7303,-143.697C78.5024,-134.965 65.9389,-124.24 54.8218,-114.75"/>
<polygon fill="black" stroke="black" points="56.9146,-111.935 47.0365,-108.104 52.3697,-117.259 56.9146,-111.935"/>
<g id="a_edge5&#45;headlabel"><a xlink:href="dir_000004_000003.html" target="_top" xlink:title="4">
<text text-anchor="middle" x="61.4919" y="-109.609" font-family="Helvetica,sans-Serif" font-size="10.00">4</text>
</a>
</g>
</g>
<!-- dir_d174127a4330655b353181aebfd9b441 -->
<g id="node4" class="node"><title>dir_d174127a4330655b353181aebfd9b441</title>
<g id="a_node4"><a xlink:href="dir_d174127a4330655b353181aebfd9b441.html" target="_top" xlink:title="pop">
<polygon fill="none" stroke="black" points="109,-36 55,-36 55,-0 109,-0 109,-36"/>
<text text-anchor="middle" x="82" y="-15.5" font-family="Helvetica,sans-Serif" font-size="10.00">pop</text>
</a>
</g>
</g>
<!-- dir_2ae6c1d5e4b832eb120eff875630c108&#45;&gt;dir_d174127a4330655b353181aebfd9b441 -->
<g id="edge6" class="edge"><title>dir_2ae6c1d5e4b832eb120eff875630c108&#45;&gt;dir_d174127a4330655b353181aebfd9b441</title>
<path fill="none" stroke="black" d="M105.743,-143.871C101.142,-119.67 92.688,-75.2108 87.2086,-46.3932"/>
<polygon fill="black" stroke="black" points="90.5748,-45.3594 85.2684,-36.1893 83.698,-46.6671 90.5748,-45.3594"/>
<g id="a_edge6&#45;headlabel"><a xlink:href="dir_000004_000002.html" target="_top" xlink:title="4">
<text text-anchor="middle" x="94.0355" y="-45.8605" font-family="Helvetica,sans-Serif" font-size="10.00">4</text>
</a>
</g>
</g>
<!-- dir_479f5232607056a987532404314b00ea -->
<g id="node5" class="node"><title>dir_479f5232607056a987532404314b00ea</title>
<g id="a_node5"><a xlink:href="dir_479f5232607056a987532404314b00ea.html" target="_top" xlink:title="calendar">
<polygon fill="none" stroke="black" points="200,-36 146,-36 146,-0 200,-0 200,-36"/>
<text text-anchor="middle" x="173" y="-15.5" font-family="Helvetica,sans-Serif" font-size="10.00">calendar</text>
</a>
</g>
</g>
<!-- dir_2ae6c1d5e4b832eb120eff875630c108&#45;&gt;dir_479f5232607056a987532404314b00ea -->
<g id="edge7" class="edge"><title>dir_2ae6c1d5e4b832eb120eff875630c108&#45;&gt;dir_479f5232607056a987532404314b00ea</title>
<path fill="none" stroke="black" d="M136.096,-146.388C149.887,-137.337 165.326,-124.319 173,-108 182.014,-88.8309 181.374,-64.6689 178.834,-46.3591"/>
<polygon fill="black" stroke="black" points="182.262,-45.6323 177.178,-36.3368 175.355,-46.7737 182.262,-45.6323"/>
<g id="a_edge7&#45;headlabel"><a xlink:href="dir_000004_000012.html" target="_top" xlink:title="1">
<text text-anchor="middle" x="185.649" y="-46.216" font-family="Helvetica,sans-Serif" font-size="10.00">1</text>
</a>
</g>
</g>
<!-- dir_e5f84963ccc55302ca6163b928f19348&#45;&gt;dir_2ae6c1d5e4b832eb120eff875630c108 -->
<g id="edge1" class="edge"><title>dir_e5f84963ccc55302ca6163b928f19348&#45;&gt;dir_2ae6c1d5e4b832eb120eff875630c108</title>
<path fill="none" stroke="black" d="M136.053,-108.104C133.709,-116.045 130.085,-125.666 126.163,-134.515"/>
<polygon fill="black" stroke="black" points="122.933,-133.159 121.837,-143.697 129.266,-136.142 122.933,-133.159"/>
<g id="a_edge1&#45;headlabel"><a xlink:href="dir_000008_000004.html" target="_top" xlink:title="10">
<text text-anchor="middle" x="121.897" y="-126.197" font-family="Helvetica,sans-Serif" font-size="10.00">10</text>
</a>
</g>
</g>
<!-- dir_e5f84963ccc55302ca6163b928f19348&#45;&gt;dir_d174127a4330655b353181aebfd9b441 -->
<g id="edge2" class="edge"><title>dir_e5f84963ccc55302ca6163b928f19348&#45;&gt;dir_d174127a4330655b353181aebfd9b441</title>
<path fill="none" stroke="black" d="M123.404,-71.6966C116.877,-63.3893 108.932,-53.2771 101.753,-44.1407"/>
<polygon fill="black" stroke="black" points="104.369,-41.8051 95.4391,-36.1043 98.8653,-46.1299 104.369,-41.8051"/>
<g id="a_edge2&#45;headlabel"><a xlink:href="dir_000008_000002.html" target="_top" xlink:title="4">
<text text-anchor="middle" x="108.823" y="-40.3775" font-family="Helvetica,sans-Serif" font-size="10.00">4</text>
</a>
</g>
</g>
<!-- dir_e5f84963ccc55302ca6163b928f19348&#45;&gt;dir_479f5232607056a987532404314b00ea -->
<g id="edge3" class="edge"><title>dir_e5f84963ccc55302ca6163b928f19348&#45;&gt;dir_479f5232607056a987532404314b00ea</title>
<path fill="none" stroke="black" d="M145.899,-71.6966C149.997,-63.7284 154.949,-54.0995 159.493,-45.2641"/>
<polygon fill="black" stroke="black" points="162.742,-46.598 164.203,-36.1043 156.517,-43.3965 162.742,-46.598"/>
<g id="a_edge3&#45;headlabel"><a xlink:href="dir_000008_000012.html" target="_top" xlink:title="2">
<text text-anchor="middle" x="163.623" y="-48.5931" font-family="Helvetica,sans-Serif" font-size="10.00">2</text>
</a>
</g>
</g>
<!-- dir_b358e65754510cda43fac14f1ca8bfd9&#45;&gt;dir_d174127a4330655b353181aebfd9b441 -->
<g id="edge8" class="edge"><title>dir_b358e65754510cda43fac14f1ca8bfd9&#45;&gt;dir_d174127a4330655b353181aebfd9b441</title>
<path fill="none" stroke="black" d="M40.5955,-71.6966C47.1227,-63.3893 55.068,-53.2771 62.2466,-44.1407"/>
<polygon fill="black" stroke="black" points="65.1347,-46.1299 68.5609,-36.1043 59.6305,-41.8051 65.1347,-46.1299"/>
<g id="a_edge8&#45;headlabel"><a xlink:href="dir_000003_000002.html" target="_top" xlink:title="1">
<text text-anchor="middle" x="65.1465" y="-48.2106" font-family="Helvetica,sans-Serif" font-size="10.00">1</text>
</a>
</g>
</g>
</g>
</svg>
