<?xml version="1.0" encoding="UTF-8" standalone="no"?>
<!DOCTYPE svg PUBLIC "-//W3C//DTD SVG 1.1//EN"
 "http://www.w3.org/Graphics/SVG/1.1/DTD/svg11.dtd">
<!-- Generated by graphviz version 2.36.0 (20140111.2315)
 -->
<!-- Title: guicontroller Pages: 1 -->
<svg width="166pt" height="223pt"
 viewBox="0.00 0.00 166.00 223.00" xmlns="http://www.w3.org/2000/svg" xmlns:xlink="http://www.w3.org/1999/xlink">
<g id="graph0" class="graph" transform="scale(1 1) rotate(0) translate(4 219)">
<title>guicontroller</title>
<polygon fill="white" stroke="none" points="-4,4 -4,-219 162,-219 162,4 -4,4"/>
<g id="clust1" class="cluster"><title>clusterdir_a2a8aff9b00c67914e6daf05d7173af9</title>
<g id="a_clust1"><a xlink:href="dir_a2a8aff9b00c67914e6daf05d7173af9.html" target="_top" xlink:title="cpp">
<polygon fill="#ddddee" stroke="black" points="8,-136 8,-207 94,-207 94,-136 8,-136"/>
<text text-anchor="middle" x="51" y="-195" font-family="Helvetica,sans-Serif" font-size="10.00">cpp</text>
</a>
</g>
</g>
<!-- dir_416cd9c18b57e0cec85f7c142c9ff32b -->
<g id="node1" class="node"><title>dir_416cd9c18b57e0cec85f7c142c9ff32b</title>
<g id="a_node1"><a xlink:href="dir_416cd9c18b57e0cec85f7c142c9ff32b.html" target="_top" xlink:title="guicontroller">
<polygon fill="#eeeeff" stroke="black" points="85.25,-180 16.75,-180 16.75,-144 85.25,-144 85.25,-180"/>
<text text-anchor="middle" x="51" y="-159.5" font-family="Helvetica,sans-Serif" font-size="10.00">guicontroller</text>
</a>
</g>
</g>
<!-- dir_e5f84963ccc55302ca6163b928f19348 -->
<g id="node2" class="node"><title>dir_e5f84963ccc55302ca6163b928f19348</title>
<g id="a_node2"><a xlink:href="dir_e5f84963ccc55302ca6163b928f19348.html" target="_top" xlink:title="sim">
<polygon fill="white" stroke="red" points="158,-180 104,-180 104,-144 158,-144 158,-180"/>
<text text-anchor="middle" x="131" y="-159.5" font-family="Helvetica,sans-Serif" font-size="10.00">sim</text>
</a>
</g>
</g>
<!-- dir_416cd9c18b57e0cec85f7c142c9ff32b&#45;&gt;dir_e5f84963ccc55302ca6163b928f19348 -->
<g id="edge6" class="edge"><title>dir_416cd9c18b57e0cec85f7c142c9ff32b&#45;&gt;dir_e5f84963ccc55302ca6163b928f19348</title>
<path fill="none" stroke="black" d="M85.375,-162C88.1746,-162 90.9742,-162 93.7737,-162"/>
<polygon fill="black" stroke="black" points="93.9102,-165.5 103.91,-162 93.9101,-158.5 93.9102,-165.5"/>
<g id="a_edge6&#45;headlabel"><a xlink:href="dir_000022_000008.html" target="_top" xlink:title="5">
<text text-anchor="middle" x="90.3155" y="-165.839" font-family="Helvetica,sans-Serif" font-size="10.00">5</text>
</a>
</g>
</g>
<!-- dir_7c1ec81938689281765afd67c588f2a7 -->
<g id="node3" class="node"><title>dir_7c1ec81938689281765afd67c588f2a7</title>
<g id="a_node3"><a xlink:href="dir_7c1ec81938689281765afd67c588f2a7.html" target="_top" xlink:title="mapviewer">
<polygon fill="white" stroke="red" points="143,-108 79,-108 79,-72 143,-72 143,-108"/>
<text text-anchor="middle" x="111" y="-87.5" font-family="Helvetica,sans-Serif" font-size="10.00">mapviewer</text>
</a>
</g>
</g>
<!-- dir_416cd9c18b57e0cec85f7c142c9ff32b&#45;&gt;dir_7c1ec81938689281765afd67c588f2a7 -->
<g id="edge7" class="edge"><title>dir_416cd9c18b57e0cec85f7c142c9ff32b&#45;&gt;dir_7c1ec81938689281765afd67c588f2a7</title>
<path fill="none" stroke="black" d="M65.8315,-143.697C73.0247,-135.305 81.7967,-125.07 89.6903,-115.861"/>
<polygon fill="black" stroke="black" points="92.4886,-117.975 96.3391,-108.104 87.1738,-113.419 92.4886,-117.975"/>
<g id="a_edge7&#45;headlabel"><a xlink:href="dir_000022_000007.html" target="_top" xlink:title="1">
<text text-anchor="middle" x="92.305" y="-120.052" font-family="Helvetica,sans-Serif" font-size="10.00">1</text>
</a>
</g>
</g>
<!-- dir_179761493184668a345a1ae0c0ebebb4 -->
<g id="node4" class="node"><title>dir_179761493184668a345a1ae0c0ebebb4</title>
<g id="a_node4"><a xlink:href="dir_179761493184668a345a1ae0c0ebebb4.html" target="_top" xlink:title="gengeopop">
<polygon fill="white" stroke="red" points="143,-36 79,-36 79,-0 143,-0 143,-36"/>
<text text-anchor="middle" x="111" y="-15.5" font-family="Helvetica,sans-Serif" font-size="10.00">gengeopop</text>
</a>
</g>
</g>
<!-- dir_416cd9c18b57e0cec85f7c142c9ff32b&#45;&gt;dir_179761493184668a345a1ae0c0ebebb4 -->
<g id="edge8" class="edge"><title>dir_416cd9c18b57e0cec85f7c142c9ff32b&#45;&gt;dir_179761493184668a345a1ae0c0ebebb4</title>
<path fill="none" stroke="black" d="M52.3729,-143.885C54.3647,-125.42 59.0954,-95.505 70,-72 74.5531,-62.1858 81.209,-52.5077 87.8389,-44.1619"/>
<polygon fill="black" stroke="black" points="90.6723,-46.229 94.3815,-36.3046 85.2929,-41.7498 90.6723,-46.229"/>
<g id="a_edge8&#45;headlabel"><a xlink:href="dir_000022_000013.html" target="_top" xlink:title="1">
<text text-anchor="middle" x="90.5541" y="-48.3081" font-family="Helvetica,sans-Serif" font-size="10.00">1</text>
</a>
</g>
</g>
<!-- dir_e5f84963ccc55302ca6163b928f19348&#45;&gt;dir_416cd9c18b57e0cec85f7c142c9ff32b -->
<g id="edge3" class="edge"><title>dir_e5f84963ccc55302ca6163b928f19348&#45;&gt;dir_416cd9c18b57e0cec85f7c142c9ff32b</title>
<path fill="none" stroke="black" d="M103.91,-162C101.111,-162 98.311,-162 95.5114,-162"/>
<polygon fill="black" stroke="black" points="95.375,-158.5 85.375,-162 95.375,-165.5 95.375,-158.5"/>
<g id="a_edge3&#45;headlabel"><a xlink:href="dir_000008_000022.html" target="_top" xlink:title="1">
<text text-anchor="middle" x="98.9696" y="-153.161" font-family="Helvetica,sans-Serif" font-size="10.00">1</text>
</a>
</g>
</g>
<!-- dir_e5f84963ccc55302ca6163b928f19348&#45;&gt;dir_7c1ec81938689281765afd67c588f2a7 -->
<g id="edge1" class="edge"><title>dir_e5f84963ccc55302ca6163b928f19348&#45;&gt;dir_7c1ec81938689281765afd67c588f2a7</title>
<path fill="none" stroke="black" d="M120.14,-143.697C117.141,-135.983 114.266,-126.712 112.151,-118.112"/>
<polygon fill="black" stroke="black" points="115.522,-117.141 109.992,-108.104 108.68,-118.618 115.522,-117.141"/>
<g id="a_edge1&#45;headlabel"><a xlink:href="dir_000008_000007.html" target="_top" xlink:title="1">
<text text-anchor="middle" x="119.056" y="-117.556" font-family="Helvetica,sans-Serif" font-size="10.00">1</text>
</a>
</g>
</g>
<!-- dir_e5f84963ccc55302ca6163b928f19348&#45;&gt;dir_179761493184668a345a1ae0c0ebebb4 -->
<g id="edge2" class="edge"><title>dir_e5f84963ccc55302ca6163b928f19348&#45;&gt;dir_179761493184668a345a1ae0c0ebebb4</title>
<path fill="none" stroke="black" d="M140.613,-143.992C149.565,-125.873 160.366,-96.4877 152,-72 148.559,-61.9272 142.34,-52.2841 135.768,-44.0504"/>
<polygon fill="black" stroke="black" points="138.324,-41.6543 129.169,-36.3227 133.001,-46.2001 138.324,-41.6543"/>
<g id="a_edge2&#45;headlabel"><a xlink:href="dir_000008_000013.html" target="_top" xlink:title="4">
<text text-anchor="middle" x="142.818" y="-40.044" font-family="Helvetica,sans-Serif" font-size="10.00">4</text>
</a>
</g>
</g>
<!-- dir_7c1ec81938689281765afd67c588f2a7&#45;&gt;dir_e5f84963ccc55302ca6163b928f19348 -->
<g id="edge4" class="edge"><title>dir_7c1ec81938689281765afd67c588f2a7&#45;&gt;dir_e5f84963ccc55302ca6163b928f19348</title>
<path fill="none" stroke="black" d="M121.782,-108.104C124.784,-115.791 127.666,-125.054 129.794,-133.665"/>
<polygon fill="black" stroke="black" points="126.43,-134.667 131.972,-143.697 133.271,-133.182 126.43,-134.667"/>
<g id="a_edge4&#45;headlabel"><a xlink:href="dir_000007_000008.html" target="_top" xlink:title="3">
<text text-anchor="middle" x="122.893" y="-129.256" font-family="Helvetica,sans-Serif" font-size="10.00">3</text>
</a>
</g>
</g>
<!-- dir_7c1ec81938689281765afd67c588f2a7&#45;&gt;dir_179761493184668a345a1ae0c0ebebb4 -->
<g id="edge5" class="edge"><title>dir_7c1ec81938689281765afd67c588f2a7&#45;&gt;dir_179761493184668a345a1ae0c0ebebb4</title>
<path fill="none" stroke="black" d="M111,-71.6966C111,-63.9827 111,-54.7125 111,-46.1124"/>
<polygon fill="black" stroke="black" points="114.5,-46.1043 111,-36.1043 107.5,-46.1044 114.5,-46.1043"/>
<g id="a_edge5&#45;headlabel"><a xlink:href="dir_000007_000013.html" target="_top" xlink:title="18">
<text text-anchor="middle" x="117.339" y="-47.199" font-family="Helvetica,sans-Serif" font-size="10.00">18</text>
</a>
</g>
</g>
</g>
</svg>
