<?xml version="1.0" encoding="UTF-8" standalone="no"?>
<!DOCTYPE svg PUBLIC "-//W3C//DTD SVG 1.1//EN"
 "http://www.w3.org/Graphics/SVG/1.1/DTD/svg11.dtd">
<!-- Generated by graphviz version 2.36.0 (20140111.2315)
 -->
<!-- Title: io Pages: 1 -->
<svg width="164pt" height="183pt"
 viewBox="0.00 0.00 164.00 183.00" xmlns="http://www.w3.org/2000/svg" xmlns:xlink="http://www.w3.org/1999/xlink">
<g id="graph0" class="graph" transform="scale(1 1) rotate(0) translate(4 179)">
<title>io</title>
<polygon fill="white" stroke="none" points="-4,4 -4,-179 160,-179 160,4 -4,4"/>
<g id="clust1" class="cluster"><title>clusterdir_179761493184668a345a1ae0c0ebebb4</title>
<g id="a_clust1"><a xlink:href="dir_179761493184668a345a1ae0c0ebebb4.html" target="_top" xlink:title="gengeopop">
<polygon fill="#ddddee" stroke="black" points="8,-8 8,-167 94,-167 94,-8 8,-8"/>
<text text-anchor="middle" x="51" y="-155" font-family="Helvetica,sans-Serif" font-size="10.00">gengeopop</text>
</a>
</g>
</g>
<g id="clust2" class="cluster"><title>clusterdir_55739d37f413ef1c85848467d9dce641</title>
<g id="a_clust2"><a xlink:href="dir_55739d37f413ef1c85848467d9dce641.html" target="_top">
<polygon fill="#eeeeff" stroke="black" points="16,-16 16,-140 86,-140 86,-16 16,-16"/>
</a>
</g>
</g>
<!-- dir_55739d37f413ef1c85848467d9dce641 -->
<g id="node1" class="node"><title>dir_55739d37f413ef1c85848467d9dce641</title>
<text text-anchor="middle" x="51" y="-111.5" font-family="Helvetica,sans-Serif" font-size="10.00">io</text>
</g>
<!-- dir_b6864475f1c919d7368cbca5f4eec6e7 -->
<g id="node2" class="node"><title>dir_b6864475f1c919d7368cbca5f4eec6e7</title>
<g id="a_node2"><a xlink:href="dir_b6864475f1c919d7368cbca5f4eec6e7.html" target="_top" xlink:title="proto">
<polygon fill="white" stroke="black" points="78,-60 24,-60 24,-24 78,-24 78,-60"/>
<text text-anchor="middle" x="51" y="-39.5" font-family="Helvetica,sans-Serif" font-size="10.00">proto</text>
</a>
</g>
</g>
<!-- dir_55739d37f413ef1c85848467d9dce641&#45;&gt;dir_b6864475f1c919d7368cbca5f4eec6e7 -->
<g id="edge2" class="edge"><title>dir_55739d37f413ef1c85848467d9dce641&#45;&gt;dir_b6864475f1c919d7368cbca5f4eec6e7</title>
<path fill="none" stroke="black" d="M51,-95.6966C51,-87.9827 51,-78.7125 51,-70.1124"/>
<polygon fill="black" stroke="black" points="54.5001,-70.1043 51,-60.1043 47.5001,-70.1044 54.5001,-70.1043"/>
<g id="a_edge2&#45;headlabel"><a xlink:href="dir_000014_000021.html" target="_top" xlink:title="4">
<text text-anchor="middle" x="57.3393" y="-71.199" font-family="Helvetica,sans-Serif" font-size="10.00">4</text>
</a>
</g>
</g>
<!-- dir_cf56009b1fcb470adac12e74ab7406a1 -->
<g id="node3" class="node"><title>dir_cf56009b1fcb470adac12e74ab7406a1</title>
<g id="a_node3"><a xlink:href="dir_cf56009b1fcb470adac12e74ab7406a1.html" target="_top" xlink:title="util">
<polygon fill="none" stroke="black" points="156,-60 102,-60 102,-24 156,-24 156,-60"/>
<text text-anchor="middle" x="129" y="-39.5" font-family="Helvetica,sans-Serif" font-size="10.00">util</text>
</a>
</g>
</g>
<!-- dir_55739d37f413ef1c85848467d9dce641&#45;&gt;dir_cf56009b1fcb470adac12e74ab7406a1 -->
<g id="edge1" class="edge"><title>dir_55739d37f413ef1c85848467d9dce641&#45;&gt;dir_cf56009b1fcb470adac12e74ab7406a1</title>
<path fill="none" stroke="black" d="M70.2809,-95.6966C79.9154,-87.0503 91.7288,-76.4486 102.227,-67.027"/>
<polygon fill="black" stroke="black" points="104.836,-69.3883 109.941,-60.1043 100.161,-64.1786 104.836,-69.3883"/>
<g id="a_edge1&#45;headlabel"><a xlink:href="dir_000014_000006.html" target="_top" xlink:title="18">
<text text-anchor="middle" x="104.057" y="-71.4023" font-family="Helvetica,sans-Serif" font-size="10.00">18</text>
</a>
</g>
</g>
<!-- dir_d174127a4330655b353181aebfd9b441 -->
<g id="node4" class="node"><title>dir_d174127a4330655b353181aebfd9b441</title>
<g id="a_node4"><a xlink:href="dir_d174127a4330655b353181aebfd9b441.html" target="_top" xlink:title="pop">
<polygon fill="none" stroke="black" points="156,-132 102,-132 102,-96 156,-96 156,-132"/>
<text text-anchor="middle" x="129" y="-111.5" font-family="Helvetica,sans-Serif" font-size="10.00">pop</text>
</a>
</g>
</g>
<!-- dir_55739d37f413ef1c85848467d9dce641&#45;&gt;dir_d174127a4330655b353181aebfd9b441 -->
<g id="edge3" class="edge"><title>dir_55739d37f413ef1c85848467d9dce641&#45;&gt;dir_d174127a4330655b353181aebfd9b441</title>
<path fill="none" stroke="black" d="M78.1172,-114C82.7135,-114 87.3099,-114 91.9062,-114"/>
<polygon fill="black" stroke="black" points="91.9685,-117.5 101.969,-114 91.9685,-110.5 91.9685,-117.5"/>
<g id="a_edge3&#45;headlabel"><a xlink:href="dir_000014_000002.html" target="_top" xlink:title="1">
<text text-anchor="middle" x="88.3739" y="-117.839" font-family="Helvetica,sans-Serif" font-size="10.00">1</text>
</a>
</g>
</g>
<!-- dir_d174127a4330655b353181aebfd9b441&#45;&gt;dir_55739d37f413ef1c85848467d9dce641 -->
<g id="edge4" class="edge"><title>dir_d174127a4330655b353181aebfd9b441&#45;&gt;dir_55739d37f413ef1c85848467d9dce641</title>
<path fill="none" stroke="black" d="M101.969,-114C97.3722,-114 92.7758,-114 88.1795,-114"/>
<polygon fill="black" stroke="black" points="88.1172,-110.5 78.1172,-114 88.1172,-117.5 88.1172,-110.5"/>
<g id="a_edge4&#45;headlabel"><a xlink:href="dir_000002_000014.html" target="_top" xlink:title="1">
<text text-anchor="middle" x="91.7118" y="-105.161" font-family="Helvetica,sans-Serif" font-size="10.00">1</text>
</a>
</g>
</g>
<!-- dir_d174127a4330655b353181aebfd9b441&#45;&gt;dir_cf56009b1fcb470adac12e74ab7406a1 -->
<g id="edge5" class="edge"><title>dir_d174127a4330655b353181aebfd9b441&#45;&gt;dir_cf56009b1fcb470adac12e74ab7406a1</title>
<path fill="none" stroke="black" d="M129,-95.6966C129,-87.9827 129,-78.7125 129,-70.1124"/>
<polygon fill="black" stroke="black" points="132.5,-70.1043 129,-60.1043 125.5,-70.1044 132.5,-70.1043"/>
<g id="a_edge5&#45;headlabel"><a xlink:href="dir_000002_000006.html" target="_top" xlink:title="26">
<text text-anchor="middle" x="135.339" y="-71.199" font-family="Helvetica,sans-Serif" font-size="10.00">26</text>
</a>
</g>
</g>
</g>
</svg>
