<?xml version="1.0" encoding="UTF-8" standalone="no"?>
<!DOCTYPE svg PUBLIC "-//W3C//DTD SVG 1.1//EN"
 "http://www.w3.org/Graphics/SVG/1.1/DTD/svg11.dtd">
<!-- Generated by graphviz version 2.36.0 (20140111.2315)
 -->
<!-- Title: Graphical Class Hierarchy Pages: 1 -->
<svg width="260pt" height="66pt"
 viewBox="0.00 0.00 260.00 66.00" xmlns="http://www.w3.org/2000/svg" xmlns:xlink="http://www.w3.org/1999/xlink">
<g id="graph0" class="graph" transform="scale(1 1) rotate(0) translate(4 62)">
<title>Graphical Class Hierarchy</title>
<polygon fill="white" stroke="none" points="-4,4 -4,-62 256,-62 256,4 -4,4"/>
<!-- Node1 -->
<g id="node1" class="node"><title>Node1</title>
<g id="a_node1"><a xlink:href="d9/d77/a00095.html" target="_top" xlink:title="A base class for Controllers in the MVC model. ">
<polygon fill="white" stroke="black" points="0.5,-19.5 0.5,-38.5 111.5,-38.5 111.5,-19.5 0.5,-19.5"/>
<text text-anchor="middle" x="56" y="-26.5" font-family="Helvetica,sans-Serif" font-size="10.00">stride::BaseController</text>
</a>
</g>
</g>
<!-- Node2 -->
<g id="node2" class="node"><title>Node2</title>
<g id="a_node2"><a xlink:href="da/d74/a00099.html" target="_top" xlink:title="Controls a simulation run initiated with the command line interface (cli). ">
<polygon fill="white" stroke="black" points="149.5,-38.5 149.5,-57.5 250.5,-57.5 250.5,-38.5 149.5,-38.5"/>
<text text-anchor="middle" x="200" y="-45.5" font-family="Helvetica,sans-Serif" font-size="10.00">stride::CliController</text>
</a>
</g>
</g>
<!-- Node1&#45;&gt;Node2 -->
<g id="edge1" class="edge"><title>Node1&#45;&gt;Node2</title>
<path fill="none" stroke="midnightblue" d="M121.842,-37.676C131.082,-38.9123 140.462,-40.1674 149.349,-41.3566"/>
<polygon fill="midnightblue" stroke="midnightblue" points="122.277,-34.2031 111.901,-36.3459 121.348,-41.1413 122.277,-34.2031"/>
</g>
<!-- Node3 -->
<g id="node3" class="node"><title>Node3</title>
<g id="a_node3"><a xlink:href="dd/d6d/a00111.html" target="_top" xlink:title="A controller for the simulation that uses Qt to give the user the ability of controlling the steps...">
<polygon fill="white" stroke="black" points="148,-0.5 148,-19.5 252,-19.5 252,-0.5 148,-0.5"/>
<text text-anchor="middle" x="200" y="-7.5" font-family="Helvetica,sans-Serif" font-size="10.00">stride::GuiController</text>
</a>
</g>
</g>
<!-- Node1&#45;&gt;Node3 -->
<g id="edge2" class="edge"><title>Node1&#45;&gt;Node3</title>
<path fill="none" stroke="midnightblue" d="M122.029,-20.299C130.73,-19.1347 139.552,-17.9543 147.967,-16.8284"/>
<polygon fill="midnightblue" stroke="midnightblue" points="121.348,-16.8587 111.901,-21.6541 122.277,-23.7969 121.348,-16.8587"/>
</g>
</g>
</svg>
