<?xml version="1.0" encoding="UTF-8" standalone="no"?>
<!DOCTYPE svg PUBLIC "-//W3C//DTD SVG 1.1//EN"
 "http://www.w3.org/Graphics/SVG/1.1/DTD/svg11.dtd">
<!-- Generated by graphviz version 2.36.0 (20140111.2315)
 -->
<!-- Title: Graphical Class Hierarchy Pages: 1 -->
<svg width="346pt" height="66pt"
 viewBox="0.00 0.00 346.00 66.00" xmlns="http://www.w3.org/2000/svg" xmlns:xlink="http://www.w3.org/1999/xlink">
<g id="graph0" class="graph" transform="scale(1 1) rotate(0) translate(4 62)">
<title>Graphical Class Hierarchy</title>
<polygon fill="white" stroke="none" points="-4,4 -4,-62 342,-62 342,4 -4,4"/>
<!-- Node1 -->
<g id="node1" class="node"><title>Node1</title>
<g id="a_node1"><a xlink:href="dd/d32/a00041.html" target="_top" xlink:title="An abstract base class for creating a GeoGrid that was read from a file, can be implemented using mul...">
<polygon fill="white" stroke="black" points="0.5,-19.5 0.5,-38.5 137.5,-38.5 137.5,-19.5 0.5,-19.5"/>
<text text-anchor="middle" x="69" y="-26.5" font-family="Helvetica,sans-Serif" font-size="10.00">gengeopop::GeoGridReader</text>
</a>
</g>
</g>
<!-- Node2 -->
<g id="node2" class="node"><title>Node2</title>
<g id="a_node2"><a xlink:href="de/d8c/a00036.html" target="_top" xlink:title="An implementation of the GeoGridReader using JSON This class is used to read a GeoGrid from a JSON fi...">
<polygon fill="white" stroke="black" points="174,-38.5 174,-57.5 338,-57.5 338,-38.5 174,-38.5"/>
<text text-anchor="middle" x="256" y="-45.5" font-family="Helvetica,sans-Serif" font-size="10.00">gengeopop::GeoGridJSONReader</text>
</a>
</g>
</g>
<!-- Node1&#45;&gt;Node2 -->
<g id="edge1" class="edge"><title>Node1&#45;&gt;Node2</title>
<path fill="none" stroke="midnightblue" d="M147.622,-36.972C156.267,-37.8598 165.089,-38.7659 173.777,-39.6582"/>
<polygon fill="midnightblue" stroke="midnightblue" points="147.88,-33.4801 137.575,-35.9401 147.165,-40.4435 147.88,-33.4801"/>
</g>
<!-- Node3 -->
<g id="node3" class="node"><title>Node3</title>
<g id="a_node3"><a xlink:href="d3/de7/a00039.html" target="_top" xlink:title="An implementation of the GeoGridReader using Protocol Buffers This class is used to read a GeoGrid fr...">
<polygon fill="white" stroke="black" points="175.5,-0.5 175.5,-19.5 336.5,-19.5 336.5,-0.5 175.5,-0.5"/>
<text text-anchor="middle" x="256" y="-7.5" font-family="Helvetica,sans-Serif" font-size="10.00">gengeopop::GeoGridProtoReader</text>
</a>
</g>
</g>
<!-- Node1&#45;&gt;Node3 -->
<g id="edge2" class="edge"><title>Node1&#45;&gt;Node3</title>
<path fill="none" stroke="midnightblue" d="M147.773,-21.0125C156.897,-20.0754 166.217,-19.1182 175.366,-18.1786"/>
<polygon fill="midnightblue" stroke="midnightblue" points="147.165,-17.5565 137.575,-22.0599 147.88,-24.5199 147.165,-17.5565"/>
</g>
</g>
</svg>
