<?xml version="1.0" encoding="UTF-8" standalone="no"?>
<!DOCTYPE svg PUBLIC "-//W3C//DTD SVG 1.1//EN"
 "http://www.w3.org/Graphics/SVG/1.1/DTD/svg11.dtd">
<!-- Generated by graphviz version 2.36.0 (20140111.2315)
 -->
<!-- Title: Graphical Class Hierarchy Pages: 1 -->
<svg width="232pt" height="109pt"
 viewBox="0.00 0.00 232.00 109.00" xmlns="http://www.w3.org/2000/svg" xmlns:xlink="http://www.w3.org/1999/xlink">
<g id="graph0" class="graph" transform="scale(1 1) rotate(0) translate(4 105)">
<title>Graphical Class Hierarchy</title>
<polygon fill="white" stroke="none" points="-4,4 -4,-105 228,-105 228,4 -4,4"/>
<!-- Node1 -->
<g id="node1" class="node"><title>Node1</title>
<polygon fill="white" stroke="#bfbfbf" points="0.5,-40.5 0.5,-59.5 47.5,-59.5 47.5,-40.5 0.5,-40.5"/>
<text text-anchor="middle" x="24" y="-47.5" font-family="Helvetica,sans-Serif" font-size="10.00">iterator</text>
</g>
<!-- Node2 -->
<g id="node2" class="node"><title>Node2</title>
<g id="a_node2"><a xlink:href="d6/db8/a00158.html" target="_top" xlink:title="Implementation of iterator for looping over the inner elements of a nested data structure. ">
<polygon fill="white" stroke="black" points="84,-59.5 84,-100.5 224,-100.5 224,-59.5 84,-59.5"/>
<text text-anchor="start" x="92" y="-88.5" font-family="Helvetica,sans-Serif" font-size="10.00">stride::util::NestedIterator</text>
<text text-anchor="start" x="92" y="-77.5" font-family="Helvetica,sans-Serif" font-size="10.00">&lt; T, OutItType, InnerItType,</text>
<text text-anchor="middle" x="154" y="-66.5" font-family="Helvetica,sans-Serif" font-size="10.00"> P, R, is_const_iterator &gt;</text>
</a>
</g>
</g>
<!-- Node1&#45;&gt;Node2 -->
<g id="edge1" class="edge"><title>Node1&#45;&gt;Node2</title>
<path fill="none" stroke="midnightblue" d="M57.4027,-57.5944C65.5848,-59.5121 74.6867,-61.6453 83.9305,-63.8118"/>
<polygon fill="midnightblue" stroke="midnightblue" points="58.124,-54.1687 47.5892,-55.2943 56.5267,-60.984 58.124,-54.1687"/>
</g>
<!-- Node3 -->
<g id="node3" class="node"><title>Node3</title>
<g id="a_node3"><a xlink:href="dc/de6/a00167.html" target="_top" xlink:title="Implementation of iterator for SegmentedVector. ">
<polygon fill="white" stroke="black" points="98.5,0.5 98.5,-40.5 209.5,-40.5 209.5,0.5 98.5,0.5"/>
<text text-anchor="start" x="106.5" y="-28.5" font-family="Helvetica,sans-Serif" font-size="10.00">stride::util::SVIterator</text>
<text text-anchor="start" x="106.5" y="-17.5" font-family="Helvetica,sans-Serif" font-size="10.00">&lt; T, N, Safe, P, R, is</text>
<text text-anchor="middle" x="154" y="-6.5" font-family="Helvetica,sans-Serif" font-size="10.00">_const_iterator &gt;</text>
</a>
</g>
</g>
<!-- Node1&#45;&gt;Node3 -->
<g id="edge2" class="edge"><title>Node1&#45;&gt;Node3</title>
<path fill="none" stroke="midnightblue" d="M57.4861,-42.3861C69.9328,-39.4689 84.4988,-36.055 98.4518,-32.7847"/>
<polygon fill="midnightblue" stroke="midnightblue" points="56.5267,-39.016 47.5892,-44.7057 58.124,-45.8313 56.5267,-39.016"/>
</g>
</g>
</svg>
