<?xml version="1.0" encoding="UTF-8" standalone="no"?>
<!DOCTYPE svg PUBLIC "-//W3C//DTD SVG 1.1//EN"
 "http://www.w3.org/Graphics/SVG/1.1/DTD/svg11.dtd">
<!-- Generated by graphviz version 2.36.0 (20140111.2315)
 -->
<!-- Title: Graphical Class Hierarchy Pages: 1 -->
<svg width="352pt" height="241pt"
 viewBox="0.00 0.00 352.00 241.00" xmlns="http://www.w3.org/2000/svg" xmlns:xlink="http://www.w3.org/1999/xlink">
<g id="graph0" class="graph" transform="scale(1 1) rotate(0) translate(4 237)">
<title>Graphical Class Hierarchy</title>
<polygon fill="white" stroke="none" points="-4,4 -4,-237 348,-237 348,4 -4,4"/>
<!-- Node1 -->
<g id="node1" class="node"><title>Node1</title>
<g id="a_node1"><a xlink:href="d1/d22/a00057.html" target="_top" xlink:title="An interface for populators that provide a partial solution. ">
<polygon fill="white" stroke="black" points="0.5,-115.5 0.5,-134.5 139.5,-134.5 139.5,-115.5 0.5,-115.5"/>
<text text-anchor="middle" x="70" y="-122.5" font-family="Helvetica,sans-Serif" font-size="10.00">gengeopop::PartialPopulator</text>
</a>
</g>
</g>
<!-- Node2 -->
<g id="node2" class="node"><title>Node2</title>
<g id="a_node2"><a xlink:href="de/d11/a00021.html" target="_top" xlink:title="gengeopop::CollegePopulator">
<polygon fill="white" stroke="black" points="188,-213.5 188,-232.5 332,-232.5 332,-213.5 188,-213.5"/>
<text text-anchor="middle" x="260" y="-220.5" font-family="Helvetica,sans-Serif" font-size="10.00">gengeopop::CollegePopulator</text>
</a>
</g>
</g>
<!-- Node1&#45;&gt;Node2 -->
<g id="edge1" class="edge"><title>Node1&#45;&gt;Node2</title>
<path fill="none" stroke="midnightblue" d="M88.2968,-141.714C107.96,-159.776 141.788,-188.101 176,-204 184.311,-207.863 193.465,-210.969 202.566,-213.458"/>
<polygon fill="midnightblue" stroke="midnightblue" points="90.4674,-138.951 80.7772,-134.667 85.681,-144.059 90.4674,-138.951"/>
</g>
<!-- Node3 -->
<g id="node3" class="node"><title>Node3</title>
<g id="a_node3"><a xlink:href="d4/dca/a00048.html" target="_top" xlink:title="gengeopop::HouseholdPopulator">
<polygon fill="white" stroke="black" points="181,-175.5 181,-194.5 339,-194.5 339,-175.5 181,-175.5"/>
<text text-anchor="middle" x="260" y="-182.5" font-family="Helvetica,sans-Serif" font-size="10.00">gengeopop::HouseholdPopulator</text>
</a>
</g>
</g>
<!-- Node1&#45;&gt;Node3 -->
<g id="edge2" class="edge"><title>Node1&#45;&gt;Node3</title>
<path fill="none" stroke="midnightblue" d="M102.03,-138.508C122.711,-147.163 150.65,-158.196 176,-166 187.444,-169.523 199.955,-172.719 211.713,-175.442"/>
<polygon fill="midnightblue" stroke="midnightblue" points="103.362,-135.271 92.7891,-134.597 100.634,-141.717 103.362,-135.271"/>
</g>
<!-- Node4 -->
<g id="node4" class="node"><title>Node4</title>
<g id="a_node4"><a xlink:href="d1/d84/a00052.html" target="_top" xlink:title="gengeopop::K12SchoolPopulator">
<polygon fill="white" stroke="black" points="181,-137.5 181,-156.5 339,-156.5 339,-137.5 181,-137.5"/>
<text text-anchor="middle" x="260" y="-144.5" font-family="Helvetica,sans-Serif" font-size="10.00">gengeopop::K12SchoolPopulator</text>
</a>
</g>
</g>
<!-- Node1&#45;&gt;Node4 -->
<g id="edge3" class="edge"><title>Node1&#45;&gt;Node4</title>
<path fill="none" stroke="midnightblue" d="M149.861,-134.228C160.153,-135.433 170.694,-136.666 180.972,-137.869"/>
<polygon fill="midnightblue" stroke="midnightblue" points="150.009,-130.722 139.67,-133.036 149.196,-137.675 150.009,-130.722"/>
</g>
<!-- Node5 -->
<g id="node5" class="node"><title>Node5</title>
<g id="a_node5"><a xlink:href="d9/d73/a00060.html" target="_top" xlink:title="gengeopop::PrimaryCommunity\lPopulator">
<polygon fill="white" stroke="black" points="183,-88 183,-118 337,-118 337,-88 183,-88"/>
<text text-anchor="start" x="191" y="-106" font-family="Helvetica,sans-Serif" font-size="10.00">gengeopop::PrimaryCommunity</text>
<text text-anchor="middle" x="260" y="-95" font-family="Helvetica,sans-Serif" font-size="10.00">Populator</text>
</a>
</g>
</g>
<!-- Node1&#45;&gt;Node5 -->
<g id="edge4" class="edge"><title>Node1&#45;&gt;Node5</title>
<path fill="none" stroke="midnightblue" d="M149.67,-115.794C160.666,-114.507 171.949,-113.187 182.896,-111.906"/>
<polygon fill="midnightblue" stroke="midnightblue" points="149.196,-112.325 139.67,-116.964 150.009,-119.278 149.196,-112.325"/>
</g>
<!-- Node6 -->
<g id="node6" class="node"><title>Node6</title>
<g id="a_node6"><a xlink:href="df/d5f/a00064.html" target="_top" xlink:title="gengeopop::SecondaryCommunity\lPopulator">
<polygon fill="white" stroke="black" points="176.5,-39 176.5,-69 343.5,-69 343.5,-39 176.5,-39"/>
<text text-anchor="start" x="184.5" y="-57" font-family="Helvetica,sans-Serif" font-size="10.00">gengeopop::SecondaryCommunity</text>
<text text-anchor="middle" x="260" y="-46" font-family="Helvetica,sans-Serif" font-size="10.00">Populator</text>
</a>
</g>
</g>
<!-- Node1&#45;&gt;Node6 -->
<g id="edge5" class="edge"><title>Node1&#45;&gt;Node6</title>
<path fill="none" stroke="midnightblue" d="M100.1,-111.123C120.963,-101.453 149.881,-88.6153 176,-79 185.462,-75.5167 195.657,-72.1442 205.552,-69.0632"/>
<polygon fill="midnightblue" stroke="midnightblue" points="98.4128,-108.048 90.8361,-115.454 101.377,-114.389 98.4128,-108.048"/>
</g>
<!-- Node7 -->
<g id="node7" class="node"><title>Node7</title>
<g id="a_node7"><a xlink:href="d6/d2c/a00072.html" target="_top" xlink:title="gengeopop::WorkplacePopulator">
<polygon fill="white" stroke="black" points="181,-0.5 181,-19.5 339,-19.5 339,-0.5 181,-0.5"/>
<text text-anchor="middle" x="260" y="-7.5" font-family="Helvetica,sans-Serif" font-size="10.00">gengeopop::WorkplacePopulator</text>
</a>
</g>
</g>
<!-- Node1&#45;&gt;Node7 -->
<g id="edge6" class="edge"><title>Node1&#45;&gt;Node7</title>
<path fill="none" stroke="midnightblue" d="M85.0861,-107.792C103.651,-86.2776 138.388,-49.8664 176,-30 184.257,-25.6387 193.477,-22.2128 202.685,-19.5259"/>
<polygon fill="midnightblue" stroke="midnightblue" points="82.356,-105.6 78.5788,-115.499 87.7045,-110.117 82.356,-105.6"/>
</g>
</g>
</svg>
