<?xml version="1.0" encoding="UTF-8" standalone="no"?>
<!DOCTYPE svg PUBLIC "-//W3C//DTD SVG 1.1//EN"
 "http://www.w3.org/Graphics/SVG/1.1/DTD/svg11.dtd">
<!-- Generated by graphviz version 2.36.0 (20140111.2315)
 -->
<!-- Title: Graphical Class Hierarchy Pages: 1 -->
<svg width="292pt" height="186pt"
 viewBox="0.00 0.00 292.00 186.00" xmlns="http://www.w3.org/2000/svg" xmlns:xlink="http://www.w3.org/1999/xlink">
<g id="graph0" class="graph" transform="scale(1 1) rotate(0) translate(4 182)">
<title>Graphical Class Hierarchy</title>
<polygon fill="white" stroke="none" points="-4,4 -4,-182 288,-182 288,4 -4,4"/>
<!-- Node1 -->
<g id="node1" class="node"><title>Node1</title>
<g id="a_node1"><a xlink:title="STL class. ">
<polygon fill="white" stroke="#bfbfbf" points="0,-71.5 0,-90.5 82,-90.5 82,-71.5 0,-71.5"/>
<text text-anchor="middle" x="41" y="-78.5" font-family="Helvetica,sans-Serif" font-size="10.00">std::array&lt; T &gt;</text>
</a>
</g>
</g>
<!-- Node2 -->
<g id="node2" class="node"><title>Node2</title>
<g id="a_node2"><a xlink:href="d1/d09/a00077.html" target="_top" xlink:title="stride::ContactPoolType\l::IdSubscriptArray\&lt; AgeContact\lProfile \&gt;">
<polygon fill="white" stroke="black" points="123,-136.5 123,-177.5 279,-177.5 279,-136.5 123,-136.5"/>
<text text-anchor="start" x="131" y="-165.5" font-family="Helvetica,sans-Serif" font-size="10.00">stride::ContactPoolType</text>
<text text-anchor="start" x="131" y="-154.5" font-family="Helvetica,sans-Serif" font-size="10.00">::IdSubscriptArray&lt; AgeContact</text>
<text text-anchor="middle" x="201" y="-143.5" font-family="Helvetica,sans-Serif" font-size="10.00">Profile &gt;</text>
</a>
</g>
</g>
<!-- Node1&#45;&gt;Node2 -->
<g id="edge1" class="edge"><title>Node1&#45;&gt;Node2</title>
<path fill="none" stroke="midnightblue" d="M64.5839,-96.2574C79.372,-105.844 99.3464,-118.047 118,-127 124.833,-130.28 132.125,-133.423 139.436,-136.357"/>
<polygon fill="midnightblue" stroke="midnightblue" points="66.3823,-93.251 56.1045,-90.6784 62.5347,-99.0988 66.3823,-93.251"/>
</g>
<!-- Node3 -->
<g id="node3" class="node"><title>Node3</title>
<g id="a_node3"><a xlink:href="d1/d09/a00077.html" target="_top" xlink:title="stride::ContactPoolType\l::IdSubscriptArray\&lt; unsigned int \&gt;">
<polygon fill="white" stroke="black" points="118,-88 118,-118 284,-118 284,-88 118,-88"/>
<text text-anchor="start" x="126" y="-106" font-family="Helvetica,sans-Serif" font-size="10.00">stride::ContactPoolType</text>
<text text-anchor="middle" x="201" y="-95" font-family="Helvetica,sans-Serif" font-size="10.00">::IdSubscriptArray&lt; unsigned int &gt;</text>
</a>
</g>
</g>
<!-- Node1&#45;&gt;Node3 -->
<g id="edge2" class="edge"><title>Node1&#45;&gt;Node3</title>
<path fill="none" stroke="midnightblue" d="M92.3683,-88.0133C100.559,-89.1538 109.225,-90.3605 117.941,-91.5741"/>
<polygon fill="midnightblue" stroke="midnightblue" points="92.666,-84.5211 82.2789,-86.6085 91.7006,-91.4542 92.666,-84.5211"/>
</g>
<!-- Node4 -->
<g id="node4" class="node"><title>Node4</title>
<g id="a_node4"><a xlink:href="dc/d54/a00094.html" target="_top" xlink:title="Contact rates as a function of age. ">
<polygon fill="white" stroke="black" points="138,-49.5 138,-68.5 264,-68.5 264,-49.5 138,-49.5"/>
<text text-anchor="middle" x="201" y="-56.5" font-family="Helvetica,sans-Serif" font-size="10.00">stride::AgeContactProfile</text>
</a>
</g>
</g>
<!-- Node1&#45;&gt;Node4 -->
<g id="edge3" class="edge"><title>Node1&#45;&gt;Node4</title>
<path fill="none" stroke="midnightblue" d="M92.5163,-73.9661C106.978,-71.9524 122.911,-69.7339 137.978,-67.6359"/>
<polygon fill="midnightblue" stroke="midnightblue" points="91.7006,-70.5458 82.2789,-75.3915 92.666,-77.4789 91.7006,-70.5458"/>
</g>
<!-- Node5 -->
<g id="node5" class="node"><title>Node5</title>
<g id="a_node5"><a xlink:href="d1/d09/a00077.html" target="_top" xlink:title="An std::array modified to enable subscripting with the constact pool type indentifiers. ">
<polygon fill="white" stroke="black" points="140,-0 140,-30 262,-30 262,-0 140,-0"/>
<text text-anchor="start" x="148" y="-18" font-family="Helvetica,sans-Serif" font-size="10.00">stride::ContactPoolType</text>
<text text-anchor="middle" x="201" y="-7" font-family="Helvetica,sans-Serif" font-size="10.00">::IdSubscriptArray&lt; T &gt;</text>
</a>
</g>
</g>
<!-- Node1&#45;&gt;Node5 -->
<g id="edge4" class="edge"><title>Node1&#45;&gt;Node5</title>
<path fill="none" stroke="midnightblue" d="M66.4487,-66.1978C81.056,-57.7666 100.181,-47.4357 118,-40 126.653,-36.3891 136.013,-33.0414 145.209,-30.046"/>
<polygon fill="midnightblue" stroke="midnightblue" points="64.4137,-63.3339 57.5612,-71.4144 67.9571,-69.3708 64.4137,-63.3339"/>
</g>
</g>
</svg>
