<?xml version="1.0" encoding="UTF-8" standalone="no"?>
<!DOCTYPE svg PUBLIC "-//W3C//DTD SVG 1.1//EN"
 "http://www.w3.org/Graphics/SVG/1.1/DTD/svg11.dtd">
<!-- Generated by graphviz version 2.36.0 (20140111.2315)
 -->
<!-- Title: Graphical Class Hierarchy Pages: 1 -->
<svg width="336pt" height="66pt"
 viewBox="0.00 0.00 336.00 66.00" xmlns="http://www.w3.org/2000/svg" xmlns:xlink="http://www.w3.org/1999/xlink">
<g id="graph0" class="graph" transform="scale(1 1) rotate(0) translate(4 62)">
<title>Graphical Class Hierarchy</title>
<polygon fill="white" stroke="none" points="-4,4 -4,-62 332,-62 332,4 -4,4"/>
<!-- Node1 -->
<g id="node1" class="node"><title>Node1</title>
<g id="a_node1"><a xlink:href="d6/d42/a00043.html" target="_top" xlink:title="An interface for writing the GeoGrid to a file, can be implemented with multiple file types (protobuf...">
<polygon fill="white" stroke="black" points="0,-19.5 0,-38.5 132,-38.5 132,-19.5 0,-19.5"/>
<text text-anchor="middle" x="66" y="-26.5" font-family="Helvetica,sans-Serif" font-size="10.00">gengeopop::GeoGridWriter</text>
</a>
</g>
</g>
<!-- Node2 -->
<g id="node2" class="node"><title>Node2</title>
<g id="a_node2"><a xlink:href="d1/dc6/a00037.html" target="_top" xlink:title="An implementation of the GeoGridWriter using JSON This class is used to write a GeoGrid to a JSON fil...">
<polygon fill="white" stroke="black" points="168.5,-38.5 168.5,-57.5 327.5,-57.5 327.5,-38.5 168.5,-38.5"/>
<text text-anchor="middle" x="248" y="-45.5" font-family="Helvetica,sans-Serif" font-size="10.00">gengeopop::GeoGridJSONWriter</text>
</a>
</g>
</g>
<!-- Node1&#45;&gt;Node2 -->
<g id="edge1" class="edge"><title>Node1&#45;&gt;Node2</title>
<path fill="none" stroke="midnightblue" d="M142.296,-36.9479C150.954,-37.8618 159.798,-38.7954 168.497,-39.7136"/>
<polygon fill="midnightblue" stroke="midnightblue" points="142.551,-33.4554 132.239,-35.8863 141.816,-40.4168 142.551,-33.4554"/>
</g>
<!-- Node3 -->
<g id="node3" class="node"><title>Node3</title>
<g id="a_node3"><a xlink:href="db/d3a/a00040.html" target="_top" xlink:title="An implementation of the GeoGridWriter using Protocol Buffers This class is used to write a GeoGrid t...">
<polygon fill="white" stroke="black" points="170.5,-0.5 170.5,-19.5 325.5,-19.5 325.5,-0.5 170.5,-0.5"/>
<text text-anchor="middle" x="248" y="-7.5" font-family="Helvetica,sans-Serif" font-size="10.00">gengeopop::GeoGridProtoWriter</text>
</a>
</g>
</g>
<!-- Node1&#45;&gt;Node3 -->
<g id="edge2" class="edge"><title>Node1&#45;&gt;Node3</title>
<path fill="none" stroke="midnightblue" d="M142.224,-21.0597C151.522,-20.0782 161.037,-19.0739 170.356,-18.0902"/>
<polygon fill="midnightblue" stroke="midnightblue" points="141.816,-17.5832 132.239,-22.1137 142.551,-24.5446 141.816,-17.5832"/>
</g>
</g>
</svg>
