<?xml version="1.0" encoding="UTF-8" standalone="no"?>
<!DOCTYPE svg PUBLIC "-//W3C//DTD SVG 1.1//EN"
 "http://www.w3.org/Graphics/SVG/1.1/DTD/svg11.dtd">
<!-- Generated by graphviz version 2.36.0 (20140111.2315)
 -->
<!-- Title: gengeopop::GeoGridConfig Pages: 1 -->
<!--zoomable 550 -->
<svg id="main" version="1.1" xmlns="http://www.w3.org/2000/svg" xmlns:xlink="http://www.w3.org/1999/xlink" xml:space="preserve" onload="init(evt)">
<style type="text/css"><![CDATA[
.edge:hover path { stroke: red; }
.edge:hover polygon { stroke: red; fill: red; }
]]></style>
<script type="text/javascript"><![CDATA[
var edges = document.getElementsByTagName('g');
if (edges && edges.length) {
  for (var i=0;i<edges.length;i++) {
    if (edges[i].id.substr(0,4)=='edge') {
      edges[i].setAttribute('class','edge');
    }
  }
}
]]></script>
        <defs>
                <circle id="rim" cx="0" cy="0" r="7"/>
                <circle id="rim2" cx="0" cy="0" r="3.5"/>
                <g id="zoomPlus">
                        <use xlink:href="#rim" fill="#404040">
                                <set attributeName="fill" to="#808080" begin="zoomplus.mouseover" end="zoomplus.mouseout"/>
                        </use>
                        <path d="M-4,0h8M0,-4v8" fill="none" stroke="white" stroke-width="1.5" pointer-events="none"/>
                </g>
                <g id="zoomMin">
                        <use xlink:href="#rim" fill="#404040">
                                <set attributeName="fill" to="#808080" begin="zoomminus.mouseover" end="zoomminus.mouseout"/>
                        </use>
                        <path d="M-4,0h8" fill="none" stroke="white" stroke-width="1.5" pointer-events="none"/>
                </g>
                <g id="dirArrow">
                        <path fill="none" stroke="white" stroke-width="1.5" d="M0,-3.0v7 M-2.5,-0.5L0,-3.0L2.5,-0.5"/>
                </g>
               <g id="resetDef">
                       <use xlink:href="#rim2" fill="#404040">
                               <set attributeName="fill" to="#808080" begin="reset.mouseover" end="reset.mouseout"/>
                       </use>
               </g>
        </defs>

<script type="text/javascript">
var viewWidth = 665;
var viewHeight = 550;
var sectionId = 'dynsection-0';
</script>
<script xlink:href="../../svgpan.js"/>
<svg id="graph" class="graph">
<g id="viewport">
<title>gengeopop::GeoGridConfig</title>
<polygon fill="white" stroke="none" points="-4,4 -4,-546 661,-546 661,4 -4,4"/>
<!-- Node1 -->
<g id="node1" class="node"><title>Node1</title>
<polygon fill="#bfbfbf" stroke="black" points="239,-1 239,-69 373,-69 373,-1 239,-1"/>
<text text-anchor="middle" x="306" y="-57" font-family="Helvetica,sans-Serif" font-size="10.00">gengeopop::GeoGridConfig</text>
<polyline fill="none" stroke="black" points="239,-50 373,-50 "/>
<text text-anchor="middle" x="306" y="-38" font-family="Helvetica,sans-Serif" font-size="10.00"> </text>
<polyline fill="none" stroke="black" points="239,-31 373,-31 "/>
<text text-anchor="start" x="247" y="-19" font-family="Helvetica,sans-Serif" font-size="10.00">+ GeoGridConfig()</text>
<text text-anchor="start" x="247" y="-8" font-family="Helvetica,sans-Serif" font-size="10.00">+ Calculate()</text>
</g>
<!-- Node2 -->
<g id="node2" class="node"><title>Node2</title>
<g id="a_node2"><a xlink:href="../../db/d8e/a00482.html" target="_top" xlink:title="{double\n||}">
<polygon fill="white" stroke="black" points="-0.5,-244.5 -0.5,-301.5 44.5,-301.5 44.5,-244.5 -0.5,-244.5"/>
<text text-anchor="middle" x="22" y="-289.5" font-family="Helvetica,sans-Serif" font-size="10.00">double</text>
<polyline fill="none" stroke="black" points="-0.5,-282.5 44.5,-282.5 "/>
<text text-anchor="middle" x="22" y="-270.5" font-family="Helvetica,sans-Serif" font-size="10.00"> </text>
<polyline fill="none" stroke="black" points="-0.5,-263.5 44.5,-263.5 "/>
<text text-anchor="middle" x="22" y="-251.5" font-family="Helvetica,sans-Serif" font-size="10.00"> </text>
</a>
</g>
</g>
<!-- Node2&#45;&gt;Node1 -->
<g id="edge1" class="edge"><title>Node2&#45;&gt;Node1</title>
<path fill="none" stroke="#404040" d="M13.9132,-244.458C4.10466,-204.746 -6.80359,-131.417 31,-88 56.1476,-59.1182 154.59,-46.0886 226.531,-40.3398"/>
<polygon fill="none" stroke="#404040" points="226.766,-40.3221 232.446,-35.8792 238.732,-39.4135 233.052,-43.8563 226.766,-40.3221"/>
<text text-anchor="start" x="31" y="-212" font-family="Helvetica,sans-Serif" font-size="10.00"> +fraction_1826_years</text>
<text text-anchor="middle" x="96" y="-201" font-family="Helvetica,sans-Serif" font-size="10.00">_WhichAreStudents</text>
<text text-anchor="start" x="31" y="-190" font-family="Helvetica,sans-Serif" font-size="10.00">+fraction_1865_years</text>
<text text-anchor="middle" x="96" y="-179" font-family="Helvetica,sans-Serif" font-size="10.00">_active</text>
<text text-anchor="middle" x="96" y="-168" font-family="Helvetica,sans-Serif" font-size="10.00">+meanCommunitySize</text>
<text text-anchor="middle" x="96" y="-157" font-family="Helvetica,sans-Serif" font-size="10.00">+meanCollegeSize</text>
<text text-anchor="start" x="31" y="-146" font-family="Helvetica,sans-Serif" font-size="10.00">+fraction_student_commuting</text>
<text text-anchor="middle" x="96" y="-135" font-family="Helvetica,sans-Serif" font-size="10.00">People</text>
<text text-anchor="start" x="31" y="-124" font-family="Helvetica,sans-Serif" font-size="10.00">+fraction_active_commuting</text>
<text text-anchor="middle" x="96" y="-113" font-family="Helvetica,sans-Serif" font-size="10.00">People</text>
<text text-anchor="middle" x="96" y="-102" font-family="Helvetica,sans-Serif" font-size="10.00">+meanK12SchoolSize</text>
<text text-anchor="middle" x="96" y="-91" font-family="Helvetica,sans-Serif" font-size="10.00">+meanWorkplaceSchoolSize</text>
</g>
<!-- Node3 -->
<g id="node3" class="node"><title>Node3</title>
<polygon fill="white" stroke="#bfbfbf" points="252.5,-244 252.5,-302 281.5,-302 281.5,-244 252.5,-244"/>
<polyline fill="none" stroke="#bfbfbf" points="252.5,-282 281.5,-282 "/>
<text text-anchor="middle" x="267" y="-270" font-family="Helvetica,sans-Serif" font-size="10.00"> </text>
<polyline fill="none" stroke="#bfbfbf" points="252.5,-263 281.5,-263 "/>
<text text-anchor="middle" x="267" y="-251" font-family="Helvetica,sans-Serif" font-size="10.00"> </text>
</g>
<!-- Node3&#45;&gt;Node1 -->
<g id="edge2" class="edge"><title>Node3&#45;&gt;Node1</title>
<path fill="none" stroke="#404040" d="M252.401,-268.56C231.176,-262.685 192.531,-248.486 176,-220 161.277,-194.629 159.555,-112.29 176,-88 188.075,-70.1653 207.364,-58.4469 227.427,-50.7475"/>
<polygon fill="none" stroke="#404040" points="227.603,-50.6867 231.967,-44.9461 238.945,-46.7666 234.581,-52.5072 227.603,-50.6867"/>
<text text-anchor="middle" x="191.5" y="-151.5" font-family="Helvetica,sans-Serif" font-size="10.00"> +input</text>
</g>
<!-- Node3&#45;&gt;Node1 -->
<g id="edge7" class="edge"><title>Node3&#45;&gt;Node1</title>
<path fill="none" stroke="#404040" d="M252.5,-257.024C244.149,-247.322 234.451,-233.932 230,-220 212.147,-164.116 202.63,-139.891 230,-88 231.865,-84.4648 234.09,-81.1242 236.588,-77.9738"/>
<polygon fill="none" stroke="#404040" points="236.659,-77.8966 237.798,-70.7761 244.81,-69.0892 243.67,-76.2098 236.659,-77.8966"/>
<text text-anchor="middle" x="257" y="-151.5" font-family="Helvetica,sans-Serif" font-size="10.00"> +calculated</text>
</g>
<!-- Node3&#45;&gt;Node1 -->
<g id="edge8" class="edge"><title>Node3&#45;&gt;Node1</title>
<path fill="none" stroke="#404040" d="M277.29,-243.943C279.799,-236.264 282.258,-227.883 284,-220 294.322,-173.29 300.075,-118.767 303.085,-81.2645"/>
<polygon fill="none" stroke="#404040" points="303.09,-81.2 299.558,-74.913 304.003,-69.2348 307.535,-75.5218 303.09,-81.2"/>
<text text-anchor="middle" x="329" y="-151.5" font-family="Helvetica,sans-Serif" font-size="10.00"> +generated</text>
</g>
<!-- Node3&#45;&gt;Node1 -->
<g id="edge9" class="edge"><title>Node3&#45;&gt;Node1</title>
<path fill="none" stroke="#404040" d="M281.753,-268.611C303.204,-262.801 342.265,-248.683 359,-220 388.565,-169.328 381.709,-142.093 359,-88 357.711,-84.9301 356.143,-81.9504 354.365,-79.0739"/>
<polygon fill="none" stroke="#404040" points="354.192,-78.8361 347.427,-76.3379 347.132,-69.1328 353.896,-71.631 354.192,-78.8361"/>
<text text-anchor="middle" x="405" y="-151.5" font-family="Helvetica,sans-Serif" font-size="10.00"> +constants</text>
</g>
<!-- Node4 -->
<g id="node4" class="node"><title>Node4</title>
<polygon fill="white" stroke="#bfbfbf" points="372,-239 372,-307 532,-307 532,-239 372,-239"/>
<text text-anchor="start" x="380" y="-295" font-family="Helvetica,sans-Serif" font-size="10.00">std::vector&lt; std::shared</text>
<text text-anchor="middle" x="452" y="-284" font-family="Helvetica,sans-Serif" font-size="10.00">_ptr&lt; gengeopop::Household &gt; &gt;</text>
<polyline fill="none" stroke="#bfbfbf" points="372,-277 532,-277 "/>
<text text-anchor="middle" x="452" y="-265" font-family="Helvetica,sans-Serif" font-size="10.00"> </text>
<polyline fill="none" stroke="#bfbfbf" points="372,-258 532,-258 "/>
<text text-anchor="middle" x="452" y="-246" font-family="Helvetica,sans-Serif" font-size="10.00"> </text>
</g>
<!-- Node4&#45;&gt;Node1 -->
<g id="edge3" class="edge"><title>Node4&#45;&gt;Node1</title>
<path fill="none" stroke="#404040" d="M452.755,-238.712C453.148,-192.259 451.231,-111.085 434,-88 421.764,-71.6072 403.475,-60.3655 384.524,-52.6621"/>
<polygon fill="none" stroke="#404040" points="384.269,-52.5681 377.255,-54.245 373.01,-48.4161 380.023,-46.7391 384.269,-52.5681"/>
<text text-anchor="middle" x="494.5" y="-151.5" font-family="Helvetica,sans-Serif" font-size="10.00"> +household_types</text>
</g>
<!-- Node5 -->
<g id="node5" class="node"><title>Node5</title>
<polygon fill="white" stroke="#bfbfbf" points="356.5,-367 356.5,-435 475.5,-435 475.5,-367 356.5,-367"/>
<text text-anchor="start" x="364.5" y="-423" font-family="Helvetica,sans-Serif" font-size="10.00">shared_ptr&lt; gengeopop</text>
<text text-anchor="middle" x="416" y="-412" font-family="Helvetica,sans-Serif" font-size="10.00">::Household &gt;</text>
<polyline fill="none" stroke="#bfbfbf" points="356.5,-405 475.5,-405 "/>
<text text-anchor="middle" x="416" y="-393" font-family="Helvetica,sans-Serif" font-size="10.00"> </text>
<polyline fill="none" stroke="#bfbfbf" points="356.5,-386 475.5,-386 "/>
<text text-anchor="middle" x="416" y="-374" font-family="Helvetica,sans-Serif" font-size="10.00"> </text>
</g>
<!-- Node5&#45;&gt;Node4 -->
<g id="edge4" class="edge"><title>Node5&#45;&gt;Node4</title>
<path fill="none" stroke="#404040" d="M425.459,-366.895C429.642,-352.253 434.627,-334.807 439.141,-319.008"/>
<polygon fill="none" stroke="#404040" points="439.183,-318.86 436.985,-311.992 442.48,-307.321 444.677,-314.189 439.183,-318.86"/>
<text text-anchor="middle" x="461.5" y="-334.5" font-family="Helvetica,sans-Serif" font-size="10.00"> +elements</text>
</g>
<!-- Node6 -->
<g id="node6" class="node"><title>Node6</title>
<g id="a_node6"><a xlink:title="STL class. ">
<polygon fill="white" stroke="#bfbfbf" points="493.5,-372.5 493.5,-429.5 580.5,-429.5 580.5,-372.5 493.5,-372.5"/>
<text text-anchor="middle" x="537" y="-417.5" font-family="Helvetica,sans-Serif" font-size="10.00">std::vector&lt; T &gt;</text>
<polyline fill="none" stroke="#bfbfbf" points="493.5,-410.5 580.5,-410.5 "/>
<text text-anchor="middle" x="537" y="-398.5" font-family="Helvetica,sans-Serif" font-size="10.00"> </text>
<polyline fill="none" stroke="#bfbfbf" points="493.5,-391.5 580.5,-391.5 "/>
<text text-anchor="middle" x="537" y="-379.5" font-family="Helvetica,sans-Serif" font-size="10.00"> </text>
</a>
</g>
</g>
<!-- Node6&#45;&gt;Node4 -->
<g id="edge5" class="edge"><title>Node6&#45;&gt;Node4</title>
<path fill="none" stroke="orange" d="M514.651,-363.772C507,-351.653 498.28,-338.142 490,-326 485.779,-319.81 481.165,-313.299 476.652,-307.058"/>
<polygon fill="orange" stroke="orange" points="511.73,-365.703 520.011,-372.311 517.659,-361.981 511.73,-365.703"/>
<text text-anchor="start" x="504" y="-340" font-family="Helvetica,sans-Serif" font-size="10.00"> &lt; std::shared_ptr&lt;</text>
<text text-anchor="middle" x="564.5" y="-329" font-family="Helvetica,sans-Serif" font-size="10.00"> gengeopop::Household &gt; &gt;</text>
</g>
<!-- Node7 -->
<g id="node7" class="node"><title>Node7</title>
<polygon fill="white" stroke="#bfbfbf" points="522.5,-484.5 522.5,-541.5 551.5,-541.5 551.5,-484.5 522.5,-484.5"/>
<text text-anchor="middle" x="537" y="-529.5" font-family="Helvetica,sans-Serif" font-size="10.00">T</text>
<polyline fill="none" stroke="#bfbfbf" points="522.5,-522.5 551.5,-522.5 "/>
<text text-anchor="middle" x="537" y="-510.5" font-family="Helvetica,sans-Serif" font-size="10.00"> </text>
<polyline fill="none" stroke="#bfbfbf" points="522.5,-503.5 551.5,-503.5 "/>
<text text-anchor="middle" x="537" y="-491.5" font-family="Helvetica,sans-Serif" font-size="10.00"> </text>
</g>
<!-- Node7&#45;&gt;Node6 -->
<g id="edge6" class="edge"><title>Node7&#45;&gt;Node6</title>
<path fill="none" stroke="#404040" d="M537,-484.242C537,-471.475 537,-456.088 537,-442.094"/>
<polygon fill="none" stroke="#404040" points="537,-441.749 533,-435.749 537,-429.749 541,-435.749 537,-441.749"/>
<text text-anchor="middle" x="561.5" y="-457.5" font-family="Helvetica,sans-Serif" font-size="10.00"> +elements</text>
</g>
<!-- Node8 -->
<g id="node8" class="node"><title>Node8</title>
<polygon fill="white" stroke="#bfbfbf" points="550.5,-244.5 550.5,-301.5 579.5,-301.5 579.5,-244.5 550.5,-244.5"/>
<text text-anchor="middle" x="565" y="-289.5" font-family="Helvetica,sans-Serif" font-size="10.00">int</text>
<polyline fill="none" stroke="#bfbfbf" points="550.5,-282.5 579.5,-282.5 "/>
<text text-anchor="middle" x="565" y="-270.5" font-family="Helvetica,sans-Serif" font-size="10.00"> </text>
<polyline fill="none" stroke="#bfbfbf" points="550.5,-263.5 579.5,-263.5 "/>
<text text-anchor="middle" x="565" y="-251.5" font-family="Helvetica,sans-Serif" font-size="10.00"> </text>
</g>
<!-- Node8&#45;&gt;Node1 -->
<g id="edge10" class="edge"><title>Node8&#45;&gt;Node1</title>
<path fill="none" stroke="#404040" d="M570.084,-244.271C575.683,-204.327 579.281,-130.712 540,-88 519.212,-65.3968 444.624,-51.5728 385.175,-43.9178"/>
<polygon fill="none" stroke="#404040" points="385.034,-43.9005 378.588,-47.1312 373.126,-42.4227 379.573,-39.1921 385.034,-43.9005"/>
<text text-anchor="middle" x="615" y="-206.5" font-family="Helvetica,sans-Serif" font-size="10.00"> +contactCenters</text>
<text text-anchor="middle" x="615" y="-195.5" font-family="Helvetica,sans-Serif" font-size="10.00">+contactPools</text>
<text text-anchor="start" x="573" y="-184.5" font-family="Helvetica,sans-Serif" font-size="10.00">+_1865_and_years</text>
<text text-anchor="middle" x="615" y="-173.5" font-family="Helvetica,sans-Serif" font-size="10.00">_active</text>
<text text-anchor="start" x="573" y="-162.5" font-family="Helvetica,sans-Serif" font-size="10.00">+_1826_years_and</text>
<text text-anchor="middle" x="615" y="-151.5" font-family="Helvetica,sans-Serif" font-size="10.00">_student</text>
<text text-anchor="middle" x="615" y="-140.5" font-family="Helvetica,sans-Serif" font-size="10.00">+households</text>
<text text-anchor="middle" x="615" y="-129.5" font-family="Helvetica,sans-Serif" font-size="10.00">+_1865_years</text>
<text text-anchor="middle" x="615" y="-118.5" font-family="Helvetica,sans-Serif" font-size="10.00">+_1826_years</text>
<text text-anchor="middle" x="615" y="-107.5" font-family="Helvetica,sans-Serif" font-size="10.00">+compulsoryPupils</text>
<text text-anchor="middle" x="615" y="-96.5" font-family="Helvetica,sans-Serif" font-size="10.00">+populationSize</text>
</g>
</g>
</svg>
        <g id="navigator" transform="translate(0 0)" fill="#404254">
                <rect fill="#f2f5e9" fill-opacity="0.5" stroke="#606060" stroke-width=".5" x="0" y="0" width="60" height="60"/>
                <use id="zoomplus" xlink:href="#zoomPlus" x="17" y="9" onmousedown="handleZoom(evt,'in')"/>
                <use id="zoomminus" xlink:href="#zoomMin" x="42" y="9" onmousedown="handleZoom(evt,'out')"/>
                <use id="reset" xlink:href="#resetDef" x="30" y="36" onmousedown="handleReset()"/>
                <g id="arrowUp" xlink:href="#dirArrow" transform="translate(30 24)" onmousedown="handlePan(0,-1)">
                  <use xlink:href="#rim" fill="#404040">
                        <set attributeName="fill" to="#808080" begin="arrowUp.mouseover" end="arrowUp.mouseout"/>
                  </use>
                  <path fill="none" stroke="white" stroke-width="1.5" d="M0,-3.0v7 M-2.5,-0.5L0,-3.0L2.5,-0.5"/>
                </g>
                <g id="arrowRight" xlink:href="#dirArrow" transform="rotate(90) translate(36 -43)" onmousedown="handlePan(1,0)">
                  <use xlink:href="#rim" fill="#404040">
                        <set attributeName="fill" to="#808080" begin="arrowRight.mouseover" end="arrowRight.mouseout"/>
                  </use>
                  <path fill="none" stroke="white" stroke-width="1.5" d="M0,-3.0v7 M-2.5,-0.5L0,-3.0L2.5,-0.5"/>
                </g>
                <g id="arrowDown" xlink:href="#dirArrow" transform="rotate(180) translate(-30 -48)" onmousedown="handlePan(0,1)">
                  <use xlink:href="#rim" fill="#404040">
                        <set attributeName="fill" to="#808080" begin="arrowDown.mouseover" end="arrowDown.mouseout"/>
                  </use>
                  <path fill="none" stroke="white" stroke-width="1.5" d="M0,-3.0v7 M-2.5,-0.5L0,-3.0L2.5,-0.5"/>
                </g>
                <g id="arrowLeft" xlink:href="#dirArrow" transform="rotate(270) translate(-36 17)" onmousedown="handlePan(-1,0)">
                  <use xlink:href="#rim" fill="#404040">
                        <set attributeName="fill" to="#808080" begin="arrowLeft.mouseover" end="arrowLeft.mouseout"/>
                  </use>
                  <path fill="none" stroke="white" stroke-width="1.5" d="M0,-3.0v7 M-2.5,-0.5L0,-3.0L2.5,-0.5"/>
                </g>
        </g>
        <svg viewBox="0 0 15 15" width="100%" height="30px" preserveAspectRatio="xMaxYMin meet">
         <g id="arrow_out" transform="scale(0.3 0.3)">
          <a xlink:href="a01002_org.svg" target="_base">
           <rect id="button" ry="5" rx="5" y="6" x="6" height="38" width="38"
                fill="#f2f5e9" fill-opacity="0.5" stroke="#606060" stroke-width="1.0"/>
           <path id="arrow"
             d="M 11.500037,31.436501 C 11.940474,20.09759 22.043105,11.32322 32.158766,21.979434 L 37.068811,17.246167 C 37.068811,17.246167 37.088388,32 37.088388,32 L 22.160133,31.978069 C 22.160133,31.978069 26.997745,27.140456 26.997745,27.140456 C 18.528582,18.264221 13.291696,25.230495 11.500037,31.436501 z"
             style="fill:#404040;"/>
          </a>
         </g>
        </svg>
</svg>
