<?xml version="1.0" encoding="UTF-8" standalone="no"?>
<!DOCTYPE svg PUBLIC "-//W3C//DTD SVG 1.1//EN"
 "http://www.w3.org/Graphics/SVG/1.1/DTD/svg11.dtd">
<!-- Generated by graphviz version 2.36.0 (20140111.2315)
 -->
<!-- Title: gengeopop::CitiesCSVReader Pages: 1 -->
<!--zoomable 896 -->
<svg id="main" version="1.1" xmlns="http://www.w3.org/2000/svg" xmlns:xlink="http://www.w3.org/1999/xlink" xml:space="preserve" onload="init(evt)">
<style type="text/css"><![CDATA[
.edge:hover path { stroke: red; }
.edge:hover polygon { stroke: red; fill: red; }
]]></style>
<script type="text/javascript"><![CDATA[
var edges = document.getElementsByTagName('g');
if (edges && edges.length) {
  for (var i=0;i<edges.length;i++) {
    if (edges[i].id.substr(0,4)=='edge') {
      edges[i].setAttribute('class','edge');
    }
  }
}
]]></script>
        <defs>
                <circle id="rim" cx="0" cy="0" r="7"/>
                <circle id="rim2" cx="0" cy="0" r="3.5"/>
                <g id="zoomPlus">
                        <use xlink:href="#rim" fill="#404040">
                                <set attributeName="fill" to="#808080" begin="zoomplus.mouseover" end="zoomplus.mouseout"/>
                        </use>
                        <path d="M-4,0h8M0,-4v8" fill="none" stroke="white" stroke-width="1.5" pointer-events="none"/>
                </g>
                <g id="zoomMin">
                        <use xlink:href="#rim" fill="#404040">
                                <set attributeName="fill" to="#808080" begin="zoomminus.mouseover" end="zoomminus.mouseout"/>
                        </use>
                        <path d="M-4,0h8" fill="none" stroke="white" stroke-width="1.5" pointer-events="none"/>
                </g>
                <g id="dirArrow">
                        <path fill="none" stroke="white" stroke-width="1.5" d="M0,-3.0v7 M-2.5,-0.5L0,-3.0L2.5,-0.5"/>
                </g>
               <g id="resetDef">
                       <use xlink:href="#rim2" fill="#404040">
                               <set attributeName="fill" to="#808080" begin="reset.mouseover" end="reset.mouseout"/>
                       </use>
               </g>
        </defs>

<script type="text/javascript">
var viewWidth = 471;
var viewHeight = 896;
var sectionId = 'dynsection-1';
</script>
<script xlink:href="../../svgpan.js"/>
<svg id="graph" class="graph">
<g id="viewport">
<title>gengeopop::CitiesCSVReader</title>
<polygon fill="white" stroke="none" points="-4,4 -4,-892 467,-892 467,4 -4,4"/>
<!-- Node1 -->
<g id="node1" class="node"><title>Node1</title>
<polygon fill="#bfbfbf" stroke="black" points="166,-1 166,-69 314,-69 314,-1 166,-1"/>
<text text-anchor="middle" x="240" y="-57" font-family="Helvetica,sans-Serif" font-size="10.00">gengeopop::CitiesCSVReader</text>
<polyline fill="none" stroke="black" points="166,-50 314,-50 "/>
<text text-anchor="middle" x="240" y="-38" font-family="Helvetica,sans-Serif" font-size="10.00"> </text>
<polyline fill="none" stroke="black" points="166,-31 314,-31 "/>
<text text-anchor="start" x="174" y="-19" font-family="Helvetica,sans-Serif" font-size="10.00">+ CitiesCSVReader()</text>
<text text-anchor="start" x="174" y="-8" font-family="Helvetica,sans-Serif" font-size="10.00">+ FillGeoGrid()</text>
</g>
<!-- Node2 -->
<g id="node2" class="node"><title>Node2</title>
<g id="a_node2"><a xlink:href="../../d4/d51/a00017.html" target="_top" xlink:title="Create an abstract Reader which fills a GeoGrid with the Cities found in a given file. ">
<polygon fill="white" stroke="black" points="92.5,-173.5 92.5,-252.5 219.5,-252.5 219.5,-173.5 92.5,-173.5"/>
<text text-anchor="middle" x="156" y="-240.5" font-family="Helvetica,sans-Serif" font-size="10.00">gengeopop::CitiesReader</text>
<polyline fill="none" stroke="black" points="92.5,-233.5 219.5,-233.5 "/>
<text text-anchor="middle" x="156" y="-221.5" font-family="Helvetica,sans-Serif" font-size="10.00"> </text>
<polyline fill="none" stroke="black" points="92.5,-214.5 219.5,-214.5 "/>
<text text-anchor="start" x="100.5" y="-202.5" font-family="Helvetica,sans-Serif" font-size="10.00">+ CitiesReader()</text>
<text text-anchor="start" x="100.5" y="-191.5" font-family="Helvetica,sans-Serif" font-size="10.00">+ FillGeoGrid()</text>
<text text-anchor="start" x="100.5" y="-180.5" font-family="Helvetica,sans-Serif" font-size="10.00">+ ~CitiesReader()</text>
</a>
</g>
</g>
<!-- Node2&#45;&gt;Node1 -->
<g id="edge1" class="edge"><title>Node2&#45;&gt;Node1</title>
<path fill="none" stroke="midnightblue" d="M178.761,-164.31C193.133,-134.197 211.34,-96.0502 224.152,-69.2044"/>
<polygon fill="none" stroke="midnightblue" points="175.583,-162.844 174.434,-173.376 181.9,-165.859 175.583,-162.844"/>
</g>
<!-- Node3 -->
<g id="node3" class="node"><title>Node3</title>
<polygon fill="white" stroke="#bfbfbf" points="52,-357 52,-425 156,-425 156,-357 52,-357"/>
<text text-anchor="start" x="60" y="-413" font-family="Helvetica,sans-Serif" font-size="10.00">std::unique_ptr&lt; std</text>
<text text-anchor="middle" x="104" y="-402" font-family="Helvetica,sans-Serif" font-size="10.00">::istream &gt;</text>
<polyline fill="none" stroke="#bfbfbf" points="52,-395 156,-395 "/>
<text text-anchor="middle" x="104" y="-383" font-family="Helvetica,sans-Serif" font-size="10.00"> </text>
<polyline fill="none" stroke="#bfbfbf" points="52,-376 156,-376 "/>
<text text-anchor="start" x="60" y="-364" font-family="Helvetica,sans-Serif" font-size="10.00">+ operator&#45;&gt;()</text>
</g>
<!-- Node3&#45;&gt;Node2 -->
<g id="edge2" class="edge"><title>Node3&#45;&gt;Node2</title>
<path fill="none" stroke="#404040" d="M113.781,-356.896C121.461,-330.903 132.284,-294.271 141.049,-264.605"/>
<polygon fill="none" stroke="#404040" points="141.14,-264.294 139.004,-257.406 144.541,-252.786 146.677,-259.673 141.14,-264.294"/>
<text text-anchor="middle" x="160.5" y="-329.5" font-family="Helvetica,sans-Serif" font-size="10.00"> #m_inputStream</text>
</g>
<!-- Node4 -->
<g id="node4" class="node"><title>Node4</title>
<g id="a_node4"><a xlink:title="STL class. ">
<polygon fill="white" stroke="#bfbfbf" points="24,-520.5 24,-577.5 92,-577.5 92,-520.5 24,-520.5"/>
<text text-anchor="middle" x="58" y="-565.5" font-family="Helvetica,sans-Serif" font-size="10.00">std::istream</text>
<polyline fill="none" stroke="#bfbfbf" points="24,-558.5 92,-558.5 "/>
<text text-anchor="middle" x="58" y="-546.5" font-family="Helvetica,sans-Serif" font-size="10.00"> </text>
<polyline fill="none" stroke="#bfbfbf" points="24,-539.5 92,-539.5 "/>
<text text-anchor="middle" x="58" y="-527.5" font-family="Helvetica,sans-Serif" font-size="10.00"> </text>
</a>
</g>
</g>
<!-- Node4&#45;&gt;Node3 -->
<g id="edge3" class="edge"><title>Node4&#45;&gt;Node3</title>
<path fill="none" stroke="#404040" d="M54.0006,-520.124C52.0387,-498.623 51.7761,-468.513 61,-444 62.083,-441.122 63.3959,-438.287 64.8804,-435.518"/>
<polygon fill="none" stroke="#404040" points="64.9692,-435.375 64.7591,-428.167 71.3319,-425.201 71.542,-432.409 64.9692,-435.375"/>
<text text-anchor="middle" x="71.5" y="-470.5" font-family="Helvetica,sans-Serif" font-size="10.00"> +ptr</text>
</g>
<!-- Node5 -->
<g id="node5" class="node"><title>Node5</title>
<g id="a_node5"><a xlink:title="STL class. ">
<polygon fill="white" stroke="#bfbfbf" points="9.5,-627 9.5,-695 106.5,-695 106.5,-627 9.5,-627"/>
<text text-anchor="start" x="17.5" y="-683" font-family="Helvetica,sans-Serif" font-size="10.00">std::basic_istream</text>
<text text-anchor="middle" x="58" y="-672" font-family="Helvetica,sans-Serif" font-size="10.00">&lt; char &gt;</text>
<polyline fill="none" stroke="#bfbfbf" points="9.5,-665 106.5,-665 "/>
<text text-anchor="middle" x="58" y="-653" font-family="Helvetica,sans-Serif" font-size="10.00"> </text>
<polyline fill="none" stroke="#bfbfbf" points="9.5,-646 106.5,-646 "/>
<text text-anchor="middle" x="58" y="-634" font-family="Helvetica,sans-Serif" font-size="10.00"> </text>
</a>
</g>
</g>
<!-- Node5&#45;&gt;Node4 -->
<g id="edge4" class="edge"><title>Node5&#45;&gt;Node4</title>
<path fill="none" stroke="midnightblue" d="M58,-616.743C58,-603.634 58,-589.591 58,-577.784"/>
<polygon fill="none" stroke="midnightblue" points="54.5001,-616.996 58,-626.996 61.5001,-616.996 54.5001,-616.996"/>
</g>
<!-- Node6 -->
<g id="node6" class="node"><title>Node6</title>
<g id="a_node6"><a xlink:title="STL class. ">
<polygon fill="white" stroke="#bfbfbf" points="0,-734.5 0,-791.5 116,-791.5 116,-734.5 0,-734.5"/>
<text text-anchor="middle" x="58" y="-779.5" font-family="Helvetica,sans-Serif" font-size="10.00">std::basic_ios&lt; Char &gt;</text>
<polyline fill="none" stroke="#bfbfbf" points="0,-772.5 116,-772.5 "/>
<text text-anchor="middle" x="58" y="-760.5" font-family="Helvetica,sans-Serif" font-size="10.00"> </text>
<polyline fill="none" stroke="#bfbfbf" points="0,-753.5 116,-753.5 "/>
<text text-anchor="middle" x="58" y="-741.5" font-family="Helvetica,sans-Serif" font-size="10.00"> </text>
</a>
</g>
</g>
<!-- Node6&#45;&gt;Node5 -->
<g id="edge5" class="edge"><title>Node6&#45;&gt;Node5</title>
<path fill="none" stroke="midnightblue" d="M58,-724.337C58,-714.755 58,-704.528 58,-695.187"/>
<polygon fill="none" stroke="midnightblue" points="54.5001,-724.41 58,-734.41 61.5001,-724.41 54.5001,-724.41"/>
</g>
<!-- Node7 -->
<g id="node7" class="node"><title>Node7</title>
<g id="a_node7"><a xlink:title="STL class. ">
<polygon fill="white" stroke="#bfbfbf" points="20.5,-830.5 20.5,-887.5 95.5,-887.5 95.5,-830.5 20.5,-830.5"/>
<text text-anchor="middle" x="58" y="-875.5" font-family="Helvetica,sans-Serif" font-size="10.00">std::ios_base</text>
<polyline fill="none" stroke="#bfbfbf" points="20.5,-868.5 95.5,-868.5 "/>
<text text-anchor="middle" x="58" y="-856.5" font-family="Helvetica,sans-Serif" font-size="10.00"> </text>
<polyline fill="none" stroke="#bfbfbf" points="20.5,-849.5 95.5,-849.5 "/>
<text text-anchor="middle" x="58" y="-837.5" font-family="Helvetica,sans-Serif" font-size="10.00"> </text>
</a>
</g>
</g>
<!-- Node7&#45;&gt;Node6 -->
<g id="edge6" class="edge"><title>Node7&#45;&gt;Node6</title>
<path fill="none" stroke="midnightblue" d="M58,-820.277C58,-810.772 58,-800.741 58,-791.822"/>
<polygon fill="none" stroke="midnightblue" points="54.5001,-820.305 58,-830.305 61.5001,-820.305 54.5001,-820.305"/>
</g>
<!-- Node8 -->
<g id="node8" class="node"><title>Node8</title>
<g id="a_node8"><a xlink:title="STL class. ">
<polygon fill="white" stroke="#bfbfbf" points="110.5,-520.5 110.5,-577.5 215.5,-577.5 215.5,-520.5 110.5,-520.5"/>
<text text-anchor="middle" x="163" y="-565.5" font-family="Helvetica,sans-Serif" font-size="10.00">std::unique_ptr&lt; T &gt;</text>
<polyline fill="none" stroke="#bfbfbf" points="110.5,-558.5 215.5,-558.5 "/>
<text text-anchor="middle" x="163" y="-546.5" font-family="Helvetica,sans-Serif" font-size="10.00"> </text>
<polyline fill="none" stroke="#bfbfbf" points="110.5,-539.5 215.5,-539.5 "/>
<text text-anchor="start" x="118.5" y="-527.5" font-family="Helvetica,sans-Serif" font-size="10.00">+ operator&#45;&gt;()</text>
</a>
</g>
</g>
<!-- Node8&#45;&gt;Node3 -->
<g id="edge7" class="edge"><title>Node8&#45;&gt;Node3</title>
<path fill="none" stroke="orange" d="M107.232,-512.871C104.429,-509.494 101.967,-505.871 100,-502 87.9688,-478.318 90.182,-447.924 94.718,-425.088"/>
<polygon fill="orange" stroke="orange" points="104.883,-515.48 114.317,-520.302 109.95,-510.649 104.883,-515.48"/>
<text text-anchor="middle" x="136.5" y="-470.5" font-family="Helvetica,sans-Serif" font-size="10.00"> &lt; std::istream &gt;</text>
</g>
<!-- Node9 -->
<g id="node9" class="node"><title>Node9</title>
<polygon fill="white" stroke="#bfbfbf" points="229.5,-632.5 229.5,-689.5 258.5,-689.5 258.5,-632.5 229.5,-632.5"/>
<text text-anchor="middle" x="244" y="-677.5" font-family="Helvetica,sans-Serif" font-size="10.00">T</text>
<polyline fill="none" stroke="#bfbfbf" points="229.5,-670.5 258.5,-670.5 "/>
<text text-anchor="middle" x="244" y="-658.5" font-family="Helvetica,sans-Serif" font-size="10.00"> </text>
<polyline fill="none" stroke="#bfbfbf" points="229.5,-651.5 258.5,-651.5 "/>
<text text-anchor="middle" x="244" y="-639.5" font-family="Helvetica,sans-Serif" font-size="10.00"> </text>
</g>
<!-- Node9&#45;&gt;Node8 -->
<g id="edge8" class="edge"><title>Node9&#45;&gt;Node8</title>
<path fill="none" stroke="#404040" d="M229.175,-643.051C220.65,-633.068 209.9,-620.068 201,-608 196.311,-601.642 191.529,-594.732 187.009,-587.972"/>
<polygon fill="none" stroke="#404040" points="186.765,-587.6 180.127,-584.782 180.175,-577.571 186.813,-580.389 186.765,-587.6"/>
<text text-anchor="middle" x="211.5" y="-599.5" font-family="Helvetica,sans-Serif" font-size="10.00"> +ptr</text>
</g>
<!-- Node11 -->
<g id="node11" class="node"><title>Node11</title>
<g id="a_node11"><a xlink:title="STL class. ">
<polygon fill="white" stroke="#bfbfbf" points="182,-444.5 182,-501.5 304,-501.5 304,-444.5 182,-444.5"/>
<text text-anchor="middle" x="243" y="-489.5" font-family="Helvetica,sans-Serif" font-size="10.00">std::vector&lt; CSVRow &gt;</text>
<polyline fill="none" stroke="#bfbfbf" points="182,-482.5 304,-482.5 "/>
<text text-anchor="middle" x="243" y="-470.5" font-family="Helvetica,sans-Serif" font-size="10.00"> </text>
<polyline fill="none" stroke="#bfbfbf" points="182,-463.5 304,-463.5 "/>
<text text-anchor="middle" x="243" y="-451.5" font-family="Helvetica,sans-Serif" font-size="10.00"> </text>
</a>
</g>
</g>
<!-- Node9&#45;&gt;Node11 -->
<g id="edge11" class="edge"><title>Node9&#45;&gt;Node11</title>
<path fill="none" stroke="#404040" d="M243.372,-632.475C243.218,-624.573 243.076,-615.946 243,-608 242.696,-576.413 242.715,-540.637 242.799,-514.001"/>
<polygon fill="none" stroke="#404040" points="242.8,-513.718 238.822,-507.703 242.845,-501.718 246.822,-507.733 242.8,-513.718"/>
<text text-anchor="middle" x="267.5" y="-599.5" font-family="Helvetica,sans-Serif" font-size="10.00"> +elements</text>
</g>
<!-- Node16 -->
<g id="node16" class="node"><title>Node16</title>
<g id="a_node16"><a xlink:title="STL class. ">
<polygon fill="white" stroke="#bfbfbf" points="278.5,-520.5 278.5,-577.5 365.5,-577.5 365.5,-520.5 278.5,-520.5"/>
<text text-anchor="middle" x="322" y="-565.5" font-family="Helvetica,sans-Serif" font-size="10.00">std::vector&lt; T &gt;</text>
<polyline fill="none" stroke="#bfbfbf" points="278.5,-558.5 365.5,-558.5 "/>
<text text-anchor="middle" x="322" y="-546.5" font-family="Helvetica,sans-Serif" font-size="10.00"> </text>
<polyline fill="none" stroke="#bfbfbf" points="278.5,-539.5 365.5,-539.5 "/>
<text text-anchor="middle" x="322" y="-527.5" font-family="Helvetica,sans-Serif" font-size="10.00"> </text>
</a>
</g>
</g>
<!-- Node9&#45;&gt;Node16 -->
<g id="edge17" class="edge"><title>Node9&#45;&gt;Node16</title>
<path fill="none" stroke="#404040" d="M258.693,-647.95C269.997,-638.103 285.423,-623.348 296,-608 300.092,-602.063 303.789,-595.378 307.026,-588.713"/>
<polygon fill="none" stroke="#404040" points="307.083,-588.587 305.91,-581.472 312.027,-577.653 313.2,-584.768 307.083,-588.587"/>
<text text-anchor="middle" x="328.5" y="-599.5" font-family="Helvetica,sans-Serif" font-size="10.00"> +elements</text>
</g>
<!-- Node10 -->
<g id="node10" class="node"><title>Node10</title>
<g id="a_node10"><a xlink:href="../../d9/d7d/a00150.html" target="_top" xlink:title="A collection of CSVRow elements. ">
<polygon fill="white" stroke="black" points="243.5,-118.5 243.5,-307.5 352.5,-307.5 352.5,-118.5 243.5,-118.5"/>
<text text-anchor="middle" x="298" y="-295.5" font-family="Helvetica,sans-Serif" font-size="10.00">stride::util::CSV</text>
<polyline fill="none" stroke="black" points="243.5,-288.5 352.5,-288.5 "/>
<text text-anchor="middle" x="298" y="-276.5" font-family="Helvetica,sans-Serif" font-size="10.00"> </text>
<polyline fill="none" stroke="black" points="243.5,-269.5 352.5,-269.5 "/>
<text text-anchor="start" x="251.5" y="-257.5" font-family="Helvetica,sans-Serif" font-size="10.00">+ CSV()</text>
<text text-anchor="start" x="251.5" y="-246.5" font-family="Helvetica,sans-Serif" font-size="10.00">+ CSV()</text>
<text text-anchor="start" x="251.5" y="-235.5" font-family="Helvetica,sans-Serif" font-size="10.00">+ CSV()</text>
<text text-anchor="start" x="251.5" y="-224.5" font-family="Helvetica,sans-Serif" font-size="10.00">+ CSV()</text>
<text text-anchor="start" x="251.5" y="-213.5" font-family="Helvetica,sans-Serif" font-size="10.00">+ GetColumnCount()</text>
<text text-anchor="start" x="251.5" y="-202.5" font-family="Helvetica,sans-Serif" font-size="10.00">+ operator==()</text>
<text text-anchor="start" x="251.5" y="-191.5" font-family="Helvetica,sans-Serif" font-size="10.00">+ AddRow()</text>
<text text-anchor="start" x="251.5" y="-180.5" font-family="Helvetica,sans-Serif" font-size="10.00">+ AddRow()</text>
<text text-anchor="start" x="251.5" y="-169.5" font-family="Helvetica,sans-Serif" font-size="10.00">+ AddRows()</text>
<text text-anchor="start" x="251.5" y="-158.5" font-family="Helvetica,sans-Serif" font-size="10.00">+ Write()</text>
<text text-anchor="start" x="251.5" y="-147.5" font-family="Helvetica,sans-Serif" font-size="10.00">+ GetIndexForLabel()</text>
<text text-anchor="start" x="251.5" y="-136.5" font-family="Helvetica,sans-Serif" font-size="10.00">+ GetLabels()</text>
<text text-anchor="start" x="251.5" y="-125.5" font-family="Helvetica,sans-Serif" font-size="10.00">&#45; ReadFromStream()</text>
</a>
</g>
</g>
<!-- Node10&#45;&gt;Node1 -->
<g id="edge9" class="edge"><title>Node10&#45;&gt;Node1</title>
<path fill="none" stroke="#404040" d="M267.132,-118.332C262.835,-105.293 258.593,-92.4209 254.786,-80.8668"/>
<polygon fill="none" stroke="#404040" points="254.747,-80.7487 249.07,-76.3021 250.991,-69.3516 256.668,-73.7982 254.747,-80.7487"/>
<text text-anchor="middle" x="284.5" y="-91.5" font-family="Helvetica,sans-Serif" font-size="10.00"> &#45;m_reader</text>
</g>
<!-- Node11&#45;&gt;Node10 -->
<g id="edge10" class="edge"><title>Node11&#45;&gt;Node10</title>
<path fill="none" stroke="darkgreen" d="M246.479,-434.197C248.924,-411.409 252.711,-381.88 258,-356 261.205,-340.317 265.229,-323.827 269.482,-307.86"/>
<polygon fill="none" stroke="darkgreen" points="242.996,-433.848 245.449,-444.155 249.959,-434.569 242.996,-433.848"/>
</g>
<!-- Node12 -->
<g id="node12" class="node"><title>Node12</title>
<g id="a_node12"><a xlink:href="../../d9/d34/a00476.html" target="_top" xlink:title="{size_t\n||}">
<polygon fill="white" stroke="black" points="410.5,-362.5 410.5,-419.5 453.5,-419.5 453.5,-362.5 410.5,-362.5"/>
<text text-anchor="middle" x="432" y="-407.5" font-family="Helvetica,sans-Serif" font-size="10.00">size_t</text>
<polyline fill="none" stroke="black" points="410.5,-400.5 453.5,-400.5 "/>
<text text-anchor="middle" x="432" y="-388.5" font-family="Helvetica,sans-Serif" font-size="10.00"> </text>
<polyline fill="none" stroke="black" points="410.5,-381.5 453.5,-381.5 "/>
<text text-anchor="middle" x="432" y="-369.5" font-family="Helvetica,sans-Serif" font-size="10.00"> </text>
</a>
</g>
</g>
<!-- Node12&#45;&gt;Node10 -->
<g id="edge12" class="edge"><title>Node12&#45;&gt;Node10</title>
<path fill="none" stroke="#404040" d="M410.767,-362.112C397.017,-344.052 378.34,-319.521 360.143,-295.62"/>
<polygon fill="none" stroke="#404040" points="359.932,-295.344 353.115,-292.993 352.663,-285.796 359.48,-288.147 359.932,-295.344"/>
<text text-anchor="middle" x="426.5" y="-329.5" font-family="Helvetica,sans-Serif" font-size="10.00"> #columnCount</text>
</g>
<!-- Node13 -->
<g id="node13" class="node"><title>Node13</title>
<polygon fill="white" stroke="#bfbfbf" points="267.5,-362.5 267.5,-419.5 392.5,-419.5 392.5,-362.5 267.5,-362.5"/>
<text text-anchor="middle" x="330" y="-407.5" font-family="Helvetica,sans-Serif" font-size="10.00">std::vector&lt; std::string &gt;</text>
<polyline fill="none" stroke="#bfbfbf" points="267.5,-400.5 392.5,-400.5 "/>
<text text-anchor="middle" x="330" y="-388.5" font-family="Helvetica,sans-Serif" font-size="10.00"> </text>
<polyline fill="none" stroke="#bfbfbf" points="267.5,-381.5 392.5,-381.5 "/>
<text text-anchor="middle" x="330" y="-369.5" font-family="Helvetica,sans-Serif" font-size="10.00"> </text>
</g>
<!-- Node13&#45;&gt;Node10 -->
<g id="edge13" class="edge"><title>Node13&#45;&gt;Node10</title>
<path fill="none" stroke="#404040" d="M324.93,-362.112C322.753,-350.14 320.059,-335.325 317.224,-319.734"/>
<polygon fill="none" stroke="#404040" points="317.182,-319.502 312.173,-314.314 315.036,-307.696 320.044,-312.883 317.182,-319.502"/>
<text text-anchor="middle" x="338" y="-329.5" font-family="Helvetica,sans-Serif" font-size="10.00"> #labels</text>
</g>
<!-- Node14 -->
<g id="node14" class="node"><title>Node14</title>
<g id="a_node14"><a xlink:title="STL class. ">
<polygon fill="white" stroke="#bfbfbf" points="385,-520.5 385,-577.5 445,-577.5 445,-520.5 385,-520.5"/>
<text text-anchor="middle" x="415" y="-565.5" font-family="Helvetica,sans-Serif" font-size="10.00">std::string</text>
<polyline fill="none" stroke="#bfbfbf" points="385,-558.5 445,-558.5 "/>
<text text-anchor="middle" x="415" y="-546.5" font-family="Helvetica,sans-Serif" font-size="10.00"> </text>
<polyline fill="none" stroke="#bfbfbf" points="385,-539.5 445,-539.5 "/>
<text text-anchor="middle" x="415" y="-527.5" font-family="Helvetica,sans-Serif" font-size="10.00"> </text>
</a>
</g>
</g>
<!-- Node14&#45;&gt;Node13 -->
<g id="edge14" class="edge"><title>Node14&#45;&gt;Node13</title>
<path fill="none" stroke="#404040" d="M414.075,-520.113C412.223,-498.051 407.055,-467.204 393,-444 389.556,-438.314 385.261,-432.967 380.542,-428.025"/>
<polygon fill="none" stroke="#404040" points="380.369,-427.861 373.266,-426.617 371.682,-419.582 378.785,-420.826 380.369,-427.861"/>
<text text-anchor="middle" x="436.5" y="-470.5" font-family="Helvetica,sans-Serif" font-size="10.00"> +elements</text>
</g>
<!-- Node15 -->
<g id="node15" class="node"><title>Node15</title>
<g id="a_node15"><a xlink:title="STL class. ">
<polygon fill="white" stroke="#bfbfbf" points="367.5,-627 367.5,-695 462.5,-695 462.5,-627 367.5,-627"/>
<text text-anchor="start" x="375.5" y="-683" font-family="Helvetica,sans-Serif" font-size="10.00">std::basic_string&lt;</text>
<text text-anchor="middle" x="415" y="-672" font-family="Helvetica,sans-Serif" font-size="10.00"> char &gt;</text>
<polyline fill="none" stroke="#bfbfbf" points="367.5,-665 462.5,-665 "/>
<text text-anchor="middle" x="415" y="-653" font-family="Helvetica,sans-Serif" font-size="10.00"> </text>
<polyline fill="none" stroke="#bfbfbf" points="367.5,-646 462.5,-646 "/>
<text text-anchor="middle" x="415" y="-634" font-family="Helvetica,sans-Serif" font-size="10.00"> </text>
</a>
</g>
</g>
<!-- Node15&#45;&gt;Node14 -->
<g id="edge15" class="edge"><title>Node15&#45;&gt;Node14</title>
<path fill="none" stroke="midnightblue" d="M415,-616.743C415,-603.634 415,-589.591 415,-577.784"/>
<polygon fill="none" stroke="midnightblue" points="411.5,-616.996 415,-626.996 418.5,-616.996 411.5,-616.996"/>
</g>
<!-- Node16&#45;&gt;Node13 -->
<g id="edge16" class="edge"><title>Node16&#45;&gt;Node13</title>
<path fill="none" stroke="orange" d="M323.936,-510.251C325.372,-482.251 327.296,-444.72 328.589,-419.517"/>
<polygon fill="orange" stroke="orange" points="320.429,-510.303 323.412,-520.469 327.419,-510.662 320.429,-510.303"/>
<text text-anchor="middle" x="360.5" y="-470.5" font-family="Helvetica,sans-Serif" font-size="10.00"> &lt; std::string &gt;</text>
</g>
</g>
</svg>
        <g id="navigator" transform="translate(0 0)" fill="#404254">
                <rect fill="#f2f5e9" fill-opacity="0.5" stroke="#606060" stroke-width=".5" x="0" y="0" width="60" height="60"/>
                <use id="zoomplus" xlink:href="#zoomPlus" x="17" y="9" onmousedown="handleZoom(evt,'in')"/>
                <use id="zoomminus" xlink:href="#zoomMin" x="42" y="9" onmousedown="handleZoom(evt,'out')"/>
                <use id="reset" xlink:href="#resetDef" x="30" y="36" onmousedown="handleReset()"/>
                <g id="arrowUp" xlink:href="#dirArrow" transform="translate(30 24)" onmousedown="handlePan(0,-1)">
                  <use xlink:href="#rim" fill="#404040">
                        <set attributeName="fill" to="#808080" begin="arrowUp.mouseover" end="arrowUp.mouseout"/>
                  </use>
                  <path fill="none" stroke="white" stroke-width="1.5" d="M0,-3.0v7 M-2.5,-0.5L0,-3.0L2.5,-0.5"/>
                </g>
                <g id="arrowRight" xlink:href="#dirArrow" transform="rotate(90) translate(36 -43)" onmousedown="handlePan(1,0)">
                  <use xlink:href="#rim" fill="#404040">
                        <set attributeName="fill" to="#808080" begin="arrowRight.mouseover" end="arrowRight.mouseout"/>
                  </use>
                  <path fill="none" stroke="white" stroke-width="1.5" d="M0,-3.0v7 M-2.5,-0.5L0,-3.0L2.5,-0.5"/>
                </g>
                <g id="arrowDown" xlink:href="#dirArrow" transform="rotate(180) translate(-30 -48)" onmousedown="handlePan(0,1)">
                  <use xlink:href="#rim" fill="#404040">
                        <set attributeName="fill" to="#808080" begin="arrowDown.mouseover" end="arrowDown.mouseout"/>
                  </use>
                  <path fill="none" stroke="white" stroke-width="1.5" d="M0,-3.0v7 M-2.5,-0.5L0,-3.0L2.5,-0.5"/>
                </g>
                <g id="arrowLeft" xlink:href="#dirArrow" transform="rotate(270) translate(-36 17)" onmousedown="handlePan(-1,0)">
                  <use xlink:href="#rim" fill="#404040">
                        <set attributeName="fill" to="#808080" begin="arrowLeft.mouseover" end="arrowLeft.mouseout"/>
                  </use>
                  <path fill="none" stroke="white" stroke-width="1.5" d="M0,-3.0v7 M-2.5,-0.5L0,-3.0L2.5,-0.5"/>
                </g>
        </g>
        <svg viewBox="0 0 15 15" width="100%" height="30px" preserveAspectRatio="xMaxYMin meet">
         <g id="arrow_out" transform="scale(0.3 0.3)">
          <a xlink:href="a01002_org.svg" target="_base">
           <rect id="button" ry="5" rx="5" y="6" x="6" height="38" width="38"
                fill="#f2f5e9" fill-opacity="0.5" stroke="#606060" stroke-width="1.0"/>
           <path id="arrow"
             d="M 11.500037,31.436501 C 11.940474,20.09759 22.043105,11.32322 32.158766,21.979434 L 37.068811,17.246167 C 37.068811,17.246167 37.088388,32 37.088388,32 L 22.160133,31.978069 C 22.160133,31.978069 26.997745,27.140456 26.997745,27.140456 C 18.528582,18.264221 13.291696,25.230495 11.500037,31.436501 z"
             style="fill:#404040;"/>
          </a>
         </g>
        </svg>
</svg>
