<?xml version="1.0" encoding="UTF-8" standalone="no"?>
<!DOCTYPE svg PUBLIC "-//W3C//DTD SVG 1.1//EN"
 "http://www.w3.org/Graphics/SVG/1.1/DTD/svg11.dtd">
<!-- Generated by graphviz version 2.36.0 (20140111.2315)
 -->
<!-- Title: geogrid.pb.h Pages: 1 -->
<svg width="741pt" height="140pt"
 viewBox="0.00 0.00 741.00 140.00" xmlns="http://www.w3.org/2000/svg" xmlns:xlink="http://www.w3.org/1999/xlink">
<g id="graph0" class="graph" transform="scale(1 1) rotate(0) translate(4 136)">
<title>geogrid.pb.h</title>
<polygon fill="white" stroke="none" points="-4,4 -4,-136 737,-136 737,4 -4,4"/>
<!-- Node1 -->
<g id="node1" class="node"><title>Node1</title>
<polygon fill="#bfbfbf" stroke="black" points="290,-112.5 290,-131.5 360,-131.5 360,-112.5 290,-112.5"/>
<text text-anchor="middle" x="325" y="-119.5" font-family="Helvetica,sans-Serif" font-size="10.00">geogrid.pb.h</text>
</g>
<!-- Node2 -->
<g id="node2" class="node"><title>Node2</title>
<g id="a_node2"><a xlink:href="../../dd/dfe/a00283.html" target="_top" xlink:title="GeoGridProtoReader.h">
<polygon fill="white" stroke="black" points="189,-56.5 189,-75.5 305,-75.5 305,-56.5 189,-56.5"/>
<text text-anchor="middle" x="247" y="-63.5" font-family="Helvetica,sans-Serif" font-size="10.00">GeoGridProtoReader.h</text>
</a>
</g>
</g>
<!-- Node1&#45;&gt;Node2 -->
<g id="edge1" class="edge"><title>Node1&#45;&gt;Node2</title>
<path fill="none" stroke="midnightblue" d="M304.232,-106.622C289.983,-96.7574 271.544,-83.9919 259.501,-75.6545"/>
<polygon fill="midnightblue" stroke="midnightblue" points="302.254,-109.51 312.468,-112.324 306.238,-103.754 302.254,-109.51"/>
</g>
<!-- Node3 -->
<g id="node3" class="node"><title>Node3</title>
<g id="a_node3"><a xlink:href="../../dc/dc9/a00282.html" target="_top" xlink:title="GeoGridProtoReader.cpp">
<polygon fill="white" stroke="black" points="0,-0.5 0,-19.5 126,-19.5 126,-0.5 0,-0.5"/>
<text text-anchor="middle" x="63" y="-7.5" font-family="Helvetica,sans-Serif" font-size="10.00">GeoGridProtoReader.cpp</text>
</a>
</g>
</g>
<!-- Node1&#45;&gt;Node3 -->
<g id="edge5" class="edge"><title>Node1&#45;&gt;Node3</title>
<path fill="none" stroke="midnightblue" d="M280.707,-109.811C251.55,-101.828 212.845,-90.0421 180,-76 140.687,-59.1925 97.4439,-32.9667 76.2295,-19.5442"/>
<polygon fill="midnightblue" stroke="midnightblue" points="280.03,-113.254 290.596,-112.474 281.85,-106.494 280.03,-113.254"/>
</g>
<!-- Node6 -->
<g id="node6" class="node"><title>Node6</title>
<g id="a_node6"><a xlink:href="../../d3/d58/a00285.html" target="_top" xlink:title="GeoGridProtoWriter.h">
<polygon fill="white" stroke="black" points="466,-56.5 466,-75.5 576,-75.5 576,-56.5 466,-56.5"/>
<text text-anchor="middle" x="521" y="-63.5" font-family="Helvetica,sans-Serif" font-size="10.00">GeoGridProtoWriter.h</text>
</a>
</g>
</g>
<!-- Node1&#45;&gt;Node6 -->
<g id="edge6" class="edge"><title>Node1&#45;&gt;Node6</title>
<path fill="none" stroke="midnightblue" d="M366.02,-109.699C403.011,-99.507 456.6,-84.7429 490.089,-75.5164"/>
<polygon fill="midnightblue" stroke="midnightblue" points="364.768,-106.413 356.057,-112.444 366.627,-113.162 364.768,-106.413"/>
</g>
<!-- Node7 -->
<g id="node7" class="node"><title>Node7</title>
<g id="a_node7"><a xlink:href="../../db/dc3/a00284.html" target="_top" xlink:title="GeoGridProtoWriter.cpp">
<polygon fill="white" stroke="black" points="388.5,-0.5 388.5,-19.5 509.5,-19.5 509.5,-0.5 388.5,-0.5"/>
<text text-anchor="middle" x="449" y="-7.5" font-family="Helvetica,sans-Serif" font-size="10.00">GeoGridProtoWriter.cpp</text>
</a>
</g>
</g>
<!-- Node1&#45;&gt;Node7 -->
<g id="edge10" class="edge"><title>Node1&#45;&gt;Node7</title>
<path fill="none" stroke="midnightblue" d="M342.46,-105.512C368.956,-82.0068 418.44,-38.1096 439.315,-19.5914"/>
<polygon fill="midnightblue" stroke="midnightblue" points="339.888,-103.114 334.73,-112.368 344.534,-108.351 339.888,-103.114"/>
</g>
<!-- Node2&#45;&gt;Node3 -->
<g id="edge2" class="edge"><title>Node2&#45;&gt;Node3</title>
<path fill="none" stroke="midnightblue" d="M208.046,-53.5677C173.335,-43.381 123.323,-28.7034 92.0189,-19.5164"/>
<polygon fill="midnightblue" stroke="midnightblue" points="207.264,-56.9858 217.845,-56.4435 209.235,-50.2691 207.264,-56.9858"/>
</g>
<!-- Node4 -->
<g id="node4" class="node"><title>Node4</title>
<g id="a_node4"><a xlink:href="../../da/ddc/a00288.html" target="_top" xlink:title="GeoGridReaderFactory.cpp">
<polygon fill="white" stroke="black" points="144,-0.5 144,-19.5 280,-19.5 280,-0.5 144,-0.5"/>
<text text-anchor="middle" x="212" y="-7.5" font-family="Helvetica,sans-Serif" font-size="10.00">GeoGridReaderFactory.cpp</text>
</a>
</g>
</g>
<!-- Node2&#45;&gt;Node4 -->
<g id="edge3" class="edge"><title>Node2&#45;&gt;Node4</title>
<path fill="none" stroke="midnightblue" d="M235.7,-47.5656C229.678,-38.2747 222.531,-27.2484 217.672,-19.7511"/>
<polygon fill="midnightblue" stroke="midnightblue" points="232.844,-49.5951 241.22,-56.083 238.719,-45.7878 232.844,-49.5951"/>
</g>
<!-- Node5 -->
<g id="node5" class="node"><title>Node5</title>
<g id="a_node5"><a xlink:href="../../d2/d94/a00184.html" target="_top" xlink:title="backend.cpp">
<polygon fill="white" stroke="black" points="298,-0.5 298,-19.5 370,-19.5 370,-0.5 298,-0.5"/>
<text text-anchor="middle" x="334" y="-7.5" font-family="Helvetica,sans-Serif" font-size="10.00">backend.cpp</text>
</a>
</g>
</g>
<!-- Node2&#45;&gt;Node5 -->
<g id="edge4" class="edge"><title>Node2&#45;&gt;Node5</title>
<path fill="none" stroke="midnightblue" d="M269.716,-50.9005C285.669,-40.9986 306.497,-28.0705 320.057,-19.6545"/>
<polygon fill="midnightblue" stroke="midnightblue" points="267.629,-48.0765 260.978,-56.324 271.32,-54.024 267.629,-48.0765"/>
</g>
<!-- Node6&#45;&gt;Node7 -->
<g id="edge7" class="edge"><title>Node6&#45;&gt;Node7</title>
<path fill="none" stroke="midnightblue" d="M501.134,-50.1008C488.177,-40.3824 471.703,-28.0269 460.779,-19.8339"/>
<polygon fill="midnightblue" stroke="midnightblue" points="499.332,-53.1239 509.432,-56.324 503.532,-47.5239 499.332,-53.1239"/>
</g>
<!-- Node8 -->
<g id="node8" class="node"><title>Node8</title>
<g id="a_node8"><a xlink:href="../../da/dd4/a00291.html" target="_top" xlink:title="GeoGridWriterFactory.cpp">
<polygon fill="white" stroke="black" points="527.5,-0.5 527.5,-19.5 658.5,-19.5 658.5,-0.5 527.5,-0.5"/>
<text text-anchor="middle" x="593" y="-7.5" font-family="Helvetica,sans-Serif" font-size="10.00">GeoGridWriterFactory.cpp</text>
</a>
</g>
</g>
<!-- Node6&#45;&gt;Node8 -->
<g id="edge8" class="edge"><title>Node6&#45;&gt;Node8</title>
<path fill="none" stroke="midnightblue" d="M540.866,-50.1008C553.823,-40.3824 570.297,-28.0269 581.221,-19.8339"/>
<polygon fill="midnightblue" stroke="midnightblue" points="538.468,-47.5239 532.568,-56.324 542.668,-53.1239 538.468,-47.5239"/>
</g>
<!-- Node9 -->
<g id="node9" class="node"><title>Node9</title>
<g id="a_node9"><a xlink:href="../../df/d03/a00348.html" target="_top" xlink:title="main.cpp">
<polygon fill="white" stroke="black" points="677,-0.5 677,-19.5 733,-19.5 733,-0.5 677,-0.5"/>
<text text-anchor="middle" x="705" y="-7.5" font-family="Helvetica,sans-Serif" font-size="10.00">main.cpp</text>
</a>
</g>
</g>
<!-- Node6&#45;&gt;Node9 -->
<g id="edge9" class="edge"><title>Node6&#45;&gt;Node9</title>
<path fill="none" stroke="midnightblue" d="M560.045,-53.5411C595.089,-43.2566 645.675,-28.4105 676.886,-19.2508"/>
<polygon fill="midnightblue" stroke="midnightblue" points="558.765,-50.2691 550.155,-56.4435 560.736,-56.9858 558.765,-50.2691"/>
</g>
</g>
</svg>
