<?xml version="1.0" encoding="UTF-8" standalone="no"?>
<!DOCTYPE svg PUBLIC "-//W3C//DTD SVG 1.1//EN"
 "http://www.w3.org/Graphics/SVG/1.1/DTD/svg11.dtd">
<!-- Generated by graphviz version 2.36.0 (20140111.2315)
 -->
<!-- Title: stride::ContactPoolType::IdSubscriptArray&lt; bool &gt;::at Pages: 1 -->
<svg width="312pt" height="87pt"
 viewBox="0.00 0.00 312.00 87.00" xmlns="http://www.w3.org/2000/svg" xmlns:xlink="http://www.w3.org/1999/xlink">
<g id="graph0" class="graph" transform="scale(1 1) rotate(0) translate(4 83)">
<title>stride::ContactPoolType::IdSubscriptArray&lt; bool &gt;::at</title>
<polygon fill="white" stroke="none" points="-4,4 -4,-83 308,-83 308,4 -4,4"/>
<!-- Node1 -->
<g id="node1" class="node"><title>Node1</title>
<polygon fill="#bfbfbf" stroke="black" points="0,-24 0,-54 146,-54 146,-24 0,-24"/>
<text text-anchor="start" x="8" y="-42" font-family="Helvetica,sans-Serif" font-size="10.00">stride::ContactPoolType</text>
<text text-anchor="middle" x="73" y="-31" font-family="Helvetica,sans-Serif" font-size="10.00">::IdSubscriptArray&lt; bool &gt;::at</text>
</g>
<!-- Node2 -->
<g id="node2" class="node"><title>Node2</title>
<g id="a_node2"><a xlink:href="../../d7/d5e/a00467.html#af724b7d598645a8c1054b66306dee629" target="_top" xlink:title="Number of ContactPool types. ">
<polygon fill="white" stroke="black" points="182,-49 182,-79 304,-79 304,-49 182,-49"/>
<text text-anchor="start" x="190" y="-67" font-family="Helvetica,sans-Serif" font-size="10.00">stride::ContactPoolType</text>
<text text-anchor="middle" x="243" y="-56" font-family="Helvetica,sans-Serif" font-size="10.00">::NumOfTypes</text>
</a>
</g>
</g>
<!-- Node1&#45;&gt;Node2 -->
<g id="edge1" class="edge"><title>Node1&#45;&gt;Node2</title>
<path fill="none" stroke="midnightblue" d="M146.222,-49.7473C154.787,-51.0219 163.52,-52.3214 172.052,-53.5911"/>
<polygon fill="midnightblue" stroke="midnightblue" points="171.55,-57.0548 181.956,-55.0649 172.58,-50.131 171.55,-57.0548"/>
</g>
<!-- Node3 -->
<g id="node3" class="node"><title>Node3</title>
<g id="a_node3"><a xlink:href="../../d7/d5e/a00467.html#ac36d342acc9d969f5de3aa55e95b9fe6" target="_top" xlink:title="Cast to size_t for indexing. ">
<polygon fill="white" stroke="black" points="182,-0 182,-30 304,-30 304,-0 182,-0"/>
<text text-anchor="start" x="190" y="-18" font-family="Helvetica,sans-Serif" font-size="10.00">stride::ContactPoolType</text>
<text text-anchor="middle" x="243" y="-7" font-family="Helvetica,sans-Serif" font-size="10.00">::ToSizeT</text>
</a>
</g>
</g>
<!-- Node1&#45;&gt;Node3 -->
<g id="edge2" class="edge"><title>Node1&#45;&gt;Node3</title>
<path fill="none" stroke="midnightblue" d="M146.222,-28.6826C154.787,-27.4589 163.52,-26.2115 172.052,-24.9925"/>
<polygon fill="midnightblue" stroke="midnightblue" points="172.552,-28.4568 181.956,-23.5777 171.561,-21.5272 172.552,-28.4568"/>
</g>
</g>
</svg>
