<?xml version="1.0" encoding="UTF-8" standalone="no"?>
<!DOCTYPE svg PUBLIC "-//W3C//DTD SVG 1.1//EN"
 "http://www.w3.org/Graphics/SVG/1.1/DTD/svg11.dtd">
<!-- Generated by graphviz version 2.36.0 (20140111.2315)
 -->
<!-- Title: gengeopop::GeoGridJSONReader Pages: 1 -->
<svg width="172pt" height="348pt"
 viewBox="0.00 0.00 172.00 348.00" xmlns="http://www.w3.org/2000/svg" xmlns:xlink="http://www.w3.org/1999/xlink">
<g id="graph0" class="graph" transform="scale(1 1) rotate(0) translate(4 344)">
<title>gengeopop::GeoGridJSONReader</title>
<polygon fill="white" stroke="none" points="-4,4 -4,-344 168,-344 168,4 -4,4"/>
<!-- Node1 -->
<g id="node1" class="node"><title>Node1</title>
<polygon fill="#bfbfbf" stroke="black" points="0,-0.5 0,-123.5 164,-123.5 164,-0.5 0,-0.5"/>
<text text-anchor="middle" x="82" y="-111.5" font-family="Helvetica,sans-Serif" font-size="10.00">gengeopop::GeoGridJSONReader</text>
<polyline fill="none" stroke="black" points="0,-104.5 164,-104.5 "/>
<text text-anchor="start" x="8" y="-92.5" font-family="Helvetica,sans-Serif" font-size="10.00">&#45; m_geoGrid</text>
<polyline fill="none" stroke="black" points="0,-85.5 164,-85.5 "/>
<text text-anchor="start" x="8" y="-73.5" font-family="Helvetica,sans-Serif" font-size="10.00">+ GeoGridJSONReader()</text>
<text text-anchor="start" x="8" y="-62.5" font-family="Helvetica,sans-Serif" font-size="10.00">+ Read()</text>
<text text-anchor="start" x="8" y="-51.5" font-family="Helvetica,sans-Serif" font-size="10.00">&#45; ParseLocation()</text>
<text text-anchor="start" x="8" y="-40.5" font-family="Helvetica,sans-Serif" font-size="10.00">&#45; ParseCoordinate()</text>
<text text-anchor="start" x="8" y="-29.5" font-family="Helvetica,sans-Serif" font-size="10.00">&#45; ParseContactCenter()</text>
<text text-anchor="start" x="8" y="-18.5" font-family="Helvetica,sans-Serif" font-size="10.00">&#45; ParseContactPool()</text>
<text text-anchor="start" x="8" y="-7.5" font-family="Helvetica,sans-Serif" font-size="10.00">&#45; ParsePerson()</text>
</g>
<!-- Node2 -->
<g id="node2" class="node"><title>Node2</title>
<g id="a_node2"><a xlink:href="../../dd/d32/a00041.html" target="_top" xlink:title="An abstract base class for creating a GeoGrid that was read from a file, can be implemented using mul...">
<polygon fill="white" stroke="black" points="13.5,-161 13.5,-339 150.5,-339 150.5,-161 13.5,-161"/>
<text text-anchor="middle" x="82" y="-327" font-family="Helvetica,sans-Serif" font-size="10.00">gengeopop::GeoGridReader</text>
<polyline fill="none" stroke="black" points="13.5,-320 150.5,-320 "/>
<text text-anchor="start" x="21.5" y="-308" font-family="Helvetica,sans-Serif" font-size="10.00"># m_people</text>
<text text-anchor="start" x="21.5" y="-297" font-family="Helvetica,sans-Serif" font-size="10.00"># m_commutes</text>
<text text-anchor="start" x="21.5" y="-286" font-family="Helvetica,sans-Serif" font-size="10.00"># m_subMunicipalities</text>
<text text-anchor="start" x="21.5" y="-275" font-family="Helvetica,sans-Serif" font-size="10.00"># m_regionId</text>
<text text-anchor="start" x="21.5" y="-264" font-family="Helvetica,sans-Serif" font-size="10.00"># m_regionName</text>
<text text-anchor="start" x="21.5" y="-253" font-family="Helvetica,sans-Serif" font-size="10.00"># m_inputStream</text>
<text text-anchor="start" x="21.5" y="-242" font-family="Helvetica,sans-Serif" font-size="10.00"># m_population</text>
<polyline fill="none" stroke="black" points="13.5,-235 150.5,-235 "/>
<text text-anchor="start" x="21.5" y="-223" font-family="Helvetica,sans-Serif" font-size="10.00">+ GeoGridReader()</text>
<text text-anchor="start" x="21.5" y="-212" font-family="Helvetica,sans-Serif" font-size="10.00">+ ~GeoGridReader()</text>
<text text-anchor="start" x="21.5" y="-201" font-family="Helvetica,sans-Serif" font-size="10.00">+ Read()</text>
<text text-anchor="start" x="21.5" y="-190" font-family="Helvetica,sans-Serif" font-size="10.00">+ UsePopulation()</text>
<text text-anchor="start" x="21.5" y="-179" font-family="Helvetica,sans-Serif" font-size="10.00"># AddSubMunicipalities()</text>
<text text-anchor="start" x="21.5" y="-168" font-family="Helvetica,sans-Serif" font-size="10.00"># AddCommutes()</text>
</a>
</g>
</g>
<!-- Node2&#45;&gt;Node1 -->
<g id="edge1" class="edge"><title>Node2&#45;&gt;Node1</title>
<path fill="none" stroke="midnightblue" d="M82,-150.868C82,-141.629 82,-132.458 82,-123.72"/>
<polygon fill="none" stroke="midnightblue" points="78.5001,-150.902 82,-160.902 85.5001,-150.902 78.5001,-150.902"/>
</g>
</g>
</svg>
