<?xml version="1.0" encoding="UTF-8" standalone="no"?>
<!DOCTYPE svg PUBLIC "-//W3C//DTD SVG 1.1//EN"
 "http://www.w3.org/Graphics/SVG/1.1/DTD/svg11.dtd">
<!-- Generated by graphviz version 2.36.0 (20140111.2315)
 -->
<!-- Title: gengeopop::geogrid_detail::KdTree2DPoint::GetPoint Pages: 1 -->
<svg width="294pt" height="48pt"
 viewBox="0.00 0.00 294.00 48.00" xmlns="http://www.w3.org/2000/svg" xmlns:xlink="http://www.w3.org/1999/xlink">
<g id="graph0" class="graph" transform="scale(1 1) rotate(0) translate(4 44)">
<title>gengeopop::geogrid_detail::KdTree2DPoint::GetPoint</title>
<polygon fill="white" stroke="none" points="-4,4 -4,-44 290,-44 290,4 -4,4"/>
<!-- Node1 -->
<g id="node1" class="node"><title>Node1</title>
<polygon fill="#bfbfbf" stroke="black" points="0,0.5 0,-40.5 118,-40.5 118,0.5 0,0.5"/>
<text text-anchor="start" x="8" y="-28.5" font-family="Helvetica,sans-Serif" font-size="10.00">gengeopop::geogrid</text>
<text text-anchor="start" x="8" y="-17.5" font-family="Helvetica,sans-Serif" font-size="10.00">_detail::KdTree2DPoint</text>
<text text-anchor="middle" x="59" y="-6.5" font-family="Helvetica,sans-Serif" font-size="10.00">::GetPoint</text>
</g>
<!-- Node2 -->
<g id="node2" class="node"><title>Node2</title>
<g id="a_node2"><a xlink:href="../../d7/df7/a00058.html#a16eaa288435e30ffc3bd28f874cdb256" target="_top" xlink:title="gengeopop::PolygonPolicy\l::Contains">
<polygon fill="white" stroke="black" points="154,-5 154,-35 286,-35 286,-5 154,-5"/>
<text text-anchor="start" x="162" y="-23" font-family="Helvetica,sans-Serif" font-size="10.00">gengeopop::PolygonPolicy</text>
<text text-anchor="middle" x="220" y="-12" font-family="Helvetica,sans-Serif" font-size="10.00">::Contains</text>
</a>
</g>
</g>
<!-- Node1&#45;&gt;Node2 -->
<g id="edge1" class="edge"><title>Node1&#45;&gt;Node2</title>
<path fill="none" stroke="midnightblue" d="M128.508,-20C136.965,-20 145.591,-20 153.994,-20"/>
<polygon fill="midnightblue" stroke="midnightblue" points="128.303,-16.5001 118.303,-20 128.303,-23.5001 128.303,-16.5001"/>
</g>
</g>
</svg>
