<?xml version="1.0" encoding="UTF-8" standalone="no"?>
<!DOCTYPE svg PUBLIC "-//W3C//DTD SVG 1.1//EN"
 "http://www.w3.org/Graphics/SVG/1.1/DTD/svg11.dtd">
<!-- Generated by graphviz version 2.36.0 (20140111.2315)
 -->
<!-- Title: gengeopop::geogrid_detail::KdTree2DPoint::InRadius Pages: 1 -->
<svg width="280pt" height="48pt"
 viewBox="0.00 0.00 280.00 48.00" xmlns="http://www.w3.org/2000/svg" xmlns:xlink="http://www.w3.org/1999/xlink">
<g id="graph0" class="graph" transform="scale(1 1) rotate(0) translate(4 44)">
<title>gengeopop::geogrid_detail::KdTree2DPoint::InRadius</title>
<polygon fill="white" stroke="none" points="-4,4 -4,-44 276,-44 276,4 -4,4"/>
<!-- Node1 -->
<g id="node1" class="node"><title>Node1</title>
<polygon fill="#bfbfbf" stroke="black" points="0,0.5 0,-40.5 118,-40.5 118,0.5 0,0.5"/>
<text text-anchor="start" x="8" y="-28.5" font-family="Helvetica,sans-Serif" font-size="10.00">gengeopop::geogrid</text>
<text text-anchor="start" x="8" y="-17.5" font-family="Helvetica,sans-Serif" font-size="10.00">_detail::KdTree2DPoint</text>
<text text-anchor="middle" x="59" y="-6.5" font-family="Helvetica,sans-Serif" font-size="10.00">::InRadius</text>
</g>
<!-- Node2 -->
<g id="node2" class="node"><title>Node2</title>
<g id="a_node2"><a xlink:href="../../dc/d87/a00032.html#aa75fa16b3e4daa51fa633f420404cda4" target="_top" xlink:title="Distance in kilometers, following great circle distance on a speroid earth. ">
<polygon fill="white" stroke="black" points="154,0.5 154,-40.5 272,-40.5 272,0.5 154,0.5"/>
<text text-anchor="start" x="162" y="-28.5" font-family="Helvetica,sans-Serif" font-size="10.00">gengeopop::geogrid</text>
<text text-anchor="start" x="162" y="-17.5" font-family="Helvetica,sans-Serif" font-size="10.00">_detail::KdTree2DPoint</text>
<text text-anchor="middle" x="213" y="-6.5" font-family="Helvetica,sans-Serif" font-size="10.00">::Distance</text>
</a>
</g>
</g>
<!-- Node1&#45;&gt;Node2 -->
<g id="edge1" class="edge"><title>Node1&#45;&gt;Node2</title>
<path fill="none" stroke="midnightblue" d="M118.332,-20C126.606,-20 135.175,-20 143.617,-20"/>
<polygon fill="midnightblue" stroke="midnightblue" points="143.824,-23.5001 153.824,-20 143.824,-16.5001 143.824,-23.5001"/>
</g>
</g>
</svg>
