<?xml version="1.0" encoding="UTF-8" standalone="no"?>
<!DOCTYPE svg PUBLIC "-//W3C//DTD SVG 1.1//EN"
 "http://www.w3.org/Graphics/SVG/1.1/DTD/svg11.dtd">
<!-- Generated by graphviz version 2.36.0 (20140111.2315)
 -->
<!-- Title: stride::ContactHandler Pages: 1 -->
<svg width="197pt" height="228pt"
 viewBox="0.00 0.00 197.00 228.00" xmlns="http://www.w3.org/2000/svg" xmlns:xlink="http://www.w3.org/1999/xlink">
<g id="graph0" class="graph" transform="scale(1 1) rotate(0) translate(4 224)">
<title>stride::ContactHandler</title>
<polygon fill="white" stroke="none" points="-4,4 -4,-224 193,-224 193,4 -4,4"/>
<!-- Node1 -->
<g id="node1" class="node"><title>Node1</title>
<polygon fill="#bfbfbf" stroke="black" points="0,-1 0,-113 160,-113 160,-1 0,-1"/>
<text text-anchor="middle" x="80" y="-101" font-family="Helvetica,sans-Serif" font-size="10.00">stride::ContactHandler</text>
<polyline fill="none" stroke="black" points="0,-94 160,-94 "/>
<text text-anchor="middle" x="80" y="-82" font-family="Helvetica,sans-Serif" font-size="10.00"> </text>
<polyline fill="none" stroke="black" points="0,-75 160,-75 "/>
<text text-anchor="start" x="8" y="-63" font-family="Helvetica,sans-Serif" font-size="10.00">+ ContactHandler()</text>
<text text-anchor="start" x="8" y="-52" font-family="Helvetica,sans-Serif" font-size="10.00">+ operator()()</text>
<text text-anchor="start" x="8" y="-41" font-family="Helvetica,sans-Serif" font-size="10.00">+ HasContactAndTransmission()</text>
<text text-anchor="start" x="8" y="-30" font-family="Helvetica,sans-Serif" font-size="10.00">+ HasContact()</text>
<text text-anchor="start" x="8" y="-19" font-family="Helvetica,sans-Serif" font-size="10.00">+ HasTransmission()</text>
<text text-anchor="start" x="8" y="-8" font-family="Helvetica,sans-Serif" font-size="10.00">&#45; RateToProbability()</text>
</g>
<!-- Node2 -->
<g id="node2" class="node"><title>Node2</title>
<polygon fill="white" stroke="#bfbfbf" points="29.5,-162.5 29.5,-219.5 130.5,-219.5 130.5,-162.5 29.5,-162.5"/>
<text text-anchor="middle" x="80" y="-207.5" font-family="Helvetica,sans-Serif" font-size="10.00">function&lt; double()&gt;</text>
<polyline fill="none" stroke="#bfbfbf" points="29.5,-200.5 130.5,-200.5 "/>
<text text-anchor="middle" x="80" y="-188.5" font-family="Helvetica,sans-Serif" font-size="10.00"> </text>
<polyline fill="none" stroke="#bfbfbf" points="29.5,-181.5 130.5,-181.5 "/>
<text text-anchor="middle" x="80" y="-169.5" font-family="Helvetica,sans-Serif" font-size="10.00"> </text>
</g>
<!-- Node2&#45;&gt;Node1 -->
<g id="edge1" class="edge"><title>Node2&#45;&gt;Node1</title>
<path fill="none" stroke="#404040" d="M80,-162.328C80,-151.389 80,-138.3 80,-125.15"/>
<polygon fill="none" stroke="#404040" points="80.0001,-125.116 76,-119.116 80,-113.116 84,-119.116 80.0001,-125.116"/>
<text text-anchor="middle" x="134.5" y="-135.5" font-family="Helvetica,sans-Serif" font-size="10.00"> &#45;m_uniform01_generator</text>
</g>
</g>
</svg>
