<?xml version="1.0" encoding="UTF-8" standalone="no"?>
<!DOCTYPE svg PUBLIC "-//W3C//DTD SVG 1.1//EN"
 "http://www.w3.org/Graphics/SVG/1.1/DTD/svg11.dtd">
<!-- Generated by graphviz version 2.36.0 (20140111.2315)
 -->
<!-- Title: proto::GeoGrid Pages: 1 -->
<!--zoomable 468 -->
<svg id="main" version="1.1" xmlns="http://www.w3.org/2000/svg" xmlns:xlink="http://www.w3.org/1999/xlink" xml:space="preserve" onload="init(evt)">
<style type="text/css"><![CDATA[
.edge:hover path { stroke: red; }
.edge:hover polygon { stroke: red; fill: red; }
]]></style>
<script type="text/javascript"><![CDATA[
var edges = document.getElementsByTagName('g');
if (edges && edges.length) {
  for (var i=0;i<edges.length;i++) {
    if (edges[i].id.substr(0,4)=='edge') {
      edges[i].setAttribute('class','edge');
    }
  }
}
]]></script>
        <defs>
                <circle id="rim" cx="0" cy="0" r="7"/>
                <circle id="rim2" cx="0" cy="0" r="3.5"/>
                <g id="zoomPlus">
                        <use xlink:href="#rim" fill="#404040">
                                <set attributeName="fill" to="#808080" begin="zoomplus.mouseover" end="zoomplus.mouseout"/>
                        </use>
                        <path d="M-4,0h8M0,-4v8" fill="none" stroke="white" stroke-width="1.5" pointer-events="none"/>
                </g>
                <g id="zoomMin">
                        <use xlink:href="#rim" fill="#404040">
                                <set attributeName="fill" to="#808080" begin="zoomminus.mouseover" end="zoomminus.mouseout"/>
                        </use>
                        <path d="M-4,0h8" fill="none" stroke="white" stroke-width="1.5" pointer-events="none"/>
                </g>
                <g id="dirArrow">
                        <path fill="none" stroke="white" stroke-width="1.5" d="M0,-3.0v7 M-2.5,-0.5L0,-3.0L2.5,-0.5"/>
                </g>
               <g id="resetDef">
                       <use xlink:href="#rim2" fill="#404040">
                               <set attributeName="fill" to="#808080" begin="reset.mouseover" end="reset.mouseout"/>
                       </use>
               </g>
        </defs>

<script type="text/javascript">
var viewWidth = 667;
var viewHeight = 468;
var sectionId = 'dynsection-1';
</script>
<script xlink:href="../../svgpan.js"/>
<svg id="graph" class="graph">
<g id="viewport">
<title>proto::GeoGrid</title>
<polygon fill="white" stroke="none" points="-4,4 -4,-464 663,-464 663,4 -4,4"/>
<!-- Node1 -->
<g id="node1" class="node"><title>Node1</title>
<polygon fill="#bfbfbf" stroke="black" points="211.5,-0.5 211.5,-299.5 382.5,-299.5 382.5,-0.5 211.5,-0.5"/>
<text text-anchor="middle" x="297" y="-287.5" font-family="Helvetica,sans-Serif" font-size="10.00">proto::GeoGrid</text>
<polyline fill="none" stroke="black" points="211.5,-280.5 382.5,-280.5 "/>
<text text-anchor="middle" x="297" y="-268.5" font-family="Helvetica,sans-Serif" font-size="10.00"> </text>
<polyline fill="none" stroke="black" points="211.5,-261.5 382.5,-261.5 "/>
<text text-anchor="start" x="219.5" y="-249.5" font-family="Helvetica,sans-Serif" font-size="10.00">+ GeoGrid()</text>
<text text-anchor="start" x="219.5" y="-238.5" font-family="Helvetica,sans-Serif" font-size="10.00">+ ~GeoGrid()</text>
<text text-anchor="start" x="219.5" y="-227.5" font-family="Helvetica,sans-Serif" font-size="10.00">+ GeoGrid()</text>
<text text-anchor="start" x="219.5" y="-216.5" font-family="Helvetica,sans-Serif" font-size="10.00">+ operator=()</text>
<text text-anchor="start" x="219.5" y="-205.5" font-family="Helvetica,sans-Serif" font-size="10.00">+ unknown_fields()</text>
<text text-anchor="start" x="219.5" y="-194.5" font-family="Helvetica,sans-Serif" font-size="10.00">+ mutable_unknown_fields()</text>
<text text-anchor="start" x="219.5" y="-183.5" font-family="Helvetica,sans-Serif" font-size="10.00">+ Swap()</text>
<text text-anchor="start" x="219.5" y="-172.5" font-family="Helvetica,sans-Serif" font-size="10.00">+ New()</text>
<text text-anchor="start" x="219.5" y="-161.5" font-family="Helvetica,sans-Serif" font-size="10.00">+ New()</text>
<text text-anchor="start" x="219.5" y="-150.5" font-family="Helvetica,sans-Serif" font-size="10.00">+ CopyFrom()</text>
<text text-anchor="start" x="219.5" y="-139.5" font-family="Helvetica,sans-Serif" font-size="10.00">and 25 more...</text>
<text text-anchor="start" x="219.5" y="-128.5" font-family="Helvetica,sans-Serif" font-size="10.00">+ descriptor()</text>
<text text-anchor="start" x="219.5" y="-117.5" font-family="Helvetica,sans-Serif" font-size="10.00">+ default_instance()</text>
<text text-anchor="start" x="219.5" y="-106.5" font-family="Helvetica,sans-Serif" font-size="10.00">+ InitAsDefaultInstance()</text>
<text text-anchor="start" x="219.5" y="-95.5" font-family="Helvetica,sans-Serif" font-size="10.00">+ internal_default_instance()</text>
<text text-anchor="start" x="219.5" y="-84.5" font-family="Helvetica,sans-Serif" font-size="10.00">&#45; SharedCtor()</text>
<text text-anchor="start" x="219.5" y="-73.5" font-family="Helvetica,sans-Serif" font-size="10.00">&#45; SharedDtor()</text>
<text text-anchor="start" x="219.5" y="-62.5" font-family="Helvetica,sans-Serif" font-size="10.00">&#45; SetCachedSize()</text>
<text text-anchor="start" x="219.5" y="-51.5" font-family="Helvetica,sans-Serif" font-size="10.00">&#45; InternalSwap()</text>
<text text-anchor="start" x="219.5" y="-40.5" font-family="Helvetica,sans-Serif" font-size="10.00">&#45; GetArenaNoVirtual()</text>
<text text-anchor="start" x="219.5" y="-29.5" font-family="Helvetica,sans-Serif" font-size="10.00">&#45; MaybeArenaPtr()</text>
<text text-anchor="start" x="219.5" y="-18.5" font-family="Helvetica,sans-Serif" font-size="10.00">&#45; void::protobuf_geogrid</text>
<text text-anchor="start" x="219.5" y="-7.5" font-family="Helvetica,sans-Serif" font-size="10.00">_2eproto::InitDefaultsGeoGridImpl()</text>
</g>
<!-- Node2 -->
<g id="node2" class="node"><title>Node2</title>
<g id="a_node2"><a xlink:href="../../d9/da5/a00075.html" target="_top" xlink:title="{Message\n||}">
<polygon fill="white" stroke="black" points="0,-391.5 0,-448.5 56,-448.5 56,-391.5 0,-391.5"/>
<text text-anchor="middle" x="28" y="-436.5" font-family="Helvetica,sans-Serif" font-size="10.00">Message</text>
<polyline fill="none" stroke="black" points="0,-429.5 56,-429.5 "/>
<text text-anchor="middle" x="28" y="-417.5" font-family="Helvetica,sans-Serif" font-size="10.00"> </text>
<polyline fill="none" stroke="black" points="0,-410.5 56,-410.5 "/>
<text text-anchor="middle" x="28" y="-398.5" font-family="Helvetica,sans-Serif" font-size="10.00"> </text>
</a>
</g>
</g>
<!-- Node2&#45;&gt;Node1 -->
<g id="edge1" class="edge"><title>Node2&#45;&gt;Node1</title>
<path fill="none" stroke="midnightblue" d="M61.3146,-383.778C62.5557,-382.5 63.7872,-381.237 65,-380 112.94,-331.101 167.392,-277.267 211.489,-234.088"/>
<polygon fill="none" stroke="midnightblue" points="58.5848,-381.567 54.1653,-391.196 63.6249,-386.425 58.5848,-381.567"/>
</g>
<!-- Node3 -->
<g id="node3" class="node"><title>Node3</title>
<polygon fill="white" stroke="#bfbfbf" points="74,-380.5 74,-459.5 188,-459.5 188,-380.5 74,-380.5"/>
<text text-anchor="start" x="82" y="-447.5" font-family="Helvetica,sans-Serif" font-size="10.00">RepeatedPtrField&lt; </text>
<text text-anchor="start" x="82" y="-436.5" font-family="Helvetica,sans-Serif" font-size="10.00">::proto::proto::GeoGrid</text>
<text text-anchor="middle" x="131" y="-425.5" font-family="Helvetica,sans-Serif" font-size="10.00">_Person &gt;</text>
<polyline fill="none" stroke="#bfbfbf" points="74,-418.5 188,-418.5 "/>
<text text-anchor="middle" x="131" y="-406.5" font-family="Helvetica,sans-Serif" font-size="10.00"> </text>
<polyline fill="none" stroke="#bfbfbf" points="74,-399.5 188,-399.5 "/>
<text text-anchor="middle" x="131" y="-387.5" font-family="Helvetica,sans-Serif" font-size="10.00"> </text>
</g>
<!-- Node3&#45;&gt;Node1 -->
<g id="edge2" class="edge"><title>Node3&#45;&gt;Node1</title>
<path fill="none" stroke="#404040" d="M154.961,-380.317C168.494,-358.468 186.369,-329.609 204.857,-299.761"/>
<polygon fill="none" stroke="#404040" points="205.097,-299.374 204.856,-292.167 211.416,-289.172 211.657,-296.38 205.097,-299.374"/>
<text text-anchor="middle" x="213" y="-337.5" font-family="Helvetica,sans-Serif" font-size="10.00"> &#45;persons_</text>
</g>
<!-- Node4 -->
<g id="node4" class="node"><title>Node4</title>
<polygon fill="white" stroke="#bfbfbf" points="206.5,-391.5 206.5,-448.5 281.5,-448.5 281.5,-391.5 206.5,-391.5"/>
<text text-anchor="middle" x="244" y="-436.5" font-family="Helvetica,sans-Serif" font-size="10.00">HasBits&lt; 1 &gt;</text>
<polyline fill="none" stroke="#bfbfbf" points="206.5,-429.5 281.5,-429.5 "/>
<text text-anchor="middle" x="244" y="-417.5" font-family="Helvetica,sans-Serif" font-size="10.00"> </text>
<polyline fill="none" stroke="#bfbfbf" points="206.5,-410.5 281.5,-410.5 "/>
<text text-anchor="middle" x="244" y="-398.5" font-family="Helvetica,sans-Serif" font-size="10.00"> </text>
</g>
<!-- Node4&#45;&gt;Node1 -->
<g id="edge3" class="edge"><title>Node4&#45;&gt;Node1</title>
<path fill="none" stroke="#404040" d="M249.472,-391.329C253.436,-371.287 259.151,-342.39 265.252,-311.537"/>
<polygon fill="none" stroke="#404040" points="265.278,-311.403 262.518,-304.741 267.606,-299.631 270.366,-306.293 265.278,-311.403"/>
<text text-anchor="middle" x="290" y="-337.5" font-family="Helvetica,sans-Serif" font-size="10.00"> &#45;_has_bits_</text>
</g>
<!-- Node5 -->
<g id="node5" class="node"><title>Node5</title>
<polygon fill="white" stroke="#bfbfbf" points="299.5,-391.5 299.5,-448.5 434.5,-448.5 434.5,-391.5 299.5,-391.5"/>
<text text-anchor="middle" x="367" y="-436.5" font-family="Helvetica,sans-Serif" font-size="10.00">InternalMetadataWithArena</text>
<polyline fill="none" stroke="#bfbfbf" points="299.5,-429.5 434.5,-429.5 "/>
<text text-anchor="middle" x="367" y="-417.5" font-family="Helvetica,sans-Serif" font-size="10.00"> </text>
<polyline fill="none" stroke="#bfbfbf" points="299.5,-410.5 434.5,-410.5 "/>
<text text-anchor="middle" x="367" y="-398.5" font-family="Helvetica,sans-Serif" font-size="10.00"> </text>
</g>
<!-- Node5&#45;&gt;Node1 -->
<g id="edge4" class="edge"><title>Node5&#45;&gt;Node1</title>
<path fill="none" stroke="#404040" d="M359.14,-391.493C356.506,-382.145 353.583,-371.629 351,-362 346.602,-345.605 342.086,-328.473 337.628,-311.364"/>
<polygon fill="none" stroke="#404040" points="337.572,-311.148 332.191,-306.347 334.554,-299.534 339.934,-304.335 337.572,-311.148"/>
<text text-anchor="middle" x="398" y="-337.5" font-family="Helvetica,sans-Serif" font-size="10.00"> &#45;_internal_metadata_</text>
</g>
<!-- Node6 -->
<g id="node6" class="node"><title>Node6</title>
<polygon fill="white" stroke="#bfbfbf" points="452.5,-391.5 452.5,-448.5 481.5,-448.5 481.5,-391.5 452.5,-391.5"/>
<text text-anchor="middle" x="467" y="-436.5" font-family="Helvetica,sans-Serif" font-size="10.00">int</text>
<polyline fill="none" stroke="#bfbfbf" points="452.5,-429.5 481.5,-429.5 "/>
<text text-anchor="middle" x="467" y="-417.5" font-family="Helvetica,sans-Serif" font-size="10.00"> </text>
<polyline fill="none" stroke="#bfbfbf" points="452.5,-410.5 481.5,-410.5 "/>
<text text-anchor="middle" x="467" y="-398.5" font-family="Helvetica,sans-Serif" font-size="10.00"> </text>
</g>
<!-- Node6&#45;&gt;Node1 -->
<g id="edge5" class="edge"><title>Node6&#45;&gt;Node1</title>
<path fill="none" stroke="#404040" d="M464.77,-391.151C462.198,-370.119 456.699,-341.042 445,-318 430.988,-290.402 411.307,-263.765 390.86,-240.176"/>
<polygon fill="none" stroke="#404040" points="390.644,-239.932 383.671,-238.092 382.688,-230.948 389.66,-232.788 390.644,-239.932"/>
<text text-anchor="middle" x="516" y="-354" font-family="Helvetica,sans-Serif" font-size="10.00"> +kLocationsFieldNumber</text>
<text text-anchor="middle" x="516" y="-343" font-family="Helvetica,sans-Serif" font-size="10.00">+kPersonsFieldNumber</text>
<text text-anchor="middle" x="516" y="-332" font-family="Helvetica,sans-Serif" font-size="10.00">&#45;_cached_size_</text>
<text text-anchor="middle" x="516" y="-321" font-family="Helvetica,sans-Serif" font-size="10.00">+kIndexInFileMessages</text>
</g>
<!-- Node7 -->
<g id="node7" class="node"><title>Node7</title>
<polygon fill="white" stroke="#bfbfbf" points="545,-380.5 545,-459.5 659,-459.5 659,-380.5 545,-380.5"/>
<text text-anchor="start" x="553" y="-447.5" font-family="Helvetica,sans-Serif" font-size="10.00">RepeatedPtrField&lt; </text>
<text text-anchor="start" x="553" y="-436.5" font-family="Helvetica,sans-Serif" font-size="10.00">::proto::proto::GeoGrid</text>
<text text-anchor="middle" x="602" y="-425.5" font-family="Helvetica,sans-Serif" font-size="10.00">_Location &gt;</text>
<polyline fill="none" stroke="#bfbfbf" points="545,-418.5 659,-418.5 "/>
<text text-anchor="middle" x="602" y="-406.5" font-family="Helvetica,sans-Serif" font-size="10.00"> </text>
<polyline fill="none" stroke="#bfbfbf" points="545,-399.5 659,-399.5 "/>
<text text-anchor="middle" x="602" y="-387.5" font-family="Helvetica,sans-Serif" font-size="10.00"> </text>
</g>
<!-- Node7&#45;&gt;Node1 -->
<g id="edge6" class="edge"><title>Node7&#45;&gt;Node1</title>
<path fill="none" stroke="#404040" d="M599.11,-380.479C595.959,-360.244 589.439,-335.986 576,-318 530.194,-256.695 454.665,-213.488 393.737,-186.403"/>
<polygon fill="none" stroke="#404040" points="393.544,-186.319 386.447,-187.593 382.54,-181.532 389.638,-180.257 393.544,-186.319"/>
<text text-anchor="middle" x="621.5" y="-337.5" font-family="Helvetica,sans-Serif" font-size="10.00"> &#45;locations_</text>
</g>
</g>
</svg>
        <g id="navigator" transform="translate(0 0)" fill="#404254">
                <rect fill="#f2f5e9" fill-opacity="0.5" stroke="#606060" stroke-width=".5" x="0" y="0" width="60" height="60"/>
                <use id="zoomplus" xlink:href="#zoomPlus" x="17" y="9" onmousedown="handleZoom(evt,'in')"/>
                <use id="zoomminus" xlink:href="#zoomMin" x="42" y="9" onmousedown="handleZoom(evt,'out')"/>
                <use id="reset" xlink:href="#resetDef" x="30" y="36" onmousedown="handleReset()"/>
                <g id="arrowUp" xlink:href="#dirArrow" transform="translate(30 24)" onmousedown="handlePan(0,-1)">
                  <use xlink:href="#rim" fill="#404040">
                        <set attributeName="fill" to="#808080" begin="arrowUp.mouseover" end="arrowUp.mouseout"/>
                  </use>
                  <path fill="none" stroke="white" stroke-width="1.5" d="M0,-3.0v7 M-2.5,-0.5L0,-3.0L2.5,-0.5"/>
                </g>
                <g id="arrowRight" xlink:href="#dirArrow" transform="rotate(90) translate(36 -43)" onmousedown="handlePan(1,0)">
                  <use xlink:href="#rim" fill="#404040">
                        <set attributeName="fill" to="#808080" begin="arrowRight.mouseover" end="arrowRight.mouseout"/>
                  </use>
                  <path fill="none" stroke="white" stroke-width="1.5" d="M0,-3.0v7 M-2.5,-0.5L0,-3.0L2.5,-0.5"/>
                </g>
                <g id="arrowDown" xlink:href="#dirArrow" transform="rotate(180) translate(-30 -48)" onmousedown="handlePan(0,1)">
                  <use xlink:href="#rim" fill="#404040">
                        <set attributeName="fill" to="#808080" begin="arrowDown.mouseover" end="arrowDown.mouseout"/>
                  </use>
                  <path fill="none" stroke="white" stroke-width="1.5" d="M0,-3.0v7 M-2.5,-0.5L0,-3.0L2.5,-0.5"/>
                </g>
                <g id="arrowLeft" xlink:href="#dirArrow" transform="rotate(270) translate(-36 17)" onmousedown="handlePan(-1,0)">
                  <use xlink:href="#rim" fill="#404040">
                        <set attributeName="fill" to="#808080" begin="arrowLeft.mouseover" end="arrowLeft.mouseout"/>
                  </use>
                  <path fill="none" stroke="white" stroke-width="1.5" d="M0,-3.0v7 M-2.5,-0.5L0,-3.0L2.5,-0.5"/>
                </g>
        </g>
        <svg viewBox="0 0 15 15" width="100%" height="30px" preserveAspectRatio="xMaxYMin meet">
         <g id="arrow_out" transform="scale(0.3 0.3)">
          <a xlink:href="a01133_org.svg" target="_base">
           <rect id="button" ry="5" rx="5" y="6" x="6" height="38" width="38"
                fill="#f2f5e9" fill-opacity="0.5" stroke="#606060" stroke-width="1.0"/>
           <path id="arrow"
             d="M 11.500037,31.436501 C 11.940474,20.09759 22.043105,11.32322 32.158766,21.979434 L 37.068811,17.246167 C 37.068811,17.246167 37.088388,32 37.088388,32 L 22.160133,31.978069 C 22.160133,31.978069 26.997745,27.140456 26.997745,27.140456 C 18.528582,18.264221 13.291696,25.230495 11.500037,31.436501 z"
             style="fill:#404040;"/>
          </a>
         </g>
        </svg>
</svg>
