<?xml version="1.0" encoding="UTF-8" standalone="no"?>
<!DOCTYPE svg PUBLIC "-//W3C//DTD SVG 1.1//EN"
 "http://www.w3.org/Graphics/SVG/1.1/DTD/svg11.dtd">
<!-- Generated by graphviz version 2.36.0 (20140111.2315)
 -->
<!-- Title: stride::Infector&lt; LL, TIC, NoLocalInformation, true &gt;::Exec Pages: 1 -->
<!--zoomable 258 -->
<svg id="main" version="1.1" xmlns="http://www.w3.org/2000/svg" xmlns:xlink="http://www.w3.org/1999/xlink" xml:space="preserve" onload="init(evt)">
<style type="text/css"><![CDATA[
.edge:hover path { stroke: red; }
.edge:hover polygon { stroke: red; fill: red; }
]]></style>
<script type="text/javascript"><![CDATA[
var edges = document.getElementsByTagName('g');
if (edges && edges.length) {
  for (var i=0;i<edges.length;i++) {
    if (edges[i].id.substr(0,4)=='edge') {
      edges[i].setAttribute('class','edge');
    }
  }
}
]]></script>
        <defs>
                <circle id="rim" cx="0" cy="0" r="7"/>
                <circle id="rim2" cx="0" cy="0" r="3.5"/>
                <g id="zoomPlus">
                        <use xlink:href="#rim" fill="#404040">
                                <set attributeName="fill" to="#808080" begin="zoomplus.mouseover" end="zoomplus.mouseout"/>
                        </use>
                        <path d="M-4,0h8M0,-4v8" fill="none" stroke="white" stroke-width="1.5" pointer-events="none"/>
                </g>
                <g id="zoomMin">
                        <use xlink:href="#rim" fill="#404040">
                                <set attributeName="fill" to="#808080" begin="zoomminus.mouseover" end="zoomminus.mouseout"/>
                        </use>
                        <path d="M-4,0h8" fill="none" stroke="white" stroke-width="1.5" pointer-events="none"/>
                </g>
                <g id="dirArrow">
                        <path fill="none" stroke="white" stroke-width="1.5" d="M0,-3.0v7 M-2.5,-0.5L0,-3.0L2.5,-0.5"/>
                </g>
               <g id="resetDef">
                       <use xlink:href="#rim2" fill="#404040">
                               <set attributeName="fill" to="#808080" begin="reset.mouseover" end="reset.mouseout"/>
                       </use>
               </g>
        </defs>

<script type="text/javascript">
var viewWidth = 506;
var viewHeight = 258;
var sectionId = 'dynsection-1';
</script>
<script xlink:href="../../svgpan.js"/>
<svg id="graph" class="graph">
<g id="viewport">
<title>stride::Infector&lt; LL, TIC, NoLocalInformation, true &gt;::Exec</title>
<polygon fill="white" stroke="none" points="-4,4 -4,-254 502,-254 502,4 -4,4"/>
<!-- Node1 -->
<g id="node1" class="node"><title>Node1</title>
<polygon fill="#bfbfbf" stroke="black" points="0,-104.5 0,-145.5 130,-145.5 130,-104.5 0,-104.5"/>
<text text-anchor="start" x="8" y="-133.5" font-family="Helvetica,sans-Serif" font-size="10.00">stride::Infector&lt; LL,</text>
<text text-anchor="start" x="8" y="-122.5" font-family="Helvetica,sans-Serif" font-size="10.00"> TIC, NoLocalInformation,</text>
<text text-anchor="middle" x="65" y="-111.5" font-family="Helvetica,sans-Serif" font-size="10.00"> true &gt;::Exec</text>
</g>
<!-- Node2 -->
<g id="node2" class="node"><title>Node2</title>
<g id="a_node2"><a xlink:href="../../d0/d5e/a00136.html#a53081dbb062c019153b8be62083d59a2" target="_top" xlink:title="Return person&#39;s health status. ">
<polygon fill="white" stroke="black" points="178,-230.5 178,-249.5 306,-249.5 306,-230.5 178,-230.5"/>
<text text-anchor="middle" x="242" y="-237.5" font-family="Helvetica,sans-Serif" font-size="10.00">stride::Person::GetHealth</text>
</a>
</g>
</g>
<!-- Node1&#45;&gt;Node2 -->
<g id="edge1" class="edge"><title>Node1&#45;&gt;Node2</title>
<path fill="none" stroke="midnightblue" d="M82.1841,-145.559C100.328,-167.228 131.729,-200.822 166,-220 170.851,-222.715 176.086,-225.074 181.455,-227.121"/>
<polygon fill="midnightblue" stroke="midnightblue" points="180.616,-230.534 191.211,-230.48 182.895,-223.915 180.616,-230.534"/>
</g>
<!-- Node3 -->
<g id="node3" class="node"><title>Node3</title>
<g id="a_node3"><a xlink:href="../../da/ddb/a00145.html#a51ffe104253ffd5bcf12ab299fa6f2e2" target="_top" xlink:title="Return transmission rate. ">
<polygon fill="white" stroke="black" points="175.5,-181 175.5,-211 308.5,-211 308.5,-181 175.5,-181"/>
<text text-anchor="start" x="183.5" y="-199" font-family="Helvetica,sans-Serif" font-size="10.00">stride::TransmissionProfile</text>
<text text-anchor="middle" x="242" y="-188" font-family="Helvetica,sans-Serif" font-size="10.00">::GetRate</text>
</a>
</g>
</g>
<!-- Node1&#45;&gt;Node3 -->
<g id="edge2" class="edge"><title>Node1&#45;&gt;Node3</title>
<path fill="none" stroke="midnightblue" d="M107.889,-145.509C125.624,-153.867 146.629,-163.343 166,-171 171.56,-173.198 177.4,-175.372 183.263,-177.466"/>
<polygon fill="midnightblue" stroke="midnightblue" points="182.512,-180.911 193.107,-180.906 184.821,-174.303 182.512,-180.911"/>
</g>
<!-- Node4 -->
<g id="node4" class="node"><title>Node4</title>
<g id="a_node4"><a xlink:href="../../d0/d61/a00100.html#a65ae0c571176ea267cf980ce31408f35" target="_top" xlink:title="Check if two individuals have contact and transmission. ">
<polygon fill="white" stroke="black" points="166.5,-132 166.5,-162 317.5,-162 317.5,-132 166.5,-132"/>
<text text-anchor="start" x="174.5" y="-150" font-family="Helvetica,sans-Serif" font-size="10.00">stride::ContactHandler</text>
<text text-anchor="middle" x="242" y="-139" font-family="Helvetica,sans-Serif" font-size="10.00">::HasContactAndTransmission</text>
</a>
</g>
</g>
<!-- Node1&#45;&gt;Node4 -->
<g id="edge3" class="edge"><title>Node1&#45;&gt;Node4</title>
<path fill="none" stroke="midnightblue" d="M130.17,-133.067C138.746,-134.145 147.644,-135.264 156.502,-136.377"/>
<polygon fill="midnightblue" stroke="midnightblue" points="156.107,-139.855 166.465,-137.63 156.98,-132.91 156.107,-139.855"/>
</g>
<!-- Node6 -->
<g id="node6" class="node"><title>Node6</title>
<g id="a_node6"><a xlink:href="../../d0/d5e/a00136.html#acc03f26895f6fc1054fa78e480900ebb" target="_top" xlink:title="Check if a person is present today in a given contactpool. ">
<polygon fill="white" stroke="black" points="182.5,-93.5 182.5,-112.5 301.5,-112.5 301.5,-93.5 182.5,-93.5"/>
<text text-anchor="middle" x="242" y="-100.5" font-family="Helvetica,sans-Serif" font-size="10.00">stride::Person::IsInPool</text>
</a>
</g>
</g>
<!-- Node1&#45;&gt;Node6 -->
<g id="edge5" class="edge"><title>Node1&#45;&gt;Node6</title>
<path fill="none" stroke="midnightblue" d="M130.17,-116.933C143.907,-115.206 158.471,-113.375 172.369,-111.628"/>
<polygon fill="midnightblue" stroke="midnightblue" points="172.864,-115.093 182.349,-110.373 171.991,-108.148 172.864,-115.093"/>
</g>
<!-- Node7 -->
<g id="node7" class="node"><title>Node7</title>
<g id="a_node7"><a xlink:href="../../d4/d3a/a00101.html#a6c90e9734ee7c6566bdf1f4416e99fd8" target="_top" xlink:title="Sort w.r.t. health status: order: exposed/infected/recovered, susceptible, immune. ">
<polygon fill="white" stroke="black" points="191.5,-44 191.5,-74 292.5,-74 292.5,-44 191.5,-44"/>
<text text-anchor="start" x="199.5" y="-62" font-family="Helvetica,sans-Serif" font-size="10.00">stride::ContactPool</text>
<text text-anchor="middle" x="242" y="-51" font-family="Helvetica,sans-Serif" font-size="10.00">::SortMembers</text>
</a>
</g>
</g>
<!-- Node1&#45;&gt;Node7 -->
<g id="edge6" class="edge"><title>Node1&#45;&gt;Node7</title>
<path fill="none" stroke="midnightblue" d="M114.316,-104.423C130.638,-97.6775 149.025,-90.301 166,-84 171.911,-81.8059 178.115,-79.5943 184.318,-77.442"/>
<polygon fill="midnightblue" stroke="midnightblue" points="185.694,-80.6706 194.021,-74.1198 183.426,-74.048 185.694,-80.6706"/>
</g>
<!-- Node8 -->
<g id="node8" class="node"><title>Node8</title>
<g id="a_node8"><a xlink:href="../../d3/d00/a00113.html#a5d85541b8e22aeaa75b364a454f59088" target="_top" xlink:title="Start the infection. ">
<polygon fill="white" stroke="black" points="172,-5.5 172,-24.5 312,-24.5 312,-5.5 172,-5.5"/>
<text text-anchor="middle" x="242" y="-12.5" font-family="Helvetica,sans-Serif" font-size="10.00">stride::Health::StartInfection</text>
</a>
</g>
</g>
<!-- Node1&#45;&gt;Node8 -->
<g id="edge7" class="edge"><title>Node1&#45;&gt;Node8</title>
<path fill="none" stroke="midnightblue" d="M82.9987,-104.485C101.357,-83.663 132.505,-52.0042 166,-34 170.285,-31.6966 174.859,-29.6647 179.554,-27.8736"/>
<polygon fill="midnightblue" stroke="midnightblue" points="180.986,-31.0825 189.308,-24.5252 178.713,-24.4617 180.986,-31.0825"/>
</g>
<!-- Node5 -->
<g id="node5" class="node"><title>Node5</title>
<g id="a_node5"><a xlink:href="../../d0/d61/a00100.html#a51fd44b433163a1bd2a9fb424a003344" target="_top" xlink:title="Convert rate into probability. ">
<polygon fill="white" stroke="black" points="368.5,-132 368.5,-162 483.5,-162 483.5,-132 368.5,-132"/>
<text text-anchor="start" x="376.5" y="-150" font-family="Helvetica,sans-Serif" font-size="10.00">stride::ContactHandler</text>
<text text-anchor="middle" x="426" y="-139" font-family="Helvetica,sans-Serif" font-size="10.00">::RateToProbability</text>
</a>
</g>
</g>
<!-- Node4&#45;&gt;Node5 -->
<g id="edge4" class="edge"><title>Node4&#45;&gt;Node5</title>
<path fill="none" stroke="midnightblue" d="M317.551,-147C330.952,-147 344.845,-147 358.015,-147"/>
<polygon fill="midnightblue" stroke="midnightblue" points="358.399,-150.5 368.399,-147 358.399,-143.5 358.399,-150.5"/>
</g>
<!-- Node9 -->
<g id="node9" class="node"><title>Node9</title>
<g id="a_node9"><a xlink:href="../../d3/d00/a00113.html#a468c554771acc883799456c14373e9db" target="_top" xlink:title="Reset the disease counter. ">
<polygon fill="white" stroke="black" points="354.5,-0 354.5,-30 497.5,-30 497.5,-0 354.5,-0"/>
<text text-anchor="start" x="362.5" y="-18" font-family="Helvetica,sans-Serif" font-size="10.00">stride::Health::ResetDisease</text>
<text text-anchor="middle" x="426" y="-7" font-family="Helvetica,sans-Serif" font-size="10.00">Counter</text>
</a>
</g>
</g>
<!-- Node8&#45;&gt;Node9 -->
<g id="edge8" class="edge"><title>Node8&#45;&gt;Node9</title>
<path fill="none" stroke="midnightblue" d="M312.066,-15C322.582,-15 333.514,-15 344.253,-15"/>
<polygon fill="midnightblue" stroke="midnightblue" points="344.47,-18.5001 354.47,-15 344.47,-11.5001 344.47,-18.5001"/>
</g>
</g>
</svg>
        <g id="navigator" transform="translate(0 0)" fill="#404254">
                <rect fill="#f2f5e9" fill-opacity="0.5" stroke="#606060" stroke-width=".5" x="0" y="0" width="60" height="60"/>
                <use id="zoomplus" xlink:href="#zoomPlus" x="17" y="9" onmousedown="handleZoom(evt,'in')"/>
                <use id="zoomminus" xlink:href="#zoomMin" x="42" y="9" onmousedown="handleZoom(evt,'out')"/>
                <use id="reset" xlink:href="#resetDef" x="30" y="36" onmousedown="handleReset()"/>
                <g id="arrowUp" xlink:href="#dirArrow" transform="translate(30 24)" onmousedown="handlePan(0,-1)">
                  <use xlink:href="#rim" fill="#404040">
                        <set attributeName="fill" to="#808080" begin="arrowUp.mouseover" end="arrowUp.mouseout"/>
                  </use>
                  <path fill="none" stroke="white" stroke-width="1.5" d="M0,-3.0v7 M-2.5,-0.5L0,-3.0L2.5,-0.5"/>
                </g>
                <g id="arrowRight" xlink:href="#dirArrow" transform="rotate(90) translate(36 -43)" onmousedown="handlePan(1,0)">
                  <use xlink:href="#rim" fill="#404040">
                        <set attributeName="fill" to="#808080" begin="arrowRight.mouseover" end="arrowRight.mouseout"/>
                  </use>
                  <path fill="none" stroke="white" stroke-width="1.5" d="M0,-3.0v7 M-2.5,-0.5L0,-3.0L2.5,-0.5"/>
                </g>
                <g id="arrowDown" xlink:href="#dirArrow" transform="rotate(180) translate(-30 -48)" onmousedown="handlePan(0,1)">
                  <use xlink:href="#rim" fill="#404040">
                        <set attributeName="fill" to="#808080" begin="arrowDown.mouseover" end="arrowDown.mouseout"/>
                  </use>
                  <path fill="none" stroke="white" stroke-width="1.5" d="M0,-3.0v7 M-2.5,-0.5L0,-3.0L2.5,-0.5"/>
                </g>
                <g id="arrowLeft" xlink:href="#dirArrow" transform="rotate(270) translate(-36 17)" onmousedown="handlePan(-1,0)">
                  <use xlink:href="#rim" fill="#404040">
                        <set attributeName="fill" to="#808080" begin="arrowLeft.mouseover" end="arrowLeft.mouseout"/>
                  </use>
                  <path fill="none" stroke="white" stroke-width="1.5" d="M0,-3.0v7 M-2.5,-0.5L0,-3.0L2.5,-0.5"/>
                </g>
        </g>
        <svg viewBox="0 0 15 15" width="100%" height="30px" preserveAspectRatio="xMaxYMin meet">
         <g id="arrow_out" transform="scale(0.3 0.3)">
          <a xlink:href="a00121_a3e10dc57119090c30ba818420bbd7b94_cgraph_org.svg" target="_base">
           <rect id="button" ry="5" rx="5" y="6" x="6" height="38" width="38"
                fill="#f2f5e9" fill-opacity="0.5" stroke="#606060" stroke-width="1.0"/>
           <path id="arrow"
             d="M 11.500037,31.436501 C 11.940474,20.09759 22.043105,11.32322 32.158766,21.979434 L 37.068811,17.246167 C 37.068811,17.246167 37.088388,32 37.088388,32 L 22.160133,31.978069 C 22.160133,31.978069 26.997745,27.140456 26.997745,27.140456 C 18.528582,18.264221 13.291696,25.230495 11.500037,31.436501 z"
             style="fill:#404040;"/>
          </a>
         </g>
        </svg>
</svg>
