<?xml version="1.0" encoding="UTF-8" standalone="no"?>
<!DOCTYPE svg PUBLIC "-//W3C//DTD SVG 1.1//EN"
 "http://www.w3.org/Graphics/SVG/1.1/DTD/svg11.dtd">
<!-- Generated by graphviz version 2.36.0 (20140111.2315)
 -->
<!-- Title: calibration::BoxplotGenerator::Display Pages: 1 -->
<svg width="486pt" height="38pt"
 viewBox="0.00 0.00 486.00 38.00" xmlns="http://www.w3.org/2000/svg" xmlns:xlink="http://www.w3.org/1999/xlink">
<g id="graph0" class="graph" transform="scale(1 1) rotate(0) translate(4 34)">
<title>calibration::BoxplotGenerator::Display</title>
<polygon fill="white" stroke="none" points="-4,4 -4,-34 482,-34 482,4 -4,4"/>
<!-- Node1 -->
<g id="node1" class="node"><title>Node1</title>
<polygon fill="#bfbfbf" stroke="black" points="0.5,-0 0.5,-30 143.5,-30 143.5,-0 0.5,-0"/>
<text text-anchor="start" x="8.5" y="-18" font-family="Helvetica,sans-Serif" font-size="10.00">calibration::BoxplotGenerator</text>
<text text-anchor="middle" x="72" y="-7" font-family="Helvetica,sans-Serif" font-size="10.00">::Display</text>
</g>
<!-- Node2 -->
<g id="node2" class="node"><title>Node2</title>
<g id="a_node2"><a xlink:href="../../dd/dad/a00005.html#a9089af8bf6151c4476cc8faa7d9de52c" target="_top" xlink:title="Generate the actual plots. ">
<polygon fill="white" stroke="black" points="180.5,-0 180.5,-30 323.5,-30 323.5,-0 180.5,-0"/>
<text text-anchor="start" x="188.5" y="-18" font-family="Helvetica,sans-Serif" font-size="10.00">calibration::BoxplotGenerator</text>
<text text-anchor="middle" x="252" y="-7" font-family="Helvetica,sans-Serif" font-size="10.00">::GeneratePlots</text>
</a>
</g>
</g>
<!-- Node1&#45;&gt;Node2 -->
<g id="edge1" class="edge"><title>Node1&#45;&gt;Node2</title>
<path fill="none" stroke="midnightblue" d="M143.606,-15C152.421,-15 161.488,-15 170.441,-15"/>
<polygon fill="midnightblue" stroke="midnightblue" points="170.479,-18.5001 180.479,-15 170.479,-11.5001 170.479,-18.5001"/>
</g>
<!-- Node3 -->
<g id="node3" class="node"><title>Node3</title>
<g id="a_node3"><a xlink:href="../../da/dc3/a00453.html#ac1b3f16cd4479b750a5295e835beed3f" target="_top" xlink:title="gengeopop::kd::Median">
<polygon fill="white" stroke="black" points="360,-5.5 360,-24.5 478,-24.5 478,-5.5 360,-5.5"/>
<text text-anchor="middle" x="419" y="-12.5" font-family="Helvetica,sans-Serif" font-size="10.00">gengeopop::kd::Median</text>
</a>
</g>
</g>
<!-- Node2&#45;&gt;Node3 -->
<g id="edge2" class="edge"><title>Node2&#45;&gt;Node3</title>
<path fill="none" stroke="midnightblue" d="M323.932,-15C332.44,-15 341.114,-15 349.585,-15"/>
<polygon fill="midnightblue" stroke="midnightblue" points="349.791,-18.5001 359.791,-15 349.791,-11.5001 349.791,-18.5001"/>
</g>
</g>
</svg>
