<?xml version="1.0" encoding="UTF-8" standalone="no"?>
<!DOCTYPE svg PUBLIC "-//W3C//DTD SVG 1.1//EN"
 "http://www.w3.org/Graphics/SVG/1.1/DTD/svg11.dtd">
<!-- Generated by graphviz version 2.36.0 (20140111.2315)
 -->
<!-- Title: calibration::BoxplotGenerator::WriteToFile Pages: 1 -->
<svg width="304pt" height="38pt"
 viewBox="0.00 0.00 304.00 38.00" xmlns="http://www.w3.org/2000/svg" xmlns:xlink="http://www.w3.org/1999/xlink">
<g id="graph0" class="graph" transform="scale(1 1) rotate(0) translate(4 34)">
<title>calibration::BoxplotGenerator::WriteToFile</title>
<polygon fill="white" stroke="none" points="-4,4 -4,-34 300,-34 300,4 -4,4"/>
<!-- Node1 -->
<g id="node1" class="node"><title>Node1</title>
<polygon fill="#bfbfbf" stroke="black" points="0.5,-0 0.5,-30 143.5,-30 143.5,-0 0.5,-0"/>
<text text-anchor="start" x="8.5" y="-18" font-family="Helvetica,sans-Serif" font-size="10.00">calibration::BoxplotGenerator</text>
<text text-anchor="middle" x="72" y="-7" font-family="Helvetica,sans-Serif" font-size="10.00">::WriteToFile</text>
</g>
<!-- Node2 -->
<g id="node2" class="node"><title>Node2</title>
<g id="a_node2"><a xlink:href="../../de/d21/a00006.html#add25803cc7645f929e578d01e10091b2" target="_top" xlink:title="Write the boxplots to their respective files (based on testcase name) ">
<polygon fill="white" stroke="black" points="180,-0 180,-30 296,-30 296,-0 180,-0"/>
<text text-anchor="start" x="188" y="-18" font-family="Helvetica,sans-Serif" font-size="10.00">calibration::Calibration</text>
<text text-anchor="middle" x="238" y="-7" font-family="Helvetica,sans-Serif" font-size="10.00">Runner::WriteBoxplots</text>
</a>
</g>
</g>
<!-- Node1&#45;&gt;Node2 -->
<g id="edge1" class="edge"><title>Node1&#45;&gt;Node2</title>
<path fill="none" stroke="midnightblue" d="M153.527,-15C162.435,-15 171.366,-15 179.9,-15"/>
<polygon fill="midnightblue" stroke="midnightblue" points="153.503,-11.5001 143.503,-15 153.502,-18.5001 153.503,-11.5001"/>
</g>
</g>
</svg>
