<?xml version="1.0" encoding="UTF-8" standalone="no"?>
<!DOCTYPE svg PUBLIC "-//W3C//DTD SVG 1.1//EN"
 "http://www.w3.org/Graphics/SVG/1.1/DTD/svg11.dtd">
<!-- Generated by graphviz version 2.36.0 (20140111.2315)
 -->
<!-- Title: PartialPopulator.h Pages: 1 -->
<svg width="1268pt" height="140pt"
 viewBox="0.00 0.00 1268.00 140.00" xmlns="http://www.w3.org/2000/svg" xmlns:xlink="http://www.w3.org/1999/xlink">
<g id="graph0" class="graph" transform="scale(1 1) rotate(0) translate(4 136)">
<title>PartialPopulator.h</title>
<polygon fill="white" stroke="none" points="-4,4 -4,-136 1264,-136 1264,4 -4,4"/>
<!-- Node1 -->
<g id="node1" class="node"><title>Node1</title>
<polygon fill="#bfbfbf" stroke="black" points="668,-112.5 668,-131.5 762,-131.5 762,-112.5 668,-112.5"/>
<text text-anchor="middle" x="715" y="-119.5" font-family="Helvetica,sans-Serif" font-size="10.00">PartialPopulator.h</text>
</g>
<!-- Node2 -->
<g id="node2" class="node"><title>Node2</title>
<g id="a_node2"><a xlink:href="../../dd/df3/a00219.html" target="_top" xlink:title="CollegePopulator.h">
<polygon fill="white" stroke="black" points="991.5,-56.5 991.5,-75.5 1090.5,-75.5 1090.5,-56.5 991.5,-56.5"/>
<text text-anchor="middle" x="1041" y="-63.5" font-family="Helvetica,sans-Serif" font-size="10.00">CollegePopulator.h</text>
</a>
</g>
</g>
<!-- Node1&#45;&gt;Node2 -->
<g id="edge1" class="edge"><title>Node1&#45;&gt;Node2</title>
<path fill="none" stroke="midnightblue" d="M772.069,-111.547C834.116,-101.269 932.289,-85.0074 991.287,-75.2347"/>
<polygon fill="midnightblue" stroke="midnightblue" points="771.349,-108.118 762.055,-113.206 772.493,-115.024 771.349,-108.118"/>
</g>
<!-- Node6 -->
<g id="node6" class="node"><title>Node6</title>
<g id="a_node6"><a xlink:href="../../d3/d58/a00285.html" target="_top" xlink:title="GeoGridPopulator.h">
<polygon fill="white" stroke="black" points="740,-56.5 740,-75.5 842,-75.5 842,-56.5 740,-56.5"/>
<text text-anchor="middle" x="791" y="-63.5" font-family="Helvetica,sans-Serif" font-size="10.00">GeoGridPopulator.h</text>
</a>
</g>
</g>
<!-- Node1&#45;&gt;Node6 -->
<g id="edge5" class="edge"><title>Node1&#45;&gt;Node6</title>
<path fill="none" stroke="midnightblue" d="M735.576,-106.38C749.312,-96.6204 766.925,-84.1057 778.567,-75.8339"/>
<polygon fill="midnightblue" stroke="midnightblue" points="733.335,-103.679 727.211,-112.324 737.39,-109.385 733.335,-103.679"/>
</g>
<!-- Node8 -->
<g id="node8" class="node"><title>Node8</title>
<g id="a_node8"><a xlink:href="../../dd/db3/a00313.html" target="_top" xlink:title="HouseholdPopulator.h">
<polygon fill="white" stroke="black" points="127.5,-56.5 127.5,-75.5 240.5,-75.5 240.5,-56.5 127.5,-56.5"/>
<text text-anchor="middle" x="184" y="-63.5" font-family="Helvetica,sans-Serif" font-size="10.00">HouseholdPopulator.h</text>
</a>
</g>
</g>
<!-- Node1&#45;&gt;Node8 -->
<g id="edge9" class="edge"><title>Node1&#45;&gt;Node8</title>
<path fill="none" stroke="midnightblue" d="M657.936,-116.254C570.008,-108.769 396.146,-93.2843 249,-76 246.284,-75.681 243.507,-75.3428 240.703,-74.9916"/>
<polygon fill="midnightblue" stroke="midnightblue" points="657.709,-119.748 667.969,-117.105 658.301,-112.773 657.709,-119.748"/>
</g>
<!-- Node10 -->
<g id="node10" class="node"><title>Node10</title>
<g id="a_node10"><a xlink:href="../../d0/d01/a00339.html" target="_top" xlink:title="K12SchoolPopulator.h">
<polygon fill="white" stroke="black" points="258.5,-56.5 258.5,-75.5 371.5,-75.5 371.5,-56.5 258.5,-56.5"/>
<text text-anchor="middle" x="315" y="-63.5" font-family="Helvetica,sans-Serif" font-size="10.00">K12SchoolPopulator.h</text>
</a>
</g>
</g>
<!-- Node1&#45;&gt;Node10 -->
<g id="edge13" class="edge"><title>Node1&#45;&gt;Node10</title>
<path fill="none" stroke="midnightblue" d="M657.712,-113.31C591.184,-104.373 478.138,-89.1667 381,-76 377.906,-75.5806 374.73,-75.1496 371.525,-74.714"/>
<polygon fill="midnightblue" stroke="midnightblue" points="657.604,-116.827 667.981,-114.689 658.536,-109.889 657.604,-116.827"/>
</g>
<!-- Node12 -->
<g id="node12" class="node"><title>Node12</title>
<g id="a_node12"><a xlink:href="../../d8/d21/a00368.html" target="_top" xlink:title="PartialPopulator.cpp">
<polygon fill="white" stroke="black" points="1109,-56.5 1109,-75.5 1213,-75.5 1213,-56.5 1109,-56.5"/>
<text text-anchor="middle" x="1161" y="-63.5" font-family="Helvetica,sans-Serif" font-size="10.00">PartialPopulator.cpp</text>
</a>
</g>
</g>
<!-- Node1&#45;&gt;Node12 -->
<g id="edge17" class="edge"><title>Node1&#45;&gt;Node12</title>
<path fill="none" stroke="midnightblue" d="M772.23,-114.79C847.318,-106.529 983.156,-91.1929 1099,-76 1102.24,-75.5757 1105.56,-75.1272 1108.92,-74.6661"/>
<polygon fill="midnightblue" stroke="midnightblue" points="771.605,-111.338 762.047,-115.908 772.369,-118.296 771.605,-111.338"/>
</g>
<!-- Node13 -->
<g id="node13" class="node"><title>Node13</title>
<g id="a_node13"><a xlink:href="../../de/d08/a00381.html" target="_top" xlink:title="PrimaryCommunityPopulator.h">
<polygon fill="white" stroke="black" points="390,-56.5 390,-75.5 540,-75.5 540,-56.5 390,-56.5"/>
<text text-anchor="middle" x="465" y="-63.5" font-family="Helvetica,sans-Serif" font-size="10.00">PrimaryCommunityPopulator.h</text>
</a>
</g>
</g>
<!-- Node1&#45;&gt;Node13 -->
<g id="edge18" class="edge"><title>Node1&#45;&gt;Node13</title>
<path fill="none" stroke="midnightblue" d="M665.377,-110.281C618.134,-100.077 547.964,-84.9203 504.428,-75.5164"/>
<polygon fill="midnightblue" stroke="midnightblue" points="664.873,-113.753 675.387,-112.444 666.351,-106.911 664.873,-113.753"/>
</g>
<!-- Node15 -->
<g id="node15" class="node"><title>Node15</title>
<g id="a_node15"><a xlink:href="../../d9/da1/a00396.html" target="_top" xlink:title="SecondaryCommunityPopulator.h">
<polygon fill="white" stroke="black" points="558.5,-56.5 558.5,-75.5 721.5,-75.5 721.5,-56.5 558.5,-56.5"/>
<text text-anchor="middle" x="640" y="-63.5" font-family="Helvetica,sans-Serif" font-size="10.00">SecondaryCommunityPopulator.h</text>
</a>
</g>
</g>
<!-- Node1&#45;&gt;Node15 -->
<g id="edge22" class="edge"><title>Node1&#45;&gt;Node15</title>
<path fill="none" stroke="midnightblue" d="M694.695,-106.38C681.139,-96.6204 663.758,-84.1057 652.269,-75.8339"/>
<polygon fill="midnightblue" stroke="midnightblue" points="692.79,-109.321 702.95,-112.324 696.88,-103.641 692.79,-109.321"/>
</g>
<!-- Node17 -->
<g id="node17" class="node"><title>Node17</title>
<g id="a_node17"><a xlink:href="../../d3/dea/a00444.html" target="_top" xlink:title="WorkplacePopulator.h">
<polygon fill="white" stroke="black" points="860.5,-56.5 860.5,-75.5 973.5,-75.5 973.5,-56.5 860.5,-56.5"/>
<text text-anchor="middle" x="917" y="-63.5" font-family="Helvetica,sans-Serif" font-size="10.00">WorkplacePopulator.h</text>
</a>
</g>
</g>
<!-- Node1&#45;&gt;Node17 -->
<g id="edge26" class="edge"><title>Node1&#45;&gt;Node17</title>
<path fill="none" stroke="midnightblue" d="M756.788,-109.829C794.927,-99.6333 850.481,-84.7823 885.142,-75.5164"/>
<polygon fill="midnightblue" stroke="midnightblue" points="755.764,-106.48 747.008,-112.444 757.572,-113.242 755.764,-106.48"/>
</g>
<!-- Node3 -->
<g id="node3" class="node"><title>Node3</title>
<g id="a_node3"><a xlink:href="../../db/d12/a00268.html" target="_top" xlink:title="GenGeoPopController.cpp">
<polygon fill="white" stroke="black" points="462.5,-0.5 462.5,-19.5 593.5,-19.5 593.5,-0.5 462.5,-0.5"/>
<text text-anchor="middle" x="528" y="-7.5" font-family="Helvetica,sans-Serif" font-size="10.00">GenGeoPopController.cpp</text>
</a>
</g>
</g>
<!-- Node2&#45;&gt;Node3 -->
<g id="edge2" class="edge"><title>Node2&#45;&gt;Node3</title>
<path fill="none" stroke="midnightblue" d="M981.465,-56.0037C812.399,-35.3348 768.03,-37.7369 603,-20 600.001,-19.6777 596.935,-19.3406 593.84,-18.9941"/>
<polygon fill="midnightblue" stroke="midnightblue" points="981.101,-59.4852 991.454,-57.2338 981.956,-52.5377 981.101,-59.4852"/>
</g>
<!-- Node4 -->
<g id="node4" class="node"><title>Node4</title>
<g id="a_node4"><a xlink:href="../../d6/d9c/a00352.html" target="_top" xlink:title="main.cpp">
<polygon fill="white" stroke="black" points="612,-0.5 612,-19.5 668,-19.5 668,-0.5 612,-0.5"/>
<text text-anchor="middle" x="640" y="-7.5" font-family="Helvetica,sans-Serif" font-size="10.00">main.cpp</text>
</a>
</g>
</g>
<!-- Node2&#45;&gt;Node4 -->
<g id="edge3" class="edge"><title>Node2&#45;&gt;Node4</title>
<path fill="none" stroke="midnightblue" d="M981.446,-55.9793C845.021,-37.9921 808.19,-43.6083 677,-20 674.137,-19.4848 671.165,-18.8809 668.207,-18.2339"/>
<polygon fill="midnightblue" stroke="midnightblue" points="981.067,-59.4598 991.443,-57.3159 981.995,-52.5215 981.067,-59.4598"/>
</g>
<!-- Node5 -->
<g id="node5" class="node"><title>Node5</title>
<g id="a_node5"><a xlink:href="../../dc/d9a/a00218.html" target="_top" xlink:title="CollegePopulator.cpp">
<polygon fill="white" stroke="black" points="1150,-0.5 1150,-19.5 1260,-19.5 1260,-0.5 1150,-0.5"/>
<text text-anchor="middle" x="1205" y="-7.5" font-family="Helvetica,sans-Serif" font-size="10.00">CollegePopulator.cpp</text>
</a>
</g>
</g>
<!-- Node2&#45;&gt;Node5 -->
<g id="edge4" class="edge"><title>Node2&#45;&gt;Node5</title>
<path fill="none" stroke="midnightblue" d="M1076.52,-53.3044C1107.42,-43.1294 1151.47,-28.6246 1179.14,-19.5164"/>
<polygon fill="midnightblue" stroke="midnightblue" points="1075.39,-49.9915 1066.99,-56.4435 1077.58,-56.6404 1075.39,-49.9915"/>
</g>
<!-- Node6&#45;&gt;Node3 -->
<g id="edge6" class="edge"><title>Node6&#45;&gt;Node3</title>
<path fill="none" stroke="midnightblue" d="M739.421,-54.4096C689.717,-44.2042 615.471,-28.9597 569.478,-19.5164"/>
<polygon fill="midnightblue" stroke="midnightblue" points="738.827,-57.8607 749.327,-56.4435 740.235,-51.0037 738.827,-57.8607"/>
</g>
<!-- Node6&#45;&gt;Node4 -->
<g id="edge7" class="edge"><title>Node6&#45;&gt;Node4</title>
<path fill="none" stroke="midnightblue" d="M757.554,-53.0392C729.142,-42.8786 689.063,-28.5457 663.814,-19.5164"/>
<polygon fill="midnightblue" stroke="midnightblue" points="756.479,-56.3718 767.074,-56.4435 758.836,-49.7806 756.479,-56.3718"/>
</g>
<!-- Node7 -->
<g id="node7" class="node"><title>Node7</title>
<g id="a_node7"><a xlink:href="../../db/dc3/a00284.html" target="_top" xlink:title="GeoGridPopulator.cpp">
<polygon fill="white" stroke="black" points="877.5,-0.5 877.5,-19.5 990.5,-19.5 990.5,-0.5 877.5,-0.5"/>
<text text-anchor="middle" x="934" y="-7.5" font-family="Helvetica,sans-Serif" font-size="10.00">GeoGridPopulator.cpp</text>
</a>
</g>
</g>
<!-- Node6&#45;&gt;Node7 -->
<g id="edge8" class="edge"><title>Node6&#45;&gt;Node7</title>
<path fill="none" stroke="midnightblue" d="M823.027,-52.9058C849.912,-42.7536 887.641,-28.5063 911.447,-19.5164"/>
<polygon fill="midnightblue" stroke="midnightblue" points="821.778,-49.6364 813.659,-56.4435 824.25,-56.1851 821.778,-49.6364"/>
</g>
<!-- Node8&#45;&gt;Node3 -->
<g id="edge10" class="edge"><title>Node8&#45;&gt;Node3</title>
<path fill="none" stroke="midnightblue" d="M248.636,-54.8537C313.631,-44.6509 412.711,-29.0977 473.747,-19.5164"/>
<polygon fill="midnightblue" stroke="midnightblue" points="247.844,-51.435 238.508,-56.4435 248.93,-58.3503 247.844,-51.435"/>
</g>
<!-- Node8&#45;&gt;Node4 -->
<g id="edge11" class="edge"><title>Node8&#45;&gt;Node4</title>
<path fill="none" stroke="midnightblue" d="M250.694,-55.8413C407.302,-37.5385 449.683,-45.6909 602,-20 605.209,-19.4588 608.55,-18.8041 611.862,-18.0975"/>
<polygon fill="midnightblue" stroke="midnightblue" points="250.223,-52.3726 240.705,-57.0263 251.047,-59.3239 250.223,-52.3726"/>
</g>
<!-- Node9 -->
<g id="node9" class="node"><title>Node9</title>
<g id="a_node9"><a xlink:href="../../d7/df2/a00312.html" target="_top" xlink:title="HouseholdPopulator.cpp">
<polygon fill="white" stroke="black" points="-0.5,-0.5 -0.5,-19.5 122.5,-19.5 122.5,-0.5 -0.5,-0.5"/>
<text text-anchor="middle" x="61" y="-7.5" font-family="Helvetica,sans-Serif" font-size="10.00">HouseholdPopulator.cpp</text>
</a>
</g>
</g>
<!-- Node8&#45;&gt;Node9 -->
<g id="edge12" class="edge"><title>Node8&#45;&gt;Node9</title>
<path fill="none" stroke="midnightblue" d="M155.227,-52.3678C132.193,-42.2553 100.516,-28.3486 80.3985,-19.5164"/>
<polygon fill="midnightblue" stroke="midnightblue" points="153.947,-55.6283 164.51,-56.4435 156.761,-49.2188 153.947,-55.6283"/>
</g>
<!-- Node10&#45;&gt;Node3 -->
<g id="edge14" class="edge"><title>Node10&#45;&gt;Node3</title>
<path fill="none" stroke="midnightblue" d="M358.551,-53.959C398.781,-43.7598 457.703,-28.8217 494.407,-19.5164"/>
<polygon fill="midnightblue" stroke="midnightblue" points="357.584,-50.5933 348.75,-56.4435 359.304,-57.3787 357.584,-50.5933"/>
</g>
<!-- Node10&#45;&gt;Node4 -->
<g id="edge15" class="edge"><title>Node10&#45;&gt;Node4</title>
<path fill="none" stroke="midnightblue" d="M381.753,-55.1423C452.959,-44.5183 561.022,-28.0528 602,-20 605.193,-19.3725 608.525,-18.6639 611.831,-17.9267"/>
<polygon fill="midnightblue" stroke="midnightblue" points="380.902,-51.7304 371.527,-56.6657 381.934,-58.654 380.902,-51.7304"/>
</g>
<!-- Node11 -->
<g id="node11" class="node"><title>Node11</title>
<g id="a_node11"><a xlink:href="../../dc/d84/a00338.html" target="_top" xlink:title="K12SchoolPopulator.cpp">
<polygon fill="white" stroke="black" points="141,-0.5 141,-19.5 265,-19.5 265,-0.5 141,-0.5"/>
<text text-anchor="middle" x="203" y="-7.5" font-family="Helvetica,sans-Serif" font-size="10.00">K12SchoolPopulator.cpp</text>
</a>
</g>
</g>
<!-- Node10&#45;&gt;Node11 -->
<g id="edge16" class="edge"><title>Node10&#45;&gt;Node11</title>
<path fill="none" stroke="midnightblue" d="M287.751,-51.8622C266.984,-41.8492 238.977,-28.3458 220.95,-19.6545"/>
<polygon fill="midnightblue" stroke="midnightblue" points="286.477,-55.1336 297.005,-56.324 289.518,-48.8282 286.477,-55.1336"/>
</g>
<!-- Node13&#45;&gt;Node3 -->
<g id="edge19" class="edge"><title>Node13&#45;&gt;Node3</title>
<path fill="none" stroke="midnightblue" d="M483.04,-49.5372C494.273,-39.9087 508.319,-27.8694 517.694,-19.8339"/>
<polygon fill="midnightblue" stroke="midnightblue" points="480.437,-47.1586 475.122,-56.324 484.992,-52.4734 480.437,-47.1586"/>
</g>
<!-- Node13&#45;&gt;Node4 -->
<g id="edge20" class="edge"><title>Node13&#45;&gt;Node4</title>
<path fill="none" stroke="midnightblue" d="M502.475,-53.4363C535.47,-43.2551 582.756,-28.664 612.4,-19.5164"/>
<polygon fill="midnightblue" stroke="midnightblue" points="501.253,-50.1505 492.729,-56.4435 503.317,-56.8393 501.253,-50.1505"/>
</g>
<!-- Node14 -->
<g id="node14" class="node"><title>Node14</title>
<g id="a_node14"><a xlink:href="../../d8/ddd/a00380.html" target="_top" xlink:title="PrimaryCommunityPopulator.cpp">
<polygon fill="white" stroke="black" points="283.5,-0.5 283.5,-19.5 444.5,-19.5 444.5,-0.5 283.5,-0.5"/>
<text text-anchor="middle" x="364" y="-7.5" font-family="Helvetica,sans-Serif" font-size="10.00">PrimaryCommunityPopulator.cpp</text>
</a>
</g>
</g>
<!-- Node13&#45;&gt;Node14 -->
<g id="edge21" class="edge"><title>Node13&#45;&gt;Node14</title>
<path fill="none" stroke="midnightblue" d="M439.917,-51.5895C421.243,-41.6052 396.296,-28.2672 380.187,-19.6545"/>
<polygon fill="midnightblue" stroke="midnightblue" points="438.304,-54.6955 448.773,-56.324 441.604,-48.5224 438.304,-54.6955"/>
</g>
<!-- Node15&#45;&gt;Node3 -->
<g id="edge23" class="edge"><title>Node15&#45;&gt;Node3</title>
<path fill="none" stroke="midnightblue" d="M612.751,-51.8622C591.984,-41.8492 563.977,-28.3458 545.95,-19.6545"/>
<polygon fill="midnightblue" stroke="midnightblue" points="611.477,-55.1336 622.005,-56.324 614.518,-48.8282 611.477,-55.1336"/>
</g>
<!-- Node15&#45;&gt;Node4 -->
<g id="edge24" class="edge"><title>Node15&#45;&gt;Node4</title>
<path fill="none" stroke="midnightblue" d="M640,-45.8045C640,-36.9102 640,-26.7798 640,-19.7511"/>
<polygon fill="midnightblue" stroke="midnightblue" points="636.5,-46.083 640,-56.083 643.5,-46.083 636.5,-46.083"/>
</g>
<!-- Node16 -->
<g id="node16" class="node"><title>Node16</title>
<g id="a_node16"><a xlink:href="../../db/dbc/a00395.html" target="_top" xlink:title="SecondaryCommunityPopulator.cpp">
<polygon fill="white" stroke="black" points="686.5,-0.5 686.5,-19.5 859.5,-19.5 859.5,-0.5 686.5,-0.5"/>
<text text-anchor="middle" x="773" y="-7.5" font-family="Helvetica,sans-Serif" font-size="10.00">SecondaryCommunityPopulator.cpp</text>
</a>
</g>
</g>
<!-- Node15&#45;&gt;Node16 -->
<g id="edge25" class="edge"><title>Node15&#45;&gt;Node16</title>
<path fill="none" stroke="midnightblue" d="M670.448,-52.6377C695.407,-42.504 730.077,-28.4274 752.024,-19.5164"/>
<polygon fill="midnightblue" stroke="midnightblue" points="669.023,-49.4387 661.074,-56.4435 671.656,-55.9245 669.023,-49.4387"/>
</g>
<!-- Node17&#45;&gt;Node3 -->
<g id="edge27" class="edge"><title>Node17&#45;&gt;Node3</title>
<path fill="none" stroke="midnightblue" d="M850.403,-55.7552C777.191,-45.5921 660.546,-29.3997 589.45,-19.5303"/>
<polygon fill="midnightblue" stroke="midnightblue" points="850.05,-59.2396 860.436,-57.1479 851.012,-52.3061 850.05,-59.2396"/>
</g>
<!-- Node17&#45;&gt;Node4 -->
<g id="edge28" class="edge"><title>Node17&#45;&gt;Node4</title>
<path fill="none" stroke="midnightblue" d="M857.16,-54.6928C808.498,-46.0918 738.133,-33.1565 677,-20 674.156,-19.388 671.197,-18.7205 668.246,-18.0347"/>
<polygon fill="midnightblue" stroke="midnightblue" points="856.748,-58.1739 867.203,-56.4608 857.961,-51.28 856.748,-58.1739"/>
</g>
<!-- Node18 -->
<g id="node18" class="node"><title>Node18</title>
<g id="a_node18"><a xlink:href="../../d0/dc4/a00443.html" target="_top" xlink:title="WorkplacePopulator.cpp">
<polygon fill="white" stroke="black" points="1008.5,-0.5 1008.5,-19.5 1131.5,-19.5 1131.5,-0.5 1008.5,-0.5"/>
<text text-anchor="middle" x="1070" y="-7.5" font-family="Helvetica,sans-Serif" font-size="10.00">WorkplacePopulator.cpp</text>
</a>
</g>
</g>
<!-- Node17&#45;&gt;Node18 -->
<g id="edge29" class="edge"><title>Node17&#45;&gt;Node18</title>
<path fill="none" stroke="midnightblue" d="M950.889,-53.0392C979.677,-42.8786 1020.29,-28.5457 1045.87,-19.5164"/>
<polygon fill="midnightblue" stroke="midnightblue" points="949.508,-49.8148 941.243,-56.4435 951.838,-56.4157 949.508,-49.8148"/>
</g>
</g>
</svg>
