<?xml version="1.0" encoding="UTF-8" standalone="no"?>
<!DOCTYPE svg PUBLIC "-//W3C//DTD SVG 1.1//EN"
 "http://www.w3.org/Graphics/SVG/1.1/DTD/svg11.dtd">
<!-- Generated by graphviz version 2.36.0 (20140111.2315)
 -->
<!-- Title: stride::SimWorker::Worked Pages: 1 -->
<svg width="420pt" height="52pt"
 viewBox="0.00 0.00 420.00 52.00" xmlns="http://www.w3.org/2000/svg" xmlns:xlink="http://www.w3.org/1999/xlink">
<g id="graph0" class="graph" transform="scale(1 1) rotate(0) translate(4 48)">
<title>stride::SimWorker::Worked</title>
<polygon fill="white" stroke="none" points="-4,4 -4,-48 416,-48 416,4 -4,4"/>
<!-- Node1 -->
<g id="node1" class="node"><title>Node1</title>
<polygon fill="#bfbfbf" stroke="black" points="0.5,-14 0.5,-44 101.5,-44 101.5,-14 0.5,-14"/>
<text text-anchor="start" x="8.5" y="-32" font-family="Helvetica,sans-Serif" font-size="10.00">stride::SimWorker::</text>
<text text-anchor="middle" x="51" y="-21" font-family="Helvetica,sans-Serif" font-size="10.00">Worked</text>
</g>
<!-- Node2 -->
<g id="node2" class="node"><title>Node2</title>
<g id="a_node2"><a xlink:href="../../db/df8/a00076.html#ae36c8a0c983cc8eb2b9363548ddb79e9" target="_top" xlink:title="Step a day in the simulator, this will be done on a separate thread. ">
<polygon fill="white" stroke="black" points="300,-14 300,-44 412,-44 412,-14 300,-14"/>
<text text-anchor="start" x="308" y="-32" font-family="Helvetica,sans-Serif" font-size="10.00">GuiControllerBackend</text>
<text text-anchor="middle" x="356" y="-21" font-family="Helvetica,sans-Serif" font-size="10.00">::StepDay</text>
</a>
</g>
</g>
<!-- Node1&#45;&gt;Node2 -->
<g id="edge1" class="edge"><title>Node1&#45;&gt;Node2</title>
<path fill="none" stroke="midnightblue" d="M111.936,-29C166.619,-29 246.771,-29 299.888,-29"/>
<polygon fill="midnightblue" stroke="midnightblue" points="111.695,-25.5001 101.695,-29 111.695,-32.5001 111.695,-25.5001"/>
</g>
<!-- Node3 -->
<g id="node3" class="node"><title>Node3</title>
<g id="a_node3"><a xlink:href="../../d5/da7/a00144.html#ac7ca560af4b686acd9e403fe182861f6" target="_top" xlink:title="Perform the actual step if we are not at the end of the sim. ">
<polygon fill="white" stroke="black" points="138.5,-0.5 138.5,-19.5 263.5,-19.5 263.5,-0.5 138.5,-0.5"/>
<text text-anchor="middle" x="201" y="-7.5" font-family="Helvetica,sans-Serif" font-size="10.00">stride::SimWorker::Work</text>
</a>
</g>
</g>
<!-- Node1&#45;&gt;Node3 -->
<g id="edge2" class="edge"><title>Node1&#45;&gt;Node3</title>
<path fill="none" stroke="midnightblue" d="M111.801,-21.3229C120.545,-20.2003 129.563,-19.0426 138.343,-17.9154"/>
<polygon fill="midnightblue" stroke="midnightblue" points="111.166,-17.8755 101.694,-22.6204 112.058,-24.8185 111.166,-17.8755"/>
</g>
<!-- Node3&#45;&gt;Node2 -->
<g id="edge3" class="edge"><title>Node3&#45;&gt;Node2</title>
<path fill="none" stroke="midnightblue" d="M273.957,-18.9359C282.673,-20.0182 291.467,-21.1102 299.885,-22.1557"/>
<polygon fill="midnightblue" stroke="midnightblue" points="274.145,-15.4324 263.79,-17.6733 273.282,-22.379 274.145,-15.4324"/>
</g>
</g>
</svg>
