<?xml version="1.0" encoding="UTF-8" standalone="no"?>
<!DOCTYPE svg PUBLIC "-//W3C//DTD SVG 1.1//EN"
 "http://www.w3.org/Graphics/SVG/1.1/DTD/svg11.dtd">
<!-- Generated by graphviz version 2.36.0 (20140111.2315)
 -->
<!-- Title: ConfigInfo.h Pages: 1 -->
<svg width="586pt" height="140pt"
 viewBox="0.00 0.00 586.00 140.00" xmlns="http://www.w3.org/2000/svg" xmlns:xlink="http://www.w3.org/1999/xlink">
<g id="graph0" class="graph" transform="scale(1 1) rotate(0) translate(4 136)">
<title>ConfigInfo.h</title>
<polygon fill="white" stroke="none" points="-4,4 -4,-136 582,-136 582,4 -4,4"/>
<!-- Node1 -->
<g id="node1" class="node"><title>Node1</title>
<polygon fill="#bfbfbf" stroke="black" points="231,-112.5 231,-131.5 301,-131.5 301,-112.5 231,-112.5"/>
<text text-anchor="middle" x="266" y="-119.5" font-family="Helvetica,sans-Serif" font-size="10.00">ConfigInfo.h</text>
</g>
<!-- Node2 -->
<g id="node2" class="node"><title>Node2</title>
<g id="a_node2"><a xlink:href="../../d8/d00/a00186.html" target="_top" xlink:title="Header for the command line controller. ">
<polygon fill="white" stroke="black" points="0,-56.5 0,-75.5 100,-75.5 100,-56.5 0,-56.5"/>
<text text-anchor="middle" x="50" y="-63.5" font-family="Helvetica,sans-Serif" font-size="10.00">BaseController.cpp</text>
</a>
</g>
</g>
<!-- Node1&#45;&gt;Node2 -->
<g id="edge1" class="edge"><title>Node1&#45;&gt;Node2</title>
<path fill="none" stroke="midnightblue" d="M221.836,-109.959C181.039,-99.7598 121.287,-84.8217 84.0657,-75.5164"/>
<polygon fill="midnightblue" stroke="midnightblue" points="221.224,-113.414 231.774,-112.444 222.922,-106.623 221.224,-113.414"/>
</g>
<!-- Node3 -->
<g id="node3" class="node"><title>Node3</title>
<g id="a_node3"><a xlink:href="../../d5/df1/a00206.html" target="_top" xlink:title="Header for the command line controller. ">
<polygon fill="white" stroke="black" points="118.5,-56.5 118.5,-75.5 207.5,-75.5 207.5,-56.5 118.5,-56.5"/>
<text text-anchor="middle" x="163" y="-63.5" font-family="Helvetica,sans-Serif" font-size="10.00">CliController.cpp</text>
</a>
</g>
</g>
<!-- Node1&#45;&gt;Node3 -->
<g id="edge2" class="edge"><title>Node1&#45;&gt;Node3</title>
<path fill="none" stroke="midnightblue" d="M240.421,-107.59C221.377,-97.6052 195.936,-84.2672 179.508,-75.6545"/>
<polygon fill="midnightblue" stroke="midnightblue" points="238.969,-110.78 249.451,-112.324 242.22,-104.581 238.969,-110.78"/>
</g>
<!-- Node4 -->
<g id="node4" class="node"><title>Node4</title>
<g id="a_node4"><a xlink:href="../../de/dc2/a00228.html" target="_top" xlink:title="Info on configuration. ">
<polygon fill="white" stroke="black" points="226,-56.5 226,-75.5 306,-75.5 306,-56.5 226,-56.5"/>
<text text-anchor="middle" x="266" y="-63.5" font-family="Helvetica,sans-Serif" font-size="10.00">ConfigInfo.cpp</text>
</a>
</g>
</g>
<!-- Node1&#45;&gt;Node4 -->
<g id="edge3" class="edge"><title>Node1&#45;&gt;Node4</title>
<path fill="none" stroke="midnightblue" d="M266,-101.805C266,-92.9102 266,-82.7798 266,-75.7511"/>
<polygon fill="midnightblue" stroke="midnightblue" points="262.5,-102.083 266,-112.083 269.5,-102.083 262.5,-102.083"/>
</g>
<!-- Node5 -->
<g id="node5" class="node"><title>Node5</title>
<g id="a_node5"><a xlink:href="../../dc/dc9/a00389.html" target="_top" xlink:title="Produce run config ptree. ">
<polygon fill="white" stroke="black" points="324.5,-56.5 324.5,-75.5 433.5,-75.5 433.5,-56.5 324.5,-56.5"/>
<text text-anchor="middle" x="379" y="-63.5" font-family="Helvetica,sans-Serif" font-size="10.00">RunConfigManager.h</text>
</a>
</g>
</g>
<!-- Node1&#45;&gt;Node5 -->
<g id="edge4" class="edge"><title>Node1&#45;&gt;Node5</title>
<path fill="none" stroke="midnightblue" d="M293.003,-108.096C314.114,-98.0073 342.862,-84.2697 361.179,-75.5164"/>
<polygon fill="midnightblue" stroke="midnightblue" points="291.419,-104.974 283.905,-112.444 294.437,-111.29 291.419,-104.974"/>
</g>
<!-- Node10 -->
<g id="node10" class="node"><title>Node10</title>
<g id="a_node10"><a xlink:href="../../d9/dc1/a00388.html" target="_top" xlink:title="Implementation of ptree utils. ">
<polygon fill="white" stroke="black" points="459.5,-0.5 459.5,-19.5 578.5,-19.5 578.5,-0.5 459.5,-0.5"/>
<text text-anchor="middle" x="519" y="-7.5" font-family="Helvetica,sans-Serif" font-size="10.00">RunConfigManager.cpp</text>
</a>
</g>
</g>
<!-- Node1&#45;&gt;Node10 -->
<g id="edge10" class="edge"><title>Node1&#45;&gt;Node10</title>
<path fill="none" stroke="midnightblue" d="M310.989,-115.21C347.786,-109.161 400.356,-97.4537 442,-76 470.927,-61.0981 498.467,-33.5375 511.365,-19.5794"/>
<polygon fill="midnightblue" stroke="midnightblue" points="310.388,-111.761 301.051,-116.769 311.473,-118.677 310.388,-111.761"/>
</g>
<!-- Node6 -->
<g id="node6" class="node"><title>Node6</title>
<g id="a_node6"><a xlink:href="../../dc/d55/a00226.html" target="_top" xlink:title="ConfigFileCalibrationRunner.cpp">
<polygon fill="white" stroke="black" points="38,-0.5 38,-19.5 196,-19.5 196,-0.5 38,-0.5"/>
<text text-anchor="middle" x="117" y="-7.5" font-family="Helvetica,sans-Serif" font-size="10.00">ConfigFileCalibrationRunner.cpp</text>
</a>
</g>
</g>
<!-- Node5&#45;&gt;Node6 -->
<g id="edge5" class="edge"><title>Node5&#45;&gt;Node6</title>
<path fill="none" stroke="midnightblue" d="M327.617,-54.4096C278.102,-44.2042 204.138,-28.9597 158.32,-19.5164"/>
<polygon fill="midnightblue" stroke="midnightblue" points="326.985,-57.8528 337.485,-56.4435 328.398,-50.9969 326.985,-57.8528"/>
</g>
<!-- Node7 -->
<g id="node7" class="node"><title>Node7</title>
<g id="a_node7"><a xlink:href="../../d5/db5/a00374.html" target="_top" xlink:title="Core Population class. ">
<polygon fill="white" stroke="black" points="214.5,-0.5 214.5,-19.5 295.5,-19.5 295.5,-0.5 214.5,-0.5"/>
<text text-anchor="middle" x="255" y="-7.5" font-family="Helvetica,sans-Serif" font-size="10.00">Population.cpp</text>
</a>
</g>
</g>
<!-- Node5&#45;&gt;Node7 -->
<g id="edge6" class="edge"><title>Node5&#45;&gt;Node7</title>
<path fill="none" stroke="midnightblue" d="M349.993,-52.3678C326.771,-42.2553 294.837,-28.3486 274.556,-19.5164"/>
<polygon fill="midnightblue" stroke="midnightblue" points="348.786,-55.6597 359.352,-56.4435 351.581,-49.2419 348.786,-55.6597"/>
</g>
<!-- Node8 -->
<g id="node8" class="node"><title>Node8</title>
<g id="a_node8"><a xlink:href="../../d0/d48/a00351.html" target="_top" xlink:title="Main program: command line handling. ">
<polygon fill="white" stroke="black" points="314,-0.5 314,-19.5 370,-19.5 370,-0.5 314,-0.5"/>
<text text-anchor="middle" x="342" y="-7.5" font-family="Helvetica,sans-Serif" font-size="10.00">main.cpp</text>
</a>
</g>
</g>
<!-- Node5&#45;&gt;Node8 -->
<g id="edge7" class="edge"><title>Node5&#45;&gt;Node8</title>
<path fill="none" stroke="midnightblue" d="M367.054,-47.5656C360.688,-38.2747 353.133,-27.2484 347.996,-19.7511"/>
<polygon fill="midnightblue" stroke="midnightblue" points="364.351,-49.812 372.89,-56.083 370.125,-45.8553 364.351,-49.812"/>
</g>
<!-- Node9 -->
<g id="node9" class="node"><title>Node9</title>
<g id="a_node9"><a xlink:href="../../db/dbc/a00395.html" target="_top" xlink:title="Implementation for the Simulator class. ">
<polygon fill="white" stroke="black" points="388.5,-0.5 388.5,-19.5 441.5,-19.5 441.5,-0.5 388.5,-0.5"/>
<text text-anchor="middle" x="415" y="-7.5" font-family="Helvetica,sans-Serif" font-size="10.00">Sim.cpp</text>
</a>
</g>
</g>
<!-- Node5&#45;&gt;Node9 -->
<g id="edge8" class="edge"><title>Node5&#45;&gt;Node9</title>
<path fill="none" stroke="midnightblue" d="M390.623,-47.5656C396.817,-38.2747 404.168,-27.2484 409.166,-19.7511"/>
<polygon fill="midnightblue" stroke="midnightblue" points="387.58,-45.821 384.945,-56.083 393.404,-49.7039 387.58,-45.821"/>
</g>
<!-- Node5&#45;&gt;Node10 -->
<g id="edge9" class="edge"><title>Node5&#45;&gt;Node10</title>
<path fill="none" stroke="midnightblue" d="M410.702,-52.772C437,-42.6287 473.716,-28.4669 496.92,-19.5164"/>
<polygon fill="midnightblue" stroke="midnightblue" points="409.254,-49.5792 401.183,-56.4435 411.773,-56.1103 409.254,-49.5792"/>
</g>
</g>
</svg>
