<?xml version="1.0" encoding="UTF-8" standalone="no"?>
<!DOCTYPE svg PUBLIC "-//W3C//DTD SVG 1.1//EN"
 "http://www.w3.org/Graphics/SVG/1.1/DTD/svg11.dtd">
<!-- Generated by graphviz version 2.36.0 (20140111.2315)
 -->
<!-- Title: gengeopop::kd::BaseNode::BorrowSplitChild Pages: 1 -->
<svg width="328pt" height="109pt"
 viewBox="0.00 0.00 328.00 109.00" xmlns="http://www.w3.org/2000/svg" xmlns:xlink="http://www.w3.org/1999/xlink">
<g id="graph0" class="graph" transform="scale(1 1) rotate(0) translate(4 105)">
<title>gengeopop::kd::BaseNode::BorrowSplitChild</title>
<polygon fill="white" stroke="none" points="-4,4 -4,-105 324,-105 324,4 -4,4"/>
<!-- Node1 -->
<g id="node1" class="node"><title>Node1</title>
<polygon fill="#bfbfbf" stroke="black" points="0,-35 0,-65 132,-65 132,-35 0,-35"/>
<text text-anchor="start" x="8" y="-53" font-family="Helvetica,sans-Serif" font-size="10.00">gengeopop::kd::BaseNode</text>
<text text-anchor="middle" x="66" y="-42" font-family="Helvetica,sans-Serif" font-size="10.00">::BorrowSplitChild</text>
</g>
<!-- Node2 -->
<g id="node2" class="node"><title>Node2</title>
<g id="a_node2"><a xlink:href="../../d1/dea/a00054.html#a8c59ea871d0dd12c7ea751a974298a89" target="_top" xlink:title="Calls a function with every point contained in box ">
<polygon fill="white" stroke="black" points="168,-59.5 168,-100.5 320,-100.5 320,-59.5 168,-59.5"/>
<text text-anchor="start" x="176" y="-88.5" font-family="Helvetica,sans-Serif" font-size="10.00">gengeopop::KdTree&lt;</text>
<text text-anchor="start" x="176" y="-77.5" font-family="Helvetica,sans-Serif" font-size="10.00"> geogrid_detail::KdTree2DPoint</text>
<text text-anchor="middle" x="244" y="-66.5" font-family="Helvetica,sans-Serif" font-size="10.00"> &gt;::Apply</text>
</a>
</g>
</g>
<!-- Node1&#45;&gt;Node2 -->
<g id="edge1" class="edge"><title>Node1&#45;&gt;Node2</title>
<path fill="none" stroke="midnightblue" d="M141.985,-62.7815C150.543,-64.2402 159.268,-65.7276 167.829,-67.1867"/>
<polygon fill="midnightblue" stroke="midnightblue" points="142.482,-59.3158 132.036,-61.0857 141.306,-66.2163 142.482,-59.3158"/>
</g>
<!-- Node3 -->
<g id="node3" class="node"><title>Node3</title>
<g id="a_node3"><a xlink:href="../../d1/dea/a00054.html#a0a9ab7e8f5f5c9e8b561583a0d6e31f9" target="_top" xlink:title="Insert a new point into the tree, using this often may result in an unbalanced tree. ">
<polygon fill="white" stroke="black" points="168,0.5 168,-40.5 320,-40.5 320,0.5 168,0.5"/>
<text text-anchor="start" x="176" y="-28.5" font-family="Helvetica,sans-Serif" font-size="10.00">gengeopop::KdTree&lt;</text>
<text text-anchor="start" x="176" y="-17.5" font-family="Helvetica,sans-Serif" font-size="10.00"> geogrid_detail::KdTree2DPoint</text>
<text text-anchor="middle" x="244" y="-6.5" font-family="Helvetica,sans-Serif" font-size="10.00"> &gt;::Insert</text>
</a>
</g>
</g>
<!-- Node1&#45;&gt;Node3 -->
<g id="edge2" class="edge"><title>Node1&#45;&gt;Node3</title>
<path fill="none" stroke="midnightblue" d="M141.985,-37.2185C150.543,-35.7598 159.268,-34.2724 167.829,-32.8133"/>
<polygon fill="midnightblue" stroke="midnightblue" points="141.306,-33.7837 132.036,-38.9143 142.482,-40.6842 141.306,-33.7837"/>
</g>
</g>
</svg>
