<?xml version="1.0" encoding="UTF-8" standalone="no"?>
<!DOCTYPE svg PUBLIC "-//W3C//DTD SVG 1.1//EN"
 "http://www.w3.org/Graphics/SVG/1.1/DTD/svg11.dtd">
<!-- Generated by graphviz version 2.36.0 (20140111.2315)
 -->
<!-- Title: gengeopop::kd::BaseNode::GetPoint Pages: 1 -->
<svg width="328pt" height="48pt"
 viewBox="0.00 0.00 328.00 48.00" xmlns="http://www.w3.org/2000/svg" xmlns:xlink="http://www.w3.org/1999/xlink">
<g id="graph0" class="graph" transform="scale(1 1) rotate(0) translate(4 44)">
<title>gengeopop::kd::BaseNode::GetPoint</title>
<polygon fill="white" stroke="none" points="-4,4 -4,-44 324,-44 324,4 -4,4"/>
<!-- Node1 -->
<g id="node1" class="node"><title>Node1</title>
<polygon fill="#bfbfbf" stroke="black" points="0,-5 0,-35 132,-35 132,-5 0,-5"/>
<text text-anchor="start" x="8" y="-23" font-family="Helvetica,sans-Serif" font-size="10.00">gengeopop::kd::BaseNode</text>
<text text-anchor="middle" x="66" y="-12" font-family="Helvetica,sans-Serif" font-size="10.00">::GetPoint</text>
</g>
<!-- Node2 -->
<g id="node2" class="node"><title>Node2</title>
<g id="a_node2"><a xlink:href="../../d1/dea/a00054.html#ae9d76910fa3cca092fa8e339226cf0c0" target="_top" xlink:title="Calls a function with each of the points in the tree. ">
<polygon fill="white" stroke="black" points="168,0.5 168,-40.5 320,-40.5 320,0.5 168,0.5"/>
<text text-anchor="start" x="176" y="-28.5" font-family="Helvetica,sans-Serif" font-size="10.00">gengeopop::KdTree&lt;</text>
<text text-anchor="start" x="176" y="-17.5" font-family="Helvetica,sans-Serif" font-size="10.00"> geogrid_detail::KdTree2DPoint</text>
<text text-anchor="middle" x="244" y="-6.5" font-family="Helvetica,sans-Serif" font-size="10.00"> &gt;::Apply</text>
</a>
</g>
</g>
<!-- Node1&#45;&gt;Node2 -->
<g id="edge1" class="edge"><title>Node1&#45;&gt;Node2</title>
<path fill="none" stroke="midnightblue" d="M142.264,-20C150.732,-20 159.362,-20 167.829,-20"/>
<polygon fill="midnightblue" stroke="midnightblue" points="142.036,-16.5001 132.036,-20 142.036,-23.5001 142.036,-16.5001"/>
</g>
</g>
</svg>
