<?xml version="1.0" encoding="UTF-8" standalone="no"?>
<!DOCTYPE svg PUBLIC "-//W3C//DTD SVG 1.1//EN"
 "http://www.w3.org/Graphics/SVG/1.1/DTD/svg11.dtd">
<!-- Generated by graphviz version 2.36.0 (20140111.2315)
 -->
<!-- Title: proto::GeoGrid_Location::set_allocated_coordinate Pages: 1 -->
<svg width="334pt" height="38pt"
 viewBox="0.00 0.00 334.00 38.00" xmlns="http://www.w3.org/2000/svg" xmlns:xlink="http://www.w3.org/1999/xlink">
<g id="graph0" class="graph" transform="scale(1 1) rotate(0) translate(4 34)">
<title>proto::GeoGrid_Location::set_allocated_coordinate</title>
<polygon fill="white" stroke="none" points="-4,4 -4,-34 330,-34 330,4 -4,4"/>
<!-- Node1 -->
<g id="node1" class="node"><title>Node1</title>
<polygon fill="#bfbfbf" stroke="black" points="0.5,-0 0.5,-30 131.5,-30 131.5,-0 0.5,-0"/>
<text text-anchor="start" x="8.5" y="-18" font-family="Helvetica,sans-Serif" font-size="10.00">proto::GeoGrid_Location</text>
<text text-anchor="middle" x="66" y="-7" font-family="Helvetica,sans-Serif" font-size="10.00">::set_allocated_coordinate</text>
</g>
<!-- Node2 -->
<g id="node2" class="node"><title>Node2</title>
<g id="a_node2"><a xlink:href="../../da/d2a/a00086.html#acff5ecad9d9dc70b38e1eba34d7aa1e6" target="_top" xlink:title="proto::GeoGrid_Location\l_Coordinate::GetArenaNoVirtual">
<polygon fill="white" stroke="black" points="168.5,-0 168.5,-30 325.5,-30 325.5,-0 168.5,-0"/>
<text text-anchor="start" x="176.5" y="-18" font-family="Helvetica,sans-Serif" font-size="10.00">proto::GeoGrid_Location</text>
<text text-anchor="middle" x="247" y="-7" font-family="Helvetica,sans-Serif" font-size="10.00">_Coordinate::GetArenaNoVirtual</text>
</a>
</g>
</g>
<!-- Node1&#45;&gt;Node2 -->
<g id="edge1" class="edge"><title>Node1&#45;&gt;Node2</title>
<path fill="none" stroke="midnightblue" d="M131.623,-15C140.281,-15 149.277,-15 158.249,-15"/>
<polygon fill="midnightblue" stroke="midnightblue" points="158.35,-18.5001 168.35,-15 158.35,-11.5001 158.35,-18.5001"/>
</g>
</g>
</svg>
