<?xml version="1.0" encoding="UTF-8" standalone="no"?>
<!DOCTYPE svg PUBLIC "-//W3C//DTD SVG 1.1//EN"
 "http://www.w3.org/Graphics/SVG/1.1/DTD/svg11.dtd">
<!-- Generated by graphviz version 2.36.0 (20140111.2315)
 -->
<!-- Title: Exception.h Pages: 1 -->
<!--zoomable 252 -->
<svg id="main" version="1.1" xmlns="http://www.w3.org/2000/svg" xmlns:xlink="http://www.w3.org/1999/xlink" xml:space="preserve" onload="init(evt)">
<style type="text/css"><![CDATA[
.edge:hover path { stroke: red; }
.edge:hover polygon { stroke: red; fill: red; }
]]></style>
<script type="text/javascript"><![CDATA[
var edges = document.getElementsByTagName('g');
if (edges && edges.length) {
  for (var i=0;i<edges.length;i++) {
    if (edges[i].id.substr(0,4)=='edge') {
      edges[i].setAttribute('class','edge');
    }
  }
}
]]></script>
        <defs>
                <circle id="rim" cx="0" cy="0" r="7"/>
                <circle id="rim2" cx="0" cy="0" r="3.5"/>
                <g id="zoomPlus">
                        <use xlink:href="#rim" fill="#404040">
                                <set attributeName="fill" to="#808080" begin="zoomplus.mouseover" end="zoomplus.mouseout"/>
                        </use>
                        <path d="M-4,0h8M0,-4v8" fill="none" stroke="white" stroke-width="1.5" pointer-events="none"/>
                </g>
                <g id="zoomMin">
                        <use xlink:href="#rim" fill="#404040">
                                <set attributeName="fill" to="#808080" begin="zoomminus.mouseover" end="zoomminus.mouseout"/>
                        </use>
                        <path d="M-4,0h8" fill="none" stroke="white" stroke-width="1.5" pointer-events="none"/>
                </g>
                <g id="dirArrow">
                        <path fill="none" stroke="white" stroke-width="1.5" d="M0,-3.0v7 M-2.5,-0.5L0,-3.0L2.5,-0.5"/>
                </g>
               <g id="resetDef">
                       <use xlink:href="#rim2" fill="#404040">
                               <set attributeName="fill" to="#808080" begin="reset.mouseover" end="reset.mouseout"/>
                       </use>
               </g>
        </defs>

<script type="text/javascript">
var viewWidth = 1666;
var viewHeight = 252;
var sectionId = 'dynsection-1';
</script>
<script xlink:href="../../svgpan.js"/>
<svg id="graph" class="graph">
<g id="viewport">
<title>Exception.h</title>
<polygon fill="white" stroke="none" points="-4,4 -4,-248 1662,-248 1662,4 -4,4"/>
<!-- Node1 -->
<g id="node1" class="node"><title>Node1</title>
<polygon fill="#bfbfbf" stroke="black" points="740,-224.5 740,-243.5 808,-243.5 808,-224.5 740,-224.5"/>
<text text-anchor="middle" x="774" y="-231.5" font-family="Helvetica,sans-Serif" font-size="10.00">Exception.h</text>
</g>
<!-- Node2 -->
<g id="node2" class="node"><title>Node2</title>
<g id="a_node2"><a xlink:href="../../d6/d43/a00216.html" target="_top" xlink:title="Community.cpp">
<polygon fill="white" stroke="black" points="0,-168.5 0,-187.5 86,-187.5 86,-168.5 0,-168.5"/>
<text text-anchor="middle" x="43" y="-175.5" font-family="Helvetica,sans-Serif" font-size="10.00">Community.cpp</text>
</a>
</g>
</g>
<!-- Node1&#45;&gt;Node2 -->
<g id="edge1" class="edge"><title>Node1&#45;&gt;Node2</title>
<path fill="none" stroke="midnightblue" d="M729.418,-231.614C620.775,-227.893 333.819,-216.01 96,-188 92.7558,-187.618 89.4081,-187.172 86.0457,-186.687"/>
<polygon fill="midnightblue" stroke="midnightblue" points="729.558,-235.12 739.67,-231.958 729.793,-228.124 729.558,-235.12"/>
</g>
<!-- Node3 -->
<g id="node3" class="node"><title>Node3</title>
<g id="a_node3"><a xlink:href="../../d5/d42/a00269.html" target="_top" xlink:title="GeoGrid.cpp">
<polygon fill="white" stroke="black" points="104.5,-168.5 104.5,-187.5 175.5,-187.5 175.5,-168.5 104.5,-168.5"/>
<text text-anchor="middle" x="140" y="-175.5" font-family="Helvetica,sans-Serif" font-size="10.00">GeoGrid.cpp</text>
</a>
</g>
</g>
<!-- Node1&#45;&gt;Node3 -->
<g id="edge2" class="edge"><title>Node1&#45;&gt;Node3</title>
<path fill="none" stroke="midnightblue" d="M729.828,-231.455C631.532,-227.616 387.421,-215.87 185,-188 182.001,-187.587 178.9,-187.098 175.795,-186.566"/>
<polygon fill="midnightblue" stroke="midnightblue" points="729.857,-234.958 739.983,-231.843 730.124,-227.963 729.857,-234.958"/>
</g>
<!-- Node4 -->
<g id="node4" class="node"><title>Node4</title>
<g id="a_node4"><a xlink:href="../../d5/d0b/a00220.html" target="_top" xlink:title="CommutesCSVReader.cpp">
<polygon fill="white" stroke="black" points="194,-168.5 194,-187.5 330,-187.5 330,-168.5 194,-168.5"/>
<text text-anchor="middle" x="262" y="-175.5" font-family="Helvetica,sans-Serif" font-size="10.00">CommutesCSVReader.cpp</text>
</a>
</g>
</g>
<!-- Node1&#45;&gt;Node4 -->
<g id="edge3" class="edge"><title>Node1&#45;&gt;Node4</title>
<path fill="none" stroke="midnightblue" d="M729.834,-228.627C651.213,-220.798 481.824,-203.734 339,-188 336.057,-187.676 333.051,-187.341 330.015,-186.999"/>
<polygon fill="midnightblue" stroke="midnightblue" points="729.566,-232.117 739.864,-229.624 730.259,-225.152 729.566,-232.117"/>
</g>
<!-- Node5 -->
<g id="node5" class="node"><title>Node5</title>
<g id="a_node5"><a xlink:href="../../dc/d28/a00276.html" target="_top" xlink:title="GeoGridJSONReader.cpp">
<polygon fill="white" stroke="black" points="348,-168.5 348,-187.5 478,-187.5 478,-168.5 348,-168.5"/>
<text text-anchor="middle" x="413" y="-175.5" font-family="Helvetica,sans-Serif" font-size="10.00">GeoGridJSONReader.cpp</text>
</a>
</g>
</g>
<!-- Node1&#45;&gt;Node5 -->
<g id="edge4" class="edge"><title>Node1&#45;&gt;Node5</title>
<path fill="none" stroke="midnightblue" d="M729.726,-226.377C664.347,-216.598 541.973,-198.292 469.98,-187.523"/>
<polygon fill="midnightblue" stroke="midnightblue" points="729.305,-229.853 739.713,-227.871 730.34,-222.93 729.305,-229.853"/>
</g>
<!-- Node6 -->
<g id="node6" class="node"><title>Node6</title>
<g id="a_node6"><a xlink:href="../../dc/dc9/a00282.html" target="_top" xlink:title="GeoGridProtoReader.cpp">
<polygon fill="white" stroke="black" points="496,-168.5 496,-187.5 622,-187.5 622,-168.5 496,-168.5"/>
<text text-anchor="middle" x="559" y="-175.5" font-family="Helvetica,sans-Serif" font-size="10.00">GeoGridProtoReader.cpp</text>
</a>
</g>
</g>
<!-- Node1&#45;&gt;Node6 -->
<g id="edge5" class="edge"><title>Node1&#45;&gt;Node6</title>
<path fill="none" stroke="midnightblue" d="M730.04,-221.959C689.433,-211.76 629.957,-196.822 592.908,-187.516"/>
<polygon fill="midnightblue" stroke="midnightblue" points="729.381,-225.402 739.933,-224.444 731.086,-218.613 729.381,-225.402"/>
</g>
<!-- Node7 -->
<g id="node7" class="node"><title>Node7</title>
<g id="a_node7"><a xlink:href="../../db/dc3/a00284.html" target="_top" xlink:title="GeoGridProtoWriter.cpp">
<polygon fill="white" stroke="black" points="640.5,-168.5 640.5,-187.5 761.5,-187.5 761.5,-168.5 640.5,-168.5"/>
<text text-anchor="middle" x="701" y="-175.5" font-family="Helvetica,sans-Serif" font-size="10.00">GeoGridProtoWriter.cpp</text>
</a>
</g>
</g>
<!-- Node1&#45;&gt;Node7 -->
<g id="edge6" class="edge"><title>Node1&#45;&gt;Node7</title>
<path fill="none" stroke="midnightblue" d="M753.858,-218.101C740.721,-208.382 724.018,-196.027 712.942,-187.834"/>
<polygon fill="midnightblue" stroke="midnightblue" points="752.15,-221.191 762.271,-224.324 756.313,-215.563 752.15,-221.191"/>
</g>
<!-- Node8 -->
<g id="node8" class="node"><title>Node8</title>
<g id="a_node8"><a xlink:href="../../da/ddc/a00288.html" target="_top" xlink:title="GeoGridReaderFactory.cpp">
<polygon fill="white" stroke="black" points="780,-168.5 780,-187.5 916,-187.5 916,-168.5 780,-168.5"/>
<text text-anchor="middle" x="848" y="-175.5" font-family="Helvetica,sans-Serif" font-size="10.00">GeoGridReaderFactory.cpp</text>
</a>
</g>
</g>
<!-- Node1&#45;&gt;Node8 -->
<g id="edge7" class="edge"><title>Node1&#45;&gt;Node8</title>
<path fill="none" stroke="midnightblue" d="M794.034,-218.38C807.409,-208.62 824.559,-196.106 835.894,-187.834"/>
<polygon fill="midnightblue" stroke="midnightblue" points="791.904,-215.602 785.889,-224.324 796.03,-221.257 791.904,-215.602"/>
</g>
<!-- Node9 -->
<g id="node9" class="node"><title>Node9</title>
<g id="a_node9"><a xlink:href="../../da/dd4/a00291.html" target="_top" xlink:title="GeoGridWriterFactory.cpp">
<polygon fill="white" stroke="black" points="934.5,-168.5 934.5,-187.5 1065.5,-187.5 1065.5,-168.5 934.5,-168.5"/>
<text text-anchor="middle" x="1000" y="-175.5" font-family="Helvetica,sans-Serif" font-size="10.00">GeoGridWriterFactory.cpp</text>
</a>
</g>
</g>
<!-- Node1&#45;&gt;Node9 -->
<g id="edge8" class="edge"><title>Node1&#45;&gt;Node9</title>
<path fill="none" stroke="midnightblue" d="M818.155,-222.45C860.821,-212.255 924.647,-197.005 964.231,-187.547"/>
<polygon fill="midnightblue" stroke="midnightblue" points="817.237,-219.07 808.325,-224.799 818.864,-225.879 817.237,-219.07"/>
</g>
<!-- Node10 -->
<g id="node10" class="node"><title>Node10</title>
<g id="a_node10"><a xlink:href="../../d3/d45/a00382.html" target="_top" xlink:title="ReaderFactory.cpp">
<polygon fill="white" stroke="black" points="1084,-168.5 1084,-187.5 1184,-187.5 1184,-168.5 1084,-168.5"/>
<text text-anchor="middle" x="1134" y="-175.5" font-family="Helvetica,sans-Serif" font-size="10.00">ReaderFactory.cpp</text>
</a>
</g>
</g>
<!-- Node1&#45;&gt;Node10 -->
<g id="edge9" class="edge"><title>Node1&#45;&gt;Node10</title>
<path fill="none" stroke="midnightblue" d="M818.464,-226.33C885.786,-216.232 1013.2,-197.12 1083.78,-186.534"/>
<polygon fill="midnightblue" stroke="midnightblue" points="817.563,-222.926 808.192,-227.871 818.601,-229.849 817.563,-222.926"/>
</g>
<!-- Node11 -->
<g id="node11" class="node"><title>Node11</title>
<g id="a_node11"><a xlink:href="../../df/df1/a00340.html" target="_top" xlink:title="Location.cpp">
<polygon fill="white" stroke="black" points="1202,-168.5 1202,-187.5 1274,-187.5 1274,-168.5 1202,-168.5"/>
<text text-anchor="middle" x="1238" y="-175.5" font-family="Helvetica,sans-Serif" font-size="10.00">Location.cpp</text>
</a>
</g>
</g>
<!-- Node1&#45;&gt;Node11 -->
<g id="edge10" class="edge"><title>Node1&#45;&gt;Node11</title>
<path fill="none" stroke="midnightblue" d="M818.315,-229.567C894.958,-223.333 1057.11,-208.842 1193,-188 1195.84,-187.565 1198.76,-187.075 1201.7,-186.553"/>
<polygon fill="midnightblue" stroke="midnightblue" points="817.766,-226.099 808.08,-230.391 818.328,-233.077 817.766,-226.099"/>
</g>
<!-- Node12 -->
<g id="node12" class="node"><title>Node12</title>
<g id="a_node12"><a xlink:href="../../d0/d2f/a00259.html" target="_top" xlink:title="ExcAssert.h">
<polygon fill="white" stroke="black" points="1292.5,-168.5 1292.5,-187.5 1363.5,-187.5 1363.5,-168.5 1292.5,-168.5"/>
<text text-anchor="middle" x="1328" y="-175.5" font-family="Helvetica,sans-Serif" font-size="10.00">ExcAssert.h</text>
</a>
</g>
</g>
<!-- Node1&#45;&gt;Node12 -->
<g id="edge11" class="edge"><title>Node1&#45;&gt;Node12</title>
<path fill="none" stroke="midnightblue" d="M818.32,-230.715C906.934,-225.786 1112.13,-212.565 1283,-188 1286,-187.569 1289.1,-187.068 1292.2,-186.527"/>
<polygon fill="midnightblue" stroke="midnightblue" points="817.895,-227.233 808.101,-231.275 818.278,-234.222 817.895,-227.233"/>
</g>
<!-- Node31 -->
<g id="node31" class="node"><title>Node31</title>
<g id="a_node31"><a xlink:href="../../dd/dd7/a00260.html" target="_top" xlink:title="Exception.cpp">
<polygon fill="white" stroke="black" points="1381.5,-168.5 1381.5,-187.5 1460.5,-187.5 1460.5,-168.5 1381.5,-168.5"/>
<text text-anchor="middle" x="1421" y="-175.5" font-family="Helvetica,sans-Serif" font-size="10.00">Exception.cpp</text>
</a>
</g>
</g>
<!-- Node1&#45;&gt;Node31 -->
<g id="edge40" class="edge"><title>Node1&#45;&gt;Node31</title>
<path fill="none" stroke="midnightblue" d="M818.454,-231.276C917.951,-227.064 1166.02,-214.589 1372,-188 1375.09,-187.601 1378.28,-187.137 1381.48,-186.633"/>
<polygon fill="midnightblue" stroke="midnightblue" points="818.024,-227.791 808.178,-231.704 818.315,-234.785 818.024,-227.791"/>
</g>
<!-- Node13 -->
<g id="node13" class="node"><title>Node13</title>
<g id="a_node13"><a xlink:href="../../d9/d9b/a00363.html" target="_top" xlink:title="PartialGenerator.h">
<polygon fill="white" stroke="black" points="1159.5,-112.5 1159.5,-131.5 1254.5,-131.5 1254.5,-112.5 1159.5,-112.5"/>
<text text-anchor="middle" x="1207" y="-119.5" font-family="Helvetica,sans-Serif" font-size="10.00">PartialGenerator.h</text>
</a>
</g>
</g>
<!-- Node12&#45;&gt;Node13 -->
<g id="edge12" class="edge"><title>Node12&#45;&gt;Node13</title>
<path fill="none" stroke="midnightblue" d="M1299.69,-164.368C1277.03,-154.255 1245.87,-140.349 1226.08,-131.516"/>
<polygon fill="midnightblue" stroke="midnightblue" points="1298.27,-167.564 1308.83,-168.444 1301.12,-161.172 1298.27,-167.564"/>
</g>
<!-- Node29 -->
<g id="node29" class="node"><title>Node29</title>
<g id="a_node29"><a xlink:href="../../d3/dd1/a00214.html" target="_top" xlink:title="CollegePopulator.cpp">
<polygon fill="white" stroke="black" points="1273,-112.5 1273,-131.5 1383,-131.5 1383,-112.5 1273,-112.5"/>
<text text-anchor="middle" x="1328" y="-119.5" font-family="Helvetica,sans-Serif" font-size="10.00">CollegePopulator.cpp</text>
</a>
</g>
</g>
<!-- Node12&#45;&gt;Node29 -->
<g id="edge38" class="edge"><title>Node12&#45;&gt;Node29</title>
<path fill="none" stroke="midnightblue" d="M1328,-157.805C1328,-148.91 1328,-138.78 1328,-131.751"/>
<polygon fill="midnightblue" stroke="midnightblue" points="1324.5,-158.083 1328,-168.083 1331.5,-158.083 1324.5,-158.083"/>
</g>
<!-- Node30 -->
<g id="node30" class="node"><title>Node30</title>
<g id="a_node30"><a xlink:href="../../dd/dfd/a00438.html" target="_top" xlink:title="WorkplacePopulator.cpp">
<polygon fill="white" stroke="black" points="1401.5,-112.5 1401.5,-131.5 1524.5,-131.5 1524.5,-112.5 1401.5,-112.5"/>
<text text-anchor="middle" x="1463" y="-119.5" font-family="Helvetica,sans-Serif" font-size="10.00">WorkplacePopulator.cpp</text>
</a>
</g>
</g>
<!-- Node12&#45;&gt;Node30 -->
<g id="edge39" class="edge"><title>Node12&#45;&gt;Node30</title>
<path fill="none" stroke="midnightblue" d="M1358.91,-164.638C1384.24,-154.504 1419.43,-140.427 1441.71,-131.516"/>
<polygon fill="midnightblue" stroke="midnightblue" points="1357.38,-161.48 1349.39,-168.444 1359.98,-167.979 1357.38,-161.48"/>
</g>
<!-- Node14 -->
<g id="node14" class="node"><title>Node14</title>
<g id="a_node14"><a xlink:href="../../d1/de1/a00213.html" target="_top" xlink:title="CollegeGenerator.h">
<polygon fill="white" stroke="black" points="898.5,-56.5 898.5,-75.5 999.5,-75.5 999.5,-56.5 898.5,-56.5"/>
<text text-anchor="middle" x="949" y="-63.5" font-family="Helvetica,sans-Serif" font-size="10.00">CollegeGenerator.h</text>
</a>
</g>
</g>
<!-- Node13&#45;&gt;Node14 -->
<g id="edge13" class="edge"><title>Node13&#45;&gt;Node14</title>
<path fill="none" stroke="midnightblue" d="M1156.1,-110.346C1107.34,-100.141 1034.71,-84.94 989.69,-75.5164"/>
<polygon fill="midnightblue" stroke="midnightblue" points="1155.61,-113.821 1166.12,-112.444 1157.05,-106.969 1155.61,-113.821"/>
</g>
<!-- Node18 -->
<g id="node18" class="node"><title>Node18</title>
<g id="a_node18"><a xlink:href="../../dd/df3/a00219.html" target="_top" xlink:title="CommunityGenerator.h">
<polygon fill="white" stroke="black" points="1416,-56.5 1416,-75.5 1534,-75.5 1534,-56.5 1416,-56.5"/>
<text text-anchor="middle" x="1475" y="-63.5" font-family="Helvetica,sans-Serif" font-size="10.00">CommunityGenerator.h</text>
</a>
</g>
</g>
<!-- Node13&#45;&gt;Node18 -->
<g id="edge17" class="edge"><title>Node13&#45;&gt;Node18</title>
<path fill="none" stroke="midnightblue" d="M1259.56,-110.41C1310.21,-100.204 1385.87,-84.9597 1432.73,-75.5164"/>
<polygon fill="midnightblue" stroke="midnightblue" points="1258.58,-107.037 1249.47,-112.444 1259.96,-113.899 1258.58,-107.037"/>
</g>
<!-- Node20 -->
<g id="node20" class="node"><title>Node20</title>
<g id="a_node20"><a xlink:href="../../d3/d5e/a00275.html" target="_top" xlink:title="GeoGridGenerator.h">
<polygon fill="white" stroke="black" points="776,-56.5 776,-75.5 880,-75.5 880,-56.5 776,-56.5"/>
<text text-anchor="middle" x="828" y="-63.5" font-family="Helvetica,sans-Serif" font-size="10.00">GeoGridGenerator.h</text>
</a>
</g>
</g>
<!-- Node13&#45;&gt;Node20 -->
<g id="edge21" class="edge"><title>Node13&#45;&gt;Node20</title>
<path fill="none" stroke="midnightblue" d="M1149.25,-112.857C1085.7,-103.885 980.56,-89.0006 890,-76 886.77,-75.5363 883.446,-75.0577 880.093,-74.5741"/>
<polygon fill="midnightblue" stroke="midnightblue" points="1149.07,-116.367 1159.46,-114.299 1150.05,-109.436 1149.07,-116.367"/>
</g>
<!-- Node22 -->
<g id="node22" class="node"><title>Node22</title>
<g id="a_node22"><a xlink:href="../../d0/da2/a00307.html" target="_top" xlink:title="HouseholdGenerator.h">
<polygon fill="white" stroke="black" points="1018,-56.5 1018,-75.5 1132,-75.5 1132,-56.5 1018,-56.5"/>
<text text-anchor="middle" x="1075" y="-63.5" font-family="Helvetica,sans-Serif" font-size="10.00">HouseholdGenerator.h</text>
</a>
</g>
</g>
<!-- Node13&#45;&gt;Node22 -->
<g id="edge25" class="edge"><title>Node13&#45;&gt;Node22</title>
<path fill="none" stroke="midnightblue" d="M1176.78,-108.638C1152.01,-98.504 1117.6,-84.4274 1095.82,-75.5164"/>
<polygon fill="midnightblue" stroke="midnightblue" points="1175.5,-111.897 1186.08,-112.444 1178.15,-105.418 1175.5,-111.897"/>
</g>
<!-- Node24 -->
<g id="node24" class="node"><title>Node24</title>
<g id="a_node24"><a xlink:href="../../d2/d0a/a00333.html" target="_top" xlink:title="K12SchoolGenerator.h">
<polygon fill="white" stroke="black" points="1282.5,-56.5 1282.5,-75.5 1397.5,-75.5 1397.5,-56.5 1282.5,-56.5"/>
<text text-anchor="middle" x="1340" y="-63.5" font-family="Helvetica,sans-Serif" font-size="10.00">K12SchoolGenerator.h</text>
</a>
</g>
</g>
<!-- Node13&#45;&gt;Node24 -->
<g id="edge29" class="edge"><title>Node13&#45;&gt;Node24</title>
<path fill="none" stroke="midnightblue" d="M1237.45,-108.638C1262.41,-98.504 1297.08,-84.4274 1319.02,-75.5164"/>
<polygon fill="midnightblue" stroke="midnightblue" points="1236.02,-105.439 1228.07,-112.444 1238.66,-111.924 1236.02,-105.439"/>
</g>
<!-- Node26 -->
<g id="node26" class="node"><title>Node26</title>
<g id="a_node26"><a xlink:href="../../de/dd7/a00362.html" target="_top" xlink:title="PartialGenerator.cpp">
<polygon fill="white" stroke="black" points="1552,-56.5 1552,-75.5 1658,-75.5 1658,-56.5 1552,-56.5"/>
<text text-anchor="middle" x="1605" y="-63.5" font-family="Helvetica,sans-Serif" font-size="10.00">PartialGenerator.cpp</text>
</a>
</g>
</g>
<!-- Node13&#45;&gt;Node26 -->
<g id="edge33" class="edge"><title>Node13&#45;&gt;Node26</title>
<path fill="none" stroke="midnightblue" d="M1264.52,-111.962C1389.41,-94.1739 1422.28,-92.5499 1543,-76 1545.91,-75.6011 1548.89,-75.1863 1551.91,-74.7633"/>
<polygon fill="midnightblue" stroke="midnightblue" points="1263.97,-108.505 1254.57,-113.386 1264.97,-115.434 1263.97,-108.505"/>
</g>
<!-- Node27 -->
<g id="node27" class="node"><title>Node27</title>
<g id="a_node27"><a xlink:href="../../d4/da8/a00437.html" target="_top" xlink:title="WorkplaceGenerator.h">
<polygon fill="white" stroke="black" points="1150,-56.5 1150,-75.5 1264,-75.5 1264,-56.5 1150,-56.5"/>
<text text-anchor="middle" x="1207" y="-63.5" font-family="Helvetica,sans-Serif" font-size="10.00">WorkplaceGenerator.h</text>
</a>
</g>
</g>
<!-- Node13&#45;&gt;Node27 -->
<g id="edge34" class="edge"><title>Node13&#45;&gt;Node27</title>
<path fill="none" stroke="midnightblue" d="M1207,-101.805C1207,-92.9102 1207,-82.7798 1207,-75.7511"/>
<polygon fill="midnightblue" stroke="midnightblue" points="1203.5,-102.083 1207,-112.083 1210.5,-102.083 1203.5,-102.083"/>
</g>
<!-- Node15 -->
<g id="node15" class="node"><title>Node15</title>
<g id="a_node15"><a xlink:href="../../dd/dc1/a00212.html" target="_top" xlink:title="CollegeGenerator.cpp">
<polygon fill="white" stroke="black" points="747.5,-0.5 747.5,-19.5 858.5,-19.5 858.5,-0.5 747.5,-0.5"/>
<text text-anchor="middle" x="803" y="-7.5" font-family="Helvetica,sans-Serif" font-size="10.00">CollegeGenerator.cpp</text>
</a>
</g>
</g>
<!-- Node14&#45;&gt;Node15 -->
<g id="edge14" class="edge"><title>Node14&#45;&gt;Node15</title>
<path fill="none" stroke="midnightblue" d="M916.301,-52.9058C888.852,-42.7536 850.332,-28.5063 826.026,-19.5164"/>
<polygon fill="midnightblue" stroke="midnightblue" points="915.273,-56.2572 925.866,-56.4435 917.701,-49.6919 915.273,-56.2572"/>
</g>
<!-- Node16 -->
<g id="node16" class="node"><title>Node16</title>
<g id="a_node16"><a xlink:href="../../d3/dcc/a00264.html" target="_top" xlink:title="GenGeoPopController.cpp">
<polygon fill="white" stroke="black" points="1019.5,-0.5 1019.5,-19.5 1150.5,-19.5 1150.5,-0.5 1019.5,-0.5"/>
<text text-anchor="middle" x="1085" y="-7.5" font-family="Helvetica,sans-Serif" font-size="10.00">GenGeoPopController.cpp</text>
</a>
</g>
</g>
<!-- Node14&#45;&gt;Node16 -->
<g id="edge15" class="edge"><title>Node14&#45;&gt;Node16</title>
<path fill="none" stroke="midnightblue" d="M980.135,-52.6377C1005.66,-42.504 1041.11,-28.4274 1063.55,-19.5164"/>
<polygon fill="midnightblue" stroke="midnightblue" points="978.552,-49.5002 970.55,-56.4435 981.135,-56.0061 978.552,-49.5002"/>
</g>
<!-- Node17 -->
<g id="node17" class="node"><title>Node17</title>
<g id="a_node17"><a xlink:href="../../df/d03/a00348.html" target="_top" xlink:title="main.cpp">
<polygon fill="white" stroke="black" points="1169,-0.5 1169,-19.5 1225,-19.5 1225,-0.5 1169,-0.5"/>
<text text-anchor="middle" x="1197" y="-7.5" font-family="Helvetica,sans-Serif" font-size="10.00">main.cpp</text>
</a>
</g>
</g>
<!-- Node14&#45;&gt;Node17 -->
<g id="edge16" class="edge"><title>Node14&#45;&gt;Node17</title>
<path fill="none" stroke="midnightblue" d="M999.945,-54.4025C1042.51,-45.4708 1104.79,-32.2271 1159,-20 1162.17,-19.284 1165.49,-18.5201 1168.79,-17.7515"/>
<polygon fill="midnightblue" stroke="midnightblue" points="999.171,-50.9886 990.101,-56.4648 1000.61,-57.8399 999.171,-50.9886"/>
</g>
<!-- Node18&#45;&gt;Node16 -->
<g id="edge19" class="edge"><title>Node18&#45;&gt;Node16</title>
<path fill="none" stroke="midnightblue" d="M1405.67,-55.4C1332.06,-45.2083 1216.84,-29.2544 1146.4,-19.5018"/>
<polygon fill="midnightblue" stroke="midnightblue" points="1405.38,-58.8939 1415.77,-56.7986 1406.34,-51.96 1405.38,-58.8939"/>
</g>
<!-- Node18&#45;&gt;Node17 -->
<g id="edge20" class="edge"><title>Node18&#45;&gt;Node17</title>
<path fill="none" stroke="midnightblue" d="M1414.91,-54.7089C1366.04,-46.1172 1295.38,-33.1864 1234,-20 1231.16,-19.3891 1228.2,-18.7223 1225.25,-18.0369"/>
<polygon fill="midnightblue" stroke="midnightblue" points="1414.54,-58.1975 1424.99,-56.4749 1415.75,-51.3024 1414.54,-58.1975"/>
</g>
<!-- Node19 -->
<g id="node19" class="node"><title>Node19</title>
<g id="a_node19"><a xlink:href="../../dc/d9a/a00218.html" target="_top" xlink:title="CommunityGenerator.cpp">
<polygon fill="white" stroke="black" points="1529,-0.5 1529,-19.5 1657,-19.5 1657,-0.5 1529,-0.5"/>
<text text-anchor="middle" x="1593" y="-7.5" font-family="Helvetica,sans-Serif" font-size="10.00">CommunityGenerator.cpp</text>
</a>
</g>
</g>
<!-- Node18&#45;&gt;Node19 -->
<g id="edge18" class="edge"><title>Node18&#45;&gt;Node19</title>
<path fill="none" stroke="midnightblue" d="M1502.9,-52.2321C1524.97,-42.1312 1555.18,-28.3091 1574.39,-19.5164"/>
<polygon fill="midnightblue" stroke="midnightblue" points="1501.33,-49.0997 1493.7,-56.4435 1504.25,-55.4648 1501.33,-49.0997"/>
</g>
<!-- Node20&#45;&gt;Node16 -->
<g id="edge23" class="edge"><title>Node20&#45;&gt;Node16</title>
<path fill="none" stroke="midnightblue" d="M878.707,-54.3456C927.276,-44.1405 999.619,-28.94 1044.47,-19.5164"/>
<polygon fill="midnightblue" stroke="midnightblue" points="877.789,-50.962 868.722,-56.4435 879.228,-57.8124 877.789,-50.962"/>
</g>
<!-- Node20&#45;&gt;Node17 -->
<g id="edge24" class="edge"><title>Node20&#45;&gt;Node17</title>
<path fill="none" stroke="midnightblue" d="M889.697,-56.0423C889.798,-56.0282 889.899,-56.0141 890,-56 1009.46,-39.3358 1040.39,-41.9267 1159,-20 1162.2,-19.4084 1165.54,-18.7223 1168.84,-17.9979"/>
<polygon fill="midnightblue" stroke="midnightblue" points="889.503,-52.5349 880.089,-57.3958 890.48,-59.4665 889.503,-52.5349"/>
</g>
<!-- Node21 -->
<g id="node21" class="node"><title>Node21</title>
<g id="a_node21"><a xlink:href="../../dd/d56/a00274.html" target="_top" xlink:title="GeoGridGenerator.cpp">
<polygon fill="white" stroke="black" points="615,-0.5 615,-19.5 729,-19.5 729,-0.5 615,-0.5"/>
<text text-anchor="middle" x="672" y="-7.5" font-family="Helvetica,sans-Serif" font-size="10.00">GeoGridGenerator.cpp</text>
</a>
</g>
</g>
<!-- Node20&#45;&gt;Node21 -->
<g id="edge22" class="edge"><title>Node20&#45;&gt;Node21</title>
<path fill="none" stroke="midnightblue" d="M793.83,-53.172C764.456,-43.0039 722.802,-28.5852 696.603,-19.5164"/>
<polygon fill="midnightblue" stroke="midnightblue" points="792.687,-56.4798 803.281,-56.4435 794.976,-49.8649 792.687,-56.4798"/>
</g>
<!-- Node22&#45;&gt;Node16 -->
<g id="edge27" class="edge"><title>Node22&#45;&gt;Node16</title>
<path fill="none" stroke="midnightblue" d="M1078.5,-46.1005C1080.16,-37.1357 1082.06,-26.8579 1083.38,-19.7511"/>
<polygon fill="midnightblue" stroke="midnightblue" points="1075.03,-45.6128 1076.65,-56.083 1081.91,-46.8875 1075.03,-45.6128"/>
</g>
<!-- Node22&#45;&gt;Node17 -->
<g id="edge28" class="edge"><title>Node22&#45;&gt;Node17</title>
<path fill="none" stroke="midnightblue" d="M1103.54,-52.3678C1126.39,-42.2553 1157.81,-28.3486 1177.76,-19.5164"/>
<polygon fill="midnightblue" stroke="midnightblue" points="1102.06,-49.1955 1094.33,-56.4435 1104.89,-55.5965 1102.06,-49.1955"/>
</g>
<!-- Node23 -->
<g id="node23" class="node"><title>Node23</title>
<g id="a_node23"><a xlink:href="../../d1/de3/a00306.html" target="_top" xlink:title="HouseholdGenerator.cpp">
<polygon fill="white" stroke="black" points="876.5,-0.5 876.5,-19.5 1001.5,-19.5 1001.5,-0.5 876.5,-0.5"/>
<text text-anchor="middle" x="939" y="-7.5" font-family="Helvetica,sans-Serif" font-size="10.00">HouseholdGenerator.cpp</text>
</a>
</g>
</g>
<!-- Node22&#45;&gt;Node23 -->
<g id="edge26" class="edge"><title>Node22&#45;&gt;Node23</title>
<path fill="none" stroke="midnightblue" d="M1043.87,-52.6377C1018.34,-42.504 982.891,-28.4274 960.449,-19.5164"/>
<polygon fill="midnightblue" stroke="midnightblue" points="1042.86,-56.0061 1053.45,-56.4435 1045.45,-49.5002 1042.86,-56.0061"/>
</g>
<!-- Node24&#45;&gt;Node16 -->
<g id="edge31" class="edge"><title>Node24&#45;&gt;Node16</title>
<path fill="none" stroke="midnightblue" d="M1289.69,-54.3456C1241.5,-44.1405 1169.72,-28.94 1125.22,-19.5164"/>
<polygon fill="midnightblue" stroke="midnightblue" points="1289.09,-57.7958 1299.59,-56.4435 1290.54,-50.9477 1289.09,-57.7958"/>
</g>
<!-- Node24&#45;&gt;Node17 -->
<g id="edge32" class="edge"><title>Node24&#45;&gt;Node17</title>
<path fill="none" stroke="midnightblue" d="M1307.97,-52.9058C1281.09,-42.7536 1243.36,-28.5063 1219.55,-19.5164"/>
<polygon fill="midnightblue" stroke="midnightblue" points="1306.75,-56.1851 1317.34,-56.4435 1309.22,-49.6364 1306.75,-56.1851"/>
</g>
<!-- Node25 -->
<g id="node25" class="node"><title>Node25</title>
<g id="a_node25"><a xlink:href="../../dc/d50/a00332.html" target="_top" xlink:title="K12SchoolGenerator.cpp">
<polygon fill="white" stroke="black" points="1385.5,-0.5 1385.5,-19.5 1510.5,-19.5 1510.5,-0.5 1385.5,-0.5"/>
<text text-anchor="middle" x="1448" y="-7.5" font-family="Helvetica,sans-Serif" font-size="10.00">K12SchoolGenerator.cpp</text>
</a>
</g>
</g>
<!-- Node24&#45;&gt;Node25 -->
<g id="edge30" class="edge"><title>Node24&#45;&gt;Node25</title>
<path fill="none" stroke="midnightblue" d="M1366.55,-51.7261C1386.55,-41.7271 1413.39,-28.3065 1430.69,-19.6545"/>
<polygon fill="midnightblue" stroke="midnightblue" points="1364.73,-48.7213 1357.35,-56.324 1367.86,-54.9823 1364.73,-48.7213"/>
</g>
<!-- Node27&#45;&gt;Node16 -->
<g id="edge36" class="edge"><title>Node27&#45;&gt;Node16</title>
<path fill="none" stroke="midnightblue" d="M1178.46,-52.3678C1155.61,-42.2553 1124.19,-28.3486 1104.24,-19.5164"/>
<polygon fill="midnightblue" stroke="midnightblue" points="1177.11,-55.5965 1187.67,-56.4435 1179.94,-49.1955 1177.11,-55.5965"/>
</g>
<!-- Node27&#45;&gt;Node17 -->
<g id="edge37" class="edge"><title>Node27&#45;&gt;Node17</title>
<path fill="none" stroke="midnightblue" d="M1203.5,-46.1005C1201.84,-37.1357 1199.94,-26.8579 1198.62,-19.7511"/>
<polygon fill="midnightblue" stroke="midnightblue" points="1200.09,-46.8875 1205.35,-56.083 1206.97,-45.6128 1200.09,-46.8875"/>
</g>
<!-- Node28 -->
<g id="node28" class="node"><title>Node28</title>
<g id="a_node28"><a xlink:href="../../d4/d82/a00436.html" target="_top" xlink:title="WorkplaceGenerator.cpp">
<polygon fill="white" stroke="black" points="1242.5,-0.5 1242.5,-19.5 1367.5,-19.5 1367.5,-0.5 1242.5,-0.5"/>
<text text-anchor="middle" x="1305" y="-7.5" font-family="Helvetica,sans-Serif" font-size="10.00">WorkplaceGenerator.cpp</text>
</a>
</g>
</g>
<!-- Node27&#45;&gt;Node28 -->
<g id="edge35" class="edge"><title>Node27&#45;&gt;Node28</title>
<path fill="none" stroke="midnightblue" d="M1231.59,-51.4526C1249.68,-41.4835 1273.73,-28.2279 1289.29,-19.6545"/>
<polygon fill="midnightblue" stroke="midnightblue" points="1229.81,-48.4324 1222.75,-56.324 1233.19,-54.5633 1229.81,-48.4324"/>
</g>
</g>
</svg>
        <g id="navigator" transform="translate(0 0)" fill="#404254">
                <rect fill="#f2f5e9" fill-opacity="0.5" stroke="#606060" stroke-width=".5" x="0" y="0" width="60" height="60"/>
                <use id="zoomplus" xlink:href="#zoomPlus" x="17" y="9" onmousedown="handleZoom(evt,'in')"/>
                <use id="zoomminus" xlink:href="#zoomMin" x="42" y="9" onmousedown="handleZoom(evt,'out')"/>
                <use id="reset" xlink:href="#resetDef" x="30" y="36" onmousedown="handleReset()"/>
                <g id="arrowUp" xlink:href="#dirArrow" transform="translate(30 24)" onmousedown="handlePan(0,-1)">
                  <use xlink:href="#rim" fill="#404040">
                        <set attributeName="fill" to="#808080" begin="arrowUp.mouseover" end="arrowUp.mouseout"/>
                  </use>
                  <path fill="none" stroke="white" stroke-width="1.5" d="M0,-3.0v7 M-2.5,-0.5L0,-3.0L2.5,-0.5"/>
                </g>
                <g id="arrowRight" xlink:href="#dirArrow" transform="rotate(90) translate(36 -43)" onmousedown="handlePan(1,0)">
                  <use xlink:href="#rim" fill="#404040">
                        <set attributeName="fill" to="#808080" begin="arrowRight.mouseover" end="arrowRight.mouseout"/>
                  </use>
                  <path fill="none" stroke="white" stroke-width="1.5" d="M0,-3.0v7 M-2.5,-0.5L0,-3.0L2.5,-0.5"/>
                </g>
                <g id="arrowDown" xlink:href="#dirArrow" transform="rotate(180) translate(-30 -48)" onmousedown="handlePan(0,1)">
                  <use xlink:href="#rim" fill="#404040">
                        <set attributeName="fill" to="#808080" begin="arrowDown.mouseover" end="arrowDown.mouseout"/>
                  </use>
                  <path fill="none" stroke="white" stroke-width="1.5" d="M0,-3.0v7 M-2.5,-0.5L0,-3.0L2.5,-0.5"/>
                </g>
                <g id="arrowLeft" xlink:href="#dirArrow" transform="rotate(270) translate(-36 17)" onmousedown="handlePan(-1,0)">
                  <use xlink:href="#rim" fill="#404040">
                        <set attributeName="fill" to="#808080" begin="arrowLeft.mouseover" end="arrowLeft.mouseout"/>
                  </use>
                  <path fill="none" stroke="white" stroke-width="1.5" d="M0,-3.0v7 M-2.5,-0.5L0,-3.0L2.5,-0.5"/>
                </g>
        </g>
        <svg viewBox="0 0 15 15" width="100%" height="30px" preserveAspectRatio="xMaxYMin meet">
         <g id="arrow_out" transform="scale(0.3 0.3)">
          <a xlink:href="a00612_org.svg" target="_base">
           <rect id="button" ry="5" rx="5" y="6" x="6" height="38" width="38"
                fill="#f2f5e9" fill-opacity="0.5" stroke="#606060" stroke-width="1.0"/>
           <path id="arrow"
             d="M 11.500037,31.436501 C 11.940474,20.09759 22.043105,11.32322 32.158766,21.979434 L 37.068811,17.246167 C 37.068811,17.246167 37.088388,32 37.088388,32 L 22.160133,31.978069 C 22.160133,31.978069 26.997745,27.140456 26.997745,27.140456 C 18.528582,18.264221 13.291696,25.230495 11.500037,31.436501 z"
             style="fill:#404040;"/>
          </a>
         </g>
        </svg>
</svg>
