<?xml version="1.0" encoding="UTF-8" standalone="no"?>
<!DOCTYPE svg PUBLIC "-//W3C//DTD SVG 1.1//EN"
 "http://www.w3.org/Graphics/SVG/1.1/DTD/svg11.dtd">
<!-- Generated by graphviz version 2.36.0 (20140111.2315)
 -->
<!-- Title: stride::util::TrimRight Pages: 1 -->
<svg width="532pt" height="87pt"
 viewBox="0.00 0.00 532.00 87.00" xmlns="http://www.w3.org/2000/svg" xmlns:xlink="http://www.w3.org/1999/xlink">
<g id="graph0" class="graph" transform="scale(1 1) rotate(0) translate(4 83)">
<title>stride::util::TrimRight</title>
<polygon fill="white" stroke="none" points="-4,4 -4,-83 528,-83 528,4 -4,4"/>
<!-- Node1 -->
<g id="node1" class="node"><title>Node1</title>
<polygon fill="#bfbfbf" stroke="black" points="0,-29.5 0,-48.5 108,-48.5 108,-29.5 0,-29.5"/>
<text text-anchor="middle" x="54" y="-36.5" font-family="Helvetica,sans-Serif" font-size="10.00">stride::util::TrimRight</text>
</g>
<!-- Node2 -->
<g id="node2" class="node"><title>Node2</title>
<g id="a_node2"><a xlink:href="../../d3/d58/a00481.html#a01882a252a5e262d442f9a8b8f64e3ef" target="_top" xlink:title="Trim characters at both ends of string. ">
<polygon fill="white" stroke="black" points="144.5,-29.5 144.5,-48.5 229.5,-48.5 229.5,-29.5 144.5,-29.5"/>
<text text-anchor="middle" x="187" y="-36.5" font-family="Helvetica,sans-Serif" font-size="10.00">stride::util::Trim</text>
</a>
</g>
</g>
<!-- Node1&#45;&gt;Node2 -->
<g id="edge1" class="edge"><title>Node1&#45;&gt;Node2</title>
<path fill="none" stroke="midnightblue" d="M118.541,-39C127.33,-39 136.166,-39 144.416,-39"/>
<polygon fill="midnightblue" stroke="midnightblue" points="118.283,-35.5001 108.283,-39 118.283,-42.5001 118.283,-35.5001"/>
</g>
<!-- Node3 -->
<g id="node3" class="node"><title>Node3</title>
<g id="a_node3"><a xlink:href="../../dd/db2/a00151.html#a2f3c33a76164f6cbc6e31aab6f8b560d" target="_top" xlink:title="stride::util::CSV::\lReadFromStream">
<polygon fill="white" stroke="black" points="273,-49 273,-79 367,-79 367,-49 273,-49"/>
<text text-anchor="start" x="281" y="-67" font-family="Helvetica,sans-Serif" font-size="10.00">stride::util::CSV::</text>
<text text-anchor="middle" x="320" y="-56" font-family="Helvetica,sans-Serif" font-size="10.00">ReadFromStream</text>
</a>
</g>
</g>
<!-- Node2&#45;&gt;Node3 -->
<g id="edge2" class="edge"><title>Node2&#45;&gt;Node3</title>
<path fill="none" stroke="midnightblue" d="M239.949,-48.9139C250.73,-50.9714 262.024,-53.1267 272.591,-55.1433"/>
<polygon fill="midnightblue" stroke="midnightblue" points="240.288,-45.4156 229.809,-46.9789 238.976,-52.2915 240.288,-45.4156"/>
</g>
<!-- Node5 -->
<g id="node5" class="node"><title>Node5</title>
<g id="a_node5"><a xlink:href="../../d7/d9a/a00152.html#ab60a313ff2e75d0ae07bc7624c27a861" target="_top" xlink:title="CSVRow initialized with values. Should no be called by user code. CSV has convenience functions...">
<polygon fill="white" stroke="black" points="266.5,-0 266.5,-30 373.5,-30 373.5,-0 266.5,-0"/>
<text text-anchor="start" x="274.5" y="-18" font-family="Helvetica,sans-Serif" font-size="10.00">stride::util::CSVRow</text>
<text text-anchor="middle" x="320" y="-7" font-family="Helvetica,sans-Serif" font-size="10.00">::CSVRow</text>
</a>
</g>
</g>
<!-- Node2&#45;&gt;Node5 -->
<g id="edge4" class="edge"><title>Node2&#45;&gt;Node5</title>
<path fill="none" stroke="midnightblue" d="M239.769,-29.5155C248.417,-27.9312 257.399,-26.2856 266.076,-24.6961"/>
<polygon fill="midnightblue" stroke="midnightblue" points="239.015,-26.0954 229.809,-31.3403 240.276,-32.9808 239.015,-26.0954"/>
</g>
<!-- Node4 -->
<g id="node4" class="node"><title>Node4</title>
<g id="a_node4"><a xlink:href="../../dd/db2/a00151.html#ac8d180042e0dd5717d655d9cbd1dc59b" target="_top" xlink:title="Initialize from file. ">
<polygon fill="white" stroke="black" points="410.5,-54.5 410.5,-73.5 523.5,-73.5 523.5,-54.5 410.5,-54.5"/>
<text text-anchor="middle" x="467" y="-61.5" font-family="Helvetica,sans-Serif" font-size="10.00">stride::util::CSV::CSV</text>
</a>
</g>
</g>
<!-- Node3&#45;&gt;Node4 -->
<g id="edge3" class="edge"><title>Node3&#45;&gt;Node4</title>
<path fill="none" stroke="midnightblue" d="M377.433,-64C388.221,-64 399.507,-64 410.272,-64"/>
<polygon fill="midnightblue" stroke="midnightblue" points="377.278,-60.5001 367.278,-64 377.278,-67.5001 377.278,-60.5001"/>
</g>
</g>
</svg>
